#
# The license for this database is specified in the Creative Commons Attribution-Share Alike 2.1 Japan. If you use data from this database, please be sure attribute this database as follows: "BodyParts3D, (c)  The Database Center for Life Science licensed under CC Attribution-Share Alike 2.1 Japan".
# http://dbarchive.biosciencedbc.jp/en/bodyparts3d/lic.html
#
#
# Compatibility version : 4.0
# File ID : FJ3067
# Representation ID : BP9709
# Build-up logic : FMA 3.0 part_of
# Concept ID : FMA8681
# English name : Apical part of right apical segmental vein
# Bounds(mm): (-34.450800,-102.524000,1320.970000)-(-24.543200,-94.501300,1331.410000)
# Volume(cm3): 0.062200
#
v -34.09 -95.5696 1329.9
v -34.3385 -95.711 1330.41
v -34.2947 -95.6987 1330.83
v -34.4508 -95.2848 1330.63
v -34.2692 -95.2756 1331.07
v -34.3346 -95.0432 1330.84
v -34.2554 -94.8723 1330.43
v -33.7671 -96.2121 1329.89
v -33.802 -96.2744 1330.28
v -33.7871 -96.1632 1330.7
v -33.9887 -95.6986 1331.18
v -33.6811 -96.0293 1331.01
v -33.79 -95.4706 1331.38
v -33.5809 -95.7024 1331.31
v -33.553 -95.4935 1331.39
v -33.1754 -96.0368 1331.05
v -33.2321 -95.7685 1331.23
v -32.966 -95.5545 1331.16
v -33.8054 -94.9607 1329.87
v -34.0001 -94.6651 1330.83
v -34.0087 -94.8617 1331.1
v -33.966 -94.6116 1330.42
v -33.7892 -95.0595 1331.34
v -33.7666 -94.6928 1331.05
v -33.5613 -95.2726 1331.41
v -33.5727 -94.5013 1330.63
v -33.2946 -94.91 1331.12
v -33.2185 -94.6517 1330.08
v -33.2655 -94.6533 1330.79
v -32.8723 -94.7226 1330.25
v -31.8748 -97.4292 1328.04
v -31.3578 -98.1513 1328.16
v -31.3114 -97.7733 1329.42
v -31.1416 -96.0207 1327.94
v -29.9847 -99.3006 1326.71
v -29.731 -99.3535 1327.35
v -30.708 -97.3645 1326.7
v -29.9067 -98.8352 1325.7
v -29.6243 -98.5542 1328.56
v -29.884 -97.7176 1329.17
v -29.8691 -96.2695 1327.69
v -29.3656 -96.5045 1327.9
v -30.5816 -96.0834 1329.44
v -27.3431 -101.554 1322.48
v -27.4504 -100.285 1322.31
v -28.7699 -99.383 1324.12
v -27.6638 -99.3076 1327.04
v -28.8038 -98.3494 1324.66
v -28.0207 -98.0646 1324.66
v -27.9525 -97.5058 1326
v -27.6639 -97.7568 1326.46
v -28.7609 -97.3879 1328.24
v -27.5595 -98.5854 1327.07
v -25.8888 -102.245 1321.47
v -26.5378 -102.334 1322.54
v -26.5549 -102.097 1321.71
v -26.5485 -102.28 1322.08
v -26.6382 -102.16 1323.12
v -26.1229 -102.347 1321.69
v -26.1057 -102.491 1322.11
v -25.9663 -102.482 1322.57
v -25.6785 -102.524 1322.13
v -25.6961 -102.403 1321.71
v -26.27 -102.019 1323.58
v -26.7142 -101.253 1321.34
v -26.764 -100.811 1321.42
v -26.3106 -101.876 1321.29
v -26.3242 -100.821 1321.13
v -25.9121 -101.428 1320.97
v -25.8967 -100.815 1321.02
v -25.6849 -101.87 1321.13
v -27.1576 -101.15 1321.82
v -27.0607 -101.942 1322.69
v -27.1495 -101.854 1323.24
v -26.9052 -101.658 1321.68
v -26.6211 -100.334 1321.56
v -26.1204 -100.384 1321.31
v -25.6801 -100.397 1321.3
v -26.6389 -99.8033 1322.05
v -25.9859 -99.9239 1321.79
v -27.1564 -100.421 1325.87
v -25.466 -102.193 1321.48
v -25.2715 -102.383 1322.08
v -25.2747 -102.345 1322.52
v -25.4563 -101.455 1321.01
v -25.4692 -101.022 1321.02
v -25.1256 -101.685 1321.28
v -25.0613 -100.613 1321.51
v -24.8309 -101.248 1321.46
v -25.5276 -102.044 1323.27
v -25.0524 -102.075 1321.69
v -24.8917 -102.079 1322.12
v -24.8706 -101.881 1322.75
v -24.7481 -101.668 1321.69
v -24.7615 -101.431 1322.96
v -24.9333 -100.497 1323.16
v -24.612 -101.655 1322.14
v -24.5885 -101.223 1321.89
v -24.5432 -101.208 1322.35
v -25.5295 -100.899 1324.2
v -25.3089 -101.611 1323.55
v -25.5853 -99.7906 1322.26
v -25.3298 -99.8205 1322.98
v -24.8229 -100.418 1322.32
v -34.4508 -95.2848 1330.63
v -34.2554 -94.8723 1330.43
v -28.7609 -97.3879 1328.24
vn -0.801279 -0.0413008 -0.596863
vn -0.875869 -0.443168 -0.190934
vn -0.787603 -0.517689 0.334185
vn -0.882173 0.0780433 -0.464414
vn -0.744521 0.0396052 0.666423
vn -0.824691 0.461274 0.327279
vn -0.73127 0.373528 -0.570719
vn -0.755711 -0.551468 -0.353247
vn -0.647464 -0.760724 0.0457057
vn -0.473213 -0.795982 0.377468
vn -0.499609 -0.524478 0.68943
vn -0.242484 -0.727422 0.641918
vn -0.301622 -0.152548 0.941145
vn -0.0666264 -0.512387 0.856166
vn 0.148508 -0.202715 0.967911
vn 0.0756778 -0.601905 0.794974
vn 0.25499 -0.363378 0.896067
vn 0.482072 0.0601509 0.874064
vn -0.449057 0.57719 -0.682055
vn -0.527062 0.804817 0.272902
vn -0.545288 0.544249 0.637537
vn -0.402361 0.87132 -0.280903
vn -0.21357 0.395468 0.893304
vn -0.0515956 0.787329 0.614371
vn 0.171565 0.172831 0.969894
vn 0.0344839 0.992927 0.113607
vn 0.401368 0.537791 0.741407
vn 0.0234876 0.913724 -0.405656
vn 0.408624 0.804959 0.430194
vn 0.423206 0.904261 0.0566545
vn -0.782097 -0.397768 -0.479693
vn -0.67885 -0.72421 -0.121172
vn -0.0871227 -0.759294 0.644889
vn -0.18668 0.740699 -0.645381
vn -0.722158 -0.684391 -0.100481
vn -0.343258 -0.87322 0.345921
vn -0.650957 0.215956 -0.727749
vn -0.838892 -0.194931 -0.508195
vn 0.166566 -0.679206 0.714797
vn 0.457942 -0.264794 0.84863
vn 0.27122 0.916794 -0.293135
vn 0.597156 0.790214 0.137723
vn 0.639891 0.518802 0.566907
vn -0.796122 -0.519656 -0.310077
vn -0.722196 0.21559 -0.657233
vn -0.746811 0.148401 -0.648267
vn 0.561242 -0.367816 0.74143
vn -0.482257 0.531146 -0.696643
vn 0.0257417 0.851749 -0.523317
vn 0.476045 0.862336 -0.172506
vn 0.766137 0.597564 0.236538
vn 0.633749 0.02444 0.773153
vn 0.791232 0.0940885 0.604234
vn -0.0742623 -0.740427 -0.668022
vn -0.443831 -0.893853 0.0635609
vn -0.602234 -0.656331 -0.454472
vn -0.569249 -0.788206 -0.233853
vn -0.308994 -0.9038 0.296089
vn -0.310766 -0.827078 -0.468365
vn -0.22663 -0.963638 -0.141564
vn -0.022089 -0.961772 0.272959
vn 0.141327 -0.989121 -0.0408133
vn 0.0900961 -0.909072 -0.406782
vn 0.00861453 -0.866684 0.498783
vn -0.597628 -0.115101 -0.793469
vn -0.641407 0.20732 -0.738658
vn -0.410329 -0.508796 -0.756807
vn -0.397377 0.25031 -0.882857
vn -0.168611 -0.128099 -0.977323
vn -0.0413162 0.341318 -0.939039
vn 0.0890489 -0.52378 -0.847187
vn -0.807203 -0.0991691 -0.581884
vn -0.675609 -0.732527 -0.0834112
vn -0.551531 -0.825058 0.122857
vn -0.725242 -0.399246 -0.560916
vn -0.464685 0.497859 -0.73226
vn -0.168388 0.614328 -0.770874
vn 0.252682 0.646744 -0.719635
vn -0.238676 0.713018 -0.659272
vn 0.0728585 0.802042 -0.592807
vn 0.308103 -0.678261 0.667109
vn 0.327551 -0.72928 -0.600717
vn 0.459751 -0.865539 -0.198673
vn 0.448135 -0.857432 0.252952
vn 0.351538 -0.16301 -0.921872
vn 0.345764 0.237851 -0.907675
vn 0.549501 -0.406853 -0.72974
vn 0.648593 0.520118 -0.555701
vn 0.725167 0.0431363 -0.687221
vn 0.362637 -0.763121 0.534921
vn 0.608864 -0.657355 -0.444037
vn 0.744878 -0.664404 -0.061026
vn 0.730791 -0.575915 0.366423
vn 0.824224 -0.365225 -0.432741
vn 0.877187 -0.206609 0.433422
vn 0.891336 0.298477 0.34122
vn 0.938278 -0.345825 0.00625008
vn 0.943131 0.117515 -0.310957
vn 0.989671 0.0829945 0.116892
vn 0.748402 -0.21036 0.629002
vn 0.614369 -0.4984 0.611676
vn 0.444073 0.814591 -0.37315
vn 0.716775 0.697268 0.00713603
vn 0.83467 0.537689 -0.119229
vn -0.972513 0.0195965 0.232023
vn -0.78233 0.619967 0.0600017
vn 0.746558 0.551178 0.372631
g grp1
usemtl mtl1
f 1//1 37//37 31//31 
f 31//31 8//8 1//1 
f 4//4 1//1 2//2 
f 8//8 9//9 2//2 
f 9//9 10//10 3//3 
f 9//9 3//3 2//2 
f 1//1 8//8 2//2 
f 2//2 3//3 105//105 
f 3//3 11//11 5//5 
f 3//3 5//5 105//105 
f 10//10 11//11 3//3 
f 10//10 12//12 11//11 
f 6//6 105//105 5//5 
f 5//5 21//21 6//6 
f 19//19 1//1 7//7 
f 7//7 1//1 4//4 
f 105//105 6//6 106//106 
f 6//6 20//20 106//106 
f 22//22 19//19 7//7 
f 20//20 22//22 106//106 
f 6//6 21//21 20//20 
f 32//32 8//8 31//31 
f 8//8 32//32 9//9 
f 9//9 32//32 36//36 
f 36//36 10//10 9//9 
f 33//33 10//10 36//36 
f 33//33 12//12 10//10 
f 12//12 14//14 11//11 
f 11//11 14//14 13//13 
f 11//11 13//13 5//5 
f 16//16 12//12 33//33 
f 14//14 12//12 16//16 
f 14//14 15//15 13//13 
f 15//15 25//25 13//13 
f 14//14 16//16 17//17 
f 17//17 15//15 14//14 
f 18//18 25//25 15//15 
f 16//16 40//40 17//17 
f 17//17 40//40 18//18 
f 17//17 18//18 15//15 
f 1//1 19//19 37//37 
f 28//28 19//19 22//22 
f 34//34 19//19 28//28 
f 28//28 41//41 34//34 
f 5//5 23//23 21//21 
f 23//23 5//5 13//13 
f 23//23 24//24 21//21 
f 20//20 24//24 26//26 
f 20//20 21//21 24//24 
f 28//28 22//22 26//26 
f 22//22 20//20 26//26 
f 25//25 23//23 13//13 
f 18//18 27//27 25//25 
f 27//27 23//23 25//25 
f 27//27 24//24 23//23 
f 28//28 26//26 30//30 
f 30//30 26//26 29//29 
f 29//29 26//26 24//24 
f 27//27 29//29 24//24 
f 27//27 43//43 29//29 
f 29//29 43//43 30//30 
f 18//18 43//43 27//27 
f 28//28 30//30 41//41 
f 37//37 38//38 31//31 
f 35//35 36//36 32//32 
f 31//31 35//35 32//32 
f 40//40 16//16 33//33 
f 34//34 37//37 19//19 
f 40//40 43//43 18//18 
f 46//46 38//38 37//37 
f 38//38 35//35 31//31 
f 35//35 74//74 36//36 
f 58//58 36//36 74//74 
f 39//39 33//33 36//36 
f 46//46 37//37 48//48 
f 48//48 37//37 34//34 
f 49//49 48//48 34//34 
f 40//40 33//33 39//39 
f 52//52 43//43 40//40 
f 42//42 43//43 107//107 
f 49//49 34//34 41//41 
f 43//43 42//42 30//30 
f 30//30 42//42 41//41 
f 44//44 35//35 38//38 
f 38//38 46//46 45//45 
f 73//73 35//35 44//44 
f 38//38 45//45 72//72 
f 39//39 36//36 81//81 
f 48//48 45//45 46//46 
f 49//49 79//79 48//48 
f 39//39 81//81 47//47 
f 40//40 39//39 47//47 
f 47//47 53//53 40//40 
f 49//49 41//41 50//50 
f 42//42 50//50 41//41 
f 42//42 51//51 50//50 
f 96//96 51//51 53//53 
f 50//50 102//102 49//49 
f 103//103 51//51 96//96 
f 51//51 103//103 50//50 
f 50//50 103//103 102//102 
f 40//40 53//53 52//52 
f 53//53 51//51 107//107 
f 100//100 53//53 47//47 
f 107//107 51//51 42//42 
f 56//56 67//67 59//59 
f 59//59 54//54 63//63 
f 59//59 67//67 54//54 
f 63//63 54//54 82//82 
f 73//73 55//55 74//74 
f 57//57 55//55 73//73 
f 57//57 73//73 44//44 
f 57//57 44//44 56//56 
f 74//74 55//55 58//58 
f 59//59 57//57 56//56 
f 59//59 60//60 57//57 
f 60//60 55//55 57//57 
f 61//61 60//60 62//62 
f 62//62 60//60 63//63 
f 60//60 59//59 63//63 
f 61//61 55//55 60//60 
f 58//58 55//55 61//61 
f 61//61 64//64 58//58 
f 72//72 65//65 75//75 
f 66//66 65//65 72//72 
f 65//65 67//67 75//75 
f 67//67 56//56 75//75 
f 68//68 65//65 66//66 
f 66//66 76//76 68//68 
f 69//69 67//67 65//65 
f 69//69 65//65 68//68 
f 68//68 76//76 77//77 
f 54//54 67//67 71//71 
f 70//70 69//69 68//68 
f 77//77 70//70 68//68 
f 82//82 54//54 71//71 
f 71//71 67//67 69//69 
f 78//78 70//70 77//77 
f 82//82 71//71 87//87 
f 85//85 71//71 69//69 
f 71//71 85//85 87//87 
f 85//85 69//69 86//86 
f 86//86 69//69 70//70 
f 70//70 78//78 86//86 
f 78//78 88//88 86//86 
f 102//102 88//88 78//78 
f 73//73 74//74 35//35 
f 72//72 44//44 38//38 
f 72//72 45//45 66//66 
f 66//66 45//45 76//76 
f 75//75 56//56 44//44 
f 75//75 44//44 72//72 
f 61//61 90//90 64//64 
f 36//36 58//58 64//64 
f 64//64 81//81 36//36 
f 90//90 81//81 64//64 
f 90//90 101//101 81//81 
f 76//76 79//79 77//77 
f 77//77 79//79 80//80 
f 78//78 77//77 80//80 
f 80//80 102//102 78//78 
f 76//76 45//45 48//48 
f 76//76 48//48 79//79 
f 80//80 79//79 49//49 
f 49//49 102//102 80//80 
f 81//81 100//100 47//47 
f 100//100 96//96 53//53 
f 82//82 83//83 63//63 
f 63//63 83//83 62//62 
f 83//83 84//84 62//62 
f 62//62 84//84 61//61 
f 84//84 90//90 61//61 
f 91//91 83//83 82//82 
f 93//93 90//90 84//84 
f 92//92 83//83 91//91 
f 84//84 83//83 92//92 
f 93//93 84//84 92//92 
f 85//85 86//86 89//89 
f 86//86 88//88 89//89 
f 82//82 87//87 91//91 
f 87//87 85//85 89//89 
f 104//104 88//88 102//102 
f 94//94 91//91 87//87 
f 89//89 94//94 87//87 
f 94//94 89//89 98//98 
f 98//98 89//89 88//88 
f 90//90 93//93 101//101 
f 100//100 101//101 95//95 
f 96//96 100//100 95//95 
f 92//92 91//91 94//94 
f 95//95 101//101 93//93 
f 94//94 98//98 97//97 
f 88//88 104//104 98//98 
f 92//92 94//94 97//97 
f 93//93 92//92 97//97 
f 95//95 93//93 97//97 
f 97//97 99//99 95//95 
f 97//97 98//98 99//99 
f 98//98 104//104 99//99 
f 99//99 104//104 96//96 
f 99//99 96//96 95//95 
f 101//101 100//100 81//81 
f 103//103 104//104 102//102 
f 103//103 96//96 104//104 
