#
# The license for this database is specified in the Creative Commons Attribution-Share Alike 2.1 Japan. If you use data from this database, please be sure attribute this database as follows: "BodyParts3D, (c)  The Database Center for Life Science licensed under CC Attribution-Share Alike 2.1 Japan".
# http://dbarchive.biosciencedbc.jp/en/bodyparts3d/lic.html
#
#
# Compatibility version : 4.0
# File ID : FJ2730
# Representation ID : BP8603
# Build-up logic : FMA 3.0 is_a
# Concept ID : FMA76767
# English name : Anterior cardiac vein
# Bounds(mm): (14.440700,-176.620000,1222.950000)-(27.478500,-173.178000,1233.280000)
# Volume(cm3): 0.018400
#
v 14.4559 -173.99 1232.65
v 14.4407 -173.58 1232.75
v 15.2609 -174.957 1228.4
v 15.3674 -175.168 1228.37
v 15.4236 -174.97 1228.17
v 15.2951 -174.754 1228.38
v 15.677 -174.743 1228
v 15.9217 -175.35 1227.79
v 15.9031 -174.979 1227.72
v 15.0028 -174.952 1229.41
v 15.076 -174.966 1229.77
v 14.88 -174.783 1230.07
v 14.9253 -174.751 1229.22
v 15.1034 -174.966 1228.79
v 15.0814 -174.754 1228.75
v 15.3031 -175.228 1228.95
v 15.2761 -175.155 1229.37
v 15.2847 -175.045 1229.77
v 15.5027 -174.969 1229.92
v 15.6785 -175.329 1228.99
v 16.042 -175.165 1228.98
v 15.8967 -174.754 1229.58
v 14.682 -174.591 1231.4
v 14.8943 -174.727 1231.35
v 15.0787 -174.899 1230.19
v 15.2734 -174.921 1230.23
v 15.2765 -174.732 1231.27
v 15.4919 -174.805 1230.39
v 15.6756 -174.435 1228.41
v 14.881 -174.394 1229.43
v 15.1219 -174.388 1228.96
v 15.0767 -174.114 1229.45
v 15.3151 -173.992 1229.55
v 15.8578 -174.317 1229.26
v 14.6166 -174.388 1230.56
v 14.5738 -173.955 1231.19
v 14.8946 -173.67 1231.15
v 15.3011 -173.701 1231.16
v 15.6183 -174.351 1231.21
v 15.6561 -174.156 1230.98
v 15.5779 -173.971 1230.98
v 15.5828 -173.963 1231.4
v 15.7247 -174.189 1230.4
v 14.6719 -174.139 1232.98
v 14.4965 -173.773 1233
v 14.6659 -173.567 1233.16
v 14.6847 -174.269 1232.69
v 14.6904 -173.771 1233.21
v 14.6907 -173.279 1232.52
v 14.6841 -173.372 1233.02
v 14.8908 -174.283 1232.87
v 14.8998 -174.154 1233.08
v 14.8844 -173.958 1233.24
v 14.8789 -173.765 1233.28
v 14.89 -173.408 1233.17
v 14.8841 -173.579 1233.25
v 14.9015 -173.301 1232.14
v 14.8909 -173.23 1232.96
v 14.9006 -173.178 1232.58
v 15.0707 -173.765 1233.28
v 15.265 -174.19 1232.92
v 15.4422 -174.179 1232.5
v 15.458 -173.954 1232.95
v 15.262 -173.95 1233.16
v 15.2536 -173.571 1233.18
v 15.2665 -173.299 1232.36
v 15.4263 -173.376 1232.76
v 15.2551 -173.235 1232.77
v 15.2642 -173.318 1232.98
v 15.5681 -173.959 1232.34
v 15.5002 -173.579 1232.17
v 15.5403 -173.587 1232.76
v 15.4594 -173.576 1232.98
v 16.0691 -175.576 1228.03
v 16.0973 -174.779 1227.74
v 16.3023 -175.549 1228.34
v 16.6352 -175.656 1227.54
v 16.6754 -175.365 1228.38
v 16.6884 -174.976 1228.37
v 16.8718 -174.821 1228.12
v 16.6785 -174.71 1227.78
v 16.8785 -175.565 1228.19
v 17.0371 -175.36 1227.19
v 17.1373 -175.843 1227.6
v 17.3092 -175.188 1228.1
v 16.2807 -174.778 1228.72
v 16.082 -174.483 1228.43
v 18.7654 -176.118 1226.94
v 20.5379 -176.351 1226.11
v 19.8785 -176.273 1226.98
v 19.204 -175.953 1226.54
v 19.5642 -175.762 1226.37
v 20.2785 -175.504 1226.38
v 20.1536 -175.755 1227.04
v 22.0379 -176.357 1224.95
v 22.3204 -176.549 1224.96
v 21.5866 -176.55 1225.81
v 21.9234 -176.349 1225.96
v 20.869 -176.146 1225.73
v 21.1164 -175.765 1225.76
v 20.9969 -175.624 1226.35
v 23.0922 -176.365 1224.31
v 23.6785 -176.617 1224.58
v 22.4937 -176.155 1224.63
v 23.1779 -175.963 1224.99
v 23.2531 -176.157 1225.07
v 23.4639 -175.854 1224.45
v 23.6584 -176.16 1224.05
v 23.7125 -175.972 1224.69
v 23.8486 -176.157 1224.76
v 24.0996 -176.594 1224.19
v 24.0437 -176.352 1224.68
v 24.2785 -176.62 1224.38
v 24.3186 -176.348 1223.91
v 24.264 -176.376 1224.62
v 24.6691 -176.368 1224.55
v 24.3273 -176.168 1224.63
v 24.4785 -175.965 1223.93
v 24.5205 -175.888 1224.39
v 25.8002 -176.369 1223.75
v 25.6316 -176.354 1224.41
v 25.8785 -176.548 1223.98
v 26.0664 -176.493 1224.14
v 26.3331 -176.501 1223.74
v 26.6766 -176.347 1223.99
v 25.7833 -176.163 1223.68
v 26.292 -176.163 1223.51
v 26.4785 -175.965 1223.47
v 26.8568 -175.811 1223.39
v 27.0785 -176.165 1222.95
v 27.0523 -175.982 1223.03
v 27.0785 -175.765 1223.38
v 25.6336 -175.979 1224.37
v 25.8785 -175.918 1223.78
v 26.2876 -176.153 1224.25
v 26.3538 -175.841 1223.97
v 27.2785 -176.432 1223.18
v 27.4785 -176.185 1223.38
v 27.2785 -176.165 1222.95
v 27.4735 -175.965 1223.18
v 27.2096 -175.979 1223.61
v 14.4407 -173.58 1232.75
v 15.8967 -174.754 1229.58
v 15.7247 -174.189 1230.4
v 14.6841 -173.372 1233.02
v 14.9015 -173.301 1232.14
v 14.8909 -173.23 1232.96
v 14.9006 -173.178 1232.58
v 16.8718 -174.821 1228.12
v 17.0371 -175.36 1227.19
v 17.3092 -175.188 1228.1
v 16.2807 -174.778 1228.72
v 19.8785 -176.273 1226.98
v 19.8785 -176.273 1226.98
v 20.2785 -175.504 1226.38
v 21.5866 -176.55 1225.81
v 21.9234 -176.349 1225.96
v 21.1164 -175.765 1225.76
v 20.9969 -175.624 1226.35
v 20.9969 -175.624 1226.35
v 23.6785 -176.617 1224.58
v 23.6785 -176.617 1224.58
v 23.1779 -175.963 1224.99
v 23.4639 -175.854 1224.45
v 23.4639 -175.854 1224.45
v 23.6584 -176.16 1224.05
v 23.7125 -175.972 1224.69
v 24.6691 -176.368 1224.55
v 24.3273 -176.168 1224.63
v 24.4785 -175.965 1223.93
v 25.6316 -176.354 1224.41
v 26.3331 -176.501 1223.74
v 26.6766 -176.347 1223.99
v 26.292 -176.163 1223.51
v 27.0785 -176.165 1222.95
v 27.0785 -176.165 1222.95
v 27.0785 -175.765 1223.38
v 25.6336 -175.979 1224.37
v 25.8785 -175.918 1223.78
v 26.2876 -176.153 1224.25
v 26.2876 -176.153 1224.25
v 26.3538 -175.841 1223.97
v 27.2785 -176.432 1223.18
v 27.2785 -176.432 1223.18
v 27.4785 -176.185 1223.38
v 27.4785 -176.185 1223.38
v 27.4785 -176.185 1223.38
v 27.2785 -176.165 1222.95
v 27.2785 -176.165 1222.95
v 27.4735 -175.965 1223.18
v 27.4735 -175.965 1223.18
v 27.2096 -175.979 1223.61
vn -0.945129 -0.307355 0.11074
vn -0.998109 -0.0463902 0.0403264
vn -0.867552 -0.14305 -0.47633
vn -0.734834 -0.575264 -0.359291
vn -0.753443 -0.0570694 -0.655032
vn -0.732162 0.371068 -0.571181
vn -0.543541 0.498025 -0.675673
vn -0.596798 -0.457486 -0.659196
vn -0.533161 0.146054 -0.833311
vn -0.754423 -0.656304 -0.010527
vn -0.493342 -0.857704 0.144767
vn -0.669809 -0.741443 0.0402285
vn -0.954558 -0.197487 -0.223197
vn -0.871362 -0.424944 -0.245256
vn -0.907626 0.0935373 -0.409225
vn -0.549695 -0.835355 -0.00411086
vn -0.397518 -0.90084 0.174551
vn -0.134668 -0.954959 0.264419
vn 0.384057 -0.84518 0.371713
vn -0.00647919 -0.949407 0.313982
vn 0.603467 -0.550305 0.577055
vn 0.784179 -0.469635 0.405593
vn -0.751587 -0.655669 0.0722138
vn -0.283486 -0.943825 0.169796
vn -0.354085 -0.924107 0.143702
vn 0.0857698 -0.971135 0.222575
vn 0.416847 -0.876206 0.241872
vn 0.674777 -0.690742 0.259907
vn -0.238857 0.850803 -0.468062
vn -0.89866 0.303835 -0.316377
vn -0.684821 0.551959 -0.475775
vn -0.554098 0.751861 -0.357323
vn 0.0936569 0.964513 -0.246866
vn 0.775154 0.628093 0.0680829
vn -0.96716 -0.231272 -0.10543
vn -0.885625 0.412503 -0.21333
vn -0.348004 0.890886 -0.291917
vn 0.508429 0.841685 -0.18184
vn 0.944336 -0.296283 0.142992
vn 0.978033 0.187026 0.0920505
vn 0.816802 0.576637 -0.018
vn 0.936513 0.350457 -0.0110675
vn 0.97427 0.197625 0.10836
vn -0.576905 -0.613931 0.538766
vn -0.86681 -0.0938665 0.489724
vn -0.61437 0.347264 0.70849
vn -0.560942 -0.788483 0.252266
vn -0.529178 -0.109775 0.84138
vn -0.595802 0.796886 -0.0999606
vn -0.711161 0.660069 0.241991
vn -0.0991637 -0.917208 0.385871
vn -0.0159599 -0.737912 0.674708
vn -0.147524 -0.43645 0.887552
vn -0.174946 -0.0402661 0.983754
vn -0.090698 0.618356 0.780647
vn -0.123129 0.289739 0.949152
vn 0.137357 0.94135 -0.308209
vn 0.0260729 0.88777 0.459549
vn -0.41725 0.905859 -0.0729461
vn 0.195136 -0.0429699 0.979834
vn 0.445689 -0.768067 0.459819
vn 0.794529 -0.567219 0.216764
vn 0.862303 -0.317631 0.394391
vn 0.483345 -0.360171 0.797906
vn 0.427122 0.310465 0.849222
vn 0.44705 0.870384 -0.206345
vn 0.76408 0.635474 0.111152
vn 0.371267 0.922032 0.109623
vn 0.449813 0.711744 0.539527
vn 0.992712 -0.0864228 0.0839822
vn 0.864679 0.487728 -0.120215
vn 0.970859 0.191577 0.143984
vn 0.808429 0.239125 0.537831
vn -0.378538 -0.921116 -0.0908555
vn -0.231299 0.653205 -0.720988
vn 0.115115 -0.860084 0.496995
vn -0.392401 -0.718155 -0.574695
vn 0.48826 -0.284201 0.825125
vn 0.583634 0.210952 0.784137
vn 0.395276 0.891122 0.22284
vn 0.108771 0.934511 -0.338908
vn 0.241806 -0.561688 0.791225
vn -0.406425 -0.297768 -0.863802
vn -0.152641 -0.983207 0.100021
vn 0.401507 -0.150279 0.903442
vn 0.739906 0.598334 0.307465
vn 0.434244 0.900793 -0.00189695
vn -0.276475 -0.901661 -0.33252
vn -0.399693 -0.734052 -0.549011
vn -0.112067 -0.978932 0.170682
vn -0.393021 -0.442168 -0.806239
vn -0.331688 0.297532 -0.895242
vn -0.201042 0.629307 -0.750703
vn 0.446896 0.149038 0.882084
vn -0.515022 -0.415378 -0.749809
vn -0.262319 -0.886454 -0.381298
vn -0.179872 -0.97392 -0.138293
vn 0.516815 -0.178488 0.837284
vn -0.506199 -0.0748853 -0.859159
vn -0.373636 0.53606 -0.756991
vn 0.118129 0.986697 -0.111689
vn -0.380271 -0.449078 -0.808532
vn -0.066865 -0.991895 -0.108046
vn -0.481939 0.285189 -0.828494
vn 0.446247 0.51346 0.732955
vn 0.506901 0.114953 0.854305
vn -0.253201 0.766535 -0.590181
vn -0.312406 -0.0338879 -0.949344
vn 0.303401 0.535401 0.788222
vn 0.375364 0.319306 0.870141
vn -0.109998 -0.891509 -0.439446
vn 0.290334 -0.270019 0.918039
vn 0.106263 -0.898685 0.425527
vn -0.187596 -0.315476 -0.930206
vn 0.199427 -0.440433 0.875356
vn 0.122666 -0.681458 0.721504
vn 0.201649 -0.0668793 0.977172
vn -0.130119 0.897057 -0.422324
vn 0.102324 0.812968 0.573247
vn -0.153584 -0.612673 -0.775271
vn 0.233125 -0.617961 0.750851
vn 0.00434699 -0.979055 -0.203548
vn 0.204419 -0.901003 0.382632
vn -0.294083 -0.675054 -0.676622
vn 0.478535 -0.269312 0.835748
vn -0.204164 0.0749457 -0.976064
vn -0.319626 -0.482648 -0.815408
vn -0.40873 0.685628 -0.602374
vn -0.316183 0.865914 -0.387584
vn -0.27328 -0.658966 -0.700772
vn -0.209268 0.632936 -0.745385
vn -0.0921193 0.910149 -0.40391
vn 0.191382 0.105184 0.975863
vn -0.27867 0.365686 -0.888041
vn 0.470799 -0.220338 0.854283
vn -0.160795 0.952854 -0.257322
vn 0.315227 -0.900806 0.298631
vn 0.487046 -0.752801 0.442805
vn 0 -0.652807 -0.757524
vn 0.198189 0.738065 -0.644966
vn 0.528547 0.655324 0.53962
vn -0.833711 0.511517 0.208029
vn 0.935857 0.259533 0.238356
vn 0.982488 0.159207 0.096805
vn -0.364948 0.647579 0.668921
vn -0.415893 0.865162 -0.280226
vn -0.491877 0.860823 0.130541
vn 0.158755 0.982954 -0.0927287
vn 0.504406 0.491274 0.710087
vn -0.169049 0.550081 -0.817823
vn 0.44105 0.482866 0.756515
vn 0.754479 0.00971008 0.656253
vn 0.358677 -0.29831 0.884512
vn 0.236982 -0.809786 0.536737
vn 0.15439 0.972178 -0.176163
vn 0.251178 -0.818313 0.516984
vn 0.251178 -0.818313 0.516984
vn 0.0247113 0.973468 -0.227483
vn 0.478248 0.555153 0.680503
vn 0.356928 0.862205 0.359451
vn 0.304824 -0.543944 0.781798
vn 0.265208 -0.826297 0.496888
vn 0.268179 0.907932 0.322085
vn -0.103521 0.962489 -0.250796
vn 0.160102 0.926127 0.341549
vn -0.298209 0.679534 -0.670302
vn 0.114746 0.933478 0.339781
vn 0.1527 -0.0997468 0.983226
vn 0.185935 0.55125 0.813358
vn -0.152174 0.228069 -0.961679
vn 0.176456 0.0319071 0.983791
vn 0.156581 -0.979467 0.12699
vn 0.394334 -0.835664 0.382317
vn -0.463761 0.32968 -0.822336
vn -0.560478 0.268023 -0.7836
vn 0 0.406167 -0.913799
vn 0.457466 0.765075 0.453194
vn 0.150103 0.727313 0.66969
vn -0.0575513 0.966176 -0.25138
vn 0.208191 0.104726 0.972465
vn 0.345091 0.593579 0.727032
vn 0.240626 0.78748 0.567428
vn -0.153499 -0.708537 -0.688777
vn 0.842431 -0.351756 -0.40814
vn 0.611347 -0.0789447 0.787415
vn 0.842445 -0.351762 -0.408105
vn 0.753353 0.451596 0.478037
vn 0.120886 0.52403 -0.843077
vn 0.842416 -0.35175 -0.408175
vn 0.842431 -0.351756 -0.40814
vn 0.6687 0.605772 0.431138
vn 0.590917 -0.0301259 0.80617
g grp1
usemtl mtl1
f 23//23 47//47 1//1 
f 36//36 1//1 2//2 
f 1//1 45//45 2//2 
f 3//3 4//4 14//14 
f 6//6 5//5 3//3 
f 15//15 6//6 3//3 
f 3//3 14//14 15//15 
f 31//31 6//6 15//15 
f 5//5 8//8 4//4 
f 5//5 4//4 3//3 
f 5//5 6//6 7//7 
f 29//29 6//6 31//31 
f 7//7 6//6 29//29 
f 8//8 5//5 9//9 
f 5//5 7//7 9//9 
f 4//4 8//8 74//74 
f 4//4 74//74 16//16 
f 77//77 74//74 8//8 
f 84//84 76//76 74//74 
f 9//9 7//7 75//75 
f 75//75 7//7 29//29 
f 10//10 12//12 35//35 
f 13//13 10//10 35//35 
f 17//17 18//18 11//11 
f 10//10 17//17 11//11 
f 13//13 14//14 10//10 
f 12//12 10//10 11//11 
f 11//11 25//25 12//12 
f 4//4 16//16 14//14 
f 14//14 16//16 10//10 
f 17//17 10//10 16//16 
f 25//25 11//11 18//18 
f 15//15 14//14 13//13 
f 18//18 26//26 25//25 
f 19//19 26//26 18//18 
f 20//20 17//17 16//16 
f 17//17 20//20 18//18 
f 18//18 20//20 19//19 
f 16//16 74//74 20//20 
f 28//28 19//19 22//22 
f 74//74 76//76 20//20 
f 76//76 21//21 20//20 
f 19//19 20//20 21//21 
f 22//22 19//19 21//21 
f 35//35 12//12 23//23 
f 12//12 24//24 23//23 
f 12//12 25//25 24//24 
f 25//25 26//26 24//24 
f 26//26 27//27 24//24 
f 19//19 28//28 26//26 
f 27//27 26//26 28//28 
f 39//39 27//27 28//28 
f 24//24 27//27 51//51 
f 51//51 27//27 61//61 
f 87//87 29//29 33//33 
f 81//81 29//29 87//87 
f 35//35 30//30 13//13 
f 31//31 15//15 30//30 
f 30//30 15//15 13//13 
f 31//31 30//30 32//32 
f 36//36 30//30 35//35 
f 36//36 32//32 30//30 
f 32//32 36//36 37//37 
f 31//31 32//32 29//29 
f 29//29 32//32 33//33 
f 33//33 32//32 37//37 
f 33//33 37//37 38//38 
f 34//34 87//87 33//33 
f 38//38 34//34 33//33 
f 43//43 34//34 38//38 
f 144//144 143//143 34//34 
f 22//22 43//43 28//28 
f 23//23 1//1 35//35 
f 35//35 1//1 36//36 
f 24//24 47//47 23//23 
f 36//36 49//49 37//37 
f 37//37 57//57 38//38 
f 38//38 42//42 41//41 
f 42//42 38//38 71//71 
f 40//40 41//41 42//42 
f 40//40 42//42 39//39 
f 39//39 42//42 70//70 
f 41//41 43//43 38//38 
f 70//70 42//42 71//71 
f 28//28 43//43 39//39 
f 39//39 43//43 40//40 
f 41//41 40//40 43//43 
f 47//47 44//44 1//1 
f 1//1 44//44 45//45 
f 44//44 48//48 45//45 
f 142//142 49//49 36//36 
f 142//142 45//45 46//46 
f 45//45 48//48 46//46 
f 142//142 46//46 50//50 
f 49//49 142//142 50//50 
f 51//51 47//47 24//24 
f 47//47 51//51 44//44 
f 44//44 51//51 52//52 
f 52//52 53//53 44//44 
f 44//44 53//53 48//48 
f 48//48 53//53 54//54 
f 54//54 56//56 48//48 
f 56//56 46//46 48//48 
f 37//37 49//49 146//146 
f 145//145 55//55 58//58 
f 55//55 145//145 46//46 
f 56//56 55//55 46//46 
f 146//146 49//49 59//59 
f 49//49 50//50 147//147 
f 59//59 49//49 147//147 
f 52//52 51//51 61//61 
f 64//64 52//52 61//61 
f 53//53 52//52 64//64 
f 64//64 60//60 53//53 
f 60//60 54//54 53//53 
f 60//60 56//56 54//54 
f 55//55 69//69 58//58 
f 64//64 65//65 60//60 
f 65//65 56//56 60//60 
f 66//66 38//38 57//57 
f 65//65 55//55 56//56 
f 57//57 148//148 66//66 
f 68//68 66//66 148//148 
f 69//69 68//68 58//58 
f 65//65 69//69 55//55 
f 58//58 68//68 148//148 
f 39//39 62//62 27//27 
f 61//61 27//27 62//62 
f 63//63 61//61 62//62 
f 63//63 62//62 70//70 
f 61//61 63//63 64//64 
f 64//64 73//73 65//65 
f 66//66 71//71 38//38 
f 71//71 67//67 72//72 
f 66//66 67//67 71//71 
f 73//73 69//69 65//65 
f 68//68 67//67 66//66 
f 69//69 67//67 68//68 
f 70//70 62//62 39//39 
f 70//70 71//71 72//72 
f 63//63 70//70 72//72 
f 63//63 72//72 73//73 
f 64//64 63//63 73//73 
f 73//73 72//72 67//67 
f 69//69 73//73 67//67 
f 8//8 9//9 83//83 
f 9//9 75//75 150//150 
f 81//81 75//75 29//29 
f 75//75 81//81 150//150 
f 87//87 80//80 81//81 
f 86//86 80//80 87//87 
f 84//84 74//74 77//77 
f 76//76 84//84 82//82 
f 77//77 8//8 83//83 
f 76//76 82//82 78//78 
f 149//149 152//152 79//79 
f 84//84 77//77 88//88 
f 85//85 79//79 78//78 
f 93//93 150//150 81//81 
f 79//79 151//151 149//149 
f 88//88 90//90 84//84 
f 82//82 85//85 78//78 
f 76//76 78//78 21//21 
f 152//152 22//22 21//21 
f 152//152 21//21 78//78 
f 152//152 78//78 79//79 
f 34//34 86//86 87//87 
f 86//86 34//34 143//143 
f 88//88 77//77 91//91 
f 83//83 91//91 77//77 
f 83//83 92//92 91//91 
f 150//150 93//93 92//92 
f 155//155 81//81 101//101 
f 90//90 82//82 84//84 
f 94//94 85//85 82//82 
f 94//94 82//82 153//153 
f 94//94 149//149 151//151 
f 101//101 81//81 80//80 
f 91//91 89//89 88//88 
f 88//88 89//89 97//97 
f 97//97 90//90 88//88 
f 94//94 153//153 98//98 
f 154//154 156//156 157//157 
f 89//89 91//91 99//99 
f 99//99 91//91 92//92 
f 100//100 99//99 92//92 
f 93//93 100//100 92//92 
f 159//159 149//149 94//94 
f 89//89 99//99 95//95 
f 95//95 99//99 104//104 
f 96//96 97//97 89//89 
f 96//96 95//95 102//102 
f 96//96 89//89 95//95 
f 95//95 104//104 102//102 
f 96//96 103//103 97//97 
f 106//106 98//98 161//161 
f 98//98 106//106 94//94 
f 156//156 162//162 157//157 
f 100//100 107//107 104//104 
f 164//164 158//158 101//101 
f 158//158 155//155 101//101 
f 104//104 99//99 100//100 
f 94//94 106//106 159//159 
f 106//106 105//105 159//159 
f 104//104 108//108 102//102 
f 106//106 161//161 112//112 
f 102//102 111//111 96//96 
f 110//110 106//106 112//112 
f 111//111 103//103 96//96 
f 111//111 102//102 114//114 
f 114//114 102//102 108//108 
f 104//104 107//107 166//166 
f 163//163 165//165 160//160 
f 109//109 105//105 110//110 
f 110//110 105//105 106//106 
f 167//167 165//165 163//163 
f 107//107 118//118 166//166 
f 111//111 113//113 103//103 
f 115//115 161//161 113//113 
f 112//112 161//161 115//115 
f 115//115 117//117 112//112 
f 117//117 110//110 112//112 
f 122//122 113//113 111//111 
f 114//114 120//120 111//111 
f 115//115 113//113 116//116 
f 120//120 114//114 126//126 
f 168//168 117//117 115//115 
f 113//113 121//121 116//116 
f 171//171 117//117 168//168 
f 123//123 113//113 122//122 
f 113//113 123//123 121//121 
f 111//111 120//120 122//122 
f 108//108 170//170 114//114 
f 119//119 109//109 169//169 
f 169//169 109//109 110//110 
f 167//167 119//119 165//165 
f 126//126 114//114 170//170 
f 136//136 118//118 107//107 
f 182//182 165//165 119//119 
f 171//171 133//133 117//117 
f 178//178 119//119 169//169 
f 182//182 119//119 178//178 
f 120//120 127//127 124//124 
f 127//127 120//120 126//126 
f 137//137 123//123 172//172 
f 130//130 124//124 127//127 
f 124//124 130//130 183//183 
f 183//183 130//130 139//139 
f 125//125 121//121 123//123 
f 135//135 121//121 125//125 
f 124//124 122//122 120//120 
f 172//172 123//123 122//122 
f 137//137 173//173 123//123 
f 138//138 173//173 137//137 
f 126//126 170//170 134//134 
f 134//134 174//174 126//126 
f 128//128 174//174 134//134 
f 129//129 128//128 136//136 
f 175//175 174//174 131//131 
f 174//174 128//128 131//131 
f 132//132 131//131 129//129 
f 131//131 128//128 129//129 
f 129//129 136//136 132//132 
f 176//176 131//131 188//188 
f 132//132 140//140 131//131 
f 118//118 136//136 179//179 
f 180//180 133//133 171//171 
f 128//128 179//179 136//136 
f 181//181 141//141 182//182 
f 181//181 182//182 178//178 
f 125//125 192//192 135//135 
f 125//125 185//185 192//192 
f 189//189 190//190 184//184 
f 190//190 186//186 184//184 
f 131//131 140//140 188//188 
f 191//191 141//141 187//187 
f 177//177 141//141 191//191 
f 182//182 141//141 177//177 
