#
# The license for this database is specified in the Creative Commons Attribution-Share Alike 2.1 Japan. If you use data from this database, please be sure attribute this database as follows: "BodyParts3D, (c)  The Database Center for Life Science licensed under CC Attribution-Share Alike 2.1 Japan".
# http://dbarchive.biosciencedbc.jp/en/bodyparts3d/lic.html
#
#
# Compatibility version : 4.0
# File ID : FJ2662
# Representation ID : BP8171
# Build-up logic : FMA 3.0 is_a
# Concept ID : FMA66403
# English name : Anterior interventricular vein
# Bounds(mm): (51.295400,-142.357000,1236.830000)-(66.408900,-137.450000,1245.890000)
# Volume(cm3): 0.043200
#
v 51.2954 -141.174 1244.59
v 51.2998 -140.759 1244.98
v 51.5505 -141.347 1244.19
v 51.8676 -141.751 1244.19
v 51.989 -141.377 1243.89
v 52.2481 -141.906 1244.15
v 52.2456 -141.772 1244
v 51.3576 -141.352 1245.17
v 51.5734 -141.745 1244.57
v 51.5113 -141.733 1244.79
v 51.6026 -141.747 1245.18
v 51.7021 -141.907 1244.8
v 51.712 -141.37 1245.64
v 51.9402 -141.99 1244.56
v 52.1992 -142.095 1244.77
v 52.1698 -141.932 1245.33
v 52.5423 -141.37 1245.82
v 51.5071 -140.769 1244.21
v 51.9676 -140.784 1243.87
v 51.8953 -140.299 1244.19
v 52.3764 -140.066 1244.36
v 52.5206 -140.381 1243.91
v 51.3105 -140.766 1244.58
v 51.5353 -140.946 1245.56
v 51.5111 -140.382 1244.58
v 51.6739 -140.344 1245.37
v 51.6915 -140.17 1244.98
v 51.8969 -140.176 1245.37
v 51.8921 -140.396 1245.6
v 52.0764 -140.959 1245.89
v 52.0639 -140.015 1244.6
v 52.0796 -139.981 1244.99
v 52.282 -140.575 1245.82
v 52.2757 -140.231 1245.57
v 52.2734 -140.07 1245.36
v 52.5324 -140.964 1245.89
v 52.5287 -140.105 1245.37
v 52.5295 -139.975 1244.95
v 52.8002 -140.574 1245.71
v 53.8372 -141.736 1243.35
v 53.6568 -141.172 1243.31
v 53.8575 -142.302 1244.17
v 54.1452 -142.221 1244.71
v 54.2939 -141.318 1245.32
v 54.3392 -141.764 1245.16
v 53.6096 -140.77 1243.44
v 53.8524 -140.374 1243.77
v 54.0806 -140.229 1244.17
v 54.4288 -140.579 1243.34
v 53.9551 -140.359 1244.95
v 55.2164 -142.21 1243.2
v 55.8248 -140.387 1243.8
v 55.2794 -140.742 1244.69
v 56.5579 -141.33 1242.21
v 56.9087 -142.357 1243.23
v 57.1783 -142.086 1243.79
v 57.3697 -141.538 1244.03
v 56.4317 -140.918 1242.39
v 56.8744 -140.517 1242.58
v 55.9701 -140.487 1243.04
v 56.9053 -140.378 1242.97
v 57.2416 -140.415 1243.41
v 57.6409 -141.7 1241.9
v 57.9858 -142.017 1242.16
v 58.5004 -142.057 1242.77
v 59.0122 -141.55 1243.12
v 59.003 -140.88 1241.15
v 58.0402 -140.917 1241.59
v 58.0319 -140.34 1242.02
v 58.1115 -140.206 1242.76
v 59.2701 -139.994 1241.37
v 59.1533 -139.851 1241.94
v 57.5482 -140.794 1243.8
v 58.8522 -140.946 1243.34
v 58.7733 -140.493 1243.17
v 60.1405 -141.456 1241.57
v 60.3028 -141.237 1242.33
v 59.5408 -139.841 1242.33
v 60.0541 -140.931 1242.73
v 60.5893 -139.281 1240.9
v 61.3652 -139.932 1239.94
v 61.3379 -139.837 1242.02
v 61.7712 -140.303 1241.71
v 61.0571 -139.404 1240.18
v 61.477 -138.849 1240.96
v 61.6766 -139.198 1241.54
v 63.7597 -139.713 1239.28
v 63.6453 -139.489 1238.77
v 62.1736 -140.206 1239.94
v 63.0516 -139.969 1240.49
v 62.8076 -138.976 1238.93
v 62.6868 -138.302 1239.58
v 62.9402 -138.388 1239.06
v 63.5289 -137.985 1239.51
v 63.1609 -139.039 1240.83
v 63.2292 -138.218 1240.12
v 64.988 -138.203 1237.08
v 65.146 -138.771 1237.19
v 64.3115 -137.892 1239.34
v 64.0825 -138.384 1239.98
v 64.239 -139.154 1239.94
v 65.2088 -137.793 1237.09
v 65.096 -137.568 1237.56
v 65.5649 -138.974 1237.3
v 65.667 -138.384 1236.83
v 65.6691 -137.966 1236.85
v 65.8814 -138.994 1237.71
v 66.0859 -138.724 1237.18
v 66.0233 -138.778 1238.09
v 66.0586 -138.172 1236.93
v 66.3283 -138.565 1237.41
v 66.3166 -138.171 1237.2
v 66.4089 -138.165 1237.76
v 66.1093 -138.186 1238.26
v 65.6724 -137.54 1237.2
v 65.5973 -137.45 1237.84
v 66.0668 -137.782 1237.1
v 66.0545 -137.569 1237.39
v 66.0763 -137.582 1237.78
v 66.2632 -137.773 1237.39
v 65.7646 -137.676 1238.26
v 66.0859 -138.724 1237.18
v 66.3283 -138.565 1237.41
v 66.3283 -138.565 1237.41
v 66.3166 -138.171 1237.2
v 66.4089 -138.165 1237.76
vn -0.955859 -0.185364 -0.227976
vn -0.942971 0.28428 0.173178
vn -0.709858 -0.253947 -0.656973
vn -0.490923 -0.636676 -0.594674
vn -0.423606 -0.274118 -0.863376
vn -0.290502 -0.819519 -0.493961
vn -0.335395 -0.602422 -0.724291
vn -0.910689 -0.275155 0.308115
vn -0.7095 -0.624871 -0.325801
vn -0.82168 -0.569818 -0.0122746
vn -0.628127 -0.684122 0.370719
vn -0.505377 -0.86199 0.0395935
vn -0.495564 -0.412677 0.764274
vn -0.376718 -0.878896 -0.292618
vn -0.204953 -0.974384 0.0925772
vn -0.165064 -0.81966 0.548554
vn 0.0465489 -0.397694 0.916336
vn -0.755747 0.230987 -0.612774
vn -0.414541 0.223211 -0.882231
vn -0.418533 0.668748 -0.614497
vn -0.0533669 0.911779 -0.407198
vn -0.175117 0.64671 -0.742361
vn -0.936462 0.246555 -0.249497
vn -0.73756 0.127744 0.663089
vn -0.739148 0.624168 -0.253128
vn -0.696204 0.546499 0.465445
vn -0.629474 0.770095 0.103517
vn -0.37734 0.797505 0.470745
vn -0.418241 0.492993 0.762911
vn -0.282922 0.0287746 0.958711
vn -0.296853 0.926578 -0.230936
vn -0.232912 0.962103 0.141812
vn -0.0367065 0.406524 0.912902
vn -0.0254809 0.703387 0.710351
vn -0.0494527 0.904987 0.422556
vn 0.162874 0.0690445 0.984228
vn 0.209134 0.823689 0.527067
vn 0.106407 0.990351 0.088787
vn 0.292278 0.495165 0.81816
vn -0.324201 -0.377681 -0.867324
vn -0.318422 0.029199 -0.947499
vn -0.129234 -0.980403 -0.148687
vn 0.069307 -0.915516 0.396266
vn 0.350125 0.0466751 0.935539
vn 0.241864 -0.547594 0.801026
vn -0.249869 0.473507 -0.844604
vn -0.0970019 0.82547 -0.556049
vn 0.0888146 0.991199 -0.0981634
vn -0.204823 0.72577 -0.656739
vn 0.276479 0.855777 0.437271
vn -0.208269 -0.806993 -0.552618
vn 0.0993718 0.981892 0.161284
vn 0.307044 0.657977 0.687598
vn -0.37444 0.0372317 -0.926504
vn 0.0732992 -0.997237 0.012033
vn 0.314154 -0.742518 0.591586
vn 0.404948 -0.177548 0.896936
vn -0.328495 0.568111 -0.754547
vn -0.287105 0.828083 -0.481508
vn -0.132569 0.90059 -0.413959
vn -0.133518 0.983505 -0.122026
vn 0.0963182 0.912798 0.39689
vn -0.257932 -0.497902 -0.827989
vn 0.00628987 -0.885256 -0.465061
vn 0.332473 -0.925934 0.179187
vn 0.479149 -0.500738 0.720887
vn -0.412949 -0.0378859 -0.909966
vn -0.433861 0.363383 -0.82445
vn -0.379566 0.815984 -0.436005
vn -0.138788 0.971479 0.192269
vn -0.522689 0.620019 -0.585126
vn -0.387704 0.919195 -0.0690381
vn 0.315733 0.46668 0.826149
vn 0.40528 0.112569 0.907236
vn 0.163833 0.67283 0.721428
vn 0.329301 -0.932852 -0.146109
vn 0.541358 -0.710949 0.448868
vn -0.119432 0.888012 0.444039
vn 0.52143 -0.232901 0.820895
vn -0.538428 0.78313 -0.311132
vn -0.398075 -0.308587 -0.863893
vn 0.418022 0.219648 0.881483
vn 0.613642 -0.337 0.714055
vn -0.597309 0.360416 -0.716465
vn -0.27178 0.935634 0.225221
vn 0.150374 0.68687 0.711054
vn 0.167962 -0.961174 -0.218935
vn -0.219478 -0.73603 -0.640383
vn 0.00948599 -0.804433 -0.593967
vn 0.511066 -0.833931 0.208256
vn -0.579316 -0.1017 -0.808734
vn -0.46705 0.867605 -0.170662
vn -0.626791 0.541549 -0.56023
vn -0.212973 0.966797 0.141227
vn 0.519446 0.193129 0.832392
vn 0.0391677 0.854563 0.517868
vn -0.53075 0.0675181 -0.844835
vn -0.359429 -0.525512 -0.771134
vn 0.144694 0.869497 0.47227
vn 0.453549 0.476733 0.753006
vn 0.680863 -0.251106 0.68802
vn -0.45171 0.573948 -0.683039
vn -0.381949 0.884535 -0.267794
vn 0.0535225 -0.844908 -0.532227
vn -0.00995901 -0.329209 -0.944205
vn -0.0193462 0.349207 -0.936846
vn 0.476179 -0.877769 -0.052682
vn 0.500522 -0.833299 -0.234712
vn 0.752396 -0.52902 0.392477
vn 0.515764 0.00972394 -0.856676
vn 0.751831 -0.296687 -0.588835
vn 0.725328 -0.284529 -0.626851
vn 0.955792 0.280608 0.0878711
vn 0.750963 0.144644 0.644308
vn 0.00288971 0.862705 -0.505699
vn 0.0627227 0.991401 0.114843
vn 0.52535 0.531815 -0.664214
vn 0.439788 0.866669 -0.235525
vn 0.645861 0.709806 0.28114
vn 0.833541 0.512071 -0.207348
vn 0.44376 0.695115 0.565591
vn 0.521637 -0.410896 -0.747703
vn 0.768638 -0.634519 0.0811279
vn 0.985067 -0.0585291 -0.161915
vn 0.89431 0.205716 -0.397355
vn 0.861281 -0.337325 0.38001
g grp1
usemtl mtl1
f 18//18 1//1 23//23 
f 3//3 9//9 1//1 
f 3//3 1//1 18//18 
f 3//3 18//18 19//19 
f 9//9 4//4 14//14 
f 4//4 3//3 5//5 
f 4//4 9//9 3//3 
f 5//5 3//3 19//19 
f 4//4 7//7 6//6 
f 42//42 14//14 6//6 
f 14//14 4//4 6//6 
f 7//7 4//4 5//5 
f 15//15 42//42 43//43 
f 10//10 11//11 8//8 
f 1//1 10//10 8//8 
f 8//8 2//2 1//1 
f 2//2 24//24 26//26 
f 9//9 12//12 10//10 
f 10//10 12//12 11//11 
f 10//10 1//1 9//9 
f 11//11 13//13 8//8 
f 24//24 8//8 13//13 
f 2//2 8//8 24//24 
f 13//13 30//30 24//24 
f 14//14 15//15 12//12 
f 9//9 14//14 12//12 
f 16//16 12//12 15//15 
f 11//11 12//12 16//16 
f 16//16 13//13 11//11 
f 42//42 15//15 14//14 
f 43//43 16//16 15//15 
f 17//17 13//13 16//16 
f 17//17 30//30 13//13 
f 17//17 36//36 30//30 
f 45//45 16//16 43//43 
f 17//17 16//16 45//45 
f 44//44 36//36 17//17 
f 17//17 45//45 44//44 
f 23//23 25//25 18//18 
f 20//20 18//18 25//25 
f 19//19 18//18 20//20 
f 25//25 31//31 20//20 
f 20//20 22//22 19//19 
f 21//21 22//22 20//20 
f 21//21 20//20 31//31 
f 41//41 5//5 19//19 
f 38//38 21//21 31//31 
f 38//38 31//31 32//32 
f 46//46 41//41 19//19 
f 19//19 22//22 46//46 
f 47//47 22//22 21//21 
f 1//1 2//2 23//23 
f 24//24 29//29 26//26 
f 25//25 23//23 2//2 
f 25//25 2//2 27//27 
f 24//24 30//30 29//29 
f 2//2 26//26 27//27 
f 27//27 28//28 32//32 
f 27//27 26//26 28//28 
f 29//29 28//28 26//26 
f 31//31 25//25 27//27 
f 29//29 30//30 33//33 
f 32//32 31//31 27//27 
f 36//36 33//33 30//30 
f 29//29 34//34 28//28 
f 34//34 29//29 33//33 
f 32//32 28//28 35//35 
f 34//34 35//35 28//28 
f 39//39 34//34 33//33 
f 38//38 35//35 37//37 
f 37//37 35//35 34//34 
f 39//39 37//37 34//34 
f 38//38 32//32 35//35 
f 36//36 39//39 33//33 
f 38//38 37//37 50//50 
f 50//50 37//37 39//39 
f 53//53 50//50 39//39 
f 39//39 36//36 44//44 
f 40//40 7//7 5//5 
f 6//6 7//7 51//51 
f 51//51 7//7 40//40 
f 41//41 40//40 5//5 
f 54//54 41//41 46//46 
f 6//6 51//51 42//42 
f 55//55 42//42 51//51 
f 55//55 43//43 42//42 
f 48//48 47//47 21//21 
f 48//48 21//21 38//38 
f 46//46 22//22 47//47 
f 48//48 38//38 50//50 
f 47//47 49//49 46//46 
f 60//60 49//49 47//47 
f 60//60 47//47 48//48 
f 54//54 46//46 58//58 
f 58//58 46//46 49//49 
f 44//44 53//53 39//39 
f 40//40 41//41 54//54 
f 63//63 51//51 40//40 
f 51//51 63//63 64//64 
f 56//56 43//43 55//55 
f 56//56 45//45 43//43 
f 51//51 64//64 55//55 
f 49//49 60//60 58//58 
f 52//52 60//60 48//48 
f 52//52 48//48 50//50 
f 52//52 50//50 53//53 
f 63//63 40//40 54//54 
f 54//54 58//58 68//68 
f 68//68 67//67 54//54 
f 67//67 63//63 54//54 
f 65//65 55//55 64//64 
f 57//57 73//73 44//44 
f 65//65 56//56 55//55 
f 45//45 56//56 57//57 
f 45//45 57//57 44//44 
f 58//58 60//60 59//59 
f 59//59 60//60 61//61 
f 69//69 58//58 59//59 
f 59//59 61//61 69//69 
f 69//69 61//61 70//70 
f 73//73 53//53 44//44 
f 61//61 60//60 52//52 
f 62//62 61//61 52//52 
f 61//61 62//62 70//70 
f 62//62 52//52 53//53 
f 62//62 53//53 73//73 
f 76//76 65//65 64//64 
f 64//64 89//89 76//76 
f 89//89 64//64 63//63 
f 89//89 63//63 67//67 
f 77//77 65//65 76//76 
f 77//77 66//66 65//65 
f 65//65 66//66 56//56 
f 74//74 73//73 57//57 
f 56//56 66//66 57//57 
f 57//57 66//66 74//74 
f 67//67 68//68 71//71 
f 71//71 68//68 69//69 
f 58//58 69//69 68//68 
f 72//72 69//69 70//70 
f 72//72 71//71 69//69 
f 72//72 70//70 78//78 
f 70//70 62//62 75//75 
f 75//75 62//62 73//73 
f 75//75 78//78 70//70 
f 74//74 75//75 73//73 
f 89//89 90//90 76//76 
f 79//79 66//66 77//77 
f 66//66 79//79 74//74 
f 77//77 76//76 90//90 
f 84//84 67//67 71//71 
f 84//84 71//71 80//80 
f 71//71 72//72 80//80 
f 85//85 80//80 72//72 
f 81//81 67//67 84//84 
f 85//85 72//72 78//78 
f 82//82 75//75 74//74 
f 74//74 79//79 82//82 
f 89//89 81//81 88//88 
f 88//88 81//81 91//91 
f 89//89 67//67 81//81 
f 91//91 81//81 84//84 
f 83//83 90//90 101//101 
f 83//83 77//77 90//90 
f 77//77 83//83 79//79 
f 79//79 83//83 82//82 
f 93//93 91//91 84//84 
f 78//78 86//86 85//85 
f 85//85 86//86 96//96 
f 85//85 96//96 94//94 
f 86//86 78//78 75//75 
f 86//86 75//75 82//82 
f 89//89 88//88 87//87 
f 82//82 83//83 95//95 
f 87//87 90//90 89//89 
f 83//83 101//101 95//95 
f 80//80 93//93 84//84 
f 92//92 93//93 80//80 
f 80//80 85//85 92//92 
f 94//94 92//92 85//85 
f 94//94 96//96 99//99 
f 116//116 94//94 99//99 
f 103//103 92//92 94//94 
f 103//103 94//94 116//116 
f 95//95 86//86 82//82 
f 96//96 86//86 100//100 
f 95//95 100//100 86//86 
f 101//101 100//100 95//95 
f 100//100 99//99 96//96 
f 93//93 97//97 91//91 
f 103//103 93//93 92//92 
f 98//98 88//88 91//91 
f 97//97 98//98 91//91 
f 102//102 97//97 93//93 
f 88//88 104//104 87//87 
f 98//98 104//104 88//88 
f 105//105 104//104 98//98 
f 105//105 98//98 97//97 
f 97//97 102//102 106//106 
f 116//116 99//99 121//121 
f 100//100 121//121 99//99 
f 101//101 90//90 109//109 
f 114//114 101//101 109//109 
f 101//101 114//114 100//100 
f 102//102 93//93 103//103 
f 102//102 103//103 115//115 
f 115//115 103//103 116//116 
f 87//87 104//104 107//107 
f 87//87 107//107 90//90 
f 107//107 109//109 90//90 
f 105//105 97//97 106//106 
f 106//106 110//110 105//105 
f 104//104 108//108 107//107 
f 105//105 122//122 104//104 
f 122//122 105//105 110//110 
f 112//112 111//111 122//122 
f 110//110 112//112 122//122 
f 117//117 125//125 110//110 
f 106//106 117//117 110//110 
f 107//107 108//108 123//123 
f 109//109 107//107 123//123 
f 124//124 125//125 113//113 
f 123//123 126//126 109//109 
f 109//109 126//126 114//114 
f 113//113 125//125 120//120 
f 114//114 113//113 119//119 
f 113//113 120//120 119//119 
f 114//114 119//119 121//121 
f 100//100 114//114 121//121 
f 106//106 102//102 115//115 
f 119//119 116//116 121//121 
f 106//106 115//115 117//117 
f 117//117 115//115 118//118 
f 118//118 115//115 116//116 
f 116//116 119//119 118//118 
f 117//117 118//118 120//120 
f 125//125 117//117 120//120 
f 119//119 120//120 118//118 
