#
# The license for this database is specified in the Creative Commons Attribution-Share Alike 2.1 Japan. If you use data from this database, please be sure attribute this database as follows: "BodyParts3D, (c)  The Database Center for Life Science licensed under CC Attribution-Share Alike 2.1 Japan".
# http://dbarchive.biosciencedbc.jp/en/bodyparts3d/lic.html
#
#
# Compatibility version : 4.0
# File ID : FJ2657
# Representation ID : BP8171
# Build-up logic : FMA 3.0 is_a
# Concept ID : FMA66403
# English name : Anterior interventricular vein
# Bounds(mm): (54.601600,-168.207000,1182.000000)-(62.372400,-156.007000,1205.560100)
# Volume(cm3): 0.025100
#
v 55.0301 -167.001 1204.09
v 55.187 -166.78 1204.02
v 54.6016 -166.977 1204.97
v 54.6932 -166.78 1204.58
v 54.6312 -166.766 1204.97
v 54.7998 -167.347 1204.54
v 54.7224 -167.369 1204.98
v 54.8182 -167.157 1205.35
v 54.7022 -166.77 1205.17
v 54.9136 -166.761 1205.38
v 55.2101 -167.732 1204.66
v 55.2948 -167.686 1205.15
v 55.2778 -167.17 1205.56
v 55.4822 -166.953 1205.54
v 55.9016 -166.983 1205.31
v 55.9204 -167.374 1205.24
v 54.7516 -166.577 1204.97
v 54.9524 -166.505 1204.53
v 54.9078 -166.445 1204.95
v 54.8952 -166.537 1205.17
v 55.2765 -166.559 1205.35
v 55.3918 -166.378 1204.49
v 55.3381 -166.365 1204.93
v 55.8006 -166.613 1205.1
v 56.5965 -167.734 1202.82
v 56.9101 -167.178 1202.44
v 56.9474 -166.81 1202.77
v 56.455 -167.99 1204.06
v 57.1103 -168.104 1202.97
v 57.2374 -167.749 1203.92
v 57.3329 -167.33 1203.93
v 57.461 -166.779 1203.21
v 58.9645 -167.33 1200.96
v 58.0665 -168.044 1201.87
v 58.9089 -166.962 1201.35
v 59.1525 -156.604 1182.4
v 59.1091 -156.364 1182.19
v 59.2232 -156.462 1182.62
v 59.126 -156.185 1182.38
v 60.0715 -168.207 1201.12
v 60.3926 -167.565 1199.38
v 60.6645 -167.165 1198.78
v 60.6599 -166.887 1199.59
v 59.6786 -167.765 1200.39
v 59.8711 -167.176 1200.29
v 60.6513 -167.951 1201.16
v 60.2756 -166.848 1200.86
v 60.8661 -167.565 1201.14
v 60.5913 -167.162 1201.22
v 59.8664 -168.06 1201.73
v 60.125 -167.579 1201.8
v 60.7394 -165.181 1190.63
v 60.7239 -165.216 1191.14
v 60.7671 -164.33 1189.34
v 60.7574 -164.093 1189.48
v 60.6766 -164.752 1190.55
v 60.9178 -164.144 1190.14
v 60.5717 -158.966 1183.6
v 60.5902 -158.77 1183.79
v 59.7218 -157.39 1182.98
v 59.8361 -157.701 1182.75
v 60.0265 -158.032 1183.03
v 60.0759 -157.959 1182.74
v 60.2616 -158.147 1183.43
v 60.28 -157.956 1182.64
v 60.4121 -158.079 1183.55
v 60.5139 -157.652 1182.64
v 60.6188 -157.913 1183.53
v 59.3434 -156.653 1182.12
v 59.2881 -156.359 1182.02
v 59.4874 -156.445 1182
v 59.4802 -156.179 1182.03
v 59.6851 -156.384 1182.06
v 59.2864 -156.075 1182.18
v 59.3662 -156.282 1182.66
v 59.4868 -156.034 1182.19
v 59.4696 -156.007 1182.38
v 59.7097 -156.179 1182.19
v 59.7859 -156.21 1182.4
v 59.6694 -156.086 1182.37
v 59.713 -156.239 1182.59
v 59.8787 -156.959 1182.22
v 60.0307 -156.631 1182.4
v 60.3194 -157.029 1182.82
v 61.4785 -167.038 1194.18
v 61.0587 -166.736 1195.51
v 61.1824 -167.147 1195.57
v 62.0581 -167.155 1195.11
v 62.3096 -166.77 1195.38
v 61.0378 -167.324 1196.97
v 61.0395 -166.765 1196.98
v 61.2785 -167.86 1197.78
v 61.2907 -166.577 1197.6
v 61.6906 -167.803 1197.45
v 62.1959 -167.355 1196.99
v 62.2541 -166.965 1197.16
v 61.0762 -166.751 1198.57
v 61.4889 -168.027 1198.93
v 61.4487 -168.013 1199.62
v 61.8067 -167.756 1199.2
v 61.6527 -166.654 1198.28
v 61.9384 -167.748 1198.36
v 62.0412 -167.364 1198.7
v 61.9748 -166.961 1198.51
v 60.8886 -168.112 1200.55
v 60.9579 -168.123 1199.81
v 61.0611 -166.808 1199.93
v 61.3562 -167.76 1200.36
v 61.3938 -167.364 1200.39
v 61.4674 -166.947 1199.76
v 61.7241 -167.364 1199.73
v 61.2785 -166.098 1191.58
v 61.6878 -165.177 1190.46
v 61.0468 -166.329 1193.17
v 61.0413 -165.789 1193.23
v 60.9341 -165.153 1191.79
v 61.3 -165.023 1192.01
v 61.8363 -166.161 1192.12
v 61.9874 -165.772 1191.86
v 62.0375 -165.57 1192.42
v 61.8522 -165.333 1192.46
v 61.4351 -165.695 1193.87
v 61.6598 -165.896 1194.66
v 62.121 -166.561 1193.61
v 62.2489 -166.336 1193.94
v 61.2745 -166.238 1195.37
v 62.1745 -166.355 1195.54
v 61.1061 -164.749 1189.34
v 61.3501 -164.917 1189.59
v 61.2785 -163.673 1189.58
v 61.6777 -164.763 1189.83
v 61.7016 -164.519 1189.32
v 61.81 -164.298 1189.3
v 61.7894 -164.064 1189.47
v 61.4985 -164.763 1191.4
v 61.4785 -164.365 1190.62
v 61.8058 -164.99 1190.81
v 61.7211 -164.794 1191.04
v 61.7369 -164.563 1190.18
v 61.4869 -162.508 1186.62
v 61.8488 -162.903 1186.68
v 62.0752 -161.764 1185.39
v 62.3724 -162.372 1186.4
v 62.2027 -162.015 1186.91
v 61.4407 -163.227 1187.31
v 61.2689 -163.005 1187.53
v 61.4434 -162.657 1187.73
v 61.4752 -162.291 1186.96
v 61.6477 -162.712 1188.04
v 61.6786 -162.167 1187.18
v 62.1967 -163.252 1187.51
v 62.3435 -162.788 1187.25
v 61.66 -161.167 1184.82
v 61.8447 -160.535 1184.3
v 61.8785 -160.281 1185.18
v 62.1724 -160.742 1184.77
v 61.4082 -160.965 1185.38
v 62.3566 -161.336 1185.75
v 60.8716 -159.358 1183.55
v 61.084 -159.007 1183.23
v 61.0145 -159.765 1184.38
v 61.0602 -158.938 1184.14
v 61.2767 -159.598 1184.58
v 61.2465 -158.735 1183.95
v 61.459 -160.138 1183.94
v 61.6406 -159.71 1184.7
v 61.6482 -159.525 1183.77
v 61.9791 -159.957 1184.39
v 61.8485 -159.755 1184.57
v 61.0688 -158.219 1183.24
v 54.7224 -167.369 1204.98
v 54.7224 -167.369 1204.98
v 54.8182 -167.157 1205.35
v 55.2948 -167.686 1205.15
v 55.2778 -167.17 1205.56
v 55.2778 -167.17 1205.56
v 55.4822 -166.953 1205.54
v 55.4822 -166.953 1205.54
v 55.9016 -166.983 1205.31
v 57.461 -166.779 1203.21
v 58.9645 -167.33 1200.96
v 59.1525 -156.604 1182.4
v 59.1091 -156.364 1182.19
v 59.1091 -156.364 1182.19
v 59.126 -156.185 1182.38
v 59.126 -156.185 1182.38
v 60.3926 -167.565 1199.38
v 60.3926 -167.565 1199.38
v 60.6645 -167.165 1198.78
v 60.6645 -167.165 1198.78
v 60.6645 -167.165 1198.78
v 60.6599 -166.887 1199.59
v 59.8711 -167.176 1200.29
v 59.8711 -167.176 1200.29
v 60.2756 -166.848 1200.86
v 60.8661 -167.565 1201.14
v 60.6766 -164.752 1190.55
v 60.5717 -158.966 1183.6
v 59.2881 -156.359 1182.02
v 59.4874 -156.445 1182
v 59.2864 -156.075 1182.18
v 59.4868 -156.034 1182.19
v 59.4868 -156.034 1182.19
v 59.4696 -156.007 1182.38
v 59.7859 -156.21 1182.4
v 59.6694 -156.086 1182.37
v 59.8787 -156.959 1182.22
v 60.3194 -157.029 1182.82
v 61.4785 -167.038 1194.18
v 61.2785 -167.86 1197.78
v 61.2785 -167.86 1197.78
v 61.2785 -167.86 1197.78
v 61.0762 -166.751 1198.57
v 61.6527 -166.654 1198.28
v 61.9384 -167.748 1198.36
v 60.9579 -168.123 1199.81
v 61.0611 -166.808 1199.93
v 61.3938 -167.364 1200.39
v 61.3 -165.023 1192.01
v 61.6598 -165.896 1194.66
v 62.121 -166.561 1193.61
v 61.2785 -163.673 1189.58
v 62.0752 -161.764 1185.39
v 62.0752 -161.764 1185.39
v 62.3724 -162.372 1186.4
v 62.3724 -162.372 1186.4
v 62.2027 -162.015 1186.91
v 61.6786 -162.167 1187.18
v 62.1967 -163.252 1187.51
v 61.8785 -160.281 1185.18
v 61.8785 -160.281 1185.18
v 61.4082 -160.965 1185.38
v 62.3566 -161.336 1185.75
v 60.8716 -159.358 1183.55
v 61.084 -159.007 1183.23
v 61.0145 -159.765 1184.38
v 61.0145 -159.765 1184.38
vn -0.734664 -0.0223609 -0.678063
vn -0.584433 0.486509 -0.649421
vn -0.991328 -0.0860784 0.099291
vn -0.87467 0.283185 -0.393394
vn -0.934594 0.346365 0.0810295
vn -0.817348 -0.423927 -0.390164
vn -0.589679 -0.785389 0.188263
vn -0.756465 -0.0403087 0.652791
vn -0.810768 0.319462 0.490509
vn -0.412798 0.338013 0.845781
vn -0.448679 -0.885867 -0.118008
vn -0.407874 -0.817758 0.406092
vn -0.301741 0.156531 0.940452
vn -0.156313 0.315809 0.935859
vn 0.580016 -0.105011 0.807808
vn 0.462588 -0.424195 0.778506
vn -0.752087 0.655484 0.0686018
vn -0.519006 0.76684 -0.377611
vn -0.395922 0.916563 0.0561976
vn -0.443512 0.754699 0.483452
vn 0.0284572 0.717963 0.6955
vn -0.100297 0.978948 -0.177768
vn 0.0690782 0.966665 0.246551
vn 0.492331 0.667108 0.559086
vn -0.597842 -0.523579 -0.607001
vn -0.594135 0.221317 -0.773319
vn -0.280432 0.833551 -0.475973
vn 0.126392 -0.939081 0.319613
vn -0.258644 -0.948725 -0.181726
vn 0.529343 -0.478785 0.7004
vn 0.657726 0.253851 0.709194
vn 0.162938 0.986604 0.00795741
vn -0.587211 0.0888168 -0.804546
vn -0.367119 -0.820127 -0.43888
vn -0.36115 0.770429 -0.525366
vn -0.931499 -0.21664 0.292193
vn -0.705034 -0.435942 -0.559359
vn -0.7607 0.020997 0.648764
vn -0.970199 -0.0505999 0.236966
vn 0.117019 -0.986037 0.118479
vn -0.87811 -0.103701 -0.467085
vn -0.87811 -0.103701 -0.467085
vn -0.79903 0.507014 -0.323245
vn -0.628301 -0.27077 -0.729329
vn -0.548082 0.565972 -0.615859
vn 0.579842 -0.609012 0.541191
vn -0.21396 0.952559 -0.216453
vn 0.670274 0.337971 0.660688
vn 0.549112 0.622964 0.557127
vn 0.424948 -0.722468 0.545398
vn 0.627621 -0.106256 0.771234
vn -0.858833 -0.46484 -0.215244
vn -0.992364 0.0262065 0.120526
vn -0.916352 -0.255209 -0.308491
vn -0.935686 0.350213 0.0429194
vn -0.99111 -0.105154 -0.0815064
vn -0.514373 0.75583 0.405144
vn -0.790818 -0.585903 -0.176986
vn -0.764729 0.00682258 0.644315
vn -0.837587 -0.284618 0.466305
vn -0.807396 -0.565589 -0.167993
vn -0.877572 -0.471113 0.0889881
vn -0.589179 -0.622833 -0.514731
vn -0.780637 -0.124777 0.612402
vn -0.0568056 -0.475617 -0.877816
vn -0.507165 0.158414 0.847165
vn 0.624594 -0.0129689 -0.780842
vn 0.17005 0.558634 0.811795
vn -0.471528 -0.507004 -0.721532
vn -0.450517 -0.358093 -0.817804
vn -0.164338 -0.398976 -0.902115
vn 0.123604 0.463173 -0.877606
vn 0.547858 0.155844 -0.821927
vn -0.508586 0.546061 -0.665701
vn -0.26507 0.505023 0.821395
vn -0.124062 0.728601 -0.673609
vn -0.140543 0.909841 0.390431
vn 0.668082 0.577444 -0.469281
vn 0.815687 0.550589 -0.177499
vn 0.550445 0.812676 -0.191226
vn 0.430079 0.695819 0.575211
vn 0.0603444 -0.379139 -0.92337
vn 0.827679 0.331951 -0.4525
vn 0.847352 0.531004 -0.00541893
vn 0.224857 -0.929362 -0.292791
vn -0.999193 0.0401469 -0.0013951
vn -0.831724 -0.534078 -0.151642
vn 0.612874 -0.763322 -0.204268
vn 0.987259 -0.151312 -0.0492453
vn -0.945121 -0.299313 -0.130991
vn -0.88839 0.458758 -0.0174577
vn -0.87811 -0.103701 -0.467085
vn -0.444581 0.886835 0.12598
vn 0.314157 -0.935798 -0.159962
vn 0.875355 -0.48252 -0.0304606
vn 0.98166 0.155917 0.109699
vn -0.693434 0.717245 -0.0686284
vn 0.329293 -0.943708 -0.0313172
vn 0.522214 -0.83881 0.153914
vn 0.825665 -0.523181 0.211089
vn 0.510917 0.833809 0.209109
vn 0.557696 -0.829366 -0.0335679
vn 0.977904 -0.0943287 0.186565
vn 0.808253 0.537295 0.240916
vn 0.423578 -0.872706 0.242829
vn 0.0840724 -0.995685 -0.0392825
vn -0.167798 0.985817 0.00295423
vn 0.79938 -0.417726 0.431852
vn 0.859292 -0.124912 0.495998
vn 0.630534 0.692757 0.35002
vn 0.924003 0.108876 0.366557
vn -0.270346 -0.875561 -0.400382
vn 0.811972 -0.463344 -0.354985
vn -0.90538 -0.416129 -0.0844076
vn -0.893229 0.400854 0.203613
vn -0.739198 0.582029 0.338864
vn -0.48054 0.794545 0.371186
vn 0.545951 -0.742768 -0.387599
vn 0.944464 -0.22874 -0.235936
vn 0.9344 0.355826 0.0168589
vn 0.510223 0.820558 0.257598
vn -0.490974 0.814006 0.310385
vn 0.375211 0.896572 0.235319
vn 0.366802 -0.87391 -0.318964
vn 0.997158 0.0230624 -0.071718
vn -0.681061 0.712654 0.168171
vn 0.777648 0.612186 0.143151
vn -0.409493 -0.746592 -0.524324
vn 0.399475 -0.78827 -0.468029
vn 0.601343 0.652258 0.461461
vn 0.876883 -0.426132 -0.22246
vn 0.752369 -0.612873 -0.241511
vn 0.966867 -0.254769 0.0161298
vn 0.86964 0.351008 0.347161
vn 0.389872 0.840455 0.376345
vn 0.458853 0.78552 0.415226
vn 0.993124 0.0574359 -0.102009
vn 0.793662 0.582255 0.176294
vn 0.979528 0.175709 0.0982427
vn -0.885065 -0.300234 -0.355697
vn -0.0458276 -0.781966 -0.621634
vn -0.00495714 -0.695334 -0.71867
vn 0.450856 -0.719249 -0.528592
vn 0.782372 0.451527 0.428972
vn -0.687529 -0.49602 -0.530347
vn -0.979757 0.0938148 -0.176848
vn -0.720838 0.639178 0.268037
vn -0.925582 0.346487 0.152462
vn -0.262038 0.836065 0.482007
vn -0.656767 0.62519 0.421656
vn 0.468828 -0.758024 -0.453432
vn 0.988601 -0.00715967 0.150386
vn -0.436534 -0.653444 -0.618424
vn 0.430237 -0.461323 -0.775936
vn -0.361373 0.579375 0.730571
vn 0.877544 -0.153371 -0.454306
vn -0.94825 -0.292715 -0.123042
vn 0.902602 0.362297 0.232486
vn -0.838174 -0.520048 -0.16436
vn -0.221869 -0.580846 -0.783194
vn -0.889312 -0.452081 -0.068904
vn -0.190113 0.46675 0.863714
vn -0.408251 0.423697 0.808586
vn 0.497252 0.651859 0.572556
vn -0.0548449 -0.592759 -0.803511
vn 0.186095 0.647449 0.739039
vn 0.78048 -0.0347041 -0.624216
vn 0.948352 0.292156 -0.123588
vn 0.727166 0.585946 0.357628
vn 0.888335 0.432004 -0.15567
vn -0.938733 -0.294664 -0.178752
vn -0.885495 -0.262123 0.383652
vn -0.442413 -0.637459 0.630806
vn 0.249277 -0.703637 0.665399
vn -0.352888 -0.592237 0.724379
vn 0.28392 -0.437311 0.853316
vn 0.423861 0.542173 0.725527
vn 0.420074 -0.183066 0.888833
vn 0.553912 0.520593 0.649742
vn 0.501128 0.692445 0.519029
vn -0.468173 0.606355 -0.642765
vn -0.738532 -0.542445 -0.400405
vn -0.727601 0.440358 -0.526005
vn -0.989148 -0.0563362 0.135695
vn -0.793984 0.48278 -0.369477
vn -0.524705 0.696749 0.489107
vn -0.827771 0.35368 -0.435553
vn -0.52344 -0.785779 -0.329488
vn -0.798827 0.589486 -0.119919
vn -0.824078 -0.553309 -0.121428
vn -0.979243 0.00636671 -0.202589
vn -0.279094 0.957875 -0.0676892
vn -0.71642 0.236461 -0.656375
vn -0.343924 0.897632 -0.275632
vn 0.382266 0.836031 0.393605
vn 0.741402 -0.276033 0.61166
vn -0.854516 0.432807 0.287195
vn -0.905315 -0.247895 0.344896
vn -0.365393 0.346916 -0.863792
vn 0.196037 0.0488089 -0.979381
vn -0.33112 0.943402 -0.0187947
vn 0.451124 0.820803 -0.350384
vn -0.192071 0.969057 -0.155042
vn 0.363546 0.926292 -0.0990846
vn 0.670226 0.65466 0.349595
vn 0.503525 0.750748 0.427599
vn 0.582508 0.0164149 -0.812659
vn 0.579221 0.638955 0.506201
vn -0.679793 -0.705399 -0.200736
vn -0.0240492 -0.985255 -0.169392
vn -0.767269 -0.621078 -0.159875
vn -0.608996 -0.768711 -0.195466
vn -0.152066 0.985242 0.0785792
vn -0.136296 0.981699 0.133007
vn 0.93078 -0.348032 0.1119
vn -0.507563 -0.745779 -0.431502
vn 0.41168 0.849688 0.329469
vn 0.721849 0.48341 0.495227
vn 0.158449 0.905533 0.393579
vn -0.345243 0.905445 0.246934
vn 0.897869 -0.395379 -0.193667
vn -0.19993 0.83698 0.509404
vn 0.429262 -0.712019 -0.555664
vn 0.814986 -0.33501 -0.472828
vn 0.984935 -0.166155 -0.0479086
vn 0.881128 -0.242588 -0.405913
vn 0.0653595 0.805791 0.588582
vn 0.0915835 0.782377 0.616034
vn 0.927736 -0.368562 -0.0588902
vn 0.148163 0.712073 0.686294
vn 0.643428 0.598068 0.477823
vn -0.6221 0.476044 0.62159
vn 0.885999 -0.269569 -0.377277
vn -0.305732 -0.605227 -0.735002
vn 0.477972 -0.259295 -0.839231
vn -0.927288 -0.211222 0.309065
vn -0.674338 0.240254 0.698245
g grp1
usemtl mtl1
f 4//4 1//1 6//6 
f 1//1 4//4 2//2 
f 2//2 4//4 18//18 
f 6//6 25//25 11//11 
f 18//18 27//27 2//2 
f 25//25 6//6 1//1 
f 2//2 26//26 1//1 
f 27//27 18//18 22//22 
f 25//25 1//1 26//26 
f 26//26 2//2 27//27 
f 25//25 29//29 11//11 
f 6//6 11//11 7//7 
f 171//171 3//3 6//6 
f 6//6 3//3 4//4 
f 3//3 5//5 4//4 
f 18//18 4//4 17//17 
f 17//17 4//4 5//5 
f 172//172 8//8 3//3 
f 7//7 12//12 173//173 
f 9//9 3//3 8//8 
f 8//8 10//10 9//9 
f 3//3 9//9 5//5 
f 5//5 9//9 17//17 
f 10//10 20//20 9//9 
f 12//12 7//7 11//11 
f 13//13 10//10 8//8 
f 13//13 14//14 10//10 
f 20//20 21//21 23//23 
f 10//10 21//21 20//20 
f 14//14 21//21 10//10 
f 173//173 12//12 175//175 
f 174//174 16//16 176//176 
f 24//24 21//21 177//177 
f 12//12 11//11 28//28 
f 16//16 174//174 28//28 
f 176//176 16//16 178//178 
f 15//15 178//178 16//16 
f 179//179 24//24 177//177 
f 179//179 31//31 24//24 
f 23//23 24//24 32//32 
f 31//31 15//15 16//16 
f 24//24 31//31 180//180 
f 18//18 17//17 19//19 
f 17//17 9//9 20//20 
f 19//19 17//17 20//20 
f 23//23 22//22 19//19 
f 22//22 18//18 19//19 
f 19//19 20//20 23//23 
f 23//23 21//21 24//24 
f 23//23 32//32 22//22 
f 29//29 40//40 28//28 
f 34//34 29//29 25//25 
f 29//29 34//34 40//40 
f 25//25 26//26 44//44 
f 26//26 33//33 44//44 
f 29//29 28//28 11//11 
f 28//28 30//30 16//16 
f 22//22 32//32 27//27 
f 32//32 47//47 27//27 
f 30//30 31//31 16//16 
f 40//40 50//50 28//28 
f 34//34 25//25 44//44 
f 34//34 106//106 40//40 
f 216//216 34//34 44//44 
f 45//45 181//181 35//35 
f 181//181 26//26 27//27 
f 47//47 35//35 27//27 
f 181//181 27//27 35//35 
f 195//195 180//180 49//49 
f 31//31 49//49 180//180 
f 28//28 50//50 30//30 
f 37//37 70//70 69//69 
f 74//74 199//199 183//183 
f 184//184 36//36 39//39 
f 37//37 69//69 182//182 
f 39//39 36//36 38//38 
f 36//36 60//60 38//38 
f 60//60 66//66 38//38 
f 185//185 74//74 183//183 
f 38//38 75//75 186//186 
f 38//38 66//66 75//75 
f 201//201 186//186 77//77 
f 77//77 186//186 75//75 
f 46//46 50//50 40//40 
f 105//105 46//46 40//40 
f 105//105 40//40 106//106 
f 42//42 92//92 41//41 
f 187//187 43//43 189//189 
f 97//97 189//189 43//43 
f 44//44 33//33 193//193 
f 194//194 35//35 47//47 
f 193//193 187//187 44//44 
f 193//193 43//43 187//187 
f 192//192 194//194 47//47 
f 216//216 44//44 188//188 
f 107//107 192//192 47//47 
f 51//51 48//48 49//49 
f 31//31 51//51 49//49 
f 217//217 195//195 49//49 
f 46//46 51//51 50//50 
f 51//51 30//30 50//50 
f 30//30 51//51 31//31 
f 51//51 46//46 196//196 
f 112//112 114//114 52//52 
f 114//114 53//53 52//52 
f 53//53 56//56 52//52 
f 53//53 116//116 197//197 
f 128//128 52//52 54//54 
f 55//55 54//54 56//56 
f 52//52 128//128 112//112 
f 145//145 128//128 54//54 
f 197//197 57//57 55//55 
f 52//52 56//56 54//54 
f 116//116 57//57 197//197 
f 159//159 58//58 62//62 
f 198//198 59//59 62//62 
f 160//160 234//234 65//65 
f 159//159 161//161 58//58 
f 159//159 157//157 161//161 
f 59//59 198//198 236//236 
f 61//61 182//182 69//69 
f 62//62 60//60 61//61 
f 36//36 61//61 60//60 
f 61//61 63//63 62//62 
f 63//63 61//61 69//69 
f 234//234 63//63 65//65 
f 62//62 63//63 159//159 
f 64//64 66//66 60//60 
f 62//62 64//64 60//60 
f 69//69 82//82 65//65 
f 65//65 63//63 69//69 
f 64//64 62//62 59//59 
f 66//66 64//64 59//59 
f 82//82 67//67 65//65 
f 83//83 67//67 207//207 
f 67//67 83//83 170//170 
f 83//83 84//84 170//170 
f 162//162 66//66 59//59 
f 162//162 68//68 66//66 
f 164//164 68//68 162//162 
f 71//71 69//69 70//70 
f 199//199 72//72 200//200 
f 72//72 199//199 74//74 
f 76//76 72//72 74//74 
f 82//82 69//69 71//71 
f 73//73 207//207 200//200 
f 200//200 72//72 73//73 
f 78//78 72//72 202//202 
f 73//73 83//83 207//207 
f 78//78 83//83 73//73 
f 72//72 78//78 73//73 
f 68//68 75//75 66//66 
f 203//203 201//201 77//77 
f 77//77 75//75 81//81 
f 68//68 81//81 75//75 
f 78//78 202//202 80//80 
f 202//202 204//204 80//80 
f 81//81 206//206 77//77 
f 83//83 78//78 79//79 
f 208//208 81//81 68//68 
f 208//208 205//205 81//81 
f 80//80 79//79 78//78 
f 205//205 206//206 81//81 
f 83//83 79//79 84//84 
f 210//210 85//85 94//94 
f 85//85 88//88 94//94 
f 88//88 85//85 124//124 
f 89//89 88//88 221//221 
f 209//209 87//87 114//114 
f 86//86 114//114 87//87 
f 90//90 86//86 87//87 
f 87//87 209//209 211//211 
f 94//94 88//88 95//95 
f 95//95 88//88 89//89 
f 96//96 95//95 89//89 
f 89//89 127//127 96//96 
f 90//90 211//211 190//190 
f 90//90 91//91 86//86 
f 90//90 191//191 91//91 
f 189//189 97//97 91//91 
f 91//91 97//97 93//93 
f 87//87 211//211 90//90 
f 94//94 98//98 210//210 
f 94//94 102//102 98//98 
f 102//102 94//94 95//95 
f 215//215 95//95 103//103 
f 96//96 103//103 95//95 
f 103//103 96//96 104//104 
f 212//212 216//216 188//188 
f 98//98 106//106 210//210 
f 213//213 192//192 107//107 
f 98//98 99//99 106//106 
f 101//101 217//217 110//110 
f 93//93 213//213 214//214 
f 107//107 214//214 213//213 
f 99//99 98//98 100//100 
f 98//98 102//102 100//100 
f 104//104 110//110 111//111 
f 104//104 101//101 110//110 
f 215//215 103//103 100//100 
f 100//100 103//103 111//111 
f 104//104 111//111 103//103 
f 99//99 105//105 106//106 
f 99//99 108//108 105//105 
f 105//105 108//108 46//46 
f 49//49 110//110 217//217 
f 196//196 46//46 108//108 
f 99//99 100//100 108//108 
f 108//108 109//109 196//196 
f 48//48 218//218 49//49 
f 111//111 108//108 100//100 
f 108//108 111//111 109//109 
f 110//110 49//49 218//218 
f 110//110 218//218 111//111 
f 128//128 129//129 112//112 
f 209//209 114//114 112//112 
f 129//129 118//118 112//112 
f 129//129 113//113 118//118 
f 131//131 113//113 129//129 
f 113//113 131//131 137//137 
f 118//118 113//113 119//119 
f 113//113 137//137 119//119 
f 114//114 115//115 53//53 
f 53//53 115//115 116//116 
f 115//115 122//122 116//116 
f 116//116 122//122 117//117 
f 219//219 123//123 121//121 
f 118//118 85//85 112//112 
f 221//221 118//118 119//119 
f 119//119 137//137 120//120 
f 137//137 138//138 120//120 
f 120//120 138//138 121//121 
f 85//85 118//118 124//124 
f 221//221 119//119 125//125 
f 120//120 125//125 119//119 
f 86//86 115//115 114//114 
f 86//86 126//126 115//115 
f 122//122 115//115 126//126 
f 117//117 122//122 220//220 
f 121//121 123//123 127//127 
f 127//127 120//120 121//121 
f 221//221 125//125 89//89 
f 89//89 125//125 127//127 
f 127//127 125//125 120//120 
f 86//86 91//91 126//126 
f 91//91 93//93 126//126 
f 220//220 93//93 214//214 
f 122//122 126//126 220//220 
f 126//126 93//93 220//220 
f 123//123 101//101 127//127 
f 127//127 104//104 96//96 
f 101//101 104//104 127//127 
f 145//145 54//54 146//146 
f 55//55 146//146 54//54 
f 128//128 141//141 129//129 
f 141//141 128//128 145//145 
f 141//141 151//151 129//129 
f 132//132 129//129 151//151 
f 132//132 131//131 129//129 
f 132//132 133//133 131//131 
f 131//131 133//133 139//139 
f 133//133 134//134 139//139 
f 139//139 134//134 136//136 
f 130//130 136//136 134//134 
f 144//144 130//130 134//134 
f 117//117 57//57 116//116 
f 136//136 57//57 219//219 
f 136//136 222//222 57//57 
f 136//136 219//219 135//135 
f 138//138 135//135 121//121 
f 135//135 138//138 136//136 
f 131//131 139//139 137//137 
f 137//137 139//139 138//138 
f 136//136 138//138 139//139 
f 121//121 135//135 219//219 
f 140//140 141//141 145//145 
f 148//148 157//157 140//140 
f 153//153 141//141 140//140 
f 232//232 150//150 155//155 
f 141//141 153//153 142//142 
f 141//141 143//143 151//151 
f 223//223 143//143 141//141 
f 229//229 225//225 152//152 
f 225//225 158//158 152//152 
f 152//152 158//158 144//144 
f 224//224 233//233 226//226 
f 55//55 147//147 146//146 
f 145//145 146//146 140//140 
f 57//57 147//147 55//55 
f 147//147 57//57 149//149 
f 140//140 146//146 148//148 
f 146//146 147//147 148//148 
f 148//148 147//147 150//150 
f 147//147 149//149 150//150 
f 148//148 150//150 232//232 
f 227//227 149//149 222//222 
f 227//227 228//228 149//149 
f 227//227 230//230 228//228 
f 132//132 229//229 133//133 
f 133//133 229//229 152//152 
f 133//133 152//152 134//134 
f 134//134 152//152 144//144 
f 222//222 149//149 57//57 
f 153//153 234//234 165//165 
f 153//153 157//157 159//159 
f 154//154 153//153 165//165 
f 165//165 235//235 154//154 
f 167//167 154//154 235//235 
f 153//153 154//154 142//142 
f 167//167 168//168 156//156 
f 233//233 224//224 156//156 
f 224//224 154//154 156//156 
f 167//167 156//156 154//154 
f 169//169 231//231 158//158 
f 153//153 140//140 157//157 
f 144//144 158//158 231//231 
f 67//67 235//235 65//65 
f 234//234 160//160 165//165 
f 67//67 170//170 167//167 
f 235//235 67//67 167//167 
f 170//170 168//168 167//167 
f 232//232 163//163 237//237 
f 59//59 237//237 163//163 
f 162//162 59//59 163//163 
f 166//166 162//162 163//163 
f 164//164 162//162 166//166 
f 232//232 155//155 163//163 
f 169//169 164//164 166//166 
f 170//170 84//84 164//164 
f 163//163 155//155 166//166 
f 169//169 168//168 170//170 
f 164//164 169//169 170//170 
f 231//231 169//169 166//166 
f 156//156 168//168 158//158 
f 168//168 169//169 158//158 
f 208//208 68//68 164//164 
