#
# The license for this database is specified in the Creative Commons Attribution-Share Alike 2.1 Japan. If you use data from this database, please be sure attribute this database as follows: "BodyParts3D, (c)  The Database Center for Life Science licensed under CC Attribution-Share Alike 2.1 Japan".
# http://dbarchive.biosciencedbc.jp/en/bodyparts3d/lic.html
#
#
# Compatibility version : 4.0
# File ID : FJ2931
# Representation ID : BP9587
# Build-up logic : FMA 3.0 part_of
# Concept ID : FMA8667
# English name : Left anterior segmental vein
# Bounds(mm): (63.942900,-134.656000,1252.290000)-(94.430900,-94.582700,1261.310100)
# Volume(cm3): 0.250900
#
v 64.0131 -95.6596 1259.73
v 64.2652 -95.4496 1259.09
v 63.9429 -96.1491 1259.62
v 64.0558 -96.0019 1259.15
v 64.0844 -96.5422 1259.28
v 64.2696 -96.3923 1258.82
v 64.9883 -95.8272 1261.22
v 64.217 -95.4851 1260.34
v 64.3374 -95.0989 1259.72
v 64.3323 -95.84 1260.77
v 64.6548 -94.9452 1260.32
v 64.545 -95.5759 1260.88
v 64.5697 -95.8535 1261.01
v 64.9911 -94.6501 1259.73
v 64.77 -95.202 1260.79
v 64.7639 -95.5632 1261.03
v 65.0186 -95.3771 1261.04
v 65.2511 -94.9165 1260.72
v 65.3249 -94.6644 1260.3
v 65.6919 -94.5827 1259.91
v 65.4784 -95.7479 1261.28
v 64.5897 -94.948 1259.3
v 64.8467 -95.0447 1258.83
v 64.9038 -95.4419 1258.47
v 65.1078 -94.704 1259.22
v 65.3331 -95.1325 1258.53
v 65.4656 -95.386 1258.36
v 65.4909 -94.8818 1258.78
v 65.5746 -94.6135 1259.35
v 65.8923 -95.1435 1258.56
v 66.0202 -94.9227 1258.87
v 64.823 -96.3321 1261.16
v 65.281 -96.2844 1261.31
v 65.5057 -96.8616 1261.12
v 64.0607 -96.2534 1260.33
v 64.2455 -96.9189 1260.17
v 64.8537 -97.5105 1259.51
v 64.4468 -96.316 1260.91
v 64.5057 -96.7742 1260.76
v 65.2015 -97.4445 1260.49
v 64.546 -95.9974 1258.52
v 65.1103 -96.6728 1258.3
v 64.8567 -97.0673 1258.68
v 65.3358 -95.8968 1258.2
v 65.7835 -94.8238 1260.58
v 65.7178 -95.1828 1260.99
v 66.4138 -95.171 1260.62
v 66.6215 -95.048 1260.11
v 66.5084 -95.7179 1260.94
v 66.4705 -94.9036 1259.4
v 66.1071 -96.6066 1261.17
v 67.4679 -96.6571 1257.8
v 68.025 -96.2486 1258.29
v 67.3542 -97.5284 1257.56
v 70.6337 -100.443 1256.62
v 70.7557 -101.137 1257.05
v 70.2966 -97.6522 1259.33
v 71.0088 -98.7911 1259.5
v 71.5923 -98.2877 1257.99
v 71.6399 -101.881 1257.54
v 71.6194 -100.771 1259.04
v 71.5854 -100.328 1256.18
v 74.2429 -101.354 1255.44
v 75.1291 -103.045 1254.89
v 76.442 -102.067 1256.93
v 75.7473 -101.524 1255.78
v 76.4007 -105.465 1255.22
v 77.0499 -105.307 1256.66
v 78.3206 -104.772 1253.92
v 78.6189 -104.457 1256.57
v 78.5408 -104.125 1254.35
v 78.9764 -103.941 1255.22
v 78.5058 -105.053 1256.7
v 80.0649 -108.77 1253.86
v 80.2984 -108.05 1253.32
v 80.3329 -105.688 1255.78
v 80.4635 -105.491 1255.33
v 80.7789 -105.837 1254.32
v 80.4699 -108.04 1255.82
v 81.6314 -107.66 1255.6
v 81.3702 -107.339 1253.32
v 80.8019 -109.426 1255.07
v 82.5794 -107.761 1254.42
v 82.1148 -109.41 1252.85
v 82.8615 -108.533 1253.38
v 82.7957 -111.593 1254.87
v 82.2659 -111.21 1253.21
v 82.4027 -111.771 1254.07
v 83.4778 -109.158 1254.76
v 84.9151 -110.811 1253.89
v 83.354 -109.82 1252.83
v 84.2496 -111.984 1255.09
v 84.7227 -111.567 1254.9
v 84.9186 -114.351 1254.73
v 85.3348 -113.596 1252.34
v 84.8039 -115.329 1253.92
v 85.5469 -116.747 1253.22
v 85.7639 -112.529 1252.92
v 86.6605 -114.04 1254.35
v 87.3103 -115.772 1252.53
v 87.4296 -117.459 1254.68
v 86.7532 -117.874 1252.39
v 87.2885 -119.615 1254.1
v 87.7848 -120.938 1252.76
v 88.2302 -121.283 1252.43
v 88.1853 -117.707 1254.51
v 88.3697 -116.75 1253.58
v 88.8367 -123.612 1253.77
v 90.1252 -122.982 1254.56
v 89.952 -125.012 1254.43
v 92.0675 -126.059 1252.9
v 92.28 -127.496 1252.55
v 92.44 -127.374 1254.2
v 91.4453 -127.155 1252.29
v 92.6203 -133.92 1254.12
v 92.9497 -134.656 1253.24
v 93.4144 -134.201 1252.7
v 93.7994 -134.222 1252.78
v 93.4705 -133.698 1254.87
v 93.6379 -132.913 1254.84
v 94.4309 -132.746 1253.77
v 94.3071 -132.389 1253.23
v 94.0363 -133.876 1252.67
v 76.4007 -105.465 1255.22
v 77.0499 -105.307 1256.66
v 80.0649 -108.77 1253.86
v 82.2659 -111.21 1253.21
v 84.2496 -111.984 1255.09
v 84.9186 -114.351 1254.73
v 86.7532 -117.874 1252.39
v 87.2885 -119.615 1254.1
v 88.2302 -121.283 1252.43
v 88.8367 -123.612 1253.77
v 92.0675 -126.059 1252.9
v 92.6203 -133.92 1254.12
v 92.6203 -133.92 1254.12
v 92.9497 -134.656 1253.24
v 92.9497 -134.656 1253.24
v 92.9497 -134.656 1253.24
v 92.9497 -134.656 1253.24
v 93.4144 -134.201 1252.7
v 93.7994 -134.222 1252.78
v 93.4705 -133.698 1254.87
v 93.4705 -133.698 1254.87
v 93.4705 -133.698 1254.87
v 93.6379 -132.913 1254.84
v 94.4309 -132.746 1253.77
v 94.3071 -132.389 1253.23
v 94.0363 -133.876 1252.67
v 94.0363 -133.876 1252.67
vn -0.952105 0.305744 -0.00405015
vn -0.769533 0.454441 -0.448667
vn -0.994725 -0.0990371 -0.0267328
vn -0.911654 0.0955342 -0.399699
vn -0.86482 -0.417473 -0.278933
vn -0.738736 -0.234613 -0.631843
vn -0.310505 0.18878 0.931638
vn -0.818066 0.435984 0.375082
vn -0.749079 0.66248 0.000580703
vn -0.794682 0.166439 0.583763
vn -0.529546 0.775535 0.343695
vn -0.647893 0.3988 0.648994
vn -0.579875 0.143207 0.802021
vn -0.338838 0.940844 0.000998862
vn -0.501383 0.5985 0.624831
vn -0.454201 0.387723 0.802105
vn -0.225854 0.505907 0.832495
vn -0.184467 0.761054 0.621907
vn -0.146429 0.93222 0.330944
vn 0.18198 0.977609 0.105657
vn 0.06899 0.241343 0.967984
vn -0.584154 0.761716 -0.280272
vn -0.429669 0.69771 -0.573224
vn -0.416978 0.412796 -0.809771
vn -0.274316 0.8963 -0.34842
vn -0.135385 0.63599 -0.759729
vn -0.0654224 0.446747 -0.892265
vn -0.0319525 0.822563 -0.567776
vn 0.0791504 0.965384 -0.248534
vn 0.150768 0.65547 -0.740019
vn 0.268504 0.83201 -0.485453
vn -0.419825 -0.206293 0.88385
vn -0.0963626 -0.122549 0.987773
vn -0.162446 -0.482251 0.86084
vn -0.928048 -0.0698005 0.365861
vn -0.804964 -0.560071 0.19584
vn -0.629707 -0.770443 -0.0994366
vn -0.709444 -0.126563 0.693305
vn -0.590767 -0.483452 0.645964
vn -0.401387 -0.768131 0.498862
vn -0.61465 0.104899 -0.781794
vn -0.446273 -0.170428 -0.878518
vn -0.620131 -0.53431 -0.574413
vn -0.246184 0.175928 -0.953123
vn 0.225624 0.847213 0.480961
vn 0.153248 0.580936 0.799393
vn 0.468278 0.658231 0.589446
vn 0.504528 0.830091 0.237487
vn 0.412416 0.338999 0.845573
vn 0.422343 0.888876 -0.177556
vn 0.209166 -0.105324 0.972192
vn 0.0360528 0.452314 -0.89113
vn 0.325911 0.744837 -0.582237
vn -0.214821 0.14083 -0.966447
vn -0.50276 -0.354343 -0.788463
vn -0.605227 -0.686506 -0.403002
vn 0.597882 0.621851 0.505805
vn 0.448799 0.185723 0.87412
vn 0.565567 0.823657 -0.0415116
vn -0.490538 -0.836563 0.243996
vn -0.0323885 -0.503419 0.863435
vn -0.306895 0.0185434 -0.951563
vn 0.00987966 0.441092 -0.897408
vn -0.38271 -0.0811905 -0.920294
vn 0.655418 0.648424 0.387266
vn 0.464816 0.7962 -0.387313
vn -0.576417 -0.411338 -0.706076
vn -0.497521 -0.766369 0.406389
vn -0.058422 0.256481 -0.964782
vn 0.538517 0.296428 0.788752
vn 0.361718 0.645418 -0.672753
vn 0.637357 0.761793 -0.115968
vn 0.237856 -0.126798 0.962988
vn -0.594216 -0.351754 -0.723309
vn -0.465008 -0.220312 -0.857456
vn 0.636456 0.429631 0.640578
vn 0.730265 0.634405 0.253464
vn 0.638623 0.688014 -0.34467
vn -0.0838509 -0.318878 0.944079
vn 0.383424 0.109412 0.917069
vn 0.293191 0.460476 -0.837855
vn -0.604599 -0.65758 0.449497
vn 0.771059 0.636752 0.00382592
vn -0.188726 0.0196658 -0.981833
vn 0.633439 0.587441 -0.503655
vn -0.500017 -0.475422 0.723849
vn -0.491685 -0.260227 -0.83098
vn -0.791997 -0.591414 0.151558
vn 0.738491 0.490121 0.463047
vn 0.827795 0.561016 0.00411609
vn 0.311256 0.353157 -0.88227
vn 0.261875 0.0642961 0.962958
vn 0.508327 0.249221 0.824313
vn -0.244446 -0.22005 0.944364
vn 0.143454 0.145212 -0.978946
vn -0.755955 -0.49829 0.424546
vn -0.871631 -0.477279 -0.111639
vn 0.666477 0.463597 -0.583855
vn 0.754254 0.405255 0.516593
vn 0.499062 0.245481 -0.831069
vn -0.103332 -0.0926205 0.990325
vn -0.177762 -0.0790181 -0.980896
vn -0.716003 -0.391665 0.577873
vn -0.830412 -0.350582 -0.433022
vn -0.708799 -0.306454 -0.635366
vn 0.514826 0.212492 0.830543
vn 0.899189 0.435552 0.041872
vn -0.914709 -0.393888 -0.09033
vn 0.210511 0.0843947 0.973942
vn -0.436077 -0.157828 0.885961
vn 0.754236 0.295734 -0.586234
vn 0.569827 0.187275 -0.800141
vn 0.793086 0.298243 0.531099
vn 0.0235786 -0.013458 -0.999631
vn -0.937373 -0.348213 0.00894943
vn -0.614519 -0.257461 -0.745708
vn -0.66228 -0.27796 -0.69579
vn 0.746884 -0.613084 0.257474
vn -0.615219 -0.210528 0.759726
vn -0.113056 -0.000902171 0.993588
vn 0.976302 0.206601 -0.0644254
vn 0.727608 0.210259 -0.652976
vn 0.297724 -0.0606243 -0.952725
vn -0.608133 -0.779153 0.151966
vn -0.0428737 -0.402343 0.914485
vn -0.748738 -0.661651 -0.0401089
vn -0.790182 -0.52209 -0.32099
vn -0.233535 -0.27421 0.932883
vn -0.648818 -0.436777 0.623106
vn -0.731324 -0.361579 -0.578295
vn -0.696593 -0.351489 0.625471
vn -0.300345 -0.141221 -0.943318
vn -0.759212 -0.309578 0.572502
vn 0.936444 0.345606 0.0602448
vn -0.6553 -0.221239 0.722243
vn -0.281416 -0.7853 0.551461
vn -0.933881 -0.353497 -0.0539118
vn -0.281416 -0.7853 0.551461
vn 0.553458 -0.783159 0.283455
vn 0.0814604 -0.795644 -0.600262
vn -0.0168228 -0.375638 -0.926614
vn 0.127695 -0.617778 -0.775915
vn -0.281416 -0.7853 0.551461
vn 0.764119 -0.511745 0.392734
vn -0.0204554 0.0425732 0.998884
vn 0.718266 0.100785 0.68843
vn 0.860885 -0.251592 0.442243
vn 0.981566 0.134025 -0.136253
vn 0.960492 -0.073878 -0.268323
vn 0.836235 -0.503521 0.217206
g grp1
usemtl mtl1
f 4//4 1//1 2//2 
f 8//8 1//1 35//35 
f 1//1 3//3 35//35 
f 1//1 4//4 3//3 
f 2//2 41//41 4//4 
f 4//4 5//5 3//3 
f 3//3 36//36 35//35 
f 3//3 5//5 36//36 
f 4//4 6//6 5//5 
f 6//6 43//43 5//5 
f 36//36 5//5 37//37 
f 5//5 43//43 37//37 
f 56//56 37//37 43//43 
f 4//4 41//41 6//6 
f 41//41 42//42 6//6 
f 42//42 43//43 6//6 
f 7//7 13//13 32//32 
f 33//33 7//7 32//32 
f 7//7 33//33 21//21 
f 51//51 21//21 33//33 
f 8//8 9//9 1//1 
f 1//1 9//9 2//2 
f 35//35 10//10 8//8 
f 11//11 14//14 9//9 
f 9//9 8//8 11//11 
f 22//22 9//9 14//14 
f 2//2 9//9 22//22 
f 38//38 13//13 10//10 
f 10//10 35//35 38//38 
f 11//11 8//8 15//15 
f 10//10 13//13 12//12 
f 12//12 8//8 10//10 
f 15//15 8//8 12//12 
f 13//13 38//38 32//32 
f 14//14 11//11 19//19 
f 11//11 15//15 18//18 
f 15//15 12//12 16//16 
f 16//16 12//12 13//13 
f 16//16 13//13 7//7 
f 11//11 18//18 19//19 
f 19//19 20//20 14//14 
f 18//18 15//15 17//17 
f 17//17 15//15 16//16 
f 17//17 16//16 7//7 
f 20//20 29//29 14//14 
f 21//21 17//17 7//7 
f 18//18 45//45 19//19 
f 17//17 46//46 18//18 
f 18//18 46//46 45//45 
f 17//17 21//21 46//46 
f 41//41 2//2 24//24 
f 22//22 23//23 2//2 
f 23//23 24//24 2//2 
f 27//27 44//44 24//24 
f 25//25 23//23 22//22 
f 26//26 24//24 23//23 
f 26//26 27//27 24//24 
f 22//22 14//14 25//25 
f 23//23 28//28 26//26 
f 23//23 25//25 28//28 
f 26//26 28//28 30//30 
f 52//52 27//27 30//30 
f 27//27 26//26 30//30 
f 25//25 14//14 29//29 
f 29//29 28//28 25//25 
f 28//28 29//29 31//31 
f 30//30 28//28 31//31 
f 20//20 50//50 29//29 
f 31//31 29//29 50//50 
f 39//39 32//32 38//38 
f 34//34 32//32 39//39 
f 33//33 32//32 34//34 
f 51//51 33//33 34//34 
f 38//38 35//35 39//39 
f 39//39 35//35 36//36 
f 40//40 39//39 36//36 
f 40//40 36//36 37//37 
f 39//39 40//40 34//34 
f 34//34 40//40 61//61 
f 51//51 34//34 61//61 
f 24//24 44//44 41//41 
f 44//44 54//54 42//42 
f 41//41 44//44 42//42 
f 44//44 27//27 52//52 
f 20//20 19//19 45//45 
f 49//49 46//46 21//21 
f 51//51 49//49 21//21 
f 48//48 20//20 45//45 
f 50//50 20//20 48//48 
f 59//59 50//50 48//48 
f 49//49 47//47 46//46 
f 45//45 46//46 47//47 
f 47//47 48//48 45//45 
f 57//57 48//48 47//47 
f 50//50 53//53 31//31 
f 53//53 30//30 31//31 
f 47//47 49//49 57//57 
f 58//58 57//57 49//49 
f 51//51 58//58 49//49 
f 52//52 30//30 53//53 
f 54//54 44//44 52//52 
f 52//52 63//63 54//54 
f 60//60 37//37 56//56 
f 61//61 58//58 51//51 
f 52//52 53//53 63//63 
f 60//60 40//40 37//37 
f 42//42 55//55 43//43 
f 60//60 61//61 40//40 
f 43//43 55//55 56//56 
f 62//62 54//54 63//63 
f 42//42 54//54 62//62 
f 42//42 62//62 55//55 
f 59//59 48//48 57//57 
f 50//50 59//59 53//53 
f 65//65 59//59 57//57 
f 53//53 59//59 66//66 
f 55//55 67//67 56//56 
f 55//55 62//62 64//64 
f 124//124 60//60 56//56 
f 55//55 64//64 67//67 
f 62//62 63//63 64//64 
f 65//65 57//57 58//58 
f 73//73 58//58 61//61 
f 73//73 70//70 58//58 
f 63//63 53//53 66//66 
f 61//61 60//60 68//68 
f 73//73 61//61 125//125 
f 65//65 66//66 59//59 
f 124//124 68//68 60//60 
f 69//69 64//64 63//63 
f 63//63 66//66 71//71 
f 72//72 66//66 65//65 
f 71//71 69//69 63//63 
f 67//67 64//64 75//75 
f 75//75 74//74 67//67 
f 64//64 69//69 75//75 
f 65//65 58//58 70//70 
f 72//72 71//71 66//66 
f 73//73 80//80 70//70 
f 65//65 70//70 76//76 
f 71//71 81//81 69//69 
f 72//72 65//65 77//77 
f 71//71 78//78 81//81 
f 68//68 124//124 82//82 
f 73//73 125//125 79//79 
f 125//125 82//82 79//79 
f 80//80 73//73 79//79 
f 82//82 124//124 126//126 
f 81//81 78//78 85//85 
f 75//75 87//87 74//74 
f 69//69 84//84 75//75 
f 77//77 78//78 72//72 
f 71//71 72//72 78//78 
f 77//77 65//65 76//76 
f 70//70 80//80 76//76 
f 89//89 77//77 76//76 
f 77//77 83//83 78//78 
f 83//83 85//85 78//78 
f 83//83 77//77 89//89 
f 83//83 89//89 90//90 
f 84//84 69//69 81//81 
f 91//91 84//84 81//81 
f 81//81 85//85 91//91 
f 79//79 82//82 86//86 
f 80//80 79//79 92//92 
f 128//128 79//79 86//86 
f 88//88 86//86 82//82 
f 88//88 126//126 127//127 
f 88//88 82//82 126//126 
f 87//87 75//75 84//84 
f 76//76 93//93 89//89 
f 83//83 90//90 85//85 
f 80//80 93//93 76//76 
f 90//90 89//89 99//99 
f 80//80 92//92 93//93 
f 99//99 89//89 93//93 
f 85//85 90//90 98//98 
f 86//86 94//94 128//128 
f 98//98 90//90 107//107 
f 84//84 95//95 102//102 
f 91//91 95//95 84//84 
f 98//98 91//91 85//85 
f 86//86 88//88 96//96 
f 87//87 84//84 102//102 
f 95//95 100//100 102//102 
f 98//98 95//95 91//91 
f 97//97 88//88 127//127 
f 97//97 96//96 88//88 
f 127//127 130//130 97//97 
f 92//92 106//106 93//93 
f 99//99 93//93 106//106 
f 99//99 107//107 90//90 
f 98//98 100//100 95//95 
f 107//107 100//100 98//98 
f 129//129 86//86 96//96 
f 101//101 128//128 94//94 
f 101//101 106//106 92//92 
f 99//99 106//106 107//107 
f 103//103 129//129 96//96 
f 101//101 94//94 131//131 
f 100//100 114//114 102//102 
f 96//96 97//97 131//131 
f 97//97 130//130 104//104 
f 97//97 104//104 108//108 
f 130//130 105//105 104//104 
f 105//105 117//117 104//104 
f 109//109 106//106 101//101 
f 100//100 107//107 111//111 
f 134//134 107//107 113//113 
f 109//109 101//101 110//110 
f 106//106 113//113 107//107 
f 102//102 114//114 132//132 
f 131//131 97//97 133//133 
f 101//101 131//131 110//110 
f 141//141 132//132 114//114 
f 110//110 131//131 133//133 
f 108//108 104//104 115//115 
f 117//117 116//116 104//104 
f 134//134 113//113 121//121 
f 122//122 112//112 111//111 
f 148//148 134//134 121//121 
f 100//100 112//112 114//114 
f 112//112 123//123 114//114 
f 111//111 112//112 100//100 
f 133//133 135//135 110//110 
f 109//109 110//110 120//120 
f 106//106 109//109 113//113 
f 110//110 135//135 119//119 
f 115//115 104//104 137//137 
f 136//136 138//138 143//143 
f 118//118 144//144 139//139 
f 141//141 142//142 140//140 
f 123//123 141//141 114//114 
f 141//141 123//123 142//142 
f 146//146 113//113 109//109 
f 110//110 145//145 120//120 
f 113//113 146//146 147//147 
f 146//146 144//144 147//147 
f 112//112 122//122 123//123 
f 121//121 149//149 148//148 
f 147//147 144//144 118//118 
f 150//150 147//147 118//118 
