#
# The license for this database is specified in the Creative Commons Attribution-Share Alike 2.1 Japan. If you use data from this database, please be sure attribute this database as follows: "BodyParts3D, (c)  The Database Center for Life Science licensed under CC Attribution-Share Alike 2.1 Japan".
# http://dbarchive.biosciencedbc.jp/en/bodyparts3d/lic.html
#
#
# Compatibility version : 4.0
# File ID : FJ2961
# Representation ID : BP9647
# Build-up logic : FMA 3.0 part_of
# Concept ID : FMA9437
# English name : Left apical segmental vein
# Bounds(mm): (38.890900,-123.714000,1292.670000)-(46.914700,-95.903800,1311.610000)
# Volume(cm3): 0.217000
#
v 39.3569 -113.78 1303.16
v 39.2336 -113.855 1304.41
v 38.9727 -116.777 1305.91
v 39.2183 -118.549 1306.34
v 39.1648 -118.758 1308.43
v 39.7942 -120.489 1307.46
v 38.9199 -120.701 1308.66
v 38.8909 -120.808 1309.26
v 39.1045 -122.911 1310.9
v 39.2009 -122.084 1310.89
v 39.3454 -123.216 1311.36
v 39.4915 -122.699 1311.44
v 39.5475 -123.185 1311.55
v 39.6525 -121.421 1310.75
v 39.7682 -123.125 1311.61
v 39.9208 -122.369 1311.36
v 40.0197 -123.113 1311.55
v 39.0341 -122.607 1310.23
v 39.2405 -122.443 1309.64
v 39.2147 -123.14 1310.52
v 39.478 -122.991 1309.98
v 39.9551 -122.886 1309.74
v 39.9493 -123.5 1310.59
v 39.4595 -123.553 1311.25
v 39.6159 -123.519 1311.53
v 39.681 -123.684 1311.06
v 39.8558 -123.517 1311.56
v 39.8876 -123.705 1311.38
v 39.9265 -123.714 1311.13
v 40.121 -123.483 1311.35
v 40.15 -123.541 1311.08
v 40.723 -108.814 1302.29
v 39.8759 -109.744 1301.1
v 40.2795 -110.633 1300.44
v 39.8766 -111.643 1303.71
v 40.3684 -113.888 1305.55
v 41.3234 -114.619 1305.54
v 39.8359 -114.918 1303.16
v 40.8824 -115.271 1303.04
v 40.3947 -119.71 1309.45
v 40.3423 -120.326 1307.34
v 40.3179 -122.59 1311.22
v 40.7203 -121.493 1310.14
v 40.5929 -122.539 1310.62
v 40.4249 -122.606 1309.79
v 41.5173 -104.273 1297.34
v 41.4832 -103.832 1298.66
v 42.0236 -106.844 1297.47
v 42.3109 -107.505 1301.58
v 42.9727 -108.502 1298.28
v 41.5612 -110.987 1299.81
v 42.2833 -113.36 1302.59
v 43.0481 -98.9335 1294.68
v 43.2194 -100.66 1294.4
v 43.6756 -108.368 1300.43
v 44.4627 -96.4991 1293.65
v 44.3599 -96.3847 1294.37
v 44.8802 -96.0783 1293.82
v 44.9919 -96.4086 1293.21
v 44.8225 -96.0706 1294.36
v 45.1149 -96.8701 1292.87
v 43.5434 -97.573 1295.24
v 44.328 -96.8579 1295.57
v 44.7924 -96.9178 1295.91
v 45.0185 -97.3612 1296.25
v 43.8646 -97.0665 1294.07
v 44.0007 -97.2653 1293.61
v 44.5493 -97.1063 1293.13
v 44.1176 -98.6669 1293.24
v 45.1131 -98.2438 1292.68
v 43.5427 -98.5021 1296.54
v 44.0932 -98.2815 1296.75
v 44.1364 -99.5662 1297.52
v 44.4711 -100.304 1293.48
v 45.4708 -99.6321 1293.08
v 45.364 -95.9871 1293.58
v 45.5024 -96.4056 1293.03
v 45.5261 -95.9038 1294.12
v 45.8802 -96.0726 1293.48
v 45.9809 -96.4281 1293.09
v 46.2983 -96.1895 1294.12
v 46.4474 -96.4656 1293.47
v 45.2155 -96.201 1295.06
v 45.316 -96.8558 1295.82
v 45.7547 -96.1865 1294.89
v 46.4945 -96.8617 1294.98
v 46.9147 -97.364 1293.63
v 46.9035 -97.0794 1294.31
v 45.6633 -97.1356 1292.69
v 45.8714 -98.3511 1292.67
v 46.3488 -98.509 1293
v 46.3564 -97.2208 1292.91
v 45.5335 -98.183 1296.43
v 46.4169 -98.5087 1295.69
v 46.7549 -99.0638 1294.48
v 46.0127 -100.72 1294.27
v 39.9493 -123.5 1310.59
v 39.6159 -123.519 1311.53
v 39.8558 -123.517 1311.56
v 39.8876 -123.705 1311.38
v 39.9265 -123.714 1311.13
v 40.8824 -115.271 1303.04
v 43.6756 -108.368 1300.43
vn -0.92071 -0.143002 -0.363103
vn -0.964383 0.215873 0.152852
vn -0.998321 0.00579375 -0.0576378
vn -0.763113 -0.38523 -0.518899
vn -0.806184 0.363454 0.466871
vn -0.282744 -0.62814 -0.724911
vn -0.933494 -0.234738 -0.271086
vn -0.985801 0.076241 0.149609
vn -0.9666 -0.177198 0.18516
vn -0.783947 0.278472 0.55487
vn -0.815056 -0.115634 0.567725
vn -0.448354 0.293187 0.844405
vn -0.48542 -0.0106482 0.874216
vn -0.258313 0.54002 0.801032
vn -0.0536573 0.0767756 0.995604
vn 0.178172 0.408056 0.895402
vn 0.49469 0.0348984 0.868369
vn -0.942712 -0.2836 -0.175685
vn -0.691038 -0.506602 -0.515577
vn -0.753666 -0.59844 -0.271766
vn -0.368462 -0.735005 -0.569213
vn 0.139887 -0.740945 -0.656835
vn -0.130026 -0.86605 -0.482754
vn -0.710862 -0.67903 0.183286
vn -0.482623 -0.231363 0.844717
vn -0.325029 -0.917727 -0.228328
vn 0.347088 -0.256233 0.90215
vn -0.26757 -0.907633 0.323433
vn -0.0657257 -0.981484 -0.179916
vn 0.797735 -0.353142 0.488783
vn 0.760744 -0.647608 -0.0432772
vn -0.394572 0.523204 0.755361
vn -0.983617 0.148424 -0.102309
vn -0.72998 -0.251038 -0.635696
vn -0.697811 0.466147 0.543844
vn 0.01094 0.544435 0.838732
vn 0.720608 0.283541 0.632715
vn -0.520268 -0.471233 -0.712222
vn -0.182706 -0.601038 -0.778057
vn 0.442858 0.481095 0.756588
vn 0.36671 -0.644248 -0.671169
vn 0.750771 0.164581 0.639731
vn 0.86704 0.194534 0.458693
vn 0.96653 -0.210843 0.146165
vn 0.713317 -0.577709 -0.396776
vn -0.901094 0.00565878 -0.433587
vn -0.903165 0.375251 0.208519
vn -0.467783 -0.35254 -0.810491
vn 0.40584 0.360201 0.83997
vn 0.276408 -0.567166 -0.775836
vn -0.229521 -0.513579 -0.826775
vn 0.922046 -0.349426 -0.166533
vn -0.923673 0.192705 -0.331198
vn -0.707728 -0.14431 -0.691589
vn 0.703709 0.205704 0.680058
vn -0.676481 0.589919 -0.440872
vn -0.688162 0.725405 0.0148428
vn -0.448379 0.861894 -0.236844
vn -0.434313 0.621764 -0.651753
vn -0.388144 0.90569 0.170496
vn -0.329014 0.326426 -0.886113
vn -0.844063 0.510669 0.163627
vn -0.518072 0.718348 0.464303
vn -0.148883 0.692103 0.706277
vn 0.127754 0.518792 0.845301
vn -0.849105 0.478507 -0.223724
vn -0.778744 0.285171 -0.55878
vn -0.584611 0.280277 -0.761364
vn -0.643272 -0.0232932 -0.765284
vn -0.276523 -0.0701061 -0.958447
vn -0.657866 0.538563 0.526462
vn -0.294932 0.566845 0.769221
vn 0.0850775 0.453653 0.887108
vn -0.295654 -0.352959 -0.887698
vn 0.211391 -0.443666 -0.870904
vn -0.146653 0.895768 -0.419633
vn -0.0605258 0.629599 -0.774559
vn 0.0416648 0.99686 0.0673427
vn 0.28853 0.872478 -0.394375
vn 0.341184 0.561182 -0.754101
vn 0.602982 0.790579 0.106763
vn 0.726508 0.571501 -0.381539
vn -0.0944514 0.872389 0.479601
vn 0.289393 0.619589 0.729631
vn 0.342506 0.813806 0.469478
vn 0.674748 0.475839 0.564174
vn 0.933949 0.0788392 -0.348603
vn 0.944895 0.287751 0.156116
vn 0.0640019 0.247249 -0.966836
vn 0.256598 -0.141141 -0.956157
vn 0.716709 -0.278029 -0.639554
vn 0.586821 0.186523 -0.787941
vn 0.492029 0.349901 0.797168
vn 0.82797 0.101122 0.55158
vn 0.978501 -0.206242 -0.000365637
vn 0.724038 -0.471816 -0.50315
vn 0.575206 -0.724611 -0.379574
vn -0.264578 -0.803818 0.532799
vn -0.105779 -0.703794 0.702484
vn 0.647481 -0.683349 0.337346
vn 0.598048 -0.797085 -0.0836361
vn 0.487833 -0.591417 -0.642063
vn 0.953123 -0.146021 0.265018
g grp1
usemtl mtl1
f 2//2 1//1 3//3 
f 38//38 4//4 1//1 
f 4//4 38//38 6//6 
f 3//3 4//4 7//7 
f 14//14 35//35 5//5 
f 1//1 4//4 3//3 
f 38//38 39//39 6//6 
f 3//3 7//7 8//8 
f 6//6 19//19 4//4 
f 2//2 3//3 5//5 
f 22//22 6//6 41//41 
f 41//41 6//6 39//39 
f 8//8 5//5 3//3 
f 8//8 10//10 5//5 
f 14//14 5//5 10//10 
f 4//4 19//19 7//7 
f 21//21 19//19 6//6 
f 22//22 21//21 6//6 
f 9//9 10//10 8//8 
f 8//8 18//18 9//9 
f 9//9 18//18 20//20 
f 11//11 12//12 10//10 
f 9//9 11//11 10//10 
f 24//24 11//11 9//9 
f 9//9 20//20 24//24 
f 11//11 13//13 12//12 
f 25//25 13//13 11//11 
f 24//24 25//25 11//11 
f 10//10 12//12 14//14 
f 12//12 13//13 15//15 
f 16//16 14//14 12//12 
f 12//12 15//15 16//16 
f 15//15 17//17 16//16 
f 16//16 40//40 14//14 
f 17//17 42//42 16//16 
f 8//8 7//7 18//18 
f 7//7 19//19 18//18 
f 18//18 19//19 20//20 
f 19//19 21//21 20//20 
f 20//20 21//21 26//26 
f 23//23 26//26 21//21 
f 22//22 23//23 21//21 
f 23//23 29//29 26//26 
f 45//45 97//97 22//22 
f 31//31 101//101 97//97 
f 45//45 31//31 97//97 
f 44//44 31//31 45//45 
f 98//98 24//24 28//28 
f 24//24 20//20 26//26 
f 28//28 24//24 26//26 
f 15//15 13//13 25//25 
f 27//27 15//15 25//25 
f 99//99 98//98 28//28 
f 28//28 26//26 29//29 
f 17//17 15//15 27//27 
f 17//17 27//27 30//30 
f 30//30 27//27 100//100 
f 30//30 100//100 31//31 
f 100//100 101//101 31//31 
f 42//42 17//17 30//30 
f 44//44 42//42 30//30 
f 31//31 44//44 30//30 
f 35//35 47//47 33//33 
f 35//35 33//33 2//2 
f 33//33 1//1 2//2 
f 1//1 33//33 34//34 
f 38//38 34//34 51//51 
f 34//34 48//48 51//51 
f 35//35 2//2 5//5 
f 32//32 35//35 36//36 
f 34//34 38//38 1//1 
f 39//39 38//38 51//51 
f 35//35 14//14 36//36 
f 14//14 40//40 36//36 
f 37//37 36//36 40//40 
f 52//52 37//37 43//43 
f 52//52 41//41 102//102 
f 52//52 45//45 41//41 
f 45//45 22//22 41//41 
f 44//44 45//45 52//52 
f 43//43 37//37 40//40 
f 42//42 43//43 40//40 
f 16//16 42//42 40//40 
f 43//43 42//42 44//44 
f 52//52 43//43 44//44 
f 47//47 35//35 32//32 
f 53//53 46//46 47//47 
f 47//47 46//46 33//33 
f 33//33 46//46 34//34 
f 34//34 46//46 48//48 
f 48//48 46//46 54//54 
f 48//48 50//50 51//51 
f 36//36 49//49 32//32 
f 49//49 36//36 37//37 
f 50//50 102//102 51//51 
f 50//50 52//52 102//102 
f 49//49 37//37 55//55 
f 52//52 103//103 37//37 
f 62//62 47//47 71//71 
f 71//71 47//47 32//32 
f 53//53 67//67 69//69 
f 69//69 54//54 53//53 
f 66//66 67//67 53//53 
f 62//62 53//53 47//47 
f 53//53 54//54 46//46 
f 54//54 69//69 74//74 
f 73//73 72//72 32//32 
f 54//54 74//74 48//48 
f 50//50 48//48 74//74 
f 96//96 52//52 50//50 
f 78//78 58//58 60//60 
f 60//60 83//83 78//78 
f 56//56 66//66 57//57 
f 56//56 57//57 58//58 
f 58//58 59//59 56//56 
f 59//59 61//61 68//68 
f 68//68 56//56 59//59 
f 60//60 58//58 57//57 
f 61//61 70//70 68//68 
f 89//89 70//70 61//61 
f 76//76 59//59 58//58 
f 76//76 77//77 59//59 
f 59//59 77//77 61//61 
f 61//61 77//77 89//89 
f 63//63 62//62 71//71 
f 63//63 57//57 62//62 
f 60//60 57//57 63//63 
f 63//63 64//64 83//83 
f 60//60 63//63 83//83 
f 63//63 72//72 64//64 
f 65//65 72//72 73//73 
f 83//83 64//64 84//84 
f 72//72 65//65 64//64 
f 65//65 84//84 64//64 
f 62//62 66//66 53//53 
f 62//62 57//57 66//66 
f 66//66 56//56 67//67 
f 67//67 68//68 69//69 
f 56//56 68//68 67//67 
f 68//68 70//70 69//69 
f 74//74 69//69 70//70 
f 75//75 74//74 70//70 
f 70//70 90//90 75//75 
f 89//89 90//90 70//70 
f 90//90 91//91 75//75 
f 72//72 71//71 32//32 
f 72//72 63//63 71//71 
f 32//32 49//49 73//73 
f 93//93 73//73 49//49 
f 93//93 65//65 73//73 
f 91//91 96//96 75//75 
f 96//96 50//50 75//75 
f 75//75 50//50 74//74 
f 78//78 83//83 85//85 
f 78//78 76//76 58//58 
f 76//76 79//79 77//77 
f 79//79 80//80 77//77 
f 89//89 77//77 80//80 
f 78//78 79//79 76//76 
f 78//78 81//81 79//79 
f 85//85 81//81 78//78 
f 79//79 82//82 80//80 
f 82//82 92//92 80//80 
f 81//81 82//82 79//79 
f 81//81 85//85 86//86 
f 80//80 92//92 89//89 
f 84//84 65//65 93//93 
f 83//83 84//84 85//85 
f 85//85 84//84 86//86 
f 86//86 84//84 93//93 
f 94//94 86//86 93//93 
f 81//81 86//86 88//88 
f 81//81 88//88 82//82 
f 88//88 87//87 82//82 
f 82//82 87//87 92//92 
f 95//95 87//87 88//88 
f 92//92 87//87 91//91 
f 87//87 95//95 91//91 
f 91//91 95//95 96//96 
f 94//94 103//103 95//95 
f 94//94 88//88 86//86 
f 94//94 95//95 88//88 
f 92//92 90//90 89//89 
f 92//92 91//91 90//90 
f 93//93 49//49 94//94 
f 49//49 55//55 94//94 
f 95//95 52//52 96//96 
f 103//103 52//52 95//95 
