#
# The license for this database is specified in the Creative Commons Attribution-Share Alike 2.1 Japan. If you use data from this database, please be sure attribute this database as follows: "BodyParts3D, (c)  The Database Center for Life Science licensed under CC Attribution-Share Alike 2.1 Japan".
# http://dbarchive.biosciencedbc.jp/en/bodyparts3d/lic.html
#
#
# Compatibility version : 4.0
# File ID : FJ2947
# Representation ID : BP9647
# Build-up logic : FMA 3.0 part_of
# Concept ID : FMA9437
# English name : Left apical segmental vein
# Bounds(mm): (27.119300,-98.302200,1321.430100)-(39.421800,-94.212500,1343.060100)
# Volume(cm3): 0.097500
#
v 27.3056 -98.016 1342.07
v 27.1943 -97.8451 1342.52
v 27.1193 -97.7303 1342.17
v 27.5485 -97.7352 1341.01
v 27.8471 -98.1364 1341.12
v 27.6116 -98.2285 1342.19
v 27.5212 -98.0772 1342.65
v 27.1309 -97.535 1342.62
v 27.4202 -97.6228 1342.98
v 27.3754 -97.3608 1342.96
v 27.1328 -97.3011 1342
v 27.539 -97.208 1340.95
v 27.4033 -96.8589 1341.87
v 27.3544 -97.0084 1342.61
v 28.1689 -98.3022 1341.48
v 27.8266 -98.2177 1342.49
v 28.0339 -98.0717 1342.7
v 28.6947 -98.235 1341.45
v 28.7379 -97.8996 1342.05
v 29.1033 -97.2031 1341.72
v 27.7354 -97.9475 1342.9
v 27.5965 -97.3137 1343.05
v 27.5725 -97.0968 1342.93
v 27.8684 -97.5198 1343.06
v 27.8327 -97.0763 1342.91
v 28.1662 -97.7532 1342.88
v 28.3879 -97.3335 1342.74
v 27.6175 -96.7046 1342.08
v 27.896 -96.6828 1340.94
v 28.5171 -96.7406 1341.96
v 28.4959 -96.5035 1341.25
v 27.8113 -96.7543 1342.47
v 31.8403 -97.1563 1332.14
v 32.0916 -97.6074 1332.21
v 32.2186 -98.0106 1333.07
v 31.2033 -96.5247 1333.56
v 31.5726 -95.8538 1334.37
v 31.9339 -95.9488 1335.33
v 32.8545 -97.8262 1334.47
v 34.1806 -97.7078 1329.28
v 32.7872 -98.0939 1333.19
v 33.3693 -97.9385 1333.02
v 33.6227 -97.1647 1333.84
v 32.8741 -96.4366 1334.97
v 35.3321 -97.6964 1328.63
v 35.7407 -97.0719 1329.83
v 35.7198 -95.506 1329.75
v 36.0752 -96.1223 1329.69
v 36.4295 -96.3623 1323.29
v 36.6287 -96.798 1323.57
v 36.9955 -95.578 1322.13
v 36.316 -95.4357 1323.34
v 37.4833 -96.5491 1322.15
v 37.6923 -96.8873 1322.62
v 37.8251 -97.1498 1323.48
v 37.9998 -96.3875 1321.71
v 38.2747 -96.8441 1322.35
v 38.2866 -96.5565 1321.87
v 38.4987 -96.9473 1322.93
v 38.7368 -96.5914 1322.2
v 38.7158 -96.2651 1321.75
v 39.2 -96.3062 1322.79
v 38.223 -97.0509 1323.85
v 38.7526 -96.7026 1323.62
v 37.4805 -96.1385 1321.81
v 37.6387 -95.4535 1321.57
v 37.4511 -94.6954 1322.11
v 37.9661 -95.7492 1321.43
v 38.268 -96.1696 1321.53
v 38.2518 -94.9232 1321.54
v 38.6518 -95.6436 1321.45
v 38.3948 -94.4799 1321.93
v 38.7483 -94.9621 1321.63
v 39.1262 -95.9082 1321.92
v 39.0689 -95.4396 1321.72
v 38.9562 -94.8313 1321.89
v 38.8438 -94.4951 1322.26
v 36.7113 -94.5374 1323.86
v 37.7581 -94.2259 1322.78
v 38.2651 -94.2125 1322.84
v 38.3425 -94.3759 1323.67
v 38.6617 -94.9976 1324.46
v 38.9365 -94.5186 1322.83
v 37.0706 -94.3603 1325.04
v 39.4218 -95.7935 1322.63
v 39.0664 -95.9356 1323.93
v 39.3204 -95.2635 1322.13
v 39.1238 -94.7035 1322.37
v 39.3325 -95.0115 1322.83
v 29.1033 -97.2031 1341.72
vn -0.712749 -0.695324 -0.0922701
vn -0.802299 -0.519947 0.293208
vn -0.956392 -0.271646 -0.107346
vn -0.854625 -0.355947 -0.378046
vn -0.521822 -0.813506 -0.256729
vn -0.366584 -0.930017 0.0261418
vn -0.469278 -0.784858 0.404691
vn -0.942181 0.0225213 0.334347
vn -0.499367 -0.309192 0.809341
vn -0.6472 0.261799 0.715956
vn -0.966096 0.216623 -0.140477
vn -0.890626 0.251079 -0.379137
vn -0.75602 0.64423 -0.115763
vn -0.694758 0.647409 0.313325
vn -0.0879586 -0.995678 -0.0298005
vn 0.00629067 -0.949328 0.314225
vn 0.377959 -0.75825 0.531229
vn 0.371818 -0.900025 0.227389
vn 0.742993 -0.459288 0.486843
vn 0.85183 -0.0863339 0.516654
vn -0.0221198 -0.632228 0.774467
vn -0.159135 0.232797 0.959417
vn -0.295267 0.64727 0.702752
vn 0.199175 -0.0362548 0.979293
vn 0.253903 0.588223 0.767807
vn 0.519711 -0.367853 0.771093
vn 0.667038 0.208595 0.715226
vn -0.390943 0.916291 0.0870275
vn -0.573391 0.795314 -0.196718
vn 0.478374 0.756236 0.446391
vn -0.00944679 0.99107 0.133007
vn -0.043732 0.909347 0.413734
vn -0.876863 -0.167001 -0.450801
vn -0.645473 -0.664911 -0.375843
vn -0.314579 -0.926107 -0.208246
vn -0.815624 0.452382 -0.360705
vn -0.354428 0.93259 -0.0682447
vn 0.30065 0.911659 0.280155
vn 0.66839 -0.662725 0.337713
vn -0.267484 -0.935039 -0.232712
vn 0.0683084 -0.997506 -0.0177437
vn 0.460881 -0.866978 0.189573
vn 0.852914 -0.218578 0.474091
vn 0.741149 0.469049 0.480303
vn 0.265572 -0.962961 0.04667
vn 0.735678 -0.586023 0.339638
vn 0.581256 0.699659 0.415474
vn 0.866893 0.0869448 0.490853
vn -0.77381 -0.385817 -0.502358
vn -0.531807 -0.749406 -0.394426
vn -0.777265 0.0404972 -0.627868
vn -0.861612 0.240613 -0.446912
vn -0.481635 -0.681399 -0.55111
vn -0.234393 -0.885691 -0.400764
vn 0.039774 -0.987219 -0.154328
vn -0.239289 -0.638395 -0.731568
vn 0.114116 -0.921462 -0.371329
vn 0.0877028 -0.782703 -0.616186
vn 0.459547 -0.881917 -0.105069
vn 0.53798 -0.747068 -0.390471
vn 0.452414 -0.55115 -0.70111
vn 0.819445 -0.571093 -0.0486075
vn 0.457109 -0.882592 0.109918
vn 0.721753 -0.6642 0.194707
vn -0.574423 -0.353219 -0.738428
vn -0.515184 0.141612 -0.8453
vn -0.5606 0.60593 -0.564426
vn -0.225099 -0.147511 -0.963105
vn 0.0742583 -0.47142 -0.878777
vn -0.0944378 0.409267 -0.907514
vn 0.340534 -0.0914647 -0.935773
vn 0.0982642 0.830108 -0.548876
vn 0.396064 0.419059 -0.817021
vn 0.783841 -0.358848 -0.506776
vn 0.700694 0.092574 -0.707431
vn 0.626798 0.541257 -0.560505
vn 0.478129 0.83669 -0.2671
vn -0.593648 0.770371 -0.232619
vn -0.244757 0.94484 -0.21765
vn 0.208811 0.977338 -0.0347766
vn 0.431916 0.861169 0.268024
vn 0.779027 0.48289 0.399919
vn 0.614127 0.779368 0.124235
vn 0.0249364 0.990705 0.133726
vn 0.985357 -0.16428 -0.0456371
vn 0.920405 -0.171655 0.351269
vn 0.916464 0.177584 -0.35855
vn 0.774096 0.601277 -0.198095
vn 0.928804 0.343763 0.138385
vn 0.657874 0.577238 0.483733
g grp1
usemtl mtl1
f 1//1 7//7 2//2 
f 7//7 9//9 2//2 
f 1//1 2//2 3//3 
f 2//2 8//8 3//3 
f 4//4 1//1 3//3 
f 3//3 11//11 4//4 
f 3//3 8//8 11//11 
f 8//8 14//14 11//11 
f 5//5 6//6 1//1 
f 1//1 6//6 7//7 
f 5//5 1//1 4//4 
f 5//5 15//15 6//6 
f 6//6 15//15 16//16 
f 6//6 16//16 7//7 
f 16//16 21//21 7//7 
f 7//7 21//21 9//9 
f 9//9 10//10 8//8 
f 2//2 9//9 8//8 
f 14//14 8//8 10//10 
f 9//9 21//21 24//24 
f 24//24 22//22 9//9 
f 22//22 10//10 9//9 
f 22//22 23//23 10//10 
f 14//14 10//10 23//23 
f 4//4 11//11 12//12 
f 12//12 11//11 13//13 
f 29//29 12//12 13//13 
f 4//4 12//12 33//33 
f 14//14 13//13 11//11 
f 33//33 12//12 36//36 
f 29//29 36//36 12//12 
f 13//13 14//14 28//28 
f 14//14 32//32 28//28 
f 13//13 28//28 29//29 
f 15//15 18//18 16//16 
f 18//18 17//17 16//16 
f 16//16 17//17 21//21 
f 17//17 26//26 21//21 
f 18//18 19//19 17//17 
f 19//19 26//26 17//17 
f 18//18 15//15 41//41 
f 39//39 19//19 18//18 
f 26//26 19//19 27//27 
f 27//27 19//19 20//20 
f 90//90 30//30 27//27 
f 19//19 39//39 43//43 
f 20//20 19//19 43//43 
f 21//21 26//26 24//24 
f 24//24 25//25 22//22 
f 25//25 23//23 22//22 
f 25//25 32//32 23//23 
f 32//32 14//14 23//23 
f 30//30 32//32 25//25 
f 24//24 27//27 25//25 
f 27//27 30//30 25//25 
f 26//26 27//27 24//24 
f 37//37 29//29 31//31 
f 28//28 32//32 31//31 
f 28//28 31//31 29//29 
f 30//30 31//31 32//32 
f 37//37 36//36 29//29 
f 42//42 18//18 41//41 
f 44//44 38//38 30//30 
f 31//31 30//30 38//38 
f 90//90 44//44 30//30 
f 5//5 4//4 34//34 
f 34//34 4//4 33//33 
f 34//34 35//35 5//5 
f 34//34 33//33 49//49 
f 35//35 41//41 15//15 
f 5//5 35//35 15//15 
f 34//34 40//40 35//35 
f 38//38 37//37 31//31 
f 42//42 39//39 18//18 
f 40//40 45//45 41//41 
f 45//45 42//42 41//41 
f 42//42 45//45 46//46 
f 35//35 40//40 41//41 
f 46//46 39//39 42//42 
f 43//43 39//39 46//46 
f 44//44 20//20 43//43 
f 43//43 46//46 48//48 
f 43//43 48//48 44//44 
f 48//48 47//47 44//44 
f 49//49 53//53 50//50 
f 53//53 49//49 65//65 
f 52//52 49//49 33//33 
f 33//33 36//36 52//52 
f 49//49 50//50 34//34 
f 40//40 34//34 50//50 
f 36//36 37//37 78//78 
f 78//78 37//37 84//84 
f 37//37 38//38 84//84 
f 47//47 38//38 44//44 
f 51//51 65//65 49//49 
f 51//51 49//49 52//52 
f 66//66 65//65 51//51 
f 67//67 66//66 51//51 
f 52//52 36//36 78//78 
f 47//47 84//84 38//38 
f 78//78 84//84 79//79 
f 40//40 50//50 54//54 
f 50//50 53//53 54//54 
f 65//65 56//56 53//53 
f 40//40 55//55 45//45 
f 55//55 40//40 54//54 
f 54//54 53//53 56//56 
f 55//55 63//63 45//45 
f 63//63 55//55 59//59 
f 54//54 58//58 57//57 
f 57//57 55//55 54//54 
f 58//58 54//54 56//56 
f 58//58 56//56 69//69 
f 55//55 57//57 59//59 
f 57//57 58//58 60//60 
f 60//60 58//58 61//61 
f 61//61 58//58 69//69 
f 57//57 60//60 59//59 
f 63//63 59//59 64//64 
f 74//74 60//60 61//61 
f 74//74 61//61 71//71 
f 71//71 61//61 69//69 
f 59//59 60//60 62//62 
f 64//64 59//59 62//62 
f 60//60 74//74 62//62 
f 45//45 63//63 46//46 
f 63//63 64//64 46//46 
f 86//86 48//48 46//46 
f 86//86 46//46 64//64 
f 48//48 86//86 82//82 
f 47//47 48//48 82//82 
f 52//52 67//67 51//51 
f 78//78 67//67 52//52 
f 56//56 65//65 68//68 
f 65//65 66//66 68//68 
f 70//70 68//68 66//66 
f 67//67 78//78 79//79 
f 69//69 56//56 68//68 
f 70//70 66//66 67//67 
f 70//70 71//71 68//68 
f 67//67 79//79 72//72 
f 68//68 71//71 69//69 
f 72//72 70//70 67//67 
f 71//71 73//73 75//75 
f 73//73 71//71 70//70 
f 75//75 74//74 71//71 
f 75//75 73//73 76//76 
f 73//73 70//70 72//72 
f 73//73 72//72 76//76 
f 76//76 77//77 88//88 
f 72//72 77//77 76//76 
f 77//77 80//80 83//83 
f 80//80 77//77 72//72 
f 75//75 87//87 74//74 
f 76//76 87//87 75//75 
f 76//76 88//88 87//87 
f 83//83 88//88 77//77 
f 72//72 79//79 80//80 
f 84//84 80//80 79//79 
f 81//81 84//84 47//47 
f 81//81 83//83 80//80 
f 84//84 81//81 80//80 
f 82//82 81//81 47//47 
f 64//64 62//62 86//86 
f 62//62 85//85 86//86 
f 62//62 74//74 85//85 
f 74//74 87//87 85//85 
f 87//87 89//89 85//85 
f 89//89 87//87 88//88 
f 89//89 82//82 86//86 
f 82//82 89//89 83//83 
f 83//83 81//81 82//82 
f 83//83 89//89 88//88 
f 85//85 89//89 86//86 
