#
# The license for this database is specified in the Creative Commons Attribution-Share Alike 2.1 Japan. If you use data from this database, please be sure attribute this database as follows: "BodyParts3D, (c)  The Database Center for Life Science licensed under CC Attribution-Share Alike 2.1 Japan".
# http://dbarchive.biosciencedbc.jp/en/bodyparts3d/lic.html
#
#
# Compatibility version : 4.0
# File ID : FJ2957
# Representation ID : BP9935
# Build-up logic : FMA 3.0 part_of
# Concept ID : FMA8678
# English name : Left anterior basal segmental vein
# Bounds(mm): (101.395000,-133.721000,1164.630000)-(117.973000,-108.002000,1179.570000)
# Volume(cm3): 0.950000
#
v 116.99 -132.128 1166.49
v 117.082 -133.721 1165.78
v 116.66 -133.317 1165.46
v 117.818 -133.388 1165.96
v 117.625 -133.111 1164.63
v 117.973 -132.792 1165.01
v 115.765 -127.935 1167.7
v 115.654 -126.122 1167.68
v 110.986 -120.035 1170.98
v 113.203 -120.656 1170.04
v 110.033 -118.378 1169.89
v 111.312 -118.367 1169.44
v 105.26 -113.724 1175.37
v 109.431 -115.962 1173.61
v 107.82 -116.464 1172.94
v 106.949 -114.137 1172.54
v 110.065 -115.266 1172.22
v 101.802 -110.479 1178.01
v 102 -110.397 1177.18
v 104.652 -111.241 1174.72
v 106.132 -112.329 1173.7
v 103.172 -110.905 1178.71
v 102.409 -110.079 1179.36
v 103.127 -110.22 1179.27
v 102.048 -109.643 1179.33
v 102.571 -109.641 1179.55
v 102.265 -109.229 1179.46
v 101.939 -109.019 1179.2
v 103.199 -109.414 1179.53
v 102.757 -109.205 1179.57
v 102.481 -108.797 1179.39
v 101.619 -109.125 1178.88
v 103.847 -109.805 1179.12
v 101.995 -110.368 1178.76
v 101.489 -109.783 1178.57
v 101.412 -109.658 1177.84
v 101.73 -109.746 1177.24
v 101.395 -109.193 1178.33
v 101.555 -108.755 1178.41
v 101.583 -108.716 1177.9
v 101.747 -108.729 1177.42
v 101.829 -108.69 1178.88
v 101.898 -108.382 1178.48
v 102.031 -108.343 1177.53
v 102.671 -108.893 1176.69
v 102.405 -108.431 1177.12
v 103.025 -108.786 1176.71
v 102.179 -109.215 1176.8
v 102.179 -108.605 1177.08
v 105.235 -110.485 1175.28
v 103.48 -108.995 1179.34
v 103.01 -108.794 1179.41
v 102.384 -108.48 1179.11
v 104.35 -109.548 1178.59
v 102.724 -108.424 1179.16
v 103.172 -108.557 1179.24
v 102.579 -108.238 1178.89
v 103.647 -108.731 1179.1
v 103.319 -108.4 1179.02
v 103.071 -108.284 1178.98
v 102.514 -108.039 1178.39
v 104.014 -108.735 1178.49
v 103.462 -108.218 1178.61
v 103.034 -108.048 1178.51
v 103.753 -108.389 1177.97
v 102.863 -108.002 1177.97
v 103.711 -108.51 1177.34
v 102.106 -108.171 1178.03
v 102.3 -108.177 1177.59
v 103.105 -108.314 1177.23
v 117.082 -133.721 1165.78
v 117.082 -133.721 1165.78
v 117.082 -133.721 1165.78
v 116.66 -133.317 1165.46
v 116.66 -133.317 1165.46
v 117.818 -133.388 1165.96
v 117.625 -133.111 1164.63
v 117.625 -133.111 1164.63
v 117.625 -133.111 1164.63
v 117.973 -132.792 1165.01
v 117.973 -132.792 1165.01
v 115.654 -126.122 1167.68
v 110.986 -120.035 1170.98
v 110.986 -120.035 1170.98
v 113.203 -120.656 1170.04
v 113.203 -120.656 1170.04
v 110.033 -118.378 1169.89
v 111.312 -118.367 1169.44
v 105.26 -113.724 1175.37
v 109.431 -115.962 1173.61
v 107.82 -116.464 1172.94
v 107.82 -116.464 1172.94
v 110.065 -115.266 1172.22
vn 0.202195 -0.263965 0.943101
vn -0.0943107 -0.408844 0.907718
vn -0.314337 -0.769163 -0.5564
vn 0.567133 -0.0916113 0.818515
vn 0.631327 -0.73584 -0.24488
vn 0.783247 -0.57613 -0.233662
vn 0.588711 -0.0445669 0.807114
vn 0.823263 0.108267 0.55724
vn -0.149729 -0.408751 0.90028
vn 0.47342 -0.180368 0.862172
vn -0.853171 -0.481224 -0.201304
vn 0.652381 0.514109 -0.556858
vn -0.477513 -0.803378 0.35576
vn 0.115248 -0.573401 0.811128
vn -0.797683 -0.558054 -0.228641
vn -0.608277 0.0421492 -0.792605
vn 0.774498 0.565531 -0.28342
vn -0.801363 -0.59795 0.0165303
vn -0.810786 -0.444561 -0.380779
vn -0.357729 0.384786 -0.850864
vn -0.0238667 0.60068 -0.799133
vn -0.196925 -0.754168 0.626459
vn -0.270462 -0.525205 0.806852
vn 0.180162 -0.453045 0.873093
vn -0.617618 -0.181759 0.765187
vn -0.123055 -0.183275 0.97533
vn -0.37927 0.136178 0.91521
vn -0.584868 0.31091 0.749176
vn 0.270044 -0.0352505 0.962202
vn -0.0451367 0.176604 0.983247
vn -0.241574 0.449272 0.860114
vn -0.837251 0.157507 0.523644
vn 0.560308 -0.111872 0.820695
vn -0.572721 -0.658896 0.487695
vn -0.893405 -0.290891 0.34236
vn -0.960835 -0.167723 -0.2206
vn -0.835822 -0.0356611 -0.547841
vn -0.982988 0.142239 0.116198
vn -0.852191 0.472858 0.223999
vn -0.867651 0.459313 -0.190296
vn -0.776018 0.361995 -0.516484
vn -0.664773 0.532309 0.524141
vn -0.58518 0.763277 0.273811
vn -0.569174 0.728816 -0.380615
vn -0.268713 0.510615 -0.816741
vn -0.225172 0.734834 -0.639778
vn -0.0308911 0.672714 -0.739257
vn -0.591462 0.225928 -0.774035
vn -0.493582 0.522672 -0.695119
vn 0.271371 0.751632 -0.601171
vn 0.498895 0.250137 0.82978
vn 0.119028 0.406938 0.905668
vn -0.391853 0.656597 0.644462
vn 0.774557 0.232597 0.588184
vn -0.0626611 0.671893 0.737993
vn 0.251101 0.584538 0.771534
vn -0.197053 0.850631 0.48744
vn 0.612381 0.480604 0.627702
vn 0.45719 0.695675 0.554087
vn 0.143869 0.817398 0.55782
vn -0.239891 0.951359 0.193309
vn 0.743199 0.58503 0.324646
vn 0.481621 0.82431 0.297579
vn 0.167639 0.963703 0.207782
vn 0.558407 0.827684 -0.0558621
vn 0.0986189 0.982753 -0.156432
vn 0.462333 0.833825 -0.301636
vn -0.483773 0.872697 -0.0660614
vn -0.238132 0.903898 -0.355333
vn 0.122677 0.849655 -0.512872
vn 0.448653 -0.859704 -0.24417
vn -0.314337 -0.769163 -0.5564
vn -0.773739 -0.494899 0.395479
vn -0.843207 -0.469239 0.26233
vn -0.643622 -0.0592371 -0.763048
vn 0.631327 -0.73584 -0.24488
vn -0.314337 -0.769163 -0.5564
vn -0.497279 0.0529214 -0.865975
vn 0.443416 0.443889 -0.778681
vn 0.934987 0.211114 0.285009
vn 0.501543 0.457156 -0.734481
vn 0.664854 0.498745 -0.556079
vn -0.846033 -0.521876 0.108967
vn 0.146685 -0.42062 0.8953
vn 0.765641 0.541472 -0.347278
vn 0.817608 0.270417 0.508322
vn -0.441405 0.147318 -0.885132
vn -0.134288 0.445102 -0.885354
vn -0.796073 -0.505999 -0.332014
vn 0.795173 0.188231 0.576428
vn -0.521573 -0.784458 0.335539
vn -0.101427 -0.662151 0.742475
vn 0.74165 0.668532 -0.0549603
g grp1
usemtl mtl1
f 2//2 4//4 1//1 
f 9//9 2//2 1//1 
f 4//4 7//7 1//1 
f 5//5 76//76 71//71 
f 72//72 3//3 77//77 
f 73//73 83//83 74//74 
f 5//5 6//6 76//76 
f 80//80 8//8 4//4 
f 83//83 11//11 74//74 
f 78//78 75//75 87//87 
f 82//82 81//81 12//12 
f 4//4 8//8 7//7 
f 1//1 10//10 84//84 
f 1//1 7//7 10//10 
f 12//12 81//81 79//79 
f 14//14 84//84 10//10 
f 82//82 12//12 85//85 
f 7//7 8//8 10//10 
f 83//83 15//15 11//11 
f 12//12 17//17 85//85 
f 87//87 88//88 78//78 
f 16//16 88//88 87//87 
f 91//91 22//22 13//13 
f 14//14 92//92 84//84 
f 92//92 14//14 22//22 
f 89//89 11//11 15//15 
f 89//89 16//16 11//11 
f 86//86 93//93 90//90 
f 16//16 21//21 88//88 
f 22//22 34//34 13//13 
f 18//18 19//19 89//89 
f 13//13 34//34 18//18 
f 34//34 35//35 18//18 
f 36//36 19//19 18//18 
f 22//22 14//14 24//24 
f 19//19 16//16 89//89 
f 16//16 19//19 37//37 
f 45//45 21//21 20//20 
f 93//93 88//88 21//21 
f 21//21 16//16 20//20 
f 93//93 21//21 50//50 
f 93//93 50//50 67//67 
f 24//24 33//33 29//29 
f 22//22 23//23 34//34 
f 26//26 25//25 23//23 
f 23//23 25//25 34//34 
f 24//24 23//23 22//22 
f 29//29 26//26 24//24 
f 24//24 26//26 23//23 
f 26//26 27//27 25//25 
f 25//25 27//27 28//28 
f 32//32 25//25 28//28 
f 29//29 30//30 26//26 
f 30//30 27//27 26//26 
f 30//30 31//31 27//27 
f 31//31 28//28 27//27 
f 42//42 32//32 28//28 
f 33//33 51//51 29//29 
f 31//31 53//53 28//28 
f 28//28 53//53 42//42 
f 42//42 53//53 43//43 
f 31//31 30//30 52//52 
f 29//29 52//52 30//30 
f 29//29 51//51 52//52 
f 52//52 55//55 31//31 
f 31//31 55//55 53//53 
f 90//90 54//54 33//33 
f 33//33 24//24 14//14 
f 33//33 54//54 51//51 
f 54//54 93//93 62//62 
f 25//25 35//35 34//34 
f 36//36 18//18 35//35 
f 19//19 36//36 37//37 
f 32//32 35//35 25//25 
f 36//36 35//35 38//38 
f 38//38 40//40 36//36 
f 38//38 35//35 32//32 
f 40//40 37//37 36//36 
f 39//39 38//38 32//32 
f 39//39 40//40 38//38 
f 41//41 37//37 40//40 
f 37//37 41//41 48//48 
f 32//32 42//42 39//39 
f 49//49 48//48 41//41 
f 39//39 42//42 43//43 
f 44//44 41//41 40//40 
f 44//44 49//49 41//41 
f 44//44 46//46 49//49 
f 43//43 68//68 40//40 
f 39//39 43//43 40//40 
f 68//68 69//69 44//44 
f 40//40 68//68 44//44 
f 69//69 46//46 44//44 
f 62//62 93//93 65//65 
f 16//16 48//48 20//20 
f 37//37 48//48 16//16 
f 45//45 20//20 48//48 
f 45//45 47//47 21//21 
f 49//49 45//45 48//48 
f 47//47 50//50 21//21 
f 46//46 45//45 49//49 
f 45//45 46//46 47//47 
f 54//54 90//90 93//93 
f 65//65 93//93 67//67 
f 55//55 52//52 56//56 
f 54//54 58//58 51//51 
f 51//51 56//56 52//52 
f 56//56 60//60 55//55 
f 55//55 57//57 53//53 
f 60//60 57//57 55//55 
f 57//57 43//43 53//53 
f 54//54 62//62 58//58 
f 69//69 70//70 46//46 
f 56//56 51//51 58//58 
f 59//59 56//56 58//58 
f 60//60 56//56 59//59 
f 58//58 62//62 59//59 
f 60//60 64//64 57//57 
f 61//61 57//57 64//64 
f 61//61 43//43 57//57 
f 66//66 61//61 64//64 
f 61//61 66//66 68//68 
f 43//43 61//61 68//68 
f 68//68 66//66 69//69 
f 70//70 69//69 66//66 
f 59//59 62//62 63//63 
f 59//59 63//63 60//60 
f 60//60 63//63 64//64 
f 63//63 65//65 64//64 
f 64//64 65//65 66//66 
f 63//63 62//62 65//65 
f 65//65 67//67 66//66 
f 66//66 67//67 70//70 
f 70//70 50//50 47//47 
f 70//70 47//47 46//46 
f 70//70 67//67 50//50 
