#
# The license for this database is specified in the Creative Commons Attribution-Share Alike 2.1 Japan. If you use data from this database, please be sure attribute this database as follows: "BodyParts3D, (c)  The Database Center for Life Science licensed under CC Attribution-Share Alike 2.1 Japan".
# http://dbarchive.biosciencedbc.jp/en/bodyparts3d/lic.html
#
#
# Compatibility version : 4.0
# File ID : FJ2964
# Representation ID : BP9647
# Build-up logic : FMA 3.0 part_of
# Concept ID : FMA9437
# English name : Left apical segmental vein
# Bounds(mm): (52.919700,-97.844000,1322.680100)-(59.312900,-95.605900,1331.470000)
# Volume(cm3): 0.014500
#
v 57.0752 -96.0706 1324.57
v 56.3731 -95.924 1326.01
v 57.3541 -95.6059 1325.32
v 57.7158 -96.5292 1323.19
v 58.2386 -95.9179 1323.08
v 57.9718 -96.1452 1323.05
v 58.4363 -95.7829 1323.29
v 57.5242 -95.8409 1324.16
v 57.6029 -97.1457 1324.03
v 58.7317 -95.7699 1323.66
v 58.1728 -97.3669 1324.1
v 58.5849 -95.8228 1324.44
v 58.2131 -96.5329 1322.73
v 58.3821 -96.3074 1322.73
v 58.4029 -96.854 1322.73
v 58.0963 -96.9519 1322.88
v 57.8509 -97.043 1323.24
v 58.5909 -96.6626 1322.68
v 58.1367 -97.2431 1323.15
v 58.7503 -96.0471 1322.93
v 58.863 -96.4829 1322.77
v 58.7886 -96.9466 1322.82
v 58.5192 -97.2821 1323.06
v 58.0946 -97.3429 1323.51
v 58.4514 -97.4178 1323.47
v 58.9588 -95.8835 1323.35
v 59.0882 -96.0412 1323.23
v 59.1698 -96.3064 1323.12
v 59.1915 -96.7687 1323.09
v 59.0154 -97.1731 1323.21
v 58.8568 -97.3333 1323.38
v 59.081 -95.9664 1323.59
v 59.2202 -96.1351 1323.42
v 59.3129 -96.4694 1323.39
v 59.2661 -96.8872 1323.58
v 59.1244 -97.1416 1323.46
v 58.7567 -97.324 1323.84
v 59.1546 -96.2597 1323.95
v 59.2098 -96.7832 1323.93
v 58.9559 -96.913 1324.28
v 59.0861 -97.0451 1323.88
v 55.6853 -95.9068 1327.4
v 54.7418 -96.4331 1328.33
v 56.2519 -96.2678 1325.92
v 56.4726 -96.5845 1325.58
v 56.0489 -96.6049 1326.29
v 56.8647 -97.0936 1325.74
v 55.9466 -96.9298 1326.72
v 54.535 -96.8598 1328.53
v 54.7841 -96.9447 1328.22
v 54.4988 -97.0942 1328.7
v 56.2238 -95.7197 1327.16
v 57.5307 -95.6344 1325.84
v 58.1597 -95.9156 1325.51
v 58.0637 -96.6128 1325.9
v 55.0969 -96.1213 1328.94
v 55.305 -96.6021 1329.51
v 56.2984 -95.8561 1327.74
v 55.8772 -96.7111 1328.93
v 56.3736 -97.1906 1326.89
v 57.4748 -97.0989 1326.11
v 57.2136 -96.184 1327.12
v 53.0635 -97.25 1330.63
v 53.0162 -97.4866 1330.77
v 53.1578 -96.994 1330.86
v 52.9197 -97.3729 1331.06
v 53.0419 -97.6481 1330.93
v 52.9652 -97.3102 1331.35
v 53.7238 -96.8595 1330.91
v 53.2741 -97.1436 1331.39
v 53.7424 -97.2915 1331.29
v 53.7018 -97.012 1329.65
v 53.8371 -97.3196 1329.59
v 53.4305 -97.3542 1330.08
v 53.5831 -96.7756 1330.06
v 53.8379 -96.5833 1330.16
v 53.3979 -97.7374 1330.53
v 54.5729 -97.5887 1329.73
v 53.7551 -97.815 1330.52
v 55.0215 -97.338 1329.74
v 54.0979 -97.7448 1330.51
v 54.1466 -97.4592 1330.93
v 53.7745 -97.6218 1331.25
v 54.8306 -97.4081 1328.8
v 55.3671 -97.3923 1328.9
v 53.0026 -97.6747 1331.3
v 53.1719 -97.6141 1331.47
v 53.3125 -97.844 1330.96
v 53.4875 -97.8412 1331.13
v 53.1578 -96.994 1330.86
v 52.9652 -97.3102 1331.35
v 52.9652 -97.3102 1331.35
v 52.9652 -97.3102 1331.35
v 52.9652 -97.3102 1331.35
v 53.2741 -97.1436 1331.39
v 53.2741 -97.1436 1331.39
v 54.5729 -97.5887 1329.73
v 54.1466 -97.4592 1330.93
v 53.7745 -97.6218 1331.25
v 53.0026 -97.6747 1331.3
v 53.0026 -97.6747 1331.3
v 53.0026 -97.6747 1331.3
v 53.1719 -97.6141 1331.47
v 53.1719 -97.6141 1331.47
vn -0.773494 0.444396 -0.451905
vn -0.665407 0.651178 -0.364968
vn -0.206823 0.969626 -0.130574
vn -0.815786 0.00920305 -0.578281
vn -0.265327 0.766746 -0.584553
vn -0.619886 0.470642 -0.627883
vn -0.0147807 0.950745 -0.309622
vn -0.509355 0.789767 -0.341798
vn -0.574306 -0.789236 -0.217438
vn 0.293377 0.95592 0.0121401
vn -0.12076 -0.991323 0.0519175
vn 0.581016 0.773787 0.252338
vn -0.427126 0.0396203 -0.903324
vn -0.10452 0.396066 -0.912254
vn -0.101042 -0.399781 -0.911024
vn -0.495791 -0.435427 -0.751396
vn -0.73569 -0.50754 -0.448513
vn 0.0983912 -0.0657301 -0.992975
vn -0.420799 -0.802997 -0.422047
vn 0.305721 0.656135 -0.689944
vn 0.475971 0.13289 -0.869363
vn 0.376608 -0.434535 -0.818136
vn 0.044257 -0.800943 -0.597103
vn -0.357478 -0.923066 -0.141981
vn -0.0206376 -0.991939 -0.125026
vn 0.48105 0.844214 -0.236418
vn 0.665879 0.600751 -0.442384
vn 0.78108 0.290891 -0.552536
vn 0.83828 -0.230923 -0.493925
vn 0.573367 -0.678993 -0.458496
vn 0.383114 -0.911315 -0.150759
vn 0.681561 0.719902 0.131208
vn 0.866225 0.490368 -0.0958779
vn 0.994645 0.0811626 -0.0639811
vn 0.940008 -0.338039 0.0459956
vn 0.754461 -0.656005 -0.0211287
vn 0.384235 -0.901672 0.198372
vn 0.881065 0.327621 0.341157
vn 0.915055 -0.179394 0.361238
vn 0.732499 -0.504087 0.457538
vn 0.720167 -0.611381 0.327983
vn -0.50538 0.842741 -0.185415
vn -0.789857 0.40292 -0.462364
vn -0.852567 0.0910074 -0.514633
vn -0.803245 -0.400785 -0.440645
vn -0.801945 -0.27011 -0.532846
vn -0.382821 -0.902578 -0.19698
vn -0.595309 -0.667796 -0.446828
vn -0.799394 -0.137074 -0.584962
vn -0.717837 -0.428741 -0.548535
vn -0.634811 -0.523725 -0.568091
vn -0.118033 0.990894 0.0647785
vn 0.330814 0.914607 0.2325
vn 0.734291 0.517325 0.439534
vn 0.82574 -0.193451 0.529839
vn 0.00196425 0.956952 0.29024
vn 0.578829 0.510062 0.636234
vn 0.348081 0.840523 0.415163
vn 0.785595 -0.0535436 0.61642
vn -0.193855 -0.957747 -0.212466
vn 0.335045 -0.917807 0.213015
vn 0.708072 0.433634 0.557312
vn -0.892601 0.213593 -0.397041
vn -0.847026 -0.329131 -0.417396
vn -0.789223 0.600374 -0.129143
vn -0.993807 0.0379305 -0.104444
vn -0.760046 -0.60033 -0.248867
vn -0.480526 0.810404 0.335171
vn 0.117717 0.854447 0.506027
vn -0.366142 0.871144 0.327182
vn 0.493054 0.247321 0.834104
vn -0.823559 0.0753496 -0.562203
vn -0.650824 -0.472604 -0.5942
vn -0.762627 -0.307122 -0.569277
vn -0.729078 0.613063 -0.3043
vn -0.363762 0.927992 0.0806648
vn -0.498101 -0.748084 -0.438481
vn 0.476197 -0.85986 0.184058
vn 0.00307689 -0.98925 -0.146203
vn 0.626152 -0.687596 0.367623
vn 0.397264 -0.905248 0.150691
vn 0.696743 0.10082 0.7102
vn 0.51171 -0.0674185 0.856509
vn -0.225476 -0.915344 -0.333626
vn 0.260866 -0.963457 0.0608178
vn -0.96948 -0.243428 0.0291807
vn -0.667772 -0.167858 0.725193
vn -0.317747 -0.943211 -0.0968986
vn 0.105849 -0.943603 0.313703
vn -0.326346 0.889897 0.31872
vn -0.842733 0.538092 0.0160749
vn -0.975428 -0.12495 0.181458
vn -0.667772 -0.167858 0.725193
vn -0.237553 0.21267 0.947808
vn 0.345869 0.627607 0.697484
vn 0.000984759 0.16733 0.985901
vn 0.0344443 -0.982524 -0.182923
vn 0.682974 -0.581848 0.441587
vn 0.460702 -0.744414 0.483323
vn -0.572619 -0.811076 -0.119424
vn -0.667772 -0.167858 0.725193
vn -0.184274 -0.914525 0.360121
vn 0.121017 0.0801495 0.989409
vn 0.0539739 -0.810397 0.58339
g grp1
usemtl mtl1
f 3//3 2//2 42//42 
f 42//42 52//52 3//3 
f 3//3 52//52 53//53 
f 8//8 1//1 2//2 
f 3//3 8//8 2//2 
f 43//43 2//2 44//44 
f 2//2 1//1 44//44 
f 1//1 4//4 44//44 
f 3//3 53//53 10//10 
f 10//10 53//53 12//12 
f 6//6 14//14 13//13 
f 6//6 13//13 4//4 
f 13//13 16//16 4//4 
f 17//17 4//4 16//16 
f 8//8 5//5 6//6 
f 14//14 6//6 5//5 
f 1//1 8//8 6//6 
f 1//1 6//6 4//4 
f 4//4 17//17 45//45 
f 45//45 17//17 9//9 
f 9//9 17//17 19//19 
f 5//5 8//8 7//7 
f 24//24 9//9 19//19 
f 10//10 26//26 7//7 
f 7//7 8//8 3//3 
f 10//10 7//7 3//3 
f 10//10 32//32 26//26 
f 10//10 12//12 32//32 
f 12//12 38//38 32//32 
f 13//13 15//15 16//16 
f 20//20 14//14 5//5 
f 14//14 18//18 13//13 
f 15//15 13//13 18//18 
f 18//18 22//22 15//15 
f 15//15 23//23 16//16 
f 15//15 22//22 23//23 
f 16//16 19//19 17//17 
f 23//23 19//19 16//16 
f 20//20 5//5 7//7 
f 20//20 21//21 14//14 
f 14//14 21//21 18//18 
f 21//21 22//22 18//18 
f 19//19 25//25 24//24 
f 19//19 23//23 25//25 
f 26//26 20//20 7//7 
f 28//28 21//21 20//20 
f 28//28 29//29 21//21 
f 21//21 29//29 22//22 
f 29//29 30//30 22//22 
f 30//30 23//23 22//22 
f 24//24 25//25 11//11 
f 26//26 27//27 20//20 
f 28//28 20//20 27//27 
f 31//31 23//23 30//30 
f 31//31 25//25 23//23 
f 37//37 11//11 25//25 
f 31//31 37//37 25//25 
f 32//32 33//33 26//26 
f 26//26 33//33 27//27 
f 33//33 28//28 27//27 
f 28//28 33//33 34//34 
f 28//28 34//34 29//29 
f 29//29 36//36 30//30 
f 36//36 31//31 30//30 
f 36//36 37//37 31//31 
f 33//33 32//32 38//38 
f 34//34 33//33 38//38 
f 35//35 34//34 39//39 
f 34//34 35//35 29//29 
f 35//35 41//41 36//36 
f 29//29 35//35 36//36 
f 41//41 37//37 36//36 
f 39//39 34//34 38//38 
f 39//39 40//40 41//41 
f 35//35 39//39 41//41 
f 75//75 42//42 43//43 
f 43//43 44//44 49//49 
f 43//43 42//42 2//2 
f 44//44 46//46 50//50 
f 50//50 46//46 48//48 
f 48//48 84//84 50//50 
f 84//84 48//48 60//60 
f 50//50 49//49 44//44 
f 45//45 44//44 4//4 
f 44//44 45//45 46//46 
f 45//45 48//48 46//46 
f 45//45 47//47 48//48 
f 47//47 45//45 9//9 
f 47//47 60//60 48//48 
f 60//60 47//47 61//61 
f 9//9 11//11 47//47 
f 9//9 24//24 11//11 
f 11//11 37//37 61//61 
f 61//61 47//47 11//11 
f 75//75 43//43 72//72 
f 43//43 49//49 72//72 
f 51//51 73//73 49//49 
f 49//49 50//50 51//51 
f 51//51 50//50 84//84 
f 52//52 58//58 53//53 
f 62//62 54//54 53//53 
f 12//12 53//53 54//54 
f 53//53 58//58 62//62 
f 54//54 55//55 38//38 
f 62//62 55//55 54//54 
f 38//38 12//12 54//54 
f 39//39 55//55 40//40 
f 55//55 61//61 40//40 
f 40//40 61//61 41//41 
f 39//39 38//38 55//55 
f 42//42 76//76 56//56 
f 76//76 42//42 75//75 
f 56//56 76//76 69//69 
f 59//59 57//57 82//82 
f 61//61 84//84 60//60 
f 52//52 56//56 58//58 
f 52//52 42//42 56//56 
f 85//85 84//84 61//61 
f 56//56 57//57 58//58 
f 58//58 57//57 62//62 
f 56//56 69//69 57//57 
f 62//62 57//57 59//59 
f 59//59 80//80 55//55 
f 55//55 80//80 61//61 
f 59//59 98//98 80//80 
f 85//85 61//61 80//80 
f 59//59 55//55 62//62 
f 41//41 61//61 37//37 
f 76//76 75//75 65//65 
f 65//65 75//75 63//63 
f 65//65 63//63 66//66 
f 63//63 64//64 66//66 
f 74//74 64//64 63//63 
f 66//66 64//64 67//67 
f 86//86 66//66 67//67 
f 64//64 74//74 77//77 
f 67//67 64//64 77//77 
f 69//69 76//76 90//90 
f 69//69 90//90 70//70 
f 70//70 90//90 68//68 
f 91//91 65//65 66//66 
f 66//66 86//86 92//92 
f 88//88 100//100 67//67 
f 77//77 88//88 67//67 
f 87//87 93//93 101//101 
f 69//69 71//71 57//57 
f 95//95 71//71 69//69 
f 94//94 103//103 96//96 
f 96//96 103//103 71//71 
f 103//103 83//83 71//71 
f 49//49 73//73 72//72 
f 73//73 74//74 72//72 
f 75//75 72//72 63//63 
f 72//72 74//74 63//63 
f 74//74 73//73 77//77 
f 77//77 73//73 84//84 
f 77//77 84//84 79//79 
f 77//77 79//79 88//88 
f 85//85 80//80 78//78 
f 80//80 81//81 78//78 
f 97//97 81//81 84//84 
f 81//81 79//79 84//84 
f 89//89 88//88 79//79 
f 81//81 89//89 79//79 
f 57//57 71//71 82//82 
f 81//81 80//80 98//98 
f 71//71 83//83 82//82 
f 98//98 99//99 81//81 
f 81//81 99//99 89//89 
f 84//84 73//73 51//51 
f 97//97 84//84 85//85 
f 104//104 102//102 89//89 
f 102//102 88//88 89//89 
f 89//89 99//99 104//104 
