#
# The license for this database is specified in the Creative Commons Attribution-Share Alike 2.1 Japan. If you use data from this database, please be sure attribute this database as follows: "BodyParts3D, (c)  The Database Center for Life Science licensed under CC Attribution-Share Alike 2.1 Japan".
# http://dbarchive.biosciencedbc.jp/en/bodyparts3d/lic.html
#
#
# Compatibility version : 4.0
# File ID : FJ2965
# Representation ID : BP9574
# Build-up logic : FMA 3.0 part_of
# Concept ID : FMA9438
# English name : Left posterior segmental vein
# Bounds(mm): (70.289600,-92.506100,1294.670000)-(77.373200,-79.433200,1303.330000)
# Volume(cm3): 0.028200
#
v 70.4317 -92.1281 1295.37
v 70.7888 -92.1415 1294.97
v 70.5942 -91.5213 1294.94
v 70.7947 -92.4446 1295.37
v 70.5628 -92.1972 1296.14
v 71.2828 -92.447 1295.17
v 71.3623 -92.5061 1295.68
v 70.2896 -91.5461 1295.49
v 71.5107 -91.9707 1294.81
v 71.1715 -91.5623 1294.67
v 71.2107 -91.1695 1294.72
v 71.9954 -91.7794 1295
v 71.5963 -91.2794 1294.74
v 71.8878 -90.4943 1295.03
v 72.5183 -90.8689 1295.29
v 71.9534 -92.1899 1295.33
v 71.9681 -91.3459 1296.89
v 72.311 -91.849 1295.97
v 72.4454 -91.5973 1295.49
v 70.7085 -90.6308 1295.51
v 71.1575 -90.4118 1295.19
v 70.5034 -91.2186 1296.39
v 72.9807 -90.9193 1296.21
v 73.0722 -90.5278 1295.86
v 73.1114 -90.5405 1296.87
v 72.4894 -89.3327 1295.63
v 73.0348 -89.425 1295.77
v 72.5948 -88.9523 1297.97
v 73.6418 -89.2666 1296.29
v 73.7286 -87.9295 1296.6
v 73.3263 -87.3592 1296.89
v 73.8882 -89.3625 1296.98
v 73.7865 -89.0386 1297.86
v 74.5057 -87.8914 1298.2
v 74.4354 -87.9861 1297.28
v 74.2603 -87.523 1297.09
v 74.7289 -87.5247 1298.03
v 72.9906 -87.1558 1298.2
v 73.1411 -87.0238 1297.39
v 74.3766 -86.8511 1299.2
v 73.8665 -86.0287 1299.33
v 74.5049 -84.1849 1299.55
v 74.8543 -83.8682 1299.45
v 75.2911 -83.5522 1299.63
v 76.0632 -83.4274 1300.18
v 76.1663 -81.2218 1301.43
v 76.1493 -81.5606 1302.25
v 75.9589 -81.1468 1301.96
v 76.0807 -81.0402 1301.7
v 76.5086 -81.1939 1301.46
v 76.8169 -81.3072 1302.4
v 76.6603 -80.1617 1302.19
v 76.9313 -80.5943 1303
v 77.1483 -80.7317 1302.51
v 77.1153 -80.0851 1302.37
v 77.3091 -80.0484 1302.62
v 77.2024 -80.1565 1303.18
v 77.3732 -79.9506 1302.96
v 76.3909 -80.243 1302.86
v 76.4469 -79.9728 1302.71
v 76.5881 -80.1334 1303.13
v 76.6239 -79.8086 1302.59
v 76.6255 -79.7139 1302.81
v 76.8777 -80.1501 1303.27
v 76.6102 -79.7517 1303.07
v 77.1356 -79.7156 1302.62
v 76.8471 -79.6299 1302.67
v 77.1162 -79.9284 1303.33
v 76.8398 -79.6602 1303.32
v 77.3342 -79.7055 1302.84
v 77.2289 -79.5285 1302.94
v 77.3018 -79.6362 1303.16
v 76.979 -79.4332 1303.1
v 70.4317 -92.1281 1295.37
v 70.4317 -92.1281 1295.37
v 70.7947 -92.4446 1295.37
v 70.5628 -92.1972 1296.14
v 70.5628 -92.1972 1296.14
v 70.5628 -92.1972 1296.14
v 70.2896 -91.5461 1295.49
v 71.9681 -91.3459 1296.89
v 70.5034 -91.2186 1296.39
v 70.5034 -91.2186 1296.39
v 72.9906 -87.1558 1298.2
v 73.8665 -86.0287 1299.33
v 77.3091 -80.0484 1302.62
v 77.1162 -79.9284 1303.33
v 77.1162 -79.9284 1303.33
v 77.1162 -79.9284 1303.33
v 76.8398 -79.6602 1303.32
v 76.8398 -79.6602 1303.32
v 77.3342 -79.7055 1302.84
v 77.2289 -79.5285 1302.94
v 77.2289 -79.5285 1302.94
v 77.3018 -79.6362 1303.16
v 77.3018 -79.6362 1303.16
v 77.3018 -79.6362 1303.16
v 76.979 -79.4332 1303.1
v 76.979 -79.4332 1303.1
v 76.979 -79.4332 1303.1
vn -0.751962 -0.355427 -0.55518
vn -0.378091 -0.511636 -0.771541
vn -0.679156 0.136741 -0.721144
vn -0.414407 -0.729974 -0.543511
vn -0.958357 -0.19617 0.207529
vn 0.101984 -0.861166 -0.497989
vn 0.200353 -0.949606 0.241057
vn -0.922022 0.244264 -0.300349
vn 0.247393 -0.442061 -0.862195
vn -0.126805 -0.0910533 -0.98774
vn -0.169399 0.315264 -0.933763
vn 0.608476 -0.303551 -0.733222
vn 0.319025 0.0475695 -0.946552
vn 0.184955 0.335078 -0.923859
vn 0.637746 -0.0470965 -0.768805
vn 0.594048 -0.730166 -0.337585
vn 0.341116 -0.682571 0.646325
vn 0.660425 -0.716956 0.223186
vn 0.817517 -0.445031 -0.36553
vn -0.821266 0.520681 -0.233266
vn -0.403306 0.566436 -0.718676
vn -0.953142 -0.127889 0.274162
vn 0.850897 -0.523939 -0.0382372
vn 0.852273 -0.300874 -0.427908
vn 0.697568 -0.61383 0.369609
vn 0.0608066 0.472698 -0.879124
vn 0.467554 0.199454 -0.861169
vn -0.510333 -0.149552 0.846873
vn 0.766366 -0.0516255 -0.640326
vn 0.3789 0.359559 -0.852732
vn -0.176927 0.61328 -0.769795
vn 0.901222 -0.425451 -0.0824059
vn 0.523819 -0.58643 0.61783
vn 0.746686 -0.540903 0.387148
vn 0.898782 -0.139654 -0.415557
vn 0.642053 0.208834 -0.737669
vn 0.941298 -0.33099 -0.0663612
vn -0.856388 0.51628 -0.00741867
vn -0.67672 0.631247 -0.378916
vn 0.116193 -0.515308 0.849092
vn -0.242952 -0.36245 0.89978
vn -0.863244 0.498592 -0.0788328
vn -0.438497 0.6598 -0.610233
vn 0.196536 0.526763 -0.826979
vn 0.812037 0.0999958 -0.574976
vn -0.213804 0.646174 -0.73263
vn -0.461793 -0.362495 0.809533
vn -0.940977 0.282442 0.186515
vn -0.662152 0.613983 -0.429627
vn 0.271336 0.497974 -0.82365
vn 0.465516 -0.598115 0.652344
vn -0.109913 0.644755 -0.756446
vn 0.185664 -0.586484 0.788394
vn 0.922953 -0.371238 0.101686
vn 0.520785 0.403359 -0.752386
vn 0.975582 -0.113778 -0.187868
vn 0.654998 -0.42076 0.627645
vn 0.987321 -0.110593 0.113867
vn -0.899679 0.111763 0.422003
vn -0.869654 0.489242 -0.0659185
vn -0.671925 -0.0744078 0.736872
vn -0.576486 0.681368 -0.451001
vn -0.661727 0.733626 -0.15463
vn -0.119021 -0.37164 0.920716
vn -0.822475 0.467626 0.323822
vn 0.423299 0.59773 -0.680835
vn -0.180427 0.834787 -0.520171
vn -0.143736 -0.109631 0.983525
vn -0.470112 -0.0267359 0.882202
vn 0.625404 0.50534 -0.59456
vn 0.267194 0.816771 -0.511363
vn 0.932653 0.360413 0.0161479
vn -0.6074 0.792727 0.0514721
vn -0.954824 -0.26266 0.139002
vn -0.656522 -0.753009 0.0442239
vn -0.327591 -0.942933 0.0596824
vn -0.457751 -0.877345 0.14398
vn 0.0961324 -0.743439 0.661858
vn -0.333325 -0.252304 0.908426
vn -0.958357 -0.19617 0.207529
vn -0.256404 -0.321189 0.911644
vn -0.441923 -0.179813 0.878847
vn -0.889658 0.447285 0.0918968
vn -0.795315 0.1382 0.590233
vn -0.880219 0.178973 0.439526
vn 0.728178 0.291878 -0.620132
vn 0.772873 -0.123438 0.622439
vn 0.232574 -0.477727 0.847163
vn 0.295653 0.339648 0.892877
vn -0.636091 0.701491 0.321402
vn 0.269688 0.473264 0.838624
vn 0.963278 0.261897 -0.0592086
vn 0.851882 0.523029 -0.0271611
vn 0.480482 0.837841 0.259152
vn 0.809009 -0.132279 0.572718
vn 0.269688 0.473264 0.838624
vn 0.480482 0.837841 0.259152
vn 0.0733267 0.898311 -0.433198
vn 0.480482 0.837841 0.259152
vn 0.237933 0.596718 0.766365
g grp1
usemtl mtl1
f 2//2 6//6 4//4 
f 1//1 3//3 2//2 
f 2//2 4//4 1//1 
f 8//8 3//3 1//1 
f 20//20 3//3 8//8 
f 16//16 6//6 9//9 
f 6//6 2//2 9//9 
f 2//2 3//3 10//10 
f 74//74 5//5 80//80 
f 76//76 77//77 75//75 
f 5//5 22//22 80//80 
f 76//76 6//6 7//7 
f 7//7 77//77 76//76 
f 7//7 17//17 78//78 
f 79//79 81//81 82//82 
f 7//7 6//6 16//16 
f 20//20 8//8 83//83 
f 9//9 2//2 10//10 
f 11//11 10//10 3//3 
f 9//9 12//12 16//16 
f 13//13 9//9 10//10 
f 12//12 9//9 13//13 
f 13//13 10//10 11//11 
f 11//11 3//3 21//21 
f 15//15 12//12 13//13 
f 11//11 14//14 13//13 
f 14//14 15//15 13//13 
f 14//14 11//11 21//21 
f 15//15 14//14 27//27 
f 18//18 7//7 16//16 
f 18//18 17//17 7//7 
f 17//17 18//18 25//25 
f 12//12 19//19 16//16 
f 16//16 19//19 18//18 
f 19//19 23//23 18//18 
f 18//18 23//23 25//25 
f 19//19 12//12 15//15 
f 15//15 24//24 19//19 
f 39//39 20//20 38//38 
f 21//21 3//3 20//20 
f 20//20 39//39 21//21 
f 38//38 20//20 83//83 
f 27//27 29//29 15//15 
f 24//24 23//23 19//19 
f 17//17 25//25 33//33 
f 33//33 25//25 34//34 
f 32//32 34//34 25//25 
f 32//32 25//25 23//23 
f 23//23 24//24 32//32 
f 15//15 29//29 24//24 
f 29//29 32//32 24//24 
f 26//26 14//14 21//21 
f 26//26 27//27 14//14 
f 26//26 21//21 31//31 
f 21//21 39//39 31//31 
f 27//27 30//30 29//29 
f 30//30 27//27 26//26 
f 82//82 81//81 28//28 
f 41//41 28//28 81//81 
f 29//29 30//30 36//36 
f 31//31 30//30 26//26 
f 36//36 30//30 44//44 
f 44//44 30//30 31//31 
f 36//36 35//35 29//29 
f 35//35 32//32 29//29 
f 37//37 34//34 32//32 
f 34//34 40//40 33//33 
f 40//40 17//17 33//33 
f 35//35 37//37 32//32 
f 45//45 37//37 35//35 
f 45//45 35//35 36//36 
f 54//54 37//37 45//45 
f 34//34 37//37 54//54 
f 82//82 28//28 84//84 
f 28//28 85//85 84//84 
f 42//42 39//39 38//38 
f 41//41 81//81 40//40 
f 36//36 44//44 45//45 
f 84//84 85//85 42//42 
f 43//43 31//31 39//39 
f 44//44 31//31 43//43 
f 39//39 42//42 43//43 
f 42//42 85//85 48//48 
f 40//40 47//47 41//41 
f 51//51 40//40 34//34 
f 54//54 51//51 34//34 
f 48//48 85//85 47//47 
f 49//49 43//43 42//42 
f 49//49 42//42 48//48 
f 50//50 44//44 46//46 
f 46//46 44//44 43//43 
f 46//46 43//43 49//49 
f 51//51 47//47 40//40 
f 47//47 59//59 48//48 
f 45//45 44//44 50//50 
f 50//50 46//46 52//52 
f 52//52 46//46 49//49 
f 47//47 61//61 59//59 
f 61//61 47//47 64//64 
f 45//45 56//56 54//54 
f 53//53 47//47 51//51 
f 53//53 64//64 47//47 
f 86//86 45//45 55//55 
f 45//45 50//50 55//55 
f 54//54 57//57 51//51 
f 57//57 53//53 51//51 
f 64//64 53//53 57//57 
f 52//52 55//55 50//50 
f 66//66 55//55 52//52 
f 86//86 55//55 66//66 
f 56//56 58//58 54//54 
f 58//58 57//57 54//54 
f 86//86 66//66 70//70 
f 58//58 56//56 92//92 
f 72//72 58//58 92//92 
f 49//49 48//48 60//60 
f 59//59 60//60 48//48 
f 60//60 59//59 65//65 
f 65//65 59//59 61//61 
f 49//49 62//62 52//52 
f 62//62 49//49 60//60 
f 63//63 62//62 60//60 
f 63//63 60//60 65//65 
f 69//69 65//65 61//61 
f 69//69 61//61 64//64 
f 67//67 52//52 62//62 
f 67//67 62//62 63//63 
f 63//63 73//73 67//67 
f 68//68 69//69 64//64 
f 73//73 63//63 65//65 
f 73//73 65//65 90//90 
f 67//67 66//66 52//52 
f 95//95 57//57 58//58 
f 87//87 57//57 95//95 
f 64//64 57//57 88//88 
f 96//96 91//91 89//89 
f 71//71 70//70 66//66 
f 67//67 71//71 66//66 
f 92//92 93//93 72//72 
f 98//98 71//71 67//67 
f 97//97 94//94 99//99 
f 91//91 96//96 100//100 
