#
# The license for this database is specified in the Creative Commons Attribution-Share Alike 2.1 Japan. If you use data from this database, please be sure attribute this database as follows: "BodyParts3D, (c)  The Database Center for Life Science licensed under CC Attribution-Share Alike 2.1 Japan".
# http://dbarchive.biosciencedbc.jp/en/bodyparts3d/lic.html
#
#
# Compatibility version : 4.0
# File ID : FJ2927
# Representation ID : BP9574
# Build-up logic : FMA 3.0 part_of
# Concept ID : FMA9438
# English name : Left posterior segmental vein
# Bounds(mm): (43.172500,-99.300000,1283.890000)-(50.758200,-63.325800,1318.860000)
# Volume(cm3): 0.600000
#
v 45.3322 -97.0846 1287.04
v 44.022 -87.3222 1297.41
v 43.9916 -87.8064 1300.46
v 43.7641 -87.9371 1299.34
v 43.9068 -89.1019 1296.61
v 45.3075 -91.9574 1290.18
v 44.6224 -91.1179 1297.11
v 44.1953 -91.2055 1295.37
v 45.1896 -95.5084 1287.02
v 45.6564 -95.4608 1285.69
v 46.4962 -95.3796 1284.66
v 46.5062 -94.4759 1285.41
v 46.3729 -96.4336 1284.53
v 45.7693 -96.7282 1285.2
v 46.1566 -97.5775 1285.03
v 46.7352 -98.0956 1284.84
v 46.8593 -97.462 1284.38
v 46.2934 -98.0642 1288.74
v 46.9387 -98.6349 1288.47
v 45.6924 -97.7932 1287.81
v 45.9814 -98.4374 1286.59
v 46.474 -98.5783 1285.68
v 46.4964 -98.8191 1287.61
v 46.8493 -99.1074 1286.96
v 47.2304 -99.12 1286.04
v 47.0517 -99.1197 1287.56
v 47.4815 -98.8259 1285.26
v 44.4073 -81.0067 1303.14
v 44.0497 -80.8224 1307.54
v 43.3888 -81.551 1305.37
v 43.5045 -82.5717 1303.29
v 45.5173 -84.4421 1299.06
v 43.7031 -83.8486 1304.23
v 44.2139 -84.6154 1304.31
v 44.5377 -86.8171 1297.01
v 46.1463 -87.9001 1294.57
v 44.6966 -84.4994 1304.8
v 46.2073 -91.2999 1289.91
v 47.2202 -90.7359 1290.34
v 47.4102 -94.0071 1285.35
v 48.4083 -94.0413 1285.29
v 45.3865 -87.9847 1301.67
v 44.7166 -88.8179 1300.35
v 45.3009 -90.3141 1299.02
v 46.4245 -90.9372 1298.53
v 47.3804 -94.9777 1284.41
v 47.281 -95.7013 1284.13
v 47.6447 -96.2559 1283.94
v 47.8116 -95.6615 1284.01
v 48.0012 -96.7436 1283.91
v 48.154 -96.1952 1283.89
v 48.1583 -94.9946 1284.29
v 48.2896 -95.6251 1284.01
v 48.4867 -96.692 1283.94
v 48.6425 -96.1047 1283.96
v 48.7393 -95.511 1284.11
v 45.972 -94.073 1294.47
v 47.5316 -97.0304 1284.02
v 47.6446 -97.8974 1284.32
v 47.7474 -98.4776 1284.76
v 48.1313 -97.6053 1284.14
v 48.1845 -98.0655 1284.39
v 48.656 -98.3696 1284.76
v 48.8405 -97.5449 1284.26
v 49.1462 -98.2289 1284.89
v 47.5226 -95.6532 1292.78
v 48.0928 -98.5986 1288.76
v 47.6389 -99.3 1286.96
v 47.5154 -99.1154 1287.89
v 48.2602 -99.1832 1287.55
v 48.6015 -99.1852 1286.81
v 48.9638 -98.9235 1287.59
v 48.2066 -99.0775 1285.73
v 48.414 -98.7576 1285.15
v 48.9042 -98.6607 1285.26
v 48.9116 -98.9583 1285.99
v 43.2234 -72.866 1311.75
v 43.7148 -73.4123 1310.13
v 43.5134 -72.4845 1313.27
v 44.3454 -75.5627 1307.96
v 43.8248 -75.2741 1311.66
v 44.3773 -76.5805 1311.05
v 43.4475 -77.3492 1309.48
v 43.8784 -78.0047 1306.3
v 44.5588 -78.4292 1305.4
v 45.1751 -78.7663 1304.96
v 46.0825 -79.5458 1304.53
v 44.9618 -80.0972 1308.57
v 45.4357 -81.6416 1302.14
v 46.7265 -83.8589 1300.11
v 46.4499 -83.8244 1305.19
v 47.445 -88.4634 1294
v 45.6169 -84.3814 1305.08
v 47.4336 -87.2241 1301.44
v 47.9981 -86.5357 1298.29
v 48.6246 -88.9242 1295.36
v 46.2149 -87.3879 1302.25
v 47.4123 -90.0305 1299.01
v 48.8372 -90.5843 1296.36
v 50.203 -93.6455 1289.1
v 49.4871 -93.9964 1286.05
v 49.9467 -95.2932 1284.97
v 50.3682 -94.8434 1286.32
v 49.1064 -95.0428 1284.49
v 49.295 -95.8939 1284.23
v 49.3475 -96.4716 1284.22
v 49.8445 -96.2475 1284.57
v 49.2785 -94.0697 1293.05
v 49.7589 -94.0227 1292.11
v 50.3181 -94.1727 1289.76
v 50.4797 -97.2017 1285.81
v 50.5308 -96.4489 1285.56
v 50.6614 -97.0999 1286.62
v 50.7242 -96.7032 1286.21
v 50.7476 -95.7748 1286.54
v 50.7582 -96.2433 1287.29
v 49.9101 -97.3385 1284.93
v 48.2831 -95.3987 1292.79
v 49.2409 -98.1631 1288.65
v 50.0997 -97.3451 1288.45
v 50.473 -96.9923 1287.94
v 49.5186 -98.6831 1286.76
v 49.7905 -98.2788 1287.7
v 50.299 -97.7933 1286.29
v 50.3579 -97.7211 1287.09
v 49.5838 -98.2544 1285.42
v 43.1725 -64.3978 1317.64
v 43.3212 -63.7409 1317.99
v 43.3074 -64.4659 1317.15
v 43.6736 -63.5417 1317.46
v 43.7342 -64.3326 1316.76
v 43.5896 -63.7122 1318.55
v 43.9677 -63.8725 1317.02
v 43.2871 -64.099 1318.38
v 43.2462 -64.9859 1317.88
v 43.5031 -64.9216 1318.35
v 43.6603 -64.1373 1318.76
v 44.1507 -69.9633 1315.46
v 44.6896 -71.9364 1310.81
v 45.5529 -72.8037 1310.48
v 45.1683 -72.7197 1313.58
v 46.0576 -73.246 1310.92
v 46.1453 -73.5568 1311.6
v 45.2339 -75.4502 1307.98
v 44.918 -75.8597 1311.63
v 45.9002 -74.5732 1311.8
v 46.2836 -77.0456 1307.36
v 45.5959 -78.5645 1309.56
v 46.5818 -80.1 1307.59
v 47.058 -80.3049 1305.96
v 47.0864 -81.3937 1303.88
v 47.975 -86.7208 1300.68
v 48.2222 -86.9235 1299.03
v 48.6087 -88.7306 1297.48
v 44.1232 -63.3831 1317.48
v 44.0209 -63.3258 1318.18
v 44.0541 -63.6234 1318.67
v 44.4091 -63.8349 1317.08
v 44.5181 -63.4437 1318.33
v 44.5991 -63.4734 1317.61
v 44.6972 -64.2629 1316.89
v 44.9675 -63.7721 1318.04
v 45.0787 -64.6565 1317.09
v 44.1922 -64.9461 1318.6
v 44.3523 -64.243 1318.86
v 44.7644 -63.8591 1318.53
v 44.8115 -65.1126 1318.24
v 45.1257 -64.7887 1317.82
v 43.6736 -63.5417 1317.46
v 47.0864 -81.3937 1303.88
v 44.1232 -63.3831 1317.48
v 44.1232 -63.3831 1317.48
v 44.0209 -63.3258 1318.18
v 44.5991 -63.4734 1317.61
v 44.9675 -63.7721 1318.04
v 44.3523 -64.243 1318.86
v 44.3523 -64.243 1318.86
v 44.7644 -63.8591 1318.53
vn -0.959545 -0.255138 -0.119075
vn -0.867332 0.343552 -0.360149
vn -0.810906 -0.457821 0.364459
vn -0.970674 -0.213106 0.111259
vn -0.994272 -0.00192881 -0.106863
vn -0.756052 0.486647 -0.437676
vn -0.745317 -0.560555 0.360945
vn -0.949137 -0.295822 0.107836
vn -0.955282 0.120541 -0.270013
vn -0.825792 0.280636 -0.489195
vn -0.586029 0.359266 -0.72629
vn -0.55773 0.6024 -0.571009
vn -0.598632 0.00522842 -0.801007
vn -0.888104 -0.0848335 -0.451746
vn -0.763763 -0.36846 -0.530003
vn -0.442795 -0.593175 -0.672366
vn -0.465659 -0.314104 -0.827345
vn -0.617357 -0.680603 0.394525
vn -0.298517 -0.814206 0.497952
vn -0.833891 -0.51809 0.190287
vn -0.787216 -0.606694 -0.110517
vn -0.568074 -0.728262 -0.383311
vn -0.59329 -0.768859 0.238459
vn -0.444392 -0.894862 -0.0416935
vn -0.25061 -0.931752 -0.26274
vn -0.308168 -0.920115 0.241703
vn -0.202126 -0.829874 -0.520051
vn -0.542599 0.584561 -0.603221
vn -0.588123 -0.51772 0.621351
vn -0.988573 -0.117306 0.0946743
vn -0.934056 0.218087 -0.282803
vn -0.119216 0.747962 -0.652947
vn -0.871202 -0.349548 0.344706
vn -0.645881 -0.539574 0.540091
vn -0.554197 0.625206 -0.54953
vn -0.104857 0.800413 -0.590207
vn -0.346601 -0.63568 0.689767
vn -0.401375 0.734082 -0.547742
vn -0.0402505 0.833035 -0.551753
vn -0.191875 0.755669 -0.626218
vn 0.159265 0.784737 -0.599018
vn -0.176423 -0.706607 0.68526
vn -0.548543 -0.630644 0.548989
vn -0.365364 -0.725021 0.583827
vn 0.0704269 -0.747234 0.660819
vn -0.287316 0.532255 -0.796338
vn -0.363571 0.230519 -0.902595
vn -0.245975 0.0424248 -0.968347
vn -0.124866 0.294826 -0.947357
vn -0.0393412 -0.127065 -0.991114
vn 0.016392 0.0821649 -0.996484
vn 0.0325394 0.567545 -0.822699
vn 0.0674376 0.286936 -0.955573
vn 0.196175 -0.137412 -0.970893
vn 0.240929 0.100096 -0.965367
vn 0.24913 0.344328 -0.905192
vn -0.355446 -0.757339 0.54781
vn -0.257767 -0.194169 -0.946496
vn -0.196619 -0.489663 -0.849453
vn -0.0880336 -0.709107 -0.699584
vn 0.0383517 -0.351935 -0.935238
vn 0.0893138 -0.569811 -0.816908
vn 0.247875 -0.675456 -0.69449
vn 0.356761 -0.400606 -0.843941
vn 0.494355 -0.594121 -0.634535
vn 0.0120922 -0.790293 0.61261
vn 0.161761 -0.827726 0.53731
vn -0.0555172 -0.998373 0.0129983
vn -0.0815598 -0.926202 0.3681
vn 0.177238 -0.947314 0.266802
vn 0.296771 -0.95483 -0.0150458
vn 0.438265 -0.849635 0.293334
vn 0.11437 -0.944852 -0.306878
vn 0.129755 -0.826161 -0.548289
vn 0.384081 -0.798756 -0.463109
vn 0.437461 -0.868483 -0.233165
vn -0.998261 0.0296782 -0.0509361
vn -0.635127 0.476212 -0.608141
vn -0.801315 -0.342259 0.490666
vn -0.220217 0.633606 -0.741653
vn -0.60305 -0.470489 0.644182
vn -0.30105 -0.560382 0.771583
vn -0.885832 -0.294511 0.358559
vn -0.646721 0.48613 -0.587732
vn -0.339052 0.624123 -0.703928
vn 0.0395044 0.689798 -0.722923
vn 0.508245 0.624787 -0.592729
vn -0.0969507 -0.610795 0.785831
vn -0.0651769 0.708863 -0.702328
vn 0.428182 0.711148 -0.55761
vn 0.509729 -0.528185 0.679115
vn 0.338403 0.80089 -0.494022
vn 0.0924294 -0.645024 0.758552
vn 0.714275 -0.4322 0.550467
vn 0.842626 0.475467 -0.252811
vn 0.835964 0.509329 -0.204323
vn 0.283252 -0.655201 0.700343
vn 0.494476 -0.605207 0.623874
vn 0.928583 -0.163679 0.333082
vn 0.938613 0.341524 -0.0486422
vn 0.55286 0.700964 -0.450549
vn 0.708342 0.389352 -0.588775
vn 0.844362 0.449057 -0.292234
vn 0.384381 0.561903 -0.732473
vn 0.479106 0.213818 -0.851316
vn 0.471002 -0.105301 -0.875824
vn 0.704534 0.0226897 -0.709308
vn 0.754323 -0.436713 0.490181
vn 0.930951 -0.182541 0.316241
vn 0.987441 0.104332 0.118639
vn 0.871124 -0.364691 -0.32885
vn 0.898529 0.028847 -0.437966
vn 0.948739 -0.316058 -0.0014906
vn 0.980523 -0.118716 -0.156467
vn 0.977387 0.176788 -0.116016
vn 0.989595 -0.0775042 0.121226
vn 0.694899 -0.340226 -0.633531
vn 0.401511 -0.689654 0.602633
vn 0.535888 -0.679839 0.500642
vn 0.784433 -0.47666 0.396813
vn 0.917418 -0.306312 0.254004
vn 0.631579 -0.775002 -0.0219096
vn 0.682383 -0.673437 0.284319
vn 0.816395 -0.558318 -0.14758
vn 0.840945 -0.524001 0.135038
vn 0.661656 -0.653278 -0.368021
vn -0.991441 0.122943 -0.0439224
vn -0.823375 0.56749 -0.00289207
vn -0.831349 0.362461 -0.421284
vn -0.419659 0.905056 -0.0689984
vn -0.475648 0.535441 -0.697898
vn -0.570202 0.585465 0.576282
vn -0.16425 0.64289 -0.748141
vn -0.894292 0.0676169 0.442345
vn -0.935782 -0.178186 0.304239
vn -0.612549 -0.370449 0.698249
vn -0.419267 -0.00967335 0.907811
vn -0.249593 -0.529133 0.811
vn 0.00582397 0.620772 -0.783969
vn 0.588175 0.535703 -0.605865
vn 0.372766 -0.487543 0.789523
vn 0.908541 0.318318 -0.270606
vn 0.98891 0.00850139 0.14827
vn 0.256586 0.644414 -0.720344
vn 0.0784907 -0.560876 0.824171
vn 0.784537 -0.298003 0.543779
vn 0.747303 0.482796 -0.456558
vn 0.417377 -0.519194 0.745811
vn 0.838106 -0.275176 0.471016
vn 0.990182 0.139338 0.0111685
vn 0.674964 0.567616 -0.471419
vn 0.943813 -0.127961 0.304701
vn 0.974024 0.225625 -0.0192488
vn 0.985345 0.127323 0.113507
vn -0.326522 0.937083 -0.123527
vn -0.344432 0.908694 0.235885
vn -0.00147727 0.587308 0.809362
vn 0.26548 0.655111 -0.707354
vn 0.420719 0.828586 0.369378
vn 0.610805 0.597711 -0.519287
vn 0.551032 0.558208 -0.620296
vn 0.665729 0.713616 0.218078
vn 0.895511 0.343451 -0.283022
vn 0.00687194 -0.455067 0.89043
vn 0.105144 0.332398 0.93726
vn 0.465954 0.54405 0.69778
vn 0.651001 -0.296584 0.698739
vn 0.955438 -0.0184424 0.294614
vn -0.548298 0.57533 -0.606931
vn 0.941138 0.307124 -0.141188
vn 0.0394738 0.722882 -0.689843
vn 0.199187 0.978655 -0.0505907
vn 0.216952 0.975656 -0.0320421
vn 0.35361 0.93534 -0.00993914
vn 0.968151 0.250366 -0.000359761
vn -0.181458 -0.307936 0.933942
vn 0.548439 -0.275608 0.789465
vn 0.828377 -0.0601113 0.556937
g grp1
usemtl mtl1
f 1//1 14//14 15//15 
f 4//4 31//31 5//5 
f 31//31 2//2 5//5 
f 2//2 35//35 6//6 
f 33//33 4//4 3//3 
f 2//2 9//9 5//5 
f 5//5 1//1 8//8 
f 2//2 6//6 9//9 
f 1//1 5//5 9//9 
f 38//38 6//6 35//35 
f 38//38 35//35 36//36 
f 7//7 3//3 4//4 
f 4//4 5//5 8//8 
f 7//7 4//4 8//8 
f 43//43 3//3 7//7 
f 44//44 43//43 7//7 
f 7//7 8//8 20//20 
f 1//1 20//20 8//8 
f 6//6 10//10 9//9 
f 10//10 14//14 9//9 
f 10//10 13//13 14//14 
f 11//11 13//13 10//10 
f 38//38 12//12 6//6 
f 12//12 10//10 6//6 
f 11//11 10//10 12//12 
f 40//40 12//12 38//38 
f 46//46 11//11 12//12 
f 13//13 11//11 47//47 
f 48//48 13//13 47//47 
f 58//58 13//13 48//48 
f 1//1 9//9 14//14 
f 1//1 21//21 20//20 
f 15//15 14//14 13//13 
f 13//13 17//17 15//15 
f 17//17 16//16 15//15 
f 15//15 16//16 22//22 
f 27//27 22//22 16//16 
f 17//17 13//13 58//58 
f 58//58 59//59 17//17 
f 16//16 17//17 59//59 
f 60//60 16//16 59//59 
f 18//18 7//7 20//20 
f 20//20 21//21 23//23 
f 23//23 18//18 20//20 
f 57//57 7//7 18//18 
f 19//19 18//18 23//23 
f 19//19 57//57 18//18 
f 57//57 19//19 66//66 
f 67//67 66//66 19//19 
f 1//1 15//15 21//21 
f 21//21 15//15 22//22 
f 21//21 22//22 24//24 
f 22//22 27//27 25//25 
f 22//22 25//25 24//24 
f 23//23 21//21 24//24 
f 19//19 23//23 26//26 
f 23//23 24//24 26//26 
f 24//24 68//68 26//26 
f 24//24 25//25 68//68 
f 26//26 69//69 19//19 
f 69//69 26//26 68//68 
f 68//68 25//25 73//73 
f 60//60 27//27 16//16 
f 27//27 60//60 74//74 
f 27//27 74//74 73//73 
f 25//25 27//27 73//73 
f 31//31 78//78 84//84 
f 30//30 77//77 31//31 
f 28//28 84//84 85//85 
f 77//77 30//30 83//83 
f 83//83 29//29 81//81 
f 31//31 84//84 28//28 
f 31//31 28//28 2//2 
f 85//85 89//89 28//28 
f 28//28 35//35 2//2 
f 32//32 28//28 89//89 
f 28//28 32//32 35//35 
f 90//90 36//36 32//32 
f 83//83 30//30 33//33 
f 83//83 33//33 29//29 
f 88//88 29//29 37//37 
f 30//30 4//4 33//33 
f 29//29 33//33 34//34 
f 37//37 29//29 34//34 
f 4//4 30//30 31//31 
f 32//32 36//36 35//35 
f 39//39 36//36 92//92 
f 92//92 36//36 90//90 
f 37//37 34//34 43//43 
f 34//34 33//33 3//3 
f 43//43 34//34 3//3 
f 37//37 43//43 42//42 
f 93//93 37//37 42//42 
f 39//39 38//38 36//36 
f 39//39 40//40 38//38 
f 12//12 40//40 46//46 
f 40//40 52//52 46//46 
f 40//40 39//39 41//41 
f 41//41 52//52 40//40 
f 39//39 92//92 41//41 
f 101//101 41//41 92//92 
f 42//42 43//43 44//44 
f 42//42 44//44 45//45 
f 42//42 45//45 97//97 
f 47//47 11//11 46//46 
f 46//46 52//52 49//49 
f 47//47 46//46 49//49 
f 41//41 104//104 52//52 
f 104//104 56//56 52//52 
f 101//101 104//104 41//41 
f 50//50 58//58 48//48 
f 58//58 50//50 61//61 
f 48//48 49//49 51//51 
f 48//48 47//47 49//49 
f 50//50 48//48 51//51 
f 50//50 51//51 54//54 
f 54//54 61//61 50//50 
f 49//49 52//52 53//53 
f 53//53 51//51 49//49 
f 53//53 52//52 56//56 
f 53//53 56//56 55//55 
f 51//51 53//53 55//55 
f 55//55 54//54 51//51 
f 106//106 64//64 54//54 
f 64//64 61//61 54//54 
f 106//106 54//54 55//55 
f 55//55 56//56 105//105 
f 55//55 105//105 106//106 
f 45//45 44//44 57//57 
f 57//57 44//44 7//7 
f 66//66 45//45 57//57 
f 118//118 45//45 66//66 
f 58//58 61//61 59//59 
f 62//62 59//59 61//61 
f 62//62 60//60 59//59 
f 62//62 63//63 60//60 
f 60//60 63//63 74//74 
f 64//64 62//62 61//61 
f 64//64 63//63 62//62 
f 65//65 63//63 64//64 
f 63//63 65//65 75//75 
f 65//65 126//126 75//75 
f 67//67 118//118 66//66 
f 67//67 19//19 69//69 
f 67//67 69//69 70//70 
f 69//69 68//68 70//70 
f 119//119 118//118 67//67 
f 72//72 119//119 67//67 
f 71//71 68//68 73//73 
f 70//70 68//68 71//71 
f 67//67 70//70 72//72 
f 71//71 73//73 76//76 
f 72//72 70//70 71//71 
f 122//122 71//71 76//76 
f 71//71 122//122 72//72 
f 75//75 74//74 63//63 
f 74//74 75//75 73//73 
f 75//75 76//76 73//73 
f 126//126 76//76 75//75 
f 126//126 122//122 76//76 
f 77//77 135//135 127//127 
f 135//135 77//77 79//79 
f 79//79 81//81 138//138 
f 83//83 79//79 77//77 
f 77//77 78//78 31//31 
f 78//78 139//139 80//80 
f 80//80 139//139 144//144 
f 78//78 85//85 84//84 
f 85//85 78//78 80//80 
f 80//80 144//144 86//86 
f 81//81 79//79 83//83 
f 81//81 29//29 82//82 
f 81//81 82//82 138//138 
f 145//145 138//138 82//82 
f 85//85 80//80 86//86 
f 87//87 90//90 86//86 
f 144//144 87//87 86//86 
f 86//86 89//89 85//85 
f 86//86 90//90 89//89 
f 29//29 88//88 82//82 
f 145//145 82//82 88//88 
f 148//148 145//145 88//88 
f 90//90 87//87 151//151 
f 90//90 32//32 89//89 
f 93//93 148//148 88//88 
f 93//93 88//88 37//37 
f 91//91 148//148 93//93 
f 148//148 91//91 149//149 
f 90//90 95//95 96//96 
f 95//95 170//170 153//153 
f 95//95 90//90 151//151 
f 92//92 90//90 96//96 
f 93//93 97//97 91//91 
f 97//97 93//93 42//42 
f 94//94 91//91 97//97 
f 149//149 94//94 152//152 
f 152//152 94//94 108//108 
f 108//108 99//99 152//152 
f 152//152 99//99 154//154 
f 95//95 153//153 96//96 
f 153//153 154//154 96//96 
f 98//98 94//94 97//97 
f 97//97 45//45 98//98 
f 108//108 94//94 98//98 
f 99//99 108//108 109//109 
f 99//99 109//109 154//154 
f 96//96 154//154 100//100 
f 154//154 109//109 110//110 
f 96//96 101//101 92//92 
f 103//103 101//101 96//96 
f 100//100 154//154 110//110 
f 100//100 110//110 115//115 
f 110//110 116//116 115//115 
f 102//102 105//105 104//104 
f 102//102 104//104 101//101 
f 101//101 103//103 102//102 
f 112//112 107//107 102//102 
f 96//96 100//100 103//103 
f 115//115 103//103 100//100 
f 102//102 103//103 112//112 
f 103//103 115//115 112//112 
f 104//104 105//105 56//56 
f 102//102 107//107 105//105 
f 105//105 107//107 106//106 
f 117//117 64//64 106//106 
f 106//106 107//107 117//117 
f 98//98 45//45 118//118 
f 110//110 109//109 116//116 
f 116//116 109//109 121//121 
f 124//124 111//111 113//113 
f 126//126 111//111 124//124 
f 113//113 125//125 124//124 
f 115//115 114//114 112//112 
f 112//112 114//114 111//111 
f 116//116 114//114 115//115 
f 114//114 116//116 113//113 
f 113//113 111//111 114//114 
f 121//121 113//113 116//116 
f 121//121 125//125 113//113 
f 117//117 126//126 65//65 
f 64//64 117//117 65//65 
f 112//112 117//117 107//107 
f 112//112 111//111 117//117 
f 117//117 111//111 126//126 
f 108//108 98//98 118//118 
f 108//108 118//118 119//119 
f 108//108 119//119 120//120 
f 123//123 120//120 119//119 
f 72//72 123//123 119//119 
f 120//120 121//121 109//109 
f 108//108 120//120 109//109 
f 72//72 122//122 123//123 
f 122//122 125//125 123//123 
f 126//126 124//124 122//122 
f 124//124 125//125 122//122 
f 120//120 123//123 125//125 
f 125//125 121//121 120//120 
f 128//128 129//129 127//127 
f 134//134 128//128 127//127 
f 156//156 130//130 128//128 
f 128//128 169//169 129//129 
f 129//129 169//169 131//131 
f 156//156 128//128 132//132 
f 78//78 129//129 131//131 
f 131//131 139//139 78//78 
f 134//134 137//137 132//132 
f 128//128 134//134 132//132 
f 155//155 130//130 156//156 
f 169//169 133//133 131//131 
f 132//132 157//157 156//156 
f 133//133 139//139 131//131 
f 157//157 132//132 137//137 
f 171//171 133//133 169//169 
f 165//165 157//157 137//137 
f 135//135 134//134 127//127 
f 135//135 136//136 134//134 
f 136//136 137//137 134//134 
f 164//164 136//136 138//138 
f 164//164 176//176 137//137 
f 136//136 164//164 137//137 
f 129//129 78//78 77//77 
f 129//129 77//77 127//127 
f 141//141 164//164 138//138 
f 167//167 164//164 141//141 
f 135//135 79//79 136//136 
f 136//136 79//79 138//138 
f 145//145 141//141 138//138 
f 140//140 144//144 139//139 
f 167//167 141//141 146//146 
f 146//146 149//149 143//143 
f 142//142 147//147 140//140 
f 140//140 147//147 144//144 
f 150//150 147//147 142//142 
f 142//142 143//143 150//150 
f 147//147 87//87 144//144 
f 141//141 145//145 148//148 
f 141//141 148//148 146//146 
f 150//150 143//143 149//149 
f 147//147 151//151 87//87 
f 148//148 149//149 146//146 
f 170//170 147//147 150//150 
f 152//152 150//150 149//149 
f 150//150 153//153 170//170 
f 94//94 149//149 91//91 
f 153//153 150//150 152//152 
f 153//153 152//152 154//154 
f 171//171 158//158 133//133 
f 157//157 159//159 156//156 
f 158//158 139//139 133//133 
f 157//157 166//166 159//159 
f 166//166 157//157 165//165 
f 160//160 158//158 171//171 
f 173//173 159//159 174//174 
f 173//173 174//174 172//172 
f 160//160 161//161 158//158 
f 158//158 161//161 139//139 
f 174//174 159//159 162//162 
f 160//160 163//163 161//161 
f 159//159 166//166 162//162 
f 163//163 160//160 175//175 
f 175//175 168//168 163//163 
f 164//164 167//167 177//177 
f 177//177 167//167 178//178 
f 167//167 146//146 168//168 
f 175//175 178//178 168//168 
f 168//168 143//143 163//163 
f 167//167 168//168 178//178 
f 168//168 146//146 143//143 
f 161//161 140//140 139//139 
f 163//163 140//140 161//161 
f 163//163 142//142 140//140 
f 142//142 163//163 143//143 
