#
# The license for this database is specified in the Creative Commons Attribution-Share Alike 2.1 Japan. If you use data from this database, please be sure attribute this database as follows: "BodyParts3D, (c)  The Database Center for Life Science licensed under CC Attribution-Share Alike 2.1 Japan".
# http://dbarchive.biosciencedbc.jp/en/bodyparts3d/lic.html
#
#
# Compatibility version : 4.0
# File ID : FJ2954
# Representation ID : BP9735
# Build-up logic : FMA 3.0 part_of
# Concept ID : FMA9450
# English name : Left lateral basal segmental vein
# Bounds(mm): (92.032400,-86.966400,1154.570000)-(118.397000,-80.166300,1185.970000)
# Volume(cm3): 0.109500
#
v 92.0324 -81.2403 1184.61
v 92.9458 -80.8059 1183.6
v 92.2197 -80.6529 1184.87
v 93.0037 -81.6847 1183.3
v 92.1158 -81.8222 1184.7
v 92.0635 -81.4478 1185.24
v 92.1651 -81.786 1185.3
v 93.1345 -80.3528 1184.02
v 93.6445 -80.1663 1184.4
v 92.3024 -82.1134 1185
v 93.0127 -82.3299 1183.94
v 93.4872 -82.5364 1184.14
v 92.6264 -80.3297 1185.16
v 92.2995 -80.8735 1185.51
v 92.8838 -80.5905 1185.73
v 92.8326 -81.1534 1185.97
v 93.4818 -80.336 1185.45
v 94.279 -80.351 1184.62
v 93.7107 -81.1445 1185.89
v 94.5943 -80.7191 1184.79
v 94.8519 -81.327 1184.77
v 92.2677 -81.444 1185.61
v 92.557 -82.2163 1185.34
v 92.5576 -81.7487 1185.77
v 93.1336 -82.2122 1185.64
v 93.1435 -81.7188 1185.97
v 93.7322 -82.3078 1185.4
v 94.0608 -81.8155 1185.44
v 101.855 -81.7822 1173.94
v 100.187 -81.0657 1176.88
v 100.413 -81.0858 1177.29
v 100.722 -81.3201 1177.52
v 103.743 -82.8092 1171.39
v 103.416 -81.5411 1173.57
v 106.52 -82.149 1169.81
v 105.004 -83.5284 1170.18
v 104.546 -81.8223 1171.69
v 104.535 -81.7943 1172.67
v 104.966 -82.6471 1173.05
v 105.147 -83.5264 1172.4
v 109.292 -83.5318 1164.88
v 107.065 -82.5088 1168.23
v 108.411 -82.8738 1168.53
v 111.512 -85.172 1162.69
v 109.983 -82.9907 1165.15
v 110.998 -84.147 1165.46
v 116.879 -86.4748 1154.83
v 114.977 -84.7477 1159.78
v 117.161 -85.9045 1154.57
v 117.426 -86.9664 1154.9
v 117.733 -86.8029 1154.79
v 118.007 -85.934 1154.92
v 117.457 -85.4315 1155.06
v 117.716 -86.9597 1155.21
v 118.301 -85.8835 1155.12
v 117.77 -86.0004 1156.08
v 118.397 -86.4834 1155.18
v 92.0324 -81.2403 1184.61
v 92.2197 -80.6529 1184.87
v 92.8838 -80.5905 1185.73
v 93.4818 -80.336 1185.45
v 92.557 -82.2163 1185.34
v 93.1336 -82.2122 1185.64
v 93.1336 -82.2122 1185.64
v 93.1435 -81.7188 1185.97
v 93.7322 -82.3078 1185.4
v 105.004 -83.5284 1170.18
v 105.147 -83.5264 1172.4
v 109.292 -83.5318 1164.88
v 109.983 -82.9907 1165.15
v 116.879 -86.4748 1154.83
v 116.879 -86.4748 1154.83
v 114.977 -84.7477 1159.78
v 117.161 -85.9045 1154.57
v 117.161 -85.9045 1154.57
v 117.161 -85.9045 1154.57
v 117.161 -85.9045 1154.57
v 117.426 -86.9664 1154.9
v 117.426 -86.9664 1154.9
v 117.733 -86.8029 1154.79
v 117.733 -86.8029 1154.79
v 118.007 -85.934 1154.92
v 117.457 -85.4315 1155.06
v 117.457 -85.4315 1155.06
v 117.716 -86.9597 1155.21
v 117.716 -86.9597 1155.21
v 118.301 -85.8835 1155.12
v 118.301 -85.8835 1155.12
v 118.301 -85.8835 1155.12
v 118.397 -86.4834 1155.18
v 118.397 -86.4834 1155.18
v 118.397 -86.4834 1155.18
vn -0.809586 0.144209 -0.569011
vn -0.688603 0.436203 -0.579269
vn -0.636072 0.664698 -0.391903
vn -0.768614 -0.191488 -0.610381
vn -0.891081 -0.406693 -0.201432
vn -0.969893 0.0134996 0.243156
vn -0.8255 -0.416409 0.380991
vn -0.397043 0.854109 -0.335938
vn 0.0204635 0.999755 0.00843548
vn -0.630247 -0.77624 0.0154984
vn -0.567366 -0.754161 -0.330661
vn -0.177894 -0.98327 0.0391713
vn -0.396223 0.896363 0.198848
vn -0.732221 0.400073 0.551175
vn -0.40672 0.666739 0.62453
vn -0.312077 0.137405 0.940068
vn 0.437961 0.587267 0.680667
vn 0.414354 0.85483 0.312372
vn 0.430266 0.2021 0.879788
vn 0.653516 0.481107 0.58434
vn 0.734154 -0.0317312 0.678241
vn -0.742066 -0.0537316 0.66817
vn -0.223695 -0.970897 0.0855582
vn -0.484984 -0.397208 0.779113
vn -0.0857551 -0.977782 0.191281
vn -0.163772 -0.233916 0.958364
vn -0.000120666 -0.984002 0.178157
vn 0.545032 -0.344956 0.764163
vn -0.492689 0.692682 -0.526734
vn -0.0935864 0.97336 -0.209315
vn 0.290355 0.947732 0.13228
vn 0.606351 0.667833 0.431668
vn -0.752123 0.0188667 -0.658752
vn 0.15816 0.987337 -0.0122981
vn 0.190111 0.981489 -0.0231732
vn -0.722106 -0.363034 -0.588871
vn -0.138186 0.953255 -0.268718
vn 0.45001 0.859399 0.242745
vn 0.769089 0.12709 0.626379
vn -0.170585 -0.985024 0.0250602
vn -0.655605 0.433728 -0.618112
vn -0.290052 0.869077 -0.400718
vn 0.658522 0.635172 0.403616
vn -0.660761 -0.643124 -0.387022
vn -0.314788 0.848812 -0.424766
vn 0.795108 -0.0346715 0.605476
vn -0.77906 0.103304 -0.61838
vn 0.801677 0.299805 0.517137
vn -0.77906 0.103304 -0.61838
vn -0.169436 -0.330849 -0.928348
vn 0.451357 -0.012881 -0.89225
vn 0.49167 -0.00568138 -0.870763
vn 0.436136 0.89436 0.0995245
vn 0.452066 -0.841472 -0.295907
vn 0.462543 0.879026 0.115616
vn 0.826816 0.16864 0.536596
vn 0.543029 -0.793629 -0.27436
vn -0.996208 0.054728 0.0676391
vn -0.891044 0.395146 0.223383
vn 0.131633 0.452383 0.882056
vn 0.00764684 0.96129 0.275434
vn -0.578454 -0.606978 0.544949
vn -0.298963 -0.593125 0.747545
vn 0.351932 -0.409069 0.841907
vn 0.418395 -0.430108 0.799971
vn 0.489541 -0.391471 0.779166
vn -0.211203 -0.975621 -0.0596441
vn 0.65687 -0.446418 0.607646
vn -0.77906 0.103304 -0.61838
vn 0.463705 0.871383 0.160216
vn -0.180481 -0.332746 -0.925584
vn -0.706977 -0.593691 -0.384336
vn 0.465439 0.874282 0.137832
vn -0.169436 -0.330849 -0.928348
vn 0.379099 0.0146988 -0.92524
vn -0.412402 0.767162 -0.491311
vn 0.327313 0.573397 -0.751054
vn -0.425947 -0.895853 -0.126553
vn 0.356117 -0.880037 -0.314191
vn -0.158369 -0.328908 -0.930988
vn 0.452066 -0.841472 -0.295907
vn 0.3525 0.593165 -0.723809
vn -0.411488 0.768031 -0.490719
vn 0.3525 0.593165 -0.723809
vn -0.105471 -0.987153 0.120022
vn 0.507944 -0.694218 0.509955
vn 0.828495 0.267354 0.492054
vn 0.377063 0.611884 -0.695285
vn 0.568872 0.00870333 -0.82238
vn 0.545036 -0.0158445 -0.838263
vn 0.56328 -0.62486 0.540617
vn 0.834353 0.0663405 0.547224
g grp1
usemtl mtl1
f 33//33 36//36 4//4 
f 33//33 4//4 2//2 
f 3//3 8//8 2//2 
f 1//1 3//3 2//2 
f 2//2 4//4 1//1 
f 13//13 8//8 3//3 
f 58//58 6//6 59//59 
f 11//11 5//5 4//4 
f 4//4 5//5 1//1 
f 11//11 10//10 5//5 
f 58//58 5//5 6//6 
f 5//5 7//7 6//6 
f 5//5 10//10 7//7 
f 59//59 6//6 14//14 
f 14//14 6//6 22//22 
f 7//7 22//22 6//6 
f 29//29 2//2 8//8 
f 33//33 2//2 29//29 
f 9//9 8//8 13//13 
f 36//36 11//11 4//4 
f 10//10 11//11 12//12 
f 23//23 10//10 12//12 
f 7//7 10//10 62//62 
f 25//25 23//23 12//12 
f 40//40 27//27 12//12 
f 25//25 12//12 27//27 
f 13//13 59//59 14//14 
f 14//14 22//22 16//16 
f 15//15 13//13 14//14 
f 16//16 15//15 14//14 
f 17//17 60//60 19//19 
f 61//61 13//13 15//15 
f 61//61 9//9 13//13 
f 60//60 16//16 19//19 
f 18//18 9//9 61//61 
f 20//20 18//18 17//17 
f 20//20 17//17 19//19 
f 21//21 20//20 19//19 
f 28//28 21//21 19//19 
f 7//7 62//62 24//24 
f 22//22 7//7 24//24 
f 22//22 24//24 16//16 
f 24//24 62//62 63//63 
f 24//24 26//26 16//16 
f 63//63 26//26 24//24 
f 19//19 16//16 26//26 
f 66//66 28//28 64//64 
f 28//28 19//19 65//65 
f 28//28 65//65 64//64 
f 68//68 28//28 66//66 
f 21//21 28//28 68//68 
f 20//20 21//21 39//39 
f 32//32 18//18 20//20 
f 32//32 20//20 39//39 
f 11//11 67//67 12//12 
f 21//21 68//68 39//39 
f 18//18 32//32 31//31 
f 18//18 31//31 9//9 
f 30//30 8//8 9//9 
f 30//30 9//9 31//31 
f 37//37 29//29 30//30 
f 30//30 29//29 8//8 
f 34//34 37//37 30//30 
f 34//34 30//30 31//31 
f 38//38 34//34 31//31 
f 38//38 31//31 32//32 
f 38//38 32//32 43//43 
f 39//39 43//43 32//32 
f 12//12 67//67 40//40 
f 35//35 37//37 34//34 
f 42//42 29//29 37//37 
f 44//44 40//40 67//67 
f 36//36 33//33 44//44 
f 39//39 46//46 43//43 
f 39//39 68//68 46//46 
f 34//34 38//38 35//35 
f 41//41 33//33 29//29 
f 44//44 33//33 41//41 
f 41//41 29//29 42//42 
f 41//41 42//42 45//45 
f 35//35 45//45 42//42 
f 35//35 42//42 37//37 
f 38//38 43//43 35//35 
f 43//43 70//70 35//35 
f 48//48 43//43 46//46 
f 43//43 73//73 70//70 
f 47//47 69//69 49//49 
f 74//74 50//50 71//71 
f 40//40 44//44 78//78 
f 41//41 72//72 44//44 
f 44//44 72//72 78//78 
f 53//53 70//70 73//73 
f 55//55 53//53 73//73 
f 56//56 87//87 48//48 
f 46//46 56//56 48//48 
f 52//52 51//51 75//75 
f 74//74 80//80 50//50 
f 76//76 41//41 83//83 
f 81//81 54//54 79//79 
f 77//77 84//84 82//82 
f 81//81 57//57 54//54 
f 82//82 84//84 88//88 
f 89//89 90//90 52//52 
f 52//52 90//90 51//51 
f 83//83 41//41 45//45 
f 78//78 85//85 40//40 
f 91//91 46//46 68//68 
f 86//86 91//91 68//68 
f 56//56 46//46 92//92 
f 87//87 56//56 92//92 
