#
# The license for this database is specified in the Creative Commons Attribution-Share Alike 2.1 Japan. If you use data from this database, please be sure attribute this database as follows: "BodyParts3D, (c)  The Database Center for Life Science licensed under CC Attribution-Share Alike 2.1 Japan".
# http://dbarchive.biosciencedbc.jp/en/bodyparts3d/lic.html
#
#
# Compatibility version : 4.0
# File ID : FJ2681
# Representation ID : BP9528
# Build-up logic : FMA 3.0 part_of
# Concept ID : FMA4713
# English name : Middle cardiac vein
# Bounds(mm): (56.038700,-156.520000,1176.920000)-(60.530100,-145.748000,1181.939900)
# Volume(cm3): 0.010200
#
v 56.0387 -145.971 1177.18
v 56.0699 -146.322 1177.41
v 57.4785 -154.376 1179.38
v 57.5745 -154.558 1179.78
v 57.3364 -153.565 1178.78
v 57.3369 -153.374 1178.79
v 57.3539 -153.165 1178.59
v 57.4152 -153.158 1178.78
v 57.3757 -152.951 1178.57
v 57.4226 -152.775 1178.38
v 57.4927 -153.141 1178.38
v 57.4785 -152.448 1178.38
v 57.394 -153.786 1179.19
v 57.6614 -151.961 1178.18
v 57.1256 -147.613 1177.35
v 57.5255 -148.591 1178.14
v 56.0978 -146.172 1177.05
v 56.3503 -146.708 1177.2
v 56.2931 -146.179 1176.92
v 56.2774 -145.965 1176.96
v 56.4921 -146.498 1177
v 56.5282 -146.249 1176.93
v 56.6949 -146.207 1177
v 56.4835 -145.981 1176.94
v 56.8329 -146.109 1177.21
v 56.2194 -146.353 1177.67
v 56.097 -145.886 1177.39
v 56.3573 -146.083 1177.72
v 56.8094 -146.163 1177.62
v 57.4606 -147.377 1177.38
v 56.27 -145.76 1177.19
v 56.4787 -145.763 1177.18
v 56.2974 -145.748 1177.39
v 58.3926 -155.565 1180.98
v 58.9785 -155.765 1180.98
v 57.7042 -154.371 1179.86
v 57.8785 -155.142 1180.18
v 57.8785 -154.965 1180.4
v 58.0496 -154.37 1179.78
v 58.0239 -154.165 1179.38
v 57.9493 -153.947 1179.37
v 58.0785 -155.059 1179.98
v 58.0785 -154.565 1179.66
v 58.4395 -154.965 1180.38
v 58.3371 -154.941 1180.54
v 58.6583 -155.347 1180.58
v 58.4727 -155.156 1180.82
v 58.6786 -155.18 1180.78
v 58.8785 -155.365 1180.84
v 58.8785 -155.365 1181.19
v 57.6786 -153.365 1178.43
v 57.6767 -152.372 1178.09
v 57.8785 -153.165 1178.84
v 57.8785 -152.565 1178.08
v 57.9922 -152.569 1178.58
v 57.8785 -152.365 1178.63
v 58.0785 -152.697 1178.38
v 58.1866 -152.233 1178.18
v 57.6874 -153.771 1179.37
v 57.6989 -151.765 1178.38
v 57.8791 -152.164 1178.01
v 57.8908 -151.759 1178.03
v 57.9272 -151.353 1178.18
v 58.0924 -151.916 1178
v 58.1021 -151.518 1178.6
v 58.1513 -150.93 1178.19
v 58.1417 -150.796 1178.38
v 58.232 -150.809 1178.57
v 58.2785 -152.111 1178.38
v 58.287 -151.59 1178.58
v 58.6387 -150.835 1178.04
v 58.6483 -150.816 1178.64
v 58.8759 -150.816 1178.38
v 58.0582 -149.565 1178.18
v 58.252 -149.965 1178.38
v 58.0846 -149.186 1177.8
v 58.278 -150.378 1178.35
v 58.3648 -150.379 1178.57
v 58.2823 -149.96 1178.14
v 58.2785 -149.165 1178.54
v 58.4439 -150.614 1178.05
v 58.4677 -150.578 1178.68
v 58.4733 -150.165 1178.65
v 58.4785 -149.765 1178.64
v 58.421 -149.272 1177.82
v 58.6773 -150.386 1178.01
v 58.6714 -150.147 1178.68
v 58.6533 -149.965 1177.96
v 58.877 -149.565 1178.38
v 58.6467 -149.12 1178.1
v 58.8853 -150.565 1178.18
v 58.8656 -150.54 1178.59
v 58.9957 -149.965 1178.38
v 58.9083 -149.765 1178.17
v 59.475 -155.565 1181.38
v 59.5455 -156.143 1181.54
v 59.5607 -155.965 1181.78
v 59.4785 -155.609 1181.58
v 59.6786 -155.965 1181.37
v 60.2785 -156.379 1181.58
v 60.2785 -156.52 1181.78
v 60.3275 -156.165 1181.58
v 60.2785 -156.165 1181.94
v 60.5301 -156.165 1181.78
v 56.0387 -145.971 1177.18
v 57.4785 -154.376 1179.38
v 57.4785 -154.376 1179.38
v 57.5745 -154.558 1179.78
v 57.3364 -153.565 1178.78
v 57.4785 -152.448 1178.38
v 56.0978 -146.172 1177.05
v 56.0978 -146.172 1177.05
v 56.3503 -146.708 1177.2
v 56.2931 -146.179 1176.92
v 56.2774 -145.965 1176.96
v 56.2774 -145.965 1176.96
v 56.4835 -145.981 1176.94
v 56.8329 -146.109 1177.21
v 56.097 -145.886 1177.39
v 56.3573 -146.083 1177.72
v 57.4606 -147.377 1177.38
v 56.27 -145.76 1177.19
v 56.27 -145.76 1177.19
v 56.4787 -145.763 1177.18
v 56.4787 -145.763 1177.18
v 56.4787 -145.763 1177.18
v 56.2974 -145.748 1177.39
v 56.2974 -145.748 1177.39
v 56.2974 -145.748 1177.39
v 58.3926 -155.565 1180.98
v 58.3926 -155.565 1180.98
v 58.3926 -155.565 1180.98
v 58.9785 -155.765 1180.98
v 58.9785 -155.765 1180.98
v 57.7042 -154.371 1179.86
v 57.8785 -155.142 1180.18
v 57.8785 -154.965 1180.4
v 57.8785 -154.965 1180.4
v 58.0496 -154.37 1179.78
v 58.0496 -154.37 1179.78
v 58.0239 -154.165 1179.38
v 57.9493 -153.947 1179.37
v 58.0785 -155.059 1179.98
v 58.0785 -155.059 1179.98
v 58.0785 -154.565 1179.66
v 58.0785 -154.565 1179.66
v 58.0785 -154.565 1179.66
v 58.4395 -154.965 1180.38
v 58.4395 -154.965 1180.38
v 58.6786 -155.18 1180.78
v 58.6786 -155.18 1180.78
v 58.8785 -155.365 1180.84
v 58.8785 -155.365 1180.84
v 58.8785 -155.365 1180.84
v 58.8785 -155.365 1181.19
v 58.8785 -155.365 1181.19
v 57.6786 -153.365 1178.43
v 57.8785 -153.165 1178.84
v 57.8785 -153.165 1178.84
v 57.8785 -153.165 1178.84
v 57.8785 -152.365 1178.63
v 57.8785 -152.365 1178.63
v 57.8785 -152.365 1178.63
v 58.0785 -152.697 1178.38
v 57.6989 -151.765 1178.38
v 57.6989 -151.765 1178.38
v 58.1021 -151.518 1178.6
v 58.1417 -150.796 1178.38
v 58.2785 -152.111 1178.38
v 58.2785 -152.111 1178.38
v 58.287 -151.59 1178.58
v 58.6387 -150.835 1178.04
v 58.6483 -150.816 1178.64
v 58.8759 -150.816 1178.38
v 58.0582 -149.565 1178.18
v 58.278 -150.378 1178.35
v 58.2785 -149.165 1178.54
v 58.4439 -150.614 1178.05
v 58.4439 -150.614 1178.05
v 58.4677 -150.578 1178.68
v 58.4733 -150.165 1178.65
v 58.4785 -149.765 1178.64
v 58.4785 -149.765 1178.64
v 58.421 -149.272 1177.82
v 58.6773 -150.386 1178.01
v 58.6533 -149.965 1177.96
v 58.877 -149.565 1178.38
v 58.6467 -149.12 1178.1
v 58.8656 -150.54 1178.59
v 58.8656 -150.54 1178.59
v 58.9957 -149.965 1178.38
v 59.475 -155.565 1181.38
v 59.475 -155.565 1181.38
v 59.5455 -156.143 1181.54
v 59.5455 -156.143 1181.54
v 59.5607 -155.965 1181.78
v 59.4785 -155.609 1181.58
v 59.6786 -155.965 1181.37
v 59.6786 -155.965 1181.37
v 60.2785 -156.379 1181.58
v 60.2785 -156.52 1181.78
v 60.2785 -156.52 1181.78
v 60.2785 -156.52 1181.78
v 60.3275 -156.165 1181.58
v 60.2785 -156.165 1181.94
v 60.2785 -156.165 1181.94
v 60.2785 -156.165 1181.94
v 60.5301 -156.165 1181.78
v 60.5301 -156.165 1181.78
v 60.5301 -156.165 1181.78
vn -0.997204 -0.0589378 0.0459468
vn -0.946204 -0.290401 0.142709
vn -0.0175195 -0.629062 -0.777157
vn -0.945558 -0.287168 0.153146
vn -0.554242 -0.465886 -0.689757
vn -0.964964 0.169756 0.200069
vn -0.988685 0.0281325 -0.147347
vn -0.648399 0.412705 0.639729
vn -0.971883 0.189343 0.139976
vn -0.898387 0.0242857 -0.438534
vn -0.558306 -0.293409 -0.776019
vn -0.64233 0.333834 0.689904
vn -0.86224 0.227088 0.452739
vn -0.839154 0.262352 -0.476436
vn -0.168763 -0.376971 -0.910721
vn -0.737136 -0.336823 0.585816
vn -0.918579 -0.33321 -0.212567
vn -0.840203 -0.506557 -0.193543
vn -0.219055 -0.207688 -0.953352
vn -0.61454 0.330258 -0.716429
vn -0.224762 -0.386983 -0.894274
vn 0.18203 -0.104597 -0.977714
vn 0.570479 0.209456 -0.794155
vn 0.359976 0.297328 -0.884315
vn 0.707803 0.412823 -0.57323
vn -0.699594 -0.0461393 0.713049
vn -0.782756 0.262145 0.564422
vn -0.517823 0.296268 0.802549
vn 0.598169 0.644832 0.4758
vn 0.285365 -0.112645 -0.951776
vn -0.618824 0.752956 -0.223862
vn 0.00690914 0.748573 -0.663016
vn -0.412207 0.603239 0.682779
vn -0.309336 -0.906212 -0.288257
vn -0.252342 -0.898849 -0.358322
vn -0.668833 0.385438 0.635689
vn -0.896304 -0.397414 0.196726
vn -0.886559 -0.360421 0.290017
vn 0.962828 0.26402 -0.0570599
vn 0.875377 -0.162728 -0.45523
vn 0.413585 0.613989 0.672283
vn -0.204503 -0.814833 -0.542426
vn 0.165919 -0.615203 -0.770711
vn 0.825018 0.00199102 -0.565103
vn 0.169724 0.823673 0.54107
vn 0.774495 0.146145 -0.615467
vn -0.0274751 0.823364 0.566848
vn 0.781282 0.43472 -0.447902
vn 0.60968 -0.121748 -0.783242
vn -0.409044 0.437149 0.800989
vn -0.232091 -0.56002 -0.795306
vn -0.588589 -0.0183009 -0.808225
vn 0.0601177 0.514523 0.855366
vn 0.217993 -0.334774 -0.916736
vn 0.756103 -0.00810949 0.654402
vn -0.550292 0.270756 0.789854
vn 0.794026 -0.434553 -0.425072
vn 0.766715 -0.347531 -0.539788
vn -0.00603678 0.640529 0.76791
vn -0.912668 0.368781 -0.176176
vn -0.136182 -0.0573789 -0.989021
vn -0.453678 0.170189 -0.874764
vn -0.797762 0.385767 -0.463423
vn 0.201127 -0.0993121 -0.974518
vn -0.530673 0.144105 0.835236
vn -0.799527 0.37189 -0.471651
vn -0.885438 0.38116 -0.265927
vn -0.681112 0.224251 0.696992
vn 0.800638 -0.27325 0.53321
vn 0.578384 -0.297305 0.759659
vn -0.0631475 -0.00874695 -0.997966
vn 0.643322 -0.354396 0.678631
vn 0.955632 -0.270328 -0.117007
vn -0.836563 -0.374723 0.399681
vn -0.897553 -0.108053 0.427462
vn -0.400902 -0.411865 -0.818318
vn -0.826773 0.325246 -0.458978
vn -0.796003 0.145896 0.587447
vn -0.813522 -0.286128 -0.506273
vn -0.624094 -0.133604 0.769842
vn -0.145735 -0.0145054 -0.989217
vn -0.580074 0.122052 0.805368
vn -0.721992 0.0647964 0.68886
vn -0.73482 -0.047427 0.676602
vn 0.0537249 -0.20683 -0.976901
vn -0.0805033 -0.09377 -0.992334
vn 0.289925 0.112999 0.950355
vn -0.237137 -0.200706 -0.950517
vn 0.517462 0.315895 0.795263
vn 0.741092 0.250027 -0.623113
vn 0.78732 -0.15212 -0.597484
vn 0.682221 -0.416647 0.600815
vn 0.993618 -0.00503893 -0.112685
vn 0.841696 0.149854 -0.518741
vn 0.538287 0.293762 -0.789906
vn -0.308625 -0.90413 -0.295466
vn -0.47706 -0.582175 0.658397
vn 0.341256 0.889131 0.304943
vn -0.00721218 -0.695726 -0.718272
vn 0.624694 -0.273322 -0.731473
vn -0.422235 -0.546082 0.723541
vn 0.46261 -0.00688469 -0.886535
vn -0.302662 -0.391438 0.869006
vn 0.55909 0.60571 -0.566157
vn -0.667591 0.563452 -0.486666
vn -0.970407 -0.222353 0.094176
vn -0.274795 -0.759428 -0.589709
vn -0.754712 0.292908 0.587039
vn -0.998231 -0.0388729 0.044997
vn -0.926344 0.182399 -0.329572
vn -0.521052 -0.447738 -0.726661
vn -0.621417 0.173143 -0.764109
vn -0.464115 -0.480376 -0.744202
vn -0.565387 0.0986169 -0.818909
vn -0.0661563 0.163441 -0.984332
vn 0.00690914 0.748573 -0.663016
vn 0.0067906 0.748626 -0.662958
vn 0.76566 0.63048 0.127514
vn -0.620858 0.782816 -0.0416504
vn 0.271411 0.560205 0.782628
vn 0.749928 0.27275 -0.602673
vn 0.00702767 0.748521 -0.663074
vn 0.0180595 0.998109 -0.0587592
vn 0.621641 0.592292 -0.512594
vn 0.589989 0.766044 0.255125
vn 0.0180595 0.998109 -0.0587592
vn 0.379874 0.762661 0.523493
vn -0.566147 0.823703 0.0314849
vn 0.0180595 0.998109 -0.0587592
vn -0.850427 -0.409876 0.329811
vn -0.482937 0.315966 0.816662
vn -0.571767 -0.637955 0.515846
vn 0.628605 -0.142309 -0.764594
vn 0.14889 -0.745566 -0.649587
vn 0.00938026 0.699681 0.714394
vn -0.242187 -0.854505 -0.459529
vn -0.760585 0.301789 0.574834
vn -0.311474 0.60696 0.731152
vn 0.249525 0.715578 0.652446
vn 0.628677 0.715999 0.303498
vn 0.952365 0.263404 0.153685
vn 0.919937 0.321311 0.224667
vn 0.722763 -0.166788 -0.670668
vn 0.215329 -0.530855 -0.81965
vn 0.830665 -0.238739 -0.50299
vn 0.963244 0.230087 -0.138638
vn 0.731121 -0.370875 -0.572638
vn 0.907356 0.312167 -0.281526
vn 0.555629 0.794973 0.243506
vn 0.288452 0.889508 0.35436
vn 0.679247 0.733909 0
vn 0.688998 0.366358 -0.625352
vn 0.509946 0.860207 0
vn 0.657624 0.54056 -0.524714
vn 0.428317 0.900926 0.0698335
vn 0.173585 0.926607 0.33357
vn 0.836702 -0.32998 -0.437086
vn 0.905296 -0.310321 -0.290067
vn 0.886366 0.313075 0.341086
vn 0.815414 0.0976532 0.570582
vn -0.115439 0.25216 0.960775
vn 0.61989 -0.0155175 0.784535
vn 0.110995 0.00880422 0.993782
vn 0.869877 -0.136586 0.473981
vn -0.542657 0.160879 0.824403
vn -0.826122 0.377333 0.418499
vn 0.0780823 -0.0702421 0.994469
vn -0.85747 0.319432 0.403372
vn 0.909335 -0.364094 -0.20136
vn 0.604089 -0.2219 0.7654
vn 0.0878043 -0.0515802 0.994801
vn 0.615968 -0.222542 -0.755684
vn 0.142646 -0.083719 0.986227
vn 0.696396 -0.3729 0.613171
vn -0.715694 -0.507332 -0.479996
vn -0.997806 -0.000169116 0.0662077
vn 0.397756 0.360962 0.843502
vn -0.676937 0.350563 -0.647195
vn -0.914957 -0.173931 -0.364145
vn 0.0143416 -0.0298293 0.999452
vn -0.141354 0.0473202 0.988828
vn -0.139157 0.0211527 0.990044
vn 0.382932 0.274608 0.882017
vn 0.686337 0.159904 -0.709488
vn 0.575274 -0.0874546 -0.813272
vn 0.624008 -0.0139661 -0.781293
vn 0.915507 0.399404 -0.0482069
vn 0.87358 0.485322 0.0363401
vn 0.480843 0.0382381 0.875972
vn 0.963276 -0.134883 0.232175
vn 0.615276 0.156805 0.772559
vn 0.336302 0.932584 0.131101
vn 0.55909 0.60571 -0.566157
vn -0.544546 -0.653483 0.525765
vn -0.0825738 -0.736347 -0.671547
vn -0.315305 0.387163 0.866422
vn -0.229382 0.436079 0.870183
vn 0.432755 -0.19955 -0.879149
vn 0.465099 0.175943 -0.867598
vn -0.197717 -0.716604 -0.66887
vn -0.228613 -0.795748 -0.560822
vn 0.755548 -0.535469 -0.377385
vn 0.501393 -0.355346 0.788881
vn 0.55909 0.60571 -0.566157
vn 0.324187 0.796702 0.510068
vn -0.061982 0.478073 0.87613
vn 0.501393 -0.355346 0.788881
vn 0.383662 0.852984 0.353866
vn 0.748541 -0.358606 -0.557752
vn 0.501393 -0.355346 0.788881
g grp1
usemtl mtl1
f 18//18 2//2 17//17 
f 17//17 2//2 1//1 
f 1//1 2//2 27//27 
f 31//31 105//105 119//119 
f 2//2 26//26 27//27 
f 51//51 3//3 5//5 
f 4//4 13//13 106//106 
f 106//106 13//13 109//109 
f 4//4 106//106 37//37 
f 37//37 38//38 4//4 
f 108//108 137//137 36//36 
f 36//36 13//13 108//108 
f 59//59 13//13 36//36 
f 11//11 51//51 5//5 
f 11//11 5//5 7//7 
f 109//109 6//6 7//7 
f 6//6 8//8 7//7 
f 11//11 7//7 10//10 
f 7//7 9//9 10//10 
f 8//8 9//9 7//7 
f 8//8 12//12 9//9 
f 110//110 10//10 9//9 
f 52//52 11//11 10//10 
f 110//110 52//52 10//10 
f 8//8 56//56 12//12 
f 8//8 6//6 13//13 
f 13//13 6//6 109//109 
f 8//8 13//13 59//59 
f 52//52 110//110 14//14 
f 14//14 110//110 60//60 
f 22//22 30//30 15//15 
f 74//74 16//16 2//2 
f 16//16 26//26 2//2 
f 26//26 16//16 80//80 
f 19//19 21//21 113//113 
f 111//111 19//19 113//113 
f 20//20 114//114 112//112 
f 112//112 105//105 20//20 
f 20//20 105//105 31//31 
f 15//15 113//113 21//21 
f 22//22 21//21 19//19 
f 22//22 19//19 24//24 
f 24//24 19//19 115//115 
f 32//32 117//117 116//116 
f 15//15 175//175 113//113 
f 22//22 15//15 21//21 
f 24//24 23//23 22//22 
f 25//25 121//121 23//23 
f 23//23 30//30 22//22 
f 24//24 25//25 23//23 
f 25//25 24//24 124//124 
f 29//29 118//118 125//125 
f 80//80 28//28 26//26 
f 28//28 27//27 26//26 
f 28//28 33//33 27//27 
f 18//18 74//74 2//2 
f 177//177 29//29 120//120 
f 29//29 127//127 120//120 
f 121//121 25//25 90//90 
f 188//188 118//118 29//29 
f 31//31 119//119 128//128 
f 32//32 116//116 122//122 
f 123//123 129//129 126//126 
f 29//29 125//125 127//127 
f 42//42 35//35 136//136 
f 143//143 46//46 133//133 
f 136//136 35//35 34//34 
f 130//130 38//38 37//37 
f 131//131 50//50 138//138 
f 34//34 35//35 96//96 
f 132//132 194//194 97//97 
f 131//131 196//196 50//50 
f 133//133 46//46 49//49 
f 134//134 99//99 195//195 
f 49//49 198//198 133//133 
f 95//95 199//199 152//152 
f 192//192 153//153 155//155 
f 136//136 107//107 42//42 
f 3//3 51//51 43//43 
f 43//43 144//144 3//3 
f 157//157 40//40 145//145 
f 146//146 141//141 39//39 
f 139//139 59//59 135//135 
f 59//59 139//139 41//41 
f 142//142 39//39 141//141 
f 147//147 44//44 143//143 
f 148//148 146//146 39//39 
f 45//45 149//149 140//140 
f 135//135 45//45 139//139 
f 45//45 135//135 138//138 
f 143//143 44//44 46//46 
f 48//48 46//46 44//44 
f 45//45 150//150 149//149 
f 138//138 47//47 45//45 
f 47//47 156//156 150//150 
f 50//50 47//47 138//138 
f 47//47 150//150 45//45 
f 154//154 46//46 48//48 
f 153//153 151//151 155//155 
f 54//54 51//51 11//11 
f 53//53 8//8 59//59 
f 54//54 11//11 52//52 
f 53//53 161//161 8//8 
f 54//54 52//52 61//61 
f 157//157 158//158 40//40 
f 159//159 142//142 141//141 
f 157//157 54//54 57//57 
f 157//157 57//57 158//158 
f 69//69 55//55 164//164 
f 55//55 160//160 164//164 
f 57//57 54//54 58//58 
f 160//160 55//55 162//162 
f 58//58 54//54 64//64 
f 64//64 54//54 61//61 
f 57//57 58//58 169//169 
f 55//55 170//170 162//162 
f 41//41 53//53 59//59 
f 61//61 52//52 62//62 
f 62//62 52//52 14//14 
f 14//14 63//63 62//62 
f 60//60 63//63 14//14 
f 165//165 12//12 56//56 
f 64//64 61//61 62//62 
f 64//64 62//62 81//81 
f 178//178 62//62 63//63 
f 165//165 56//56 65//65 
f 68//68 165//165 65//65 
f 60//60 67//67 63//63 
f 166//166 68//68 168//168 
f 66//66 63//63 67//67 
f 70//70 162//162 170//170 
f 167//167 163//163 171//171 
f 64//64 81//81 71//71 
f 66//66 178//178 63//63 
f 66//66 77//77 178//178 
f 66//66 67//67 77//77 
f 82//82 68//68 65//65 
f 58//58 64//64 172//172 
f 170//170 72//72 70//70 
f 171//171 173//173 167//167 
f 71//71 81//81 86//86 
f 173//173 180//180 167//167 
f 169//169 58//58 73//73 
f 72//72 170//170 174//174 
f 92//92 72//72 174//174 
f 58//58 172//172 91//91 
f 91//91 172//172 185//185 
f 73//73 58//58 91//91 
f 74//74 80//80 16//16 
f 15//15 76//76 175//175 
f 168//168 78//78 176//176 
f 79//79 176//176 75//75 
f 175//175 76//76 79//79 
f 79//79 75//75 175//175 
f 75//75 80//80 74//74 
f 85//85 15//15 30//30 
f 85//85 76//76 15//15 
f 78//78 168//168 68//68 
f 82//82 83//83 78//78 
f 68//68 82//82 78//78 
f 179//179 176//176 79//79 
f 81//81 79//79 88//88 
f 176//176 78//78 75//75 
f 83//83 84//84 75//75 
f 78//78 83//83 75//75 
f 79//79 76//76 88//88 
f 75//75 84//84 80//80 
f 88//88 76//76 85//85 
f 173//173 87//87 180//180 
f 87//87 181//181 180//180 
f 88//88 86//86 81//81 
f 87//87 182//182 181//181 
f 87//87 177//177 183//183 
f 177//177 89//89 29//29 
f 188//188 29//29 187//187 
f 189//189 87//87 173//173 
f 91//91 185//185 186//186 
f 91//91 186//186 94//94 
f 186//186 184//184 94//94 
f 94//94 184//184 90//90 
f 94//94 188//188 187//187 
f 184//184 121//121 90//90 
f 73//73 91//91 93//93 
f 73//73 93//93 190//190 
f 91//91 94//94 93//93 
f 189//189 191//191 87//87 
f 93//93 94//94 187//187 
f 177//177 87//87 89//89 
f 89//89 87//87 191//191 
f 192//192 155//155 98//98 
f 197//197 50//50 196//196 
f 101//101 97//97 194//194 
f 199//199 102//102 100//100 
f 195//195 99//99 200//200 
f 201//201 195//195 200//200 
f 102//102 199//199 95//95 
f 97//97 101//101 103//103 
f 193//193 104//104 204//204 
f 208//208 98//98 205//205 
f 206//206 197//197 196//196 
f 208//208 192//192 98//98 
f 209//209 202//202 100//100 
f 207//207 203//203 210//210 
f 102//102 209//209 100//100 
