#
# The license for this database is specified in the Creative Commons Attribution-Share Alike 2.1 Japan. If you use data from this database, please be sure attribute this database as follows: "BodyParts3D, (c)  The Database Center for Life Science licensed under CC Attribution-Share Alike 2.1 Japan".
# http://dbarchive.biosciencedbc.jp/en/bodyparts3d/lic.html
#
#
# Compatibility version : 4.0
# File ID : FJ3069
# Representation ID : BP10090
# Build-up logic : FMA 3.0 part_of
# Concept ID : FMA8663
# English name : Right posterior segmental vein
# Bounds(mm): (-55.536500,-107.818000,1248.060100)-(-30.460700,-89.179900,1278.689900)
# Volume(cm3): 0.972900
#
v -53.6619 -102.144 1270.53
v -54.3675 -100.331 1270.65
v -54.1428 -100.686 1271.93
v -55.3574 -95.6847 1273.53
v -54.343 -95.5345 1275.72
v -55.0068 -94.4763 1272.37
v -55.3126 -92.3965 1276.83
v -54.4077 -92.5727 1277.98
v -55.5273 -91.6071 1275.61
v -55.5365 -91.5551 1276.46
v -55.2716 -91.394 1277.35
v -55.3137 -90.6802 1275.7
v -55.3783 -90.6445 1276.56
v -55.0847 -90.5624 1277.37
v -54.9315 -90.3422 1275.25
v -54.8658 -89.8511 1276.57
v -54.7875 -89.8572 1275.79
v -54.3639 -90.5455 1274.43
v -54.4038 -89.7546 1275.35
v -54.3801 -89.4675 1276.57
v -54.4237 -89.7068 1277.35
v -54.0291 -89.4118 1275.78
v -53.9855 -89.4561 1277.34
v -54.3824 -91.0085 1278.3
v -54.3958 -90.1951 1277.95
v -53.9997 -89.7061 1277.77
v -51.2879 -102.21 1267.21
v -53.2803 -102.09 1269.03
v -52.2507 -103.754 1269
v -53.0719 -102.508 1271.41
v -51.1084 -101.773 1272.96
v -53.545 -99.5607 1269.12
v -51.6448 -98.6569 1268.58
v -52.8698 -99.5636 1274.06
v -50.8256 -99.9291 1273.66
v -52.6955 -96.3206 1275.79
v -50.698 -95.5308 1274.94
v -53.5719 -93.2793 1271.78
v -52.4088 -92.7096 1272.05
v -51.7597 -94.1183 1271.28
v -51.5824 -92.1252 1273
v -53.2353 -93.0912 1278.16
v -52.8008 -92.1623 1278.64
v -52.0029 -93.0566 1277.91
v -53.227 -91.4354 1273.08
v -53.5831 -89.7096 1274.96
v -53.1872 -89.2759 1275.78
v -53.2359 -89.1799 1276.6
v -52.4257 -90.1982 1274.45
v -52.4033 -89.5563 1275.38
v -52.4197 -89.4451 1277.36
v -52.0524 -89.4428 1276.54
v -51.6222 -90.2441 1274.94
v -51.328 -90.2017 1277.37
v -50.9836 -90.7696 1275.21
v -51.2559 -90.0979 1275.78
v -51.0352 -90.217 1276.57
v -50.6305 -91.9741 1276.86
v -50.5974 -91.1533 1276.03
v -50.7228 -90.9805 1276.99
v -53.6137 -91.8184 1278.65
v -53.6139 -90.201 1278.35
v -53.1908 -91.0123 1278.69
v -53.227 -89.5157 1277.74
v -52.4419 -90.2045 1278.29
v -51.6596 -91.3808 1278.28
v -49.025 -105.364 1266.6
v -47.4783 -106.807 1267.25
v -50.2335 -104.809 1270.77
v -49.5578 -105.958 1268.21
v -48.0941 -101.788 1266.2
v -48.9819 -103.023 1271.96
v -47.9183 -102.176 1271.42
v -49.9107 -100.199 1267.64
v -49.6879 -98.3756 1269.86
v -48.7995 -99.5222 1269.32
v -48.3581 -100.096 1270.55
v -49.9402 -101.334 1272.76
v -49.8057 -99.0044 1272.96
v -49.2477 -98.9533 1271.75
v -48.7967 -100.561 1271.74
v -50.4607 -95.9916 1271.15
v -49.6856 -97.971 1272.67
v -49.8845 -96.631 1272.13
v -50.2172 -94.917 1273.85
v -50.4076 -94.4039 1272.75
v -44.5861 -105.577 1263.67
v -44.7289 -107.53 1266.47
v -44.7654 -107.469 1267.74
v -47.2186 -106.953 1268.2
v -46.4283 -106.684 1269.31
v -46.1558 -105.947 1269.98
v -45.7508 -103.361 1264.43
v -45.5039 -102.342 1269.75
v -44.5605 -104.485 1269.96
v -46.8866 -100.866 1267.72
v -46.9069 -101.073 1269.65
v -42.7428 -107.813 1266.1
v -41.7712 -105.946 1260.96
v -43.6618 -107.033 1264.13
v -42.0626 -107.56 1266.96
v -44.0617 -107.044 1268.56
v -42.023 -106.173 1268.35
v -42.0833 -104.129 1261.02
v -43.9302 -102.45 1264.04
v -43.6961 -104.135 1262.85
v -42.2704 -102.933 1262.14
v -42.0148 -101.709 1264.57
v -40.1704 -107.781 1262.75
v -40.4067 -107.818 1264.94
v -39.2018 -107.049 1259.77
v -37.9643 -107.443 1260.92
v -39.6592 -107.234 1265.72
v -37.706 -102.075 1253.45
v -39.9925 -103.661 1257.56
v -39.2863 -102.196 1257.04
v -40.8444 -102.966 1259.91
v -40.2668 -102.998 1258.63
v -40.3847 -102.076 1260.93
v -39.8159 -102.176 1258.94
v -38.8212 -101.486 1261.23
v -37.9743 -101.522 1261.35
v -40.8591 -101.867 1262.9
v -38.8148 -101.778 1262.57
v -40.6262 -104.34 1267.42
v -38.1914 -101.083 1254.67
v -38.6152 -101.112 1256.92
v -37.869 -100.399 1257.58
v -38.8738 -101.301 1259.34
v -36.2853 -105.604 1256.26
v -36.4689 -106.668 1258.62
v -35.6622 -106.4 1259.77
v -35.4936 -105.707 1261.05
v -37.6208 -105.767 1264.56
v -37.3775 -107.073 1262.61
v -37.59 -103.741 1254.36
v -36.4251 -102.297 1261.49
v -35.6521 -103.278 1261.39
v -34.725 -98.5999 1248.61
v -35.3534 -99.9354 1249.7
v -37.0207 -100.597 1259.29
v -36.1239 -98.418 1250.55
v -35.3733 -98.3141 1249.13
v -35.515 -97.1445 1250.38
v -35.008 -97.0464 1249.03
v -35.0044 -96.6224 1250.99
v -34.4853 -96.2425 1249.43
v -34.9316 -96.967 1252.52
v -34.3625 -105.196 1257.07
v -33.6982 -104.036 1258.29
v -33.2335 -99.3925 1248.54
v -32.0456 -99.0007 1248.51
v -34.5015 -100.407 1249.55
v -32.225 -101.052 1250.14
v -34.3747 -97.4391 1248.32
v -33.974 -96.6186 1248.41
v -33.2143 -98.2116 1248.11
v -32.8396 -97.3885 1248.06
v -32.463 -96.5925 1248.33
v -32.0486 -98.1592 1248.26
v -31.3019 -98.2117 1248.6
v -31.6586 -97.3826 1248.39
v -33.5573 -95.9544 1249.02
v -33.663 -95.8675 1250.58
v -33.7481 -96.3946 1252.03
v -32.7664 -96.0265 1251.03
v -32.8157 -95.7637 1249.79
v -32.4169 -95.9936 1249.01
v -31.6973 -96.218 1249.78
v -31.6222 -96.453 1248.98
v -33.4222 -97.4023 1253.74
v -31.917 -98.0415 1253.24
v -31.2302 -99.3913 1249.09
v -30.5577 -98.5918 1249.39
v -30.6509 -100.292 1251.2
v -30.6417 -99.1853 1251.87
v -30.9332 -97.4211 1249
v -30.9785 -97.0514 1250.62
v -30.8699 -97.0138 1249.74
v -30.4607 -97.8677 1249.86
v -48.0941 -101.788 1266.2
v -49.9107 -100.199 1267.64
v -48.7995 -99.5222 1269.32
v -46.8866 -100.866 1267.72
v -42.0148 -101.709 1264.57
vn -0.856002 -0.516904 0.00841666
vn -0.956055 -0.176556 -0.234068
vn -0.820256 -0.437604 0.368352
vn -0.981003 -0.173851 0.0860761
vn -0.591952 -0.485328 0.643467
vn -0.837668 0.239617 -0.490811
vn -0.869264 -0.280538 0.407037
vn -0.595189 -0.339558 0.72832
vn -0.980548 0.137805 -0.139769
vn -0.989147 -0.00407506 0.14687
vn -0.874404 -0.00298812 0.485189
vn -0.880799 0.414386 -0.229079
vn -0.943974 0.311487 0.109038
vn -0.79823 0.393071 0.456425
vn -0.719804 0.518187 -0.461914
vn -0.762775 0.640538 0.0887991
vn -0.663873 0.717217 -0.211831
vn -0.494536 0.584053 -0.643674
vn -0.474028 0.748421 -0.463857
vn -0.460746 0.886292 0.0469022
vn -0.595925 0.709436 0.376263
vn -0.307605 0.920241 -0.241942
vn -0.292894 0.901241 0.31934
vn -0.554369 0.124363 0.822927
vn -0.558975 0.489459 0.669311
vn -0.344308 0.725564 0.595826
vn -0.49925 0.0669747 -0.863866
vn -0.819879 -0.282221 -0.498147
vn -0.722934 -0.652673 -0.226682
vn -0.576151 -0.666591 0.472976
vn 0.0364294 -0.491364 0.870192
vn -0.665974 0.156286 -0.72942
vn -0.0315813 0.485026 -0.873929
vn -0.37605 -0.523872 0.764294
vn 0.478885 -0.273775 0.834096
vn 0.124396 -0.492242 0.861524
vn 0.771921 -0.231956 0.59189
vn -0.370602 0.477654 -0.796555
vn 0.143786 0.597343 -0.788991
vn 0.461175 0.522736 -0.716983
vn 0.578822 0.554057 -0.59832
vn -0.134548 -0.52658 0.839411
vn 0.158555 -0.251634 0.954746
vn 0.477515 -0.437493 0.761958
vn -0.11997 0.668258 -0.734192
vn -0.123333 0.814488 -0.566921
vn 0.045625 0.963207 -0.264859
vn -0.0351456 0.996571 0.0749106
vn 0.234291 0.729261 -0.642873
vn 0.300725 0.865344 -0.400928
vn 0.317176 0.869134 0.37948
vn 0.429623 0.903008 0.000344534
vn 0.535095 0.684873 -0.494593
vn 0.656984 0.596829 0.460616
vn 0.786328 0.492028 -0.373625
vn 0.681756 0.692653 -0.235457
vn 0.785478 0.615185 0.0676171
vn 0.904792 -0.119266 0.408812
vn 0.953902 0.292695 -0.0663299
vn 0.89979 0.262037 0.348877
vn -0.275979 -0.190031 0.942191
vn -0.199878 0.504175 0.840153
vn -0.00197036 0.164626 0.986354
vn -0.0179877 0.840586 0.54138
vn 0.29173 0.539063 0.790129
vn 0.589747 0.0492176 0.806087
vn -0.56794 -0.551132 -0.611309
vn -0.402592 -0.869308 -0.286745
vn -0.336006 -0.789316 0.513888
vn -0.531986 -0.84195 -0.0900623
vn -0.340469 0.416007 -0.84322
vn 0.340771 -0.22679 0.912382
vn 0.573252 0.223715 0.788247
vn -0.262442 0.371646 -0.890507
vn 0.717795 0.577333 -0.389174
vn 0.348132 0.766467 -0.539752
vn 0.780547 0.586627 0.215907
vn 0.514601 -0.138618 0.84615
vn 0.808563 -0.0288089 0.587704
vn 0.931104 0.282227 0.23107
vn 0.771321 0.242047 0.588623
vn 0.781592 0.436739 -0.445391
vn 0.950871 0.0823988 0.298421
vn 0.956836 0.276865 -0.0883799
vn 0.990461 0.0728463 0.116959
vn 0.899803 0.326632 -0.289251
vn -0.617422 -0.196273 -0.761752
vn -0.240327 -0.961276 -0.134876
vn -0.0563278 -0.964467 0.25813
vn -0.280917 -0.945728 0.163353
vn -0.0656708 -0.835789 0.54511
vn 0.167811 -0.518806 0.83826
vn -0.446807 0.278305 -0.850241
vn 0.527703 0.468054 0.708841
vn 0.462404 0.00286693 0.886665
vn 0.0869998 0.850919 -0.518043
vn 0.585764 0.703893 0.401766
vn -0.034297 -0.99693 0.0703833
vn -0.711589 -0.3792 -0.591479
vn -0.447902 -0.751994 -0.483621
vn 0.224896 -0.871772 0.435241
vn 0.179195 -0.756155 0.629379
vn 0.480683 -0.3866 0.787074
vn -0.774693 0.250487 -0.580609
vn -0.429755 0.642213 -0.634722
vn -0.643932 0.220627 -0.732581
vn -0.579859 0.669557 -0.464174
vn -0.160968 0.918965 -0.359989
vn -0.0574275 -0.988624 -0.139012
vn 0.216296 -0.961748 0.1681
vn -0.265343 -0.857771 -0.440253
vn 0.207363 -0.973477 -0.0966559
vn 0.513523 -0.690642 0.509223
vn -0.832574 -0.131012 -0.538198
vn -0.884333 0.152273 -0.441325
vn -0.862301 0.436078 -0.257437
vn -0.73651 0.563269 -0.374542
vn -0.816152 0.451058 -0.361168
vn -0.531917 0.824951 -0.191102
vn -0.746785 0.628283 -0.218114
vn -0.22106 0.962187 0.15915
vn 0.183293 0.898215 0.399518
vn -0.263451 0.945955 -0.189113
vn 0.188156 0.929801 0.316335
vn 0.582403 0.446463 0.679321
vn -0.90732 0.301575 -0.292956
vn -0.801256 0.592866 -0.0806208
vn -0.548146 0.822047 0.154191
vn -0.591602 0.806169 -0.00994057
vn 0.0214177 -0.855038 -0.518123
vn 0.241862 -0.932055 -0.26977
vn 0.627303 -0.77524 0.0741122
vn 0.831825 -0.372403 0.411561
vn 0.752613 -0.229551 0.617155
vn 0.519697 -0.819272 0.242297
vn -0.484193 -0.607597 -0.62959
vn 0.450707 0.690344 0.565941
vn 0.787437 0.218529 0.576357
vn -0.426112 -0.289579 -0.857072
vn -0.598008 -0.390419 -0.699971
vn -0.0622325 0.898309 0.434935
vn -0.906124 0.257517 -0.335595
vn -0.773924 -0.0190153 -0.632993
vn -0.808524 0.569905 -0.146622
vn -0.758013 0.407366 -0.509382
vn -0.613917 0.783664 0.0947471
vn -0.568977 0.78896 -0.231965
vn -0.405773 0.866594 0.290453
vn 0.592317 -0.786117 -0.17658
vn 0.899001 -0.313307 0.305999
vn -0.0509574 -0.507142 -0.860355
vn 0.252077 -0.416383 -0.873546
vn -0.231749 -0.640797 -0.731896
vn 0.282456 -0.749468 -0.598762
vn -0.441018 0.0945796 -0.892501
vn -0.336446 0.52873 -0.779262
vn -0.0520424 -0.209437 -0.976436
vn 0.0466111 0.108453 -0.993008
vn 0.18485 0.547954 -0.815829
vn 0.270318 -0.143036 -0.952087
vn 0.55561 -0.139382 -0.819677
vn 0.46534 0.190438 -0.864403
vn -0.170041 0.898017 -0.405773
vn -0.244564 0.958744 0.144908
vn -0.0827292 0.907285 0.412297
vn 0.312758 0.876641 0.365628
vn 0.137943 0.990415 -0.0071143
vn 0.271075 0.880542 -0.388797
vn 0.538121 0.842204 0.0334412
vn 0.597374 0.639607 -0.483784
vn 0.264488 0.799617 0.539128
vn 0.64303 0.549779 0.533156
vn 0.564711 -0.488508 -0.665178
vn 0.858795 -0.149631 -0.489981
vn 0.891383 -0.436952 -0.120457
vn 0.918701 0.146268 0.36687
vn 0.785587 0.272321 -0.555603
vn 0.75415 0.581865 0.304452
vn 0.808222 0.577973 -0.112804
vn 0.978671 0.199594 -0.0486335
vn -0.0352517 0.837588 -0.545164
vn 0.296952 0.757788 -0.581014
vn 0.680515 0.728477 0.0788691
vn 0.43905 0.892825 0.100494
vn 0.384316 0.848062 0.364818
g grp1
usemtl mtl1
f 2//2 1//1 3//3 
f 30//30 3//3 1//1 
f 28//28 1//1 2//2 
f 6//6 32//32 2//2 
f 32//32 28//28 2//2 
f 6//6 2//2 4//4 
f 4//4 3//3 5//5 
f 2//2 3//3 4//4 
f 32//32 6//6 38//38 
f 38//38 6//6 18//18 
f 32//32 38//38 33//33 
f 5//5 7//7 4//4 
f 4//4 9//9 6//6 
f 5//5 8//8 7//7 
f 7//7 8//8 11//11 
f 8//8 24//24 11//11 
f 8//8 61//61 24//24 
f 8//8 42//42 61//61 
f 18//18 6//6 15//15 
f 4//4 10//10 9//9 
f 4//4 7//7 10//10 
f 7//7 11//11 10//10 
f 9//9 10//10 13//13 
f 10//10 11//11 13//13 
f 11//11 14//14 13//13 
f 6//6 9//9 12//12 
f 9//9 13//13 12//12 
f 15//15 6//6 12//12 
f 15//15 12//12 17//17 
f 16//16 17//17 12//12 
f 16//16 12//12 13//13 
f 18//18 15//15 19//19 
f 17//17 19//19 15//15 
f 14//14 16//16 13//13 
f 14//14 25//25 21//21 
f 17//17 16//16 20//20 
f 16//16 14//14 21//21 
f 20//20 16//16 21//21 
f 18//18 19//19 46//46 
f 46//46 19//19 22//22 
f 22//22 19//19 17//17 
f 20//20 22//22 17//17 
f 48//48 22//22 20//20 
f 20//20 23//23 48//48 
f 20//20 21//21 23//23 
f 21//21 25//25 26//26 
f 21//21 26//26 23//23 
f 47//47 22//22 48//48 
f 14//14 11//11 24//24 
f 25//25 14//14 24//24 
f 63//63 24//24 61//61 
f 62//62 24//24 63//63 
f 62//62 25//25 24//24 
f 62//62 26//26 25//25 
f 67//67 70//70 29//29 
f 70//70 69//69 29//29 
f 28//28 27//27 29//29 
f 67//67 29//29 27//27 
f 87//87 67//67 27//27 
f 29//29 1//1 28//28 
f 30//30 1//1 29//29 
f 30//30 29//29 69//69 
f 34//34 3//3 30//30 
f 34//34 30//30 31//31 
f 31//31 30//30 69//69 
f 33//33 74//74 27//27 
f 27//27 74//74 71//71 
f 28//28 32//32 27//27 
f 31//31 35//35 36//36 
f 36//36 35//35 37//37 
f 31//31 36//36 34//34 
f 75//75 33//33 40//40 
f 82//82 40//40 41//41 
f 37//37 83//83 85//85 
f 3//3 34//34 5//5 
f 36//36 5//5 34//34 
f 5//5 36//36 42//42 
f 42//42 36//36 44//44 
f 36//36 37//37 44//44 
f 37//37 79//79 83//83 
f 27//27 32//32 33//33 
f 39//39 33//33 38//38 
f 45//45 39//39 38//38 
f 40//40 33//33 39//39 
f 39//39 45//45 49//49 
f 39//39 41//41 40//40 
f 41//41 39//39 49//49 
f 82//82 41//41 86//86 
f 41//41 55//55 86//86 
f 58//58 44//44 37//37 
f 37//37 85//85 58//58 
f 8//8 5//5 42//42 
f 43//43 61//61 42//42 
f 42//42 44//44 43//43 
f 18//18 45//45 38//38 
f 46//46 45//45 18//18 
f 49//49 45//45 46//46 
f 26//26 64//64 23//23 
f 46//46 22//22 47//47 
f 64//64 48//48 23//23 
f 46//46 50//50 49//49 
f 46//46 47//47 50//50 
f 47//47 52//52 50//50 
f 64//64 51//51 48//48 
f 64//64 65//65 51//51 
f 52//52 47//47 48//48 
f 53//53 49//49 50//50 
f 56//56 50//50 52//52 
f 56//56 53//53 50//50 
f 51//51 52//52 48//48 
f 53//53 41//41 49//49 
f 51//51 65//65 54//54 
f 51//51 54//54 52//52 
f 41//41 53//53 55//55 
f 54//54 66//66 60//60 
f 54//54 65//65 66//66 
f 55//55 53//53 56//56 
f 55//55 59//59 86//86 
f 55//55 56//56 59//59 
f 59//59 56//56 57//57 
f 57//57 54//54 60//60 
f 52//52 57//57 56//56 
f 54//54 57//57 52//52 
f 44//44 58//58 66//66 
f 85//85 86//86 59//59 
f 85//85 59//59 58//58 
f 58//58 59//59 60//60 
f 58//58 60//60 66//66 
f 57//57 60//60 59//59 
f 43//43 63//63 61//61 
f 65//65 62//62 63//63 
f 62//62 64//64 26//26 
f 65//65 64//64 62//62 
f 66//66 63//63 43//43 
f 44//44 66//66 43//43 
f 63//63 66//66 65//65 
f 70//70 67//67 68//68 
f 70//70 68//68 90//90 
f 68//68 67//67 100//100 
f 68//68 88//88 90//90 
f 90//90 69//69 70//70 
f 91//91 69//69 90//90 
f 69//69 91//91 92//92 
f 69//69 92//92 31//31 
f 93//93 27//27 71//71 
f 27//27 93//93 87//87 
f 94//94 73//73 95//95 
f 31//31 78//78 35//35 
f 31//31 72//72 78//78 
f 72//72 73//73 78//78 
f 72//72 95//95 73//73 
f 76//76 96//96 182//182 
f 96//96 181//181 182//182 
f 182//182 33//33 75//75 
f 76//76 182//182 75//75 
f 80//80 77//77 75//75 
f 77//77 80//80 81//81 
f 75//75 77//77 183//183 
f 97//97 77//77 81//81 
f 183//183 77//77 97//97 
f 37//37 35//35 79//79 
f 78//78 79//79 35//35 
f 80//80 83//83 79//79 
f 78//78 81//81 79//79 
f 81//81 80//80 79//79 
f 78//78 73//73 81//81 
f 73//73 97//97 81//81 
f 40//40 82//82 75//75 
f 83//83 84//84 85//85 
f 80//80 75//75 84//84 
f 80//80 84//84 83//83 
f 82//82 84//84 75//75 
f 82//82 86//86 84//84 
f 84//84 86//86 85//85 
f 100//100 88//88 68//68 
f 100//100 67//67 87//87 
f 88//88 89//89 90//90 
f 89//89 91//91 90//90 
f 102//102 91//91 89//89 
f 101//101 102//102 89//89 
f 31//31 92//92 72//72 
f 91//91 102//102 92//92 
f 92//92 102//102 103//103 
f 92//92 103//103 95//95 
f 87//87 93//93 106//106 
f 93//93 71//71 105//105 
f 105//105 181//181 108//108 
f 181//181 96//96 108//108 
f 92//92 95//95 72//72 
f 97//97 73//73 94//94 
f 185//185 184//184 97//97 
f 97//97 184//184 183//183 
f 109//109 110//110 98//98 
f 110//110 101//101 98//98 
f 100//100 87//87 99//99 
f 88//88 109//109 98//98 
f 98//98 89//89 88//88 
f 101//101 89//89 98//98 
f 102//102 101//101 103//103 
f 103//103 125//125 95//95 
f 104//104 99//99 87//87 
f 117//117 104//104 107//107 
f 119//119 117//117 107//107 
f 104//104 115//115 99//99 
f 106//106 93//93 105//105 
f 105//105 108//108 123//123 
f 104//104 106//106 105//105 
f 106//106 104//104 87//87 
f 107//107 104//104 105//105 
f 107//107 105//105 123//123 
f 107//107 123//123 119//119 
f 124//124 123//123 108//108 
f 124//124 185//185 125//125 
f 185//185 97//97 125//125 
f 125//125 97//97 94//94 
f 94//94 95//95 125//125 
f 135//135 110//110 109//109 
f 113//113 110//110 135//135 
f 111//111 100//100 99//99 
f 136//136 111//111 99//99 
f 109//109 100//100 111//111 
f 111//111 112//112 109//109 
f 109//109 88//88 100//100 
f 109//109 112//112 135//135 
f 134//134 113//113 135//135 
f 110//110 113//113 101//101 
f 113//113 103//103 101//101 
f 103//103 134//134 125//125 
f 103//103 113//113 134//134 
f 134//134 138//138 125//125 
f 116//116 118//118 120//120 
f 126//126 115//115 116//116 
f 118//118 116//116 115//115 
f 116//116 120//120 127//127 
f 114//114 99//99 115//115 
f 99//99 114//114 136//136 
f 115//115 126//126 114//114 
f 115//115 104//104 118//118 
f 117//117 118//118 104//104 
f 120//120 118//118 117//117 
f 120//120 117//117 119//119 
f 121//121 119//119 123//123 
f 127//127 120//120 129//129 
f 129//129 120//120 119//119 
f 121//121 129//129 119//119 
f 121//121 124//124 122//122 
f 121//121 123//123 124//124 
f 125//125 137//137 124//124 
f 137//137 122//122 124//124 
f 138//138 137//137 125//125 
f 126//126 116//116 127//127 
f 128//128 127//127 129//129 
f 129//129 121//121 128//128 
f 128//128 121//121 141//141 
f 130//130 111//111 136//136 
f 130//130 149//149 131//131 
f 154//154 149//149 130//130 
f 149//149 150//150 132//132 
f 111//111 130//130 131//131 
f 111//111 131//131 112//112 
f 135//135 112//112 132//132 
f 132//132 112//112 131//131 
f 133//133 135//135 132//132 
f 149//149 132//132 131//131 
f 132//132 150//150 133//133 
f 135//135 133//133 134//134 
f 134//134 133//133 138//138 
f 138//138 133//133 150//150 
f 114//114 140//140 136//136 
f 136//136 153//153 130//130 
f 153//153 136//136 140//140 
f 154//154 130//130 153//153 
f 126//126 142//142 114//114 
f 142//142 143//143 114//114 
f 140//140 114//114 143//143 
f 140//140 143//143 139//139 
f 153//153 140//140 139//139 
f 126//126 127//127 142//142 
f 141//141 121//121 122//122 
f 137//137 141//141 122//122 
f 155//155 139//139 143//143 
f 145//145 155//155 143//143 
f 155//155 157//157 139//139 
f 155//155 145//145 156//156 
f 144//144 142//142 127//127 
f 144//144 145//145 142//142 
f 142//142 145//145 143//143 
f 147//147 144//144 146//146 
f 144//144 127//127 146//146 
f 127//127 128//128 146//146 
f 128//128 148//148 146//146 
f 145//145 144//144 147//147 
f 164//164 147//147 146//146 
f 164//164 146//146 148//148 
f 141//141 148//148 128//128 
f 149//149 175//175 150//150 
f 153//153 139//139 151//151 
f 151//151 139//139 157//157 
f 151//151 157//157 152//152 
f 154//154 151//151 152//152 
f 152//152 157//157 160//160 
f 173//173 154//154 152//152 
f 161//161 152//152 160//160 
f 152//152 161//161 173//173 
f 154//154 153//153 151//151 
f 154//154 175//175 149//149 
f 158//158 157//157 155//155 
f 155//155 156//156 158//158 
f 156//156 145//145 147//147 
f 158//158 156//156 159//159 
f 156//156 163//163 159//159 
f 156//156 147//147 163//163 
f 159//159 163//163 168//168 
f 158//158 160//160 157//157 
f 162//162 160//160 158//158 
f 162//162 158//158 159//159 
f 170//170 159//159 168//168 
f 161//161 160//160 162//162 
f 170//170 162//162 159//159 
f 148//148 141//141 165//165 
f 148//148 165//165 164//164 
f 165//165 141//141 171//171 
f 163//163 147//147 164//164 
f 163//163 164//164 167//167 
f 171//171 166//166 165//165 
f 163//163 167//167 168//168 
f 166//166 164//164 165//165 
f 166//166 167//167 164//164 
f 166//166 169//169 167//167 
f 170//170 168//168 169//169 
f 168//168 167//167 169//169 
f 170//170 169//169 179//179 
f 137//137 171//171 141//141 
f 172//172 171//171 137//137 
f 138//138 172//172 137//137 
f 166//166 171//171 172//172 
f 154//154 173//173 175//175 
f 173//173 161//161 174//174 
f 150//150 175//175 176//176 
f 176//176 138//138 150//150 
f 176//176 172//172 138//138 
f 173//173 174//174 175//175 
f 177//177 161//161 162//162 
f 170//170 177//177 162//162 
f 177//177 174//174 161//161 
f 178//178 166//166 172//172 
f 170//170 179//179 177//177 
f 166//166 178//178 169//169 
f 169//169 178//178 179//179 
f 178//178 172//172 176//176 
f 174//174 177//177 180//180 
f 180//180 178//178 176//176 
f 179//179 180//180 177//177 
f 178//178 180//180 179//179 
f 174//174 180//180 175//175 
f 180//180 176//176 175//175 
