#
# The license for this database is specified in the Creative Commons Attribution-Share Alike 2.1 Japan. If you use data from this database, please be sure attribute this database as follows: "BodyParts3D, (c)  The Database Center for Life Science licensed under CC Attribution-Share Alike 2.1 Japan".
# http://dbarchive.biosciencedbc.jp/en/bodyparts3d/lic.html
#
#
# Compatibility version : 4.0
# File ID : FJ3024
# Representation ID : BP10090
# Build-up logic : FMA 3.0 part_of
# Concept ID : FMA8663
# English name : Right posterior segmental vein
# Bounds(mm): (-75.596500,-60.370100,1292.070000)-(-72.942000,-52.034600,1298.110000)
# Volume(cm3): 0.034000
#
v -75.2134 -58.6758 1294.38
v -75.515 -58.5416 1293.49
v -75.563 -53.577 1297.29
v -75.5965 -53.1517 1296.84
v -74.72 -60.2101 1293.03
v -74.7847 -60.0132 1292.63
v -74.7414 -60.0377 1293.46
v -74.8883 -59.4366 1292.28
v -75.0169 -58.2373 1292.39
v -74.3422 -60.3258 1292.62
v -74.2967 -60.3701 1293.01
v -74.318 -60.2499 1293.39
v -74.3438 -59.4206 1294.3
v -74.443 -59.8233 1292.16
v -74.5144 -59.3593 1292.07
v -73.9565 -60.1962 1292.56
v -73.9221 -60.2799 1292.97
v -73.9257 -60.1537 1293.39
v -74.0775 -59.3513 1292.08
v -74.2604 -58.1761 1292.18
v -73.576 -59.9376 1292.93
v -73.5636 -59.8786 1293.32
v -73.5346 -59.626 1292.54
v -73.5885 -59.4158 1293.93
v -73.3588 -58.9134 1292.47
v -73.1698 -59.1893 1293.27
v -73.2714 -58.4778 1294.24
v -73.1012 -58.803 1292.84
v -73.4428 -58.4281 1292.41
v -73.0736 -58.3784 1292.82
v -73.1736 -57.954 1292.82
v -72.942 -58.3092 1293.26
v -72.9823 -57.8042 1293.26
v -75.2415 -56.1447 1293.63
v -74.4985 -56.2479 1293.13
v -74.6088 -55.1179 1293.95
v -74.1548 -55.2363 1293.85
v -73.596 -57.1745 1292.83
v -73.2234 -57.0921 1293.22
v -73.5283 -55.6028 1293.89
v -73.5859 -54.2308 1295.1
v -73.0178 -56.2215 1294.74
v -73.2695 -55.1924 1294.62
v -75.2025 -53.033 1296.12
v -75.4907 -52.7116 1297.43
v -75.2188 -52.2215 1297
v -75.1078 -52.4235 1297.37
v -74.823 -52.3993 1296.49
v -74.3999 -52.5066 1296.37
v -74.4393 -52.0346 1296.95
v -73.5475 -53.6409 1297.17
v -73.5272 -53.1707 1296.79
v -73.9705 -52.6504 1297.62
v -73.9892 -52.2446 1296.94
v -74.9657 -53.5502 1298
v -75.0157 -53.1471 1298.11
v -74.1583 -53.8648 1297.65
v -74.72 -60.2101 1293.03
v -74.7847 -60.0132 1292.63
v -74.7414 -60.0377 1293.46
v -74.8883 -59.4366 1292.28
v -75.0169 -58.2373 1292.39
v -74.3422 -60.3258 1292.62
v -74.3422 -60.3258 1292.62
v -74.2967 -60.3701 1293.01
v -73.9565 -60.1962 1292.56
v -75.4907 -52.7116 1297.43
v -75.2188 -52.2215 1297
v -74.4393 -52.0346 1296.95
v -73.9705 -52.6504 1297.62
v -73.9705 -52.6504 1297.62
v -73.9892 -52.2446 1296.94
v -73.9892 -52.2446 1296.94
v -73.9892 -52.2446 1296.94
v -74.9657 -53.5502 1298
v -75.0157 -53.1471 1298.11
v -75.0157 -53.1471 1298.11
vn -0.704802 -0.464574 0.53612
vn -0.976581 -0.201138 -0.0763717
vn -0.906845 -0.15418 0.392251
vn -0.96071 0.22063 -0.168399
vn -0.89748 -0.439076 0.0417282
vn -0.918065 -0.365824 -0.152737
vn -0.871802 -0.454639 0.182387
vn -0.530208 -0.243108 -0.812267
vn -0.913632 0.0346927 -0.405059
vn -0.473595 -0.815573 -0.332488
vn -0.348096 -0.931774 0.103089
vn -0.117603 -0.874999 0.469623
vn -0.00150616 -0.641248 0.767332
vn -0.181044 -0.486164 -0.854908
vn -0.239454 -0.0368601 -0.970208
vn 0.586858 -0.761857 -0.274175
vn 0.482824 -0.875685 0.00751786
vn 0.382677 -0.79917 0.463556
vn 0.338923 -0.152713 -0.928337
vn 0.0544232 0.270019 -0.961316
vn 0.798524 -0.58639 -0.136039
vn 0.738575 -0.623563 0.256274
vn 0.771174 -0.385022 -0.507
vn 0.606343 -0.526569 0.59588
vn 0.708108 -0.109042 -0.697633
vn 0.918312 -0.386543 0.0853684
vn 0.827631 -0.308712 0.468747
vn 0.918767 -0.216936 -0.329857
vn 0.543361 0.165722 -0.822979
vn 0.866205 0.0544901 -0.496709
vn 0.742928 0.264722 -0.614801
vn 0.994582 -0.101212 -0.0237421
vn 0.933415 0.18697 -0.306234
vn -0.740308 0.360652 -0.56734
vn -0.138714 0.496637 -0.856802
vn -0.236459 0.617205 -0.75043
vn 0.222438 0.6031 -0.766024
vn 0.426395 0.424207 -0.798897
vn 0.765518 0.348111 -0.541111
vn 0.582054 0.49617 -0.644227
vn 0.614827 0.574331 -0.540492
vn 0.995977 0.0397639 0.0803033
vn 0.877482 0.343678 -0.334531
vn -0.633181 0.52472 -0.568991
vn -0.967839 0.150934 0.201264
vn -0.662575 0.614333 -0.428472
vn -0.207916 0.747409 0.630993
vn -0.223617 0.731909 -0.643665
vn 0.185298 0.713242 -0.675981
vn 0.0407703 0.812674 -0.581291
vn 0.869431 -0.0688799 0.48923
vn 0.947485 0.319772 -0.00414398
vn 0.125778 0.767926 0.628068
vn 0.383111 0.70196 -0.600399
vn -0.61606 -0.39998 0.678591
vn -0.78722 -0.145368 0.599294
vn 0.465226 -0.314545 0.827421
vn -0.421733 -0.904532 0.0629612
vn -0.548343 -0.651764 -0.523949
vn -0.37349 -0.742508 0.556046
vn -0.921651 -0.186687 -0.340158
vn -0.389106 0.251541 -0.886185
vn 0.249834 -0.952186 -0.175854
vn 0.110108 -0.657433 -0.745425
vn 0.240048 -0.958497 0.153819
vn 0.32249 -0.496579 -0.80586
vn -0.417385 0.681009 0.601679
vn -0.317545 0.791087 0.522825
vn 0.0727943 0.820397 0.567142
vn 0.540353 -0.0632007 0.839061
vn 0.904632 0.323484 0.277489
vn 0.825225 0.4651 -0.320445
vn 0.887501 0.406576 0.216883
vn 0.383116 0.799068 0.463371
vn 0.241036 -0.369343 0.89749
vn -0.196648 0.687198 0.699349
vn 0.378394 -0.130554 0.916392
g grp1
usemtl mtl1
f 5//5 7//7 2//2 
f 6//6 5//5 2//2 
f 7//7 1//1 2//2 
f 8//8 14//14 59//59 
f 2//2 61//61 6//6 
f 2//2 9//9 61//61 
f 34//34 9//9 2//2 
f 1//1 3//3 2//2 
f 34//34 2//2 4//4 
f 4//4 2//2 3//3 
f 4//4 3//3 45//45 
f 46//46 4//4 45//45 
f 58//58 59//59 10//10 
f 58//58 10//10 11//11 
f 12//12 60//60 58//58 
f 12//12 58//58 11//11 
f 10//10 59//59 14//14 
f 13//13 60//60 12//12 
f 13//13 1//1 60//60 
f 14//14 8//8 15//15 
f 1//1 13//13 55//55 
f 15//15 8//8 62//62 
f 34//34 35//35 62//62 
f 16//16 17//17 63//63 
f 63//63 17//17 65//65 
f 17//17 18//18 65//65 
f 65//65 18//18 12//12 
f 13//13 12//12 18//18 
f 66//66 64//64 14//14 
f 66//66 14//14 19//19 
f 19//19 14//14 15//15 
f 57//57 75//75 13//13 
f 19//19 15//15 20//20 
f 20//20 15//15 62//62 
f 20//20 62//62 35//35 
f 16//16 21//21 17//17 
f 23//23 21//21 16//16 
f 17//17 22//22 18//18 
f 21//21 22//22 17//17 
f 22//22 24//24 18//18 
f 24//24 13//13 18//18 
f 19//19 23//23 66//66 
f 13//13 24//24 57//57 
f 35//35 38//38 20//20 
f 26//26 21//21 23//23 
f 22//22 21//21 26//26 
f 26//26 23//23 28//28 
f 26//26 24//24 22//22 
f 25//25 23//23 19//19 
f 23//23 25//25 28//28 
f 27//27 57//57 24//24 
f 25//25 19//19 29//29 
f 29//29 19//19 20//20 
f 29//29 20//20 38//38 
f 27//27 24//24 26//26 
f 26//26 28//28 32//32 
f 26//26 32//32 27//27 
f 30//30 28//28 25//25 
f 29//29 30//30 25//25 
f 32//32 28//28 30//30 
f 29//29 31//31 30//30 
f 38//38 31//31 29//29 
f 31//31 39//39 33//33 
f 31//31 38//38 39//39 
f 33//33 32//32 30//30 
f 31//31 33//33 30//30 
f 32//32 33//33 42//42 
f 27//27 32//32 42//42 
f 33//33 39//39 43//43 
f 33//33 43//43 42//42 
f 36//36 35//35 34//34 
f 36//36 34//34 44//44 
f 35//35 37//37 38//38 
f 37//37 35//35 36//36 
f 49//49 37//37 36//36 
f 37//37 40//40 38//38 
f 40//40 37//37 41//41 
f 37//37 49//49 41//41 
f 39//39 38//38 40//40 
f 43//43 39//39 40//40 
f 43//43 40//40 41//41 
f 51//51 57//57 27//27 
f 27//27 42//42 51//51 
f 42//42 43//43 52//52 
f 42//42 52//52 51//51 
f 41//41 52//52 43//43 
f 4//4 44//44 34//34 
f 56//56 45//45 3//3 
f 44//44 4//4 46//46 
f 68//68 67//67 47//47 
f 76//76 47//47 67//67 
f 53//53 47//47 76//76 
f 36//36 44//44 48//48 
f 44//44 46//46 48//48 
f 48//48 46//46 50//50 
f 69//69 68//68 47//47 
f 53//53 69//69 47//47 
f 49//49 36//36 48//48 
f 49//49 48//48 50//50 
f 57//57 51//51 70//70 
f 71//71 51//51 52//52 
f 41//41 49//49 54//54 
f 41//41 72//72 52//52 
f 71//71 52//52 73//73 
f 54//54 49//49 50//50 
f 74//74 69//69 53//53 
f 55//55 56//56 3//3 
f 1//1 55//55 3//3 
f 57//57 77//77 75//75 
f 57//57 70//70 77//77 
