#
# The license for this database is specified in the Creative Commons Attribution-Share Alike 2.1 Japan. If you use data from this database, please be sure attribute this database as follows: "BodyParts3D, (c)  The Database Center for Life Science licensed under CC Attribution-Share Alike 2.1 Japan".
# http://dbarchive.biosciencedbc.jp/en/bodyparts3d/lic.html
#
#
# Compatibility version : 4.0
# File ID : FJ3049
# Representation ID : BP9501
# Build-up logic : FMA 3.0 part_of
# Concept ID : FMA8673
# English name : Right anterior basal segmental vein
# Bounds(mm): (-67.504600,-82.493400,1193.290000)-(-24.621900,-36.662600,1221.390000)
# Volume(cm3): 0.336900
#
v -67.3614 -37.8485 1193.7
v -66.9816 -37.2759 1193.43
v -66.9439 -37.8519 1193.34
v -66.9727 -36.9095 1193.72
v -66.6339 -36.9743 1193.55
v -66.2885 -37.6004 1193.29
v -66.171 -38.2628 1193.37
v -65.5631 -37.3905 1193.67
v -66.9397 -38.4302 1193.69
v -66.0973 -38.8847 1193.75
v -67.4105 -37.2603 1193.97
v -67.5046 -37.8377 1194.01
v -67.4043 -37.2708 1194.31
v -67.2897 -38.1365 1194.58
v -66.9871 -36.7762 1194.27
v -66.9719 -36.9581 1194.65
v -66.9427 -37.2978 1194.94
v -66.6568 -36.6626 1194.01
v -66.6574 -36.7509 1194.58
v -66.6488 -36.9857 1194.89
v -65.9855 -36.8017 1194.39
v -66.2184 -38.2243 1195.43
v -65.8394 -36.9112 1194.06
v -65.8598 -37.0735 1194.97
v -65.9181 -37.6437 1195.43
v -67.1757 -38.4259 1194
v -66.8088 -38.7869 1194.34
v -66.437 -38.9741 1194.06
v -66.3448 -38.8864 1194.93
v -63.0256 -40.5957 1196.08
v -63.3789 -39.3304 1196.35
v -62.7252 -39.4408 1194.17
v -62.1905 -40.6049 1194.45
v -62.2824 -38.6557 1195.46
v -61.8919 -39.0767 1196.09
v -61.3048 -39.3979 1195.19
v -62.82 -41.0584 1195.43
v -62.2178 -41.3238 1195.18
v -62.939 -40.1815 1196.43
v -62.0597 -39.6091 1196.62
v -61.7328 -40.6323 1196.92
v -60.9183 -42.297 1196.37
v -60.9724 -41.7755 1197
v -59.8211 -42.9647 1195.84
v -58.4363 -43.7426 1195.95
v -58.8961 -43.1471 1197.99
v -58.5464 -41.1813 1197
v -58.2788 -42.0487 1198.02
v -58.0465 -42.324 1195.75
v -56.4555 -43.241 1196.57
v -57.6493 -43.6142 1195.84
v -57.8954 -41.7126 1196.44
v -57.8311 -44.7263 1196.73
v -57.9838 -44.6685 1197.87
v -55.058 -46.566 1197.18
v -54.8692 -47.8472 1198.46
v -53.9376 -46.1241 1197.42
v -53.7575 -45.3675 1199.56
v -53.4788 -46.8487 1200.84
v -53.9925 -48.556 1200.33
v -52.2516 -48.6865 1198.29
v -51.241 -48.8051 1198.79
v -53.1123 -45.7252 1198.89
v -51.9895 -47.0784 1198.85
v -51.4213 -52.0215 1201.39
v -50.4882 -52.2319 1200.14
v -47.8712 -53.0487 1200.66
v -46.6924 -52.1801 1202.06
v -47.0124 -52.7199 1201.26
v -46.7249 -55.4501 1201.73
v -47.4479 -56.6635 1203.93
v -47.466 -56.4211 1204.58
v -44.493 -54.8841 1202.96
v -45.3786 -55.187 1206.12
v -43.8979 -55.0543 1205.09
v -45.2913 -59.0676 1204.37
v -43.901 -55.5541 1206.06
v -45.058 -59.552 1206.19
v -44.985 -58.8406 1206.94
v -45.1645 -57.3047 1206.94
v -43.2569 -57.0831 1203.52
v -42.645 -56.5165 1204.68
v -40.6294 -61.6403 1205.37
v -39.3002 -67.889 1210.32
v -37.3265 -67.5462 1208.24
v -38.4704 -62.1294 1209.96
v -37.7241 -62.6055 1209.59
v -38.7665 -67.7185 1208.73
v -38.0115 -65.0578 1212.35
v -38.3192 -63.3828 1211.23
v -38.2453 -68.9907 1212.09
v -37.2778 -70.479 1211.25
v -37.3862 -69.3587 1213.31
v -36.0491 -64.5556 1210.27
v -35.9352 -65.1412 1209.36
v -35.264 -65.982 1212.51
v -35.4655 -69.9351 1215.05
v -34.1761 -74.4003 1214.63
v -31.6819 -74.4947 1212.45
v -32.2505 -74.9645 1212.78
v -32.7962 -75.776 1213.99
v -32.5588 -70.4303 1216.18
v -33.8249 -74.3557 1215.87
v -30.6212 -72.0927 1212.8
v -30.7996 -70.445 1214.34
v -30.3458 -71.2313 1213.87
v -30.9229 -70.6932 1215.61
v -29.4219 -80.7647 1217.31
v -29.6227 -80.3948 1219.18
v -29.5587 -79.6943 1219.84
v -28.0617 -73.7874 1216.72
v -27.8843 -81.3518 1216.66
v -28.7629 -81.0397 1220.08
v -28.2531 -82.0925 1218.92
v -27.7244 -81.895 1220.08
v -27.4154 -82.3648 1218
v -27.09 -82.4934 1218.9
v -27.0975 -82.2213 1219.78
v -28.2301 -77.3606 1220.57
v -28.2989 -80.423 1220.89
v -28.4657 -79.2591 1220.91
v -27.6536 -81.0354 1220.89
v -27.6726 -80.142 1221.27
v -27.1192 -79.5019 1221.39
v -27.0785 -81.7958 1220.38
v -25.411 -78.0211 1217.17
v -27.0939 -80.389 1215.9
v -26.5122 -81.3346 1216.62
v -27.0069 -79.1747 1215.53
v -26.2035 -80.7313 1216.36
v -26.4263 -78.5107 1215.82
v -25.8948 -81.3319 1217.03
v -25.6237 -80.3927 1216.68
v -25.172 -80.761 1217.46
v -24.9408 -79.5747 1217.4
v -26.5106 -82.1703 1217.66
v -27.0388 -76.6201 1220.02
v -25.8185 -77.1967 1219.58
v -25.0904 -78.6383 1220.04
v -25.136 -77.8363 1218.48
v -25.6361 -81.2946 1220.08
v -24.9742 -81.0904 1218.6
v -24.8589 -80.7675 1219.21
v -24.7817 -79.5163 1219.72
v -24.9303 -80.4117 1219.81
v -24.6219 -79.5028 1218.56
v -24.7001 -80.4224 1218.55
v -24.661 -80.1463 1219.19
v -26.4824 -82.4093 1218.58
v -26.464 -82.2629 1219.45
v -26.4615 -81.9172 1220.08
v -25.8594 -82.0219 1218.24
v -25.6918 -81.9414 1218.89
v -25.5957 -81.6903 1219.47
v -26.5121 -78.8022 1221.22
v -25.6315 -78.6091 1220.66
v -26.8052 -80.1741 1221.32
v -26.4459 -81.2743 1220.69
v -26.481 -79.5655 1221.34
v -26.1894 -80.1487 1221.16
v -25.8852 -79.536 1221.07
v -25.6005 -80.1911 1220.75
v -25.1476 -79.5382 1220.38
v -67.5046 -37.8377 1194.01
v -60.9183 -42.297 1196.37
v -58.8961 -43.1471 1197.99
v -58.2788 -42.0487 1198.02
v -53.4788 -46.8487 1200.84
v -53.4788 -46.8487 1200.84
v -53.9925 -48.556 1200.33
v -45.1645 -57.3047 1206.94
vn -0.786393 -0.17022 -0.593811
vn -0.450778 0.337902 -0.826209
vn -0.353087 -0.180129 -0.918087
vn -0.474748 0.734873 -0.484331
vn 0.0910189 0.667209 -0.739289
vn 0.122292 0.194762 -0.973197
vn -0.0345656 -0.330797 -0.943069
vn 0.410868 0.555234 -0.72312
vn -0.456481 -0.593661 -0.662715
vn -0.231524 -0.664895 -0.710148
vn -0.857152 0.414872 -0.305241
vn -0.995489 0.0934449 -0.0164324
vn -0.87873 0.339503 0.335517
vn -0.813303 -0.336614 0.474584
vn -0.576224 0.81219 0.0911758
vn -0.557502 0.643498 0.524502
vn -0.576315 0.271639 0.770761
vn -0.0213065 0.976157 -0.216019
vn -0.119804 0.911037 0.394537
vn -0.228197 0.6481 0.726562
vn 0.29728 0.939303 0.171275
vn -0.467469 -0.123757 0.875304
vn 0.412972 0.826002 -0.383633
vn 0.131329 0.775437 0.617617
vn -0.166871 0.397738 0.902196
vn -0.743549 -0.631603 -0.219575
vn -0.623334 -0.772803 0.119289
vn -0.458501 -0.82431 -0.332099
vn -0.565946 -0.612464 0.5519
vn -0.572916 -0.628931 0.525559
vn -0.259984 0.0982307 0.960604
vn 0.345276 0.136611 -0.928505
vn -0.0382975 -0.466332 -0.88378
vn 0.487633 0.872381 0.0341424
vn 0.299599 0.802992 0.515214
vn 0.565992 0.686388 -0.456645
vn -0.529247 -0.84278 0.0980821
vn -0.39102 -0.819003 -0.419926
vn -0.468937 -0.316444 0.824598
vn -0.0177321 0.4753 0.879645
vn -0.354542 -0.0212365 0.934799
vn -0.636787 -0.651762 0.411958
vn -0.591511 -0.45501 0.665643
vn -0.484265 -0.796308 -0.362465
vn -0.258952 -0.650815 -0.713712
vn -0.65231 -0.418248 0.632108
vn 0.529162 0.823383 0.205007
vn 0.276314 0.716364 0.640682
vn 0.523893 0.319116 -0.789748
vn 0.663876 0.489653 -0.565251
vn 0.202255 -0.200065 -0.95868
vn 0.649686 0.681943 -0.335948
vn -0.521004 -0.76348 -0.381646
vn -0.716388 -0.644277 0.26776
vn -0.165495 -0.560275 -0.811605
vn -0.650879 -0.714828 -0.25569
vn 0.528818 0.155522 -0.834364
vn 0.412757 0.749968 0.516894
vn -0.507528 0.0122687 0.861548
vn -0.789423 -0.548614 0.275379
vn 0.268695 -0.207363 -0.94064
vn 0.567165 0.131485 -0.813041
vn 0.693793 0.715585 -0.0811729
vn 0.711736 0.449703 -0.539628
vn -0.788668 -0.607249 0.0961865
vn -0.317399 -0.642625 -0.697346
vn 0.418408 -0.107147 -0.901917
vn 0.763238 0.572349 -0.299809
vn 0.661731 0.242619 -0.7094
vn -0.0277097 -0.48465 -0.874269
vn -0.780427 -0.623126 0.0514573
vn -0.812607 -0.50068 0.298311
vn 0.748606 0.358129 -0.557972
vn -0.0385449 0.518983 0.853915
vn 0.675736 0.714774 0.180218
vn -0.63765 -0.693324 -0.335713
vn 0.386457 0.707449 0.591749
vn -0.833617 -0.519177 0.188514
vn -0.778233 -0.251296 0.575503
vn -0.30055 0.316746 0.899634
vn 0.668988 0.144753 -0.729041
vn 0.807776 0.509153 -0.297088
vn 0.505532 -0.0812405 -0.858974
vn -0.793755 -0.606203 -0.0497119
vn 0.0755389 -0.45213 -0.888748
vn 0.515653 0.717619 0.468108
vn 0.674142 0.698354 0.240485
vn -0.463183 -0.672997 -0.57666
vn -0.171932 0.445621 0.878556
vn 0.211545 0.651103 0.728912
vn -0.840671 -0.42701 0.33307
vn -0.707097 -0.673519 -0.215374
vn -0.763222 -0.20488 0.612794
vn 0.756814 0.653463 0.0147615
vn 0.791321 0.355107 -0.497705
vn 0.509175 0.733268 0.450621
vn -0.578034 0.0769726 0.812374
vn -0.809049 -0.585267 0.0538648
vn 0.1207 -0.43576 -0.891933
vn -0.196132 -0.608469 -0.768959
vn -0.567407 -0.696539 -0.439184
vn 0.143918 0.632806 0.760818
vn -0.819762 -0.331062 0.46732
vn 0.748822 0.236894 -0.618989
vn 0.75428 0.656347 0.0164675
vn 0.820579 0.490376 -0.293567
vn 0.551353 0.729806 0.40422
vn -0.661564 -0.712149 -0.234898
vn -0.817191 -0.516248 0.256295
vn -0.755672 -0.233165 0.61204
vn 0.768414 0.636667 0.0647703
vn -0.227937 -0.722223 -0.653022
vn -0.651128 -0.539468 0.53386
vn -0.539983 -0.828505 0.148314
vn -0.364426 -0.753782 0.546815
vn -0.216473 -0.929002 -0.300159
vn -0.0575357 -0.991598 0.115862
vn -0.0657098 -0.90003 0.430847
vn -0.184169 0.369196 0.91092
vn -0.558082 -0.28945 0.777666
vn -0.496925 0.0422284 0.866765
vn -0.22938 -0.525277 0.819432
vn -0.267375 -0.185896 0.945491
vn -0.10396 0.0947916 0.990054
vn -0.00427322 -0.714117 0.700013
vn 0.857394 0.288444 -0.426235
vn 0.125801 -0.475177 -0.870851
vn 0.223052 -0.646183 -0.72986
vn 0.420164 -0.221611 -0.879972
vn 0.452518 -0.389814 -0.802043
vn 0.666791 0.0244965 -0.744842
vn 0.57855 -0.585661 -0.567698
vn 0.669867 -0.226668 -0.707036
vn 0.812763 -0.409543 -0.414357
vn 0.881954 -0.0136125 -0.471138
vn 0.244958 -0.846403 -0.47286
vn 0.319576 0.605047 0.729239
vn 0.671633 0.616069 0.411543
vn 0.842026 0.337477 0.420835
vn 0.898959 0.437881 -0.0115371
vn 0.642322 -0.537952 0.545922
vn 0.833172 -0.549726 -0.0602095
vn 0.872618 -0.434889 0.222281
vn 0.951196 0.0982499 0.292529
vn 0.84691 -0.27107 0.457455
vn 0.988228 0.124798 -0.088494
vn 0.961109 -0.241854 -0.133324
vn 0.975278 -0.14618 0.165721
vn 0.306067 -0.949675 -0.0666348
vn 0.33842 -0.892441 0.298364
vn 0.340675 -0.752932 0.563058
vn 0.625944 -0.738133 -0.251703
vn 0.620107 -0.780339 0.0808566
vn 0.664186 -0.677541 0.315905
vn 0.234103 0.324416 0.916488
vn 0.590726 0.37127 0.71638
vn 0.0840882 -0.286589 0.954356
vn 0.296515 -0.531392 0.793537
vn 0.253684 -0.00201022 0.967285
vn 0.400683 -0.256723 0.879515
vn 0.544824 0.0401571 0.837588
vn 0.634684 -0.287505 0.717299
vn 0.783393 0.0181175 0.621263
vn -0.864627 -0.480826 -0.145694
vn -0.555702 -0.819645 -0.139201
vn -0.381879 0.0685851 0.921664
vn -0.27863 0.170722 0.945103
vn 0.226095 0.660305 0.716155
vn -0.258604 0.324876 0.909714
vn -0.596206 -0.0721172 0.799586
vn -0.656218 -0.0649189 0.751773
g grp1
usemtl mtl1
f 2//2 3//3 1//1 
f 11//11 2//2 1//1 
f 1//1 12//12 11//11 
f 1//1 26//26 164//164 
f 2//2 11//11 4//4 
f 3//3 9//9 1//1 
f 11//11 15//15 4//4 
f 9//9 26//26 1//1 
f 5//5 6//6 2//2 
f 2//2 6//6 3//3 
f 9//9 3//3 7//7 
f 7//7 3//3 6//6 
f 4//4 18//18 5//5 
f 5//5 2//2 4//4 
f 18//18 4//4 15//15 
f 10//10 9//9 7//7 
f 10//10 7//7 33//33 
f 23//23 8//8 5//5 
f 23//23 5//5 18//18 
f 32//32 7//7 6//6 
f 6//6 5//5 8//8 
f 6//6 8//8 32//32 
f 8//8 36//36 32//32 
f 8//8 23//23 36//36 
f 9//9 28//28 26//26 
f 28//28 9//9 10//10 
f 28//28 10//10 38//38 
f 33//33 38//38 10//10 
f 13//13 15//15 11//11 
f 11//11 12//12 13//13 
f 12//12 14//14 13//13 
f 164//164 26//26 14//14 
f 15//15 13//13 16//16 
f 16//16 13//13 17//17 
f 14//14 17//17 13//13 
f 15//15 19//19 18//18 
f 15//15 16//16 19//19 
f 16//16 20//20 19//19 
f 20//20 16//16 17//17 
f 25//25 17//17 22//22 
f 17//17 14//14 22//22 
f 29//29 22//22 14//14 
f 21//21 23//23 18//18 
f 18//18 19//19 21//21 
f 24//24 19//19 20//20 
f 25//25 24//24 20//20 
f 25//25 20//20 17//17 
f 22//22 31//31 25//25 
f 24//24 21//21 19//19 
f 24//24 25//25 40//40 
f 40//40 25//25 31//31 
f 26//26 27//27 14//14 
f 26//26 28//28 27//27 
f 14//14 27//27 29//29 
f 27//27 28//28 37//37 
f 37//37 29//29 27//27 
f 22//22 29//29 39//39 
f 37//37 28//28 38//38 
f 39//39 31//31 22//22 
f 33//33 7//7 32//32 
f 21//21 34//34 23//23 
f 34//34 36//36 23//23 
f 29//29 30//30 39//39 
f 24//24 35//35 21//21 
f 35//35 34//34 21//21 
f 40//40 35//35 24//24 
f 32//32 51//51 33//33 
f 32//32 36//36 49//49 
f 34//34 47//47 36//36 
f 35//35 47//47 34//34 
f 52//52 36//36 47//47 
f 29//29 37//37 30//30 
f 37//37 42//42 30//30 
f 165//165 37//37 38//38 
f 31//31 39//39 41//41 
f 40//40 31//31 41//41 
f 40//40 48//48 35//35 
f 30//30 43//43 39//39 
f 42//42 43//43 30//30 
f 41//41 39//39 43//43 
f 43//43 42//42 54//54 
f 43//43 54//54 46//46 
f 41//41 43//43 46//46 
f 49//49 36//36 52//52 
f 33//33 51//51 45//45 
f 45//45 38//38 33//33 
f 45//45 44//44 38//38 
f 44//44 165//165 38//38 
f 50//50 49//49 52//52 
f 40//40 41//41 167//167 
f 41//41 166//166 167//167 
f 59//59 167//167 166//166 
f 165//165 44//44 53//53 
f 32//32 49//49 51//51 
f 35//35 48//48 47//47 
f 48//48 58//58 47//47 
f 63//63 50//50 52//52 
f 47//47 63//63 52//52 
f 58//58 63//63 47//47 
f 45//45 53//53 44//44 
f 53//53 54//54 165//165 
f 45//45 51//51 55//55 
f 53//53 56//56 54//54 
f 58//58 48//48 168//168 
f 60//60 46//46 54//54 
f 63//63 64//64 50//50 
f 45//45 55//55 53//53 
f 56//56 53//53 55//55 
f 55//55 66//66 56//56 
f 57//57 61//61 51//51 
f 51//51 61//61 55//55 
f 57//57 51//51 49//49 
f 49//49 50//50 57//57 
f 57//57 50//50 64//64 
f 55//55 61//61 70//70 
f 56//56 60//60 54//54 
f 170//170 59//59 166//166 
f 57//57 64//64 62//62 
f 62//62 61//61 57//57 
f 62//62 67//67 61//61 
f 61//61 67//67 70//70 
f 75//75 63//63 58//58 
f 63//63 75//75 68//68 
f 56//56 65//65 60//60 
f 70//70 66//66 55//55 
f 74//74 169//169 80//80 
f 59//59 170//170 171//171 
f 64//64 69//69 62//62 
f 76//76 65//65 56//56 
f 71//71 65//65 76//76 
f 66//66 76//76 56//56 
f 76//76 66//66 70//70 
f 69//69 67//67 62//62 
f 58//58 168//168 74//74 
f 81//81 67//67 69//69 
f 63//63 68//68 64//64 
f 69//69 64//64 68//68 
f 70//70 67//67 83//83 
f 71//71 72//72 65//65 
f 65//65 72//72 60//60 
f 72//72 79//79 60//60 
f 72//72 78//78 79//79 
f 72//72 71//71 78//78 
f 171//171 170//170 79//79 
f 81//81 69//69 73//73 
f 68//68 82//82 73//73 
f 68//68 73//73 69//69 
f 82//82 81//81 73//73 
f 81//81 83//83 67//67 
f 74//74 77//77 58//58 
f 58//58 77//77 75//75 
f 75//75 82//82 68//68 
f 76//76 78//78 71//71 
f 171//171 79//79 97//97 
f 82//82 95//95 81//81 
f 95//95 82//82 94//94 
f 82//82 75//75 94//94 
f 83//83 85//85 70//70 
f 75//75 77//77 86//86 
f 87//87 94//94 75//75 
f 87//87 75//75 86//86 
f 86//86 77//77 90//90 
f 74//74 80//80 97//97 
f 74//74 97//97 89//89 
f 83//83 129//129 85//85 
f 81//81 95//95 83//83 
f 70//70 88//88 76//76 
f 70//70 85//85 88//88 
f 74//74 90//90 77//77 
f 87//87 86//86 96//96 
f 76//76 84//84 78//78 
f 88//88 84//84 76//76 
f 88//88 92//92 84//84 
f 90//90 74//74 89//89 
f 97//97 79//79 93//93 
f 78//78 91//91 79//79 
f 84//84 91//91 78//78 
f 91//91 93//93 79//79 
f 88//88 101//101 92//92 
f 101//101 88//88 100//100 
f 100//100 88//88 85//85 
f 86//86 90//90 96//96 
f 90//90 89//89 102//102 
f 84//84 98//98 91//91 
f 98//98 84//84 92//92 
f 98//98 103//103 91//91 
f 93//93 91//91 103//103 
f 96//96 94//94 87//87 
f 96//96 107//107 94//94 
f 92//92 101//101 98//98 
f 100//100 85//85 99//99 
f 93//93 103//103 97//97 
f 95//95 104//104 83//83 
f 129//129 99//99 85//85 
f 101//101 108//108 98//98 
f 102//102 96//96 90//90 
f 94//94 106//106 95//95 
f 95//95 106//106 104//104 
f 94//94 105//105 106//106 
f 105//105 94//94 107//107 
f 102//102 107//107 96//96 
f 102//102 137//137 107//107 
f 98//98 109//109 103//103 
f 110//110 97//97 103//103 
f 103//103 109//109 110//110 
f 110//110 109//109 113//113 
f 126//126 104//104 106//106 
f 101//101 100//100 112//112 
f 105//105 111//111 106//106 
f 105//105 107//107 111//111 
f 126//126 106//106 140//140 
f 111//111 140//140 106//106 
f 108//108 109//109 98//98 
f 127//127 112//112 100//100 
f 100//100 99//99 127//127 
f 129//129 127//127 99//99 
f 108//108 101//101 112//112 
f 108//108 112//112 116//116 
f 120//120 110//110 113//113 
f 114//114 109//109 108//108 
f 113//113 109//109 114//114 
f 115//115 113//113 114//114 
f 116//116 114//114 108//108 
f 118//118 115//115 114//114 
f 117//117 118//118 114//114 
f 116//116 117//117 114//114 
f 118//118 125//125 115//115 
f 151//151 125//125 118//118 
f 89//89 97//97 119//119 
f 119//119 97//97 121//121 
f 102//102 89//89 119//119 
f 119//119 121//121 124//124 
f 119//119 137//137 102//102 
f 155//155 119//119 124//124 
f 121//121 97//97 110//110 
f 110//110 120//120 121//121 
f 121//121 120//120 123//123 
f 113//113 115//115 122//122 
f 123//123 120//120 122//122 
f 120//120 113//113 122//122 
f 124//124 121//121 123//123 
f 124//124 123//123 157//157 
f 122//122 158//158 157//157 
f 122//122 157//157 123//123 
f 125//125 122//122 115//115 
f 158//158 122//122 125//125 
f 151//151 158//158 125//125 
f 131//131 129//129 83//83 
f 104//104 131//131 83//83 
f 131//131 104//104 126//126 
f 129//129 130//130 127//127 
f 127//127 130//130 128//128 
f 129//129 131//131 133//133 
f 133//133 130//130 129//129 
f 132//132 136//136 128//128 
f 132//132 128//128 130//130 
f 133//133 132//132 130//130 
f 134//134 132//132 133//133 
f 135//135 133//133 131//131 
f 135//135 134//134 133//133 
f 152//152 134//134 142//142 
f 152//152 132//132 134//134 
f 135//135 131//131 126//126 
f 135//135 147//147 134//134 
f 147//147 142//142 134//134 
f 135//135 146//146 147//147 
f 146//146 135//135 126//126 
f 128//128 112//112 127//127 
f 112//112 136//136 116//116 
f 112//112 128//128 136//136 
f 132//132 152//152 136//136 
f 107//107 137//137 138//138 
f 111//111 107//107 138//138 
f 138//138 140//140 111//111 
f 140//140 138//138 139//139 
f 140//140 139//139 144//144 
f 142//142 143//143 154//154 
f 145//145 141//141 143//143 
f 141//141 154//154 143//143 
f 156//156 163//163 139//139 
f 145//145 163//163 162//162 
f 148//148 143//143 147//147 
f 147//147 143//143 142//142 
f 148//148 145//145 143//143 
f 144//144 139//139 163//163 
f 144//144 163//163 145//145 
f 126//126 140//140 146//146 
f 140//140 144//144 146//146 
f 146//146 148//148 147//147 
f 146//146 144//144 148//148 
f 145//145 148//148 144//144 
f 136//136 149//149 116//116 
f 149//149 117//117 116//116 
f 149//149 150//150 117//117 
f 117//117 150//150 118//118 
f 150//150 151//151 118//118 
f 152//152 149//149 136//136 
f 152//152 153//153 149//149 
f 153//153 150//150 149//149 
f 153//153 154//154 150//150 
f 141//141 151//151 154//154 
f 154//154 151//151 150//150 
f 141//141 158//158 151//151 
f 154//154 153//153 142//142 
f 152//152 142//142 153//153 
f 155//155 124//124 159//159 
f 119//119 155//155 137//137 
f 159//159 161//161 155//155 
f 155//155 156//156 137//137 
f 156//156 155//155 161//161 
f 156//156 138//138 137//137 
f 163//163 156//156 161//161 
f 139//139 138//138 156//156 
f 159//159 124//124 157//157 
f 160//160 157//157 158//158 
f 157//157 160//160 159//159 
f 159//159 160//160 161//161 
f 141//141 162//162 158//158 
f 161//161 160//160 162//162 
f 158//158 162//162 160//160 
f 162//162 163//163 161//161 
f 145//145 162//162 141//141 
