#
# The license for this database is specified in the Creative Commons Attribution-Share Alike 2.1 Japan. If you use data from this database, please be sure attribute this database as follows: "BodyParts3D, (c)  The Database Center for Life Science licensed under CC Attribution-Share Alike 2.1 Japan".
# http://dbarchive.biosciencedbc.jp/en/bodyparts3d/lic.html
#
#
# Compatibility version : 4.0
# File ID : FJ3022
# Representation ID : BP10090
# Build-up logic : FMA 3.0 part_of
# Concept ID : FMA8663
# English name : Right posterior segmental vein
# Bounds(mm): (-58.861900,-107.446000,1257.040000)-(-42.544400,-58.707300,1268.170000)
# Volume(cm3): 0.338900
#
v -58 -62.9123 1260.54
v -57.476 -62.2902 1259.47
v -58.0797 -62.2168 1261.35
v -57.9875 -61.3822 1261.93
v -57.5868 -61.2261 1262.14
v -58.7252 -60.5505 1260.59
v -58.4089 -59.4309 1260.5
v -57.6555 -59.4558 1260.2
v -58.8619 -60.2117 1261.34
v -58.6542 -60.1351 1261.79
v -58.7455 -59.3347 1261
v -58.7714 -59.3457 1261.41
v -58.4536 -59.3152 1261.88
v -58.4457 -58.9248 1261.42
v -58.0528 -60.1707 1262.28
v -58.0565 -59.7041 1262.26
v -58.0596 -58.7597 1260.98
v -58.0626 -58.7073 1261.39
v -58.0505 -58.9489 1261.79
v -57.5979 -60.2565 1262.31
v -57.6505 -58.764 1261.39
v -54.6543 -70.8975 1258.99
v -55.9043 -66.0975 1258.99
v -55.8145 -66.6229 1260.2
v -55.767 -65.2063 1261.19
v -54.7937 -65.8805 1261.2
v -56.7052 -61.1447 1259.71
v -56.0042 -61.1618 1260.56
v -56.6924 -62.6799 1261.82
v -56.0267 -62.4973 1261.59
v -55.7357 -61.865 1261.04
v -57.2473 -59.2196 1260.61
v -57.2418 -59.7869 1262.08
v -56.8484 -59.4532 1261.34
v -51.2099 -96.7634 1261.38
v -51.2797 -94.5454 1259.51
v -51.5654 -91.8232 1261.94
v -51.2559 -89.3099 1257.81
v -52.9194 -88.9739 1260.59
v -52.0668 -86.9652 1261.2
v -51.2308 -83.8884 1257.4
v -53.3653 -85.0573 1257.93
v -51.2242 -84.8183 1260.73
v -52.8101 -80.7117 1257.04
v -53.6706 -78.7868 1257.48
v -53.6637 -74.0975 1260.05
v -52.1148 -72.7549 1257.5
v -52.2038 -72.0386 1260.36
v -51.1943 -73.5184 1259.41
v -53.7886 -69.3196 1257.78
v -54.0637 -67.6974 1260.95
v -52.5098 -67.8925 1258.62
v -52.5234 -67.2666 1259.77
v -51.9554 -69.3788 1259.8
v -51.5896 -70.3003 1258.97
v -54.1637 -64.3846 1260.58
v -53.7968 -66.7866 1258.2
v -53.733 -66.1273 1260.82
v -53.7745 -64.8398 1259.42
v -47.9543 -103.297 1263.79
v -49.923 -99.2975 1261.39
v -49.599 -99.3145 1263.82
v -49.2598 -97.8668 1260.16
v -47.76 -96.355 1260.63
v -50.0041 -95.954 1263.3
v -49.2905 -93.3708 1259.15
v -48.9034 -94.5709 1262.62
v -48.0744 -94.4702 1261.12
v -49.3056 -90.0384 1259.84
v -50.8188 -90.1896 1261.73
v -49.8385 -89.0542 1260.63
v -50.2336 -84.499 1259.05
v -50.8667 -76.9014 1258.24
v -46.2938 -105.807 1266.41
v -45.3605 -106.85 1266.97
v -45.3548 -106.964 1266.15
v -45.3375 -106.617 1265.29
v -44.8536 -107.327 1266.2
v -44.8833 -107.228 1266.95
v -45.7838 -105.897 1267.27
v -44.8808 -106.959 1267.38
v -44.8451 -106.104 1267.99
v -46.9427 -102.823 1262.56
v -45.4252 -104.681 1267.69
v -46.7727 -101.257 1261.82
v -46.067 -99.5987 1262.43
v -47.6417 -100.675 1265.46
v -46.6847 -99.1717 1264.38
v -44.4539 -107.301 1265.78
v -44.4201 -107.446 1266.23
v -44.4536 -107.356 1266.99
v -44.5876 -106.279 1264.67
v -43.6595 -107.347 1266.22
v -43.7069 -107.309 1266.95
v -43.6722 -107.162 1265.76
v -43.7704 -106.332 1264.91
v -43.2767 -107.051 1266.99
v -43.0199 -106.897 1266.19
v -42.972 -106.891 1266.59
v -43.4242 -105.429 1264.77
v -42.9207 -106.52 1265.77
v -42.6705 -106.497 1266.54
v -42.7787 -106.5 1266.98
v -42.6738 -106.087 1265.81
v -42.5444 -106.026 1266.58
v -42.7504 -105.444 1265.67
v -44.4359 -106.879 1267.65
v -44.4418 -105.66 1268.17
v -43.6892 -107.05 1267.38
v -43.7245 -106.465 1267.9
v -43.2623 -106.494 1267.61
v -43.3283 -105.691 1267.85
v -42.8427 -106.064 1267.36
v -43.0364 -104.784 1267.02
v -43.0649 -104.223 1266.01
v -44.5758 -104.31 1267.7
v -58.7455 -59.3347 1261
v -58.0565 -59.7041 1262.26
v -58.0565 -59.7041 1262.26
v -58.0626 -58.7073 1261.39
v -58.0626 -58.7073 1261.39
v -58.0626 -58.7073 1261.39
v -58.0505 -58.9489 1261.79
v -57.6505 -58.764 1261.39
v -54.6543 -70.8975 1258.99
v -54.6543 -70.8975 1258.99
v -54.6543 -70.8975 1258.99
v -56.7052 -61.1447 1259.71
v -51.2099 -96.7634 1261.38
v -52.9194 -88.9739 1260.59
v -52.0668 -86.9652 1261.2
v -53.3653 -85.0573 1257.93
v -53.6706 -78.7868 1257.48
v -53.7886 -69.3196 1257.78
v -54.0637 -67.6974 1260.95
v -52.5234 -67.2666 1259.77
v -53.7745 -64.8398 1259.42
v -49.923 -99.2975 1261.39
v -50.2336 -84.499 1259.05
v -50.8667 -76.9014 1258.24
v -46.067 -99.5987 1262.43
vn -0.91567 -0.381824 -0.125532
vn -0.480403 0.0340475 -0.876387
vn -0.74848 -0.415246 0.517057
vn -0.524061 -0.337956 0.781758
vn -0.167019 -0.255731 0.952211
vn -0.885543 -0.0427 -0.462591
vn -0.544747 0.381957 -0.746566
vn -0.011439 0.513677 -0.857908
vn -0.982214 -0.131483 0.134044
vn -0.771294 -0.086912 0.630517
vn -0.951105 0.11689 -0.285894
vn -0.906679 0.314724 0.280859
vn -0.627133 0.411342 0.661439
vn -0.630608 0.752102 0.19151
vn -0.371335 -0.131096 0.919197
vn -0.640785 0.0531129 0.765881
vn -0.207418 0.880783 -0.425674
vn -0.496465 0.860668 -0.113017
vn -0.401268 0.664718 0.630186
vn 0.168258 -0.00417369 0.985734
vn 0.366369 0.71022 0.601134
vn -0.909601 -0.0862898 -0.406424
vn -0.843987 -0.29185 -0.450011
vn -0.843441 -0.444439 0.301797
vn -0.404138 -0.364928 0.838749
vn 0.0428607 -0.135388 0.989865
vn -0.0592508 0.239401 -0.969111
vn 0.841295 0.515397 -0.163061
vn 0.127343 -0.139019 0.982068
vn 0.552054 0.13269 0.823183
vn 0.817751 0.35057 0.456491
vn 0.554883 0.688473 -0.467023
vn 0.516202 0.389663 0.762692
vn 0.805803 0.563938 0.180707
vn -0.879622 -0.322475 -0.349678
vn -0.711712 -0.340688 -0.614327
vn -0.462148 0.0968991 0.881493
vn -0.0606097 -0.188665 -0.980169
vn -0.972215 -0.190332 -0.136275
vn -0.513618 0.0337845 0.857354
vn 0.568657 0.00849537 -0.822531
vn -0.979431 -0.135166 -0.149816
vn 0.616648 0.145313 0.773711
vn -0.183071 -0.0333185 -0.982535
vn -0.900714 -0.0294765 -0.433411
vn -0.540905 -0.0478391 0.839722
vn 0.47399 0.136824 -0.869835
vn 0.333197 0.0077721 0.942825
vn 0.925298 0.0979258 0.36638
vn -0.736603 -0.12427 -0.664811
vn -0.185811 -0.231889 0.954831
vn 0.771414 0.34201 -0.536609
vn 0.754862 0.239942 0.610419
vn 0.841061 0.166104 0.514807
vn 0.960633 0.214457 -0.176613
vn 0.814383 0.395692 0.42451
vn 0.272012 0.294248 -0.916203
vn 0.561101 0.13047 0.8174
vn 0.585551 0.482261 -0.651578
vn -0.766307 -0.597702 -0.235641
vn -0.529981 -0.51079 -0.676915
vn -0.819169 -0.152764 0.552834
vn -0.0735786 -0.372148 -0.925252
vn 0.827117 0.101662 -0.552759
vn -0.250552 0.223487 0.941954
vn 0.642068 -0.0370842 -0.765751
vn 0.450673 0.421528 0.786898
vn 0.924701 0.356516 0.133511
vn 0.969799 0.204835 -0.13241
vn 0.196786 0.246355 0.948991
vn 0.789447 0.284835 0.543731
vn 0.916888 0.154481 0.368038
vn 0.784173 0.0759952 -0.615872
vn -0.844123 -0.486103 0.226187
vn -0.688834 -0.638891 0.342528
vn -0.677189 -0.732046 -0.0743222
vn -0.442081 -0.732591 -0.517566
vn -0.401725 -0.906884 -0.127197
vn -0.480931 -0.837802 0.258443
vn -0.717353 -0.302376 0.627673
vn -0.456112 -0.64725 0.610762
vn -0.371844 -0.31782 0.872194
vn -0.240019 -0.569863 -0.785905
vn -0.463403 0.126077 0.877133
vn 0.408708 -0.244497 -0.879306
vn 0.808734 0.135064 -0.572457
vn -0.190459 0.359979 0.913313
vn 0.612158 0.586616 0.53023
vn -0.08045 -0.878232 -0.47142
vn -0.0396793 -0.997198 -0.0634189
vn -0.13349 -0.918468 0.372285
vn 0.0250035 -0.626312 -0.779172
vn 0.378521 -0.916696 -0.128024
vn 0.253541 -0.933671 0.252933
vn 0.354221 -0.756466 -0.549806
vn 0.399069 -0.479455 -0.78158
vn 0.576431 -0.746386 0.332619
vn 0.677849 -0.693783 -0.243282
vn 0.693253 -0.716035 0.0818181
vn 0.677492 -0.151243 -0.719813
vn 0.698835 -0.496604 -0.514796
vn 0.886567 -0.459177 -0.0561716
vn 0.814986 -0.45018 0.364877
vn 0.897125 -0.206582 -0.390501
vn 0.993687 0.032699 0.107316
vn 0.919236 0.155851 -0.361547
vn -0.104993 -0.664968 0.739455
vn -0.0137472 0.0532954 0.998484
vn 0.274 -0.744693 0.608569
vn 0.211426 -0.401348 0.891189
vn 0.592091 -0.441725 0.674023
vn 0.521868 0.116721 0.845003
vn 0.835914 -0.0456296 0.546961
vn 0.751616 0.448124 0.484002
vn 0.895504 0.442823 0.0444901
vn 0.164864 0.476582 0.863533
vn -0.67556 0.683392 -0.276757
vn -0.284949 0.508071 0.812815
vn 0.139679 0.287222 0.947625
vn -0.407425 0.776201 0.481162
vn 0.134282 0.983144 -0.124078
vn 0.121395 0.85127 0.510493
vn 0.257485 0.677727 0.688758
vn 0.386748 0.901149 -0.195847
vn -0.622725 -0.384858 0.681248
vn -0.967034 -0.251832 -0.0377498
vn -0.822126 -0.0672263 0.565322
vn 0.584558 0.492277 -0.644946
vn -0.9098 -0.308042 0.278161
vn -0.732931 -0.0276767 0.67974
vn 0.140042 0.132789 0.981201
vn -0.504448 -0.163195 -0.84788
vn -0.509189 -0.0309892 -0.860097
vn -0.111825 0.103391 -0.988335
vn -0.879544 -0.119722 0.460509
vn 0.925848 0.376148 -0.0362971
vn 0.884262 0.466976 -0.00386607
vn -0.902298 -0.414823 0.117394
vn 0.877103 0.0647035 -0.475925
vn 0.994873 0.10044 -0.0117979
vn 0.84828 0.50546 0.157896
g grp1
usemtl mtl1
f 3//3 9//9 1//1 
f 11//11 6//6 9//9 
f 6//6 1//1 9//9 
f 2//2 1//1 6//6 
f 23//23 24//24 1//1 
f 2//2 23//23 1//1 
f 1//1 24//24 3//3 
f 23//23 2//2 50//50 
f 3//3 10//10 9//9 
f 10//10 3//3 4//4 
f 10//10 4//4 15//15 
f 3//3 24//24 25//25 
f 3//3 25//25 4//4 
f 4//4 25//25 5//5 
f 20//20 15//15 5//5 
f 15//15 4//4 5//5 
f 29//29 5//5 25//25 
f 20//20 5//5 29//29 
f 7//7 2//2 6//6 
f 6//6 11//11 7//7 
f 17//17 7//7 117//117 
f 7//7 8//8 2//2 
f 8//8 7//7 17//17 
f 27//27 2//2 8//8 
f 32//32 128//128 8//8 
f 17//17 32//32 8//8 
f 11//11 9//9 12//12 
f 9//9 10//10 12//12 
f 10//10 13//13 12//12 
f 10//10 16//16 13//13 
f 13//13 14//14 12//12 
f 117//117 12//12 14//14 
f 10//10 15//15 16//16 
f 19//19 13//13 118//118 
f 14//14 13//13 19//19 
f 17//17 117//117 14//14 
f 17//17 14//14 18//18 
f 14//14 19//19 120//120 
f 20//20 119//119 15//15 
f 33//33 123//123 119//119 
f 20//20 33//33 119//119 
f 21//21 123//123 33//33 
f 17//17 121//121 124//124 
f 21//21 122//122 123//123 
f 34//34 21//21 33//33 
f 124//124 34//34 32//32 
f 124//124 32//32 17//17 
f 45//45 22//22 50//50 
f 50//50 22//22 23//23 
f 24//24 125//125 25//25 
f 25//25 125//125 51//51 
f 126//126 24//24 23//23 
f 134//134 2//2 57//57 
f 57//57 128//128 59//59 
f 28//28 31//31 56//56 
f 26//26 29//29 25//25 
f 30//30 29//29 58//58 
f 29//29 26//26 58//58 
f 56//56 31//31 30//30 
f 56//56 30//30 58//58 
f 25//25 51//51 26//26 
f 57//57 2//2 27//27 
f 34//34 31//31 28//28 
f 30//30 20//20 29//29 
f 34//34 33//33 31//31 
f 30//30 31//31 33//33 
f 20//20 30//30 33//33 
f 28//28 128//128 32//32 
f 34//34 28//28 32//32 
f 39//39 36//36 35//35 
f 130//130 129//129 62//62 
f 65//65 37//37 62//62 
f 36//36 39//39 42//42 
f 132//132 38//38 36//36 
f 37//37 130//130 62//62 
f 37//37 40//40 130//130 
f 70//70 131//131 37//37 
f 42//42 39//39 22//22 
f 40//40 46//46 130//130 
f 38//38 132//132 44//44 
f 41//41 38//38 44//44 
f 71//71 43//43 70//70 
f 70//70 43//43 131//131 
f 22//22 45//45 42//42 
f 132//132 133//133 44//44 
f 47//47 41//41 44//44 
f 41//41 47//47 73//73 
f 46//46 127//127 130//130 
f 40//40 48//48 46//46 
f 43//43 48//48 131//131 
f 43//43 49//49 48//48 
f 47//47 55//55 73//73 
f 44//44 133//133 134//134 
f 140//140 55//55 49//49 
f 44//44 134//134 47//47 
f 55//55 54//54 49//49 
f 49//49 54//54 48//48 
f 46//46 135//135 127//127 
f 46//46 48//48 51//51 
f 48//48 26//26 51//51 
f 47//47 134//134 57//57 
f 52//52 47//47 57//57 
f 48//48 58//58 26//26 
f 54//54 58//58 48//48 
f 53//53 58//58 54//54 
f 52//52 136//136 55//55 
f 47//47 52//52 55//55 
f 54//54 55//55 136//136 
f 28//28 56//56 137//137 
f 28//28 59//59 128//128 
f 59//59 52//52 57//57 
f 53//53 56//56 58//58 
f 136//136 52//52 137//137 
f 136//136 137//137 56//56 
f 83//83 60//60 61//61 
f 85//85 83//83 63//63 
f 36//36 61//61 35//35 
f 129//129 138//138 62//62 
f 138//138 60//60 62//62 
f 63//63 61//61 36//36 
f 63//63 36//36 38//38 
f 83//83 61//61 63//63 
f 66//66 63//63 38//38 
f 85//85 63//63 66//66 
f 87//87 67//67 65//65 
f 62//62 87//87 65//65 
f 67//67 88//88 68//68 
f 64//64 69//69 68//68 
f 70//70 37//37 65//65 
f 70//70 65//65 67//67 
f 68//68 71//71 67//67 
f 68//68 69//69 71//71 
f 41//41 66//66 38//38 
f 64//64 66//66 69//69 
f 67//67 71//71 70//70 
f 72//72 71//71 69//69 
f 72//72 43//43 71//71 
f 139//139 69//69 66//66 
f 49//49 43//43 72//72 
f 66//66 41//41 139//139 
f 139//139 41//41 73//73 
f 72//72 140//140 49//49 
f 60//60 74//74 62//62 
f 60//60 76//76 74//74 
f 74//74 75//75 80//80 
f 60//60 83//83 77//77 
f 62//62 74//74 80//80 
f 60//60 77//77 76//76 
f 76//76 79//79 75//75 
f 75//75 74//74 76//76 
f 75//75 81//81 80//80 
f 76//76 77//77 78//78 
f 78//78 79//79 76//76 
f 81//81 75//75 79//79 
f 77//77 83//83 92//92 
f 78//78 89//89 90//90 
f 91//91 78//78 90//90 
f 89//89 77//77 92//92 
f 89//89 78//78 77//77 
f 91//91 79//79 78//78 
f 91//91 81//81 79//79 
f 83//83 85//85 92//92 
f 82//82 84//84 80//80 
f 81//81 82//82 80//80 
f 81//81 91//91 107//107 
f 82//82 81//81 107//107 
f 84//84 82//82 108//108 
f 87//87 84//84 116//116 
f 84//84 62//62 80//80 
f 88//88 87//87 116//116 
f 108//108 116//116 84//84 
f 64//64 85//85 66//66 
f 85//85 64//64 86//86 
f 62//62 84//84 87//87 
f 88//88 67//67 87//87 
f 86//86 64//64 68//68 
f 88//88 141//141 68//68 
f 92//92 96//96 95//95 
f 89//89 92//92 95//95 
f 95//95 93//93 89//89 
f 89//89 93//93 90//90 
f 93//93 94//94 90//90 
f 90//90 94//94 91//91 
f 109//109 91//91 94//94 
f 85//85 96//96 92//92 
f 93//93 97//97 94//94 
f 97//97 109//109 94//94 
f 85//85 100//100 96//96 
f 98//98 93//93 95//95 
f 99//99 93//93 98//98 
f 97//97 93//93 99//99 
f 96//96 101//101 95//95 
f 101//101 98//98 95//95 
f 99//99 103//103 97//97 
f 103//103 111//111 97//97 
f 101//101 100//100 104//104 
f 96//96 100//100 101//101 
f 102//102 98//98 101//101 
f 99//99 98//98 102//102 
f 103//103 99//99 102//102 
f 101//101 104//104 102//102 
f 102//102 104//104 105//105 
f 102//102 105//105 103//103 
f 111//111 103//103 113//113 
f 113//113 103//103 105//105 
f 104//104 100//100 106//106 
f 104//104 106//106 105//105 
f 105//105 106//106 115//115 
f 105//105 114//114 113//113 
f 82//82 107//107 110//110 
f 110//110 108//108 82//82 
f 108//108 112//112 116//116 
f 107//107 91//91 109//109 
f 107//107 109//109 110//110 
f 112//112 108//108 110//110 
f 111//111 110//110 109//109 
f 97//97 111//111 109//109 
f 110//110 111//111 112//112 
f 113//113 114//114 112//112 
f 111//111 113//113 112//112 
f 100//100 85//85 86//86 
f 86//86 106//106 100//100 
f 86//86 115//115 106//106 
f 141//141 88//88 115//115 
f 105//105 115//115 114//114 
f 114//114 115//115 88//88 
f 114//114 88//88 116//116 
f 114//114 116//116 112//112 
