#
# The license for this database is specified in the Creative Commons Attribution-Share Alike 2.1 Japan. If you use data from this database, please be sure attribute this database as follows: "BodyParts3D, (c)  The Database Center for Life Science licensed under CC Attribution-Share Alike 2.1 Japan".
# http://dbarchive.biosciencedbc.jp/en/bodyparts3d/lic.html
#
#
# Compatibility version : 4.0
# File ID : FJ3034
# Representation ID : BP9778
# Build-up logic : FMA 3.0 part_of
# Concept ID : FMA68945
# English name : Anterior part of lateral segmental vein
# Bounds(mm): (-73.948000,-114.158000,1211.930100)-(-19.010200,-89.199800,1242.800100)
# Volume(cm3): 1.195300
#
v -72.8153 -113.334 1212.36
v -73.5122 -112.092 1212.82
v -73.5139 -111.649 1213.3
v -72.923 -112.635 1212.27
v -72.8972 -111.865 1212.38
v -73.0441 -111.451 1212.79
v -73.5727 -112.935 1212.78
v -73.5855 -113.576 1213.34
v -73.948 -113.041 1213.58
v -73.7785 -113.417 1213.97
v -73.8991 -112.196 1213.57
v -73.9358 -112.789 1214.18
v -73.4078 -113.803 1213.61
v -73.7568 -113.041 1214.46
v -73.143 -113.483 1212.67
v -72.9201 -113.927 1213.05
v -73.4206 -113.695 1214.31
v -73.6453 -111.759 1214.12
v -73.6247 -112.413 1214.73
v -73.1245 -112.736 1215.19
v -71.4284 -112.59 1211.93
v -72.482 -113.697 1212.47
v -72.1431 -113.208 1212.11
v -71.8374 -113.754 1212.42
v -71.9373 -114.088 1212.95
v -71.1874 -113.871 1212.77
v -70.773 -113.198 1212.21
v -72.1902 -112.165 1212.02
v -72.2687 -110.997 1212.64
v -72.3982 -110.743 1213.23
v -71.9576 -111.359 1212.18
v -70.4147 -111.154 1212
v -72.6483 -114.158 1213.78
v -72.8546 -113.9 1214.67
v -73.0099 -113.447 1215.03
v -72.3863 -113.513 1215.25
v -72.5169 -112.964 1215.47
v -71.8803 -114.019 1214.69
v -71.661 -112.746 1215.68
v -70.6059 -113.876 1214.11
v -70.8924 -113.165 1215.51
v -72.7013 -110.87 1214.26
v -72.8898 -111.611 1215.16
v -72.0278 -111.648 1215.62
v -71.5708 -110.663 1215.33
v -68.4601 -111.748 1212.15
v -67.9199 -112.613 1213.05
v -70.07 -110.107 1212.46
v -69.2195 -112.962 1215.31
v -69.4716 -109.031 1214.64
v -66.5741 -111.638 1212.74
v -66.1152 -108.982 1212.51
v -67.8765 -108.253 1213.88
v -67.875 -108.491 1215.6
v -68.1834 -109.566 1216.29
v -66.0681 -111.138 1216.29
v -63.7763 -106.771 1213.62
v -63.4266 -110.611 1216.03
v -63.8386 -108.764 1217.43
v -61.3829 -108.427 1213.23
v -59.0047 -106.437 1213.69
v -61.7488 -106.454 1217.86
v -57.5941 -107.214 1214.28
v -57.4985 -107.908 1215.05
v -58.7899 -105.397 1213.99
v -59.0624 -108.942 1216.22
v -57.944 -103.327 1217.11
v -59.291 -104.404 1217.94
v -55.0969 -104.166 1214.95
v -55.6407 -105.652 1214.69
v -55.7388 -107.193 1218.09
v -55.279 -103.244 1215.35
v -54.8079 -102.005 1216.88
v -57.0218 -106.457 1219.07
v -55.8704 -104.862 1219.79
v -50.6583 -105.275 1218.4
v -53.324 -102.184 1220.52
v -51.7307 -102.437 1221.41
v -51.341 -103.816 1221.19
v -52.2166 -100.804 1220.11
v -48.4307 -102.962 1217.63
v -49.7001 -104.379 1217.69
v -47.8429 -101.448 1217.68
v -46.1393 -99.5336 1218.63
v -46.6106 -100.945 1223.66
v -44.5806 -100.573 1219.21
v -43.8852 -101.468 1220.04
v -45.6977 -102.27 1222.83
v -43.9 -101.921 1220.56
v -45.8332 -98.1621 1219.55
v -46.4738 -98.5605 1223.6
v -45.3194 -99.0322 1224.55
v -43.5033 -101.928 1222.34
v -42.0654 -96.9966 1221
v -43.5499 -96.2426 1222.03
v -44.2119 -96.4361 1223.21
v -42.6179 -98.7041 1225.96
v -42.3401 -96.0212 1225.55
v -41.1736 -97.811 1221.11
v -39.9952 -98.6866 1221.83
v -39.8578 -99.6702 1222.44
v -40.8369 -95.574 1222.42
v -41.6102 -99.4356 1225.95
v -40.5499 -99.6153 1225.9
v -40.8424 -97.7868 1227.19
v -41.8537 -97.0628 1226.61
v -38.4331 -99.3058 1223.97
v -38.0423 -94.8239 1223.77
v -39.3211 -99.5907 1225.52
v -37.2793 -95.5639 1223.71
v -35.6101 -96.0167 1224.71
v -35.8643 -98.0748 1227.99
v -35.2344 -97.9922 1226.67
v -36.1044 -92.9049 1226.46
v -35.8843 -97.1898 1229.8
v -36.1468 -92.5461 1227.83
v -36.5714 -95.8823 1230.46
v -34.6901 -96.9075 1225.69
v -34.2773 -93.6621 1226.28
v -35.0812 -94.4716 1231.82
v -35.295 -93.0589 1231.09
v -30.8687 -95.0714 1228.59
v -31.9998 -91.6845 1229.13
v -33.9828 -91.8842 1231.01
v -32.1667 -91.0636 1231.57
v -30.0785 -93.3358 1229.25
v -29.6172 -91.8556 1230.26
v -29.953 -95.6481 1233.62
v -29.465 -95.8705 1232.23
v -31.3191 -90.8753 1230.95
v -31.0829 -93.727 1235.01
v -30.0053 -94.8569 1234.97
v -31.7493 -92.3036 1234.23
v -27.6847 -95.0231 1232.2
v -28.6668 -90.4764 1232.43
v -25.049 -94.1376 1234.24
v -25.2326 -94.772 1235.93
v -26.4119 -94.6657 1237.23
v -25.7776 -89.6348 1236.26
v -26.1704 -93.4637 1239.31
v -27.2121 -90.1324 1236.85
v -27.2046 -92.0085 1238.82
v -26.8449 -90.5019 1238.14
v -23.6782 -92.3006 1234.75
v -25.8319 -90.9634 1239.7
v -24.4885 -92.0613 1241.22
v -21.8439 -94.5927 1238.56
v -21.1581 -94.3959 1238.8
v -22.2971 -90.0767 1236.77
v -22.8162 -94.1963 1240.98
v -22.3657 -94.6086 1240.11
v -21.1753 -94.5473 1239.82
v -21.2251 -94.2845 1241.16
v -22.2795 -89.426 1237.83
v -21.6853 -89.1998 1239.19
v -22.7357 -89.2287 1239.7
v -22.7842 -93.1189 1242.05
v -22.7972 -92.0596 1242.37
v -21.6479 -92.5439 1242.7
v -21.4152 -93.7812 1241.96
v -22.799 -89.6756 1240.93
v -21.6373 -89.4975 1241.3
v -22.9383 -90.7896 1241.97
v -21.7441 -90.2577 1242.23
v -20.4568 -93.4978 1238.21
v -21.0433 -91.1501 1237.09
v -20.1015 -90.4459 1238.35
v -20.546 -92.2354 1237.41
v -19.3341 -92.2136 1238.91
v -19.4056 -91.5264 1238.71
v -19.2096 -90.9207 1239.44
v -19.0102 -91.5913 1239.68
v -20.5337 -94.0342 1241.1
v -20.0635 -93.8317 1239.72
v -19.4513 -93.1182 1240.6
v -19.2128 -92.6573 1239.78
v -20.5877 -89.7055 1238.79
v -21.2691 -89.2929 1240.6
v -20.7897 -89.3769 1240.04
v -20.6837 -89.6339 1241.19
v -19.723 -90.1582 1239.39
v -19.8194 -89.9695 1240.08
v -19.2967 -90.5402 1239.92
v -19.7121 -90.4469 1241.35
v -19.0164 -91.1531 1240.14
v -19.2647 -90.8144 1240.92
v -21.4952 -91.6488 1242.8
v -20.7367 -93.6396 1241.96
v -20.9789 -92.7569 1242.63
v -21.0279 -92.0183 1242.8
v -20.8609 -91.107 1242.67
v -19.7164 -92.789 1241.77
v -19.9703 -92.3934 1242.25
v -19.9573 -91.4931 1242.29
v -19.412 -91.6754 1241.73
v -19.0781 -92.0259 1240.88
v -20.7953 -90.1259 1242.04
vn -0.425496 -0.346571 -0.835968
vn -0.744897 0.280263 -0.605459
vn -0.740498 0.634838 -0.220554
vn -0.471938 -0.0163952 -0.881479
vn -0.486695 0.348863 -0.800889
vn -0.600533 0.603875 -0.524114
vn -0.763782 -0.162744 -0.624621
vn -0.731431 -0.594919 -0.333287
vn -0.957789 -0.223489 -0.180812
vn -0.844528 -0.519766 0.128901
vn -0.949049 0.249488 -0.192515
vn -0.966659 -0.00668456 0.255978
vn -0.57443 -0.816616 -0.0562957
vn -0.790145 -0.297791 0.535716
vn -0.546884 -0.554727 -0.627053
vn -0.389641 -0.839437 -0.378849
vn -0.618705 -0.713705 0.328374
vn -0.830412 0.505618 0.234023
vn -0.804208 0.141467 0.577266
vn -0.573524 -0.061487 0.816878
vn 0.0102127 -0.128079 -0.991711
vn -0.246189 -0.680555 -0.690098
vn -0.137881 -0.317848 -0.938063
vn 0.0430071 -0.699006 -0.713822
vn 0.00514615 -0.946232 -0.323449
vn 0.270413 -0.861096 -0.430571
vn 0.21461 -0.540528 -0.813494
vn -0.233859 0.0947741 -0.96764
vn -0.419343 0.686935 -0.593525
vn -0.528335 0.817189 -0.230358
vn -0.285998 0.429764 -0.856451
vn -0.054276 0.211254 -0.975923
vn -0.19394 -0.980406 0.0345114
vn -0.323329 -0.82107 0.470428
vn -0.525271 -0.465175 0.712533
vn -0.153757 -0.584475 0.796711
vn -0.323544 -0.216497 0.921113
vn 0.0654381 -0.891186 0.448893
vn -0.128732 -0.260332 0.956899
vn 0.274888 -0.959731 0.0579057
vn 0.0646401 -0.592106 0.803263
vn -0.605829 0.773949 0.184322
vn -0.608884 0.434546 0.663649
vn -0.346714 0.175508 0.921404
vn -0.468136 0.636458 0.613
vn 0.179658 -0.182673 -0.96662
vn 0.396802 -0.836743 -0.377373
vn -0.242656 0.625373 -0.741638
vn 0.250786 -0.828725 0.500321
vn -0.486998 0.854083 0.18269
vn 0.367025 -0.57945 -0.727688
vn 0.0163787 0.278974 -0.960159
vn -0.395336 0.867919 -0.300709
vn -0.464151 0.700082 0.542632
vn -0.373641 0.397098 0.838275
vn 0.116528 -0.636945 0.762052
vn -0.210133 0.720446 -0.66091
vn 0.279777 -0.853718 0.439192
vn -0.185314 -0.125912 0.974579
vn 0.26249 -0.189556 -0.946133
vn 0.214262 0.0588083 -0.975004
vn -0.400891 0.327919 0.855427
vn 0.420768 -0.42284 -0.802596
vn 0.460268 -0.780492 -0.423066
vn 0.0247989 0.429961 -0.902507
vn 0.380159 -0.920424 0.0911019
vn -0.44813 0.890997 0.0728305
vn -0.488527 0.685119 0.540326
vn 0.218164 0.238132 -0.946413
vn 0.366758 -0.110132 -0.923774
vn 0.211884 -0.843545 0.493494
vn -0.0303074 0.624497 -0.780439
vn -0.344261 0.895746 -0.281288
vn -0.0439327 -0.493782 0.868475
vn -0.272618 -0.123993 0.954099
vn 0.439689 -0.893101 -0.0951033
vn -0.470051 0.34293 0.813297
vn -0.408556 -0.00658675 0.912709
vn -0.145707 -0.46048 0.87563
vn -0.52353 0.779985 0.342839
vn 0.485544 -0.328084 -0.810314
vn 0.515466 -0.651518 -0.556614
vn 0.38086 0.0155679 -0.924502
vn 0.267023 0.320376 -0.908877
vn -0.284598 -0.362224 0.88758
vn 0.484463 -0.097673 -0.869342
vn 0.564293 -0.462698 -0.683728
vn 0.0345178 -0.762622 0.645923
vn 0.538194 -0.772899 -0.336116
vn -0.0365136 0.727566 -0.685065
vn -0.581642 0.453405 0.675364
vn -0.481217 0.00195593 0.876599
vn 0.374187 -0.91639 0.142178
vn 0.263322 0.473435 -0.840548
vn -0.275677 0.911271 -0.305921
vn -0.525166 0.830499 0.185666
vn -0.416382 -0.24294 0.876131
vn -0.624425 0.600906 0.499004
vn 0.459357 0.12923 -0.878801
vn 0.581444 -0.202343 -0.788023
vn 0.614375 -0.558956 -0.556876
vn 0.0177866 0.776387 -0.630005
vn -0.249868 -0.566106 0.785551
vn 0.0438945 -0.844271 0.534116
vn -0.488503 -0.266885 0.830745
vn -0.602841 0.138357 0.785774
vn 0.532534 -0.821586 -0.20348
vn 0.259872 0.602274 -0.754806
vn 0.280766 -0.92787 0.245413
vn 0.446739 0.303298 -0.841686
vn 0.587092 0.029413 -0.808986
vn 0.1678 -0.945225 0.279988
vn 0.452193 -0.88295 -0.126174
vn -0.00942667 0.874371 -0.485167
vn -0.147278 -0.786943 0.599191
vn -0.34875 0.934908 -0.0657242
vn -0.462981 -0.396628 0.792676
vn 0.647216 -0.473028 -0.597792
vn 0.417497 0.482905 -0.76974
vn -0.600852 -0.0474658 0.79795
vn -0.638325 0.526963 0.561116
vn 0.668366 -0.266307 -0.694526
vn 0.214681 0.785222 -0.580808
vn -0.54628 0.766732 0.337195
vn -0.342487 0.935636 0.0853727
vn 0.602507 0.16844 -0.780137
vn 0.46228 0.532433 -0.709092
vn -0.00563566 -0.94023 0.340493
vn 0.286174 -0.957562 0.0343592
vn -0.103137 0.967204 -0.232119
vn -0.618068 -0.197255 0.760975
vn -0.348289 -0.701594 0.62166
vn -0.664221 0.355555 0.657565
vn 0.549405 -0.751596 -0.365044
vn 0.193157 0.873851 -0.446178
vn 0.555642 -0.642472 -0.527723
vn 0.207329 -0.976792 -0.0537734
vn -0.188282 -0.917538 0.350248
vn -0.118417 0.990912 -0.0638052
vn -0.527276 -0.521055 0.67118
vn -0.393773 0.881162 0.261719
vn -0.681877 0.0408653 0.730325
vn -0.549179 0.688333 0.473919
vn 0.661209 -0.0935798 -0.744343
vn -0.608173 0.455521 0.650098
vn -0.615018 -0.0156086 0.788359
vn 0.221144 -0.961479 -0.163257
vn 0.482577 -0.826949 -0.288576
vn 0.456621 0.65199 -0.605315
vn -0.267282 -0.811819 0.519143
vn -0.0237133 -0.985915 0.165555
vn 0.324336 -0.945266 0.0357418
vn 0.128305 -0.909927 0.394424
vn 0.222128 0.9104 -0.349043
vn 0.138854 0.984422 -0.107857
vn -0.176996 0.969971 0.166822
vn -0.414911 -0.459319 0.785414
vn -0.440253 -0.0309948 0.897339
vn -0.170982 -0.293539 0.940532
vn -0.0654412 -0.68282 0.72765
vn -0.402109 0.777252 0.483929
vn -0.046665 0.88952 0.454507
vn -0.477383 0.394501 0.785159
vn -0.184563 0.589073 0.786721
vn 0.697985 -0.540301 -0.46999
vn 0.636297 0.248286 -0.730397
vn 0.678866 0.486959 -0.549556
vn 0.703436 -0.149237 -0.694915
vn 0.860549 -0.233421 -0.452736
vn 0.825358 0.124607 -0.550688
vn 0.878306 0.356666 -0.318384
vn 0.980619 -0.0127222 -0.19551
vn 0.551222 -0.786965 0.277201
vn 0.678505 -0.725792 -0.113385
vn 0.821421 -0.548835 0.155073
vn 0.900356 -0.4039 -0.161939
vn 0.477667 0.817277 -0.322324
vn 0.127326 0.976919 0.171516
vn 0.394575 0.918864 0.000518611
vn 0.401182 0.856067 0.325887
vn 0.708019 0.651615 -0.272225
vn 0.637056 0.769173 0.0503205
vn 0.83641 0.545815 -0.0500335
vn 0.676302 0.573151 0.462724
vn 0.972045 0.23449 0.0119256
vn 0.873785 0.41065 0.260513
vn -0.1893 0.150142 0.970372
vn 0.385373 -0.660105 0.644786
vn 0.191001 -0.408778 0.892423
vn 0.223259 -0.0645165 0.972622
vn 0.205245 0.318862 0.925312
vn 0.756857 -0.442246 0.481234
vn 0.574868 -0.24277 0.781402
vn 0.583265 0.216523 0.782892
vn 0.83639 0.0678518 0.543919
vn 0.969332 -0.130327 0.20835
vn 0.327609 0.659188 0.676863
g grp1
usemtl mtl1
f 1//1 22//22 15//15 
f 7//7 1//1 15//15 
f 2//2 5//5 4//4 
f 6//6 5//5 2//2 
f 3//3 6//6 2//2 
f 11//11 3//3 2//2 
f 6//6 3//3 30//30 
f 1//1 4//4 23//23 
f 29//29 5//5 6//6 
f 30//30 29//29 6//6 
f 8//8 9//9 7//7 
f 4//4 7//7 2//2 
f 2//2 7//7 11//11 
f 9//9 11//11 7//7 
f 9//9 12//12 11//11 
f 10//10 12//12 9//9 
f 18//18 3//3 11//11 
f 7//7 15//15 8//8 
f 10//10 8//8 13//13 
f 9//9 8//8 10//10 
f 13//13 17//17 10//10 
f 17//17 35//35 14//14 
f 10//10 17//17 14//14 
f 10//10 14//14 12//12 
f 12//12 18//18 11//11 
f 14//14 19//19 12//12 
f 7//7 4//4 1//1 
f 16//16 15//15 22//22 
f 8//8 15//15 16//16 
f 16//16 13//13 8//8 
f 17//17 34//34 35//35 
f 20//20 14//14 35//35 
f 14//14 20//20 19//19 
f 33//33 13//13 16//16 
f 13//13 33//33 17//17 
f 17//17 33//33 34//34 
f 18//18 12//12 19//19 
f 18//18 19//19 43//43 
f 19//19 20//20 43//43 
f 42//42 18//18 43//43 
f 21//21 27//27 23//23 
f 21//21 23//23 28//28 
f 46//46 51//51 27//27 
f 23//23 22//22 1//1 
f 25//25 33//33 16//16 
f 23//23 24//24 22//22 
f 24//24 25//25 22//22 
f 22//22 25//25 16//16 
f 27//27 24//24 23//23 
f 27//27 26//26 24//24 
f 26//26 25//25 24//24 
f 33//33 25//25 40//40 
f 26//26 40//40 25//25 
f 47//47 26//26 27//27 
f 51//51 47//47 27//27 
f 47//47 40//40 26//26 
f 28//28 23//23 4//4 
f 28//28 4//4 5//5 
f 29//29 31//31 5//5 
f 31//31 32//32 28//28 
f 28//28 5//5 31//31 
f 21//21 28//28 32//32 
f 21//21 32//32 46//46 
f 27//27 21//21 46//46 
f 53//53 48//48 29//29 
f 29//29 30//30 53//53 
f 48//48 31//31 29//29 
f 35//35 37//37 20//20 
f 36//36 35//35 34//34 
f 36//36 37//37 35//35 
f 40//40 38//38 33//33 
f 38//38 34//34 33//33 
f 38//38 36//36 34//34 
f 39//39 37//37 36//36 
f 41//41 39//39 36//36 
f 49//49 38//38 40//40 
f 38//38 49//49 41//41 
f 47//47 66//66 40//40 
f 66//66 49//49 40//40 
f 38//38 41//41 36//36 
f 42//42 30//30 3//3 
f 42//42 3//3 18//18 
f 50//50 30//30 42//42 
f 53//53 30//30 50//50 
f 50//50 42//42 45//45 
f 50//50 45//45 54//54 
f 54//54 45//45 55//55 
f 20//20 44//44 43//43 
f 44//44 20//20 37//37 
f 39//39 44//44 37//37 
f 42//42 43//43 45//45 
f 43//43 44//44 45//45 
f 41//41 59//59 39//39 
f 59//59 44//44 39//39 
f 45//45 44//44 55//55 
f 48//48 32//32 31//31 
f 52//52 32//32 48//48 
f 66//66 58//58 49//49 
f 56//56 41//41 49//49 
f 66//66 47//47 64//64 
f 56//56 49//49 58//58 
f 44//44 59//59 55//55 
f 46//46 32//32 52//52 
f 51//51 64//64 47//47 
f 48//48 53//53 57//57 
f 53//53 50//50 67//67 
f 52//52 48//48 57//57 
f 46//46 52//52 60//60 
f 60//60 51//51 46//46 
f 57//57 53//53 73//73 
f 59//59 41//41 56//56 
f 67//67 50//50 68//68 
f 68//68 50//50 54//54 
f 55//55 59//59 62//62 
f 55//55 68//68 54//54 
f 68//68 55//55 62//62 
f 52//52 61//61 60//60 
f 62//62 59//59 77//77 
f 61//61 63//63 60//60 
f 63//63 51//51 60//60 
f 61//61 70//70 63//63 
f 57//57 65//65 52//52 
f 65//65 61//61 52//52 
f 63//63 64//64 51//51 
f 72//72 65//65 57//57 
f 61//61 65//65 69//69 
f 69//69 65//65 72//72 
f 70//70 61//61 69//69 
f 58//58 66//66 71//71 
f 71//71 56//56 58//58 
f 57//57 73//73 72//72 
f 68//68 80//80 67//67 
f 74//74 59//59 56//56 
f 71//71 74//74 56//56 
f 69//69 83//83 70//70 
f 59//59 74//74 75//75 
f 75//75 77//77 59//59 
f 73//73 67//67 80//80 
f 67//67 73//73 53//53 
f 68//68 62//62 77//77 
f 80//80 68//68 77//77 
f 66//66 64//64 76//76 
f 76//76 71//71 66//66 
f 78//78 77//77 75//75 
f 79//79 75//75 74//74 
f 78//78 75//75 79//79 
f 63//63 82//82 64//64 
f 82//82 76//76 64//64 
f 81//81 63//63 70//70 
f 71//71 79//79 74//74 
f 91//91 80//80 77//77 
f 70//70 83//83 81//81 
f 82//82 63//63 81//81 
f 82//82 89//89 76//76 
f 76//76 89//89 93//93 
f 82//82 81//81 87//87 
f 87//87 89//89 82//82 
f 76//76 93//93 71//71 
f 90//90 72//72 73//73 
f 88//88 79//79 71//71 
f 85//85 79//79 88//88 
f 78//78 79//79 85//85 
f 77//77 78//78 91//91 
f 69//69 84//84 83//83 
f 86//86 81//81 83//83 
f 86//86 87//87 81//81 
f 84//84 69//69 72//72 
f 90//90 84//84 72//72 
f 93//93 88//88 71//71 
f 92//92 78//78 85//85 
f 80//80 91//91 96//96 
f 84//84 86//86 83//83 
f 101//101 89//89 87//87 
f 93//93 109//109 88//88 
f 94//94 84//84 90//90 
f 73//73 95//95 90//90 
f 103//103 85//85 88//88 
f 85//85 103//103 97//97 
f 97//97 92//92 85//85 
f 109//109 104//104 88//88 
f 104//104 103//103 88//88 
f 96//96 95//95 73//73 
f 73//73 80//80 96//96 
f 96//96 91//91 98//98 
f 78//78 92//92 91//91 
f 100//100 87//87 86//86 
f 100//100 86//86 99//99 
f 86//86 84//84 99//99 
f 100//100 101//101 87//87 
f 102//102 90//90 95//95 
f 99//99 84//84 94//94 
f 102//102 94//94 90//90 
f 98//98 91//91 106//106 
f 92//92 106//106 91//91 
f 106//106 97//97 105//105 
f 106//106 92//92 97//97 
f 89//89 107//107 93//93 
f 107//107 109//109 93//93 
f 102//102 108//108 94//94 
f 105//105 97//97 103//103 
f 98//98 106//106 121//121 
f 106//106 105//105 120//120 
f 99//99 110//110 111//111 
f 99//99 111//111 100//100 
f 107//107 89//89 101//101 
f 118//118 107//107 101//101 
f 110//110 99//99 94//94 
f 108//108 110//110 94//94 
f 95//95 96//96 116//116 
f 120//120 105//105 117//117 
f 117//117 105//105 103//103 
f 100//100 118//118 101//101 
f 108//108 119//119 110//110 
f 111//111 118//118 100//100 
f 111//111 122//122 118//118 
f 111//111 110//110 119//119 
f 118//118 113//113 107//107 
f 113//113 109//109 107//107 
f 112//112 104//104 109//109 
f 113//113 112//112 109//109 
f 114//114 108//108 102//102 
f 95//95 114//114 102//102 
f 119//119 108//108 114//114 
f 104//104 115//115 103//103 
f 104//104 112//112 115//115 
f 117//117 103//103 115//115 
f 95//95 116//116 114//114 
f 124//124 116//116 96//96 
f 96//96 98//98 124//124 
f 121//121 124//124 98//98 
f 119//119 114//114 123//123 
f 114//114 116//116 130//130 
f 114//114 130//130 123//123 
f 132//132 117//117 115//115 
f 132//132 131//131 117//117 
f 124//124 121//121 133//133 
f 121//121 106//106 133//133 
f 111//111 126//126 122//122 
f 126//126 111//111 119//119 
f 126//126 144//144 122//122 
f 119//119 127//127 126//126 
f 127//127 119//119 123//123 
f 130//130 135//135 123//123 
f 128//128 115//115 112//112 
f 132//132 115//115 128//128 
f 125//125 116//116 124//124 
f 125//125 130//130 116//116 
f 141//141 125//125 124//124 
f 139//139 130//130 125//125 
f 139//139 125//125 141//141 
f 106//106 120//120 133//133 
f 120//120 117//117 131//131 
f 113//113 118//118 134//134 
f 129//129 113//113 134//134 
f 122//122 134//134 118//118 
f 112//112 113//113 129//129 
f 166//166 126//126 127//127 
f 112//112 129//129 128//128 
f 132//132 128//128 138//138 
f 134//134 137//137 129//129 
f 130//130 139//139 135//135 
f 127//127 123//123 135//135 
f 120//120 131//131 133//133 
f 166//166 144//144 126//126 
f 144//144 136//136 122//122 
f 129//129 137//137 128//128 
f 131//131 132//132 140//140 
f 138//138 140//140 132//132 
f 143//143 141//141 124//124 
f 133//133 143//143 124//124 
f 145//145 133//133 142//142 
f 122//122 136//136 134//134 
f 136//136 137//137 134//134 
f 137//137 138//138 128//128 
f 136//136 147//147 137//137 
f 154//154 135//135 139//139 
f 149//149 135//135 154//154 
f 141//141 143//143 161//161 
f 143//143 133//133 145//145 
f 142//142 133//133 131//131 
f 151//151 138//138 137//137 
f 127//127 135//135 149//149 
f 138//138 150//150 140//140 
f 156//156 139//139 141//141 
f 156//156 141//141 161//161 
f 161//161 143//143 145//145 
f 142//142 131//131 140//140 
f 145//145 142//142 146//146 
f 142//142 140//140 146//146 
f 168//168 136//136 144//144 
f 137//137 147//147 151//151 
f 148//148 147//147 136//136 
f 165//165 148//148 136//136 
f 166//166 127//127 149//149 
f 167//167 166//166 149//149 
f 167//167 149//149 177//177 
f 149//149 154//154 177//177 
f 166//166 170//170 168//168 
f 166//166 168//168 144//144 
f 151//151 150//150 138//138 
f 150//150 151//151 153//153 
f 147//147 148//148 152//152 
f 151//151 147//147 152//152 
f 151//151 152//152 153//153 
f 173//173 153//153 152//152 
f 153//153 173//173 188//188 
f 153//153 188//188 160//160 
f 153//153 160//160 150//150 
f 156//156 155//155 139//139 
f 155//155 154//154 139//139 
f 178//178 155//155 156//156 
f 179//179 155//155 178//178 
f 161//161 145//145 163//163 
f 178//178 156//156 162//162 
f 157//157 140//140 150//150 
f 157//157 146//146 140//140 
f 145//145 146//146 163//163 
f 157//157 158//158 146//146 
f 160//160 157//157 150//150 
f 158//158 163//163 146//146 
f 163//163 158//158 187//187 
f 160//160 159//159 157//157 
f 157//157 159//159 158//158 
f 159//159 187//187 158//158 
f 164//164 161//161 163//163 
f 164//164 163//163 187//187 
f 162//162 156//156 161//161 
f 162//162 161//161 164//164 
f 164//164 187//187 191//191 
f 136//136 168//168 165//165 
f 167//167 177//177 181//181 
f 168//168 170//170 169//169 
f 168//168 169//169 165//165 
f 167//167 170//170 166//166 
f 165//165 176//176 174//174 
f 176//176 165//165 169//169 
f 170//170 167//167 171//171 
f 167//167 181//181 171//171 
f 181//181 183//183 171//171 
f 169//169 170//170 172//172 
f 169//169 172//172 176//176 
f 170//170 171//171 172//172 
f 176//176 172//172 196//196 
f 171//171 183//183 185//185 
f 172//172 171//171 185//185 
f 172//172 185//185 196//196 
f 174//174 152//152 148//148 
f 174//174 173//173 152//152 
f 165//165 174//174 148//148 
f 176//176 175//175 174//174 
f 175//175 173//173 174//174 
f 192//192 173//173 175//175 
f 173//173 192//192 188//188 
f 196//196 175//175 176//176 
f 192//192 175//175 196//196 
f 155//155 177//177 154//154 
f 162//162 180//180 178//178 
f 177//177 155//155 179//179 
f 179//179 178//178 180//180 
f 197//197 180//180 162//162 
f 182//182 179//179 180//180 
f 184//184 180//180 197//197 
f 179//179 182//182 177//177 
f 177//177 182//182 181//181 
f 184//184 182//182 180//180 
f 181//181 182//182 183//183 
f 183//183 182//182 186//186 
f 184//184 186//186 182//182 
f 186//186 184//184 195//195 
f 185//185 183//183 186//186 
f 185//185 186//186 196//196 
f 196//196 186//186 195//195 
f 188//188 189//189 160//160 
f 189//189 159//159 160//160 
f 159//159 189//189 190//190 
f 190//190 187//187 159//159 
f 190//190 191//191 187//187 
f 188//188 193//193 189//189 
f 193//193 190//190 189//189 
f 190//190 193//193 194//194 
f 194//194 191//191 190//190 
f 191//191 194//194 197//197 
f 192//192 193//193 188//188 
f 195//195 192//192 196//196 
f 192//192 195//195 193//193 
f 193//193 195//195 194//194 
f 195//195 184//184 194//194 
f 162//162 164//164 197//197 
f 164//164 191//191 197//197 
f 194//194 184//184 197//197 
