#
# The license for this database is specified in the Creative Commons Attribution-Share Alike 2.1 Japan. If you use data from this database, please be sure attribute this database as follows: "BodyParts3D, (c)  The Database Center for Life Science licensed under CC Attribution-Share Alike 2.1 Japan".
# http://dbarchive.biosciencedbc.jp/en/bodyparts3d/lic.html
#
#
# Compatibility version : 4.0
# File ID : FJ2937
# Representation ID : BP9565
# Build-up logic : FMA 3.0 part_of
# Concept ID : FMA8668
# English name : Superior lingular vein
# Bounds(mm): (43.951100,-147.099000,1223.960000)-(94.087300,-86.224000,1255.170000)
# Volume(cm3): 1.217500
#
v 44.3511 -89.4433 1250.62
v 44.9531 -88.6138 1249.97
v 44.9613 -87.9296 1250.22
v 45.6547 -90.5377 1249.87
v 44.3041 -87.3941 1251.82
v 44.6799 -86.9281 1252.71
v 44.9552 -86.8814 1251.51
v 43.9844 -88.2858 1252.09
v 43.9543 -89.4382 1252.15
v 43.9511 -88.567 1253.01
v 43.9702 -89.4479 1253.04
v 44.2562 -88.2724 1250.92
v 44.098 -89.4354 1251.25
v 44.1387 -87.6732 1252.99
v 44.5457 -87.6186 1250.93
v 44.1826 -90.3101 1251.8
v 44.1455 -90.3108 1252.67
v 44.7994 -90.6867 1251.02
v 45.0713 -91.2308 1251.6
v 44.3932 -90.6603 1252.96
v 45.4921 -91.6623 1252.49
v 44.6307 -87.3738 1253.77
v 44.1864 -88.2313 1253.87
v 44.1099 -88.8665 1253.87
v 44.1545 -89.4696 1253.87
v 44.3003 -88.5658 1254.22
v 44.3351 -89.4329 1254.21
v 44.6527 -87.9399 1254.33
v 44.6569 -89.1215 1254.58
v 44.655 -89.4791 1254.51
v 44.9396 -88.2755 1254.68
v 44.1308 -90.0367 1253.31
v 44.3584 -90.0473 1253.88
v 44.62 -90.026 1254.21
v 44.9029 -90.6339 1253.9
v 45.9329 -91.7789 1253.02
v 45.8457 -87.3857 1250
v 45.51 -87.0133 1250.62
v 46.4002 -86.8681 1250.32
v 47.0558 -87.3671 1249.7
v 47.0622 -86.616 1250.65
v 46.1287 -89.3951 1249.23
v 45.8132 -88.2583 1249.5
v 46.3513 -87.9468 1249.43
v 46.8543 -88.8823 1249.04
v 47.4925 -88.1118 1249.22
v 45.586 -86.4402 1252.09
v 45.8689 -86.4312 1253.03
v 46.1046 -86.5786 1250.95
v 46.7107 -86.2879 1251.52
v 46.9685 -86.224 1252.4
v 47.0224 -86.3257 1253.02
v 45.2338 -86.8443 1253.61
v 45.2219 -87.3469 1254.28
v 46.0857 -86.9356 1254.18
v 46.6938 -87.3622 1254.63
v 47.0278 -86.7271 1253.88
v 45.2119 -89.437 1254.86
v 45.5373 -87.6613 1254.67
v 45.5436 -88.2598 1254.95
v 45.495 -88.8565 1255.02
v 45.8323 -89.4403 1255.05
v 46.1486 -87.9753 1254.97
v 46.1123 -88.8212 1255.16
v 46.7108 -88.5377 1255.14
v 46.713 -89.1557 1255.17
v 47.0345 -87.9528 1254.93
v 47.3361 -88.5855 1255.05
v 47.817 -89.8585 1254.84
v 45.2522 -90.046 1254.62
v 46.3212 -91.3095 1253.99
v 46.5936 -90.1781 1254.86
v 49.4588 -88.6185 1249.2
v 49.0122 -87.6508 1250.05
v 47.6024 -86.313 1251.8
v 47.652 -86.3541 1252.68
v 48.2258 -86.609 1251.21
v 48.4938 -86.6056 1252.08
v 49.1246 -87.1499 1252.58
v 49.6937 -87.4953 1251.27
v 47.6594 -86.5412 1253.29
v 47.5924 -87.3642 1254.42
v 48.4486 -87.1196 1253.63
v 49.6722 -88.1426 1253.36
v 48.2311 -88.1886 1254.52
v 48.6949 -89.4679 1254.58
v 53.0328 -92.7234 1247.18
v 53.0737 -95.3778 1252.18
v 54.8446 -96.673 1246.17
v 56.1059 -92.9734 1250.22
v 56.7451 -93.2583 1249.15
v 58.6083 -101.547 1245.84
v 57.3054 -100.744 1247.78
v 59.0368 -96.7222 1250.05
v 58.5931 -98.081 1250.41
v 57.151 -100.01 1249.22
v 62.0178 -97.8438 1246.11
v 63.3874 -98.9202 1246.48
v 63.9839 -99.7816 1247.08
v 64.6555 -105.589 1246.57
v 66.7092 -107.738 1241.68
v 66.3735 -108.356 1243.19
v 64.5651 -100.612 1244.02
v 68.0858 -107.123 1240.7
v 67.8376 -102.954 1244.65
v 67.8774 -103.546 1245.55
v 67.7228 -102.865 1243.83
v 68.5712 -105.9 1245.83
v 66.2341 -107.988 1244.56
v 69.2361 -105.799 1241.17
v 69.5441 -104.934 1242.21
v 70.2092 -105.207 1243.03
v 73.2937 -110.965 1238.72
v 72.7823 -108.465 1240.41
v 71.92 -113.333 1239.4
v 71.8941 -112.253 1238.95
v 72.0958 -114.049 1240.17
v 72.0632 -107.347 1243.13
v 72.5522 -107.77 1241.28
v 72.0416 -113.613 1241.77
v 73.5171 -114.293 1242
v 72.2182 -108.187 1243.65
v 71.0193 -109.429 1244.44
v 72.6365 -109.732 1243.73
v 74.7074 -111.506 1238.67
v 74.5608 -114.092 1237.54
v 75.1439 -117.648 1238.01
v 74.2542 -109.548 1241.05
v 75.629 -111.558 1241.31
v 75.6099 -115.023 1241.67
v 75.96 -114.186 1241.76
v 77.4324 -119.26 1235.81
v 76.6184 -112.793 1238.94
v 78.4161 -115.804 1237.21
v 76.7587 -119.754 1238.49
v 77.8612 -120.674 1238.6
v 76.7195 -112.636 1239.82
v 77.3257 -114.56 1240.73
v 78.0478 -114.608 1239.55
v 76.9992 -118.244 1240.15
v 80.1561 -121.531 1234.27
v 79.6168 -119.205 1235.27
v 80.8782 -119.136 1236.22
v 78.8835 -115.719 1238.52
v 80.086 -117.75 1238.29
v 80.4483 -119.023 1238.53
v 79.3109 -118.595 1239.49
v 81.622 -127.248 1233.51
v 82.7563 -122.863 1234.17
v 82.4988 -121.537 1235.95
v 83.3716 -124.328 1236.29
v 81.369 -127.008 1234.32
v 81.6093 -126.895 1235.31
v 83.2749 -127.575 1235.55
v 81.1742 -125.158 1236.62
v 85.3296 -130.623 1230.39
v 84.621 -132.246 1230.9
v 85.7983 -134.637 1231.15
v 85.0044 -126.133 1233.54
v 85.2433 -133.018 1232.44
v 83.4863 -123.774 1235.96
v 83.3506 -126.256 1236.07
v 84.8088 -127.567 1235.03
v 85.1242 -126.338 1234.11
v 85.6745 -127.893 1234.08
v 88.0732 -134.158 1228.89
v 87.721 -131.916 1230.46
v 87.9417 -131.928 1231.21
v 87.962 -134.521 1231.85
v 90.0552 -136.491 1228.87
v 88.769 -134.367 1231.14
v 90.2094 -136.927 1229.4
v 91.6293 -144.992 1224.54
v 92.175 -146.421 1224.23
v 92.623 -146.397 1223.98
v 92.6301 -146.783 1224.23
v 92.5982 -144.913 1224.16
v 91.6496 -145.879 1224.76
v 91.4227 -145.668 1225.46
v 92.1842 -146.713 1224.54
v 92.3188 -146.956 1225.1
v 92.0634 -146.421 1225.64
v 92.6165 -146.985 1224.54
v 92.653 -147.099 1225.08
v 92.6325 -147.022 1225.42
v 92.0023 -145.556 1226.43
v 92.9005 -146.879 1225.74
v 92.4773 -145.506 1226.59
v 93.203 -146.401 1223.96
v 93.2025 -146.731 1224.17
v 93.3088 -145.136 1224.2
v 93.4881 -146.103 1223.98
v 93.5223 -146.449 1224.11
v 93.4111 -144.411 1224.88
v 93.8001 -146.09 1224.24
v 93.1896 -146.988 1224.54
v 93.1882 -147.097 1225.11
v 93.2113 -147.025 1225.43
v 93.2085 -146.716 1225.88
v 93.5221 -146.838 1224.52
v 93.5016 -146.979 1225.1
v 93.7872 -146.427 1225.68
v 93.3321 -146.054 1226.14
v 93.5221 -146.739 1225.68
v 93.8886 -146.44 1224.53
v 93.6929 -144.628 1225.41
v 94.0065 -146.401 1225.13
v 93.8013 -146.74 1225.11
v 93.6036 -145.133 1226.03
v 94.0873 -145.819 1224.84
v 77.4324 -119.26 1235.81
v 92.623 -146.397 1223.98
v 93.203 -146.401 1223.96
v 93.4881 -146.103 1223.98
v 93.7872 -146.427 1225.68
v 94.0065 -146.401 1225.13
v 94.0873 -145.819 1224.84
v 94.0873 -145.819 1224.84
vn -0.806853 -0.190186 -0.5593
vn -0.647373 0.0559227 -0.760119
vn -0.6073 0.4216 -0.673379
vn -0.608015 -0.334208 -0.720155
vn -0.839872 0.512225 -0.179558
vn -0.60652 0.789653 0.0926419
vn -0.541983 0.791714 -0.281856
vn -0.981934 0.153409 -0.110771
vn -0.992898 -0.103109 -0.0593457
vn -0.991216 0.0869294 0.0996658
vn -0.98564 -0.11979 0.119013
vn -0.876248 0.20735 -0.434966
vn -0.944997 -0.148305 -0.291524
vn -0.900824 0.414923 0.127888
vn -0.697938 0.539256 -0.47126
vn -0.874067 -0.443495 -0.198292
vn -0.905846 -0.423358 0.0145054
vn -0.739819 -0.522695 -0.423624
vn -0.692111 -0.708592 -0.137403
vn -0.724425 -0.659648 0.20018
vn -0.610116 -0.784118 0.113656
vn -0.671477 0.609999 0.420736
vn -0.882036 0.285973 0.374476
vn -0.941915 0.00416028 0.335826
vn -0.920247 -0.182481 0.346187
vn -0.770574 0.121294 0.625702
vn -0.784075 -0.179659 0.594096
vn -0.609628 0.426848 0.667948
vn -0.589987 -0.0336488 0.806711
vn -0.579415 -0.273283 0.767851
vn -0.502157 0.233222 0.832734
vn -0.912171 -0.340607 0.227884
vn -0.774596 -0.447491 0.446937
vn -0.608719 -0.443809 0.657643
vn -0.523661 -0.665128 0.532338
vn -0.488161 -0.783048 0.385401
vn -0.350248 0.59129 -0.726431
vn -0.452377 0.712259 -0.536696
vn -0.185933 0.780891 -0.596354
vn 0.0178389 0.674671 -0.737903
vn 0.0815687 0.878458 -0.470805
vn -0.45736 -0.0405382 -0.888357
vn -0.425109 0.279523 -0.8609
vn -0.213733 0.438098 -0.873148
vn -0.220462 0.201449 -0.954366
vn -0.00766997 0.458295 -0.888767
vn -0.314133 0.946192 -0.0777284
vn -0.20731 0.943862 0.25719
vn -0.254833 0.891037 -0.37565
vn -0.0601634 0.976188 -0.208417
vn -0.00777749 0.99887 0.0468893
vn 0.0579954 0.95416 0.293623
vn -0.403805 0.820515 0.404595
vn -0.406649 0.648433 0.643562
vn -0.148231 0.782335 0.604962
vn 0.0277394 0.619863 0.78422
vn 0.116249 0.831037 0.543933
vn -0.411596 -0.205876 0.887808
vn -0.28501 0.517407 0.806882
vn -0.278265 0.261596 0.924195
vn -0.349575 0.0190871 0.936714
vn -0.186444 -0.23585 0.953737
vn -0.0834076 0.373035 0.924061
vn -0.122959 0.0683979 0.990052
vn 0.0528215 0.176108 0.982953
vn 0.0615839 -0.118938 0.99099
vn 0.191773 0.391413 0.900011
vn 0.278993 0.121881 0.952527
vn 0.203886 -0.194678 0.959443
vn -0.360236 -0.478526 0.800777
vn -0.278791 -0.667589 0.690363
vn -0.0624066 -0.424558 0.903247
vn 0.196436 0.615182 -0.76352
vn 0.362156 0.767945 -0.528302
vn 0.193301 0.972813 -0.127549
vn 0.295453 0.938047 0.181038
vn 0.359101 0.881117 -0.307701
vn 0.460472 0.887267 0.0269063
vn 0.590407 0.768027 0.248102
vn 0.572459 0.804964 -0.15596
vn 0.32452 0.87051 0.37
vn 0.314731 0.590627 0.743037
vn 0.481149 0.680431 0.552728
vn 0.628857 0.533136 0.565955
vn 0.480881 0.354386 0.801975
vn 0.410894 0.0773736 0.908394
vn -0.0836485 0.328809 -0.940685
vn -0.0250974 -0.49329 0.869503
vn -0.452839 -0.149341 -0.878996
vn 0.679416 0.626897 0.381305
vn 0.652504 0.755551 0.0581464
vn -0.663569 -0.616232 -0.424187
vn -0.590751 -0.799009 0.112239
vn 0.580717 0.302221 0.75593
vn 0.31054 -0.126675 0.942082
vn -0.36055 -0.746051 0.559832
vn 0.564779 0.783486 -0.259181
vn 0.677639 0.729329 0.0942608
vn 0.694407 0.572322 0.436172
vn -0.209089 -0.625174 0.751957
vn -0.673094 -0.41977 -0.608883
vn -0.690739 -0.718144 -0.0845495
vn 0.414024 0.727698 -0.546845
vn -0.379583 0.036953 -0.924419
vn 0.717827 0.670072 0.189015
vn 0.685954 0.438492 0.580683
vn 0.616335 0.76281 -0.195582
vn 0.504691 0.0957459 0.857974
vn -0.521762 -0.774281 0.358125
vn 0.221255 0.5857 -0.779745
vn 0.511269 0.731995 -0.450319
vn 0.698965 0.713301 -0.0514812
vn -0.019507 0.386676 -0.922009
vn 0.476551 0.675973 -0.562103
vn -0.752454 -0.42389 -0.504112
vn -0.580471 -0.151035 -0.800151
vn -0.770354 -0.623513 -0.133367
vn 0.760545 0.567417 0.315609
vn 0.64185 0.711048 -0.287123
vn -0.571985 -0.729631 0.374796
vn -0.295376 -0.612846 0.73292
vn 0.688526 0.315342 0.653063
vn 0.228553 -0.264185 0.937
vn 0.541564 0.0646453 0.83817
vn 0.338281 0.58707 -0.735469
vn -0.352521 0.122537 -0.927746
vn -0.820778 -0.492197 -0.289939
vn 0.758636 0.651469 -0.00770744
vn 0.799098 0.466988 0.378634
vn 0.144338 -0.354037 0.924026
vn 0.455284 -0.0805732 0.886693
vn -0.464217 0.066888 -0.883192
vn 0.665506 0.654168 -0.359397
vn 0.518063 0.604364 -0.605273
vn -0.723128 -0.641628 0.255735
vn -0.448347 -0.621479 0.642455
vn 0.803532 0.595022 0.0168739
vn 0.725611 0.22741 0.649441
vn 0.839252 0.458513 0.29227
vn -0.154342 -0.51828 0.841168
vn -0.201894 0.267469 -0.942178
vn 0.233628 0.501038 -0.833294
vn 0.693113 0.600176 -0.399227
vn 0.824209 0.564459 -0.045446
vn 0.858034 0.398446 0.324065
vn 0.766625 0.196489 0.611292
vn 0.523675 -0.0712689 0.848932
vn -0.869714 -0.440235 -0.223137
vn 0.557697 0.573936 -0.599643
vn 0.869538 0.492718 0.0336501
vn 0.716497 0.076715 0.693359
vn -0.851269 -0.52441 0.0183107
vn -0.627054 -0.615596 0.477331
vn -0.0581423 -0.470821 0.880311
vn -0.347987 -0.581434 0.735418
vn -0.282745 0.245686 -0.927197
vn -0.868016 -0.302181 -0.393998
vn -0.775982 -0.562091 0.286191
vn 0.814306 0.534401 -0.226543
vn -0.49925 -0.591115 0.633509
vn 0.860315 0.297086 0.414244
vn 0.317418 -0.263891 0.910828
vn 0.617701 -0.0521124 0.784684
vn 0.901809 0.3968 0.171141
vn 0.851862 0.207371 0.480965
vn 0.320321 0.504674 -0.801685
vn 0.706844 0.544738 -0.451256
vn 0.909801 0.409728 0.0662197
vn 0.450257 -0.210963 0.867619
vn 0.868318 0.468964 -0.161547
vn 0.819857 0.124035 0.558973
vn 0.919725 0.301733 0.251122
vn -0.596415 0.00296878 -0.802671
vn -0.636259 -0.366686 -0.67876
vn -0.304578 0.0771676 -0.949356
vn -0.24434 -0.710345 -0.660082
vn -0.0654911 0.247862 -0.966579
vn -0.858649 -0.341406 -0.382314
vn -0.852068 -0.522278 0.0347058
vn -0.692964 -0.643764 -0.324604
vn -0.60832 -0.790583 0.0701823
vn -0.630961 -0.627118 0.456741
vn -0.289268 -0.893843 -0.34259
vn -0.161161 -0.986402 -0.0322247
vn -0.277168 -0.865183 0.417895
vn -0.427451 -0.593883 0.681608
vn -0.120202 -0.722478 0.680865
vn 0.0260914 -0.465164 0.88484
vn -0.0384934 0.120322 -0.991988
vn 0.176934 -0.666263 -0.724423
vn 0.469291 0.399132 -0.787693
vn 0.0435789 0.181835 -0.982363
vn 0.534396 -0.441297 -0.720887
vn 0.736999 0.474692 -0.481145
vn 0.775533 0.0693167 -0.62749
vn 0.159372 -0.920309 -0.357257
vn 0.14198 -0.988443 0.0531173
vn 0.218828 -0.895831 0.386783
vn 0.21937 -0.61465 0.757682
vn 0.541705 -0.744231 -0.390737
vn 0.481565 -0.875393 0.0422239
vn 0.76301 -0.559556 0.323594
vn 0.462991 -0.293568 0.836335
vn 0.525899 -0.657533 0.539519
vn 0.83453 -0.415701 -0.361597
vn 0.933782 0.356793 0.0273961
vn 0.904346 -0.426763 -0.00565499
vn 0.747594 -0.660448 0.0700833
vn 0.847789 0.0537108 0.527607
vn 0.815833 0.404386 -0.413387
vn -0.790843 -0.327725 -0.51688
vn -0.162191 -0.537586 -0.827463
vn 0.215949 -0.456142 -0.863308
vn 0.556595 -0.0743794 -0.827448
vn 0.724142 -0.165779 0.669429
vn 0.931926 0.0408303 0.360344
vn 0.944019 -0.162409 -0.287144
vn 0.941311 0.111789 0.318492
g grp1
usemtl mtl1
f 3//3 15//15 38//38 
f 2//2 4//4 1//1 
f 1//1 4//4 18//18 
f 1//1 18//18 13//13 
f 4//4 92//92 18//18 
f 1//1 12//12 2//2 
f 12//12 15//15 3//3 
f 3//3 2//2 12//12 
f 2//2 42//42 4//4 
f 2//2 43//43 42//42 
f 3//3 43//43 2//2 
f 8//8 14//14 5//5 
f 14//14 6//6 5//5 
f 15//15 5//5 7//7 
f 6//6 7//7 5//5 
f 38//38 15//15 7//7 
f 47//47 7//7 6//6 
f 53//53 48//48 6//6 
f 8//8 12//12 13//13 
f 13//13 16//16 9//9 
f 13//13 9//9 8//8 
f 8//8 9//9 10//10 
f 8//8 10//10 14//14 
f 9//9 11//11 10//10 
f 5//5 15//15 12//12 
f 12//12 1//1 13//13 
f 18//18 16//16 13//13 
f 12//12 8//8 5//5 
f 18//18 19//19 16//16 
f 16//16 17//17 9//9 
f 16//16 19//19 17//17 
f 9//9 17//17 11//11 
f 20//20 17//17 19//19 
f 11//11 17//17 32//32 
f 17//17 20//20 32//32 
f 20//20 19//19 21//21 
f 18//18 92//92 19//19 
f 20//20 21//21 36//36 
f 21//21 93//93 36//36 
f 93//93 96//96 36//36 
f 22//22 6//6 14//14 
f 22//22 53//53 6//6 
f 53//53 22//22 54//54 
f 54//54 22//22 28//28 
f 23//23 14//14 10//10 
f 24//24 23//23 10//10 
f 11//11 24//24 10//10 
f 28//28 22//22 23//23 
f 23//23 22//22 14//14 
f 11//11 25//25 24//24 
f 11//11 32//32 25//25 
f 28//28 23//23 26//26 
f 23//23 24//24 26//26 
f 24//24 27//27 26//26 
f 24//24 25//25 27//27 
f 31//31 26//26 29//29 
f 29//29 26//26 27//27 
f 32//32 33//33 25//25 
f 25//25 33//33 27//27 
f 33//33 34//34 27//27 
f 28//28 26//26 31//31 
f 30//30 27//27 34//34 
f 29//29 27//27 30//30 
f 31//31 59//59 28//28 
f 30//30 34//34 70//70 
f 31//31 29//29 61//61 
f 29//29 30//30 58//58 
f 30//30 70//70 58//58 
f 54//54 28//28 59//59 
f 60//60 59//59 31//31 
f 61//61 60//60 31//31 
f 58//58 61//61 29//29 
f 33//33 32//32 20//20 
f 33//33 20//20 35//35 
f 20//20 36//36 35//35 
f 33//33 35//35 34//34 
f 34//34 35//35 70//70 
f 71//71 70//70 35//35 
f 37//37 3//3 38//38 
f 37//37 38//38 39//39 
f 39//39 38//38 49//49 
f 40//40 37//37 39//39 
f 40//40 39//39 41//41 
f 39//39 49//49 41//41 
f 41//41 49//49 50//50 
f 40//40 41//41 74//74 
f 77//77 74//74 41//41 
f 43//43 3//3 37//37 
f 42//42 89//89 4//4 
f 45//45 43//43 44//44 
f 45//45 42//42 43//43 
f 89//89 42//42 45//45 
f 44//44 43//43 37//37 
f 44//44 46//46 45//45 
f 40//40 44//44 37//37 
f 46//46 44//44 40//40 
f 45//45 46//46 87//87 
f 40//40 73//73 46//46 
f 49//49 38//38 7//7 
f 7//7 47//47 49//49 
f 48//48 47//47 6//6 
f 50//50 49//49 47//47 
f 50//50 47//47 51//51 
f 51//51 47//47 48//48 
f 75//75 50//50 51//51 
f 41//41 50//50 75//75 
f 52//52 51//51 48//48 
f 75//75 51//51 76//76 
f 76//76 51//51 52//52 
f 76//76 52//52 81//81 
f 19//19 93//93 21//21 
f 48//48 53//53 55//55 
f 53//53 54//54 55//55 
f 59//59 55//55 54//54 
f 56//56 55//55 59//59 
f 56//56 59//59 63//63 
f 55//55 57//57 48//48 
f 55//55 56//56 57//57 
f 67//67 56//56 63//63 
f 57//57 56//56 82//82 
f 52//52 48//48 57//57 
f 81//81 52//52 57//57 
f 82//82 56//56 67//67 
f 58//58 70//70 62//62 
f 61//61 58//58 62//62 
f 63//63 59//59 60//60 
f 63//63 60//60 64//64 
f 60//60 61//61 64//64 
f 64//64 61//61 62//62 
f 72//72 62//62 70//70 
f 64//64 65//65 63//63 
f 65//65 64//64 66//66 
f 64//64 62//62 66//66 
f 66//66 62//62 72//72 
f 63//63 65//65 67//67 
f 65//65 68//68 67//67 
f 68//68 65//65 66//66 
f 69//69 66//66 72//72 
f 66//66 69//69 68//68 
f 36//36 96//96 71//71 
f 71//71 35//35 36//36 
f 70//70 71//71 72//72 
f 72//72 71//71 88//88 
f 88//88 69//69 72//72 
f 45//45 87//87 89//89 
f 73//73 40//40 74//74 
f 46//46 73//73 87//87 
f 92//92 93//93 19//19 
f 77//77 41//41 75//75 
f 75//75 78//78 77//77 
f 78//78 75//75 76//76 
f 80//80 74//74 77//77 
f 80//80 77//77 78//78 
f 78//78 76//76 79//79 
f 76//76 81//81 79//79 
f 81//81 83//83 79//79 
f 97//97 74//74 80//80 
f 79//79 80//80 78//78 
f 80//80 79//79 91//91 
f 79//79 83//83 84//84 
f 91//91 79//79 90//90 
f 57//57 83//83 81//81 
f 83//83 57//57 82//82 
f 85//85 83//83 82//82 
f 85//85 82//82 67//67 
f 85//85 84//84 83//83 
f 67//67 68//68 85//85 
f 86//86 68//68 69//69 
f 86//86 85//85 68//68 
f 92//92 102//102 93//93 
f 90//90 79//79 84//84 
f 88//88 95//95 69//69 
f 95//95 86//86 69//69 
f 104//104 89//89 87//87 
f 91//91 90//90 98//98 
f 71//71 96//96 88//88 
f 92//92 4//4 89//89 
f 80//80 91//91 97//97 
f 96//96 93//93 109//109 
f 102//102 109//109 93//93 
f 94//94 90//90 84//84 
f 84//84 85//85 94//94 
f 96//96 100//100 88//88 
f 94//94 85//85 86//86 
f 91//91 98//98 97//97 
f 95//95 88//88 123//123 
f 94//94 86//86 95//95 
f 101//101 89//89 104//104 
f 97//97 98//98 107//107 
f 98//98 105//105 107//107 
f 110//110 87//87 73//73 
f 73//73 103//103 110//110 
f 73//73 74//74 103//103 
f 103//103 74//74 97//97 
f 107//107 103//103 97//97 
f 89//89 101//101 92//92 
f 92//92 101//101 102//102 
f 99//99 90//90 94//94 
f 90//90 99//99 98//98 
f 98//98 99//99 105//105 
f 109//109 100//100 96//96 
f 113//113 104//104 87//87 
f 103//103 107//107 111//111 
f 99//99 94//94 106//106 
f 94//94 95//95 108//108 
f 106//106 94//94 108//108 
f 88//88 100//100 123//123 
f 104//104 113//113 126//126 
f 126//126 116//116 104//104 
f 111//111 110//110 103//103 
f 101//101 117//117 102//102 
f 116//116 101//101 104//104 
f 102//102 117//117 120//120 
f 99//99 106//106 105//105 
f 105//105 112//112 107//107 
f 105//105 106//106 118//118 
f 95//95 123//123 108//108 
f 110//110 114//114 125//125 
f 125//125 113//113 110//110 
f 110//110 113//113 87//87 
f 115//115 117//117 101//101 
f 117//117 135//135 120//120 
f 116//116 115//115 101//101 
f 105//105 118//118 112//112 
f 111//111 114//114 110//110 
f 112//112 118//118 128//128 
f 111//111 107//107 112//112 
f 109//109 102//102 120//120 
f 100//100 109//109 120//120 
f 100//100 121//121 130//130 
f 120//120 121//121 100//100 
f 118//118 106//106 122//122 
f 122//122 106//106 108//108 
f 123//123 100//100 130//130 
f 132//132 116//116 126//126 
f 115//115 116//116 211//211 
f 115//115 211//211 127//127 
f 114//114 133//133 125//125 
f 114//114 119//119 133//133 
f 119//119 128//128 133//133 
f 115//115 127//127 117//117 
f 135//135 117//117 127//127 
f 120//120 135//135 121//121 
f 114//114 111//111 119//119 
f 112//112 119//119 111//111 
f 112//112 128//128 119//119 
f 128//128 118//118 129//129 
f 122//122 108//108 124//124 
f 129//129 118//118 122//122 
f 124//124 108//108 123//123 
f 142//142 113//113 125//125 
f 127//127 148//148 135//135 
f 129//129 137//137 128//128 
f 137//137 129//129 139//139 
f 128//128 137//137 133//133 
f 121//121 135//135 136//136 
f 124//124 138//138 122//122 
f 138//138 124//124 131//131 
f 124//124 123//123 131//131 
f 130//130 131//131 123//123 
f 138//138 129//129 122//122 
f 121//121 140//140 130//130 
f 141//141 126//126 113//113 
f 132//132 126//126 141//141 
f 211//211 148//148 127//127 
f 142//142 125//125 134//134 
f 125//125 133//133 134//134 
f 133//133 143//143 134//134 
f 133//133 144//144 143//143 
f 143//143 144//144 150//150 
f 144//144 139//139 145//145 
f 133//133 137//137 144//144 
f 139//139 144//144 137//137 
f 129//129 138//138 139//139 
f 139//139 138//138 145//145 
f 145//145 138//138 146//146 
f 136//136 140//140 121//121 
f 130//130 147//147 131//131 
f 147//147 138//138 131//131 
f 142//142 156//156 141//141 
f 148//148 211//211 157//157 
f 142//142 141//141 113//113 
f 142//142 134//134 143//143 
f 156//156 132//132 141//141 
f 135//135 153//153 136//136 
f 136//136 153//153 155//155 
f 148//148 152//152 135//135 
f 152//152 153//153 135//135 
f 144//144 145//145 150//150 
f 154//154 130//130 140//140 
f 147//147 130//130 162//162 
f 130//130 154//154 162//162 
f 136//136 155//155 140//140 
f 147//147 146//146 138//138 
f 142//142 166//166 156//156 
f 143//143 150//150 159//159 
f 149//149 143//143 159//159 
f 143//143 149//149 142//142 
f 142//142 149//149 166//166 
f 166//166 149//149 167//167 
f 149//149 159//159 167//167 
f 147//147 163//163 151//151 
f 153//153 160//160 155//155 
f 154//154 140//140 155//155 
f 150//150 145//145 161//161 
f 145//145 146//146 161//161 
f 146//146 151//151 161//161 
f 147//147 151//151 146//146 
f 163//163 147//147 162//162 
f 157//157 132//132 156//156 
f 166//166 177//177 156//156 
f 157//157 152//152 148//148 
f 152//152 158//158 153//153 
f 152//152 157//157 158//158 
f 158//158 160//160 153//153 
f 160//160 154//154 155//155 
f 150//150 161//161 164//164 
f 159//159 150//150 164//164 
f 165//165 164//164 161//161 
f 165//165 161//161 151//151 
f 163//163 165//165 151//151 
f 165//165 163//163 171//171 
f 162//162 154//154 169//169 
f 163//163 162//162 169//169 
f 169//169 171//171 163//163 
f 173//173 157//157 156//156 
f 170//170 167//167 168//168 
f 168//168 172//172 170//170 
f 160//160 186//186 154//154 
f 166//166 167//167 194//194 
f 171//171 169//169 209//209 
f 160//160 158//158 186//186 
f 167//167 159//159 168//168 
f 164//164 168//168 159//159 
f 168//168 164//164 165//165 
f 168//168 165//165 171//171 
f 166//166 191//191 177//177 
f 166//166 194//194 191//191 
f 154//154 186//186 188//188 
f 170//170 194//194 167//167 
f 172//172 168//168 171//171 
f 169//169 154//154 188//188 
f 173//173 174//174 178//178 
f 173//173 178//178 157//157 
f 174//174 180//180 178//178 
f 177//177 173//173 156//156 
f 177//177 175//175 173//173 
f 175//175 174//174 173//173 
f 180//180 174//174 176//176 
f 176//176 174//174 212//212 
f 180//180 176//176 183//183 
f 176//176 212//212 190//190 
f 190//190 196//196 176//176 
f 196//196 183//183 176//176 
f 177//177 189//189 175//175 
f 213//213 190//190 212//212 
f 206//206 170//170 172//172 
f 178//178 179//179 157//157 
f 179//179 158//158 157//157 
f 179//179 178//178 180//180 
f 180//180 181//181 179//179 
f 158//158 179//179 182//182 
f 182//182 179//179 181//181 
f 182//182 186//186 158//158 
f 184//184 181//181 183//183 
f 181//181 180//180 183//183 
f 182//182 181//181 185//185 
f 181//181 184//184 185//185 
f 186//186 182//182 185//185 
f 196//196 184//184 183//183 
f 184//184 196//196 197//197 
f 197//197 185//185 184//184 
f 187//187 186//186 185//185 
f 187//187 188//188 186//186 
f 198//198 185//185 197//197 
f 198//198 187//187 185//185 
f 199//199 188//188 187//187 
f 198//198 199//199 187//187 
f 169//169 188//188 203//203 
f 199//199 203//203 188//188 
f 203//203 209//209 169//169 
f 172//172 171//171 209//209 
f 192//192 177//177 191//191 
f 177//177 192//192 189//189 
f 214//214 193//193 213//213 
f 193//193 190//190 213//213 
f 193//193 200//200 190//190 
f 190//190 200//200 196//196 
f 191//191 195//195 214//214 
f 195//195 205//205 193//193 
f 195//195 193//193 214//214 
f 205//205 200//200 193//193 
f 195//195 191//191 194//194 
f 195//195 194//194 210//210 
f 205//205 195//195 217//217 
f 194//194 170//170 206//206 
f 196//196 201//201 197//197 
f 196//196 200//200 201//201 
f 201//201 204//204 198//198 
f 197//197 201//201 198//198 
f 199//199 204//204 203//203 
f 204//204 199//199 198//198 
f 200//200 208//208 201//201 
f 202//202 204//204 208//208 
f 208//208 204//204 201//201 
f 204//204 215//215 203//203 
f 194//194 206//206 210//210 
f 217//217 207//207 205//205 
f 205//205 207//207 208//208 
f 200//200 205//205 208//208 
f 218//218 206//206 209//209 
f 206//206 172//172 209//209 
f 209//209 215//215 216//216 
f 202//202 208//208 207//207 
f 215//215 209//209 203//203 
f 209//209 216//216 218//218 
