#
# The license for this database is specified in the Creative Commons Attribution-Share Alike 2.1 Japan. If you use data from this database, please be sure attribute this database as follows: "BodyParts3D, (c)  The Database Center for Life Science licensed under CC Attribution-Share Alike 2.1 Japan".
# http://dbarchive.biosciencedbc.jp/en/bodyparts3d/lic.html
#
#
# Compatibility version : 4.0
# File ID : FJ3531
# Representation ID : BP10357
# Build-up logic : FMA 3.0 is_a
# Concept ID : FMA18910
# English name : Left superior gluteal vein
# Bounds(mm): (13.354200,-64.536300,849.212000)-(56.521800,-27.792000,896.691000)
# Volume(cm3): 0.977500
#
v 13.6958 -50.3903 876.605
v 13.7351 -51.9316 876.021
v 14.2194 -52.0412 877.551
v 14.8154 -52.7009 876.814
v 15.0615 -51.8002 877.847
v 14.5084 -52.7602 874.641
v 13.7752 -44.6301 869.801
v 13.859 -42.3725 871.843
v 14.7393 -50.4869 878.708
v 16.5293 -50.4112 879.129
v 16.6053 -48.8377 878.388
v 13.3542 -38.9682 866.759
v 13.9645 -37.084 866.739
v 15.488 -41.7073 872.787
v 15.1975 -54.016 875.242
v 14.9932 -52.2964 873.835
v 15.665 -53.4381 874.218
v 16.7884 -53.6705 875.438
v 17.1855 -54.1219 874.542
v 17.075 -52.5755 873.54
v 18.8464 -52.2083 874.349
v 19.5793 -52.5518 876.136
v 19.5357 -51.8239 875.205
v 14.1122 -39.6355 864.587
v 17.1644 -40.1214 863.473
v 15.3306 -44.8251 868.285
v 19.0261 -43.5252 869.325
v 17.9829 -45.1413 875.314
v 18.9542 -49.5832 877.569
v 19.7223 -50.4734 876.079
v 19.4924 -51.4279 877.402
v 15.7041 -30.6278 854.339
v 13.9376 -34.1763 860.958
v 14.6509 -32.975 861.302
v 14.1354 -34.3612 859.325
v 14.4753 -32.3268 858.299
v 15.9867 -34.2442 856.052
v 15.9122 -33.2911 862.694
v 17.0713 -36.5774 867.422
v 18.7572 -38.0707 866.532
v 18.5013 -41.7074 871.598
v 16.7867 -28.7955 854.668
v 16.2901 -29.9828 857.597
v 17.1402 -30.1298 851.866
v 18.2921 -31.4607 851.335
v 18.4455 -29.2168 850.755
v 19.2426 -32.6932 852.76
v 19.8275 -32.4222 851.691
v 19.3958 -30.7692 850.126
v 20.4186 -32.4297 853.459
v 20.9684 -31.42 854.457
v 20.7456 -32.6116 852.232
v 19.5397 -33.2456 856.29
v 17.5221 -28.7229 852.192
v 19.1956 -28.4734 855.021
v 19.6665 -27.792 853.249
v 20.7144 -29.2256 854.711
v 20.9108 -28.0293 851.12
v 19.0921 -30.7129 857.526
v 20.8515 -29.544 849.562
v 21.0536 -32.6831 851.221
v 21.8933 -32.0708 853.403
v 21.9811 -32.3657 849.742
v 22.6585 -33.4183 851.336
v 22.2242 -31.3638 849.212
v 23.4846 -32.5917 853.25
v 24.9019 -30.6892 849.478
v 22.3647 -30.8622 853.863
v 22.9545 -29.1643 853.148
v 23.3105 -28.6549 851.671
v 24.617 -31.4253 853.424
v 33.1187 -42.5105 855.5
v 27.1257 -33.1099 849.454
v 27.5897 -35.8312 850.072
v 29.535 -34.1555 850.455
v 27.2801 -36.6466 852.939
v 28.0784 -34.4889 853.935
v 27.1897 -36.5073 850.942
v 29.2509 -33.3671 853.064
v 33.148 -41.1261 856.183
v 27.3841 -31.4831 851.591
v 33.3054 -41.7806 852.967
v 37.0016 -46.4188 858.362
v 37.4171 -45.9183 859.007
v 38.0766 -47.9708 858.19
v 38.9139 -45.2497 859.373
v 32.7798 -39.3603 851.731
v 34.7159 -39.3701 855.681
v 36.3664 -40.7967 854.599
v 43.7906 -54.0992 863.216
v 45.3598 -55.7412 865.905
v 44.3057 -53.9019 862.421
v 45.7574 -55.7045 864.693
v 47.7023 -57.7787 868.58
v 39.2406 -48.583 857.574
v 38.9172 -46.7038 856.1
v 39.094 -45.1636 855.752
v 40.4475 -45.8497 859.501
v 41.2121 -49.9319 858.546
v 42.5393 -48.3071 859.048
v 40.5488 -50.6469 860.858
v 40.9567 -49.7607 862.001
v 40.771 -50.7201 859.722
v 43.2594 -50.2156 859.607
v 44.7042 -50.5257 862.784
v 44.9344 -53.141 861.881
v 44.3128 -54.2237 865.466
v 44.0554 -51.622 864.552
v 47.5671 -54.0536 867.078
v 46.8013 -56.3959 868.825
v 46.9618 -55.7286 868.915
v 47.7201 -56.3657 870.087
v 48.7679 -56.0086 870.545
v 49.3022 -58.6918 872.94
v 49.62 -57.5154 873.377
v 50.6134 -58.7449 876.054
v 52.6036 -59.1705 881.323
v 51.951 -59.8574 879.843
v 53.7942 -60.7893 886.922
v 53.0729 -60.6797 883.182
v 52.901 -59.7857 882.894
v 54.2052 -61.6716 886.293
v 53.5189 -59.4586 883.746
v 54.7029 -60.2259 887.099
v 54.3606 -61.6926 889.014
v 55.173 -63.0136 891.668
v 54.8597 -61.2983 889.78
v 54.9151 -62.2616 888.278
v 55.2229 -62.9268 893.242
v 55.8172 -63.8176 895.268
v 56.4048 -64.5363 896.691
v 55.8355 -63.7365 893.052
v 56.5218 -63.1794 892.784
v 56.3406 -63.4815 896.132
v 47.3572 -56.017 865.301
v 48.0497 -57.6196 867.539
v 48.8113 -58.5094 869.577
v 49.1907 -58.0481 868.619
v 50.3724 -59.6135 874.06
v 50.5417 -59.4712 872.363
v 47.3334 -54.1146 864.457
v 48.0486 -54.2538 866.393
v 49.2947 -55.7217 869.718
v 48.7589 -56.2041 866.676
v 49.7383 -56.3379 868.393
v 50.5994 -57.9802 869.884
v 50.1775 -56.7567 872.353
v 51.303 -57.775 875.733
v 51.4817 -60.0889 875.101
v 51.9536 -57.7825 875.411
v 52.5227 -59.9552 875.875
v 51.9883 -58.8389 873.066
v 51.3051 -57.2937 871.603
v 52.7961 -60.6938 880.467
v 53.4726 -60.7488 880.33
v 53.7368 -59.1188 878.544
v 53.7015 -61.1084 882.883
v 55.0396 -61.837 886.558
v 53.8937 -59.1492 882.588
v 55.4893 -60.743 887.444
v 54.9169 -60.5704 883.423
v 55.6781 -61.596 887.539
v 13.7351 -51.9316 876.021
v 14.2194 -52.0412 877.551
v 14.2194 -52.0412 877.551
v 14.8154 -52.7009 876.814
v 14.7393 -50.4869 878.708
v 16.5293 -50.4112 879.129
v 16.5293 -50.4112 879.129
v 13.9645 -37.084 866.739
v 15.1975 -54.016 875.242
v 15.1975 -54.016 875.242
v 15.1975 -54.016 875.242
v 17.1855 -54.1219 874.542
v 17.1855 -54.1219 874.542
v 19.5793 -52.5518 876.136
v 19.5793 -52.5518 876.136
v 14.1122 -39.6355 864.587
v 17.1644 -40.1214 863.473
v 17.1644 -40.1214 863.473
v 17.1644 -40.1214 863.473
v 19.4924 -51.4279 877.402
v 19.4924 -51.4279 877.402
v 15.7041 -30.6278 854.339
v 14.6509 -32.975 861.302
v 15.9867 -34.2442 856.052
v 15.9867 -34.2442 856.052
v 15.9867 -34.2442 856.052
v 17.0713 -36.5774 867.422
v 17.0713 -36.5774 867.422
v 18.7572 -38.0707 866.532
v 18.5013 -41.7074 871.598
v 16.7867 -28.7955 854.668
v 16.2901 -29.9828 857.597
v 18.4455 -29.2168 850.755
v 20.4186 -32.4297 853.459
v 20.9684 -31.42 854.457
v 20.9684 -31.42 854.457
v 20.7456 -32.6116 852.232
v 19.5397 -33.2456 856.29
v 19.5397 -33.2456 856.29
v 19.5397 -33.2456 856.29
v 17.5221 -28.7229 852.192
v 19.6665 -27.792 853.249
v 20.7144 -29.2256 854.711
v 20.9108 -28.0293 851.12
v 19.0921 -30.7129 857.526
v 19.0921 -30.7129 857.526
v 20.8515 -29.544 849.562
v 21.8933 -32.0708 853.403
v 21.8933 -32.0708 853.403
v 22.6585 -33.4183 851.336
v 22.6585 -33.4183 851.336
v 23.4846 -32.5917 853.25
v 23.4846 -32.5917 853.25
v 24.9019 -30.6892 849.478
v 22.3647 -30.8622 853.863
v 23.3105 -28.6549 851.671
v 24.617 -31.4253 853.424
v 33.1187 -42.5105 855.5
v 27.2801 -36.6466 852.939
v 27.2801 -36.6466 852.939
v 28.0784 -34.4889 853.935
v 29.2509 -33.3671 853.064
v 33.148 -41.1261 856.183
v 27.3841 -31.4831 851.591
v 34.7159 -39.3701 855.681
v 44.3128 -54.2237 865.466
v 44.0554 -51.622 864.552
v 47.5671 -54.0536 867.078
v 46.8013 -56.3959 868.825
v 46.9618 -55.7286 868.915
v 49.3022 -58.6918 872.94
v 50.6134 -58.7449 876.054
v 50.6134 -58.7449 876.054
v 52.6036 -59.1705 881.323
v 53.7942 -60.7893 886.922
v 53.7942 -60.7893 886.922
v 53.5189 -59.4586 883.746
v 54.7029 -60.2259 887.099
v 54.7029 -60.2259 887.099
v 54.3606 -61.6926 889.014
v 54.9151 -62.2616 888.278
v 54.9151 -62.2616 888.278
v 55.2229 -62.9268 893.242
v 55.8172 -63.8176 895.268
v 56.4048 -64.5363 896.691
v 56.4048 -64.5363 896.691
v 56.4048 -64.5363 896.691
v 55.8355 -63.7365 893.052
v 56.5218 -63.1794 892.784
v 56.3406 -63.4815 896.132
v 50.5417 -59.4712 872.363
v 50.5994 -57.9802 869.884
v 51.9883 -58.8389 873.066
v 51.3051 -57.2937 871.603
v 53.7368 -59.1188 878.544
v 53.7015 -61.1084 882.883
v 55.0396 -61.837 886.558
v 53.8937 -59.1492 882.588
v 54.9169 -60.5704 883.423
v 55.6781 -61.596 887.539
vn -0.959417 0.0440193 0.278536
vn -0.965506 -0.244269 -0.0901748
vn -0.926023 -0.0824802 0.368346
vn -0.677333 -0.691147 0.252065
vn 0.0216453 -0.718537 0.695152
vn -0.711122 -0.483205 -0.510704
vn -0.840393 -0.344693 -0.418241
vn -0.813673 0.369556 0.448736
vn -0.627693 0.368424 0.685759
vn 0.00862818 -0.682507 0.730828
vn 0.0685678 0.518476 0.852338
vn -0.999505 0.00330958 -0.03128
vn -0.908218 0.351839 0.226604
vn -0.175342 0.658706 0.731684
vn -0.834824 -0.52975 -0.149778
vn -0.550433 -0.500602 -0.668148
vn -0.332152 -0.61196 -0.717761
vn 0.134871 -0.79822 0.587073
vn -0.156525 -0.685073 -0.711459
vn 0.239894 -0.513545 -0.823846
vn 0.649459 -0.481561 -0.588474
vn 0.148603 -0.768966 0.621778
vn 0.923927 -0.234167 -0.302532
vn -0.894397 -0.305776 -0.326429
vn -0.343303 -0.685935 -0.641589
vn -0.275194 -0.594763 -0.755331
vn 0.784605 -0.340443 -0.518164
vn 0.39819 0.57944 0.711122
vn 0.698924 0.330782 0.634105
vn 0.992115 0.0852395 0.0918832
vn 0.119897 -0.744027 0.657305
vn -0.854132 0.463241 -0.236363
vn -0.961218 0.26914 0.0602021
vn -0.832369 0.521132 0.188637
vn -0.942461 -0.15426 -0.296598
vn -0.909879 0.414871 -0.00134163
vn -0.324474 -0.765889 -0.555095
vn -0.0520927 0.814607 0.57767
vn -0.110518 0.794371 0.597294
vn 0.986391 0.136454 0.0917212
vn 0.848197 0.380259 0.368735
vn -0.824408 0.563804 -0.049765
vn -0.758555 0.633274 0.153488
vn -0.766374 -0.0630655 -0.639291
vn -0.486315 -0.628696 -0.606827
vn -0.281002 0.762369 -0.582951
vn 0.0116063 -0.967026 -0.254413
vn -0.283719 -0.905274 -0.3162
vn -0.483724 -0.205888 -0.850659
vn 0.228912 -0.947716 0.222338
vn 0.8295 -0.549642 0.0991147
vn -0.0638534 -0.997885 0.0121579
vn 0.287623 -0.898245 -0.332309
vn -0.813053 0.402805 -0.420348
vn 0.212191 0.82355 0.526061
vn -0.277869 0.960567 -0.0100319
vn 0.856522 0.0396191 0.514587
vn -0.0680014 0.831258 -0.551711
vn 0.367325 0.72173 0.586667
vn -0.0277391 0.717083 -0.696435
vn -0.33428 -0.916943 -0.217882
vn 0.332333 -0.763215 0.554128
vn -0.393143 -0.687847 -0.610169
vn -0.481029 -0.854117 -0.197726
vn -0.138087 -0.134245 -0.98128
vn -0.183801 -0.839944 0.5106
vn 0.0599419 0.1506 -0.986776
vn 0.455559 -0.0219256 0.889936
vn 0.457768 0.60129 0.654904
vn 0.432781 0.79557 -0.423992
vn -0.0139529 -0.134275 0.990846
vn -0.649685 -0.738475 -0.180454
vn 0.237763 0.0328596 -0.970767
vn -0.138425 -0.453109 -0.880642
vn 0.625689 0.445281 -0.640499
vn -0.501246 -0.276191 0.820043
vn -0.337678 -0.166225 0.926468
vn -0.543844 -0.768051 -0.338129
vn 0.259302 0.582064 0.770691
vn -0.651276 -0.262283 0.712072
vn 0.658611 0.709981 -0.249317
vn -0.340053 -0.688501 -0.64057
vn -0.790313 -0.395241 0.468177
vn -0.622579 -0.0112963 0.782476
vn -0.702957 -0.703961 -0.10144
vn -0.104827 0.500581 0.859319
vn 0.360356 -0.129629 -0.923764
vn 0.0262189 0.468376 0.88314
vn 0.776839 0.595541 -0.204578
vn -0.555371 -0.796515 -0.239011
vn -0.733184 -0.674798 0.0841967
vn -0.0923845 -0.774267 -0.626079
vn -0.283999 -0.86551 -0.412598
vn -0.616262 -0.787101 -0.0263324
vn -0.321684 -0.735005 -0.596898
vn 0.205449 -0.439423 -0.87447
vn 0.638608 0.0375368 -0.768616
vn 0.44015 0.740845 0.507362
vn 0.0669992 -0.629888 -0.77379
vn 0.834569 0.390782 -0.388308
vn -0.802342 -0.562692 0.199063
vn -0.729137 -0.105296 0.676219
vn -0.487089 -0.787842 -0.376893
vn 0.603454 -0.170638 -0.778926
vn 0.597852 0.761428 0.250599
vn 0.425854 -0.462106 -0.777886
vn -0.836253 -0.408023 0.36633
vn -0.581839 0.20515 0.787005
vn -0.0692759 0.785909 0.614449
vn -0.808124 -0.53441 0.247673
vn -0.775015 0.121903 0.620074
vn -0.66005 0.453281 0.599058
vn -0.227509 0.821237 0.523267
vn -0.77688 -0.594023 0.208794
vn -0.660445 0.533272 0.528615
vn -0.915076 -0.246036 0.319534
vn -0.889124 0.30928 0.337349
vn -0.936895 -0.235825 0.258098
vn -0.857754 0.344866 0.381214
vn -0.828103 -0.545555 0.128898
vn -0.920325 0.249038 0.301633
vn -0.594576 -0.803192 -0.036897
vn -0.691616 0.63345 0.346998
vn -0.460468 0.810839 0.361261
vn -0.84746 0.404466 0.34383
vn -0.773882 -0.632789 -0.0261594
vn -0.662109 0.651406 0.370515
vn -0.688695 -0.722517 -0.060563
vn -0.792655 0.488733 0.36447
vn -0.772549 -0.634263 -0.0296342
vn -0.743205 -0.668362 -0.0306406
vn -0.737907 -0.674086 -0.0331847
vn 0.955875 0.293 0.0213339
vn -0.715606 0.551431 0.428756
vn 0.378018 -0.613831 -0.693047
vn -0.0692753 -0.888258 -0.454092
vn -0.222321 -0.94214 -0.25089
vn 0.358252 -0.759052 -0.543595
vn -0.632823 -0.770019 0.0812776
vn 0.399834 -0.822605 -0.404293
vn 0.819514 0.0480565 -0.571041
vn 0.770558 0.635029 -0.0545818
vn 0.490316 0.854782 0.170111
vn 0.738745 -0.269467 -0.617773
vn 0.881188 0.345259 -0.322962
vn 0.525482 -0.682706 -0.507721
vn 0.0924167 0.948541 0.30287
vn -0.328698 0.879305 0.344646
vn -0.031445 -0.986773 -0.159027
vn 0.392069 0.915652 0.0886776
vn 0.641182 -0.695685 -0.323896
vn 0.52584 -0.743196 -0.413705
vn 0.564349 0.825243 0.0220067
vn -0.460766 -0.887377 0.016049
vn 0.253798 -0.949409 -0.184958
vn 0.686284 0.727177 -0.0150876
vn -0.355189 -0.932422 -0.0665569
vn -0.131509 -0.972349 -0.192982
vn -0.119878 0.966758 0.225849
vn 0.818252 0.574517 0.0198654
vn 0.8903 0.447244 -0.085668
vn 0.550303 -0.785904 -0.281994
vn -0.677333 -0.691147 0.252065
vn -0.0948447 -0.645218 0.758088
vn -0.644311 -0.749876 0.150163
vn 0.100892 -0.747971 0.656019
vn -0.16883 -0.55145 0.816945
vn -0.224307 0.424071 0.877411
vn 0.471039 0.226798 0.852458
vn -0.373058 0.716711 0.589198
vn -0.700247 -0.622103 0.350204
vn -0.40605 -0.703973 -0.582705
vn 0.10562 -0.812263 0.573649
vn 0.166762 -0.848968 0.501442
vn 0.575195 -0.559347 -0.596893
vn 0.72772 -0.553579 -0.404937
vn 0.997593 -0.0683346 0.0117381
vn -0.440419 -0.646771 -0.62267
vn 0.410634 -0.725328 -0.552521
vn 0.912532 -0.308958 -0.268012
vn 0.249636 -0.739425 -0.625246
vn 0.96886 0.0875715 0.231606
vn 0.52127 0.0752005 0.850072
vn -0.875796 -0.199938 -0.439324
vn -0.366391 0.779033 0.508787
vn -0.78046 -0.360953 -0.510486
vn -0.190584 -0.801896 -0.566251
vn 0.272019 -0.869973 -0.411283
vn 0.713765 0.540402 0.445539
vn 0.278461 0.651827 0.705394
vn 0.985468 0.11174 0.127933
vn 0.27235 0.670709 0.689909
vn -0.241476 0.950168 0.197155
vn -0.158779 0.868337 0.469872
vn -0.614113 0.127768 -0.778807
vn 0.8295 -0.549642 0.0991147
vn 0.392738 -0.448449 0.802901
vn 0.848681 -0.0375334 0.527571
vn -0.183801 -0.839944 0.5106
vn 0.8295 -0.549642 0.0991147
vn 0.939291 -0.00139993 0.34312
vn 0.87621 -0.458326 -0.148975
vn -0.323758 0.903568 -0.280616
vn 0.329992 0.900619 0.282826
vn 0.493704 0.361524 0.790921
vn 0.244582 0.969 0.0348984
vn 0.712324 0.530321 0.459732
vn 0.915031 0.0126118 0.403187
vn -0.242526 0.0893139 -0.966025
vn -0.205975 -0.79587 0.569355
vn -0.0239023 -0.347401 0.937412
vn -0.160544 -0.879073 0.448839
vn -0.60282 -0.604266 0.521029
vn -0.0814164 -0.237735 0.967912
vn -0.60282 -0.604266 0.521029
vn 0.441187 0.704187 -0.556304
vn 0.0488568 -0.305121 0.951059
vn 0.390102 0.87884 0.274703
vn 0.35148 0.503356 0.789363
vn -0.733422 -0.365161 0.573367
vn -0.60282 -0.604266 0.521029
vn -0.637418 -0.770117 -0.0248756
vn 0.122125 0.413618 0.902223
vn 0.715901 0.696295 0.0515684
vn -0.185419 0.32492 0.927387
vn 0.475314 0.675999 0.563119
vn 0.699135 0.700576 0.14284
vn -0.690509 0.163348 0.704638
vn 0.191567 0.755907 0.626024
vn 0.46794 0.840949 0.271729
vn -0.80302 0.139783 0.579327
vn -0.289054 0.712021 0.639901
vn -0.884615 0.0675984 0.461396
vn -0.916036 0.103533 0.387505
vn -0.670541 0.614295 0.415952
vn -0.425725 0.860272 0.280519
vn -0.921468 -0.366334 0.129216
vn -0.614001 0.71167 0.341362
vn -0.129586 0.967597 0.216712
vn -0.0551514 0.968915 0.241166
vn 0.489054 0.855856 0.168334
vn -0.821603 -0.569914 0.0129257
vn 0.485557 -0.836949 -0.252489
vn -0.112835 -0.962737 -0.245774
vn -0.832098 -0.55393 0.0278198
vn -0.86764 0.256745 0.425773
vn -0.870738 0.18783 0.454462
vn 0.545029 -0.796932 -0.260465
vn 0.99368 0.093443 0.0622016
vn 0.491714 -0.81424 -0.308594
vn 0.531483 -0.795275 -0.291657
vn 0.826528 0.545689 0.138114
vn -0.320804 -0.94063 -0.110908
vn 0.899752 0.0476912 -0.433788
vn 0.940002 -0.0538521 -0.336892
vn 0.925655 0.0920691 -0.366995
vn 0.93487 -0.173148 -0.3099
vn 0.483487 -0.837802 -0.25363
vn 0.59011 -0.7619 -0.26698
vn 0.710845 0.703309 -0.0074841
vn 0.664466 -0.691268 -0.283962
vn 0.972781 0.202723 -0.112252
g grp1
usemtl mtl1
f 26//26 6//6 7//7 
f 2//2 3//3 1//1 
f 12//12 2//2 1//1 
f 1//1 9//9 8//8 
f 164//164 10//10 167//167 
f 1//1 3//3 9//9 
f 165//165 163//163 4//4 
f 166//166 5//5 164//164 
f 10//10 164//164 5//5 
f 7//7 6//6 2//2 
f 6//6 15//15 2//2 
f 171//171 4//4 163//163 
f 6//6 26//26 16//16 
f 166//166 10//10 5//5 
f 7//7 12//12 24//24 
f 2//2 12//12 7//7 
f 12//12 1//1 8//8 
f 8//8 9//9 14//14 
f 9//9 168//168 11//11 
f 14//14 9//9 11//11 
f 14//14 11//11 28//28 
f 35//35 24//24 12//12 
f 12//12 8//8 13//13 
f 170//170 8//8 14//14 
f 39//39 170//170 14//14 
f 17//17 26//26 20//20 
f 6//6 17//17 172//172 
f 6//6 16//16 17//17 
f 16//16 26//26 17//17 
f 31//31 10//10 166//166 
f 172//172 17//17 19//19 
f 174//174 18//18 173//173 
f 18//18 166//166 173//173 
f 17//17 20//20 19//19 
f 22//22 18//18 174//174 
f 22//22 166//166 18//18 
f 166//166 22//22 31//31 
f 175//175 21//21 176//176 
f 175//175 20//20 21//21 
f 30//30 182//182 177//177 
f 176//176 21//21 23//23 
f 177//177 23//23 30//30 
f 27//27 30//30 23//23 
f 37//37 25//25 178//178 
f 26//26 7//7 178//178 
f 25//25 26//26 178//178 
f 26//26 179//179 27//27 
f 180//180 40//40 27//27 
f 26//26 27//27 20//20 
f 27//27 21//21 20//20 
f 21//21 27//27 23//23 
f 27//27 40//40 30//30 
f 11//11 29//29 28//28 
f 29//29 11//11 169//169 
f 29//29 169//169 183//183 
f 29//29 41//41 28//28 
f 30//30 41//41 29//29 
f 182//182 30//30 29//29 
f 42//42 32//32 36//36 
f 43//43 42//42 36//36 
f 186//186 184//184 44//44 
f 12//12 13//13 33//33 
f 35//35 33//33 36//36 
f 33//33 35//35 12//12 
f 33//33 13//13 34//34 
f 35//35 36//36 184//184 
f 33//33 34//34 36//36 
f 36//36 34//34 43//43 
f 185//185 38//38 194//194 
f 24//24 35//35 186//186 
f 184//184 186//186 35//35 
f 59//59 38//38 39//39 
f 38//38 185//185 170//170 
f 38//38 170//170 39//39 
f 40//40 207//207 189//189 
f 190//190 14//14 192//192 
f 40//40 189//189 41//41 
f 14//14 28//28 192//192 
f 30//30 40//40 41//41 
f 58//58 60//60 46//46 
f 44//44 32//32 54//54 
f 44//44 45//45 186//186 
f 195//195 44//44 54//54 
f 187//187 45//45 47//47 
f 49//49 45//45 44//44 
f 49//49 44//44 195//195 
f 209//209 49//49 195//195 
f 63//63 48//48 45//45 
f 48//48 47//47 45//45 
f 45//45 49//49 63//63 
f 50//50 53//53 47//47 
f 200//200 196//196 51//51 
f 52//52 47//47 48//48 
f 50//50 47//47 52//52 
f 50//50 52//52 62//62 
f 197//197 50//50 62//62 
f 63//63 61//61 48//48 
f 48//48 61//61 52//52 
f 68//68 197//197 62//62 
f 188//188 53//53 181//181 
f 208//208 191//191 201//201 
f 53//53 188//188 47//47 
f 208//208 201//201 198//198 
f 198//198 57//57 208//208 
f 40//40 180//180 202//202 
f 54//54 32//32 42//42 
f 194//194 38//38 55//55 
f 38//38 59//59 55//55 
f 56//56 193//193 55//55 
f 193//193 194//194 55//55 
f 203//203 193//193 56//56 
f 59//59 205//205 55//55 
f 46//46 203//203 58//58 
f 56//56 58//58 203//203 
f 205//205 69//69 55//55 
f 204//204 55//55 69//69 
f 68//68 205//205 197//197 
f 205//205 68//68 69//69 
f 49//49 209//209 65//65 
f 65//65 63//63 49//49 
f 210//210 199//199 66//66 
f 217//217 211//211 214//214 
f 61//61 64//64 52//52 
f 67//67 65//65 209//209 
f 63//63 64//64 61//61 
f 199//199 212//212 66//66 
f 77//77 71//71 214//214 
f 71//71 217//217 214//214 
f 63//63 78//78 64//64 
f 63//63 65//65 74//74 
f 74//74 78//78 63//63 
f 67//67 73//73 65//65 
f 214//214 76//76 77//77 
f 213//213 221//221 215//215 
f 78//78 222//222 64//64 
f 223//223 79//79 219//219 
f 216//216 60//60 58//58 
f 70//70 216//216 58//58 
f 204//204 218//218 206//206 
f 219//219 69//69 68//68 
f 218//218 204//204 69//69 
f 81//81 216//216 70//70 
f 226//226 218//218 69//69 
f 226//226 69//69 219//219 
f 216//216 81//81 75//75 
f 79//79 226//226 219//219 
f 78//78 74//74 82//82 
f 82//82 74//74 87//87 
f 78//78 72//72 222//222 
f 78//78 82//82 72//72 
f 76//76 220//220 80//80 
f 220//220 84//84 80//80 
f 216//216 75//75 73//73 
f 74//74 65//65 73//73 
f 73//73 87//87 74//74 
f 87//87 73//73 75//75 
f 77//77 76//76 80//80 
f 225//225 86//86 88//88 
f 223//223 88//88 79//79 
f 223//223 225//225 88//88 
f 224//224 227//227 89//89 
f 81//81 224//224 89//89 
f 87//87 75//75 89//89 
f 89//89 75//75 81//81 
f 225//225 84//84 86//86 
f 87//87 89//89 97//97 
f 87//87 96//96 82//82 
f 83//83 84//84 220//220 
f 85//85 72//72 82//82 
f 83//83 220//220 85//85 
f 85//85 95//95 103//103 
f 85//85 103//103 101//101 
f 85//85 82//82 95//95 
f 85//85 101//101 83//83 
f 96//96 95//95 82//82 
f 101//101 102//102 83//83 
f 102//102 84//84 83//83 
f 98//98 88//88 86//86 
f 89//89 227//227 98//98 
f 101//101 90//90 91//91 
f 107//107 101//101 91//91 
f 93//93 91//91 90//90 
f 92//92 93//93 90//90 
f 92//92 135//135 93//93 
f 135//135 92//92 106//106 
f 107//107 91//91 110//110 
f 93//93 94//94 91//91 
f 91//91 94//94 110//110 
f 135//135 136//136 93//93 
f 93//93 136//136 94//94 
f 136//136 137//137 94//94 
f 139//139 94//94 137//137 
f 94//94 114//114 110//110 
f 139//139 114//114 94//94 
f 96//96 87//87 97//97 
f 104//104 96//96 97//97 
f 89//89 98//98 105//105 
f 95//95 96//96 99//99 
f 104//104 97//97 100//100 
f 99//99 96//96 104//104 
f 89//89 100//100 97//97 
f 105//105 100//100 89//89 
f 103//103 90//90 101//101 
f 101//101 107//107 102//102 
f 228//228 108//108 102//102 
f 102//102 108//108 84//84 
f 86//86 84//84 108//108 
f 95//95 99//99 103//103 
f 99//99 92//92 103//103 
f 90//90 103//103 92//92 
f 86//86 229//229 98//98 
f 99//99 104//104 106//106 
f 99//99 106//106 92//92 
f 98//98 229//229 105//105 
f 141//141 104//104 100//100 
f 141//141 100//100 142//142 
f 142//142 100//100 105//105 
f 106//106 104//104 141//141 
f 111//111 108//108 228//228 
f 229//229 232//232 109//109 
f 229//229 109//109 105//105 
f 135//135 106//106 141//141 
f 142//142 105//105 230//230 
f 142//142 230//230 143//143 
f 231//231 111//111 228//228 
f 231//231 112//112 111//111 
f 232//232 112//112 113//113 
f 109//109 232//232 113//113 
f 113//113 112//112 115//115 
f 230//230 113//113 143//143 
f 143//143 113//113 147//147 
f 113//113 115//115 147//147 
f 231//231 115//115 112//112 
f 231//231 233//233 115//115 
f 139//139 116//116 114//114 
f 115//115 233//233 234//234 
f 139//139 118//118 116//116 
f 139//139 154//154 118//118 
f 148//148 147//147 115//115 
f 235//235 148//148 115//115 
f 116//116 118//118 117//117 
f 154//154 120//120 118//118 
f 118//118 121//121 117//117 
f 118//118 120//120 121//121 
f 117//117 121//121 123//123 
f 159//159 236//236 239//239 
f 154//154 157//157 120//120 
f 236//236 148//148 235//235 
f 148//148 236//236 159//159 
f 119//119 125//125 127//127 
f 120//120 122//122 237//237 
f 120//120 237//237 121//121 
f 122//122 128//128 242//242 
f 121//121 238//238 123//123 
f 242//242 237//237 122//122 
f 123//123 238//238 124//124 
f 238//238 127//127 124//124 
f 124//124 127//127 134//134 
f 157//157 122//122 120//120 
f 158//158 122//122 157//157 
f 162//162 243//243 259//259 
f 158//158 244//244 122//122 
f 239//239 240//240 159//159 
f 260//260 241//241 160//160 
f 252//252 160//160 241//241 
f 242//242 128//128 126//126 
f 128//128 132//132 126//126 
f 125//125 129//129 127//127 
f 242//242 126//126 245//245 
f 127//127 129//129 134//134 
f 162//162 250//250 243//243 
f 262//262 160//160 133//133 
f 250//250 162//162 251//251 
f 133//133 160//160 252//252 
f 126//126 132//132 245//245 
f 245//245 132//132 130//130 
f 130//130 132//132 131//131 
f 129//129 246//246 134//134 
f 134//134 246//246 247//247 
f 250//250 251//251 248//248 
f 133//133 252//252 249//249 
f 144//144 138//138 135//135 
f 135//135 138//138 136//136 
f 136//136 138//138 137//137 
f 138//138 140//140 137//137 
f 137//137 253//253 139//139 
f 138//138 144//144 146//146 
f 138//138 146//146 140//140 
f 149//149 139//139 253//253 
f 149//149 140//140 151//151 
f 152//152 151//151 140//140 
f 135//135 141//141 144//144 
f 141//141 142//142 145//145 
f 143//143 145//145 142//142 
f 141//141 145//145 144//144 
f 153//153 145//145 143//143 
f 143//143 147//147 153//153 
f 153//153 147//147 150//150 
f 144//144 145//145 254//254 
f 145//145 256//256 254//254 
f 140//140 146//146 152//152 
f 254//254 256//256 255//255 
f 139//139 149//149 154//154 
f 148//148 150//150 147//147 
f 156//156 153//153 150//150 
f 255//255 256//256 257//257 
f 255//255 257//257 151//151 
f 154//154 149//149 155//155 
f 154//154 155//155 157//157 
f 150//150 148//148 159//159 
f 149//149 151//151 155//155 
f 260//260 156//156 150//150 
f 161//161 156//156 260//260 
f 261//261 155//155 151//151 
f 261//261 151//151 257//257 
f 155//155 261//261 258//258 
f 259//259 258//258 261//261 
f 162//162 259//259 261//261 
f 160//160 262//262 161//161 
f 160//160 161//161 260//260 
