#
# The license for this database is specified in the Creative Commons Attribution-Share Alike 2.1 Japan. If you use data from this database, please be sure attribute this database as follows: "BodyParts3D, (c)  The Database Center for Life Science licensed under CC Attribution-Share Alike 2.1 Japan".
# http://dbarchive.biosciencedbc.jp/en/bodyparts3d/lic.html
#
#
# Compatibility version : 4.0
# File ID : FJ3031
# Representation ID : BP9634
# Build-up logic : FMA 3.0 part_of
# Concept ID : FMA68880
# English name : Trunk of right apical segmental vein
# Bounds(mm): (-37.707600,-110.784000,1254.490000)-(-24.133200,-99.342600,1296.030000)
# Volume(cm3): 0.806100
#
v -37.6678 -103.44 1257.8
v -37.406 -103.057 1256.16
v -37.2957 -104.324 1258
v -36.8912 -104.441 1257.08
v -36.8489 -105.448 1262.47
v -37.205 -101.867 1255.34
v -37.111 -101.059 1255.36
v -37.6373 -102.33 1258.28
v -37.7076 -101.891 1256.51
v -37.2938 -100.711 1256.53
v -37 -100.828 1258.03
v -36.5892 -99.8988 1256.55
v -33.8281 -109.935 1267.13
v -34.0569 -110.203 1271.05
v -35.4692 -107.937 1263.34
v -34.1912 -108.56 1263.41
v -35.8357 -108.265 1266.22
v -35.7902 -107.728 1269.54
v -35.0037 -107.408 1272.55
v -33.6401 -106.04 1273.66
v -36.576 -103.457 1255.57
v -35.8024 -103.839 1255.5
v -35.3528 -103.44 1255.15
v -36.157 -104.608 1256.43
v -35.692 -105.677 1257.94
v -35.0111 -104.682 1256.15
v -33.7907 -105.61 1257.66
v -33.7851 -104.094 1255.97
v -36.4399 -103.943 1263.48
v -35.7703 -105.882 1268.04
v -34.9768 -103.262 1264.9
v -34.536 -104.939 1268.85
v -36.5748 -102.264 1254.89
v -36.575 -101.429 1254.76
v -36.5274 -100.642 1254.94
v -36.1587 -102.725 1254.88
v -35.7522 -102.265 1254.62
v -35.8171 -101.481 1254.49
v -35.788 -100.686 1254.61
v -35.789 -99.8167 1255.31
v -34.9801 -101.433 1254.51
v -34.9777 -100.276 1254.81
v -34.6034 -102.635 1254.83
v -34.2092 -100.689 1254.84
v -33.8162 -100.253 1255.38
v -36.5793 -100.05 1255.73
v -35.7679 -99.69 1257.51
v -34.5263 -99.7934 1258.42
v -35.8317 -99.4945 1256.45
v -34.9792 -99.5071 1255.77
v -35.0039 -99.3426 1256.57
v -34.1888 -99.4556 1256.52
v -32.0976 -110.315 1269.69
v -32.2464 -108.617 1264.42
v -30.9156 -109.034 1268.24
v -30.7688 -106.922 1265.06
v -30.5579 -106.033 1266.11
v -30.142 -106.634 1269.22
v -33.0345 -108.922 1278.93
v -31.5001 -107.3 1283
v -31.5523 -106.613 1281.1
v -30.8897 -106.571 1283.52
v -30.3117 -108.639 1286.34
v -31.8989 -104.052 1258.03
v -33.0243 -103.341 1265.83
v -31.8573 -103.903 1266.08
v -30.9417 -104.877 1265.86
v -33.0168 -104.528 1269.1
v -31.3583 -104.925 1268.68
v -31.7521 -105.196 1272.68
v -30.3522 -105.715 1281.12
v -33.4539 -101.494 1255.18
v -33.3728 -99.8237 1256.52
v -33.3995 -99.7504 1257.4
v -32.3633 -101.976 1256.21
v -32.5189 -100.732 1256.53
v -32.6137 -100.303 1257.31
v -32.601 -100.414 1258.21
v -31.5709 -102.486 1258.13
v -31.7501 -101.609 1258.51
v -33.3053 -100.718 1260.27
v -32.17 -101.451 1260.41
v -29.9677 -110.784 1279.24
v -29.1267 -110.47 1278.76
v -27.9097 -109.69 1280.52
v -30.1923 -109.972 1284.39
v -28.8534 -110.006 1285.66
v -27.7689 -109.913 1284.64
v -30.006 -107.782 1269.65
v -28.9439 -106.931 1274.4
v -27.663 -108.41 1278.82
v -27.8298 -106.067 1280.72
v -29.2784 -107.078 1289.61
v -28.7487 -108.24 1289.6
v -27.7444 -106.312 1294.25
v -30.1481 -105.771 1272.79
v -27.4651 -104.501 1290.05
v -28.5176 -105.632 1291.44
v -28.3295 -105.119 1290.42
v -27.8112 -105.517 1294.23
v -27.5246 -105.467 1294.9
v -27.1341 -105.046 1295.28
v -27.358 -104.698 1294.39
v -24.6122 -106.814 1292.45
v -27.075 -107.028 1294.46
v -26.9928 -106.226 1295.42
v -26.5355 -106.628 1295.46
v -25.8646 -107.307 1294.45
v -25.439 -106.235 1295.79
v -24.9966 -106.232 1295.52
v -24.482 -106.25 1294.84
v -26.2945 -104.618 1289.14
v -24.7565 -104.72 1292.4
v -24.3817 -105.569 1292.19
v -26.9716 -105.466 1295.6
v -26.5695 -105.057 1295.78
v -26.6045 -104.457 1295.29
v -26.6554 -104.053 1293.92
v -26.5897 -104.173 1294.88
v -26.1995 -105.831 1296.01
v -26.1541 -104.645 1295.71
v -26.1805 -104.014 1294.86
v -26.1899 -104.26 1295.32
v -25.7897 -105.064 1296
v -25.9676 -103.944 1293.57
v -25.4061 -105.467 1296.03
v -25.4047 -104.652 1295.68
v -25.444 -104.237 1295.24
v -25.0011 -105.495 1295.82
v -25.0222 -105.06 1295.74
v -24.976 -104.52 1295.26
v -25.0346 -104.145 1293.98
v -24.475 -105.449 1295.28
v -24.1332 -105.515 1294.41
v -24.2436 -105.035 1294.41
v -33.8281 -109.935 1267.13
v -34.0569 -110.203 1271.05
v -30.1481 -105.771 1272.79
v -24.9966 -106.232 1295.52
v -24.482 -106.25 1294.84
vn -0.975834 -0.212653 -0.050269
vn -0.818755 -0.372924 -0.436542
vn -0.848161 -0.504554 -0.161391
vn -0.650445 -0.659439 -0.376911
vn -0.97281 -0.221919 0.066273
vn -0.795936 -0.0737063 -0.600877
vn -0.817646 0.315221 -0.481758
vn -0.960207 0.207241 0.187228
vn -0.979452 0.0819021 -0.184299
vn -0.86775 0.496521 -0.0218311
vn -0.724498 0.610202 0.320555
vn -0.616157 0.783008 0.0851479
vn -0.540143 -0.822145 -0.179788
vn -0.729454 -0.676226 0.10303
vn -0.643999 -0.732222 -0.221622
vn -0.0998793 -0.915824 -0.388962
vn -0.796563 -0.602025 -0.0552489
vn -0.973308 -0.132946 0.187072
vn -0.920772 0.264451 0.286783
vn -0.619594 0.743531 0.251523
vn -0.523363 -0.538035 -0.660764
vn -0.229662 -0.615137 -0.754229
vn 0.0201454 -0.523753 -0.851632
vn -0.385331 -0.727658 -0.567481
vn -0.299727 -0.851418 -0.430407
vn -0.00835324 -0.744023 -0.668102
vn 0.278588 -0.804257 -0.524938
vn 0.448557 -0.509581 -0.73425
vn -0.859044 0.403454 0.315067
vn -0.843414 0.452182 0.290145
vn -0.399326 0.816975 0.416043
vn -0.502198 0.798014 0.333122
vn -0.494808 -0.27272 -0.825099
vn -0.523919 0.0744994 -0.848504
vn -0.532206 0.474408 -0.701208
vn -0.280624 -0.443652 -0.851131
vn -0.0848717 -0.284691 -0.954855
vn -0.185108 -0.0398679 -0.981909
vn -0.172761 0.350622 -0.920444
vn -0.253895 0.786581 -0.562875
vn 0.182397 0.0187628 -0.983046
vn 0.14652 0.565916 -0.811339
vn 0.265049 -0.325345 -0.907689
vn 0.404523 0.294507 -0.86581
vn 0.496206 0.621881 -0.605841
vn -0.625192 0.713336 -0.316681
vn -0.357038 0.881017 0.310375
vn 0.00339414 0.942746 0.333496
vn -0.322526 0.942166 -0.0911029
vn 0.0828188 0.909047 -0.40838
vn -0.040237 0.997859 0.0515623
vn 0.272538 0.952983 -0.132459
vn 0.257788 -0.950252 -0.174833
vn 0.494043 -0.786768 -0.370023
vn 0.768698 -0.587384 -0.253146
vn 0.920294 -0.302405 -0.248212
vn 0.986816 0.13814 -0.0843325
vn 0.946762 0.299965 -0.116883
vn -0.90307 -0.318389 0.288259
vn -0.853712 0.457295 0.249112
vn -0.687786 0.694076 0.212626
vn -0.736308 0.656132 0.165355
vn -0.821497 -0.423137 0.382227
vn 0.781918 -0.437328 -0.444239
vn 0.125053 0.917105 0.378523
vn 0.544317 0.792134 0.276121
vn 0.848868 0.518889 0.100883
vn -0.0352657 0.95385 0.298206
vn 0.574065 0.812119 0.104458
vn 0.0216113 0.992264 0.122249
vn -0.32176 0.946173 0.0350261
vn 0.593269 0.018766 -0.804785
vn 0.556354 0.785357 -0.271447
vn 0.40676 0.90442 0.128725
vn 0.806629 -0.084283 -0.585018
vn 0.815508 0.41051 -0.407957
vn 0.726925 0.683696 -0.064337
vn 0.636134 0.752008 0.172677
vn 0.970267 0.0510486 -0.236592
vn 0.89984 0.43619 -0.0050632
vn 0.342947 0.875997 0.339142
vn 0.683762 0.693171 0.227999
vn -0.0728836 -0.995336 0.0632056
vn 0.52498 -0.842566 -0.120328
vn 0.786321 -0.599733 -0.148389
vn -0.529012 -0.800284 0.282297
vn -0.142084 -0.952569 0.269117
vn 0.463227 -0.884791 0.0506465
vn 0.967816 -0.143297 -0.206875
vn 0.878246 0.443835 -0.178029
vn 0.968424 -0.0902086 -0.232417
vn 0.6544 0.729101 -0.200431
vn -0.932645 -0.110822 0.343353
vn -0.676904 -0.618374 0.399268
vn -0.849687 -0.310499 0.426171
vn 0.336664 0.94149 0.0159241
vn -0.394284 0.918928 -0.0105383
vn -0.908307 0.347771 0.232451
vn -0.704673 0.701056 0.109348
vn -0.933163 0.188553 0.306031
vn -0.860431 0.10323 0.499002
vn -0.713702 0.409444 0.568318
vn -0.763905 0.588683 0.264389
vn 0.848958 -0.527727 -0.0278128
vn -0.503489 -0.736309 0.452049
vn -0.660651 -0.347831 0.665247
vn -0.241583 -0.680227 0.692047
vn 0.24958 -0.894272 0.371467
vn 0.248311 -0.537605 0.805805
vn 0.408111 -0.788845 0.459532
vn 0.532948 -0.799855 0.276041
vn 0.305651 0.931607 -0.196689
vn 0.735828 0.64622 -0.202376
vn 0.96555 0.170916 -0.196215
vn -0.652164 0.0388365 0.757082
vn -0.44684 0.337424 0.828541
vn -0.527082 0.629163 0.57126
vn -0.432756 0.899629 0.0582264
vn -0.482702 0.807995 0.337849
vn -0.249116 -0.182645 0.951095
vn -0.156413 0.627481 0.76276
vn -0.110673 0.96273 0.246784
vn -0.200835 0.792373 0.57603
vn 0.0148187 0.335847 0.9418
vn 0.0236387 0.999265 -0.0301874
vn 0.267065 -0.00685456 0.963654
vn 0.255738 0.61125 0.74898
vn 0.209471 0.874584 0.437292
vn 0.577967 -0.110677 0.80852
vn 0.516441 0.353862 0.779789
vn 0.627137 0.630207 0.457754
vn 0.507001 0.861911 0.00775927
vn 0.835841 0.0627351 0.545375
vn 0.989861 -0.0828733 0.115355
vn 0.881347 0.461672 0.100429
vn 0.101759 -0.963067 -0.249294
vn -0.0932385 -0.994248 -0.0527081
vn 0.783609 0.602467 -0.151629
vn 0.656928 -0.308387 0.687999
vn 0.882654 -0.323046 0.341414
g grp1
usemtl mtl1
f 1//1 8//8 9//9 
f 3//3 5//5 1//1 
f 2//2 4//4 3//3 
f 3//3 1//1 2//2 
f 1//1 9//9 2//2 
f 6//6 33//33 2//2 
f 9//9 6//6 2//2 
f 3//3 15//15 5//5 
f 3//3 4//4 15//15 
f 4//4 2//2 21//21 
f 21//21 2//2 33//33 
f 24//24 4//4 21//21 
f 1//1 5//5 8//8 
f 5//5 29//29 8//8 
f 7//7 34//34 6//6 
f 6//6 34//34 33//33 
f 35//35 34//34 7//7 
f 46//46 35//35 7//7 
f 6//6 9//9 7//7 
f 29//29 11//11 8//8 
f 8//8 10//10 9//9 
f 11//11 10//10 8//8 
f 10//10 7//7 9//9 
f 12//12 10//10 11//11 
f 7//7 10//10 46//46 
f 46//46 10//10 12//12 
f 17//17 14//14 18//18 
f 15//15 13//13 17//17 
f 13//13 15//15 16//16 
f 16//16 54//54 136//136 
f 54//54 53//53 136//136 
f 18//18 14//14 59//59 
f 13//13 14//14 17//17 
f 136//136 53//53 137//137 
f 15//15 25//25 16//16 
f 17//17 5//5 15//15 
f 18//18 5//5 17//17 
f 5//5 18//18 29//29 
f 18//18 30//30 29//29 
f 30//30 18//18 19//19 
f 18//18 59//59 19//19 
f 19//19 20//20 30//30 
f 19//19 60//60 20//20 
f 60//60 61//61 20//20 
f 36//36 21//21 33//33 
f 22//22 21//21 36//36 
f 22//22 23//23 26//26 
f 22//22 36//36 23//23 
f 37//37 23//23 36//36 
f 37//37 43//43 23//23 
f 23//23 43//43 28//28 
f 15//15 4//4 25//25 
f 25//25 4//4 24//24 
f 22//22 24//24 21//21 
f 25//25 24//24 26//26 
f 24//24 22//22 26//26 
f 26//26 27//27 25//25 
f 26//26 23//23 28//28 
f 27//27 26//26 28//28 
f 29//29 30//30 32//32 
f 31//31 29//29 32//32 
f 32//32 30//30 20//20 
f 36//36 33//33 37//37 
f 37//37 33//33 38//38 
f 38//38 33//33 34//34 
f 35//35 39//39 34//34 
f 34//34 39//39 38//38 
f 35//35 40//40 39//39 
f 35//35 46//46 40//40 
f 49//49 40//40 46//46 
f 39//39 40//40 42//42 
f 39//39 41//41 38//38 
f 50//50 42//42 40//40 
f 40//40 49//49 50//50 
f 41//41 37//37 38//38 
f 41//41 39//39 42//42 
f 45//45 42//42 50//50 
f 41//41 43//43 37//37 
f 72//72 41//41 44//44 
f 42//42 44//44 41//41 
f 44//44 42//42 45//45 
f 43//43 41//41 72//72 
f 44//44 45//45 72//72 
f 72//72 28//28 43//43 
f 11//11 29//29 31//31 
f 46//46 12//12 49//49 
f 11//11 31//31 47//47 
f 49//49 12//12 47//47 
f 12//12 11//11 47//47 
f 51//51 50//50 49//49 
f 47//47 31//31 48//48 
f 52//52 48//48 74//74 
f 48//48 81//81 74//74 
f 45//45 52//52 73//73 
f 73//73 52//52 74//74 
f 81//81 48//48 65//65 
f 65//65 48//48 31//31 
f 51//51 49//49 47//47 
f 51//51 47//47 48//48 
f 45//45 50//50 52//52 
f 52//52 50//50 51//51 
f 52//52 51//51 48//48 
f 55//55 53//53 54//54 
f 83//83 59//59 14//14 
f 53//53 83//83 137//137 
f 63//63 59//59 86//86 
f 59//59 83//83 86//86 
f 25//25 27//27 16//16 
f 16//16 27//27 54//54 
f 55//55 54//54 56//56 
f 56//56 57//57 89//89 
f 89//89 57//57 58//58 
f 57//57 67//67 58//58 
f 55//55 56//56 89//89 
f 58//58 67//67 69//69 
f 19//19 59//59 60//60 
f 61//61 60//60 62//62 
f 64//64 27//27 28//28 
f 54//54 27//27 64//64 
f 54//54 64//64 56//56 
f 56//56 64//64 79//79 
f 79//79 80//80 57//57 
f 56//56 79//79 57//57 
f 57//57 80//80 67//67 
f 82//82 67//67 80//80 
f 32//32 68//68 31//31 
f 65//65 31//31 68//68 
f 69//69 65//65 68//68 
f 66//66 65//65 69//69 
f 82//82 66//66 67//67 
f 69//69 67//67 66//66 
f 68//68 32//32 70//70 
f 68//68 70//70 69//69 
f 69//69 70//70 96//96 
f 32//32 20//20 70//70 
f 20//20 71//71 70//70 
f 20//20 61//61 71//71 
f 61//61 62//62 71//71 
f 75//75 64//64 28//28 
f 72//72 75//75 28//28 
f 74//74 81//81 78//78 
f 45//45 73//73 76//76 
f 73//73 77//77 76//76 
f 74//74 77//77 73//73 
f 78//78 77//77 74//74 
f 76//76 75//75 72//72 
f 45//45 76//76 72//72 
f 75//75 76//76 79//79 
f 76//76 80//80 79//79 
f 77//77 80//80 76//76 
f 78//78 80//80 77//77 
f 81//81 82//82 78//78 
f 79//79 64//64 75//75 
f 82//82 80//80 78//78 
f 66//66 81//81 65//65 
f 66//66 82//82 81//81 
f 55//55 84//84 53//53 
f 53//53 84//84 83//83 
f 84//84 88//88 83//83 
f 55//55 85//85 84//84 
f 85//85 88//88 84//84 
f 85//85 55//55 91//91 
f 94//94 63//63 86//86 
f 88//88 87//87 83//83 
f 86//86 83//83 87//87 
f 87//87 94//94 86//86 
f 55//55 89//89 91//91 
f 89//89 58//58 91//91 
f 69//69 90//90 58//58 
f 58//58 90//90 91//91 
f 90//90 138//138 92//92 
f 90//90 92//92 91//91 
f 59//59 63//63 93//93 
f 63//63 94//94 93//93 
f 98//98 60//60 59//59 
f 59//59 93//93 98//98 
f 60//60 99//99 62//62 
f 60//60 98//98 99//99 
f 98//98 93//93 100//100 
f 105//105 94//94 87//87 
f 93//93 95//95 100//100 
f 94//94 105//105 95//95 
f 94//94 95//95 93//93 
f 105//105 106//106 95//95 
f 105//105 107//107 106//106 
f 101//101 95//95 106//106 
f 106//106 115//115 101//101 
f 90//90 69//69 138//138 
f 92//92 96//96 70//70 
f 70//70 71//71 92//92 
f 71//71 97//97 125//125 
f 97//97 71//71 99//99 
f 71//71 125//125 112//112 
f 62//62 99//99 71//71 
f 103//103 99//99 98//98 
f 100//100 103//103 98//98 
f 95//95 101//101 100//100 
f 101//101 115//115 102//102 
f 101//101 103//103 100//100 
f 101//101 102//102 103//103 
f 104//104 85//85 91//91 
f 91//91 114//114 104//104 
f 87//87 88//88 108//108 
f 104//104 108//108 88//88 
f 111//111 108//108 104//104 
f 85//85 104//104 88//88 
f 104//104 134//134 140//140 
f 107//107 120//120 106//106 
f 106//106 120//120 115//115 
f 105//105 87//87 108//108 
f 107//107 105//105 108//108 
f 107//107 108//108 109//109 
f 120//120 107//107 109//109 
f 110//110 109//109 108//108 
f 111//111 110//110 108//108 
f 139//139 140//140 133//133 
f 92//92 71//71 112//112 
f 132//132 112//112 125//125 
f 114//114 91//91 92//92 
f 97//97 99//99 118//118 
f 99//99 103//103 118//118 
f 125//125 97//97 118//118 
f 125//125 118//118 122//122 
f 112//112 132//132 113//113 
f 92//92 112//112 113//113 
f 135//135 113//113 132//132 
f 114//114 92//92 113//113 
f 114//114 113//113 135//135 
f 104//104 114//114 134//134 
f 135//135 134//134 114//114 
f 102//102 115//115 116//116 
f 115//115 120//120 116//116 
f 102//102 116//116 117//117 
f 103//103 117//117 119//119 
f 103//103 102//102 117//117 
f 103//103 119//119 118//118 
f 124//124 116//116 120//120 
f 117//117 116//116 121//121 
f 121//121 116//116 124//124 
f 117//117 123//123 119//119 
f 117//117 121//121 123//123 
f 118//118 119//119 122//122 
f 119//119 123//123 122//122 
f 125//125 122//122 128//128 
f 128//128 122//122 123//123 
f 121//121 128//128 123//123 
f 120//120 109//109 126//126 
f 126//126 124//124 120//120 
f 124//124 127//127 121//121 
f 127//127 128//128 121//121 
f 139//139 129//129 109//109 
f 129//129 126//126 109//109 
f 129//129 130//130 126//126 
f 130//130 124//124 126//126 
f 130//130 127//127 124//124 
f 130//130 131//131 127//127 
f 131//131 132//132 128//128 
f 128//128 132//132 125//125 
f 131//131 128//128 127//127 
f 129//129 133//133 130//130 
f 133//133 131//131 130//130 
f 140//140 134//134 133//133 
f 139//139 133//133 129//129 
f 134//134 135//135 133//133 
f 135//135 131//131 133//133 
f 132//132 131//131 135//135 
