# Blender v2.77 (sub 0) OBJ File: 'BLANKOblend.blend'
# www.blender.org
mtllib anterior inferior segmental tributary of middle hepatic vein2.mtl
o grp1
v -68.464233 -168.770081 1118.210693
v -68.818176 -169.322083 1118.153564
v -68.808907 -169.213318 1118.559692
v -68.223633 -168.790222 1117.761719
v -68.924454 -170.018082 1118.533813
v -66.096199 -172.837189 1111.130005
v -68.707153 -170.455963 1118.938477
v -68.302460 -168.588760 1118.577637
v -67.744629 -168.370590 1118.813599
v -67.567810 -168.336975 1118.266846
v -68.632446 -169.202576 1119.186523
v -68.299805 -168.690247 1119.015137
v -68.056152 -168.937683 1119.535156
v -68.704102 -169.704285 1119.259766
v -68.281250 -169.529968 1119.707031
v -68.467773 -170.153503 1119.517578
v -67.480225 -168.582214 1119.402344
v -67.805664 -169.537781 1119.925781
v -65.078125 -173.609558 1108.468750
v -66.585403 -170.828674 1113.425049
v -65.020897 -171.745178 1110.680054
v -64.103516 -175.402527 1106.226562
v -68.442505 -170.885742 1117.940186
v -68.312744 -170.968933 1118.777344
v -68.262207 -170.743347 1119.346680
v -67.039108 -168.374939 1118.794434
v -66.901123 -168.530945 1117.929688
v -63.812500 -172.406433 1109.171875
v -68.066406 -170.562683 1119.623047
v -67.760681 -170.952332 1119.428223
v -67.798828 -170.207703 1119.911133
v -67.514893 -169.113464 1119.817383
v -66.911377 -168.908386 1119.590820
v -66.665466 -168.633484 1119.071045
v -66.791016 -169.292175 1119.778809
v -67.294189 -170.308289 1119.929321
v -67.016602 -169.654480 1119.947021
v -65.504150 -173.984680 1110.989990
v -63.240200 -172.748184 1108.785034
v -66.326233 -168.803528 1118.547852
v -67.318359 -171.306824 1118.843750
v -66.897217 -170.889832 1119.420898
v -66.318359 -169.090637 1119.237549
v -66.486328 -169.974548 1119.660156
v -66.712402 -170.394226 1119.686523
v -64.037201 -173.892944 1111.772461
v -66.394531 -170.769714 1119.046875
v -66.087769 -169.245422 1118.864258
v -66.158691 -169.747375 1119.316895
v -63.296875 -172.875183 1111.156250
v -66.120117 -170.175964 1119.178711
v -64.629173 -172.520935 1114.407471
v -65.460098 -173.765930 1112.397461
v -64.171875 -174.500183 1110.812500
v -65.512199 -172.396179 1110.199951
v -64.338402 -173.144196 1107.689941
v -62.497501 -173.598190 1107.989990
v -63.742188 -175.367371 1104.640625
v -63.664062 -175.687683 1107.312500
v -63.785198 -173.348190 1112.130005
v -62.630798 -174.997192 1108.189941
v -62.940048 -173.753693 1109.959961
v -63.882500 -174.234177 1105.589966
v -62.265625 -176.519714 1104.828125
v -61.968750 -175.015808 1106.875000
v -63.026199 -174.694183 1103.650024
v -62.761719 -174.172058 1104.515625
v -63.312599 -175.087677 1103.599976
v -62.226562 -176.820496 1099.796875
v -63.234375 -176.307800 1104.730469
v -60.742188 -175.992371 1102.562500
v -62.762600 -175.525177 1107.494995
v -61.947266 -175.869324 1099.875000
v -61.901699 -176.238190 1105.089966
v -62.500000 -175.875183 1100.937500
v -61.587891 -175.451355 1100.472656
v -61.683594 -177.639587 1099.851562
v -61.820312 -177.308777 1102.117188
v -61.724609 -174.728699 1103.132812
v -61.812500 -176.726746 1098.414062
v -61.352539 -177.672302 1097.289062
v -60.418457 -175.892761 1099.933594
v -60.543457 -175.839539 1101.261719
v -61.406250 -176.437683 1104.000000
v -60.742901 -175.674179 1099.890015
v -60.519531 -176.890808 1101.328125
v -61.382812 -176.605652 1097.195312
v -60.057617 -176.180847 1097.143555
v -60.886719 -177.238464 1101.375000
v -60.646484 -177.026184 1094.117188
v -60.440430 -177.592468 1093.246094
v -60.580078 -176.480286 1095.451172
v -60.715900 -176.193176 1096.900024
v -60.968750 -177.994324 1098.339844
v -60.505859 -177.701355 1099.562500
v -60.449219 -178.047058 1098.089844
v -59.201843 -176.839294 1095.695557
v -59.669922 -177.793640 1097.402344
v -59.439453 -177.405457 1097.273438
v -60.658142 -178.101242 1095.582397
v -60.013428 -178.288391 1095.634766
v -58.974609 -177.303894 1095.312500
v -60.220798 -176.709183 1093.189941
v -59.884499 -176.366180 1094.680054
v -59.419189 -176.350281 1092.245605
v -59.605400 -176.397186 1091.300049
v -59.934898 -176.843185 1091.250000
v -59.292301 -176.407181 1093.260010
v -59.456055 -177.287292 1089.410156
v -59.915405 -178.068848 1092.649414
v -58.495056 -176.220276 1090.560547
v -59.661316 -178.253479 1093.084961
v -59.121216 -176.561005 1093.919189
v -59.428955 -178.174194 1095.066406
v -58.698242 -177.734497 1093.519531
v -59.128906 -176.049500 1087.365234
v -59.067200 -175.993179 1089.680054
v -59.282700 -176.114182 1088.609985
v -58.705231 -175.888855 1089.499023
v -59.455566 -177.833679 1090.814453
v -58.963684 -178.116882 1092.875977
v -58.291016 -177.020691 1091.740234
v -58.250000 -174.547058 1082.953125
v -58.728100 -175.216187 1086.359985
v -58.289600 -175.040176 1086.670044
v -57.648102 -175.142181 1086.520020
v -58.716309 -177.296082 1088.312500
v -58.677490 -177.739197 1089.861328
v -58.760269 -177.951767 1091.224365
v -58.244873 -176.468933 1090.646484
v -58.067383 -177.333679 1090.256836
v -57.608799 -172.727188 1081.619995
v -58.225498 -173.967178 1083.479980
v -57.976898 -174.031189 1084.199951
v -58.267090 -174.049988 1082.851562
v -58.225498 -173.967178 1083.479980
v -58.457031 -175.945496 1085.242188
v -57.292969 -172.804871 1081.875000
v -57.976898 -174.031189 1084.199951
v -57.688599 -174.346176 1084.939941
v -58.261719 -176.570496 1086.335938
v -57.041016 -173.472839 1082.710938
v -57.859131 -176.711609 1086.912109
v -57.918945 -177.085388 1088.733398
v -57.582401 -175.995178 1087.640015
v -56.738281 -168.396652 1074.277344
v -57.416016 -170.968933 1077.984375
v -56.763794 -168.588058 1073.985596
v -56.561768 -168.465988 1074.726562
v -56.642334 -168.866989 1073.856934
v -56.528801 -168.276169 1074.160034
v -56.528801 -168.276169 1074.160034
v -57.253906 -171.547058 1079.531250
v -56.868301 -170.806183 1078.449951
v -57.445251 -172.308685 1078.905029
v -57.098602 -171.400177 1077.375000
v -57.547199 -171.966187 1080.069946
v -56.026367 -168.337082 1074.267578
v -57.210938 -172.906433 1079.500000
v -58.003906 -175.101746 1083.328125
v -57.597656 -175.047058 1083.070312
v -56.685547 -173.062683 1081.375000
v -57.342773 -175.347839 1084.015625
v -57.329590 -175.807556 1085.851562
v -56.902344 -174.246277 1082.441406
v -56.550415 -168.476242 1073.842285
v -56.316898 -168.265167 1074.069946
v -56.101685 -168.432053 1073.925537
v -56.302734 -168.218674 1074.350586
v -56.259521 -168.686325 1073.761475
v -56.240540 -169.045090 1073.871338
v -55.964199 -168.477173 1074.099976
v -55.882812 -168.706894 1074.125610
v -55.928040 -168.926926 1074.168457
v -55.875488 -168.708939 1074.133179
v -56.285156 -171.047058 1077.187500
v -55.964199 -168.477173 1074.099976
v -56.599075 -171.311676 1077.190063
v -56.962891 -173.468933 1080.531250
vn -0.6652 0.7091 -0.2341
vn -0.9198 0.2743 -0.2805
vn -0.9187 0.3818 0.1009
vn -0.5207 0.7358 -0.4329
vn -0.9892 -0.1455 0.0180
vn -0.9404 -0.0485 -0.3367
vn -0.5796 0.8145 0.0256
vn -0.2046 0.9555 0.2125
vn -0.1021 0.9673 -0.2322
vn -0.5829 0.7271 0.3627
vn -0.8148 0.3870 0.4317
vn -0.4199 0.5673 0.7084
vn -0.8848 0.0498 0.4632
vn -0.5613 0.1798 0.8078
vn -0.8677 -0.4265 0.2553
vn -0.6908 -0.2231 0.6878
vn -0.0318 0.8023 0.5961
vn -0.2283 0.1622 0.9600
vn -0.8673 0.2696 -0.4184
vn -0.6164 0.6182 -0.4878
vn -0.2397 0.8576 -0.4550
vn -0.8555 -0.4998 -0.1357
vn -0.8304 -0.5548 -0.0510
vn -0.5742 -0.7882 0.2214
vn 0.2727 0.9453 0.1789
vn 0.2056 0.9309 -0.3020
vn 0.3050 0.9201 -0.2456
vn -0.5610 -0.6424 0.5222
vn -0.3958 -0.4738 0.7867
vn -0.1977 -0.7837 0.5888
vn -0.2459 -0.2583 0.9343
vn -0.0443 0.4613 0.8861
vn 0.3190 0.6155 0.7207
vn 0.5108 0.7720 0.3782
vn 0.2222 0.0583 0.9733
vn 0.0890 -0.3619 0.9280
vn 0.4301 0.3290 0.8407
vn 0.5632 0.8088 -0.1694
vn 0.6977 0.7135 0.0642
vn 0.3155 -0.7041 0.6361
vn -0.0374 -0.9176 0.3959
vn 0.7238 0.4737 0.5017
vn 0.6236 -0.0960 0.7759
vn 0.4762 -0.3760 0.7949
vn 0.5583 -0.6928 0.4564
vn 0.6396 -0.5750 0.5102
vn 0.8916 0.3655 0.2673
vn 0.8311 0.0757 0.5509
vn 0.8312 -0.2621 0.4903
vn 0.7209 -0.5234 0.4543
vn -0.3305 -0.9152 0.2307
vn 0.9547 0.1535 0.2549
vn -0.7854 0.4130 -0.4610
vn 0.1497 -0.9146 0.3757
vn -0.6245 -0.7789 0.0575
vn -0.4947 0.7298 -0.4718
vn -0.9505 -0.0395 -0.3081
vn 0.8513 0.5194 0.0744
vn -0.3128 -0.9253 0.2142
vn 0.7479 -0.4946 0.4427
vn 0.6848 -0.5877 0.4309
vn 0.9268 -0.1379 0.3494
vn -0.7226 0.5263 -0.4481
vn 0.1725 -0.9324 0.3177
vn 0.9294 -0.1733 0.3258
vn -0.8401 0.3699 -0.3968
vn -0.5526 0.7240 -0.4129
vn -0.1438 0.9153 -0.3761
vn -0.9495 -0.1968 -0.2445
vn -0.5958 -0.8018 0.0467
vn 0.9656 0.0422 0.2566
vn 0.4267 -0.8143 0.3935
vn -0.5509 0.7621 -0.3402
vn 0.5073 -0.7655 0.3958
vn -0.8245 0.4254 -0.3731
vn -0.1537 0.9361 -0.3163
vn -0.5343 -0.8453 0.0087
vn -0.0612 -0.9744 0.2164
vn 0.3942 0.8954 -0.2069
vn -0.9376 0.1610 -0.3082
vn -0.8147 -0.5576 -0.1590
vn 0.8357 0.5420 0.0889
vn 0.6694 -0.6547 0.3510
vn 0.3882 0.9167 -0.0948
vn 0.6423 0.7662 -0.0204
vn 0.8409 -0.4449 0.3081
vn -0.8191 0.4894 -0.2993
vn 0.3865 0.9190 -0.0776
vn 0.5140 -0.7946 0.3232
vn -0.9068 0.3274 -0.2657
vn -0.9157 -0.3053 -0.2612
vn -0.5104 0.8296 -0.2261
vn -0.1996 0.9524 -0.2305
vn -0.2472 -0.9665 0.0686
vn 0.4842 -0.8315 0.2723
vn 0.2003 -0.9651 0.1687
vn 0.8392 0.5231 0.1485
vn 0.7058 -0.6735 0.2196
vn 0.9464 -0.2197 0.2370
vn -0.5814 -0.8054 -0.1158
vn 0.0272 -0.9985 0.0476
vn 0.9789 0.0086 0.2042
vn -0.6979 0.7016 -0.1434
vn 0.0434 0.9977 -0.0523
vn -0.1924 0.9810 0.0253
vn -0.6171 0.7867 -0.0173
vn -0.8899 0.4355 -0.1359
vn -0.7723 -0.5432 -0.3295
vn -0.5773 -0.7842 -0.2275
vn 0.2099 0.9710 0.1141
vn 0.5075 0.8252 0.2480
vn -0.1082 -0.9898 -0.0931
vn 0.5781 0.8097 0.1011
vn 0.5133 -0.8518 0.1049
vn 0.8842 -0.4405 0.1551
vn -0.9777 0.1068 -0.1809
vn -0.4206 0.9023 0.0948
vn -0.7898 0.6129 -0.0228
vn -0.0682 0.9757 0.2081
vn -0.4211 -0.8730 -0.2459
vn 0.9546 0.1984 0.2223
vn 0.4929 -0.8701 0.0043
vn -0.8728 -0.3283 -0.3612
vn -0.6437 0.7464 0.1690
vn -0.1195 0.9407 0.3175
vn 0.6011 0.7126 0.3617
vn -0.2097 -0.9092 -0.3596
vn 0.2081 -0.9570 -0.2021
vn 0.3748 -0.9228 -0.0891
vn 0.8823 -0.4672 0.0566
vn 0.7629 0.5841 0.2772
vn -0.3539 0.8474 0.3958
vn -0.5493 0.7788 0.3030
vn -0.5603 0.7839 0.2676
vn -0.9036 0.4275 0.0256
vn -0.9771 0.1498 -0.1509
vn -0.5848 -0.6909 -0.4251
vn 0.0801 0.8657 0.4940
vn -0.0690 0.9043 0.4212
vn 0.2084 0.8741 0.4388
vn -0.1168 -0.9084 -0.4014
vn 0.6424 0.6661 0.3789
vn 0.5114 -0.8254 -0.2392
vn 0.7703 -0.6329 -0.0773
vn 0.9615 0.1665 0.2187
vn -0.7730 0.6339 -0.0247
vn -0.8497 0.2281 -0.4754
vn -0.9140 0.3918 0.1052
vn -0.3924 0.8329 -0.3903
vn -0.3050 0.8462 0.4369
vn -0.3882 0.8809 0.2708
vn -0.4282 0.7973 0.4254
vn -0.0414 0.8506 0.5242
vn -0.6337 0.7130 0.3002
vn 0.6771 0.7263 0.1181
vn -0.7256 -0.5280 -0.4413
vn -0.4538 -0.6987 -0.5531
vn -0.1440 -0.8304 -0.5383
vn -0.4435 -0.7665 -0.4645
vn 0.1252 -0.8729 -0.4716
vn 0.9814 0.1042 0.1614
vn 0.9306 -0.3662 -0.0013
vn 0.8806 -0.4533 -0.1379
vn 0.5960 -0.7568 -0.2682
vn -0.3269 0.4771 -0.8158
vn -0.5695 -0.3635 -0.7372
vn 0.0784 0.9160 -0.3934
vn 0.5132 0.4841 -0.7088
vn 0.1071 0.9714 0.2120
vn 0.2629 0.0496 -0.9635
vn 0.2594 -0.6025 -0.7548
vn 0.6886 -0.1689 -0.7052
vn 0.7430 0.4746 -0.4719
vn 0.8330 -0.4270 -0.3519
vn 0.9754 -0.0168 -0.2199
vn 0.8633 -0.4681 -0.1887
vn 0.9296 0.3657 0.0451
vn 0.3137 -0.8134 -0.4898
vn 0.4955 -0.7702 -0.4016
usemtl mtl1
s 1
f 1//1 2//2 3//3
f 1//1 4//4 2//2
f 2//2 5//5 3//3
f 2//2 6//6 5//5
f 8//7 9//8 10//9
f 1//1 3//3 8//7
f 3//3 12//10 8//7
f 12//10 11//11 13//12
f 8//7 10//9 4//4
f 4//4 1//1 8//7
f 12//10 9//8 8//7
f 3//3 5//5 11//11
f 5//5 14//13 11//11
f 12//10 3//3 11//11
f 11//11 14//13 15//14
f 14//13 5//5 7//15
f 7//15 16//16 14//13
f 16//16 15//14 14//13
f 9//8 12//10 17//17
f 17//17 12//10 13//12
f 11//11 15//14 13//12
f 13//12 15//14 18//18
f 19//19 2//2 20//20
f 2//2 19//19 6//6
f 21//21 4//4 10//9
f 20//20 4//4 21//21
f 20//20 2//2 4//4
f 5//5 22//22 23//23
f 5//5 23//23 7//15
f 7//15 23//23 24//24
f 10//9 9//8 26//25
f 28//26 10//9 27//27
f 27//27 10//9 26//25
f 25//28 16//16 7//15
f 16//16 25//28 29//29
f 24//24 25//28 7//15
f 30//30 31//31 29//29
f 17//17 13//12 32//32
f 9//8 17//17 26//25
f 17//17 32//32 33//33
f 34//34 17//17 33//33
f 34//34 26//25 17//17
f 32//32 13//12 18//18
f 32//32 18//18 37//35
f 18//18 36//36 37//35
f 15//14 31//31 18//18
f 15//14 16//16 31//31
f 16//16 29//29 31//31
f 18//18 31//31 36//36
f 36//36 31//31 30//30
f 33//33 32//32 35//37
f 32//32 37//35 35//37
f 28//26 27//27 39//38
f 40//39 27//27 26//25
f 39//38 27//27 40//39
f 42//40 30//30 41//41
f 30//30 25//28 24//24
f 30//30 29//29 25//28
f 24//24 41//41 30//30
f 34//34 40//39 26//25
f 43//42 40//39 34//34
f 43//42 34//34 33//33
f 43//42 33//33 35//37
f 44//43 37//35 45//44
f 35//37 37//35 44//43
f 36//36 45//44 37//35
f 30//30 42//40 36//36
f 45//44 36//36 42//40
f 42//40 46//45 47//46
f 40//39 43//42 48//47
f 49//48 43//42 35//37
f 49//48 48//47 43//42
f 49//48 35//37 44//43
f 49//48 44//43 51//49
f 44//43 45//44 51//49
f 45//44 47//46 51//49
f 47//46 52//50 51//49
f 47//46 45//44 42//40
f 46//45 52//50 47//46
f 24//24 53//51 41//41
f 48//47 49//48 50//52
f 20//20 55//53 19//19
f 42//40 41//41 54//54
f 6//6 22//22 5//5
f 38//55 24//24 23//23
f 53//51 24//24 38//55
f 10//9 28//26 21//21
f 50//52 49//48 51//49
f 20//20 21//21 56//56
f 38//55 23//23 22//22
f 54//54 41//41 53//51
f 54//54 46//45 42//40
f 6//6 58//57 22//22
f 57//58 40//39 48//47
f 19//19 58//57 6//6
f 59//59 54//54 53//51
f 51//49 52//50 60//60
f 20//20 56//56 55//53
f 40//39 57//58 39//38
f 57//58 48//47 50//52
f 60//60 52//50 61//61
f 61//61 52//50 46//45
f 62//62 51//49 60//60
f 50//52 51//49 62//62
f 63//63 19//19 55//53
f 63//63 55//53 56//56
f 64//64 54//54 59//59
f 62//62 60//60 65//65
f 65//65 60//60 61//61
f 63//63 68//66 19//19
f 56//56 66//67 63//63
f 66//67 56//56 67//68
f 58//57 69//69 22//22
f 59//59 53//51 70//70
f 70//70 38//55 22//22
f 21//21 67//68 56//56
f 28//26 67//68 21//21
f 70//70 53//51 38//55
f 57//58 50//52 71//71
f 65//65 71//71 62//62
f 72//72 54//54 64//64
f 71//71 50//52 62//62
f 46//45 54//54 72//72
f 72//72 61//61 46//45
f 66//67 73//73 68//66
f 68//66 58//57 19//19
f 68//66 63//63 66//67
f 74//74 61//61 72//72
f 73//73 75//75 68//66
f 68//66 75//75 58//57
f 66//67 67//68 76//76
f 77//77 78//78 70//70
f 79//79 67//68 28//26
f 79//79 28//26 39//38
f 78//78 59//59 70//70
f 78//78 64//64 59//59
f 80//80 58//57 75//75
f 22//22 69//69 81//81
f 58//57 80//80 69//69
f 76//76 73//73 66//67
f 77//77 70//70 22//22
f 79//79 76//76 67//68
f 39//38 57//58 83//82
f 64//64 74//74 72//72
f 83//82 57//58 71//71
f 61//61 74//74 84//83
f 65//65 61//61 84//83
f 22//22 81//81 77//77
f 85//84 79//79 82//85
f 82//85 79//79 83//82
f 84//83 74//74 64//64
f 39//38 83//82 79//79
f 65//65 86//86 71//71
f 84//83 86//86 65//65
f 75//75 73//73 87//87
f 80//80 75//75 87//87
f 76//76 79//79 85//84
f 76//76 85//84 88//88
f 78//78 89//89 64//64
f 86//86 84//83 89//89
f 89//89 84//83 64//64
f 80//80 87//87 90//90
f 69//69 90//90 91//91
f 90//90 69//69 80//80
f 91//91 81//81 69//69
f 73//73 92//92 87//87
f 92//92 73//73 93//93
f 76//76 93//93 73//73
f 76//76 88//88 93//93
f 94//94 78//78 77//77
f 95//95 78//78 96//96
f 85//84 82//85 88//88
f 82//85 83//82 97//97
f 95//95 89//89 78//78
f 86//86 89//89 98//98
f 86//86 99//99 71//71
f 92//92 90//90 87//87
f 94//94 77//77 100//100
f 77//77 81//81 100//100
f 97//97 88//88 82//85
f 96//96 94//94 101//101
f 96//96 78//78 94//94
f 83//82 71//71 102//102
f 71//71 99//99 102//102
f 86//86 98//98 99//99
f 89//89 95//95 98//98
f 92//92 103//103 90//90
f 92//92 104//104 105//105
f 88//88 104//104 93//93
f 92//92 93//93 104//104
f 96//96 98//98 95//95
f 83//82 102//102 97//97
f 103//103 105//105 106//106
f 103//103 106//106 107//107
f 107//107 91//91 90//90
f 107//107 90//90 103//103
f 109//108 110//109 91//91
f 103//103 92//92 105//105
f 104//104 108//110 105//105
f 105//105 108//110 111//111
f 100//100 81//81 91//91
f 110//109 100//100 91//91
f 100//100 110//109 112//112
f 104//104 113//113 108//110
f 112//112 101//101 100//100
f 101//101 94//94 100//100
f 113//113 104//104 88//88
f 113//113 88//88 97//97
f 101//101 114//114 96//96
f 98//98 96//96 114//114
f 99//99 98//98 115//115
f 107//107 116//116 91//91
f 117//117 106//106 105//105
f 118//118 106//106 117//117
f 105//105 119//119 117//117
f 107//107 106//106 118//118
f 111//111 119//119 105//105
f 120//120 110//109 109//108
f 112//112 110//109 120//120
f 113//113 111//111 108//110
f 122//121 97//97 102//102
f 102//102 115//115 122//121
f 101//101 121//122 114//114
f 112//112 121//122 101//101
f 98//98 114//114 115//115
f 115//115 102//102 99//99
f 123//123 109//108 116//116
f 124//124 116//116 118//118
f 119//119 125//125 124//124
f 117//117 119//119 124//124
f 125//125 119//119 111//111
f 111//111 126//126 125//125
f 116//116 107//107 118//118
f 124//124 118//118 117//117
f 116//116 109//108 91//91
f 109//108 127//127 120//120
f 112//112 120//120 128//128
f 112//112 128//128 129//129
f 129//129 131//130 121//122
f 113//113 130//131 111//111
f 113//113 122//121 130//131
f 122//121 115//115 131//130
f 131//130 115//115 121//122
f 129//129 121//122 112//112
f 113//113 97//97 122//121
f 115//115 114//114 121//122
f 132//132 133//133 134//134
f 136//135 135//136 116//116
f 135//136 123//123 116//116
f 136//135 116//116 124//124
f 137//137 109//108 123//123
f 138//138 139//139 140//140
f 133//133 124//124 134//134
f 134//134 124//124 125//125
f 137//137 141//141 127//127
f 139//139 125//125 140//140
f 142//142 140//140 126//126
f 109//108 137//137 127//127
f 125//125 126//126 140//140
f 122//121 126//126 130//131
f 143//143 128//128 127//127
f 143//143 144//144 128//128
f 120//120 127//127 128//128
f 130//131 126//126 111//111
f 131//130 145//145 122//121
f 128//128 144//144 131//130
f 128//128 131//130 129//129
f 146//146 148//147 147//148
f 148//147 123//123 147//148
f 146//146 151//149 148//147
f 149//150 152//151 146//146
f 147//148 149//150 146//146
f 149//150 147//148 153//152
f 154//153 149//150 153//152
f 157//154 153//152 147//148
f 123//123 135//136 147//148
f 158//155 154//153 142//142
f 142//142 154//153 138//138
f 147//148 135//136 157//154
f 155//156 156//157 159//158
f 154//153 153//152 138//138
f 153//152 157//154 132//132
f 135//136 136//135 157//154
f 132//132 157//154 133//133
f 160//159 123//123 155//156
f 155//156 159//158 160//159
f 160//159 159//158 161//160
f 153//152 132//132 138//138
f 139//139 138//138 132//132
f 142//142 138//138 140//140
f 137//137 123//123 160//159
f 137//137 160//159 141//141
f 160//159 161//160 141//141
f 142//142 126//126 162//161
f 162//161 126//126 145//145
f 162//161 164//162 165//163
f 163//164 165//163 164//162
f 143//143 163//164 164//162
f 143//143 161//160 163//164
f 161//160 143//143 141//141
f 126//126 122//121 145//145
f 145//145 164//162 162//161
f 164//162 145//145 131//130
f 143//143 127//127 141//141
f 143//143 164//162 144//144
f 164//162 131//130 144//144
f 148//147 166//165 150//166
f 150//166 123//123 148//147
f 167//167 168//168 166//165
f 151//149 167//167 166//165
f 148//147 151//149 166//165
f 169//169 167//167 151//149
f 149//150 169//169 152//151
f 170//170 150//166 166//165
f 168//168 170//170 166//165
f 170//170 171//171 150//166
f 168//168 173//172 170//170
f 173//172 171//171 170//170
f 172//173 173//172 168//168
f 174//174 171//171 173//172
f 175//175 174//174 173//172
f 176//176 171//171 174//174
f 169//169 149//150 154//153
f 167//167 169//169 158//155
f 168//168 167//167 158//155
f 168//168 158//155 172//173
f 158//155 175//175 177//177
f 175//175 158//155 162//161
f 156//157 150//166 171//171
f 176//176 178//178 171//171
f 150//166 155//156 123//123
f 156//157 155//156 150//166
f 159//158 156//157 171//171
f 169//169 154//153 158//155
f 175//175 176//176 174//174
f 171//171 178//178 159//158
f 162//161 176//176 175//175
f 176//176 179//179 178//178
f 179//179 159//158 178//178
f 142//142 162//161 158//155
f 179//179 176//176 165//163
f 159//158 179//179 161//160
f 162//161 165//163 176//176
f 179//179 165//163 163//164
f 161//160 179//179 163//164
