#
# The license for this database is specified in the Creative Commons Attribution-Share Alike 2.1 Japan. If you use data from this database, please be sure attribute this database as follows: "BodyParts3D, (c)  The Database Center for Life Science licensed under CC Attribution-Share Alike 2.1 Japan".
# http://dbarchive.biosciencedbc.jp/en/bodyparts3d/lic.html
#
#
# Compatibility version : 4.0
# File ID : FJ2660
# Representation ID : BP8171
# Build-up logic : FMA 3.0 is_a
# Concept ID : FMA66403
# English name : Anterior interventricular vein
# Bounds(mm): (65.978800,-166.547000,1188.710000)-(72.911300,-154.682000,1201.300100)
# Volume(cm3): 0.008800
#
v 66.7119 -166.541 1200.74
v 66.0557 -166.349 1200.98
v 66.0501 -166.166 1200.59
v 65.9788 -166.167 1200.79
v 66.0202 -165.963 1200.78
v 66.0422 -165.981 1200.98
v 66.0864 -166.421 1200.78
v 66.2709 -166.547 1200.96
v 66.2556 -166.165 1200.38
v 66.1426 -166.165 1201.17
v 66.2354 -165.765 1200.58
v 66.29 -166.505 1200.59
v 66.2975 -166.363 1201.21
v 66.2884 -165.962 1201.23
v 66.3174 -165.7 1200.96
v 66.4719 -166.163 1201.3
v 66.5599 -165.92 1201.25
v 66.5938 -165.696 1201.09
v 66.6846 -166.533 1200.98
v 66.7437 -166.296 1200.36
v 66.7107 -166.332 1201.19
v 66.784 -166.085 1201.21
v 66.9816 -166.327 1200.95
v 68.0786 -165.01 1199.58
v 67.3737 -166.136 1200.57
v 67.8498 -165.665 1200
v 67.9628 -165.579 1200.58
v 68.4195 -165.323 1199.97
v 68.8335 -164 1198.99
v 68.6896 -163.761 1199.57
v 67.8257 -164.722 1200.38
v 67.8801 -164.565 1199.98
v 68.5243 -164.662 1200.34
v 69.8936 -163.335 1197.9
v 69.0247 -164.477 1199.21
v 69.2775 -163.755 1198.59
v 69.3316 -164.381 1199.39
v 69.6562 -163.932 1198.78
v 69.702 -163.963 1199.18
v 69.677 -163.771 1199.39
v 70.0802 -163.467 1198.44
v 69.9704 -163.541 1198.96
v 69.0382 -164.561 1199.95
v 68.8708 -163.982 1199.95
v 69.0909 -164.146 1199.96
v 69.9475 -161.979 1196.83
v 69.046 -163.433 1198.81
v 69.2809 -163.361 1199.38
v 69.4701 -163.062 1198.02
v 69.5197 -163.394 1199.38
v 69.4788 -162.802 1198.17
v 69.4901 -162.891 1198.69
v 69.8801 -163.178 1199.01
v 69.8976 -162.703 1198.52
v 70.3582 -162.765 1198.18
v 70.4596 -161.979 1195.81
v 70.8457 -161.858 1195.67
v 71.0616 -160.966 1194.61
v 71.6763 -160.157 1194
v 71.6786 -160.365 1194.76
v 70.6466 -160.882 1194.98
v 70.6786 -160.965 1195.76
v 71.0105 -161.754 1195.86
v 70.904 -161.565 1196.35
v 70.8793 -161.113 1195.94
v 71.3276 -160.44 1195.17
v 70.4449 -161.594 1196.66
v 71.0786 -160.063 1194.78
v 71.3211 -159.913 1193.87
v 71.9145 -158.165 1192.78
v 71.7739 -155.165 1188.98
v 71.8475 -155.206 1189.44
v 71.8785 -154.965 1188.76
v 71.8922 -154.837 1189.18
v 72.087 -155.053 1189.68
v 72.127 -157.365 1192.18
v 72.0949 -157.476 1192.63
v 72.2785 -158.165 1192.48
v 72.4603 -158.244 1192.59
v 72.4785 -157.563 1191.98
v 72.6219 -158.209 1192.83
v 72.6786 -157.965 1192.98
v 72.7953 -157.381 1191.99
v 72.8301 -157.165 1192.38
v 72.8835 -157.196 1192.19
v 72.0843 -158.192 1193.42
v 72.0742 -155.733 1189.73
v 72.0819 -155.547 1189.29
v 72.2785 -155.965 1189.92
v 72.2804 -155.762 1189.59
v 72.2738 -155.483 1189.19
v 72.5359 -155.569 1189.58
v 72.659 -155.546 1189.9
v 72.2115 -156.355 1191.31
v 72.0872 -155.898 1190.36
v 72.0738 -155.682 1190.35
v 72.2785 -156.365 1190.68
v 72.4596 -156.766 1191.14
v 72.4748 -156.166 1190.25
v 72.4584 -155.977 1191.19
v 72.4658 -155.422 1190.35
v 72.6714 -156.795 1191.18
v 72.6764 -155.994 1191.15
v 72.681 -155.996 1190.24
v 72.8142 -155.984 1190.62
v 72.6683 -155.575 1190.3
v 72.9113 -156.744 1191.53
v 72.9037 -156.579 1191.6
v 72.6384 -156.786 1192.16
v 72.0754 -155.175 1188.77
v 72.0786 -154.965 1188.71
v 72.0786 -154.682 1188.98
v 72.0786 -154.713 1189.18
v 72.2775 -155.178 1188.88
v 72.3872 -155.002 1189.02
v 72.2785 -154.778 1188.98
v 72.4162 -154.993 1189.22
v 72.4697 -155.166 1189.77
v 66.0501 -166.166 1200.59
v 66.0202 -165.963 1200.78
v 66.2709 -166.547 1200.96
v 66.2556 -166.165 1200.38
v 66.2354 -165.765 1200.58
v 66.29 -166.505 1200.59
v 66.2975 -166.363 1201.21
v 66.6846 -166.533 1200.98
v 68.0786 -165.01 1199.58
v 68.4195 -165.323 1199.97
v 68.8335 -164 1198.99
v 67.8801 -164.565 1199.98
v 69.8936 -163.335 1197.9
v 69.8936 -163.335 1197.9
v 69.0247 -164.477 1199.21
v 69.2775 -163.755 1198.59
v 69.6562 -163.932 1198.78
v 69.9475 -161.979 1196.83
v 69.046 -163.433 1198.81
v 69.4788 -162.802 1198.17
v 69.8801 -163.178 1199.01
v 70.3582 -162.765 1198.18
v 70.3582 -162.765 1198.18
v 70.4596 -161.979 1195.81
v 71.0616 -160.966 1194.61
v 71.0616 -160.966 1194.61
v 71.6763 -160.157 1194
v 71.6786 -160.365 1194.76
v 71.6786 -160.365 1194.76
v 70.6466 -160.882 1194.98
v 70.6786 -160.965 1195.76
v 71.0105 -161.754 1195.86
v 70.904 -161.565 1196.35
v 70.4449 -161.594 1196.66
v 71.0786 -160.063 1194.78
v 71.3211 -159.913 1193.87
v 71.7739 -155.165 1188.98
v 71.7739 -155.165 1188.98
v 71.8475 -155.206 1189.44
v 71.8785 -154.965 1188.76
v 71.8785 -154.965 1188.76
v 72.127 -157.365 1192.18
v 72.0949 -157.476 1192.63
v 72.0949 -157.476 1192.63
v 72.2785 -158.165 1192.48
v 72.4785 -157.563 1191.98
v 72.6786 -157.965 1192.98
v 72.8301 -157.165 1192.38
v 72.0843 -158.192 1193.42
v 72.2115 -156.355 1191.31
v 72.2115 -156.355 1191.31
v 72.0738 -155.682 1190.35
v 72.2785 -156.365 1190.68
v 72.4596 -156.766 1191.14
v 72.4658 -155.422 1190.35
v 72.8142 -155.984 1190.62
v 72.9037 -156.579 1191.6
v 72.0786 -154.965 1188.71
v 72.0786 -154.965 1188.71
v 72.0786 -154.682 1188.98
v 72.0786 -154.682 1188.98
v 72.0786 -154.713 1189.18
v 72.2785 -154.778 1188.98
v 72.2785 -154.778 1188.98
vn 0.242952 -0.940775 -0.236469
vn -0.830835 -0.401046 0.385845
vn -0.747168 -0.439761 -0.498347
vn -0.995217 -0.0882293 -0.0419481
vn -0.934825 0.253177 -0.249005
vn -0.85973 0.31709 0.400398
vn -0.774568 -0.608286 -0.173298
vn -0.368248 -0.923201 0.109972
vn -0.622026 0.324741 -0.712479
vn -0.632258 -0.0496278 0.773167
vn -0.653783 0.353701 -0.668927
vn -0.139745 -0.953535 -0.266911
vn 0.0533319 -0.677806 0.733304
vn -0.390777 0.441197 0.807861
vn -0.54818 0.770077 0.326311
vn -0.0305499 -0.067112 0.997278
vn 0.071825 0.358689 0.93069
vn -0.150284 0.65551 0.740082
vn 0.0314927 -0.998863 0.0358017
vn 0.0285676 -0.657276 -0.753108
vn 0.370303 -0.472336 0.799859
vn 0.386999 -0.0257081 0.921722
vn 0.596276 -0.664864 0.449901
vn -0.633717 0.232163 -0.737904
vn 0.578175 -0.815236 0.0332204
vn 0.292134 -0.761624 -0.578434
vn 0.657575 -0.445499 0.607557
vn 0.474314 -0.782697 -0.403003
vn -0.257937 -0.482207 -0.837224
vn -0.557838 0.775399 0.295929
vn -0.357162 0.784384 0.507127
vn -0.678769 0.299829 -0.670355
vn 0.31106 0.258178 0.914651
vn 0.358663 -0.829104 -0.428891
vn -0.121327 -0.546523 -0.828609
vn -0.14528 -0.682318 -0.716475
vn 0.676991 -0.728234 -0.106578
vn 0.602643 -0.756832 -0.253035
vn 0.818827 -0.552399 0.15613
vn 0.769725 -0.0288887 0.637721
vn 0.770288 -0.628769 -0.106325
vn 0.904073 -0.192467 0.381588
vn 0.768134 -0.379586 0.515641
vn 0.0118596 0.608223 0.793678
vn 0.526336 0.186788 0.829506
vn -0.953912 0.11815 -0.275848
vn -0.776581 0.0423565 -0.628593
vn -0.145643 0.782644 0.605192
vn -0.851838 -0.161945 -0.498143
vn 0.343438 0.534251 0.772416
vn -0.931397 0.2036 -0.301738
vn -0.546945 0.790537 0.275503
vn 0.752936 0.166225 0.636754
vn 0.201275 0.773158 0.601428
vn 0.955186 -0.240362 0.172757
vn 0.0534906 -0.809842 -0.584204
vn 0.419074 -0.789969 -0.447577
vn -0.664771 -0.344207 -0.663024
vn -0.000995354 -0.597106 -0.802162
vn 0.692124 0.307342 0.653074
vn -0.844651 -0.126232 -0.520221
vn -0.719941 0.660699 0.212513
vn 0.953384 -0.20757 0.219028
vn 0.433263 0.635241 0.639337
vn 0.151535 0.72523 0.671624
vn 0.335849 0.561157 0.75651
vn -0.405379 0.828107 0.387178
vn -0.8603 0.489523 0.142307
vn -0.713355 -0.213518 -0.667484
vn -0.824361 -0.119219 -0.553367
vn -0.504246 -0.681096 -0.530889
vn -0.956168 -0.281185 0.0817148
vn -0.838401 0.528093 -0.13491
vn -0.790906 0.584567 0.180965
vn -0.557463 0.648377 0.518501
vn -0.989347 0.141089 -0.0358568
vn -0.979198 0.153489 -0.132709
vn 0.0829587 -0.630971 -0.771358
vn 0.455578 -0.639472 -0.619293
vn 0.256545 -0.688305 -0.678543
vn 0.889156 -0.430334 -0.155608
vn 0.510409 0.402834 0.759742
vn 0.739613 -0.523928 -0.422459
vn 0.422316 0.578065 0.698205
vn 0.99308 -0.105674 0.0512414
vn -0.317993 0.675204 0.665568
vn -0.686872 -0.687199 -0.236568
vn -0.293653 -0.82131 -0.489098
vn -0.423804 -0.805379 -0.414433
vn 0.0355545 -0.842379 -0.537712
vn 0.290475 -0.749145 -0.595321
vn 0.733065 -0.470421 -0.491243
vn 0.975351 0.148236 -0.163453
vn -0.93283 -0.334298 -0.134436
vn -0.91863 -0.391091 -0.0562705
vn -0.985704 -0.053792 0.159671
vn -0.862805 -0.482827 -0.149819
vn -0.112164 -0.789093 -0.603947
vn 0.15921 -0.808438 -0.566639
vn -0.264659 0.764016 0.588417
vn 0.553971 0.756809 0.346924
vn 0.435615 -0.690464 -0.577494
vn 0.57087 0.694104 0.438551
vn 0.786418 -0.437608 -0.435942
vn 0.963394 -0.132692 -0.232947
vn 0.81144 0.554138 0.185732
vn 0.937863 -0.253442 -0.237022
vn 0.69241 0.584364 0.423187
vn 0.173849 0.722868 0.668759
vn -0.0736415 -0.60788 -0.790607
vn -0.23326 -0.275484 -0.932576
vn -0.654961 0.755228 -0.0256263
vn -0.421283 0.811522 0.404911
vn 0.644857 -0.336939 -0.686026
vn 0.894748 0.122224 -0.42952
vn 0.314655 0.655268 -0.686743
vn 0.895751 0.443604 -0.0290759
vn 0.710547 0.674595 0.200113
vn -0.813933 0.279026 -0.509565
vn -0.685917 0.723452 0.0783295
vn -0.00188572 -0.800332 0.599555
vn -0.3341 -0.475618 -0.813735
vn -0.581505 0.809155 0.0843839
vn -0.523503 -0.50797 -0.68404
vn -0.539206 -0.402211 0.739921
vn 0.362249 -0.813257 0.4554
vn -0.0622042 -0.480631 -0.874714
vn 0.728205 -0.642816 0.23771
vn -0.633683 -0.00450816 -0.77358
vn -0.626114 0.76594 0.146007
vn -0.0863689 -0.813055 -0.575745
vn -0.528936 -0.548788 -0.647346
vn 0.464751 -0.774901 -0.428409
vn -0.687012 -0.226013 -0.690603
vn -0.00765728 -0.744827 -0.667213
vn -0.638869 0.732849 0.234048
vn -0.752354 0.658758 -0.000994846
vn -0.755997 0.642197 0.126697
vn 0.398528 0.655516 0.641463
vn 0.833115 0.123383 0.539162
vn 0.513647 0.626281 0.586463
vn -0.70248 -0.416633 -0.577009
vn 0.234216 -0.767575 -0.596633
vn -0.0863129 -0.561269 -0.82312
vn 0.73316 -0.608082 -0.304486
vn 0.894222 -0.444665 -0.0513887
vn 0.931874 -0.218196 0.289831
vn -0.828252 0.545299 0.129029
vn 0.021343 0.777497 0.628524
vn 0.754104 -0.620148 -0.216203
vn 0.952848 -0.145738 0.266159
vn 0.278418 0.742622 0.609094
vn -0.150591 0.711065 0.686811
vn -0.0963725 -0.571553 -0.814886
vn -0.934231 -0.335997 0.119658
vn -0.947796 0.315883 0.0435991
vn -0.840464 0.393723 0.372294
vn -0.374249 -0.401997 -0.835665
vn -0.17807 0.6793 -0.711929
vn -0.702128 -0.42572 -0.570771
vn -0.846076 0.495555 0.196421
vn -0.447254 0.673325 0.588725
vn -0.601344 -0.325851 -0.729524
vn -0.610365 -0.448637 -0.652824
vn 0.974388 -0.175557 0.140527
vn 0.962583 0.104379 0.250076
vn 0.343622 0.525926 0.778027
vn -0.997535 0.0285391 -0.0641087
vn -0.68874 0.55384 0.467866
vn -0.755989 0.482293 0.442576
vn -0.241148 -0.831875 -0.499831
vn -0.801544 -0.47343 -0.365229
vn -0.0646701 0.829563 0.554655
vn 0.883791 0.442298 0.152595
vn 0.992254 0.0944225 0.080726
vn 0.0704754 0.688616 -0.721693
vn 0.641161 0.0263018 -0.766955
vn 0.0704754 0.688616 -0.721693
vn 0.428713 0.892794 0.13829
vn 0.455746 0.850821 0.261532
vn 0.688663 0.718174 0.0998481
vn 0.705944 0.218272 -0.673796
g grp1
usemtl mtl1
f 12//12 8//8 7//7 
f 12//12 1//1 8//8 
f 1//1 19//19 8//8 
f 13//13 121//121 126//126 
f 126//126 1//1 25//25 
f 3//3 7//7 4//4 
f 4//4 7//7 2//2 
f 2//2 6//6 4//4 
f 2//2 10//10 6//6 
f 11//11 9//9 119//119 
f 5//5 11//11 119//119 
f 119//119 4//4 5//5 
f 4//4 6//6 5//5 
f 123//123 120//120 15//15 
f 15//15 120//120 6//6 
f 122//122 124//124 3//3 
f 124//124 7//7 3//3 
f 2//2 7//7 8//8 
f 8//8 125//125 2//2 
f 125//125 16//16 10//10 
f 2//2 125//125 10//10 
f 9//9 11//11 24//24 
f 6//6 10//10 14//14 
f 10//10 16//16 14//14 
f 6//6 14//14 15//15 
f 20//20 124//124 122//122 
f 17//17 14//14 16//16 
f 18//18 15//15 14//14 
f 17//17 18//18 14//14 
f 12//12 20//20 1//1 
f 13//13 126//126 21//21 
f 16//16 13//13 21//21 
f 21//21 22//22 16//16 
f 22//22 17//17 16//16 
f 33//33 18//18 17//17 
f 22//22 33//33 17//17 
f 31//31 15//15 18//18 
f 31//31 18//18 33//33 
f 25//25 23//23 126//126 
f 23//23 21//21 126//126 
f 27//27 21//21 23//23 
f 22//22 21//21 27//27 
f 127//127 20//20 122//122 
f 26//26 20//20 127//127 
f 33//33 22//22 27//27 
f 123//123 15//15 31//31 
f 35//35 127//127 29//29 
f 35//35 26//26 127//127 
f 20//20 26//26 1//1 
f 1//1 26//26 25//25 
f 26//26 28//28 25//25 
f 27//27 23//23 25//25 
f 27//27 25//25 128//128 
f 26//26 133//133 28//28 
f 37//37 28//28 133//133 
f 37//37 43//43 128//128 
f 43//43 27//27 128//128 
f 47//47 24//24 32//32 
f 47//47 129//129 24//24 
f 137//137 130//130 30//30 
f 130//130 31//31 30//30 
f 36//36 35//35 29//29 
f 31//31 44//44 30//30 
f 30//30 44//44 48//48 
f 11//11 32//32 24//24 
f 123//123 31//31 130//130 
f 27//27 43//43 33//33 
f 44//44 31//31 33//33 
f 34//34 41//41 38//38 
f 129//129 47//47 134//134 
f 30//30 52//52 137//137 
f 133//133 38//38 37//37 
f 39//39 43//43 37//37 
f 39//39 40//40 43//43 
f 45//45 43//43 40//40 
f 135//135 35//35 36//36 
f 45//45 50//50 44//44 
f 50//50 48//48 44//44 
f 37//37 38//38 39//39 
f 40//40 50//50 45//45 
f 40//40 53//53 50//50 
f 135//135 36//36 131//131 
f 40//40 39//39 42//42 
f 40//40 42//42 53//53 
f 38//38 41//41 39//39 
f 39//39 41//41 42//42 
f 41//41 55//55 42//42 
f 53//53 42//42 140//140 
f 55//55 41//41 63//63 
f 43//43 45//45 33//33 
f 45//45 44//44 33//33 
f 34//34 56//56 57//57 
f 142//142 49//49 61//61 
f 49//49 51//51 46//46 
f 138//138 52//52 136//136 
f 142//142 132//132 49//49 
f 67//67 52//52 54//54 
f 136//136 52//52 67//67 
f 34//34 57//57 41//41 
f 54//54 141//141 64//64 
f 151//151 55//55 63//63 
f 54//54 64//64 152//152 
f 52//52 30//30 48//48 
f 132//132 134//134 49//49 
f 134//134 47//47 49//49 
f 49//49 47//47 51//51 
f 52//52 138//138 137//137 
f 48//48 54//54 52//52 
f 50//50 54//54 48//48 
f 139//139 54//54 50//50 
f 141//141 54//54 139//139 
f 61//61 49//49 46//46 
f 148//148 136//136 62//62 
f 136//136 67//67 62//62 
f 61//61 58//58 142//142 
f 41//41 57//57 150//150 
f 56//56 143//143 57//57 
f 58//58 61//61 69//69 
f 59//59 144//144 154//154 
f 59//59 154//154 78//78 
f 66//66 60//60 82//82 
f 145//145 81//81 146//146 
f 146//146 81//81 165//165 
f 152//152 65//65 149//149 
f 62//62 68//68 148//148 
f 149//149 65//65 153//153 
f 151//151 63//63 147//147 
f 65//65 152//152 64//64 
f 65//65 64//64 66//66 
f 65//65 66//66 153//153 
f 57//57 143//143 145//145 
f 150//150 57//57 145//145 
f 145//145 146//146 150//150 
f 64//64 60//60 66//66 
f 59//59 78//78 79//79 
f 145//145 79//79 81//81 
f 70//70 163//163 69//69 
f 69//69 61//61 70//70 
f 61//61 77//77 70//70 
f 68//68 161//161 148//148 
f 162//162 153//153 86//86 
f 70//70 77//77 76//76 
f 153//153 66//66 86//86 
f 87//87 95//95 72//72 
f 95//95 96//96 72//72 
f 88//88 87//87 71//71 
f 88//88 71//71 110//110 
f 170//170 75//75 157//157 
f 155//155 87//87 72//72 
f 73//73 156//156 74//74 
f 157//157 74//74 156//156 
f 73//73 74//74 112//112 
f 71//71 158//158 110//110 
f 110//110 158//158 111//111 
f 157//157 75//75 74//74 
f 178//178 176//176 159//159 
f 113//113 74//74 75//75 
f 74//74 113//113 112//112 
f 102//102 80//80 98//98 
f 163//163 70//70 164//164 
f 164//164 70//70 160//160 
f 172//172 164//164 160//160 
f 172//172 160//160 94//94 
f 76//76 77//77 168//168 
f 79//79 78//78 80//80 
f 66//66 82//82 167//167 
f 79//79 80//80 83//83 
f 82//82 84//84 167//167 
f 84//84 109//109 167//167 
f 79//79 83//83 81//81 
f 83//83 85//85 81//81 
f 165//165 81//81 85//85 
f 165//165 85//85 166//166 
f 87//87 89//89 95//95 
f 87//87 90//90 89//89 
f 88//88 90//90 87//87 
f 110//110 114//114 91//91 
f 91//91 88//88 110//110 
f 90//90 88//88 91//91 
f 90//90 92//92 99//99 
f 89//89 90//90 99//99 
f 91//91 114//114 92//92 
f 91//91 92//92 90//90 
f 99//99 92//92 104//104 
f 104//104 92//92 93//93 
f 93//93 118//118 106//106 
f 118//118 101//101 106//106 
f 172//172 94//94 97//97 
f 97//97 94//94 95//95 
f 89//89 97//97 95//95 
f 100//100 75//75 169//169 
f 95//95 94//94 96//96 
f 169//169 75//75 170//170 
f 99//99 98//98 171//171 
f 99//99 171//171 89//89 
f 75//75 100//100 173//173 
f 102//102 98//98 99//99 
f 99//99 104//104 102//102 
f 100//100 109//109 103//103 
f 106//106 101//101 103//103 
f 100//100 103//103 173//173 
f 102//102 83//83 80//80 
f 107//107 83//83 102//102 
f 102//102 104//104 107//107 
f 108//108 103//103 109//109 
f 104//104 105//105 107//107 
f 107//107 105//105 175//175 
f 104//104 93//93 105//105 
f 174//174 103//103 108//108 
f 106//106 103//103 174//174 
f 106//106 174//174 93//93 
f 83//83 107//107 85//85 
f 175//175 85//85 107//107 
f 162//162 86//86 109//109 
f 109//109 100//100 162//162 
f 162//162 100//100 169//169 
f 84//84 108//108 109//109 
f 85//85 175//175 166//166 
f 177//177 114//114 110//110 
f 176//176 178//178 116//116 
f 173//173 113//113 75//75 
f 180//180 181//181 179//179 
f 115//115 92//92 114//114 
f 177//177 115//115 114//114 
f 92//92 115//115 93//93 
f 93//93 115//115 117//117 
f 93//93 117//117 118//118 
f 101//101 118//118 180//180 
f 115//115 177//177 182//182 
f 117//117 115//115 181//181 
f 118//118 117//117 181//181 
f 180//180 118//118 181//181 
