#
# The license for this database is specified in the Creative Commons Attribution-Share Alike 2.1 Japan. If you use data from this database, please be sure attribute this database as follows: "BodyParts3D, (c)  The Database Center for Life Science licensed under CC Attribution-Share Alike 2.1 Japan".
# http://dbarchive.biosciencedbc.jp/en/bodyparts3d/lic.html
#
#
# Compatibility version : 4.0
# File ID : FJ1914
# Representation ID : BP6746
# Build-up logic : FMA 3.0 part_of
# Concept ID : FMA82706
# English name : Caudate lobe branch of right portal vein
# Bounds(mm): (-29.552000,-139.166600,1110.048500)-(-16.386500,-129.207200,1120.583700)
# Volume(cm3): 0.033600
#
v -27.9573 -133.021 1114.73
v -27.5358 -131.953 1114.91
v -27.4816 -132.776 1115.42
v -26.6954 -130.829 1115.77
v -27.089 -131.544 1115.92
v -26.574 -131.869 1116.32
v -25.6646 -130.298 1117.2
v -28.8716 -135.494 1112.85
v -28.9611 -135.771 1112.2
v -28.3568 -135.766 1113.55
v -28.0558 -133.175 1113.81
v -27.615 -134.397 1114.58
v -27.1801 -131.749 1114.62
v -26.0693 -132.057 1114.72
v -26.5971 -132.988 1115.48
v -26.2456 -131.267 1114.92
v -25.9962 -132.47 1115.2
v -25.6029 -130.166 1116
v -24.9445 -130.172 1116.15
v -25.3149 -131.23 1115.68
v -24.7977 -130.731 1116.16
v -25.8978 -131.535 1116.7
v -25.211 -131.386 1116.58
v -25.227 -131.33 1115.92
v -25.4395 -129.833 1116.66
v -24.4521 -129.522 1116.94
v -24.8941 -130.3 1117.75
v -24.5667 -130.846 1117.36
v -24.6768 -130.922 1116.49
v -24.3355 -129.519 1117.8
v -23.4469 -129.244 1117.83
v -24.0265 -130.381 1118.08
v -23.8672 -130.612 1117.76
v -23.2927 -129.53 1118.47
v -23.2995 -129.953 1118.57
v -22.8193 -129.276 1118.4
v -29.464 -137.732 1111.1
v -29.4083 -137.811 1110.73
v -29.4951 -138.169 1110.74
v -29.3122 -137.593 1110.74
v -29.5156 -138.085 1111.18
v -29.2732 -138.277 1111.71
v -29.4363 -138.596 1111.23
v -29.5072 -138.433 1110.91
v -28.6508 -135.931 1111.52
v -28.4038 -135.756 1111.54
v -29.0666 -138.531 1111.8
v -28.2634 -134.527 1112.48
v -28.7371 -135.508 1112.01
v -27.1624 -135.132 1112.47
v -27.1565 -135.809 1113.07
v -27.5711 -136.14 1113.35
v -27.464 -133.532 1113.09
v -27.0046 -133.58 1113.24
v -26.3643 -133.041 1114.26
v -26.5206 -133.516 1114.7
v -24.1362 -130.256 1116.64
v -24.1431 -130.542 1116.76
v -24.2105 -130.745 1117
v -23.4967 -129.557 1117.18
v -23.4638 -130.264 1117.13
v -23.5031 -130.505 1117.39
v -22.7264 -130.311 1117.64
v -22.6794 -129.934 1117.45
v -23.4136 -130.486 1118.11
v -23.1301 -130.514 1117.97
v -22.3174 -129.245 1118.11
v -22.0832 -130.431 1118.18
v -21.865 -130.448 1118.65
v -21.783 -129.736 1119.14
v -21.5267 -129.479 1119.07
v -21.4072 -129.307 1118.8
v -21.5611 -130.121 1119.18
v -29.3567 -137.962 1110.5
v -29.3258 -138.205 1110.42
v -29.1232 -137.608 1110.48
v -29.1208 -137.96 1110.26
v -28.9275 -137.541 1110.39
v -29.1112 -138.312 1110.23
v -28.8099 -137.893 1110.14
v -28.8813 -138.542 1110.18
v -28.8129 -138.241 1110.09
v -28.4777 -137.495 1110.33
v -28.5054 -137.973 1110.08
v -28.1397 -137.537 1110.39
v -28.5052 -138.342 1110.07
v -29.4418 -138.516 1110.73
v -29.3758 -138.75 1111.04
v -29.2372 -138.827 1111.36
v -29.2567 -138.633 1110.5
v -29.2275 -138.866 1110.75
v -29.154 -138.982 1110.99
v -28.924 -139.024 1111.4
v -29.0081 -138.869 1110.47
v -28.9036 -139.095 1110.85
v -28.6701 -139.151 1111.27
v -28.6725 -139.042 1110.56
v -28.5688 -138.826 1110.29
v -28.3247 -139.148 1110.99
v -28.5889 -138.553 1111.96
v -28.5119 -139.052 1111.52
v -28.2144 -138.58 1111.9
v -28.2652 -139.097 1111.33
v -28.1043 -138.926 1111.53
v -27.9762 -138.694 1111.66
v -28.0252 -139.011 1111.12
v -27.9507 -138.877 1111.41
v -27.7278 -138.366 1111.62
v -21.8827 -130.276 1117.99
v -20.7701 -129.604 1118.37
v -20.8904 -129.991 1118.22
v -20.917 -130.406 1119.23
v -20.8337 -130.511 1119.05
v -20.7983 -130.456 1118.59
v -19.4933 -130.044 1119.86
v -28.1237 -138.315 1110.18
v -27.8442 -138.415 1110.41
v -27.7616 -137.858 1110.57
v -28.104 -138.918 1110.59
v -27.619 -138.364 1111.08
v -19.698 -129.598 1118.98
v -19.1402 -129.709 1119.61
v -18.9123 -130.236 1118.92
v -19.4119 -130.528 1118.91
v -19.5311 -130.692 1119.22
v -19.2227 -130.715 1119.63
v -18.7171 -130.697 1119.95
v -18.0166 -130.078 1119.34
v -17.0543 -131.135 1120.07
v -17.1757 -130.112 1119.89
v -16.6949 -130.267 1119.95
v -17.066 -130.285 1120.41
v -17.0302 -130.55 1120.55
v -17.2271 -130.696 1120.51
v -17.2334 -130.94 1120.41
v -16.8982 -130.209 1120.26
v -16.7758 -130.451 1120.53
v -17.0641 -131.093 1120.29
v -16.9053 -131.052 1120.42
v -16.731 -130.773 1120.55
v -16.8139 -130.948 1120.5
v -16.6353 -130.376 1120.39
v -16.6594 -130.624 1120.53
v -16.7861 -131.088 1120.34
v -16.6016 -130.834 1120.47
v -16.6784 -130.987 1120.42
v -16.9801 -130.666 1119.56
v -16.8892 -130.966 1119.72
v -17.0659 -131.056 1119.79
v -16.7145 -131.079 1119.91
v -16.6129 -130.857 1119.75
v -16.6743 -130.405 1119.77
v -16.4974 -130.466 1119.92
v -16.652 -131.074 1120.23
v -16.4468 -130.492 1120.18
v -16.4042 -130.702 1120.11
v -16.4445 -130.624 1120.3
v -16.5161 -130.924 1120.28
v -16.512 -130.675 1119.81
v -16.5255 -130.938 1119.93
v -27.5358 -131.953 1114.91
v -26.6954 -130.829 1115.77
v -25.6646 -130.298 1117.2
v -26.5971 -132.988 1115.48
v -25.211 -131.386 1116.58
v -24.8941 -130.3 1117.75
v -24.5667 -130.846 1117.36
v -24.3355 -129.519 1117.8
v -23.4469 -129.244 1117.83
v -24.2105 -130.745 1117
v -23.4967 -129.557 1117.18
v -22.6794 -129.934 1117.45
v -20.8904 -129.991 1118.22
v -27.8442 -138.415 1110.41
v -27.8442 -138.415 1110.41
v -18.9123 -130.236 1118.92
v -16.7758 -130.451 1120.53
v -16.6353 -130.376 1120.39
v -16.6353 -130.376 1120.39
v -16.4468 -130.492 1120.18
vn -0.920943 0.134218 0.365855
vn -0.903886 0.394725 0.16487
vn -0.643533 -0.204751 0.737525
vn -0.783465 0.558454 0.272601
vn -0.82843 0.212851 0.518072
vn -0.327785 -0.396993 0.857295
vn -0.697547 0.630786 0.339908
vn -0.959577 0.118214 0.255417
vn -0.905188 0.378989 -0.192358
vn -0.616365 -0.289317 0.732386
vn -0.781191 0.537128 -0.318172
vn -0.125755 -0.50419 0.854388
vn -0.413684 0.720673 -0.556324
vn 0.806033 0.0259449 -0.591302
vn 0.722024 -0.58222 0.373768
vn 0.230739 0.561573 -0.794604
vn 0.884692 -0.454395 -0.104142
vn -0.14522 0.805611 -0.574371
vn 0.462034 0.372009 -0.805068
vn 0.808201 -0.180441 -0.560582
vn 0.708962 -0.232086 -0.665965
vn 0.0158107 -0.688476 0.725087
vn 0.709915 -0.700993 -0.0680431
vn 0.814612 -0.48276 -0.321481
vn -0.478896 0.877789 -0.0120094
vn -0.0492169 0.919867 -0.38913
vn -0.539206 0.186971 0.821157
vn -0.151826 -0.709872 0.687773
vn 0.686207 -0.628899 -0.365521
vn -0.375218 0.884279 0.277959
vn -0.203735 0.965662 0.161214
vn -0.234917 -0.694153 0.680416
vn 0.0625055 -0.960831 0.269993
vn -0.38906 0.464379 0.795603
vn -0.394129 -0.0904433 0.914594
vn -0.177686 0.902058 0.393343
vn -0.9723 0.224231 -0.0659825
vn -0.899356 0.316915 -0.301205
vn -0.960005 0.0533972 -0.274844
vn -0.787962 0.435873 -0.434891
vn -0.987302 0.00594056 0.15874
vn -0.819019 -0.220854 0.529558
vn -0.909641 -0.324153 0.259766
vn -0.973505 -0.219623 -0.0636668
vn -0.491627 0.56843 -0.659689
vn -0.212258 0.590887 -0.778331
vn -0.504797 -0.497443 0.7055
vn -0.446958 0.615965 -0.648702
vn -0.715368 0.517698 -0.469294
vn 0.935661 0.0189329 -0.352392
vn 0.913802 -0.357323 0.193096
vn 0.468845 -0.553306 0.688504
vn -0.0261372 0.607775 -0.793679
vn 0.646448 0.301471 -0.700871
vn 0.944297 -0.144359 -0.295741
vn 0.864723 -0.458787 0.204373
vn 0.594235 -0.0549806 -0.80241
vn 0.61565 -0.546664 -0.567568
vn 0.587453 -0.717485 -0.374319
vn 0.184847 0.814658 -0.549695
vn 0.518559 -0.347466 -0.781258
vn 0.37467 -0.883827 -0.280128
vn 0.33216 -0.731222 -0.595806
vn 0.369349 0.144141 -0.918044
vn -0.0805339 -0.921173 0.380728
vn 0.124748 -0.990361 -0.060187
vn 0.143364 0.953568 -0.264867
vn 0.100224 -0.957928 -0.268941
vn -0.136887 -0.931359 0.337391
vn -0.31566 0.205225 0.926413
vn -0.173782 0.68578 0.706757
vn 0.0390014 0.977613 0.206765
vn -0.322966 -0.438143 0.838883
vn -0.797041 0.277682 -0.5363
vn -0.790691 -0.0559682 -0.609652
vn -0.621378 0.480303 -0.619031
vn -0.552367 0.248987 -0.795548
vn -0.356016 0.525281 -0.772873
vn -0.561293 -0.136353 -0.816308
vn -0.23642 0.348349 -0.90706
vn -0.323742 -0.394234 -0.860099
vn -0.263573 -0.00478042 -0.964628
vn 0.0173717 0.519261 -0.854439
vn 0.130637 0.234403 -0.963322
vn 0.406157 0.38187 -0.830188
vn 0.0738625 -0.211609 -0.974559
vn -0.879763 -0.33258 -0.339717
vn -0.831158 -0.555735 -0.0182986
vn -0.698 -0.602904 0.386396
vn -0.682768 -0.41437 -0.601768
vn -0.673103 -0.673387 -0.305748
vn -0.584892 -0.810791 0.0227762
vn -0.371155 -0.81986 0.435974
vn -0.411972 -0.696442 -0.587578
vn -0.320866 -0.932733 -0.164481
vn -0.0973884 -0.977073 0.189323
vn -0.0326146 -0.882383 -0.4694
vn 0.0676358 -0.606778 -0.791989
vn 0.189618 -0.973856 -0.125099
vn -0.165177 -0.582816 0.795639
vn 0.0255802 -0.802851 0.59563
vn 0.257288 -0.605184 0.753363
vn 0.311542 -0.910637 0.271446
vn 0.394941 -0.730018 0.55776
vn 0.588042 -0.556417 0.587033
vn 0.642025 -0.766453 -0.0188051
vn 0.703139 -0.647336 0.294197
vn 0.809014 -0.448048 0.380461
vn 0.268783 -0.722132 -0.637402
vn 0.352578 0.497473 -0.792597
vn 0.3788 0.221614 -0.898553
vn -0.291075 -0.77772 0.55716
vn -0.156112 -0.973917 0.164666
vn 0.106034 -0.861784 -0.496069
vn -0.217902 0.318945 0.922384
vn 0.468264 -0.123026 -0.874982
vn 0.445688 -0.490892 -0.74859
vn 0.799968 0.134063 -0.584874
vn 0.520974 -0.702706 -0.484551
vn 0.939898 -0.32578 -0.10227
vn 0.258835 0.920698 -0.292095
vn 0.0556056 0.914059 0.401752
vn 0.241194 -0.382787 -0.891796
vn 0.146766 -0.634604 -0.758774
vn -0.0881237 -0.975557 -0.201301
vn -0.247194 -0.914757 0.319553
vn -0.295298 -0.763882 0.573833
vn 0.362767 0.649694 -0.668055
vn -0.0306131 -0.999514 -0.00591094
vn 0.281009 0.945676 -0.163494
vn 0.508394 0.841108 -0.184586
vn 0.0136053 0.691086 0.722645
vn -0.081642 0.1795 0.980364
vn -0.224592 -0.196626 0.954409
vn -0.283167 -0.619394 0.732235
vn 0.250595 0.924438 0.287432
vn 0.0563191 0.465592 0.883206
vn -0.182073 -0.90387 0.387129
vn -0.0890053 -0.758332 0.645764
vn 0.148164 -0.165274 0.975055
vn 0.0847075 -0.509329 0.856393
vn 0.542966 0.829289 0.132163
vn 0.466971 0.135204 0.873875
vn 0.155871 -0.896984 0.413672
vn 0.603199 -0.296686 0.740357
vn 0.468682 -0.651351 0.596724
vn 0.352939 -0.0124535 -0.935563
vn 0.21909 -0.604438 -0.765933
vn 0.0351194 -0.884851 -0.464548
vn 0.325443 -0.860947 -0.390969
vn 0.514496 -0.41656 -0.749514
vn 0.510552 0.463792 -0.72404
vn 0.823888 0.439214 -0.35819
vn 0.473157 -0.870852 0.133191
vn 0.658323 0.752301 0.0255947
vn 0.995003 -0.071221 -0.0699823
vn 0.873482 0.074948 0.481053
vn 0.817854 -0.487639 0.305489
vn 0.758753 0.0145081 -0.651217
vn 0.79525 -0.544452 -0.266737
vn -0.661251 0.669453 -0.338497
vn -0.492796 0.78839 -0.368229
vn -0.600154 0.0532228 0.798112
vn 0.104259 -0.637926 0.763008
vn 0.339573 -0.833134 0.436553
vn -0.248383 -0.547463 0.799118
vn 0.337842 -0.925839 0.169369
vn -0.529019 0.323339 0.784596
vn 0.127558 0.888875 -0.440035
vn 0.385373 -0.914108 0.126073
vn 0.452893 0.153209 -0.878303
vn 0.41601 -0.442007 -0.794711
vn 0.286517 -0.52119 -0.803909
vn 0.657928 0.108882 -0.745168
vn 0.912919 -0.289855 -0.287339
vn 0.352651 0.242434 -0.903805
vn 0.542247 0.381001 0.74887
vn 0.190007 0.774845 0.602919
vn 0.679891 0.377171 0.62888
vn 0.944221 0.288218 0.159301
g grp1
usemtl mtl1
f 1//1 5//5 2//2 
f 2//2 5//5 4//4 
f 13//13 161//161 162//162 
f 161//161 13//13 11//11 
f 11//11 1//1 2//2 
f 13//13 162//162 18//18 
f 1//1 10//10 3//3 
f 1//1 3//3 5//5 
f 3//3 6//6 5//5 
f 18//18 162//162 25//25 
f 25//25 4//4 7//7 
f 5//5 7//7 4//4 
f 5//5 6//6 163//163 
f 30//30 25//25 7//7 
f 163//163 27//27 168//168 
f 163//163 6//6 27//27 
f 11//11 9//9 8//8 
f 42//42 47//47 10//10 
f 1//1 11//11 8//8 
f 49//49 11//11 48//48 
f 48//48 11//11 53//53 
f 42//42 10//10 8//8 
f 53//53 11//11 13//13 
f 10//10 1//1 8//8 
f 10//10 12//12 3//3 
f 16//16 13//13 18//18 
f 13//13 16//16 53//53 
f 16//16 19//19 14//14 
f 6//6 3//3 12//12 
f 52//52 6//6 12//12 
f 51//51 15//15 52//52 
f 51//51 56//56 15//15 
f 19//19 21//21 20//20 
f 14//14 19//19 20//20 
f 17//17 15//15 56//56 
f 17//17 23//23 15//15 
f 24//24 23//23 17//17 
f 17//17 14//14 20//20 
f 24//24 17//17 20//20 
f 52//52 164//164 6//6 
f 6//6 164//164 22//22 
f 25//25 26//26 18//18 
f 18//18 19//19 16//16 
f 19//19 18//18 26//26 
f 21//21 24//24 20//20 
f 29//29 21//21 58//58 
f 165//165 22//22 164//164 
f 21//21 29//29 24//24 
f 24//24 29//29 23//23 
f 30//30 26//26 25//25 
f 26//26 30//30 31//31 
f 19//19 26//26 60//60 
f 57//57 58//58 21//21 
f 19//19 57//57 21//21 
f 59//59 29//29 58//58 
f 19//19 171//171 57//57 
f 6//6 22//22 166//166 
f 22//22 28//28 166//166 
f 165//165 167//167 22//22 
f 167//167 165//165 170//170 
f 170//170 62//62 167//167 
f 62//62 33//33 167//167 
f 23//23 29//29 59//59 
f 36//36 31//31 30//30 
f 34//34 36//36 30//30 
f 26//26 169//169 60//60 
f 31//31 36//36 67//67 
f 60//60 169//169 67//67 
f 28//28 32//32 166//166 
f 33//33 32//32 28//28 
f 33//33 65//65 32//32 
f 34//34 168//168 27//27 
f 166//166 32//32 35//35 
f 34//34 27//27 35//35 
f 8//8 41//41 42//42 
f 38//38 39//39 37//37 
f 49//49 40//40 9//9 
f 40//40 38//38 9//9 
f 37//37 9//9 38//38 
f 41//41 37//37 39//39 
f 74//74 75//75 39//39 
f 38//38 74//74 39//39 
f 74//74 38//38 40//40 
f 49//49 45//45 76//76 
f 40//40 76//76 74//74 
f 40//40 49//49 76//76 
f 39//39 44//44 41//41 
f 44//44 43//43 41//41 
f 87//87 39//39 75//75 
f 44//44 39//39 87//87 
f 88//88 44//44 87//87 
f 88//88 43//43 44//44 
f 88//88 89//89 43//43 
f 43//43 42//42 41//41 
f 42//42 43//43 89//89 
f 47//47 93//93 100//100 
f 9//9 37//37 8//8 
f 8//8 37//37 41//41 
f 100//100 10//10 47//47 
f 48//48 46//46 45//45 
f 9//9 11//11 49//49 
f 45//45 49//49 48//48 
f 48//48 53//53 46//46 
f 46//46 53//53 83//83 
f 52//52 108//108 51//51 
f 16//16 54//54 53//53 
f 54//54 16//16 14//14 
f 55//55 54//54 14//14 
f 54//54 55//55 50//50 
f 50//50 55//55 51//51 
f 56//56 55//55 17//17 
f 17//17 55//55 14//14 
f 56//56 51//51 55//55 
f 58//58 62//62 59//59 
f 61//61 57//57 171//171 
f 57//57 61//61 58//58 
f 110//110 60//60 67//67 
f 63//63 66//66 62//62 
f 171//171 64//64 61//61 
f 62//62 58//58 61//61 
f 61//61 172//172 63//63 
f 61//61 63//63 62//62 
f 171//171 111//111 64//64 
f 63//63 172//172 173//173 
f 33//33 62//62 66//66 
f 33//33 66//66 65//65 
f 35//35 32//32 73//73 
f 35//35 73//73 70//70 
f 110//110 67//67 121//121 
f 68//68 66//66 63//63 
f 109//109 63//63 173//173 
f 68//68 63//63 109//109 
f 111//111 171//171 110//110 
f 69//69 65//65 66//66 
f 69//69 32//32 65//65 
f 32//32 69//69 73//73 
f 68//68 69//69 66//66 
f 34//34 35//35 70//70 
f 71//71 34//34 70//70 
f 72//72 36//36 71//71 
f 71//71 36//36 34//34 
f 36//36 72//72 67//67 
f 115//115 71//71 70//70 
f 67//67 72//72 121//121 
f 69//69 112//112 73//73 
f 76//76 77//77 74//74 
f 74//74 77//77 75//75 
f 76//76 45//45 78//78 
f 78//78 45//45 46//46 
f 79//79 75//75 77//77 
f 77//77 76//76 78//78 
f 79//79 90//90 75//75 
f 78//78 46//46 83//83 
f 78//78 80//80 77//77 
f 82//82 81//81 79//79 
f 79//79 81//81 90//90 
f 79//79 77//77 82//82 
f 77//77 80//80 82//82 
f 83//83 80//80 78//78 
f 84//84 80//80 83//83 
f 84//84 82//82 80//80 
f 82//82 86//86 81//81 
f 84//84 86//86 82//82 
f 85//85 84//84 83//83 
f 85//85 83//83 53//53 
f 54//54 85//85 53//53 
f 84//84 85//85 116//116 
f 90//90 87//87 75//75 
f 91//91 87//87 90//90 
f 91//91 88//88 87//87 
f 88//88 91//91 92//92 
f 89//89 92//92 93//93 
f 89//89 88//88 92//92 
f 93//93 47//47 89//89 
f 89//89 47//47 42//42 
f 95//95 93//93 92//92 
f 90//90 94//94 91//91 
f 95//95 92//92 91//91 
f 96//96 93//93 95//95 
f 95//95 91//91 94//94 
f 101//101 93//93 96//96 
f 90//90 81//81 94//94 
f 94//94 97//97 95//95 
f 97//97 99//99 95//95 
f 95//95 99//99 96//96 
f 103//103 101//101 96//96 
f 86//86 98//98 81//81 
f 98//98 94//94 81//81 
f 98//98 97//97 94//94 
f 98//98 119//119 97//97 
f 119//119 99//99 97//97 
f 99//99 106//106 103//103 
f 96//96 99//99 103//103 
f 98//98 86//86 116//116 
f 116//116 119//119 98//98 
f 106//106 99//99 119//119 
f 12//12 10//10 100//100 
f 100//100 102//102 12//12 
f 102//102 52//52 12//12 
f 101//101 100//100 93//93 
f 100//100 101//101 102//102 
f 103//103 104//104 101//101 
f 104//104 102//102 101//101 
f 104//104 105//105 102//102 
f 102//102 105//105 52//52 
f 106//106 107//107 103//103 
f 107//107 104//104 103//103 
f 107//107 105//105 104//104 
f 52//52 105//105 108//108 
f 106//106 120//120 107//107 
f 108//108 105//105 107//107 
f 51//51 120//120 50//50 
f 73//73 115//115 70//70 
f 109//109 114//114 68//68 
f 110//110 121//121 128//128 
f 173//173 114//114 109//109 
f 69//69 68//68 113//113 
f 113//113 112//112 69//69 
f 68//68 114//114 113//113 
f 73//73 112//112 127//127 
f 112//112 113//113 127//127 
f 113//113 114//114 125//125 
f 113//113 125//125 126//126 
f 124//124 125//125 114//114 
f 121//121 72//72 122//122 
f 126//126 127//127 113//113 
f 84//84 116//116 86//86 
f 118//118 116//116 85//85 
f 54//54 118//118 85//85 
f 117//117 119//119 116//116 
f 174//174 116//116 118//118 
f 175//175 118//118 120//120 
f 119//119 120//120 106//106 
f 120//120 119//119 175//175 
f 50//50 118//118 54//54 
f 120//120 118//118 50//50 
f 120//120 108//108 107//107 
f 51//51 108//108 120//120 
f 173//173 124//124 114//114 
f 124//124 173//173 123//123 
f 124//124 149//149 125//125 
f 71//71 122//122 72//72 
f 71//71 115//115 122//122 
f 123//123 147//147 124//124 
f 110//110 176//176 111//111 
f 110//110 128//128 147//147 
f 110//110 147//147 176//176 
f 132//132 122//122 115//115 
f 73//73 127//127 135//135 
f 135//135 127//127 126//126 
f 129//129 126//126 125//125 
f 115//115 133//133 132//132 
f 128//128 121//121 130//130 
f 130//130 121//121 122//122 
f 131//131 128//128 130//130 
f 128//128 152//152 147//147 
f 73//73 135//135 134//134 
f 73//73 134//134 115//115 
f 138//138 135//135 126//126 
f 129//129 138//138 126//126 
f 124//124 148//148 149//149 
f 148//148 124//124 147//147 
f 149//149 129//129 125//125 
f 132//132 136//136 122//122 
f 122//122 136//136 130//130 
f 130//130 136//136 131//131 
f 131//131 136//136 142//142 
f 131//131 152//152 128//128 
f 115//115 134//134 133//133 
f 132//132 133//133 137//137 
f 139//139 135//135 138//138 
f 141//141 134//134 135//135 
f 139//139 141//141 135//135 
f 134//134 140//140 133//133 
f 141//141 140//140 134//134 
f 178//178 136//136 132//132 
f 132//132 137//137 178//178 
f 179//179 177//177 143//143 
f 137//137 133//133 143//143 
f 140//140 143//143 133//133 
f 129//129 144//144 138//138 
f 144//144 139//139 138//138 
f 141//141 144//144 146//146 
f 144//144 141//141 139//139 
f 145//145 140//140 141//141 
f 146//146 145//145 141//141 
f 145//145 143//143 140//140 
f 129//129 154//154 144//144 
f 144//144 154//154 146//146 
f 131//131 142//142 155//155 
f 153//153 131//131 155//155 
f 180//180 179//179 157//157 
f 179//179 143//143 157//157 
f 145//145 157//157 143//143 
f 145//145 158//158 157//157 
f 158//158 145//145 146//146 
f 154//154 158//158 146//146 
f 152//152 159//159 147//147 
f 148//148 150//150 149//149 
f 149//149 150//150 129//129 
f 150//150 160//160 154//154 
f 129//129 150//150 154//154 
f 148//148 147//147 151//151 
f 148//148 151//151 150//150 
f 147//147 159//159 151//151 
f 151//151 159//159 160//160 
f 150//150 151//151 160//160 
f 153//153 159//159 152//152 
f 131//131 153//153 152//152 
f 158//158 160//160 156//156 
f 160//160 158//158 154//154 
f 156//156 153//153 180//180 
f 157//157 156//156 180//180 
f 158//158 156//156 157//157 
f 153//153 156//156 159//159 
f 159//159 156//156 160//160 
