# Blender v2.77 (sub 0) OBJ File: 'BLANKOblend.blend'
# www.blender.org
mtllib inferior phrenic vein3.mtl
o grp1
v 94.861328 -62.557419 1035.870361
v 94.837036 -62.559311 1036.011597
v 94.777588 -62.340012 1036.006836
v 94.818604 -62.358810 1035.827148
v 95.045471 -62.567551 1035.765137
v 95.024109 -62.333176 1035.703857
v 95.223389 -62.439987 1035.737793
v 94.842773 -62.402512 1036.199219
v 94.972260 -62.129440 1035.847656
v 95.100754 -62.052414 1036.001953
v 95.241516 -62.212570 1035.829834
v 95.121460 -62.103195 1035.898193
v 95.109131 -62.062668 1036.015137
v 94.828201 -62.206966 1036.000000
v 96.653297 -63.698769 1039.189941
v 94.895142 -62.120285 1036.007568
v 97.843750 -64.390793 1040.937500
v 98.648438 -65.531418 1042.093750
v 97.875000 -64.812668 1040.437500
v 99.000000 -65.039230 1042.359375
v 98.625000 -65.406418 1042.656250
v 99.281250 -65.703293 1042.687500
v 98.281250 -64.750168 1040.750000
v 99.765625 -66.429855 1044.468750
v 99.680298 -65.648972 1043.979980
v 99.480003 -65.811165 1044.119995
v 98.772797 -64.982468 1041.670044
v 101.304688 -66.882980 1046.343750
v 100.234375 -66.750168 1045.062500
v 100.187500 -66.281418 1044.250000
v 100.648438 -66.968918 1046.531250
v 102.425781 -67.593918 1048.953125
v 100.937500 -67.078293 1046.000000
v 101.234375 -67.172043 1047.703125
v 100.751999 -66.543266 1046.310059
v 101.878998 -67.363266 1048.770020
v 102.727997 -68.585968 1050.949951
v 102.289062 -68.172043 1049.218750
v 101.843750 -67.507980 1047.562500
v 101.817001 -67.649071 1047.750000
v 101.546875 -66.965012 1047.460938
v 101.878998 -67.363266 1048.770020
v 103.187500 -68.484543 1050.718750
v 102.453125 -68.234543 1050.562500
v 102.232498 -67.782471 1049.875000
v 102.844002 -68.125969 1051.229980
v 103.454002 -68.405464 1052.390015
v 104.670998 -70.050072 1055.640015
v 104.204002 -69.674072 1055.000000
v 104.880997 -70.027374 1055.579956
v 103.679001 -68.751068 1051.919922
v 103.390625 -68.398605 1051.140625
v 103.671875 -69.031425 1053.750000
v 104.453125 -69.047050 1054.640625
v 104.448502 -69.516472 1055.699951
v 104.209747 -69.084846 1054.662476
v 104.609375 -69.211113 1054.296875
v 105.440002 -70.783478 1058.420044
v 105.440002 -70.783478 1058.420044
v 105.632812 -70.945488 1058.488281
v 106.096001 -71.142174 1058.939941
v 105.460938 -70.679863 1058.687500
v 105.265625 -70.000175 1057.625000
v 105.167999 -69.929672 1055.859985
v 106.402344 -71.777519 1060.578125
v 105.386719 -69.812675 1057.218750
v 106.096001 -71.142174 1058.939941
v 105.781250 -70.734550 1059.437500
v 106.019531 -70.377129 1058.269531
v 106.251999 -71.663475 1060.569946
v 106.259003 -71.151474 1060.645020
v 107.210938 -71.718925 1061.500000
v 106.308998 -71.122375 1059.160034
v 106.226562 -70.765800 1059.937500
v 106.501953 -70.894707 1060.156250
v 107.070312 -72.640800 1063.250000
v 107.188004 -72.876175 1063.219971
v 106.700996 -71.744576 1060.530029
v 107.605469 -72.422050 1062.562500
v 107.481003 -72.548676 1062.469971
v 106.976562 -72.062675 1062.718750
v 107.515625 -72.468925 1063.687500
v 106.898438 -71.593925 1061.937500
v 107.332031 -71.945488 1062.640625
v 107.330002 -72.780174 1062.709961
v 108.189003 -74.451279 1065.890015
v 108.152000 -73.644974 1064.400024
v 108.189003 -74.451279 1065.890015
v 107.781250 -73.500175 1065.125000
v 108.113998 -74.065979 1065.010010
v 108.113998 -74.065979 1065.010010
v 108.085938 -73.250175 1065.093750
v 108.175781 -73.164238 1064.875000
v 108.389999 -74.713577 1066.709961
v 108.429688 -74.078300 1066.343750
v 108.023438 -72.765800 1063.859375
v 108.152000 -73.644974 1064.400024
v 109.156250 -76.031425 1067.906250
v 108.970001 -75.875374 1068.030029
v 108.526001 -74.810478 1066.170044
v 108.685997 -74.754578 1066.069946
v 109.386002 -75.883179 1067.680054
v 108.593750 -74.000175 1065.218750
v 108.968750 -75.500175 1068.125000
v 109.093750 -75.062675 1067.812500
v 109.113281 -74.593925 1067.000000
v 110.335938 -78.578300 1071.203125
v 110.093750 -77.375175 1070.625000
v 109.611000 -76.258873 1069.329956
v 109.622002 -75.827873 1067.859985
v 109.584999 -75.521774 1067.709961
v 109.757812 -75.843925 1068.750000
v 110.218750 -76.625175 1069.500000
v 110.198997 -77.799477 1070.040039
v 110.750000 -79.437675 1072.562500
v 110.720001 -78.978874 1072.359985
v 110.342003 -77.517273 1069.810059
v 110.602997 -77.633728 1070.959961
v 110.281250 -77.312675 1070.656250
v 111.205002 -78.704376 1071.660034
v 111.778999 -81.656776 1074.560059
v 111.757812 -81.492363 1074.812500
v 111.038002 -79.743378 1072.270020
v 111.867996 -81.649872 1074.329956
v 111.233002 -79.729675 1072.239990
v 112.038002 -81.369675 1075.060059
v 111.347504 -79.114082 1072.599976
v 111.539001 -79.665573 1072.439941
v 110.984001 -79.075073 1072.640015
v 111.212997 -79.178520 1072.775024
v 112.505859 -81.324394 1074.636719
v 112.398438 -82.437675 1075.078125
v 112.359375 -83.062675 1076.093750
v 112.213867 -82.652519 1076.062500
v 112.402344 -82.632988 1076.429688
v 112.453125 -81.672050 1074.437500
v 112.796875 -82.234550 1076.015625
v 113.962891 -88.711113 1084.312500
v 113.519531 -86.984550 1082.218750
v 112.642578 -82.578300 1076.546875
v 112.507812 -82.797050 1075.515625
v 112.852997 -83.324776 1076.250000
v 112.869141 -82.773613 1075.695312
v 112.946289 -82.531425 1075.652344
v 112.960449 -82.426933 1075.818359
v 113.723999 -87.391647 1082.037598
v 113.968750 -87.343925 1081.812500
v 113.805000 -87.346573 1083.140015
v 113.565002 -86.080177 1081.400024
v 113.923996 -86.632027 1080.895020
v 114.156250 -87.000175 1081.562500
v 114.328125 -87.062675 1081.953125
v 113.846748 -85.296074 1079.867432
v 113.676003 -85.502075 1080.619995
v 114.675003 -91.294373 1088.150024
v 114.250000 -89.609550 1086.406250
v 114.171875 -87.781425 1083.937500
v 114.242996 -88.777779 1085.420044
v 114.640625 -88.312675 1084.687500
v 115.000000 -89.367363 1085.859375
v 114.188995 -86.639374 1082.070068
v 115.324768 -94.232567 1093.058472
v 115.181366 -93.993034 1093.247314
v 115.224243 -93.830231 1093.320068
v 115.537140 -94.275200 1092.868652
v 114.750000 -90.562675 1086.750000
v 114.902000 -90.139076 1086.239990
v 114.693748 -88.916328 1084.469971
v 115.121094 -90.015800 1086.484375
v 115.026001 -91.195076 1089.459961
v 115.226997 -90.503677 1088.000000
v 115.858643 -94.154228 1092.836914
v 115.954224 -94.118370 1093.013428
v 115.429321 -93.632011 1093.413818
v 115.455322 -94.119804 1093.398926
v 115.483887 -93.806450 1093.504883
v 115.670776 -93.580254 1093.413818
v 115.684494 -94.303719 1093.100952
v 115.740387 -94.214531 1093.286133
v 115.735596 -93.976738 1093.477051
v 115.960205 -93.988731 1093.273926
v 115.950928 -93.714134 1093.287598
v 116.036880 -93.877068 1093.121094
vn -0.6441 -0.5992 -0.4755
vn -0.8254 -0.5621 0.0528
vn -0.9630 0.2448 0.1131
vn -0.8196 0.1297 -0.5580
vn -0.0582 -0.6545 -0.7538
vn -0.1974 0.2073 -0.9582
vn 0.5500 -0.1466 -0.8222
vn -0.8398 0.0605 0.5395
vn -0.3907 0.7944 -0.4652
vn -0.3640 0.9174 -0.1606
vn 0.5791 0.5948 -0.5576
vn 0.3787 0.8053 -0.4561
vn -0.7453 0.4366 0.5039
vn -0.4965 0.6509 0.5744
vn -0.7453 0.3181 0.5860
vn -0.2952 0.7632 0.5748
vn 0.3105 0.9215 0.2332
vn -0.1873 -0.9454 -0.2669
vn 0.2621 -0.8140 -0.5183
vn 0.5616 0.8261 0.0472
vn -0.8661 -0.0061 0.4998
vn 0.5070 -0.6699 -0.5424
vn 0.7281 -0.3459 -0.5917
vn -0.6873 -0.7226 0.0739
vn -0.1208 0.8991 0.4208
vn 0.8773 0.3211 -0.3567
vn 0.9180 0.1545 -0.3654
vn 0.7223 -0.4301 -0.5416
vn -0.1323 -0.9516 -0.2774
vn -0.6374 0.5448 0.5449
vn -0.9163 -0.1036 0.3869
vn 0.7995 0.5623 -0.2112
vn 0.3609 -0.8244 -0.4361
vn -0.7463 0.4365 0.5025
vn -0.2604 0.8562 0.4463
vn -0.5627 0.6818 0.4674
vn -0.7555 -0.6451 0.1143
vn 0.0217 -0.9565 -0.2908
vn 0.7929 -0.3762 -0.4793
vn 0.4063 -0.8002 -0.4411
vn 0.2630 0.9400 0.2173
vn -0.0182 0.9601 0.2790
vn 0.8056 -0.3948 -0.4418
vn -0.9280 -0.1216 0.3522
vn -0.7370 0.4858 0.4699
vn -0.5287 0.7354 0.4239
vn -0.2150 0.9117 0.3502
vn -0.3509 -0.9229 -0.1583
vn -0.8289 -0.5428 0.1352
vn 0.3783 -0.8354 -0.3988
vn 0.9053 -0.1809 -0.3844
vn 0.9204 0.1091 -0.3754
vn -0.8942 0.1960 0.4026
vn 0.3234 0.9298 0.1760
vn -0.3393 0.8555 0.3911
vn -0.7202 0.5254 0.4530
vn 0.9060 0.3574 -0.2269
vn -0.9050 -0.3781 0.1948
vn -0.6057 -0.7939 -0.0535
vn -0.3701 -0.9122 -0.1756
vn -0.0956 -0.9477 -0.3045
vn -0.9395 -0.0822 0.3325
vn 0.8307 -0.3646 -0.4207
vn -0.4216 0.8012 0.4247
vn -0.3787 -0.9006 -0.2132
vn 0.5662 -0.6892 -0.4521
vn -0.7117 0.5375 0.4524
vn 0.2688 0.9427 0.1976
vn 0.8599 0.4913 -0.1387
vn -0.7455 -0.6665 -0.0021
vn 0.9144 0.3726 -0.1583
vn 0.7086 -0.5375 -0.4572
vn -0.6170 0.6149 0.4911
vn -0.1038 0.9131 0.3943
vn 0.4964 0.8547 0.1517
vn -0.9475 -0.0892 0.3072
vn 0.3445 -0.8151 -0.4657
vn 0.9331 -0.1503 -0.3267
vn 0.6154 -0.5896 -0.5231
vn -0.6534 0.5614 0.5078
vn -0.7224 -0.6840 -0.1018
vn -0.1168 0.8929 0.4349
vn 0.4100 0.8667 0.2841
vn -0.1754 0.8255 0.5364
vn -0.0398 -0.8942 -0.4459
vn -0.5502 -0.7819 -0.2931
vn 0.2125 -0.8047 -0.5543
vn -0.9108 -0.4021 0.0942
vn -0.4917 -0.8122 -0.3140
vn 0.0887 -0.8320 -0.5476
vn 0.4684 0.8145 0.3422
vn -0.1670 0.8139 0.5564
vn -0.9523 -0.1480 0.2670
vn -0.7751 0.3604 0.5189
vn -0.3560 0.7133 0.6037
vn 0.8413 0.5405 0.0067
vn 0.6602 -0.5180 -0.5440
vn -0.4191 -0.7986 -0.4319
vn -0.8713 -0.4903 -0.0192
vn -0.2976 -0.8368 -0.4596
vn 0.2191 -0.7676 -0.6023
vn 0.2822 -0.6976 -0.6586
vn 0.8242 -0.2469 -0.5096
vn -0.7490 0.3529 0.5607
vn -0.1269 0.7716 0.6233
vn 0.6530 0.7150 0.2498
vn -0.7507 -0.6240 -0.2171
vn -0.5235 0.5350 0.6631
vn -0.3264 0.6687 0.6680
vn 0.7703 -0.3186 -0.5524
vn 0.9500 0.2108 -0.2302
vn 0.4987 0.7620 0.4130
vn 0.8630 0.4981 0.0846
vn -0.0748 -0.7817 -0.6191
vn -0.9490 -0.1374 0.2839
vn -0.7033 0.3561 0.6152
vn 0.5831 -0.4867 -0.6505
vn 0.5085 0.7433 0.4347
vn -0.0081 0.7683 0.6400
vn 0.9215 0.0135 -0.3882
vn -0.8815 -0.4643 -0.0860
vn -0.9251 0.0096 0.3796
vn -0.2826 -0.7637 -0.5804
vn -0.5777 -0.7042 -0.4127
vn 0.2749 -0.6429 -0.7150
vn -0.4079 0.5943 0.6931
vn 0.5950 0.7097 0.3772
vn 0.7383 -0.2950 -0.6065
vn -0.2944 0.6446 0.7056
vn 0.1367 0.7647 0.6297
vn 0.9412 0.3349 -0.0457
vn 0.0767 -0.7794 -0.6219
vn -0.7256 -0.6334 -0.2690
vn -0.9587 -0.1115 0.2617
vn -0.6649 0.4672 0.5827
vn 0.7122 -0.3397 -0.6143
vn 0.5297 0.7352 0.4229
vn -0.9144 0.1980 0.3532
vn -0.8882 -0.4512 -0.0864
vn -0.0559 -0.7679 -0.6382
vn 0.3296 -0.7259 -0.6037
vn 0.6151 -0.5260 -0.5874
vn 0.9445 -0.0397 -0.3260
vn -0.0785 0.7605 0.6446
vn 0.9505 0.3101 -0.0202
vn -0.5272 -0.7426 -0.4130
vn 0.1056 -0.8080 -0.5796
vn -0.6189 0.5940 0.5140
vn -0.4662 0.6964 0.5457
vn 0.4745 -0.6539 -0.5893
vn 0.6987 -0.5417 -0.4673
vn 0.9659 -0.1179 -0.2306
vn 0.9590 0.2806 0.0400
vn 0.1454 0.8235 0.5483
vn -0.6045 -0.7159 -0.3493
vn -0.0230 -0.8513 -0.5242
vn -0.8901 0.3172 0.3274
vn -0.5270 0.7071 0.4715
vn -0.0752 0.8258 0.5589
vn 0.7406 0.6168 0.2668
vn 0.9576 0.2869 0.0269
vn 0.6871 0.6616 0.3003
vn -0.5890 -0.8045 0.0769
vn -0.8586 -0.3228 0.3983
vn -0.7807 0.1193 0.6134
vn -0.0850 -0.9291 -0.3599
vn 0.5515 -0.6653 -0.5033
vn 0.6869 -0.5414 -0.4848
vn 0.9478 -0.1909 -0.2554
vn -0.2507 0.8015 0.5429
vn 0.2309 0.5989 0.7668
vn 0.8372 0.5102 0.1969
vn 0.5885 -0.7159 -0.3757
vn -0.2849 -0.5966 0.7503
vn -0.2121 0.0702 0.9747
vn -0.4423 0.5587 0.7016
vn 0.1955 -0.9752 0.1032
vn 0.3133 -0.7987 0.5138
vn 0.3508 -0.2584 0.9001
vn 0.8264 -0.5607 -0.0519
vn 0.7977 -0.3129 0.5154
vn 0.7603 0.3986 0.5129
vn 0.9962 -0.0386 0.0778
usemtl mtl1
s 1
f 1//1 2//2 3//3
f 4//4 1//1 3//3
f 4//4 5//5 1//1
f 6//6 5//5 4//4
f 7//7 5//5 6//6
f 2//2 8//8 3//3
f 9//9 4//4 3//3
f 9//9 3//3 10//10
f 4//4 9//9 6//6
f 11//11 7//7 6//6
f 11//11 6//6 9//9
f 11//11 9//9 12//12
f 12//12 9//9 10//10
f 14//13 3//3 8//8
f 14//13 8//8 16//14
f 15//15 16//14 8//8
f 16//14 17//16 13//17
f 5//5 18//18 1//1
f 2//2 1//1 18//18
f 7//7 19//19 5//5
f 18//18 5//5 19//19
f 17//16 20//20 13//17
f 12//12 13//17 20//20
f 8//8 2//2 15//15
f 12//12 20//20 11//11
f 21//21 15//15 2//2
f 17//16 15//15 21//21
f 16//14 15//15 17//16
f 19//19 7//7 22//22
f 7//7 23//23 22//22
f 11//11 23//23 7//7
f 2//2 24//24 21//21
f 17//16 25//25 20//20
f 24//24 2//2 18//18
f 23//23 11//11 27//26
f 27//26 11//11 20//20
f 19//19 22//22 18//18
f 20//20 28//27 27//26
f 22//22 23//23 30//28
f 23//23 27//26 30//28
f 30//28 27//26 28//27
f 24//24 18//18 29//29
f 22//22 30//28 29//29
f 21//21 26//30 17//16
f 22//22 29//29 18//18
f 24//24 31//31 21//21
f 31//31 26//30 21//21
f 17//16 26//30 25//25
f 32//32 28//27 20//20
f 30//28 33//33 29//29
f 26//30 31//31 34//34
f 34//34 35//35 26//30
f 26//30 35//35 25//25
f 34//34 36//36 35//35
f 24//24 29//29 37//37
f 38//38 29//29 33//33
f 33//33 39//39 40//40
f 30//28 39//39 33//33
f 28//27 39//39 30//28
f 20//20 25//25 41//41
f 41//41 25//25 35//35
f 41//41 32//32 20//20
f 24//24 37//37 31//31
f 41//41 35//35 42//42
f 40//40 43//43 38//38
f 37//37 29//29 38//38
f 33//33 40//40 38//38
f 37//37 44//44 31//31
f 44//44 34//34 31//31
f 44//44 45//45 34//34
f 34//34 45//45 36//36
f 36//36 45//45 46//46
f 36//36 46//46 47//47
f 37//37 48//48 49//49
f 37//37 49//49 44//44
f 43//43 50//50 38//38
f 43//43 39//39 51//51
f 51//51 39//39 52//52
f 53//53 45//45 44//44
f 53//53 46//46 45//45
f 48//48 37//37 38//38
f 43//43 40//40 39//39
f 39//39 28//27 52//52
f 28//27 32//32 52//52
f 42//42 47//47 41//41
f 49//49 53//53 44//44
f 38//38 50//50 48//48
f 54//54 41//41 47//47
f 41//41 54//54 32//32
f 56//55 46//46 55//56
f 55//56 46//46 53//53
f 46//46 56//55 47//47
f 47//47 56//55 54//54
f 32//32 57//57 52//52
f 57//57 32//32 54//54
f 49//49 58//58 53//53
f 49//49 48//48 59//59
f 59//59 48//48 60//60
f 50//50 61//61 48//48
f 60//60 48//48 61//61
f 58//58 62//62 53//53
f 50//50 43//43 64//63
f 43//43 51//51 64//63
f 64//63 51//51 52//52
f 56//55 55//56 63//64
f 53//53 62//62 55//56
f 61//61 65//65 60//60
f 64//63 52//52 57//57
f 50//50 64//63 67//66
f 55//56 62//62 68//67
f 63//64 55//56 68//67
f 54//54 66//68 57//57
f 66//68 69//69 57//57
f 54//54 56//55 66//68
f 56//55 63//64 66//68
f 60//60 65//65 59//59
f 59//59 65//65 70//70
f 62//62 58//58 70//70
f 64//63 57//57 72//71
f 57//57 69//69 72//71
f 72//71 73//72 64//63
f 73//72 67//66 64//63
f 68//67 71//73 74//74
f 66//68 63//64 74//74
f 63//64 68//67 74//74
f 75//75 66//68 74//74
f 75//75 69//69 66//68
f 70//70 65//65 76//76
f 78//77 79//78 80//79
f 68//67 76//76 81//80
f 65//65 77//81 76//76
f 67//66 73//72 78//77
f 61//61 78//77 65//65
f 72//71 79//78 73//72
f 79//78 78//77 73//72
f 62//62 70//70 76//76
f 76//76 68//67 62//62
f 81//80 71//73 68//67
f 71//73 81//80 83//82
f 83//82 74//74 71//73
f 74//74 83//82 75//75
f 84//83 75//75 83//82
f 84//83 72//71 75//75
f 82//84 83//82 81//80
f 72//71 69//69 75//75
f 77//81 85//85 86//86
f 80//79 87//87 85//85
f 88//88 76//76 77//81
f 85//85 90//89 86//86
f 85//85 87//87 91//90
f 93//91 82//84 92//92
f 76//76 94//93 89//94
f 82//84 95//95 92//92
f 82//84 89//94 95//95
f 79//78 72//71 96//96
f 65//65 78//77 85//85
f 77//81 65//65 85//85
f 78//77 80//79 85//85
f 80//79 79//78 97//97
f 89//94 81//80 76//76
f 89//94 82//84 81//80
f 93//91 84//83 82//84
f 96//96 84//83 93//91
f 96//96 72//71 84//83
f 82//84 84//83 83//82
f 86//86 98//98 99//99
f 88//88 99//99 94//93
f 86//86 90//89 100//100
f 98//98 86//86 100//100
f 100//100 101//101 98//98
f 91//90 101//101 100//100
f 98//98 101//101 102//102
f 103//103 102//102 101//101
f 94//93 104//104 89//94
f 104//104 95//95 89//94
f 95//95 105//105 92//92
f 95//95 104//104 105//105
f 87//87 101//101 91//90
f 103//103 101//101 97//97
f 96//96 93//91 106//106
f 88//88 94//93 76//76
f 92//92 106//106 93//91
f 103//103 97//97 79//78
f 79//78 96//96 103//103
f 99//99 107//107 94//93
f 107//107 99//99 98//98
f 104//104 108//108 109//109
f 104//104 109//109 105//105
f 102//102 103//103 110//110
f 110//110 103//103 111//111
f 105//105 112//112 106//106
f 106//106 92//92 105//105
f 111//111 103//103 96//96
f 111//111 96//96 113//113
f 96//96 106//106 113//113
f 98//98 114//114 107//107
f 115//115 116//116 104//104
f 114//114 102//102 117//117
f 107//107 115//115 94//93
f 115//115 104//104 94//93
f 108//108 104//104 116//116
f 118//118 112//112 119//119
f 98//98 102//102 114//114
f 110//110 111//111 120//120
f 110//110 117//117 102//102
f 111//111 113//113 120//120
f 109//109 119//119 105//105
f 117//117 110//110 120//120
f 113//113 106//106 112//112
f 109//109 108//108 119//119
f 112//112 105//105 119//119
f 115//115 121//121 122//122
f 123//123 124//124 107//107
f 107//107 124//124 121//121
f 123//123 114//114 125//125
f 125//125 114//114 117//117
f 126//126 116//116 122//122
f 122//122 116//116 115//115
f 121//121 115//115 107//107
f 123//123 107//107 114//114
f 127//127 118//118 119//119
f 117//117 120//120 128//128
f 108//108 116//116 129//129
f 126//126 129//129 116//116
f 129//129 126//126 130//130
f 129//129 130//130 119//119
f 130//130 127//127 119//119
f 129//129 119//119 108//108
f 113//113 118//118 127//127
f 120//120 113//113 131//131
f 131//131 113//113 127//127
f 113//113 112//112 118//118
f 132//132 124//124 123//123
f 121//121 124//124 133//133
f 133//133 122//122 121//121
f 133//133 134//134 122//122
f 135//135 122//122 134//134
f 123//123 125//125 132//132
f 132//132 125//125 136//136
f 125//125 128//128 136//136
f 136//136 128//128 120//120
f 117//117 128//128 125//125
f 137//137 130//130 126//126
f 127//127 130//130 137//137
f 131//131 127//127 137//137
f 134//134 139//138 135//135
f 138//139 134//134 133//133
f 133//133 132//132 141//140
f 142//141 141//140 143//142
f 133//133 124//124 132//132
f 132//132 136//136 141//140
f 141//140 136//136 143//142
f 136//136 144//143 143//142
f 122//122 135//135 126//126
f 126//126 135//135 140//144
f 126//126 140//144 137//137
f 136//136 131//131 145//145
f 136//136 120//120 131//131
f 133//133 146//146 138//139
f 133//133 141//140 146//146
f 147//147 146//146 141//140
f 139//138 148//148 149//149
f 138//139 139//138 134//134
f 135//135 139//138 140//144
f 140//144 139//138 149//149
f 147//147 141//140 142//141
f 142//141 150//150 147//147
f 143//142 151//151 150//150
f 143//142 150//150 142//141
f 152//152 151//151 144//143
f 144//143 145//145 153//153
f 149//149 154//154 140//144
f 151//151 143//142 144//143
f 154//154 137//137 140//144
f 137//137 153//153 145//145
f 144//143 136//136 145//145
f 137//137 145//145 131//131
f 138//139 146//146 155//155
f 146//146 147//147 166//156
f 155//155 146//146 166//156
f 148//148 139//138 156//157
f 156//157 158//158 148//148
f 138//139 156//157 139//138
f 158//158 157//159 148//148
f 150//150 151//151 147//147
f 153//153 161//160 160//161
f 152//152 153//153 160//161
f 149//149 148//148 157//159
f 154//154 149//149 157//159
f 154//154 157//159 159//162
f 154//154 159//162 161//160
f 152//152 144//143 153//153
f 161//160 153//153 137//137
f 154//154 161//160 137//137
f 155//155 162//163 138//139
f 138//139 162//163 163//164
f 163//164 164//165 156//157
f 165//166 162//163 155//155
f 167//167 168//168 169//169
f 138//139 163//164 156//157
f 156//157 170//170 158//158
f 170//170 157//159 158//158
f 159//162 157//159 170//170
f 170//170 177//171 159//162
f 147//147 167//167 166//156
f 155//155 166//156 165//166
f 168//168 167//167 147//147
f 151//151 168//168 147//147
f 151//151 152//152 168//168
f 168//168 152//152 169//169
f 169//169 152//152 160//161
f 161//160 159//162 171//172
f 171//172 160//161 161//160
f 172//173 165//166 166//156
f 162//163 175//174 163//164
f 175//174 176//175 164//165
f 163//164 175//174 164//165
f 174//176 164//165 176//175
f 175//174 162//163 178//177
f 165//166 178//177 162//163
f 178//177 179//178 175//174
f 180//179 176//175 175//174
f 176//175 177//171 174//176
f 172//173 178//177 165//166
f 175//174 179//178 180//179
f 180//179 177//171 176//175
f 173//180 178//177 172//173
f 179//178 178//177 173//180
f 173//180 181//181 179//178
f 181//181 180//179 179//178
f 181//181 182//182 180//179
f 180//179 182//182 177//171
f 183//183 181//181 173//180
f 182//182 181//181 183//183
f 156//157 174//176 170//170
f 156//157 164//165 174//176
f 174//176 177//171 170//170
f 169//169 172//173 167//167
f 172//173 169//169 173//180
f 167//167 172//173 166//156
f 182//182 159//162 177//171
f 171//172 159//162 182//182
f 169//169 183//183 173//180
f 183//183 169//169 160//161
f 160//161 171//172 182//182
f 183//183 160//161 182//182
