#
# The license for this database is specified in the Creative Commons Attribution-Share Alike 2.1 Japan. If you use data from this database, please be sure attribute this database as follows: "BodyParts3D, (c)  The Database Center for Life Science licensed under CC Attribution-Share Alike 2.1 Japan".
# http://dbarchive.biosciencedbc.jp/en/bodyparts3d/lic.html
#
#
# Compatibility version : 4.0
# File ID : FJ2950
# Representation ID : BP9712
# Build-up logic : FMA 3.0 part_of
# Concept ID : FMA49913
# English name : Left inferior pulmonary vein
# Bounds(mm): (37.638400,-83.490300,1210.400000)-(65.363600,-71.841000,1229.820000)
# Volume(cm3): 0.705500
#
v 49.6695 -80.5255 1221.12
v 50.5734 -80.8866 1222.06
v 53.2898 -81.9963 1219.49
v 52.6888 -81.428 1218.59
v 38.2589 -75.005 1227.75
v 38.3304 -74.5703 1228.3
v 38.2693 -75.2473 1226.75
v 38.0141 -74.6403 1225.79
v 37.8054 -74.4803 1227.23
v 37.741 -74.2943 1226.26
v 37.6384 -74.0499 1226.92
v 37.7499 -73.9256 1227.48
v 38.4951 -75.0409 1225.43
v 37.9512 -74.259 1225.56
v 38.2702 -74.3794 1225.12
v 38.1405 -73.7591 1225.14
v 38.7443 -73.9558 1224.51
v 39.7154 -74.2987 1223.94
v 39.1812 -75.6219 1228.22
v 39.3903 -74.8753 1229.13
v 38.7995 -75.715 1227.17
v 39.2263 -75.8113 1225.9
v 39.6514 -76.1642 1227.19
v 39.3665 -75.0123 1224.51
v 40.9321 -76.2301 1228.43
v 40.3341 -75.5983 1229.12
v 43.4377 -77.5153 1224.68
v 43.6236 -77.5691 1225.96
v 43.6925 -76.7619 1222.83
v 44.0291 -76.1059 1222.15
v 44.6008 -77.5769 1226.7
v 48.3356 -79.648 1221.12
v 50.0491 -79.4056 1219.06
v 50.2614 -80.0839 1223.96
v 53.6943 -81.2869 1222.03
v 54.8213 -80.8378 1216.11
v 54.7076 -80.9431 1222.13
v 55.1342 -82.3227 1219.88
v 57.6847 -82.2257 1219.48
v 56.618 -82.8536 1217.23
v 57.9239 -82.8346 1215.25
v 58.6345 -82.2791 1213.67
v 58.8351 -83.2301 1216.47
v 58.7303 -82.9655 1217.66
v 60.0062 -83.3292 1214.34
v 60.8086 -83.4593 1214.6
v 61.3346 -83.0811 1212.03
v 61.2209 -83.3313 1215.26
v 62.2796 -83.4381 1212.39
v 62.6415 -83.4903 1213.02
v 63.1414 -83.4103 1212.49
v 62.5907 -82.8732 1211.18
v 38.2108 -73.6959 1228.29
v 38.3222 -72.9212 1227.9
v 38.9395 -73.0964 1228.7
v 39.302 -72.5654 1228.37
v 37.6538 -73.548 1226.96
v 37.7451 -73.5027 1226.03
v 37.8365 -73.0455 1226.5
v 37.9003 -73.2312 1227.52
v 38.216 -72.6422 1226.19
v 38.1664 -72.77 1227.31
v 38.6891 -72.5196 1227.71
v 38.863 -72.2244 1226.79
v 38.0838 -73.0278 1225.62
v 38.7623 -73.0019 1224.79
v 39.7825 -73.3317 1224.01
v 38.6916 -72.5011 1225.54
v 39.5999 -72.7178 1224.5
v 39.0866 -73.7579 1229.1
v 40.1935 -74.0533 1229.64
v 39.641 -73.17 1229.15
v 41.4659 -75.6391 1229.31
v 41.0249 -74.9807 1229.69
v 41.3034 -74.5158 1229.82
v 42.7052 -75.2062 1229.4
v 44.408 -75.1815 1221.87
v 44.722 -76.9597 1227.63
v 47.1214 -76.1467 1227.38
v 48.2729 -77.2243 1219.79
v 48.4302 -76.4105 1219.94
v 50.0394 -78.9589 1225.15
v 52.7902 -78.8101 1217.3
v 56.1984 -79.5003 1215.2
v 54.9197 -79.8161 1222.6
v 57.529 -81.431 1220.36
v 59.0768 -81.4014 1212.69
v 60.565 -81.0459 1211.12
v 59.2169 -80.3787 1212.56
v 60.8091 -82.7635 1216.89
v 60.4346 -81.9502 1218.09
v 60.6096 -81.8895 1211.34
v 61.8146 -82.3511 1210.84
v 61.4672 -81.1175 1210.56
v 62.55 -81.6215 1210.4
v 62.9647 -82.9623 1214.74
v 63.3674 -82.1855 1215.38
v 63.2264 -83.1044 1211.62
v 63.2754 -83.3538 1213.13
v 63.8146 -82.5545 1211.25
v 63.3266 -81.6581 1210.52
v 64.2032 -82.8847 1212.31
v 64.2031 -82.7887 1213.56
v 64.7055 -82.253 1211.92
v 39.8682 -71.9761 1225.81
v 40.7789 -72.5794 1228.89
v 39.9102 -72.0844 1227.79
v 40.2497 -71.841 1226.89
v 41.3867 -71.9599 1227.65
v 40.9348 -72.292 1224.68
v 41.6255 -71.8687 1226.32
v 41.2668 -73.4923 1229.63
v 42.8161 -74.1658 1229.5
v 43.0833 -73.0803 1228.79
v 43.0273 -72.2254 1227.11
v 43.2245 -73.4991 1222.95
v 44.3899 -72.7165 1224.21
v 46.2714 -73.6 1222.78
v 47.5848 -74.1347 1226.21
v 47.6234 -75.0054 1226.93
v 50.2143 -76.0568 1219.79
v 52.0816 -75.7125 1220.88
v 53.8895 -76.4054 1221.34
v 54.3718 -77.5515 1217.45
v 55.0016 -77.2735 1221.73
v 56.3595 -77.1499 1218.19
v 56.7137 -79.1047 1221.41
v 57.0202 -77.472 1219.64
v 57.4956 -78.1891 1215.51
v 58.7293 -77.7528 1216.03
v 61.0332 -78.8453 1212
v 61.2053 -79.8021 1211
v 59.6671 -80.5226 1219.29
v 61.6082 -79.286 1217.29
v 62.173 -78.6543 1211.5
v 62.7155 -80.1622 1210.43
v 62.0763 -79.1072 1211.06
v 63.0276 -79.4718 1210.72
v 61.9952 -80.9645 1217.31
v 64.456 -80.2494 1214.8
v 65.111 -79.9064 1212.11
v 64.4809 -81.301 1211.03
v 63.6343 -80.0738 1210.62
v 64.9125 -80.6811 1211.43
v 64.019 -79.4827 1211.09
v 64.7409 -82.0454 1213.91
v 64.6783 -81.3135 1214.47
v 65.0136 -82.083 1212.96
v 65.1759 -81.4549 1212.07
v 65.2962 -81.3891 1213.1
v 65.3636 -80.5493 1212.41
v 65.3053 -80.4105 1213.42
v 47.8168 -73.6993 1224.27
v 59.4728 -77.7947 1216.98
v 61.2306 -78.3835 1216.61
v 62.0811 -78.2853 1212.34
v 62.81 -78.3858 1211.89
v 62.9966 -78.1799 1213.17
v 63.7288 -78.4095 1212.34
v 62.8522 -78.7285 1211.36
v 64.6169 -79.5294 1214.23
v 64.067 -78.8282 1214.08
v 65.2173 -79.7899 1213.1
v 64.6287 -78.9339 1213
v 63.9457 -78.8335 1211.68
vn -0.465539 -0.871057 -0.15663
vn -0.27224 -0.93837 0.212949
vn -0.336284 -0.940632 -0.0460907
vn -0.512478 -0.740747 -0.43435
vn -0.748487 -0.587867 0.306885
vn -0.758196 -0.305801 0.575869
vn -0.756204 -0.651095 -0.0650522
vn -0.815044 -0.485769 -0.315803
vn -0.902591 -0.386403 0.189794
vn -0.938312 -0.311822 -0.149458
vn -0.992929 -0.112952 0.0365296
vn -0.932777 -0.0377559 0.358472
vn -0.65365 -0.637344 -0.408086
vn -0.893058 -0.193737 -0.406095
vn -0.732945 -0.342641 -0.587698
vn -0.812145 0.0864549 -0.577015
vn -0.618495 -0.0426156 -0.784632
vn -0.477849 -0.127488 -0.869142
vn -0.513138 -0.733773 0.44527
vn -0.487891 -0.361533 0.794516
vn -0.586179 -0.804639 0.0946023
vn -0.507788 -0.815791 -0.276833
vn -0.383364 -0.918367 0.0981509
vn -0.542587 -0.517726 -0.661482
vn -0.200135 -0.877315 0.436194
vn -0.291567 -0.663991 0.688553
vn -0.455815 -0.876801 -0.153146
vn -0.300118 -0.938254 0.172071
vn -0.536246 -0.644888 -0.544573
vn -0.506016 -0.271256 -0.81876
vn -0.170598 -0.893051 0.41636
vn -0.562713 -0.714182 -0.41629
vn -0.572992 -0.432203 -0.696334
vn -0.0511188 -0.836519 0.545548
vn 0.0667196 -0.831716 0.551178
vn -0.592053 -0.204571 -0.779502
vn 0.298237 -0.607247 0.736414
vn -0.0683718 -0.958356 0.277271
vn 0.252931 -0.783117 0.568114
vn -0.278768 -0.954732 -0.103807
vn -0.419546 -0.835642 -0.354518
vn -0.574634 -0.574616 -0.582763
vn -0.0652563 -0.9921 0.107143
vn 0.125095 -0.928848 0.348702
vn -0.231258 -0.959817 -0.15897
vn -0.0401965 -0.998919 0.0233398
vn -0.37267 -0.80185 -0.467068
vn 0.171033 -0.953261 0.249079
vn -0.0770266 -0.965768 -0.247706
vn 0.0931866 -0.994837 0.0401867
vn 0.234986 -0.962246 -0.137351
vn 0.0101035 -0.721769 -0.69206
vn -0.771013 0.178497 0.611291
vn -0.643763 0.587598 0.490201
vn -0.539998 0.493991 0.681451
vn -0.35326 0.75536 0.551941
vn -0.97584 0.197544 0.093338
vn -0.960282 0.125078 -0.249427
vn -0.861409 0.506853 -0.0327831
vn -0.858732 0.393581 0.328136
vn -0.650039 0.751437 -0.113102
vn -0.677517 0.710387 0.190584
vn -0.468595 0.819242 0.330548
vn -0.408406 0.911735 0.0440973
vn -0.775689 0.494458 -0.392197
vn -0.587236 0.455398 -0.669154
vn -0.392598 0.321109 -0.861833
vn -0.477938 0.805583 -0.350158
vn -0.293184 0.723282 -0.625225
vn -0.559401 0.102712 0.822509
vn -0.283686 0.0573902 0.957198
vn -0.295319 0.513068 0.805946
vn -0.0160374 -0.66165 0.749641
vn -0.138355 -0.371522 0.918057
vn 0.0433794 -0.0515759 0.997727
vn 0.208628 -0.385873 0.898652
vn -0.380348 0.154772 -0.911801
vn 0.0255024 -0.748719 0.662396
vn 0.458412 -0.0823854 0.884913
vn -0.473027 0.0257463 -0.880672
vn -0.29064 0.414089 -0.862589
vn 0.230551 -0.556515 0.798209
vn -0.418448 0.255991 -0.871418
vn -0.504744 0.375694 -0.777231
vn 0.480573 -0.233749 0.845228
vn 0.445246 -0.485069 0.752638
vn -0.67565 -0.209235 -0.706907
vn -0.63559 0.000263067 -0.772027
vn -0.646081 0.217576 -0.731601
vn 0.359369 -0.786783 0.501822
vn 0.504947 -0.523112 0.686573
vn -0.576743 -0.414256 -0.704102
vn -0.307675 -0.532736 -0.788371
vn -0.378854 -0.0650623 -0.923167
vn -0.0250894 -0.270678 -0.962343
vn 0.406772 -0.821526 0.399539
vn 0.591466 -0.550239 0.589411
vn 0.22998 -0.868967 -0.438184
vn 0.337268 -0.930484 0.143004
vn 0.439397 -0.618294 -0.651646
vn 0.264915 -0.254021 -0.930211
vn 0.557102 -0.81416 -0.163647
vn 0.58922 -0.759577 0.275432
vn 0.738202 -0.546244 -0.395823
vn -0.196216 0.949828 -0.243568
vn -0.0306058 0.781648 0.622968
vn -0.205173 0.922087 0.328116
vn -0.116358 0.990921 0.0673512
vn 0.107697 0.945792 0.306396
vn -0.0379018 0.884582 -0.464842
vn 0.124256 0.989125 -0.0786933
vn 0.0374719 0.42962 0.902232
vn 0.3516 0.160834 0.922231
vn 0.34865 0.683751 0.641037
vn 0.322228 0.917809 0.231941
vn -0.164002 0.60876 -0.776218
vn 0.170113 0.950728 -0.259187
vn 0.120763 0.883316 -0.452957
vn 0.501125 0.743075 0.443523
vn 0.549394 0.367795 0.750262
vn -0.0270279 0.781877 -0.622846
vn 0.264351 0.945714 -0.189061
vn 0.437729 0.882029 0.174406
vn -0.200749 0.72156 -0.662609
vn 0.545986 0.683834 0.484015
vn 0.132923 0.969758 -0.204697
vn 0.592606 0.202119 0.779722
vn 0.367844 0.910227 0.190203
vn -0.296163 0.768028 -0.567821
vn -0.0606122 0.962047 -0.266067
vn -0.426894 0.702844 -0.569009
vn -0.471868 0.377423 -0.796801
vn 0.5992 -0.108397 0.793227
vn 0.63525 0.407558 0.656014
vn -0.190946 0.814506 -0.547832
vn -0.043164 0.213548 -0.975978
vn -0.224555 0.593691 -0.772726
vn 0.117732 0.51767 -0.847441
vn 0.670848 -0.132366 0.729686
vn 0.768855 0.136813 0.624616
vn 0.819173 0.437959 -0.370334
vn 0.632267 -0.220669 -0.74266
vn 0.385812 0.192406 -0.902291
vn 0.774614 0.107881 -0.623166
vn 0.490429 0.50241 -0.712084
vn 0.773116 -0.482956 0.411151
vn 0.802202 -0.195345 0.564191
vn 0.826384 -0.562238 0.0312722
vn 0.904921 -0.27148 -0.327744
vn 0.958173 -0.233113 0.16602
vn 0.983204 0.0664175 -0.169998
vn 0.93944 0.0902157 0.330625
vn 0.371192 0.928084 0.0296007
vn 0.243157 0.965838 0.089615
vn 0.44156 0.825455 0.351638
vn -0.149687 0.937528 -0.314062
vn 0.0808484 0.918597 -0.386836
vn 0.231206 0.972422 0.0306594
vn 0.369919 0.906626 -0.202951
vn 0.110568 0.73895 -0.664625
vn 0.765306 0.455528 0.454755
vn 0.548231 0.754459 0.360881
vn 0.914372 0.395681 0.0857883
vn 0.675168 0.737431 0.0185458
vn 0.477836 0.737178 -0.477746
g grp1
usemtl mtl1
f 32//32 4//4 1//1 
f 4//4 3//3 1//1 
f 1//1 3//3 2//2 
f 32//32 33//33 4//4 
f 3//3 38//38 2//2 
f 3//3 40//40 38//38 
f 3//3 4//4 40//40 
f 6//6 12//12 9//9 
f 5//5 6//6 9//9 
f 6//6 53//53 12//12 
f 10//10 14//14 8//8 
f 7//7 10//10 8//8 
f 14//14 15//15 8//8 
f 10//10 7//7 9//9 
f 7//7 5//5 9//9 
f 5//5 7//7 21//21 
f 11//11 58//58 10//10 
f 9//9 11//11 10//10 
f 58//58 14//14 10//10 
f 9//9 12//12 11//11 
f 57//57 11//11 12//12 
f 57//57 58//58 11//11 
f 58//58 65//65 16//16 
f 8//8 13//13 7//7 
f 13//13 22//22 7//7 
f 13//13 24//24 22//22 
f 8//8 15//15 13//13 
f 13//13 15//15 24//24 
f 16//16 15//15 14//14 
f 17//17 15//15 16//16 
f 15//15 17//17 24//24 
f 17//17 18//18 24//24 
f 14//14 58//58 16//16 
f 21//21 19//19 5//5 
f 19//19 6//6 5//5 
f 26//26 20//20 19//19 
f 6//6 19//19 20//20 
f 20//20 70//70 6//6 
f 53//53 6//6 70//70 
f 70//70 20//20 71//71 
f 21//21 7//7 22//22 
f 19//19 21//21 23//23 
f 21//21 22//22 23//23 
f 22//22 27//27 23//23 
f 22//22 29//29 27//27 
f 22//22 24//24 29//29 
f 29//29 24//24 30//30 
f 24//24 18//18 30//30 
f 25//25 19//19 23//23 
f 25//25 28//28 31//31 
f 19//19 25//25 26//26 
f 25//25 31//31 78//78 
f 73//73 26//26 25//25 
f 25//25 78//78 73//73 
f 23//23 27//27 28//28 
f 23//23 28//28 25//25 
f 30//30 18//18 77//77 
f 30//30 33//33 29//29 
f 77//77 80//80 30//30 
f 78//78 31//31 34//34 
f 29//29 32//32 27//27 
f 27//27 32//32 1//1 
f 27//27 2//2 28//28 
f 27//27 1//1 2//2 
f 80//80 33//33 30//30 
f 82//82 76//76 78//78 
f 31//31 28//28 2//2 
f 29//29 33//33 32//32 
f 80//80 36//36 33//33 
f 80//80 83//83 36//36 
f 34//34 82//82 78//78 
f 31//31 2//2 34//34 
f 34//34 2//2 35//35 
f 35//35 82//82 34//34 
f 35//35 2//2 38//38 
f 82//82 35//35 37//37 
f 33//33 36//36 4//4 
f 36//36 42//42 4//4 
f 35//35 38//38 39//39 
f 37//37 35//35 39//39 
f 37//37 39//39 86//86 
f 85//85 37//37 86//86 
f 44//44 39//39 38//38 
f 4//4 41//41 40//40 
f 43//43 38//38 40//40 
f 38//38 43//43 44//44 
f 42//42 41//41 4//4 
f 36//36 87//87 42//42 
f 42//42 47//47 41//41 
f 48//48 44//44 43//43 
f 90//90 44//44 48//48 
f 39//39 44//44 90//90 
f 43//43 45//45 46//46 
f 48//48 43//43 46//46 
f 41//41 45//45 40//40 
f 40//40 45//45 43//43 
f 41//41 47//47 45//45 
f 45//45 47//47 49//49 
f 46//46 45//45 49//49 
f 50//50 46//46 49//49 
f 47//47 52//52 49//49 
f 42//42 92//92 47//47 
f 92//92 93//93 47//47 
f 92//92 42//42 87//87 
f 96//96 90//90 48//48 
f 50//50 48//48 46//46 
f 48//48 50//50 99//99 
f 96//96 48//48 99//99 
f 51//51 50//50 49//49 
f 50//50 51//51 99//99 
f 52//52 47//47 93//93 
f 57//57 12//12 60//60 
f 53//53 60//60 12//12 
f 54//54 60//60 53//53 
f 55//55 53//53 70//70 
f 54//54 53//53 55//55 
f 54//54 56//56 63//63 
f 55//55 56//56 54//54 
f 57//57 59//59 58//58 
f 57//57 60//60 59//59 
f 59//59 65//65 58//58 
f 61//61 65//65 59//59 
f 60//60 62//62 59//59 
f 59//59 62//62 61//61 
f 54//54 62//62 60//60 
f 61//61 68//68 65//65 
f 62//62 54//54 63//63 
f 64//64 68//68 61//61 
f 63//63 64//64 62//62 
f 61//61 62//62 64//64 
f 64//64 63//63 107//107 
f 66//66 16//16 65//65 
f 66//66 17//17 16//16 
f 17//17 66//66 67//67 
f 18//18 17//17 67//67 
f 67//67 66//66 69//69 
f 68//68 66//66 65//65 
f 68//68 69//69 66//66 
f 68//68 105//105 69//69 
f 110//110 116//116 69//69 
f 110//110 69//69 105//105 
f 105//105 68//68 64//64 
f 67//67 69//69 116//116 
f 71//71 20//20 74//74 
f 74//74 20//20 26//26 
f 71//71 74//74 75//75 
f 70//70 71//71 72//72 
f 55//55 70//70 72//72 
f 72//72 56//56 55//55 
f 72//72 71//71 112//112 
f 112//112 71//71 75//75 
f 74//74 26//26 73//73 
f 73//73 78//78 76//76 
f 75//75 74//74 76//76 
f 76//76 74//74 73//73 
f 113//113 75//75 76//76 
f 113//113 112//112 75//75 
f 67//67 77//77 18//18 
f 77//77 67//67 116//116 
f 79//79 113//113 76//76 
f 81//81 80//80 77//77 
f 116//116 81//81 77//77 
f 116//116 121//121 81//81 
f 82//82 79//79 76//76 
f 80//80 81//81 83//83 
f 124//124 81//81 121//121 
f 82//82 85//85 79//79 
f 81//81 124//124 83//83 
f 124//124 84//84 83//83 
f 84//84 124//124 129//129 
f 84//84 129//129 131//131 
f 83//83 84//84 36//36 
f 85//85 82//82 37//37 
f 89//89 87//87 36//36 
f 36//36 84//84 89//89 
f 89//89 84//84 131//131 
f 133//133 85//85 86//86 
f 85//85 133//133 127//127 
f 92//92 87//87 88//88 
f 87//87 89//89 88//88 
f 88//88 89//89 132//132 
f 91//91 133//133 86//86 
f 91//91 86//86 39//39 
f 91//91 39//39 90//90 
f 91//91 139//139 133//133 
f 94//94 93//93 92//92 
f 88//88 94//94 92//92 
f 94//94 95//95 93//93 
f 95//95 52//52 93//93 
f 94//94 88//88 132//132 
f 136//136 95//95 94//94 
f 101//101 52//52 95//95 
f 95//95 136//136 101//101 
f 136//136 94//94 132//132 
f 90//90 96//96 97//97 
f 91//91 90//90 97//97 
f 139//139 91//91 97//97 
f 103//103 96//96 99//99 
f 49//49 98//98 51//51 
f 49//49 52//52 98//98 
f 98//98 102//102 51//51 
f 99//99 102//102 103//103 
f 99//99 51//51 102//102 
f 100//100 98//98 52//52 
f 100//100 52//52 101//101 
f 100//100 101//101 142//142 
f 97//97 96//96 103//103 
f 146//146 97//97 103//103 
f 100//100 102//102 98//98 
f 102//102 100//100 104//104 
f 104//104 100//100 142//142 
f 104//104 142//142 149//149 
f 103//103 102//102 148//148 
f 102//102 104//104 148//148 
f 104//104 149//149 148//148 
f 146//146 103//103 148//148 
f 63//63 56//56 107//107 
f 108//108 64//64 107//107 
f 108//108 105//105 64//64 
f 106//106 107//107 56//56 
f 72//72 106//106 56//56 
f 112//112 106//106 72//72 
f 112//112 114//114 106//106 
f 106//106 114//114 109//109 
f 108//108 109//109 111//111 
f 109//109 108//108 107//107 
f 109//109 107//107 106//106 
f 109//109 115//115 111//111 
f 108//108 111//111 105//105 
f 111//111 110//110 105//105 
f 117//117 110//110 111//111 
f 118//118 110//110 117//117 
f 113//113 114//114 112//112 
f 114//114 113//113 120//120 
f 113//113 79//79 120//120 
f 114//114 115//115 109//109 
f 120//120 119//119 114//114 
f 115//115 114//114 119//119 
f 110//110 118//118 116//116 
f 118//118 117//117 153//153 
f 111//111 153//153 117//117 
f 111//111 115//115 153//153 
f 116//116 118//118 121//121 
f 115//115 119//119 153//153 
f 122//122 118//118 153//153 
f 85//85 127//127 79//79 
f 79//79 127//127 120//120 
f 120//120 125//125 119//119 
f 127//127 125//125 120//120 
f 122//122 121//121 118//118 
f 119//119 125//125 153//153 
f 153//153 123//123 122//122 
f 126//126 121//121 122//122 
f 127//127 134//134 125//125 
f 128//128 126//126 122//122 
f 123//123 128//128 122//122 
f 121//121 126//126 124//124 
f 123//123 153//153 125//125 
f 125//125 128//128 123//123 
f 128//128 154//154 126//126 
f 126//126 130//130 124//124 
f 125//125 134//134 155//155 
f 125//125 155//155 128//128 
f 128//128 155//155 154//154 
f 126//126 154//154 130//130 
f 130//130 129//129 124//124 
f 134//134 127//127 133//133 
f 158//158 130//130 154//154 
f 129//129 130//130 131//131 
f 89//89 131//131 132//132 
f 131//131 137//137 132//132 
f 135//135 137//137 131//131 
f 156//156 131//131 130//130 
f 156//156 157//157 135//135 
f 156//156 135//135 131//131 
f 157//157 160//160 135//135 
f 101//101 136//136 143//143 
f 138//138 143//143 136//136 
f 137//137 136//136 132//132 
f 136//136 137//137 138//138 
f 145//145 143//143 138//138 
f 135//135 160//160 137//137 
f 160//160 138//138 137//137 
f 134//134 133//133 139//139 
f 97//97 147//147 139//139 
f 140//140 134//134 139//139 
f 134//134 140//140 161//161 
f 143//143 142//142 101//101 
f 143//143 144//144 142//142 
f 144//144 149//149 142//142 
f 145//145 144//144 143//143 
f 141//141 144//144 145//145 
f 141//141 145//145 165//165 
f 97//97 146//146 147//147 
f 146//146 148//148 150//150 
f 146//146 150//150 147//147 
f 140//140 139//139 147//147 
f 152//152 140//140 147//147 
f 152//152 161//161 140//140 
f 150//150 148//148 149//149 
f 149//149 151//151 150//150 
f 149//149 144//144 151//151 
f 141//141 151//151 144//144 
f 152//152 147//147 150//150 
f 163//163 152//152 151//151 
f 150//150 151//151 152//152 
f 154//154 155//155 158//158 
f 162//162 155//155 134//134 
f 156//156 130//130 158//158 
f 157//157 156//156 158//158 
f 165//165 160//160 157//157 
f 157//157 158//158 159//159 
f 165//165 157//157 159//159 
f 158//158 162//162 164//164 
f 158//158 164//164 159//159 
f 159//159 164//164 165//165 
f 160//160 145//145 138//138 
f 145//145 160//160 165//165 
f 162//162 134//134 161//161 
f 151//151 141//141 163//163 
f 141//141 165//165 164//164 
f 163//163 161//161 152//152 
f 164//164 161//161 163//163 
f 141//141 164//164 163//163 
f 158//158 155//155 162//162 
f 162//162 161//161 164//164 
