#
# The license for this database is specified in the Creative Commons Attribution-Share Alike 2.1 Japan. If you use data from this database, please be sure attribute this database as follows: "BodyParts3D, (c)  The Database Center for Life Science licensed under CC Attribution-Share Alike 2.1 Japan".
# http://dbarchive.biosciencedbc.jp/en/bodyparts3d/lic.html
#
#
# Compatibility version : 4.0
# File ID : FJ2952
# Representation ID : BP9735
# Build-up logic : FMA 3.0 part_of
# Concept ID : FMA9450
# English name : Left lateral basal segmental vein
# Bounds(mm): (100.626000,-74.354500,1134.020000)-(111.776000,-67.531800,1158.490000)
# Volume(cm3): 0.107000
#
v 101.144 -69.7043 1157.21
v 101.758 -69.7945 1157.7
v 101.3 -69.5197 1157.92
v 101.871 -70.087 1156.58
v 102.5 -70.025 1156.9
v 102.076 -69.7171 1157.86
v 101.801 -69.4606 1158.18
v 102.733 -69.6539 1157.5
v 102.367 -69.3546 1158.14
v 101.035 -69.0698 1158.1
v 101.355 -68.9807 1158.34
v 101.093 -68.3873 1158.29
v 102.051 -69.0548 1158.42
v 101.729 -68.3951 1158.49
v 101.402 -68.0127 1158.33
v 101.978 -70.1395 1155.33
v 100.935 -69.1618 1156.33
v 101.199 -68.6861 1155.61
v 100.939 -67.934 1156.54
v 101.454 -68.24 1155.39
v 101.244 -67.7765 1156.32
v 100.752 -69.1455 1157.58
v 100.626 -68.5411 1157.09
v 100.75 -68.3805 1157.85
v 101.009 -67.9326 1157.98
v 100.863 -67.8326 1157.13
v 103.262 -69.1151 1157.27
v 103.55 -68.5133 1156.74
v 102.812 -68.1465 1157.86
v 103.125 -67.8807 1156.95
v 102.389 -68.6995 1158.35
v 101.993 -67.9537 1158.29
v 102.505 -67.675 1157.74
v 106.963 -71.4251 1149.74
v 101.986 -67.6765 1155.76
v 102.65 -67.5438 1156.49
v 101.275 -67.5318 1157.38
v 101.611 -67.5569 1157.86
v 107.068 -72.4192 1146.67
v 105.476 -71.3441 1147.93
v 105.225 -70.0344 1148.36
v 105.313 -69.5205 1148.8
v 108.423 -73.1442 1141.59
v 108.009 -72.4983 1141.63
v 109.256 -71.7044 1145.31
v 109.125 -70.9012 1145.38
v 108.309 -70.933 1147.69
v 107.286 -69.7441 1149.21
v 106.007 -69.4316 1148.34
v 106.337 -69.1482 1150.28
v 109.498 -73.3157 1141.79
v 109.916 -73.0285 1141.97
v 110.456 -72.6048 1140.97
v 110.29 -71.9541 1141.51
v 109.863 -71.335 1142.18
v 107.743 -70.0582 1145.52
v 108.55 -70.2973 1145.2
v 110.797 -74.3545 1135.38
v 111.357 -74.2596 1135.16
v 111.565 -74.0592 1135.02
v 108.208 -71.3661 1141.7
v 110.4 -74.2558 1134.94
v 110.202 -74.0018 1134.78
v 110.628 -74.1338 1134.08
v 110.133 -73.6551 1134.69
v 110.095 -73.2791 1134.95
v 110.381 -73.5323 1134.02
v 111.496 -74.3407 1134.33
v 110.612 -73.0805 1134.17
v 111.671 -73.5394 1135.14
v 110.769 -72.6408 1135.47
v 111.776 -73.5945 1134.34
v 111.561 -73.1478 1135.2
v 111.085 -72.765 1135.3
v 110.628 -74.1338 1134.08
v 110.628 -74.1338 1134.08
v 110.381 -73.5323 1134.02
v 111.496 -74.3407 1134.33
v 111.496 -74.3407 1134.33
v 110.612 -73.0805 1134.17
v 111.776 -73.5945 1134.34
v 111.776 -73.5945 1134.34
vn -0.603577 -0.791936 0.0923714
vn -0.162262 -0.908558 0.38496
vn -0.460225 -0.697888 0.548767
vn -0.251569 -0.957679 0.13987
vn 0.150144 -0.934159 0.323735
vn 0.172958 -0.828619 0.532425
vn -0.0744162 -0.664688 0.743405
vn 0.508856 -0.694508 0.50865
vn 0.452566 -0.514647 0.728233
vn -0.685273 -0.328549 0.649967
vn -0.322037 -0.332902 0.886266
vn -0.574393 0.0811376 0.814548
vn 0.116798 -0.308824 0.943921
vn -0.0353498 0.0931204 0.995027
vn -0.26342 0.508806 0.819589
vn -0.631799 -0.762996 -0.136625
vn -0.889125 -0.374433 -0.263165
vn -0.894804 0.0722672 -0.440572
vn -0.821527 0.450946 -0.348915
vn -0.731515 0.477143 -0.487052
vn -0.506712 0.79726 -0.328053
vn -0.885497 -0.413354 0.212211
vn -0.988572 0.0662906 -0.13539
vn -0.916599 0.120748 0.381139
vn -0.64833 0.60135 0.466954
vn -0.791297 0.61131 -0.0122035
vn 0.797605 -0.202554 0.568153
vn 0.867719 0.237775 0.436493
vn 0.723019 0.321936 0.611229
vn 0.69206 0.669708 0.269339
vn 0.520334 -0.000815145 0.853962
vn 0.257614 0.521591 0.813374
vn 0.431702 0.797414 0.421622
vn 0.573519 -0.702735 0.420998
vn -0.219093 0.933592 -0.283555
vn 0.199391 0.979875 -0.00941088
vn -0.340659 0.940081 0.0141449
vn -0.08498 0.904537 0.417841
vn -0.260296 -0.96113 0.0920656
vn -0.845219 -0.435282 -0.310057
vn -0.850883 0.238461 -0.468118
vn -0.536161 0.719926 -0.440724
vn -0.73394 -0.668334 -0.121088
vn -0.942729 -0.128998 -0.307607
vn 0.917062 -0.190749 0.350159
vn 0.878171 0.427828 0.213959
vn 0.905828 0.0164282 0.423327
vn 0.784798 0.568492 0.246798
vn -0.283466 0.889768 -0.357715
vn 0.4584 0.888466 0.0223063
vn 0.276561 -0.926758 0.254231
vn 0.698346 -0.642757 0.314921
vn 0.94592 -0.192775 0.260907
vn 0.951336 0.249311 0.18112
vn 0.727999 0.685022 0.0276318
vn -0.00631122 0.971059 -0.238754
vn 0.503527 0.863691 -0.0223282
vn -0.0111231 -0.995847 0.090365
vn 0.506201 -0.834561 0.217413
vn 0.881962 -0.428651 0.195962
vn -0.67687 0.617535 -0.400621
vn -0.462221 -0.879117 -0.116213
vn -0.837324 -0.473817 -0.272738
vn -0.755627 -0.547589 -0.359409
vn -0.945054 -0.0674443 -0.319882
vn -0.888063 0.304087 -0.344783
vn -0.914783 0.000133543 -0.403947
vn -0.0322638 -0.99808 -0.0528793
vn -0.30055 0.865259 -0.401242
vn 0.985376 0.0234715 0.168772
vn 0.0969663 0.958445 -0.268291
vn 0.988111 -0.11345 0.103756
vn 0.839304 0.543651 0.00357836
vn 0.40147 0.889449 -0.21841
vn -0.177353 -0.966736 -0.184305
vn 0.240548 -0.044577 -0.969613
vn 0.226618 0.0978779 -0.969053
vn 0.853928 -0.506101 0.121117
vn 0.257334 -0.0836464 -0.962695
vn 0.227493 0.200132 -0.952992
vn 0.237793 0.037294 -0.9706
vn 0.497353 0.800522 -0.33437
g grp1
usemtl mtl1
f 2//2 1//1 4//4 
f 2//2 3//3 1//1 
f 16//16 39//39 4//4 
f 1//1 3//3 22//22 
f 6//6 7//7 2//2 
f 4//4 39//39 5//5 
f 5//5 6//6 2//2 
f 2//2 4//4 5//5 
f 7//7 3//3 2//2 
f 8//8 9//9 6//6 
f 6//6 5//5 8//8 
f 7//7 6//6 9//9 
f 13//13 7//7 9//9 
f 5//5 34//34 8//8 
f 8//8 27//27 9//9 
f 9//9 31//31 13//13 
f 22//22 3//3 10//10 
f 10//10 24//24 22//22 
f 7//7 11//11 3//3 
f 11//11 10//10 3//3 
f 11//11 12//12 10//10 
f 24//24 10//10 12//12 
f 11//11 7//7 13//13 
f 12//12 25//25 24//24 
f 14//14 11//11 13//13 
f 12//12 11//11 14//14 
f 14//14 15//15 12//12 
f 15//15 25//25 12//12 
f 13//13 31//31 14//14 
f 40//40 39//39 16//16 
f 18//18 40//40 17//17 
f 4//4 1//1 16//16 
f 1//1 17//17 16//16 
f 1//1 22//22 17//17 
f 22//22 23//23 17//17 
f 17//17 40//40 16//16 
f 19//19 18//18 23//23 
f 23//23 18//18 17//17 
f 18//18 19//19 20//20 
f 26//26 21//21 19//19 
f 20//20 19//19 21//21 
f 20//20 21//21 42//42 
f 42//42 21//21 35//35 
f 22//22 24//24 23//23 
f 26//26 24//24 25//25 
f 26//26 23//23 24//24 
f 19//19 23//23 26//26 
f 38//38 25//25 15//15 
f 38//38 37//37 25//25 
f 37//37 26//26 25//25 
f 37//37 21//21 26//26 
f 40//40 18//18 41//41 
f 41//41 18//18 20//20 
f 9//9 27//27 31//31 
f 8//8 34//34 27//27 
f 34//34 47//47 27//27 
f 27//27 47//47 28//28 
f 29//29 27//27 28//28 
f 31//31 27//27 29//29 
f 30//30 33//33 29//29 
f 28//28 30//30 29//29 
f 32//32 14//14 31//31 
f 14//14 32//32 15//15 
f 15//15 32//32 38//38 
f 31//31 29//29 32//32 
f 38//38 32//32 33//33 
f 32//32 29//29 33//33 
f 5//5 39//39 34//34 
f 42//42 35//35 49//49 
f 30//30 36//36 33//33 
f 37//37 35//35 21//21 
f 33//33 36//36 38//38 
f 36//36 37//37 38//38 
f 36//36 35//35 37//37 
f 43//43 39//39 40//40 
f 39//39 51//51 34//34 
f 41//41 20//20 42//42 
f 40//40 44//44 43//43 
f 44//44 41//41 61//61 
f 40//40 41//41 44//44 
f 62//62 39//39 43//43 
f 62//62 43//43 63//63 
f 34//34 45//45 47//47 
f 47//47 48//48 28//28 
f 28//28 48//48 30//30 
f 50//50 30//30 48//48 
f 34//34 51//51 52//52 
f 34//34 52//52 45//45 
f 47//47 45//45 46//46 
f 45//45 54//54 46//46 
f 47//47 46//46 48//48 
f 48//48 46//46 57//57 
f 49//49 61//61 42//42 
f 48//48 57//57 50//50 
f 57//57 56//56 50//50 
f 49//49 35//35 56//56 
f 61//61 49//49 56//56 
f 30//30 50//50 36//36 
f 56//56 35//35 36//36 
f 56//56 36//36 50//50 
f 52//52 60//60 53//53 
f 70//70 53//53 60//60 
f 54//54 53//53 70//70 
f 54//54 73//73 55//55 
f 53//53 45//45 52//52 
f 45//45 53//53 54//54 
f 41//41 42//42 61//61 
f 54//54 55//55 46//46 
f 46//46 55//55 57//57 
f 55//55 74//74 57//57 
f 57//57 74//74 56//56 
f 58//58 51//51 39//39 
f 58//58 68//68 59//59 
f 51//51 58//58 59//59 
f 59//59 60//60 52//52 
f 52//52 51//51 59//59 
f 59//59 78//78 60//60 
f 78//78 72//72 60//60 
f 56//56 74//74 71//71 
f 69//69 66//66 61//61 
f 71//71 69//69 56//56 
f 70//70 73//73 54//54 
f 55//55 73//73 74//74 
f 66//66 44//44 61//61 
f 61//61 56//56 69//69 
f 62//62 58//58 39//39 
f 63//63 64//64 62//62 
f 44//44 63//63 43//43 
f 44//44 65//65 63//63 
f 64//64 63//63 67//67 
f 63//63 65//65 67//67 
f 68//68 62//62 75//75 
f 68//68 58//58 62//62 
f 67//67 65//65 66//66 
f 65//65 44//44 66//66 
f 67//67 66//66 69//69 
f 81//81 77//77 80//80 
f 81//81 76//76 77//77 
f 81//81 79//79 76//76 
f 82//82 69//69 74//74 
f 69//69 71//71 74//74 
f 70//70 60//60 72//72 
f 70//70 72//72 73//73 
f 73//73 82//82 74//74 
