#
# The license for this database is specified in the Creative Commons Attribution-Share Alike 2.1 Japan. If you use data from this database, please be sure attribute this database as follows: "BodyParts3D, (c)  The Database Center for Life Science licensed under CC Attribution-Share Alike 2.1 Japan".
# http://dbarchive.biosciencedbc.jp/en/bodyparts3d/lic.html
#
#
# Compatibility version : 4.0
# File ID : FJ3524
# Representation ID : BP10401
# Build-up logic : FMA 3.0 part_of
# Concept ID : FMA18886
# English name : Left external iliac vein
# Bounds(mm): (11.540900,-72.655200,875.073000)-(20.169900,-50.618300,890.711000)
# Volume(cm3): 0.659300
#
v 11.9299 -71.0366 888.341
v 11.5409 -69.6159 887.286
v 12.2444 -67.7968 889.469
v 13.3231 -72.6552 887.126
v 12.8492 -66.5412 883.759
v 11.9131 -71.6014 887.284
v 13.2448 -68.6563 890.148
v 13.1664 -71.032 885.923
v 14.4677 -71.1782 885.55
v 15.0329 -71.9287 887.93
v 15.4848 -72.4826 886.757
v 16.7097 -71.6756 888.072
v 17.8386 -69.6397 889.679
v 13.6397 -58.4826 881.198
v 13.4646 -63.0108 885.987
v 12.7732 -63.758 883.982
v 14.4622 -63.5115 880.777
v 16.7932 -60.912 885.982
v 13.3802 -66.5421 889.66
v 14.1795 -67.1056 890.453
v 14.7895 -63.2062 887.371
v 16.3228 -66.9657 890.408
v 17.5601 -66.788 889.611
v 16.9443 -68.2057 890.711
v 13.6975 -53.2765 878.098
v 14.2745 -52.1772 879.055
v 13.8173 -54.7192 877.435
v 14.0046 -53.461 876.776
v 14.1241 -52.2104 877.593
v 14.2413 -57.8094 882.479
v 14.4959 -52.59 879.707
v 15.1318 -52.0892 879.936
v 15.7098 -50.7091 879.095
v 17.2503 -71.489 887.036
v 16.8849 -70.8717 885.864
v 16.3089 -68.8796 883.776
v 18.4434 -69.9461 888.056
v 18.532 -68.3278 888.831
v 18.0246 -68.191 884.285
v 17.6193 -61.0796 878.566
v 19.3707 -61.0474 879.744
v 19.0157 -58.3071 877.602
v 19.843 -59.1244 879.206
v 20.0514 -60.7758 880.968
v 20.0508 -60.6473 882.648
v 19.4103 -65.6106 884.333
v 16.3177 -55.3688 875.368
v 16.4684 -54.1606 875.073
v 18.0301 -55.0084 875.293
v 18.398 -53.4549 875.423
v 19.4996 -54.333 876.475
v 20.1699 -57.9511 879.874
v 19.1452 -58.9826 883.658
v 18.8896 -51.3265 877.76
v 17.4532 -51.6965 880.152
v 18.0431 -50.6183 879.187
v 18.7115 -51.7695 879.578
v 19.2973 -52.4191 879.156
v 11.9299 -71.0366 888.341
v 11.9299 -71.0366 888.341
v 11.9299 -71.0366 888.341
v 13.3231 -72.6552 887.126
v 13.3231 -72.6552 887.126
v 11.9131 -71.6014 887.284
v 11.9131 -71.6014 887.284
v 13.2448 -68.6563 890.148
v 15.4848 -72.4826 886.757
v 15.4848 -72.4826 886.757
v 16.7097 -71.6756 888.072
v 17.8386 -69.6397 889.679
v 14.4622 -63.5115 880.777
v 16.9443 -68.2057 890.711
v 13.8173 -54.7192 877.435
v 14.0046 -53.461 876.776
v 14.0046 -53.461 876.776
v 14.1241 -52.2104 877.593
v 15.7098 -50.7091 879.095
v 17.2503 -71.489 887.036
v 18.4434 -69.9461 888.056
v 16.3177 -55.3688 875.368
v 16.4684 -54.1606 875.073
v 16.4684 -54.1606 875.073
v 18.398 -53.4549 875.423
v 18.398 -53.4549 875.423
v 18.398 -53.4549 875.423
v 18.8896 -51.3265 877.76
v 18.0431 -50.6183 879.187
v 18.0431 -50.6183 879.187
vn -0.9702 -0.102553 0.219534
vn -0.997969 -0.022821 -0.0594672
vn -0.809071 0.222932 0.543788
vn -0.516115 -0.752045 0.409944
vn -0.828135 -0.176598 -0.531983
vn -0.67207 -0.3772 -0.637215
vn -0.443148 -0.0621319 0.894293
vn -0.455537 -0.489242 -0.743726
vn -0.145727 -0.601384 -0.785558
vn 0.0235121 -0.72842 0.684727
vn 0.202261 -0.69434 -0.690639
vn 0.00362383 -0.676776 0.73618
vn 0.816029 -0.30733 0.489535
vn -0.995824 0.0780616 -0.0473413
vn -0.788773 0.45479 0.413525
vn -0.982038 0.186109 -0.0310638
vn -0.506569 -0.423347 -0.751109
vn 0.00129612 0.572647 0.819801
vn -0.512636 0.545541 0.663016
vn -0.248963 0.371037 0.894622
vn -0.3679 0.61456 0.697829
vn 0.218511 0.45843 0.861449
vn 0.573796 0.386094 0.722281
vn -0.0474558 -0.602676 0.796574
vn -0.982873 0.182064 0.0285242
vn -0.806433 0.474044 0.353478
vn -0.984016 -0.0536339 -0.169813
vn -0.62379 -0.197905 -0.756122
vn -0.883042 0.46775 -0.0380465
vn -0.729966 0.395611 0.557352
vn -0.691479 0.419435 0.588158
vn -0.459188 0.522378 0.718517
vn -0.424985 0.691941 0.583614
vn 0.58987 -0.790386 0.165355
vn 0.472156 -0.636626 -0.609735
vn 0.15728 -0.60177 -0.78303
vn 0.848112 -0.443098 0.290464
vn 0.901306 0.0280199 0.432276
vn 0.661227 -0.525581 -0.535296
vn 0.216763 -0.531101 -0.819112
vn 0.721451 -0.426659 -0.545408
vn 0.630965 -0.374527 -0.679421
vn 0.879507 -0.233435 -0.414699
vn 0.95622 -0.205585 -0.208275
vn 0.975732 0.0648725 0.209138
vn 0.951007 -0.272896 -0.145305
vn -0.634608 -0.236054 -0.735902
vn -0.587726 -0.121905 -0.799823
vn 0.33973 -0.266015 -0.902119
vn -0.124681 0.740524 -0.660362
vn 0.894395 0.00708033 -0.447221
vn 0.997414 0.0121384 -0.0708387
vn 0.669197 0.375286 0.641355
vn 0.900118 0.412234 -0.140895
vn 0.134262 0.557107 0.819515
vn 0.170307 0.603976 0.778594
vn 0.614005 0.487465 0.620786
vn 0.916008 0.336826 0.217893
vn -0.658037 -0.189741 0.728687
vn -0.516115 -0.752045 0.409944
vn -0.072252 -0.613546 0.786347
vn -0.283137 -0.625396 -0.727126
vn 0.0333986 -0.775972 0.629883
vn -0.976525 -0.183169 0.113353
vn -0.516115 -0.752045 0.409944
vn -0.0313507 -0.580762 0.813469
vn 0.122446 -0.878456 0.461868
vn 0.477379 -0.873908 0.0916185
vn 0.617234 -0.750698 0.23553
vn -0.0472006 -0.602694 0.796575
vn -0.652399 -0.310616 -0.691299
vn 0.410943 0.1604 0.897439
vn -0.653461 -0.291433 -0.698609
vn -0.959919 0.140296 -0.242638
vn -0.374349 0.531757 -0.759669
vn -0.209148 0.677598 -0.705066
vn -0.084844 0.80463 -0.587684
vn 0.670247 -0.588417 -0.452254
vn 0.841342 -0.448218 -0.302068
vn -0.0412753 -0.415365 -0.908718
vn -0.259387 0.63198 -0.730287
vn 0.0863515 -0.0982369 -0.99141
vn 0.16281 0.0440781 -0.985672
vn 0.778876 0.373403 -0.503906
vn 0.649193 -0.0904394 -0.755228
vn -0.0736466 0.826722 -0.55777
vn -0.0168468 0.891612 -0.452487
vn 0.800488 0.553528 0.22984
g grp1
usemtl mtl1
f 3//3 16//16 2//2 
f 2//2 1//1 3//3 
f 2//2 5//5 6//6 
f 64//64 1//1 2//2 
f 15//15 16//16 3//3 
f 59//59 7//7 3//3 
f 3//3 19//19 15//15 
f 7//7 20//20 3//3 
f 60//60 65//65 4//4 
f 8//8 9//9 62//62 
f 62//62 9//9 11//11 
f 5//5 2//2 16//16 
f 8//8 5//5 17//17 
f 17//17 9//9 8//8 
f 36//36 9//9 17//17 
f 8//8 6//6 5//5 
f 62//62 6//6 8//8 
f 63//63 10//10 61//61 
f 66//66 10//10 12//12 
f 66//66 61//61 10//10 
f 12//12 24//24 66//66 
f 72//72 20//20 7//7 
f 10//10 63//63 67//67 
f 9//9 36//36 11//11 
f 34//34 69//69 68//68 
f 67//67 12//12 10//10 
f 36//36 35//35 11//11 
f 35//35 78//78 11//11 
f 34//34 37//37 69//69 
f 13//13 69//69 37//37 
f 12//12 70//70 24//24 
f 13//13 38//38 72//72 
f 37//37 38//38 13//13 
f 14//14 17//17 5//5 
f 27//27 17//17 14//14 
f 71//71 73//73 47//47 
f 14//14 5//5 16//16 
f 14//14 16//16 15//15 
f 14//14 15//15 30//30 
f 21//21 30//30 15//15 
f 21//21 18//18 30//30 
f 19//19 3//3 20//20 
f 20//20 21//21 19//19 
f 15//15 19//19 21//21 
f 20//20 22//22 18//18 
f 72//72 22//22 20//20 
f 21//21 20//20 18//18 
f 23//23 18//18 22//22 
f 72//72 23//23 22//22 
f 38//38 23//23 72//72 
f 23//23 38//38 53//53 
f 23//23 53//53 18//18 
f 25//25 27//27 14//14 
f 29//29 25//25 26//26 
f 25//25 30//30 26//26 
f 30//30 31//31 26//26 
f 33//33 29//29 26//26 
f 26//26 31//31 32//32 
f 33//33 26//26 32//32 
f 28//28 48//48 47//47 
f 25//25 74//74 27//27 
f 28//28 47//47 73//73 
f 75//75 76//76 81//81 
f 25//25 29//29 74//74 
f 81//81 76//76 50//50 
f 50//50 76//76 77//77 
f 14//14 30//30 25//25 
f 31//31 30//30 32//32 
f 32//32 18//18 55//55 
f 55//55 18//18 53//53 
f 32//32 30//30 18//18 
f 55//55 33//33 32//32 
f 17//17 40//40 36//36 
f 39//39 36//36 40//40 
f 35//35 39//39 78//78 
f 78//78 39//39 79//79 
f 35//35 36//36 39//39 
f 39//39 46//46 79//79 
f 38//38 37//37 46//46 
f 40//40 17//17 80//80 
f 80//80 49//49 40//40 
f 42//42 40//40 49//49 
f 40//40 42//42 41//41 
f 41//41 43//43 44//44 
f 45//45 44//44 52//52 
f 52//52 44//44 43//43 
f 41//41 42//42 43//43 
f 45//45 53//53 38//38 
f 45//45 58//58 53//53 
f 40//40 41//41 39//39 
f 46//46 45//45 38//38 
f 46//46 39//39 41//41 
f 41//41 44//44 46//46 
f 46//46 44//44 45//45 
f 80//80 82//82 49//49 
f 49//49 82//82 83//83 
f 51//51 84//84 54//54 
f 58//58 51//51 54//54 
f 42//42 49//49 51//51 
f 85//85 51//51 49//49 
f 53//53 58//58 57//57 
f 58//58 45//45 52//52 
f 42//42 51//51 43//43 
f 43//43 51//51 52//52 
f 58//58 52//52 51//51 
f 56//56 33//33 55//55 
f 77//77 87//87 86//86 
f 50//50 77//77 86//86 
f 88//88 58//58 54//54 
f 57//57 55//55 53//53 
f 57//57 56//56 55//55 
f 57//57 58//58 88//88 
