#
# The license for this database is specified in the Creative Commons Attribution-Share Alike 2.1 Japan. If you use data from this database, please be sure attribute this database as follows: "BodyParts3D, (c)  The Database Center for Life Science licensed under CC Attribution-Share Alike 2.1 Japan".
# http://dbarchive.biosciencedbc.jp/en/bodyparts3d/lic.html
#
#
# Compatibility version : 4.0
# File ID : FJ2932
# Representation ID : BP9587
# Build-up logic : FMA 3.0 part_of
# Concept ID : FMA8667
# English name : Left anterior segmental vein
# Bounds(mm): (78.209300,-129.268000,1250.490000)-(85.821600,-111.645000,1254.720000)
# Volume(cm3): 0.056000
#
v 78.5376 -128.439 1252.46
v 78.9845 -128.94 1252.48
v 78.9707 -128.322 1252.59
v 79.327 -128.027 1252.62
v 78.2093 -127.795 1251.86
v 78.2095 -128.471 1251.58
v 78.4114 -127.895 1250.93
v 78.4562 -126.978 1251.52
v 78.2627 -128.534 1252.25
v 78.4922 -128.126 1252.42
v 78.4057 -127.888 1252.28
v 78.6306 -128.612 1250.91
v 78.6877 -128.951 1252.28
v 79.1796 -128.917 1250.64
v 79.4037 -129.044 1250.86
v 79.4358 -128.579 1252.46
v 79.3527 -129.268 1252.11
v 79.5176 -129.216 1251.42
v 79.6246 -129.11 1250.94
v 79.8331 -128.277 1250.85
v 79.169 -128.496 1250.49
v 79.7182 -128.64 1252.24
v 80.0289 -128.484 1251.84
v 80.3454 -124.039 1252.87
v 80.9874 -121.257 1252.92
v 81.7018 -122.528 1251.13
v 81.0509 -122.084 1251.11
v 81.6997 -118.366 1252.41
v 81.9083 -118.626 1251.82
v 82.5975 -121.943 1252.08
v 82.9193 -119.999 1253.21
v 84.755 -116.039 1253.54
v 83.8572 -112.64 1254.48
v 84.6425 -113.476 1254.71
v 84.7599 -112.343 1254.72
v 84.7742 -111.924 1254.41
v 84.8857 -115.676 1252.77
v 83.6059 -112.64 1253.76
v 83.5817 -112.812 1253.2
v 84.0859 -111.957 1253.26
v 84.1524 -112.399 1252.79
v 84.2326 -111.771 1253.59
v 84.4131 -111.947 1252.96
v 84.3593 -113.208 1252.45
v 84.4991 -112.146 1252.75
v 84.3484 -111.817 1254.09
v 84.5191 -111.702 1253.4
v 84.6644 -111.645 1253.71
v 84.876 -111.88 1253
v 84.9533 -112.117 1252.8
v 84.8756 -111.702 1253.99
v 84.9842 -111.694 1253.51
v 85.1934 -112.997 1252.63
v 85.6452 -113.328 1254.22
v 85.2552 -113.501 1254.53
v 85.4288 -112.673 1254.59
v 85.2868 -112.157 1254.47
v 85.3935 -113.402 1252.79
v 85.8216 -113.189 1253.57
v 85.305 -111.976 1254.26
v 85.418 -111.895 1253.82
v 85.7483 -112.556 1253.2
v 85.5375 -112.124 1253.27
v 85.7988 -112.736 1254.15
v 85.6159 -112.286 1254.24
v 85.813 -112.396 1253.75
v 78.9845 -128.94 1252.48
v 78.2095 -128.471 1251.58
v 78.4114 -127.895 1250.93
v 78.2627 -128.534 1252.25
v 78.6306 -128.612 1250.91
v 78.6306 -128.612 1250.91
v 78.6877 -128.951 1252.28
v 78.6877 -128.951 1252.28
v 79.1796 -128.917 1250.64
v 79.1796 -128.917 1250.64
v 79.3527 -129.268 1252.11
v 79.3527 -129.268 1252.11
v 79.5176 -129.216 1251.42
v 79.6246 -129.11 1250.94
v 79.169 -128.496 1250.49
v 80.9874 -121.257 1252.92
v 82.5975 -121.943 1252.08
v 83.8572 -112.64 1254.48
v 83.8572 -112.64 1254.48
v 84.7599 -112.343 1254.72
v 84.2326 -111.771 1253.59
v 84.3484 -111.817 1254.09
vn -0.426799 -0.156712 0.890665
vn -0.0104181 -0.315054 0.949017
vn -0.13536 -0.0970505 0.986032
vn 0.107424 -0.149126 0.982966
vn -0.965623 0.200283 0.165707
vn -0.974171 -0.0629982 -0.216846
vn -0.820403 0.160419 -0.548822
vn -0.909112 0.319928 -0.266762
vn -0.798416 -0.0309878 0.601309
vn -0.59222 0.0998563 0.799565
vn -0.728167 0.179968 0.66135
vn -0.843786 -0.24118 -0.479435
vn -0.479264 -0.412563 0.77466
vn -0.569217 -0.197663 -0.798074
vn -0.212721 -0.933733 -0.287912
vn 0.404818 -0.331315 0.852263
vn -0.282401 -0.838101 0.46673
vn -0.409678 -0.894143 -0.180754
vn -0.165811 -0.933004 -0.319391
vn 0.636109 -0.222674 -0.73877
vn -0.638674 -0.272517 -0.719604
vn 0.668523 -0.411763 0.619296
vn 0.849605 -0.481111 0.216109
vn -0.293641 0.045363 0.954839
vn -0.893303 0.273503 0.35666
vn 0.48535 -0.0674096 -0.871718
vn -0.251712 0.202189 -0.946446
vn -0.940131 0.339477 -0.0301549
vn -0.670461 0.332669 -0.663184
vn 0.837669 -0.268348 -0.47571
vn 0.456588 -0.283057 0.843449
vn 0.86339 -0.383225 0.328172
vn -0.301685 -0.0187822 0.953223
vn 0.0201097 -0.120545 0.992504
vn -0.380038 0.556028 0.739191
vn -0.0385718 0.736674 0.675147
vn 0.891123 -0.264565 -0.368654
vn -0.879745 0.458221 0.126817
vn -0.834409 0.41067 -0.367575
vn -0.658787 0.672755 -0.33675
vn -0.540863 0.422132 -0.727511
vn -0.792117 0.595977 0.131765
vn -0.319642 0.735267 -0.597672
vn -0.0821122 0.226169 -0.970621
vn -0.149177 0.518487 -0.841973
vn -0.766963 0.590819 0.2504
vn -0.177216 0.937366 -0.299897
vn -0.106061 0.992598 0.0591565
vn 0.159281 0.810006 -0.564376
vn 0.2845 0.448461 -0.847315
vn 0.158792 0.94475 0.286761
vn 0.28385 0.943013 -0.173656
vn 0.464346 0.1675 -0.86967
vn 0.824305 -0.262857 0.501426
vn 0.532978 -0.281012 0.798102
vn 0.541572 0.0566702 0.838742
vn 0.414434 0.524104 0.744016
vn 0.755855 -0.102813 -0.646617
vn 0.979249 -0.18324 -0.0865677
vn 0.45013 0.763368 0.463305
vn 0.614269 0.783734 0.0918394
vn 0.851043 0.165125 -0.498457
vn 0.640193 0.61309 -0.462897
vn 0.922808 0.035408 0.383629
vn 0.756315 0.466395 0.458762
vn 0.934197 0.356596 0.0107338
vn -0.282401 -0.838101 0.46673
vn -0.549006 -0.822291 -0.149764
vn -0.569217 -0.197663 -0.798074
vn -0.699977 -0.714067 -0.0118611
vn -0.490319 -0.119531 -0.863307
vn -0.511631 -0.851111 -0.117661
vn -0.282401 -0.838101 0.46673
vn -0.593988 -0.792462 -0.1385
vn -0.326661 -0.914001 -0.240613
vn 0.505525 -0.242179 -0.828127
vn 0.640299 -0.536342 0.549868
vn -0.486099 -0.845025 -0.222801
vn 0.790581 -0.6051 0.0940004
vn 0.828529 -0.387231 -0.404465
vn 0.203044 -0.0343878 -0.978566
vn -0.240486 -0.0451538 0.969602
vn 0.883084 -0.374787 0.282307
vn -0.855945 0.423147 0.297162
vn -0.389036 0.566371 0.72655
vn 0.111336 0.232331 0.966243
vn -0.339033 0.938639 -0.0633456
vn -0.252721 0.870818 0.421672
g grp1
usemtl mtl1
f 13//13 1//1 9//9 
f 1//1 24//24 10//10 
f 9//9 1//1 10//10 
f 2//2 1//1 13//13 
f 2//2 3//3 1//1 
f 1//1 3//3 24//24 
f 73//73 17//17 67//67 
f 2//2 4//4 3//3 
f 4//4 24//24 3//3 
f 2//2 77//77 16//16 
f 4//4 2//2 16//16 
f 24//24 4//4 31//31 
f 5//5 7//7 6//6 
f 5//5 8//8 7//7 
f 7//7 12//12 6//6 
f 7//7 8//8 29//29 
f 9//9 5//5 6//6 
f 11//11 5//5 9//9 
f 14//14 71//71 69//69 
f 21//21 14//14 69//69 
f 11//11 9//9 10//10 
f 72//72 18//18 68//68 
f 75//75 18//18 72//72 
f 24//24 11//11 10//10 
f 70//70 68//68 74//74 
f 74//74 68//68 78//78 
f 78//78 68//68 18//18 
f 18//18 75//75 15//15 
f 20//20 76//76 81//81 
f 19//19 18//18 15//15 
f 15//15 75//75 19//19 
f 81//81 26//26 20//20 
f 77//77 22//22 16//16 
f 16//16 31//31 4//4 
f 22//22 31//31 16//16 
f 77//77 79//79 23//23 
f 80//80 23//23 79//79 
f 80//80 76//76 20//20 
f 5//5 28//28 8//8 
f 8//8 28//28 29//29 
f 81//81 7//7 27//27 
f 81//81 27//27 26//26 
f 22//22 77//77 23//23 
f 23//23 80//80 30//30 
f 30//30 80//80 20//20 
f 30//30 20//20 26//26 
f 31//31 22//22 23//23 
f 23//23 83//83 31//31 
f 11//11 25//25 5//5 
f 82//82 11//11 24//24 
f 7//7 29//29 27//27 
f 5//5 25//25 28//28 
f 44//44 27//27 29//29 
f 27//27 44//44 26//26 
f 37//37 30//30 26//26 
f 83//83 37//37 32//32 
f 83//83 32//32 31//31 
f 31//31 82//82 24//24 
f 39//39 29//29 28//28 
f 41//41 44//44 29//29 
f 82//82 31//31 34//34 
f 34//34 31//31 55//55 
f 55//55 31//31 32//32 
f 82//82 34//34 33//33 
f 25//25 38//38 28//28 
f 84//84 38//38 25//25 
f 84//84 46//46 38//38 
f 88//88 85//85 36//36 
f 85//85 35//35 36//36 
f 51//51 88//88 36//36 
f 34//34 86//86 33//33 
f 86//86 57//57 36//36 
f 26//26 44//44 53//53 
f 37//37 26//26 58//58 
f 53//53 58//58 26//26 
f 32//32 37//37 59//59 
f 39//39 41//41 29//29 
f 28//28 38//38 39//39 
f 40//40 41//41 39//39 
f 40//40 39//39 38//38 
f 42//42 38//38 46//46 
f 40//40 38//38 42//42 
f 41//41 43//43 45//45 
f 41//41 40//40 43//43 
f 44//44 41//41 45//45 
f 48//48 87//87 88//88 
f 48//48 47//47 87//87 
f 47//47 40//40 87//87 
f 47//47 43//43 40//40 
f 45//45 49//49 50//50 
f 43//43 49//49 45//45 
f 44//44 45//45 50//50 
f 52//52 47//47 48//48 
f 49//49 43//43 47//47 
f 52//52 49//49 47//47 
f 53//53 44//44 50//50 
f 51//51 48//48 88//88 
f 51//51 52//52 48//48 
f 63//63 50//50 49//49 
f 52//52 63//63 49//49 
f 53//53 50//50 63//63 
f 55//55 32//32 54//54 
f 34//34 55//55 56//56 
f 56//56 86//86 34//34 
f 56//56 57//57 86//86 
f 36//36 60//60 51//51 
f 36//36 57//57 60//60 
f 54//54 56//56 55//55 
f 56//56 65//65 57//57 
f 60//60 57//57 65//65 
f 56//56 64//64 65//65 
f 56//56 54//54 64//64 
f 32//32 59//59 54//54 
f 59//59 37//37 58//58 
f 62//62 59//59 58//58 
f 51//51 61//61 52//52 
f 61//61 63//63 52//52 
f 53//53 62//62 58//58 
f 51//51 60//60 61//61 
f 61//61 66//66 63//63 
f 63//63 62//62 53//53 
f 54//54 59//59 64//64 
f 64//64 59//59 66//66 
f 64//64 66//66 65//65 
f 65//65 66//66 61//61 
f 60//60 65//65 61//61 
f 62//62 66//66 59//59 
f 63//63 66//66 62//62 
