#
# The license for this database is specified in the Creative Commons Attribution-Share Alike 2.1 Japan. If you use data from this database, please be sure attribute this database as follows: "BodyParts3D, (c)  The Database Center for Life Science licensed under CC Attribution-Share Alike 2.1 Japan".
# http://dbarchive.biosciencedbc.jp/en/bodyparts3d/lic.html
#
#
# Compatibility version : 4.0
# File ID : FJ2685
# Representation ID : BP9528
# Build-up logic : FMA 3.0 part_of
# Concept ID : FMA4713
# English name : Middle cardiac vein
# Bounds(mm): (22.838800,-149.457000,1177.530000)-(32.227000,-141.671000,1179.230000)
# Volume(cm3): 0.005300
#
v 22.8388 -141.973 1178.78
v 22.8955 -142.291 1178.78
v 22.9167 -142.162 1178.59
v 23.0944 -142.475 1178.78
v 23.1063 -142.344 1178.55
v 23.1517 -141.984 1178.44
v 23.1862 -141.789 1178.58
v 23.3315 -142.407 1178.57
v 23.3589 -142.503 1178.76
v 23.3626 -141.671 1178.77
v 22.8513 -142.166 1178.98
v 22.8741 -141.971 1178.99
v 23.0799 -142.438 1178.98
v 23.0917 -142.168 1179.21
v 23.1055 -141.73 1178.96
v 23.3455 -142.486 1178.97
v 23.3304 -142.358 1179.15
v 23.3305 -141.969 1179.22
v 23.5532 -142.173 1179.23
v 23.9422 -141.738 1178.95
v 24.872 -142.602 1178.38
v 24.8688 -142.64 1178.59
v 25.0837 -142.724 1178.38
v 25.1153 -142.761 1178.58
v 25.3428 -142.972 1178.39
v 25.6046 -143.16 1178.59
v 24.0836 -142.483 1178.59
v 24.0838 -142.183 1178.28
v 24.2519 -142.509 1178.78
v 24.2565 -142.379 1178.36
v 24.5654 -142.557 1178.58
v 24.6793 -142.527 1178.77
v 24.8919 -142.565 1178.78
v 24.85 -142.376 1178.17
v 24.7678 -142.375 1178.96
v 24.8061 -141.995 1178.2
v 24.7659 -141.812 1178.42
v 25.1753 -142.653 1178.17
v 25.048 -141.836 1178.59
v 25.0592 -141.969 1178.82
v 25.2643 -142.575 1178.86
v 25.2423 -142.368 1178.07
v 25.2816 -141.952 1178.38
v 25.4732 -142.039 1178.58
v 25.4838 -142.18 1178.78
v 24.8948 -142.172 1178.98
v 26.51 -144.365 1178.38
v 26.9533 -144.583 1178.55
v 27.0785 -144.265 1177.98
v 25.8985 -142.765 1177.98
v 25.8596 -142.698 1178.77
v 26.1322 -142.834 1178.07
v 26.354 -144.103 1178.58
v 26.2652 -143.718 1178.74
v 26.3149 -143.395 1178.76
v 26.471 -143.179 1178.59
v 26.8167 -143.58 1178.17
v 26.8332 -143.579 1178.58
v 26.9269 -144.176 1178.78
v 26.8744 -143.869 1178.76
v 26.8409 -143.504 1178.38
v 25.6551 -142.367 1178.1
v 25.8967 -142.419 1178.58
v 25.9108 -142.392 1178.37
v 27.2785 -144.817 1178.18
v 28.3662 -145.218 1177.97
v 28.541 -145.323 1178.19
v 28.4425 -144.765 1178.55
v 28.633 -145.154 1178.44
v 28.6707 -144.777 1177.75
v 28.6678 -144.532 1178.01
v 27.3315 -143.998 1178.17
v 27.3527 -144.192 1178.73
v 27.3346 -143.983 1178.55
v 29.381 -145.898 1178.01
v 29.852 -146.365 1177.98
v 29.6785 -145.965 1178.25
v 30.1009 -146.202 1178.3
v 30.2502 -146.522 1177.6
v 30.2942 -146.002 1178.28
v 28.8785 -144.765 1178.43
v 29.0785 -145.382 1178.38
v 29.3112 -145.785 1177.79
v 29.1654 -145.348 1177.62
v 29.6785 -145.565 1177.53
v 29.619 -145.539 1178.34
v 29.687 -145.165 1178.18
v 29.8397 -145.303 1177.8
v 30.4421 -145.842 1177.99
v 31.4836 -149.141 1178.17
v 31.5175 -149.128 1178.38
v 31.6859 -149.401 1178.17
v 31.6919 -149.383 1178.37
v 31.6656 -149.137 1177.92
v 31.8803 -149.457 1178.19
v 31.879 -149.349 1178
v 31.8613 -149.128 1177.87
v 31.8758 -149.144 1178.58
v 30.6785 -147.416 1177.78
v 31.2015 -148.523 1178.18
v 31.2819 -148.56 1177.95
v 31.4249 -148.398 1177.78
v 31.4785 -148.565 1178.53
v 31.7842 -148.01 1178.19
v 31.8183 -148.657 1177.84
v 31.8301 -148.655 1178.53
v 31.8901 -148.334 1177.98
v 30.6785 -147.165 1178.29
v 30.6785 -146.765 1177.54
v 30.8196 -146.382 1177.78
v 31.0537 -147.187 1178.34
v 31.317 -147.221 1177.79
v 31.3578 -147.161 1177.98
v 31.2516 -147.122 1178.19
v 32.0785 -149.395 1178.38
v 32.1099 -149.343 1178.18
v 32.059 -149.131 1177.95
v 32.227 -149.165 1178.38
v 32.2 -148.94 1178.18
v 32.2082 -148.965 1178.38
v 22.8388 -141.973 1178.78
v 22.8955 -142.291 1178.78
v 22.9167 -142.162 1178.59
v 22.9167 -142.162 1178.59
v 22.9167 -142.162 1178.59
v 23.0944 -142.475 1178.78
v 23.1517 -141.984 1178.44
v 23.3626 -141.671 1178.77
v 22.8513 -142.166 1178.98
v 22.8513 -142.166 1178.98
v 22.8741 -141.971 1178.99
v 22.8741 -141.971 1178.99
v 23.0917 -142.168 1179.21
v 23.1055 -141.73 1178.96
v 23.9422 -141.738 1178.95
v 25.1153 -142.761 1178.58
v 25.6046 -143.16 1178.59
v 25.1753 -142.653 1178.17
v 25.2643 -142.575 1178.86
v 25.2423 -142.368 1178.07
v 26.51 -144.365 1178.38
v 26.51 -144.365 1178.38
v 27.0785 -144.265 1177.98
v 25.8985 -142.765 1177.98
v 28.6678 -144.532 1178.01
v 27.3315 -143.998 1178.17
v 29.381 -145.898 1178.01
v 29.852 -146.365 1177.98
v 28.8785 -144.765 1178.43
v 29.6785 -145.565 1177.53
v 29.687 -145.165 1178.18
v 31.6859 -149.401 1178.17
v 31.6859 -149.401 1178.17
v 31.6919 -149.383 1178.37
v 31.6919 -149.383 1178.37
v 31.8803 -149.457 1178.19
v 31.8803 -149.457 1178.19
v 31.8758 -149.144 1178.58
v 31.8758 -149.144 1178.58
v 30.6785 -147.416 1177.78
v 31.4785 -148.565 1178.53
v 31.8901 -148.334 1177.98
v 30.6785 -147.165 1178.29
v 31.0537 -147.187 1178.34
v 31.317 -147.221 1177.79
v 32.0785 -149.395 1178.38
v 32.0785 -149.395 1178.38
v 32.0785 -149.395 1178.38
v 32.1099 -149.343 1178.18
v 32.227 -149.165 1178.38
v 32.2082 -148.965 1178.38
vn -0.994705 -0.0842306 -0.0588784
vn -0.710261 -0.687153 -0.152806
vn -0.958858 -0.173558 -0.224654
vn -0.429809 -0.835288 -0.342868
vn -0.390302 -0.577414 -0.717118
vn -0.229879 0.0617314 -0.971259
vn -0.31001 0.785941 -0.534967
vn -0.139006 -0.773344 -0.61856
vn -0.068716 -0.970588 -0.230732
vn -0.211794 0.903688 -0.372145
vn -0.692221 -0.573326 0.438324
vn -0.981681 0.102095 0.16087
vn -0.471081 -0.766455 0.436612
vn -0.270721 -0.396369 0.877269
vn -0.56109 0.818924 -0.120589
vn -0.0433783 -0.942216 0.332184
vn -0.0620032 -0.646784 0.760148
vn -0.0854162 0.418961 0.903978
vn 0.074306 -0.182174 0.980455
vn 0.114776 0.859011 0.498925
vn -0.401544 -0.839804 -0.365365
vn -0.316118 -0.937187 0.14748
vn -0.576506 -0.772068 -0.267491
vn -0.572359 -0.818778 -0.0448005
vn -0.720977 -0.692786 -0.0154692
vn -0.488702 -0.52619 0.695913
vn -0.0992206 -0.953254 -0.285414
vn -0.19268 -0.300117 -0.93424
vn -0.0267837 -0.976516 0.213774
vn -0.189576 -0.778859 -0.597863
vn -0.201946 -0.975525 -0.0870007
vn -0.1293 -0.885752 0.445786
vn -0.210127 -0.811739 0.544909
vn -0.300788 -0.511904 -0.804662
vn 0.0287099 -0.640134 0.767727
vn -0.0052495 0.525311 -0.850894
vn 0.0860424 0.930474 -0.35611
vn -0.580866 -0.667084 -0.466469
vn 0.290941 0.947072 0.135677
vn 0.321817 0.685589 0.652995
vn -0.279695 -0.713397 0.642523
vn -0.246542 -0.298131 -0.922136
vn 0.369455 0.844502 -0.387711
vn 0.53479 0.811509 0.235485
vn 0.462166 0.514905 0.721994
vn 0.210955 0.170877 0.962444
vn -0.598078 -0.745974 0.29296
vn -0.36359 -0.745553 0.558527
vn -0.394918 -0.390878 -0.831417
vn -0.281134 -0.242369 -0.928558
vn 0.232002 0.0799502 0.969424
vn 0.598094 0.534376 -0.597266
vn -0.558411 -0.561336 0.610801
vn -0.286437 -0.235232 0.928773
vn 0.155087 0.142477 0.977573
vn 0.586561 0.489418 0.645303
vn 0.573741 0.563922 -0.593981
vn 0.604719 0.615989 0.50485
vn -0.0694967 -0.211058 0.975
vn 0.352569 0.380658 0.854865
vn 0.727458 0.686045 0.0121253
vn 0.332702 0.57674 -0.74611
vn 0.669293 0.594079 0.446226
vn 0.662271 0.721805 -0.200986
vn -0.455568 -0.809362 -0.370663
vn -0.481739 -0.793504 -0.371858
vn -0.394566 -0.87332 0.285708
vn 0.140212 -0.0514044 0.988786
vn -0.13457 -0.513053 0.847743
vn 0.114508 0.489688 -0.864346
vn 0.269625 0.702035 -0.659127
vn 0.567787 0.811081 -0.140586
vn 0.280294 0.300352 0.911715
vn 0.519812 0.758188 0.393632
vn -0.60475 -0.788166 -0.114332
vn -0.599386 -0.573792 0.558121
vn -0.382783 -0.506738 0.77246
vn -0.23497 -0.226322 0.945287
vn -0.475704 -0.408195 -0.779155
vn 0.388481 0.316638 0.865345
vn 0.333459 0.321506 0.88625
vn -0.214116 -0.491532 0.844127
vn -0.584581 -0.652021 -0.482839
vn -0.329996 -0.310489 -0.891459
vn -0.232688 -0.127321 -0.964181
vn 0.108662 -0.0309978 0.993595
vn 0.455446 0.389128 0.800717
vn 0.535663 0.70355 -0.466993
vn 0.753321 0.625993 0.201595
vn -0.838981 -0.521594 -0.155084
vn -0.740408 -0.387017 0.549558
vn -0.786823 -0.61175 0.0816766
vn -0.799635 -0.587443 0.124476
vn -0.480346 -0.468877 -0.74123
vn -0.200038 -0.851339 -0.484981
vn 0.0763796 -0.693133 -0.716752
vn 0.074522 -0.276983 -0.957981
vn -0.484844 -0.309409 0.818042
vn -0.856532 -0.507833 0.0919756
vn -0.901477 -0.391985 0.183539
vn -0.730619 -0.425827 -0.533729
vn -0.289937 -0.27285 -0.917327
vn -0.687529 -0.274455 0.672293
vn 0.861317 0.450673 0.234581
vn 0.393069 0.0433208 -0.918488
vn 0.400817 0.273051 0.874522
vn 0.888892 0.401631 -0.220372
vn -0.778489 -0.441071 0.446554
vn 0.163307 0.028444 -0.986165
vn 0.672561 0.497845 -0.547551
vn -0.0556019 0.0539916 0.996992
vn 0.533744 0.207576 -0.819774
vn 0.866067 0.498951 -0.031234
vn 0.667175 0.453968 0.590585
vn 0.431798 -0.887512 -0.160853
vn 0.457083 -0.775729 -0.435108
vn 0.641068 -0.163828 -0.749795
vn 0.963794 -0.228948 -0.136689
vn 0.953696 0.120915 -0.275399
vn 0.536589 0.200782 0.819609
vn -0.680999 0.635052 -0.364623
vn -0.970295 -0.174935 -0.167111
vn -0.653888 -0.590138 -0.473463
vn -0.386265 -0.230992 -0.892996
vn -0.675283 0.35805 -0.64482
vn -0.133222 -0.983697 0.120799
vn -0.645357 0.446464 -0.619825
vn 0.0605831 0.983601 0.169877
vn -0.998946 -0.0375171 0.0264393
vn -0.692151 0.0244164 0.72134
vn -0.710659 0.694829 0.110347
vn -0.518536 0.317592 0.793886
vn -0.570715 0.231412 0.787866
vn -0.132451 0.76979 0.624404
vn 0.231595 0.848431 0.47595
vn -0.358431 -0.751582 0.553761
vn -0.496429 -0.582802 0.643351
vn -0.316339 -0.307355 -0.897476
vn 0.0966488 -0.24514 0.964658
vn -0.00635166 0.307611 -0.951491
vn -0.460208 -0.448546 -0.766169
vn -0.727005 -0.606446 -0.322003
vn 0.258746 0.375521 -0.889963
vn 0.317432 0.389442 -0.864622
vn 0.467398 0.879782 0.086734
vn 0.187459 0.552314 -0.812286
vn -0.435323 -0.672836 0.598152
vn -0.689396 -0.627821 -0.36135
vn 0.470419 0.850475 0.235367
vn 0.408391 0.469671 -0.782704
vn 0.570528 0.820047 0.0449442
vn -0.440632 -0.695022 -0.568144
vn -0.279702 -0.955002 0.0986781
vn -0.477628 -0.359326 0.801721
vn -0.128641 -0.897398 0.422052
vn -0.162548 -0.961063 0.223462
vn 0.411138 -0.855518 -0.31473
vn -0.0446194 -0.651929 0.756966
vn 0.377811 -0.0034202 0.925876
vn -0.580692 -0.412242 -0.702035
vn -0.0299264 0.113914 0.99304
vn 0.691863 0.182995 -0.698454
vn -0.139918 -0.00151157 0.990162
vn 0.497726 0.363856 0.787323
vn 0.842161 0.437007 -0.315895
vn -0.0440487 -0.822049 0.56771
vn 0.840091 -0.542389 -0.00783111
vn 0.466163 -0.300969 0.831931
vn 0.910097 -0.325069 -0.257008
vn 0.493148 -0.128766 0.860363
vn 0.967137 0.254125 -0.00811776
g grp1
usemtl mtl1
f 2//2 13//13 11//11 
f 1//1 3//3 122//122 
f 122//122 129//129 1//1 
f 129//129 12//12 1//1 
f 5//5 4//4 2//2 
f 2//2 4//4 13//13 
f 123//123 5//5 2//2 
f 6//6 5//5 124//124 
f 121//121 127//127 125//125 
f 127//127 121//121 7//7 
f 121//121 131//131 15//15 
f 7//7 121//121 15//15 
f 5//5 28//28 8//8 
f 4//4 5//5 8//8 
f 8//8 9//9 4//4 
f 9//9 16//16 126//126 
f 126//126 16//16 13//13 
f 10//10 7//7 15//15 
f 37//37 7//7 10//10 
f 128//128 134//134 20//20 
f 8//8 28//28 30//30 
f 30//30 9//9 8//8 
f 5//5 6//6 28//28 
f 37//37 128//128 20//20 
f 27//27 9//9 30//30 
f 9//9 29//29 16//16 
f 7//7 36//36 6//6 
f 36//36 7//7 37//37 
f 13//13 14//14 11//11 
f 133//133 18//18 132//132 
f 130//130 133//133 132//132 
f 132//132 18//18 134//134 
f 13//13 16//16 17//17 
f 17//17 14//14 13//13 
f 17//17 16//16 35//35 
f 17//17 35//35 19//19 
f 14//14 17//17 19//19 
f 19//19 18//18 14//14 
f 20//20 134//134 18//18 
f 46//46 18//18 19//19 
f 46//46 20//20 18//18 
f 16//16 29//29 35//35 
f 21//21 38//38 23//23 
f 23//23 24//24 21//21 
f 21//21 24//24 22//22 
f 33//33 22//22 136//136 
f 25//25 23//23 38//38 
f 24//24 23//23 25//25 
f 41//41 33//33 136//136 
f 35//35 33//33 41//41 
f 24//24 25//25 26//26 
f 137//137 41//41 136//136 
f 51//51 139//139 26//26 
f 139//139 51//51 46//46 
f 27//27 30//30 31//31 
f 31//31 29//29 27//27 
f 27//27 29//29 9//9 
f 30//30 34//34 21//21 
f 31//31 30//30 21//21 
f 34//34 30//30 28//28 
f 36//36 28//28 6//6 
f 31//31 21//21 22//22 
f 22//22 32//32 31//31 
f 32//32 29//29 31//31 
f 35//35 29//29 32//32 
f 42//42 34//34 28//28 
f 140//140 28//28 36//36 
f 33//33 32//32 22//22 
f 32//32 33//33 35//35 
f 138//138 34//34 42//42 
f 38//38 21//21 34//34 
f 37//37 20//20 39//39 
f 135//135 40//40 39//39 
f 40//40 20//20 46//46 
f 139//139 46//46 35//35 
f 62//62 140//140 36//36 
f 43//43 62//62 36//36 
f 45//45 40//40 46//46 
f 43//43 36//36 37//37 
f 43//43 37//37 39//39 
f 39//39 44//44 43//43 
f 44//44 39//39 40//40 
f 64//64 44//44 63//63 
f 44//44 45//45 63//63 
f 44//44 64//64 43//43 
f 40//40 45//45 44//44 
f 46//46 19//19 35//35 
f 47//47 48//48 53//53 
f 47//47 65//65 48//48 
f 65//65 141//141 49//49 
f 59//59 53//53 48//48 
f 26//26 54//54 51//51 
f 138//138 42//42 50//50 
f 138//138 50//50 49//49 
f 62//62 144//144 140//140 
f 25//25 47//47 53//53 
f 142//142 25//25 38//38 
f 25//25 53//53 26//26 
f 53//53 54//54 26//26 
f 144//144 52//52 143//143 
f 144//144 62//62 52//52 
f 141//141 138//138 49//49 
f 55//55 51//51 54//54 
f 62//62 64//64 52//52 
f 53//53 59//59 54//54 
f 59//59 55//55 54//54 
f 59//59 60//60 55//55 
f 60//60 56//56 55//55 
f 56//56 51//51 55//55 
f 61//61 63//63 56//56 
f 56//56 63//63 51//51 
f 64//64 61//61 52//52 
f 63//63 61//61 64//64 
f 52//52 57//57 143//143 
f 57//57 52//52 61//61 
f 58//58 61//61 56//56 
f 58//58 56//56 60//60 
f 61//61 72//72 57//57 
f 57//57 146//146 143//143 
f 74//74 61//61 58//58 
f 74//74 58//58 60//60 
f 73//73 60//60 59//59 
f 72//72 61//61 74//74 
f 73//73 74//74 60//60 
f 51//51 63//63 45//45 
f 46//46 51//51 45//45 
f 64//64 62//62 43//43 
f 67//67 48//48 65//65 
f 84//84 65//65 49//49 
f 66//66 65//65 84//84 
f 67//67 65//65 66//66 
f 69//69 48//48 67//67 
f 48//48 69//69 59//59 
f 143//143 146//146 70//70 
f 68//68 73//73 59//59 
f 146//146 71//71 70//70 
f 84//84 143//143 70//70 
f 69//69 68//68 59//59 
f 145//145 72//72 74//74 
f 66//66 83//83 75//75 
f 66//66 75//75 67//67 
f 67//67 147//147 69//69 
f 83//83 66//66 84//84 
f 86//86 68//68 69//69 
f 74//74 73//73 81//81 
f 81//81 73//73 68//68 
f 76//76 77//77 147//147 
f 148//148 83//83 79//79 
f 148//148 75//75 83//83 
f 77//77 76//76 78//78 
f 79//79 85//85 109//109 
f 78//78 86//86 77//77 
f 76//76 108//108 78//78 
f 150//150 88//88 110//110 
f 150//150 110//110 109//109 
f 80//80 86//86 78//78 
f 111//111 78//78 163//163 
f 111//111 80//80 78//78 
f 89//89 87//87 80//80 
f 147//147 82//82 69//69 
f 82//82 86//86 69//69 
f 81//81 68//68 86//86 
f 145//145 74//74 149//149 
f 147//147 77//77 82//82 
f 79//79 83//83 84//84 
f 82//82 77//77 86//86 
f 85//85 84//84 70//70 
f 79//79 84//84 85//85 
f 149//149 151//151 145//145 
f 70//70 71//71 88//88 
f 145//145 151//151 88//88 
f 70//70 88//88 150//150 
f 87//87 81//81 86//86 
f 87//87 86//86 80//80 
f 151//151 89//89 88//88 
f 89//89 110//110 88//88 
f 90//90 91//91 100//100 
f 101//101 90//90 100//100 
f 90//90 92//92 93//93 
f 152//152 90//90 94//94 
f 90//90 93//93 91//91 
f 154//154 98//98 91//91 
f 94//94 101//101 102//102 
f 94//94 90//90 101//101 
f 91//91 103//103 100//100 
f 91//91 98//98 103//103 
f 152//152 96//96 95//95 
f 153//153 156//156 155//155 
f 94//94 97//97 96//96 
f 96//96 152//152 94//94 
f 97//97 94//94 102//102 
f 157//157 96//96 116//116 
f 116//116 115//115 157//157 
f 155//155 156//156 166//166 
f 97//97 117//117 96//96 
f 155//155 166//166 158//158 
f 117//117 97//97 105//105 
f 76//76 99//99 108//108 
f 160//160 102//102 101//101 
f 99//99 101//101 100//100 
f 100//100 108//108 99//99 
f 160//160 79//79 102//102 
f 102//102 79//79 109//109 
f 105//105 102//102 109//109 
f 108//108 100//100 103//103 
f 114//114 104//104 113//113 
f 113//113 104//104 107//107 
f 104//104 114//114 106//106 
f 97//97 102//102 105//105 
f 106//106 161//161 159//159 
f 119//119 107//107 104//104 
f 120//120 104//104 106//106 
f 119//119 104//104 171//171 
f 159//159 120//120 106//106 
f 162//162 117//117 105//105 
f 117//117 162//162 119//119 
f 79//79 160//160 148//148 
f 114//114 80//80 164//164 
f 89//89 80//80 114//114 
f 161//161 111//111 163//163 
f 110//110 89//89 113//113 
f 89//89 114//114 113//113 
f 161//161 106//106 111//111 
f 106//106 114//114 164//164 
f 112//112 109//109 110//110 
f 113//113 165//165 110//110 
f 112//112 162//162 105//105 
f 109//109 112//112 105//105 
f 107//107 165//165 113//113 
f 118//118 167//167 169//169 
f 96//96 117//117 116//116 
f 169//169 117//117 119//119 
f 169//169 119//119 118//118 
f 168//168 170//170 159//159 
f 118//118 119//119 171//171 
f 170//170 120//120 159//159 
