#
# The license for this database is specified in the Creative Commons Attribution-Share Alike 2.1 Japan. If you use data from this database, please be sure attribute this database as follows: "BodyParts3D, (c)  The Database Center for Life Science licensed under CC Attribution-Share Alike 2.1 Japan".
# http://dbarchive.biosciencedbc.jp/en/bodyparts3d/lic.html
#
#
# Compatibility version : 4.0
# File ID : FJ2686
# Representation ID : BP9528
# Build-up logic : FMA 3.0 part_of
# Concept ID : FMA4713
# English name : Middle cardiac vein
# Bounds(mm): (20.744300,-152.635000,1178.360000)-(28.117600,-141.658000,1180.490000)
# Volume(cm3): 0.006000
#
v 20.8971 -146.179 1179.58
v 20.7924 -145.972 1179.77
v 20.7587 -145.741 1179.58
v 20.7443 -145.565 1179.78
v 20.8594 -145.124 1179.38
v 20.7553 -145.193 1179.59
v 20.7881 -145.17 1179.77
v 20.8051 -144.951 1179.58
v 21.0457 -146.565 1179.78
v 20.9088 -145.97 1179.96
v 21.3313 -146.199 1180.1
v 21.2785 -145.965 1179.29
v 21.4785 -146.765 1180.08
v 21.881 -146.598 1179.39
v 21.7352 -146.311 1179.97
v 21.8588 -146.313 1179.76
v 21.8705 -147.138 1179.3
v 20.9271 -145.775 1179.36
v 20.8842 -145.359 1179.96
v 20.8878 -144.898 1179.78
v 21.0752 -144.972 1179.97
v 20.9549 -144.553 1179.58
v 21.0449 -144.371 1179.38
v 21.0863 -145.56 1180.07
v 21.1357 -144.975 1179.17
v 21.1051 -144.497 1179.77
v 21.2785 -145.565 1179.27
v 21.2972 -145.599 1180.05
v 21.2866 -145.154 1180
v 21.312 -144.534 1179.89
v 21.531 -145.78 1179.56
v 21.5197 -145.527 1179.56
v 21.5319 -145.573 1179.77
v 21.4785 -144.965 1179.2
v 21.7 -144.873 1179.56
v 21.6691 -144.412 1179.79
v 22.1701 -144.034 1179.35
v 22.2416 -143.257 1178.67
v 21.394 -143.763 1179.38
v 21.6081 -143.561 1178.98
v 21.7581 -143.599 1179.58
v 21.8876 -143.761 1179.65
v 22.0687 -142.964 1179.36
v 22.1886 -143.91 1178.98
v 22.0725 -143.82 1179.58
v 22.1016 -142.749 1178.99
v 22.2785 -142.979 1179.46
v 23.9116 -150.637 1179.94
v 24.0795 -149.406 1179.97
v 22.6239 -148.092 1179.95
v 22.6704 -147.766 1179.22
v 22.9645 -148.765 1179.58
v 22.9598 -147.965 1179.98
v 22.8179 -147.505 1179.41
v 23.0601 -148.566 1179.29
v 23.058 -147.953 1179.28
v 23.0434 -147.742 1179.79
v 23.2785 -148.765 1180.02
v 23.3138 -148.643 1179.26
v 23.4183 -148.139 1179.58
v 23.6785 -148.965 1180.07
v 23.6629 -148.768 1179.37
v 23.7037 -148.575 1179.78
v 23.8785 -148.842 1179.58
v 22.462 -143.183 1179.47
v 23.0952 -142.859 1178.98
v 22.8489 -142.199 1178.42
v 22.8093 -141.965 1178.61
v 22.8622 -141.84 1178.79
v 23.0818 -141.736 1178.59
v 23.0856 -141.68 1178.79
v 23.2171 -142.415 1178.42
v 23.2734 -141.972 1178.36
v 23.2801 -141.658 1178.77
v 23.4427 -142.45 1178.63
v 23.5471 -142.373 1178.79
v 23.651 -142.168 1178.77
v 23.586 -141.983 1178.59
v 23.6461 -141.973 1178.79
v 23.4555 -141.771 1178.59
v 23.521 -141.778 1178.78
v 22.483 -142.313 1178.99
v 22.6145 -142.381 1179.18
v 22.8544 -142.403 1179.25
v 22.9506 -142.153 1179.17
v 22.864 -141.932 1178.99
v 23.0708 -142.588 1179.18
v 23.0721 -142.185 1179.2
v 23.0741 -141.785 1179.01
v 23.2705 -141.985 1179.18
v 23.2831 -141.717 1178.97
v 23.5755 -142.184 1178.98
v 23.5719 -141.957 1178.97
v 25.2998 -152.204 1180.18
v 25.5198 -152.288 1179.97
v 24.3551 -151.365 1179.98
v 24.4791 -151.094 1180.28
v 24.7857 -151.761 1180.18
v 24.6785 -150.618 1179.78
v 25.0642 -152.029 1179.98
v 25.0785 -151.765 1179.71
v 25.0785 -151.365 1179.71
v 25.2816 -151.954 1180.41
v 25.2785 -151.329 1180.18
v 25.4776 -151.761 1180.44
v 24.0785 -150.565 1179.52
v 24.2736 -150.312 1179.51
v 24.2785 -150.365 1180.23
v 24.4395 -150.165 1179.98
v 24.6864 -150.565 1179.98
v 25.8723 -152.496 1180.17
v 25.8667 -152.392 1180.37
v 26.2796 -152.574 1179.98
v 26.2786 -152.593 1180.18
v 26.2846 -152.368 1180.44
v 26.4733 -152.357 1179.72
v 26.6796 -152.635 1179.99
v 26.7006 -152.601 1180.18
v 26.7231 -152.354 1180.38
v 26.9148 -152.549 1179.78
v 25.8548 -152.13 1179.78
v 25.8775 -152.158 1180.49
v 26.0785 -151.873 1179.98
v 26.1133 -151.834 1180.18
v 26.2785 -152.165 1179.76
v 26.4287 -152.135 1180.41
v 26.6792 -151.966 1179.98
v 26.8421 -152.019 1180.18
v 27.049 -152.159 1180.28
v 27.1237 -151.975 1180.01
v 27.2763 -152.591 1179.98
v 27.5592 -152.37 1180.17
v 27.8785 -152.501 1179.78
v 27.8594 -152.447 1179.97
v 28.0525 -152.365 1179.78
v 27.4582 -152.165 1180.21
v 27.6785 -151.965 1179.56
v 27.6695 -151.98 1180.03
v 27.8785 -152.165 1179.48
v 27.856 -151.9 1179.78
v 28.1176 -152.165 1179.78
v 28.0785 -152.165 1179.99
v 20.7924 -145.972 1179.77
v 21.0457 -146.565 1179.78
v 21.0457 -146.565 1179.78
v 21.2785 -145.965 1179.29
v 21.8705 -147.138 1179.3
v 21.2785 -145.565 1179.27
v 21.2972 -145.599 1180.05
v 21.531 -145.78 1179.56
v 21.5319 -145.573 1179.77
v 21.5319 -145.573 1179.77
v 21.4785 -144.965 1179.2
v 21.6691 -144.412 1179.79
v 22.1701 -144.034 1179.35
v 22.0725 -143.82 1179.58
v 23.9116 -150.637 1179.94
v 24.0795 -149.406 1179.97
v 22.6239 -148.092 1179.95
v 22.9645 -148.765 1179.58
v 23.0601 -148.566 1179.29
v 23.2785 -148.765 1180.02
v 23.6785 -148.965 1180.07
v 23.6629 -148.768 1179.37
v 23.8785 -148.842 1179.58
v 22.462 -143.183 1179.47
v 23.0952 -142.859 1178.98
v 23.0856 -141.68 1178.79
v 23.2734 -141.972 1178.36
v 23.2734 -141.972 1178.36
v 23.2734 -141.972 1178.36
v 23.2801 -141.658 1178.77
v 23.5471 -142.373 1178.79
v 23.651 -142.168 1178.77
v 23.586 -141.983 1178.59
v 23.6461 -141.973 1178.79
v 23.6461 -141.973 1178.79
v 23.4555 -141.771 1178.59
v 23.4555 -141.771 1178.59
v 23.521 -141.778 1178.78
v 23.5719 -141.957 1178.97
v 23.5719 -141.957 1178.97
v 25.2998 -152.204 1180.18
v 24.3551 -151.365 1179.98
v 24.3551 -151.365 1179.98
v 24.4791 -151.094 1180.28
v 24.4791 -151.094 1180.28
v 24.4791 -151.094 1180.28
v 24.7857 -151.761 1180.18
v 25.0642 -152.029 1179.98
v 25.0785 -151.765 1179.71
v 25.0785 -151.365 1179.71
v 25.2785 -151.329 1180.18
v 25.2785 -151.329 1180.18
v 25.2785 -151.329 1180.18
v 24.0785 -150.565 1179.52
v 24.2736 -150.312 1179.51
v 24.2785 -150.365 1180.23
v 24.4395 -150.165 1179.98
v 24.6864 -150.565 1179.98
v 25.8723 -152.496 1180.17
v 26.2786 -152.593 1180.18
v 26.2846 -152.368 1180.44
v 26.7231 -152.354 1180.38
v 25.8548 -152.13 1179.78
v 26.0785 -151.873 1179.98
v 26.1133 -151.834 1180.18
v 26.6792 -151.966 1179.98
v 27.049 -152.159 1180.28
v 27.8785 -152.501 1179.78
v 27.8785 -152.501 1179.78
v 28.0525 -152.365 1179.78
v 27.6785 -151.965 1179.56
v 27.6785 -151.965 1179.56
v 27.6785 -151.965 1179.56
v 27.8785 -152.165 1179.48
v 27.856 -151.9 1179.78
v 28.1176 -152.165 1179.78
v 28.1176 -152.165 1179.78
v 28.1176 -152.165 1179.78
vn -0.81305 -0.381491 -0.43979
vn -0.959345 -0.271216 -0.0781018
vn -0.939039 -0.125965 -0.319905
vn -0.94831 -0.0100376 0.317187
vn -0.793562 0.0842488 -0.602629
vn -0.986932 0.100598 -0.125877
vn -0.910801 0.204471 0.358654
vn -0.959004 0.281145 -0.0356165
vn -0.670929 -0.535542 -0.512883
vn -0.637179 -0.161978 0.753502
vn 0.0189844 0.039651 0.999033
vn -0.246341 -0.0964513 -0.964372
vn -0.418302 -0.335544 0.844058
vn 0.536782 0.400828 -0.74243
vn 0.604443 0.364755 0.708238
vn 0.811356 0.584131 0.0221737
vn -0.584196 -0.435834 -0.684663
vn -0.505986 -0.16363 -0.846879
vn -0.653702 0.127077 0.746006
vn -0.771594 0.340484 0.537321
vn -0.346208 0.264068 0.900226
vn -0.864626 0.440568 0.2415
vn -0.889242 0.362231 -0.279352
vn -0.168801 0.0679938 0.983302
vn -0.291099 -0.0996994 -0.951484
vn -0.59595 0.455643 0.661236
vn -0.0928795 -0.129418 -0.987231
vn 0.730757 0.222149 0.645479
vn 0.292019 0.109497 0.950124
vn -0.0794822 0.287987 0.95433
vn 0.734644 0.211327 -0.644701
vn 0.908837 -0.15357 -0.387855
vn 0.846386 0.413135 -0.33608
vn 0.799874 -0.382978 -0.462092
vn 0.929606 -0.358207 0.0867154
vn 0.358032 0.0771322 0.930518
vn 0.798171 -0.597589 -0.076223
vn -0.0769412 -0.227112 -0.970824
vn -0.78854 0.562155 0.249371
vn -0.722929 0.295809 -0.624397
vn -0.361657 0.447037 0.818145
vn 0.152595 0.164384 0.974522
vn -0.557828 0.587771 0.585963
vn 0.606149 -0.579021 -0.545269
vn 0.736979 -0.294541 0.608364
vn -0.79527 0.605841 -0.0224105
vn -0.117829 0.368964 0.921945
vn -0.782625 -0.484053 -0.391397
vn 0.891754 0.428871 0.144375
vn -0.645077 -0.592983 0.48192
vn 0.0241988 0.0496332 -0.998474
vn -0.708746 -0.495043 -0.502605
vn 0.186843 0.150513 0.970791
vn 0.647538 0.583701 -0.489885
vn -0.68273 -0.479622 -0.551218
vn 0.464523 0.351642 -0.812752
vn 0.670176 0.542026 0.507023
vn -0.704974 -0.381901 0.597631
vn 0.0994192 -0.0304801 -0.994579
vn 0.782638 0.583718 -0.216219
vn -0.156821 0.0226042 0.987368
vn 0.312505 0.0867336 -0.945948
vn 0.776477 0.51871 0.357803
vn 0.697642 0.299972 -0.650624
vn 0.251135 0.0999128 0.962782
vn 0.755517 -0.65493 -0.0161476
vn -0.391184 0.201014 -0.898092
vn -0.689427 0.550176 -0.471165
vn -0.670941 0.73884 0.062881
vn -0.314285 0.782327 -0.537763
vn -0.360647 0.900191 -0.244111
vn 0.299313 -0.311332 -0.901933
vn -0.0681788 -0.117331 -0.99075
vn 0.221811 0.962461 -0.156427
vn 0.755119 -0.538283 -0.374227
vn 0.78082 -0.582876 -0.22489
vn 0.884912 -0.23842 -0.400109
vn 0.842968 0.0628356 -0.534282
vn 0.914007 0.28723 -0.286514
vn 0.209731 0.870279 -0.445676
vn 0.585974 0.775637 0.234567
vn -0.654619 0.647004 0.390972
vn -0.359263 0.532969 0.766077
vn 0.0452052 0.245379 0.968373
vn -0.248633 0.404183 0.880237
vn -0.5244 0.618444 0.585262
vn 0.480926 -0.190934 0.855719
vn 0.0334664 0.131319 0.990775
vn -0.35691 0.697554 0.621316
vn 0.188065 0.266728 0.945245
vn 0.198684 0.822294 0.533252
vn 0.783742 -0.227407 0.577958
vn 0.618917 0.598809 0.508301
vn -0.537551 -0.841093 -0.0600099
vn -0.355072 -0.751145 -0.556511
vn -0.630015 -0.551527 -0.546717
vn -0.62625 -0.350326 0.696478
vn -0.569801 -0.459234 0.681491
vn 0.845708 0.460452 -0.269744
vn -0.470688 -0.623458 -0.624301
vn -0.422448 -0.597383 -0.681668
vn 0.24831 0.106929 -0.962761
vn -0.352407 -0.360478 0.863635
vn 0.346311 0.674704 0.6518
vn 0.0768347 0.292445 0.953191
vn -0.716488 -0.493525 -0.49303
vn 0.173552 -0.0426832 -0.983899
vn 0.615645 0.413099 0.671067
vn 0.877852 0.477783 -0.0331677
vn 0.6174 0.497269 0.609541
vn -0.341146 -0.921915 -0.183553
vn -0.259697 -0.681419 0.68427
vn -0.220612 -0.874663 -0.431619
vn -0.13385 -0.990993 -0.00416531
vn -0.0208897 -0.651935 0.757987
vn -0.17625 -0.369419 -0.912396
vn -0.0305899 -0.992429 -0.118953
vn 0.098434 -0.83213 0.545774
vn 0.150789 -0.624742 0.766133
vn -0.0460946 -0.795648 -0.604003
vn -0.219178 -0.513065 -0.829895
vn -0.0533679 -0.132873 0.989695
vn 0.170494 0.533575 -0.82839
vn 0.305315 0.941379 -0.143483
vn -0.0849485 0.446533 -0.890726
vn 0.227547 0.442447 0.867446
vn -0.0447046 0.782562 -0.620965
vn 0.172886 0.86624 0.468763
vn 0.192333 0.169924 0.966506
vn 0.0291886 0.93532 0.352596
vn 0.151793 -0.970777 0.18588
vn 0.286607 -0.469797 0.834954
vn 0.0472805 -0.955932 -0.289756
vn 0.456905 -0.724859 0.515575
vn 0.766325 -0.56217 0.310982
vn 0.204524 0.376959 0.903367
vn -0.18859 0.875647 -0.444608
vn 0.174676 0.754346 0.632811
vn 0.157592 -0.334414 -0.929156
vn 0.263655 0.93809 0.224662
vn 0.757894 -0.246678 -0.603942
vn 0.692736 0.11541 0.711897
vn -0.822216 -0.22182 0.524172
vn -0.916622 -0.392636 -0.075109
vn -0.695369 -0.430609 0.575358
vn 0.5481 0.172608 -0.818409
vn 0.0414219 0.0447546 -0.998139
vn 0.761578 -0.104413 -0.639607
vn 0.1885 0.100893 0.976877
vn 0.997846 0.045148 -0.0475904
vn 0.735131 0.181019 0.65331
vn 0.991165 -0.114794 0.0664395
vn 0.179191 -0.302261 -0.936231
vn 0.842585 -0.195152 0.501962
vn 0.710736 -0.329148 0.621704
vn 0.354332 0.0181631 0.934943
vn -0.703706 -0.307261 0.640616
vn 0.618754 0.360944 0.697755
vn -0.0621208 -0.0559095 0.996501
vn -0.681582 -0.521922 0.512877
vn -0.182646 -0.178647 -0.966812
vn -0.101263 0.0268366 0.994498
vn 0.573932 0.412279 0.707551
vn 0.711871 0.382613 -0.588937
vn 0.875215 0.471099 0.109838
vn 0.679508 -0.327066 0.656732
vn 0.697269 -0.450137 0.557847
vn -0.285024 0.891588 0.351898
vn -0.149388 0.61154 -0.776983
vn 0.567958 -0.174552 -0.804335
vn 0.552967 0.344166 -0.7588
vn -0.0832902 0.954018 0.287946
vn 0.806151 -0.472081 0.356736
vn 0.920347 -0.21268 0.32822
vn 0.552967 0.344166 -0.7588
vn 0.932504 0.00890333 0.361051
vn 0.803969 0.526748 0.27599
vn 0.552967 0.344166 -0.7588
vn 0.822311 0.506809 -0.258745
vn 0.818742 0.510148 -0.263457
vn 0.92864 0.0186157 0.370514
vn 0.559562 0.0177196 0.828599
vn -0.455792 -0.688348 0.564297
vn -0.672223 -0.394672 0.626379
vn -0.683577 -0.729275 0.0296822
vn -0.0621954 0.0624195 0.99611
vn -0.157041 0.000235563 0.987592
vn 0.271998 0.588209 0.761595
vn -0.667063 -0.741642 0.0706649
vn -0.615152 -0.788347 -0.00987087
vn 0.137484 -0.0319506 -0.989989
vn 0.687929 0.592364 -0.419354
vn 0.609978 0.606341 0.510174
vn 0.161774 0.117068 0.979859
vn 0.66631 0.691165 -0.279861
vn -0.00161187 -0.130979 -0.991384
vn 0.696653 0.290104 -0.656135
vn -0.0472995 0.0607874 0.997029
vn 0.634274 0.350651 0.689014
vn 0.819579 0.544998 -0.176825
vn -0.314798 -0.842575 0.437002
vn -0.100864 -0.795743 0.597177
vn 0.131757 0.0347411 0.990673
vn 0.190316 0.0801534 0.978445
vn 0.116584 0.274961 -0.954361
vn 0.38677 0.886403 -0.254359
vn 0.338397 0.773371 0.536083
vn 0.106046 0.993753 0.034774
vn 0.172895 0.770753 0.613227
vn 0.421812 -0.860604 0.285368
vn 0.253795 -0.644253 -0.721475
vn 0.626455 -0.430148 -0.650021
vn -0.0667878 0.995919 -0.0607039
vn -0.1683 0.216724 -0.961616
vn 0.461383 0.686443 -0.562069
vn 0.540696 0.65449 -0.528479
vn 0.540696 0.65449 -0.528479
vn 0.936334 -0.304757 0.174363
vn 0.615445 0.617014 -0.490429
vn 0.706443 0.695437 0.131553
g grp1
usemtl mtl1
f 3//3 18//18 1//1 
f 1//1 2//2 3//3 
f 2//2 4//4 3//3 
f 10//10 4//4 143//143 
f 5//5 25//25 18//18 
f 3//3 5//5 18//18 
f 10//10 19//19 4//4 
f 3//3 6//6 5//5 
f 3//3 4//4 6//6 
f 4//4 7//7 6//6 
f 19//19 7//7 4//4 
f 5//5 6//6 8//8 
f 6//6 7//7 8//8 
f 7//7 20//20 8//8 
f 7//7 19//19 20//20 
f 5//5 8//8 23//23 
f 1//1 17//17 9//9 
f 144//144 2//2 1//1 
f 143//143 145//145 10//10 
f 17//17 1//1 18//18 
f 145//145 13//13 10//10 
f 10//10 13//13 11//11 
f 12//12 18//18 27//27 
f 27//27 18//18 25//25 
f 11//11 24//24 10//10 
f 9//9 17//17 52//52 
f 17//17 18//18 12//12 
f 148//148 31//31 146//146 
f 145//145 160//160 13//13 
f 53//53 11//11 13//13 
f 146//146 14//14 147//147 
f 146//146 31//31 14//14 
f 31//31 33//33 14//14 
f 151//151 15//15 16//16 
f 151//151 28//28 15//15 
f 11//11 15//15 149//149 
f 52//52 17//17 55//55 
f 15//15 11//11 53//53 
f 33//33 16//16 14//14 
f 57//57 16//16 15//15 
f 14//14 16//16 54//54 
f 24//24 19//19 10//10 
f 25//25 5//5 40//40 
f 21//21 19//19 24//24 
f 20//20 19//19 21//21 
f 23//23 40//40 5//5 
f 20//20 21//21 26//26 
f 8//8 22//22 23//23 
f 8//8 20//20 22//22 
f 26//26 39//39 22//22 
f 26//26 22//22 20//20 
f 23//23 22//22 39//39 
f 11//11 149//149 24//24 
f 149//149 29//29 24//24 
f 29//29 21//21 24//24 
f 30//30 26//26 21//21 
f 29//29 30//30 21//21 
f 39//39 26//26 41//41 
f 41//41 26//26 30//30 
f 32//32 31//31 148//148 
f 34//34 32//32 148//148 
f 153//153 27//27 25//25 
f 29//29 28//28 151//151 
f 153//153 25//25 38//38 
f 38//38 25//25 40//40 
f 29//29 36//36 30//30 
f 150//150 32//32 152//152 
f 32//32 34//34 35//35 
f 32//32 35//35 152//152 
f 152//152 35//35 154//154 
f 151//151 36//36 29//29 
f 45//45 154//154 35//35 
f 44//44 153//153 38//38 
f 34//34 44//44 35//35 
f 36//36 42//42 30//30 
f 36//36 156//156 42//42 
f 37//37 35//35 44//44 
f 45//45 35//35 155//155 
f 23//23 39//39 40//40 
f 41//41 30//30 42//42 
f 39//39 46//46 40//40 
f 43//43 39//39 41//41 
f 43//43 46//46 39//39 
f 156//156 65//65 42//42 
f 42//42 47//47 41//41 
f 47//47 43//43 41//41 
f 45//45 155//155 166//166 
f 65//65 47//47 42//42 
f 43//43 47//47 83//83 
f 46//46 43//43 82//82 
f 52//52 106//106 48//48 
f 157//157 58//58 160//160 
f 196//196 161//161 59//59 
f 106//106 52//52 55//55 
f 97//97 58//58 157//157 
f 59//59 107//107 196//196 
f 186//186 61//61 162//162 
f 59//59 62//62 107//107 
f 164//164 64//64 197//197 
f 197//197 64//64 99//99 
f 99//99 165//165 49//49 
f 51//51 161//161 147//147 
f 13//13 160//160 50//50 
f 13//13 159//159 53//53 
f 51//51 147//147 14//14 
f 160//160 58//58 50//50 
f 53//53 57//57 15//15 
f 161//161 51//51 59//59 
f 162//162 61//61 53//53 
f 59//59 51//51 56//56 
f 53//53 159//159 162//162 
f 54//54 56//56 14//14 
f 14//14 56//56 51//51 
f 57//57 53//53 163//163 
f 56//56 62//62 59//59 
f 56//56 54//54 60//60 
f 63//63 57//57 163//163 
f 164//164 56//56 60//60 
f 57//57 63//63 60//60 
f 60//60 64//64 164//164 
f 63//63 165//165 60//60 
f 158//158 63//63 163//163 
f 49//49 165//165 63//63 
f 16//16 60//60 54//54 
f 57//57 60//60 16//16 
f 67//67 38//38 40//40 
f 38//38 72//72 44//44 
f 72//72 38//38 67//67 
f 44//44 72//72 75//75 
f 37//37 44//44 75//75 
f 66//66 37//37 75//75 
f 66//66 75//75 76//76 
f 92//92 167//167 173//173 
f 155//155 87//87 166//166 
f 84//84 47//47 65//65 
f 84//84 83//83 47//47 
f 87//87 84//84 65//65 
f 92//92 87//87 167//167 
f 87//87 155//155 167//167 
f 40//40 46//46 68//68 
f 67//67 40//40 68//68 
f 46//46 69//69 68//68 
f 82//82 69//69 46//46 
f 69//69 82//82 86//86 
f 67//67 68//68 70//70 
f 69//69 70//70 68//68 
f 70//70 69//69 71//71 
f 69//69 86//86 89//89 
f 168//168 69//69 89//89 
f 73//73 72//72 67//67 
f 70//70 169//169 67//67 
f 80//80 169//169 70//70 
f 80//80 70//70 74//74 
f 70//70 71//71 74//74 
f 172//172 168//168 91//91 
f 168//168 89//89 91//91 
f 170//170 78//78 72//72 
f 72//72 78//78 75//75 
f 171//171 178//178 175//175 
f 80//80 74//74 81//81 
f 93//93 81//81 91//91 
f 91//91 81//81 74//74 
f 76//76 75//75 77//77 
f 173//173 174//174 92//92 
f 75//75 78//78 77//77 
f 77//77 78//78 79//79 
f 174//174 176//176 92//92 
f 92//92 176//176 181//181 
f 79//79 78//78 180//180 
f 81//81 93//93 177//177 
f 180//180 78//78 179//179 
f 82//82 83//83 86//86 
f 82//82 43//43 83//83 
f 85//85 86//86 83//83 
f 84//84 85//85 83//83 
f 85//85 84//84 88//88 
f 89//89 86//86 85//85 
f 84//84 87//87 88//88 
f 90//90 85//85 88//88 
f 90//90 88//88 87//87 
f 90//90 89//89 85//85 
f 90//90 91//91 89//89 
f 93//93 91//91 90//90 
f 92//92 182//182 90//90 
f 87//87 92//92 90//90 
f 100//100 101//101 95//95 
f 94//94 190//190 95//95 
f 95//95 111//111 94//94 
f 112//112 183//183 201//201 
f 95//95 101//101 121//121 
f 101//101 96//96 106//106 
f 96//96 48//48 106//106 
f 184//184 97//97 157//157 
f 184//184 98//98 97//97 
f 101//101 100//100 96//96 
f 185//185 190//190 189//189 
f 98//98 103//103 97//97 
f 191//191 196//196 107//107 
f 105//105 187//187 103//103 
f 105//105 104//104 188//188 
f 110//110 108//108 193//193 
f 194//194 198//198 186//186 
f 189//189 190//190 94//94 
f 183//183 103//103 98//98 
f 102//102 191//191 107//107 
f 99//99 192//192 197//197 
f 195//195 99//99 200//200 
f 112//112 103//103 183//183 
f 103//103 112//112 122//122 
f 103//103 122//122 105//105 
f 99//99 195//195 192//192 
f 205//205 191//191 102//102 
f 205//205 102//102 123//123 
f 192//192 195//195 206//206 
f 105//105 126//126 104//104 
f 163//163 108//108 158//158 
f 186//186 198//198 61//61 
f 109//109 99//99 49//49 
f 108//108 199//199 158//158 
f 99//99 109//109 200//200 
f 110//110 199//199 108//108 
f 111//111 95//95 113//113 
f 95//95 116//116 113//113 
f 114//114 111//111 113//113 
f 202//202 112//112 201//201 
f 112//112 202//202 115//115 
f 116//116 205//205 125//125 
f 116//116 95//95 121//121 
f 115//115 122//122 112//112 
f 126//126 122//122 203//203 
f 113//113 120//120 117//117 
f 117//117 114//114 113//113 
f 120//120 113//113 116//116 
f 117//117 118//118 114//114 
f 118//118 115//115 202//202 
f 115//115 118//118 119//119 
f 204//204 126//126 203//203 
f 126//126 204//204 129//129 
f 139//139 120//120 116//116 
f 139//139 116//116 125//125 
f 120//120 131//131 117//117 
f 131//131 118//118 117//117 
f 136//136 129//129 204//204 
f 126//126 105//105 122//122 
f 125//125 205//205 123//123 
f 195//195 124//124 206//206 
f 126//126 207//207 104//104 
f 127//127 125//125 123//123 
f 124//124 208//208 206//206 
f 208//208 128//128 130//130 
f 124//124 128//128 208//208 
f 126//126 209//209 128//128 
f 126//126 128//128 207//207 
f 137//137 125//125 127//127 
f 130//130 213//213 208//208 
f 128//128 209//209 130//130 
f 118//118 131//131 132//132 
f 119//119 118//118 132//132 
f 132//132 136//136 204//204 
f 131//131 120//120 133//133 
f 210//210 134//134 131//131 
f 134//134 132//132 131//131 
f 120//120 139//139 211//211 
f 132//132 134//134 142//142 
f 132//132 142//142 136//136 
f 134//134 210//210 135//135 
f 139//139 212//212 211//211 
f 134//134 135//135 142//142 
f 212//212 139//139 141//141 
f 142//142 135//135 218//218 
f 209//209 136//136 130//130 
f 139//139 125//125 214//214 
f 136//136 138//138 130//130 
f 140//140 213//213 130//130 
f 217//217 216//216 215//215 
f 142//142 138//138 136//136 
f 140//140 130//130 138//138 
f 142//142 140//140 138//138 
f 216//216 217//217 219//219 
f 140//140 142//142 220//220 
