#
# The license for this database is specified in the Creative Commons Attribution-Share Alike 2.1 Japan. If you use data from this database, please be sure attribute this database as follows: "BodyParts3D, (c)  The Database Center for Life Science licensed under CC Attribution-Share Alike 2.1 Japan".
# http://dbarchive.biosciencedbc.jp/en/bodyparts3d/lic.html
#
#
# Compatibility version : 4.0
# File ID : FJ3063
# Representation ID : BP9523
# Build-up logic : FMA 3.0 part_of
# Concept ID : FMA8670
# English name : Right superior segmental vein
# Bounds(mm): (-34.363300,-75.891800,1210.630000)-(-25.570800,-58.853800,1227.770000)
# Volume(cm3): 0.100700
#
v -31.8992 -64.5263 1218.66
v -32.5439 -64.6173 1220.76
v -33.1477 -68.5693 1221.92
v -33.7166 -68.953 1223.04
v -34.0969 -70.8148 1224.6
v -30.1497 -62.1605 1215.6
v -30.47 -61.8839 1216.74
v -29.8571 -61.4108 1216.74
v -29.0684 -60.9797 1216.11
v -30.0262 -64.1305 1217.03
v -31.1759 -62.6682 1218.91
v -30.3609 -62.11 1218.39
v -29.6265 -62.0643 1218.18
v -31.3782 -63.0618 1217.74
v -30.8314 -63.0628 1219.94
v -30.2557 -65.2433 1218.84
v -29.7489 -63.782 1219.85
v -31.8323 -66.3377 1219.76
v -32.3249 -64.8734 1221.77
v -30.0439 -64.9493 1220.81
v -30.8183 -66.771 1220.59
v -32.4757 -69.6137 1222.24
v -32.2882 -67.5269 1224.1
v -31.5019 -65.7619 1222.75
v -33.525 -68.4599 1224.01
v -31.4385 -69.8417 1222.98
v -31.391 -68.7669 1224.32
v -34.2297 -74.0493 1225.47
v -34.3633 -74.5862 1225.96
v -33.9653 -74.6263 1225.37
v -34.191 -74.7223 1225.67
v -34.0978 -75.1922 1225.81
v -34.2752 -75.1643 1226.09
v -34.3206 -75.169 1226.67
v -34.0641 -75.4782 1226.15
v -33.5204 -74.9388 1225.28
v -33.7101 -75.6198 1225.93
v -33.8555 -75.7073 1226.5
v -33.0878 -75.663 1225.78
v -33.2965 -75.8918 1226.59
v -32.6486 -75.0403 1225.37
v -34.3536 -74.0338 1226.8
v -33.5794 -73.7514 1227.5
v -33.9827 -74.9034 1227.51
v -33.6804 -75.6323 1227.14
v -33.3952 -74.9802 1227.77
v -32.8543 -75.6372 1227.27
v -26.5726 -60.2123 1210.63
v -26.418 -60.8371 1211.64
v -25.5708 -60.0369 1211.2
v -25.6938 -60.324 1211.18
v -27.1712 -59.2437 1211.45
v -26.5499 -58.8538 1211.27
v -26.8379 -59.0532 1211.92
v -26.4923 -59.0194 1211.96
v -25.7891 -59.1071 1211.44
v -25.8277 -60.2826 1212.03
v -25.7616 -59.1175 1211.76
v -28.7275 -63.3194 1216.2
v -29.0473 -63.5874 1218.33
v -29.7659 -64.8053 1219.78
v -30.2856 -65.8678 1221.28
v -30.9269 -68.3243 1223.16
v -31.7942 -74.2544 1226.74
v -32.5795 -75.7169 1226.19
v -32.0602 -74.7746 1225.72
v -32.1442 -75.4025 1226.85
v -32.4354 -73.8908 1227.46
v -32.2932 -75.0986 1227.43
v -30.2557 -65.2433 1218.84
v -31.8323 -66.3377 1219.76
v -30.8183 -66.771 1220.59
v -32.2882 -67.5269 1224.1
v -31.4385 -69.8417 1222.98
v -33.0878 -75.663 1225.78
v -26.5726 -60.2123 1210.63
v -26.5726 -60.2123 1210.63
v -25.5708 -60.0369 1211.2
v -25.5708 -60.0369 1211.2
v -25.6938 -60.324 1211.18
v -25.6938 -60.324 1211.18
v -27.1712 -59.2437 1211.45
v -27.1712 -59.2437 1211.45
v -26.5499 -58.8538 1211.27
v -26.5499 -58.8538 1211.27
v -25.7891 -59.1071 1211.44
v -25.7891 -59.1071 1211.44
v -25.8277 -60.2826 1212.03
v -25.8277 -60.2826 1212.03
v -25.7616 -59.1175 1211.76
v -25.7616 -59.1175 1211.76
v -25.7616 -59.1175 1211.76
v -28.7275 -63.3194 1216.2
v -32.5795 -75.7169 1226.19
v -32.1442 -75.4025 1226.85
v -32.2932 -75.0986 1227.43
v -32.2932 -75.0986 1227.43
vn -0.777125 -0.237571 -0.582783
vn -0.913269 0.407261 0.00884029
vn -0.628695 -0.334827 -0.701879
vn -0.965 0.041468 -0.258952
vn -0.988092 0.151358 0.0276712
vn -0.860593 0.101008 -0.499176
vn -0.780485 0.611543 -0.129839
vn -0.468162 0.868008 0.16549
vn -0.0944156 0.916738 0.388171
vn -0.0115539 -0.82267 -0.568402
vn -0.602354 0.7698 0.211132
vn -0.170046 0.895254 0.411831
vn 0.274846 0.777687 0.565387
vn -0.902956 0.347024 -0.253465
vn 0.0438419 0.787462 0.614802
vn 0.230653 -0.817184 -0.528213
vn 0.723655 0.338486 0.601457
vn -0.459964 -0.477859 -0.748388
vn -0.451476 0.696238 0.558052
vn 0.940307 -0.0265053 0.339293
vn 0.290951 -0.670079 -0.682892
vn 0.0858355 -0.553092 -0.828686
vn -0.367065 0.579911 0.7273
vn 0.277511 0.589021 0.758974
vn -0.801176 0.424248 0.422054
vn 0.927475 -0.316268 -0.199411
vn 0.703628 0.292786 0.647444
vn -0.875868 -0.150339 -0.458534
vn -0.970679 -0.092233 -0.221982
vn -0.591022 -0.370857 -0.716351
vn -0.803909 -0.256381 -0.536655
vn -0.628928 -0.496104 -0.598607
vn -0.873601 -0.380641 -0.303207
vn -0.897493 -0.412444 0.156195
vn -0.692472 -0.677007 -0.249286
vn -0.259796 -0.520907 -0.813119
vn -0.368199 -0.799217 -0.475059
vn -0.533882 -0.845548 0.00435665
vn 0.072927 -0.652127 -0.754594
vn -0.0728414 -0.997337 -0.00366176
vn 0.364737 -0.562169 -0.742248
vn -0.920284 0.161658 0.356293
vn -0.369631 0.355576 0.858451
vn -0.690718 -0.166036 0.703805
vn -0.416923 -0.759168 0.499839
vn -0.0642973 -0.243099 0.967868
vn 0.227552 -0.830643 0.508186
vn -0.401425 -0.6124 -0.681047
vn 0.268464 -0.872206 -0.40888
vn 0.481948 0.0819901 -0.872355
vn 0.35331 -0.84897 -0.392964
vn -0.857212 0.200852 -0.474179
vn -0.470362 0.382521 -0.795259
vn -0.333261 0.922334 0.195542
vn 0.0918441 0.944717 0.31476
vn 0.375951 0.359403 -0.854102
vn 0.99181 0.0297137 0.124219
vn 0.138543 0.990149 0.0202659
vn 0.349547 -0.871287 -0.344494
vn 0.924315 -0.294161 0.243127
vn 0.8982 -0.437777 0.0398475
vn 0.948957 -0.314507 -0.0237773
vn 0.98547 -0.162904 0.0480657
vn 0.945664 -0.0676332 0.318034
vn 0.613603 -0.629064 -0.477251
vn 0.83931 -0.419139 -0.34624
vn 0.92287 -0.385093 0.00366672
vn 0.42222 0.249436 0.8715
vn 0.263231 -0.239224 0.934602
vn 0.786985 -0.603211 -0.129582
vn 0.271261 -0.744827 -0.609631
vn 0.875164 -0.4588 -0.15359
vn 0.2922 0.446956 0.845488
vn 0.472924 -0.511341 -0.717547
vn -0.0212549 -0.961163 -0.27516
vn -0.470362 0.382521 -0.795259
vn 0.434499 0.192436 -0.879875
vn 0.934615 0.134442 0.329272
vn 0.902983 -0.398064 0.161764
vn 0.509115 -0.159496 -0.845791
vn 0.861473 -0.482163 0.159319
vn -0.564752 0.824596 0.0331214
vn -0.470362 0.382521 -0.795259
vn 0.324335 0.398711 -0.857809
vn -0.1345 0.976783 0.166747
vn 0.204778 0.972363 0.112144
vn 0.99181 0.0297137 0.124219
vn 0.827525 -0.549321 0.115967
vn 0.898414 -0.0276597 0.438278
vn 0.99318 -0.0766876 -0.0878252
vn 0.431555 0.692845 0.577691
vn 0.881623 0.058306 0.468338
vn 0.804621 -0.591738 0.049301
vn 0.276811 -0.960614 0.0244053
vn 0.471675 -0.813377 0.3405
vn 0.852862 -0.0881835 0.514635
vn 0.524926 -0.69 0.498349
g grp1
usemtl mtl1
f 14//14 1//1 2//2 
f 1//1 4//4 2//2 
f 2//2 4//4 25//25 
f 4//4 5//5 25//25 
f 52//52 6//6 7//7 
f 7//7 8//8 82//82 
f 1//1 6//6 48//48 
f 7//7 6//6 14//14 
f 6//6 1//1 14//14 
f 11//11 8//8 7//7 
f 18//18 1//1 10//10 
f 16//16 71//71 10//10 
f 1//1 48//48 10//10 
f 16//16 10//10 59//59 
f 7//7 14//14 11//11 
f 11//11 12//12 8//8 
f 8//8 12//12 9//9 
f 9//9 12//12 13//13 
f 13//13 12//12 15//15 
f 12//12 11//11 15//15 
f 70//70 93//93 61//61 
f 71//71 21//21 22//22 
f 71//71 16//16 21//21 
f 70//70 61//61 72//72 
f 11//11 14//14 2//2 
f 11//11 2//2 19//19 
f 25//25 19//19 2//2 
f 15//15 11//11 19//19 
f 17//17 13//13 15//15 
f 24//24 17//17 15//15 
f 61//61 62//62 72//72 
f 17//17 27//27 20//20 
f 20//20 27//27 63//63 
f 20//20 63//63 62//62 
f 1//1 18//18 3//3 
f 22//22 3//3 18//18 
f 26//26 72//72 62//62 
f 62//62 63//63 26//26 
f 25//25 23//23 19//19 
f 24//24 15//15 19//19 
f 19//19 23//23 24//24 
f 1//1 3//3 4//4 
f 43//43 23//23 25//25 
f 73//73 27//27 24//24 
f 27//27 17//17 24//24 
f 22//22 36//36 3//3 
f 41//41 22//22 74//74 
f 41//41 36//36 22//22 
f 74//74 22//22 21//21 
f 3//3 28//28 4//4 
f 43//43 25//25 42//42 
f 4//4 29//29 5//5 
f 68//68 27//27 73//73 
f 68//68 73//73 43//43 
f 4//4 28//28 29//29 
f 42//42 25//25 5//5 
f 5//5 29//29 42//42 
f 3//3 31//31 28//28 
f 28//28 31//31 29//29 
f 29//29 34//34 42//42 
f 29//29 33//33 34//34 
f 30//30 3//3 36//36 
f 31//31 3//3 30//30 
f 30//30 32//32 31//31 
f 33//33 31//31 32//32 
f 29//29 31//31 33//33 
f 32//32 35//35 33//33 
f 35//35 38//38 34//34 
f 35//35 34//34 33//33 
f 36//36 32//32 30//30 
f 36//36 37//37 32//32 
f 37//37 38//38 35//35 
f 32//32 37//37 35//35 
f 45//45 34//34 38//38 
f 36//36 39//39 37//37 
f 41//41 39//39 36//36 
f 37//37 75//75 40//40 
f 40//40 38//38 37//37 
f 45//45 38//38 40//40 
f 74//74 66//66 41//41 
f 39//39 41//41 65//65 
f 75//75 94//94 40//40 
f 94//94 47//47 40//40 
f 42//42 34//34 44//44 
f 42//42 44//44 43//43 
f 46//46 68//68 43//43 
f 44//44 46//46 43//43 
f 46//46 44//44 45//45 
f 45//45 44//44 34//34 
f 40//40 47//47 45//45 
f 47//47 46//46 45//45 
f 53//53 76//76 83//83 
f 52//52 48//48 6//6 
f 77//77 84//84 56//56 
f 48//48 49//49 10//10 
f 85//85 55//55 86//86 
f 48//48 51//51 49//49 
f 50//50 77//77 56//56 
f 80//80 77//77 50//50 
f 78//78 87//87 57//57 
f 79//79 88//88 81//81 
f 81//81 88//88 93//93 
f 49//49 51//51 59//59 
f 82//82 54//54 85//85 
f 54//54 8//8 9//9 
f 82//82 8//8 54//54 
f 55//55 85//85 54//54 
f 55//55 54//54 9//9 
f 55//55 9//9 13//13 
f 10//10 49//49 59//59 
f 58//58 86//86 55//55 
f 87//87 90//90 57//57 
f 55//55 13//13 91//91 
f 13//13 17//17 91//91 
f 17//17 89//89 92//92 
f 93//93 88//88 60//60 
f 60//60 89//89 17//17 
f 93//93 60//60 61//61 
f 17//17 20//20 60//60 
f 60//60 20//20 61//61 
f 61//61 20//20 62//62 
f 26//26 63//63 66//66 
f 64//64 66//66 63//63 
f 63//63 27//27 64//64 
f 27//27 68//68 64//64 
f 66//66 65//65 41//41 
f 67//67 66//66 64//64 
f 66//66 67//67 65//65 
f 46//46 69//69 68//68 
f 96//96 67//67 64//64 
f 95//95 97//97 47//47 
f 94//94 95//95 47//47 
f 96//96 64//64 68//68 
f 46//46 47//47 69//69 
