#
# The license for this database is specified in the Creative Commons Attribution-Share Alike 2.1 Japan. If you use data from this database, please be sure attribute this database as follows: "BodyParts3D, (c)  The Database Center for Life Science licensed under CC Attribution-Share Alike 2.1 Japan".
# http://dbarchive.biosciencedbc.jp/en/bodyparts3d/lic.html
#
#
# Compatibility version : 4.0
# File ID : FJ3025
# Representation ID : BP10090
# Build-up logic : FMA 3.0 part_of
# Concept ID : FMA8663
# English name : Right posterior segmental vein
# Bounds(mm): (-56.236500,-81.698200,1314.100000)-(-44.440300,-74.238200,1334.540000)
# Volume(cm3): 0.089000
#
v -55.3885 -76.553 1316.11
v -55.0664 -76.7267 1315.49
v -56.1644 -75.8905 1315.36
v -56.2365 -75.4831 1315.35
v -55.8184 -76.231 1314.96
v -55.7952 -75.8203 1316.54
v -56.1397 -75.5039 1314.9
v -56.1161 -75.0614 1315.28
v -56.0604 -75.0687 1315.71
v -55.7199 -75.8422 1314.42
v -55.7946 -75.44 1314.41
v -55.8593 -74.8768 1314.85
v -55.8476 -74.6788 1315.24
v -55.8227 -74.6961 1315.67
v -55.4138 -74.9852 1317.01
v -55.2595 -76.2032 1314.46
v -55.4127 -75.4173 1314.15
v -55.4715 -75.0026 1314.35
v -55.5049 -74.5454 1314.84
v -55.4641 -74.3814 1315.61
v -55.2792 -74.5281 1316.52
v -54.2569 -76.6206 1315.54
v -52.4084 -77.0012 1320.6
v -51.6628 -76.7651 1320.22
v -51.4545 -76.8641 1324.08
v -51.6069 -76.0413 1324.51
v -54.9973 -75.7505 1314.14
v -55.0316 -75.3654 1314.1
v -55.0765 -74.9707 1314.27
v -55.1155 -74.4697 1314.78
v -55.1113 -74.2944 1315.2
v -55.0535 -74.2382 1315.66
v -54.8009 -74.3316 1316.8
v -54.5144 -76.059 1314.51
v -54.6159 -75.3089 1314.29
v -54.701 -74.5729 1314.77
v -54.689 -74.3457 1315.18
v -54.5618 -74.2526 1315.82
v -53.6013 -75.9215 1315.55
v -53.8898 -74.806 1315.4
v -53.9832 -74.4237 1316.09
v -52.5098 -75.3671 1317.35
v -54.0179 -74.2626 1317.46
v -51.6348 -74.7532 1323.2
v -48.9638 -78.6329 1329.1
v -47.9001 -79.5563 1328.66
v -47.483 -78.9374 1327.76
v -47.8418 -78.426 1330.7
v -46.8219 -80.5013 1332.17
v -46.9589 -80.1879 1332.3
v -47.0906 -79.7143 1332.14
v -50.9607 -77.1474 1323.47
v -51.3108 -75.1309 1324.33
v -50.6162 -75.5121 1325.57
v -50.3778 -77.4577 1324.44
v -50.1133 -77.1974 1323.59
v -49.9012 -75.0027 1324.97
v -49.7733 -75.3854 1325.91
v -49.4951 -76.2585 1323.2
v -49.2115 -75.7635 1323.73
v -49.7346 -75.2501 1323.19
v -48.8042 -75.7191 1325.16
v -49.0701 -77.7659 1328.97
v -48.6273 -76.8854 1328.61
v -50.7708 -74.8756 1324.61
v -51.0787 -74.5892 1323.4
v -50.8138 -74.591 1322.77
v -45.8423 -81.1224 1333.8
v -45.9593 -80.7208 1333.78
v -45.4429 -81.3637 1332.78
v -45.7344 -81.364 1333.29
v -45.1675 -81.6982 1333.89
v -45.2196 -81.0459 1334.54
v -44.899 -81.4644 1333.31
v -44.7536 -81.5947 1334.27
v -45.0356 -80.4502 1334.1
v -44.448 -81.3203 1333.8
v -44.6825 -80.8508 1332.95
v -44.4403 -80.9442 1334.29
v -44.441 -80.5635 1333.79
v -46.3944 -78.4792 1329.12
v -47.0293 -78.3307 1331.11
v -45.8726 -80.247 1333.67
v -47.2559 -77.5307 1329.64
v -51.6628 -76.7651 1320.22
v -51.4545 -76.8641 1324.08
v -54.9973 -75.7505 1314.14
v -54.5144 -76.059 1314.51
v -45.1675 -81.6982 1333.89
v -45.2196 -81.0459 1334.54
v -44.7536 -81.5947 1334.27
v -44.7536 -81.5947 1334.27
v -44.7536 -81.5947 1334.27
v -44.448 -81.3203 1333.8
v -44.448 -81.3203 1333.8
v -44.4403 -80.9442 1334.29
v -44.4403 -80.9442 1334.29
v -44.4403 -80.9442 1334.29
v -44.441 -80.5635 1333.79
v -44.441 -80.5635 1333.79
vn -0.576158 -0.804008 0.147014
vn -0.182444 -0.964086 -0.193009
vn -0.897194 -0.441547 0.00892999
vn -0.995166 0.0571006 0.0798998
vn -0.645162 -0.697191 -0.312556
vn -0.897929 -0.201188 0.391468
vn -0.912654 -0.0341732 -0.407303
vn -0.895244 0.436986 -0.0870688
vn -0.899676 0.329633 0.286228
vn -0.565886 -0.373901 -0.734827
vn -0.6977 0.155453 -0.69932
vn -0.739648 0.495683 -0.455213
vn -0.703292 0.700462 -0.121382
vn -0.747276 0.632723 0.203076
vn -0.796978 0.437437 0.416505
vn -0.0954013 -0.771585 -0.628932
vn -0.337776 0.0890971 -0.937
vn -0.420884 0.532468 -0.734394
vn -0.453616 0.799455 -0.393832
vn -0.487418 0.872083 0.0435389
vn -0.60916 0.73077 0.308057
vn 0.353295 -0.857989 -0.372877
vn -0.0745428 -0.996996 -0.021024
vn 0.681561 -0.616722 -0.393863
vn -0.456567 -0.889268 0.0273805
vn -0.870408 0.0641952 0.488128
vn -0.137778 -0.393545 -0.908922
vn 0.115459 0.163345 -0.97979
vn 0.051849 0.541687 -0.838979
vn -0.0423761 0.823302 -0.566019
vn -0.120993 0.96755 -0.221828
vn -0.153357 0.988075 0.0137384
vn -0.351507 0.913931 0.202911
vn 0.349674 -0.717226 -0.602757
vn 0.586274 0.185784 -0.788522
vn 0.401097 0.683868 -0.609463
vn 0.316288 0.884701 -0.342442
vn 0.188498 0.974964 -0.117954
vn 0.798059 -0.277211 -0.535029
vn 0.705037 0.525502 -0.476203
vn 0.498583 0.829211 -0.252635
vn 0.863158 0.193558 -0.466362
vn -0.0233473 0.998505 0.0494193
vn -0.533676 0.772243 0.344718
vn -0.863457 -0.377812 0.334215
vn -0.33306 -0.91454 -0.22954
vn 0.53399 -0.635119 -0.558103
vn -0.57248 0.497607 0.651655
vn -0.740552 -0.655306 0.148849
vn -0.85851 -0.266892 0.437869
vn -0.792776 0.127014 0.596133
vn -0.237796 -0.97031 -0.0441843
vn -0.690868 0.546912 0.472852
vn -0.577243 0.577974 0.576834
vn -0.288657 -0.934149 -0.209863
vn 0.210657 -0.908272 -0.361476
vn 0.319445 0.934807 0.155211
vn -0.0733569 0.876655 0.475494
vn 0.796996 -0.347828 -0.493775
vn 0.883209 0.276366 -0.378899
vn 0.683168 0.687082 -0.247384
vn 0.725569 0.683253 -0.0819463
vn -0.757551 0.27781 0.59071
vn -0.308819 0.746392 0.589517
vn -0.312392 0.855425 0.41311
vn -0.103466 0.978803 0.17675
vn 0.33159 0.940888 -0.06912
vn -0.758256 -0.504002 0.413557
vn -0.773175 0.0260971 0.633655
vn 0.00407589 -0.931189 -0.364514
vn -0.547799 -0.836563 -0.00886657
vn 0.0663525 -0.967781 -0.242894
vn -0.503753 0.0025332 0.863844
vn 0.471368 -0.791041 -0.389956
vn 0.43671 -0.880167 -0.185984
vn 0.153697 0.765746 0.624508
vn 0.606489 -0.715102 -0.347564
vn 0.850713 -0.25983 -0.456919
vn 0.32192 -0.183629 0.928789
vn 0.396131 0.791322 0.465715
vn 0.919299 0.203464 -0.336885
vn -0.128349 0.795685 0.591956
vn -0.486074 0.508278 0.710904
vn 0.403132 0.866574 0.294166
vn 0.209248 -0.960529 -0.183298
vn -0.821148 -0.439321 0.364299
vn 0.470612 -0.11236 -0.875157
vn 0.647568 -0.133631 -0.750199
vn -0.560997 -0.67842 0.474372
vn 0.32192 -0.183629 0.928789
vn -0.412298 -0.659396 0.628655
vn 0.32192 -0.183629 0.928789
vn 0.852594 -0.420194 0.310679
vn 0.852594 -0.420194 0.310679
vn 0.989811 -0.0114755 -0.141924
vn 0.315332 0.643577 0.697405
vn 0.852594 -0.420194 0.310679
vn 0.99992 -0.00937431 -0.00854128
vn 0.97802 0.0442439 -0.203761
vn 0.738122 0.674624 -0.00764051
g grp1
usemtl mtl1
f 5//5 2//2 1//1 
f 5//5 16//16 2//2 
f 1//1 2//2 23//23 
f 25//25 1//1 23//23 
f 7//7 10//10 5//5 
f 5//5 3//3 7//7 
f 3//3 4//4 7//7 
f 3//3 6//6 4//4 
f 7//7 4//4 8//8 
f 12//12 7//7 8//8 
f 16//16 5//5 10//10 
f 1//1 3//3 5//5 
f 6//6 3//3 1//1 
f 1//1 86//86 6//6 
f 86//86 26//26 6//6 
f 10//10 7//7 11//11 
f 26//26 15//15 6//6 
f 12//12 11//11 7//7 
f 9//9 8//8 4//4 
f 6//6 9//9 4//4 
f 6//6 15//15 9//9 
f 12//12 8//8 13//13 
f 8//8 9//9 14//14 
f 13//13 8//8 14//14 
f 9//9 15//15 14//14 
f 16//16 10//10 27//27 
f 27//27 10//10 17//17 
f 17//17 10//10 11//11 
f 12//12 18//18 11//11 
f 11//11 18//18 17//17 
f 18//18 12//12 19//19 
f 13//13 19//19 12//12 
f 14//14 15//15 21//21 
f 21//21 15//15 44//44 
f 19//19 13//13 20//20 
f 13//13 14//14 20//20 
f 14//14 21//21 20//20 
f 28//28 27//27 17//17 
f 28//28 17//17 29//29 
f 29//29 17//17 18//18 
f 30//30 29//29 18//18 
f 30//30 18//18 19//19 
f 30//30 19//19 31//31 
f 19//19 20//20 31//31 
f 31//31 20//20 32//32 
f 21//21 33//33 20//20 
f 20//20 33//33 32//32 
f 21//21 44//44 33//33 
f 16//16 22//22 2//2 
f 2//2 22//22 23//23 
f 16//16 34//34 22//22 
f 22//22 34//34 39//39 
f 39//39 24//24 22//22 
f 39//39 59//59 24//24 
f 22//22 85//85 23//23 
f 56//56 52//52 23//23 
f 23//23 52//52 25//25 
f 23//23 85//85 56//56 
f 24//24 59//59 56//56 
f 26//26 53//53 15//15 
f 54//54 53//53 26//26 
f 34//34 16//16 27//27 
f 88//88 87//87 35//35 
f 35//35 87//87 28//28 
f 36//36 35//35 29//29 
f 29//29 35//35 28//28 
f 36//36 29//29 30//30 
f 37//37 36//36 30//30 
f 37//37 30//30 31//31 
f 37//37 31//31 38//38 
f 31//31 32//32 38//38 
f 38//38 32//32 43//43 
f 32//32 33//33 43//43 
f 36//36 37//37 40//40 
f 41//41 40//40 37//37 
f 38//38 41//41 37//37 
f 41//41 38//38 67//67 
f 38//38 43//43 67//67 
f 35//35 39//39 88//88 
f 35//35 36//36 40//40 
f 41//41 61//61 40//40 
f 67//67 61//61 41//41 
f 35//35 40//40 39//39 
f 59//59 39//39 42//42 
f 39//39 40//40 42//42 
f 42//42 40//40 61//61 
f 43//43 33//33 66//66 
f 33//33 44//44 66//66 
f 43//43 66//66 67//67 
f 15//15 53//53 44//44 
f 46//46 71//71 49//49 
f 55//55 46//46 25//25 
f 56//56 46//46 55//55 
f 46//46 56//56 47//47 
f 46//46 45//45 25//25 
f 86//86 45//45 26//26 
f 45//45 63//63 26//26 
f 46//46 47//47 70//70 
f 71//71 46//46 70//70 
f 45//45 51//51 63//63 
f 63//63 51//51 48//48 
f 46//46 49//49 45//45 
f 48//48 51//51 83//83 
f 82//82 48//48 83//83 
f 49//49 50//50 45//45 
f 45//45 50//50 51//51 
f 47//47 56//56 59//59 
f 60//60 59//59 42//42 
f 42//42 61//61 60//60 
f 52//52 55//55 25//25 
f 63//63 54//54 26//26 
f 53//53 54//54 65//65 
f 55//55 52//52 56//56 
f 58//58 65//65 54//54 
f 64//64 58//58 54//54 
f 58//58 57//57 65//65 
f 67//67 57//57 61//61 
f 59//59 60//60 81//81 
f 60//60 61//61 62//62 
f 57//57 62//62 61//61 
f 59//59 81//81 47//47 
f 81//81 60//60 62//62 
f 63//63 64//64 54//54 
f 63//63 48//48 64//64 
f 84//84 58//58 64//64 
f 48//48 82//82 64//64 
f 82//82 84//84 64//64 
f 58//58 84//84 57//57 
f 84//84 62//62 57//57 
f 44//44 53//53 65//65 
f 44//44 65//65 66//66 
f 66//66 57//57 67//67 
f 57//57 66//66 65//65 
f 49//49 68//68 50//50 
f 68//68 49//49 71//71 
f 50//50 69//69 51//51 
f 50//50 68//68 69//69 
f 73//73 83//83 69//69 
f 68//68 73//73 69//69 
f 51//51 69//69 83//83 
f 70//70 72//72 71//71 
f 71//71 89//89 68//68 
f 68//68 89//89 73//73 
f 70//70 74//74 72//72 
f 74//74 75//75 72//72 
f 89//89 91//91 73//73 
f 90//90 92//92 79//79 
f 70//70 47//47 74//74 
f 96//96 76//76 73//73 
f 76//76 83//83 73//73 
f 76//76 82//82 83//83 
f 47//47 78//78 74//74 
f 74//74 78//78 77//77 
f 93//93 94//94 97//97 
f 47//47 81//81 78//78 
f 96//96 80//80 76//76 
f 80//80 84//84 76//76 
f 74//74 77//77 75//75 
f 95//95 78//78 99//99 
f 95//95 99//99 98//98 
f 78//78 81//81 99//99 
f 62//62 84//84 81//81 
f 76//76 84//84 82//82 
f 84//84 100//100 81//81 
