#
# The license for this database is specified in the Creative Commons Attribution-Share Alike 2.1 Japan. If you use data from this database, please be sure attribute this database as follows: "BodyParts3D, (c)  The Database Center for Life Science licensed under CC Attribution-Share Alike 2.1 Japan".
# http://dbarchive.biosciencedbc.jp/en/bodyparts3d/lic.html
#
#
# Compatibility version : 4.0
# File ID : FJ3066
# Representation ID : BP9523
# Build-up logic : FMA 3.0 part_of
# Concept ID : FMA8670
# English name : Right superior segmental vein
# Bounds(mm): (-64.865300,-69.756400,1203.200000)-(-52.426300,-49.071200,1223.240000)
# Volume(cm3): 0.003000
#
v -63.2204 -49.2754 1203.51
v -64.6593 -50.3117 1203.52
v -64.6818 -50.6112 1203.52
v -63.67 -50.7287 1203.2
v -63.6277 -51.2679 1204.1
v -64.8653 -49.6893 1204.08
v -64.5363 -49.0712 1203.83
v -63.2515 -49.3208 1204.38
v -64.5123 -50.6978 1204.34
v -63.8351 -51.4007 1205.07
v -62.6795 -49.9497 1203.95
v -62.5689 -52.4333 1208.44
v -61.37 -50.8804 1207.08
v -61.8114 -51.3069 1208.39
v -61.3305 -53.8667 1208.54
v -60.2091 -54.2084 1208.91
v -58.5024 -54.4589 1210.78
v -60.2784 -56.0437 1211.84
v -59.5185 -55.9508 1210.88
v -57.4096 -55.8343 1213.8
v -56.7375 -58.1592 1213.85
v -59.0599 -57.1628 1215.11
v -56.2654 -60.5922 1215.16
v -56.9033 -62.3545 1216.47
v -57.3064 -62.5324 1218.08
v -56.1558 -61.1626 1218.71
v -54.6875 -63.2884 1217.49
v -54.724 -61.6881 1218.17
v -53.9177 -64.1208 1218.91
v -54.1482 -64.9248 1221.12
v -54.9614 -68.8701 1221.43
v -55.1554 -68.1042 1222.18
v -54.948 -67.8269 1222.5
v -53.9573 -68.8595 1220.56
v -53.2656 -68.7993 1220.65
v -52.9838 -68.4257 1220.67
v -52.8912 -69.1353 1221.09
v -52.6809 -68.278 1221.04
v -52.6627 -68.8646 1221.22
v -54.6056 -67.557 1222.68
v -53.8776 -67.598 1222.94
v -53.207 -67.8587 1222.94
v -52.5979 -67.668 1221.58
v -52.5661 -67.8205 1222.03
v -52.8476 -67.3581 1222.14
v -52.5233 -68.3232 1222.42
v -52.7826 -67.9229 1222.63
v -54.4822 -69.3382 1222.61
v -54.4743 -68.6715 1223.02
v -54.0186 -69.7564 1221.81
v -54.177 -69.6533 1222.37
v -53.6505 -69.6708 1222.5
v -53.9559 -69.3277 1222.93
v -53.931 -69.5275 1222.74
v -53.9133 -68.4355 1223.24
v -53.3128 -69.599 1221.36
v -53.6595 -69.0586 1223.11
v -53.6197 -69.454 1222.83
v -53.1823 -69.6686 1222.02
v -52.9408 -69.4347 1222.35
v -53.2675 -69.5198 1222.59
v -53.2948 -68.5265 1223.15
v -53.304 -69.123 1222.99
v -52.4263 -68.5941 1221.85
v -52.6454 -69.1941 1221.81
v -52.6052 -68.9015 1222.43
v -52.6821 -68.5801 1222.71
v -52.9472 -68.857 1222.9
v -52.9482 -69.2163 1222.67
v -52.9318 -68.5299 1222.96
v -63.2204 -49.2754 1203.51
v -63.2204 -49.2754 1203.51
v -64.6593 -50.3117 1203.52
v -64.6818 -50.6112 1203.52
v -64.6818 -50.6112 1203.52
v -63.67 -50.7287 1203.2
v -63.67 -50.7287 1203.2
v -64.8653 -49.6893 1204.08
v -64.8653 -49.6893 1204.08
v -64.5363 -49.0712 1203.83
v -64.5363 -49.0712 1203.83
v -64.5363 -49.0712 1203.83
v -62.6795 -49.9497 1203.95
v -62.5689 -52.4333 1208.44
v -61.8114 -51.3069 1208.39
v -61.8114 -51.3069 1208.39
v -60.2091 -54.2084 1208.91
v -58.5024 -54.4589 1210.78
v -59.5185 -55.9508 1210.88
v -59.5185 -55.9508 1210.88
v -57.4096 -55.8343 1213.8
v -57.4096 -55.8343 1213.8
v -56.7375 -58.1592 1213.85
v -56.7375 -58.1592 1213.85
v -59.0599 -57.1628 1215.11
v -59.0599 -57.1628 1215.11
v -54.0186 -69.7564 1221.81
v -54.0186 -69.7564 1221.81
v -54.177 -69.6533 1222.37
v -53.3128 -69.599 1221.36
vn -0.189712 0.260647 -0.946611
vn -0.866928 0.142706 -0.477568
vn -0.665148 -0.736222 -0.12472
vn -0.230735 0.18107 -0.956021
vn -0.272142 -0.880272 -0.388664
vn -0.866928 0.142706 -0.477568
vn -0.814283 0.215413 -0.539018
vn 0.24749 0.937412 0.244962
vn -0.868905 -0.463298 0.174241
vn -0.662237 -0.74848 -0.0349301
vn 0.673566 -0.162167 -0.721117
vn -0.629337 0.450975 0.632895
vn 0.654244 0.752341 0.0771205
vn -0.610484 0.484803 0.626318
vn -0.457787 -0.823957 -0.333955
vn 0.00705939 -0.809822 -0.586633
vn 0.689388 -0.31409 -0.652757
vn -0.788906 -0.594325 -0.156219
vn -0.21173 -0.774705 -0.595821
vn 0.372034 0.83819 0.398784
vn 0.70426 -0.22281 -0.674073
vn -0.621755 0.446344 0.643582
vn 0.384869 -0.426041 -0.818758
vn -0.488731 -0.643811 -0.588769
vn -0.937551 -0.34618 0.0340368
vn 0.0536742 0.608897 0.791431
vn 0.786086 -0.113268 -0.607651
vn 0.855323 0.47811 0.199584
vn 0.93761 0.143279 -0.316793
vn 0.444303 0.594096 0.670556
vn -0.775095 -0.605754 -0.179691
vn -0.904257 -0.207483 0.373189
vn -0.723149 0.104174 0.682791
vn -0.171215 -0.673913 -0.718698
vn 0.336108 -0.519277 -0.785737
vn 0.681452 -0.247993 -0.688566
vn 0.620038 -0.540384 -0.568804
vn 0.902394 -0.0129699 -0.430717
vn 0.858413 -0.279826 -0.429913
vn -0.446974 0.311453 0.838577
vn -0.000498112 0.434189 0.900822
vn 0.400146 0.393614 0.827617
vn 0.968981 0.215648 -0.120714
vn 0.924288 0.329781 0.192187
vn 0.75135 0.506417 0.423101
vn 0.932496 0.0952241 0.348401
vn 0.722551 0.375848 0.580223
vn -0.65686 -0.589898 0.469633
vn -0.547396 -0.162573 0.820931
vn -0.327081 -0.759417 -0.562409
vn -0.693754 -0.719909 -0.0209009
vn 0.0719117 -0.937536 0.340375
vn -0.227973 -0.557759 0.798081
vn -0.183908 -0.791551 0.582773
vn -0.148959 0.08715 0.984995
vn 0.0754384 -0.718658 -0.691259
vn 0.0133231 -0.374368 0.927185
vn 0.124932 -0.702244 0.700889
vn 0.388303 -0.919461 0.0617377
vn 0.662032 -0.692171 0.287423
vn 0.380791 -0.777699 0.500182
vn 0.292835 -0.00589629 0.956145
vn 0.360517 -0.47943 0.800109
vn 0.996347 -0.0646632 -0.055783
vn 0.79922 -0.593156 -0.0970237
vn 0.863962 -0.350771 0.36129
vn 0.791423 -0.0457682 0.609553
vn 0.603661 -0.301125 0.738185
vn 0.607992 -0.547662 0.574815
vn 0.598092 0.0688863 0.798461
vn 0.557929 0.829585 -0.0224404
vn 0.614355 -0.0217845 -0.788729
vn -0.250706 0.140399 -0.957828
vn -0.909313 0.0683097 -0.410467
vn -0.299155 0.0224732 -0.95394
vn -0.134316 -0.852823 -0.50463
vn 0.6683 -0.250188 -0.700558
vn -0.932326 -0.260812 0.25049
vn -0.604402 0.503719 0.617224
vn -0.193947 0.258347 -0.946383
vn 0.0750754 0.962693 0.259972
vn -0.569955 0.550207 0.610264
vn 0.841965 0.499679 -0.203511
vn -0.842542 -0.527644 0.108234
vn 0.193272 0.890659 0.411549
vn -0.0631992 0.739417 0.670275
vn 0.676661 -0.322009 -0.662148
vn 0.875484 0.459887 -0.148431
vn 0.575269 -0.298661 -0.76149
vn 0.128799 -0.621769 -0.772537
vn 0.906068 0.396519 -0.147695
vn 0.14877 0.7131 0.685096
vn 0.171234 -0.706687 -0.686493
vn 0.878771 0.0389 -0.475655
vn -0.853074 0.0074284 0.521738
vn -0.015593 0.711784 0.702226
vn -0.672536 -0.738104 -0.0538304
vn 0.0504234 -0.998068 0.0362991
vn -0.200052 -0.908702 0.366387
vn 0.47166 -0.856827 -0.208287
g grp1
usemtl mtl1
f 7//7 2//2 6//6 
f 1//1 4//4 80//80 
f 80//80 4//4 73//73 
f 71//71 81//81 8//8 
f 3//3 9//9 78//78 
f 74//74 6//6 2//2 
f 3//3 10//10 9//9 
f 75//75 73//73 4//4 
f 3//3 5//5 10//10 
f 3//3 76//76 5//5 
f 5//5 76//76 16//16 
f 14//14 79//79 12//12 
f 8//8 81//81 85//85 
f 82//82 79//79 14//14 
f 78//78 9//9 84//84 
f 10//10 84//84 9//9 
f 15//15 10//10 5//5 
f 11//11 77//77 72//72 
f 11//11 17//17 77//77 
f 13//13 83//83 71//71 
f 17//17 87//87 77//77 
f 71//71 8//8 13//13 
f 10//10 15//15 84//84 
f 15//15 5//5 16//16 
f 83//83 13//13 88//88 
f 14//14 12//12 22//22 
f 85//85 13//13 8//8 
f 16//16 19//19 15//15 
f 20//20 13//13 85//85 
f 84//84 15//15 18//18 
f 84//84 18//18 95//95 
f 91//91 88//88 13//13 
f 17//17 21//21 87//87 
f 19//19 16//16 93//93 
f 86//86 96//96 92//92 
f 91//91 94//94 88//88 
f 18//18 15//15 19//19 
f 18//18 25//25 95//95 
f 19//19 24//24 18//18 
f 89//89 94//94 23//23 
f 24//24 90//90 23//23 
f 26//26 92//92 96//96 
f 40//40 26//26 95//95 
f 26//26 28//28 92//92 
f 91//91 28//28 94//94 
f 18//18 24//24 25//25 
f 94//94 27//27 23//23 
f 24//24 31//31 25//25 
f 33//33 40//40 95//95 
f 27//27 94//94 29//29 
f 94//94 28//28 29//29 
f 30//30 28//28 26//26 
f 34//34 24//24 23//23 
f 24//24 34//34 31//31 
f 31//31 32//32 25//25 
f 95//95 25//25 32//32 
f 33//33 95//95 32//32 
f 33//33 32//32 49//49 
f 43//43 29//29 28//28 
f 27//27 29//29 38//38 
f 35//35 34//34 23//23 
f 34//34 35//35 56//56 
f 36//36 23//23 27//27 
f 36//36 35//35 23//23 
f 36//36 37//37 35//35 
f 37//37 56//56 35//35 
f 37//37 65//65 100//100 
f 36//36 27//27 38//38 
f 39//39 36//36 38//38 
f 37//37 36//36 39//39 
f 38//38 64//64 39//39 
f 39//39 65//65 37//37 
f 64//64 65//65 39//39 
f 40//40 33//33 49//49 
f 40//40 41//41 26//26 
f 41//41 40//40 55//55 
f 40//40 49//49 55//55 
f 41//41 30//30 26//26 
f 42//42 30//30 41//41 
f 55//55 62//62 41//41 
f 62//62 42//42 41//41 
f 28//28 30//30 45//45 
f 30//30 42//42 47//47 
f 47//47 70//70 67//67 
f 42//42 70//70 47//47 
f 62//62 70//70 42//42 
f 29//29 43//43 38//38 
f 38//38 43//43 64//64 
f 43//43 28//28 44//44 
f 43//43 44//44 64//64 
f 28//28 45//45 44//44 
f 64//64 44//44 46//46 
f 64//64 46//46 66//66 
f 47//47 44//44 45//45 
f 30//30 47//47 45//45 
f 44//44 47//47 46//46 
f 46//46 47//47 67//67 
f 46//46 67//67 66//66 
f 31//31 34//34 50//50 
f 31//31 97//97 51//51 
f 31//31 51//51 48//48 
f 32//32 48//48 49//49 
f 32//32 31//31 48//48 
f 34//34 56//56 50//50 
f 54//54 48//48 99//99 
f 98//98 52//52 99//99 
f 52//52 54//54 99//99 
f 53//53 48//48 54//54 
f 53//53 49//49 48//48 
f 52//52 58//58 54//54 
f 53//53 57//57 49//49 
f 53//53 58//58 57//57 
f 58//58 53//53 54//54 
f 49//49 57//57 55//55 
f 100//100 59//59 98//98 
f 100//100 65//65 59//59 
f 59//59 52//52 98//98 
f 59//59 61//61 52//52 
f 61//61 63//63 58//58 
f 61//61 58//58 52//52 
f 57//57 62//62 55//55 
f 57//57 63//63 62//62 
f 58//58 63//63 57//57 
f 65//65 60//60 59//59 
f 69//69 60//60 66//66 
f 60//60 69//69 61//61 
f 59//59 60//60 61//61 
f 69//69 63//63 61//61 
f 68//68 70//70 62//62 
f 63//63 68//68 62//62 
f 66//66 65//65 64//64 
f 65//65 66//66 60//60 
f 68//68 66//66 67//67 
f 69//69 66//66 68//68 
f 63//63 69//69 68//68 
f 67//67 70//70 68//68 
