#
# The license for this database is specified in the Creative Commons Attribution-Share Alike 2.1 Japan. If you use data from this database, please be sure attribute this database as follows: "BodyParts3D, (c)  The Database Center for Life Science licensed under CC Attribution-Share Alike 2.1 Japan".
# http://dbarchive.biosciencedbc.jp/en/bodyparts3d/lic.html
#
#
# Compatibility version : 4.0
# File ID : FJ3044
# Representation ID : BP9509
# Build-up logic : FMA 3.0 part_of
# Concept ID : FMA9428
# English name : Right posterior basal segmental vein
# Bounds(mm): (-46.789000,-59.286400,1151.540000)-(-32.859300,-39.398600,1166.480000)
# Volume(cm3): 0.081400
#
v -34.8211 -59.2864 1164.84
v -35.217 -58.4546 1164.75
v -35.1424 -58.5749 1166.15
v -33.4524 -58.4587 1164.03
v -34.2317 -58.921 1164.83
v -34.5767 -58.5006 1166.26
v -34.6879 -57.9392 1166.48
v -33.6883 -57.8382 1166.44
v -33.469 -57.6162 1166.41
v -32.8924 -58.2022 1164.48
v -37.8477 -50.6924 1159.56
v -37.4207 -50.5166 1160.55
v -34.6449 -53.6253 1160.9
v -36.371 -53.8945 1162.41
v -36.0323 -52.8768 1162.72
v -36.0528 -54.3817 1161.55
v -34.9978 -54.8486 1161.43
v -33.9012 -54.1379 1162.01
v -34.2527 -54.8317 1164.37
v -34.2812 -55.7012 1165.1
v -32.9122 -57.1478 1164.56
v -33.1526 -57.0161 1165.54
v -32.8593 -57.5675 1165.7
v -46.5986 -40.6204 1152.06
v -46.7214 -40.2689 1151.82
v -45.9755 -40.7401 1151.85
v -46.0068 -40.2934 1151.54
v -46.0423 -39.8175 1151.78
v -45.7662 -39.7412 1151.6
v -45.6796 -39.4439 1152.26
v -45.0789 -39.807 1152.28
v -46.789 -40.2914 1152.72
v -45.972 -40.3753 1153.39
v -46.2509 -39.5566 1152.97
v -45.7844 -39.8664 1153.28
v -45.9005 -39.3986 1152.9
v -45.2296 -40.0418 1153.38
v -45.3414 -39.5142 1152.55
v -45.1825 -39.7168 1152.91
v -43.1125 -42.9103 1153.12
v -43.2557 -41.9874 1152.85
v -42.8928 -44.0153 1154.81
v -42.2838 -44.526 1154.4
v -40.6105 -44.6853 1154.45
v -41.943 -44.2255 1155.89
v -41.516 -43.1385 1155.44
v -41.087 -44.2956 1156.34
v -40.1655 -46.9967 1156.2
v -39.6052 -47.1557 1155.92
v -39.4772 -47.771 1157.87
v -37.7289 -47.9333 1156.8
v -38.483 -47.3376 1158.61
v -36.2708 -49.4587 1158.37
v -36.1099 -49.1194 1159.13
v -36.679 -48.3465 1158.1
v -36.5364 -50.9758 1158.6
v -36.6719 -50.6785 1161.2
v -35.9609 -49.8442 1160.28
v -34.6623 -52.0076 1161.43
v -35.2145 -50.8334 1159.96
v -42.7433 -41.6417 1153.93
v -41.4624 -43.1287 1154
v -39.9487 -44.2411 1155.59
v -39.0715 -45.5406 1155.66
v -37.9067 -46.6647 1157.59
v -34.8211 -59.2864 1164.84
v -34.8211 -59.2864 1164.84
v -35.1424 -58.5749 1166.15
v -35.1424 -58.5749 1166.15
v -35.1424 -58.5749 1166.15
v -33.4524 -58.4587 1164.03
v -34.5767 -58.5006 1166.26
v -34.6879 -57.9392 1166.48
v -33.6883 -57.8382 1166.44
v -33.469 -57.6162 1166.41
v -32.8924 -58.2022 1164.48
v -37.8477 -50.6924 1159.56
v -37.8477 -50.6924 1159.56
v -36.371 -53.8945 1162.41
v -36.0528 -54.3817 1161.55
v -32.8593 -57.5675 1165.7
v -46.5986 -40.6204 1152.06
v -46.7214 -40.2689 1151.82
v -46.7214 -40.2689 1151.82
v -46.7214 -40.2689 1151.82
v -46.0068 -40.2934 1151.54
v -46.0068 -40.2934 1151.54
v -45.7662 -39.7412 1151.6
v -45.7662 -39.7412 1151.6
v -45.7662 -39.7412 1151.6
v -45.6796 -39.4439 1152.26
v -46.789 -40.2914 1152.72
v -46.2509 -39.5566 1152.97
v -45.9005 -39.3986 1152.9
v -39.4772 -47.771 1157.87
v -38.483 -47.3376 1158.61
v -36.5364 -50.9758 1158.6
v -39.9487 -44.2411 1155.59
vn -0.883916 -0.438126 -0.163517
vn -0.926284 -0.358802 -0.115151
vn -0.943357 -0.331064 0.0218047
vn 0.322909 -0.476677 -0.817624
vn 0.511276 -0.834155 0.206837
vn 0.354782 -0.841586 0.407263
vn -0.0770491 0.0978883 0.99221
vn 0.563425 -0.722898 0.399963
vn 0.296972 0.50814 0.808456
vn 0.525191 -0.821087 0.223585
vn -0.529972 -0.663619 -0.527958
vn -0.764431 0.108114 0.635575
vn 0.654852 -0.241318 -0.716195
vn -0.937814 -0.340887 -0.0655837
vn -0.631833 0.318495 0.706646
vn -0.89253 -0.409714 -0.18848
vn -0.0239509 -0.57978 -0.814421
vn 0.939314 0.107606 -0.325747
vn 0.372379 0.645183 0.667138
vn -0.063715 0.575027 0.81565
vn 0.97796 0.2014 -0.0550592
vn 0.660134 0.556944 0.50402
vn 0.61042 -0.65603 0.443861
vn -0.786324 -0.617803 0.00380355
vn -0.607288 0.749628 -0.26317
vn -0.256987 -0.635001 -0.728514
vn -0.199243 -0.572486 -0.795338
vn -0.50227 0.794273 -0.341842
vn -0.474295 0.781661 -0.405032
vn -0.486645 0.834356 -0.258895
vn 0.636282 0.632945 -0.441051
vn -0.798626 0.600144 -0.0449817
vn -0.484039 0.155401 0.861137
vn -0.598602 0.779095 -0.186244
vn -0.134907 0.510201 0.849409
vn 0.184578 0.829267 0.527492
vn 0.174475 0.689229 0.703222
vn 0.481161 0.876615 0.00559779
vn 0.411074 0.808187 0.421724
vn 0.0374167 -0.498956 -0.865819
vn 0.515316 0.0597254 -0.854917
vn -0.764735 -0.613751 0.19619
vn -0.460706 -0.753066 -0.469725
vn 0.447254 -0.15981 -0.880014
vn -0.626164 -0.0707245 0.776477
vn 0.331441 0.74483 0.579116
vn -0.171429 0.447627 0.877634
vn -0.662386 -0.704747 -0.254118
vn -0.109515 -0.625346 -0.772624
vn -0.866676 -0.453909 0.206977
vn 0.581732 -0.141182 -0.801034
vn 0.207751 0.678761 0.70436
vn 0.770185 -0.0172417 -0.637587
vn 0.821124 0.56281 0.0948642
vn 0.869532 0.355064 -0.343284
vn -0.472134 -0.677135 -0.564427
vn -0.262606 0.513546 0.816889
vn 0.504864 0.684594 0.525778
vn 0.837735 0.498869 0.222101
vn 0.919826 0.234897 -0.314235
vn 0.642093 0.765436 0.0427228
vn 0.721571 0.409735 -0.558079
vn 0.505666 0.771291 0.386537
vn 0.795145 0.332934 -0.506853
vn 0.653046 0.710253 0.262814
vn 0.36668 -0.880817 0.299512
vn -0.220196 -0.599848 -0.769218
vn 0.0215421 -0.876333 0.481224
vn -0.822896 0.192779 0.534488
vn -0.127441 -0.383629 0.914652
vn 0.493761 -0.869331 -0.0215452
vn -0.0274211 -0.369388 0.928871
vn -0.766583 0.238643 0.596155
vn 0.052464 -0.126546 0.990572
vn 0.64387 -0.566795 0.513979
vn 0.896542 -0.100353 -0.431441
vn -0.909006 -0.235551 0.343838
vn -0.883464 -0.464144 -0.0637363
vn -0.867683 0.0558834 0.493967
vn -0.421221 -0.60711 -0.673788
vn 0.888076 0.378435 0.260975
vn -0.345987 -0.671556 -0.655214
vn -0.923142 -0.376309 -0.0787437
vn -0.335858 -0.584603 -0.738538
vn -0.345832 0.248879 -0.904687
vn -0.345832 0.248879 -0.904687
vn 0.348825 -0.149357 -0.92521
vn -0.345832 0.248879 -0.904687
vn 0.591037 0.599556 -0.539636
vn 0.392728 -0.0715989 -0.916863
vn 0.403585 0.874018 -0.270577
vn -0.812989 -0.336247 0.47538
vn -0.373556 0.389888 0.841691
vn -0.436592 0.874234 -0.212375
vn -0.679555 0.0281957 0.733083
vn -0.574382 0.199403 0.79393
vn 0.458205 -0.338596 -0.821828
vn 0.781224 0.558063 -0.279741
g grp1
usemtl mtl1
f 14//14 2//2 3//3 
f 3//3 2//2 1//1 
f 66//66 6//6 68//68 
f 16//16 2//2 14//14 
f 17//17 80//80 56//56 
f 69//69 15//15 79//79 
f 16//16 1//1 2//2 
f 80//80 17//17 67//67 
f 17//17 4//4 67//67 
f 66//66 71//71 5//5 
f 10//10 5//5 71//71 
f 8//8 5//5 10//10 
f 7//7 20//20 15//15 
f 5//5 6//6 66//66 
f 69//69 73//73 15//15 
f 70//70 72//72 7//7 
f 74//74 7//7 72//72 
f 7//7 74//74 9//9 
f 7//7 9//9 20//20 
f 23//23 75//75 8//8 
f 20//20 9//9 19//19 
f 23//23 8//8 10//10 
f 22//22 19//19 9//9 
f 9//9 81//81 22//22 
f 8//8 6//6 5//5 
f 48//48 56//56 11//11 
f 79//79 12//12 77//77 
f 78//78 16//16 14//14 
f 12//12 79//79 15//15 
f 56//56 80//80 11//11 
f 12//12 15//15 57//57 
f 13//13 17//17 97//97 
f 57//57 15//15 20//20 
f 20//20 19//19 57//57 
f 13//13 4//4 17//17 
f 18//18 59//59 21//21 
f 76//76 4//4 13//13 
f 13//13 18//18 76//76 
f 76//76 18//18 21//21 
f 19//19 22//22 59//59 
f 81//81 59//59 22//22 
f 59//59 81//81 21//21 
f 21//21 81//81 76//76 
f 34//34 25//25 32//32 
f 83//83 24//24 92//92 
f 26//26 43//43 82//82 
f 24//24 42//42 92//92 
f 24//24 43//43 42//42 
f 26//26 82//82 84//84 
f 84//84 27//27 26//26 
f 25//25 34//34 30//30 
f 28//28 25//25 30//30 
f 25//25 28//28 29//29 
f 88//88 86//86 85//85 
f 30//30 29//29 28//28 
f 89//89 31//31 41//41 
f 89//89 91//91 31//31 
f 36//36 38//38 91//91 
f 91//91 38//38 31//31 
f 31//31 38//38 61//61 
f 26//26 27//27 40//40 
f 87//87 90//90 41//41 
f 40//40 87//87 41//41 
f 93//93 92//92 33//33 
f 33//33 35//35 93//93 
f 47//47 35//35 33//33 
f 30//30 34//34 94//94 
f 37//37 36//36 35//35 
f 35//35 36//36 93//93 
f 39//39 38//38 36//36 
f 38//38 39//39 61//61 
f 39//39 36//36 37//37 
f 33//33 92//92 45//45 
f 45//45 92//92 42//42 
f 47//47 33//33 45//45 
f 37//37 35//35 47//47 
f 26//26 40//40 43//43 
f 47//47 46//46 37//37 
f 62//62 44//44 41//41 
f 41//41 44//44 40//40 
f 52//52 46//46 47//47 
f 43//43 48//48 42//42 
f 42//42 48//48 50//50 
f 45//45 42//42 95//95 
f 40//40 49//49 43//43 
f 64//64 51//51 44//44 
f 49//49 48//48 43//43 
f 49//49 56//56 48//48 
f 44//44 49//49 40//40 
f 51//51 49//49 44//44 
f 45//45 95//95 96//96 
f 47//47 45//45 96//96 
f 77//77 50//50 48//48 
f 46//46 52//52 65//65 
f 51//51 97//97 49//49 
f 97//97 51//51 53//53 
f 51//51 55//55 53//53 
f 12//12 50//50 77//77 
f 95//95 12//12 96//96 
f 19//19 58//58 52//52 
f 52//52 58//58 65//65 
f 96//96 12//12 57//57 
f 52//52 57//57 19//19 
f 54//54 58//58 59//59 
f 55//55 65//65 54//54 
f 54//54 65//65 58//58 
f 53//53 13//13 97//97 
f 53//53 60//60 13//13 
f 60//60 53//53 55//55 
f 54//54 59//59 60//60 
f 55//55 54//54 60//60 
f 19//19 59//59 58//58 
f 60//60 59//59 18//18 
f 60//60 18//18 13//13 
f 31//31 61//61 62//62 
f 62//62 41//41 31//31 
f 39//39 37//37 46//46 
f 39//39 46//46 61//61 
f 61//61 46//46 63//63 
f 62//62 64//64 44//44 
f 61//61 98//98 62//62 
f 62//62 98//98 64//64 
f 64//64 55//55 51//51 
f 98//98 65//65 64//64 
f 63//63 46//46 65//65 
f 64//64 65//65 55//55 
