#
# The license for this database is specified in the Creative Commons Attribution-Share Alike 2.1 Japan. If you use data from this database, please be sure attribute this database as follows: "BodyParts3D, (c)  The Database Center for Life Science licensed under CC Attribution-Share Alike 2.1 Japan".
# http://dbarchive.biosciencedbc.jp/en/bodyparts3d/lic.html
#
#
# Compatibility version : 4.0
# File ID : FJ3607
# Representation ID : BP10406
# Build-up logic : FMA 3.0 part_of
# Concept ID : FMA18887
# English name : Right internal iliac vein
# Bounds(mm): (-28.640800,-105.154000,887.830000)-(-18.973500,-81.874300,914.723000)
# Volume(cm3): 1.056600
#
v -27.3747 -102.459 910.878
v -26.8808 -100.336 912.118
v -26.784 -99.2062 909.356
v -26.8472 -101.58 913.241
v -26.0285 -100.287 913.494
v -25.736 -104.226 909.567
v -24.1842 -104.843 909.683
v -25.9019 -98.654 903.373
v -24.3104 -100.485 904.029
v -26.0853 -104.086 911.938
v -24.9445 -101.11 914.337
v -23.4468 -101.651 914.201
v -22.5698 -104.903 909.95
v -22.4845 -105.154 910.913
v -21.8404 -104.215 912.424
v -21.2483 -104.267 909.982
v -20.8625 -104.223 911.588
v -20.3744 -102.662 913.1
v -28.2172 -87.1772 892.15
v -28.2022 -85.6413 889.046
v -26.4813 -94.1386 902.191
v -22.8448 -92.6883 903.924
v -25.4396 -97.1579 908.711
v -23.1007 -97.1476 910.28
v -24.9243 -99.4489 913.395
v -24.8026 -100.1 914.18
v -23.2592 -100.85 914.723
v -23.4047 -99.5065 913.834
v -21.9888 -99.3011 912.979
v -28.6408 -83.8632 890.854
v -27.8 -82.9356 891.836
v -27.8767 -83.7511 890.38
v -25.8261 -81.8743 891.57
v -25.2536 -82.9739 893.13
v -20.9713 -100.475 904.182
v -19.3425 -99.6859 904.498
v -20.5016 -103.553 909.823
v -19.7965 -102.637 910.879
v -26.7016 -86.0262 888.678
v -26.2648 -87.9208 888.936
v -24.231 -87.1588 887.83
v -21.8551 -86.7239 888.883
v -24.02 -91.1475 892.042
v -20.7928 -94.1989 905.271
v -18.9735 -97.3727 905.396
v -19.884 -100.591 911.579
v -23.1232 -83.4309 890.371
v -22.3482 -82.6049 891.026
v -21.429 -84.0158 890.047
v -27.3747 -102.459 910.878
v -26.8472 -101.58 913.241
v -26.8472 -101.58 913.241
v -24.9445 -101.11 914.337
v -20.8625 -104.223 911.588
v -20.3744 -102.662 913.1
v -20.3744 -102.662 913.1
v -28.2022 -85.6413 889.046
v -28.2022 -85.6413 889.046
v -26.4813 -94.1386 902.191
v -23.2592 -100.85 914.723
v -28.6408 -83.8632 890.854
v -28.6408 -83.8632 890.854
v -27.8 -82.9356 891.836
v -25.8261 -81.8743 891.57
v -25.8261 -81.8743 891.57
v -25.8261 -81.8743 891.57
v -19.3425 -99.6859 904.498
v -26.7016 -86.0262 888.678
v -26.2648 -87.9208 888.936
v -24.231 -87.1588 887.83
v -24.231 -87.1588 887.83
v -21.8551 -86.7239 888.883
v -21.8551 -86.7239 888.883
v -18.9735 -97.3727 905.396
v -19.884 -100.591 911.579
v -22.3482 -82.6049 891.026
v -22.3482 -82.6049 891.026
v -21.429 -84.0158 890.047
v -21.429 -84.0158 890.047
vn -0.975598 0.187394 0.114417
vn -0.869373 0.417064 0.265045
vn -0.888371 0.414057 0.198379
vn -0.813166 0.248838 0.526156
vn -0.599359 0.501242 0.62412
vn -0.578717 -0.738522 -0.345937
vn -0.138784 -0.928468 -0.344508
vn -0.8237 -0.45645 -0.336411
vn -0.265253 -0.759459 -0.594023
vn -0.408935 -0.782469 0.46959
vn -0.427503 0.185627 0.884751
vn -0.0225289 -0.562245 0.826664
vn 0.228531 -0.881202 -0.413831
vn 0.173736 -0.981537 0.0800033
vn 0.156133 -0.734123 0.660822
vn 0.526378 -0.798879 -0.291065
vn 0.403174 -0.779503 0.479402
vn 0.245992 -0.598277 0.762596
vn -0.983753 -0.179039 -0.0132234
vn -0.895169 -0.379235 -0.234208
vn -0.747512 0.50888 0.426927
vn -0.18169 0.7682 0.613888
vn -0.557368 0.723862 0.406651
vn -0.0816862 0.835472 0.543428
vn -0.31636 0.777988 0.542818
vn -0.290201 0.493214 0.820075
vn 0.192385 0.429434 0.882369
vn 0.0588654 0.720807 0.690632
vn 0.436876 0.624929 0.646995
vn -0.992564 -0.120698 0.0157926
vn -0.524193 0.582241 0.621464
vn -0.301051 0.689206 -0.659062
vn -0.474043 0.778626 -0.411126
vn 0.0138529 0.77738 0.628879
vn 0.292147 -0.775544 -0.559626
vn 0.44748 -0.694448 -0.563474
vn 0.698195 -0.669114 -0.254576
vn 0.95103 -0.301299 0.0690011
vn -0.342661 -0.204058 -0.91703
vn -0.424642 -0.708275 -0.563937
vn -0.403431 -0.214322 -0.889556
vn 0.422256 -0.654508 -0.627152
vn 0.165314 -0.737619 -0.654667
vn 0.523149 0.676275 0.51862
vn 0.836667 0.459613 0.297901
vn 0.719302 0.467583 0.513781
vn -0.00841423 0.581818 -0.813276
vn 0.852399 0.451475 0.263791
vn 0.880308 0.418523 0.223372
vn -0.882346 -0.458673 -0.105284
vn -0.831844 -0.433246 0.346891
vn -0.330103 -0.512487 0.79271
vn -0.195393 -0.544584 0.815628
vn 0.737706 -0.674828 -0.0199159
vn 0.933352 -0.267071 0.239848
vn 0.633043 0.329196 0.700633
vn -0.199302 0.590649 -0.781929
vn -0.280332 -0.192864 -0.940328
vn -0.991515 -0.127984 -0.0227568
vn -0.00152306 -0.54584 0.837888
vn -0.449575 0.695801 -0.560128
vn -0.846333 0.304409 0.437099
vn -0.43189 0.796416 -0.423311
vn -0.304675 0.72227 0.620885
vn -0.0165022 0.592063 -0.805722
vn 0.252073 0.832116 0.494006
vn 0.961923 -0.240994 -0.128942
vn -0.0343677 0.578892 -0.81468
vn -0.342661 -0.204058 -0.91703
vn 0.116528 0.493102 -0.862132
vn 0.15732 -0.713097 -0.683186
vn 0.974651 -0.0671831 -0.213406
vn 0.331958 0.327929 -0.884458
vn 0.994513 -0.0753397 -0.0725829
vn 0.980052 -0.0255175 0.197094
vn 0.287645 0.793468 0.536348
vn 0.0285032 0.604633 -0.795994
vn 0.975507 -0.0628883 -0.210786
vn 0.140879 0.500218 -0.854362
g grp1
usemtl mtl1
f 21//21 1//1 3//3 
f 2//2 3//3 1//1 
f 1//1 4//4 2//2 
f 4//4 5//5 2//2 
f 23//23 2//2 5//5 
f 8//8 6//6 50//50 
f 59//59 8//8 50//50 
f 51//51 50//50 10//10 
f 11//11 5//5 4//4 
f 52//52 10//10 53//53 
f 6//6 10//10 50//50 
f 23//23 5//5 25//25 
f 5//5 11//11 26//26 
f 25//25 5//5 26//26 
f 9//9 7//7 6//6 
f 40//40 9//9 8//8 
f 23//23 21//21 3//3 
f 3//3 2//2 23//23 
f 6//6 8//8 9//9 
f 9//9 35//35 7//7 
f 7//7 35//35 13//13 
f 16//16 13//13 35//35 
f 53//53 10//10 12//12 
f 26//26 11//11 27//27 
f 53//53 12//12 60//60 
f 6//6 7//7 10//10 
f 10//10 7//7 14//14 
f 60//60 12//12 18//18 
f 14//14 15//15 10//10 
f 10//10 15//15 12//12 
f 13//13 14//14 7//7 
f 14//14 13//13 16//16 
f 14//14 17//17 15//15 
f 17//17 18//18 15//15 
f 18//18 12//12 15//15 
f 16//16 54//54 14//14 
f 37//37 54//54 16//16 
f 55//55 54//54 38//38 
f 30//30 20//20 19//19 
f 19//19 59//59 30//30 
f 32//32 57//57 61//61 
f 21//21 31//31 62//62 
f 8//8 19//19 20//20 
f 47//47 57//57 32//32 
f 8//8 20//20 40//40 
f 69//69 58//58 39//39 
f 8//8 59//59 19//19 
f 34//34 31//31 22//22 
f 31//31 21//21 22//22 
f 21//21 23//23 22//22 
f 22//22 23//23 24//24 
f 22//22 24//24 29//29 
f 22//22 29//29 44//44 
f 23//23 25//25 24//24 
f 28//28 29//29 24//24 
f 46//46 44//44 29//29 
f 45//45 44//44 46//46 
f 28//28 26//26 27//27 
f 24//24 25//25 28//28 
f 25//25 26//26 28//28 
f 28//28 27//27 29//29 
f 56//56 29//29 27//27 
f 46//46 29//29 56//56 
f 61//61 63//63 32//32 
f 32//32 63//63 33//33 
f 64//64 31//31 34//34 
f 65//65 47//47 32//32 
f 43//43 9//9 40//40 
f 9//9 43//43 35//35 
f 36//36 35//35 43//43 
f 37//37 16//16 35//35 
f 37//37 35//35 36//36 
f 38//38 37//37 67//67 
f 38//38 67//67 74//74 
f 37//37 38//38 54//54 
f 55//55 38//38 75//75 
f 38//38 74//74 75//75 
f 47//47 68//68 57//57 
f 41//41 69//69 39//39 
f 70//70 68//68 47//47 
f 40//40 71//71 43//43 
f 43//43 71//71 42//42 
f 44//44 45//45 48//48 
f 45//45 49//49 48//48 
f 72//72 78//78 74//74 
f 36//36 43//43 42//42 
f 72//72 74//74 67//67 
f 76//76 66//66 34//34 
f 76//76 34//34 44//44 
f 77//77 47//47 65//65 
f 47//47 79//79 70//70 
f 77//77 79//79 47//47 
f 79//79 73//73 70//70 
f 44//44 34//34 22//22 
