#
# The license for this database is specified in the Creative Commons Attribution-Share Alike 2.1 Japan. If you use data from this database, please be sure attribute this database as follows: "BodyParts3D, (c)  The Database Center for Life Science licensed under CC Attribution-Share Alike 2.1 Japan".
# http://dbarchive.biosciencedbc.jp/en/bodyparts3d/lic.html
#
#
# Compatibility version : 4.0
# File ID : FJ3566
# Representation ID : BP10399
# Build-up logic : FMA 3.0 part_of
# Concept ID : FMA21387
# English name : Right common iliac vein
# Bounds(mm): (-35.880700,-123.448000,900.632000)-(-3.588500,-88.333600,964.607000)
# Volume(cm3): 7.907900
#
v -35.0448 -99.1694 906.157
v -35.454 -98.3276 905.266
v -35.3699 -98.3643 906.022
v -34.7556 -99.8333 905.378
v -34.3844 -98.7712 904.315
v -34.4967 -99.079 908.637
v -33.7121 -101.304 905.552
v -34.1091 -100.551 904.541
v -32.6745 -102.089 911.265
v -33.059 -99.354 912.466
v -35.673 -96.5342 906.167
v -35.8807 -95.6518 905.211
v -35.3576 -95.303 906.798
v -35.2492 -95.2008 904.488
v -33.3293 -95.7628 910.754
v -35.2695 -91.3906 904.515
v -34.5887 -91.6248 905.651
v -33.925 -91.3044 903.733
v -33.9957 -90.1789 904.757
v -33.5583 -89.2906 903.815
v -32.7737 -89.4677 904.729
v -31.0244 -104.3 910.207
v -28.3631 -105.962 910.239
v -27.923 -106.013 923.44
v -26.418 -108.534 925.203
v -27.2798 -104.465 925.817
v -31.8356 -101.811 903.518
v -28.5551 -103.145 903.353
v -27.3465 -101.85 901.959
v -32.0535 -102.62 904.822
v -29.9561 -103.399 904.236
v -31.4569 -93.564 910.844
v -27.3851 -93.9215 913.567
v -28.2364 -96.6888 917.885
v -30.7528 -88.5406 902.415
v -29.3528 -88.3336 902.415
v -27.2528 -89.9906 900.922
v -27.271 -89.7309 901.718
v -26.8769 -90.2697 902.742
v -31.6427 -88.7067 903.869
v -31.2281 -89.9642 905.953
v -29.2344 -90.1715 905.983
v -25.4451 -109.861 924.388
v -22.347 -112.7 927.872
v -26.3213 -106.077 909.341
v -26.5033 -104.164 905.424
v -23.555 -106.326 910.698
v -21.9471 -104.906 935.726
v -26.3365 -102.497 903.078
v -25.7025 -101.291 902.174
v -26.218 -99.8179 901.085
v -24.8949 -100.56 902.347
v -24.8952 -99.0442 901.312
v -21.4775 -102.119 908.635
v -25.6676 -102.874 928.093
v -25.5188 -96.2276 900.632
v -23.6756 -98.3236 902.973
v -24.0066 -96.725 902.328
v -23.845 -94.3916 905.675
v -23.9198 -94.1216 908.846
v -25.3524 -94.1071 913.186
v -25.8528 -91.4041 901.015
v -26.6459 -91.5603 906.567
v -17.8828 -115.799 951.371
v -17.343 -118.241 948.181
v -16.4766 -118.599 958.532
v -16.1993 -118.686 960.513
v -16.551 -117.154 959.999
v -16.1925 -115.629 960.646
v -15.6484 -119.448 961.135
v -15.6594 -118.667 961.862
v -15.9842 -117.306 961.832
v -15.4444 -115.961 962.545
v -19.3098 -112.197 924.263
v -16.9229 -111.973 925.33
v -20.2731 -113.644 928.324
v -20.563 -110.672 942.968
v -20.34 -113.798 942.92
v -17.5479 -112.931 952.31
v -20.4097 -106.04 913.472
v -16.7044 -108.951 949.074
v -16.9607 -101.492 929.843
v -15.8071 -102.235 927.762
v -20.2555 -102.928 934.61
v -15.1944 -120.444 950.142
v -13.6701 -121.396 950.683
v -12.2276 -121.003 947.67
v -11.103 -122.621 952.98
v -15.3871 -120.651 958.93
v -14.6781 -121.457 957.239
v -12.5164 -122.838 957.42
v -14.6839 -120.97 960.56
v -13.8805 -121.858 959.818
v -13.9254 -120.675 961.88
v -12.5253 -121.455 961.831
v -11.1933 -122.631 960.444
v -10.4739 -121.719 961.922
v -15.186 -119.415 961.905
v -15.2858 -117.955 962.637
v -14.6394 -115.973 963.305
v -13.945 -119.323 963.024
v -13.9498 -117.914 963.674
v -13.3144 -115.148 963.939
v -13.2102 -116.57 964.222
v -12.4876 -120.094 963.117
v -12.4792 -118.025 964.2
v -11.7756 -116.593 964.606
v -11.8314 -115.232 964.435
v -14.7768 -110.096 926.048
v -14.7459 -112.239 928.425
v -14.7402 -114.372 962.239
v -13.1676 -113.725 963.215
v -11.8779 -113.859 963.861
v -12.0951 -111.478 960.659
v -11.1036 -112.301 962.637
v -10.4317 -114.423 964.299
v -10.5762 -111.057 960.356
v -15.5591 -106.746 922.544
v -15.0011 -104.461 925.101
v -13.0132 -109.241 929.518
v -14.1959 -105.292 941.536
v -12.9465 -108.147 950.831
v -10.4285 -120.006 946.079
v -9.11822 -122.356 952.547
v -8.55486 -120.326 948.818
v -9.77733 -123.448 956.935
v -9.73373 -123.259 959.044
v -8.35818 -123.082 955.586
v -7.7191 -123.187 957.713
v -7.67642 -122.887 959.156
v -6.30839 -122.517 957.028
v -6.33266 -122.478 958.415
v -6.45293 -122.063 955.243
v -5.555 -121.903 958.412
v -5.15797 -121.415 956.842
v -4.51925 -120.757 958.411
v -9.07484 -122.616 960.513
v -8.3545 -121.381 961.907
v -7.6298 -122.257 960.514
v -6.27882 -121.972 959.773
v -6.31098 -120.99 961.191
v -4.98037 -120.823 959.813
v -7.01351 -118.834 949.626
v -9.77089 -119.362 963.762
v -9.87695 -117.317 964.567
v -9.73617 -115.889 964.607
v -8.33535 -117.312 964.25
v -6.96228 -118.784 963.202
v -7.05913 -115.862 963.792
v -6.24424 -117.23 963.311
v -5.27603 -119.994 961.191
v -5.58375 -115.24 962.628
v -4.41199 -120.064 959.789
v -4.80625 -118.012 961.913
v -4.63157 -116.617 961.941
v -4.26496 -115.892 961.193
v -8.02594 -113.179 945.308
v -8.17967 -111.154 947.088
v -9.10339 -113.127 963.393
v -9.08527 -112.228 962.501
v -8.37617 -114.423 963.963
v -7.65752 -113.1 962.823
v -7.8995 -111.403 960.064
v -6.95606 -114.322 963.286
v -6.2501 -113.821 962.462
v -6.25798 -112.709 961.167
v -6.66724 -111.784 958.726
v -4.80077 -114.477 961.205
v -4.88745 -113.653 959.402
v -9.77357 -108.86 946.447
v -4.24789 -119.948 956.881
v -3.82899 -119.387 958.476
v -4.23749 -118.497 955.804
v -3.69423 -118.681 957.698
v -3.58855 -117.989 959.129
v -3.73644 -117.179 957.379
v -4.36392 -114.925 956.991
v -4.09863 -118.71 960.472
v -4.12131 -117.292 961.129
v -3.69335 -116.563 959.732
v -4.02895 -115.182 959.816
v -35.454 -98.3276 905.266
v -34.7556 -99.8333 905.378
v -34.1091 -100.551 904.541
v -35.8807 -95.6518 905.211
v -35.2695 -91.3906 904.515
v -33.5583 -89.2906 903.815
v -30.7528 -88.5406 902.415
v -30.7528 -88.5406 902.415
v -29.3528 -88.3336 902.415
v -29.3528 -88.3336 902.415
v -27.2528 -89.9906 900.922
v -27.2528 -89.9906 900.922
v -27.2528 -89.9906 900.922
v -26.218 -99.8179 901.085
v -25.5188 -96.2276 900.632
v -25.5188 -96.2276 900.632
v -25.5188 -96.2276 900.632
v -25.8528 -91.4041 901.015
vn -0.908173 -0.397999 0.129687
vn -0.699077 -0.249068 -0.670266
vn -0.950053 -0.262734 0.168433
vn -0.780648 -0.283935 -0.55675
vn -0.565226 -0.141335 -0.812738
vn -0.928646 -0.250081 0.274001
vn -0.753985 -0.652811 -0.0731046
vn -0.691195 -0.195268 -0.695787
vn -0.866556 -0.47271 0.160079
vn -0.928486 -0.110834 0.354442
vn -0.965324 -0.0804096 0.248362
vn -0.716062 -0.086919 -0.692604
vn -0.909888 0.147346 0.387806
vn -0.554892 -0.0469207 -0.830598
vn -0.77654 0.370501 0.509621
vn -0.594643 0.0440593 -0.802782
vn -0.649818 0.528923 0.545873
vn -0.451026 0.0418746 -0.891528
vn -0.554685 0.667113 0.497277
vn -0.486871 0.123702 -0.86467
vn -0.29482 0.79981 0.522863
vn -0.661191 -0.748089 -0.0564761
vn -0.371022 -0.896079 -0.243692
vn -0.925681 -0.25914 0.275609
vn -0.863705 -0.481511 0.148867
vn -0.912365 0.0612849 0.404764
vn -0.416657 -0.467119 -0.77987
vn -0.0608626 -0.800975 -0.595597
vn 0.0333974 -0.589156 -0.807329
vn -0.551376 -0.774293 -0.310573
vn -0.291216 -0.841499 -0.455053
vn -0.49792 0.662073 0.560121
vn -0.0385552 0.900391 0.43337
vn -0.45014 0.729668 0.514742
vn -0.430401 0.0645192 -0.900329
vn 0.450154 0.866814 0.214464
vn -0.379727 -0.0372772 -0.924347
vn 0.651637 0.755933 -0.0627237
vn 0.692819 0.710787 0.121592
vn -0.112184 0.940007 0.322182
vn -0.128787 0.843658 0.521206
vn 0.208243 0.885915 0.414475
vn -0.730006 -0.683321 0.0127739
vn -0.509239 -0.849456 -0.138203
vn -0.0422792 -0.919154 -0.391622
vn 0.168673 -0.851447 -0.496576
vn 0.330069 -0.808722 -0.486851
vn -0.714024 0.527096 0.460804
vn 0.347605 -0.739798 -0.576081
vn 0.461914 -0.572402 -0.677489
vn -0.35751 -0.111528 -0.927226
vn 0.631699 -0.457119 -0.626097
vn 0.680135 -0.237076 -0.693694
vn 0.823836 -0.299418 -0.481294
vn -0.747397 0.441984 0.496033
vn -0.370412 -0.0518822 -0.927418
vn 0.878602 -0.0952059 -0.467967
vn 0.885656 0.117302 -0.449282
vn 0.866161 0.489376 -0.101368
vn 0.686855 0.72411 0.0624041
vn 0.366623 0.894182 0.256956
vn 0.843991 0.493255 -0.210663
vn 0.500733 0.823015 0.268165
vn -0.971132 -0.150771 0.184851
vn -0.840147 -0.5389 0.0611568
vn -0.943654 -0.316217 0.0975895
vn -0.922926 -0.303294 0.237107
vn -0.978778 -0.0304217 0.202654
vn -0.899965 0.296066 0.320014
vn -0.800486 -0.497548 0.334168
vn -0.812504 -0.31632 0.489672
vn -0.900826 -0.0491378 0.431391
vn -0.787549 0.196563 0.584063
vn 0.123538 -0.90749 -0.401497
vn 0.451638 -0.759003 -0.468976
vn -0.216719 -0.934469 -0.282489
vn -0.919278 0.130676 0.371284
vn -0.937058 -0.243828 0.24994
vn -0.926408 0.231246 0.297142
vn 0.638184 -0.575001 -0.511953
vn -0.626653 0.675887 0.38792
vn 0.528673 0.838945 0.129134
vn 0.777436 0.627437 -0.0437748
vn -0.317325 0.841759 0.436745
vn -0.597768 -0.798219 -0.0742903
vn -0.364701 -0.913417 -0.180726
vn -0.0225412 -0.947184 -0.319898
vn -0.10338 -0.970879 -0.216116
vn -0.795847 -0.595053 0.111979
vn -0.640396 -0.768033 -0.004271
vn -0.36766 -0.929936 0.00674545
vn -0.651294 -0.672146 0.352186
vn -0.496843 -0.829393 0.255449
vn -0.46148 -0.67418 0.576644
vn -0.274586 -0.770578 0.575162
vn -0.1779 -0.904979 0.386477
vn -0.00846322 -0.737058 0.675776
vn -0.647203 -0.50312 0.572711
vn -0.683222 -0.205425 0.70072
vn -0.608528 0.142991 0.780543
vn -0.456009 -0.461892 0.760731
vn -0.49135 -0.21048 0.845147
vn -0.447157 0.331659 0.830694
vn -0.374213 0.0070913 0.927316
vn -0.205826 -0.582815 0.786106
vn -0.205101 -0.324731 0.9233
vn -0.125576 -0.0366384 0.991407
vn -0.173771 0.225626 0.958591
vn 0.824272 -0.353795 -0.442046
vn 0.657485 -0.598226 -0.458082
vn -0.665761 0.533165 0.522013
vn -0.446737 0.62457 0.640577
vn -0.212205 0.507166 0.835315
vn -0.372137 0.833347 0.408714
vn -0.123187 0.752245 0.647265
vn 0.017331 0.431669 0.901866
vn -0.0078701 0.928663 0.37084
vn 0.922244 -0.0500328 -0.383358
vn 0.920672 0.325879 -0.214864
vn 0.938813 -0.0561008 -0.339827
vn 0.245549 0.937844 0.245263
vn -0.178675 0.923026 0.340732
vn 0.356602 -0.836716 -0.415621
vn 0.272015 -0.901794 -0.33582
vn 0.587116 -0.697201 -0.411346
vn -0.0284678 -0.998202 -0.0527491
vn -0.00780502 -0.975546 0.219659
vn 0.24855 -0.943988 -0.217046
vn 0.271136 -0.961649 0.0414279
vn 0.289697 -0.908033 0.302574
vn 0.53553 -0.837691 -0.107155
vn 0.487559 -0.857545 0.16402
vn 0.583498 -0.741474 -0.331279
vn 0.667007 -0.734746 0.123492
vn 0.757228 -0.620829 -0.202922
vn 0.824297 -0.562639 0.0630182
vn 0.11361 -0.866047 0.486884
vn 0.239247 -0.67425 0.698676
vn 0.321693 -0.798483 0.50886
vn 0.509811 -0.773588 0.376369
vn 0.476098 -0.640357 0.602722
vn 0.67928 -0.635041 0.367834
vn 0.8381 -0.375938 -0.395296
vn 0.0992524 -0.487449 0.867492
vn 0.0605049 -0.210573 0.975704
vn 0.12783 0.103307 0.986401
vn 0.297573 -0.180911 0.937401
vn 0.424521 -0.430166 0.796705
vn 0.427723 0.116564 0.896363
vn 0.556857 -0.103131 0.824181
vn 0.656024 -0.481083 0.581543
vn 0.666376 0.237022 0.70694
vn 0.823265 -0.468015 0.321242
vn 0.70797 -0.258555 0.657212
vn 0.759505 0.0287785 0.649864
vn 0.875139 0.204766 0.438408
vn 0.949995 0.10601 -0.293721
vn 0.890051 0.42833 -0.156018
vn 0.137873 0.604103 0.784889
vn 0.169183 0.812966 0.557193
vn 0.276714 0.367472 0.887915
vn 0.373746 0.657083 0.654642
vn 0.334034 0.882229 0.331803
vn 0.472031 0.381646 0.79469
vn 0.588835 0.511517 0.625798
vn 0.587443 0.720429 0.368637
vn 0.599129 0.79296 0.110721
vn 0.784069 0.463646 0.412636
vn 0.795105 0.602533 0.0690107
vn 0.7217 0.692169 -0.00721016
vn 0.892603 -0.385784 -0.233305
vn 0.939072 -0.336578 0.0697098
vn 0.932181 -0.131786 -0.33715
vn 0.976307 -0.150412 -0.155566
vn 0.989782 -0.0851378 0.114382
vn 0.978785 0.0963196 -0.180836
vn 0.91748 0.372194 -0.140364
vn 0.871878 -0.295396 0.390603
vn 0.90433 -0.0600377 0.422591
vn 0.983527 0.142288 0.111482
vn 0.92182 0.364932 0.130661
vn -0.957843 -0.278663 0.0698756
vn -0.852064 -0.523041 0.0203672
vn -0.696136 -0.653657 -0.296861
vn -0.975784 0.0399617 0.215055
vn -0.791227 0.438698 0.426033
vn -0.438729 0.846567 0.301397
vn -0.218497 0.975584 -0.0222641
vn -0.0890234 0.602088 -0.793451
vn -0.0890234 0.602088 -0.793451
vn -0.146227 0.988972 0.0234875
vn -0.0890234 0.602088 -0.793451
vn 0.594648 0.768264 -0.236988
vn 0.155065 0.0888367 -0.983902
vn 0.377361 -0.400523 -0.834973
vn 0.263006 -0.171027 -0.949514
vn 0.75307 0.0543238 -0.655694
vn 0.155065 0.0888367 -0.983902
vn 0.155065 0.0888367 -0.983902
g grp1
usemtl mtl1
f 5//5 4//4 2//2 
f 183//183 1//1 182//182 
f 1//1 3//3 182//182 
f 5//5 2//2 12//12 
f 185//185 182//182 11//11 
f 182//182 3//3 11//11 
f 183//183 7//7 9//9 
f 183//183 9//9 1//1 
f 5//5 8//8 4//4 
f 1//1 6//6 3//3 
f 3//3 6//6 11//11 
f 183//183 184//184 7//7 
f 27//27 8//8 5//5 
f 184//184 30//30 7//7 
f 184//184 27//27 30//30 
f 22//22 7//7 30//30 
f 9//9 7//7 22//22 
f 6//6 10//10 11//11 
f 1//1 9//9 6//6 
f 9//9 10//10 6//6 
f 11//11 10//10 13//13 
f 10//10 26//26 13//13 
f 9//9 22//22 43//43 
f 26//26 15//15 13//13 
f 5//5 14//14 37//37 
f 11//11 13//13 185//185 
f 12//12 16//16 14//14 
f 13//13 186//186 185//185 
f 12//12 14//14 5//5 
f 13//13 15//15 186//186 
f 15//15 17//17 186//186 
f 17//17 15//15 32//32 
f 35//35 18//18 20//20 
f 37//37 18//18 35//35 
f 37//37 14//14 18//18 
f 18//18 14//14 16//16 
f 19//19 187//187 186//186 
f 16//16 20//20 18//18 
f 19//19 186//186 17//17 
f 19//19 17//17 32//32 
f 19//19 32//32 21//21 
f 21//21 187//187 19//19 
f 187//187 21//21 40//40 
f 21//21 32//32 41//41 
f 21//21 41//41 40//40 
f 31//31 28//28 45//45 
f 28//28 46//46 45//45 
f 22//22 30//30 23//23 
f 23//23 30//30 31//31 
f 45//45 23//23 31//31 
f 43//43 25//25 9//9 
f 44//44 22//22 23//23 
f 45//45 76//76 23//23 
f 44//44 23//23 76//76 
f 25//25 24//24 9//9 
f 24//24 78//78 26//26 
f 25//25 78//78 24//24 
f 55//55 26//26 77//77 
f 78//78 77//77 26//26 
f 28//28 31//31 27//27 
f 27//27 29//29 28//28 
f 29//29 27//27 51//51 
f 51//51 27//27 5//5 
f 46//46 28//28 49//49 
f 28//28 29//29 49//49 
f 30//30 27//27 31//31 
f 43//43 22//22 44//44 
f 9//9 24//24 10//10 
f 24//24 26//26 10//10 
f 26//26 55//55 15//15 
f 32//32 15//15 55//55 
f 55//55 34//34 32//32 
f 56//56 5//5 37//37 
f 33//33 61//61 42//42 
f 34//34 41//41 32//32 
f 41//41 34//34 33//33 
f 187//187 40//40 188//188 
f 42//42 36//36 40//40 
f 190//190 192//192 189//189 
f 40//40 191//191 188//188 
f 38//38 193//193 36//36 
f 42//42 63//63 36//36 
f 39//39 36//36 63//63 
f 62//62 193//193 38//38 
f 39//39 62//62 38//38 
f 36//36 39//39 38//38 
f 41//41 33//33 42//42 
f 41//41 42//42 40//40 
f 61//61 63//63 42//42 
f 45//45 74//74 76//76 
f 43//43 65//65 25//25 
f 25//25 65//65 78//78 
f 43//43 85//85 65//65 
f 85//85 43//43 44//44 
f 85//85 44//44 86//86 
f 76//76 86//86 44//44 
f 49//49 47//47 46//46 
f 47//47 49//49 80//80 
f 49//49 50//50 80//80 
f 50//50 52//52 80//80 
f 46//46 47//47 45//45 
f 45//45 47//47 74//74 
f 80//80 52//52 54//54 
f 55//55 48//48 34//34 
f 55//55 77//77 48//48 
f 79//79 48//48 77//77 
f 29//29 50//50 49//49 
f 50//50 29//29 195//195 
f 56//56 51//51 5//5 
f 50//50 195//195 52//52 
f 195//195 53//53 52//52 
f 53//53 195//195 196//196 
f 52//52 53//53 54//54 
f 57//57 54//54 53//53 
f 58//58 53//53 197//197 
f 53//53 58//58 57//57 
f 57//57 58//58 118//118 
f 54//54 57//57 118//118 
f 61//61 33//33 121//121 
f 34//34 84//84 33//33 
f 34//34 48//48 84//84 
f 62//62 58//58 197//197 
f 199//199 198//198 194//194 
f 62//62 59//59 58//58 
f 63//63 61//61 60//60 
f 119//119 59//59 60//60 
f 58//58 59//59 119//119 
f 62//62 39//39 59//59 
f 60//60 59//59 39//39 
f 63//63 60//60 39//39 
f 65//65 89//89 66//66 
f 65//65 64//64 78//78 
f 65//65 66//66 64//64 
f 66//66 68//68 64//64 
f 64//64 68//68 79//79 
f 67//67 68//68 66//66 
f 68//68 72//72 69//69 
f 69//69 79//79 68//68 
f 66//66 89//89 67//67 
f 89//89 70//70 67//67 
f 70//70 71//71 67//67 
f 67//67 71//71 72//72 
f 71//71 99//99 72//72 
f 68//68 67//67 72//72 
f 99//99 100//100 73//73 
f 72//72 99//99 73//73 
f 72//72 73//73 69//69 
f 73//73 111//111 69//69 
f 75//75 74//74 47//47 
f 109//109 80//80 54//54 
f 75//75 80//80 110//110 
f 110//110 80//80 109//109 
f 87//87 86//86 76//76 
f 74//74 75//75 123//123 
f 75//75 110//110 123//123 
f 78//78 64//64 77//77 
f 64//64 79//79 77//77 
f 79//79 69//69 81//81 
f 81//81 69//69 111//111 
f 47//47 80//80 75//75 
f 118//118 58//58 119//119 
f 54//54 118//118 109//109 
f 84//84 48//48 81//81 
f 121//121 84//84 122//122 
f 79//79 81//81 48//48 
f 122//122 84//84 81//81 
f 81//81 114//114 122//122 
f 83//83 119//119 60//60 
f 121//121 82//82 61//61 
f 83//83 60//60 82//82 
f 33//33 84//84 121//121 
f 119//119 83//83 158//158 
f 158//158 83//83 170//170 
f 83//83 82//82 170//170 
f 60//60 61//61 82//82 
f 88//88 86//86 87//87 
f 123//123 124//124 87//87 
f 87//87 124//124 88//88 
f 85//85 90//90 65//65 
f 89//89 65//65 90//90 
f 85//85 91//91 90//90 
f 91//91 93//93 90//90 
f 93//93 89//89 90//90 
f 86//86 91//91 85//85 
f 88//88 91//91 86//86 
f 88//88 126//126 91//91 
f 126//126 127//127 91//91 
f 92//92 89//89 93//93 
f 94//94 92//92 93//93 
f 94//94 93//93 95//95 
f 93//93 96//96 95//95 
f 105//105 94//94 95//95 
f 101//101 94//94 105//105 
f 96//96 93//93 91//91 
f 97//97 95//95 96//96 
f 91//91 127//127 96//96 
f 97//97 105//105 95//95 
f 105//105 97//97 144//144 
f 96//96 137//137 97//97 
f 138//138 97//97 137//137 
f 97//97 138//138 144//144 
f 143//143 110//110 109//109 
f 76//76 74//74 87//87 
f 123//123 87//87 74//74 
f 92//92 70//70 89//89 
f 92//92 98//98 70//70 
f 92//92 94//94 98//98 
f 98//98 71//71 70//70 
f 98//98 99//99 71//71 
f 98//98 101//101 99//99 
f 111//111 100//100 103//103 
f 73//73 100//100 111//111 
f 94//94 101//101 98//98 
f 101//101 102//102 99//99 
f 99//99 102//102 100//100 
f 102//102 104//104 100//100 
f 103//103 100//100 104//104 
f 102//102 101//101 106//106 
f 106//106 104//104 102//102 
f 104//104 108//108 103//103 
f 105//105 106//106 101//101 
f 106//106 107//107 104//104 
f 107//107 108//108 104//104 
f 146//146 108//108 107//107 
f 144//144 106//106 105//105 
f 106//106 144//144 145//145 
f 145//145 107//107 106//106 
f 146//146 107//107 145//145 
f 116//116 108//108 146//146 
f 109//109 120//120 143//143 
f 109//109 118//118 120//120 
f 157//157 119//119 158//158 
f 120//120 119//119 157//157 
f 143//143 120//120 157//157 
f 111//111 114//114 81//81 
f 122//122 114//114 117//117 
f 121//121 122//122 117//117 
f 112//112 111//111 103//103 
f 114//114 111//111 112//112 
f 113//113 103//103 108//108 
f 113//113 112//112 103//103 
f 112//112 115//115 114//114 
f 115//115 112//112 113//113 
f 114//114 115//115 117//117 
f 113//113 108//108 116//116 
f 116//116 115//115 113//113 
f 118//118 119//119 120//120 
f 121//121 170//170 82//82 
f 170//170 121//121 167//167 
f 124//124 128//128 88//88 
f 124//124 123//123 125//125 
f 124//124 133//133 128//128 
f 125//125 133//133 124//124 
f 88//88 128//128 126//126 
f 129//129 127//127 126//126 
f 127//127 130//130 137//137 
f 128//128 129//129 126//126 
f 129//129 130//130 127//127 
f 128//128 131//131 129//129 
f 129//129 132//132 130//130 
f 128//128 133//133 131//131 
f 131//131 132//132 129//129 
f 132//132 140//140 130//130 
f 134//134 132//132 131//131 
f 140//140 132//132 134//134 
f 134//134 142//142 140//140 
f 135//135 131//131 133//133 
f 134//134 131//131 135//135 
f 125//125 143//143 133//133 
f 135//135 136//136 134//134 
f 136//136 142//142 134//134 
f 135//135 133//133 143//143 
f 136//136 135//135 171//171 
f 153//153 142//142 136//136 
f 137//137 96//96 127//127 
f 144//144 138//138 148//148 
f 130//130 139//139 137//137 
f 139//139 138//138 137//137 
f 141//141 138//138 139//139 
f 141//141 148//148 138//138 
f 140//140 139//139 130//130 
f 141//141 139//139 140//140 
f 142//142 151//151 141//141 
f 142//142 141//141 140//140 
f 153//153 151//151 142//142 
f 178//178 151//151 153//153 
f 110//110 125//125 123//123 
f 110//110 143//143 125//125 
f 143//143 157//157 173//173 
f 143//143 171//171 135//135 
f 136//136 172//172 153//153 
f 173//173 157//157 176//176 
f 170//170 169//169 177//177 
f 169//169 181//181 177//177 
f 147//147 146//146 145//145 
f 161//161 116//116 146//146 
f 144//144 147//147 145//145 
f 148//148 147//147 144//144 
f 147//147 149//149 146//146 
f 146//146 149//149 161//161 
f 149//149 164//164 161//161 
f 148//148 141//141 151//151 
f 148//148 150//150 147//147 
f 150//150 149//149 147//147 
f 149//149 152//152 164//164 
f 151//151 154//154 148//148 
f 148//148 154//154 150//150 
f 150//150 152//152 149//149 
f 150//150 155//155 152//152 
f 172//172 178//178 153//153 
f 154//154 151//151 178//178 
f 155//155 154//154 179//179 
f 150//150 154//154 155//155 
f 156//156 155//155 179//179 
f 156//156 152//152 155//155 
f 181//181 168//168 156//156 
f 156//156 168//168 152//152 
f 177//177 158//158 170//170 
f 157//157 158//158 177//177 
f 121//121 163//163 167//167 
f 170//170 167//167 169//169 
f 161//161 159//159 116//116 
f 159//159 115//115 116//116 
f 159//159 160//160 115//115 
f 117//117 115//115 160//160 
f 161//161 162//162 159//159 
f 162//162 160//160 159//159 
f 163//163 117//117 160//160 
f 162//162 163//163 160//160 
f 121//121 117//117 163//163 
f 164//164 162//162 161//161 
f 152//152 165//165 164//164 
f 165//165 166//166 162//162 
f 165//165 162//162 164//164 
f 166//166 163//163 162//162 
f 163//163 166//166 167//167 
f 152//152 168//168 165//165 
f 168//168 166//166 165//165 
f 169//169 168//168 181//181 
f 166//166 169//169 167//167 
f 169//169 166//166 168//168 
f 172//172 136//136 171//171 
f 143//143 173//173 171//171 
f 171//171 173//173 174//174 
f 171//171 174//174 172//172 
f 173//173 176//176 174//174 
f 172//172 174//174 175//175 
f 174//174 176//176 175//175 
f 175//175 176//176 180//180 
f 176//176 157//157 177//177 
f 180//180 176//176 177//177 
f 177//177 181//181 180//180 
f 172//172 175//175 178//178 
f 178//178 175//175 179//179 
f 178//178 179//179 154//154 
f 175//175 180//180 179//179 
f 179//179 180//180 156//156 
f 180//180 181//181 156//156 
