#
# The license for this database is specified in the Creative Commons Attribution-Share Alike 2.1 Japan. If you use data from this database, please be sure attribute this database as follows: "BodyParts3D, (c)  The Database Center for Life Science licensed under CC Attribution-Share Alike 2.1 Japan".
# http://dbarchive.biosciencedbc.jp/en/bodyparts3d/lic.html
#
#
# Compatibility version : 4.0
# File ID : FJ3051
# Representation ID : BP9523
# Build-up logic : FMA 3.0 part_of
# Concept ID : FMA8670
# English name : Right superior segmental vein
# Bounds(mm): (-79.851800,-79.642600,1223.800100)-(-27.814800,-42.352200,1253.560100)
# Volume(cm3): 0.539700
#
v -57.5676 -53.9902 1224.47
v -56.9902 -56.829 1224.63
v -59.4174 -54.3089 1225.36
v -58.2994 -55.9028 1225.8
v -58.8974 -54.9304 1227.08
v -60.4874 -50.6055 1226.24
v -60.5666 -53.3242 1226.46
v -61.266 -51.4742 1226.62
v -62.2598 -50.5418 1228.07
v -61.6137 -51.7186 1228.11
v -61.6479 -50.9823 1229.2
v -76.2344 -45.3591 1248.7
v -78.8027 -45.0495 1251.07
v -79.8518 -44.9133 1252.59
v -78.9172 -44.4197 1251.27
v -79.757 -44.4445 1252.65
v -79.4274 -44.1465 1252.41
v -78.2867 -43.9647 1250.96
v -79.4273 -44.249 1253.19
v -78.4322 -43.9131 1252.04
v -79.4732 -45.458 1252.31
v -79.658 -45.4441 1252.9
v -79.1057 -45.6894 1252.48
v -79.1576 -45.6418 1253.1
v -79.5574 -45.2915 1253.37
v -79.8313 -44.7632 1253.21
v -78.2783 -45.733 1252.36
v -79.1335 -45.4216 1253.47
v -79.375 -45.1445 1253.56
v -78.4799 -45.498 1253.12
v -78.9131 -45.2045 1253.55
v -79.3013 -44.7038 1253.56
v -77.8676 -45.298 1252.7
v -78.4772 -45.106 1253.35
v -45.833 -65.5904 1225.09
v -51.5399 -58.048 1223.8
v -51.2855 -57.5562 1224.27
v -51.6734 -60.8518 1226.2
v -51.4533 -59.1073 1227.19
v -56.2791 -54.0263 1224.59
v -54.4004 -54.9128 1225.22
v -55.5702 -57.1995 1227.11
v -54.0345 -56.1505 1226.96
v -54.323 -55.1611 1226.41
v -56.5886 -52.9644 1226.28
v -56.265 -53.5428 1226.87
v -57.4406 -52.3157 1227.29
v -56.2428 -54.6022 1227.42
v -58.0322 -51.6894 1226.11
v -59.3165 -50.6078 1226.35
v -58.6558 -50.7611 1226.93
v -59.129 -52.1933 1228.66
v -57.8538 -51.6454 1226.86
v -58.0806 -52.2259 1228
v -58.5427 -50.8222 1227.66
v -58.6947 -51.0934 1228.28
v -61.0986 -48.575 1227.64
v -59.7055 -49.1122 1228.25
v -59.5987 -49.3025 1228.89
v -62.0238 -48.6248 1227.92
v -61.4796 -49.4379 1230.65
v -60.2811 -49.1637 1229.98
v -63.3751 -47.1166 1229.96
v -63.9085 -47.2204 1231.47
v -62.5475 -46.4249 1229.64
v -63.5445 -45.3639 1231.06
v -65.2317 -45.4485 1234.15
v -66.8416 -43.9282 1236.28
v -68.1114 -43.5309 1238.25
v -70.7442 -43.668 1241.74
v -70.6686 -44.3704 1242.12
v -70.3566 -44.6235 1242.47
v -72.8777 -44.4096 1244.42
v -72.2423 -44.6216 1244
v -73.59 -43.9771 1245.11
v -73.983 -43.5662 1245.79
v -74.1016 -43.3015 1246.49
v -73.3965 -45.2446 1247.05
v -73.1046 -45.1 1247.2
v -73.1019 -44.653 1247.64
v -74.7012 -43.4761 1248.31
v -75.7258 -45.4216 1250.05
v -77.4666 -44.7717 1252.4
v -78.3652 -44.4611 1253.08
v -40.5273 -67.8252 1223.96
v -41.5414 -69.0111 1227.15
v -48.4244 -59.2553 1225.6
v -50.8009 -58.582 1226.97
v -61.2189 -46.8828 1231.48
v -61.9245 -45.861 1230.49
v -62.8941 -44.9166 1231.31
v -62.3957 -47.1538 1232.62
v -62.1806 -44.8704 1232.66
v -63.2616 -43.7837 1233.4
v -63.0192 -44.0344 1234.44
v -64.095 -45.7699 1234.73
v -63.2235 -44.895 1234.88
v -65.355 -43.7412 1234.21
v -64.5923 -43.388 1233.89
v -64.9102 -42.8002 1235.32
v -64.0703 -43.0754 1235.45
v -64.4761 -43.7817 1237
v -64.127 -43.2184 1236.19
v -65.6744 -42.8975 1235.43
v -66.1552 -44.7651 1237.27
v -65.3086 -44.283 1237.83
v -66.1337 -42.4008 1237.12
v -65.9812 -43.181 1239.14
v -64.7821 -42.7784 1236.68
v -65.1394 -42.9391 1237.78
v -66.2027 -42.5092 1238.61
v -67.9615 -42.6755 1238.49
v -67.2554 -42.3522 1238.3
v -67.9501 -44.4459 1239.42
v -67.5673 -44.2877 1240.64
v -69.8157 -42.6627 1241.14
v -68.011 -43.8153 1241.76
v -69.5376 -44.5228 1242.99
v -70.0767 -42.6288 1243.03
v -70.3914 -44.2884 1244.54
v -70.8067 -43.2782 1244.89
v -31.5576 -77.7081 1224.53
v -31.173 -79.1658 1225.75
v -29.8864 -79.3744 1225.02
v -32.0123 -78.4017 1227.02
v -42.1266 -64.6071 1224.45
v -40.5647 -65.5606 1226.96
v -41.9238 -67.9742 1227.66
v -39.8632 -67.5714 1227.89
v -28.6582 -79.1036 1225.13
v -30.8053 -76.628 1224.19
v -29.4212 -77.3872 1224.41
v -31.1903 -75.2554 1224.34
v -29.9 -75.3619 1225.13
v -29.4853 -78.5403 1224.51
v -28.8384 -78.3724 1224.65
v -28.2304 -78.5562 1225.19
v -28.2287 -79.1035 1225.89
v -28.4356 -77.5351 1224.97
v -27.9 -78.3886 1225.75
v -28.0046 -77.9215 1225.41
v -27.9642 -78.6618 1226.3
v -27.8148 -78.0794 1226.02
v -27.9331 -78.2185 1226.75
v -30.2639 -79.4713 1227.23
v -29.0545 -79.6426 1225.93
v -29.2044 -79.3809 1227.31
v -28.5537 -79.0335 1227.13
v -28.9673 -78.8472 1227.67
v -28.3661 -78.3817 1227.4
v -28.7663 -78.117 1227.79
v -31.5421 -77.9308 1227.96
v -29.7962 -78.9703 1227.84
v -32.0928 -76.434 1228.24
v -29.9539 -78.3194 1228.14
v -34.08 -72.2311 1227.95
v -35.0923 -70.4084 1227.32
v -37.6851 -67.6903 1226.11
v -38.9788 -67.4355 1227.58
v -27.92 -77.3239 1225.92
v -27.8625 -77.4505 1226.63
v -28.3211 -76.5641 1225.85
v -28.2389 -77.5795 1227.37
v -28.0472 -76.8163 1226.42
v -28.1071 -77.0356 1227.03
v -28.851 -75.8451 1226.24
v -28.3819 -76.4237 1226.83
v -29.3205 -77.0012 1227.95
v -28.5153 -76.7529 1227.38
v -29.7374 -75.1019 1226.96
v -29.4878 -75.7017 1227.43
v -56.9902 -56.829 1224.63
v -59.4174 -54.3089 1225.36
v -79.757 -44.4445 1252.65
v -79.4274 -44.1465 1252.41
v -79.4273 -44.249 1253.19
v -79.4273 -44.249 1253.19
v -78.4322 -43.9131 1252.04
v -79.658 -45.4441 1252.9
v -79.5574 -45.2915 1253.37
v -79.5574 -45.2915 1253.37
v -79.8313 -44.7632 1253.21
v -79.8313 -44.7632 1253.21
v -79.375 -45.1445 1253.56
v -79.3013 -44.7038 1253.56
v -45.833 -65.5904 1225.09
v -55.5702 -57.1995 1227.11
v -61.4796 -49.4379 1230.65
v -63.9085 -47.2204 1231.47
v -65.2317 -45.4485 1234.15
v -66.8416 -43.9282 1236.28
v -68.1114 -43.5309 1238.25
v -74.7012 -43.4761 1248.31
v -75.7258 -45.4216 1250.05
v -62.3957 -47.1538 1232.62
v -63.0192 -44.0344 1234.44
v -64.095 -45.7699 1234.73
v -64.127 -43.2184 1236.19
v -66.1552 -44.7651 1237.27
v -67.9501 -44.4459 1239.42
v -69.8157 -42.6627 1241.14
v -70.0767 -42.6288 1243.03
v -70.3914 -44.2884 1244.54
v -31.173 -79.1658 1225.75
v -29.8864 -79.3744 1225.02
vn -0.189087 0.192603 -0.962886
vn -0.298411 -0.254021 -0.920013
vn -0.770143 -0.492329 -0.405576
vn -0.701083 -0.712414 -0.0307987
vn -0.486325 -0.672975 0.557309
vn -0.254038 0.38965 -0.885233
vn -0.833833 -0.524803 -0.171184
vn -0.712588 -0.0121053 -0.701479
vn -0.916708 -0.275356 -0.289526
vn -0.770174 -0.604086 0.204723
vn -0.448243 -0.666721 0.59545
vn -0.302132 -0.887547 -0.347817
vn -0.744591 -0.262499 -0.613741
vn -0.942267 -0.102786 -0.318698
vn -0.766221 0.335219 -0.548209
vn -0.888607 0.312774 -0.335484
vn -0.711552 0.540144 -0.449375
vn -0.490247 0.814072 -0.311358
vn -0.544545 0.822138 0.166008
vn -0.177872 0.983958 0.0137258
vn -0.647232 -0.662045 -0.377871
vn -0.922021 -0.383406 0.0536444
vn -0.278852 -0.954355 -0.106997
vn -0.159461 -0.934482 0.318301
vn -0.406111 -0.731181 0.548131
vn -0.977936 -0.157272 0.1375
vn 0.117945 -0.985977 0.118065
vn -0.0520702 -0.667914 0.742415
vn -0.620581 -0.0222529 0.783827
vn 0.40824 -0.704328 0.580743
vn 0.27653 -0.138286 0.951004
vn 0.219987 0.325558 0.919575
vn 0.667901 -0.390112 0.633815
vn 0.580362 -0.0990357 0.808314
vn -0.663696 -0.743836 0.0788401
vn 0.132675 0.236955 -0.962419
vn 0.501548 0.693149 -0.517682
vn -0.519494 -0.666381 0.534847
vn -0.089385 -0.0694887 0.99357
vn 0.322886 0.595044 -0.735981
vn 0.591975 0.771877 -0.231887
vn -0.336762 -0.528472 0.7793
vn 0.313904 0.302257 0.900058
vn 0.592886 0.67596 0.437681
vn 0.695046 0.713743 0.0864987
vn 0.669523 0.54647 0.5031
vn 0.772995 0.489753 0.403263
vn 0.456957 0.186188 0.869784
vn 0.622477 0.726804 -0.290306
vn 0.381282 0.676068 -0.630521
vn 0.68534 0.685487 -0.245799
vn 0.390061 -0.142146 0.909751
vn 0.751239 0.659734 0.0197798
vn 0.642 0.277303 0.7148
vn 0.829539 0.542888 0.130911
vn 0.772573 0.232375 0.590874
vn 0.0329337 0.645809 -0.762788
vn 0.751782 0.630818 -0.192075
vn 0.895889 0.322679 0.305387
vn -0.536786 0.351196 -0.767152
vn -0.23329 -0.65256 0.720931
vn 0.714954 -0.0957011 0.692591
vn -0.828998 0.108629 -0.5486
vn -0.557068 -0.737359 0.382069
vn -0.231204 0.63023 -0.741185
vn -0.49504 0.561408 -0.663141
vn -0.89289 -0.0896655 -0.441257
vn -0.812645 0.0845589 -0.576591
vn -0.66693 -0.571859 -0.477683
vn -0.777288 0.0439017 -0.627612
vn -0.538279 -0.670837 -0.510131
vn -0.138669 -0.964242 -0.22585
vn -0.661351 -0.414043 -0.625446
vn -0.458929 -0.738173 -0.494454
vn -0.758249 0.0649675 -0.64872
vn -0.681086 0.509441 -0.525919
vn -0.294038 0.947241 -0.127581
vn 0.164619 -0.985978 0.0273455
vn 0.553903 -0.73157 0.397487
vn 0.72922 -0.266349 0.630314
vn -0.0742348 0.994702 0.0711109
vn 0.141154 -0.989462 0.0322671
vn 0.704421 0.0888134 0.704204
vn 0.417109 0.547559 0.725396
vn -0.0648481 -0.0995087 -0.992921
vn -0.610678 -0.67516 0.413802
vn 0.602609 0.793701 0.0830739
vn 0.346761 0.492942 0.797976
vn 0.854754 -0.00185277 0.519029
vn 0.471793 0.753567 -0.457764
vn 0.0576459 0.814752 -0.576938
vn -0.276239 -0.755807 0.593673
vn 0.835247 0.54888 0.0330698
vn 0.45355 0.858246 -0.240221
vn 0.886681 0.12471 0.445247
vn -0.33325 -0.899189 0.283555
vn 0.734325 -0.309317 0.604227
vn -0.756906 0.317077 -0.57145
vn -0.222792 0.818512 -0.52953
vn 0.124313 0.964849 -0.231543
vn 0.564754 0.824638 0.0320182
vn 0.835641 -0.0250129 0.548706
vn 0.694911 0.681033 0.230852
vn -0.402001 0.799779 -0.445811
vn -0.542975 -0.834518 -0.0935819
vn 0.567152 -0.639799 0.518649
vn 0.0391203 0.99269 -0.114174
vn 0.754819 0.30445 0.580998
vn 0.472087 0.870683 0.138001
vn 0.739594 0.500239 0.450291
vn 0.422675 0.852251 0.308245
vn -0.676383 0.53592 -0.505268
vn -0.210903 0.963762 -0.163346
vn -0.534972 -0.756059 -0.377067
vn 0.432639 -0.835458 0.338871
vn -0.704336 0.492215 -0.511503
vn 0.765636 -0.224341 0.602887
vn 0.357622 -0.913157 0.195576
vn -0.0943709 0.995253 0.0237704
vn 0.648314 -0.593196 0.477292
vn 0.615803 0.514905 0.596372
vn -0.309551 -0.432249 -0.846959
vn -0.421183 -0.906963 -0.00472519
vn -0.210971 -0.973011 -0.0934894
vn -0.606695 -0.726538 0.322588
vn 0.493333 0.576169 -0.651653
vn 0.54273 0.706241 0.454606
vn -0.389405 -0.383983 0.83721
vn 0.130474 0.217938 0.967202
vn 0.450161 -0.637423 -0.625337
vn 0.0508022 -0.041834 -0.997832
vn 0.363139 0.148001 -0.919905
vn 0.335722 0.30356 -0.891707
vn 0.596969 0.5604 -0.574091
vn 0.0956124 -0.332613 -0.938204
vn 0.471119 -0.180013 -0.863506
vn 0.756148 -0.264701 -0.598476
vn 0.748072 -0.650178 -0.132875
vn 0.677913 0.237858 -0.695599
vn 0.929441 -0.266241 -0.255453
vn 0.883959 0.0524832 -0.464609
vn 0.905179 -0.406078 0.125502
vn 0.996821 -0.0497143 -0.0622648
vn 0.911058 -0.211515 0.353886
vn -0.26133 -0.878172 0.400651
vn 0.223989 -0.973323 -0.0497146
vn 0.284778 -0.814188 0.505964
vn 0.67101 -0.625387 0.398291
vn 0.429797 -0.438281 0.78942
vn 0.718934 -0.270925 0.640105
vn 0.483946 -0.0932795 0.870112
vn -0.377179 -0.495266 0.782591
vn -0.00143262 -0.585694 0.810531
vn -0.0578008 -0.0540884 0.996862
vn 0.102664 -0.207413 0.972851
vn 0.301536 0.338477 0.891353
vn 0.562192 0.637679 0.526598
vn 0.655622 0.754415 -0.0318969
vn 0.37846 0.495918 0.781558
vn 0.920225 0.279555 -0.273924
vn 0.970634 0.126371 0.204697
vn 0.766385 0.528862 -0.364635
vn 0.745652 0.0608432 0.663552
vn 0.88006 0.474369 0.021658
vn 0.845491 0.32852 0.420973
vn 0.718221 0.690151 -0.0886011
vn 0.742425 0.594017 0.309756
vn 0.357182 0.188395 0.914838
vn 0.638147 0.379307 0.669996
vn 0.662917 0.694137 0.280562
vn 0.544878 0.529216 0.650414
vn -0.655847 -0.752988 -0.053605
vn -0.43166 -0.015298 -0.901907
vn -0.695852 0.696501 0.175145
vn -0.363754 0.93008 0.0513269
vn 0.214618 0.776243 0.592778
vn -0.527365 0.451851 0.719525
vn 0.297866 0.848396 0.437607
vn -0.454156 -0.885986 0.0936577
vn -0.877912 -0.364299 0.310737
vn -0.672395 -0.135921 0.727606
vn -0.75601 0.606876 0.245258
vn -0.605568 0.140549 0.783283
vn -0.117688 -0.304897 0.945086
vn -0.55211 0.276789 0.786487
vn -0.429927 -0.509731 -0.74521
vn 0.191614 0.00476636 0.981459
vn 0.404399 -0.372701 0.835198
vn -0.929238 -0.147769 -0.338645
vn -0.508194 -0.850464 0.135828
vn -0.671596 -0.697692 -0.249368
vn -0.785256 0.265552 -0.559335
vn 0.33837 0.834762 0.434372
vn 0.584655 -0.643196 0.494447
vn 0.594718 -0.388111 0.704046
vn 0.717931 0.692862 0.0672196
vn 0.3969 -0.704629 0.58819
vn 0.854306 0.174928 0.489451
vn 0.167953 -0.938773 0.300828
vn 0.0955317 -0.992571 0.0753466
vn -0.28383 0.948335 -0.141778
vn 0.413536 0.796652 0.440833
vn 0.748145 0.0770209 0.65905
vn -0.50226 -0.63012 -0.592185
vn -0.0565769 -0.675308 -0.735363
g grp1
usemtl mtl1
f 36//36 2//2 1//1 
f 36//36 1//1 40//40 
f 42//42 5//5 38//38 
f 3//3 172//172 4//4 
f 8//8 1//1 173//173 
f 40//40 1//1 50//50 
f 4//4 7//7 3//3 
f 4//4 5//5 7//7 
f 2//2 173//173 1//1 
f 172//172 38//38 4//4 
f 38//38 5//5 4//4 
f 6//6 50//50 1//1 
f 8//8 6//6 1//1 
f 7//7 5//5 10//10 
f 3//3 7//7 8//8 
f 7//7 10//10 9//9 
f 5//5 61//61 11//11 
f 8//8 7//7 9//9 
f 8//8 9//9 63//63 
f 8//8 60//60 6//6 
f 63//63 60//60 8//8 
f 57//57 6//6 60//60 
f 64//64 9//9 10//10 
f 5//5 11//11 10//10 
f 10//10 11//11 64//64 
f 189//189 63//63 9//9 
f 74//74 72//72 12//12 
f 73//73 74//74 12//12 
f 15//15 76//76 75//75 
f 12//12 23//23 21//21 
f 21//21 13//13 12//12 
f 13//13 75//75 73//73 
f 73//73 12//12 13//13 
f 27//27 23//23 12//12 
f 13//13 15//15 75//75 
f 82//82 27//27 12//12 
f 14//14 15//15 13//13 
f 13//13 21//21 14//14 
f 21//21 22//22 14//14 
f 16//16 14//14 26//26 
f 14//14 22//22 26//26 
f 15//15 14//14 16//16 
f 15//15 17//17 18//18 
f 17//17 15//15 16//16 
f 175//175 174//174 19//19 
f 19//19 174//174 182//182 
f 18//18 76//76 15//15 
f 20//20 18//18 175//175 
f 20//20 175//175 19//19 
f 84//84 121//121 178//178 
f 176//176 84//84 178//178 
f 32//32 84//84 176//176 
f 21//21 23//23 179//179 
f 27//27 24//24 23//23 
f 23//23 24//24 179//179 
f 25//25 179//179 24//24 
f 26//26 22//22 180//180 
f 30//30 24//24 27//27 
f 30//30 28//28 24//24 
f 25//25 24//24 28//28 
f 181//181 29//29 183//183 
f 25//25 28//28 184//184 
f 27//27 194//194 30//30 
f 31//31 28//28 30//30 
f 32//32 184//184 31//31 
f 31//31 184//184 28//28 
f 185//185 183//183 29//29 
f 183//183 185//185 177//177 
f 194//194 33//33 30//30 
f 34//34 30//30 33//33 
f 30//30 34//34 31//31 
f 34//34 33//33 83//83 
f 31//31 34//34 84//84 
f 84//84 32//32 31//31 
f 35//35 86//86 172//172 
f 36//36 85//85 2//2 
f 86//86 38//38 172//172 
f 40//40 37//37 36//36 
f 40//40 41//41 37//37 
f 36//36 37//37 126//126 
f 37//37 87//87 126//126 
f 37//37 41//41 87//87 
f 44//44 87//87 41//41 
f 39//39 43//43 187//187 
f 43//43 88//88 44//44 
f 39//39 88//88 43//43 
f 38//38 39//39 42//42 
f 41//41 45//45 44//44 
f 43//43 48//48 187//187 
f 43//43 46//46 48//48 
f 44//44 46//46 43//43 
f 40//40 50//50 41//41 
f 50//50 49//49 41//41 
f 49//49 45//45 41//41 
f 53//53 45//45 49//49 
f 46//46 54//54 48//48 
f 44//44 45//45 46//46 
f 45//45 53//53 46//46 
f 46//46 47//47 54//54 
f 46//46 53//53 47//47 
f 52//52 5//5 42//42 
f 48//48 54//54 52//52 
f 187//187 48//48 52//52 
f 49//49 51//51 53//53 
f 49//49 50//50 51//51 
f 55//55 53//53 51//51 
f 51//51 50//50 58//58 
f 55//55 51//51 58//58 
f 52//52 188//188 5//5 
f 56//56 54//54 47//47 
f 52//52 54//54 56//56 
f 53//53 55//55 47//47 
f 47//47 55//55 56//56 
f 56//56 55//55 59//59 
f 50//50 6//6 57//57 
f 90//90 50//50 57//57 
f 55//55 58//58 59//59 
f 58//58 93//93 59//59 
f 56//56 59//59 62//62 
f 56//56 62//62 52//52 
f 52//52 62//62 188//188 
f 65//65 57//57 60//60 
f 63//63 65//65 60//60 
f 90//90 57//57 65//65 
f 58//58 50//50 90//90 
f 61//61 92//92 11//11 
f 188//188 62//62 195//195 
f 89//89 62//62 59//59 
f 195//195 62//62 89//89 
f 63//63 66//66 65//65 
f 66//66 63//63 98//98 
f 11//11 92//92 64//64 
f 189//189 67//67 63//63 
f 66//66 98//98 99//99 
f 92//92 96//96 64//64 
f 96//96 190//190 64//64 
f 67//67 98//98 63//63 
f 98//98 67//67 68//68 
f 191//191 114//114 69//69 
f 98//98 68//68 192//192 
f 114//114 71//71 69//69 
f 70//70 69//69 71//71 
f 76//76 116//116 70//70 
f 192//192 70//70 112//112 
f 70//70 116//116 112//112 
f 114//114 72//72 71//71 
f 200//200 118//118 72//72 
f 70//70 73//73 75//75 
f 71//71 72//72 74//74 
f 74//74 73//73 71//71 
f 70//70 71//71 73//73 
f 75//75 76//76 70//70 
f 118//118 78//78 72//72 
f 78//78 118//118 79//79 
f 79//79 118//118 120//120 
f 76//76 77//77 116//116 
f 119//119 77//77 81//81 
f 120//120 80//80 79//79 
f 121//121 80//80 203//203 
f 202//202 193//193 121//121 
f 121//121 83//83 80//80 
f 78//78 12//12 72//72 
f 77//77 76//76 18//18 
f 82//82 12//12 78//78 
f 79//79 82//82 78//78 
f 79//79 80//80 194//194 
f 18//18 20//20 77//77 
f 81//81 77//77 20//20 
f 194//194 80//80 33//33 
f 80//80 83//83 33//33 
f 178//178 121//121 193//193 
f 83//83 121//121 84//84 
f 83//83 84//84 34//34 
f 85//85 186//186 2//2 
f 126//126 133//133 85//85 
f 128//128 38//38 86//86 
f 36//36 126//126 85//85 
f 39//39 38//38 128//128 
f 88//88 39//39 129//129 
f 127//127 87//87 88//88 
f 88//88 87//87 44//44 
f 89//89 59//59 93//93 
f 90//90 65//65 91//91 
f 91//91 65//65 66//66 
f 89//89 93//93 95//95 
f 89//89 95//95 97//97 
f 58//58 90//90 93//93 
f 97//97 195//195 89//89 
f 91//91 66//66 99//99 
f 99//99 94//94 91//91 
f 94//94 99//99 100//100 
f 90//90 94//94 93//93 
f 91//91 94//94 90//90 
f 101//101 94//94 100//100 
f 196//196 93//93 94//94 
f 94//94 101//101 196//196 
f 97//97 197//197 195//195 
f 97//97 95//95 102//102 
f 98//98 104//104 99//99 
f 100//100 99//99 104//104 
f 100//100 104//104 107//107 
f 101//101 100//100 109//109 
f 100//100 107//107 109//109 
f 101//101 103//103 196//196 
f 197//197 97//97 106//106 
f 97//97 102//102 106//106 
f 102//102 95//95 198//198 
f 101//101 109//109 103//103 
f 113//113 107//107 104//104 
f 109//109 107//107 111//111 
f 96//96 105//105 190//190 
f 190//190 105//105 191//191 
f 114//114 191//191 105//105 
f 98//98 112//112 104//104 
f 111//111 107//107 113//113 
f 108//108 102//102 110//110 
f 102//102 198//198 110//110 
f 103//103 109//109 110//110 
f 110//110 109//109 111//111 
f 197//197 106//106 199//199 
f 199//199 106//106 115//115 
f 106//106 102//102 117//117 
f 98//98 192//192 112//112 
f 113//113 104//104 112//112 
f 201//201 113//113 112//112 
f 119//119 113//113 201//201 
f 119//119 111//111 113//113 
f 111//111 121//121 108//108 
f 110//110 111//111 108//108 
f 115//115 200//200 199//199 
f 117//117 115//115 106//106 
f 102//102 108//108 117//117 
f 108//108 121//121 117//117 
f 121//121 111//111 202//202 
f 115//115 118//118 200//200 
f 118//118 115//115 120//120 
f 115//115 117//117 120//120 
f 117//117 121//121 203//203 
f 119//119 201//201 77//77 
f 124//124 146//146 123//123 
f 205//205 204//204 122//122 
f 186//186 122//122 204//204 
f 205//205 122//122 135//135 
f 131//131 135//135 122//122 
f 135//135 130//130 205//205 
f 146//146 205//205 130//130 
f 123//123 125//125 35//35 
f 125//125 123//123 145//145 
f 123//123 146//146 145//145 
f 122//122 85//85 131//131 
f 122//122 186//186 85//85 
f 152//152 125//125 145//145 
f 131//131 85//85 133//133 
f 35//35 125//125 86//86 
f 86//86 125//125 152//152 
f 86//86 152//152 128//128 
f 133//133 126//126 134//134 
f 126//126 158//158 134//134 
f 126//126 87//87 158//158 
f 154//154 129//129 39//39 
f 128//128 152//152 154//154 
f 88//88 129//129 159//159 
f 127//127 88//88 159//159 
f 158//158 87//87 127//127 
f 154//154 39//39 128//128 
f 132//132 135//135 131//131 
f 135//135 132//132 136//136 
f 131//131 133//133 132//132 
f 132//132 134//134 139//139 
f 136//136 132//132 139//139 
f 134//134 132//132 133//133 
f 139//139 134//134 162//162 
f 130//130 135//135 136//136 
f 130//130 138//138 146//146 
f 148//148 146//146 138//138 
f 136//136 139//139 137//137 
f 136//136 137//137 130//130 
f 130//130 137//137 138//138 
f 137//137 140//140 138//138 
f 138//138 140//140 142//142 
f 139//139 141//141 137//137 
f 143//143 142//142 140//140 
f 140//140 137//137 141//141 
f 143//143 140//140 141//141 
f 160//160 143//143 141//141 
f 144//144 142//142 143//143 
f 139//139 160//160 141//141 
f 161//161 143//143 160//160 
f 161//161 144//144 143//143 
f 139//139 162//162 160//160 
f 146//146 147//147 145//145 
f 153//153 152//152 145//145 
f 146//146 148//148 147//147 
f 147//147 153//153 145//145 
f 153//153 147//147 149//149 
f 142//142 148//148 138//138 
f 147//147 148//148 149//149 
f 155//155 153//153 149//149 
f 155//155 149//149 151//151 
f 142//142 144//144 148//148 
f 144//144 150//150 148//148 
f 149//149 148//148 150//150 
f 149//149 150//150 151//151 
f 163//163 151//151 150//150 
f 168//168 156//156 154//154 
f 155//155 154//154 152//152 
f 155//155 152//152 153//153 
f 168//168 154//154 155//155 
f 155//155 151//151 168//168 
f 166//166 158//158 170//170 
f 166//166 134//134 158//158 
f 158//158 157//157 170//170 
f 170//170 157//157 171//171 
f 171//171 157//157 156//156 
f 168//168 171//171 156//156 
f 156//156 157//157 159//159 
f 129//129 156//156 159//159 
f 156//156 129//129 154//154 
f 158//158 127//127 157//157 
f 159//159 157//157 127//127 
f 160//160 162//162 164//164 
f 164//164 161//161 160//160 
f 161//161 163//163 144//144 
f 165//165 163//163 161//161 
f 150//150 144//144 163//163 
f 166//166 164//164 162//162 
f 166//166 162//162 134//134 
f 165//165 161//161 164//164 
f 164//164 166//166 167//167 
f 164//164 167//167 165//165 
f 165//165 167//167 169//169 
f 165//165 169//169 163//163 
f 163//163 168//168 151//151 
f 169//169 168//168 163//163 
f 166//166 170//170 167//167 
f 167//167 170//170 171//171 
f 167//167 171//171 169//169 
f 169//169 171//171 168//168 
