#
# The license for this database is specified in the Creative Commons Attribution-Share Alike 2.1 Japan. If you use data from this database, please be sure attribute this database as follows: "BodyParts3D, (c)  The Database Center for Life Science licensed under CC Attribution-Share Alike 2.1 Japan".
# http://dbarchive.biosciencedbc.jp/en/bodyparts3d/lic.html
#
#
# Compatibility version : 4.0
# File ID : FJ3023
# Representation ID : BP10090
# Build-up logic : FMA 3.0 part_of
# Concept ID : FMA8663
# English name : Right posterior segmental vein
# Bounds(mm): (-81.311700,-89.454800,1288.800100)-(-54.000200,-49.978000,1296.230000)
# Volume(cm3): 0.341700
#
v -80.3914 -51.7467 1289.08
v -80.7535 -50.9436 1288.93
v -80.2685 -50.9956 1288.8
v -80.4559 -50.3598 1289.1
v -80.0163 -50.446 1289.05
v -79.2341 -51.2238 1289.17
v -80.7605 -52.1423 1290.08
v -80.9116 -51.6541 1290.46
v -81.2375 -51.0415 1289.53
v -81.3117 -51.017 1289.94
v -81.1541 -50.598 1289.53
v -81.0442 -50.5879 1290.29
v -80.2087 -51.7111 1291.1
v -80.6675 -50.4934 1290.6
v -79.6462 -51.1407 1291.1
v -79.6182 -50.2293 1289.79
v -79.396 -50.5236 1290.29
v -80.7949 -50.1087 1289.87
v -80.4002 -49.978 1289.79
v -80.2968 -50.0815 1290.23
v -74.958 -60.2102 1293.18
v -76.4659 -57.8303 1291.22
v -75.625 -57.8 1290.68
v -75.6059 -57.5649 1293.51
v -74.9368 -57.7159 1293.68
v -77.8491 -54.109 1289.62
v -75.9384 -55.2479 1292.54
v -76.6935 -55.5903 1292.92
v -78.6036 -51.2711 1290.01
v -70.9268 -65.9416 1292.61
v -72.8574 -62.7824 1292.1
v -71.5958 -64.0063 1294.79
v -70.7468 -64.1704 1295.11
v -72.4646 -61.5621 1291.47
v -73.3088 -60.9118 1294.43
v -73.1759 -59.0184 1293.85
v -72.0749 -61.4286 1294.67
v -71.7042 -59.9584 1292.71
v -74.034 -58.4899 1291.01
v -74.0068 -57.3305 1291.4
v -69.1339 -68.9506 1294.33
v -68.503 -68.3559 1295.28
v -69.1987 -67.1259 1292.01
v -68.3187 -65.9429 1292.06
v -67.9946 -67.548 1295.47
v -70.2835 -62.3282 1292.28
v -70.0275 -63.1827 1294.67
v -63.4389 -77.8541 1293.67
v -63.5308 -73.9596 1291.98
v -63.5927 -77.0996 1294.84
v -62.4464 -75.5996 1295.7
v -63.866 -70.5743 1294.06
v -65.5219 -69.6208 1295.28
v -61.692 -78.7711 1295.59
v -62.178 -78.042 1292.33
v -61.5123 -75.8578 1292.29
v -61.8273 -74.0403 1292.96
v -55.2855 -88.6625 1293.21
v -57.1884 -88.2307 1294.62
v -55.8625 -89.4548 1294.72
v -56.5005 -88.3705 1295.58
v -55.9353 -89.264 1293.91
v -55.4636 -89.1754 1295.46
v -55.5497 -88.5729 1295.96
v -55.0802 -89.4448 1294.25
v -55.0303 -89.3557 1295.05
v -55.1018 -88.5597 1295.89
v -54.3413 -88.938 1294.59
v -54.3953 -88.8744 1294.11
v -54.3924 -88.4955 1295.34
v -56.7416 -87.8099 1293.11
v -56.3093 -86.6883 1292.66
v -57.8501 -86.7771 1293.46
v -56.7069 -87.3354 1296.01
v -55.5557 -88.0507 1296.17
v -56.0201 -86.7892 1296.23
v -54.8302 -87.6824 1295.97
v -55.6046 -85.8008 1295.92
v -54.4555 -87.7306 1293.36
v -54.4993 -86.4539 1295.2
v -55.3025 -85.4151 1293.23
v -57.5712 -80.5025 1293.91
v -58.7202 -78.8786 1294.69
v -54.0002 -88.075 1294.13
v -54.0197 -87.9876 1294.91
v -54.1944 -86.7375 1294.05
v -80.7535 -50.9436 1288.93
v -80.2685 -50.9956 1288.8
v -80.0163 -50.446 1289.05
v -81.2375 -51.0415 1289.53
v -81.3117 -51.017 1289.94
v -81.3117 -51.017 1289.94
v -81.0442 -50.5879 1290.29
v -80.6675 -50.4934 1290.6
v -79.6182 -50.2293 1289.79
v -80.7949 -50.1087 1289.87
v -80.4002 -49.978 1289.79
v -80.4002 -49.978 1289.79
v -80.2968 -50.0815 1290.23
v -76.6935 -55.5903 1292.92
v -78.6036 -51.2711 1290.01
v -72.4646 -61.5621 1291.47
v -73.1759 -59.0184 1293.85
v -71.7042 -59.9584 1292.71
v -70.0275 -63.1827 1294.67
v -55.8625 -89.4548 1294.72
v -55.9353 -89.264 1293.91
v -55.4636 -89.1754 1295.46
v -55.4636 -89.1754 1295.46
vn -0.448442 -0.458459 -0.767278
vn -0.546383 0.344831 -0.763254
vn -0.193828 -0.310002 -0.930768
vn -0.285253 0.660002 -0.695003
vn 0.179927 0.333861 -0.925291
vn 0.567816 0.315572 -0.760263
vn -0.829918 -0.5418 -0.133001
vn -0.812698 -0.232521 0.53428
vn -0.897518 0.167004 -0.40813
vn -0.898912 -0.437494 0.0235819
vn -0.834132 0.457499 -0.308088
vn -0.70583 0.0360283 0.707465
vn -0.53796 0.0220538 0.842682
vn -0.318853 0.357353 0.877856
vn 0.088494 0.530803 0.842862
vn 0.54992 0.684014 -0.479283
vn 0.534885 0.739794 0.408171
vn -0.533189 0.770222 0.349955
vn 0.00949812 0.888561 -0.45866
vn -0.323828 0.865106 0.383048
vn -0.828382 -0.478045 0.291986
vn -0.657096 -0.591596 -0.467161
vn -0.167016 -0.349463 -0.921944
vn -0.463998 -0.0422097 0.88483
vn 0.0261663 0.31664 0.948185
vn 0.128318 -0.170312 -0.977
vn 0.497719 0.611201 0.615393
vn -0.298787 0.141792 0.943727
vn 0.736089 0.505751 -0.449876
vn -0.685545 -0.481368 -0.546181
vn -0.579873 -0.493919 -0.647913
vn -0.571844 -0.276302 0.772432
vn -0.120341 0.0476289 0.991589
vn 0.272097 0.0608636 -0.960343
vn -0.381532 -0.04599 0.923211
vn 0.688875 0.615713 0.382555
vn 0.115178 0.283448 0.952046
vn 0.780733 0.530846 -0.329634
vn 0.375311 0.0548682 -0.925274
vn 0.712893 0.40978 -0.569091
vn -0.733065 -0.453875 0.50657
vn -0.431669 -0.233641 0.871248
vn -0.266379 -0.224669 -0.937319
vn 0.341416 0.204785 -0.917332
vn 0.0381608 0.0920228 0.995025
vn 0.597523 0.348097 -0.722354
vn 0.293253 0.328425 0.897853
vn -0.83073 -0.531298 -0.166163
vn 0.056002 0.00787616 -0.9984
vn -0.734651 -0.433751 0.521678
vn 0.082506 0.0898141 0.992535
vn 0.802673 0.560782 0.203077
vn 0.48799 0.364907 0.792912
vn -0.385219 -0.206205 0.899492
vn -0.461015 -0.32057 -0.827466
vn 0.436142 0.235669 -0.86847
vn 0.722516 0.457344 -0.518466
vn 0.182465 -0.529292 -0.828587
vn -0.784701 -0.619872 0.0018389
vn -0.0263456 -0.995587 0.0900689
vn -0.580418 -0.556568 0.59443
vn -0.113641 -0.821841 -0.558268
vn -0.44328 -0.663818 0.602369
vn -0.178514 -0.498293 0.848432
vn 0.29817 -0.918578 -0.259438
vn 0.380435 -0.83442 0.398765
vn 0.370685 -0.467154 0.80272
vn 0.795281 -0.599853 0.0877734
vn 0.687622 -0.55971 -0.462493
vn 0.722889 -0.402357 0.561729
vn -0.481711 -0.488478 -0.72756
vn 0.103757 -0.0756239 -0.991723
vn -0.723103 -0.498934 -0.477689
vn -0.420028 -0.28532 0.861492
vn 0.0442001 -0.206207 0.97751
vn 0.0247192 0.0155906 0.999573
vn 0.565729 0.0192778 0.824365
vn 0.47141 0.280868 0.835994
vn 0.650086 -0.0793577 -0.755706
vn 0.829746 0.357425 0.428683
vn 0.645568 0.292148 -0.705614
vn 0.86099 0.499003 -0.0984493
vn 0.747462 0.471513 0.467949
vn 0.950588 -0.188613 -0.246592
vn 0.950055 -0.0417254 0.309281
vn 0.932535 0.293667 -0.210089
vn -0.49381 -0.362675 -0.790328
vn 0.125771 0.269671 -0.954704
vn 0.358529 0.796304 -0.487194
vn -0.772687 -0.478896 -0.416669
vn -0.790038 0.000738463 0.613057
vn -0.945487 0.324102 -0.0318271
vn -0.781304 0.57628 0.239721
vn -0.475495 0.740469 0.474985
vn 0.479152 0.855632 0.195723
vn -0.4483 0.773625 -0.447807
vn 0.302984 0.941242 0.149212
vn -0.249355 0.928532 0.275046
vn 0.27284 0.827701 0.490377
vn 0.213224 0.484452 0.848435
vn 0.709657 0.670322 0.216922
vn -0.315759 -0.351224 -0.881441
vn 0.297543 0.451432 0.841236
vn 0.707238 0.61765 0.343982
vn 0.705165 0.572807 0.417892
vn -0.624839 -0.732127 0.271232
vn -0.696531 -0.67402 -0.246053
vn -0.0353383 -0.927913 0.371119
vn 0.24632 -0.649479 0.719378
g grp1
usemtl mtl1
f 8//8 21//21 13//13 
f 11//11 2//2 9//9 
f 1//1 7//7 90//90 
f 90//90 87//87 1//1 
f 3//3 1//1 87//87 
f 4//4 88//88 2//2 
f 4//4 2//2 11//11 
f 26//26 1//1 3//3 
f 5//5 88//88 4//4 
f 6//6 26//26 88//88 
f 5//5 6//6 88//88 
f 90//90 7//7 10//10 
f 7//7 8//8 10//10 
f 8//8 12//12 91//91 
f 8//8 13//13 12//12 
f 9//9 92//92 11//11 
f 93//93 11//11 92//92 
f 21//21 8//8 7//7 
f 12//12 13//13 14//14 
f 18//18 11//11 93//93 
f 93//93 94//94 18//18 
f 18//18 94//94 20//20 
f 15//15 13//13 28//28 
f 15//15 14//14 13//13 
f 14//14 15//15 99//99 
f 19//19 89//89 4//4 
f 19//19 16//16 89//89 
f 16//16 6//6 89//89 
f 97//97 99//99 95//95 
f 15//15 17//17 99//99 
f 100//100 27//27 15//15 
f 99//99 17//17 95//95 
f 11//11 96//96 4//4 
f 4//4 96//96 19//19 
f 18//18 20//20 98//98 
f 21//21 7//7 22//22 
f 23//23 31//31 22//22 
f 34//34 23//23 39//39 
f 102//102 31//31 23//23 
f 24//24 28//28 13//13 
f 21//21 24//24 13//13 
f 25//25 28//28 24//24 
f 25//25 27//27 100//100 
f 22//22 7//7 1//1 
f 22//22 1//1 23//23 
f 23//23 1//1 26//26 
f 39//39 23//23 26//26 
f 39//39 26//26 6//6 
f 39//39 6//6 40//40 
f 38//38 40//40 29//29 
f 104//104 101//101 27//27 
f 36//36 104//104 27//27 
f 40//40 6//6 29//29 
f 15//15 27//27 17//17 
f 17//17 27//27 101//101 
f 29//29 6//6 16//16 
f 17//17 101//101 95//95 
f 41//41 32//32 21//21 
f 21//21 22//22 31//31 
f 31//31 43//43 30//30 
f 31//31 30//30 21//21 
f 43//43 31//31 102//102 
f 43//43 34//34 44//44 
f 32//32 33//33 35//35 
f 35//35 33//33 37//37 
f 39//39 40//40 46//46 
f 46//46 34//34 39//39 
f 44//44 34//34 46//46 
f 32//32 35//35 21//21 
f 35//35 24//24 21//21 
f 35//35 25//25 24//24 
f 25//25 35//35 37//37 
f 25//25 37//37 103//103 
f 47//47 103//103 37//37 
f 104//104 36//36 105//105 
f 103//103 27//27 25//25 
f 48//48 50//50 41//41 
f 41//41 54//54 42//42 
f 55//55 43//43 49//49 
f 49//49 43//43 44//44 
f 48//48 41//41 21//21 
f 53//53 47//47 45//45 
f 42//42 32//32 41//41 
f 42//42 33//33 32//32 
f 45//45 33//33 42//42 
f 45//45 47//47 33//33 
f 57//57 38//38 52//52 
f 46//46 40//40 38//38 
f 46//46 38//38 57//57 
f 47//47 37//37 33//33 
f 105//105 52//52 104//104 
f 48//48 30//30 55//55 
f 48//48 21//21 30//30 
f 41//41 50//50 54//54 
f 55//55 30//30 43//43 
f 44//44 56//56 49//49 
f 57//57 56//56 44//44 
f 54//54 45//45 42//42 
f 52//52 53//53 83//83 
f 46//46 57//57 44//44 
f 51//51 53//53 45//45 
f 53//53 52//52 105//105 
f 73//73 59//59 48//48 
f 48//48 59//59 50//50 
f 73//73 48//48 55//55 
f 72//72 55//55 49//49 
f 72//72 56//56 81//81 
f 54//54 51//51 45//45 
f 78//78 53//53 51//51 
f 72//72 49//49 56//56 
f 56//56 57//57 81//81 
f 53//53 78//78 83//83 
f 82//82 52//52 83//83 
f 71//71 58//58 62//62 
f 58//58 71//71 72//72 
f 79//79 58//58 72//72 
f 61//61 50//50 59//59 
f 62//62 65//65 60//60 
f 106//106 59//59 107//107 
f 106//106 61//61 59//59 
f 106//106 63//63 61//61 
f 107//107 59//59 71//71 
f 61//61 64//64 74//74 
f 66//66 60//60 65//65 
f 66//66 108//108 60//60 
f 63//63 64//64 61//61 
f 64//64 75//75 74//74 
f 65//65 62//62 58//58 
f 64//64 109//109 67//67 
f 67//67 75//75 64//64 
f 69//69 65//65 58//58 
f 66//66 67//67 109//109 
f 67//67 77//77 75//75 
f 65//65 68//68 66//66 
f 70//70 66//66 68//68 
f 66//66 70//70 67//67 
f 58//58 79//79 69//69 
f 68//68 65//65 69//69 
f 84//84 69//69 79//79 
f 84//84 68//68 69//69 
f 68//68 85//85 70//70 
f 67//67 70//70 77//77 
f 55//55 72//72 71//71 
f 71//71 73//73 55//55 
f 81//81 79//79 72//72 
f 59//59 73//73 71//71 
f 50//50 61//61 74//74 
f 74//74 54//54 50//50 
f 54//54 74//74 76//76 
f 54//54 76//76 51//51 
f 76//76 78//78 51//51 
f 75//75 76//76 74//74 
f 75//75 77//77 76//76 
f 78//78 76//76 77//77 
f 77//77 80//80 78//78 
f 86//86 81//81 82//82 
f 82//82 83//83 80//80 
f 83//83 78//78 80//80 
f 81//81 57//57 82//82 
f 80//80 86//86 82//82 
f 82//82 57//57 52//52 
f 85//85 68//68 84//84 
f 70//70 85//85 77//77 
f 79//79 86//86 84//84 
f 84//84 86//86 85//85 
f 77//77 85//85 80//80 
f 81//81 86//86 79//79 
f 85//85 86//86 80//80 
