#
# The license for this database is specified in the Creative Commons Attribution-Share Alike 2.1 Japan. If you use data from this database, please be sure attribute this database as follows: "BodyParts3D, (c)  The Database Center for Life Science licensed under CC Attribution-Share Alike 2.1 Japan".
# http://dbarchive.biosciencedbc.jp/en/bodyparts3d/lic.html
#
#
# Compatibility version : 4.0
# File ID : FJ3440
# Representation ID : BP10601
# Build-up logic : FMA 3.0 is_a
# Concept ID : FMA15408
# English name : Ileocolic vein
# Bounds(mm): (-33.319000,-138.130000,954.840000)-(-11.109600,-126.233000,979.178000)
# Volume(cm3): 0.289900
#
v -33.0659 -129.015 956.474
v -32.5784 -129.315 955.874
v -32.4302 -129.49 956.283
v -32.2412 -129.315 955.574
v -32.4897 -128.934 955.848
v -32.1232 -129.523 956
v -33.2534 -128.715 957.074
v -33.319 -127.815 957.374
v -32.6878 -129.319 956.863
v -31.8232 -129.143 958.607
v -32.4059 -127.722 958.152
v -32.883 -126.915 957.374
v -32.5596 -126.615 957.074
v -32.3419 -126.648 957.394
v -32.2385 -126.383 957.074
v -30.0682 -130.562 958.642
v -30.3494 -129.994 956.843
v -30.2276 -130.343 957.584
v -30.431 -130.178 959.467
v -31.8443 -129.411 955.665
v -31.9385 -129.015 955.166
v -31.5436 -129.16 955.356
v -31.6385 -128.748 954.979
v -31.2775 -128.745 955.084
v -31.3385 -128.415 954.84
v -31.3819 -128.039 955.005
v -31.1846 -127.796 954.983
v -30.796 -128.516 955.271
v -31.0385 -127.815 954.901
v -31.6385 -126.233 956.474
v -31.4437 -127.501 955.35
v -31.3585 -126.641 955.76
v -31.0385 -127.515 954.929
v -30.1881 -127.484 955.909
v -31.0385 -126.692 955.574
v -30.1954 -126.914 956.754
v -31.4777 -127.34 958.536
v -28.2636 -131.081 959.228
v -28.0274 -130.713 958.606
v -27.6855 -130.995 962.498
v -29.5395 -129.621 956.742
v -28.0948 -129.652 957.724
v -28.8798 -127.966 960.432
v -28.0958 -127.894 960.347
v -28.0436 -127.781 959.709
v -26.4118 -130.873 959.645
v -26.085 -130.562 959.671
v -24.8955 -130.556 960.666
v -26.5431 -131.745 963.212
v -26.5392 -130.831 963.957
v -25.0445 -131.943 961.581
v -26.2175 -130.332 964.22
v -25.1419 -130.305 965.093
v -26.9805 -129.598 958.655
v -26.2065 -129.396 963.555
v -22.1598 -133.008 968.542
v -24.7601 -130.045 960.854
v -22.5444 -131.742 963.081
v -22.9045 -132.019 967.817
v -22.5924 -131.668 968.01
v -24.7358 -129.46 964.307
v -23.458 -129.582 964.356
v -21.0904 -133.664 965.859
v -21.4556 -133.09 964.855
v -21.6135 -134.006 967.455
v -20.9619 -134.13 967.037
v -21 -132.711 969.967
v -22.6492 -130.362 963.306
v -22.1405 -132.287 963.693
v -21.7187 -130.27 965.595
v -21.6717 -130.483 964.732
v -21.1201 -131.672 964.482
v -19.8379 -131.786 965.988
v -21.9447 -131.358 968.308
v -20.3645 -131.015 968.375
v -19.7174 -134.561 970.77
v -19.7109 -133.506 966.413
v -19.3867 -133.189 966.458
v -19.1313 -132.87 966.598
v -18.5368 -134.397 968.175
v -18.1092 -132.862 967.747
v -17.3802 -134.253 968.897
v -19.264 -132.659 971.6
v -18.2645 -134.34 973.29
v -19.9188 -131.575 969.793
v -16.0255 -136.14 975.5
v -15.7811 -136.532 974.91
v -16.59 -133.848 969.499
v -16.8059 -132.969 969.438
v -17.1314 -132.521 969.394
v -15.889 -132.703 973.115
v -15.341 -132.87 972.851
v -13.7454 -137.357 978.29
v -13.4761 -137.628 978.192
v -13.3385 -137.415 978.885
v -13.0112 -137.725 978.537
v -14.0514 -135.299 972.657
v -14.0247 -136.423 978.703
v -14.0437 -136.136 978.714
v -13.6385 -137.115 978.914
v -13.6385 -136.515 979.178
v -13.6385 -135.915 979.167
v -13.6385 -135.315 978.882
v -13.3465 -136.827 978.874
v -13.2128 -135.684 978.722
v -15.0937 -133.122 972.306
v -14.0964 -133.819 972.938
v -13.9524 -134.412 972.713
v -13.7741 -134.451 977.824
v -13.0385 -134.715 978.531
v -12.4385 -138.13 977.774
v -11.8385 -137.788 976.874
v -11.8957 -137.625 977.376
v -11.2385 -137.215 976.574
v -11.5636 -136.658 975.882
v -11.1096 -136.815 976.574
v -11.3655 -136.064 975.917
v -11.4522 -135.226 976.035
v -11.2489 -135.348 976.637
v -12.6151 -134.714 978.088
v -12.7385 -134.343 978.074
v -12.6206 -134.13 977.22
v -12.4385 -134.415 977.896
v -12.1448 -134.315 976.331
v -12.2949 -134.198 976.961
v -12.0328 -134.415 977.474
v -11.7283 -134.656 976.349
v -33.0659 -129.015 956.474
v -32.5784 -129.315 955.874
v -32.2412 -129.315 955.574
v -33.2534 -128.715 957.074
v -33.319 -127.815 957.374
v -32.883 -126.915 957.374
v -32.5596 -126.615 957.074
v -32.2385 -126.383 957.074
v -31.9385 -129.015 955.166
v -31.6385 -128.748 954.979
v -31.3385 -128.415 954.84
v -31.0385 -127.815 954.901
v -31.6385 -126.233 956.474
v -31.3585 -126.641 955.76
v -31.0385 -127.515 954.929
v -31.0385 -126.692 955.574
v -31.0385 -126.692 955.574
v -13.3385 -137.415 978.885
v -13.3385 -137.415 978.885
v -13.0112 -137.725 978.537
v -13.6385 -137.115 978.914
v -13.6385 -137.115 978.914
v -13.6385 -136.515 979.178
v -13.6385 -135.915 979.167
v -13.6385 -135.315 978.882
v -13.3465 -136.827 978.874
v -13.0385 -134.715 978.531
v -12.4385 -138.13 977.774
v -12.4385 -138.13 977.774
v -12.4385 -138.13 977.774
v -11.8385 -137.788 976.874
v -11.2385 -137.215 976.574
v -11.1096 -136.815 976.574
v -11.2489 -135.348 976.637
v -12.7385 -134.343 978.074
v -12.4385 -134.415 977.896
v -12.0328 -134.415 977.474
vn -0.821987 0.162385 -0.545865
vn -0.484368 -0.853297 -0.193057
vn -0.440855 -0.889987 -0.11649
vn -0.16418 -0.871063 -0.462919
vn -0.731212 0.204283 -0.650843
vn -0.235528 -0.927719 -0.289593
vn -0.94866 0.0356306 -0.314285
vn -0.792748 0.257212 -0.552624
vn -0.601952 -0.793494 0.0895602
vn -0.723357 -0.376337 0.5789
vn -0.601992 0.295394 0.741854
vn -0.492907 0.579411 0.649096
vn -0.66925 0.492874 -0.556039
vn -0.372067 0.764147 0.52692
vn -0.188856 0.843465 0.502892
vn -0.373728 -0.927354 -0.0184827
vn 0.123152 -0.838478 -0.530837
vn -0.119236 -0.941785 -0.314362
vn -0.632674 -0.687477 0.35651
vn -0.0251886 -0.862488 -0.505451
vn -0.73475 0.1743 -0.655563
vn 0.177403 -0.720959 -0.669885
vn 0.192355 -0.612828 -0.766447
vn 0.360058 -0.550691 -0.753059
vn -0.541847 0.283587 -0.791189
vn -0.606556 0.308615 -0.732699
vn -0.555391 0.252908 -0.792199
vn 0.563955 -0.308744 -0.765919
vn 0.664518 -0.0367732 -0.746367
vn -0.579899 0.669734 -0.463868
vn -0.662372 0.347546 -0.663682
vn -0.571461 0.461707 -0.678424
vn -0.615551 0.271479 -0.739862
vn 0.697723 0.433073 -0.57064
vn -0.518976 0.459109 -0.721029
vn 0.45266 0.880217 -0.142538
vn -0.359336 0.645948 0.67352
vn -0.0203579 -0.930653 -0.365336
vn 0.236825 -0.774733 -0.586261
vn -0.692876 -0.486678 0.532041
vn 0.390875 -0.594354 -0.702823
vn 0.559643 -0.342963 -0.754438
vn -0.164729 0.834938 0.525113
vn 0.0797353 0.945924 0.314437
vn 0.304527 0.948398 0.0883385
vn 0.431497 -0.583861 -0.68769
vn 0.581286 -0.339491 -0.739495
vn 0.682634 -0.0816853 -0.726181
vn -0.633369 -0.68415 0.361638
vn -0.733019 -0.150727 0.663298
vn 0.226487 -0.80465 -0.548855
vn -0.597654 0.348721 0.721944
vn -0.543904 0.483218 0.686053
vn 0.66567 -0.0762811 -0.742337
vn -0.379615 0.677249 0.630258
vn -0.77424 -0.265193 0.574653
vn 0.722258 0.209311 -0.659191
vn 0.648065 -0.233313 -0.724966
vn -0.72481 0.0732964 0.685039
vn -0.637273 0.323096 0.699637
vn -0.12128 0.880088 0.459059
vn 0.273461 0.95566 0.109236
vn 0.169028 -0.859093 -0.483103
vn 0.365225 -0.693789 -0.620699
vn -0.456146 -0.886766 0.074677
vn -0.168165 -0.961451 -0.217563
vn -0.727491 0.149192 0.6697
vn 0.698757 0.5313 -0.479019
vn 0.524693 -0.481065 -0.702335
vn 0.398902 0.916655 -0.0249266
vn 0.608256 0.738003 -0.292192
vn 0.737135 0.118186 -0.66533
vn 0.746967 0.374117 -0.549615
vn -0.466333 0.600613 0.649459
vn 0.0801956 0.956401 0.280831
vn -0.675065 -0.656715 0.336173
vn 0.45151 -0.61787 -0.64372
vn 0.626267 -0.345892 -0.698676
vn 0.714048 -0.104453 -0.692261
vn 0.370502 -0.722006 -0.584325
vn 0.765368 0.134857 -0.629306
vn 0.581107 -0.472941 -0.6623
vn -0.518488 0.573523 0.634225
vn -0.797122 -0.0904139 0.597011
vn -0.246064 0.823222 0.511624
vn -0.719967 -0.604173 0.341499
vn -0.516671 -0.850472 0.0987325
vn 0.746021 -0.08547 -0.660415
vn 0.772274 0.329832 -0.542958
vn 0.699061 0.589447 -0.404803
vn 0.203277 0.965 0.165692
vn 0.410355 0.911695 -0.0205253
vn -0.660918 -0.678183 0.321332
vn -0.529291 -0.817622 0.226595
vn -0.560452 -0.748847 0.353725
vn -0.391993 -0.875977 0.28108
vn 0.698095 -0.264615 -0.665313
vn -0.79396 -0.175007 0.582237
vn -0.776213 -0.00719874 0.63043
vn -0.761527 -0.461387 0.455191
vn -0.77281 -0.106598 0.625621
vn -0.746712 0.142379 0.64973
vn -0.607654 0.445959 0.657174
vn 0.116326 0.020364 0.993002
vn 0.689619 0.048921 0.722518
vn 0.598723 0.766504 -0.232383
vn 0.73744 0.533246 -0.414525
vn 0.79294 0.210863 -0.571649
vn -0.331261 0.757782 0.562168
vn 0.627981 0.12423 0.768249
vn -0.412805 -0.90721 0.081004
vn 0.156344 -0.876706 -0.454911
vn 0.778677 -0.298919 0.551642
vn 0.573646 -0.532042 -0.622786
vn 0.705804 -0.328646 -0.627561
vn 0.758505 -0.074838 0.647355
vn 0.846891 -0.0189379 -0.531429
vn 0.846091 0.360237 -0.392887
vn 0.726481 0.0181346 0.686947
vn 0.687464 0.100435 0.71924
vn 0.00656094 0.927428 0.373945
vn 0.292622 0.934621 0.20213
vn 0.635041 0.115616 0.763778
vn 0.580814 0.809574 -0.0851168
vn 0.438435 0.896381 0.0653918
vn 0.724596 0.00679661 0.689141
vn 0.732647 0.659448 -0.168393
vn -0.646551 -0.762186 0.0323087
vn -0.700874 0.114251 -0.704075
vn -0.725446 0.0208256 -0.687964
vn -0.717526 -0.565123 0.407175
vn -0.711275 -0.00170496 0.702911
vn -0.741222 0.28238 -0.608976
vn -0.475711 0.780759 0.40511
vn -0.546895 0.756954 -0.357668
vn 0.0273993 -0.745476 -0.665969
vn -0.646669 0.259701 -0.717199
vn 0.450044 -0.413162 -0.791681
vn -0.462269 0.227731 -0.856998
vn 0.317302 0.947421 0.0413956
vn 0.329116 0.935507 -0.128492
vn 0.70288 0.28022 -0.653786
vn 0.658099 0.594119 -0.462525
vn 0.186364 0.98115 0.0511223
vn 0.116326 0.020364 0.993002
vn 0.73846 0.0228358 0.673911
vn 0.726752 -0.0509775 0.685006
vn 0.116326 0.020364 0.993002
vn 0.462992 -0.356943 0.811314
vn 0.651348 -0.115345 0.749961
vn 0.660427 0.184322 0.727916
vn 0.509492 0.228603 0.829553
vn 0.675643 -0.0816215 0.732697
vn -0.279178 0.767253 0.577393
vn 0.00477637 -0.935818 -0.352452
vn 0.710179 -0.241624 0.661259
vn 0.755877 -0.592376 0.27882
vn 0.7444 -0.605385 0.28174
vn 0.789518 -0.450268 0.417037
vn 0.867933 -0.130026 -0.479359
vn 0.92232 0.348616 -0.166714
vn 0.620843 0.235037 0.747871
vn 0.342346 0.895135 0.285539
vn 0.563291 0.816781 0.124785
g grp1
usemtl mtl1
f 1//1 7//7 8//8 
f 1//1 8//8 5//5 
f 2//2 3//3 9//9 
f 128//128 2//2 9//9 
f 9//9 131//131 128//128 
f 129//129 1//1 5//5 
f 31//31 26//26 5//5 
f 2//2 4//4 6//6 
f 6//6 3//3 2//2 
f 9//9 3//3 16//16 
f 130//130 5//5 21//21 
f 129//129 5//5 130//130 
f 6//6 16//16 3//3 
f 6//6 4//4 20//20 
f 20//20 4//4 136//136 
f 131//131 10//10 132//132 
f 10//10 50//50 132//132 
f 31//31 5//5 8//8 
f 131//131 9//9 19//19 
f 19//19 10//10 131//131 
f 50//50 11//11 132//132 
f 132//132 11//11 12//12 
f 12//12 11//11 37//37 
f 8//8 133//133 31//31 
f 133//133 13//13 31//31 
f 12//12 14//14 134//134 
f 37//37 14//14 12//12 
f 134//134 14//14 15//15 
f 13//13 135//135 30//30 
f 16//16 6//6 18//18 
f 18//18 20//20 17//17 
f 19//19 9//9 16//16 
f 39//39 38//38 17//17 
f 17//17 38//38 18//18 
f 16//16 49//49 19//19 
f 40//40 19//19 49//49 
f 40//40 10//10 19//19 
f 49//49 16//16 65//65 
f 10//10 40//40 50//50 
f 136//136 23//23 22//22 
f 22//22 20//20 136//136 
f 25//25 137//137 26//26 
f 26//26 137//137 21//21 
f 5//5 26//26 21//21 
f 22//22 23//23 24//24 
f 138//138 24//24 23//23 
f 18//18 6//6 20//20 
f 17//17 20//20 22//22 
f 41//41 22//22 24//24 
f 138//138 28//28 24//24 
f 138//138 29//29 28//28 
f 26//26 27//27 139//139 
f 26//26 139//139 25//25 
f 33//33 139//139 27//27 
f 27//27 31//31 33//33 
f 26//26 31//31 27//27 
f 41//41 17//17 22//22 
f 29//29 54//54 28//28 
f 54//54 29//29 57//57 
f 142//142 57//57 29//29 
f 28//28 42//42 41//41 
f 28//28 41//41 24//24 
f 54//54 42//42 28//28 
f 39//39 17//17 41//41 
f 31//31 13//13 32//32 
f 32//32 13//13 30//30 
f 35//35 33//33 31//31 
f 31//31 32//32 35//35 
f 141//141 140//140 36//36 
f 36//36 140//140 45//45 
f 57//57 142//142 34//34 
f 143//143 34//34 142//142 
f 34//34 143//143 68//68 
f 144//144 141//141 36//36 
f 68//68 143//143 36//36 
f 14//14 37//37 15//15 
f 44//44 140//140 15//15 
f 44//44 45//45 140//140 
f 66//66 16//16 38//38 
f 16//16 18//18 38//38 
f 66//66 65//65 16//16 
f 46//46 42//42 47//47 
f 49//49 50//50 40//40 
f 34//34 68//68 57//57 
f 41//41 46//46 39//39 
f 42//42 46//46 41//41 
f 42//42 54//54 47//47 
f 37//37 11//11 52//52 
f 15//15 37//37 43//43 
f 44//44 15//15 43//43 
f 52//52 55//55 37//37 
f 37//37 55//55 43//43 
f 11//11 50//50 52//52 
f 54//54 48//48 47//47 
f 38//38 39//39 51//51 
f 51//51 39//39 46//46 
f 54//54 57//57 48//48 
f 49//49 76//76 50//50 
f 49//49 65//65 76//76 
f 55//55 61//61 43//43 
f 52//52 53//53 55//55 
f 61//61 44//44 43//43 
f 45//45 62//62 36//36 
f 63//63 66//66 38//38 
f 51//51 63//63 38//38 
f 64//64 51//51 46//46 
f 56//56 67//67 59//59 
f 48//48 58//58 47//47 
f 48//48 72//72 58//58 
f 57//57 72//72 48//48 
f 47//47 69//69 46//46 
f 47//47 58//58 69//69 
f 61//61 55//55 85//85 
f 61//61 75//75 44//44 
f 61//61 85//85 75//75 
f 50//50 60//60 52//52 
f 76//76 56//56 50//50 
f 53//53 52//52 60//60 
f 60//60 74//74 53//53 
f 53//53 74//74 55//55 
f 74//74 85//85 55//55 
f 56//56 59//59 50//50 
f 50//50 59//59 60//60 
f 59//59 67//67 60//60 
f 70//70 36//36 62//62 
f 71//71 68//68 36//36 
f 70//70 71//71 36//36 
f 45//45 44//44 62//62 
f 44//44 75//75 62//62 
f 70//70 62//62 75//75 
f 64//64 46//46 69//69 
f 51//51 64//64 63//63 
f 72//72 79//79 58//58 
f 87//87 65//65 66//66 
f 65//65 87//87 76//76 
f 57//57 68//68 72//72 
f 68//68 71//71 90//90 
f 72//72 68//68 73//73 
f 73//73 68//68 90//90 
f 60//60 83//83 74//74 
f 67//67 83//83 60//60 
f 56//56 76//76 86//86 
f 69//69 78//78 77//77 
f 69//69 77//77 64//64 
f 58//58 78//78 69//69 
f 66//66 63//63 112//112 
f 64//64 77//77 63//63 
f 112//112 63//63 80//80 
f 77//77 80//80 63//63 
f 58//58 79//79 78//78 
f 80//80 77//77 82//82 
f 78//78 88//88 82//82 
f 78//78 82//82 77//77 
f 79//79 88//88 78//78 
f 72//72 81//81 79//79 
f 72//72 73//73 81//81 
f 79//79 81//81 88//88 
f 73//73 90//90 89//89 
f 56//56 84//84 67//67 
f 83//83 67//67 103//103 
f 67//67 84//84 103//103 
f 70//70 106//106 71//71 
f 106//106 90//90 71//71 
f 83//83 85//85 74//74 
f 86//86 76//76 87//87 
f 86//86 84//84 56//56 
f 87//87 66//66 111//111 
f 86//86 87//87 94//94 
f 81//81 73//73 89//89 
f 70//70 92//92 106//106 
f 89//89 88//88 81//81 
f 75//75 91//91 70//70 
f 92//92 70//70 91//91 
f 93//93 86//86 94//94 
f 94//94 95//95 93//93 
f 93//93 95//95 100//100 
f 94//94 96//96 95//95 
f 112//112 80//80 114//114 
f 88//88 97//97 82//82 
f 82//82 114//114 80//80 
f 88//88 117//117 97//97 
f 108//108 117//117 88//88 
f 111//111 94//94 87//87 
f 86//86 100//100 84//84 
f 84//84 102//102 103//103 
f 93//93 100//100 86//86 
f 83//83 103//103 109//109 
f 120//120 110//110 105//105 
f 84//84 99//99 102//102 
f 98//98 84//84 100//100 
f 100//100 101//101 98//98 
f 99//99 84//84 98//98 
f 101//101 102//102 99//99 
f 98//98 101//101 99//99 
f 148//148 145//145 104//104 
f 150//150 149//149 153//153 
f 105//105 150//150 153//153 
f 150//150 105//105 151//151 
f 151//151 105//105 152//152 
f 146//146 147//147 153//153 
f 147//147 105//105 153//153 
f 152//152 105//105 110//110 
f 103//103 154//154 109//109 
f 89//89 90//90 107//107 
f 107//107 90//90 106//106 
f 89//89 108//108 88//88 
f 108//108 89//89 107//107 
f 85//85 121//121 75//75 
f 91//91 75//75 121//121 
f 91//91 121//121 122//122 
f 92//92 124//124 106//106 
f 91//91 122//122 92//92 
f 107//107 106//106 127//127 
f 127//127 106//106 124//124 
f 83//83 109//109 85//85 
f 85//85 109//109 121//121 
f 154//154 121//121 109//109 
f 94//94 111//111 96//96 
f 66//66 112//112 155//155 
f 156//156 113//113 147//147 
f 147//147 113//113 105//105 
f 157//157 158//158 113//113 
f 116//116 105//105 113//113 
f 113//113 158//158 159//159 
f 113//113 159//159 116//116 
f 97//97 115//115 82//82 
f 126//126 120//120 105//105 
f 115//115 114//114 82//82 
f 115//115 97//97 117//117 
f 105//105 116//116 119//119 
f 117//117 108//108 118//118 
f 126//126 105//105 119//119 
f 108//108 107//107 118//118 
f 107//107 127//127 118//118 
f 127//127 164//164 161//161 
f 114//114 115//115 160//160 
f 115//115 117//117 160//160 
f 160//160 117//117 161//161 
f 117//117 118//118 161//161 
f 127//127 161//161 118//118 
f 123//123 120//120 126//126 
f 162//162 120//120 123//123 
f 110//110 120//120 162//162 
f 121//121 163//163 122//122 
f 92//92 122//122 125//125 
f 164//164 122//122 163//163 
f 164//164 125//125 122//122 
f 124//124 125//125 164//164 
f 125//125 124//124 92//92 
f 124//124 164//164 127//127 
