#
# The license for this database is specified in the Creative Commons Attribution-Share Alike 2.1 Japan. If you use data from this database, please be sure attribute this database as follows: "BodyParts3D, (c)  The Database Center for Life Science licensed under CC Attribution-Share Alike 2.1 Japan".
# http://dbarchive.biosciencedbc.jp/en/bodyparts3d/lic.html
#
#
# Compatibility version : 4.0
# File ID : FJ3100
# Representation ID : BP8184
# Build-up logic : FMA 3.0 is_a
# Concept ID : FMA15804
# English name : Lateral inferior segmental tributary of left hepatic vein
# Bounds(mm): (26.564700,-177.928000,1124.520000)-(38.592500,-166.580000,1129.570000)
# Volume(cm3): 0.021100
#
v 26.7513 -166.96 1128.76
v 26.9623 -167.055 1128.62
v 26.8987 -167.222 1128.67
v 26.6876 -166.742 1129.25
v 26.8531 -166.749 1129.47
v 26.614 -166.867 1129.03
v 27.0067 -166.616 1129.35
v 27.0503 -166.785 1129.54
v 26.9063 -166.635 1128.96
v 27.167 -166.58 1129.23
v 27.3799 -166.678 1129.23
v 27.266 -166.645 1128.93
v 27.3504 -166.634 1129.1
v 27.0912 -166.878 1128.66
v 26.6573 -166.915 1129.39
v 26.5783 -166.93 1129.19
v 26.5861 -167.139 1129.19
v 26.8885 -166.938 1129.57
v 26.7945 -167.136 1129.51
v 26.5647 -167.048 1129.08
v 26.5921 -167.172 1129.04
v 26.595 -167.076 1128.96
v 26.7481 -167.353 1129.3
v 26.6966 -167.363 1129.08
v 27.0736 -167.38 1129.43
v 26.7008 -167.237 1128.85
v 26.9171 -167.496 1129.17
v 26.8743 -167.473 1128.95
v 26.9883 -167.378 1128.69
v 27.2172 -166.744 1129.45
v 27.2473 -166.958 1129.53
v 27.1329 -167.127 1129.57
v 27.543 -167.81 1128.79
v 27.6415 -167.83 1128.59
v 28.2407 -167.088 1128.76
v 28.8435 -167.545 1128.78
v 27.9586 -167.905 1128.94
v 28.6243 -167.866 1128.96
v 28.3588 -167.845 1128.08
v 28.4357 -168.26 1128.33
v 28.7725 -167.471 1128.18
v 28.5588 -168.325 1128.5
v 28.8033 -168.215 1128.76
v 29.3258 -168.669 1127.88
v 29.645 -168.975 1128.08
v 30.1405 -168.498 1128.44
v 30.023 -168.987 1128.36
v 30.2721 -168.549 1127.59
v 30.6735 -168.579 1128.03
v 31.0826 -168.977 1128.2
v 30.7566 -169.26 1128.35
v 30.5109 -169.541 1127.82
v 30.7155 -169.678 1128.03
v 30.5769 -169.228 1127.52
v 31.289 -169.295 1127.53
v 32.4454 -170.104 1127.68
v 32.063 -170.659 1128.21
v 32.0683 -170.744 1127.63
v 32.2735 -170.58 1128.33
v 32.5253 -170.407 1128.29
v 32.4648 -170.958 1128.2
v 32.2758 -170.314 1127.47
v 32.1471 -170.481 1127.46
v 32.436 -171.103 1128
v 32.5557 -171.141 1127.43
v 32.6596 -171.083 1127.33
v 32.7975 -170.91 1127.3
v 32.9657 -170.747 1127.41
v 32.6855 -170.284 1128.08
v 33.1657 -170.724 1127.63
v 32.9002 -171.068 1128.21
v 32.8806 -171.307 1128.1
v 33.1061 -170.848 1128.13
v 33.2529 -170.829 1127.91
v 33.2223 -171.43 1128.03
v 33.3081 -171.233 1128.05
v 33.0505 -171.346 1127.11
v 33.2711 -171.161 1127.16
v 33.4685 -171.132 1127.26
v 33.079 -171.821 1127.3
v 33.0449 -171.638 1127.14
v 33.5908 -171.293 1127.78
v 33.7865 -171.724 1127.64
v 33.1879 -171.806 1127.69
v 33.5585 -171.927 1127.66
v 33.6626 -171.447 1126.95
v 33.5009 -171.65 1126.79
v 33.4801 -171.986 1126.7
v 33.4721 -172.197 1126.78
v 33.6363 -172.464 1126.84
v 33.82 -171.407 1127.21
v 34.5938 -172.896 1126.64
v 34.451 -173.063 1126.55
v 34.6333 -172.482 1126.04
v 34.6257 -172.984 1125.56
v 34.6045 -173.674 1125.82
v 35.0256 -173.562 1126.1
v 34.6457 -173.449 1125.41
v 35.2195 -174.113 1125.79
v 35.2564 -173.571 1125.16
v 35.4434 -173.497 1125.65
v 35.1206 -173.897 1125.03
v 35.0802 -174.208 1125.09
v 35.1972 -173.388 1126.04
v 35.5812 -174.098 1125.71
v 35.9903 -174.273 1125.05
v 35.7221 -174.422 1124.76
v 36.0173 -174.427 1124.87
v 35.4362 -174.863 1125.13
v 35.7043 -175.008 1125.37
v 35.7024 -174.752 1124.7
v 35.9391 -175.326 1124.68
v 36.2279 -175.117 1124.58
v 36.2158 -175.827 1124.74
v 36.153 -174.95 1125.41
v 36.3137 -174.793 1125.24
v 36.5968 -175.112 1124.81
v 36.6621 -175.188 1125.07
v 36.2999 -175.886 1125.15
v 36.5529 -175.733 1125.32
v 36.7289 -175.538 1125.26
v 36.3086 -175.469 1124.53
v 36.6275 -175.328 1124.63
v 36.5373 -175.952 1124.55
v 36.7258 -175.715 1124.53
v 36.6728 -176.325 1124.68
v 36.6378 -176.405 1124.94
v 37.0125 -175.897 1124.57
v 36.892 -176.178 1124.52
v 36.8425 -176.371 1124.59
v 37.3672 -176.029 1124.92
v 37.2673 -176.451 1125.36
v 37.3665 -176.245 1125.25
v 37.1871 -176.834 1125.3
v 37.534 -176.94 1125.44
v 37.1727 -176.258 1124.55
v 37.4389 -176.199 1124.75
v 37.536 -176.472 1124.67
v 37.3353 -176.706 1124.59
v 37.3995 -177.255 1124.98
v 37.4354 -177.117 1124.76
v 37.6751 -176.909 1124.66
v 37.3086 -177.152 1125.15
v 37.9142 -176.921 1125.43
v 38.049 -176.833 1125.22
v 37.9088 -177.766 1125.4
v 37.921 -177.82 1125.26
v 38.0194 -177.883 1125.36
v 38.2743 -177.306 1125.57
v 38.3502 -177.225 1125.46
v 37.9767 -177.603 1125.58
v 38.2218 -177.582 1125.64
v 38.1366 -177.845 1125.51
v 37.8647 -177.331 1124.76
v 38.2484 -177.021 1125.13
v 38.3989 -177.308 1125
v 38.2427 -177.623 1124.89
v 38.3515 -177.515 1124.91
v 38.3843 -177.669 1124.94
v 38.5318 -177.579 1125.06
v 37.9426 -177.799 1125.11
v 38.1515 -177.928 1125.23
v 38.1077 -177.769 1124.97
v 38.2874 -177.829 1125.02
v 38.485 -177.76 1125.1
v 38.4204 -177.85 1125.16
v 38.475 -177.382 1125.49
v 38.4906 -177.293 1125.33
v 38.4944 -177.305 1125.19
v 38.575 -177.436 1125.33
v 38.5925 -177.564 1125.26
v 38.5752 -177.543 1125.38
v 38.5695 -177.458 1125.17
v 38.3666 -177.756 1125.56
v 38.4217 -177.641 1125.58
v 38.2808 -177.911 1125.39
v 38.5409 -177.741 1125.31
v 38.522 -177.719 1125.42
v 38.4669 -177.818 1125.37
v 26.7945 -167.136 1129.51
v 28.7725 -167.471 1128.18
v 30.2721 -168.549 1127.59
v 31.289 -169.295 1127.53
v 31.289 -169.295 1127.53
v 32.4454 -170.104 1127.68
v 32.0683 -170.744 1127.63
v 32.1471 -170.481 1127.46
v 34.6333 -172.482 1126.04
v 34.6045 -173.674 1125.82
v 34.6045 -173.674 1125.82
v 34.6457 -173.449 1125.41
v 35.1972 -173.388 1126.04
v 35.5812 -174.098 1125.71
v 35.7043 -175.008 1125.37
v 37.3665 -176.245 1125.25
vn -0.633239 0.260318 -0.728864
vn -0.390486 0.165674 -0.905578
vn -0.552564 -0.208348 -0.807009
vn -0.690024 0.699816 0.184728
vn -0.432188 0.590398 0.681648
vn -0.850915 0.439679 -0.287448
vn -0.13662 0.901497 0.410655
vn 0.0575054 0.496935 0.86588
vn -0.346092 0.87159 -0.347204
vn 0.17858 0.970977 0.1591
vn 0.484643 0.791873 0.371561
vn 0.166566 0.910952 -0.377389
vn 0.373544 0.927612 -0.00120777
vn -0.171716 0.558905 -0.811258
vn -0.790983 0.182355 0.584031
vn -0.962966 0.22136 0.153938
vn -0.920959 -0.270472 0.280498
vn -0.244726 0.13312 0.96041
vn -0.759506 -0.166616 0.628801
vn -0.995967 0.00160162 -0.0897015
vn -0.926228 -0.337983 -0.166941
vn -0.906371 -0.0152545 -0.422207
vn -0.598 -0.657593 0.458221
vn -0.746392 -0.664731 -0.032109
vn -0.145641 -0.664687 0.732789
vn -0.740587 -0.404 -0.536949
vn -0.402091 -0.879897 0.253188
vn -0.558851 -0.789846 -0.252644
vn -0.549315 -0.542744 -0.63536
vn 0.373002 0.639384 0.672352
vn 0.323083 0.177419 0.929591
vn 0.0575497 -0.226701 0.972263
vn -0.430381 -0.901078 0.0531956
vn -0.529516 -0.779798 -0.333958
vn 0.492163 0.869459 0.0426155
vn 0.54017 0.513911 0.666417
vn -0.177234 -0.800161 0.573002
vn 0.209826 -0.271018 0.939427
vn -0.314746 0.00190332 -0.949174
vn -0.513255 -0.841347 -0.169424
vn -0.053895 0.507677 -0.85986
vn -0.3634 -0.869856 0.333603
vn -0.128712 -0.662401 0.73801
vn -0.52359 -0.62036 -0.583958
vn -0.521032 -0.850133 0.0761505
vn 0.361157 0.233523 0.902792
vn -0.170162 -0.577005 0.798818
vn -0.114621 0.154714 -0.981288
vn 0.591398 0.805244 0.0427958
vn 0.462318 0.525863 0.713954
vn -0.0712861 -0.181854 0.980738
vn -0.589187 -0.752604 -0.294018
vn -0.504874 -0.723374 0.470991
vn -0.286757 -0.234958 -0.928744
vn 0.0164947 0.0827088 -0.996437
vn 0.628106 0.762359 -0.155857
vn -0.443988 -0.552263 0.705606
vn -0.483957 -0.431088 -0.761544
vn -0.109736 -0.24106 0.964286
vn 0.31556 0.241341 0.917702
vn -0.307153 -0.533451 0.788091
vn 0.158711 0.342643 -0.925963
vn -0.503381 -0.353746 -0.788334
vn -0.615547 -0.749633 0.243211
vn -0.710202 -0.474539 -0.520025
vn -0.47536 -0.0702668 -0.876981
vn -0.109448 0.28501 -0.952255
vn 0.294062 0.612129 -0.734048
vn 0.657077 0.686705 0.310945
vn 0.619617 0.748154 -0.237361
vn 0.133165 -0.202851 0.970113
vn -0.227967 -0.608209 0.760338
vn 0.587477 0.302557 0.750553
vn 0.756573 0.592526 0.276605
vn 0.152039 -0.458518 0.875583
vn 0.51599 -0.0323518 0.855983
vn -0.422793 0.207612 -0.882124
vn 0.0257057 0.5796 -0.814496
vn 0.401483 0.74206 -0.536804
vn -0.77904 -0.616056 -0.1165
vn -0.736534 -0.247896 -0.629337
vn 0.799672 0.335036 0.498272
vn 0.636998 -0.123453 0.760916
vn -0.408571 -0.760063 0.505346
vn 0.143473 -0.586651 0.79703
vn 0.209739 0.73198 -0.64824
vn -0.271571 0.472312 -0.838553
vn -0.675654 0.0519601 -0.735385
vn -0.839244 -0.401132 -0.367102
vn -0.766538 -0.642184 0.00435369
vn 0.708975 0.695835 -0.114755
vn 0.383094 -0.438755 0.812855
vn -0.0470147 -0.708892 0.703748
vn 0.647241 0.71156 -0.273424
vn -0.24074 0.483315 -0.841695
vn -0.83931 -0.517851 -0.165496
vn 0.151856 -0.497196 0.854246
vn -0.856965 -0.335345 -0.391351
vn -0.0602419 -0.445662 0.893172
vn 0.32589 0.634195 -0.701136
vn 0.848449 0.486782 0.207792
vn -0.382369 0.193013 -0.903626
vn -0.772681 -0.295548 -0.561796
vn 0.848247 0.260023 0.461374
vn 0.724382 0.210023 0.656629
vn 0.747643 0.643458 -0.164293
vn 0.0328798 0.360979 -0.931994
vn 0.479733 0.561942 -0.673853
vn -0.809205 -0.587513 -0.00398751
vn -0.684728 -0.62255 0.378917
vn -0.382833 -0.00365044 -0.92381
vn -0.635477 -0.338651 -0.693891
vn 0.123019 0.27848 -0.952531
vn -0.71857 -0.531868 -0.448078
vn 0.279544 -0.0482335 0.958921
vn 0.736034 0.393876 0.55056
vn 0.730195 0.6064 -0.314792
vn 0.759554 0.568431 0.31617
vn -0.621629 -0.52095 0.584968
vn -0.0363901 -0.0676204 0.997047
vn 0.46979 0.288988 0.834136
vn -0.210326 -0.0440004 -0.976641
vn 0.482406 0.454348 -0.748901
vn -0.37741 -0.278116 -0.883297
vn 0.129927 0.135315 -0.982247
vn -0.620458 -0.570396 -0.538219
vn -0.764268 -0.644846 -0.00817904
vn 0.455488 0.33734 -0.823852
vn -0.0710328 -0.116376 -0.990662
vn -0.357593 -0.402039 -0.842907
vn 0.753863 0.65287 0.0738385
vn -0.0198702 0.149336 0.988587
vn 0.613747 0.583076 0.532294
vn -0.506194 -0.289197 0.812486
vn -0.175169 0.12177 0.976979
vn 0.243854 0.0895688 -0.965667
vn 0.698427 0.534158 -0.476314
vn 0.522372 0.280436 -0.805285
vn -0.0623998 -0.247928 -0.966767
vn -0.684075 -0.684207 -0.252787
vn -0.415931 -0.567795 -0.710359
vn 0.268065 -0.0298929 -0.962937
vn -0.741595 -0.61645 0.264623
vn 0.273627 0.489358 0.828044
vn 0.621634 0.686363 0.377461
vn -0.64509 -0.599817 0.473369
vn -0.631766 -0.774885 -0.0206009
vn -0.393148 -0.883473 0.254774
vn 0.272732 0.362651 0.891124
vn 0.529894 0.635865 0.561148
vn -0.408928 -0.290615 0.865056
vn 0.0182753 -0.111144 0.993636
vn -0.204178 -0.669761 0.713955
vn -0.0519074 -0.361993 -0.930735
vn 0.75049 0.656301 -0.0776768
vn 0.715125 0.354458 -0.602458
vn 0.168016 -0.313846 -0.93449
vn 0.498305 0.0566816 -0.865147
vn 0.487647 -0.334225 -0.806532
vn 0.822128 -0.0479177 -0.567282
vn -0.483541 -0.772723 -0.411201
vn -0.147169 -0.962736 -0.226893
vn -0.189519 -0.667418 -0.720164
vn 0.218443 -0.722301 -0.656174
vn 0.749959 -0.502756 -0.429881
vn 0.496428 -0.844622 -0.200432
vn 0.705111 0.368377 0.605902
vn 0.759871 0.620219 0.194744
vn 0.813814 0.537985 -0.219727
vn 0.935966 0.327746 0.128645
vn 0.989348 -0.114778 -0.0895388
vn 0.925432 -0.0376551 0.377038
vn 0.918919 0.262279 -0.294615
vn 0.358782 -0.583253 0.72876
vn 0.567347 -0.0657819 0.820847
vn 0.183372 -0.94138 0.283158
vn 0.881692 -0.470794 0.0311872
vn 0.790565 -0.408134 0.456545
vn 0.617407 -0.743136 0.257986
vn -0.21664 -0.435689 0.873637
vn 0.436829 0.864914 -0.247193
vn 0.484454 0.781731 -0.392685
vn 0.542385 0.740639 -0.396575
vn 0.419954 0.45179 -0.787099
vn 0.415365 0.562838 -0.714622
vn -0.633273 -0.765704 -0.11253
vn -0.0787588 0.0826171 -0.993464
vn 0.123538 0.685754 -0.717273
vn -0.284137 -0.667172 0.688583
vn -0.668113 -0.6635 0.33674
vn -0.568945 0.141321 -0.810142
vn 0.513652 -0.253564 0.819675
vn 0.299427 -0.261172 0.917678
vn -0.186167 -0.393463 0.900294
vn 0.2038 0.28161 0.937636
g grp1
usemtl mtl1
f 1//1 9//9 14//14 
f 14//14 2//2 1//1 
f 2//2 3//3 1//1 
f 26//26 1//1 3//3 
f 4//4 15//15 5//5 
f 5//5 15//15 18//18 
f 6//6 16//16 4//4 
f 16//16 15//15 4//4 
f 5//5 7//7 4//4 
f 18//18 8//8 5//5 
f 6//6 4//4 9//9 
f 9//9 4//4 7//7 
f 9//9 7//7 10//10 
f 5//5 8//8 7//7 
f 30//30 7//7 8//8 
f 31//31 30//30 8//8 
f 8//8 18//18 31//31 
f 10//10 7//7 30//30 
f 1//1 6//6 9//9 
f 12//12 9//9 10//10 
f 12//12 10//10 13//13 
f 10//10 11//11 13//13 
f 10//10 30//30 11//11 
f 12//12 14//14 9//9 
f 11//11 35//35 13//13 
f 35//35 12//12 13//13 
f 12//12 41//41 14//14 
f 6//6 20//20 16//16 
f 20//20 21//21 17//17 
f 16//16 20//20 17//17 
f 15//15 16//16 17//17 
f 23//23 19//19 17//17 
f 15//15 17//17 19//19 
f 15//15 19//19 18//18 
f 180//180 32//32 18//18 
f 22//22 20//20 6//6 
f 21//21 20//20 22//22 
f 21//21 24//24 17//17 
f 23//23 17//17 24//24 
f 25//25 32//32 180//180 
f 22//22 6//6 1//1 
f 26//26 22//22 1//1 
f 26//26 21//21 22//22 
f 21//21 26//26 24//24 
f 23//23 24//24 27//27 
f 180//180 23//23 25//25 
f 23//23 27//27 25//25 
f 27//27 24//24 28//28 
f 26//26 28//28 24//24 
f 29//29 26//26 3//3 
f 26//26 29//29 28//28 
f 33//33 27//27 28//28 
f 27//27 37//37 25//25 
f 28//28 34//34 33//33 
f 36//36 30//30 31//31 
f 11//11 30//30 36//36 
f 36//36 31//31 38//38 
f 18//18 32//32 31//31 
f 31//31 32//32 38//38 
f 41//41 39//39 14//14 
f 14//14 39//39 2//2 
f 35//35 181//181 12//12 
f 28//28 29//29 34//34 
f 39//39 3//3 2//2 
f 33//33 37//37 27//27 
f 33//33 34//34 40//40 
f 42//42 37//37 33//33 
f 40//40 42//42 33//33 
f 32//32 25//25 38//38 
f 37//37 38//38 25//25 
f 38//38 37//37 43//43 
f 34//34 29//29 44//44 
f 34//34 44//44 40//40 
f 35//35 11//11 36//36 
f 39//39 41//41 48//48 
f 39//39 29//29 3//3 
f 29//29 39//39 44//44 
f 54//54 44//44 39//39 
f 42//42 43//43 37//37 
f 36//36 38//38 46//46 
f 42//42 47//47 43//43 
f 40//40 45//45 42//42 
f 49//49 181//181 35//35 
f 45//45 47//47 42//42 
f 44//44 45//45 40//40 
f 45//45 44//44 52//52 
f 52//52 53//53 45//45 
f 53//53 47//47 45//45 
f 53//53 51//51 47//47 
f 49//49 35//35 36//36 
f 43//43 47//47 38//38 
f 47//47 46//46 38//38 
f 49//49 36//36 46//46 
f 49//49 46//46 50//50 
f 39//39 48//48 54//54 
f 54//54 52//52 44//44 
f 181//181 49//49 182//182 
f 46//46 47//47 51//51 
f 46//46 51//51 50//50 
f 54//54 48//48 55//55 
f 182//182 49//49 183//183 
f 52//52 54//54 58//58 
f 63//63 58//58 54//54 
f 49//49 56//56 183//183 
f 55//55 187//187 54//54 
f 187//187 55//55 62//62 
f 184//184 185//185 62//62 
f 50//50 60//60 69//69 
f 69//69 49//49 50//50 
f 69//69 56//56 49//49 
f 52//52 64//64 53//53 
f 53//53 57//57 51//51 
f 59//59 51//51 57//57 
f 186//186 64//64 52//52 
f 57//57 61//61 59//59 
f 64//64 57//57 53//53 
f 61//61 57//57 64//64 
f 50//50 51//51 60//60 
f 51//51 59//59 60//60 
f 70//70 56//56 69//69 
f 74//74 70//70 69//69 
f 62//62 185//185 68//68 
f 68//68 185//185 70//70 
f 65//65 58//58 63//63 
f 66//66 65//65 63//63 
f 62//62 67//67 187//187 
f 67//67 66//66 187//187 
f 67//67 77//77 66//66 
f 68//68 67//67 62//62 
f 65//65 64//64 186//186 
f 69//69 60//60 73//73 
f 74//74 69//69 73//73 
f 59//59 61//61 71//71 
f 59//59 71//71 60//60 
f 72//72 61//61 64//64 
f 71//71 61//61 72//72 
f 60//60 71//71 73//73 
f 73//73 71//71 76//76 
f 64//64 84//84 72//72 
f 76//76 71//71 75//75 
f 71//71 72//72 75//75 
f 73//73 76//76 82//82 
f 75//75 72//72 84//84 
f 77//77 81//81 66//66 
f 66//66 81//81 65//65 
f 68//68 78//78 67//67 
f 67//67 78//78 77//77 
f 79//79 78//78 68//68 
f 68//68 70//70 79//79 
f 91//91 79//79 70//70 
f 79//79 86//86 78//78 
f 78//78 86//86 87//87 
f 77//77 78//78 87//87 
f 77//77 88//88 81//81 
f 91//91 86//86 79//79 
f 64//64 65//65 80//80 
f 84//84 64//64 80//80 
f 80//80 65//65 81//81 
f 89//89 80//80 81//81 
f 88//88 89//89 81//81 
f 84//84 80//80 90//90 
f 80//80 89//89 90//90 
f 74//74 82//82 91//91 
f 82//82 74//74 73//73 
f 75//75 85//85 83//83 
f 75//75 83//83 76//76 
f 70//70 74//74 91//91 
f 82//82 76//76 83//83 
f 75//75 84//84 85//85 
f 85//85 84//84 93//93 
f 87//87 88//88 77//77 
f 90//90 89//89 96//96 
f 96//96 84//84 90//90 
f 98//98 89//89 88//88 
f 89//89 98//98 96//96 
f 101//101 91//91 82//82 
f 83//83 101//101 82//82 
f 92//92 83//83 85//85 
f 92//92 85//85 93//93 
f 94//94 86//86 91//91 
f 95//95 86//86 188//188 
f 91//91 101//101 94//94 
f 93//93 84//84 189//189 
f 88//88 87//87 95//95 
f 95//95 87//87 86//86 
f 95//95 191//191 88//88 
f 93//93 97//97 92//92 
f 95//95 188//188 100//100 
f 94//94 101//101 100//100 
f 97//97 93//93 189//189 
f 98//98 103//103 96//96 
f 101//101 83//83 104//104 
f 192//192 83//83 92//92 
f 192//192 92//92 97//97 
f 101//101 106//106 100//100 
f 99//99 97//97 189//189 
f 95//95 102//102 191//191 
f 102//102 103//103 191//191 
f 103//103 109//109 96//96 
f 109//109 103//103 112//112 
f 109//109 110//110 190//190 
f 99//99 189//189 194//194 
f 101//101 104//104 105//105 
f 192//192 97//97 193//193 
f 97//97 99//99 193//193 
f 102//102 95//95 100//100 
f 102//102 111//111 103//103 
f 102//102 107//107 111//111 
f 102//102 100//100 107//107 
f 106//106 108//108 100//100 
f 108//108 107//107 100//100 
f 99//99 194//194 115//115 
f 103//103 111//111 112//112 
f 109//109 114//114 127//127 
f 119//119 110//110 109//109 
f 109//109 127//127 119//119 
f 101//101 105//105 116//116 
f 116//116 106//106 101//101 
f 193//193 99//99 115//115 
f 116//116 105//105 115//115 
f 106//106 117//117 108//108 
f 114//114 109//109 112//112 
f 108//108 113//113 107//107 
f 107//107 113//113 111//111 
f 113//113 108//108 123//123 
f 123//123 108//108 117//117 
f 113//113 123//123 125//125 
f 113//113 122//122 111//111 
f 113//113 125//125 122//122 
f 111//111 122//122 112//112 
f 194//194 119//119 120//120 
f 115//115 194//194 120//120 
f 115//115 120//120 121//121 
f 116//116 115//115 121//121 
f 118//118 106//106 116//116 
f 118//118 116//116 121//121 
f 117//117 106//106 118//118 
f 133//133 118//118 121//121 
f 117//117 118//118 131//131 
f 119//119 134//134 120//120 
f 137//137 123//123 117//117 
f 123//123 128//128 125//125 
f 137//137 128//128 123//123 
f 126//126 127//127 114//114 
f 126//126 114//114 124//124 
f 124//124 114//114 112//112 
f 124//124 112//112 122//122 
f 125//125 124//124 122//122 
f 136//136 125//125 128//128 
f 136//136 129//129 125//125 
f 125//125 129//129 124//124 
f 129//129 130//130 124//124 
f 124//124 130//130 126//126 
f 131//131 137//137 117//117 
f 118//118 133//133 131//131 
f 121//121 120//120 195//195 
f 127//127 143//143 119//119 
f 119//119 143//143 134//134 
f 195//195 120//120 132//132 
f 132//132 120//120 134//134 
f 130//130 141//141 126//126 
f 145//145 131//131 133//133 
f 139//139 130//130 129//129 
f 138//138 136//136 128//128 
f 137//137 138//138 128//128 
f 195//195 132//132 144//144 
f 144//144 132//132 135//135 
f 135//135 132//132 134//134 
f 146//146 134//134 143//143 
f 136//136 139//139 129//129 
f 142//142 136//136 138//138 
f 136//136 142//142 139//139 
f 126//126 141//141 140//140 
f 130//130 139//139 141//141 
f 127//127 126//126 140//140 
f 140//140 143//143 127//127 
f 141//141 139//139 154//154 
f 140//140 141//141 161//161 
f 154//154 139//139 142//142 
f 163//163 141//141 154//154 
f 141//141 163//163 161//161 
f 145//145 133//133 144//144 
f 137//137 131//131 155//155 
f 151//151 135//135 134//134 
f 145//145 144//144 150//150 
f 145//145 155//155 131//131 
f 134//134 146//146 151//151 
f 143//143 140//140 147//147 
f 143//143 147//147 146//146 
f 148//148 146//146 147//147 
f 148//148 153//153 146//146 
f 153//153 151//151 146//146 
f 161//161 147//147 140//140 
f 151//151 152//152 135//135 
f 149//149 135//135 152//152 
f 144//144 135//135 149//149 
f 144//144 149//149 150//150 
f 149//149 152//152 175//175 
f 167//167 149//149 175//175 
f 155//155 145//145 168//168 
f 168//168 145//145 150//150 
f 167//167 168//168 150//150 
f 150//150 149//149 167//167 
f 152//152 153//153 174//174 
f 151//151 153//153 152//152 
f 152//152 174//174 175//175 
f 155//155 168//168 169//169 
f 154//154 157//157 163//163 
f 137//137 156//156 138//138 
f 155//155 169//169 137//137 
f 157//157 142//142 158//158 
f 157//157 154//154 142//142 
f 138//138 158//158 142//142 
f 169//169 156//156 137//137 
f 157//157 158//158 159//159 
f 156//156 158//158 138//138 
f 158//158 156//156 160//160 
f 158//158 160//160 159//159 
f 159//159 160//160 165//165 
f 169//169 173//173 156//156 
f 156//156 173//173 160//160 
f 161//161 162//162 147//147 
f 162//162 148//148 147//147 
f 162//162 176//176 148//148 
f 176//176 153//153 148//148 
f 162//162 161//161 163//163 
f 166//166 176//176 162//162 
f 157//157 164//164 163//163 
f 159//159 164//164 157//157 
f 164//164 162//162 163//163 
f 162//162 164//164 166//166 
f 159//159 165//165 164//164 
f 164//164 165//165 166//166 
f 170//170 169//169 168//168 
f 167//167 170//170 168//168 
f 172//172 170//170 167//167 
f 172//172 175//175 178//178 
f 175//175 172//172 167//167 
f 169//169 170//170 173//173 
f 173//173 171//171 160//160 
f 171//171 173//173 170//170 
f 172//172 171//171 170//170 
f 177//177 172//172 178//178 
f 177//177 165//165 171//171 
f 171//171 165//165 160//160 
f 171//171 172//172 177//177 
f 174//174 153//153 176//176 
f 174//174 178//178 175//175 
f 174//174 179//179 178//178 
f 176//176 179//179 174//174 
f 177//177 166//166 165//165 
f 177//177 179//179 166//166 
f 176//176 166//166 179//179 
f 179//179 177//177 178//178 
