#
# The license for this database is specified in the Creative Commons Attribution-Share Alike 2.1 Japan. If you use data from this database, please be sure attribute this database as follows: "BodyParts3D, (c)  The Database Center for Life Science licensed under CC Attribution-Share Alike 2.1 Japan".
# http://dbarchive.biosciencedbc.jp/en/bodyparts3d/lic.html
#
#
# Compatibility version : 4.0
# File ID : FJ3142
# Representation ID : BP9204
# Build-up logic : FMA 3.0 is_a
# Concept ID : FMA7211
# English name : Right testis
# Bounds(mm): (-30.846000,-163.355000,690.560000)-(-10.459700,-141.190000,718.988000)
# Volume(cm3): 6.485100
#
v -13.071 -156.31 712.232
v -13.6526 -159.396 704.154
v -13.3688 -158.276 698.764
v -13.2076 -155.98 695.901
v -13.2549 -153.433 714.543
v -13.3091 -150.225 714.432
v -10.9056 -150.634 708.683
v -11.2355 -155.343 703.807
v -10.4966 -151.437 700.964
v -11.0013 -149.32 698.793
v -10.4597 -148.412 702.967
v -11.2417 -154.43 699.685
v -11.2664 -151.577 697.826
v -12.2242 -150.522 695.712
v -13.6091 -152.576 693.762
v -13.5967 -144.671 711.823
v -11.5272 -146.514 709.443
v -12.9702 -143.818 708.625
v -12.2197 -144.661 701.927
v -13.3097 -147.372 695.074
v -19.9049 -163.355 706.571
v -20.9483 -156.377 718.794
v -15.11 -159.358 712.672
v -15.1965 -157.188 715.634
v -16.8779 -156.394 717.667
v -16.924 -158.417 716.497
v -18.8369 -158.351 717.751
v -18.9639 -156.396 718.61
v -19.7739 -160.903 715.476
v -20.8744 -158.4 717.957
v -17.8944 -162.416 709.637
v -17.7543 -162.616 705.385
v -15.9119 -160.873 699.109
v -16.9054 -160.337 695.965
v -18.9316 -162.328 699.711
v -20.9883 -161.593 696.96
v -15.3123 -157.245 693.855
v -19.0626 -159.54 693.786
v -20.8176 -154.32 718.988
v -14.9996 -153.388 716.645
v -16.97 -148.327 716.605
v -17.9078 -154.186 718.412
v -19.9089 -150.572 718.374
v -14.8836 -149.509 692.342
v -15.846 -153.366 691.595
v -17.0579 -151.343 690.703
v -16.8824 -148.407 691.237
v -18.0387 -155.314 691.01
v -19.0528 -148.48 690.757
v -16.2895 -143.698 712.87
v -15.0842 -142.89 710.559
v -14.9243 -142.284 706.325
v -18.826 -141.267 707.615
v -19.9079 -141.983 710.802
v -21.1586 -141.19 705.386
v -14.9623 -143.307 697.853
v -17.2688 -141.967 700.101
v -15.8518 -146.426 692.913
v -18.0879 -146.51 691.862
v -18.9618 -144.314 694.106
v -22.8763 -157.352 717.94
v -23.9184 -160.66 714.563
v -27.8097 -157.301 712.739
v -21.8689 -163.165 710.321
v -23.6661 -162.843 703.732
v -25.7985 -161.908 708.641
v -26.7544 -161.042 703.748
v -27.8905 -159.358 709.882
v -28.421 -159.256 706.626
v -29.3731 -156.281 709.624
v -24.9068 -161.457 699.759
v -28.1012 -158.389 700.019
v -22.7566 -156.264 691.594
v -25.5377 -158.233 694.919
v -22.8671 -151.3 718.695
v -21.7615 -148.471 718.055
v -22.9602 -154.704 718.608
v -25.8229 -155.255 716.533
v -26.6921 -149.67 716.541
v -29.1807 -152.523 712.678
v -28.9741 -155.219 697.818
v -29.0277 -150.492 695.851
v -29.5636 -148.375 697.877
v -22.7146 -151.454 690.56
v -25.7343 -153.506 692.183
v -27.5006 -153.435 693.918
v -26.7573 -150.382 692.941
v -21.7239 -146.327 716.753
v -21.802 -143.513 713.744
v -24.7501 -147.475 717.116
v -24.7827 -144.774 714.757
v -24.7176 -143.473 712.594
v -25.9234 -144.576 713.603
v -27.087 -146.424 714.571
v -23.7512 -141.838 708.679
v -26.7494 -142.964 703.901
v -27.7551 -144.483 709.767
v -25.4516 -143.526 698.696
v -27.5445 -146.59 695.87
v -28.7644 -145.485 700.11
v -24.4718 -146.563 693.28
v -30.3897 -154.448 704.569
v -30.6559 -151.585 707.883
v -29.838 -148.463 710.639
v -30.846 -150.318 704.749
v -30.3749 -151.341 699.842
v -29.8974 -146.422 704.791
v -30.0462 -147.582 700.874
vn 0.885476 -0.381194 0.265751
vn 0.749166 -0.661482 0.0345336
vn 0.780581 -0.575131 -0.244782
vn 0.844815 -0.310565 -0.435703
vn 0.863335 -0.127194 0.488339
vn 0.794725 0.172893 0.581826
vn 0.974719 -0.0570702 0.216022
vn 0.93469 -0.354445 0.0268933
vn 0.992557 -0.0808354 -0.0910841
vn 0.937055 0.194381 -0.290074
vn 0.979998 0.196976 -0.0283608
vn 0.930844 -0.298688 -0.210511
vn 0.933327 -0.101404 -0.344409
vn 0.868002 0.0219803 -0.496074
vn 0.779568 -0.147245 -0.608764
vn 0.652968 0.544668 0.526278
vn 0.915163 0.327679 0.234742
vn 0.705648 0.690936 0.157062
vn 0.812116 0.567918 -0.133926
vn 0.787943 0.387962 -0.478154
vn 0.140743 -0.989979 -0.0115016
vn -0.0984808 -0.241883 0.965295
vn 0.673661 -0.665478 0.321434
vn 0.744129 -0.375356 0.552612
vn 0.534069 -0.267615 0.801968
vn 0.54034 -0.591483 0.598482
vn 0.296062 -0.527848 0.796068
vn 0.215655 -0.228864 0.94927
vn 0.202631 -0.821149 0.533531
vn -0.0778449 -0.549184 0.832068
vn 0.440737 -0.878905 0.182417
vn 0.461066 -0.886743 -0.0332515
vn 0.560389 -0.808876 -0.178
vn 0.423738 -0.797636 -0.429213
vn 0.195768 -0.957423 -0.212168
vn -0.100166 -0.901989 -0.419979
vn 0.615894 -0.490659 -0.616383
vn 0.0729417 -0.717168 -0.693073
vn 0.0362126 0.0086558 0.999307
vn 0.652507 -0.000504025 0.757783
vn 0.417627 0.378778 0.825903
vn 0.367362 0.0615167 0.928041
vn 0.192769 0.210553 0.958388
vn 0.681788 0.137946 -0.718426
vn 0.600791 -0.172332 -0.78061
vn 0.307291 0.0131073 -0.951525
vn 0.383281 0.309325 -0.870295
vn 0.217699 -0.342345 -0.914006
vn -0.00833498 0.322378 -0.946574
vn 0.278496 0.737604 0.615126
vn 0.383735 0.871563 0.305163
vn 0.449343 0.893358 0.00139284
vn 0.113402 0.987741 0.107279
vn 0.0207073 0.932417 0.36079
vn -0.137869 0.987099 -0.0814071
vn 0.496912 0.795506 -0.346769
vn 0.109252 0.972621 -0.205115
vn 0.491084 0.562319 -0.665307
vn 0.093842 0.593673 -0.799216
vn 0.0304544 0.840355 -0.541181
vn -0.411329 -0.395357 0.821281
vn -0.484196 -0.688 0.540566
vn -0.801562 -0.385627 0.456936
vn -0.098587 -0.970734 0.218988
vn -0.256886 -0.959522 -0.115439
vn -0.571788 -0.80989 0.130907
vn -0.654156 -0.748372 -0.109629
vn -0.784386 -0.558662 0.269512
vn -0.848688 -0.528642 0.0162864
vn -0.929211 -0.304764 0.209013
vn -0.500519 -0.810364 -0.304615
vn -0.808025 -0.541551 -0.231988
vn -0.259454 -0.443593 -0.857851
vn -0.558394 -0.605893 -0.566648
vn -0.201055 0.130038 0.97091
vn 0.0536491 0.384214 0.921684
vn -0.379816 -0.113584 0.918063
vn -0.682494 -0.266288 0.680657
vn -0.686677 0.0865629 0.721791
vn -0.894373 -0.113659 0.432641
vn -0.887722 -0.31594 -0.334861
vn -0.875643 0.0526042 -0.480085
vn -0.895306 0.292427 -0.336026
vn -0.235245 0.0469115 -0.970803
vn -0.568215 -0.214576 -0.794411
vn -0.778363 -0.217895 -0.58879
vn -0.645582 0.174651 -0.743452
vn 0.0526896 0.629892 0.774893
vn -0.0326373 0.826842 0.561487
vn -0.340099 0.440359 0.830913
vn -0.294298 0.722021 0.626158
vn -0.311716 0.873136 0.374788
vn -0.525247 0.733151 0.431978
vn -0.679724 0.496044 0.540292
vn -0.277508 0.945846 0.168416
vn -0.53651 0.842274 -0.052267
vn -0.678688 0.700034 0.222115
vn -0.346181 0.873168 -0.343127
vn -0.680728 0.515268 -0.520681
vn -0.753555 0.61541 -0.231139
vn -0.34316 0.582175 -0.737098
vn -0.963635 -0.263539 -0.0442055
vn -0.984021 -0.0715969 0.163025
vn -0.925453 0.243601 0.290165
vn -0.996064 0.0886317 0.000338506
vn -0.978176 -0.0344542 -0.204901
vn -0.878388 0.477442 0.0220017
vn -0.946634 0.288041 -0.144627
g grp1
usemtl mtl1
f 2//2 8//8 1//1 
f 8//8 7//7 1//1 
f 8//8 3//3 12//12 
f 2//2 33//33 3//3 
f 2//2 3//3 8//8 
f 12//12 3//3 4//4 
f 6//6 5//5 7//7 
f 5//5 1//1 7//7 
f 5//5 24//24 1//1 
f 8//8 9//9 7//7 
f 11//11 17//17 7//7 
f 7//7 9//9 11//11 
f 7//7 17//17 6//6 
f 9//9 13//13 10//10 
f 9//9 10//10 11//11 
f 11//11 10//10 19//19 
f 12//12 9//9 8//8 
f 12//12 13//13 9//9 
f 4//4 14//14 13//13 
f 13//13 14//14 10//10 
f 12//12 4//4 13//13 
f 14//14 4//4 15//15 
f 44//44 14//14 15//15 
f 15//15 45//45 44//44 
f 44//44 20//20 14//14 
f 17//17 16//16 6//6 
f 16//16 18//18 51//51 
f 17//17 11//11 19//19 
f 18//18 16//16 17//17 
f 17//17 19//19 18//18 
f 18//18 19//19 52//52 
f 10//10 20//20 19//19 
f 14//14 20//20 10//10 
f 20//20 56//56 19//19 
f 58//58 56//56 20//20 
f 35//35 32//32 21//21 
f 24//24 23//23 1//1 
f 23//23 24//24 26//26 
f 26//26 24//24 25//25 
f 27//27 26//26 25//25 
f 27//27 25//25 28//28 
f 29//29 23//23 26//26 
f 31//31 23//23 29//29 
f 27//27 30//30 29//29 
f 29//29 26//26 27//27 
f 22//22 30//30 28//28 
f 30//30 27//27 28//28 
f 29//29 64//64 31//31 
f 31//31 64//64 21//21 
f 32//32 33//33 2//2 
f 23//23 2//2 1//1 
f 31//31 32//32 2//2 
f 23//23 31//31 2//2 
f 31//31 21//21 32//32 
f 37//37 4//4 3//3 
f 3//3 33//33 34//34 
f 34//34 37//37 3//3 
f 38//38 37//37 34//34 
f 35//35 33//33 32//32 
f 35//35 34//34 33//33 
f 36//36 38//38 34//34 
f 36//36 34//34 35//35 
f 35//35 65//65 36//36 
f 4//4 37//37 15//15 
f 38//38 48//48 37//37 
f 48//48 38//38 73//73 
f 74//74 38//38 36//36 
f 39//39 22//22 28//28 
f 42//42 39//39 28//28 
f 43//43 75//75 39//39 
f 5//5 40//40 24//24 
f 6//6 40//40 5//5 
f 24//24 40//40 25//25 
f 40//40 42//42 25//25 
f 41//41 40//40 6//6 
f 42//42 41//41 43//43 
f 42//42 40//40 41//41 
f 25//25 42//42 28//28 
f 39//39 42//42 43//43 
f 43//43 41//41 76//76 
f 41//41 88//88 76//76 
f 45//45 46//46 44//44 
f 20//20 44//44 58//58 
f 37//37 45//45 15//15 
f 58//58 44//44 47//47 
f 48//48 45//45 37//37 
f 46//46 45//45 48//48 
f 47//47 44//44 46//46 
f 49//49 47//47 46//46 
f 47//47 49//49 59//59 
f 84//84 49//49 46//46 
f 101//101 59//59 49//49 
f 48//48 84//84 46//46 
f 84//84 101//101 49//49 
f 84//84 48//48 73//73 
f 41//41 16//16 50//50 
f 41//41 6//6 16//16 
f 51//51 50//50 16//16 
f 88//88 41//41 50//50 
f 50//50 51//51 54//54 
f 89//89 88//88 50//50 
f 89//89 50//50 54//54 
f 52//52 51//51 18//18 
f 51//51 52//52 53//53 
f 53//53 52//52 57//57 
f 51//51 53//53 54//54 
f 95//95 53//53 55//55 
f 53//53 57//57 55//55 
f 53//53 95//95 54//54 
f 19//19 56//56 52//52 
f 56//56 57//57 52//52 
f 56//56 58//58 60//60 
f 57//57 56//56 60//60 
f 98//98 57//57 60//60 
f 59//59 58//58 47//47 
f 58//58 59//59 60//60 
f 101//101 60//60 59//59 
f 65//65 21//21 64//64 
f 30//30 62//62 29//29 
f 30//30 61//61 62//62 
f 61//61 30//30 22//22 
f 29//29 62//62 64//64 
f 61//61 78//78 62//62 
f 62//62 63//63 68//68 
f 64//64 62//62 66//66 
f 68//68 66//66 62//62 
f 62//62 78//78 63//63 
f 63//63 78//78 80//80 
f 21//21 65//65 35//35 
f 64//64 66//66 65//65 
f 66//66 67//67 65//65 
f 66//66 69//69 67//67 
f 69//69 66//66 68//68 
f 69//69 68//68 70//70 
f 68//68 63//63 70//70 
f 71//71 74//74 36//36 
f 71//71 65//65 67//67 
f 65//65 71//71 36//36 
f 74//74 71//71 72//72 
f 71//71 67//67 72//72 
f 81//81 74//74 72//72 
f 69//69 72//72 67//67 
f 69//69 102//102 72//72 
f 102//102 81//81 72//72 
f 102//102 106//106 81//81 
f 38//38 74//74 73//73 
f 74//74 86//86 85//85 
f 74//74 81//81 86//86 
f 77//77 22//22 39//39 
f 77//77 39//39 75//75 
f 22//22 77//77 61//61 
f 75//75 43//43 76//76 
f 78//78 61//61 77//77 
f 78//78 77//77 79//79 
f 79//79 77//77 75//75 
f 79//79 75//75 90//90 
f 76//76 90//90 75//75 
f 78//78 79//79 80//80 
f 94//94 79//79 90//90 
f 80//80 79//79 104//104 
f 81//81 82//82 86//86 
f 82//82 83//83 99//99 
f 87//87 101//101 84//84 
f 85//85 73//73 74//74 
f 84//84 73//73 85//85 
f 87//87 84//84 85//85 
f 87//87 99//99 101//101 
f 85//85 86//86 87//87 
f 99//99 87//87 82//82 
f 86//86 82//82 87//87 
f 88//88 90//90 76//76 
f 90//90 88//88 91//91 
f 91//91 88//88 89//89 
f 92//92 91//91 89//89 
f 92//92 89//89 54//54 
f 94//94 90//90 91//91 
f 93//93 94//94 91//91 
f 93//93 91//91 92//92 
f 93//93 92//92 97//97 
f 97//97 94//94 93//93 
f 104//104 79//79 94//94 
f 94//94 97//97 104//104 
f 95//95 55//55 96//96 
f 92//92 54//54 95//95 
f 97//97 92//92 95//95 
f 95//95 96//96 97//97 
f 96//96 107//107 97//97 
f 104//104 97//97 107//107 
f 98//98 55//55 57//57 
f 96//96 55//55 98//98 
f 99//99 98//98 101//101 
f 100//100 98//98 99//99 
f 100//100 99//99 83//83 
f 98//98 100//100 96//96 
f 108//108 107//107 100//100 
f 83//83 108//108 100//100 
f 96//96 100//100 107//107 
f 101//101 98//98 60//60 
f 70//70 102//102 69//69 
f 80//80 70//70 63//63 
f 104//104 103//103 80//80 
f 70//70 103//103 102//102 
f 70//70 80//80 103//103 
f 105//105 104//104 107//107 
f 105//105 102//102 103//103 
f 106//106 102//102 105//105 
f 103//103 104//104 105//105 
f 81//81 106//106 82//82 
f 83//83 82//82 106//106 
f 105//105 107//107 108//108 
f 108//108 106//106 105//105 
f 83//83 106//106 108//108 
