#
# The license for this database is specified in the Creative Commons Attribution-Share Alike 2.1 Japan. If you use data from this database, please be sure attribute this database as follows: "BodyParts3D, (c)  The Database Center for Life Science licensed under CC Attribution-Share Alike 2.1 Japan".
# http://dbarchive.biosciencedbc.jp/en/bodyparts3d/lic.html
#
#
# Compatibility version : 4.0
# File ID : FJ3181
# Representation ID : BP9974
# Build-up logic : FMA 3.0 part_of
# Concept ID : FMA32657
# English name : Distal phalanx of left fourth toe
# Bounds(mm): (155.212000,-206.553000,-70.309300)-(164.075000,-195.431000,-63.454600)
# Volume(cm3): 0.202100
#
v 155.905 -198.114 -67.9366
v 155.881 -198.224 -67.6117
v 156.6 -196.993 -68.1805
v 155.871 -200.591 -68.408
v 155.856 -201.205 -67.3192
v 156.368 -197.85 -67.5013
v 155.253 -199.902 -66.9513
v 155.212 -200.27 -65.8094
v 155.854 -199.113 -66.6889
v 156.333 -199.266 -65.9848
v 155.74 -200.831 -65.245
v 157.89 -196.242 -67.7698
v 158.022 -196.339 -68.4945
v 158.35 -197.947 -66.5692
v 158.063 -198.525 -66.0016
v 158.926 -197.725 -66.0113
v 156.784 -199.209 -64.5249
v 157.235 -198.88 -64.9736
v 157.55 -198.632 -63.9643
v 157.252 -199.361 -63.7524
v 158.21 -198.149 -64.7482
v 157.826 -199.074 -63.5371
v 158.203 -198.562 -63.4546
v 157.857 -200.133 -64.1103
v 158.681 -198.968 -63.5311
v 158.219 -195.947 -68.0601
v 159.059 -195.796 -67.6345
v 158.953 -196.558 -67.0043
v 159.349 -195.829 -68.2159
v 160.208 -195.498 -67.4962
v 160.347 -195.84 -66.5959
v 159.996 -196.644 -64.4938
v 158.749 -197.74 -63.6185
v 159.33 -197.91 -63.4663
v 157.206 -201.149 -69.0988
v 158.591 -201.918 -69.2836
v 157.281 -201.984 -66.8296
v 158.038 -202.34 -68.3743
v 158.305 -202.641 -67.2861
v 158.285 -199.717 -70.2512
v 158.954 -199.781 -70.3093
v 157.305 -201.584 -65.8934
v 158.926 -202.296 -66.2098
v 158.641 -198.106 -69.8133
v 160.259 -197.827 -69.8729
v 161.188 -198.236 -69.5696
v 160.916 -199.506 -65.0985
v 159.806 -198.748 -63.9001
v 159.818 -200.681 -65.044
v 160.458 -196.485 -69.0531
v 161.449 -197.171 -69.3187
v 161.724 -195.763 -68.2302
v 161.011 -196.201 -64.6688
v 161.283 -196.342 -64.6627
v 161.244 -197.071 -64.5196
v 162.336 -196.548 -66.0277
v 160.279 -196.908 -63.8739
v 160.321 -197.385 -63.8034
v 161.785 -195.431 -66.6317
v 162.121 -195.437 -67.3618
v 162.451 -195.604 -66.655
v 162.672 -196.087 -67.8118
v 162.82 -196.309 -66.6431
v 162.248 -196.129 -65.9375
v 160.578 -203.572 -70.2532
v 158.867 -203.631 -67.832
v 159.444 -203.54 -67.0925
v 159.662 -201.565 -69.8604
v 160.056 -203.435 -66.6995
v 161.818 -199.597 -69.4019
v 162.405 -198.865 -68.4249
v 162.279 -199.913 -66.5983
v 162.146 -201.844 -66.4348
v 162.562 -197.427 -67.0118
v 162.687 -196.932 -67.8241
v 162.357 -198.07 -67.8635
v 162.376 -198.336 -67.2232
v 162.535 -198.954 -67.4751
v 161.778 -198.64 -65.8576
v 159.783 -205.28 -68.9976
v 159.716 -205.456 -68.1428
v 160.609 -204.673 -67.0168
v 160.182 -205.57 -67.629
v 160.247 -206.085 -68.2757
v 160.609 -205.77 -69.3848
v 160.671 -206.272 -68.9042
v 161.262 -206.548 -68.6452
v 161.35 -206.33 -69.1649
v 161.332 -206.474 -68.2746
v 161.576 -205.926 -69.4259
v 161.827 -205.733 -67.5082
v 161.896 -206.553 -68.5901
v 162.629 -202.66 -70.2576
v 163.65 -203.174 -69.9066
v 161.29 -203.489 -66.5863
v 163.058 -200.536 -69.2469
v 163.667 -201.099 -68.3702
v 163.207 -201.46 -67.3287
v 162.746 -205.746 -69.3724
v 161.973 -206.501 -68.8831
v 162.296 -206.262 -69.1192
v 162.432 -206.258 -68.1813
v 162.648 -206.281 -68.7759
v 163.203 -205.922 -68.6222
v 163.423 -205.553 -69.1267
v 164.075 -203.267 -69.2928
v 163.322 -204.549 -69.8706
v 163.891 -204.581 -69.4513
v 162.974 -205.017 -67.5127
v 163.547 -205.291 -68.1078
v 163.63 -204.559 -67.8643
v 163.976 -203.853 -68.2653
v 163.71 -205.264 -68.4349
v 163.86 -204.831 -68.2713
v 164.049 -204.614 -68.8101
v 155.905 -198.114 -67.9366
v 156.6 -196.993 -68.1805
v 155.871 -200.591 -68.408
v 155.253 -199.902 -66.9513
v 155.212 -200.27 -65.8094
v 155.74 -200.831 -65.245
v 157.55 -198.632 -63.9643
v 157.252 -199.361 -63.7524
v 157.826 -199.074 -63.5371
v 158.203 -198.562 -63.4546
v 158.219 -195.947 -68.0601
v 158.219 -195.947 -68.0601
v 159.059 -195.796 -67.6345
v 158.749 -197.74 -63.6185
v 158.749 -197.74 -63.6185
v 158.305 -202.641 -67.2861
v 158.954 -199.781 -70.3093
v 161.188 -198.236 -69.5696
v 161.188 -198.236 -69.5696
v 161.449 -197.171 -69.3187
v 161.011 -196.201 -64.6688
v 160.279 -196.908 -63.8739
v 160.279 -196.908 -63.8739
v 162.121 -195.437 -67.3618
v 162.451 -195.604 -66.655
v 162.672 -196.087 -67.8118
v 162.405 -198.865 -68.4249
v 162.687 -196.932 -67.8241
v 162.357 -198.07 -67.8635
v 162.357 -198.07 -67.8635
v 163.667 -201.099 -68.3702
vn -0.88446 0.458022 0.0891372
vn -0.769837 0.531305 0.353648
vn -0.497247 0.452879 -0.740031
vn -0.798171 -0.0991296 -0.59422
vn -0.70763 -0.687344 -0.163762
vn -0.48168 0.581975 0.655201
vn -0.85541 0.472287 0.212648
vn -0.852951 -0.520352 -0.0413335
vn -0.556761 0.664509 0.498443
vn -0.497846 0.830042 0.251356
vn -0.406554 -0.801247 0.438996
vn -0.443828 0.65595 0.610529
vn -0.262371 0.663604 -0.700566
vn -0.472784 0.587024 0.657174
vn -0.526398 0.829956 0.184602
vn -0.694847 0.705771 0.138109
vn -0.668199 0.689602 0.279212
vn -0.535773 0.84423 -0.0149568
vn -0.612914 0.790129 0.00574062
vn -0.683396 0.344075 0.643881
vn -0.623312 0.77579 -0.0981471
vn -0.55113 0.376199 0.744802
vn -0.586604 0.417864 0.693748
vn -0.0242667 -0.613233 0.789529
vn 0.182779 -0.350711 0.918474
vn -0.457757 0.828353 0.322939
vn -0.371088 0.749305 0.548485
vn -0.429473 0.528775 0.732086
vn -0.118454 0.882286 -0.455566
vn -0.143315 0.989197 -0.0308267
vn -0.47651 0.752255 0.455027
vn -0.510475 0.835625 0.202844
vn -0.564302 0.504763 0.653283
vn 0.144718 0.0566406 0.987851
vn -0.440367 -0.571242 -0.692647
vn -0.505264 -0.349701 -0.788934
vn -0.420626 -0.882326 0.211125
vn -0.727852 -0.650687 -0.21642
vn -0.726617 -0.686941 -0.0118239
vn -0.44106 0.0260235 -0.8971
vn 0.139846 0.118858 -0.983014
vn -0.219383 -0.822865 0.52418
vn -0.236092 -0.696949 0.677143
vn -0.217896 0.411799 -0.884841
vn 0.122606 0.300299 -0.945932
vn 0.316675 0.00741541 -0.948505
vn 0.603753 -0.265357 0.75171
vn 0.48916 -0.330229 0.807262
vn 0.277064 -0.473634 0.836006
vn -0.0193375 0.616062 -0.78746
vn 0.296406 0.433392 -0.851066
vn 0.190957 0.778137 -0.598363
vn -0.322887 0.878723 0.351552
vn 0.56522 0.442132 0.696453
vn 0.71729 -0.0717947 0.693066
vn 0.808215 -0.069295 0.584796
vn -0.314612 0.813225 0.489576
vn 0.486983 -0.0475204 0.872118
vn -0.068868 0.966432 0.247519
vn 0.0743087 0.993141 -0.0902737
vn 0.481963 0.749962 0.453067
vn 0.778943 0.528066 -0.338222
vn 0.95585 0.0336536 0.291922
vn 0.771447 0.22146 0.59651
vn -0.255787 -0.201945 -0.945405
vn -0.762771 -0.498829 0.411522
vn -0.539544 -0.542826 0.643609
vn -0.0586539 -0.014151 -0.998178
vn -0.28184 -0.442409 0.851376
vn 0.377271 0.292146 -0.878816
vn 0.658139 0.411202 -0.630686
vn 0.83782 0.0941219 0.537772
vn 0.586178 -0.120013 0.801244
vn 0.961242 -0.254656 0.105657
vn 0.790275 -0.0784795 -0.607706
vn 0.726991 0.424805 -0.539467
vn 0.974148 -0.00356196 0.225881
vn 0.944158 0.252617 0.211544
vn 0.8449 -0.141293 0.515927
vn -0.722589 -0.484429 -0.493146
vn -0.814434 -0.548226 0.190118
vn -0.139057 -0.398702 0.906477
vn -0.44572 -0.550225 0.706107
vn -0.567067 -0.811248 0.14252
vn -0.350565 -0.50904 -0.786119
vn -0.47794 -0.781244 -0.401537
vn -0.187341 -0.977589 -0.0960331
vn -0.0986916 -0.745459 -0.659205
vn -0.0912613 -0.861054 0.500258
vn 0.0178784 -0.454369 -0.890634
vn 0.0808861 -0.549663 0.831462
vn 0.16807 -0.978549 0.11914
vn 0.184497 0.139685 -0.972856
vn 0.62155 0.0682093 -0.780399
vn 0.0887505 -0.367858 0.925637
vn 0.667044 0.400405 -0.628274
vn 0.865873 0.432559 -0.25131
vn 0.79154 0.115138 0.600173
vn 0.270277 -0.542041 -0.795702
vn 0.14135 -0.924829 -0.353146
vn 0.257525 -0.705422 -0.660349
vn 0.366385 -0.777642 0.510916
vn 0.445774 -0.880849 -0.159343
vn 0.660821 -0.740254 0.123855
vn 0.641267 -0.62649 -0.443042
vn 0.96035 0.109874 -0.256235
vn 0.294322 -0.322972 -0.89948
vn 0.791326 -0.272296 -0.54741
vn 0.419828 -0.367228 0.829993
vn 0.670535 -0.501321 0.546864
vn 0.703305 -0.164492 0.691596
vn 0.89761 -0.00182063 0.440787
vn 0.84173 -0.524164 0.129392
vn 0.873451 -0.268078 0.406469
vn 0.961183 -0.275791 -0.00814378
vn -0.729935 0.155212 -0.66566
vn -0.645691 0.662162 0.380295
vn -0.526922 -0.737122 -0.423089
vn -0.935903 -0.221616 -0.273811
vn -0.730152 0.524379 0.43807
vn -0.715924 0.0280332 0.697615
vn -0.602318 0.430025 0.672527
vn -0.166602 -0.519294 0.838199
vn -0.00777768 -0.378403 0.925608
vn -0.0259743 0.00714565 0.999637
vn -0.312765 0.771041 -0.554684
vn -0.11886 0.986189 -0.115337
vn -0.173662 0.974502 -0.14208
vn -0.130329 0.375594 0.917575
vn -0.495188 0.811429 0.310439
vn -0.501816 -0.697712 0.511252
vn -0.267132 -0.432686 -0.861059
vn 0.731509 0.343721 -0.588855
vn 0.797948 -0.129462 -0.588658
vn 0.770588 -0.00807557 -0.637282
vn 0.308323 0.751469 0.583294
vn 0.335326 0.240512 0.910884
vn 0.280455 0.574423 0.769014
vn 0.59387 0.732906 -0.331915
vn 0.802009 0.589857 -0.0940783
vn 0.767903 0.0236442 -0.64013
vn 0.91332 0.373621 -0.162032
vn 0.985533 -0.16351 -0.0446044
vn 0.814851 -0.217748 -0.537218
vn 0.998686 -0.0220257 -0.0462708
vn 0.919204 0.164561 0.357749
g grp1
usemtl mtl1
f 1//1 7//7 2//2 
f 40//40 116//116 3//3 
f 1//1 2//2 117//117 
f 2//2 6//6 117//117 
f 40//40 35//35 4//4 
f 5//5 119//119 4//4 
f 8//8 119//119 5//5 
f 11//11 5//5 37//37 
f 4//4 119//119 116//116 
f 40//40 4//4 116//116 
f 40//40 44//44 41//41 
f 7//7 9//9 2//2 
f 7//7 120//120 9//9 
f 17//17 10//10 120//120 
f 9//9 120//120 10//10 
f 10//10 17//17 18//18 
f 6//6 2//2 9//9 
f 9//9 14//14 6//6 
f 15//15 10//10 18//18 
f 8//8 5//5 11//11 
f 120//120 20//20 17//17 
f 120//120 121//121 20//20 
f 37//37 42//42 11//11 
f 123//123 11//11 24//24 
f 26//26 117//117 12//12 
f 117//117 6//6 12//12 
f 3//3 44//44 40//40 
f 44//44 3//3 13//13 
f 13//13 3//3 126//126 
f 14//14 12//12 6//6 
f 12//12 14//14 28//28 
f 44//44 13//13 50//50 
f 15//15 9//9 10//10 
f 15//15 14//14 9//9 
f 18//18 21//21 15//15 
f 14//14 31//31 28//28 
f 15//15 16//16 14//14 
f 15//15 21//21 16//16 
f 14//14 16//16 31//31 
f 16//16 21//21 32//32 
f 16//16 32//32 31//31 
f 17//17 19//19 18//18 
f 20//20 122//122 17//17 
f 20//20 22//22 122//122 
f 18//18 19//19 21//21 
f 22//22 23//23 122//122 
f 23//23 33//33 122//122 
f 25//25 125//125 124//124 
f 125//125 34//34 129//129 
f 21//21 19//19 32//32 
f 24//24 124//124 123//123 
f 25//25 34//34 125//125 
f 24//24 25//25 124//124 
f 13//13 126//126 29//29 
f 26//26 12//12 27//27 
f 12//12 28//28 27//27 
f 128//128 29//29 127//127 
f 29//29 128//128 30//30 
f 50//50 13//13 29//29 
f 29//29 52//52 50//50 
f 28//28 31//31 27//27 
f 30//30 27//27 31//31 
f 30//30 52//52 29//29 
f 57//57 53//53 32//32 
f 32//32 19//19 130//130 
f 57//57 32//32 130//130 
f 137//137 129//129 34//34 
f 35//35 36//36 38//38 
f 35//35 5//5 118//118 
f 38//38 5//5 35//35 
f 5//5 38//38 37//37 
f 37//37 38//38 39//39 
f 68//68 41//41 46//46 
f 36//36 35//35 132//132 
f 132//132 35//35 40//40 
f 36//36 132//132 68//68 
f 43//43 24//24 42//42 
f 43//43 42//42 37//37 
f 131//131 43//43 37//37 
f 42//42 24//24 11//11 
f 50//50 45//45 44//44 
f 45//45 41//41 44//44 
f 46//46 41//41 45//45 
f 45//45 51//51 46//46 
f 49//49 25//25 24//24 
f 48//48 25//25 49//49 
f 25//25 48//48 34//34 
f 49//49 24//24 43//43 
f 47//47 48//48 49//49 
f 95//95 49//49 43//43 
f 45//45 50//50 51//51 
f 52//52 51//51 50//50 
f 30//30 31//31 59//59 
f 31//31 32//32 59//59 
f 52//52 30//30 60//60 
f 62//62 51//51 52//52 
f 139//139 62//62 52//52 
f 135//135 141//141 75//75 
f 79//79 74//74 63//63 
f 55//55 54//54 137//137 
f 138//138 54//54 136//136 
f 58//58 48//48 55//55 
f 55//55 48//48 47//47 
f 79//79 55//55 47//47 
f 79//79 56//56 55//55 
f 56//56 64//64 55//55 
f 79//79 63//63 56//56 
f 34//34 58//58 137//137 
f 48//48 58//58 34//34 
f 58//58 55//55 137//137 
f 60//60 30//30 59//59 
f 61//61 60//60 59//59 
f 139//139 140//140 62//62 
f 63//63 62//62 140//140 
f 64//64 63//63 61//61 
f 62//62 63//63 143//143 
f 143//143 63//63 74//74 
f 32//32 53//53 59//59 
f 59//59 136//136 61//61 
f 54//54 61//61 136//136 
f 54//54 55//55 64//64 
f 64//64 61//61 54//54 
f 56//56 63//63 64//64 
f 80//80 38//38 36//36 
f 80//80 36//36 65//65 
f 65//65 36//36 68//68 
f 80//80 65//65 85//85 
f 38//38 66//66 39//39 
f 131//131 66//66 67//67 
f 67//67 66//66 83//83 
f 38//38 80//80 81//81 
f 66//66 38//38 81//81 
f 67//67 83//83 69//69 
f 82//82 69//69 83//83 
f 83//83 66//66 81//81 
f 95//95 69//69 82//82 
f 46//46 70//70 68//68 
f 67//67 43//43 131//131 
f 69//69 43//43 67//67 
f 43//43 69//69 95//95 
f 109//109 73//73 95//95 
f 71//71 70//70 133//133 
f 133//133 76//76 71//71 
f 70//70 71//71 96//96 
f 97//97 96//96 142//142 
f 78//78 97//97 142//142 
f 72//72 98//98 78//78 
f 73//73 79//79 47//47 
f 73//73 47//47 49//49 
f 73//73 49//49 95//95 
f 77//77 79//79 72//72 
f 78//78 77//77 72//72 
f 72//72 79//79 73//73 
f 144//144 134//134 75//75 
f 145//145 143//143 74//74 
f 134//134 135//135 75//75 
f 79//79 77//77 74//74 
f 145//145 78//78 142//142 
f 145//145 77//77 78//78 
f 145//145 74//74 77//77 
f 65//65 68//68 93//93 
f 107//107 65//65 93//93 
f 65//65 90//90 85//85 
f 85//85 90//90 88//88 
f 80//80 84//84 81//81 
f 84//84 83//83 81//81 
f 82//82 83//83 91//91 
f 91//91 95//95 82//82 
f 85//85 86//86 80//80 
f 80//80 86//86 84//84 
f 88//88 86//86 85//85 
f 88//88 87//87 86//86 
f 87//87 84//84 86//86 
f 91//91 109//109 95//95 
f 87//87 89//89 84//84 
f 84//84 89//89 83//83 
f 83//83 89//89 91//91 
f 100//100 87//87 88//88 
f 92//92 87//87 100//100 
f 89//89 87//87 92//92 
f 90//90 101//101 88//88 
f 100//100 103//103 92//92 
f 92//92 102//102 89//89 
f 103//103 102//102 92//92 
f 89//89 102//102 91//91 
f 93//93 68//68 70//70 
f 93//93 70//70 96//96 
f 93//93 96//96 94//94 
f 107//107 93//93 94//94 
f 112//112 106//106 146//146 
f 98//98 73//73 112//112 
f 111//111 73//73 109//109 
f 111//111 112//112 73//73 
f 106//106 96//96 97//97 
f 96//96 106//106 94//94 
f 98//98 146//146 78//78 
f 112//112 146//146 98//98 
f 73//73 98//98 72//72 
f 90//90 65//65 107//107 
f 107//107 99//99 90//90 
f 107//107 105//105 99//99 
f 107//107 108//108 105//105 
f 100//100 88//88 101//101 
f 103//103 100//100 101//101 
f 91//91 102//102 109//109 
f 90//90 99//99 101//101 
f 105//105 101//101 99//99 
f 104//104 102//102 103//103 
f 110//110 102//102 104//104 
f 110//110 109//109 102//102 
f 103//103 101//101 105//105 
f 104//104 103//103 105//105 
f 107//107 94//94 108//108 
f 108//108 94//94 106//106 
f 105//105 108//108 115//115 
f 108//108 106//106 115//115 
f 115//115 106//106 112//112 
f 114//114 110//110 113//113 
f 114//114 111//111 110//110 
f 109//109 110//110 111//111 
f 112//112 114//114 115//115 
f 112//112 111//111 114//114 
f 104//104 105//105 113//113 
f 113//113 110//110 104//104 
f 105//105 115//115 113//113 
f 113//113 115//115 114//114 
