#
# The license for this database is specified in the Creative Commons Attribution-Share Alike 2.1 Japan. If you use data from this database, please be sure attribute this database as follows: "BodyParts3D, (c)  The Database Center for Life Science licensed under CC Attribution-Share Alike 2.1 Japan".
# http://dbarchive.biosciencedbc.jp/en/bodyparts3d/lic.html
#
#
# Compatibility version : 4.0
# File ID : FJ3185
# Representation ID : BP9986
# Build-up logic : FMA 3.0 part_of
# Concept ID : FMA32659
# English name : Distal phalanx of left little toe
# Bounds(mm): (161.261000,-186.545000,-70.479900)-(169.358000,-176.160000,-65.129000)
# Volume(cm3): 0.132000
#
v 161.261 -180.479 -66.7759
v 162.484 -180.463 -65.6627
v 161.929 -179.028 -66.8903
v 161.985 -179.392 -66.2276
v 162.559 -179.302 -65.4213
v 162.64 -178.888 -65.6157
v 161.509 -180.857 -67.6533
v 161.883 -181.415 -67.0171
v 161.989 -180.98 -68.0403
v 161.311 -179.77 -67.2499
v 161.376 -179.961 -67.6702
v 161.858 -178.551 -67.8718
v 162.299 -179.799 -68.8343
v 163.06 -176.94 -68.6472
v 162.766 -177.482 -68.9128
v 163.495 -177.017 -68.2091
v 162.528 -178.828 -66.2801
v 163.246 -178.572 -65.3608
v 163.372 -178.311 -65.7788
v 164.08 -179.119 -65.129
v 165 -177.768 -65.3227
v 165.573 -178.682 -65.424
v 164.879 -177.502 -65.6018
v 163.966 -182.095 -67.6704
v 164.552 -182.67 -68.6801
v 164.952 -182.446 -69.3236
v 164.484 -182.838 -68.0044
v 165.389 -185.085 -67.323
v 164.858 -184.311 -68.4654
v 165.927 -185.776 -67.2056
v 166.107 -185.163 -66.9801
v 163.634 -181.183 -68.8424
v 164.941 -181.498 -66.2023
v 165.866 -182.831 -66.6371
v 167.162 -182.675 -66.7158
v 163.993 -176.549 -69.1659
v 164.038 -178.087 -69.9723
v 165.214 -178.134 -69.9695
v 165.128 -177.302 -69.9169
v 165.726 -180.534 -65.9956
v 166.739 -178.826 -66.3159
v 166.85 -180.284 -66.5667
v 167.32 -180.295 -67.0806
v 164.321 -176.315 -68.7944
v 164.551 -176.366 -69.1383
v 165.597 -176.197 -68.7674
v 166.253 -176.532 -69.1865
v 166.431 -176.818 -66.1752
v 166.153 -176.518 -66.6092
v 165.807 -176.379 -67.5524
v 167.465 -176.796 -66.8462
v 167.233 -176.16 -67.595
v 167.598 -176.471 -67.1445
v 167.739 -176.729 -67.0066
v 167.714 -176.39 -67.6558
v 167.95 -176.734 -67.2045
v 166.219 -177.823 -65.6969
v 167.052 -177.332 -66.3019
v 167.678 -177.128 -66.828
v 167.652 -177.507 -66.8211
v 167.808 -177.9 -67.0642
v 168.01 -177.269 -67.015
v 165.398 -185.979 -68.2321
v 165.603 -186.156 -68.4755
v 165.449 -185.217 -69.3142
v 165.922 -185.785 -69.2177
v 165.717 -186.258 -67.7723
v 165.867 -186.455 -68.0283
v 166.163 -186.482 -68.2711
v 166.461 -186.545 -67.7177
v 166.904 -186.498 -67.9807
v 166.45 -183.684 -70.2922
v 165.404 -184.396 -69.6316
v 167.453 -184.757 -68.4781
v 167.456 -184.764 -68.4844
v 167.464 -184.759 -68.4871
v 167.461 -184.752 -68.4808
v 167.462 -184.761 -68.4775
v 166.614 -184.812 -70.2924
v 167.221 -184.669 -66.9406
v 167.305 -185.992 -67.3603
v 168.683 -185.155 -67.8092
v 165.591 -179.885 -69.6196
v 165.918 -182.207 -69.8595
v 167.037 -181.856 -69.8471
v 167.711 -181.85 -67.1421
v 167.936 -181.301 -68.8292
v 168.48 -183.79 -67.4633
v 168.857 -183.128 -68.1272
v 166.701 -179.719 -69.3103
v 167.573 -179.059 -68.3821
v 167.013 -178.482 -69.2335
v 167.573 -179.212 -67.6178
v 167.533 -180.046 -68.4909
v 167.634 -180.127 -68.051
v 167.983 -181.076 -68.1566
v 167.028 -176.443 -68.7767
v 168.086 -177.152 -67.5742
v 167.133 -176.931 -69.2005
v 167.398 -176.771 -68.7951
v 167.219 -177.641 -69.3329
v 167.835 -178.074 -68.7627
v 168.017 -178.234 -68.1394
v 167.916 -177.682 -68.6256
v 167.781 -184.279 -70.4799
v 168.297 -185.349 -69.8524
v 168.699 -184.073 -70.2363
v 168.907 -184.598 -70.157
v 168.592 -185.732 -68.1959
v 168.785 -185.602 -68.9518
v 169.069 -185.206 -69.5286
v 169.358 -184.835 -69.0685
v 169.346 -183.653 -69.298
v 169.342 -184.157 -68.618
v 161.261 -180.479 -66.7759
v 162.559 -179.302 -65.4213
v 161.509 -180.857 -67.6533
v 161.883 -181.415 -67.0171
v 161.883 -181.415 -67.0171
v 161.989 -180.98 -68.0403
v 161.311 -179.77 -67.2499
v 161.858 -178.551 -67.8718
v 163.06 -176.94 -68.6472
v 163.06 -176.94 -68.6472
v 163.246 -178.572 -65.3608
v 163.966 -182.095 -67.6704
v 163.966 -182.095 -67.6704
v 163.966 -182.095 -67.6704
v 164.484 -182.838 -68.0044
v 164.484 -182.838 -68.0044
v 163.634 -181.183 -68.8424
v 164.941 -181.498 -66.2023
v 165.866 -182.831 -66.6371
v 163.993 -176.549 -69.1659
v 166.431 -176.818 -66.1752
v 167.233 -176.16 -67.595
v 167.714 -176.39 -67.6558
v 167.95 -176.734 -67.2045
v 168.01 -177.269 -67.015
v 165.867 -186.455 -68.0283
v 166.461 -186.545 -67.7177
v 166.461 -186.545 -67.7177
v 165.404 -184.396 -69.6316
v 167.453 -184.757 -68.4781
v 167.453 -184.757 -68.4781
v 167.456 -184.764 -68.4844
v 167.456 -184.764 -68.4844
v 167.464 -184.759 -68.4871
v 167.464 -184.759 -68.4871
v 167.461 -184.752 -68.4808
v 167.461 -184.752 -68.4808
v 167.462 -184.761 -68.4775
v 167.462 -184.761 -68.4775
v 167.462 -184.761 -68.4775
v 167.573 -179.059 -68.3821
v 168.699 -184.073 -70.2363
v 168.907 -184.598 -70.157
v 168.785 -185.602 -68.9518
v 169.069 -185.206 -69.5286
v 169.069 -185.206 -69.5286
vn -0.799707 0.0932241 0.593109
vn -0.335232 -0.433284 0.836591
vn -0.650022 0.627773 0.42822
vn -0.772543 0.494919 0.397784
vn -0.718249 0.25461 0.647528
vn -0.653605 0.645162 0.395685
vn -0.859791 -0.30266 -0.411286
vn -0.832446 -0.554096 0.0034573
vn -0.406179 -0.824895 -0.39315
vn -0.969711 0.128328 -0.207827
vn -0.911122 0.0571542 -0.408154
vn -0.879734 0.34853 -0.323411
vn -0.618652 -0.157558 -0.769705
vn -0.718477 0.579352 -0.384892
vn -0.718385 0.346096 -0.60344
vn -0.377714 0.756634 0.533701
vn -0.607782 0.76158 0.224937
vn -0.534303 0.443431 0.719646
vn -0.532692 0.810108 0.244876
vn 0.0271998 -0.128718 0.991308
vn 0.0532035 0.358679 0.931944
vn 0.410979 -0.115126 0.904346
vn -0.321936 0.798315 0.50897
vn -0.405319 -0.773579 -0.487126
vn -0.842412 -0.369918 -0.391795
vn -0.671865 -0.156326 -0.723989
vn -0.914098 -0.398081 -0.0771794
vn -0.754874 -0.274758 0.595544
vn -0.947252 -0.250755 -0.199587
vn -0.290066 -0.465515 0.836157
vn -0.146059 -0.241101 0.959446
vn -0.561839 -0.364717 -0.742509
vn 0.0095602 -0.516566 0.856194
vn -0.548438 -0.604123 0.578145
vn 0.333128 -0.091043 0.938476
vn -0.372744 0.513205 -0.773099
vn -0.278948 0.0294108 -0.959856
vn 0.216837 -0.0681659 -0.973825
vn 0.0616311 0.379603 -0.923094
vn 0.29745 -0.224692 0.927921
vn 0.687364 -0.141002 0.712495
vn 0.607628 -0.0315313 0.793596
vn 0.863242 0.0997221 0.494842
vn -0.28767 0.954533 0.0781812
vn -0.0859536 0.827739 -0.554491
vn 0.00857571 0.979447 -0.201518
vn 0.154313 0.71816 -0.678553
vn 0.0335597 0.814507 0.579182
vn -0.138642 0.900585 0.411978
vn -0.35585 0.889179 0.28763
vn 0.369486 0.477119 0.797394
vn 0.0954256 0.940397 0.326417
vn 0.414884 0.705392 0.574712
vn 0.508658 0.425385 0.748541
vn 0.747348 0.583024 -0.318674
vn 0.625499 0.578515 0.523519
vn 0.464203 0.0886891 0.881278
vn 0.537934 0.212556 0.815749
vn 0.536798 0.185479 0.823071
vn 0.605987 -0.124498 0.785672
vn 0.789345 -0.288726 0.541822
vn 0.587288 0.0821451 0.805198
vn -0.867744 -0.497008 0.0017618
vn -0.577686 -0.717592 -0.389025
vn -0.729624 -0.419076 -0.540392
vn -0.287078 -0.710901 -0.642033
vn -0.620073 -0.632419 0.46428
vn -0.507175 -0.856165 -0.09877
vn -0.105034 -0.926832 -0.360487
vn -0.224981 -0.70555 0.671999
vn 0.285866 -0.957874 -0.0275362
vn -0.306999 0.0846293 -0.94794
vn -0.896677 -0.174158 -0.406989
vn 0.353933 0.704237 -0.615452
vn 0.353933 0.704237 -0.615452
vn 0.520455 -0.436912 0.733645
vn -0.0937289 -0.351503 -0.931483
vn 0.353933 0.704237 -0.615452
vn -0.2863 -0.37862 -0.880159
vn 0.261286 -0.176375 0.949011
vn 0.29034 -0.55501 0.779529
vn 0.695737 -0.278665 0.662039
vn -0.0124779 -0.0413318 -0.999068
vn -0.295555 0.0684967 -0.952867
vn 0.266643 0.323517 -0.907876
vn 0.737305 0.173316 0.652949
vn 0.754768 0.417881 -0.505669
vn 0.65332 0.0183715 0.756859
vn 0.857035 0.277949 0.433861
vn 0.562614 0.100358 -0.820606
vn 0.809692 -0.284013 -0.513551
vn 0.545971 -0.213986 -0.810016
vn 0.941829 -0.18619 0.279805
vn 0.892382 0.235311 -0.385075
vn 0.990008 0.128875 0.0572252
vn 0.920193 0.369717 0.128662
vn 0.363097 0.809041 -0.462182
vn 0.979787 0.183925 -0.0786645
vn 0.481937 0.43819 -0.758766
vn 0.690656 0.52089 -0.501665
vn 0.503018 0.0320094 -0.863683
vn 0.777433 -0.212729 -0.591899
vn 0.970787 -0.236792 -0.0387539
vn 0.860189 0.200003 -0.46912
vn 0.0830671 -0.0797174 -0.99335
vn 0.16375 -0.744551 -0.647171
vn 0.226413 0.13192 -0.965057
vn 0.274446 -0.383578 -0.881786
vn 0.649532 -0.691793 0.315485
vn 0.329031 -0.899595 -0.287173
vn 0.372461 -0.737933 -0.562786
vn 0.948516 -0.316561 0.0103555
vn 0.894461 0.333337 -0.298036
vn 0.922219 0.0327361 0.385281
vn -0.960829 -0.249856 -0.119916
vn -0.183663 -0.042083 0.982088
vn -0.505382 -0.773858 -0.381751
vn -0.40641 -0.808751 -0.42515
vn -0.307912 -0.750071 0.585306
vn -0.545787 -0.364183 -0.754644
vn -0.788645 0.457917 0.410306
vn -0.729228 0.593207 0.341074
vn -0.483599 0.734836 0.475551
vn -0.453306 0.878306 -0.151963
vn -0.3636 0.562092 0.742865
vn -0.842176 -0.514433 -0.161546
vn -0.548438 -0.604123 0.578145
vn -0.144758 -0.879315 0.453707
vn -0.545103 -0.62896 0.554321
vn -0.701579 -0.0672707 0.70941
vn -0.354785 -0.82233 -0.44486
vn -0.551117 -0.578563 0.601278
vn -0.202574 -0.159209 0.966238
vn -0.369962 0.898077 -0.237875
vn 0.409913 0.367044 0.835015
vn 0.275948 0.92277 -0.268977
vn 0.52804 0.812403 0.247336
vn 0.953503 0.301201 0.0104859
vn 0.978017 -0.090253 0.18798
vn -0.352343 -0.828971 0.434352
vn -0.0487346 -0.994987 -0.0873291
vn 0.350985 -0.823969 0.444842
vn -0.52999 -0.132743 -0.83755
vn -0.0937289 -0.351503 -0.931483
vn 0.520455 -0.436912 0.733645
vn 0.52039 -0.437066 0.733599
vn -0.510907 0.856616 0.0719998
vn -0.510907 0.856616 0.0719998
vn -0.951601 -0.193782 -0.238546
vn 0.52052 -0.436757 0.73369
vn -0.951601 -0.193782 -0.238546
vn -0.0937289 -0.351503 -0.931483
vn -0.510907 0.856616 0.0719998
vn -0.951601 -0.193782 -0.238546
vn 0.993858 0.0232879 -0.108181
vn 0.674503 0.378073 -0.634119
vn 0.874927 -0.0152605 -0.484014
vn 0.803687 -0.593447 0.0436712
vn 0.799864 -0.599922 -0.0176741
vn 0.892875 -0.185839 -0.410168
g grp1
usemtl mtl1
f 1//1 5//5 4//4 
f 10//10 11//11 115//115 
f 1//1 3//3 121//121 
f 1//1 4//4 3//3 
f 5//5 1//1 2//2 
f 6//6 4//4 5//5 
f 17//17 4//4 6//6 
f 2//2 20//20 116//116 
f 6//6 5//5 18//18 
f 125//125 116//116 20//20 
f 7//7 8//8 115//115 
f 9//9 118//118 117//117 
f 11//11 10//10 12//12 
f 3//3 122//122 121//121 
f 13//13 11//11 15//15 
f 15//15 11//11 12//12 
f 37//37 32//32 13//13 
f 7//7 115//115 11//11 
f 1//1 119//119 2//2 
f 4//4 17//17 3//3 
f 17//17 50//50 3//3 
f 13//13 7//7 11//11 
f 120//120 7//7 13//13 
f 33//33 2//2 119//119 
f 118//118 9//9 131//131 
f 13//13 32//32 120//120 
f 20//20 2//2 33//33 
f 33//33 40//40 20//20 
f 14//14 15//15 12//12 
f 3//3 123//123 122//122 
f 16//16 123//123 3//3 
f 16//16 3//3 50//50 
f 16//16 44//44 123//123 
f 36//36 15//15 14//14 
f 134//134 124//124 44//44 
f 44//44 16//16 50//50 
f 17//17 6//6 19//19 
f 125//125 19//19 6//6 
f 17//17 19//19 50//50 
f 125//125 20//20 21//21 
f 50//50 19//19 23//23 
f 21//21 20//20 22//22 
f 22//22 20//20 40//40 
f 19//19 125//125 23//23 
f 125//125 21//21 23//23 
f 50//50 23//23 49//49 
f 48//48 49//49 23//23 
f 57//57 135//135 21//21 
f 21//21 48//48 23//23 
f 57//57 21//21 22//22 
f 63//63 67//67 28//28 
f 29//29 63//63 28//28 
f 30//30 28//28 67//67 
f 67//67 70//70 30//30 
f 131//131 24//24 118//118 
f 27//27 32//32 25//25 
f 27//27 126//126 32//32 
f 25//25 32//32 26//26 
f 32//32 83//83 84//84 
f 84//84 26//26 32//32 
f 127//127 129//129 34//34 
f 27//27 29//29 28//28 
f 130//130 28//28 133//133 
f 29//29 27//27 25//25 
f 28//28 31//31 133//133 
f 29//29 25//25 26//26 
f 28//28 30//30 31//31 
f 37//37 13//13 15//15 
f 33//33 119//119 128//128 
f 83//83 32//32 37//37 
f 83//83 38//38 90//90 
f 34//34 132//132 127//127 
f 40//40 33//33 35//35 
f 133//133 35//35 33//33 
f 80//80 35//35 133//133 
f 31//31 80//80 133//133 
f 42//42 40//40 35//35 
f 36//36 37//37 15//15 
f 36//36 39//39 37//37 
f 36//36 45//45 39//39 
f 45//45 47//47 39//39 
f 37//37 38//38 83//83 
f 39//39 38//38 37//37 
f 42//42 22//22 40//40 
f 41//41 57//57 22//22 
f 42//42 41//41 22//22 
f 43//43 41//41 42//42 
f 93//93 41//41 43//43 
f 45//45 134//134 44//44 
f 45//45 46//46 47//47 
f 46//46 45//45 44//44 
f 47//47 46//46 97//97 
f 135//135 57//57 58//58 
f 49//49 48//48 52//52 
f 52//52 48//48 53//53 
f 58//58 53//53 135//135 
f 50//50 49//49 52//52 
f 44//44 50//50 46//46 
f 46//46 136//136 97//97 
f 51//51 59//59 54//54 
f 52//52 46//46 50//50 
f 53//53 51//51 54//54 
f 55//55 97//97 136//136 
f 52//52 53//53 137//137 
f 137//137 53//53 56//56 
f 53//53 54//54 56//56 
f 62//62 56//56 54//54 
f 55//55 138//138 98//98 
f 98//98 138//138 139//139 
f 58//58 57//57 41//41 
f 51//51 53//53 58//58 
f 59//59 51//51 58//58 
f 41//41 60//60 58//58 
f 60//60 59//59 58//58 
f 61//61 60//60 41//41 
f 61//61 62//62 60//60 
f 62//62 59//59 60//60 
f 62//62 54//54 59//59 
f 93//93 61//61 41//41 
f 93//93 103//103 61//61 
f 98//98 139//139 103//103 
f 103//103 139//139 61//61 
f 63//63 29//29 65//65 
f 65//65 64//64 63//63 
f 64//64 68//68 63//63 
f 63//63 68//68 67//67 
f 65//65 66//66 64//64 
f 66//66 69//69 64//64 
f 64//64 69//69 68//68 
f 65//65 79//79 66//66 
f 66//66 106//106 69//69 
f 70//70 67//67 140//140 
f 68//68 69//69 141//141 
f 71//71 141//141 69//69 
f 142//142 71//71 81//81 
f 106//106 71//71 69//69 
f 73//73 29//29 26//26 
f 72//72 143//143 26//26 
f 84//84 72//72 26//26 
f 85//85 72//72 84//84 
f 65//65 29//29 73//73 
f 79//79 65//65 143//143 
f 79//79 143//143 72//72 
f 75//75 74//74 78//78 
f 144//144 77//77 152//152 
f 146//146 76//76 145//145 
f 147//147 153//153 148//148 
f 76//76 150//150 145//145 
f 149//149 154//154 151//151 
f 79//79 106//106 66//66 
f 105//105 79//79 72//72 
f 81//81 30//30 70//70 
f 81//81 31//31 30//30 
f 81//81 80//80 31//31 
f 81//81 82//82 80//80 
f 88//88 80//80 82//82 
f 81//81 71//71 109//109 
f 109//109 82//82 81//81 
f 84//84 83//83 85//85 
f 90//90 85//85 83//83 
f 85//85 90//90 87//87 
f 86//86 42//42 35//35 
f 35//35 88//88 86//86 
f 89//89 96//96 86//86 
f 89//89 113//113 96//96 
f 88//88 89//89 86//86 
f 94//94 87//87 90//90 
f 96//96 87//87 94//94 
f 96//96 113//113 87//87 
f 113//113 85//85 87//87 
f 88//88 35//35 80//80 
f 39//39 101//101 38//38 
f 90//90 38//38 92//92 
f 90//90 92//92 91//91 
f 95//95 155//155 93//93 
f 101//101 92//92 38//38 
f 103//103 93//93 91//91 
f 91//91 94//94 90//90 
f 92//92 101//101 102//102 
f 92//92 102//102 91//91 
f 102//102 103//103 91//91 
f 86//86 43//43 42//42 
f 43//43 96//96 95//95 
f 95//95 93//93 43//43 
f 96//96 43//43 86//86 
f 94//94 95//95 96//96 
f 95//95 94//94 155//155 
f 39//39 47//47 99//99 
f 99//99 47//47 97//97 
f 99//99 97//97 100//100 
f 100//100 97//97 55//55 
f 104//104 100//100 55//55 
f 55//55 98//98 104//104 
f 39//39 99//99 101//101 
f 101//101 99//99 104//104 
f 99//99 100//100 104//104 
f 102//102 101//101 104//104 
f 102//102 104//104 103//103 
f 103//103 104//104 98//98 
f 105//105 106//106 79//79 
f 85//85 105//105 72//72 
f 111//111 106//106 108//108 
f 85//85 107//107 105//105 
f 157//157 156//156 113//113 
f 105//105 108//108 106//106 
f 107//107 108//108 105//105 
f 110//110 109//109 71//71 
f 112//112 109//109 158//158 
f 109//109 112//112 82//82 
f 106//106 110//110 71//71 
f 106//106 111//111 110//110 
f 159//159 112//112 158//158 
f 113//113 112//112 157//157 
f 112//112 113//113 114//114 
f 82//82 112//112 114//114 
f 160//160 157//157 112//112 
f 114//114 113//113 89//89 
f 85//85 113//113 156//156 
f 114//114 88//88 82//82 
f 114//114 89//89 88//88 
