#
# The license for this database is specified in the Creative Commons Attribution-Share Alike 2.1 Japan. If you use data from this database, please be sure attribute this database as follows: "BodyParts3D, (c)  The Database Center for Life Science licensed under CC Attribution-Share Alike 2.1 Japan".
# http://dbarchive.biosciencedbc.jp/en/bodyparts3d/lic.html
#
#
# Compatibility version : 4.0
# File ID : FJ3191
# Representation ID : BP10218
# Build-up logic : FMA 3.0 part_of
# Concept ID : FMA32656
# English name : Distal phalanx of right fourth toe
# Bounds(mm): (-164.127000,-206.535000,-70.392300)-(-155.335000,-195.368000,-63.396000)
# Volume(cm3): 0.204300
#
v -162.794 -195.828 -67.394
v -162.734 -196.157 -66.4445
v -162.843 -196.521 -67.6684
v -162.43 -195.898 -68.0301
v -162.451 -195.599 -67.6255
v -162.396 -195.503 -66.9025
v -161.756 -195.368 -67.2419
v -164.127 -203.384 -68.8074
v -163.714 -201.164 -68.4783
v -163.51 -201.595 -67.6344
v -163.844 -202.691 -69.5391
v -162.059 -199.971 -69.4571
v -161.565 -199.039 -69.4161
v -162.179 -199.123 -68.9894
v -163.026 -200.665 -69.3663
v -161.514 -196.795 -69.13
v -161.512 -197.589 -69.3281
v -161.701 -198.566 -69.2229
v -160.195 -197.523 -69.7078
v -162.296 -197.896 -68.0702
v -162.364 -198.02 -67.1023
v -162.493 -198.691 -67.9652
v -162.44 -198.897 -67.2488
v -161.367 -200.08 -65.6416
v -161.531 -195.871 -68.4136
v -160.906 -195.56 -66.4827
v -159.598 -195.598 -67.7377
v -159.259 -195.81 -67.4647
v -159.38 -196.814 -66.1982
v -161.056 -196.17 -64.7118
v -160.935 -196.782 -64.1947
v -160.286 -196.918 -63.8413
v -160.808 -197.741 -64.3271
v -160.367 -197.272 -63.8077
v -159.848 -196.751 -64.1427
v -163.986 -204.369 -69.4341
v -163.553 -204.077 -69.9788
v -163.585 -205.42 -69.1138
v -163.256 -205.023 -69.6411
v -162.515 -203.683 -70.3792
v -163.081 -205.811 -69.1998
v -163.838 -204.918 -68.395
v -163.57 -205.52 -68.5488
v -163.224 -205.242 -67.7563
v -163.284 -205.72 -68.2746
v -163.13 -205.983 -68.6594
v -162.288 -205.046 -67.2621
v -162.906 -202.91 -70.2826
v -161.291 -202.569 -70.3923
v -163.235 -203.684 -67.3206
v -160.477 -200.33 -69.832
v -160.554 -201.097 -69.9194
v -160.608 -198.367 -69.9617
v -160.637 -199.152 -69.8618
v -159.339 -199.578 -70.2672
v -159.122 -199.17 -70.3131
v -158.207 -198.168 -69.6922
v -159.728 -201.483 -65.4884
v -158.157 -196.053 -68.381
v -157.319 -196.986 -68.6142
v -157.003 -196.526 -68.2187
v -158.627 -196.575 -67.1721
v -158.695 -197.759 -66.4875
v -158.059 -198.141 -66.5902
v -157.414 -196.428 -67.8707
v -159.275 -197.787 -63.4527
v -159.009 -197.453 -65.7671
v -158.866 -197.461 -64.1447
v -158.861 -197.641 -63.6382
v -158.42 -198.283 -65.9215
v -159.22 -198.607 -63.5506
v -158.621 -198.975 -63.4792
v -158.501 -198.702 -63.396
v -158.061 -198.616 -63.4884
v -158.573 -199.719 -63.8937
v -158.122 -199.272 -63.561
v -162.254 -206.099 -69.2705
v -161.361 -206.429 -69.0125
v -160.97 -205.529 -69.563
v -162.123 -206.495 -68.7656
v -162.013 -206.351 -68.0981
v -161.35 -206.535 -68.4146
v -160.637 -206.314 -68.619
v -160.329 -203.335 -70.3084
v -160.524 -204.184 -70.1938
v -159.782 -203.891 -69.9242
v -160.279 -205.605 -69.3259
v -159.687 -205.354 -68.6311
v -160.414 -205.666 -67.5901
v -159.992 -201.899 -69.9752
v -159.397 -201.089 -69.8274
v -159.252 -202.47 -69.6633
v -159.002 -203.141 -69.3152
v -158.777 -202.542 -69.2243
v -158.606 -202.685 -68.8847
v -158.281 -201.902 -69.0122
v -158.812 -203.647 -68.3047
v -158.457 -202.919 -67.7942
v -157.941 -202.156 -68.4272
v -158.021 -202.434 -67.6419
v -160.154 -203.42 -66.6645
v -159.042 -202.509 -66.4051
v -159.548 -203.491 -66.9969
v -158.565 -202.91 -67.3938
v -158.905 -203.506 -67.609
v -157.958 -202.336 -66.9407
v -158.274 -199.871 -70.1545
v -156.676 -200.048 -69.3056
v -157.125 -201.38 -68.8068
v -156.035 -197.934 -67.6488
v -155.895 -198.191 -68.0333
v -156.923 -199.13 -64.3378
v -156.356 -199.739 -64.5058
v -156.509 -200.394 -64.6123
v -155.532 -199.803 -65.6767
v -157.671 -200.143 -64.0976
v -157.212 -199.471 -63.8317
v -156.261 -200.948 -68.8426
v -156.129 -201.396 -67.4668
v -155.371 -201.016 -67.2949
v -156.324 -201.299 -65.6232
v -155.577 -200.239 -68.0262
v -155.335 -199.782 -66.6872
v -155.363 -200.828 -65.6659
v -162.794 -195.828 -67.394
v -162.734 -196.157 -66.4445
v -158.157 -196.053 -68.381
v -157.003 -196.526 -68.2187
v -157.003 -196.526 -68.2187
v -157.003 -196.526 -68.2187
v -157.414 -196.428 -67.8707
v -158.861 -197.641 -63.6382
v -158.061 -198.616 -63.4884
v -161.35 -206.535 -68.4146
v -160.637 -206.314 -68.619
v -159.687 -205.354 -68.6311
v -158.812 -203.647 -68.3047
v -156.035 -197.934 -67.6488
v -155.532 -199.803 -65.6767
v -157.212 -199.471 -63.8317
v -156.261 -200.948 -68.8426
v -155.371 -201.016 -67.2949
v -156.324 -201.299 -65.6232
v -155.363 -200.828 -65.6659
vn -0.996293 0.0394317 0.0764586
vn -0.922146 -0.188051 0.338059
vn -0.933549 -0.030791 -0.357126
vn -0.607347 0.481081 -0.632211
vn -0.397559 0.85149 -0.341923
vn -0.408692 0.885639 0.220486
vn -0.0516662 0.992892 -0.107217
vn -0.987377 0.0293607 0.155641
vn -0.942477 0.333551 -0.0219155
vn -0.844419 0.125784 0.520706
vn -0.818036 0.188916 -0.543257
vn -0.268057 0.290285 -0.918629
vn -0.476968 0.106832 -0.872404
vn -0.674742 0.341148 -0.654478
vn -0.632344 0.4184 -0.651984
vn -0.358905 0.412293 -0.837378
vn -0.698526 0.0728617 -0.711866
vn -0.672333 0.169021 -0.720694
vn 0.0191584 0.462464 -0.886431
vn -0.922518 0.0694163 -0.379661
vn -0.975613 -0.109028 0.190503
vn -0.930907 0.327998 -0.160719
vn -0.905879 0.153199 0.394858
vn -0.602338 -0.201927 0.772279
vn -0.10084 0.802019 -0.588725
vn 0.324182 0.889306 0.322553
vn 0.217343 0.976012 -0.0127723
vn 0.387697 0.7758 0.49782
vn 0.749138 0.601764 0.276898
vn -0.212522 0.785497 0.58123
vn -0.610768 0.173299 0.772612
vn -0.0836045 0.526624 0.845977
vn -0.743913 -0.208927 0.634778
vn -0.467588 -0.0660771 0.881473
vn 0.367797 0.82458 0.429877
vn -0.8747 -0.239422 -0.421399
vn -0.531848 -0.151379 -0.8332
vn -0.762441 -0.553234 -0.335584
vn -0.292935 -0.452807 -0.842113
vn -0.0971781 -0.176777 -0.979442
vn -0.448946 -0.702644 -0.552032
vn -0.899562 -0.309857 0.307857
vn -0.804645 -0.578195 0.135044
vn -0.5468 -0.434548 0.715666
vn -0.631965 -0.63109 0.449829
vn -0.588404 -0.808213 0.0239151
vn -0.150841 -0.428612 0.890808
vn -0.34994 0.186976 -0.917923
vn 0.0345273 0.175043 -0.983955
vn -0.633703 -0.140937 0.76063
vn -0.21528 -0.00600838 -0.976534
vn 0.02234 0.180894 -0.983249
vn -0.362065 0.114576 -0.925084
vn -0.382279 -0.088773 -0.919773
vn -0.163928 -0.145582 -0.975671
vn 0.0602613 0.1736 -0.982971
vn 0.378919 0.358665 -0.8531
vn -0.0417033 -0.537838 0.842016
vn 0.15874 0.618421 -0.769647
vn 0.444831 0.392793 -0.804885
vn 0.354946 0.921015 0.160454
vn 0.462168 0.521066 0.717559
vn 0.696188 0.559976 0.449165
vn 0.402614 0.658438 0.635894
vn 0.357556 0.914308 0.190247
vn -0.0403402 0.178128 0.98318
vn 0.838158 0.544914 0.0236556
vn 0.694554 0.716754 0.0621137
vn 0.227641 0.533522 0.814576
vn 0.636059 0.761238 0.126275
vn -0.396842 -0.297441 0.868358
vn -0.197657 -0.365388 0.909628
vn -0.0157351 -0.110866 0.993711
vn 0.651669 0.500162 0.570233
vn -0.266684 -0.513529 0.815578
vn 0.0706255 -0.349499 0.934271
vn -0.144014 -0.621053 -0.770424
vn 0.145359 -0.818489 -0.55583
vn 0.0777237 -0.477842 -0.875001
vn -0.26024 -0.944134 -0.202203
vn -0.251193 -0.779497 0.573835
vn 0.0408844 -0.99834 -0.0405548
vn 0.456778 -0.814165 -0.358454
vn 0.294675 -0.0330847 -0.955025
vn 0.181599 -0.364208 -0.913441
vn 0.622891 -0.272728 -0.73323
vn 0.479517 -0.57133 -0.666067
vn 0.775953 -0.464139 -0.427168
vn 0.403024 -0.613426 0.679176
vn 0.260705 0.106619 -0.959513
vn 0.202697 -0.175287 -0.963425
vn 0.562378 -0.0824851 -0.822756
vn 0.818164 -0.29652 -0.492629
vn 0.725656 -0.256914 -0.638293
vn 0.781229 -0.48737 -0.390066
vn 0.593433 -0.380262 -0.709393
vn 0.831168 -0.512994 0.214471
vn 0.813971 -0.580734 -0.0140803
vn 0.584211 -0.702565 -0.406324
vn 0.642752 -0.757668 -0.113173
vn 0.248372 -0.470389 0.846785
vn 0.365426 -0.706914 0.605587
vn 0.429989 -0.520733 0.737527
vn 0.624085 -0.686878 0.372447
vn 0.734219 -0.541195 0.409915
vn 0.508205 -0.835991 0.206993
vn 0.28763 -0.191702 -0.93836
vn 0.618082 0.0813633 -0.781892
vn 0.387787 -0.652341 -0.651208
vn 0.413371 0.579047 0.70273
vn 0.805474 0.3233 -0.496677
vn 0.666371 0.654819 0.356598
vn 0.709285 0.121506 0.694371
vn 0.393788 -0.500649 0.770897
vn 0.387327 0.846097 0.366193
vn 0.0746682 -0.614997 0.784986
vn 0.648437 0.406646 0.643559
vn 0.603586 -0.269937 -0.750212
vn 0.480426 -0.864549 -0.147465
vn 0.968637 -0.0687414 -0.238781
vn 0.158595 -0.705196 0.691047
vn 0.889623 0.0225642 -0.456138
vn 0.979669 0.200583 0.00388959
vn 0.44121 -0.89173 0.10075
vn -0.774995 0.596789 -0.207908
vn -0.673743 0.559109 0.483185
vn 0.35715 0.92075 0.157049
vn 0.441971 0.390426 -0.807607
vn 0.58923 0.616482 0.522262
vn 0.834078 0.54808 -0.0626266
vn 0.452267 0.563763 0.691105
vn 0.620847 0.705965 0.340826
vn 0.235964 0.0771884 0.968691
vn 0.247342 -0.793762 0.555666
vn 0.541127 -0.759633 0.360748
vn 0.773012 -0.564882 0.288722
vn 0.894244 -0.309793 -0.323042
vn 0.886229 0.45862 0.0653127
vn 0.872518 0.3261 0.363829
vn 0.312549 -0.344911 0.88507
vn 0.447984 -0.836555 -0.315414
vn 0.4598 -0.887097 -0.0405253
vn 0.415864 -0.896066 0.155317
vn 0.85458 -0.149638 0.497295
g grp1
usemtl mtl1
f 5//5 25//25 4//4 
f 16//16 4//4 25//25 
f 3//3 2//2 1//1 
f 4//4 16//16 3//3 
f 3//3 125//125 4//4 
f 4//4 125//125 5//5 
f 17//17 3//3 16//16 
f 2//2 3//3 21//21 
f 2//2 21//21 33//33 
f 20//20 3//3 17//17 
f 125//125 6//6 5//5 
f 126//126 6//6 125//125 
f 5//5 6//6 7//7 
f 25//25 5//5 7//7 
f 126//126 30//30 6//6 
f 27//27 25//25 7//7 
f 26//26 7//7 6//6 
f 6//6 30//30 26//26 
f 11//11 36//36 8//8 
f 8//8 42//42 50//50 
f 49//49 48//48 12//12 
f 8//8 10//10 9//9 
f 15//15 11//11 9//9 
f 9//9 11//11 8//8 
f 15//15 12//12 48//48 
f 11//11 15//15 48//48 
f 8//8 50//50 10//10 
f 12//12 15//15 14//14 
f 14//14 20//20 18//18 
f 12//12 14//14 13//13 
f 13//13 14//14 18//18 
f 15//15 9//9 22//22 
f 14//14 15//15 22//22 
f 9//9 23//23 22//22 
f 9//9 10//10 23//23 
f 24//24 10//10 50//50 
f 23//23 10//10 24//24 
f 25//25 59//59 16//16 
f 18//18 20//20 17//17 
f 18//18 17//17 53//53 
f 53//53 17//17 16//16 
f 13//13 18//18 53//53 
f 16//16 19//19 53//53 
f 19//19 16//16 59//59 
f 21//21 3//3 20//20 
f 20//20 22//22 21//21 
f 20//20 14//14 22//22 
f 22//22 23//23 21//21 
f 23//23 33//33 21//21 
f 23//23 24//24 33//33 
f 59//59 25//25 27//27 
f 27//27 7//7 26//26 
f 27//27 26//26 28//28 
f 28//28 26//26 62//62 
f 62//62 26//26 29//29 
f 65//65 27//27 28//28 
f 28//28 62//62 131//131 
f 33//33 31//31 2//2 
f 126//126 31//31 30//30 
f 26//26 30//30 35//35 
f 33//33 34//34 31//31 
f 30//30 32//32 35//35 
f 30//30 31//31 32//32 
f 31//31 34//34 32//32 
f 35//35 32//32 69//69 
f 24//24 71//71 33//33 
f 33//33 71//71 34//34 
f 29//29 26//26 68//68 
f 34//34 66//66 32//32 
f 35//35 132//132 68//68 
f 26//26 35//35 68//68 
f 69//69 32//32 66//66 
f 71//71 66//66 34//34 
f 11//11 37//37 36//36 
f 36//36 42//42 8//8 
f 36//36 38//38 42//42 
f 36//36 39//39 38//38 
f 36//36 37//37 39//39 
f 11//11 48//48 37//37 
f 37//37 40//40 39//39 
f 37//37 48//48 40//40 
f 43//43 42//42 38//38 
f 39//39 41//41 38//38 
f 38//38 46//46 43//43 
f 41//41 46//46 38//38 
f 85//85 39//39 40//40 
f 41//41 39//39 77//77 
f 77//77 80//80 41//41 
f 41//41 80//80 46//46 
f 39//39 85//85 79//79 
f 77//77 39//39 79//79 
f 44//44 50//50 42//42 
f 43//43 46//46 45//45 
f 45//45 42//42 43//43 
f 44//44 42//42 45//45 
f 50//50 44//44 47//47 
f 80//80 81//81 46//46 
f 46//46 81//81 45//45 
f 44//44 45//45 81//81 
f 47//47 44//44 81//81 
f 40//40 48//48 49//49 
f 58//58 50//50 47//47 
f 51//51 12//12 13//13 
f 51//51 13//13 54//54 
f 52//52 12//12 51//51 
f 49//49 12//12 52//52 
f 91//91 52//52 51//51 
f 90//90 52//52 91//91 
f 91//91 92//92 90//90 
f 58//58 24//24 50//50 
f 53//53 55//55 54//54 
f 13//13 53//53 54//54 
f 57//57 19//19 59//59 
f 53//53 56//56 55//55 
f 56//56 53//53 19//19 
f 56//56 19//19 57//57 
f 51//51 54//54 55//55 
f 51//51 55//55 91//91 
f 91//91 55//55 107//107 
f 107//107 55//55 56//56 
f 107//107 56//56 57//57 
f 58//58 75//75 24//24 
f 116//116 75//75 58//58 
f 127//127 27//27 65//65 
f 61//61 127//127 65//65 
f 59//59 60//60 57//57 
f 128//128 60//60 59//59 
f 57//57 60//60 111//111 
f 111//111 60//60 128//128 
f 63//63 62//62 29//29 
f 67//67 29//29 68//68 
f 67//67 63//63 29//29 
f 64//64 63//63 70//70 
f 63//63 67//67 70//70 
f 63//63 64//64 62//62 
f 62//62 110//110 131//131 
f 62//62 64//64 110//110 
f 110//110 129//129 131//131 
f 75//75 71//71 24//24 
f 112//112 68//68 132//132 
f 67//67 68//68 70//70 
f 132//132 74//74 112//112 
f 68//68 112//112 70//70 
f 70//70 112//112 115//115 
f 74//74 117//117 112//112 
f 71//71 73//73 66//66 
f 72//72 71//71 75//75 
f 72//72 73//73 71//71 
f 76//76 72//72 75//75 
f 133//133 66//66 73//73 
f 133//133 69//69 66//66 
f 76//76 73//73 72//72 
f 116//116 76//76 75//75 
f 76//76 133//133 73//73 
f 140//140 76//76 116//116 
f 140//140 133//133 76//76 
f 77//77 79//79 78//78 
f 78//78 80//80 77//77 
f 78//78 82//82 80//80 
f 82//82 78//78 83//83 
f 79//79 87//87 78//78 
f 78//78 87//87 83//83 
f 83//83 87//87 88//88 
f 89//89 47//47 81//81 
f 82//82 81//81 80//80 
f 81//81 134//134 89//89 
f 89//89 134//134 135//135 
f 136//136 89//89 135//135 
f 49//49 52//52 90//90 
f 84//84 85//85 40//40 
f 84//84 40//40 49//49 
f 84//84 49//49 90//90 
f 87//87 79//79 85//85 
f 85//85 84//84 86//86 
f 87//87 85//85 86//86 
f 87//87 86//86 88//88 
f 86//86 93//93 88//88 
f 86//86 84//84 92//92 
f 92//92 93//93 86//86 
f 89//89 101//101 47//47 
f 89//89 103//103 101//101 
f 136//136 105//105 89//89 
f 89//89 105//105 103//103 
f 136//136 97//97 105//105 
f 84//84 90//90 92//92 
f 96//96 94//94 92//92 
f 91//91 96//96 92//92 
f 94//94 93//93 92//92 
f 93//93 94//94 95//95 
f 98//98 104//104 105//105 
f 99//99 95//95 96//96 
f 95//95 94//94 96//96 
f 98//98 106//106 104//104 
f 96//96 91//91 109//109 
f 88//88 93//93 137//137 
f 137//137 93//93 98//98 
f 97//97 98//98 105//105 
f 93//93 95//95 98//98 
f 95//95 99//99 100//100 
f 95//95 100//100 98//98 
f 106//106 98//98 100//100 
f 96//96 109//109 99//99 
f 99//99 119//119 100//100 
f 106//106 100//100 119//119 
f 119//119 99//99 109//109 
f 101//101 58//58 47//47 
f 103//103 58//58 101//101 
f 103//103 102//102 58//58 
f 104//104 102//102 105//105 
f 103//103 105//105 102//102 
f 102//102 104//104 106//106 
f 57//57 108//108 107//107 
f 108//108 118//118 107//107 
f 91//91 107//107 109//109 
f 58//58 102//102 121//121 
f 143//143 102//102 106//106 
f 58//58 121//121 116//116 
f 143//143 106//106 119//119 
f 64//64 70//70 115//115 
f 130//130 138//138 111//111 
f 111//111 108//108 57//57 
f 110//110 64//64 115//115 
f 123//123 111//111 138//138 
f 108//108 111//111 122//122 
f 111//111 123//123 122//122 
f 114//114 140//140 116//116 
f 113//113 139//139 112//112 
f 117//117 113//113 112//112 
f 114//114 113//113 140//140 
f 123//123 138//138 139//139 
f 118//118 109//109 107//107 
f 109//109 141//141 119//119 
f 122//122 118//118 108//108 
f 122//122 120//120 118//118 
f 119//119 141//141 142//142 
f 143//143 142//142 124//124 
f 114//114 121//121 144//144 
f 116//116 121//121 114//114 
f 143//143 119//119 142//142 
f 120//120 122//122 123//123 
f 114//114 144//144 113//113 
f 139//139 144//144 123//123 
f 120//120 123//123 144//144 
f 144//144 139//139 113//113 
