# Blender v2.77 (sub 0) OBJ File: 'BLANKOblend.blend'
# www.blender.org
mtllib intervertebral disk of third cervical vertebra.mtl
o grp1
v -11.205900 -75.095139 1431.020020
v -11.524719 -78.962639 1432.805664
v -10.660370 -74.121666 1430.634766
v -11.542700 -77.355537 1432.310059
v -11.138672 -75.144768 1431.041016
v -11.625000 -76.523750 1429.251953
v -10.579590 -74.119377 1429.043945
v -11.047852 -82.640862 1432.917969
v -11.369629 -80.273674 1432.866211
v -11.978165 -80.364128 1431.054443
v -11.534668 -79.608879 1432.755859
v -9.685547 -78.736565 1431.767578
v -11.480484 -82.625237 1429.458740
v -11.787109 -80.129143 1429.188721
v -11.700600 -81.247337 1429.530029
v -11.542700 -77.355537 1432.310059
v -11.332600 -77.311935 1432.319946
v -11.555176 -77.648949 1429.177979
v -11.509857 -78.000237 1429.192627
v -11.713196 -81.002190 1429.414062
v -11.727394 -78.037392 1429.331177
v -11.723145 -77.435356 1429.290283
v -10.587402 -76.567131 1429.895752
v -10.501465 -79.907829 1429.341064
v -11.297363 -76.463554 1429.396240
v -9.742798 -73.524467 1430.199219
v -11.541000 -76.932838 1429.119995
v -11.541000 -76.932838 1429.119995
v -11.525600 -76.528938 1429.300049
v -11.257400 -76.459038 1429.359985
v -11.604400 -77.636833 1429.089966
v -11.693800 -77.443237 1429.300049
v -11.427500 -77.313339 1429.250000
v -11.693800 -77.443237 1429.300049
v -11.541000 -76.932838 1429.119995
v -11.427500 -77.313339 1429.250000
v -11.427500 -77.313339 1429.250000
v -11.541000 -76.932838 1429.119995
v -11.604400 -77.636833 1429.089966
v -11.604400 -77.636833 1429.089966
v -11.305600 -75.472038 1429.449951
v -11.419100 -76.302338 1429.229980
v -11.388672 -76.058342 1429.224609
v -11.305600 -75.472038 1429.449951
v -11.419100 -76.302338 1429.229980
v -11.257400 -76.459038 1429.359985
v -11.525600 -76.528938 1429.300049
v -11.263672 -76.289787 1429.124023
v -10.513672 -74.067619 1428.816406
v -10.349121 -74.020744 1428.920898
v -8.273900 -73.160332 1427.609985
v -9.881280 -73.435135 1430.300049
v -9.881280 -73.435135 1430.300049
v -10.567100 -74.037437 1430.670044
v -9.492188 -73.409416 1430.312500
v -8.894043 -73.066154 1430.768555
v -8.988281 -73.144768 1430.435547
v -10.571200 -74.180336 1429.099976
v -9.521416 -73.424774 1428.444092
v -9.524414 -73.362541 1428.432617
v -6.094360 -72.601311 1428.975098
v -10.734863 -83.709099 1432.552246
v -10.650700 -83.662140 1432.520020
v -10.255005 -84.302010 1432.698242
v -10.876500 -82.797035 1432.819946
v -11.157100 -81.510239 1433.069946
v -10.876500 -82.797035 1432.819946
v -10.476196 -83.701653 1432.459229
v -11.110840 -83.358635 1429.286621
v -10.145905 -85.311340 1430.238037
v -10.284180 -83.234123 1429.567383
v -11.397500 -82.596336 1429.469971
v -11.700600 -81.247337 1429.530029
v -10.732910 -83.436943 1429.292969
v -11.191300 -82.524635 1429.369995
v -11.043400 -83.355034 1429.290039
v -8.493490 -77.764236 1428.380005
v -3.725586 -75.323967 1430.166748
v -7.313720 -73.566536 1430.430054
v -5.195312 -73.624260 1431.401367
v -8.403320 -73.207268 1430.603516
v -7.313720 -73.566536 1430.430054
v -6.983090 -73.180138 1431.050049
v -8.027466 -73.179070 1430.696777
v -6.980469 -73.183830 1431.056641
v -8.280273 -73.095932 1427.578125
v -10.240500 -84.321434 1432.609985
v -10.240500 -84.321434 1432.609985
v -7.984863 -86.958244 1431.930176
v -8.997230 -86.102638 1432.310059
v -8.093750 -86.793205 1431.992188
v -10.969727 -83.455833 1429.411133
v -10.138400 -84.318237 1428.520020
v -11.191300 -82.524635 1429.369995
v -2.123047 -73.984917 1432.121094
v -2.609375 -74.822746 1430.614990
v -5.068750 -73.645935 1431.420044
v -5.339355 -79.147202 1427.339844
v -0.868896 -73.754021 1428.730469
v -6.583984 -73.249741 1427.367188
v -8.273900 -73.160332 1427.609985
v -4.734619 -74.188095 1427.559814
v -4.962610 -73.583130 1427.300049
v -3.843750 -73.876694 1427.287109
v -6.459961 -87.777153 1429.382568
v -4.855469 -82.445061 1431.772949
v -3.458008 -87.498009 1431.164185
v -8.916016 -85.038315 1428.114746
v -10.138400 -84.318237 1428.520020
v -8.679750 -84.940926 1427.859985
v -8.200195 -85.279282 1427.355957
v -9.040920 -85.136826 1428.060059
v -10.138400 -84.318237 1428.520020
v -7.557129 -84.954330 1427.881592
v -0.450195 -73.843010 1431.920410
v -3.873901 -73.933090 1427.530762
v -3.974360 -73.905632 1427.339966
v -3.522160 -74.381027 1427.290039
v -4.962610 -73.583130 1427.300049
v -7.253296 -87.372063 1431.675781
v -8.110800 -85.308525 1427.500000
v -0.411621 -76.757805 1430.762207
v -2.055664 -74.090080 1432.228516
v -1.469460 -73.962036 1432.140015
v -1.399414 -73.748283 1431.851562
v -1.996521 -74.022209 1432.173828
v -1.469460 -73.962036 1432.140015
v -0.721680 -75.814926 1427.882324
v -2.287354 -74.625626 1426.985229
v -5.852539 -88.006096 1431.548584
v -6.975586 -87.391838 1431.714844
v -6.000490 -87.882835 1431.560059
v -4.078125 -87.488518 1431.271484
v -4.904297 -87.046127 1426.734375
v 0.710938 -74.688713 1431.052246
v 1.045410 -74.075432 1432.069336
v -0.556152 -73.887749 1432.079346
v 1.117493 -74.008392 1432.311035
v -1.943359 -81.005539 1427.650635
v -0.657959 -75.811630 1427.994873
v -1.573350 -74.572327 1427.010010
v -2.360060 -74.611130 1426.969971
v -3.974360 -73.905632 1427.339966
v -1.573350 -74.572327 1427.010010
v -4.746210 -88.067535 1431.540039
v -4.786133 -87.944084 1431.788574
v -1.080826 -88.723015 1429.569702
v -2.425049 -88.353500 1427.111328
v -4.160450 -87.834427 1427.199951
v -4.420410 -87.769760 1426.994385
v -2.252441 -88.072495 1427.244141
v -5.721140 -86.662529 1427.060059
v -4.089380 -87.606728 1427.099976
v -4.089380 -87.606728 1427.099976
v -4.165710 -87.821640 1427.215332
v -5.072980 -87.178528 1426.890015
v 1.500153 -87.000473 1427.861694
v 1.191760 -73.969536 1432.089966
v 1.509766 -73.814629 1431.865967
v 5.771510 -73.235336 1431.040039
v 1.165039 -73.863029 1431.988525
v 1.263397 -73.976219 1432.179199
v 5.771510 -73.235336 1431.040039
v 3.099548 -74.055405 1427.380249
v 2.187500 -74.108871 1427.145752
v 5.148865 -72.565651 1428.987549
v 0.847656 -87.538139 1431.132935
v -3.186700 -88.047729 1427.000000
v -4.160450 -87.834427 1427.199951
v -4.089380 -87.606728 1427.099976
v -3.186700 -88.047729 1427.000000
v -3.186700 -88.047729 1427.000000
v 2.605469 -75.100578 1430.102539
v 5.783203 -73.231194 1431.027832
v 2.737305 -79.984604 1427.399170
v 2.142578 -74.053940 1427.171875
v 4.440918 -73.618881 1427.416016
v 4.125122 -73.451401 1427.405273
v -4.746210 -88.067535 1431.540039
v -0.462577 -87.964439 1431.619995
v -2.599610 -87.909538 1431.750000
v 1.651500 -87.789833 1431.670044
v 1.727539 -87.377678 1431.227295
v -2.277588 -87.980209 1427.057373
v -2.327637 -87.849838 1426.799316
v -1.830566 -88.273849 1427.073975
v -0.752441 -88.528549 1427.222168
v 4.044922 -83.002678 1431.814209
v -2.289680 -88.121330 1427.150024
v -2.401800 -88.309929 1427.140015
v -2.380670 -88.203629 1426.920044
v -2.289680 -88.121330 1427.150024
v -1.931300 -88.266930 1427.040039
v -2.401800 -88.309929 1427.140015
v 8.171875 -73.217796 1430.099121
v 6.602295 -73.603989 1427.935303
v 7.187500 -72.822739 1427.517944
v 6.630070 -73.612328 1427.859985
v -1.757812 -88.079338 1431.699219
v 3.305130 -88.052139 1431.599976
v 3.305130 -88.052139 1431.599976
v 1.651500 -87.789833 1431.670044
v 1.324219 -88.244858 1427.025391
v -0.765889 -88.513725 1427.229980
v -1.931300 -88.266930 1427.040039
v 1.174460 -88.224632 1426.900024
v 8.263672 -78.654533 1431.664062
v 6.322266 -84.998764 1427.842773
v 6.994629 -72.998795 1430.466187
v 7.097656 -73.041252 1430.400391
v 8.163000 -73.209335 1430.109985
v 8.115234 -73.301018 1428.347656
v 6.650513 -72.894394 1427.490356
v 4.247681 -88.152397 1429.260254
v 3.305130 -88.052139 1431.599976
v 2.454300 -87.921730 1427.040039
v 1.376221 -88.174210 1427.065674
v 2.454300 -87.921730 1427.040039
v 9.218262 -73.795891 1430.701294
v 9.171875 -73.843987 1430.476562
v 9.098060 -74.001038 1428.979980
v 8.904297 -74.055412 1428.966797
v 8.836140 -74.044533 1428.859985
v 8.836140 -74.044533 1428.859985
v 7.112560 -73.179031 1427.619995
v 8.107350 -73.380234 1428.380005
v 6.377441 -87.208733 1431.677246
v 6.060181 -87.403557 1431.552246
v 8.394989 -85.133598 1432.606812
v 3.866440 -87.181030 1426.959961
v 3.866440 -87.181030 1426.959961
v 3.866440 -87.181030 1426.959961
v 10.168060 -78.011101 1432.640747
v 10.088700 -75.738838 1431.439941
v 9.440420 -74.208138 1430.680054
v 8.399150 -79.884140 1429.030029
v 9.414497 -76.433220 1429.856445
v 9.414795 -76.617668 1429.784302
v 10.114258 -75.683830 1431.425781
v 10.706432 -77.859749 1430.779663
v 9.397070 -75.243835 1429.459961
v 10.047729 -75.992424 1429.256836
v 9.635360 -74.707939 1429.270020
v 10.052400 -75.952240 1429.280029
v 9.475160 -74.828835 1429.189941
v 9.985840 -74.679924 1429.274902
v 9.098060 -74.001038 1428.979980
v 6.349136 -86.900139 1432.038086
v 6.352051 -87.125237 1431.724609
v 6.070410 -87.346336 1431.640015
v 6.357422 -87.097893 1431.750000
v 6.488120 -87.017937 1432.000000
v 7.935638 -86.223244 1430.893433
v 8.299805 -85.569084 1432.633789
v 6.488120 -87.017937 1432.000000
v 7.763030 -85.956139 1432.469971
v 8.247559 -85.012932 1432.477539
v 9.725586 -81.706535 1432.830566
v 9.486290 -82.539833 1432.780029
v 9.693310 -82.252037 1432.969971
v 9.966797 -80.726799 1432.769531
v 9.862680 -81.372337 1433.040039
v 9.851013 -81.332024 1433.131958
v 10.327800 -79.500137 1432.589966
v 9.693310 -82.252037 1432.969971
v 9.952870 -81.589233 1432.869995
v 9.685940 -81.699440 1432.890015
v 9.952870 -81.589233 1432.869995
v 9.862680 -81.372337 1433.040039
v 9.685940 -81.699440 1432.890015
v 10.390137 -79.473259 1432.614258
v 9.862680 -81.372337 1433.040039
v 9.952870 -81.589233 1432.869995
v 8.382812 -84.691635 1428.105469
v 10.181600 -77.769737 1432.609985
v 10.092700 -79.489738 1432.680054
v 8.281250 -84.658432 1428.130371
v 6.815100 -85.302330 1427.469971
v 9.137207 -82.743401 1429.644043
v 8.550540 -83.733635 1429.189941
v 10.181600 -77.769737 1432.609985
v 9.882568 -79.587151 1429.289307
v 10.329628 -79.075676 1429.078369
v 8.750000 -84.809563 1432.495361
v 8.705720 -84.801437 1432.479980
v 9.698710 -82.622337 1432.729980
v 9.675461 -82.246819 1432.966309
v 9.733887 -82.633049 1432.741211
v 9.693310 -82.252037 1432.969971
v 9.369629 -84.020744 1429.000977
v 10.213158 -82.784988 1430.240112
v 10.103600 -82.434738 1429.420044
v 9.460449 -83.955681 1429.170898
v 8.550540 -83.733635 1429.189941
v 10.272034 -81.857475 1429.411621
v 9.330430 -84.003639 1429.040039
v 8.683470 -84.177834 1428.619995
v 9.632200 -83.450035 1429.099976
v 10.322266 -81.477287 1429.566772
v 10.350952 -81.783958 1429.398926
v 10.491699 -79.312737 1429.142578
vn -0.0333 0.3886 0.9208
vn 0.5817 0.3312 0.7429
vn -0.1494 0.3632 0.9196
vn -0.9836 0.1289 0.1263
vn -0.9255 0.3750 0.0536
vn -0.9658 0.2147 -0.1455
vn -0.9929 -0.0846 0.0833
vn -0.9559 -0.2729 0.1086
vn -0.9452 -0.0478 0.3231
vn -0.9916 -0.0194 -0.1277
vn -0.9833 -0.1327 -0.1243
vn 0.8400 0.1919 0.5075
vn 0.3435 0.2297 0.9106
vn 0.4814 0.2232 0.8476
vn 0.3043 0.1387 0.9424
vn 0.4993 0.0947 0.8612
vn 0.0577 -0.0962 -0.9937
vn 0.0317 -0.0009 -0.9995
vn -0.4828 -0.1070 -0.8692
vn -0.9763 0.0780 -0.2020
vn -0.5021 0.0527 -0.8632
vn 0.0008 -0.1228 -0.9924
vn -0.1601 0.0048 -0.9871
vn 0.4864 -0.5334 -0.6920
vn 0.1080 -0.0121 0.9941
vn -0.7611 0.0511 -0.6466
vn 0.0987 0.4020 -0.9103
vn -0.4133 0.5752 -0.7059
vn -0.0179 -0.3279 -0.9445
vn 0.8914 -0.0727 -0.4474
vn 0.7519 -0.0014 -0.6593
vn -0.4586 -0.3504 -0.8166
vn 0.6929 -0.0230 -0.7206
vn -0.9297 0.3631 -0.0614
vn -0.4026 0.3062 -0.8627
vn 0.2988 -0.4074 -0.8630
vn -0.8501 0.2988 -0.4337
vn -0.8694 0.2490 -0.4268
vn -0.9046 0.4235 -0.0483
vn 0.5792 -0.4971 -0.6460
vn -0.0767 -0.2814 -0.9565
vn -0.7421 0.6703 0.0078
vn -0.5421 0.8371 0.0740
vn -0.0833 0.5592 0.8249
vn -0.0634 0.5743 0.8162
vn -0.0833 0.5719 0.8161
vn -0.8669 0.4938 -0.0689
vn -0.4251 -0.2465 -0.8709
vn -0.3785 -0.1042 -0.9197
vn -0.3262 0.9444 -0.0417
vn -0.1899 0.9810 0.0401
vn 0.0406 0.9980 -0.0485
vn -0.8126 -0.3152 0.4903
vn -0.8318 -0.3253 0.4497
vn -0.8063 -0.3704 0.4612
vn 0.9349 0.2188 0.2794
vn 0.6810 0.0309 0.7316
vn 0.3445 0.1329 0.9293
vn -0.8820 -0.4705 -0.0255
vn -0.8975 -0.4244 0.1198
vn -0.9304 -0.3620 0.0578
vn -0.7478 -0.6568 -0.0972
vn -0.1484 0.2408 -0.9592
vn -0.2717 -0.0029 -0.9624
vn -0.2981 -0.0247 -0.9542
vn -0.0199 0.1925 -0.9811
vn 0.3087 0.0727 -0.9484
vn 0.0442 0.2539 -0.9662
vn -0.4313 -0.0588 -0.9003
vn -0.0731 -0.0954 0.9928
vn -0.1066 -0.4376 0.8928
vn -0.1044 -0.7188 0.6873
vn -0.1745 -0.7815 0.5990
vn -0.2356 -0.7937 0.5609
vn -0.2725 -0.7480 0.6051
vn -0.1228 0.9754 -0.1833
vn 0.5965 0.3213 0.7355
vn 0.4735 0.2000 0.8578
vn 0.4776 0.1090 0.8718
vn -0.7409 -0.6300 0.2326
vn -0.5950 -0.8010 0.0654
vn -0.0884 0.6168 -0.7822
vn 0.1588 0.4356 -0.8860
vn 0.2295 0.0090 -0.9733
vn -0.0606 0.9322 0.3568
vn 0.1353 0.9076 0.3975
vn -0.1810 -0.5949 0.7832
vn -0.2714 -0.7858 0.5557
vn -0.1264 -0.0290 -0.9916
vn -0.1276 -0.4958 -0.8590
vn 0.0519 -0.2023 -0.9779
vn -0.1542 -0.5008 -0.8517
vn -0.0852 -0.4065 -0.9097
vn 0.1231 0.8585 -0.4979
vn -0.4208 -0.8773 -0.2309
vn 0.0587 0.0576 0.9966
vn 0.0534 -0.1028 0.9933
vn -0.6612 -0.6499 -0.3748
vn 0.0135 0.7182 -0.6957
vn -0.6398 -0.4577 -0.6175
vn -0.6395 -0.4182 -0.6451
vn -0.6123 -0.4597 -0.6432
vn -0.5558 -0.7172 -0.4204
vn -0.0013 0.3828 -0.9238
vn 0.0204 0.9854 0.1689
vn 0.0051 0.9638 -0.2664
vn -0.0757 -0.3102 -0.9476
vn 0.1056 0.2025 -0.9736
vn 0.1709 -0.0515 0.9839
vn 0.0267 0.6280 -0.7778
vn 0.1842 -0.8853 0.4269
vn -0.0581 0.9361 0.3469
vn 0.1372 -0.8558 0.4987
vn 0.0137 0.0493 0.9987
vn 0.3542 -0.3278 -0.8758
vn -0.3002 -0.8203 -0.4869
vn -0.3053 -0.9508 0.0531
vn 0.3623 0.6554 -0.6627
vn 0.1405 -0.5715 0.8085
vn 0.0137 -0.8737 0.4862
vn 0.0526 0.0404 -0.9978
vn -0.0271 0.9050 -0.4246
vn 0.0187 0.4976 -0.8672
vn -0.0527 -0.3976 0.9160
vn -0.0426 -0.3856 0.9217
vn -0.0168 -0.3809 0.9245
vn 0.0538 0.7076 0.7046
vn -0.0569 0.7700 0.6355
vn 0.1129 0.7057 0.6995
vn -0.3639 -0.7440 -0.5603
vn -0.2911 -0.9143 -0.2815
vn -0.2417 -0.9453 -0.2192
vn -0.0424 0.6861 -0.7263
vn -0.5055 -0.5469 -0.6673
vn -0.0545 -0.5680 -0.8212
vn -0.0249 -0.4300 -0.9025
vn 0.0583 -0.4494 -0.8914
vn -0.0159 -0.4686 -0.8833
vn -0.0625 0.3089 -0.9490
vn 0.0362 0.8176 0.5747
vn -0.1603 0.8184 0.5519
vn -0.0440 0.9507 0.3070
vn -0.0457 0.9124 0.4068
vn 0.0087 0.8662 0.4995
vn 0.0045 0.9239 0.3826
vn 0.2814 -0.0661 -0.9573
vn 0.2582 -0.6305 -0.7320
vn 0.2466 -0.3726 -0.8946
vn -0.0245 0.9963 -0.0823
vn -0.0203 -0.9973 0.0699
vn -0.0276 0.2822 0.9590
vn -0.2575 -0.3200 -0.9118
vn 0.1919 0.7605 -0.6203
vn 0.0482 -0.9943 0.0955
vn 0.2189 -0.7091 0.6703
vn 0.1225 -0.2194 0.9679
vn -0.1299 0.8385 -0.5292
vn -0.1654 0.7853 -0.5966
vn 0.1706 -0.1796 -0.9688
vn 0.0103 -0.8481 0.5298
vn 0.0768 0.7054 0.7047
vn -0.4922 -0.4075 -0.7692
vn 0.0964 -0.9880 -0.1204
vn -0.0563 0.0438 0.9975
vn -0.1278 0.8577 0.4981
vn 0.8523 -0.4983 -0.1589
vn -0.2203 0.1818 -0.9583
vn -0.0125 0.0136 -0.9998
vn -0.1475 0.1230 0.9814
vn 0.0419 -0.0025 -0.9991
vn 0.2339 -0.4456 -0.8641
vn 0.0581 0.9974 -0.0415
vn 0.1328 -0.9761 0.1721
vn 0.0187 -0.2087 0.9778
vn 0.0207 -0.1344 0.9907
vn -0.0670 -0.1261 0.9897
vn -0.0223 -0.4977 0.8670
vn -0.0633 0.5944 -0.8017
vn -0.1424 0.5761 -0.8049
vn -0.0656 -0.5543 -0.8297
vn -0.0101 -0.6012 -0.7991
vn -0.3179 0.1872 0.9294
vn 0.1015 0.2085 -0.9727
vn 0.1516 0.9846 0.0870
vn 0.2859 0.2919 0.9127
vn 0.2789 -0.1069 -0.9544
vn 0.3632 0.9311 0.0346
vn 0.2727 -0.4674 -0.8409
vn 0.3684 -0.9139 -0.1707
vn -0.0419 0.3197 0.9466
vn 0.1426 -0.9693 -0.2003
vn 0.3139 -0.8829 -0.3492
vn 0.6806 0.7311 0.0481
vn 0.3158 0.9482 -0.0356
vn 0.6330 0.7652 -0.1170
vn 0.2950 -0.4458 -0.8451
vn 0.4859 -0.0269 -0.8736
vn 0.6177 0.1156 -0.7779
vn 0.5339 -0.0250 -0.8452
vn 0.4859 -0.8701 0.0821
vn -0.3051 0.0609 0.9504
vn -0.3214 0.0492 0.9457
vn -0.1772 0.5309 -0.8287
vn 0.0271 -0.0621 -0.9977
vn 0.0509 -0.0992 -0.9938
vn 0.0022 -0.1127 -0.9936
vn 0.4770 -0.7537 -0.4521
vn -0.5469 0.2298 0.8050
vn -0.4204 0.2648 0.8679
vn 0.0672 0.5037 0.8612
vn -0.0296 0.4780 0.8779
vn 0.0681 0.4667 0.8818
vn 0.3758 -0.0095 -0.9267
vn 0.4232 -0.0163 -0.9059
vn 0.1235 -0.3437 -0.9309
vn -0.3485 -0.3812 -0.8563
vn -0.6044 -0.2215 -0.7653
vn -0.4349 0.1339 -0.8904
vn 0.4167 0.0200 -0.9088
vn 0.3718 0.1172 -0.9209
vn 0.4129 0.0551 -0.9091
vn 0.8214 0.5703 -0.0100
vn 0.9566 0.2609 0.1294
vn 0.4288 -0.1075 -0.8970
vn 0.6966 -0.7170 -0.0263
vn 0.5844 -0.7749 0.2410
vn 0.7557 -0.6241 0.1986
vn -0.3265 0.1702 0.9297
vn -0.4564 0.7277 -0.5119
vn 0.5097 -0.6952 0.5069
vn -0.1844 -0.0227 0.9826
vn -0.6062 0.1035 0.7886
vn -0.7791 0.2160 0.5886
vn -0.9460 0.2322 0.2262
vn -0.4939 0.1696 0.8528
vn 0.0150 0.1434 0.9896
vn 0.2751 -0.5197 0.8088
vn 0.9828 -0.1092 0.1487
vn 0.8199 -0.1012 0.5635
vn 0.9659 -0.1851 0.1809
vn 0.6132 -0.7232 -0.3177
vn 0.2335 0.1607 0.9590
vn 0.3649 0.0201 0.9308
vn 0.3662 0.1006 0.9251
vn 0.3939 0.3882 0.8332
vn 0.4977 -0.5410 -0.6779
vn -0.0267 0.7836 -0.6207
vn 0.4590 0.1327 -0.8785
vn 0.0963 0.0804 -0.9921
vn 0.9406 0.1783 0.2889
vn 0.9970 0.0767 0.0115
vn -0.1102 0.0072 -0.9939
vn 0.0479 0.0151 -0.9987
vn 0.7386 -0.0310 -0.6735
vn 0.7227 -0.6409 0.2589
vn 0.6538 -0.3736 0.6580
vn 0.6395 -0.4058 0.6530
vn 0.6519 -0.3771 0.6579
vn 0.8155 -0.2225 0.5343
vn 0.9279 -0.2799 0.2463
vn 0.8121 -0.5654 -0.1440
vn 0.9486 -0.3161 -0.0174
vn 0.9352 -0.2638 -0.2364
vn -0.0905 0.4451 -0.8909
vn 0.1153 0.5092 -0.8529
vn -0.2084 0.0030 -0.9780
vn 0.5727 -0.2268 -0.7878
vn 0.9939 -0.0964 -0.0530
vn -0.2887 -0.1603 -0.9439
usemtl mtl1
s 1
f 1//1 2//2 3//3
f 4//4 5//5 6//6
f 10//7 8//8 9//9
f 14//10 15//11 10//7
f 10//7 9//9 4//4
f 2//2 1//1 16//12
f 3//13 17//14 12//15
f 11//16 12//15 17//14
f 19//17 20//18 21//19
f 10//7 6//6 22//20
f 10//7 22//20 14//10
f 22//20 18//21 14//10
f 19//17 23//22 24//23
f 4//4 6//6 10//7
f 19//17 25//24 23//22
f 26//25 3//13 12//15
f 27//26 22//20 6//6
f 28//27 29//27 30//27
f 31//28 32//28 33//28
f 34//29 35//29 36//29
f 37//30 38//31 25//24
f 19//17 21//19 39//32
f 37//30 19//17 40//33
f 5//5 41//34 6//6
f 41//34 42//35 6//6
f 45//36 46//36 47//36
f 43//37 44//38 49//39
f 23//22 25//24 48//40
f 23//22 48//40 50//41
f 25//24 19//17 37//30
f 5//5 7//42 41//34
f 7//42 5//5 52//43
f 53//44 54//45 55//46
f 49//39 44//38 58//47
f 23//22 59//48 51//49
f 23//22 50//41 59//48
f 52//43 60//50 7//42
f 52//43 57//51 60//50
f 60//50 57//51 61//52
f 63//53 64//54 65//55
f 66//56 67//57 68//58
f 69//59 62//60 13//61
f 62//60 69//59 70//62
f 62//60 8//8 10//7
f 10//7 15//11 13//61
f 24//23 71//63 20//18
f 72//64 73//65 74//66
f 75//67 20//18 71//63
f 74//66 76//68 72//64
f 10//7 13//61 62//60
f 19//17 24//23 20//18
f 24//23 23//22 77//69
f 51//49 77//69 23//22
f 26//25 78//70 79//71
f 79//71 56//72 26//25
f 81//73 82//74 85//75
f 60//50 61//52 86//76
f 88//77 89//78 68//58
f 88//77 90//79 89//78
f 87//80 62//60 70//62
f 91//81 87//80 70//62
f 68//58 11//16 66//56
f 12//15 11//16 68//58
f 93//82 92//83 71//63
f 94//84 71//63 92//83
f 12//15 78//70 26//25
f 95//85 61//52 80//86
f 96//87 79//71 78//70
f 82//74 97//88 85//75
f 97//88 82//74 96//87
f 77//69 51//49 98//89
f 80//86 61//52 57//51
f 100//90 102//91 101//92
f 100//90 103//93 102//91
f 86//76 61//52 104//94
f 105//95 91//81 70//62
f 106//96 68//58 107//97
f 78//70 12//15 68//58
f 69//59 109//98 70//62
f 93//82 71//63 110//99
f 111//100 112//101 113//102
f 108//103 70//62 109//98
f 71//63 114//104 110//99
f 95//85 115//105 61//52
f 98//89 51//49 102//91
f 99//106 61//52 115//105
f 104//94 61//52 99//106
f 116//107 102//91 103//93
f 117//108 118//108 119//108
f 120//109 68//58 89//78
f 108//103 105//95 70//62
f 120//109 107//97 68//58
f 106//96 78//70 68//58
f 121//110 110//99 114//104
f 114//104 71//63 24//23
f 24//23 98//89 114//104
f 98//89 24//23 77//69
f 123//111 97//88 96//87
f 115//105 95//85 124//112
f 123//111 96//87 125//113
f 96//87 78//70 122//114
f 128//115 102//91 116//107
f 116//107 129//116 128//115
f 91//81 105//95 130//117
f 121//110 114//104 134//118
f 96//87 135//119 125//113
f 135//119 136//120 125//113
f 98//89 102//91 139//121
f 128//115 139//121 102//91
f 104//94 99//106 141//122
f 142//123 143//123 144//123
f 132//124 145//125 131//126
f 146//127 133//128 120//129
f 148//130 130//117 105//95
f 150//131 149//132 105//95
f 108//103 150//131 105//95
f 151//133 134//118 114//104
f 150//131 108//103 152//134
f 153//135 134//118 151//133
f 154//136 155//137 156//138
f 114//104 98//89 157//139
f 139//121 157//139 98//89
f 78//70 106//96 122//114
f 135//119 96//87 122//114
f 158//140 159//141 115//105
f 115//105 159//141 160//142
f 163//143 159//144 162//145
f 140//146 139//121 128//115
f 128//115 165//147 164//148
f 99//106 166//149 141//122
f 128//115 129//116 165//147
f 148//130 147//150 130//117
f 107//97 183//151 106//96
f 168//152 169//152 170//152
f 171//153 153//135 151//133
f 105//95 149//132 172//154
f 136//120 135//119 174//155
f 122//114 173//156 135//119
f 173//156 174//155 135//119
f 166//149 176//157 141//122
f 115//105 166//149 99//106
f 166//149 177//158 176//157
f 178//159 164//148 165//147
f 179//160 180//160 181//160
f 146//127 182//161 183//151
f 183//151 133//128 146//127
f 184//162 148//130 105//95
f 184//162 105//95 172//154
f 147//150 148//130 187//163
f 106//96 188//164 122//114
f 171//153 151//133 185//165
f 189//166 190//166 191//166
f 192//167 193//167 194//167
f 140//146 175//168 139//121
f 173//156 195//169 174//155
f 160//142 166//149 115//105
f 175//168 140//146 164//170
f 164//148 178//159 198//171
f 177//158 166//149 197//172
f 147//150 201//173 130//117
f 200//174 202//175 199//176
f 183//151 107//97 167//177
f 183//151 188//164 106//96
f 151//133 114//104 157//139
f 151//133 157//139 186//178
f 203//179 204//180 186//178
f 148//130 205//181 187//163
f 173//156 122//114 188//164
f 175//168 157//139 139//121
f 173//156 207//182 195//169
f 208//183 157//139 175//168
f 210//184 166//149 160//142
f 174//155 195//169 209//185
f 208//183 175//168 164//170
f 208//183 164//170 196//186
f 212//187 166//149 210//184
f 198//171 178//159 213//188
f 201//173 147//150 214//189
f 215//190 183//151 182//161
f 187//163 214//189 147//150
f 206//191 214//189 187//163
f 214//189 206//191 216//192
f 207//182 173//156 188//164
f 186//178 157//139 203//179
f 220//193 212//187 211//194
f 220//193 221//195 212//187
f 223//196 198//171 213//188
f 224//197 225//198 226//199
f 210//184 211//194 212//187
f 197//172 166//149 212//187
f 214//189 227//200 201//173
f 183//151 215//190 228//201
f 183//151 228//201 188//164
f 188//164 228//201 229//202
f 207//182 188//164 229//202
f 203//179 157//139 230//203
f 218//204 217//205 231//206
f 214//189 216//192 232//207
f 233//208 219//209 207//182
f 233//210 234//211 235//212
f 236//213 208//183 196//186
f 237//214 236//213 196//186
f 219//209 195//169 207//182
f 222//215 237//214 196//186
f 222//215 241//216 237//214
f 242//217 241//216 222//215
f 241//216 242//217 238//218
f 243//219 244//220 245//221
f 220//193 246//222 221//195
f 239//223 246//222 220//193
f 247//224 224//197 226//199
f 243//219 224//197 247//224
f 245//221 224//197 243//219
f 227//200 253//225 255//226
f 255//226 253//225 256//227
f 254//228 229//202 248//229
f 257//230 256//227 253//225
f 228//201 248//229 229//202
f 227//200 214//189 253//225
f 229//202 259//231 258//232
f 259//231 260//233 258//232
f 262//234 261//235 258//232
f 265//236 266//236 267//236
f 268//237 269//237 270//237
f 271//238 272//239 273//240
f 232//207 274//241 214//189
f 258//232 207//182 229//202
f 207//182 258//232 261//235
f 261//235 233//208 207//182
f 264//242 275//243 276//244
f 263//245 264//242 276//244
f 230//203 157//139 208//183
f 274//241 232//207 278//246
f 208//183 277//247 230//203
f 280//248 208//183 279//249
f 208//183 236//213 279//249
f 281//250 271//238 240//251
f 240//251 239//223 281//250
f 236//213 237//214 238//218
f 282//252 236//213 238//218
f 282//252 238//218 283//253
f 240//251 246//222 239//223
f 246//222 240//251 301//254
f 238//218 242//217 283//253
f 246//222 301//254 283//253
f 284//255 257//230 253//225
f 285//256 286//257 287//258
f 273//240 289//259 288//260
f 273//240 288//260 271//238
f 274//241 253//225 214//189
f 253//225 274//241 290//261
f 253//225 290//261 291//262
f 291//262 284//255 253//225
f 291//262 290//261 292//263
f 291//262 288//260 284//255
f 288//260 291//262 271//238
f 277//247 208//183 293//264
f 293//264 208//183 294//265
f 294//265 279//249 293//264
f 293//264 279//249 295//266
f 296//267 297//267 298//267
f 279//249 236//213 282//252
f 295//266 279//249 282//252
f 291//262 292//263 299//268
f 282//252 283//253 300//269
f 271//238 291//262 240//251
f 240//251 291//262 301//254
f 283//253 301//254 300//269
f 291//262 299//268 301//254
l 126 127
l 83 84
l 249 250
l 136 161
l 251 252
l 137 138
