# Blender v2.77 (sub 0) OBJ File: 'BLANKOblend.blend'
# www.blender.org
mtllib left medial cuneiform bone.mtl
o grp1
v 69.646378 -116.899940 -39.671650
v 68.605598 -118.219994 -38.905518
v 69.563698 -120.680992 -39.791019
v 69.563698 -120.680992 -39.791019
v 69.601021 -123.012802 -37.807472
v 67.686203 -117.580994 -35.148518
v 68.992432 -115.420525 -37.829121
v 65.939575 -116.553490 -29.291767
v 72.246597 -115.977989 -39.207920
v 72.631897 -119.511993 -41.093819
v 68.645813 -113.829521 -32.328876
v 79.964699 -116.653992 -37.499317
v 75.497704 -112.814995 -34.709919
v 70.877655 -113.143913 -33.652607
v 74.668701 -122.662994 -41.566120
v 78.521706 -127.971466 -43.957935
v 73.055260 -122.777184 -40.679935
v 74.115524 -127.967163 -40.752041
v 70.891800 -124.596992 -39.529018
v 71.067245 -128.361679 -39.026295
v 69.057816 -123.073387 -33.418629
v 67.071701 -120.250992 -31.257019
v 65.964943 -116.829460 -28.821918
v 66.042603 -116.619995 -29.283319
v 66.109024 -116.839005 -28.815231
v 81.446289 -121.071846 -41.323536
v 66.626099 -115.605995 -30.218719
v 70.235710 -113.653831 -31.423019
v 69.852097 -113.419991 -32.612919
v 70.560089 -112.627098 -32.408245
v 69.852097 -113.419991 -32.612919
v 70.218102 -113.584991 -31.384319
v 70.428131 -112.770454 -32.450703
v 73.605713 -112.030693 -32.176136
v 70.330696 -112.399040 -32.237904
v 80.037842 -112.572227 -30.721516
v 73.837502 -112.060989 -32.134418
v 70.021484 -130.341858 -36.931664
v 80.058502 -124.072990 -43.289021
v 66.924026 -121.837090 -27.215122
v 66.082603 -117.810989 -28.124819
v 66.050674 -117.775879 -28.104359
v 67.508423 -121.027092 -24.016621
v 72.013603 -116.829994 -28.053820
v 79.689758 -116.520866 -26.159199
v 73.754112 -131.779236 -41.341423
v 70.671623 -131.770355 -38.451164
v 72.168251 -134.140640 -38.328545
v 76.842957 -130.573120 -43.051079
v 84.037354 -128.113647 -44.532738
v 79.985672 -130.773956 -45.097305
v 77.011261 -129.940216 -42.464714
v 68.904457 -125.981628 -30.202688
v 68.301804 -123.559990 -28.888321
v 85.454697 -123.924995 -41.497818
v 78.464104 -119.448997 -21.603619
v 81.450798 -121.071991 -41.330521
v 84.569450 -121.693024 -38.106522
v 82.067101 -118.313995 -36.883820
v 80.152191 -112.470116 -30.764935
v 79.894897 -112.525993 -30.032820
v 80.563599 -112.611992 -30.101620
v 80.534470 -112.743095 -30.169575
v 70.003326 -132.007172 -34.175438
v 79.493286 -134.994324 -42.894554
v 81.559662 -133.307495 -44.622704
v 70.679703 -131.487000 -31.320421
v 84.436646 -131.343597 -44.821968
v 70.242920 -120.952271 -21.250751
v 84.062042 -122.558929 -33.482456
v 81.582184 -114.923347 -28.378223
v 80.789597 -113.431992 -29.053320
v 80.789597 -113.431992 -29.053320
v 81.609314 -115.583443 -28.402454
v 74.899109 -137.202454 -36.099022
v 84.871826 -134.112549 -41.266136
v 71.485603 -128.054001 -26.445320
v 70.820061 -124.556854 -23.103968
v 86.870415 -129.846512 -43.888054
v 87.633499 -126.918991 -39.924919
v 82.020752 -121.065422 -29.316914
v 82.270477 -119.397636 -28.500084
v 76.311523 -138.862305 -31.971703
v 74.971588 -131.506180 -25.752096
v 87.997620 -130.524414 -42.303734
v 72.873993 -123.506386 -21.758410
v 88.454193 -130.685745 -41.353722
v 72.824707 -121.429535 -19.018818
v 76.423904 -121.295212 -16.436954
v 72.891899 -121.435997 -19.021420
v 86.031853 -123.977898 -34.142849
v 84.293610 -124.363091 -32.269100
v 84.069901 -123.787750 -31.366232
v 82.678467 -123.857658 -27.181662
v 82.365967 -122.282219 -28.537128
v 79.989845 -118.368401 -24.144428
v 80.556000 -119.830002 -22.112320
v 75.503204 -138.543213 -31.596214
v 74.783699 -136.531006 -32.354221
v 75.550041 -134.766464 -29.023224
v 85.832031 -136.904541 -31.837181
v 88.308037 -134.484680 -35.075768
v 75.815002 -130.310242 -22.604147
v 73.591675 -125.473831 -21.223562
v 88.602982 -133.171585 -35.447975
v 87.640350 -129.601654 -34.687035
v 74.085938 -122.139099 -17.873066
v 85.737602 -125.236603 -31.923292
v 87.898560 -130.163086 -33.455345
v 84.368225 -124.481133 -26.055197
v 83.181816 -123.773804 -29.907507
v 82.626465 -123.378166 -27.942770
v 74.121002 -122.125999 -17.901619
v 83.625305 -123.268181 -25.220968
v 75.298203 -139.001007 -30.803022
v 75.390297 -139.206360 -30.559872
v 75.223984 -139.003311 -30.812584
v 75.098099 -139.013000 -30.109324
v 75.582130 -135.041504 -27.673485
v 76.082672 -132.552246 -25.623068
v 76.981697 -126.809998 -17.425421
v 87.079109 -130.125626 -34.134960
v 87.645393 -129.840668 -33.881966
v 87.255402 -129.901001 -34.049122
v 87.282486 -129.271561 -34.560692
v 87.563004 -129.731003 -34.149921
v 87.651398 -129.865997 -33.871021
v 87.255402 -129.901001 -34.049122
v 87.651398 -129.865997 -33.871021
v 87.651398 -129.865997 -33.871021
v 87.390656 -131.541992 -33.788597
v 87.058441 -130.108459 -34.139042
v 87.255402 -129.901001 -34.049122
v 87.651398 -129.865997 -33.871021
v 87.913902 -130.186996 -33.432323
v 88.473000 -131.270004 -32.650524
v 87.346672 -131.603287 -33.739864
v 86.586998 -126.565994 -25.159521
v 83.537399 -124.274994 -25.651920
v 76.231003 -122.431000 -16.021219
v 84.313698 -124.292992 -25.308521
v 84.691162 -124.676994 -25.353292
v 84.313698 -124.292992 -25.308521
v 83.601685 -123.709358 -25.116354
v 83.537399 -124.274994 -25.651920
v 84.277802 -123.494995 -24.499222
v 84.277802 -123.494995 -24.499222
v 84.277802 -123.494995 -24.499222
v 81.415482 -120.291298 -17.679157
v 75.392426 -139.230576 -30.565529
v 75.443497 -139.192993 -28.868624
v 78.094498 -140.259003 -25.262423
v 77.488457 -138.628784 -23.645851
v 76.014526 -133.424805 -24.108419
v 77.654808 -130.875336 -20.529425
v 75.765800 -130.339996 -22.569620
v 88.283676 -135.557327 -33.509850
v 88.166199 -132.836426 -33.591484
v 88.591003 -134.819000 -33.443623
v 88.278702 -135.552994 -33.503624
v 88.588188 -134.819122 -33.435486
v 88.473000 -131.270004 -32.650524
v 88.605301 -130.901993 -29.549622
v 76.231003 -122.431000 -16.021219
v 85.821823 -125.289673 -22.545706
v 78.574898 -121.627998 -14.561620
v 82.243149 -119.939308 -15.894703
v 82.270004 -119.806137 -15.242764
v 80.132500 -120.405998 -14.636420
v 80.132500 -120.405998 -14.636420
v 80.457901 -121.476997 -14.192120
v 80.132500 -120.405998 -14.636420
v 81.989799 -120.054001 -14.848320
v 79.712700 -133.550003 -20.193920
v 92.735352 -137.612427 -28.571800
v 81.225098 -131.822266 -19.014669
v 80.263428 -127.733658 -15.565023
v 89.759766 -129.338348 -24.302633
v 80.457901 -121.476997 -14.192120
v 82.882500 -123.898003 -14.380820
v 82.278999 -121.807999 -15.043520
v 83.215134 -126.747009 -14.147617
v 82.466400 -120.389000 -15.540720
v 82.667915 -121.103363 -16.018234
v 82.279198 -119.944000 -15.462119
v 84.134903 -123.167999 -15.154320
v 82.744598 -120.994003 -15.967620
v 84.134903 -123.167999 -15.154320
v 81.989799 -120.054001 -14.848320
v 81.989799 -120.054001 -14.848320
v 82.466400 -120.389000 -15.540720
v 81.989799 -120.054001 -14.848320
v 82.279198 -119.944000 -15.462119
v 80.292786 -140.575195 -22.947655
v 80.280640 -140.529388 -23.032372
v 91.634499 -139.858002 -24.897722
v 81.662094 -135.514359 -20.205929
v 81.086441 -133.436905 -20.210850
v 82.402954 -133.774933 -18.660196
v 93.250366 -136.582520 -28.867699
v 81.278580 -131.721771 -18.859814
v 81.302696 -131.651001 -18.860620
v 90.374268 -132.447617 -24.732000
v 90.562340 -131.130859 -23.796638
v 91.751953 -130.013168 -23.472082
v 93.397934 -130.138367 -19.454514
v 91.039734 -130.022247 -23.661459
v 92.189804 -129.697937 -16.231833
v 84.589127 -140.307037 -23.206261
v 88.082901 -137.417007 -18.825323
v 91.246902 -133.878998 -26.622921
v 92.019775 -134.008057 -25.360968
v 92.833504 -133.712006 -24.737720
v 91.792000 -133.714996 -25.237221
v 92.217514 -131.238754 -23.781225
v 91.231819 -130.016464 -23.660555
v 92.216599 -131.238007 -23.777620
v 93.300499 -133.975998 -24.315922
v 87.143204 -125.876831 -14.335724
v 89.485260 -140.431625 -21.759682
v 93.646454 -138.838013 -25.542015
v 93.592499 -137.613998 -27.323523
v 93.577728 -137.611115 -27.312035
v 93.710724 -137.547958 -26.440208
v 94.146774 -137.740967 -24.103447
v 92.084656 -129.696716 -16.046347
v 92.506699 -140.057999 -21.878923
v 91.479675 -139.449890 -20.323936
v 92.506699 -140.057999 -21.878923
v 93.395401 -139.781006 -22.590923
v 90.917358 -134.070801 -16.809469
v 93.343498 -130.748001 -17.695520
v 93.343498 -130.748001 -17.695520
v 93.471878 -139.838623 -22.594261
v 94.023727 -139.077515 -21.982689
vn -0.8621 0.0489 -0.5044
vn -0.4212 0.4329 -0.7970
vn -0.4241 -0.0653 -0.9033
vn -0.9072 -0.2845 -0.3098
vn -0.9291 -0.2828 -0.2382
vn -0.9657 -0.1045 -0.2376
vn -0.5929 0.6803 -0.4310
vn -0.9506 -0.2087 -0.2299
vn 0.0171 0.6708 -0.7414
vn -0.2174 0.1322 -0.9671
vn -0.5885 0.8048 0.0776
vn 0.4041 0.7264 -0.5559
vn 0.0427 0.8973 -0.4393
vn -0.3150 0.8766 -0.3637
vn -0.3623 0.0049 -0.9321
vn -0.5014 -0.1489 -0.8523
vn -0.2662 0.1218 -0.9562
vn -0.6206 -0.1581 -0.7681
vn -0.8272 -0.0276 -0.5612
vn -0.9385 -0.2391 -0.2490
vn -0.9272 -0.3125 -0.2066
vn -0.9491 -0.2464 -0.1960
vn 0.0893 0.4817 -0.8718
vn -0.3222 0.7864 0.5270
vn -0.3561 0.6868 0.6337
vn -0.5709 0.7063 0.4186
vn -0.1592 0.6725 0.7227
vn -0.4600 0.8810 -0.1104
vn -0.3652 0.8158 -0.4484
vn -0.7493 0.5894 0.3020
vn -0.7457 0.5929 0.3040
vn -0.7511 0.5877 0.3007
vn -0.0255 0.9179 -0.3960
vn 0.6871 0.6835 -0.2466
vn -0.5168 -0.0228 -0.8558
vn -0.9554 -0.0810 -0.2839
vn -0.0207 0.4169 -0.9087
vn -0.9110 -0.4026 0.0891
vn -0.9915 -0.1277 -0.0237
vn -0.8034 -0.0866 0.5891
vn -0.1582 0.7436 0.6497
vn -0.1551 0.7350 0.6600
vn -0.2383 0.6284 0.7405
vn 0.1728 0.7622 0.6239
vn -0.5822 -0.1520 -0.7987
vn -0.6570 -0.6510 -0.3803
vn -0.8482 -0.3045 -0.4334
vn -0.5023 0.3540 -0.7889
vn 0.2113 0.3364 -0.9177
vn -0.3195 -0.0613 -0.9456
vn -0.5287 0.3908 -0.7535
vn -0.9537 -0.2893 0.0822
vn -0.8777 -0.4718 0.0841
vn 0.5998 0.5739 -0.5576
vn -0.0497 0.9170 0.3958
vn 0.6113 0.6537 -0.4461
vn 0.7757 0.6267 -0.0746
vn 0.8315 0.5380 -0.1387
vn 0.0170 0.9901 0.1394
vn -0.0785 0.7574 0.6482
vn -0.0477 0.8741 0.4834
vn 0.0431 0.9937 0.1039
vn 0.1393 0.9826 0.1228
vn -0.1838 0.7295 0.6588
vn -0.8980 -0.4309 0.0888
vn -0.1211 -0.7965 -0.5924
vn 0.0676 -0.5501 -0.8324
vn -0.7479 -0.5491 0.3731
vn 0.3816 -0.3331 -0.8622
vn -0.5355 0.2704 0.8001
vn 0.7490 0.5714 0.3353
vn 0.8055 0.5256 0.2735
vn 0.9329 0.3135 -0.1771
vn 0.8991 0.3851 -0.2079
vn -0.2174 0.7225 0.6563
vn 0.6905 0.4368 0.5766
vn -0.4935 -0.8411 -0.2214
vn 0.4543 -0.7781 -0.4339
vn -0.7817 -0.4796 0.3988
vn -0.6212 -0.4909 0.6108
vn 0.7095 -0.0420 -0.7035
vn 0.9116 -0.1460 -0.3842
vn 0.9325 0.3285 -0.1499
vn 0.8505 0.3534 -0.3896
vn 0.9824 0.1864 0.0080
vn 0.9519 0.2616 -0.1595
vn -0.0691 -0.9554 -0.2870
vn -0.6506 -0.5879 0.4806
vn -0.6235 -0.3679 0.6898
vn -0.3898 0.7481 0.5370
vn -0.5801 0.2192 0.7845
vn 0.7260 0.6563 0.2054
vn 0.7849 0.6002 0.1535
vn 0.7838 0.5687 0.2496
vn 0.8941 0.3678 0.2556
vn 0.7115 0.6983 0.0780
vn 0.7832 0.6055 0.1412
vn 0.5860 0.6217 0.5196
vn -0.8517 -0.4785 -0.2137
vn -0.8884 -0.3797 0.2582
vn -0.9082 -0.3198 0.2699
vn 0.1849 -0.9074 -0.3775
vn -0.7195 -0.4844 0.4977
vn 0.8088 -0.5362 -0.2418
vn -0.7148 -0.3435 0.6092
vn 0.5970 0.1344 0.7909
vn 0.9931 0.0660 0.0971
vn 0.9822 -0.1429 0.1215
vn -0.6724 -0.6247 0.3970
vn -0.7562 -0.4032 0.5154
vn 0.9235 0.3823 -0.0315
vn -0.5891 0.2392 0.7718
vn 0.7198 0.5940 0.3593
vn 0.5554 0.8295 -0.0581
vn 0.9221 0.2699 -0.2774
vn 0.5782 0.7826 0.2308
vn -0.7523 -0.6574 -0.0442
vn -0.5668 -0.7082 -0.4209
vn -0.5993 -0.7995 -0.0409
vn -0.9869 0.1607 0.0105
vn -0.9758 -0.1954 0.0981
vn -0.8856 -0.3210 0.3357
vn 0.7583 -0.4386 -0.4823
vn 0.7996 -0.3702 -0.4729
vn 0.7672 -0.4256 -0.4798
vn 0.2930 -0.8209 -0.4901
vn 0.8654 -0.0447 -0.4992
vn -0.4252 -0.8121 -0.3997
vn 0.7731 0.3889 0.5011
vn 0.8019 -0.1548 -0.5770
vn 0.3950 0.0005 -0.9187
vn 0.5767 -0.4445 -0.6855
vn 0.5922 -0.3229 -0.7383
vn 0.9376 0.0858 -0.3370
vn -0.6773 -0.4050 0.6142
vn 0.7207 0.6628 -0.2030
vn -0.5844 0.3646 0.7249
vn 0.2797 0.9598 -0.0235
vn 0.1258 0.9641 -0.2338
vn 0.7065 0.6701 -0.2278
vn 0.5029 0.6757 -0.5390
vn 0.6934 0.7092 -0.1278
vn 0.7411 0.1966 -0.6420
vn 0.6878 0.4383 -0.5787
vn 0.6944 -0.2010 -0.6909
vn 0.4663 0.6402 -0.6105
vn 0.2457 0.9665 -0.0735
vn -0.9715 -0.1686 0.1664
vn -0.3871 -0.9184 0.0821
vn -0.3471 -0.9333 0.0917
vn -0.7707 -0.3515 0.5315
vn -0.9541 -0.0932 0.2847
vn -0.6538 -0.4098 0.6361
vn -0.9967 -0.0560 -0.0591
vn 0.2516 -0.7267 -0.6393
vn 0.9142 0.2469 -0.3213
vn 0.9019 -0.3649 -0.2311
vn 0.8974 -0.3706 -0.2396
vn 0.9018 -0.3718 -0.2204
vn 0.8700 0.1782 -0.4597
vn 0.6786 -0.1028 -0.7273
vn 0.6158 0.3176 -0.7211
vn 0.9174 0.2478 -0.3115
vn 0.8686 0.4478 -0.2121
vn -0.5362 -0.3104 0.7850
vn -0.3913 0.4435 0.8063
vn -0.4079 0.1268 0.9042
vn 0.4381 0.8876 -0.1422
vn -0.2420 0.9694 -0.0403
vn -0.2193 0.4617 0.8595
vn -0.0752 0.1626 0.9838
vn -0.1488 0.8513 0.5031
vn -0.1122 0.8753 0.4703
vn -0.1330 0.8619 0.4893
vn -0.3613 0.9127 -0.1906
vn -0.2891 -0.3338 0.8972
vn 0.4702 -0.6961 -0.5426
vn -0.5280 -0.4078 0.7449
vn -0.3722 -0.4497 0.8119
vn 0.7237 0.4845 -0.4914
vn 0.4434 0.1808 0.8779
vn 0.3155 0.3481 0.8828
vn 0.6736 0.1851 0.7156
vn -0.0901 -0.1791 0.9797
vn 0.9258 0.3577 -0.1220
vn 0.8667 0.4815 0.1300
vn 0.9148 0.3975 -0.0719
vn 0.6220 0.3284 0.7109
vn 0.2349 0.4879 0.8407
vn 0.0308 0.3910 0.9199
vn 0.4185 -0.0320 0.9076
vn 0.8577 0.1381 0.4953
vn 0.8487 0.1790 0.4976
vn 0.8488 0.2776 0.4499
vn -0.3123 -0.8668 0.3888
vn 0.0610 -0.9163 -0.3958
vn 0.1681 -0.9328 -0.3188
vn -0.3383 -0.3524 0.8726
vn -0.3864 -0.4209 0.8207
vn -0.5653 -0.4104 0.7155
vn 0.9063 0.0729 -0.4163
vn -0.6842 -0.2914 0.6685
vn -0.6779 -0.5643 0.4712
vn 0.6746 0.5592 -0.4819
vn 0.4284 0.2751 -0.8607
vn 0.6043 0.5084 -0.6135
vn 0.8293 0.5584 -0.0207
vn 0.2277 -0.1489 -0.9623
vn 0.0866 -0.1275 0.9881
vn 0.6501 0.7032 0.2877
vn 0.2410 0.5133 0.8237
vn 0.0478 -0.9723 -0.2288
vn -0.1305 -0.5380 0.8328
vn 0.7668 0.6140 -0.1868
vn 0.5036 0.2192 -0.8357
vn 0.6741 0.4926 -0.5504
vn 0.2472 0.5261 -0.8137
vn 0.0493 0.3827 -0.9225
vn 0.2005 0.0451 -0.9787
vn 0.7851 0.4376 -0.4384
vn 0.8311 0.2516 -0.4959
vn 0.6213 0.7819 0.0512
vn 0.0521 -0.9566 0.2866
vn 0.7515 -0.5705 -0.3314
vn 0.7702 -0.5001 -0.3960
vn 0.9716 0.1723 -0.1621
vn 0.9835 0.1012 -0.1502
vn 0.9969 0.0179 -0.0767
vn 0.3172 -0.2463 0.9158
vn 0.1611 -0.9806 -0.1116
vn 0.2599 -0.6563 0.7083
vn 0.3818 -0.7677 0.5146
vn 0.2893 -0.9383 -0.1896
vn 0.3030 -0.3994 0.8653
vn 0.6886 -0.2985 0.6608
vn 0.9417 0.3085 0.1346
vn 0.7819 -0.6021 0.1615
vn 0.8604 -0.4266 0.2788
usemtl mtl1
s 1
f 2//1 1//2 3//3
f 4//4 5//5 2//1
f 5//5 6//6 2//1
f 2//1 6//6 7//7
f 6//6 8//8 7//7
f 1//2 7//7 9//9
f 9//9 10//10 1//2
f 2//1 7//7 1//2
f 7//7 8//8 11//11
f 12//12 9//9 13//13
f 13//13 9//9 7//7
f 7//7 11//11 14//14
f 16//15 17//16 15//17
f 17//16 3//3 10//10
f 10//10 15//17 17//16
f 3//3 17//16 19//18
f 5//5 4//4 19//18
f 5//5 19//18 20//19
f 3//3 1//2 10//10
f 6//6 5//5 21//20
f 6//6 22//21 23//22
f 6//6 23//22 8//8
f 10//10 9//9 26//23
f 10//10 26//23 15//17
f 11//11 27//24 28//25
f 24//26 25//27 27//24
f 25//27 28//25 27//24
f 26//23 9//9 12//12
f 14//14 11//11 29//28
f 14//14 29//28 30//29
f 31//30 32//31 33//32
f 29//28 11//11 28//25
f 7//7 14//14 13//13
f 14//14 34//33 13//13
f 34//33 14//14 30//29
f 12//12 13//13 36//34
f 13//13 34//33 36//34
f 19//18 17//16 18//35
f 17//16 16//15 18//35
f 20//19 21//20 5//5
f 38//36 21//20 20//19
f 21//20 22//21 6//6
f 39//37 16//15 15//17
f 40//38 23//22 22//21
f 40//38 41//39 23//22
f 43//40 41//39 40//38
f 26//23 39//37 15//17
f 42//41 44//42 25//27
f 28//25 25//27 44//42
f 28//25 44//42 35//43
f 44//42 45//44 35//43
f 46//45 48//46 47//47
f 46//45 18//35 49//48
f 20//19 18//35 46//45
f 46//45 47//47 20//19
f 47//47 38//36 20//19
f 16//15 50//49 51//50
f 52//51 18//35 16//15
f 49//48 52//51 16//15
f 18//35 20//19 19//18
f 21//20 38//36 53//52
f 39//37 50//49 16//15
f 22//21 21//20 53//52
f 40//38 22//21 54//53
f 26//23 55//54 39//37
f 42//41 56//55 44//42
f 57//56 58//57 55//54
f 59//58 58//57 57//56
f 59//58 57//56 12//12
f 60//59 37//60 35//61
f 60//59 35//61 61//62
f 62//63 60//59 61//62
f 45//44 63//64 35//43
f 48//46 64//65 47//47
f 38//36 47//47 64//65
f 65//66 51//50 66//67
f 49//48 51//50 46//45
f 65//66 48//46 46//45
f 51//50 65//66 46//45
f 38//36 64//65 53//52
f 53//52 64//65 67//68
f 51//50 49//48 16//15
f 18//35 52//51 49//48
f 53//52 54//53 22//21
f 68//69 51//50 50//49
f 55//54 50//49 39//37
f 69//70 42//41 43//40
f 58//57 59//58 70//71
f 58//57 70//71 91//72
f 36//34 59//58 12//12
f 71//73 36//34 72//74
f 45//44 73//75 63//64
f 74//76 73//75 45//44
f 59//58 36//34 71//73
f 48//46 75//77 64//65
f 76//78 65//66 66//67
f 66//67 51//50 68//69
f 68//69 76//78 66//67
f 77//79 54//53 53//52
f 54//53 77//79 40//38
f 78//80 43//40 40//38
f 76//78 68//69 79//81
f 87//82 76//78 79//81
f 79//81 68//69 50//49
f 79//81 50//49 55//54
f 79//81 55//54 80//83
f 80//83 85//84 79//81
f 59//58 81//85 70//71
f 44//42 56//55 45//44
f 59//58 71//73 81//85
f 71//73 82//86 81//85
f 65//66 75//77 48//46
f 65//66 76//78 83//87
f 53//52 67//68 77//79
f 84//88 77//79 67//68
f 78//80 40//38 77//79
f 43//40 78//80 69//70
f 69//70 78//80 86//89
f 80//83 87//82 85//84
f 69//70 56//55 42//41
f 56//55 69//70 89//90
f 90//91 89//90 69//70
f 58//57 80//83 55//54
f 58//57 91//72 80//83
f 91//72 87//82 80//83
f 92//92 70//71 93//93
f 70//71 81//85 93//93
f 70//71 92//92 91//72
f 92//92 108//94 91//72
f 93//93 81//85 95//95
f 81//85 82//86 94//96
f 94//96 112//97 81//85
f 82//86 74//76 96//98
f 74//76 45//44 96//98
f 65//66 83//87 75//77
f 83//87 98//99 75//77
f 99//100 64//65 75//77
f 75//77 98//99 99//100
f 99//100 100//101 64//65
f 76//78 101//102 83//87
f 100//101 67//68 64//65
f 100//101 84//88 67//68
f 77//79 84//88 103//103
f 87//82 102//104 76//78
f 104//105 86//89 78//80
f 78//80 77//79 103//103
f 78//80 103//103 104//105
f 122//106 105//107 87//82
f 87//82 106//108 122//106
f 86//89 88//109 69//70
f 107//110 86//89 104//105
f 107//110 88//109 86//89
f 91//72 106//108 87//82
f 108//94 109//111 91//72
f 109//111 106//108 91//72
f 108//94 92//92 93//93
f 89//90 90//91 113//112
f 111//113 93//93 95//95
f 110//114 108//94 93//93
f 93//93 111//113 110//114
f 114//115 94//96 82//86
f 112//97 111//113 95//95
f 110//114 111//113 112//97
f 82//86 96//98 114//115
f 114//115 96//98 97//116
f 96//98 45//44 56//55
f 56//55 97//116 96//98
f 83//87 116//117 115//118
f 115//118 116//117 118//119
f 100//101 99//100 98//99
f 115//118 98//99 83//87
f 100//101 98//99 117//120
f 117//120 119//121 100//101
f 84//88 100//101 119//121
f 120//122 84//88 119//121
f 120//122 103//103 84//88
f 76//78 102//104 101//102
f 102//104 87//82 105//107
f 124//123 122//124 125//125
f 126//126 127//126 128//126
f 109//111 129//127 123//128
f 109//111 123//128 106//108
f 131//129 122//106 132//130
f 132//130 133//131 134//132
f 132//130 134//132 135//133
f 122//106 131//129 105//107
f 137//134 131//129 132//130
f 104//105 121//135 107//110
f 110//114 109//111 108//94
f 110//114 138//136 109//111
f 113//112 140//137 89//90
f 112//97 94//96 110//114
f 110//114 94//96 139//138
f 139//138 141//139 110//114
f 142//140 110//114 143//141
f 114//115 97//116 165//142
f 144//143 94//96 114//115
f 144//143 145//144 94//96
f 144//143 143//141 145//144
f 146//145 144//143 114//115
f 143//141 144//143 148//146
f 56//55 149//147 97//116
f 116//117 151//148 118//119
f 150//149 152//150 116//117
f 150//149 101//102 152//150
f 83//87 101//102 150//149
f 152//150 151//148 116//117
f 153//151 117//120 151//148
f 153//151 119//121 117//120
f 119//121 154//152 120//122
f 119//121 153//151 154//152
f 153//151 155//153 154//152
f 154//152 156//154 120//122
f 154//152 155//153 103//103
f 102//104 157//155 101//102
f 102//104 105//107 158//156
f 159//157 160//158 102//159
f 105//107 131//129 158//156
f 102//104 158//156 161//160
f 155//153 104//105 103//103
f 121//135 104//105 155//153
f 162//161 132//130 135//133
f 158//156 137//162 136//163
f 137//134 132//130 162//161
f 136//163 161//160 158//156
f 163//164 136//163 109//111
f 163//164 161//160 136//163
f 121//135 164//165 107//110
f 143//141 148//146 142//140
f 110//114 142//140 138//136
f 165//142 142//140 147//166
f 165//142 138//136 142//140
f 114//115 165//142 147//166
f 140//137 166//167 89//90
f 165//142 97//116 149//147
f 165//142 149//147 167//168
f 89//90 149//147 56//55
f 89//90 167//168 149//147
f 89//90 169//169 167//168
f 170//170 89//90 166//167
f 171//171 170//170 166//167
f 168//172 172//173 173//174
f 167//168 169//169 168//175
f 152//150 153//151 151//148
f 153//151 174//176 155//153
f 101//102 157//155 175//177
f 174//176 176//178 155//153
f 176//178 177//179 155//153
f 155//153 177//179 121//135
f 109//111 138//136 163//164
f 178//180 163//164 138//136
f 177//179 164//165 121//135
f 179//181 180//182 181//183
f 166//167 182//184 171//171
f 167//168 183//185 184//186
f 183//185 167//168 185//187
f 184//186 165//142 167//168
f 180//182 187//188 181//183
f 188//189 187//188 180//182
f 170//170 171//171 189//190
f 181//183 190//191 179//181
f 187//188 191//192 181//183
f 181//183 191//192 192//193
f 192//193 191//192 193//194
f 194//195 153//151 152//150
f 152//150 101//102 195//196
f 175//177 196//197 101//102
f 176//178 174//176 198//198
f 197//199 198//198 174//176
f 199//200 198//198 197//199
f 200//201 157//155 161//160
f 200//201 175//177 157//155
f 199//200 202//202 176//178
f 199//200 176//178 198//198
f 201//203 177//179 176//178
f 200//201 161//160 163//164
f 203//204 163//164 178//180
f 178//180 204//205 203//204
f 166//167 164//165 177//179
f 177//179 182//184 166//167
f 165//142 178//180 138//136
f 178//180 165//142 205//206
f 206//207 205//206 165//142
f 207//208 178//180 205//206
f 182//184 180//182 171//171
f 182//184 219//209 180//182
f 219//210 184//186 186//211
f 219//209 188//189 180//182
f 101//102 209//212 195//196
f 194//195 195//196 209//212
f 174//176 153//151 197//199
f 153//151 194//195 197//199
f 197//199 194//195 210//213
f 210//213 199//200 197//199
f 199//200 177//179 201//203
f 211//214 163//164 203//204
f 163//164 211//214 200//201
f 199//200 210//213 177//179
f 213//215 212//216 214//217
f 203//204 212//216 211//214
f 203//204 204//205 214//217
f 204//205 215//218 214//217
f 214//217 215//218 213//215
f 177//179 210//213 182//184
f 215//218 204//205 216//219
f 207//208 205//206 217//220
f 218//221 213//215 217//220
f 218//221 217//220 205//206
f 204//205 178//180 216//219
f 208//222 165//142 184//186
f 208//222 184//186 219//210
f 194//195 209//212 220//223
f 210//213 194//195 220//223
f 196//197 209//212 101//102
f 221//224 196//197 175//177
f 200//201 223//225 175//177
f 224//226 222//227 200//201
f 200//201 211//214 224//226
f 224//226 211//214 212//216
f 223//225 221//224 175//177
f 224//226 221//224 223//225
f 224//226 212//216 225//228
f 213//215 218//221 212//216
f 206//207 225//228 218//221
f 218//221 205//206 206//207
f 226//229 219//209 182//184
f 206//207 165//142 208//222
f 196//197 220//223 209//212
f 220//223 196//197 227//230
f 228//231 220//223 229//232
f 196//197 221//224 230//233
f 196//197 230//233 227//230
f 228//231 210//213 220//223
f 221//224 224//226 225//228
f 225//228 212//216 218//221
f 226//229 231//234 232//235
f 210//213 231//234 182//184
f 231//234 226//229 182//184
f 208//222 233//236 206//207
f 229//232 234//237 235//238
f 229//232 235//238 228//231
f 225//228 234//237 221//224
f 235//238 225//228 206//207
f 225//228 235//238 234//237
f 233//236 235//238 206//207
f 228//231 231//234 210//213
f 228//231 235//238 231//234
f 235//238 232//235 231//234
l 123 130
