# Blender v2.77 (sub 0) OBJ File: 'BLANKOblend.blend'
# www.blender.org
mtllib left fibula.mtl
o grp1
v 100.908241 -49.183052 -17.955814
v 99.995911 -51.699978 -23.265327
v 98.341766 -48.881504 -19.306801
v 103.112366 -53.553947 -17.479624
v 103.618820 -54.978500 -7.485239
v 98.258575 -48.552933 -13.051460
v 92.814941 -49.592251 -11.797615
v 100.214104 -49.582916 -10.664482
v 91.375099 -51.106499 7.910332
v 105.146828 -53.768940 195.290848
v 103.398285 -53.459812 196.647202
v 107.226837 -55.119877 218.025253
v 107.112366 -56.100853 195.841782
v 104.387291 -53.707558 221.198227
v 108.341553 -54.937000 241.609116
v 104.461594 -53.905037 284.462341
v 108.593002 -55.046444 288.708008
v 110.440872 -58.110790 309.302612
v 108.883377 -58.870197 230.568344
v 110.553001 -57.267555 322.009003
v 103.518860 -53.051575 299.874176
v 100.613998 -54.218750 304.509003
v 102.185394 -54.362122 323.741394
v 107.776825 -55.070557 325.051941
v 112.789001 -57.931953 330.424988
v 112.841049 -60.810219 326.288330
v 105.094604 -53.787804 332.402344
v 115.259468 -55.669125 343.696533
v 97.628250 -56.655083 336.111572
v 118.867996 -60.400654 339.225006
v 118.283325 -58.594357 344.971863
v 110.835747 -53.071774 350.384521
v 105.252357 -52.797409 345.906677
v 98.407303 -55.148357 341.484009
v 110.635437 -53.875454 355.256470
v 111.256348 -56.401440 356.666260
v 118.399658 -62.815975 347.473633
v 111.602997 -62.184357 353.877014
v 108.322487 -53.943005 356.253510
v 101.436890 -58.249378 357.610535
v 108.006836 -55.555965 358.167480
v 107.471069 -58.960949 359.194214
v 99.276062 -55.988491 -24.756968
v 96.849861 -53.854599 -25.199867
v 96.728630 -56.641087 -25.058294
v 102.535156 -57.456448 -20.050547
v 93.495270 -50.544018 -19.545418
v 94.896759 -51.984493 -23.033882
v 93.231735 -54.530514 -22.371561
v 90.295227 -51.797688 -12.206429
v 104.585655 -59.636333 -7.390238
v 103.690742 -67.671417 -9.540661
v 87.608154 -53.746639 -8.895272
v 90.650833 -51.650089 18.142296
v 87.249611 -51.198769 -2.176522
v 85.319382 -53.205441 -3.801034
v 101.289703 -56.921288 11.600576
v 102.269470 -62.266510 10.429433
v 97.394135 -54.243938 17.205038
v 88.930496 -52.205704 23.570692
v 99.104988 -56.011223 35.242363
v 88.899918 -52.134918 24.996880
v 86.129639 -54.573185 13.456046
v 91.519699 -51.818707 45.776493
v 91.595215 -51.790535 46.778313
v 94.791626 -51.496792 57.713860
v 93.375198 -51.827911 59.103092
v 103.268356 -53.768623 126.104973
v 93.471649 -51.793987 60.574211
v 92.550621 -61.927868 61.425159
v 98.200378 -52.305771 92.686516
v 96.558105 -52.688431 88.953117
v 102.712723 -58.377071 79.438957
v 94.096405 -59.949684 146.569321
v 101.843872 -63.733612 92.829094
v 100.960960 -52.595661 122.717644
v 99.157776 -53.539299 133.437485
v 104.881348 -55.975536 153.376938
v 101.744873 -53.525074 154.820663
v 104.516907 -64.128242 149.717758
v 95.623840 -58.406372 184.776352
v 99.953697 -54.935581 203.472977
v 96.918396 -57.196472 197.457016
v 107.140015 -63.552551 177.932602
v 107.831299 -66.903725 214.855453
v 97.325623 -58.449429 221.617661
v 99.668999 -55.595638 239.201981
v 98.394524 -57.449196 240.786118
v 102.024857 -54.879730 276.018555
v 99.922043 -57.140545 279.691895
v 107.158173 -65.478806 271.294922
v 99.134491 -59.781631 291.108154
v 108.819847 -63.513248 309.410889
v 98.624031 -57.464268 312.564392
v 99.211800 -56.810955 316.446991
v 98.947205 -56.280083 325.085693
v 95.458649 -59.714638 324.916382
v 119.324127 -63.047794 338.598450
v 114.015999 -65.537857 331.148010
v 118.491745 -68.419029 339.750366
v 94.784904 -59.570122 345.249268
v 120.108002 -63.838959 342.584015
v 118.927368 -68.989494 347.026367
v 119.429398 -69.087288 343.593048
v 96.125961 -56.578388 347.418213
v 117.545654 -68.946129 348.927490
v 111.769997 -66.035362 351.993011
v 106.525391 -63.533260 355.335938
v 100.355469 -60.286678 357.261719
v 103.655762 -59.846188 358.851746
v 100.743683 -64.389587 -20.616037
v 98.385300 -60.493397 -23.597109
v 96.028061 -60.483471 -23.160013
v 94.426666 -58.778774 -21.562143
v 93.560402 -57.184196 -16.942709
v 93.481262 -61.980190 -18.950266
v 91.567169 -56.927975 -12.106394
v 88.117523 -59.854553 -11.131907
v 86.178955 -60.017151 -8.308847
v 103.243713 -69.455788 -3.498058
v 85.034378 -55.502167 -5.510690
v 84.396500 -56.925793 1.655722
v 101.889664 -59.882347 28.311144
v 101.495003 -63.405903 20.197090
v 90.169998 -61.983902 29.188391
v 99.812836 -67.236237 17.007313
v 102.671936 -63.337051 49.178699
v 92.152832 -61.388222 45.689198
v 100.814178 -65.352547 49.326160
v 101.058632 -64.593132 72.894264
v 92.604950 -62.509964 94.428703
v 93.765404 -62.185318 127.483994
v 93.922195 -62.050999 155.474716
v 96.317108 -63.565659 181.327133
v 105.692627 -67.636017 197.742172
v 98.583328 -61.580719 226.279037
v 102.557510 -67.394875 232.604874
v 105.557510 -69.169991 228.514145
v 99.143501 -61.741047 273.423004
v 104.213188 -67.194191 292.403015
v 106.320526 -66.135880 286.710693
v 100.364166 -66.253113 294.770996
v 99.951935 -66.910698 310.010254
v 96.963196 -60.080559 318.842285
v 109.535004 -65.231354 320.716003
v 104.252731 -68.625389 316.139526
v 98.231300 -66.802155 325.148010
v 110.377998 -76.510353 340.998993
v 106.601997 -70.025253 325.714996
v 94.175537 -65.518188 341.121582
v 116.999268 -73.267769 345.167297
v 96.537140 -63.337215 352.794678
v 109.206787 -68.701721 351.929688
v 96.662140 -63.330231 352.809814
v 96.512802 -63.917397 -22.613609
v 96.528732 -63.972885 -22.664392
v 95.241753 -66.276535 -21.121548
v 100.656418 -71.830505 -10.775768
v 89.498840 -62.303829 -14.569102
v 93.319862 -70.935944 -14.044781
v 86.729202 -63.022800 -2.670740
v 86.390137 -62.454216 4.140920
v 100.023575 -68.539246 8.926991
v 91.913933 -67.183601 18.785999
v 95.640640 -67.211647 29.831043
v 93.053902 -64.883606 35.994987
v 93.460571 -64.126106 55.749989
v 95.106476 -65.035141 57.373280
v 94.658997 -64.872818 83.431091
v 94.658997 -64.872818 83.431091
v 99.839104 -65.534012 93.548996
v 93.800385 -62.136761 127.272209
v 98.415894 -66.313492 100.824211
v 93.412399 -61.894619 119.100990
v 93.412399 -61.894619 119.100990
v 101.160004 -66.147400 148.925766
v 101.927109 -66.225677 169.982040
v 107.787186 -68.880127 231.828690
v 106.165955 -69.779640 247.020981
v 102.120117 -69.145554 275.992188
v 103.970001 -70.005447 265.075012
v 105.971001 -68.967545 265.341003
v 104.091797 -70.107956 264.421875
v 101.403000 -67.292442 297.416992
v 101.984390 -68.108070 310.314728
v 102.119568 -68.506401 314.011719
v 102.169998 -72.818756 332.036987
v 100.285599 -73.465782 339.230957
v 96.454597 -69.122551 337.781006
v 108.650703 -78.365761 344.344391
v 98.898193 -71.304985 345.002930
v 115.793823 -73.382805 348.941772
v 109.186676 -77.672173 347.450439
v 108.764404 -74.215874 349.781250
v 103.096069 -71.190727 348.677246
v 96.346298 -65.881950 349.540985
v 95.591370 -68.957031 -19.008312
v 96.567513 -73.967438 -10.766675
v 94.611023 -73.825439 -10.549436
v 99.999985 -73.281654 -6.542782
v 96.783852 -74.596420 -6.706997
v 101.424072 -70.445068 2.226551
v 93.697952 -73.846573 -3.563916
v 94.646492 -70.671783 4.744495
v 89.805473 -66.856628 3.414570
v 94.438660 -69.057266 11.035633
v 104.840729 -76.922234 343.882080
vn 0.4831 0.5442 -0.6859
vn -0.0133 0.9468 -0.3215
vn 0.6027 0.7868 -0.1329
vn 0.9547 0.2242 -0.1954
vn 0.9220 0.3683 0.1194
vn 0.0636 0.9963 0.0581
vn -0.3963 0.9131 -0.0963
vn 0.5796 0.8012 0.1489
vn -0.0857 0.9935 0.0753
vn 0.7333 0.6799 -0.0078
vn 0.9414 0.3345 -0.0436
vn 0.4795 0.8766 -0.0402
vn -0.1050 0.9945 0.0017
vn 0.0559 0.9984 0.0089
vn 0.7431 0.6690 0.0157
vn 0.0397 0.9992 0.0036
vn 0.5638 0.8259 -0.0021
vn 0.9977 -0.0185 -0.0657
vn 0.9972 0.0654 -0.0356
vn 0.7672 0.6389 -0.0569
vn -0.5721 0.8197 -0.0279
vn -0.0194 0.9998 -0.0066
vn -0.6691 0.7430 0.0166
vn -0.2926 0.9562 0.0011
vn 0.3734 0.9238 -0.0845
vn 0.7415 0.5977 -0.3050
vn 0.9377 0.0538 -0.3433
vn -0.0135 0.9992 -0.0372
vn 0.5896 0.8040 -0.0770
vn -0.6274 0.7758 -0.0667
vn 0.8537 0.4611 -0.2422
vn 0.8360 0.5162 0.1858
vn 0.3425 0.9359 0.0831
vn -0.1862 0.9823 0.0218
vn -0.5167 0.8543 -0.0572
vn 0.6748 0.1903 0.7131
vn 0.4595 0.7980 0.3900
vn 0.8662 0.0501 0.4972
vn -0.0850 0.8807 0.4661
vn -0.5369 0.5290 0.6572
vn 0.2269 -0.1886 0.9555
vn 0.0551 0.5490 0.8340
vn 0.5555 -0.0651 -0.8289
vn -0.1881 0.2754 -0.9427
vn -0.2909 -0.2044 -0.9347
vn 0.9188 -0.0655 -0.3892
vn -0.4621 0.5862 -0.6655
vn -0.6421 0.6831 -0.3481
vn -0.8774 -0.0756 -0.4737
vn -0.8538 0.3633 -0.3729
vn 0.9994 0.0323 0.0086
vn 0.9309 -0.3170 -0.1814
vn 0.1377 0.9880 0.0696
vn -0.4679 0.8826 -0.0460
vn -0.8620 0.4851 -0.1469
vn 0.8914 0.4311 0.1402
vn 0.4986 0.8580 0.1235
vn -0.2386 0.9707 0.0291
vn 0.6970 0.7169 -0.0138
vn -0.1833 0.9829 0.0196
vn 0.2210 0.9747 0.0326
vn -0.2463 0.9684 0.0400
vn 0.7606 0.6492 -0.0112
vn -0.9908 0.0768 0.1114
vn -0.9784 -0.2052 0.0233
vn -0.9884 0.0943 0.1194
vn -0.6469 0.7579 0.0838
vn -0.0547 0.9970 0.0543
vn 0.9950 0.0986 -0.0171
vn -0.9208 0.3882 0.0378
vn 0.0959 0.9946 -0.0389
vn -0.5498 0.8336 0.0530
vn 0.2539 0.9665 0.0364
vn 0.9038 0.4278 -0.0105
vn 0.8559 -0.5140 -0.0568
vn -0.9601 0.2719 0.0650
vn -0.4721 0.8813 0.0183
vn -0.7702 0.6374 0.0214
vn 0.9649 -0.2607 -0.0303
vn 0.9371 -0.3472 -0.0363
vn -0.6398 0.7681 0.0269
vn -0.9965 0.0739 0.0398
vn -0.9652 0.2606 0.0209
vn -0.9126 0.4080 -0.0278
vn 0.9391 -0.3435 0.0093
vn 0.8317 -0.5504 -0.0725
vn -0.9561 0.2900 -0.0420
vn -0.9986 -0.0525 0.0002
vn -0.7888 0.6147 -0.0029
vn -0.6356 0.7689 -0.0690
vn -0.9526 0.2257 -0.2042
vn 0.9493 0.0249 -0.3134
vn 0.7726 -0.4488 -0.4491
vn 0.8157 -0.4215 -0.3961
vn -0.9709 0.2308 0.0632
vn -0.7307 0.6401 0.2375
vn 0.9956 0.0879 0.0318
vn 0.9044 -0.2209 0.3651
vn 0.9310 -0.3570 -0.0758
vn 0.5172 -0.4125 0.7499
vn 0.4012 -0.3244 0.8566
vn 0.1205 -0.6234 0.7725
vn -0.6180 -0.1448 0.7728
vn -0.2096 -0.2615 0.9422
vn 0.1629 -0.3226 -0.9324
vn 0.6664 -0.4622 -0.5850
vn -0.5295 -0.2719 -0.8036
vn -0.9561 -0.1226 -0.2663
vn -0.9031 -0.1874 -0.3865
vn -0.8598 0.1168 -0.4971
vn -0.7745 0.1520 -0.6140
vn -0.7712 0.2310 -0.5932
vn -0.7204 0.2853 -0.6322
vn 0.9010 -0.4254 0.0855
vn 0.9930 -0.0658 0.0979
vn -0.9910 0.0141 0.1331
vn -0.9469 0.0662 -0.3145
vn -0.9156 -0.1907 -0.3541
vn -0.9834 0.1509 0.1008
vn -0.9988 -0.0434 0.0213
vn 0.9658 0.2581 0.0251
vn 0.9512 -0.3073 0.0272
vn -0.9407 -0.3075 0.1436
vn 0.6353 -0.7696 0.0638
vn 0.9511 -0.3087 -0.0031
vn -0.9462 -0.3179 0.0598
vn 0.3848 -0.9213 0.0558
vn 0.6224 -0.7826 0.0091
vn 0.8662 -0.4992 -0.0239
vn -0.9770 -0.2125 0.0148
vn -0.9911 -0.1319 0.0202
vn -0.9203 -0.3810 0.0892
vn -0.8147 -0.5793 0.0255
vn 0.4470 -0.8917 -0.0713
vn -0.9159 -0.3974 0.0568
vn -0.6701 -0.7419 -0.0221
vn -0.1669 -0.9847 -0.0507
vn 0.7323 -0.6809 0.0114
vn -0.9832 -0.1822 0.0125
vn -0.8970 -0.4403 -0.0377
vn 0.7015 -0.7121 0.0275
vn 0.4082 -0.9105 0.0662
vn -0.8140 -0.5738 -0.0905
vn -0.9831 0.1172 -0.1410
vn 0.7435 -0.6239 -0.2407
vn 0.4618 -0.8721 -0.1620
vn 0.4553 -0.8017 -0.3872
vn 0.4375 -0.8311 -0.3433
vn -0.9051 -0.4017 -0.1393
vn -0.9670 -0.2549 0.0038
vn 0.7124 -0.7005 -0.0412
vn 0.6115 -0.1264 0.7811
vn -0.9059 0.1711 0.3873
vn 0.0788 -0.3750 0.9237
vn 0.5377 -0.5721 0.6193
vn -0.2769 -0.6936 0.6650
vn -0.5997 -0.0949 -0.7946
vn -0.1502 -0.4135 -0.8980
vn -0.4564 -0.4283 -0.7799
vn -0.8575 0.0399 -0.5129
vn -0.6830 -0.6085 -0.4039
vn -0.9039 -0.4250 -0.0479
vn -0.8819 -0.4616 0.0959
vn 0.5953 -0.7684 0.2347
vn -0.6005 -0.7933 0.1004
vn -0.2683 -0.9587 0.0947
vn -0.7846 -0.6148 0.0805
vn -0.7801 -0.6254 0.0166
vn -0.1900 -0.9817 0.0161
vn -0.1955 -0.9802 -0.0306
vn -0.6744 -0.7376 0.0347
vn 0.3613 -0.9317 -0.0376
vn -0.5335 -0.8451 0.0338
vn -0.0649 -0.9947 0.0797
vn -0.9838 -0.1756 0.0351
vn -0.9483 -0.3166 0.0231
vn -0.0267 -0.9996 -0.0102
vn -0.4166 -0.9089 0.0188
vn 0.3312 -0.9406 0.0741
vn -0.4989 -0.8644 0.0632
vn -0.4520 -0.8910 -0.0424
vn 0.7481 -0.6592 0.0763
vn 0.4984 -0.8669 0.0059
vn -0.3932 -0.9182 0.0475
vn -0.0213 -0.9959 -0.0881
vn -0.4178 -0.8919 -0.1730
vn -0.1623 -0.9551 -0.2479
vn -0.6083 -0.7911 -0.0645
vn -0.8223 -0.5538 -0.1309
vn 0.0194 -0.9992 -0.0337
vn -0.6695 -0.6640 0.3330
vn 0.0029 -0.8406 0.5417
vn -0.3897 -0.5681 0.7248
vn -0.1210 -0.4853 0.8659
vn -0.7263 -0.5446 0.4194
vn -0.1188 -0.7501 -0.6506
vn 0.6512 -0.6907 -0.3143
vn 0.1757 -0.9219 -0.3453
vn -0.4948 -0.8341 -0.2438
vn 0.5594 -0.8287 0.0190
vn 0.1301 -0.9904 0.0467
vn 0.6422 -0.7112 0.2861
vn -0.4531 -0.8785 0.1516
vn -0.7548 -0.6428 0.1307
vn -0.2440 -0.9231 0.2974
vn -0.2475 -0.9572 0.1500
vn -0.4615 -0.8814 0.1008
usemtl mtl1
s 1
f 2//1 3//2 1//3
f 2//1 1//3 4//4
f 1//3 5//5 4//4
f 1//3 3//2 6//6
f 3//2 7//7 6//6
f 1//3 6//6 8//8
f 8//8 5//5 1//3
f 6//6 9//9 8//8
f 12//10 13//11 10//12
f 11//13 14//14 10//12
f 10//12 14//14 12//10
f 14//14 15//15 12//10
f 14//14 16//16 15//15
f 15//15 16//16 17//17
f 18//18 19//19 15//15
f 15//15 17//17 18//18
f 20//20 18//18 17//17
f 16//16 89//21 21//22
f 16//16 21//22 17//17
f 17//17 21//22 20//20
f 22//23 21//22 89//21
f 21//22 22//23 23//24
f 20//20 21//22 24//25
f 24//25 21//22 23//24
f 25//26 26//27 20//20
f 20//20 24//25 25//26
f 23//24 27//28 24//25
f 24//25 28//29 25//26
f 24//25 27//28 28//29
f 29//30 27//28 23//24
f 30//31 25//26 28//29
f 30//31 28//29 31//32
f 28//29 27//28 32//33
f 33//34 32//33 27//28
f 27//28 34//35 33//34
f 36//36 31//32 35//37
f 37//38 31//32 36//36
f 32//33 31//32 28//29
f 32//33 35//37 31//32
f 33//34 39//39 32//33
f 39//39 35//37 32//33
f 33//34 40//40 39//39
f 42//41 36//36 41//42
f 36//36 35//37 41//42
f 35//37 39//39 41//42
f 41//42 39//39 40//40
f 2//1 43//43 44//44
f 44//44 43//43 45//45
f 46//46 2//1 4//4
f 2//1 46//46 43//43
f 48//47 3//2 2//1
f 3//2 48//47 47//48
f 44//44 48//47 2//1
f 47//48 48//47 49//49
f 49//49 50//50 47//48
f 51//51 4//4 5//5
f 52//52 4//4 51//51
f 46//46 4//4 52//52
f 7//7 3//2 47//48
f 50//50 7//7 47//48
f 9//9 54//53 8//8
f 9//9 6//6 55//54
f 7//7 50//50 55//54
f 6//6 7//7 55//54
f 55//54 50//50 56//55
f 5//5 8//8 57//56
f 8//8 59//57 57//56
f 8//8 54//53 59//57
f 55//54 54//53 9//9
f 55//54 60//58 54//53
f 59//57 61//59 57//56
f 59//57 54//53 61//59
f 60//58 64//60 54//53
f 54//53 66//61 61//59
f 54//53 64//60 66//61
f 64//60 67//62 66//61
f 61//59 66//61 68//63
f 65//64 70//65 69//66
f 66//61 72//67 71//68
f 72//67 66//61 67//62
f 66//61 71//68 68//63
f 68//63 73//69 61//59
f 72//67 74//70 71//68
f 68//63 71//68 76//71
f 77//72 71//68 74//70
f 71//68 77//72 76//71
f 79//73 68//63 76//71
f 68//63 79//73 78//74
f 78//74 80//75 73//69
f 74//70 81//76 77//72
f 73//69 68//63 78//74
f 79//73 76//71 77//72
f 79//73 77//72 82//77
f 11//13 79//73 82//77
f 77//72 83//78 82//77
f 81//76 83//78 77//72
f 11//13 10//12 79//73
f 78//74 79//73 13//11
f 78//74 13//11 84//79
f 13//11 79//73 10//12
f 13//11 12//10 19//19
f 13//11 19//19 85//80
f 82//77 83//78 87//81
f 86//82 87//81 83//78
f 19//19 12//10 15//15
f 11//13 82//77 14//14
f 86//82 88//83 87//81
f 82//77 87//81 14//14
f 16//16 14//14 87//81
f 87//81 89//21 16//16
f 89//21 87//81 88//83
f 88//83 90//84 89//21
f 19//19 18//18 91//85
f 93//86 91//85 18//18
f 90//84 22//23 89//21
f 22//23 90//84 94//87
f 92//88 94//87 90//84
f 94//87 95//89 22//23
f 93//86 18//18 26//27
f 22//23 95//89 23//24
f 18//18 20//20 26//27
f 95//89 96//90 23//24
f 96//90 97//91 29//30
f 26//27 25//26 98//92
f 23//24 96//90 29//30
f 98//92 25//26 30//31
f 99//93 98//92 100//94
f 98//92 99//93 26//27
f 29//30 101//95 105//96
f 98//92 30//31 102//97
f 31//32 102//97 30//31
f 100//94 98//92 102//97
f 37//38 102//97 31//32
f 37//38 103//98 102//97
f 104//99 100//94 102//97
f 104//99 102//97 103//98
f 27//28 29//30 34//35
f 34//35 29//30 105//96
f 34//35 105//96 33//34
f 40//40 33//34 105//96
f 37//38 36//36 38//100
f 107//101 37//38 38//100
f 38//100 108//102 107//101
f 40//40 105//96 109//103
f 38//100 36//36 42//41
f 41//42 110//104 42//41
f 38//100 42//41 108//102
f 108//102 42//41 110//104
f 110//104 41//42 40//40
f 110//104 40//40 109//103
f 49//49 44//44 45//45
f 43//43 112//105 45//45
f 43//43 111//106 112//105
f 112//105 113//107 45//45
f 111//106 43//43 46//46
f 44//44 49//49 48//47
f 45//45 113//107 49//49
f 115//108 49//49 114//109
f 114//109 49//49 113//107
f 116//110 117//111 115//108
f 50//50 49//49 115//108
f 115//108 117//111 50//50
f 50//50 117//111 53//112
f 118//113 53//112 117//111
f 53//112 56//55 50//50
f 52//52 51//51 120//114
f 5//5 58//115 51//51
f 56//55 62//116 55//54
f 121//117 56//55 53//112
f 121//117 53//112 119//118
f 51//51 58//115 120//114
f 5//5 57//56 58//115
f 56//55 63//119 62//116
f 122//120 63//119 56//55
f 122//120 56//55 121//117
f 57//56 123//121 58//115
f 123//121 124//122 58//115
f 125//123 62//116 63//119
f 126//124 124//122 127//125
f 127//125 124//122 123//121
f 57//56 61//59 123//121
f 62//116 125//123 128//126
f 129//127 126//124 127//125
f 129//127 127//125 130//128
f 128//126 70//65 62//116
f 127//125 123//121 73//69
f 127//125 73//69 130//128
f 62//116 70//65 65//64
f 61//59 73//69 123//121
f 130//128 73//69 75//129
f 69//66 131//130 72//67
f 72//67 131//130 74//70
f 80//75 75//129 73//69
f 132//131 133//132 74//70
f 84//79 80//75 78//74
f 81//76 74//70 133//132
f 134//133 81//76 133//132
f 135//134 84//79 85//80
f 80//75 84//79 135//134
f 84//79 13//11 85//80
f 136//135 81//76 134//133
f 137//136 134//133 138//137
f 134//133 137//136 136//135
f 86//82 83//78 81//76
f 81//76 136//135 86//82
f 85//80 19//19 178//138
f 86//82 136//135 88//83
f 139//139 88//83 136//135
f 178//138 19//19 91//85
f 139//139 136//135 137//136
f 88//83 139//139 90//84
f 139//139 92//88 90//84
f 142//140 92//88 139//139
f 91//85 93//86 141//141
f 141//141 93//86 140//142
f 92//88 142//140 143//143
f 92//88 143//143 94//87
f 143//143 144//144 94//87
f 94//87 144//144 95//89
f 145//145 26//27 99//93
f 145//145 93//86 26//27
f 93//86 145//145 146//146
f 96//90 95//89 144//144
f 148//147 149//148 99//93
f 149//148 145//145 99//93
f 96//90 144//144 97//91
f 97//91 144//144 147//149
f 29//30 97//91 101//95
f 97//91 150//150 101//95
f 104//99 151//151 100//94
f 103//98 37//38 106//152
f 104//99 103//98 151//151
f 37//38 107//101 106//152
f 150//150 152//153 101//95
f 105//96 101//95 152//153
f 152//153 109//103 105//96
f 153//154 106//152 107//101
f 192//155 106//152 153//154
f 108//102 153//154 107//101
f 154//156 153//154 108//102
f 108//102 110//104 154//156
f 109//103 154//156 110//104
f 113//107 112//105 155//157
f 112//105 111//106 156//158
f 155//157 157//159 113//107
f 156//158 157//159 155//157
f 157//159 114//109 113//107
f 157//159 116//110 114//109
f 115//108 114//109 116//110
f 116//110 157//159 159//160
f 159//160 117//111 116//110
f 111//106 46//46 52//52
f 118//113 117//111 159//160
f 53//112 118//113 119//118
f 119//118 118//113 159//160
f 159//160 160//161 119//118
f 121//117 119//118 161//162
f 121//117 161//162 122//120
f 161//162 162//163 122//120
f 122//120 162//163 63//119
f 163//164 58//115 124//122
f 164//165 125//123 162//163
f 162//163 125//123 63//119
f 126//124 163//164 124//122
f 165//166 166//167 164//165
f 164//165 166//167 125//123
f 165//166 167//168 166//167
f 165//166 129//127 168//169
f 165//166 168//169 167//168
f 125//123 166//167 128//126
f 166//167 167//168 128//126
f 129//127 130//128 168//169
f 128//126 167//168 70//65
f 167//168 168//169 169//170
f 167//168 170//171 70//65
f 169//170 168//169 171//172
f 168//169 130//128 171//172
f 171//172 130//128 75//129
f 70//65 170//171 131//130
f 70//65 131//130 69//66
f 170//171 172//173 131//130
f 171//172 173//174 169//170
f 171//172 75//129 80//75
f 173//174 171//172 80//75
f 172//173 170//171 173//174
f 131//130 174//175 74//70
f 131//130 172//173 175//176
f 132//131 74//70 174//175
f 176//177 172//173 173//174
f 80//75 176//177 173//174
f 176//177 177//178 172//173
f 135//134 177//178 176//177
f 172//173 134//133 133//132
f 176//177 80//75 135//134
f 177//178 134//133 172//173
f 138//137 134//133 177//178
f 138//137 177//178 135//134
f 135//134 85//80 178//138
f 135//134 178//138 138//137
f 178//138 179//179 138//137
f 137//136 138//137 180//180
f 139//139 137//136 180//180
f 179//179 181//181 138//137
f 138//137 181//181 180//180
f 178//138 91//85 182//182
f 178//138 182//182 179//179
f 182//182 183//183 179//179
f 91//85 141//141 182//182
f 141//141 183//183 182//182
f 140//142 180//180 183//183
f 141//141 140//142 183//183
f 142//140 139//139 180//180
f 180//180 184//184 142//140
f 180//180 140//142 184//184
f 184//184 140//142 185//185
f 184//184 186//186 142//140
f 146//146 140//142 93//86
f 140//142 146//146 185//185
f 142//140 186//186 143//143
f 149//148 146//146 145//145
f 146//146 149//148 187//187
f 146//146 187//187 185//185
f 186//186 187//187 188//188
f 147//149 144//144 143//143
f 186//186 188//188 143//143
f 143//143 188//188 147//149
f 147//149 188//188 189//189
f 189//189 97//91 147//149
f 148//147 190//190 149//148
f 97//91 189//189 150//150
f 100//94 148//147 99//93
f 148//147 100//94 151//151
f 150//150 189//189 191//191
f 189//189 188//188 191//191
f 192//155 151//151 103//98
f 106//152 192//155 103//98
f 192//155 193//192 151//151
f 195//193 193//192 194//194
f 196//195 195//193 154//156
f 196//195 191//191 195//193
f 150//150 196//195 152//153
f 150//150 191//191 196//195
f 153//154 194//194 192//155
f 192//155 194//194 193//192
f 153//154 195//193 194//194
f 195//193 153//154 154//156
f 156//158 111//106 197//196
f 157//159 156//158 197//196
f 158//197 197//196 111//106
f 197//196 158//197 198//198
f 199//199 160//161 197//196
f 198//198 199//199 197//196
f 160//161 159//160 157//159
f 157//159 197//196 160//161
f 158//197 111//106 52//52
f 52//52 120//114 158//197
f 200//200 158//197 120//114
f 158//197 200//200 198//198
f 200//200 201//201 198//198
f 200//200 202//202 201//201
f 119//118 160//161 161//162
f 202//202 120//114 58//115
f 120//114 202//202 200//200
f 202//202 163//164 203//203
f 201//201 202//202 203//203
f 161//162 160//161 203//203
f 203//203 205//204 161//162
f 203//203 204//205 205//204
f 161//162 205//204 162//163
f 202//202 58//115 163//164
f 163//164 204//205 203//203
f 206//206 164//165 205//204
f 206//206 205//204 204//205
f 162//163 205//204 164//165
f 163//164 126//124 204//205
f 126//124 206//206 204//205
f 129//127 206//206 126//124
f 206//206 129//127 165//166
f 206//206 165//166 164//165
f 149//148 190//190 187//187
f 190//190 188//188 187//187
f 151//151 190//190 148//147
f 207//207 188//188 190//190
f 191//191 188//188 207//207
f 190//190 151//151 193//192
f 207//207 190//190 193//192
f 195//193 191//191 193//192
f 193//192 191//191 207//207
f 198//198 201//201 199//199
f 199//199 203//203 160//161
f 199//199 201//201 203//203
