#
# The license for this database is specified in the Creative Commons Attribution-Share Alike 2.1 Japan. If you use data from this database, please be sure attribute this database as follows: "BodyParts3D, (c)  The Database Center for Life Science licensed under CC Attribution-Share Alike 2.1 Japan".
# http://dbarchive.biosciencedbc.jp/en/bodyparts3d/lic.html
#
#
# Compatibility version : 4.0
# File ID : FJ3292
# Representation ID : BP9777
# Build-up logic : FMA 3.0 part_of
# Concept ID : FMA24457
# English name : Middle phalanx of right ring finger
# Bounds(mm): (-254.293000,-180.567000,669.704000)-(-242.763000,-156.536000,693.604000)
# Volume(cm3): 0.965000
#
v -254.293 -161.89 690.247
v -253.746 -178.684 673.815
v -253.599 -179.442 673.423
v -253.242 -179.55 673.417
v -254.033 -177.373 673.947
v -254.066 -179.099 672.864
v -253.738 -179.747 672.615
v -253.933 -179.344 671.896
v -248.919 -164.14 693.169
v -252.432 -162.783 692.368
v -250.892 -161.922 693.228
v -253.28 -159.169 690.751
v -252.873 -163.486 690.67
v -253.895 -160.788 691.052
v -253.318 -159.093 689.62
v -253.262 -163.092 688.243
v -252.8 -163.678 687.097
v -251.714 -164.165 687.831
v -253.898 -161.214 688.066
v -253.449 -163.184 686.078
v -252.833 -163.934 686.255
v -252.873 -164.114 685.643
v -253.588 -162.299 685.902
v -253.504 -164.686 683.915
v -253.562 -164.25 683.647
v -252.653 -173.114 675.821
v -253.232 -175.403 674.519
v -253.529 -175.271 674.049
v -251.468 -176.103 675.099
v -250.734 -179.389 673.733
v -250.523 -178.884 674.091
v -252.509 -178.878 674.161
v -252.175 -179.714 673.271
v -252.001 -177.682 674.447
v -251.708 -178.252 674.392
v -251.221 -177.865 674.401
v -253.501 -177.462 674.275
v -254.086 -176.433 672.747
v -253.51 -174.789 673.541
v -253.029 -179.984 672.612
v -253.304 -180.062 671.721
v -252.814 -180.148 671.974
v -253.232 -179.848 670.97
v -253.583 -178.978 671.008
v -252.582 -180.09 671.252
v -253.096 -178.18 670.24
v -252.623 -179.677 670.253
v -252.776 -179.345 670.198
v -248.613 -162.591 693.604
v -247.804 -162.123 693.239
v -247.851 -164.674 692.18
v -247.244 -164.646 692.008
v -252.887 -161.27 685.963
v -253.255 -163.323 683.821
v -250.618 -167.923 682.726
v -248.91 -169.039 682.178
v -252.849 -166.1 680.358
v -252.772 -167.76 680.474
v -253.08 -167.23 680.365
v -249.805 -172.618 678.15
v -248.623 -172.533 678.38
v -252.685 -170.856 677.323
v -252.851 -169.162 678.591
v -252.893 -169.492 677.59
v -247.63 -179.186 674.788
v -247.825 -179.488 674.554
v -249.286 -176.451 675.244
v -252.509 -171.24 674.748
v -250.014 -179.052 674.065
v -249.982 -178.65 674.17
v -249.81 -179.74 673.406
v -249.342 -179.35 674.035
v -249.305 -178.853 674.318
v -249.289 -180.082 672.519
v -250.152 -178.03 674.249
v -252.507 -174.936 671.777
v -252.822 -173.928 672.799
v -251.08 -178.467 669.981
v -250.796 -177.823 669.93
v -250.68 -176.992 670.165
v -252.777 -177.543 670.109
v -252.583 -178.023 669.816
v -251.867 -177.564 669.704
v -251.953 -177.096 669.885
v -251.466 -177.234 669.869
v -246.252 -163.305 693.601
v -245.637 -163.764 693.463
v -244.903 -163.279 693.341
v -244.346 -163.444 693.037
v -244.372 -162.956 692.937
v -244.842 -163.99 693.058
v -245.094 -164.831 691.805
v -244.636 -164.657 692.08
v -244.224 -164.734 691.223
v -245.862 -164.428 692.845
v -245.72 -164.845 689.06
v -251.662 -165.557 679.607
v -249.426 -167.211 677.227
v -247.296 -175.409 676.074
v -246.17 -174.928 675.958
v -251.477 -169.653 675.378
v -246.524 -179.882 674.454
v -245.571 -179.728 674.227
v -245.912 -178.05 675.041
v -245.499 -177.948 674.735
v -245.79 -176.506 675.2
v -248.982 -173.477 672.514
v -246.532 -180.567 673.182
v -245.667 -180.336 673.514
v -245.409 -180.2 673.333
v -245.997 -180.444 672.089
v -245.31 -179.584 673.397
v -245.623 -179.948 671.759
v -245.716 -179.068 671.425
v -245.971 -179.396 670.927
v -246.24 -179.622 670.779
v -248.708 -177.665 670.215
v -243.493 -163.945 691.777
v -243.151 -163.971 690.702
v -242.982 -162.662 691.363
v -243.662 -161.081 690.716
v -247.138 -158.023 690.024
v -247.713 -156.536 689.458
v -243.898 -164.183 688.895
v -243.652 -163.449 687.454
v -247.459 -157.723 687.322
v -244.693 -165.476 685.841
v -244.156 -165.255 685.172
v -244.355 -165.731 683.389
v -246.008 -171.332 678.466
v -245.812 -169.827 679.898
v -245.643 -170.945 678.59
v -245.178 -169.394 679.765
v -246.926 -167.575 677.709
v -246.105 -173.046 677.06
v -245.585 -172.211 676.794
v -245.423 -169.688 677.907
v -245.725 -174.77 675.344
v -245.589 -175.975 674.636
v -245.425 -176.097 673.603
v -245.32 -176.849 673.316
v -245.434 -176.313 672.947
v -246.453 -174.746 672.885
v -245.659 -174.945 674.137
v -245.323 -177.705 672.89
v -245.81 -178.674 671.184
v -245.966 -177.619 671.153
v -246.212 -175.917 672.084
v -245.812 -178.905 670.975
v -246.596 -177.48 670.689
v -246.261 -178.774 670.548
v -242.763 -162.509 689.59
v -244.309 -158.969 689.698
v -243.574 -159.367 689.014
v -245.63 -157.186 688.642
v -245.195 -157.94 688.076
v -243.412 -161.624 688.047
v -244.058 -159.699 687.851
v -244.326 -163.041 685.507
v -245.557 -160.453 685.845
v -254.293 -161.89 690.247
v -253.746 -178.684 673.815
v -253.599 -179.442 673.423
v -253.738 -179.747 672.615
v -248.919 -164.14 693.169
v -250.892 -161.922 693.228
v -253.28 -159.169 690.751
v -253.28 -159.169 690.751
v -253.28 -159.169 690.751
v -253.28 -159.169 690.751
v -253.895 -160.788 691.052
v -253.318 -159.093 689.62
v -253.898 -161.214 688.066
v -253.588 -162.299 685.902
v -252.653 -173.114 675.821
v -253.51 -174.789 673.541
v -253.304 -180.062 671.721
v -253.232 -179.848 670.97
v -252.623 -179.677 670.253
v -252.623 -179.677 670.253
v -252.776 -179.345 670.198
v -248.613 -162.591 693.604
v -247.851 -164.674 692.18
v -247.851 -164.674 692.18
v -252.772 -167.76 680.474
v -252.685 -170.856 677.323
v -252.851 -169.162 678.591
v -252.893 -169.492 677.59
v -252.509 -171.24 674.748
v -252.509 -171.24 674.748
v -252.583 -178.023 669.816
v -246.252 -163.305 693.601
v -244.903 -163.279 693.341
v -246.17 -174.928 675.958
v -245.571 -179.728 674.227
v -245.499 -177.948 674.735
v -245.79 -176.506 675.2
v -245.409 -180.2 673.333
v -245.409 -180.2 673.333
v -246.24 -179.622 670.779
v -246.24 -179.622 670.779
v -243.151 -163.971 690.702
v -242.982 -162.662 691.363
v -243.662 -161.081 690.716
v -243.662 -161.081 690.716
v -247.713 -156.536 689.458
v -247.713 -156.536 689.458
v -243.898 -164.183 688.895
v -244.156 -165.255 685.172
v -245.643 -170.945 678.59
v -245.178 -169.394 679.765
v -246.105 -173.046 677.06
v -245.423 -169.688 677.907
v -245.812 -178.905 670.975
v -242.763 -162.509 689.59
v -242.763 -162.509 689.59
v -243.574 -159.367 689.014
v -245.63 -157.186 688.642
v -245.63 -157.186 688.642
vn -0.860959 -0.463424 0.209731
vn -0.851499 -0.31094 0.422214
vn -0.800095 -0.45696 0.388633
vn -0.135304 -0.799062 0.585827
vn -0.853245 -0.0156198 0.521277
vn -0.940605 -0.282678 0.188029
vn -0.833674 -0.54894 0.060441
vn -0.908726 -0.344748 -0.235302
vn -0.0762543 -0.539771 0.838351
vn -0.612329 -0.368208 0.699625
vn 0.0384851 0.633835 0.77251
vn 0.101462 0.744233 0.660169
vn -0.527238 -0.825673 0.200709
vn -0.6175 0.107409 0.779203
vn -0.790943 0.557882 -0.251348
vn -0.766574 -0.641887 0.0185701
vn -0.675164 -0.701327 0.228679
vn -0.513138 -0.827809 0.226762
vn -0.958727 -0.273544 -0.0775665
vn -0.868998 -0.465727 0.167154
vn -0.767013 -0.602692 0.22012
vn -0.69841 -0.631355 0.337067
vn -0.801748 0.476899 -0.360232
vn -0.863109 -0.427412 0.269001
vn -0.970172 0.137918 -0.19936
vn -0.974824 0.0320215 0.220665
vn -0.621177 -0.0795623 0.779621
vn -0.925992 0.160029 0.341951
vn -0.217864 -0.383949 0.897284
vn -0.0812129 -0.658058 0.748575
vn -0.0116141 -0.361911 0.93214
vn -0.121042 -0.519175 0.846054
vn -0.0393829 -0.837983 0.544273
vn -0.0712709 -0.238915 0.968421
vn 0.00501993 -0.201699 0.979435
vn 0.050534 -0.245195 0.968156
vn -0.311186 -0.183191 0.932526
vn -0.939369 0.227819 -0.256288
vn -0.954275 0.224123 0.197809
vn -0.176938 -0.930026 0.322095
vn -0.760399 -0.619104 -0.196224
vn -0.090192 -0.994406 0.0549705
vn -0.201119 -0.922807 -0.3286
vn -0.848587 -0.121338 -0.514954
vn -0.068565 -0.965809 -0.250025
vn -0.762128 0.0575497 -0.644864
vn -0.647155 -0.4049 -0.645946
vn -0.688607 -0.250789 -0.680386
vn 0.086192 0.51502 0.852834
vn 0.141496 0.621814 0.770277
vn -0.385173 -0.8763 0.28938
vn 0.0208692 -0.955411 0.294541
vn -0.603311 0.641603 -0.473667
vn -0.738626 0.508153 -0.442958
vn -0.572065 -0.699008 0.429103
vn 0.0385171 -0.81337 0.58047
vn -0.844115 0.365024 -0.392718
vn -0.712723 -0.569157 0.409984
vn -0.990208 -0.139464 -0.00618345
vn -0.385686 -0.609048 0.693042
vn 0.145028 -0.650199 0.745794
vn -0.964761 -0.18415 0.187951
vn -0.993895 -0.0852091 0.0700931
vn -0.999312 0.00975835 -0.0357693
vn -0.198784 -0.373287 0.906169
vn -0.23703 -0.645463 0.726082
vn -0.13301 -0.478282 0.868075
vn -0.516687 0.570815 -0.638126
vn -0.159074 -0.397182 0.903848
vn -0.163255 -0.204729 0.965108
vn -0.157347 -0.848021 0.506065
vn -0.235707 -0.571103 0.78631
vn -0.270244 -0.319267 0.908315
vn -0.0436376 -0.998937 -0.0148331
vn -0.105059 -0.277186 0.955055
vn -0.444354 0.539187 -0.715421
vn -0.74418 0.445778 -0.497471
vn 0.0927964 -0.174943 -0.980196
vn 0.140923 0.0646207 -0.987909
vn 0.189682 0.367095 -0.910638
vn -0.631472 0.358732 -0.687427
vn -0.516667 0.173993 -0.838321
vn 0.0362099 0.110962 -0.993165
vn -0.194748 0.46286 -0.864774
vn 0.176438 0.266878 -0.947442
vn 0.0231997 -0.2157 0.976184
vn 0.140796 -0.438217 0.887774
vn 0.313668 -0.227154 0.921962
vn 0.639303 -0.124387 0.758828
vn 0.477732 0.461044 0.747804
vn 0.389982 -0.567471 0.725183
vn 0.0613311 -0.978834 0.195247
vn 0.342103 -0.834499 0.431947
vn 0.41608 -0.906067 0.0769399
vn 0.0638921 -0.847083 0.527606
vn 0.190498 -0.977799 0.0872867
vn -0.43599 0.666871 -0.604315
vn 0.0205598 0.676936 -0.735755
vn 0.197798 -0.437218 0.877335
vn 0.273595 -0.431109 0.859821
vn -0.258365 0.621344 -0.739715
vn 0.0255513 -0.695675 0.717902
vn 0.473054 -0.523971 0.708289
vn 0.275365 -0.27126 0.922276
vn 0.614347 -0.184194 0.767236
vn 0.438195 -0.212063 0.873507
vn 0.170919 0.558939 -0.811403
vn -0.0491058 -0.975609 0.213954
vn 0.354132 -0.878433 0.320852
vn 0.642075 -0.62379 0.445676
vn 0.289078 -0.921226 -0.26034
vn 0.997231 -0.0730331 0.0140106
vn 0.853849 -0.359723 -0.376218
vn 0.966377 0.0026964 -0.257116
vn 0.779628 -0.230457 -0.582297
vn -0.0676818 -0.928772 -0.36442
vn 0.156713 0.204707 -0.966197
vn 0.71025 -0.535311 0.457152
vn 0.594395 -0.802664 0.0492482
vn 0.868512 0.0238816 0.495092
vn 0.337168 0.687394 0.643279
vn 0.151805 0.394078 0.906453
vn -0.412188 0.908052 0.0744496
vn 0.45594 -0.888812 0.0461814
vn 0.969332 -0.141735 -0.200763
vn 0.00995257 0.768963 -0.639215
vn 0.462066 -0.814494 0.350849
vn 0.636365 -0.721357 0.273283
vn 0.978956 0.0307623 -0.201737
vn 0.356095 -0.637078 0.683614
vn 0.402521 -0.699061 0.591008
vn 0.469046 -0.615497 0.633372
vn 0.605376 -0.65383 0.453902
vn 0.459406 0.574534 -0.677389
vn 0.319174 -0.553614 0.769181
vn 0.932154 -0.237336 0.273425
vn 0.780186 0.386123 -0.492157
vn 0.947538 -0.0974867 0.304415
vn 0.978837 0.0601605 0.195596
vn 0.987343 0.155227 0.0325452
vn 0.997187 0.067869 0.0318141
vn 0.926127 0.252856 -0.279915
vn 0.633819 0.474904 -0.610524
vn 0.967804 0.203758 -0.14778
vn 0.987985 0.0350845 -0.150514
vn 0.977623 0.138659 -0.158201
vn 0.850839 0.22616 -0.474262
vn 0.625342 0.501436 -0.59792
vn 0.977782 0.00203424 -0.209615
vn 0.401554 0.392904 -0.827273
vn 0.452155 -0.0104323 -0.891878
vn 0.912875 -0.393995 -0.106899
vn 0.489759 0.573835 0.656391
vn 0.776277 0.48968 0.396999
vn 0.191493 0.787549 -0.585745
vn 0.548833 0.604571 -0.577301
vn 0.915328 0.134826 -0.37947
vn 0.756307 0.384039 -0.529635
vn 0.859884 0.264342 -0.436717
vn 0.592457 0.512465 -0.62159
vn -0.945952 0.322809 -0.0311177
vn -0.386286 -0.32688 0.862516
vn -0.268347 -0.744686 0.611091
vn -0.303865 -0.91034 0.280977
vn -0.349756 -0.879408 0.322975
vn -0.407976 -0.0153261 0.912864
vn -0.468875 0.330438 0.819125
vn -0.929944 0.363506 0.0553817
vn 0.0505595 0.327377 0.94354
vn -0.412188 0.908052 0.0744496
vn -0.936994 0.347702 0.033847
vn -0.412188 0.908052 0.0744496
vn -0.842608 0.457153 -0.284645
vn -0.990651 -0.129801 0.0419679
vn -0.488794 -0.416272 0.76668
vn -0.85535 0.401996 -0.326764
vn -0.229839 -0.973086 -0.0166746
vn -0.761869 -0.40884 -0.502399
vn -0.00144343 -0.945449 -0.325767
vn 0.0238163 -0.247742 -0.968533
vn -0.00524636 -0.229844 -0.973213
vn -0.149291 -0.239899 0.95925
vn 0.212666 -0.74526 0.63195
vn 0.289849 -0.925957 0.242055
vn -0.999095 -0.000939247 0.0425227
vn -0.512165 -0.514262 0.687912
vn -0.576854 -0.581616 0.573553
vn -0.851528 -0.432913 0.295782
vn -0.987137 0.146432 -0.0641725
vn -0.854775 0.366175 -0.367799
vn 0.0238079 -0.277208 -0.960515
vn 0.147587 0.46146 0.874798
vn 0.303899 0.437683 0.846214
vn 0.80964 -0.246504 0.532653
vn 0.950348 -0.149271 0.27305
vn 0.978599 -0.00357105 0.205744
vn 0.90754 -0.0259041 0.419165
vn 0.589725 -0.798314 -0.122145
vn 0.984731 -0.164528 0.0568762
vn 0.0886357 -0.287186 -0.953765
vn 0.602715 -0.46238 -0.650338
vn 0.949588 -0.311268 0.0373497
vn 0.88516 0.44124 0.147648
vn 0.160865 0.388141 0.907452
vn 0.848575 0.407154 0.337856
vn -0.148219 0.856833 -0.49383
vn 0.250406 0.507691 0.824346
vn 0.894541 -0.425947 -0.135517
vn 0.980006 -0.191416 -0.0542976
vn 0.958794 -0.258569 0.117711
vn 0.982001 -0.157382 -0.104424
vn 0.823487 -0.37832 0.422781
vn 0.989898 -0.140624 -0.0181012
vn 0.691423 0.0189591 -0.722201
vn 0.895766 0.369972 0.246424
vn 0.936196 0.0974265 -0.337705
vn 0.833105 0.408365 -0.37306
vn 0.56083 0.688134 0.46037
vn 0.720913 0.630875 -0.286847
g grp1
usemtl mtl1
f 10//10 1//1 13//13 
f 13//13 1//1 16//16 
f 3//3 2//2 6//6 
f 2//2 5//5 6//6 
f 4//4 32//32 163//163 
f 32//32 162//162 163//163 
f 32//32 4//4 33//33 
f 37//37 5//5 162//162 
f 5//5 38//38 6//6 
f 6//6 7//7 3//3 
f 6//6 8//8 7//7 
f 7//7 8//8 41//41 
f 40//40 33//33 4//4 
f 163//163 40//40 4//4 
f 164//164 40//40 163//163 
f 8//8 6//6 38//38 
f 177//177 40//40 164//164 
f 87//87 86//86 9//9 
f 87//87 9//9 95//95 
f 13//13 165//165 10//10 
f 165//165 13//13 51//51 
f 49//49 50//50 11//11 
f 166//166 10//10 9//9 
f 166//166 14//14 10//10 
f 11//11 50//50 12//12 
f 167//167 14//14 166//166 
f 13//13 18//18 51//51 
f 10//10 14//14 1//1 
f 16//16 1//1 19//19 
f 161//161 171//171 15//15 
f 173//173 161//161 15//15 
f 15//15 53//53 173//173 
f 171//171 168//168 15//15 
f 51//51 18//18 55//55 
f 13//13 16//16 18//18 
f 17//17 18//18 16//16 
f 20//20 17//17 16//16 
f 19//19 20//20 16//16 
f 23//23 173//173 53//53 
f 21//21 17//17 20//20 
f 18//18 17//17 55//55 
f 21//21 55//55 17//17 
f 55//55 21//21 22//22 
f 21//21 20//20 22//22 
f 22//22 20//20 24//24 
f 22//22 24//24 55//55 
f 24//24 20//20 174//174 
f 20//20 19//19 174//174 
f 174//174 25//25 24//24 
f 25//25 59//59 24//24 
f 24//24 58//58 55//55 
f 59//59 58//58 24//24 
f 54//54 25//25 23//23 
f 57//57 59//59 25//25 
f 57//57 25//25 54//54 
f 64//64 26//26 62//62 
f 29//29 34//34 36//36 
f 36//36 75//75 29//29 
f 29//29 175//175 27//27 
f 26//26 28//28 27//27 
f 74//74 71//71 33//33 
f 30//30 33//33 71//71 
f 30//30 69//69 31//31 
f 32//32 37//37 162//162 
f 30//30 32//32 33//33 
f 35//35 34//34 37//37 
f 37//37 34//34 29//29 
f 37//37 32//32 35//35 
f 35//35 36//36 34//34 
f 32//32 31//31 35//35 
f 31//31 32//32 30//30 
f 36//36 35//35 75//75 
f 75//75 35//35 31//31 
f 5//5 27//27 28//28 
f 5//5 37//37 27//27 
f 5//5 28//28 38//38 
f 27//27 37//37 29//29 
f 38//38 28//28 39//39 
f 38//38 176//176 77//77 
f 26//26 39//39 28//28 
f 40//40 177//177 42//42 
f 177//177 43//43 45//45 
f 41//41 8//8 178//178 
f 178//178 8//8 44//44 
f 40//40 74//74 33//33 
f 40//40 42//42 74//74 
f 42//42 177//177 45//45 
f 8//8 38//38 44//44 
f 42//42 45//45 74//74 
f 47//47 178//178 48//48 
f 178//178 44//44 48//48 
f 179//179 45//45 43//43 
f 74//74 45//45 179//179 
f 44//44 46//46 48//48 
f 38//38 46//46 44//44 
f 38//38 81//81 46//46 
f 46//46 81//81 82//82 
f 78//78 181//181 191//191 
f 48//48 46//46 82//82 
f 180//180 181//181 78//78 
f 49//49 192//192 50//50 
f 86//86 182//182 9//9 
f 52//52 95//95 9//9 
f 52//52 9//9 183//183 
f 184//184 96//96 52//52 
f 166//166 9//9 182//182 
f 50//50 121//121 12//12 
f 184//184 127//127 96//96 
f 127//127 184//184 56//56 
f 23//23 53//53 54//54 
f 56//56 51//51 55//55 
f 60//60 55//55 58//58 
f 97//97 57//57 54//54 
f 53//53 97//97 54//54 
f 56//56 60//60 61//61 
f 56//56 61//61 131//131 
f 55//55 60//60 56//56 
f 59//59 188//188 58//58 
f 185//185 64//64 63//63 
f 59//59 57//57 64//64 
f 57//57 97//97 68//68 
f 175//175 29//29 60//60 
f 67//67 60//60 29//29 
f 61//61 60//60 67//67 
f 175//175 60//60 186//186 
f 60//60 187//187 186//186 
f 63//63 64//64 62//62 
f 60//60 58//58 187//187 
f 26//26 64//64 189//189 
f 57//57 189//189 64//64 
f 101//101 68//68 97//97 
f 102//102 65//65 66//66 
f 73//73 75//75 70//70 
f 73//73 72//72 65//65 
f 73//73 65//65 75//75 
f 65//65 72//72 66//66 
f 67//67 75//75 65//65 
f 29//29 75//75 67//67 
f 189//189 39//39 26//26 
f 176//176 190//190 77//77 
f 101//101 76//76 68//68 
f 66//66 71//71 102//102 
f 108//108 102//102 71//71 
f 31//31 69//69 70//70 
f 72//72 73//73 69//69 
f 70//70 69//69 73//73 
f 72//72 30//30 71//71 
f 69//69 30//30 72//72 
f 71//71 66//66 72//72 
f 74//74 108//108 71//71 
f 75//75 31//31 70//70 
f 101//101 107//107 76//76 
f 76//76 38//38 77//77 
f 68//68 76//76 77//77 
f 116//116 74//74 179//179 
f 78//78 200//200 180//180 
f 107//107 117//117 80//80 
f 117//117 79//79 80//80 
f 76//76 81//81 38//38 
f 76//76 84//84 81//81 
f 81//81 84//84 82//82 
f 78//78 191//191 83//83 
f 84//84 83//83 82//82 
f 107//107 84//84 76//76 
f 78//78 85//85 79//79 
f 85//85 84//84 107//107 
f 83//83 85//85 78//78 
f 84//84 85//85 83//83 
f 79//79 85//85 80//80 
f 107//107 80//80 85//85 
f 88//88 91//91 89//89 
f 87//87 88//88 86//86 
f 193//193 50//50 192//192 
f 88//88 87//87 91//91 
f 89//89 90//90 193//193 
f 90//90 50//50 193//193 
f 90//90 121//121 50//50 
f 95//95 52//52 92//92 
f 95//95 92//92 93//93 
f 91//91 93//93 118//118 
f 91//91 95//95 93//93 
f 52//52 96//96 92//92 
f 94//94 93//93 92//92 
f 92//92 96//96 94//94 
f 91//91 118//118 89//89 
f 94//94 118//118 93//93 
f 91//91 87//87 95//95 
f 204//204 122//122 169//169 
f 97//97 53//53 126//126 
f 98//98 97//97 126//126 
f 131//131 61//61 130//130 
f 135//135 130//130 61//61 
f 97//97 98//98 101//101 
f 104//104 99//99 67//67 
f 104//104 106//106 99//99 
f 100//100 99//99 106//106 
f 197//197 139//139 138//138 
f 61//61 67//67 99//99 
f 135//135 61//61 99//99 
f 135//135 99//99 100//100 
f 197//197 138//138 194//194 
f 107//107 101//101 98//98 
f 102//102 104//104 65//65 
f 104//104 102//102 103//103 
f 103//103 105//105 104//104 
f 195//195 112//112 196//196 
f 112//112 145//145 196//196 
f 67//67 65//65 104//104 
f 105//105 106//106 104//104 
f 196//196 139//139 197//197 
f 139//139 196//196 141//141 
f 140//140 139//139 141//141 
f 145//145 141//141 196//196 
f 108//108 109//109 102//102 
f 109//109 103//103 102//102 
f 109//109 108//108 111//111 
f 74//74 111//111 108//108 
f 116//116 111//111 74//74 
f 110//110 103//103 109//109 
f 198//198 109//109 111//111 
f 195//195 199//199 112//112 
f 113//113 198//198 111//111 
f 113//113 111//111 201//201 
f 112//112 199//199 113//113 
f 145//145 112//112 114//114 
f 112//112 113//113 114//114 
f 113//113 115//115 114//114 
f 149//149 114//114 115//115 
f 114//114 149//149 146//146 
f 117//117 107//107 150//150 
f 113//113 201//201 115//115 
f 200//200 78//78 151//151 
f 117//117 151//151 78//78 
f 115//115 201//201 151//151 
f 79//79 117//117 78//78 
f 118//118 120//120 89//89 
f 119//119 118//118 94//94 
f 119//119 94//94 124//124 
f 120//120 118//118 202//202 
f 89//89 120//120 90//90 
f 90//90 120//120 121//121 
f 202//202 152//152 120//120 
f 202//202 208//208 152//152 
f 215//215 205//205 203//203 
f 154//154 205//205 215//215 
f 204//204 153//153 122//122 
f 170//170 123//123 172//172 
f 206//206 126//126 15//15 
f 122//122 207//207 169//169 
f 126//126 206//206 155//155 
f 153//153 207//207 122//122 
f 218//218 207//207 153//153 
f 96//96 127//127 124//124 
f 124//124 94//94 96//96 
f 125//125 152//152 208//208 
f 15//15 126//126 53//53 
f 160//160 126//126 156//156 
f 160//160 134//134 126//126 
f 128//128 124//124 127//127 
f 208//208 209//209 125//125 
f 129//129 125//125 209//209 
f 125//125 129//129 159//159 
f 131//131 127//127 56//56 
f 159//159 129//129 137//137 
f 134//134 98//98 126//126 
f 127//127 131//131 133//133 
f 133//133 128//128 127//127 
f 213//213 129//129 209//209 
f 211//211 213//213 209//209 
f 137//137 134//134 160//160 
f 131//131 130//130 132//132 
f 132//132 133//133 131//131 
f 213//213 211//211 210//210 
f 130//130 135//135 132//132 
f 136//136 212//212 194//194 
f 136//136 210//210 212//212 
f 136//136 213//213 210//210 
f 213//213 136//136 144//144 
f 194//194 138//138 136//136 
f 136//136 138//138 144//144 
f 143//143 134//134 137//137 
f 107//107 98//98 134//134 
f 138//138 139//139 144//144 
f 139//139 140//140 144//144 
f 142//142 144//144 140//140 
f 140//140 141//141 142//142 
f 141//141 145//145 142//142 
f 144//144 142//142 148//148 
f 137//137 144//144 143//143 
f 144//144 148//148 143//143 
f 107//107 134//134 143//143 
f 114//114 146//146 147//147 
f 146//146 149//149 147//147 
f 142//142 145//145 147//147 
f 114//114 147//147 145//145 
f 150//150 107//107 148//148 
f 148//148 107//107 143//143 
f 142//142 147//147 148//148 
f 150//150 148//148 147//147 
f 214//214 115//115 151//151 
f 214//214 151//151 147//147 
f 117//117 150//150 151//151 
f 147//147 151//151 150//150 
f 216//216 157//157 217//217 
f 205//205 154//154 153//153 
f 154//154 218//218 153//153 
f 155//155 156//156 126//126 
f 217//217 156//156 219//219 
f 158//158 156//156 217//217 
f 125//125 157//157 216//216 
f 125//125 159//159 157//157 
f 157//157 159//159 158//158 
f 157//157 158//158 217//217 
f 160//160 156//156 158//158 
f 158//158 159//159 160//160 
f 159//159 137//137 160//160 
