#
# The license for this database is specified in the Creative Commons Attribution-Share Alike 2.1 Japan. If you use data from this database, please be sure attribute this database as follows: "BodyParts3D, (c)  The Database Center for Life Science licensed under CC Attribution-Share Alike 2.1 Japan".
# http://dbarchive.biosciencedbc.jp/en/bodyparts3d/lic.html
#
#
# Compatibility version : 4.0
# File ID : FJ3323
# Representation ID : BP9612
# Build-up logic : FMA 3.0 part_of
# Concept ID : FMA24454
# English name : Proximal phalanx of right little finger
# Bounds(mm): (-236.329000,-159.523000,703.356000)-(-222.152000,-138.721000,735.956000)
# Volume(cm3): 1.483000
#
v -236.081 -142.283 732.785
v -235.61 -144.118 733.589
v -235.058 -143.654 733.982
v -235.987 -140.67 731.976
v -235.221 -141.132 732.641
v -234.932 -139.388 731.271
v -236.329 -144.84 731.55
v -235.676 -140.619 729.441
v -234.593 -140.016 728.704
v -236.177 -144.253 729.376
v -235.463 -145.523 728.964
v -235.853 -146.135 730.944
v -233.727 -144.115 724
v -233.018 -145.7 734.891
v -234.648 -144.551 734.405
v -233.498 -144.477 734.735
v -233.369 -145.19 734.988
v -232.155 -139.304 731.339
v -234.995 -145.709 733.627
v -234.095 -146.729 732.697
v -233.664 -146.92 731.902
v -232.086 -138.732 730.219
v -234.446 -146.979 730.835
v -233.94 -146.777 729.739
v -233.382 -146.863 730.231
v -233.6 -147.003 725.099
v -232.821 -147.761 722.703
v -233.22 -147.274 722.392
v -231.019 -147.009 716.35
v -231.942 -148.53 716.448
v -230.642 -145.927 735.528
v -228.169 -138.737 731.451
v -227.873 -138.721 730.08
v -232.672 -146.665 733.233
v -230.878 -146.742 732.767
v -227.419 -139.353 728.371
v -229.517 -140.464 725.443
v -231.366 -148.066 723.291
v -227.272 -144.116 719.149
v -230.688 -151.053 715.323
v -228.573 -148.821 711.794
v -230.772 -151.516 710.954
v -230.539 -155.221 707.185
v -229.765 -153.986 706.202
v -226.237 -140.18 733.785
v -225.307 -140.944 734.523
v -229.822 -145.417 735.931
v -228.954 -145.812 735.954
v -228.984 -146.761 734.578
v -227.859 -144.113 735.565
v -228.105 -145.336 735.956
v -228.029 -146.062 735.708
v -228.005 -146.599 735.239
v -227.944 -146.9 734.401
v -225.992 -139.763 733.465
v -225.699 -139.624 732.904
v -225.145 -139.788 730.732
v -225.781 -140.509 728.064
v -224.897 -140.889 729.092
v -229.237 -147.08 729.58
v -225.636 -143.05 723.524
v -227.522 -148.253 723.095
v -229.927 -154.447 710.825
v -229.344 -158.762 707.948
v -230.497 -157.272 707.742
v -227.163 -154.124 704.621
v -226.651 -153.414 705.362
v -229.391 -159.523 706.027
v -230.078 -157.548 705.612
v -229.603 -157.655 704.118
v -229.844 -158.853 705.455
v -229.381 -159.016 704.826
v -229.02 -158.356 704.049
v -227.831 -157.637 703.797
v -229.459 -155.84 704.022
v -229.207 -155.565 703.765
v -229.25 -156.137 703.57
v -228.48 -154.786 704.039
v -228.817 -155.975 703.356
v -229.166 -156.799 703.528
v -228.094 -155.081 703.744
v -228.887 -157.131 703.461
v -228.12 -156.246 703.409
v -225.228 -143.399 735.525
v -224.849 -140.988 734.348
v -226.967 -146.066 735.638
v -226.117 -145.913 735.486
v -226.738 -146.585 735.104
v -226.687 -146.76 734.257
v -226.132 -146.411 734.925
v -225.767 -144.55 735.788
v -224.84 -144.478 735.397
v -223.901 -144.905 734.094
v -223.902 -141.06 732.229
v -223.348 -142.19 731.964
v -223.514 -143.09 733.973
v -223.184 -143.065 733.121
v -223.094 -143.684 733.033
v -223.81 -141.279 731.067
v -224.432 -145.764 732.599
v -223.424 -143.554 730.577
v -223.141 -143.584 731.562
v -223.347 -144.22 731.1
v -223.206 -144.345 732.601
v -224.143 -145.16 726.163
v -224.499 -145.966 726.205
v -224.645 -143.847 724.795
v -225.695 -147.313 724.754
v -224.191 -145.827 723.968
v -224.343 -146.434 723.755
v -224.129 -148.212 719.638
v -226.272 -149.626 719.709
v -223.779 -148.505 717.153
v -223.582 -149.676 715.728
v -223.677 -152.877 712.722
v -224.558 -148.636 714.019
v -225.35 -150.473 709.669
v -224.079 -151.071 710.28
v -223.485 -151.633 711.098
v -223.645 -152.388 707.774
v -223.303 -152.45 708.788
v -226.959 -157.629 708.423
v -226.433 -158.733 706.999
v -225.618 -157.83 708.447
v -225.366 -158.472 707.546
v -226.144 -154.142 704.648
v -225.483 -154.41 704.379
v -224.953 -153.833 704.713
v -224.226 -153.897 704.82
v -224.362 -154.42 704.277
v -224.042 -154.824 704.204
v -227.642 -159.134 705.078
v -225.684 -158.292 704.9
v -225.723 -158.685 705.853
v -226.46 -155.316 704.145
v -226.507 -156.485 703.88
v -224.866 -155.775 704.018
v -225.217 -157.587 704.361
v -223.283 -152.083 712.164
v -223.081 -154.708 710.527
v -222.692 -157.778 708.888
v -222.733 -154.619 710.165
v -222.705 -156.097 710.043
v -222.454 -155.58 709.052
v -222.39 -156.421 709.45
v -222.932 -153.705 707.237
v -224.481 -157.895 708.839
v -223.468 -158.845 706.804
v -223.166 -158.636 707.911
v -222.56 -158.611 707.491
v -222.22 -158.346 707.456
v -222.327 -158.553 706.997
v -222.783 -155.92 705.3
v -222.152 -158.137 706.957
v -223.394 -154.789 704.597
v -223.787 -156.54 704.22
v -223.663 -158.12 705.042
v -222.801 -156.984 704.948
v -222.661 -158.271 705.755
v -236.081 -142.283 732.785
v -235.987 -140.67 731.976
v -234.932 -139.388 731.271
v -235.853 -146.135 730.944
v -235.853 -146.135 730.944
v -233.369 -145.19 734.988
v -234.446 -146.979 730.835
v -232.821 -147.761 722.703
v -231.942 -148.53 716.448
v -230.688 -151.053 715.323
v -229.927 -154.447 710.825
v -229.927 -154.447 710.825
v -229.344 -158.762 707.948
v -229.391 -159.523 706.027
v -229.381 -159.016 704.826
v -229.02 -158.356 704.049
v -224.191 -145.827 723.968
v -224.129 -148.212 719.638
v -226.272 -149.626 719.709
v -223.582 -149.676 715.728
v -223.677 -152.877 712.722
v -223.283 -152.083 712.164
v -223.081 -154.708 710.527
v -223.081 -154.708 710.527
v -222.705 -156.097 710.043
v -222.327 -158.553 706.997
v -222.661 -158.271 705.755
v -222.661 -158.271 705.755
vn -0.507233 0.333673 0.794592
vn -0.78134 -0.086565 0.618073
vn -0.443731 0.288058 0.848602
vn -0.958521 0.275914 -0.0714768
vn -0.220436 0.522243 0.823815
vn -0.116223 0.729449 0.674089
vn -0.956672 -0.216386 0.194821
vn -0.83758 0.453322 -0.304891
vn -0.441935 0.775784 -0.450392
vn -0.968595 -0.143938 -0.202746
vn -0.700662 -0.661595 -0.267143
vn -0.641835 -0.710325 0.28894
vn -0.785202 0.386766 -0.483602
vn -0.337616 -0.63609 0.693833
vn -0.509952 0.0104066 0.86014
vn -0.18171 0.420966 0.88869
vn -0.389753 -0.375986 0.840671
vn -0.120603 0.705124 0.698753
vn -0.642735 -0.513068 0.568904
vn -0.27768 -0.899193 0.33815
vn -0.000762189 -0.994532 0.104428
vn -0.125317 0.991845 -0.0232378
vn -0.137632 -0.989511 0.0438788
vn -0.337276 -0.931461 -0.136474
vn -0.0156634 -0.999812 -0.0114371
vn -0.513832 -0.857666 0.0196417
vn -0.297091 -0.919278 0.258196
vn -0.903043 -0.408082 -0.134101
vn -0.637849 0.608696 -0.471844
vn -0.945933 -0.32309 -0.0286863
vn -0.190998 -0.750824 0.632284
vn 0.036864 0.955698 0.292032
vn 0.177994 0.974058 -0.139745
vn -0.026113 -0.963159 0.267662
vn -0.0609857 -0.987789 0.143365
vn 0.314683 0.878463 -0.359551
vn -0.174856 0.860925 -0.477738
vn -0.100053 -0.953509 0.284271
vn 0.326603 0.826313 -0.458843
vn -0.85135 -0.52064 0.0643219
vn -0.213462 0.799672 -0.561212
vn -0.982093 0.110127 -0.152856
vn -0.960388 0.091256 -0.263302
vn -0.726485 0.50517 -0.465858
vn -0.205505 0.57394 0.792692
vn 0.049064 0.542858 0.83839
vn -0.15827 0.0723807 0.984739
vn -0.0298953 -0.437298 0.89882
vn -0.162697 -0.938712 0.303892
vn -0.132908 0.412695 0.90112
vn 0.0499621 -0.0318594 0.998243
vn 0.0764009 -0.493669 0.866288
vn -0.0226994 -0.807027 0.590079
vn 0.0033235 -0.98386 0.17891
vn 0.0910928 0.797012 0.597054
vn 0.446998 0.869135 0.211654
vn 0.601974 0.781099 -0.165867
vn 0.583071 0.727075 -0.362478
vn 0.738391 0.592999 -0.32114
vn 0.033151 -0.997904 0.0555831
vn 0.679679 0.651197 -0.337609
vn 0.102588 -0.949781 0.295621
vn -0.867952 -0.395549 0.300334
vn -0.749763 -0.523956 0.404135
vn -0.939448 -0.312985 0.139562
vn 0.0457139 0.619185 -0.783913
vn -0.048534 0.746648 -0.663447
vn -0.792417 -0.609784 0.0154646
vn -0.967313 -0.0855593 -0.238716
vn -0.810707 -0.176263 -0.558288
vn -0.887946 -0.391639 -0.241184
vn -0.699689 -0.518095 -0.491949
vn -0.555127 -0.388917 -0.73524
vn 0.171765 -0.340767 -0.924324
vn -0.883797 0.198809 -0.423531
vn -0.615357 0.444267 -0.651124
vn -0.713246 0.113479 -0.691666
vn -0.2549 0.680965 -0.686522
vn -0.235135 0.226589 -0.945182
vn -0.524573 -0.104364 -0.844945
vn 0.0971025 0.465181 -0.879874
vn -0.180105 -0.253358 -0.950459
vn 0.209537 0.0338257 -0.977216
vn 0.331723 0.250325 0.909559
vn 0.574243 0.578809 0.578986
vn 0.135969 -0.477664 0.867957
vn 0.423362 -0.520858 0.741264
vn 0.210909 -0.846438 0.488937
vn 0.275186 -0.957996 0.0807243
vn 0.489192 -0.802339 0.341969
vn 0.182136 -0.0307678 0.982792
vn 0.593253 -0.158066 0.789346
vn 0.769811 -0.474034 0.427413
vn 0.806783 0.56584 0.17008
vn 0.960437 0.276721 -0.0314059
vn 0.823351 0.166931 0.542427
vn 0.936546 0.275993 0.216123
vn 0.982514 -0.0435249 0.181029
vn 0.895491 0.391394 -0.211913
vn 0.528909 -0.845735 0.0706305
vn 0.968807 0.0781521 -0.235171
vn 0.985826 0.0176209 -0.166842
vn 0.931436 -0.341341 -0.126146
vn 0.907398 -0.419536 0.0248789
vn 0.994322 -0.0649814 -0.0842717
vn 0.818894 -0.571273 0.0553126
vn 0.88767 0.410105 -0.209419
vn 0.518438 -0.830254 0.204697
vn 0.965974 0.249641 -0.0676275
vn 0.831863 -0.518199 0.19868
vn 0.521791 -0.772654 0.36158
vn 0.0329541 -0.915328 0.401358
vn 0.988287 0.151707 -0.0165323
vn 0.98442 0.175301 -0.0136854
vn -0.0191508 -0.860295 0.509437
vn 0.701916 0.640146 -0.312293
vn 0.280403 0.822195 -0.495348
vn 0.692279 0.669104 -0.270277
vn 0.895557 0.421842 -0.141521
vn 0.644058 0.678976 -0.352393
vn 0.9027 0.41987 -0.0940279
vn 0.0170229 -0.700101 0.71384
vn 0.114352 -0.928556 0.353139
vn -0.16331 -0.778402 0.606152
vn -0.0863713 -0.934221 0.34608
vn -0.0336585 0.567118 -0.822949
vn -0.0809073 0.470494 -0.878686
vn 0.0169765 0.711874 -0.702102
vn 0.352177 0.729452 -0.586405
vn 0.13524 0.442984 -0.886271
vn 0.301243 0.197206 -0.932932
vn 0.192944 -0.864994 -0.463205
vn 0.181285 -0.830877 -0.526098
vn 0.145566 -0.985671 -0.0852212
vn 0.122214 0.339129 -0.932767
vn 0.102183 0.105666 -0.989138
vn 0.0886276 0.052735 -0.994668
vn 0.191753 -0.563642 -0.803454
vn 0.914152 -0.209775 0.346873
vn 0.728034 -0.249831 0.638398
vn 0.457062 -0.637683 0.620044
vn 0.937668 -0.00310029 0.347519
vn 0.0041476 -0.477935 0.878386
vn 0.985492 0.168136 -0.0231612
vn 0.944993 -0.103803 0.310182
vn 0.906192 0.373273 -0.198707
vn -0.104205 -0.733306 0.671866
vn 0.100422 -0.987561 -0.120992
vn 0.0624767 -0.907375 0.415653
vn 0.409554 -0.870458 0.273073
vn 0.843709 -0.476123 0.247916
vn 0.396837 -0.917463 -0.0279707
vn 0.955154 0.160535 -0.248815
vn 0.985664 -0.107113 -0.130357
vn 0.68072 0.380866 -0.625748
vn 0.342645 -0.17556 -0.922915
vn 0.264006 -0.65889 -0.704389
vn 0.828235 -0.0801303 -0.554623
vn 0.89804 -0.265815 -0.350523
vn -0.993812 0.0300553 0.106932
vn -0.352507 0.527955 0.772659
vn -0.585308 0.782872 -0.21101
vn -0.502616 -0.793079 -0.344097
vn -0.914652 -0.339721 -0.21909
vn -0.255515 0.281952 0.924779
vn -0.488089 -0.797236 -0.355224
vn -0.774221 -0.63291 0.00271193
vn -0.784096 0.448495 -0.429005
vn -0.140548 -0.893562 0.426373
vn 0.00770416 -0.782672 0.622386
vn -0.0564721 -0.577134 0.814695
vn 0.150936 -0.757223 0.635477
vn 0.128053 -0.991733 0.00819912
vn 0.0168022 -0.855095 -0.518199
vn 0.111349 -0.620429 -0.776318
vn 0.953117 -0.279487 0.116
vn 0.978527 -0.13711 0.153904
vn 0.613161 -0.69639 0.372928
vn 0.752674 -0.531686 0.38832
vn 0.826566 -0.344083 0.445417
vn 0.962127 0.267734 -0.0512817
vn -0.00140525 -0.768095 0.640335
vn 0.0289268 -0.321885 0.946337
vn 0.785079 -0.158931 0.598658
vn 0.900651 -0.394843 -0.181458
vn 0.212088 -0.91682 -0.33832
vn 0.480361 -0.427789 -0.76567
g grp1
usemtl mtl1
f 4//4 8//8 10//10 
f 5//5 161//161 1//1 
f 3//3 1//1 2//2 
f 1//1 3//3 5//5 
f 15//15 3//3 2//2 
f 161//161 5//5 6//6 
f 5//5 18//18 6//6 
f 18//18 22//22 6//6 
f 2//2 7//7 19//19 
f 19//19 7//7 12//12 
f 19//19 12//12 20//20 
f 12//12 23//23 20//20 
f 10//10 160//160 4//4 
f 2//2 160//160 7//7 
f 10//10 7//7 160//160 
f 9//9 13//13 8//8 
f 9//9 37//37 13//13 
f 4//4 162//162 8//8 
f 9//9 8//8 162//162 
f 22//22 9//9 162//162 
f 22//22 37//37 9//9 
f 163//163 11//11 166//166 
f 7//7 10//10 164//164 
f 11//11 164//164 10//10 
f 26//26 11//11 10//10 
f 8//8 13//13 10//10 
f 17//17 19//19 14//14 
f 17//17 14//14 31//31 
f 19//19 15//15 2//2 
f 15//15 19//19 17//17 
f 3//3 15//15 16//16 
f 16//16 5//5 3//3 
f 16//16 15//15 165//165 
f 16//16 18//18 5//5 
f 18//18 32//32 22//22 
f 20//20 14//14 19//19 
f 31//31 14//14 20//20 
f 23//23 21//21 20//20 
f 31//31 20//20 34//34 
f 21//21 34//34 20//20 
f 21//21 35//35 34//34 
f 35//35 21//21 25//25 
f 22//22 33//33 37//37 
f 22//22 32//32 33//33 
f 24//24 166//166 11//11 
f 21//21 23//23 25//25 
f 23//23 24//24 25//25 
f 25//25 24//24 26//26 
f 24//24 11//11 26//26 
f 13//13 28//28 10//10 
f 26//26 10//10 28//28 
f 38//38 26//26 27//27 
f 167//167 26//26 28//28 
f 13//13 37//37 29//29 
f 28//28 40//40 167//167 
f 27//27 169//169 38//38 
f 13//13 30//30 28//28 
f 28//28 30//30 40//40 
f 29//29 168//168 13//13 
f 16//16 165//165 47//47 
f 47//47 17//17 31//31 
f 47//47 50//50 16//16 
f 56//56 33//33 32//32 
f 57//57 33//33 56//56 
f 33//33 57//57 36//36 
f 34//34 35//35 31//31 
f 37//37 33//33 36//36 
f 35//35 25//25 60//60 
f 26//26 60//60 25//25 
f 39//39 37//37 36//36 
f 26//26 38//38 60//60 
f 41//41 37//37 39//39 
f 37//37 41//41 29//29 
f 41//41 44//44 29//29 
f 29//29 42//42 168//168 
f 30//30 42//42 63//63 
f 40//40 30//30 63//63 
f 29//29 44//44 42//42 
f 42//42 65//65 63//63 
f 65//65 42//42 43//43 
f 42//42 44//44 43//43 
f 43//43 44//44 75//75 
f 41//41 78//78 44//44 
f 43//43 75//75 70//70 
f 45//45 50//50 46//46 
f 85//85 55//55 46//46 
f 46//46 55//55 45//45 
f 47//47 31//31 48//48 
f 49//49 31//31 35//35 
f 53//53 48//48 31//31 
f 50//50 47//47 51//51 
f 48//48 51//51 47//47 
f 53//53 52//52 48//48 
f 49//49 53//53 31//31 
f 51//51 48//48 52//52 
f 54//54 49//49 35//35 
f 52//52 86//86 51//51 
f 86//86 52//52 53//53 
f 49//49 54//54 53//53 
f 86//86 53//53 88//88 
f 53//53 54//54 88//88 
f 50//50 18//18 16//16 
f 18//18 50//50 45//45 
f 55//55 18//18 45//45 
f 55//55 32//32 18//18 
f 85//85 56//56 55//55 
f 94//94 56//56 85//85 
f 32//32 55//55 56//56 
f 57//57 56//56 94//94 
f 36//36 58//58 39//39 
f 57//57 58//58 36//36 
f 57//57 59//59 58//58 
f 99//99 59//59 57//57 
f 54//54 35//35 60//60 
f 58//58 61//61 39//39 
f 61//61 58//58 59//59 
f 59//59 107//107 61//61 
f 107//107 59//59 99//99 
f 38//38 100//100 60//60 
f 100//100 38//38 62//62 
f 100//100 62//62 108//108 
f 38//38 112//112 62//62 
f 115//115 112//112 38//38 
f 115//115 38//38 169//169 
f 115//115 169//169 170//170 
f 39//39 61//61 116//116 
f 39//39 117//117 41//41 
f 65//65 64//64 63//63 
f 122//122 171//171 172//172 
f 117//117 67//67 41//41 
f 68//68 64//64 65//65 
f 71//71 68//68 65//65 
f 172//172 173//173 123//123 
f 69//69 65//65 43//43 
f 70//70 69//69 43//43 
f 41//41 67//67 78//78 
f 66//66 78//78 67//67 
f 66//66 81//81 78//78 
f 135//135 81//81 66//66 
f 66//66 67//67 126//126 
f 66//66 126//126 135//135 
f 72//72 68//68 71//71 
f 132//132 123//123 173//173 
f 132//132 173//173 174//174 
f 71//71 65//65 69//69 
f 69//69 70//70 71//71 
f 70//70 80//80 82//82 
f 72//72 71//71 70//70 
f 73//73 72//72 70//70 
f 73//73 70//70 82//82 
f 174//174 175//175 132//132 
f 132//132 175//175 74//74 
f 44//44 76//76 75//75 
f 78//78 76//76 44//44 
f 79//79 76//76 78//78 
f 75//75 77//77 70//70 
f 76//76 77//77 75//75 
f 70//70 77//77 80//80 
f 77//77 79//79 80//80 
f 77//77 76//76 79//79 
f 81//81 79//79 78//78 
f 81//81 83//83 79//79 
f 80//80 79//79 82//82 
f 82//82 79//79 83//83 
f 135//135 83//83 81//81 
f 175//175 82//82 74//74 
f 83//83 74//74 82//82 
f 136//136 83//83 135//135 
f 74//74 83//83 136//136 
f 50//50 84//84 46//46 
f 51//51 91//91 50//50 
f 91//91 84//84 50//50 
f 96//96 85//85 84//84 
f 84//84 85//85 46//46 
f 51//51 86//86 91//91 
f 87//87 86//86 88//88 
f 89//89 88//88 54//54 
f 86//86 87//87 91//91 
f 88//88 90//90 87//87 
f 89//89 90//90 88//88 
f 91//91 87//87 92//92 
f 87//87 90//90 93//93 
f 87//87 93//93 92//92 
f 90//90 100//100 93//93 
f 89//89 100//100 90//90 
f 91//91 92//92 84//84 
f 96//96 84//84 92//92 
f 96//96 92//92 93//93 
f 93//93 98//98 96//96 
f 100//100 104//104 93//93 
f 96//96 94//94 85//85 
f 99//99 94//94 95//95 
f 96//96 97//97 94//94 
f 94//94 97//97 95//95 
f 95//95 97//97 98//98 
f 98//98 102//102 95//95 
f 96//96 98//98 97//97 
f 98//98 93//93 104//104 
f 57//57 94//94 99//99 
f 89//89 54//54 60//60 
f 89//89 60//60 100//100 
f 99//99 95//95 102//102 
f 101//101 99//99 102//102 
f 103//103 100//100 106//106 
f 100//100 103//103 104//104 
f 104//104 103//103 102//102 
f 102//102 103//103 101//101 
f 98//98 104//104 102//102 
f 108//108 106//106 100//100 
f 99//99 105//105 107//107 
f 105//105 99//99 101//101 
f 103//103 106//106 105//105 
f 103//103 105//105 101//101 
f 107//107 105//105 109//109 
f 108//108 110//110 106//106 
f 106//106 110//110 105//105 
f 105//105 110//110 176//176 
f 176//176 110//110 113//113 
f 109//109 113//113 107//107 
f 112//112 108//108 62//62 
f 108//108 178//178 110//110 
f 110//110 178//178 111//111 
f 113//113 110//110 177//177 
f 113//113 177//177 114//114 
f 111//111 178//178 179//179 
f 178//178 180//180 179//179 
f 116//116 61//61 107//107 
f 116//116 107//107 113//113 
f 179//179 180//180 139//139 
f 180//180 142//142 139//139 
f 180//180 140//140 142//142 
f 116//116 117//117 39//39 
f 118//118 117//117 116//116 
f 119//119 116//116 113//113 
f 119//119 113//113 114//114 
f 114//114 181//181 119//119 
f 116//116 119//119 118//118 
f 182//182 115//115 170//170 
f 120//120 117//117 118//118 
f 121//121 118//118 119//119 
f 121//121 120//120 118//118 
f 123//123 122//122 172//172 
f 122//122 124//124 171//171 
f 123//123 124//124 122//122 
f 125//125 123//123 134//134 
f 171//171 124//124 147//147 
f 147//147 124//124 125//125 
f 125//125 124//124 123//123 
f 117//117 128//128 67//67 
f 127//127 67//67 128//128 
f 126//126 67//67 127//127 
f 126//126 127//127 135//135 
f 135//135 127//127 136//136 
f 128//128 130//130 127//127 
f 130//130 136//136 127//127 
f 117//117 129//129 128//128 
f 130//130 128//128 129//129 
f 120//120 155//155 129//129 
f 120//120 129//129 117//117 
f 155//155 130//130 129//129 
f 130//130 131//131 137//137 
f 155//155 131//131 130//130 
f 146//146 155//155 120//120 
f 132//132 74//74 138//138 
f 132//132 134//134 123//123 
f 138//138 133//133 132//132 
f 134//134 132//132 133//133 
f 136//136 137//137 74//74 
f 137//137 156//156 74//74 
f 136//136 130//130 137//137 
f 131//131 156//156 137//137 
f 155//155 156//156 131//131 
f 181//181 142//142 121//121 
f 181//181 121//121 119//119 
f 144//144 121//121 142//142 
f 171//171 143//143 183//183 
f 140//140 184//184 142//142 
f 171//171 147//147 143//143 
f 141//141 143//143 147//147 
f 184//184 141//141 145//145 
f 184//184 145//145 142//142 
f 144//144 142//142 145//145 
f 145//145 154//154 144//144 
f 121//121 146//146 120//120 
f 121//121 144//144 146//146 
f 134//134 148//148 125//125 
f 141//141 147//147 149//149 
f 125//125 149//149 147//147 
f 149//149 125//125 148//148 
f 149//149 148//148 150//150 
f 150//150 148//148 152//152 
f 185//185 159//159 154//154 
f 186//186 152//152 148//148 
f 145//145 141//141 151//151 
f 154//154 145//145 151//151 
f 149//149 150//150 141//141 
f 141//141 150//150 151//151 
f 150//150 152//152 151//151 
f 151//151 185//185 154//154 
f 155//155 153//153 158//158 
f 158//158 153//153 144//144 
f 154//154 158//158 144//144 
f 154//154 159//159 158//158 
f 144//144 153//153 146//146 
f 146//146 153//153 155//155 
f 134//134 133//133 148//148 
f 148//148 133//133 157//157 
f 157//157 133//133 138//138 
f 74//74 156//156 138//138 
f 155//155 158//158 156//156 
f 148//148 157//157 186//186 
f 156//156 157//157 138//138 
f 156//156 158//158 157//157 
f 158//158 187//187 157//157 
