#
# The license for this database is specified in the Creative Commons Attribution-Share Alike 2.1 Japan. If you use data from this database, please be sure attribute this database as follows: "BodyParts3D, (c)  The Database Center for Life Science licensed under CC Attribution-Share Alike 2.1 Japan".
# http://dbarchive.biosciencedbc.jp/en/bodyparts3d/lic.html
#
#
# Compatibility version : 4.0
# File ID : FJ3326
# Representation ID : BP9711
# Build-up logic : FMA 3.0 part_of
# Concept ID : FMA24453
# English name : Proximal phalanx of right ring finger
# Bounds(mm): (-253.824000,-161.977000,689.968000)-(-240.591000,-135.658000,728.932000)
# Volume(cm3): 2.279900
#
v -253.14 -143.704 727.129
v -250.088 -143.351 728.769
v -249.544 -143.779 728.537
v -252.862 -142.724 728.092
v -251.756 -143.063 728.57
v -252.277 -141.268 728.227
v -251.29 -141.488 728.38
v -253.199 -141.353 727.526
v -252.865 -139.016 726.777
v -252.709 -144.544 726.355
v -253.554 -143.731 725.688
v -251.913 -143.86 728.115
v -251.831 -144.629 727.006
v -253.631 -142.351 726.804
v -253.457 -139.602 725.993
v -253.586 -139.788 724.113
v -253.009 -144.499 724.821
v -252.022 -144.894 725.66
v -253.824 -143.361 723.619
v -253.372 -142.359 721.452
v -253.148 -143.417 720.883
v -253.297 -142.859 720.137
v -246.898 -144.284 728.747
v -249.353 -143.075 728.932
v -248.967 -142.723 728.776
v -246.84 -143.546 728.919
v -247.266 -142.081 728.062
v -252.709 -138.109 726.237
v -252.136 -138.129 726.732
v -249.098 -144.554 727.642
v -249.177 -145.062 725.559
v -252.465 -137.152 725.011
v -252.94 -137.567 723.917
v -252.692 -138.274 721.984
v -252.472 -136.914 723.458
v -250.698 -144.748 722.515
v -250.615 -145.279 718.218
v -252.123 -144.884 716.089
v -252.407 -143.767 715.978
v -251.472 -147.378 710.651
v -252.102 -146.669 710.385
v -252.187 -152.32 701.032
v -252.43 -152.164 700.372
v -252.503 -154.68 698.02
v -252.803 -154.455 697.483
v -253.441 -158.253 695.854
v -251.881 -158.772 695.877
v -252.58 -156.755 696.496
v -253.165 -156.163 696.294
v -251.555 -160.74 694.024
v -253.659 -158.465 695.464
v -253.194 -159.578 695.183
v -253.376 -160.057 694.039
v -253.027 -160.313 694.082
v -253.667 -159.534 693.663
v -252.118 -159.641 695.484
v -253.414 -157.071 694.963
v -251.099 -160.846 692.169
v -253.013 -160.512 693.402
v -253.518 -160.081 693.242
v -253.33 -160.232 692.556
v -253.496 -159.913 692.466
v -252.585 -160.69 692.686
v -253.413 -159.4 692.264
v -253.296 -159.943 692.003
v -252.654 -160.396 691.893
v -252.635 -159.391 690.991
v -251.718 -160.362 691.274
v -243.698 -145.414 728.561
v -243.152 -144.64 728.858
v -242.799 -145.74 728.143
v -242.523 -145.094 728.581
v -242.169 -145.432 727.879
v -243.326 -142.796 728.591
v -246.928 -140.597 726.857
v -251.228 -136.538 725.227
v -248.699 -136.368 724.959
v -244.355 -146.029 727.594
v -242.926 -146.215 726.887
v -244.276 -146.4 725.576
v -251.408 -136.185 723.414
v -251.383 -136.674 722.14
v -250.224 -136.057 722.664
v -244.442 -146.061 723.473
v -251.689 -145.492 709.841
v -248.103 -149.773 708.752
v -249.101 -153.184 702.589
v -251.757 -150.792 699.54
v -248.508 -159.317 695.654
v -247.418 -159.1 696.01
v -247.118 -159.923 695.716
v -248.954 -156.865 697.57
v -251.052 -153.849 693.613
v -246.352 -161.358 694.841
v -246.295 -161.62 694.093
v -249.19 -160.445 694.374
v -249.305 -160.711 693.694
v -248.096 -160.534 694.639
v -247.904 -160.947 693.335
v -252.587 -155.146 694.084
v -248.652 -160.753 692.494
v -250.857 -160.347 691.191
v -251.306 -159.848 690.753
v -249.196 -159.83 690.868
v -250.536 -158.096 689.968
v -252.049 -156.647 690.968
v -251.357 -156.722 690.213
v -251.114 -155.865 690.696
v -241.797 -144.442 728.169
v -242.175 -144.006 728.589
v -241.028 -142.14 727.245
v -245.577 -136.49 724.493
v -241.495 -144.783 727.156
v -241.73 -145.572 725.817
v -248.144 -135.658 723.363
v -247.229 -136.337 720.745
v -242.322 -145.863 724.793
v -242.971 -145.521 723.212
v -244.227 -146.15 717.676
v -249.542 -146.396 703.445
v -246.337 -152.837 703.708
v -248.682 -148.686 699.07
v -245.439 -155.642 699.359
v -244.517 -157.028 697.766
v -244.257 -160.659 696.091
v -244.774 -158.758 696.683
v -244.135 -159.764 696.44
v -243.726 -159.981 696.06
v -244.066 -158.203 696.972
v -249.244 -153.535 693.331
v -244.044 -161.327 695.589
v -244.969 -161.746 694.752
v -244.567 -161.325 695.619
v -243.884 -160.715 693.833
v -247.871 -155.17 691.619
v -250.045 -154.678 691.915
v -249.725 -155.265 690.977
v -249.236 -154.812 691.766
v -244.341 -161.977 692.882
v -244.549 -161.886 692.486
v -244.292 -161.475 692.422
v -248.404 -157.665 690.187
v -247.723 -156.299 690.703
v -249.961 -156.138 690.289
v -241.205 -140.612 727.301
v -240.941 -140.45 726.834
v -241.393 -139.824 726.897
v -241.044 -139.611 726.537
v -241.709 -138.45 725.244
v -243.288 -137.69 725.231
v -245.485 -136.031 723.871
v -240.61 -143.54 724.683
v -240.591 -140.516 723.497
v -243.354 -137.036 723.12
v -245.892 -135.881 722.747
v -244.951 -137.09 720.203
v -240.906 -143.352 723.153
v -242.32 -145.053 719.008
v -241.688 -144.172 720.289
v -246.235 -138.654 715.963
v -242.23 -144.972 717.88
v -242.514 -143.579 715.521
v -244.069 -141.15 714.194
v -243.176 -145.896 709.365
v -243.543 -148.794 709.796
v -242.884 -147.49 709.356
v -244.575 -144.516 707.488
v -245.975 -143.237 707.804
v -247.882 -143.708 706.888
v -243.575 -150.928 705.581
v -243.084 -151.184 704.165
v -243.015 -150.746 703.794
v -243.314 -151.413 701.286
v -245.413 -148.455 700.322
v -246.783 -147.034 701.328
v -244.034 -154.274 700.481
v -243.348 -153.033 699.812
v -244.489 -150.837 698.763
v -246.339 -150.022 697.621
v -243.696 -156.325 697.299
v -243.781 -158.005 696.686
v -243.642 -156.611 694.882
v -244.132 -155.98 693.232
v -246.533 -155.913 691.004
v -245.901 -155.598 691.542
v -245.413 -159.744 690.823
v -245.422 -157.55 690.505
v -244.272 -158.243 691.323
v -245.182 -156.709 690.982
v -245.797 -156.811 690.558
v -253.824 -143.361 723.619
v -253.148 -143.417 720.883
v -252.102 -146.669 710.385
v -252.43 -152.164 700.372
v -253.296 -159.943 692.003
v -250.224 -136.057 722.664
v -244.517 -157.028 697.766
v -244.257 -160.659 696.091
v -244.135 -159.764 696.44
v -243.726 -159.981 696.06
v -244.066 -158.203 696.972
v -244.044 -161.327 695.589
v -244.044 -161.327 695.589
v -244.341 -161.977 692.882
v -244.549 -161.886 692.486
v -241.709 -138.45 725.244
v -242.23 -144.972 717.88
v -244.034 -154.274 700.481
v -243.781 -158.005 696.686
vn -0.760756 -0.474949 0.442349
vn -0.147023 -0.445825 0.882963
vn -0.147547 -0.702224 0.696499
vn -0.665788 -0.143799 0.732153
vn -0.249635 -0.109764 0.962099
vn -0.376678 0.267605 0.886849
vn 0.0439044 0.38395 0.92231
vn -0.79207 0.189194 0.580372
vn -0.680869 0.381799 0.625018
vn -0.536866 -0.795511 0.280959
vn -0.871896 -0.465836 0.150978
vn -0.322713 -0.645828 0.691926
vn -0.211022 -0.901145 0.378693
vn -0.963949 -0.0461451 0.262054
vn -0.932176 0.266917 0.244546
vn -0.98319 0.161873 -0.0844692
vn -0.569288 -0.818345 -0.0788883
vn -0.178647 -0.980429 0.0827316
vn -0.989438 -0.134947 -0.0529391
vn -0.987467 0.0325338 -0.154439
vn -0.475347 -0.877859 0.0583926
vn -0.988581 -0.0908209 -0.120245
vn -0.146336 -0.551658 0.821133
vn -0.0543619 0.0246797 0.998216
vn 0.104618 0.489368 0.86578
vn 0.0178239 0.115944 0.993096
vn 0.0579117 0.57098 0.818919
vn -0.707428 0.564509 0.425294
vn -0.218251 0.56797 0.793585
vn -0.14216 -0.881112 0.451034
vn -0.15018 -0.983436 0.101485
vn -0.644384 0.72834 0.233002
vn -0.905576 0.424138 0.00618252
vn -0.880158 0.370736 -0.296439
vn -0.714416 0.679558 -0.166765
vn -0.285336 -0.957157 -0.0493405
vn -0.371745 -0.908192 0.192337
vn -0.830376 -0.550937 0.083324
vn -0.990676 0.0178717 -0.135063
vn -0.489325 -0.789304 0.370891
vn -0.864723 -0.454553 0.213624
vn -0.735443 -0.551567 0.39357
vn -0.902677 -0.312259 0.296089
vn -0.684982 -0.473769 0.553482
vn -0.987735 0.087129 0.12957
vn -0.449782 -0.309798 0.837688
vn -0.0631694 -0.352562 0.933654
vn -0.294657 -0.414006 0.861264
vn -0.880764 -0.059549 0.469796
vn -0.097689 -0.951161 0.292831
vn -0.945645 -0.155778 0.285462
vn -0.491891 -0.657559 0.570666
vn -0.774002 -0.582178 0.248979
vn -0.423231 -0.83286 0.35668
vn -0.995693 -0.0912547 -0.0163733
vn -0.0965828 -0.62899 0.77139
vn -0.962748 0.244138 -0.116244
vn -0.0708891 -0.964743 -0.253469
vn -0.494884 -0.861992 0.109812
vn -0.845033 -0.534285 0.0214014
vn -0.665192 -0.716292 -0.210822
vn -0.945878 -0.233293 -0.225588
vn -0.30593 -0.945662 -0.110135
vn -0.928009 0.14025 -0.345151
vn -0.642627 -0.608515 -0.465552
vn -0.412077 -0.785391 -0.461902
vn -0.593142 -0.230003 -0.771544
vn -0.215765 -0.752107 -0.62272
vn -0.0208981 -0.545238 0.838021
vn 0.120317 -0.110407 0.986577
vn 0.256344 -0.805499 0.534284
vn 0.430661 -0.419399 0.799147
vn 0.679958 -0.631475 0.372688
vn 0.0476987 0.418579 0.906927
vn 0.0781119 0.545319 0.834581
vn -0.237977 0.88076 0.409425
vn 0.0572637 0.760263 0.647087
vn -0.166281 -0.919876 0.355215
vn 0.312925 -0.938135 0.148256
vn -0.0235663 -0.999608 -0.0151091
vn -0.396473 0.917666 -0.0264423
vn -0.504947 0.760908 -0.40749
vn -0.105213 0.968983 0.223611
vn 0.0902733 -0.988369 -0.122384
vn -0.856595 0.450608 -0.251392
vn -0.106389 -0.874004 0.474128
vn -0.309795 -0.791003 0.527581
vn -0.800182 0.526148 -0.287883
vn -0.138351 -0.570292 0.809707
vn -0.146469 -0.507046 0.849383
vn -0.266384 -0.509036 0.818488
vn -0.158102 -0.709047 0.687209
vn -0.461084 0.728739 -0.506301
vn -0.321796 -0.794612 0.51482
vn -0.309407 -0.945758 0.0990403
vn -0.0545353 -0.860069 0.507255
vn -0.0405174 -0.982614 0.181183
vn -0.340034 -0.802919 0.489589
vn -0.243261 -0.963954 0.107783
vn -0.816725 0.480884 -0.318921
vn -0.0586645 -0.978653 -0.196968
vn 0.0425102 -0.802973 -0.594497
vn -0.112234 -0.528751 -0.841324
vn 0.0033844 -0.666931 -0.745112
vn -0.0641384 -0.160573 -0.984938
vn -0.78607 0.39733 -0.473521
vn -0.413557 0.275264 -0.867871
vn -0.372716 0.648256 -0.663963
vn 0.789421 -0.251015 0.560184
vn 0.500553 0.0320309 0.865113
vn 0.916572 -0.0262098 0.39901
vn 0.119317 0.646261 0.753731
vn 0.893174 -0.36613 0.261129
vn 0.728648 -0.683743 0.0396032
vn -0.0354825 0.997419 0.062426
vn -0.00175751 0.92941 -0.369045
vn 0.506618 -0.831918 -0.226387
vn 0.524067 -0.840102 -0.139936
vn 0.142323 -0.973358 0.179774
vn -0.543489 0.736499 -0.402727
vn 0.0965886 -0.841265 0.531925
vn -0.243458 0.791213 -0.56099
vn 0.100582 -0.781193 0.616133
vn -0.0102608 -0.632711 0.77432
vn -0.145899 -0.444746 0.883694
vn -0.130295 -0.408206 0.903544
vn -0.1572 -0.325577 0.932356
vn 0.600727 -0.309774 0.736999
vn -0.0298209 -0.431456 0.901641
vn -0.0341138 0.77936 -0.625648
vn 0.110597 -0.857099 0.50314
vn -0.0627115 -0.948141 0.311602
vn -0.141135 -0.712769 0.687052
vn 0.981877 -0.157249 -0.105783
vn 0.114167 0.727385 -0.676666
vn -0.142118 0.804601 -0.576559
vn -0.0198731 0.74387 -0.668029
vn 0.0864737 0.805151 -0.586732
vn -0.041611 -0.997208 0.0619978
vn -0.26685 -0.94828 -0.171921
vn 0.800064 -0.320189 -0.507323
vn 0.107526 0.142977 -0.983868
vn 0.152647 0.486834 -0.860053
vn 0.0255966 0.396766 -0.917563
vn 0.567041 0.295711 0.768778
vn 0.936394 0.129291 0.326268
vn 0.165813 0.573804 0.802032
vn 0.693002 0.544371 0.47266
vn 0.397055 0.832492 0.3864
vn 0.202638 0.74291 0.637983
vn 0.24489 0.909514 0.335877
vn 0.946477 -0.320553 -0.0377765
vn 0.976802 0.169967 -0.130266
vn 0.590268 0.800882 -0.10086
vn 0.250491 0.954504 -0.161792
vn 0.447147 0.81099 -0.3773
vn 0.871955 -0.44729 -0.199065
vn 0.698628 -0.715284 -0.016993
vn 0.933088 -0.336237 -0.127635
vn 0.131452 0.881331 -0.453847
vn 0.606324 -0.787707 0.109037
vn 0.959238 0.182687 -0.215613
vn 0.769557 0.543102 -0.335891
vn 0.911998 0.335907 -0.235427
vn 0.526496 -0.774758 0.350074
vn 0.995848 -0.0905679 -0.00916231
vn 0.696767 0.607709 -0.381058
vn 0.349082 0.806869 -0.476554
vn -0.300287 0.829013 -0.471768
vn 0.473136 -0.772077 0.424311
vn 0.888067 -0.417255 0.192963
vn 0.995318 0.0520472 -0.0814404
vn 0.93122 0.269131 -0.245759
vn 0.542809 0.678438 -0.495056
vn 0.157669 0.816681 -0.555133
vn 0.219741 -0.772687 0.595541
vn 0.997858 -0.0110214 -0.0644864
vn 0.754563 0.505161 -0.418864
vn 0.259712 0.734699 -0.626712
vn 0.901855 -0.289599 0.32061
vn 0.721392 -0.205448 0.66135
vn 0.997123 0.0130598 -0.0746681
vn 0.87728 0.333508 -0.345185
vn 0.126117 0.587938 -0.799014
vn 0.416053 0.649403 -0.636535
vn 0.283806 -0.319986 -0.903916
vn 0.397841 0.0835069 -0.913646
vn 0.850477 0.0390771 -0.524558
vn 0.609765 0.465029 -0.641821
vn 0.267727 0.435232 -0.85959
vn -0.464939 -0.849486 -0.249408
vn -0.969558 -0.223508 -0.100008
vn -0.952465 0.264255 -0.15159
vn -0.932799 0.326767 -0.152019
vn -0.887471 0.0284713 -0.459983
vn -0.21733 0.896981 -0.384958
vn 0.720793 -0.336057 0.606237
vn 0.528979 -0.379973 0.758816
vn 0.542015 -0.33046 0.772668
vn 0.9957 -0.0920724 0.0102466
vn 0.696338 -0.206138 0.687474
vn 0.539439 -0.388702 0.746938
vn 0.960577 -0.277859 -0.00933608
vn 0.900286 -0.369577 -0.229996
vn 0.416439 -0.545398 -0.727406
vn 0.831881 0.543779 -0.110812
vn 0.981154 -0.165178 -0.100267
vn 0.812863 -0.493236 0.309793
vn 0.998091 -0.0292987 0.0543721
g grp1
usemtl mtl1
f 4//4 14//14 1//1 
f 1//1 14//14 11//11 
f 11//11 10//10 1//1 
f 2//2 12//12 3//3 
f 2//2 3//3 23//23 
f 5//5 6//6 4//4 
f 12//12 5//5 4//4 
f 4//4 6//6 8//8 
f 2//2 24//24 5//5 
f 5//5 12//12 2//2 
f 7//7 5//5 24//24 
f 5//5 7//7 6//6 
f 24//24 25//25 7//7 
f 7//7 29//29 6//6 
f 9//9 8//8 6//6 
f 29//29 9//9 6//6 
f 9//9 15//15 8//8 
f 3//3 12//12 30//30 
f 12//12 13//13 30//30 
f 18//18 30//30 13//13 
f 18//18 36//36 31//31 
f 30//30 18//18 31//31 
f 12//12 4//4 1//1 
f 10//10 18//18 13//13 
f 13//13 12//12 10//10 
f 1//1 10//10 12//12 
f 14//14 19//19 11//11 
f 11//11 17//17 10//10 
f 4//4 8//8 14//14 
f 8//8 15//15 14//14 
f 15//15 16//16 14//14 
f 14//14 16//16 19//19 
f 15//15 33//33 16//16 
f 17//17 18//18 10//10 
f 11//11 19//19 17//17 
f 18//18 17//17 36//36 
f 36//36 17//17 191//191 
f 36//36 191//191 21//21 
f 16//16 20//20 19//19 
f 19//19 20//20 192//192 
f 20//20 16//16 34//34 
f 20//20 22//22 192//192 
f 20//20 34//34 22//22 
f 39//39 22//22 34//34 
f 26//26 74//74 27//27 
f 26//26 23//23 69//69 
f 24//24 2//2 23//23 
f 3//3 30//30 23//23 
f 24//24 26//26 25//25 
f 26//26 24//24 23//23 
f 27//27 25//25 26//26 
f 75//75 7//7 25//25 
f 29//29 28//28 9//9 
f 28//28 15//15 9//9 
f 75//75 77//77 7//7 
f 77//77 29//29 7//7 
f 15//15 28//28 33//33 
f 77//77 76//76 29//29 
f 28//28 29//29 76//76 
f 28//28 76//76 32//32 
f 33//33 28//28 32//32 
f 78//78 30//30 31//31 
f 78//78 69//69 23//23 
f 23//23 30//30 78//78 
f 36//36 78//78 31//31 
f 33//33 32//32 35//35 
f 16//16 33//33 34//34 
f 34//34 33//33 35//35 
f 32//32 76//76 81//81 
f 81//81 35//35 32//32 
f 82//82 34//34 35//35 
f 82//82 35//35 81//81 
f 37//37 36//36 21//21 
f 22//22 38//38 192//192 
f 38//38 37//37 21//21 
f 38//38 22//22 39//39 
f 40//40 37//37 38//38 
f 39//39 41//41 38//38 
f 41//41 40//40 38//38 
f 39//39 85//85 193//193 
f 42//42 87//87 40//40 
f 40//40 41//41 42//42 
f 42//42 44//44 87//87 
f 42//42 43//43 44//44 
f 87//87 44//44 92//92 
f 43//43 45//45 44//44 
f 89//89 56//56 96//96 
f 51//51 46//46 49//49 
f 57//57 51//51 49//49 
f 49//49 46//46 48//48 
f 48//48 46//46 47//47 
f 46//46 56//56 47//47 
f 89//89 48//48 47//47 
f 89//89 92//92 48//48 
f 56//56 89//89 47//47 
f 48//48 44//44 49//49 
f 92//92 44//44 48//48 
f 49//49 44//44 45//45 
f 45//45 57//57 49//49 
f 96//96 56//56 50//50 
f 97//97 50//50 101//101 
f 52//52 56//56 46//46 
f 52//52 46//46 51//51 
f 57//57 55//55 51//51 
f 53//53 54//54 52//52 
f 52//52 51//51 53//53 
f 51//51 55//55 53//53 
f 53//53 55//55 60//60 
f 59//59 53//53 60//60 
f 56//56 52//52 50//50 
f 52//52 54//54 50//50 
f 59//59 50//50 54//54 
f 57//57 64//64 55//55 
f 59//59 54//54 53//53 
f 50//50 59//59 63//63 
f 106//106 64//64 57//57 
f 106//106 57//57 100//100 
f 58//58 50//50 63//63 
f 101//101 50//50 58//58 
f 55//55 62//62 60//60 
f 55//55 64//64 62//62 
f 59//59 60//60 61//61 
f 61//61 60//60 62//62 
f 61//61 63//63 59//59 
f 61//61 62//62 65//65 
f 64//64 195//195 62//62 
f 66//66 63//63 61//61 
f 61//61 65//65 66//66 
f 58//58 63//63 66//66 
f 66//66 65//65 67//67 
f 195//195 64//64 67//67 
f 67//67 64//64 106//106 
f 58//58 66//66 68//68 
f 67//67 68//68 66//66 
f 102//102 68//68 103//103 
f 102//102 58//58 68//68 
f 68//68 67//67 103//103 
f 71//71 69//69 78//78 
f 71//71 79//79 73//73 
f 71//71 78//78 79//79 
f 69//69 72//72 70//70 
f 72//72 71//71 73//73 
f 72//72 69//69 71//71 
f 70//70 72//72 110//110 
f 72//72 73//73 109//109 
f 110//110 72//72 109//109 
f 69//69 70//70 26//26 
f 74//74 26//26 70//70 
f 110//110 74//74 70//70 
f 74//74 75//75 27//27 
f 27//27 75//75 25//25 
f 76//76 77//77 83//83 
f 78//78 80//80 79//79 
f 81//81 76//76 83//83 
f 196//196 82//82 81//81 
f 196//196 169//169 82//82 
f 169//169 34//34 82//82 
f 77//77 115//115 83//83 
f 80//80 78//78 36//36 
f 84//84 80//80 36//36 
f 36//36 119//119 84//84 
f 118//118 84//84 119//119 
f 34//34 85//85 39//39 
f 169//169 85//85 34//34 
f 119//119 37//37 40//40 
f 40//40 86//86 119//119 
f 193//193 85//85 194//194 
f 40//40 87//87 86//86 
f 43//43 42//42 41//41 
f 85//85 88//88 194//194 
f 86//86 87//87 121//121 
f 121//121 92//92 123//123 
f 87//87 92//92 121//121 
f 45//45 194//194 88//88 
f 57//57 45//45 88//88 
f 91//91 90//90 89//89 
f 100//100 57//57 88//88 
f 100//100 93//93 106//106 
f 94//94 91//91 98//98 
f 91//91 94//94 133//133 
f 94//94 132//132 133//133 
f 94//94 98//98 95//95 
f 98//98 99//99 95//95 
f 95//95 99//99 140//140 
f 50//50 97//97 96//96 
f 98//98 89//89 96//96 
f 96//96 97//97 99//99 
f 99//99 97//97 101//101 
f 98//98 91//91 89//89 
f 99//99 98//98 96//96 
f 99//99 101//101 140//140 
f 93//93 108//108 106//106 
f 102//102 101//101 58//58 
f 104//104 101//101 102//102 
f 140//140 101//101 104//104 
f 104//104 102//102 103//103 
f 103//103 105//105 104//104 
f 103//103 67//67 105//105 
f 186//186 104//104 105//105 
f 67//67 106//106 107//107 
f 108//108 107//107 106//106 
f 67//67 107//107 105//105 
f 113//113 109//109 73//73 
f 111//111 109//109 113//113 
f 110//110 145//145 74//74 
f 111//111 110//110 109//109 
f 150//150 75//75 74//74 
f 75//75 150//150 112//112 
f 75//75 112//112 77//77 
f 112//112 150//150 151//151 
f 112//112 151//151 77//77 
f 114//114 73//73 79//79 
f 117//117 79//79 80//80 
f 84//84 117//117 80//80 
f 73//73 114//114 113//113 
f 114//114 79//79 117//117 
f 114//114 152//152 113//113 
f 114//114 117//117 152//152 
f 152//152 111//111 113//113 
f 152//152 117//117 157//157 
f 115//115 151//151 155//155 
f 151//151 115//115 77//77 
f 115//115 116//116 196//196 
f 115//115 155//155 116//116 
f 117//117 84//84 118//118 
f 118//118 157//157 117//117 
f 157//157 118//118 158//158 
f 116//116 169//169 196//196 
f 118//118 119//119 158//158 
f 158//158 119//119 161//161 
f 37//37 119//119 36//36 
f 86//86 165//165 119//119 
f 85//85 169//169 120//120 
f 121//121 165//165 86//86 
f 165//165 121//121 170//170 
f 170//170 121//121 176//176 
f 120//120 88//88 85//85 
f 169//169 122//122 120//120 
f 176//176 121//121 123//123 
f 122//122 88//88 120//120 
f 124//124 126//126 129//129 
f 181//181 197//197 201//201 
f 123//123 92//92 124//124 
f 176//176 123//123 124//124 
f 93//93 100//100 88//88 
f 122//122 93//93 88//88 
f 122//122 130//130 93//93 
f 90//90 91//91 126//126 
f 125//125 91//91 133//133 
f 126//126 91//91 125//125 
f 125//125 133//133 131//131 
f 125//125 127//127 126//126 
f 199//199 198//198 128//128 
f 198//198 202//202 128//128 
f 201//201 199//199 128//128 
f 129//129 126//126 127//127 
f 128//128 181//181 201//201 
f 92//92 89//89 90//90 
f 124//124 92//92 90//90 
f 90//90 126//126 124//124 
f 130//130 136//136 93//93 
f 94//94 95//95 132//132 
f 132//132 131//131 133//133 
f 131//131 132//132 139//139 
f 132//132 95//95 139//139 
f 134//134 200//200 203//203 
f 203//203 204//204 134//134 
f 134//134 204//204 141//141 
f 182//182 200//200 134//134 
f 135//135 130//130 179//179 
f 184//184 143//143 135//135 
f 136//136 137//137 93//93 
f 138//138 136//136 130//130 
f 138//138 137//137 136//136 
f 137//137 144//144 108//108 
f 93//93 137//137 108//108 
f 144//144 137//137 143//143 
f 138//138 135//135 137//137 
f 143//143 142//142 144//144 
f 138//138 130//130 135//135 
f 137//137 135//135 143//143 
f 140//140 139//139 95//95 
f 205//205 141//141 204//204 
f 141//141 205//205 186//186 
f 141//141 186//186 188//188 
f 141//141 188//188 134//134 
f 134//134 188//188 182//182 
f 186//186 205//205 104//104 
f 143//143 184//184 142//142 
f 107//107 144//144 105//105 
f 108//108 144//144 107//107 
f 105//105 144//144 142//142 
f 110//110 111//111 145//145 
f 111//111 146//146 145//145 
f 145//145 147//147 74//74 
f 150//150 74//74 147//147 
f 146//146 148//148 145//145 
f 145//145 148//148 147//147 
f 146//146 153//153 148//148 
f 148//148 150//150 147//147 
f 146//146 111//111 153//153 
f 150//150 148//148 149//149 
f 206//206 148//148 153//153 
f 149//149 154//154 150//150 
f 154//154 206//206 153//153 
f 150//150 154//154 151//151 
f 152//152 153//153 111//111 
f 157//157 153//153 152//152 
f 154//154 153//153 163//163 
f 155//155 151//151 154//154 
f 116//116 155//155 156//156 
f 154//154 156//156 155//155 
f 163//163 156//156 154//154 
f 158//158 159//159 157//157 
f 159//159 153//153 157//157 
f 116//116 156//156 160//160 
f 158//158 161//161 159//159 
f 207//207 153//153 159//159 
f 153//153 207//207 162//162 
f 153//153 162//162 163//163 
f 160//160 169//169 116//116 
f 168//168 169//169 160//160 
f 168//168 160//160 156//156 
f 162//162 207//207 166//166 
f 164//164 162//162 166//166 
f 162//162 164//164 163//163 
f 161//161 119//119 165//165 
f 207//207 165//165 166//166 
f 156//156 163//163 167//167 
f 174//174 168//168 167//167 
f 156//156 167//167 168//168 
f 167//167 163//163 164//164 
f 165//165 170//170 171//171 
f 171//171 166//166 165//165 
f 172//172 166//166 171//171 
f 172//172 164//164 166//166 
f 175//175 168//168 174//174 
f 171//171 170//170 208//208 
f 168//168 175//175 169//169 
f 177//177 171//171 208//208 
f 171//171 177//177 172//172 
f 164//164 172//172 173//173 
f 164//164 173//173 178//178 
f 179//179 175//175 174//174 
f 178//178 174//174 167//167 
f 178//178 179//179 174//174 
f 164//164 178//178 167//167 
f 175//175 122//122 169//169 
f 177//177 208//208 180//180 
f 172//172 177//177 173//173 
f 122//122 175//175 179//179 
f 122//122 179//179 130//130 
f 181//181 180//180 197//197 
f 180//180 208//208 197//197 
f 180//180 182//182 177//177 
f 177//177 182//182 183//183 
f 173//173 177//177 178//178 
f 209//209 200//200 182//182 
f 182//182 180//180 209//209 
f 183//183 178//178 177//177 
f 178//178 183//183 189//189 
f 182//182 188//188 183//183 
f 183//183 188//188 189//189 
f 135//135 179//179 184//184 
f 179//179 178//178 185//185 
f 185//185 190//190 184//184 
f 185//185 184//184 179//179 
f 189//189 185//185 178//178 
f 190//190 185//185 189//189 
f 186//186 105//105 142//142 
f 142//142 187//187 186//186 
f 189//189 187//187 190//190 
f 186//186 187//187 188//188 
f 187//187 189//189 188//188 
f 187//187 142//142 190//190 
f 190//190 142//142 184//184 
