#
# The license for this database is specified in the Creative Commons Attribution-Share Alike 2.1 Japan. If you use data from this database, please be sure attribute this database as follows: "BodyParts3D, (c)  The Database Center for Life Science licensed under CC Attribution-Share Alike 2.1 Japan".
# http://dbarchive.biosciencedbc.jp/en/bodyparts3d/lic.html
#
#
# Compatibility version : 4.0
# File ID : FJ3327
# Representation ID : BP9557
# Build-up logic : FMA 3.0 part_of
# Concept ID : FMA24450
# English name : Proximal phalanx of right thumb
# Bounds(mm): (-318.809000,-164.883000,735.607000)-(-298.649000,-142.653000,767.198000)
# Volume(cm3): 1.808600
#
v -316.153 -164.462 743.126
v -316.208 -164.501 742.348
v -318.016 -161.911 742.09
v -317.149 -163.729 741.966
v -318.536 -160.462 741.909
v -318.809 -159.887 741.43
v -318.686 -160.703 741.343
v -318.727 -159.738 740.983
v -318.466 -158.912 742.054
v -318.396 -160.524 740.629
v -318.317 -159.77 740.341
v -318.696 -158.891 741.056
v -317.879 -162.13 740.947
v -316.84 -163.769 741.603
v -316.67 -162.583 740.427
v -317.987 -160.594 740.244
v -317.612 -159.456 739.692
v -315.071 -159.086 747.897
v -315.703 -154.963 745.456
v -316.716 -156.994 745.282
v -315.081 -164.883 743.354
v -314.994 -163.531 744.955
v -314.542 -164.372 744.707
v -314.242 -163.889 742.265
v -313.627 -163.776 743.798
v -317.853 -157.261 741.182
v -317.888 -157.715 740.275
v -316.942 -156.794 739.76
v -315.276 -163.689 741.359
v -315.555 -159.946 738.769
v -314.486 -160.421 738.781
v -316.284 -158.025 738.515
v -315.974 -156.052 738.883
v -313.95 -154.988 753.063
v -314.165 -159.857 747.889
v -313.332 -159.783 747.497
v -312.653 -159.328 746.96
v -314.035 -161.407 746.632
v -313.104 -162.456 744.857
v -313.022 -160.58 744.97
v -314.669 -154.29 742.257
v -312.934 -162.425 743.717
v -312.282 -158.977 743.643
v -312.215 -159.772 742.265
v -312.816 -161.244 740.995
v -313.374 -160.938 739.782
v -313.063 -160.144 738.612
v -311.78 -159.886 740.063
v -315.164 -156.58 736.825
v -314.698 -156.161 736.679
v -313.289 -154.785 738.431
v -314.604 -157.182 736.317
v -314.097 -156.968 735.786
v -312.993 -158.249 735.607
v -314.574 -156.583 736.206
v -314.086 -156.498 736.135
v -312.254 -150.536 758.23
v -311.768 -152.996 758.891
v -310.83 -154.662 758.054
v -312.58 -155.965 754.026
v -310.86 -156.133 752.521
v -312.269 -153.35 742.197
v -311.194 -158.574 740.945
v -310.533 -156.93 742.735
v -310.098 -158.503 738.716
v -310.375 -158.67 736.463
v -310.349 -157.519 735.756
v -310.747 -150.867 764.505
v -310.062 -150.368 766.034
v -309.648 -151.996 765.773
v -311.122 -148.066 763.953
v -308.402 -153.809 764.438
v -309.958 -152.414 764.82
v -310.067 -152.857 763.157
v -309.592 -152.769 764.942
v -311.488 -149.105 763.061
v -311.043 -146.971 762.313
v -312.263 -149.608 755.832
v -310.376 -147.419 754.784
v -310.332 -152.139 744.459
v -309.215 -155.221 743.307
v -309.222 -153.716 743.335
v -308.369 -154.176 745.389
v -308.368 -153.548 744.853
v -309.756 -156.478 741.062
v -309.644 -156.817 740.395
v -310.332 -154.524 740.624
v -309.657 -154.434 741.706
v -309.428 -155.999 740.613
v -309.465 -155.356 740.228
v -309.343 -157.113 739.756
v -309.154 -157.277 738.046
v -309.087 -156.016 738.311
v -308.977 -156.264 739.494
v -308.961 -149.676 766.964
v -307.515 -152.204 766.869
v -307.259 -152.905 766.459
v -306.97 -151.477 766.963
v -306.857 -152.115 766.981
v -306.667 -152.643 766.798
v -306.576 -153.017 766.52
v -306.346 -152.212 766.767
v -306.15 -152.933 766.559
v -309.371 -149.522 766.63
v -308.619 -151.048 766.937
v -308.236 -150.732 767.198
v -308.148 -149.709 766.855
v -309.514 -147.052 765.208
v -308.885 -146.928 765.22
v -309.131 -145.388 763.684
v -308.017 -153.406 765.505
v -305.583 -153.533 765.7
v -308.809 -144.553 760.807
v -307.4 -153.877 755.178
v -307.903 -154.475 749.913
v -306.267 -150.578 748.822
v -307.232 -153.48 747.893
v -308.222 -152.368 745.732
v -306.734 -152.379 747.544
v -304.774 -151.603 765.316
v -304.611 -152.819 765.641
v -303.154 -153.32 763.928
v -306.653 -143.977 761.844
v -303.958 -153.755 762.796
v -306.144 -145.252 754.985
v -302.147 -151.275 764.097
v -301.498 -151.414 763.301
v -301.187 -150.77 762.725
v -301.512 -149.266 762.67
v -301.186 -150.313 762.922
v -305.326 -142.744 760.014
v -304.227 -143.356 760.474
v -303.151 -142.653 759.406
v -302.283 -152.754 762.929
v -301.256 -151.259 762.195
v -301.26 -150.87 759.813
v -305.532 -143.349 757.657
v -302.63 -145.774 755.256
v -302.978 -143.793 756.693
v -302.47 -150.427 754.27
v -301.09 -148.951 754.811
v -302.668 -146.636 754.095
v -302.518 -146.545 754.212
v -302.486 -146.646 754.122
v -301.869 -148.158 754.272
v -300.659 -149.644 762.297
v -299.604 -147.685 761.607
v -300.473 -150.243 761.578
v -299.419 -148.383 761.767
v -299.491 -148.921 761.513
v -299.115 -148.396 761.348
v -299.002 -147.944 761.31
v -298.907 -148.116 760.914
v -298.914 -146.352 760.239
v -298.675 -147.247 760.236
v -301.072 -143.737 759.748
v -300.845 -143.541 758.954
v -299.019 -148.854 759.13
v -299.267 -148.002 756.799
v -300.254 -146.374 755.803
v -299.166 -145.781 757.302
v -299.053 -146.819 756.757
v -298.649 -146.815 757.697
v -302.668 -146.636 754.095
v -302.518 -146.545 754.212
v -302.486 -146.646 754.122
v -316.208 -164.501 742.348
v -315.081 -164.883 743.354
v -314.542 -164.372 744.707
v -314.035 -161.407 746.632
v -314.035 -161.407 746.632
v -314.097 -156.968 735.786
v -312.993 -158.249 735.607
v -312.993 -158.249 735.607
v -314.574 -156.583 736.206
v -310.83 -154.662 758.054
v -312.58 -155.965 754.026
v -310.349 -157.519 735.756
v -310.349 -157.519 735.756
v -308.402 -153.809 764.438
v -310.332 -152.139 744.459
v -309.222 -153.716 743.335
v -310.332 -154.524 740.624
v -309.657 -154.434 741.706
v -309.428 -155.999 740.613
v -309.428 -155.999 740.613
v -309.087 -156.016 738.311
v -309.087 -156.016 738.311
v -309.131 -145.388 763.684
v -306.734 -152.379 747.544
v -303.154 -153.32 763.928
v -306.653 -143.977 761.844
v -305.326 -142.744 760.014
v -303.151 -142.653 759.406
v -300.659 -149.644 762.297
v -299.419 -148.383 761.767
v -300.845 -143.541 758.954
vn -0.636349 -0.654355 0.408508
vn -0.528345 -0.846579 -0.0644661
vn -0.854602 -0.3718 0.36252
vn -0.759802 -0.646014 -0.0732592
vn -0.885409 -0.139968 0.443238
vn -0.990428 -0.0128073 0.137433
vn -0.95595 -0.285246 -0.0692358
vn -0.922951 -0.0615677 -0.379963
vn -0.913514 0.171966 0.368673
vn -0.797511 -0.243595 -0.55194
vn -0.760401 -0.0210731 -0.649112
vn -0.950751 0.244569 -0.190418
vn -0.744585 -0.48351 -0.46023
vn -0.373429 -0.709869 -0.597191
vn -0.281879 -0.533672 -0.797332
vn -0.563205 -0.289132 -0.774082
vn -0.605693 -0.0974685 -0.789706
vn -0.761615 -0.328228 0.558757
vn -0.808253 0.588741 0.0105729
vn -0.939447 0.198637 0.279253
vn -0.401457 -0.874367 0.272608
vn -0.498139 -0.481406 0.721184
vn -0.477854 -0.595452 0.645827
vn 0.568918 -0.700777 -0.430399
vn 0.781603 -0.623598 -0.0148884
vn -0.821324 0.570398 -0.00858431
vn -0.781557 0.30774 -0.542647
vn -0.764066 0.520038 -0.381789
vn 0.228916 -0.72462 -0.650018
vn -0.415185 -0.391264 -0.8213
vn -0.0569781 -0.710747 -0.701136
vn -0.71761 -0.0514294 -0.694544
vn -0.615886 0.721646 -0.316088
vn -0.858845 -0.282693 0.427164
vn 0.0117705 -0.732774 0.680371
vn 0.534904 -0.695244 0.480118
vn 0.755609 -0.624716 0.196938
vn 0.356341 -0.636089 0.684406
vn 0.879693 -0.322335 0.349628
vn 0.927107 -0.27484 0.254823
vn -0.566535 0.801046 -0.193296
vn 0.934666 -0.355523 0.00173466
vn 0.849948 -0.51152 0.126235
vn 0.928351 -0.328896 0.17318
vn 0.767822 -0.573999 -0.284559
vn 0.439455 -0.740095 -0.509057
vn 0.294601 -0.87117 -0.392775
vn 0.697783 -0.71621 0.0118836
vn -0.776321 0.246011 -0.580349
vn -0.42926 0.72227 -0.542275
vn -0.0666143 0.889225 -0.452594
vn -0.63218 -0.321256 -0.705083
vn -0.647704 -0.250772 -0.71944
vn -0.592166 -0.448456 -0.669497
vn -0.365786 0.605928 -0.706436
vn -0.0575341 0.704302 -0.707565
vn -0.973151 0.0938054 0.210186
vn -0.853555 -0.373193 0.363554
vn -0.716934 -0.592087 0.36802
vn -0.652704 -0.567414 0.502014
vn 0.430029 -0.85924 0.277095
vn -0.10073 0.910658 -0.400694
vn 0.787215 -0.523233 0.326374
vn 0.786288 -0.609979 0.0983684
vn 0.751421 -0.653345 0.0922334
vn 0.481759 -0.77853 -0.402243
vn 0.120345 0.606099 -0.786233
vn -0.881925 -0.306609 0.358049
vn -0.751799 -0.0348703 0.65847
vn -0.656357 -0.460945 0.597264
vn -0.878691 0.22421 0.421465
vn -0.576923 -0.745789 0.333105
vn -0.800078 -0.503101 0.326748
vn -0.748612 -0.614652 0.248562
vn -0.6018 -0.695476 0.39262
vn -0.975917 0.0199893 0.217227
vn -0.855974 0.500407 0.130008
vn -0.885564 0.46381 0.0256109
vn -0.56022 0.785513 -0.262914
vn -0.137972 0.881624 -0.451334
vn 0.922809 -0.365898 -0.120593
vn 0.613864 0.620173 -0.488423
vn 0.862327 -0.449134 -0.233816
vn 0.865284 0.0561039 -0.498132
vn 0.819981 -0.519585 0.240132
vn 0.789557 -0.417924 0.449376
vn 0.182151 0.872489 -0.453413
vn 0.634732 0.644809 -0.425837
vn 0.934101 -0.191631 0.301218
vn 0.866636 0.498187 -0.0273961
vn 0.811882 -0.461653 0.357384
vn 0.937859 -0.319869 -0.134553
vn 0.229742 0.833243 -0.502917
vn 0.98587 0.0140394 0.166926
vn -0.317665 0.23128 0.919564
vn -0.301249 -0.451788 0.839724
vn -0.265166 -0.64514 0.716577
vn 0.428715 0.235022 0.872335
vn 0.153182 -0.139022 0.97837
vn 0.0390486 -0.433956 0.900087
vn -0.0597791 -0.751802 0.656673
vn 0.474997 0.0337265 0.879341
vn 0.306045 -0.471681 0.826955
vn -0.656579 0.227893 0.719006
vn -0.48411 -0.341849 0.805467
vn -0.0415647 -0.0212277 0.99891
vn 0.359946 0.422735 0.831705
vn -0.556529 0.509055 0.656611
vn 0.185426 0.601713 0.77689
vn -0.611633 0.746467 0.26209
vn -0.293796 -0.792817 0.533972
vn 0.204122 -0.86011 0.467488
vn -0.554537 0.831823 0.0236573
vn 0.424309 -0.905464 -0.00985737
vn 0.703338 -0.710483 -0.0230107
vn 0.564344 0.505807 -0.652437
vn 0.76288 -0.606308 -0.224512
vn 0.607723 0.511756 -0.607271
vn 0.820182 -0.467623 -0.329592
vn 0.471768 0.411467 0.779827
vn 0.557579 -0.198984 0.805923
vn 0.658015 -0.491033 0.570879
vn 0.287066 0.611879 0.737019
vn 0.287997 -0.957618 -0.00503352
vn -0.0291941 0.790389 -0.611909
vn 0.608525 0.0647774 0.790886
vn 0.859345 -0.333704 0.387516
vn 0.9051 -0.280152 0.319857
vn 0.372657 0.33983 0.863506
vn 0.796838 0.0166534 0.603963
vn -0.339974 0.939713 -0.0368455
vn 0.239347 0.582704 0.77664
vn 0.061213 0.94107 -0.332625
vn 0.71726 -0.6968 0.00260694
vn 0.852211 -0.517469 0.0772121
vn 0.64398 -0.745781 -0.170588
vn -0.270569 0.892289 -0.361404
vn 0.391766 0.534129 -0.74915
vn 0.236226 0.775488 -0.585504
vn 0.689177 -0.683687 -0.240016
vn 0.756544 -0.153953 -0.635563
vn -0.143866 -0.683264 0.715858
vn -0.143866 -0.683264 0.715858
vn -0.143866 -0.683264 0.715858
vn 0.563721 0.31918 -0.761802
vn 0.457897 0.173659 0.871879
vn 0.37521 0.417448 0.82762
vn 0.820081 -0.506179 0.266925
vn 0.407163 0.20336 0.890429
vn 0.765333 -0.486023 0.421957
vn 0.864106 -0.35442 0.357361
vn 0.829299 0.105611 0.548734
vn 0.952604 -0.240366 0.186467
vn 0.803101 0.477965 0.355778
vn 0.98812 0.0014791 0.153676
vn 0.425016 0.664458 0.6147
vn 0.653975 0.714375 0.248968
vn 0.855335 -0.516802 -0.036298
vn 0.834783 -0.375161 -0.402979
vn 0.520548 0.399184 -0.754773
vn 0.741701 0.559697 -0.36962
vn 0.805267 0.0942606 -0.585372
vn 0.984417 0.0557056 -0.166792
vn 0.143866 0.683264 -0.715858
vn 0.143866 0.683264 -0.715858
vn 0.143866 0.683264 -0.715858
vn 0.0567335 -0.797036 -0.601262
vn 0.445726 -0.841527 -0.305222
vn 0.66752 -0.651683 0.360176
vn 0.606519 -0.503313 0.615476
vn 0.866609 -0.0675175 0.494399
vn -0.0421973 0.457956 -0.887973
vn 0.120747 -0.693433 -0.710331
vn 0.0141859 0.150371 -0.988528
vn -0.710896 -0.093901 -0.697001
vn 0.262289 -0.948786 0.176098
vn 0.222552 -0.907568 0.356077
vn 0.189776 -0.517009 -0.834678
vn 0.885557 -0.115116 -0.450042
vn 0.132471 -0.983951 0.119546
vn 0.482476 0.685731 -0.544968
vn 0.925389 0.0979254 -0.36615
vn 0.600794 0.732754 -0.319559
vn 0.992881 0.0978031 0.0679823
vn 0.996748 0.0058075 -0.0803768
vn 0.827262 0.39802 -0.396506
vn 0.785763 0.615886 -0.0571063
vn 0.957443 0.00990688 -0.288452
vn -0.0184272 0.70454 0.709425
vn 0.713557 0.286627 -0.639282
vn 0.37976 -0.921209 0.0845944
vn -0.366819 0.891032 0.267404
vn 0.154211 0.755922 0.63624
vn 0.267085 0.780183 0.565668
vn 0.741102 -0.379552 0.553813
vn 0.743731 -0.303299 0.595713
vn 0.370741 0.817325 -0.441058
g grp1
usemtl mtl1
f 5//5 18//18 9//9 
f 1//1 4//4 2//2 
f 4//4 1//1 3//3 
f 2//2 4//4 14//14 
f 3//3 1//1 22//22 
f 21//21 1//1 2//2 
f 3//3 13//13 4//4 
f 13//13 14//14 4//4 
f 5//5 9//9 6//6 
f 5//5 7//7 3//3 
f 5//5 6//6 7//7 
f 6//6 8//8 7//7 
f 7//7 13//13 3//3 
f 9//9 12//12 6//6 
f 12//12 8//8 6//6 
f 8//8 10//10 7//7 
f 11//11 10//10 8//8 
f 8//8 12//12 11//11 
f 10//10 13//13 7//7 
f 11//11 16//16 10//10 
f 5//5 3//3 18//18 
f 9//9 26//26 12//12 
f 12//12 26//26 27//27 
f 12//12 27//27 11//11 
f 27//27 17//17 11//11 
f 15//15 13//13 16//16 
f 14//14 13//13 15//15 
f 29//29 167//167 14//14 
f 29//29 14//14 15//15 
f 13//13 10//10 16//16 
f 11//11 17//17 16//16 
f 17//17 32//32 30//30 
f 27//27 32//32 17//17 
f 34//34 20//20 18//18 
f 35//35 18//18 22//22 
f 38//38 22//22 23//23 
f 39//39 170//170 169//169 
f 22//22 18//18 3//3 
f 22//22 38//38 35//35 
f 20//20 9//9 18//18 
f 9//9 20//20 26//26 
f 19//19 26//26 20//20 
f 22//22 1//1 23//23 
f 23//23 1//1 21//21 
f 29//29 168//168 167//167 
f 25//25 169//169 168//168 
f 24//24 168//168 29//29 
f 24//24 25//25 168//168 
f 24//24 29//29 45//45 
f 25//25 24//24 45//45 
f 169//169 25//25 39//39 
f 42//42 25//25 45//45 
f 26//26 19//19 41//41 
f 27//27 26//26 28//28 
f 26//26 41//41 28//28 
f 33//33 28//28 41//41 
f 30//30 31//31 15//15 
f 29//29 15//15 31//31 
f 31//31 46//46 29//29 
f 29//29 46//46 45//45 
f 30//30 15//15 16//16 
f 16//16 17//17 30//30 
f 27//27 28//28 32//32 
f 28//28 49//49 32//32 
f 30//30 32//32 52//52 
f 32//32 49//49 52//52 
f 33//33 49//49 28//28 
f 58//58 34//34 60//60 
f 34//34 58//58 57//57 
f 35//35 60//60 18//18 
f 18//18 60//60 34//34 
f 20//20 34//34 57//57 
f 78//78 79//79 19//19 
f 38//38 36//36 35//35 
f 177//177 35//35 61//61 
f 61//61 35//35 36//36 
f 36//36 37//37 61//61 
f 19//19 79//79 41//41 
f 44//44 40//40 39//39 
f 40//40 171//171 39//39 
f 38//38 37//37 36//36 
f 37//37 38//38 40//40 
f 40//40 43//43 37//37 
f 44//44 43//43 40//40 
f 43//43 115//115 37//37 
f 79//79 62//62 41//41 
f 25//25 42//42 39//39 
f 42//42 44//44 39//39 
f 42//42 45//45 44//44 
f 44//44 45//45 48//48 
f 43//43 44//44 63//63 
f 33//33 41//41 51//51 
f 41//41 62//62 51//51 
f 45//45 46//46 48//48 
f 46//46 31//31 47//47 
f 48//48 46//46 47//47 
f 52//52 31//31 30//30 
f 51//51 50//50 33//33 
f 50//50 49//49 33//33 
f 55//55 49//49 50//50 
f 56//56 55//55 50//50 
f 51//51 56//56 50//50 
f 52//52 49//49 175//175 
f 52//52 175//175 53//53 
f 172//172 55//55 56//56 
f 67//67 172//172 56//56 
f 54//54 52//52 53//53 
f 31//31 52//52 54//54 
f 66//66 31//31 173//173 
f 47//47 31//31 66//66 
f 174//174 172//172 67//67 
f 76//76 57//57 58//58 
f 60//60 59//59 58//58 
f 176//176 177//177 61//61 
f 114//114 176//176 61//61 
f 114//114 61//61 115//115 
f 19//19 20//20 78//78 
f 115//115 61//61 37//37 
f 64//64 115//115 43//43 
f 43//43 63//63 64//64 
f 63//63 91//91 86//86 
f 86//86 85//85 63//63 
f 62//62 87//87 51//51 
f 63//63 44//44 48//48 
f 91//91 63//63 48//48 
f 65//65 91//91 48//48 
f 65//65 92//92 91//91 
f 56//56 51//51 67//67 
f 93//93 67//67 51//51 
f 66//66 48//48 47//47 
f 66//66 65//65 48//48 
f 65//65 66//66 92//92 
f 173//173 178//178 66//66 
f 92//92 66//66 179//179 
f 75//75 111//111 70//70 
f 70//70 69//69 68//68 
f 73//73 70//70 68//68 
f 75//75 70//70 73//73 
f 69//69 70//70 105//105 
f 105//105 70//70 111//111 
f 71//71 76//76 68//68 
f 71//71 77//77 76//76 
f 71//71 68//68 69//69 
f 108//108 71//71 69//69 
f 71//71 108//108 77//77 
f 104//104 108//108 69//69 
f 75//75 74//74 72//72 
f 111//111 75//75 72//72 
f 58//58 68//68 76//76 
f 58//58 59//59 68//68 
f 74//74 75//75 73//73 
f 68//68 74//74 73//73 
f 74//74 68//68 59//59 
f 74//74 59//59 72//72 
f 79//79 78//78 77//77 
f 57//57 78//78 20//20 
f 77//77 57//57 76//76 
f 57//57 77//77 78//78 
f 180//180 176//176 114//114 
f 80//80 62//62 79//79 
f 117//117 115//115 83//83 
f 118//118 82//82 181//181 
f 116//116 118//118 181//181 
f 85//85 81//81 64//64 
f 64//64 81//81 115//115 
f 81//81 83//83 115//115 
f 181//181 82//82 88//88 
f 84//84 81//81 182//182 
f 81//81 84//84 83//83 
f 64//64 63//63 85//85 
f 86//86 89//89 85//85 
f 88//88 183//183 181//181 
f 80//80 87//87 62//62 
f 182//182 81//81 185//185 
f 81//81 85//85 89//89 
f 184//184 89//89 90//90 
f 88//88 90//90 183//183 
f 89//89 94//94 90//90 
f 90//90 94//94 187//187 
f 90//90 187//187 183//183 
f 82//82 186//186 88//88 
f 92//92 179//179 188//188 
f 94//94 89//89 91//91 
f 89//89 86//86 91//91 
f 87//87 93//93 51//51 
f 91//91 92//92 94//94 
f 94//94 92//92 188//188 
f 105//105 95//95 69//69 
f 95//95 108//108 104//104 
f 69//69 95//95 104//104 
f 107//107 106//106 98//98 
f 95//95 106//106 107//107 
f 111//111 96//96 105//105 
f 96//96 111//111 97//97 
f 106//106 99//99 98//98 
f 96//96 100//100 99//99 
f 99//99 106//106 96//96 
f 100//100 97//97 101//101 
f 100//100 96//96 97//97 
f 112//112 101//101 111//111 
f 101//101 97//97 111//111 
f 102//102 98//98 99//99 
f 102//102 99//99 100//100 
f 102//102 100//100 103//103 
f 103//103 100//100 101//101 
f 103//103 101//101 112//112 
f 112//112 111//111 124//124 
f 98//98 102//102 120//120 
f 121//121 103//103 112//112 
f 103//103 121//121 102//102 
f 105//105 96//96 106//106 
f 95//95 105//105 106//106 
f 95//95 107//107 109//109 
f 120//120 107//107 98//98 
f 95//95 109//109 108//108 
f 107//107 120//120 109//109 
f 110//110 77//77 108//108 
f 113//113 77//77 110//110 
f 189//189 108//108 109//109 
f 123//123 189//189 109//109 
f 192//192 113//113 110//110 
f 109//109 120//120 123//123 
f 180//180 124//124 111//111 
f 124//124 180//180 114//114 
f 77//77 113//113 79//79 
f 125//125 80//80 79//79 
f 116//116 181//181 125//125 
f 117//117 83//83 119//119 
f 83//83 84//84 119//119 
f 182//182 118//118 84//84 
f 118//118 116//116 84//84 
f 190//190 84//84 116//116 
f 122//122 121//121 112//112 
f 120//120 102//102 121//121 
f 112//112 124//124 191//191 
f 120//120 129//129 132//132 
f 120//120 132//132 123//123 
f 192//192 131//131 113//113 
f 132//132 193//193 123//123 
f 191//191 124//124 134//134 
f 124//124 136//136 134//134 
f 131//131 137//137 113//113 
f 137//137 79//79 113//113 
f 79//79 137//137 125//125 
f 139//139 138//138 125//125 
f 138//138 116//116 125//125 
f 115//115 140//140 114//114 
f 140//140 115//115 117//117 
f 141//141 140//140 119//119 
f 140//140 117//117 119//119 
f 126//126 120//120 121//121 
f 121//121 122//122 126//126 
f 122//122 127//127 126//126 
f 130//130 126//126 127//127 
f 130//130 127//127 128//128 
f 134//134 127//127 122//122 
f 128//128 127//127 135//135 
f 129//129 120//120 126//126 
f 130//130 129//129 126//126 
f 146//146 129//129 130//130 
f 133//133 137//137 131//131 
f 194//194 193//193 132//132 
f 127//127 134//134 135//135 
f 134//134 136//136 135//135 
f 128//128 135//135 148//148 
f 135//135 136//136 148//148 
f 130//130 148//148 195//195 
f 148//148 130//130 128//128 
f 139//139 125//125 137//137 
f 137//137 133//133 139//139 
f 136//136 124//124 114//114 
f 140//140 158//158 136//136 
f 140//140 136//136 114//114 
f 138//138 139//139 160//160 
f 145//145 138//138 160//160 
f 138//138 190//190 116//116 
f 145//145 190//190 138//138 
f 143//143 142//142 144//144 
f 165//165 166//166 164//164 
f 190//190 145//145 141//141 
f 146//146 149//149 129//129 
f 149//149 147//147 129//129 
f 147//147 132//132 129//129 
f 156//156 132//132 147//147 
f 196//196 195//195 150//150 
f 150//150 195//195 148//148 
f 158//158 150//150 148//148 
f 196//196 150//150 151//151 
f 151//151 153//153 152//152 
f 196//196 151//151 152//152 
f 149//149 152//152 147//147 
f 158//158 151//151 150//150 
f 151//151 158//158 153//153 
f 154//154 147//147 152//152 
f 155//155 152//152 153//153 
f 153//153 158//158 155//155 
f 152//152 155//155 154//154 
f 156//156 147//147 154//154 
f 157//157 156//156 154//154 
f 154//154 161//161 157//157 
f 161//161 139//139 197//197 
f 156//156 194//194 132//132 
f 197//197 139//139 133//133 
f 194//194 156//156 157//157 
f 158//158 148//148 136//136 
f 140//140 159//159 158//158 
f 162//162 159//159 141//141 
f 158//158 159//159 163//163 
f 155//155 158//158 163//163 
f 155//155 163//163 154//154 
f 159//159 162//162 163//163 
f 160//160 139//139 161//161 
f 145//145 160//160 141//141 
f 159//159 140//140 141//141 
f 160//160 162//162 141//141 
f 154//154 163//163 161//161 
f 161//161 163//163 162//162 
f 160//160 161//161 162//162 
