# Blender v2.77 (sub 0) OBJ File: 'BLANKOblend.blend'
# www.blender.org
mtllib right cuboid bone.mtl
o grp1
v -110.223999 -95.888191 -50.849514
v -113.474731 -94.881035 -48.573135
v -111.784546 -93.886925 -49.778366
v -112.340576 -93.550224 -47.912064
v -108.994492 -95.967567 -50.811012
v -109.694458 -93.910820 -49.029617
v -114.577003 -101.162994 -44.526115
v -108.628815 -100.557716 -51.012283
v -109.447998 -98.582489 -50.942917
v -110.223999 -95.888191 -50.849514
v -109.437958 -98.588371 -51.196060
v -107.094345 -96.426277 -49.539352
v -105.347000 -94.029694 -48.202415
v -108.324997 -91.398193 -45.559616
v -110.185997 -92.880890 -43.861713
v -108.324997 -91.398193 -45.559616
v -113.552055 -96.889610 -40.754929
v -108.324997 -91.398193 -45.559616
v -104.652000 -87.271690 -44.307915
v -105.347000 -94.029694 -48.202415
v -115.050003 -101.344994 -42.036915
v -115.084999 -106.115990 -39.565517
v -106.475342 -106.125969 -49.534565
v -109.070999 -95.046791 -37.065514
v -99.481522 -92.177696 -50.992508
v -100.563049 -91.187981 -49.878677
v -102.071564 -92.751961 -48.593155
v -100.926003 -88.851395 -48.034615
v -107.799072 -90.343765 -40.984955
v -106.903999 -87.894394 -40.955715
v -107.697311 -89.589516 -38.300827
v -98.897156 -87.780014 -50.624352
v -99.707932 -86.426445 -48.341850
v -102.646133 -86.906578 -45.307953
v -101.064880 -86.079712 -46.617386
v -99.531197 -83.732689 -43.966915
v -104.292999 -85.656395 -36.411316
v -96.531311 -86.636742 -49.946854
v -95.556885 -86.383415 -50.027512
v -97.537933 -86.695030 -48.786869
v -95.964493 -86.062614 -49.747444
v -95.900703 -86.113625 -49.653580
v -97.223694 -84.634514 -47.468792
v -99.455002 -83.831993 -31.910713
v -101.514999 -83.875389 -33.675316
v -94.025604 -85.328758 -47.745621
v -115.084999 -106.115990 -39.565517
v -111.996857 -106.075859 -43.187275
v -106.659790 -105.834221 -49.660542
v -115.084999 -106.115990 -39.565517
v -103.703003 -107.206993 -47.843918
v -106.062622 -99.828178 -27.604631
v -98.276497 -99.042107 -48.479324
v -102.341003 -98.222595 -48.220917
v -96.632080 -98.494133 -49.755875
v -104.636002 -89.734093 -31.665115
v -94.033997 -95.580391 -51.121616
v -91.348396 -88.942192 -50.115215
v -114.309570 -109.687492 -34.725605
v -105.795998 -108.112991 -49.426517
v -105.618607 -112.748001 -48.354053
v -105.774384 -108.091057 -49.477558
v -92.471100 -91.065094 -50.984715
v -94.033997 -95.580391 -51.121616
v -92.471100 -91.065094 -50.984715
v -90.401855 -91.789917 -48.022095
v -101.514999 -83.875389 -33.675316
v -91.348396 -88.942192 -50.115215
v -88.685699 -90.221291 -35.151516
v -100.489998 -84.300995 -29.188313
v -100.489998 -84.300995 -29.188313
v -106.079338 -113.076302 -47.999897
v -106.110596 -113.123848 -47.995747
v -105.723022 -112.081047 -48.512714
v -104.455078 -113.773430 -47.108662
v -99.557198 -109.856995 -44.786221
v -99.838730 -103.739494 -46.892105
v -91.577927 -101.041359 -47.190018
v -90.195808 -88.666313 -43.341877
v -89.567924 -93.682480 -42.236908
v -98.905273 -85.944328 -25.288099
v -89.288239 -88.987022 -42.303421
v -99.395264 -84.584343 -27.336439
v -105.215820 -113.874016 -46.620136
v -103.063965 -115.209953 -45.636982
v -102.236000 -116.642990 -41.826321
v -107.718506 -114.435295 -34.772968
v -108.937439 -113.814919 -33.909565
v -111.100708 -113.374214 -32.868244
v -110.484680 -108.292900 -30.884844
v -114.424004 -109.706993 -34.623421
v -113.733276 -111.046974 -33.503742
v -113.733002 -111.046989 -33.503418
v -112.967003 -111.487991 -32.275021
v -112.982269 -111.488380 -32.260517
v -105.620003 -112.692993 -48.260521
v -97.782166 -109.215202 -44.745869
v -94.908501 -102.341995 -48.904613
v -94.103516 -107.361443 -46.052265
v -103.976181 -98.311409 -25.508163
v -101.829002 -95.816391 -24.338715
v -91.231895 -96.652542 -47.345081
v -91.585724 -97.437706 -45.816193
v -99.591202 -89.997696 -25.275915
v -88.772614 -89.236931 -41.981949
v -86.817017 -89.932243 -41.144424
v -92.299316 -91.376457 -24.070938
v -88.251892 -93.333221 -26.202835
v -96.293839 -87.312462 -23.569654
v -89.311302 -88.968895 -42.300915
v -87.703697 -89.319893 -41.321514
v -87.703697 -89.319893 -41.321514
v -86.664642 -89.737206 -39.520554
v -98.179199 -86.283493 -24.612814
v -101.980270 -116.745766 -43.688034
v -112.200439 -112.531487 -32.033710
v -110.201904 -113.557487 -32.439594
v -110.275002 -110.143990 -31.281116
v -108.321503 -110.044121 -31.749792
v -109.566162 -113.748650 -32.972675
v -108.510185 -109.211723 -30.718981
v -108.512001 -109.193993 -30.734118
v -106.676315 -105.897346 -25.863970
v -107.928833 -107.693535 -28.735613
v -106.691734 -105.956070 -25.879168
v -102.266434 -98.370323 -24.142960
v -91.271194 -100.102638 -46.027939
v -90.814468 -98.898773 -43.929398
v -90.471367 -100.807068 -45.081070
v -89.589417 -106.716141 -37.371006
v -87.790703 -103.997993 -36.993916
v -95.525032 -88.372955 -23.287458
v -94.073898 -90.499390 -23.518915
v -85.844002 -95.039757 -39.391945
v -86.277771 -90.299492 -39.930679
v -85.165558 -89.549797 -37.915329
v -96.207764 -87.331108 -23.596449
v -101.998001 -116.767990 -43.697620
v -101.343002 -115.906990 -43.855019
v -101.132004 -116.170990 -41.537518
v -101.998001 -116.767990 -43.697620
v -101.998001 -116.767990 -43.697620
v -102.236000 -116.642990 -41.826321
v -104.458000 -115.831993 -37.929920
v -108.944000 -113.839989 -33.912518
v -109.478210 -113.624168 -33.058979
v -107.611328 -114.511223 -34.822285
v -104.458000 -115.831993 -37.929920
v -98.935799 -112.441994 -42.822121
v -96.630554 -111.617683 -40.092236
v -101.916000 -111.432991 -34.686520
v -102.223495 -107.996269 -30.887224
v -104.863838 -104.564644 -24.421209
v -104.384796 -104.343620 -24.382099
v -92.231972 -107.592499 -43.898891
v -94.093102 -110.144989 -42.780018
v -98.608704 -98.267303 -22.088316
v -94.073898 -90.499390 -23.518915
v -96.127899 -93.335197 -23.302216
v -93.717300 -89.587692 -23.507114
v -84.584488 -93.506340 -38.356949
v -82.342812 -94.189903 -35.645279
v -93.704834 -89.572990 -23.492447
v -95.523804 -88.374100 -23.313416
v -85.201302 -89.597893 -37.948517
v -84.614105 -90.185936 -35.854507
v -85.201302 -89.597893 -37.948517
v -99.070297 -112.782707 -36.786274
v -92.145157 -110.048935 -38.797672
v -98.207344 -111.261459 -33.355839
v -98.820915 -109.715630 -32.657993
v -94.745834 -102.503876 -26.191362
v -100.286377 -101.865479 -23.065203
v -96.207397 -101.100990 -24.878418
v -95.855171 -98.411636 -22.761826
v -95.710297 -98.334099 -22.911415
v -96.127899 -93.335197 -23.302216
v -83.724731 -95.031731 -38.151138
v -84.724297 -101.852989 -36.049316
v -92.701202 -95.885498 -23.320515
v -91.357544 -94.289375 -24.914719
v -84.158264 -93.907616 -38.412613
v -89.669861 -94.646042 -25.150772
v -82.713318 -92.853188 -32.221725
v -83.505371 -93.257927 -29.731461
v -97.600319 -109.647697 -33.384163
v -95.631897 -110.430992 -36.527821
v -91.727051 -108.887688 -37.652363
v -92.660393 -106.605339 -33.360371
v -90.592072 -107.902344 -36.742146
v -90.611603 -107.889992 -36.773918
v -89.282700 -107.078995 -33.352619
v -89.396278 -104.000710 -29.309847
v -92.923340 -102.880119 -27.340105
v -94.667114 -99.972313 -26.426470
v -94.982903 -99.835892 -26.035818
v -94.982903 -99.835892 -26.035818
v -94.803299 -102.410995 -26.300318
v -90.872803 -98.269974 -24.758194
v -90.481865 -96.250481 -25.197647
v -90.016701 -97.877693 -25.231815
v -90.276123 -96.909416 -25.029434
v -88.965820 -96.544975 -24.528580
v -83.564499 -100.686989 -34.872616
v -82.428688 -97.239128 -33.075001
v -88.802490 -96.833382 -24.406265
v -86.331055 -105.792419 -33.948994
v -86.222900 -105.586990 -32.665718
v -86.222900 -105.586990 -32.665718
v -85.442596 -104.537994 -33.437817
v -85.442596 -104.537994 -33.437817
v -86.222900 -105.586990 -32.665718
v -89.355003 -104.121994 -29.224916
v -86.222900 -105.586990 -32.665718
v -89.236801 -100.382996 -26.526217
v -86.460403 -98.185593 -26.459415
v -89.236801 -100.382996 -26.526217
v -88.826500 -97.176994 -24.610216
v -86.222900 -105.586990 -32.665718
vn -0.5586 -0.0223 -0.8291
vn -0.8890 0.2506 -0.3832
vn -0.2954 0.7030 -0.6470
vn -0.5019 0.8533 -0.1415
vn 0.1715 0.7660 -0.6195
vn -0.8274 -0.2901 -0.4809
vn -0.6763 -0.3833 -0.6290
vn -0.6224 -0.2153 -0.7525
vn 0.3807 0.3807 -0.8427
vn 0.0426 0.3469 -0.9369
vn 0.4958 0.0591 -0.8664
vn 0.4136 0.1808 -0.8923
vn 0.0782 0.2857 -0.9551
vn -0.0108 0.8152 -0.5790
vn -0.6476 0.7402 0.1809
vn -0.6587 0.7524 -0.0017
vn -0.8320 0.4713 0.2926
vn -0.2836 0.5005 -0.8180
vn -0.5973 0.6129 -0.5172
vn -0.4089 0.4854 -0.7728
vn -0.9881 0.1345 0.0749
vn -0.9769 -0.0926 -0.1927
vn -0.8531 0.4009 0.3340
vn -0.6685 0.3124 -0.6749
vn -0.3838 0.0101 -0.9234
vn -0.8859 0.4588 -0.0686
vn -0.8177 0.5442 -0.1874
vn -0.9041 0.3779 0.1995
vn -0.4930 -0.1590 -0.8554
vn -0.7225 0.0304 -0.6907
vn -0.4155 0.4743 -0.7761
vn -0.5360 0.6288 -0.5633
vn -0.5231 0.6024 -0.6029
vn -0.5927 0.6250 -0.5081
vn -0.2832 0.9170 -0.2810
vn -0.6886 0.7109 0.1432
vn -0.2999 0.8270 -0.4755
vn 0.0610 0.6140 -0.7870
vn -0.1913 0.8951 -0.4026
vn -0.2658 0.9441 0.1948
vn -0.1133 0.8678 -0.4838
vn -0.0681 0.9063 -0.4172
vn 0.3714 0.9222 0.1078
vn -0.2166 0.9761 0.0170
vn 0.4888 0.8266 -0.2790
vn -0.5974 -0.6560 -0.4613
vn -0.6616 -0.5477 -0.5121
vn -0.7027 -0.3469 -0.6212
vn -0.9236 0.2234 0.3115
vn 0.5504 0.0911 -0.8299
vn 0.4888 -0.1059 -0.8659
vn 0.0418 -0.2880 -0.9567
vn -0.4075 -0.1751 -0.8962
vn 0.0659 -0.1169 -0.9909
vn -0.7673 0.3158 0.5582
vn -0.3148 -0.2510 -0.9154
vn -0.7983 0.3689 0.4760
vn -0.1392 -0.2027 -0.9693
vn 0.8258 0.3493 -0.4428
vn -0.7748 0.2872 0.5633
vn -0.3299 -0.2092 -0.9205
vn -0.2522 -0.4496 -0.8569
vn 0.6233 0.0267 -0.7815
vn 0.0605 0.1616 -0.9850
vn 0.6814 -0.2329 -0.6938
vn 0.7675 -0.2250 -0.6003
vn 0.9432 -0.0433 -0.3293
vn -0.7851 0.5288 0.3225
vn 0.1624 0.2993 -0.9403
vn 0.3094 0.9288 0.2039
vn -0.0702 0.9872 0.1434
vn -0.7606 0.4989 0.4153
vn -0.0605 -0.4764 -0.8771
vn -0.7275 -0.5732 -0.3769
vn 0.6201 -0.1706 -0.7658
vn 0.5932 -0.2156 -0.7756
vn 0.3557 -0.3688 -0.8588
vn 0.7781 -0.2407 -0.5802
vn 0.8846 0.1506 -0.4413
vn 0.8343 -0.1313 -0.5355
vn -0.4908 0.5058 0.7094
vn 0.4661 0.8764 0.1210
vn -0.1506 0.9225 0.3554
vn -0.5799 -0.8035 -0.1347
vn -0.2073 -0.8168 -0.5384
vn -0.5500 -0.8303 -0.0899
vn -0.6533 -0.7059 -0.2736
vn -0.4952 -0.7601 -0.4208
vn -0.4422 -0.8949 -0.0600
vn -0.6550 -0.6594 -0.3689
vn -0.5944 -0.7177 -0.3628
vn -0.8202 0.1448 0.5534
vn -0.5586 0.1058 0.8227
vn -0.3993 -0.5148 0.7587
vn 0.5763 -0.2328 -0.7833
vn 0.1713 -0.6035 -0.7788
vn 0.0829 -0.4144 -0.9063
vn -0.6882 0.2577 0.6783
vn -0.6496 0.2727 0.7097
vn 0.9278 -0.0133 0.3729
vn -0.4761 0.1521 0.8661
vn 0.9978 -0.0018 -0.0665
vn 0.5508 -0.0455 -0.8334
vn 0.7196 0.3626 -0.5923
vn 0.5557 0.3596 0.7496
vn 0.4700 0.6161 0.6320
vn -0.5041 -0.0087 0.8636
vn 0.5192 0.8189 -0.2444
vn 0.4883 0.4800 -0.7288
vn 0.2793 0.9601 -0.0106
vn 0.2928 0.9414 -0.1672
vn 0.0782 0.8774 0.4734
vn -0.6217 -0.7766 -0.1019
vn -0.4620 -0.6115 0.6423
vn -0.7718 -0.5549 0.3105
vn 0.0071 -0.7699 0.6381
vn 0.0607 -0.3761 0.9246
vn -0.2495 -0.9677 -0.0362
vn 0.2521 -0.6157 0.7466
vn -0.0613 -0.7563 0.6514
vn -0.1760 -0.2251 0.9583
vn -0.8078 0.1794 0.5614
vn -0.0706 -0.8107 0.5812
vn -0.5719 -0.5456 0.6126
vn 0.3634 -0.6050 -0.7085
vn -0.6090 0.1617 0.7765
vn 0.9704 0.0002 -0.2416
vn 0.9497 0.1348 -0.2828
vn 0.9447 0.0679 -0.3209
vn 0.7792 -0.5329 -0.3300
vn 0.5287 -0.4098 -0.7434
vn -0.3397 -0.1373 0.9305
vn 0.0574 -0.1924 0.9796
vn 0.5944 -0.2031 -0.7781
vn 0.8176 0.4466 -0.3634
vn -0.1093 0.9863 0.1232
vn 0.6557 0.7475 0.1059
vn 0.4534 -0.4820 -0.7497
vn 0.6871 -0.4790 -0.5463
vn 0.5559 -0.8177 0.1497
vn 0.7754 -0.6156 -0.1407
vn 0.3667 -0.9240 0.1084
vn 0.3305 -0.9150 0.2313
vn -0.4503 -0.8899 -0.0736
vn 0.3311 -0.5871 0.7387
vn 0.4842 -0.4941 0.7221
vn -0.4576 -0.8822 -0.1111
vn 0.6519 -0.4845 -0.5833
vn 0.5638 -0.8212 -0.0887
vn 0.0347 -0.7248 0.6881
vn 0.1459 -0.7674 0.6244
vn 0.2543 -0.7982 0.5461
vn 0.3510 -0.8418 -0.4102
vn -0.7026 0.2223 0.6760
vn 0.7728 -0.4643 -0.4327
vn -0.1703 0.0352 0.9848
vn -0.2704 0.2665 0.9251
vn -0.2386 0.2988 0.9240
vn 0.1694 -0.0789 0.9824
vn 0.7381 0.1915 -0.6469
vn 0.5762 0.8131 0.0828
vn 0.6399 0.6102 -0.4671
vn 0.3859 0.4764 0.7900
vn 0.4845 0.7081 -0.5137
vn 0.8931 0.1977 -0.4042
vn 0.3041 -0.8136 0.4956
vn 0.3962 -0.8275 0.3978
vn 0.3057 -0.6202 0.7224
vn 0.6210 -0.7794 0.0828
vn 0.1186 -0.5860 0.8016
vn 0.2157 -0.6807 0.7001
vn 0.1296 -0.4381 0.8895
vn 0.6152 -0.3490 0.7070
vn 0.4351 -0.2432 0.8669
vn 0.4718 -0.0151 0.8816
vn 0.2787 0.1447 0.9494
vn 0.7074 -0.0179 -0.7066
vn 0.6748 -0.4059 -0.6164
vn 0.3780 0.0652 0.9235
vn 0.3066 -0.0532 0.9503
vn 0.3497 0.2017 -0.9149
vn 0.1406 0.1923 0.9712
vn 0.9497 0.1141 -0.2915
vn 0.7065 0.4360 0.5575
vn 0.8383 0.4927 0.2334
vn 0.5569 -0.5716 0.6026
vn 0.4199 -0.8188 0.3915
vn 0.5205 -0.7022 0.4858
vn 0.3274 -0.8832 0.3357
vn 0.4282 -0.9037 0.0071
vn 0.6239 -0.7067 -0.3337
vn 0.1155 -0.9194 0.3761
vn 0.2142 -0.7063 0.6748
vn 0.5386 0.0271 0.8422
vn 0.3487 -0.4726 0.8093
vn 0.4201 0.0686 0.9049
vn 0.2502 -0.8755 0.4133
vn 0.1402 -0.8922 0.4292
vn 0.7711 -0.2439 0.5882
vn 0.4030 -0.3445 0.8479
vn 0.4892 -0.0964 0.8668
vn 0.6159 0.0890 0.7828
vn 0.9240 -0.3570 -0.1370
vn 0.9690 -0.1749 0.1743
vn -0.3516 -0.0564 0.9344
vn 0.5696 -0.0560 0.8200
vn 0.6754 -0.7025 -0.2243
vn 0.2419 -0.7687 0.5921
vn 0.4056 -0.9106 0.0798
vn 0.8336 -0.5303 -0.1544
vn 0.8039 -0.1810 0.5666
vn 0.8710 -0.2959 0.3922
vn 0.7431 -0.4688 0.4774
vn 0.6551 -0.2630 0.7083
vn 0.3306 -0.5046 0.7976
vn 0.6760 -0.3283 0.6597
vn -0.3613 -0.0096 0.9324
vn -0.3239 -0.4545 0.8298
vn -0.3155 -0.3584 0.8787
vn 0.8109 -0.5846 0.0253
usemtl mtl1
s 1
f 1//1 2//2 3//3
f 2//2 4//4 3//3
f 4//4 6//5 3//3
f 7//6 2//2 8//7
f 8//7 2//2 9//8
f 3//3 5//9 10//10
f 11//11 10//10 5//9
f 12//12 11//11 5//9
f 9//8 2//2 1//1
f 6//5 5//9 3//3
f 12//12 5//9 6//5
f 12//12 6//5 13//13
f 6//5 4//4 14//14
f 4//4 15//15 16//16
f 4//4 17//17 15//15
f 13//13 6//5 14//14
f 18//18 19//19 20//20
f 7//6 21//21 2//2
f 7//6 22//22 21//21
f 2//2 17//17 4//4
f 2//2 21//21 17//17
f 15//15 17//17 24//23
f 28//24 27//25 13//13
f 29//26 19//19 16//16
f 29//26 16//16 15//15
f 30//27 19//19 29//26
f 29//26 31//28 30//27
f 24//23 31//28 29//26
f 25//29 26//30 32//31
f 26//30 28//24 33//32
f 26//30 27//25 28//24
f 20//20 34//33 28//24
f 34//33 35//34 28//24
f 20//20 19//19 34//33
f 19//19 30//27 36//35
f 30//27 31//28 37//36
f 38//37 39//38 32//31
f 33//32 32//31 26//30
f 38//37 32//31 33//32
f 35//34 36//35 33//32
f 35//34 33//32 28//24
f 19//19 36//35 34//33
f 36//35 35//34 34//33
f 30//27 37//36 36//35
f 40//39 41//40 38//37
f 38//37 42//41 39//38
f 40//39 42//41 41//40
f 38//37 33//32 40//39
f 33//32 43//42 40//39
f 43//42 42//41 40//39
f 36//35 43//42 33//32
f 44//43 36//35 45//44
f 43//42 36//35 46//45
f 46//45 36//35 44//43
f 47//46 7//6 48//47
f 49//48 48//47 8//7
f 7//6 8//7 48//47
f 50//49 17//17 21//21
f 23//50 11//11 12//12
f 51//51 23//50 12//12
f 51//51 12//12 77//52
f 53//53 54//54 13//13
f 12//12 13//13 54//54
f 17//17 52//55 24//23
f 24//23 29//26 15//15
f 55//56 53//53 25//29
f 53//53 26//30 25//29
f 13//13 27//25 53//53
f 53//53 27//25 26//30
f 31//28 24//23 56//57
f 55//56 25//29 57//58
f 56//57 37//36 31//28
f 36//35 37//36 45//44
f 39//38 42//41 46//45
f 46//45 58//59 39//38
f 43//42 46//45 42//41
f 50//49 59//60 17//17
f 49//48 60//61 61//62
f 62//63 23//50 51//51
f 59//60 52//55 17//17
f 77//52 12//12 54//54
f 77//52 54//54 53//53
f 57//58 25//29 63//64
f 32//31 63//64 25//29
f 39//38 63//64 32//31
f 64//65 65//66 66//67
f 37//36 56//57 67//68
f 63//64 39//38 68//69
f 66//67 65//66 58//59
f 69//70 46//45 44//43
f 70//71 44//43 45//44
f 67//68 56//57 71//72
f 49//48 72//73 73//74
f 74//75 62//63 75//76
f 61//62 72//73 49//48
f 48//47 49//48 73//74
f 75//76 62//63 51//51
f 75//76 51//51 76//77
f 77//52 53//53 55//56
f 24//23 52//55 56//57
f 66//67 78//78 64//65
f 66//67 58//59 79//79
f 66//67 79//79 80//80
f 81//81 71//72 56//57
f 46//45 79//79 58//59
f 79//79 46//45 82//82
f 70//71 83//83 44//43
f 83//83 71//72 81//81
f 84//84 72//73 85//85
f 85//85 72//73 61//62
f 73//74 84//84 48//47
f 86//86 87//87 84//84
f 48//47 88//88 89//89
f 91//90 47//46 92//91
f 47//46 89//89 92//91
f 89//89 47//46 48//47
f 59//60 93//92 95//93
f 95//93 90//94 59//60
f 96//95 74//75 75//76
f 84//84 87//87 48//47
f 87//87 88//88 48//47
f 76//77 51//51 77//52
f 97//96 77//52 98//97
f 98//97 77//52 55//56
f 55//56 57//58 98//97
f 100//98 56//57 52//55
f 78//78 98//97 64//65
f 56//57 100//98 101//99
f 78//78 66//67 102//100
f 101//99 104//101 56//57
f 66//67 103//102 102//100
f 103//102 66//67 80//80
f 79//79 105//103 80//80
f 80//80 105//103 106//104
f 69//70 44//43 107//105
f 69//70 107//105 108//106
f 104//101 81//81 56//57
f 104//101 109//107 81//81
f 79//79 110//108 105//103
f 106//104 105//103 111//109
f 112//110 82//82 113//111
f 46//45 69//70 82//82
f 82//82 69//70 113//111
f 114//112 83//83 81//81
f 84//84 85//85 115//113
f 92//91 89//89 116//114
f 116//114 94//115 92//91
f 117//116 116//114 89//89
f 116//114 117//116 118//117
f 116//114 118//117 90//94
f 89//89 88//88 120//118
f 90//94 95//93 116//114
f 118//117 117//116 119//119
f 119//119 121//120 118//117
f 118//117 122//121 90//94
f 59//60 90//94 123//122
f 123//122 90//94 124//123
f 121//120 124//123 90//94
f 123//122 124//123 125//124
f 52//55 59//60 123//122
f 76//77 77//52 97//96
f 97//96 98//97 99//125
f 126//126 101//99 100//98
f 98//97 78//78 99//125
f 129//127 127//128 128//129
f 127//128 129//127 78//78
f 127//128 78//78 102//100
f 103//102 127//128 102//100
f 128//129 127//128 103//102
f 80//80 128//129 103//102
f 128//129 80//80 130//130
f 80//80 131//131 130//130
f 132//132 104//101 133//133
f 132//132 109//107 104//101
f 113//111 106//104 112//110
f 80//80 106//104 134//134
f 135//135 106//104 113//111
f 134//134 131//131 80//80
f 113//111 69//70 136//136
f 44//43 83//83 137//137
f 137//137 83//83 114//112
f 115//113 86//86 84//84
f 138//138 75//76 139//139
f 140//140 141//141 139//139
f 142//142 140//140 143//143
f 144//144 87//87 86//86
f 147//145 119//119 146//146
f 147//145 146//146 145//147
f 89//89 120//118 117//116
f 146//146 119//119 117//116
f 76//77 139//139 75//76
f 139//139 76//77 149//148
f 150//149 140//140 139//139
f 139//139 149//148 150//149
f 147//145 151//150 119//119
f 121//120 119//119 124//123
f 97//96 149//148 76//77
f 152//151 124//123 119//119
f 125//124 124//123 152//151
f 152//151 154//152 125//124
f 156//153 97//96 99//125
f 153//154 52//55 123//122
f 153//154 100//98 52//55
f 155//155 99//125 78//78
f 126//126 100//98 153//154
f 78//78 129//127 155//155
f 128//129 130//130 129//127
f 157//156 104//101 101//99
f 157//156 101//99 126//126
f 153//154 157//156 126//126
f 158//157 104//101 159//158
f 107//105 160//159 133//133
f 134//134 106//104 161//160
f 135//135 161//160 106//104
f 136//136 69//70 166//161
f 166//161 69//70 108//106
f 107//105 44//43 137//137
f 107//105 137//137 163//162
f 163//162 137//137 164//163
f 133//133 160//159 132//132
f 165//164 135//135 113//111
f 135//135 167//165 161//160
f 167//165 166//161 161//160
f 148//166 143//143 140//140
f 150//149 168//167 140//140
f 140//140 168//167 148//166
f 147//145 148//166 168//167
f 151//150 147//145 168//167
f 168//167 170//168 151//150
f 150//149 149//148 97//96
f 156//153 169//169 150//149
f 170//168 171//170 151//150
f 152//151 119//119 151//150
f 152//151 151//150 171//170
f 155//155 156//153 99//125
f 156//153 155//155 169//169
f 97//96 156//153 150//149
f 172//171 154//152 152//151
f 154//152 172//171 173//172
f 157//156 153//154 173//172
f 155//155 129//127 130//130
f 172//171 174//173 173//172
f 173//172 175//174 157//156
f 176//175 177//176 175//174
f 159//158 104//101 157//156
f 178//177 131//131 134//134
f 179//178 131//131 178//177
f 180//179 181//180 177//176
f 182//181 134//134 161//160
f 178//177 134//134 182//181
f 181//180 133//133 177//176
f 133//133 181//180 183//182
f 133//133 183//182 107//105
f 162//183 178//177 161//160
f 166//161 162//183 161//160
f 166//161 108//106 185//184
f 166//161 184//185 162//183
f 170//168 168//167 150//149
f 171//170 170//168 186//186
f 187//187 150//149 169//169
f 188//188 187//187 169//169
f 187//187 186//186 170//168
f 186//186 187//187 189//189
f 188//188 189//189 187//187
f 187//187 170//168 150//149
f 172//171 171//170 186//186
f 172//171 152//151 171//170
f 130//130 169//169 155//155
f 188//188 169//169 130//130
f 188//188 190//190 189//189
f 188//188 130//130 191//191
f 192//192 189//189 190//190
f 186//186 189//189 193//193
f 172//171 186//186 193//193
f 174//173 198//194 195//195
f 195//195 198//194 194//196
f 194//196 172//171 193//193
f 195//195 175//197 197//198
f 196//199 174//173 195//195
f 196//199 175//174 174//173
f 173//172 174//173 175//174
f 177//176 157//156 175//174
f 194//196 199//200 195//195
f 195//195 199//200 175//197
f 176//175 199//200 180//179
f 177//176 176//175 180//179
f 201//201 200//202 199//200
f 180//179 200//202 181//180
f 200//202 180//179 199//200
f 204//203 179//178 178//177
f 204//203 178//177 162//183
f 162//183 205//204 204//203
f 108//106 107//105 183//182
f 183//182 181//180 202//205
f 183//182 206//206 108//106
f 166//161 185//184 184//185
f 190//190 191//191 130//130
f 130//130 207//207 190//190
f 192//192 193//193 189//189
f 192//192 208//208 193//193
f 190//190 209//209 192//192
f 207//207 130//130 131//131
f 190//190 207//207 209//209
f 207//207 131//131 179//178
f 207//207 179//178 204//203
f 204//203 210//210 207//207
f 211//211 204//203 212//212
f 213//213 214//214 205//204
f 193//193 215//215 194//196
f 215//215 193//193 216//216
f 215//215 199//200 194//196
f 212//212 204//203 205//204
f 216//216 213//213 205//204
f 199//200 215//215 201//201
f 202//205 203//217 183//182
f 217//218 218//219 202//205
f 202//205 218//219 203//217
f 216//216 206//206 215//215
f 216//216 205//204 185//184
f 185//184 108//106 206//206
f 216//216 185//184 206//206
f 162//183 184//185 205//204
f 205//204 184//185 185//184
f 210//210 219//220 207//207
