#
# The license for this database is specified in the Creative Commons Attribution-Share Alike 2.1 Japan. If you use data from this database, please be sure attribute this database as follows: "BodyParts3D, (c)  The Database Center for Life Science licensed under CC Attribution-Share Alike 2.1 Japan".
# http://dbarchive.biosciencedbc.jp/en/bodyparts3d/lic.html
#
#
# Compatibility version : 4.0
# File ID : FJ3270
# Representation ID : BP8272
# Build-up logic : FMA 3.0 is_a
# Concept ID : FMA45098
# English name : Sesamoid bone of left foot
# Bounds(mm): (94.694400,-183.496000,-69.293100)-(103.166000,-170.643000,-61.925000)
# Volume(cm3): 0.336800
#
v 96.7332 -174.767 -67.8348
v 94.9184 -175.145 -65.1299
v 97.0954 -172.85 -67.5888
v 98.0295 -173.41 -68.2491
v 99.6461 -172.654 -68.0372
v 97.142 -171.515 -66.5564
v 95.897 -172.538 -65.9338
v 95.2442 -172.609 -63.5159
v 95.6589 -171.782 -63.3732
v 95.3109 -172.524 -62.8652
v 98.1525 -171.635 -67.2103
v 99.3873 -171.215 -66.8874
v 99.5019 -170.681 -65.9154
v 96.682 -170.944 -64.5395
v 98.234 -170.737 -65.9605
v 97.8211 -170.643 -63.9159
v 96.4939 -171.163 -62.9089
v 95.8225 -179.149 -67.0116
v 95.4445 -179.01 -66.369
v 98.6333 -177.039 -69.0115
v 100.103 -177.837 -69.2931
v 101.068 -177.101 -69.1256
v 94.6944 -175.233 -64.2154
v 94.7271 -174.859 -63.4171
v 95.0502 -175.972 -63.5061
v 99.6991 -174.813 -68.9088
v 100.46 -174.344 -68.6715
v 101.822 -174.78 -68.0532
v 95.9363 -171.851 -62.3626
v 94.9827 -173.976 -62.8073
v 95.852 -173.205 -62.0668
v 100.249 -171.062 -66.4239
v 100.67 -172.333 -67.5684
v 100.636 -171.079 -65.6584
v 101.51 -172.16 -66.4323
v 100.074 -170.936 -64.9213
v 101.098 -172.151 -64.1775
v 96.6012 -171.897 -61.925
v 98.4483 -171.242 -62.8091
v 97.8949 -172.542 -62.0576
v 96.3798 -181.893 -65.8778
v 96.9196 -182.648 -65.9916
v 96.6183 -182.624 -65.6338
v 99.5025 -180.372 -68.7798
v 99.6838 -181.261 -68.3765
v 100.422 -180.72 -68.6917
v 101.149 -180.897 -68.3968
v 97.6184 -180.728 -67.8598
v 101.291 -178.657 -69.1525
v 100.655 -179.526 -69.0858
v 101.451 -179.696 -68.8887
v 102.054 -178.719 -68.7782
v 102.112 -179.842 -68.4597
v 102.648 -178.755 -68.1438
v 102.826 -175.691 -66.5397
v 98.8418 -182.933 -66.6609
v 97.9018 -183.496 -65.4286
v 98.1001 -182.734 -64.9449
v 100.628 -181.982 -67.7377
v 101.509 -182.115 -67.0898
v 100.933 -182.918 -66.5057
v 101.675 -182.544 -66.2501
v 102.238 -182.026 -65.2039
v 100.158 -183.477 -65.542
v 101.282 -183.012 -65.334
v 100.688 -181.874 -63.975
v 100.637 -182.938 -64.0586
v 102.628 -179.925 -67.7673
v 103.166 -179.013 -66.0585
v 102.679 -181.185 -66.1741
v 102.786 -180.608 -65.0926
v 101.274 -180.369 -63.6497
v 101.859 -181.64 -63.8935
v 102.198 -177.356 -63.7202
v 95.3109 -172.524 -62.8652
v 94.7271 -174.859 -63.4171
v 94.7271 -174.859 -63.4171
v 95.0502 -175.972 -63.5061
v 95.9363 -171.851 -62.3626
v 94.9827 -173.976 -62.8073
v 94.9827 -173.976 -62.8073
v 95.852 -173.205 -62.0668
v 101.098 -172.151 -64.1775
v 96.6012 -171.897 -61.925
v 96.6012 -171.897 -61.925
v 96.6012 -171.897 -61.925
v 98.4483 -171.242 -62.8091
v 96.3798 -181.893 -65.8778
v 96.6183 -182.624 -65.6338
v 96.6183 -182.624 -65.6338
v 102.826 -175.691 -66.5397
v 97.9018 -183.496 -65.4286
v 97.9018 -183.496 -65.4286
v 100.637 -182.938 -64.0586
v 101.859 -181.64 -63.8935
v 102.198 -177.356 -63.7202
vn -0.668423 0.123787 -0.733408
vn -0.912245 0.125494 -0.389949
vn -0.538696 0.40576 -0.738353
vn -0.273357 0.318078 -0.907801
vn 0.0464615 0.500744 -0.864348
vn -0.506566 0.686298 -0.521906
vn -0.814261 0.414287 -0.406627
vn -0.948839 0.305599 -0.0794659
vn -0.789515 0.613527 0.0158594
vn -0.90316 0.411534 0.122238
vn -0.204571 0.64849 -0.73322
vn 0.0590981 0.766016 -0.640099
vn 0.159112 0.972207 -0.171745
vn -0.524121 0.83771 -0.153426
vn -0.186664 0.914359 -0.359311
vn -0.0147739 0.987569 0.156493
vn -0.33699 0.8703 0.359188
vn -0.738397 -0.136831 -0.660339
vn -0.964861 -0.193887 -0.177347
vn -0.367607 -0.0111901 -0.929914
vn -0.0456775 -0.0213188 -0.998729
vn 0.320134 0.148966 -0.935587
vn -0.998878 -0.032164 -0.0347683
vn -0.974487 0.224318 0.00755885
vn -0.946355 -0.279994 0.161296
vn -0.0206786 0.228445 -0.973337
vn 0.292828 0.335233 -0.895472
vn 0.688777 0.285506 -0.666388
vn -0.619032 0.692328 0.370785
vn -0.971574 0.224658 0.0746518
vn -0.667408 0.19902 0.717605
vn 0.395689 0.80214 -0.447216
vn 0.410055 0.559151 -0.720559
vn 0.578008 0.815887 0.0153446
vn 0.799653 0.541963 -0.258516
vn 0.389257 0.877876 0.278949
vn 0.787977 0.533986 0.306514
vn -0.526934 0.212531 0.822904
vn 0.200542 0.850025 0.487073
vn 0.29729 0.0792774 0.95149
vn -0.722351 -0.388689 -0.571952
vn -0.521924 -0.609248 -0.597003
vn -0.615173 -0.628444 -0.476048
vn -0.207958 -0.279355 -0.937398
vn -0.142701 -0.561816 -0.814861
vn 0.0986974 -0.448916 -0.888107
vn 0.36702 -0.521567 -0.770236
vn -0.476655 -0.395952 -0.784871
vn 0.254296 -0.07469 -0.964238
vn 0.0461881 -0.229111 -0.972304
vn 0.329114 -0.300905 -0.895064
vn 0.578683 -0.0177518 -0.815359
vn 0.617619 -0.350502 -0.704056
vn 0.866116 -0.00639756 -0.499802
vn 0.911494 0.199008 -0.359966
vn -0.142394 -0.764636 -0.628534
vn -0.278292 -0.839878 -0.466003
vn -0.337055 -0.276969 0.899823
vn 0.174963 -0.673981 -0.717731
vn 0.578087 -0.597872 -0.555306
vn 0.323248 -0.833942 -0.44727
vn 0.674574 -0.689324 -0.264165
vn 0.797024 -0.577553 0.176596
vn 0.171397 -0.978443 -0.115203
vn 0.54399 -0.838609 0.0284767
vn -0.344761 -0.0630285 0.936572
vn 0.432783 -0.834415 0.341249
vn 0.850148 -0.317281 -0.420216
vn 0.998545 -0.0538671 0.00255113
vn 0.890323 -0.417161 -0.182487
vn 0.932263 -0.212055 0.293118
vn -0.0609546 -0.165126 0.984387
vn 0.807225 -0.38311 0.449015
vn 0.914946 0.0715302 0.397187
vn -0.729901 0.189954 0.656629
vn -0.942059 -0.287339 0.173094
vn -0.700657 -0.25669 0.665725
vn -0.406544 -0.326959 0.853123
vn -0.634355 0.202434 0.746066
vn -0.57893 -0.286731 0.763299
vn -0.729155 0.191122 0.657119
vn -0.155982 -0.258312 0.953386
vn 0.519467 0.220522 0.825545
vn 0.0373269 -0.128768 0.990972
vn -0.168964 0.781112 0.601094
vn 0.282887 0.387113 0.877564
vn 0.40084 0.324774 0.85665
vn -0.950396 -0.27307 0.148933
vn -0.954477 -0.26733 0.132315
vn -0.412196 -0.387762 0.82446
vn 0.934464 0.235388 0.267149
vn -0.36857 -0.428109 0.825154
vn 0.0248764 -0.942211 0.334096
vn -0.254332 -0.186789 0.948907
vn 0.158673 -0.114976 0.980614
vn 0.36878 0.0191212 0.92932
g grp1
usemtl mtl1
f 2//2 7//7 1//1 
f 2//2 19//19 23//23 
f 2//2 23//23 8//8 
f 23//23 24//24 8//8 
f 7//7 2//2 8//8 
f 26//26 20//20 4//4 
f 7//7 3//3 1//1 
f 4//4 1//1 3//3 
f 11//11 4//4 3//3 
f 3//3 6//6 11//11 
f 7//7 6//6 3//3 
f 4//4 11//11 5//5 
f 4//4 5//5 26//26 
f 11//11 12//12 5//5 
f 7//7 14//14 6//6 
f 8//8 9//9 7//7 
f 10//10 29//29 9//9 
f 8//8 10//10 9//9 
f 14//14 7//7 9//9 
f 8//8 30//30 10//10 
f 6//6 15//15 11//11 
f 11//11 15//15 12//12 
f 32//32 12//12 13//13 
f 33//33 5//5 12//12 
f 13//13 16//16 36//36 
f 6//6 14//14 15//15 
f 13//13 12//12 15//15 
f 15//15 14//14 16//16 
f 13//13 15//15 16//16 
f 14//14 9//9 17//17 
f 9//9 29//29 17//17 
f 16//16 14//14 17//17 
f 18//18 41//41 19//19 
f 48//48 18//18 20//20 
f 48//48 20//20 44//44 
f 44//44 20//20 21//21 
f 2//2 1//1 18//18 
f 18//18 19//19 2//2 
f 20//20 1//1 4//4 
f 20//20 18//18 1//1 
f 20//20 26//26 21//21 
f 22//22 21//21 26//26 
f 49//49 21//21 22//22 
f 76//76 23//23 25//25 
f 8//8 24//24 30//30 
f 19//19 25//25 23//23 
f 78//78 80//80 77//77 
f 26//26 5//5 27//27 
f 27//27 22//22 26//26 
f 28//28 22//22 27//27 
f 27//27 33//33 28//28 
f 27//27 5//5 33//33 
f 81//81 31//31 75//75 
f 79//79 75//75 31//31 
f 38//38 79//79 31//31 
f 78//78 82//82 80//80 
f 72//72 40//40 82//82 
f 78//78 72//72 82//82 
f 40//40 84//84 82//82 
f 35//35 55//55 28//28 
f 33//33 12//12 32//32 
f 35//35 32//32 34//34 
f 34//34 32//32 13//13 
f 32//32 35//35 33//33 
f 13//13 36//36 34//34 
f 35//35 28//28 33//33 
f 37//37 35//35 34//34 
f 37//37 34//34 36//36 
f 36//36 16//16 39//39 
f 37//37 36//36 39//39 
f 87//87 40//40 83//83 
f 17//17 29//29 85//85 
f 16//16 17//17 39//39 
f 85//85 39//39 17//17 
f 40//40 87//87 86//86 
f 18//18 48//48 41//41 
f 42//42 43//43 41//41 
f 88//88 89//89 25//25 
f 41//41 48//48 42//42 
f 56//56 57//57 42//42 
f 42//42 57//57 43//43 
f 90//90 92//92 58//58 
f 78//78 90//90 58//58 
f 56//56 42//42 48//48 
f 19//19 88//88 25//25 
f 50//50 44//44 21//21 
f 45//45 48//48 44//44 
f 48//48 45//45 56//56 
f 44//44 50//50 46//46 
f 46//46 50//50 51//51 
f 45//45 44//44 46//46 
f 56//56 45//45 59//59 
f 46//46 47//47 59//59 
f 45//45 46//46 59//59 
f 46//46 51//51 47//47 
f 60//60 59//59 47//47 
f 52//52 49//49 22//22 
f 28//28 52//52 22//22 
f 50//50 21//21 49//49 
f 52//52 51//51 49//49 
f 51//51 50//50 49//49 
f 47//47 51//51 53//53 
f 53//53 51//51 52//52 
f 53//53 52//52 54//54 
f 54//54 52//52 28//28 
f 54//54 28//28 55//55 
f 68//68 53//53 54//54 
f 68//68 54//54 69//69 
f 69//69 54//54 55//55 
f 60//60 47//47 53//53 
f 68//68 60//60 53//53 
f 69//69 91//91 74//74 
f 35//35 37//37 91//91 
f 91//91 37//37 74//74 
f 40//40 96//96 83//83 
f 57//57 56//56 64//64 
f 67//67 93//93 64//64 
f 94//94 58//58 92//92 
f 56//56 59//59 61//61 
f 60//60 61//61 59//59 
f 60//60 70//70 62//62 
f 61//61 64//64 56//56 
f 62//62 61//61 60//60 
f 61//61 65//65 64//64 
f 61//61 62//62 65//65 
f 65//65 62//62 63//63 
f 78//78 58//58 72//72 
f 66//66 72//72 58//58 
f 94//94 66//66 58//58 
f 66//66 94//94 72//72 
f 64//64 65//65 67//67 
f 65//65 63//63 67//67 
f 63//63 73//73 67//67 
f 70//70 60//60 68//68 
f 68//68 69//69 70//70 
f 69//69 71//71 70//70 
f 70//70 63//63 62//62 
f 71//71 63//63 70//70 
f 71//71 73//73 63//63 
f 95//95 96//96 72//72 
f 71//71 74//74 73//73 
f 94//94 95//95 72//72 
f 69//69 74//74 71//71 
f 96//96 40//40 72//72 
