#
# The license for this database is specified in the Creative Commons Attribution-Share Alike 2.1 Japan. If you use data from this database, please be sure attribute this database as follows: "BodyParts3D, (c)  The Database Center for Life Science licensed under CC Attribution-Share Alike 2.1 Japan".
# http://dbarchive.biosciencedbc.jp/en/bodyparts3d/lic.html
#
#
# Compatibility version : 4.0
# File ID : FJ3372
# Representation ID : BP8756
# Build-up logic : FMA 3.0 is_a
# Concept ID : FMA45097
# English name : Sesamoid bone of right foot
# Bounds(mm): (-94.160400,-184.779000,-67.789300)-(-87.061100,-175.493000,-61.588200)
# Volume(cm3): 0.145400
#
v -92.8996 -178.308 -66.6024
v -92.3327 -177.153 -66.0201
v -92.4763 -182.841 -67.617
v -94.1604 -182.717 -64.9252
v -92.8835 -179.389 -67.2404
v -92.1058 -178.296 -66.9965
v -92.3811 -180.094 -67.6319
v -90.4456 -180.674 -67.7893
v -93.7224 -180.374 -66.7982
v -93.3628 -180.041 -67.1527
v -93.5335 -179.468 -66.785
v -94.0645 -179.841 -65.8335
v -94.0713 -179.422 -64.282
v -90.0331 -177.721 -66.5893
v -89.3301 -178.187 -66.4291
v -93.4993 -177.589 -64.815
v -91.3092 -176.594 -65.9271
v -91.7675 -176.091 -64.9624
v -92.2834 -176.403 -62.2673
v -90.623 -175.493 -63.4956
v -89.143 -176.26 -64.8492
v -89.1068 -175.796 -63.5806
v -91.613 -184.17 -66.7497
v -89.7003 -183.76 -66.5562
v -92.5757 -184.048 -64.9302
v -91.6858 -184.439 -65.0382
v -92.0605 -184.206 -64.0265
v -89.8594 -182.487 -67.4371
v -87.8326 -179.782 -65.5124
v -90.4327 -177.972 -62.5746
v -88.0251 -176.937 -62.6446
v -87.6178 -177.385 -63.5585
v -87.345 -177.744 -63.307
v -90.7783 -176.7 -61.5882
v -90.1018 -176.081 -61.6704
v -90.0607 -184.779 -64.6777
v -90.178 -184.511 -64.2754
v -87.4992 -181.868 -65.0156
v -87.7346 -182.954 -64.8828
v -87.2189 -181.122 -64.2801
v -87.4966 -181.193 -64.0275
v -87.0611 -181.457 -64.1034
v -94.1604 -182.717 -64.9252
v -94.0713 -179.422 -64.282
v -94.0713 -179.422 -64.282
v -92.2834 -176.403 -62.2673
v -92.2834 -176.403 -62.2673
v -92.2834 -176.403 -62.2673
v -90.623 -175.493 -63.4956
v -89.1068 -175.796 -63.5806
v -89.7003 -183.76 -66.5562
v -92.0605 -184.206 -64.0265
v -92.0605 -184.206 -64.0265
v -89.8594 -182.487 -67.4371
v -90.4327 -177.972 -62.5746
v -88.0251 -176.937 -62.6446
v -87.345 -177.744 -63.307
v -87.345 -177.744 -63.307
v -90.7783 -176.7 -61.5882
v -90.1018 -176.081 -61.6704
v -90.1018 -176.081 -61.6704
v -90.0607 -184.779 -64.6777
v -90.178 -184.511 -64.2754
v -90.178 -184.511 -64.2754
v -87.7346 -182.954 -64.8828
v -87.7346 -182.954 -64.8828
v -87.2189 -181.122 -64.2801
v -87.2189 -181.122 -64.2801
v -87.4966 -181.193 -64.0275
v -87.0611 -181.457 -64.1034
v -87.0611 -181.457 -64.1034
v -87.0611 -181.457 -64.1034
v -87.0611 -181.457 -64.1034
vn -0.567697 0.509166 -0.646893
vn -0.474567 0.651166 -0.592258
vn -0.398126 -0.267385 -0.877497
vn -0.863207 -0.449275 -0.230272
vn -0.438833 0.35357 -0.826083
vn -0.164407 0.467816 -0.8684
vn -0.233369 0.182013 -0.955202
vn 0.269407 0.156671 -0.950197
vn -0.844402 -0.00775704 -0.535654
vn -0.585293 0.123607 -0.801345
vn -0.753886 0.333539 -0.566046
vn -0.957526 0.164931 -0.236519
vn -0.972524 0.225368 0.0583612
vn 0.255791 0.492255 -0.832019
vn 0.579794 0.343153 -0.738976
vn -0.820814 0.527322 -0.219534
vn -0.0578575 0.721677 -0.689808
vn -0.353333 0.877304 -0.324797
vn -0.46937 0.875613 0.113988
vn 0.121369 0.91471 -0.385455
vn 0.439935 0.722166 -0.533792
vn 0.165964 0.92478 -0.342402
vn -0.209972 -0.839556 -0.501056
vn 0.350656 -0.762666 -0.54349
vn -0.528413 -0.848166 -0.0373426
vn -0.306488 -0.951407 -0.0298424
vn -0.4331 -0.134439 0.891263
vn 0.140171 -0.402613 -0.904574
vn 0.821445 0.212856 -0.529075
vn -0.384876 -0.112847 0.916044
vn 0.686516 0.713586 0.139609
vn 0.791599 0.553319 -0.259249
vn 0.890503 0.21871 -0.398961
vn 0.00956741 -0.458755 0.888511
vn 0.16515 0.924243 0.344238
vn 0.0762753 -0.99588 -0.0490399
vn 0.529288 -0.594446 0.605383
vn 0.832001 -0.124516 -0.54062
vn 0.571327 -0.762357 -0.303971
vn 0.686657 -0.177454 0.704991
vn 0.395639 -0.205261 0.895175
vn 0.096723 -0.14837 0.984191
vn -0.479849 -0.155574 0.863448
vn -0.4331 -0.134439 0.891263
vn -0.284121 -0.478513 0.830843
vn -0.896877 0.356059 0.262363
vn -0.440966 -0.302712 0.844935
vn -0.296815 0.437127 0.849011
vn -0.176477 0.960214 0.216437
vn 0.568846 0.817074 0.0938322
vn 0.68615 -0.353966 -0.635536
vn -0.343788 -0.904438 0.25259
vn 0.130189 -0.210142 0.968964
vn 0.70468 -0.146994 -0.694132
vn 0.0981201 -0.491754 0.865188
vn 0.300597 -0.310734 0.901713
vn 0.624118 -0.185962 0.758877
vn 0.780915 0.623187 0.0425476
vn -0.296815 0.437127 0.849011
vn -0.296815 0.437127 0.849011
vn 0.329821 -0.239184 0.913241
vn 0.537531 -0.621012 0.570443
vn -0.0645299 -0.83908 0.540168
vn 0.103671 -0.161082 0.981481
vn 0.529288 -0.594446 0.605383
vn 0.788413 -0.281005 -0.547211
vn 0.944135 0.292221 -0.152368
vn 0.465567 0.574418 0.673269
vn 0.465567 0.574418 0.673269
vn 0.913869 -0.101944 -0.393003
vn 0.519989 -0.566694 0.639116
vn 0.465567 0.574418 0.673269
vn 0.898035 0.438893 0.0300882
g grp1
usemtl mtl1
f 11//11 12//12 16//16 
f 11//11 1//1 5//5 
f 5//5 1//1 6//6 
f 11//11 16//16 1//1 
f 16//16 2//2 1//1 
f 6//6 1//1 2//2 
f 2//2 16//16 18//18 
f 3//3 4//4 9//9 
f 4//4 3//3 23//23 
f 23//23 3//3 28//28 
f 7//7 10//10 5//5 
f 7//7 5//5 6//6 
f 7//7 3//3 10//10 
f 6//6 8//8 7//7 
f 8//8 28//28 3//3 
f 8//8 3//3 7//7 
f 3//3 9//9 10//10 
f 9//9 11//11 10//10 
f 9//9 12//12 11//11 
f 5//5 10//10 11//11 
f 9//9 4//4 12//12 
f 4//4 13//13 12//12 
f 16//16 12//12 13//13 
f 6//6 14//14 8//8 
f 6//6 17//17 14//14 
f 21//21 14//14 17//17 
f 14//14 15//15 8//8 
f 15//15 14//14 21//21 
f 21//21 29//29 15//15 
f 17//17 6//6 2//2 
f 2//2 18//18 17//17 
f 16//16 19//19 18//18 
f 17//17 18//18 21//21 
f 16//16 13//13 46//46 
f 21//21 18//18 20//20 
f 18//18 19//19 49//49 
f 21//21 20//20 22//22 
f 49//49 35//35 50//50 
f 35//35 49//49 19//19 
f 24//24 23//23 28//28 
f 4//4 23//23 25//25 
f 36//36 23//23 24//24 
f 36//36 26//26 23//23 
f 26//26 25//25 23//23 
f 43//43 27//27 44//44 
f 52//52 4//4 25//25 
f 52//52 25//25 26//26 
f 8//8 29//29 54//54 
f 29//29 38//38 54//54 
f 53//53 42//42 41//41 
f 15//15 29//29 8//8 
f 44//44 27//27 30//30 
f 34//34 45//45 55//55 
f 47//47 45//45 34//34 
f 32//32 29//29 21//21 
f 29//29 32//32 33//33 
f 40//40 57//57 41//41 
f 67//67 29//29 33//33 
f 21//21 50//50 32//32 
f 35//35 31//31 50//50 
f 56//56 53//53 41//41 
f 53//53 56//56 55//55 
f 31//31 58//58 32//32 
f 32//32 50//50 31//31 
f 41//41 57//57 56//56 
f 59//59 60//60 48//48 
f 55//55 56//56 34//34 
f 34//34 56//56 61//61 
f 24//24 39//39 36//36 
f 62//62 65//65 37//37 
f 63//63 52//52 36//36 
f 36//36 52//52 26//26 
f 51//51 54//54 66//66 
f 38//38 66//66 54//54 
f 64//64 42//42 53//53 
f 29//29 70//70 38//38 
f 37//37 65//65 71//71 
f 38//38 70//70 66//66 
f 69//69 72//72 68//68 
f 73//73 29//29 67//67 
