#
# The license for this database is specified in the Creative Commons Attribution-Share Alike 2.1 Japan. If you use data from this database, please be sure attribute this database as follows: "BodyParts3D, (c)  The Database Center for Life Science licensed under CC Attribution-Share Alike 2.1 Japan".
# http://dbarchive.biosciencedbc.jp/en/bodyparts3d/lic.html
#
#
# Compatibility version : 4.0
# File ID : FJ3266
# Representation ID : BP8272
# Build-up logic : FMA 3.0 is_a
# Concept ID : FMA45098
# English name : Sesamoid bone of left foot
# Bounds(mm): (87.494800,-184.752000,-67.997400)-(94.279200,-175.536000,-61.572800)
# Volume(cm3): 0.138600
#
v 89.9373 -177.283 -66.1992
v 88.6204 -176.563 -64.2996
v 87.4948 -182.564 -64.6716
v 89.609 -180.398 -67.3553
v 90.3035 -180.646 -67.7863
v 89.6065 -182.128 -67.394
v 90.9772 -182.014 -67.9974
v 88.0151 -180.027 -65.7551
v 87.5039 -179.636 -63.6668
v 91.5348 -178.791 -67.319
v 92.128 -180.376 -67.7513
v 92.5719 -177.66 -66.2326
v 91.7161 -175.973 -64.7012
v 93.1142 -176.985 -64.8371
v 92.4105 -176.197 -63.3442
v 90.0773 -175.536 -63.478
v 89.2462 -176.177 -62.3012
v 89.7285 -176.448 -61.7554
v 90.2548 -175.992 -61.9668
v 91.1382 -175.752 -62.6886
v 90.5845 -183.906 -66.9451
v 89.1117 -184.005 -65.4905
v 89.1102 -184.318 -64.4543
v 90.2425 -184.752 -64.9121
v 92.2327 -181.669 -67.8382
v 91.8221 -183.078 -67.6161
v 92.8328 -182.906 -67.3102
v 92.3525 -183.656 -66.9205
v 93.1284 -183.468 -66.3303
v 93.6364 -182.911 -66.3146
v 93.2491 -179.557 -67.0427
v 93.3726 -180.937 -67.2525
v 93.9425 -180.881 -66.5494
v 93.7097 -182.007 -66.8027
v 94.066 -182.036 -65.9785
v 94.2792 -181.225 -65.0086
v 93.677 -178.792 -66.019
v 94.2667 -179.937 -64.8173
v 93.389 -177.134 -63.3557
v 93.9006 -178.214 -64.5223
v 94.072 -179.042 -64.2306
v 90.7607 -178.272 -62.6962
v 91.1578 -176.538 -61.5728
v 91.9484 -177.638 -62.6627
v 92.1993 -184.185 -65.4211
v 93.6174 -183.335 -65.0506
v 93.3229 -182.981 -64.3867
v 93.6075 -183.368 -64.5635
v 92.2127 -184.202 -64.5289
v 92.0866 -184.189 -64.1664
v 94.1129 -181.297 -64.6094
v 93.8967 -182.926 -64.9279
v 88.6204 -176.563 -64.2996
v 88.6204 -176.563 -64.2996
v 87.4948 -182.564 -64.6716
v 87.5039 -179.636 -63.6668
v 87.5039 -179.636 -63.6668
v 92.4105 -176.197 -63.3442
v 90.0773 -175.536 -63.478
v 89.2462 -176.177 -62.3012
v 89.2462 -176.177 -62.3012
v 89.7285 -176.448 -61.7554
v 89.7285 -176.448 -61.7554
v 89.1102 -184.318 -64.4543
v 89.1102 -184.318 -64.4543
v 90.2425 -184.752 -64.9121
v 90.2425 -184.752 -64.9121
v 93.389 -177.134 -63.3557
v 93.389 -177.134 -63.3557
v 94.072 -179.042 -64.2306
v 91.1578 -176.538 -61.5728
v 91.1578 -176.538 -61.5728
v 93.6075 -183.368 -64.5635
v 93.6075 -183.368 -64.5635
v 92.0866 -184.189 -64.1664
v 92.0866 -184.189 -64.1664
v 92.0866 -184.189 -64.1664
v 94.1129 -181.297 -64.6094
vn -0.301508 0.595439 -0.744678
vn -0.896977 0.367918 -0.24509
vn -0.840989 -0.300343 -0.450035
vn -0.57726 0.184255 -0.7955
vn -0.275113 0.193122 -0.941816
vn -0.599137 -0.214405 -0.771405
vn -0.111142 -0.155701 -0.981532
vn -0.814971 0.171669 -0.55349
vn -0.960779 0.254663 -0.109771
vn 0.0941319 0.439668 -0.893214
vn 0.208567 0.188292 -0.959711
vn 0.390505 0.616002 -0.68414
vn 0.271465 0.894239 -0.355869
vn 0.703195 0.650075 -0.287958
vn 0.537791 0.839632 -0.0761559
vn -0.22913 0.824407 -0.517545
vn -0.417401 0.842418 0.340746
vn -0.722553 0.0935252 0.68496
vn -0.100339 0.818152 0.56618
vn 0.268445 0.924221 0.271575
vn -0.162035 -0.745857 -0.646098
vn -0.577477 -0.687624 -0.440107
vn -0.26359 -0.247261 0.932407
vn -0.393176 -0.855674 -0.336503
vn 0.310673 -0.0791666 -0.947214
vn 0.158557 -0.460655 -0.873302
vn 0.548284 -0.397393 -0.735842
vn 0.322493 -0.784352 -0.529897
vn 0.589881 -0.733503 -0.337659
vn 0.806817 -0.476493 -0.349286
vn 0.567859 0.326596 -0.75556
vn 0.596681 0.0264737 -0.802042
vn 0.903859 0.0748868 -0.421225
vn 0.79838 -0.18786 -0.572099
vn 0.948424 -0.200162 -0.24582
vn 0.994516 -0.0872662 0.0576477
vn 0.826343 0.369836 -0.424709
vn 0.994758 0.101931 0.00818329
vn 0.856966 0.515345 0.00526231
vn 0.934185 0.344432 -0.0930854
vn 0.388857 -0.223681 0.893732
vn 0.0970407 -0.43347 0.895928
vn 0.449653 0.715226 0.535036
vn 0.388008 -0.431901 0.814194
vn 0.374931 -0.911795 -0.1675
vn 0.704494 -0.700545 -0.113691
vn 0.3902 -0.121226 0.912715
vn 0.606321 -0.794671 0.0295446
vn 0.389753 -0.918156 0.0712921
vn -0.127262 -0.233861 0.963905
vn 0.913242 -0.122076 0.388699
vn 0.929784 -0.361249 0.0707151
vn -0.286827 0.81276 -0.5071
vn -0.586016 0.809847 0.0270646
vn -0.431476 -0.291619 0.85369
vn -0.189264 -0.316152 0.929638
vn -0.722553 0.0935252 0.68496
vn 0.546744 0.661037 0.513908
vn -0.172925 0.972613 0.155308
vn -0.903919 0.371913 0.211215
vn -0.722553 0.0935252 0.68496
vn -0.213578 0.602518 0.768997
vn -0.0992749 -0.499961 0.860339
vn -0.579459 -0.779942 -0.236471
vn -0.0296989 -0.761039 0.648026
vn 0.235564 -0.967971 -0.086848
vn -0.0296989 -0.761039 0.648026
vn 0.497624 -0.306966 0.811259
vn 0.588405 0.607899 0.533141
vn 0.970949 0.142362 0.192333
vn 0.224577 -0.512794 0.828618
vn -0.0796295 0.493101 0.86632
vn 0.387937 -0.131541 0.912251
vn 0.871791 -0.202847 0.445907
vn -0.0296989 -0.761039 0.648026
vn 0.328227 -0.134085 0.935034
vn 0.379795 -0.910081 0.165857
vn 0.479544 -0.109818 0.870619
g grp1
usemtl mtl1
f 8//8 9//9 2//2 
f 8//8 2//2 1//1 
f 13//13 1//1 16//16 
f 16//16 1//1 53//53 
f 6//6 21//21 22//22 
f 22//22 3//3 6//6 
f 5//5 7//7 6//6 
f 6//6 4//4 5//5 
f 7//7 5//5 11//11 
f 10//10 5//5 1//1 
f 10//10 11//11 5//5 
f 5//5 4//4 1//1 
f 7//7 21//21 6//6 
f 7//7 11//11 25//25 
f 26//26 21//21 7//7 
f 26//26 7//7 25//25 
f 3//3 8//8 6//6 
f 6//6 8//8 4//4 
f 9//9 8//8 3//3 
f 56//56 55//55 23//23 
f 42//42 56//56 50//50 
f 50//50 56//56 23//23 
f 10//10 12//12 31//31 
f 10//10 31//31 11//11 
f 25//25 11//11 32//32 
f 31//31 32//32 11//11 
f 1//1 4//4 8//8 
f 10//10 1//1 12//12 
f 12//12 1//1 13//13 
f 14//14 12//12 13//13 
f 14//14 13//13 15//15 
f 13//13 20//20 15//15 
f 59//59 54//54 17//17 
f 60//60 2//2 9//9 
f 20//20 13//13 59//59 
f 17//17 19//19 59//59 
f 61//61 57//57 18//18 
f 62//62 19//19 17//17 
f 59//59 19//19 20//20 
f 42//42 63//63 56//56 
f 43//43 20//20 19//19 
f 63//63 42//42 71//71 
f 72//72 19//19 62//62 
f 58//58 20//20 43//43 
f 21//21 24//24 22//22 
f 22//22 64//64 3//3 
f 22//22 24//24 64//64 
f 26//26 28//28 21//21 
f 26//26 25//25 27//27 
f 27//27 25//25 32//32 
f 28//28 26//26 27//27 
f 29//29 28//28 27//27 
f 27//27 32//32 34//34 
f 45//45 21//21 28//28 
f 28//28 29//29 45//45 
f 30//30 29//29 27//27 
f 45//45 66//66 21//21 
f 45//45 29//29 46//46 
f 29//29 30//30 46//46 
f 75//75 65//65 67//67 
f 47//47 41//41 76//76 
f 12//12 37//37 31//31 
f 34//34 32//32 33//33 
f 33//33 32//32 31//31 
f 31//31 37//37 33//33 
f 37//37 38//38 33//33 
f 30//30 34//34 35//35 
f 27//27 34//34 30//30 
f 34//34 33//33 35//35 
f 33//33 38//38 36//36 
f 36//36 38//38 51//51 
f 51//51 38//38 70//70 
f 35//35 33//33 36//36 
f 42//42 41//41 44//44 
f 76//76 41//41 42//42 
f 78//78 41//41 47//47 
f 37//37 12//12 14//14 
f 40//40 37//37 14//14 
f 38//38 37//37 40//40 
f 40//40 70//70 38//38 
f 14//14 39//39 40//40 
f 39//39 14//14 15//15 
f 71//71 44//44 68//68 
f 43//43 69//69 58//58 
f 41//41 68//68 44//44 
f 39//39 70//70 40//40 
f 42//42 44//44 71//71 
f 45//45 49//49 66//66 
f 30//30 52//52 46//46 
f 45//45 46//46 48//48 
f 45//45 48//48 49//49 
f 49//49 48//48 77//77 
f 78//78 47//47 73//73 
f 47//47 76//76 73//73 
f 52//52 48//48 46//46 
f 77//77 66//66 49//49 
f 30//30 35//35 52//52 
f 35//35 36//36 52//52 
f 52//52 36//36 51//51 
f 74//74 52//52 51//51 
