#
# The license for this database is specified in the Creative Commons Attribution-Share Alike 2.1 Japan. If you use data from this database, please be sure attribute this database as follows: "BodyParts3D, (c)  The Database Center for Life Science licensed under CC Attribution-Share Alike 2.1 Japan".
# http://dbarchive.biosciencedbc.jp/en/bodyparts3d/lic.html
#
#
# Compatibility version : 4.0
# File ID : FJ3141
# Representation ID : BP8141
# Build-up logic : FMA 3.0 is_a
# Concept ID : FMA18256
# English name : Right epididymis
# Bounds(mm): (-26.083400,-159.387000,700.684000)-(-16.716200,-140.176000,724.878000)
# Volume(cm3): 1.005400
#
v -19.8378 -154.521 724.52
v -17.2396 -158.176 718.836
v -17.0438 -155.793 721.408
v -17.7845 -158.738 720.789
v -18.8091 -159.166 720.832
v -18.7162 -159.387 718.836
v -18.8482 -157.872 722.714
v -17.4251 -145.678 716.997
v -16.7162 -149.279 712.836
v -18.7162 -144.208 709.836
v -19.7162 -144.512 709.836
v -19.7162 -144.497 703.836
v -20.7162 -143.176 721.125
v -20.1836 -144.176 709.836
v -20.2354 -144.176 708.836
v -20.7162 -143.747 709.836
v -20.4823 -143.176 702.836
v -20.7162 -143.444 701.836
v -20.7162 -142.934 704.836
v -20.7162 -143.176 700.684
v -21.7479 -156.139 724.021
v -23.6315 -153.092 724.878
v -21.5948 -158.692 720.814
v -22.7396 -158.176 717.836
v -25.5521 -155.176 719.836
v -23.4837 -149.294 724.772
v -25.5891 -148.176 723.836
v -21.7162 -140.176 716.201
v -25.7162 -140.514 715.836
v -21.7162 -143.434 707.836
v -22.7162 -140.614 709.836
v -24.7162 -143.176 710.945
v -26.0834 -144.176 714.836
v -21.7162 -143.466 700.836
v -22.2076 -143.176 704.836
v -21.7162 -142.543 703.836
v -22.0195 -143.176 700.836
v -22.1081 -142.176 705.836
v -17.2396 -158.176 718.836
v -17.2396 -158.176 718.836
v -17.7845 -158.738 720.789
v -18.7162 -159.387 718.836
v -18.7162 -159.387 718.836
v -18.8482 -157.872 722.714
v -18.8482 -157.872 722.714
v -16.7162 -149.279 712.836
v -16.7162 -149.279 712.836
v -16.7162 -149.279 712.836
v -18.7162 -144.208 709.836
v -18.7162 -144.208 709.836
v -18.7162 -144.208 709.836
v -18.7162 -144.208 709.836
v -18.7162 -144.208 709.836
v -19.7162 -144.512 709.836
v -19.7162 -144.512 709.836
v -19.7162 -144.512 709.836
v -19.7162 -144.497 703.836
v -19.7162 -144.497 703.836
v -19.7162 -144.497 703.836
v -20.7162 -143.176 721.125
v -20.1836 -144.176 709.836
v -20.2354 -144.176 708.836
v -20.7162 -143.747 709.836
v -20.7162 -143.747 709.836
v -20.7162 -143.747 709.836
v -20.4823 -143.176 702.836
v -20.4823 -143.176 702.836
v -20.7162 -143.444 701.836
v -20.7162 -143.444 701.836
v -20.7162 -143.444 701.836
v -20.7162 -142.934 704.836
v -20.7162 -142.934 704.836
v -20.7162 -142.934 704.836
v -20.7162 -143.176 700.684
v -20.7162 -143.176 700.684
v -20.7162 -143.176 700.684
v -21.7479 -156.139 724.021
v -23.6315 -153.092 724.878
v -22.7396 -158.176 717.836
v -25.5521 -155.176 719.836
v -23.4837 -149.294 724.772
v -25.5891 -148.176 723.836
v -25.5891 -148.176 723.836
v -21.7162 -140.176 716.201
v -21.7162 -140.176 716.201
v -25.7162 -140.514 715.836
v -25.7162 -140.514 715.836
v -21.7162 -143.434 707.836
v -22.7162 -140.614 709.836
v -22.7162 -140.614 709.836
v -22.7162 -140.614 709.836
v -22.7162 -140.614 709.836
v -22.7162 -140.614 709.836
v -22.7162 -140.614 709.836
v -24.7162 -143.176 710.945
v -24.7162 -143.176 710.945
v -26.0834 -144.176 714.836
v -26.0834 -144.176 714.836
v -21.7162 -143.466 700.836
v -21.7162 -143.466 700.836
v -21.7162 -143.466 700.836
v -22.2076 -143.176 704.836
v -22.2076 -143.176 704.836
v -22.2076 -143.176 704.836
v -22.2076 -143.176 704.836
v -21.7162 -142.543 703.836
v -21.7162 -142.543 703.836
v -22.0195 -143.176 700.836
v -22.0195 -143.176 700.836
v -22.0195 -143.176 700.836
v -22.1081 -142.176 705.836
v -22.1081 -142.176 705.836
v -22.1081 -142.176 705.836
v -22.1081 -142.176 705.836
v -22.1081 -142.176 705.836
vn 0.478845 -0.0121447 0.877815
vn 0.981022 -0.173682 0.0861964
vn 0.922919 -0.0827519 0.375995
vn 0.874044 -0.300234 0.381978
vn 0.112338 -0.929518 0.35125
vn 0.517114 -0.855096 0.0374603
vn 0.735741 -0.241306 0.632816
vn 0.89769 0.375855 0.229971
vn 0.99399 0.109238 -0.00708153
vn 0.140586 -0.462453 -0.875427
vn 0.140586 -0.462453 -0.875427
vn 0.290857 -0.956764 -0.00239181
vn 0.724879 0.39922 0.561403
vn -0.29056 -0.444475 -0.847359
vn -0.542749 -0.834921 0.0912767
vn -0.153051 -0.190012 -0.969779
vn 0.897432 0.421231 -0.131077
vn 0.906498 0.30361 -0.293399
vn 0.728924 0.683772 -0.0335486
vn 0.90164 -0.421237 -0.098
vn 0.0625601 -0.360962 0.93048
vn -0.103298 -0.0740192 0.991892
vn -0.37568 -0.869559 0.320518
vn -0.370099 -0.393732 -0.841429
vn -0.823463 -0.461587 0.329918
vn 0.0660233 0.126261 0.989797
vn -0.978629 -0.0706102 0.193128
vn 0.745613 0.666131 0.0182005
vn -0.913929 0.325978 -0.241809
vn -0.427956 -0.901059 -0.0703328
vn 0 0 -1
vn -0.387278 -0.617657 -0.684481
vn -0.50388 -0.777252 -0.376808
vn -0.538641 -0.842532 0.00244025
vn -0.114896 0.708117 -0.696685
vn 0.279823 0.95412 -0.106555
vn -0.690727 -0.722386 -0.0324812
vn 0.360273 0.918805 0.161249
vn 0.63348 -0.772418 -0.0455383
vn 0.428433 -0.522398 -0.737255
vn 0.474312 -0.854366 0.212336
vn 0.247108 -0.530296 -0.811002
vn -0.221568 -0.97494 0.0200088
vn 0.138759 -0.437916 0.888243
vn 0.00448684 -0.811126 0.584854
vn 0.0508667 -0.466233 -0.883198
vn 0.140586 -0.462453 -0.875427
vn -0.437758 -0.700788 -0.563262
vn 0.290857 -0.956764 -0.00239181
vn 0.818509 0.566609 -0.0948526
vn 0.474594 0.528207 -0.704101
vn -0.214535 -0.93074 0.29614
vn 0.525595 0.848929 0.0554081
vn -0.476719 -0.663153 -0.577033
vn -0.546062 -0.837448 0.0223113
vn 0.290857 -0.956764 -0.00239181
vn -0.455558 -0.890204 -0.00222542
vn 0.863018 0.484986 -0.141381
vn 0.598549 -0.545624 -0.586544
vn -0.183211 0.699714 0.690532
vn -0.708441 -0.704815 0.0366971
vn 0.474594 0.528207 -0.704101
vn -0.302264 -0.945961 0.117448
vn 0.214866 0.932176 0.291344
vn 0.840078 0.536278 -0.0817033
vn 0.90164 -0.421237 -0.098
vn 0.420975 0.90548 -0.0537241
vn 0.90164 -0.421237 -0.098
vn 0.598549 -0.545624 -0.586544
vn 0.240733 -0.945345 -0.219933
vn 0.415919 0.907344 -0.0611419
vn -0.114896 0.708117 -0.696685
vn -0.140566 0.86632 0.479303
vn 0.20722 0.969751 -0.129007
vn 0.240733 -0.945345 -0.219933
vn -0.114984 -0.120255 -0.986062
vn -0.522103 -0.666421 0.532251
vn -0.782957 -0.410107 0.46775
vn -0.491117 -0.870267 0.0379432
vn -0.746172 -0.305025 -0.591766
vn -0.086632 0.538782 0.837979
vn -0.387876 0.0408036 0.920808
vn -0.212241 0.617504 0.757392
vn -0.119461 0.836905 0.534153
vn -0.0789885 0.995297 -0.056081
vn -0.228065 0.765938 0.601104
vn -0.0789885 0.995297 -0.056081
vn -0.985955 -0.0583774 0.156479
vn -0.814271 -0.578951 0.042179
vn 0.474594 0.528207 -0.704101
vn 0.660341 0.734939 -0.15432
vn 0.840078 0.536278 -0.0817033
vn -0.0789885 0.995297 -0.056081
vn -0.684836 0.637465 -0.353041
vn -0.330671 -0.911816 -0.243407
vn -0.905945 0.265559 -0.329761
vn -0.562278 -0.299471 -0.770818
vn -0.995812 0.0743596 -0.0531831
vn 0.598549 -0.545624 -0.586544
vn 0.240733 -0.945345 -0.219933
vn -0.114984 -0.120255 -0.986062
vn -0.140566 0.86632 0.479303
vn -0.592328 -0.805569 -0.0143621
vn -0.985955 -0.0583774 0.156479
vn -0.817849 0.574146 -0.0384591
vn -0.140566 0.86632 0.479303
vn -0.817849 0.574146 -0.0384591
vn -0.114984 -0.120255 -0.986062
vn -0.817849 0.574146 -0.0384591
vn -0.0237989 0.978663 -0.20409
vn -0.114896 0.708117 -0.696685
vn -0.479643 -0.782047 -0.397925
vn 0.840078 0.536278 -0.0817033
vn -0.782729 0.503319 -0.366067
vn -0.985955 -0.0583774 0.156479
g grp1
usemtl mtl1
f 3//3 1//1 7//7 
f 8//8 1//1 3//3 
f 1//1 8//8 13//13 
f 44//44 1//1 21//21 
f 7//7 4//4 3//3 
f 3//3 4//4 2//2 
f 3//3 2//2 9//9 
f 9//9 8//8 3//3 
f 45//45 5//5 41//41 
f 41//41 5//5 6//6 
f 39//39 41//41 6//6 
f 42//42 46//46 40//40 
f 5//5 45//45 23//23 
f 23//23 43//43 5//5 
f 45//45 77//77 23//23 
f 46//46 42//42 24//24 
f 1//1 13//13 26//26 
f 47//47 11//11 10//10 
f 32//32 14//14 48//48 
f 32//32 48//48 33//33 
f 54//54 48//48 14//14 
f 15//15 55//55 61//61 
f 56//56 12//12 49//49 
f 15//15 34//34 55//55 
f 55//55 34//34 57//57 
f 8//8 9//9 50//50 
f 13//13 8//8 28//28 
f 8//8 50//50 28//28 
f 32//32 16//16 14//14 
f 16//16 31//31 14//14 
f 89//89 15//15 61//61 
f 90//90 51//51 62//62 
f 15//15 52//52 63//63 
f 64//64 53//53 38//38 
f 63//63 30//30 15//15 
f 63//63 95//95 30//30 
f 30//30 34//34 15//15 
f 28//28 50//50 91//91 
f 19//19 53//53 58//58 
f 19//19 38//38 53//53 
f 19//19 58//58 17//17 
f 18//18 17//17 58//58 
f 68//68 20//20 66//66 
f 71//71 67//67 36//36 
f 67//67 74//74 36//36 
f 59//59 99//99 69//69 
f 75//75 70//70 100//100 
f 111//111 72//72 35//35 
f 102//102 73//73 106//106 
f 21//21 1//1 22//22 
f 25//25 77//77 78//78 
f 22//22 1//1 26//26 
f 25//25 78//78 27//27 
f 79//79 43//43 23//23 
f 23//23 25//25 79//79 
f 23//23 77//77 25//25 
f 97//97 24//24 80//80 
f 46//46 24//24 97//97 
f 26//26 82//82 22//22 
f 60//60 83//83 81//81 
f 98//98 25//25 27//27 
f 27//27 29//29 98//98 
f 60//60 84//84 86//86 
f 83//83 60//60 86//86 
f 95//95 112//112 30//30 
f 113//113 92//92 65//65 
f 93//93 87//87 85//85 
f 114//114 29//29 94//94 
f 29//29 114//114 96//96 
f 29//29 96//96 98//98 
f 103//103 34//34 30//30 
f 37//37 34//34 103//103 
f 76//76 101//101 108//108 
f 115//115 104//104 88//88 
f 107//107 109//109 105//105 
f 74//74 110//110 36//36 
