#
# The license for this database is specified in the Creative Commons Attribution-Share Alike 2.1 Japan. If you use data from this database, please be sure attribute this database as follows: "BodyParts3D, (c)  The Database Center for Life Science licensed under CC Attribution-Share Alike 2.1 Japan".
# http://dbarchive.biosciencedbc.jp/en/bodyparts3d/lic.html
#
#
# Compatibility version : 4.0
# File ID : FJ1812
# Representation ID : BP6558
# Build-up logic : FMA 3.0 is_a
# Concept ID : FMA61975
# English name : Lamina terminalis
# Bounds(mm): (-2.059100,-109.643800,1539.543300)-(-0.651900,-102.331100,1551.422700)
# Volume(cm3): 0.041600
#
v -1.9853 -109.631 1539.55
v -2.05909 -108.876 1540.03
v -1.90635 -108.992 1539.87
v -2.05909 -109.466 1539.71
v -2.02383 -109.558 1539.73
v -1.9853 -109.615 1539.65
v -1.94735 -109.531 1539.81
v -2.03399 -109.164 1540.41
v -1.9853 -106.528 1540.75
v -2.05198 -107.331 1540.59
v -2.00073 -108.718 1541.28
v -1.9853 -105.472 1541.44
v -2.0551 -105.937 1541.39
v -1.9853 -105.958 1541.08
v -2.05633 -108.261 1541.7
v -2.05089 -104.825 1542.05
v -2.01745 -104.707 1542.11
v -2.05909 -104.891 1542.16
v -1.95062 -104.861 1542.24
v -1.82291 -104.784 1542.19
v -2.05909 -105.021 1542.4
v -2.05447 -105.061 1542.64
v -2.00365 -104.943 1542.68
v -1.9853 -104.932 1542.37
v -2.05457 -104.775 1543.76
v -1.99232 -104.627 1543.78
v -1.43708 -104.377 1544.39
v -1.69402 -103.644 1546.14
v -1.60044 -103.541 1546.51
v -2.00464 -105.856 1547.11
v -2.05576 -105.724 1546.77
v -1.9853 -103.233 1547.15
v -2.05542 -103.496 1547.1
v -2.03598 -105.422 1548.27
v -1.91948 -105.464 1548.27
v -2.05909 -105.133 1549.28
v -1.9853 -105.309 1548.84
v -1.9853 -102.559 1549.34
v -2.05491 -102.921 1549.1
v -2.04118 -102.465 1549.96
v -2.03407 -104.808 1550.41
v -2.05526 -104.493 1550.78
v -1.9853 -105.024 1550.24
v -1.91336 -104.817 1550.68
v -1.92405 -102.361 1550.34
v -2.05429 -102.479 1550.31
v -2.05352 -103.523 1551.31
v -2.05544 -104.438 1550.98
v -2.03661 -104.301 1551.13
v -2.05341 -103.962 1551.22
v -1.90517 -104.345 1551.14
v -1.91973 -104.081 1551.26
v -2.04952 -104.571 1550.9
v -1.95599 -104.537 1550.99
v -2.05001 -102.421 1551.13
v -2.05567 -102.838 1551.21
v -2.03711 -102.49 1551.29
v -1.93831 -102.357 1551.21
v -1.89236 -102.47 1551.34
v -1.7945 -102.374 1551.29
v -1.5332 -102.352 1551.06
v -1.94574 -103.527 1551.39
v -2.02394 -103.147 1551.38
v -1.93034 -102.854 1551.39
v -0.8405 -109.593 1539.54
v -0.659661 -109.211 1539.84
v -0.793001 -109.051 1539.86
v -0.788508 -108.548 1540.05
v -0.654376 -108.667 1540.07
v -0.8405 -109.644 1539.66
v -0.716167 -109.584 1539.64
v -0.7451 -106.366 1540.83
v -0.7451 -106.933 1540.58
v -0.661719 -107.146 1540.65
v -0.89989 -108.554 1541.6
v -0.662888 -108.287 1541.26
v -0.833205 -105.747 1541.23
v -0.7451 -105.383 1541.51
v -0.799756 -105.955 1541.08
v -0.656514 -105.874 1541.16
v -0.7451 -104.685 1542.11
v -1.06401 -104.716 1542.14
v -0.845972 -104.873 1542.21
v -0.668365 -105.232 1541.67
v -0.654917 -105.324 1541.69
v -0.775862 -105.097 1541.76
v -0.654917 -105.206 1541.76
v -0.653277 -104.825 1542.05
v -0.672059 -104.799 1542.14
v -0.757062 -104.789 1542.17
v -0.743201 -104.88 1542.2
v -0.655 -104.982 1542.19
v -1.16791 -104.944 1542.48
v -1.08123 -104.874 1542.26
v -0.854135 -104.992 1542.41
v -0.903953 -104.963 1542.87
v -0.757929 -104.958 1542.28
v -0.744343 -105.008 1542.41
v -0.654917 -105.113 1542.43
v -0.666052 -105.208 1542.83
v -0.662835 -104.912 1543.59
v -0.757875 -104.748 1543.66
v -1.12508 -104.356 1544.66
v -0.698623 -104.08 1545.41
v -0.658576 -104.232 1545.5
v -0.764248 -104.007 1545.51
v -0.676567 -104.019 1545.76
v -0.666842 -105.79 1546.99
v -0.809438 -105.931 1546.92
v -1.29088 -103.502 1546.7
v -0.7451 -103.444 1546.81
v -0.919345 -105.318 1548.8
v -0.654917 -105.146 1548.89
v -0.658367 -103.005 1549.13
v -0.701418 -102.681 1549.22
v -0.889437 -105.094 1550.04
v -0.902863 -104.982 1550.43
v -0.876321 -104.805 1550.76
v -0.704192 -104.973 1550.16
v -0.661794 -104.717 1550.48
v -0.749129 -104.866 1550.59
v -0.747293 -104.674 1550.85
v -0.740745 -102.384 1550.41
v -0.663797 -102.466 1550.64
v -0.7451 -102.331 1550.96
v -0.920909 -104.477 1551.08
v -0.890544 -104.156 1551.25
v -0.904942 -103.725 1551.37
v -0.65967 -104.412 1550.82
v -0.751819 -104.409 1551.08
v -0.669291 -103.846 1551.15
v -0.753091 -103.706 1551.34
v -0.904981 -104.65 1550.94
v -0.8405 -102.34 1551.26
v -0.873477 -102.47 1551.34
v -0.667671 -102.727 1551.18
v -0.716167 -102.379 1551.27
v -0.748147 -102.67 1551.34
v -0.921361 -103.233 1551.42
v -0.903713 -102.836 1551.4
v -0.751461 -103.322 1551.37
v -1.9853 -109.631 1539.55
v -1.9853 -109.631 1539.55
v -1.9853 -109.631 1539.55
v -1.9853 -109.631 1539.55
v -2.05909 -108.876 1540.03
v -1.90635 -108.992 1539.87
v -2.05909 -109.466 1539.71
v -2.02383 -109.558 1539.73
v -1.9853 -109.615 1539.65
v -2.03399 -109.164 1540.41
v -1.9853 -106.528 1540.75
v -2.00073 -108.718 1541.28
v -1.9853 -105.472 1541.44
v -1.9853 -105.472 1541.44
v -1.9853 -105.958 1541.08
v -2.05089 -104.825 1542.05
v -2.01745 -104.707 1542.11
v -2.01745 -104.707 1542.11
v -2.01745 -104.707 1542.11
v -2.01745 -104.707 1542.11
v -2.05909 -104.891 1542.16
v -2.05909 -104.891 1542.16
v -1.95062 -104.861 1542.24
v -2.00365 -104.943 1542.68
v -1.99232 -104.627 1543.78
v -2.00464 -105.856 1547.11
v -1.9853 -103.233 1547.15
v -2.03598 -105.422 1548.27
v -1.91948 -105.464 1548.27
v -2.05909 -105.133 1549.28
v -1.9853 -105.309 1548.84
v -1.9853 -102.559 1549.34
v -2.04118 -102.465 1549.96
v -2.05526 -104.493 1550.78
v -1.9853 -105.024 1550.24
v -1.91336 -104.817 1550.68
v -1.91336 -104.817 1550.68
v -2.05429 -102.479 1550.31
v -2.05352 -103.523 1551.31
v -2.05544 -104.438 1550.98
v -2.03661 -104.301 1551.13
v -2.05341 -103.962 1551.22
v -2.04952 -104.571 1550.9
v -2.05001 -102.421 1551.13
v -2.03711 -102.49 1551.29
v -2.03711 -102.49 1551.29
v -1.93831 -102.357 1551.21
v -1.7945 -102.374 1551.29
v -2.02394 -103.147 1551.38
v -1.93034 -102.854 1551.39
v -0.8405 -109.593 1539.54
v -0.8405 -109.593 1539.54
v -0.659661 -109.211 1539.84
v -0.654376 -108.667 1540.07
v -0.654376 -108.667 1540.07
v -0.8405 -109.644 1539.66
v -0.716167 -109.584 1539.64
v -0.716167 -109.584 1539.64
v -0.716167 -109.584 1539.64
v -0.7451 -106.366 1540.83
v -0.7451 -106.933 1540.58
v -0.661719 -107.146 1540.65
v -0.89989 -108.554 1541.6
v -0.7451 -105.383 1541.51
v -0.7451 -105.383 1541.51
v -0.656514 -105.874 1541.16
v -0.656514 -105.874 1541.16
v -0.656514 -105.874 1541.16
v -0.7451 -104.685 1542.11
v -0.7451 -104.685 1542.11
v -0.668365 -105.232 1541.67
v -0.668365 -105.232 1541.67
v -0.654917 -105.324 1541.69
v -0.654917 -105.206 1541.76
v -0.653277 -104.825 1542.05
v -0.672059 -104.799 1542.14
v -0.655 -104.982 1542.19
v -0.654917 -105.113 1542.43
v -0.666052 -105.208 1542.83
v -0.662835 -104.912 1543.59
v -0.698623 -104.08 1545.41
v -0.764248 -104.007 1545.51
v -0.666842 -105.79 1546.99
v -0.7451 -103.444 1546.81
v -0.654917 -105.146 1548.89
v -0.701418 -102.681 1549.22
v -0.704192 -104.973 1550.16
v -0.749129 -104.866 1550.59
v -0.747293 -104.674 1550.85
v -0.740745 -102.384 1550.41
v -0.7451 -102.331 1550.96
v -0.751819 -104.409 1551.08
v -0.753091 -103.706 1551.34
v -0.8405 -102.34 1551.26
v -0.716167 -102.379 1551.27
v -0.716167 -102.379 1551.27
v -0.748147 -102.67 1551.34
v -0.751461 -103.322 1551.37
vn -0.00535659 0.475628 -0.87963
vn -0.539717 0.35068 -0.765329
vn -0.607808 0.332693 -0.72103
vn -0.511141 0.426214 -0.746375
vn -0.886478 -0.456376 0.0766641
vn -0.0858504 -0.921168 0.379577
vn -0.172976 -0.861484 0.477414
vn -0.979638 -0.170864 0.105427
vn -0.922884 0.151007 -0.354234
vn -0.932381 0.126667 -0.338557
vn -0.110391 -0.876298 0.468952
vn -0.95115 0.170578 -0.257328
vn -0.994147 0.0561411 -0.0923046
vn -0.961598 0.151026 -0.229172
vn -0.994323 -0.0927825 0.0520811
vn -0.984376 0.150451 -0.0914788
vn -0.0349903 0.724236 0.688663
vn -0.995884 0.0905364 0.0043119
vn -0.612993 0.343313 0.711601
vn -0.0263579 0.62681 0.778727
vn -0.931644 0.350971 0.0941161
vn -0.970849 0.238513 -0.0237679
vn -0.877787 0.478697 -0.018423
vn -0.346579 0.897355 0.273198
vn -0.981411 0.181389 -0.0626959
vn -0.906424 0.403591 -0.124539
vn 0.109008 0.928426 -0.355166
vn 0.15411 0.923751 -0.35062
vn 0.205543 0.922125 -0.327775
vn -0.977754 -0.197675 0.0701554
vn -0.996353 -0.0785511 0.0333145
vn -0.949878 0.294627 -0.104534
vn -0.989333 0.13809 -0.0463732
vn -0.996626 -0.0802766 0.0170758
vn -0.135949 -0.945015 0.29743
vn -0.961163 -0.271861 0.0475091
vn -0.854275 -0.515983 0.0630575
vn -0.963066 0.250323 -0.0992123
vn -0.99669 0.0756145 -0.0298452
vn -0.980304 0.180487 -0.0801725
vn -0.95057 -0.261708 0.167111
vn -0.996887 -0.0713135 -0.0336313
vn -0.855425 -0.477262 0.201167
vn -0.811225 -0.466257 0.352873
vn -0.301325 0.948097 -0.101569
vn -0.999284 0.0365424 -0.00981044
vn -0.991936 0.0152788 0.125816
vn -0.995405 -0.0530249 0.0797366
vn -0.423814 -0.447238 0.787629
vn -0.997829 -0.0274242 0.0598832
vn -0.116518 -0.492994 0.862195
vn -0.218001 -0.312746 0.924481
vn -0.975664 -0.200751 -0.0882002
vn -0.283655 -0.627791 0.724858
vn -0.615238 0.782905 0.0924198
vn -0.98516 0.0251255 0.169792
vn -0.498715 0.687596 0.527726
vn -0.465344 0.761003 0.452028
vn -0.140682 0.412487 0.900035
vn -0.143673 0.571063 0.808236
vn -0.0216778 0.999764 0.00114923
vn -0.276601 -0.118072 0.953704
vn -0.900645 0.133358 0.413587
vn -0.817502 0.0716625 0.571449
vn -0.0250029 0.506625 -0.861804
vn 0.328799 0.385527 -0.862125
vn 0.236043 0.409124 -0.88142
vn 0.20653 0.324183 -0.923174
vn 0.360216 0.32569 -0.874168
vn 0.0717886 -0.903575 0.422372
vn 0.355328 -0.852894 -0.382511
vn 0.0381165 0.489831 -0.870984
vn 0.0982247 0.335501 -0.936905
vn 0.846009 0.200026 -0.494224
vn 0.112658 -0.878206 0.464824
vn 0.986998 -0.140914 0.0773126
vn 0.0434748 0.595103 -0.802472
vn 0.0611075 0.637989 -0.767617
vn 0.065403 0.555374 -0.829025
vn 0.128337 0.570889 -0.810935
vn 0.138656 0.625137 0.768101
vn 0.0372322 0.613508 0.78881
vn 0.0915684 0.564757 0.820162
vn 0.19987 0.651815 -0.731566
vn 0.703059 0.495218 -0.51036
vn 0.297949 0.656858 -0.69265
vn 0.575153 0.636968 -0.513294
vn 0.44663 0.549312 -0.706242
vn 0.932663 0.34909 0.0909672
vn 0.167773 0.421859 0.891004
vn 0.327646 0.458505 0.826088
vn 0.99748 0.0437868 0.055826
vn 0.0741874 0.986804 0.143925
vn 0.0971314 0.792544 0.602029
vn 0.170643 0.961539 0.215229
vn 0.248826 0.954312 -0.165453
vn 0.285331 0.80451 0.520913
vn 0.505094 0.832035 0.229341
vn 0.715993 0.646039 0.26455
vn 0.999947 -0.00639573 0.00811964
vn 0.997396 0.0669913 -0.0267034
vn 0.525054 0.793942 -0.306551
vn 0.119701 0.930553 -0.346039
vn 0.511345 0.813694 -0.276457
vn 0.993126 0.112064 -0.0338044
vn -0.00957671 0.922959 -0.38478
vn 0.941457 0.321977 -0.0999463
vn 0.999982 0.0040534 0.00444008
vn 0.380041 -0.862856 0.333239
vn 0.0306513 0.930634 -0.364664
vn 0.00830862 0.937778 -0.347136
vn 0.202479 -0.952721 0.226551
vn 0.527071 -0.818196 0.229678
vn 0.998131 0.0579452 -0.0194362
vn 0.0569697 0.96725 -0.247351
vn 0.21189 -0.951582 0.222696
vn 0.153869 -0.91707 0.367841
vn 0.152787 -0.809216 0.567297
vn 0.441985 -0.873721 0.203127
vn 0.968325 -0.214436 0.127918
vn 0.326154 -0.845481 0.422831
vn 0.310306 -0.69489 0.648721
vn -0.0100559 0.993416 -0.114125
vn 0.944775 0.326945 -0.0225004
vn 0.076797 0.996935 0.0149523
vn 0.0788097 -0.558956 0.825443
vn 0.265711 -0.366146 0.891816
vn 0.111325 -0.173828 0.978463
vn 0.971915 -0.144972 0.185376
vn 0.348082 -0.479803 0.805374
vn 0.919298 -0.113428 0.376863
vn 0.240105 -0.178394 0.954214
vn 0.1155 -0.688405 0.716072
vn 0.0782648 0.994789 0.0653425
vn 0.124089 0.318821 0.939657
vn 0.974557 0.0221005 0.223048
vn 0.20828 0.371553 0.904747
vn 0.900984 0.0128717 0.433661
vn 0.0903325 -0.017915 0.995751
vn 0.124991 0.0897069 0.988094
vn 0.25135 -0.0229505 0.967624
vn -0.025857 -0.986409 0.162259
vn 0.0264081 -0.91212 -0.409073
vn -0.537532 0.427794 -0.726672
vn -0.850892 -0.524479 0.0300867
vn -0.999396 -0.0260349 0.0230373
vn 0.00933682 0.362313 -0.93201
vn -0.969214 -0.23992 0.0553366
vn -0.200676 -0.848748 0.48924
vn -0.743913 -0.659414 0.10847
vn -0.304784 -0.832485 0.462682
vn -0.00730073 0.413789 -0.910343
vn -0.966778 -0.223192 0.124605
vn -0.00263576 0.623675 -0.781679
vn -0.610823 0.508853 -0.6066
vn -0.00619002 0.549091 -0.83574
vn -0.610823 0.508853 -0.6066
vn -0.610823 0.508853 -0.6066
vn -0.968931 0.238637 0.0649955
vn -0.612993 0.343313 0.711601
vn -0.0099336 0.652938 -0.757347
vn -0.612993 0.343313 0.711601
vn -0.561835 0.747934 0.353462
vn -0.144775 0.756227 0.638091
vn 0.0299171 0.997296 -0.0671207
vn 0.020213 0.939803 -0.341118
vn -0.0771718 -0.919304 0.385907
vn 0.102827 0.931908 -0.347814
vn -0.31908 -0.902621 0.2889
vn -0.928631 -0.370943 -0.00674848
vn -0.322958 -0.911688 0.254014
vn -0.000384603 -0.97285 0.231435
vn 0.0281838 0.961592 -0.273031
vn -0.492044 0.86647 -0.0843906
vn -0.808834 -0.471333 0.351615
vn -0.0203365 -0.961671 0.27345
vn -0.920739 -0.342038 -0.18775
vn -0.102682 -0.814447 0.571079
vn -0.668586 0.743292 -0.0226042
vn -0.593803 -0.131525 0.793788
vn -0.59388 -0.489182 0.638755
vn -0.967853 -0.110671 0.225859
vn -0.52529 -0.21232 0.824009
vn -0.460581 -0.595132 0.658546
vn -0.99861 0.0232244 0.0473205
vn -0.940983 -0.0284626 0.337255
vn -0.327109 0.160091 0.931327
vn 0.00307912 0.999967 0.00753308
vn 0.00417654 0.995302 0.0967306
vn -0.379266 -0.0503293 0.923918
vn -0.102349 0.0692309 0.992337
vn 0.193608 -0.895174 -0.401473
vn 0.550614 0.385187 -0.740577
vn 0.989331 -0.121068 0.0810326
vn 0.999939 -0.00617723 0.00913777
vn 0.854519 0.187171 -0.484525
vn 0.193608 -0.895174 -0.401473
vn 0.452656 0.395311 -0.799269
vn 0.922327 -0.315831 0.222628
vn 0.434736 -0.779269 0.45138
vn 0.841644 0.206436 -0.499018
vn 0.860383 0.19339 -0.471532
vn 0.999999 -0.000184048 0.00156322
vn 0.860374 -0.439979 0.257243
vn 0.703059 0.495218 -0.51036
vn 0.895082 0.00364994 -0.445887
vn 0.815323 0.212836 -0.538469
vn 0.703059 0.495218 -0.51036
vn 0.999995 -0.00271722 -0.00175962
vn 0.203884 0.62266 -0.755464
vn 0.839573 0.543003 0.0162839
vn 0.948757 0.0498224 -0.312054
vn 0.638496 0.709882 -0.297305
vn 0.987543 0.0234917 -0.155586
vn 0.997983 0.0298264 -0.0560417
vn 0.983707 0.173592 0.0467682
vn 0.397073 0.37287 0.83863
vn 0.591842 0.592587 0.546409
vn 0.999907 -0.00684658 0.0117882
vn 0.749795 0.660224 -0.0437271
vn 0.686417 0.670988 -0.280369
vn 0.974074 0.208712 -0.0872933
vn 0.670128 0.69522 -0.259997
vn 0.597317 -0.748419 0.288239
vn 0.934195 0.329832 -0.135982
vn 0.996382 -0.0818675 0.0228075
vn 0.95859 0.275307 -0.0728817
vn 0.938776 -0.318171 0.132162
vn 0.904066 -0.36703 0.218983
vn 0.915488 -0.296413 0.272069
vn 0.824862 0.560155 -0.0763457
vn 0.827702 0.560573 -0.0258365
vn 0.918342 -0.219565 0.3293
vn 0.835439 -0.197404 0.512906
vn 0.0328977 0.510567 0.859209
vn 0.958371 0.226271 0.174143
vn 0.290072 0.949559 0.119149
vn 0.271764 0.123522 0.954404
vn 0.912081 -0.0127261 0.409813
g grp1
usemtl mtl1
f 67//67 65//65 1//1 
f 70//70 6//6 142//142 
f 192//192 197//197 143//143 
f 3//3 144//144 4//4 
f 3//3 4//4 2//2 
f 148//148 8//8 146//146 
f 67//67 1//1 147//147 
f 68//68 67//67 147//147 
f 148//148 145//145 5//5 
f 6//6 7//7 149//149 
f 145//145 150//150 5//5 
f 7//7 151//151 149//149 
f 5//5 8//8 148//148 
f 6//6 70//70 7//7 
f 7//7 70//70 11//11 
f 3//3 2//2 10//10 
f 10//10 146//146 15//15 
f 73//73 68//68 147//147 
f 153//153 15//15 8//8 
f 8//8 15//15 146//146 
f 151//151 7//7 11//11 
f 14//14 9//9 13//13 
f 156//156 72//72 152//152 
f 9//9 3//3 10//10 
f 13//13 9//9 10//10 
f 10//10 15//15 13//13 
f 147//147 152//152 73//73 
f 73//73 152//152 72//72 
f 12//12 14//14 13//13 
f 77//77 156//156 154//154 
f 78//78 77//77 154//154 
f 81//81 17//17 82//82 
f 12//12 13//13 16//16 
f 16//16 13//13 18//18 
f 155//155 157//157 158//158 
f 159//159 16//16 18//18 
f 160//160 162//162 19//19 
f 13//13 21//21 18//18 
f 20//20 17//17 164//164 
f 17//17 20//20 82//82 
f 82//82 20//20 94//94 
f 20//20 164//164 94//94 
f 161//161 78//78 154//154 
f 164//164 163//163 24//24 
f 24//24 163//163 21//21 
f 13//13 22//22 21//21 
f 23//23 24//24 21//21 
f 21//21 22//22 23//23 
f 26//26 23//23 22//22 
f 25//25 26//26 22//22 
f 94//94 164//164 24//24 
f 93//93 94//94 24//24 
f 93//93 24//24 165//165 
f 93//93 165//165 96//96 
f 15//15 31//31 13//13 
f 15//15 153//153 31//31 
f 22//22 13//13 25//25 
f 13//13 31//31 25//25 
f 165//165 166//166 96//96 
f 27//27 96//96 166//166 
f 25//25 32//32 26//26 
f 27//27 166//166 168//168 
f 28//28 27//27 168//168 
f 153//153 30//30 31//31 
f 29//29 27//27 28//28 
f 31//31 33//33 25//25 
f 25//25 33//33 32//32 
f 28//28 168//168 29//29 
f 31//31 39//39 33//33 
f 31//31 34//34 39//39 
f 31//31 30//30 34//34 
f 39//39 38//38 32//32 
f 173//173 29//29 168//168 
f 32//32 33//33 39//39 
f 167//167 35//35 169//169 
f 34//34 36//36 39//39 
f 170//170 37//37 36//36 
f 169//169 35//35 171//171 
f 112//112 172//172 35//35 
f 109//109 35//35 167//167 
f 109//109 112//112 35//35 
f 29//29 173//173 110//110 
f 37//37 43//43 36//36 
f 172//172 112//112 176//176 
f 39//39 42//42 56//56 
f 43//43 41//41 36//36 
f 36//36 41//41 39//39 
f 39//39 41//41 42//42 
f 116//116 176//176 112//112 
f 40//40 38//38 39//39 
f 45//45 173//173 174//174 
f 45//45 115//115 173//173 
f 39//39 46//46 40//40 
f 174//174 179//179 45//45 
f 39//39 56//56 46//46 
f 43//43 44//44 41//41 
f 44//44 175//175 41//41 
f 177//177 53//53 42//42 
f 116//116 117//117 176//176 
f 117//117 178//178 176//176 
f 45//45 179//179 55//55 
f 58//58 45//45 55//55 
f 46//46 56//56 185//185 
f 123//123 45//45 188//188 
f 61//61 123//123 188//188 
f 115//115 45//45 123//123 
f 56//56 50//50 47//47 
f 183//183 62//62 180//180 
f 42//42 53//53 48//48 
f 184//184 54//54 181//181 
f 51//51 49//49 54//54 
f 54//54 49//49 181//181 
f 48//48 50//50 42//42 
f 48//48 182//182 50//50 
f 49//49 51//51 52//52 
f 42//42 50//50 56//56 
f 49//49 52//52 183//183 
f 183//183 52//52 62//62 
f 128//128 62//62 52//52 
f 52//52 51//51 127//127 
f 52//52 127//127 128//128 
f 184//184 178//178 54//54 
f 55//55 57//57 58//58 
f 185//185 56//56 186//186 
f 56//56 64//64 186//186 
f 58//58 57//57 59//59 
f 187//187 191//191 59//59 
f 60//60 58//58 59//59 
f 188//188 189//189 61//61 
f 56//56 47//47 63//63 
f 180//180 62//62 190//190 
f 56//56 63//63 64//64 
f 190//190 62//62 191//191 
f 62//62 139//139 191//191 
f 62//62 128//128 139//139 
f 139//139 140//140 191//191 
f 192//192 71//71 197//197 
f 67//67 66//66 198//198 
f 67//67 69//69 66//66 
f 199//199 194//194 76//76 
f 68//68 69//69 67//67 
f 194//194 195//195 76//76 
f 200//200 75//75 70//70 
f 193//193 67//67 198//198 
f 199//199 76//76 204//204 
f 68//68 73//73 69//69 
f 70//70 75//75 11//11 
f 72//72 79//79 80//80 
f 201//201 207//207 74//74 
f 202//202 74//74 196//196 
f 195//195 203//203 76//76 
f 201//201 74//74 202//202 
f 77//77 78//78 80//80 
f 205//205 85//85 208//208 
f 209//209 214//214 76//76 
f 79//79 72//72 156//156 
f 77//77 79//79 156//156 
f 203//203 209//209 76//76 
f 79//79 77//77 80//80 
f 86//86 78//78 161//161 
f 81//81 82//82 90//90 
f 90//90 82//82 83//83 
f 82//82 94//94 83//83 
f 86//86 161//161 210//210 
f 90//90 83//83 91//91 
f 91//91 83//83 97//97 
f 83//83 94//94 97//97 
f 95//95 97//97 94//94 
f 78//78 86//86 84//84 
f 206//206 212//212 214//214 
f 87//87 213//213 86//86 
f 212//212 215//215 214//214 
f 214//214 215//215 76//76 
f 86//86 88//88 87//87 
f 215//215 216//216 76//76 
f 216//216 92//92 76//76 
f 86//86 210//210 88//88 
f 216//216 89//89 92//92 
f 89//89 216//216 211//211 
f 90//90 217//217 81//81 
f 91//91 217//217 90//90 
f 218//218 217//217 91//91 
f 97//97 218//218 91//91 
f 93//93 96//96 95//95 
f 93//93 95//95 94//94 
f 98//98 95//95 96//96 
f 97//97 95//95 98//98 
f 98//98 218//218 97//97 
f 218//218 98//98 99//99 
f 92//92 219//219 76//76 
f 76//76 219//219 100//100 
f 220//220 99//99 98//98 
f 96//96 220//220 98//98 
f 100//100 101//101 108//108 
f 76//76 100//100 108//108 
f 102//102 220//220 96//96 
f 220//220 102//102 221//221 
f 76//76 224//224 109//109 
f 76//76 109//109 204//204 
f 96//96 27//27 103//103 
f 102//102 96//96 103//103 
f 75//75 167//167 11//11 
f 109//109 167//167 75//75 
f 103//103 27//27 29//29 
f 103//103 29//29 110//110 
f 106//106 103//103 110//110 
f 106//106 102//102 103//103 
f 223//223 221//221 102//102 
f 223//223 104//104 221//221 
f 101//101 222//222 105//105 
f 107//107 104//104 223//223 
f 222//222 107//107 105//105 
f 105//105 107//107 108//108 
f 105//105 108//108 101//101 
f 111//111 106//106 110//110 
f 225//225 107//107 223//223 
f 114//114 107//107 225//225 
f 107//107 114//114 108//108 
f 224//224 113//113 109//109 
f 108//108 114//114 226//226 
f 109//109 113//113 112//112 
f 111//111 110//110 173//173 
f 113//113 119//119 112//112 
f 225//225 227//227 114//114 
f 119//119 116//116 112//112 
f 111//111 173//173 115//115 
f 114//114 227//227 124//124 
f 231//231 124//124 227//227 
f 114//114 124//124 136//136 
f 118//118 133//133 178//178 
f 118//118 178//178 117//117 
f 119//119 117//117 116//116 
f 121//121 118//118 117//117 
f 121//121 122//122 118//118 
f 130//130 133//133 122//122 
f 122//122 133//133 118//118 
f 226//226 114//114 120//120 
f 226//226 120//120 228//228 
f 228//228 120//120 229//229 
f 119//119 121//121 117//117 
f 114//114 129//129 120//120 
f 120//120 129//129 230//230 
f 229//229 120//120 230//230 
f 233//233 230//230 129//129 
f 125//125 123//123 61//61 
f 231//231 232//232 124//124 
f 141//141 128//128 132//132 
f 136//136 239//239 131//131 
f 131//131 239//239 234//234 
f 51//51 126//126 127//127 
f 54//54 126//126 51//51 
f 130//130 127//127 126//126 
f 234//234 127//127 131//131 
f 130//130 131//131 127//127 
f 132//132 128//128 127//127 
f 136//136 131//131 114//114 
f 114//114 131//131 129//129 
f 131//131 233//233 129//129 
f 133//133 54//54 178//178 
f 126//126 54//54 133//133 
f 133//133 130//130 126//126 
f 61//61 189//189 134//134 
f 59//59 191//191 140//140 
f 235//235 60//60 59//59 
f 235//235 59//59 135//135 
f 59//59 140//140 135//135 
f 134//134 125//125 61//61 
f 235//235 135//135 137//137 
f 236//236 124//124 232//232 
f 134//134 237//237 125//125 
f 124//124 236//236 136//136 
f 136//136 236//236 138//138 
f 135//135 238//238 137//137 
f 140//140 238//238 135//135 
f 128//128 141//141 139//139 
f 238//238 140//140 141//141 
f 139//139 141//141 140//140 
f 239//239 136//136 138//138 
