#
# The license for this database is specified in the Creative Commons Attribution-Share Alike 2.1 Japan. If you use data from this database, please be sure attribute this database as follows: "BodyParts3D, (c)  The Database Center for Life Science licensed under CC Attribution-Share Alike 2.1 Japan".
# http://dbarchive.biosciencedbc.jp/en/bodyparts3d/lic.html
#
#
# Compatibility version : 4.0
# File ID : FJ1283
# Representation ID : BP5734
# Build-up logic : FMA 3.0 is_a
# Concept ID : FMA52677
# English name : Left anterior ethmoidal nerve
# Bounds(mm): (7.990900,-144.462700,1527.127600)-(15.749900,-140.052900,1528.634500)
# Volume(cm3): 0.003900
#
v 8.0001 -141.919 1528.32
v 8.22984 -142.024 1527.97
v 8.28678 -141.912 1527.95
v 8.22766 -141.804 1527.98
v 8.41263 -142.121 1527.98
v 8.43047 -142.013 1527.92
v 8.46393 -141.801 1527.92
v 8.45762 -141.696 1527.98
v 8.06191 -142.116 1528.32
v 8.04197 -142.018 1528.43
v 8.05402 -141.919 1528.12
v 8.02311 -141.808 1528.22
v 8.05578 -141.814 1528.43
v 8.12901 -142.186 1528.33
v 8.12507 -142.145 1528.43
v 8.13606 -142.016 1528.54
v 8.11959 -141.72 1528.12
v 8.12616 -141.666 1528.23
v 8.25632 -142.198 1528.13
v 8.27976 -141.635 1528.11
v 8.23078 -141.631 1528.43
v 8.42481 -142.237 1528.4
v 8.40573 -142.16 1528.52
v 8.41838 -141.802 1528.6
v 8.41844 -141.564 1528.31
v 8.61438 -142.004 1528.59
v 8.53585 -141.593 1528.42
v 9.4314 -142.019 1527.81
v 9.65723 -142.189 1528.02
v 10.1463 -141.792 1527.66
v 10.2599 -141.599 1527.69
v 10.1024 -141.593 1528.33
v 10.3364 -141.714 1528.36
v 9.91699 -141.476 1527.93
v 9.91764 -141.463 1528.13
v 10.6854 -142.042 1528.05
v 10.7316 -141.783 1528.3
v 11.0189 -141.477 1527.58
v 11.2528 -141.276 1528.03
v 11.2562 -141.252 1527.74
v 11.4407 -141.831 1527.63
v 11.9976 -141.244 1527.42
v 12.1956 -141.004 1527.53
v 11.4672 -141.484 1528.2
v 12.5819 -141.535 1527.64
v 12.4094 -141.251 1528.08
v 12.5379 -141.28 1527.35
v 12.7281 -141.37 1527.42
v 12.735 -140.719 1527.74
v 12.7987 -141.302 1527.95
v 12.8414 -140.873 1527.97
v 13.8123 -140.482 1527.19
v 13.4981 -140.324 1527.54
v 13.7719 -140.268 1527.33
v 14.7825 -142.051 1527.66
v 14.7803 -141.61 1527.76
v 13.9195 -140.896 1527.65
v 13.9844 -140.833 1527.35
v 14.2663 -140.788 1527.44
v 14.2569 -140.749 1527.33
v 14.2657 -140.765 1527.64
v 14.3832 -140.807 1527.43
v 14.3748 -140.762 1527.33
v 14.3839 -140.768 1527.63
v 14.5647 -140.96 1527.34
v 14.5012 -140.878 1527.64
v 14.5285 -140.764 1527.75
v 14.656 -141.321 1527.45
v 14.6596 -141.295 1527.65
v 14.6934 -141.015 1527.79
v 14.0069 -140.693 1527.22
v 14.172 -140.235 1527.2
v 14.3709 -140.344 1527.14
v 14.4772 -140.562 1527.14
v 14.4845 -140.233 1527.19
v 14.5967 -140.346 1527.15
v 14.653 -140.238 1527.23
v 14.5957 -140.136 1527.33
v 13.8984 -140.473 1527.89
v 13.9197 -140.233 1527.74
v 13.9812 -140.602 1527.87
v 14.0398 -140.105 1527.53
v 14.164 -140.116 1527.34
v 14.3618 -140.45 1527.85
v 14.2668 -140.064 1527.54
v 14.3625 -140.661 1527.77
v 14.3685 -140.242 1527.8
v 14.3789 -140.099 1527.33
v 14.3706 -140.095 1527.65
v 14.4968 -140.076 1527.53
v 14.5971 -140.578 1527.84
v 14.5865 -140.138 1527.65
v 14.9948 -144.144 1527.86
v 15.1058 -144.356 1527.77
v 15.0412 -144.253 1527.66
v 15.0448 -144.05 1527.54
v 15.2132 -144.347 1527.55
v 15.1162 -144.261 1527.96
v 15.2263 -144.419 1527.66
v 15.2293 -144.41 1527.87
v 15.3198 -144.245 1528.07
v 15.4266 -144.391 1527.56
v 15.4247 -144.448 1527.66
v 15.4223 -144.456 1527.76
v 15.4228 -144.437 1527.87
v 15.4229 -144.366 1527.98
v 15.4016 -144.007 1527.4
v 15.5319 -144.415 1527.66
v 15.5318 -144.401 1527.86
v 15.5308 -144.263 1528.02
v 15.5163 -144.086 1528.06
v 14.9323 -143.794 1527.65
v 14.9348 -143.719 1527.86
v 15.1042 -143.939 1528.04
v 15.3049 -143.9 1528.1
v 14.7989 -142.195 1527.53
v 14.9061 -141.938 1527.87
v 15.021 -141.849 1527.93
v 15.2229 -142.023 1527.95
v 14.8232 -141.387 1527.24
v 14.7945 -140.782 1527.14
v 15.0345 -141.031 1527.18
v 14.8033 -140.899 1527.86
v 14.897 -141.489 1527.88
v 14.9144 -140.799 1527.85
v 15.0028 -141.311 1527.9
v 15.2526 -141.214 1527.75
v 15.2345 -141.008 1527.36
v 14.8037 -140.562 1527.14
v 14.8083 -140.353 1527.22
v 15.0108 -140.657 1527.21
v 14.7763 -140.351 1527.75
v 14.8042 -140.235 1527.33
v 14.7897 -140.188 1527.44
v 14.7968 -140.201 1527.55
v 14.9132 -140.286 1527.44
v 15.011 -140.452 1527.33
v 15.0051 -140.463 1527.65
v 15.1152 -140.564 1527.45
v 15.6385 -144.327 1527.67
v 15.6298 -144.256 1527.55
v 15.6781 -144.255 1527.86
v 15.7256 -144.158 1527.66
v 15.6537 -144.15 1527.97
v 15.6505 -143.871 1527.54
v 15.6097 -143.874 1527.98
v 15.7134 -143.901 1527.76
v 8.12901 -142.186 1528.33
v 8.12901 -142.186 1528.33
v 8.23078 -141.631 1528.43
v 10.7316 -141.783 1528.3
v 11.2528 -141.276 1528.03
v 14.3832 -140.807 1527.43
v 14.3748 -140.762 1527.33
v 14.3748 -140.762 1527.33
v 14.3748 -140.762 1527.33
v 14.3839 -140.768 1527.63
v 14.5647 -140.96 1527.34
v 14.5012 -140.878 1527.64
v 14.5012 -140.878 1527.64
v 14.0069 -140.693 1527.22
v 14.0069 -140.693 1527.22
v 14.4772 -140.562 1527.14
v 14.4772 -140.562 1527.14
v 14.0398 -140.105 1527.53
v 14.8232 -141.387 1527.24
v 14.7945 -140.782 1527.14
v 15.2345 -141.008 1527.36
v 15.6537 -144.15 1527.97
vn -0.998293 -0.0447724 0.0375175
vn -0.440503 -0.356813 -0.823797
vn -0.334843 0.025249 -0.941936
vn -0.422367 0.369003 -0.827915
vn -0.137222 -0.667563 -0.731799
vn -0.162515 -0.263901 -0.95076
vn -0.186124 0.281907 -0.941215
vn -0.195188 0.649222 -0.735127
vn -0.847695 -0.5242 -0.081415
vn -0.866067 -0.234196 0.441679
vn -0.810009 -0.111214 -0.575775
vn -0.917048 0.370502 -0.147484
vn -0.769934 0.371146 0.519088
vn -0.653977 -0.656901 -0.375228
vn -0.517206 -0.698023 0.49524
vn -0.426677 -0.204129 0.881067
vn -0.659163 0.538157 -0.525253
vn -0.595034 0.801591 -0.0581876
vn -0.400816 -0.812507 -0.423296
vn -0.288558 0.833543 -0.471104
vn -0.702405 0.66604 0.251033
vn -0.0563493 -0.961103 0.270381
vn -0.0457565 -0.66203 0.748079
vn -0.114142 0.354754 0.927966
vn -0.165506 0.985853 0.0265002
vn 0.0726584 -0.311406 0.947495
vn -0.0270042 0.833305 0.552153
vn -0.0535381 -0.568717 -0.820789
vn 0.0404265 -0.945907 -0.321908
vn -0.13718 -0.0195328 -0.990353
vn -0.184776 0.546238 -0.816995
vn 0.0326556 0.632314 0.774023
vn 0.1167 0.154588 0.981063
vn -0.150157 0.910814 -0.384539
vn -0.0779559 0.968585 0.236146
vn 0.219162 -0.878062 0.425412
vn 0.133932 -0.0162582 0.990857
vn -0.250354 0.549909 -0.796821
vn -0.237253 0.96867 0.0734116
vn -0.261392 0.905309 -0.334799
vn 0.0954683 -0.769293 -0.631723
vn -0.24876 0.359449 -0.899397
vn -0.377056 0.785486 -0.490755
vn 0.0523224 0.306667 0.950378
vn 0.348891 -0.935903 -0.0485915
vn 0.131959 -0.0259962 0.990914
vn -0.0304363 -0.262602 -0.964424
vn 0.196741 -0.693053 -0.69352
vn -0.348405 0.909746 0.22578
vn 0.331337 -0.653582 0.680475
vn -0.118936 0.537963 0.834536
vn -0.165047 0.125633 -0.978251
vn -0.411148 0.911416 0.0166625
vn -0.359184 0.736124 -0.573679
vn -0.950257 -0.119866 0.287477
vn -0.733885 -0.109503 0.670389
vn 0.345848 -0.880496 0.324215
vn 0.284632 -0.864367 -0.414554
vn 0.0577766 -0.991997 -0.112269
vn 0.0538413 -0.908735 -0.413885
vn 0.179618 -0.923742 0.338286
vn -0.503397 -0.863023 0.0422361
vn 0.0835382 -0.694386 -0.714738
vn -0.376459 -0.916587 0.13471
vn -0.663921 -0.372108 -0.648649
vn -0.685544 -0.726145 0.0523622
vn -0.493446 -0.467737 0.733303
vn -0.948311 -0.259725 -0.182342
vn -0.917867 -0.237398 0.318061
vn -0.655321 -0.191278 0.73073
vn 0.0807819 -0.457198 -0.885689
vn -0.153458 0.582889 -0.797929
vn -0.0422052 0.21142 -0.976484
vn 0.0835382 -0.694386 -0.714738
vn 0.0787373 0.611616 -0.787227
vn 0.150981 0.291048 -0.94472
vn 0.300347 0.636801 -0.710124
vn 0.267523 0.866432 -0.421576
vn -0.000713221 0.273219 0.961952
vn -0.214644 0.777447 0.591189
vn 0.209697 -0.347012 0.914117
vn -0.295848 0.927224 -0.229628
vn -0.194553 0.89198 -0.40807
vn 0.0920776 -0.00706376 0.995727
vn -0.0865328 0.991251 0.0996644
vn -0.00827387 -0.625395 0.780265
vn 0.0753344 0.519835 0.850938
vn 0.0253295 0.897624 -0.440033
vn 0.0221077 0.86874 0.494774
vn 0.222613 0.973225 0.0572469
vn -0.133154 -0.0852312 0.987424
vn 0.289168 0.792278 0.537287
vn -0.91223 -0.29845 0.280648
vn -0.701595 -0.705018 0.103509
vn -0.815393 -0.483292 -0.318689
vn -0.636653 -0.232158 -0.735374
vn -0.386387 -0.546512 -0.742987
vn -0.612705 -0.493801 0.617052
vn -0.350407 -0.901769 -0.253036
vn -0.309888 -0.870289 0.382839
vn -0.128559 -0.382243 0.915075
vn 0.104243 -0.708126 -0.698349
vn 0.0754858 -0.955246 -0.286021
vn 0.0892364 -0.99469 0.0512619
vn 0.0903525 -0.927933 0.361631
vn 0.103129 -0.739065 0.665693
vn 0.0607214 -0.190031 -0.979898
vn 0.462027 -0.849007 -0.256357
vn 0.502463 -0.80959 0.303472
vn 0.442611 -0.459919 0.769786
vn 0.358113 -0.0349781 0.933023
vn -0.96979 -0.146251 -0.195241
vn -0.915721 -0.0774272 0.394285
vn -0.559793 -0.0852559 0.824235
vn -0.0510178 0.00189508 0.998696
vn -0.962526 -0.137474 -0.233761
vn -0.69053 -0.0324766 0.722574
vn -0.266621 0.0379977 0.963052
vn 0.307385 0.121252 0.943829
vn -0.800535 -0.189974 -0.568378
vn -0.462514 -0.319065 -0.827211
vn 0.334002 -0.00344265 -0.942566
vn -0.215324 -0.0151952 0.976424
vn -0.464764 -0.0322587 0.884847
vn 0.29196 0.203872 0.934449
vn -0.0629854 0.0645548 0.995924
vn 0.838195 0.236235 0.491551
vn 0.757973 0.19561 -0.622265
vn 0.208704 0.122244 -0.970309
vn 0.453584 0.464767 -0.76043
vn 0.587936 0.250099 -0.769273
vn 0.340127 0.44748 0.827088
vn 0.525685 0.717937 -0.456312
vn 0.477119 0.871603 -0.112539
vn 0.534936 0.794101 0.288527
vn 0.723573 0.687837 -0.0576321
vn 0.742434 0.483469 -0.463734
vn 0.711607 0.501942 0.4916
vn 0.901608 0.432449 -0.00957525
vn 0.761009 -0.635804 -0.128913
vn 0.610684 -0.408071 -0.678633
vn 0.861252 -0.408291 0.302561
vn 0.958606 -0.184605 -0.216784
vn 0.60087 -0.192729 0.775765
vn 0.770152 0.0343351 -0.636936
vn 0.731 0.125628 0.670713
vn 0.988183 0.0972135 0.118505
vn -0.715985 -0.659402 0.229248
vn -0.204615 -0.966814 0.152984
vn -0.254841 0.807808 0.531509
vn 0.231908 -0.602392 0.763769
vn -0.0812133 0.69507 0.714341
vn -0.168033 -0.915987 -0.364325
vn -0.125764 -0.942828 -0.30864
vn -0.442403 -0.469741 -0.763952
vn -0.696323 -0.681006 -0.226639
vn -0.318169 -0.708042 0.630432
vn -0.666728 -0.745277 -0.00598645
vn -0.664066 -0.393414 0.635801
vn -0.947564 -0.318067 -0.0309259
vn 0.0835382 -0.694386 -0.714738
vn -0.10483 -0.962712 -0.249392
vn -0.389466 -0.471417 -0.791254
vn -0.0304896 -0.0553168 -0.998003
vn -0.261319 0.883258 0.389317
vn -0.148022 -0.126242 -0.980894
vn 0.0538525 -0.0562476 -0.996963
vn 0.982609 0.180373 -0.0441121
vn 0.943506 0.0499802 0.327565
g grp1
usemtl mtl1
f 11//11 3//3 2//2 
f 19//19 11//11 2//2 
f 4//4 3//3 11//11 
f 11//11 17//17 4//4 
f 4//4 17//17 20//20 
f 19//19 2//2 5//5 
f 5//5 2//2 6//6 
f 6//6 2//2 3//3 
f 7//7 3//3 4//4 
f 4//4 8//8 7//7 
f 4//4 20//20 8//8 
f 29//29 19//19 5//5 
f 5//5 28//28 29//29 
f 5//5 6//6 28//28 
f 30//30 6//6 3//3 
f 30//30 3//3 7//7 
f 19//19 14//14 9//9 
f 9//9 148//148 15//15 
f 19//19 9//9 11//11 
f 9//9 1//1 11//11 
f 9//9 10//10 1//1 
f 9//9 15//15 10//10 
f 15//15 16//16 10//10 
f 13//13 1//1 10//10 
f 10//10 16//16 13//13 
f 12//12 11//11 1//1 
f 12//12 17//17 11//11 
f 1//1 13//13 12//12 
f 18//18 17//17 12//12 
f 12//12 13//13 18//18 
f 18//18 13//13 21//21 
f 19//19 22//22 149//149 
f 22//22 15//15 149//149 
f 23//23 15//15 22//22 
f 16//16 15//15 23//23 
f 20//20 18//18 25//25 
f 20//20 17//17 18//18 
f 150//150 25//25 18//18 
f 26//26 16//16 23//23 
f 24//24 16//16 26//26 
f 24//24 13//13 16//16 
f 24//24 150//150 13//13 
f 20//20 34//34 8//8 
f 25//25 34//34 20//20 
f 150//150 27//27 25//25 
f 150//150 24//24 27//27 
f 19//19 29//29 22//22 
f 33//33 24//24 26//26 
f 34//34 25//25 35//35 
f 35//35 25//25 27//27 
f 28//28 6//6 30//30 
f 36//36 22//22 29//29 
f 27//27 24//24 32//32 
f 35//35 27//27 32//32 
f 26//26 37//37 33//33 
f 33//33 32//32 24//24 
f 23//23 36//36 26//26 
f 26//26 36//36 151//151 
f 29//29 28//28 41//41 
f 30//30 7//7 31//31 
f 7//7 8//8 31//31 
f 34//34 31//31 8//8 
f 28//28 30//30 41//41 
f 41//41 36//36 29//29 
f 36//36 23//23 22//22 
f 31//31 34//34 40//40 
f 34//34 35//35 40//40 
f 50//50 151//151 36//36 
f 47//47 41//41 30//30 
f 45//45 36//36 41//41 
f 44//44 32//32 33//33 
f 37//37 44//44 33//33 
f 38//38 30//30 31//31 
f 31//31 40//40 38//38 
f 40//40 35//35 39//39 
f 152//152 35//35 32//32 
f 152//152 32//32 44//44 
f 50//50 36//36 45//45 
f 151//151 50//50 46//46 
f 43//43 38//38 40//40 
f 40//40 39//39 49//49 
f 38//38 42//42 30//30 
f 42//42 38//38 43//43 
f 43//43 40//40 49//49 
f 49//49 152//152 51//51 
f 30//30 42//42 47//47 
f 46//46 44//44 37//37 
f 44//44 51//51 152//152 
f 71//71 47//47 52//52 
f 52//52 47//47 42//42 
f 51//51 44//44 46//46 
f 48//48 45//45 41//41 
f 48//48 41//41 47//47 
f 58//58 45//45 48//48 
f 53//53 43//43 49//49 
f 48//48 71//71 58//58 
f 71//71 48//48 47//47 
f 54//54 42//42 43//43 
f 50//50 81//81 46//46 
f 54//54 43//43 53//53 
f 57//57 50//50 45//45 
f 58//58 57//57 45//45 
f 50//50 57//57 81//81 
f 54//54 72//72 52//52 
f 52//52 42//42 54//54 
f 54//54 53//53 82//82 
f 165//165 53//53 80//80 
f 49//49 80//80 53//53 
f 81//81 79//79 46//46 
f 79//79 51//51 46//46 
f 80//80 49//49 51//51 
f 79//79 80//80 51//51 
f 68//68 116//116 55//55 
f 58//58 71//71 60//60 
f 74//74 63//63 161//161 
f 162//162 154//154 60//60 
f 155//155 163//163 65//65 
f 65//65 163//163 121//121 
f 121//121 120//120 65//65 
f 60//60 59//59 58//58 
f 58//58 59//59 57//57 
f 59//59 61//61 57//57 
f 57//57 86//86 81//81 
f 86//86 57//57 61//61 
f 62//62 64//64 59//59 
f 64//64 61//61 59//59 
f 154//154 59//59 60//60 
f 153//153 59//59 154//154 
f 61//61 157//157 86//86 
f 158//158 62//62 156//156 
f 64//64 62//62 158//158 
f 158//158 66//66 64//64 
f 67//67 157//157 159//159 
f 67//67 86//86 157//157 
f 86//86 67//67 91//91 
f 55//55 69//69 68//68 
f 55//55 70//70 69//69 
f 68//68 69//69 160//160 
f 120//120 68//68 65//65 
f 68//68 160//160 65//65 
f 70//70 159//159 69//69 
f 70//70 67//67 159//159 
f 67//67 70//70 91//91 
f 91//91 70//70 123//123 
f 55//55 56//56 70//70 
f 56//56 124//124 70//70 
f 124//124 123//123 70//70 
f 72//72 54//54 83//83 
f 73//73 52//52 72//72 
f 88//88 72//72 83//83 
f 164//164 71//71 52//52 
f 164//164 52//52 73//73 
f 164//164 73//73 76//76 
f 76//76 73//73 75//75 
f 75//75 73//73 72//72 
f 75//75 72//72 88//88 
f 78//78 75//75 88//88 
f 77//77 76//76 75//75 
f 78//78 77//77 75//75 
f 164//164 76//76 129//129 
f 77//77 78//78 133//133 
f 164//164 129//129 167//167 
f 130//130 129//129 76//76 
f 130//130 76//76 77//77 
f 133//133 130//130 77//77 
f 83//83 54//54 82//82 
f 81//81 86//86 84//84 
f 84//84 79//79 81//81 
f 87//87 80//80 79//79 
f 84//84 87//87 79//79 
f 88//88 83//83 85//85 
f 83//83 82//82 85//85 
f 85//85 165//165 80//80 
f 84//84 132//132 87//87 
f 88//88 85//85 90//90 
f 90//90 85//85 89//89 
f 85//85 80//80 89//89 
f 89//89 80//80 87//87 
f 78//78 88//88 90//90 
f 90//90 89//89 92//92 
f 92//92 89//89 87//87 
f 132//132 92//92 87//87 
f 91//91 84//84 86//86 
f 91//91 132//132 84//84 
f 78//78 90//90 134//134 
f 123//123 125//125 91//91 
f 125//125 132//132 91//91 
f 135//135 92//92 132//132 
f 134//134 133//133 78//78 
f 90//90 135//135 134//134 
f 92//92 135//135 90//90 
f 97//97 99//99 95//95 
f 95//95 99//99 94//94 
f 95//95 94//94 93//93 
f 94//94 98//98 93//93 
f 96//96 107//107 97//97 
f 96//96 97//97 95//95 
f 114//114 93//93 98//98 
f 113//113 93//93 114//114 
f 100//100 94//94 99//99 
f 100//100 98//98 94//94 
f 114//114 101//101 115//115 
f 114//114 98//98 101//101 
f 97//97 107//107 102//102 
f 99//99 97//97 102//102 
f 102//102 103//103 99//99 
f 103//103 104//104 99//99 
f 104//104 100//100 99//99 
f 98//98 100//100 101//101 
f 104//104 105//105 100//100 
f 100//100 105//105 106//106 
f 106//106 101//101 100//100 
f 102//102 107//107 141//141 
f 141//141 108//108 102//102 
f 102//102 108//108 103//103 
f 103//103 108//108 104//104 
f 108//108 109//109 104//104 
f 104//104 109//109 105//105 
f 109//109 106//106 105//105 
f 106//106 109//109 110//110 
f 106//106 110//110 101//101 
f 101//101 111//111 115//115 
f 101//101 110//110 111//111 
f 141//141 107//107 145//145 
f 145//145 107//107 122//122 
f 119//119 115//115 111//111 
f 109//109 108//108 140//140 
f 141//141 140//140 108//108 
f 140//140 142//142 109//109 
f 142//142 110//110 109//109 
f 110//110 144//144 111//111 
f 144//144 146//146 111//111 
f 146//146 119//119 111//111 
f 95//95 112//112 96//96 
f 95//95 93//93 112//112 
f 93//93 113//113 112//112 
f 114//114 117//117 113//113 
f 112//112 113//113 55//55 
f 114//114 118//118 117//117 
f 96//96 166//166 107//107 
f 118//118 114//114 115//115 
f 112//112 120//120 96//96 
f 112//112 116//116 120//120 
f 112//112 55//55 116//116 
f 117//117 55//55 113//113 
f 115//115 119//119 118//118 
f 107//107 166//166 122//122 
f 68//68 120//120 116//116 
f 117//117 124//124 56//56 
f 55//55 117//117 56//56 
f 118//118 124//124 117//117 
f 118//118 126//126 124//124 
f 119//119 126//126 118//118 
f 122//122 166//166 167//167 
f 122//122 167//167 129//129 
f 122//122 131//131 128//128 
f 128//128 145//145 122//122 
f 124//124 126//126 123//123 
f 125//125 123//123 126//126 
f 119//119 125//125 126//126 
f 125//125 119//119 127//127 
f 125//125 127//127 138//138 
f 127//127 146//146 147//147 
f 146//146 127//127 119//119 
f 168//168 147//147 145//145 
f 147//147 168//168 127//127 
f 139//139 127//127 168//168 
f 127//127 139//139 138//138 
f 122//122 129//129 131//131 
f 130//130 133//133 137//137 
f 129//129 130//130 131//131 
f 130//130 137//137 131//131 
f 128//128 131//131 137//137 
f 136//136 137//137 133//133 
f 134//134 136//136 133//133 
f 135//135 136//136 134//134 
f 125//125 138//138 132//132 
f 136//136 139//139 137//137 
f 138//138 139//139 136//136 
f 135//135 138//138 136//136 
f 132//132 138//138 135//135 
f 139//139 128//128 137//137 
f 142//142 140//140 143//143 
f 143//143 140//140 141//141 
f 145//145 143//143 141//141 
f 143//143 147//147 142//142 
f 110//110 142//142 144//144 
f 169//169 142//142 147//147 
f 143//143 145//145 147//147 
f 147//147 146//146 169//169 
