#
# The license for this database is specified in the Creative Commons Attribution-Share Alike 2.1 Japan. If you use data from this database, please be sure attribute this database as follows: "BodyParts3D, (c)  The Database Center for Life Science licensed under CC Attribution-Share Alike 2.1 Japan".
# http://dbarchive.biosciencedbc.jp/en/bodyparts3d/lic.html
#
#
# Compatibility version : 4.0
# File ID : FJ1362
# Representation ID : BP5730
# Build-up logic : FMA 3.0 is_a
# Concept ID : FMA52673
# English name : Communicating branch of right nasociliary nerve with right ciliary ganglion
# Bounds(mm): (-26.010600,-132.246000,1524.923100)-(-17.679100,-125.864400,1529.088000)
# Volume(cm3): 0.002100
#
v -25.9776 -132.086 1525.13
v -26.0007 -131.978 1525.14
v -25.9553 -131.98 1525.02
v -25.8978 -131.783 1525.14
v -25.9701 -132.084 1525.24
v -25.9321 -131.982 1525.34
v -25.9573 -131.863 1525.24
v -25.8916 -131.864 1525.35
v -25.8589 -132.21 1525.13
v -25.7465 -132.236 1525.14
v -25.7572 -132.189 1525.02
v -25.6207 -132.152 1525.05
v -25.858 -132.203 1525.24
v -25.7549 -132.229 1525.24
v -25.7268 -132.149 1525.35
v -25.514 -132.12 1525.26
v -25.8596 -132.09 1524.97
v -25.8539 -131.983 1524.93
v -25.8404 -131.862 1524.97
v -25.7357 -131.65 1525.15
v -25.7511 -132.082 1524.93
v -25.7285 -131.88 1524.94
v -25.5764 -131.937 1524.96
v -25.3065 -131.639 1525.08
v -25.3506 -131.476 1525.14
v -25.8604 -132.087 1525.37
v -25.8245 -131.957 1525.42
v -25.7482 -131.663 1525.34
v -25.7024 -132.044 1525.43
v -25.4335 -131.55 1525.56
v -25.5325 -131.461 1525.34
v -25.3994 -131.386 1525.47
v -25.2126 -131.253 1525.36
v -25.0267 -131.471 1525.72
v -24.8049 -131.527 1525.67
v -24.5792 -131.439 1525.47
v -24.7914 -131.139 1525.33
v -24.526 -131.101 1525.91
v -24.6713 -130.929 1525.68
v -24.7138 -131.048 1525.81
v -24.536 -131.138 1525.36
v -24.5499 -130.876 1525.58
v -23.9812 -131.005 1526.05
v -23.605 -130.457 1525.92
v -23.5043 -130.504 1525.8
v -23.2987 -130.874 1525.95
v -23.4256 -130.717 1525.72
v -23.7726 -130.609 1526.1
v -23.3237 -130.878 1526.11
v -22.7589 -130.168 1526.35
v -22.2256 -130.371 1526.6
v -22.0118 -130.314 1526.22
v -21.8019 -130.353 1526.53
v -21.7407 -129.792 1526.66
v -21.7553 -129.949 1526.79
v -21.4731 -130.185 1526.75
v -21.3824 -129.894 1526.4
v -21.435 -129.654 1526.62
v -21.2589 -130.095 1526.54
v -21.2301 -129.589 1526.87
v -21.1328 -130.083 1526.76
v -20.9857 -129.993 1526.88
v -20.9079 -129.982 1526.77
v -20.982 -129.65 1527.08
v -20.8745 -129.396 1526.98
v -20.7631 -129.905 1526.89
v -20.7054 -129.856 1526.78
v -20.7823 -129.761 1526.62
v -20.8332 -129.791 1527.07
v -20.531 -129.701 1527.11
v -20.7795 -129.442 1526.7
v -20.5553 -129.444 1526.71
v -20.2428 -129.119 1526.9
v -20.0766 -129.357 1526.93
v -20.1667 -129.528 1527.1
v -20.265 -129.018 1527.3
v -20.198 -128.939 1527.1
v -20.0342 -129.101 1527.48
v -19.7068 -128.881 1527.09
v -19.4478 -128.923 1527.32
v -19.8687 -128.699 1527.53
v -19.8481 -128.598 1527.41
v -19.743 -128.543 1527.3
v -19.5165 -128.239 1527.63
v -19.4079 -128.287 1527.36
v -19.2506 -128.611 1527.71
v -19.3318 -128.296 1527.88
v -18.9857 -128.352 1527.53
v -18.5933 -127.534 1527.81
v -19.0038 -127.546 1527.96
v -18.9824 -127.743 1528.13
v -18.852 -127.406 1527.87
v -18.8071 -127.87 1528.15
v -18.4552 -127.102 1528.56
v -18.3494 -127.448 1528.2
v -18.26 -127.182 1528.1
v -18.5841 -126.998 1528.49
v -18.5483 -126.8 1528.31
v -18.1667 -126.929 1528.65
v -17.9571 -126.324 1529.02
v -17.7793 -126.321 1528.9
v -17.7728 -126.309 1528.66
v -18.0367 -126.064 1528.57
v -17.9357 -125.964 1528.65
v -17.8659 -126.137 1528.57
v -18.1929 -126.109 1528.89
v -18.1392 -125.99 1528.79
v -18.06 -126.21 1529.04
v -18.0389 -126.002 1529.02
v -18.0346 -125.913 1528.92
v -17.9362 -126.066 1529.08
v -17.9303 -125.879 1528.81
v -17.935 -125.964 1529.03
v -17.8376 -126.169 1529.06
v -17.833 -126.059 1529.05
v -17.8278 -125.939 1528.71
v -17.7517 -125.964 1528.82
v -17.8346 -125.919 1528.92
v -17.7067 -126.208 1528.8
v -17.7356 -126.098 1528.7
v -17.6916 -126.067 1528.82
v -17.7139 -126.07 1528.92
v -25.9776 -132.086 1525.13
v -26.0007 -131.978 1525.14
v -25.8589 -132.21 1525.13
v -25.858 -132.203 1525.24
v -25.7549 -132.229 1525.24
v -25.5764 -131.937 1524.96
v -24.5792 -131.439 1525.47
v -24.536 -131.138 1525.36
v -24.5499 -130.876 1525.58
v -23.605 -130.457 1525.92
v -23.4256 -130.717 1525.72
v -23.4256 -130.717 1525.72
v -22.0118 -130.314 1526.22
v -21.7407 -129.792 1526.66
v -21.7553 -129.949 1526.79
v -21.3824 -129.894 1526.4
v -21.435 -129.654 1526.62
v -21.435 -129.654 1526.62
v -21.2301 -129.589 1526.87
v -20.982 -129.65 1527.08
v -20.8745 -129.396 1526.98
v -20.8745 -129.396 1526.98
v -20.5553 -129.444 1526.71
v -20.0766 -129.357 1526.93
v -20.265 -129.018 1527.3
v -20.0342 -129.101 1527.48
v -19.4478 -128.923 1527.32
v -19.4478 -128.923 1527.32
v -19.743 -128.543 1527.3
v -19.5165 -128.239 1527.63
v -19.4079 -128.287 1527.36
v -18.9857 -128.352 1527.53
v -18.9857 -128.352 1527.53
v -19.0038 -127.546 1527.96
v -18.9824 -127.743 1528.13
v -18.852 -127.406 1527.87
v -18.8071 -127.87 1528.15
v -18.8071 -127.87 1528.15
v -18.26 -127.182 1528.1
v -18.5841 -126.998 1528.49
v -18.5483 -126.8 1528.31
v -18.0367 -126.064 1528.57
v -17.9357 -125.964 1528.65
v -18.1392 -125.99 1528.79
v -18.0346 -125.913 1528.92
v -17.9303 -125.879 1528.81
v -17.9303 -125.879 1528.81
v -17.8376 -126.169 1529.06
v -17.833 -126.059 1529.05
v -17.8278 -125.939 1528.71
v -17.8278 -125.939 1528.71
v -17.7517 -125.964 1528.82
v -17.7517 -125.964 1528.82
v -17.8346 -125.919 1528.92
v -17.8346 -125.919 1528.92
v -17.6916 -126.067 1528.82
v -17.6916 -126.067 1528.82
v -17.6916 -126.067 1528.82
v -17.7139 -126.07 1528.92
vn -0.7249 -0.686153 0.060939
vn -0.993027 -0.117269 0.0120648
vn -0.812316 0.0877491 -0.576578
vn -0.750653 0.616649 -0.2372
vn -0.881441 -0.368974 0.294822
vn -0.773208 -0.00645133 0.63412
vn -0.892727 0.358261 0.273291
vn -0.677711 0.325973 0.659128
vn -0.726593 -0.684677 0.0572759
vn 0.169179 -0.973031 -0.156812
vn -0.0452604 -0.802981 -0.594284
vn 0.489992 -0.697983 -0.522233
vn -0.471491 -0.738719 0.481654
vn -0.233753 -0.970716 0.0554033
vn 0.0493309 -0.741762 0.668846
vn 0.472632 -0.86242 0.181247
vn -0.517757 -0.496184 -0.696943
vn -0.384619 0.0311889 -0.922548
vn -0.45619 0.531135 -0.713994
vn -0.530641 0.777631 -0.337209
vn 0.0880868 -0.34247 -0.93539
vn 0.0133514 0.246571 -0.969033
vn 0.53215 -0.389652 -0.751656
vn 0.155883 0.285244 -0.945694
vn -0.160615 0.614331 -0.772529
vn -0.454813 -0.45478 0.765715
vn -0.431959 -0.0391531 0.901043
vn -0.690017 0.652286 0.313686
vn -0.0907167 -0.438619 0.894083
vn -0.515058 0.278874 0.810521
vn -0.615839 0.787147 0.0337937
vn -0.605494 0.701202 0.376421
vn -0.439232 0.849349 -0.292713
vn -0.191605 -0.260876 0.946167
vn 0.23509 -0.74906 0.619389
vn 0.511885 -0.42277 -0.747824
vn -0.0573473 0.602917 -0.79574
vn -0.341355 0.0468789 0.938765
vn -0.501559 0.838804 0.211768
vn -0.51347 0.495588 0.700529
vn 0.157636 0.337826 -0.927914
vn -0.435959 0.898435 -0.0524843
vn -0.0827246 -0.467437 0.880147
vn -0.42075 0.888289 0.184153
vn -0.0115722 0.652225 -0.757937
vn 0.435654 -0.821372 -0.368176
vn 0.442709 -0.515637 -0.733572
vn -0.460077 0.630159 0.625482
vn 0.23048 -0.893886 0.384508
vn -0.429572 0.80882 0.401594
vn -0.105235 -0.485528 0.867864
vn 0.423978 -0.688741 -0.588115
vn 0.340538 -0.939236 0.0432384
vn -0.394085 0.909451 0.132648
vn -0.244454 -0.182388 0.952353
vn 0.152239 -0.827312 0.54072
vn 0.0153797 0.570503 -0.821151
vn -0.0969775 0.746922 -0.657801
vn 0.470248 -0.720025 -0.510325
vn -0.482392 0.539658 0.689976
vn 0.36255 -0.927205 0.0940621
vn 0.268157 -0.862502 0.429165
vn 0.450189 -0.890648 -0.0638467
vn -0.249128 -0.218312 0.943544
vn -0.514112 0.831929 0.208768
vn 0.446042 -0.880965 0.157949
vn 0.569036 -0.735964 -0.366819
vn 0.475006 -0.326698 -0.817091
vn -0.0266473 -0.550804 0.834209
vn 0.243612 -0.740881 0.625898
vn -0.183658 0.737654 -0.649721
vn 0.069663 0.470642 -0.87957
vn -0.0724502 0.601003 -0.795957
vn 0.631363 -0.641868 -0.435185
vn 0.569846 -0.817092 0.0873795
vn -0.580078 0.315043 0.75117
vn -0.522478 0.808152 -0.271857
vn 0.018425 -0.50807 0.861119
vn 0.320822 0.18364 -0.929166
vn 0.650199 -0.719258 0.244763
vn -0.703942 0.377216 0.601808
vn -0.71557 0.695173 0.0685116
vn -0.542053 0.767097 -0.343134
vn -0.64257 0.703762 -0.303022
vn -0.599274 0.711457 -0.367015
vn 0.487154 -0.705591 0.514609
vn -0.578251 0.0782522 0.812097
vn 0.742298 -0.651258 0.157661
vn 0.329489 0.269666 -0.90483
vn -0.729394 0.623559 -0.281351
vn -0.814091 0.278173 0.50978
vn -0.705082 0.627063 -0.331135
vn -0.244051 -0.30234 0.921428
vn -0.2814 -0.345008 0.895424
vn 0.811988 -0.564598 0.148004
vn 0.888499 -0.388897 -0.243573
vn -0.89663 0.336981 0.287224
vn -0.683266 0.610346 -0.400781
vn 0.380178 -0.600084 0.703821
vn 0.160364 -0.478554 0.86329
vn 0.733667 -0.479755 0.481214
vn 0.906986 -0.234014 -0.350162
vn 0.129199 0.438945 -0.889176
vn -0.260135 0.851376 -0.45551
vn 0.435341 0.341156 -0.833121
vn -0.840945 0.357703 0.406028
vn -0.481845 0.785673 -0.387998
vn -0.422931 -0.111493 0.899276
vn -0.516601 0.416097 0.748322
vn -0.386068 0.806255 0.448223
vn -0.052491 0.169377 0.984152
vn -0.272169 0.893959 -0.356036
vn 0.0238155 0.677511 0.735127
vn 0.0632636 -0.150176 0.986633
vn 0.411517 0.427352 0.804999
vn 0.58197 0.465713 -0.666649
vn 0.795792 0.544334 0.265359
vn 0.0242275 0.930843 0.364615
vn 0.966688 -0.252665 -0.0409128
vn 0.819252 0.180692 -0.544221
vn 0.939952 -0.0538277 -0.337034
vn 0.876187 -0.16998 0.451003
vn -0.864969 -0.365053 -0.344333
vn -0.85833 0.450776 -0.245095
vn -0.367888 -0.89291 -0.259558
vn -0.247008 -0.96652 0.06947
vn 0.202248 -0.886043 0.417162
vn 0.227975 0.0839345 -0.970043
vn 0.490032 -0.871121 0.0318904
vn 0.489247 -0.366548 -0.791378
vn -0.185344 0.786803 -0.588718
vn -0.179015 0.854279 -0.488017
vn 0.148857 0.387287 -0.909863
vn 0.360582 -0.138041 -0.922456
vn 0.40855 -0.226527 -0.884179
vn -0.462534 0.601978 0.650911
vn -0.447041 0.52732 0.722557
vn 0.392651 -0.203564 -0.896876
vn -0.422515 0.893166 0.154065
vn -0.274269 0.929942 -0.244917
vn -0.458972 0.875568 0.15075
vn -0.527044 0.45917 0.715114
vn -0.460237 0.876015 -0.144153
vn -0.559436 0.498866 0.66194
vn 0.403811 -0.0350201 -0.914172
vn 0.499777 -0.116155 -0.85833
vn -0.674091 0.714365 0.187837
vn -0.525964 0.110447 0.843305
vn 0.622355 -0.229103 -0.748456
vn 0.663689 -0.673573 -0.325295
vn -0.0868863 0.524486 -0.846974
vn -0.769947 0.375675 0.515801
vn 0.0100248 0.443019 -0.896456
vn 0.61526 -0.0858936 -0.783631
vn 0.870277 -0.399354 -0.28833
vn -0.851268 0.345697 0.394761
vn -0.403221 -0.217115 0.888974
vn 0.0326256 0.465058 -0.884679
vn 0.106646 -0.559183 0.822156
vn 0.543762 -0.648066 0.533229
vn 0.686 0.0254891 -0.727155
vn -0.633929 -0.079343 0.76931
vn -0.905681 0.392188 0.161031
vn -0.584941 0.67546 -0.448996
vn 0.272137 0.47981 -0.834101
vn -0.843931 0.51286 0.157339
vn -0.452237 0.877568 -0.159236
vn 0.0251948 0.944033 0.328888
vn 0.431624 0.899442 -0.0685842
vn 0.701314 -0.280565 0.655319
vn 0.743246 -0.00217569 0.669014
vn 0.061068 0.886138 -0.459381
vn 0.431193 0.897197 -0.0954418
vn 0.775259 0.467893 -0.424322
vn 0.431624 0.899442 -0.0685842
vn 0.618698 0.587887 0.521155
vn 0.431741 0.901034 -0.0416769
vn 0.97029 -0.13171 0.202953
vn 0.784641 0.460682 -0.414862
vn 0.846095 0.49523 0.197154
vn 0.757394 0.542477 0.363418
g grp1
usemtl mtl1
f 9//9 13//13 5//5 
f 1//1 9//9 5//5 
f 17//17 125//125 123//123 
f 13//13 26//26 5//5 
f 3//3 123//123 2//2 
f 123//123 5//5 2//2 
f 5//5 7//7 2//2 
f 4//4 3//3 124//124 
f 4//4 124//124 7//7 
f 123//123 3//3 17//17 
f 17//17 3//3 18//18 
f 3//3 4//4 19//19 
f 3//3 19//19 18//18 
f 19//19 4//4 20//20 
f 4//4 7//7 28//28 
f 20//20 4//4 28//28 
f 5//5 6//6 7//7 
f 26//26 27//27 6//6 
f 5//5 26//26 6//6 
f 7//7 6//6 8//8 
f 6//6 27//27 8//8 
f 125//125 11//11 10//10 
f 10//10 14//14 125//125 
f 125//125 14//14 126//126 
f 11//11 125//125 17//17 
f 11//11 17//17 21//21 
f 12//12 16//16 10//10 
f 10//10 16//16 127//127 
f 12//12 10//10 11//11 
f 12//12 11//11 21//21 
f 13//13 127//127 15//15 
f 15//15 26//26 13//13 
f 26//26 15//15 29//29 
f 15//15 127//127 16//16 
f 35//35 15//15 16//16 
f 29//29 15//15 35//35 
f 21//21 17//17 18//18 
f 21//21 18//18 22//22 
f 18//18 19//19 22//22 
f 20//20 25//25 19//19 
f 19//19 25//25 22//22 
f 23//23 12//12 21//21 
f 22//22 128//128 21//21 
f 36//36 12//12 23//23 
f 24//24 128//128 22//22 
f 24//24 22//22 25//25 
f 16//16 12//12 129//129 
f 24//24 25//25 37//37 
f 37//37 25//25 33//33 
f 29//29 27//27 26//26 
f 8//8 27//27 30//30 
f 7//7 8//8 28//28 
f 8//8 30//30 28//28 
f 35//35 34//34 29//29 
f 27//27 29//29 34//34 
f 34//34 30//30 27//27 
f 20//20 28//28 31//31 
f 28//28 30//30 32//32 
f 28//28 32//32 31//31 
f 20//20 31//31 33//33 
f 25//25 20//20 33//33 
f 33//33 31//31 32//32 
f 16//16 129//129 35//35 
f 34//34 38//38 30//30 
f 128//128 24//24 41//41 
f 41//41 24//24 37//37 
f 36//36 23//23 130//130 
f 35//35 43//43 34//34 
f 40//40 30//30 38//38 
f 33//33 32//32 39//39 
f 30//30 40//40 32//32 
f 32//32 40//40 39//39 
f 39//39 42//42 33//33 
f 42//42 39//39 44//44 
f 39//39 40//40 48//48 
f 44//44 39//39 48//48 
f 37//37 45//45 41//41 
f 33//33 131//131 37//37 
f 37//37 131//131 45//45 
f 40//40 38//38 48//48 
f 34//34 43//43 38//38 
f 36//36 130//130 47//47 
f 133//133 41//41 45//45 
f 45//45 131//131 132//132 
f 44//44 48//48 50//50 
f 129//129 46//46 49//49 
f 129//129 49//49 35//35 
f 47//47 46//46 36//36 
f 52//52 46//46 47//47 
f 45//45 132//132 58//58 
f 43//43 35//35 49//49 
f 43//43 55//55 38//38 
f 137//137 48//48 38//38 
f 51//51 43//43 49//49 
f 51//51 55//55 43//43 
f 50//50 48//48 137//137 
f 139//139 44//44 50//50 
f 52//52 59//59 46//46 
f 57//57 133//133 45//45 
f 46//46 53//53 49//49 
f 135//135 134//134 138//138 
f 45//45 58//58 57//57 
f 59//59 53//53 46//46 
f 64//64 55//55 51//51 
f 139//139 50//50 54//54 
f 50//50 137//137 136//136 
f 53//53 56//56 49//49 
f 49//49 56//56 51//51 
f 136//136 137//137 60//60 
f 59//59 61//61 53//53 
f 53//53 61//61 56//56 
f 135//135 138//138 59//59 
f 51//51 56//56 69//69 
f 51//51 69//69 64//64 
f 54//54 141//141 139//139 
f 71//71 57//57 58//58 
f 142//142 60//60 137//137 
f 63//63 61//61 59//59 
f 63//63 62//62 61//61 
f 61//61 62//62 56//56 
f 69//69 56//56 62//62 
f 68//68 59//59 138//138 
f 59//59 67//67 63//63 
f 67//67 66//66 63//63 
f 63//63 66//66 62//62 
f 59//59 68//68 67//67 
f 62//62 66//66 70//70 
f 69//69 62//62 70//70 
f 141//141 65//65 139//139 
f 140//140 143//143 71//71 
f 77//77 71//71 143//143 
f 60//60 142//142 144//144 
f 67//67 75//75 66//66 
f 66//66 75//75 70//70 
f 74//74 67//67 68//68 
f 71//71 72//72 57//57 
f 71//71 73//73 72//72 
f 73//73 71//71 77//77 
f 68//68 138//138 145//145 
f 146//146 68//68 145//145 
f 146//146 145//145 79//79 
f 79//79 72//72 73//73 
f 67//67 74//74 75//75 
f 78//78 64//64 69//69 
f 78//78 69//69 70//70 
f 142//142 148//148 76//76 
f 144//144 142//142 76//76 
f 143//143 147//147 77//77 
f 77//77 147//147 82//82 
f 83//83 77//77 82//82 
f 70//70 75//75 86//86 
f 78//78 70//70 86//86 
f 73//73 77//77 83//83 
f 76//76 148//148 81//81 
f 147//147 81//81 82//82 
f 81//81 148//148 87//87 
f 86//86 75//75 80//80 
f 146//146 79//79 149//149 
f 74//74 150//150 75//75 
f 83//83 82//82 84//84 
f 82//82 81//81 152//152 
f 81//81 87//87 152//152 
f 79//79 73//73 151//151 
f 83//83 84//84 85//85 
f 153//153 79//79 151//151 
f 85//85 84//84 92//92 
f 87//87 148//148 93//93 
f 86//86 80//80 88//88 
f 79//79 154//154 149//149 
f 89//89 154//154 79//79 
f 78//78 86//86 159//159 
f 160//160 86//86 95//95 
f 88//88 95//95 86//86 
f 152//152 87//87 91//91 
f 90//90 92//92 84//84 
f 91//91 156//156 152//152 
f 157//157 87//87 93//93 
f 92//92 90//90 98//98 
f 156//156 91//91 97//97 
f 163//163 156//156 97//97 
f 157//157 93//93 94//94 
f 157//157 94//94 162//162 
f 94//94 93//93 99//99 
f 79//79 153//153 89//89 
f 89//89 153//153 158//158 
f 99//99 160//160 95//95 
f 96//96 95//95 155//155 
f 89//89 161//161 154//154 
f 99//99 100//100 94//94 
f 102//102 95//95 96//96 
f 103//103 89//89 158//158 
f 98//98 164//164 92//92 
f 94//94 108//108 162//162 
f 94//94 100//100 108//108 
f 100//100 114//114 108//108 
f 99//99 101//101 100//100 
f 101//101 170//170 100//100 
f 95//95 101//101 99//99 
f 101//101 122//122 170//170 
f 95//95 102//102 119//119 
f 101//101 95//95 119//119 
f 101//101 119//119 122//122 
f 164//164 98//98 107//107 
f 107//107 104//104 164//164 
f 112//112 104//104 107//107 
f 161//161 89//89 105//105 
f 105//105 89//89 103//103 
f 105//105 103//103 165//165 
f 165//165 116//116 105//105 
f 172//172 104//104 112//112 
f 161//161 105//105 120//120 
f 105//105 116//116 120//120 
f 120//120 102//102 161//161 
f 97//97 106//106 163//163 
f 162//162 108//108 106//106 
f 163//163 106//106 166//166 
f 106//106 108//108 109//109 
f 106//106 109//109 110//110 
f 166//166 106//106 110//110 
f 114//114 111//111 108//108 
f 111//111 109//109 108//108 
f 109//109 113//113 110//110 
f 113//113 109//109 111//111 
f 112//112 107//107 167//167 
f 115//115 111//111 114//114 
f 115//115 113//113 111//111 
f 168//168 110//110 118//118 
f 113//113 115//115 176//176 
f 113//113 118//118 110//110 
f 170//170 122//122 171//171 
f 117//117 176//176 181//181 
f 181//181 176//176 115//115 
f 174//174 120//120 116//116 
f 169//169 175//175 173//173 
f 177//177 175//175 169//169 
f 102//102 120//120 119//119 
f 119//119 120//120 121//121 
f 119//119 178//178 122//122 
f 174//174 179//179 120//120 
f 181//181 180//180 117//117 
