#
# The license for this database is specified in the Creative Commons Attribution-Share Alike 2.1 Japan. If you use data from this database, please be sure attribute this database as follows: "BodyParts3D, (c)  The Database Center for Life Science licensed under CC Attribution-Share Alike 2.1 Japan".
# http://dbarchive.biosciencedbc.jp/en/bodyparts3d/lic.html
#
#
# Compatibility version : 4.0
# File ID : FJ2592
# Representation ID : BP9690
# Build-up logic : FMA 3.0 part_of
# Concept ID : FMA14966
# English name : Distal part of ileum
# Bounds(mm): (-44.048300,-144.631000,809.768000)-(-1.786400,-123.260000,848.901000)
# Volume(cm3): 12.347500
#
v -42.5778 -138.679 819.409
v -42.2297 -139.705 824.571
v -43.8173 -134.188 819.78
v -44.0483 -135.161 823.122
v -41.9147 -135.015 828.597
v -43.3449 -130.403 821.268
v -40.8041 -127.224 825.819
v -42.4201 -131.411 827.476
v -37.3792 -144.102 821.947
v -37.1196 -140.208 814.131
v -40.9906 -141.699 821.366
v -40.6354 -139.066 816.346
v -39.3081 -141.903 817.76
v -39.4164 -142.72 824.519
v -36.8885 -143.278 826.397
v -40.1484 -139.067 828.634
v -35.4529 -141.206 829.231
v -39.0594 -133.58 813.696
v -38.6119 -137.733 813.902
v -41.8787 -135.397 816.406
v -36.3666 -134.895 831.377
v -37.7898 -130.569 813.639
v -41.6518 -132.132 816.448
v -39.3992 -130.085 829.992
v -35.5372 -126.784 829.507
v -37.6328 -125.059 819.3
v -36.0459 -124.15 825.162
v -34.1725 -144.605 823.867
v -36.2056 -143.454 817.261
v -31.6908 -144.5 817.963
v -33.6395 -143.554 826.78
v -30.6794 -141.424 828.555
v -29.9638 -139.39 830.601
v -31.9358 -136.249 809.904
v -31.934 -133.494 831.743
v -31.7642 -137.702 830.921
v -30.2096 -136.768 831.947
v -30.7872 -133.26 832.743
v -27.7992 -132.88 836.974
v -31.5269 -130.939 831.952
v -31.8244 -127.561 830.083
v -30.2812 -127.404 831.067
v -31.0786 -125.862 828.424
v -29.6694 -125.941 829.351
v -29.3276 -144.631 822.878
v -30.2 -141.34 811.972
v -29.5444 -143.471 825.825
v -26.6539 -143.591 826.954
v -25.2711 -144.58 822.394
v -28.6516 -141.704 828.762
v -28.2192 -129.224 810.731
v -24.7855 -126.572 839.359
v -23.197 -130.063 842.147
v -24.0806 -123.316 823.616
v -21.3576 -124.134 838.795
v -21.5796 -140.281 814.676
v -24.3955 -135.959 809.768
v -17.0235 -135.667 845.452
v -19.5786 -129.56 815.018
v -18.781 -127.737 845.129
v -16.287 -131.302 847.423
v -14.6552 -126.322 846.109
v -15.9544 -123.559 834.28
v -18.8374 -125.589 843.44
v -16.3683 -124.532 843.216
v -12.5609 -140.249 830.862
v -15.0112 -143.492 834.257
v -11.1109 -141.447 844.72
v -10.7768 -143.033 842.262
v -11.4847 -135.485 829.411
v -11.4392 -137.622 847.869
v -11.8367 -133.308 848.876
v -9.09354 -136.936 848.625
v -12.7859 -127.799 829.778
v -10.7741 -127.249 832.303
v -13.944 -128.493 847.669
v -10.2753 -127.342 847.648
v -10.8262 -130.184 848.852
v -15.839 -124.922 829.744
v -12.2583 -125.174 833.52
v -14.5243 -123.466 840.901
v -11.0874 -123.26 840.883
v -11.8762 -124.662 844.852
v -9.33792 -125.863 846.347
v -9.01509 -124.042 843.75
v -6.13908 -141.421 839.236
v -8.61176 -139.411 847.483
v -8.4005 -141.967 844.978
v -7.9864 -142.778 842.587
v -6.70055 -141.018 845.559
v -5.3768 -141.167 843.225
v -4.894 -138.875 846.281
v -4.15329 -136.478 836.544
v -6.22922 -137.841 847.691
v -3.93 -132.968 847.143
v -3.27719 -135.758 846.211
v -8.12654 -134.571 848.901
v -5.91901 -129.475 834.184
v -4.41996 -127.578 836.858
v -3.7614 -128.667 845.921
v -2.96985 -128.024 844.085
v -2.62355 -128.177 841.142
v -7.78243 -128.103 847.795
v -7.07216 -130.454 848.446
v -7.34197 -123.992 839.092
v -7.07974 -125.537 836.039
v -5.58302 -125.026 838.45
v -3.62603 -126.825 839.579
v -7.27875 -124.353 843.742
v -7.52446 -123.744 842.131
v -5.96422 -124.381 841.985
v -5.13594 -126.27 844.932
v -3.88988 -126.087 841.88
v -1.82039 -133.521 840.628
v -2.54313 -137.135 842.293
v -2.84428 -136.995 844.689
v -1.78639 -133.472 843.65
v -3.01974 -129.998 837.754
v -2.29247 -131.63 845.086
v -1.88062 -130.474 841.997
v -35.5372 -126.784 829.507
v -31.5269 -130.939 831.952
v -28.2192 -129.224 810.731
v -21.5796 -140.281 814.676
v -24.3955 -135.959 809.768
v -24.3955 -135.959 809.768
v -19.5786 -129.56 815.018
v -19.5786 -129.56 815.018
v -12.7859 -127.799 829.778
vn -0.875575 -0.401691 -0.268351
vn -0.847397 -0.476392 0.234453
vn -0.948737 0.00194675 -0.31606
vn -0.987591 -0.0950203 0.125043
vn -0.744667 -0.121849 0.656219
vn -0.905288 0.410925 -0.107675
vn -0.656743 0.6847 0.316029
vn -0.866517 0.258566 0.426957
vn -0.364396 -0.930462 -0.0381611
vn -0.450973 -0.53606 -0.713627
vn -0.704687 -0.704781 -0.0818478
vn -0.693987 -0.412167 -0.590339
vn -0.594243 -0.698107 -0.399402
vn -0.581662 -0.767873 0.268403
vn -0.309517 -0.840861 0.444017
vn -0.542098 -0.496191 0.678177
vn -0.132883 -0.566978 0.812944
vn -0.593223 0.0544396 -0.803196
vn -0.57695 -0.238552 -0.781167
vn -0.784776 -0.11644 -0.608743
vn -0.228198 -0.0324863 0.973073
vn -0.477044 0.405931 -0.779519
vn -0.757219 0.308607 -0.575657
vn -0.502415 0.314414 0.805434
vn -0.0886778 0.232433 0.968561
vn -0.452389 0.818243 -0.354715
vn -0.234739 0.925913 0.295944
vn -0.0929152 -0.982098 0.163864
vn -0.316938 -0.840823 -0.438824
vn 0.00726139 -0.972681 -0.23203
vn 0.0239603 -0.854757 0.518475
vn -0.00751883 -0.741387 0.671036
vn -0.279106 -0.5701 0.772713
vn -0.30464 -0.105654 -0.94659
vn -0.379154 -0.14265 0.914272
vn -0.204057 -0.30371 0.930656
vn -0.57721 -0.344647 0.740302
vn -0.725274 -0.138518 0.674381
vn -0.753883 -0.132676 0.643473
vn -0.0594944 -0.0717606 0.995646
vn -0.31132 0.562493 0.765951
vn -0.608979 0.575242 0.546115
vn -0.103834 0.840342 0.532019
vn -0.407852 0.834208 0.371151
vn 0.00519931 -0.978302 0.207121
vn -0.0418508 -0.696738 -0.716104
vn -0.066445 -0.862268 0.502075
vn -0.233269 -0.896332 0.37706
vn 0.128255 -0.989904 -0.0603319
vn -0.269581 -0.765832 0.583804
vn -0.0783296 0.632847 -0.770305
vn -0.672982 0.485706 0.557839
vn -0.670573 0.00185728 0.741841
vn 0.051499 0.995519 -0.0793073
vn -0.328549 0.898952 0.289727
vn 0.364171 -0.825257 -0.43166
vn 0.0994487 -0.31173 -0.944952
vn -0.534084 -0.477864 0.697424
vn 0.425779 0.360373 -0.829966
vn -0.49516 0.374833 0.783783
vn -0.447453 0.0111037 0.894239
vn -0.221511 0.649647 0.72725
vn 0.204569 0.951958 -0.227877
vn -0.397165 0.695754 0.598487
vn -0.214848 0.859317 0.464127
vn 0.637815 -0.576222 -0.511038
vn 0.255664 -0.955652 -0.146171
vn -0.36405 -0.704483 0.609238
vn -0.108871 -0.951375 0.288153
vn 0.760668 -0.0446343 -0.647605
vn -0.334234 -0.43673 0.835197
vn -0.243848 -0.135928 0.96024
vn -0.00286935 -0.28201 0.959407
vn 0.827463 0.165716 -0.536511
vn 0.533419 0.462805 -0.708008
vn -0.271329 0.372993 0.887275
vn -0.0364914 0.532644 0.845552
vn -0.0552187 0.2078 0.976612
vn 0.482891 0.796768 -0.363285
vn 0.42421 0.756141 -0.498293
vn -0.0760194 0.978625 0.191087
vn 0.0452305 0.996874 0.0647772
vn -0.084801 0.847476 0.524017
vn 0.105775 0.722182 0.683567
vn 0.0479116 0.916471 0.397222
vn 0.618334 -0.731695 -0.286855
vn -0.00584701 -0.58552 0.810637
vn 0.0293034 -0.839604 0.542409
vn 0.313067 -0.940619 0.131244
vn 0.387919 -0.723692 0.570779
vn 0.691121 -0.702343 0.170492
vn 0.643133 -0.511112 0.570215
vn 0.794032 -0.277418 -0.540882
vn 0.382794 -0.330054 0.862863
vn 0.573553 0.0193699 0.818939
vn 0.76764 -0.188628 0.612494
vn 0.189178 -0.0528615 0.980519
vn 0.650071 0.236463 -0.722145
vn 0.728004 0.458687 -0.509526
vn 0.618673 0.370282 0.692918
vn 0.846947 0.449791 0.283494
vn 0.915427 0.393155 -0.0861538
vn 0.251447 0.484632 0.837798
vn 0.322727 0.196673 0.925833
vn 0.299541 0.932593 -0.20136
vn 0.436196 0.703312 -0.561325
vn 0.605333 0.747001 -0.274886
vn 0.824463 0.508032 -0.249329
vn 0.304059 0.841511 0.446551
vn 0.233183 0.961677 0.144232
vn 0.510746 0.851374 0.119591
vn 0.50663 0.68884 0.518484
vn 0.741757 0.667217 0.0679492
vn 0.974198 -0.0885466 -0.2076
vn 0.909147 -0.40993 -0.0735487
vn 0.866999 -0.392514 0.306995
vn 0.977129 -0.0934557 0.19101
vn 0.895259 0.17485 -0.409804
vn 0.887691 0.12067 0.444345
vn 0.982957 0.183838 0.000189936
vn -0.234684 0.759145 0.607143
vn -0.687622 0.223707 0.690747
vn 0.425779 0.360373 -0.829966
vn 0.827302 -0.200383 -0.524804
vn 0.425779 0.360373 -0.829966
vn 0.805251 -0.131871 -0.578083
vn 0.854432 -0.0339967 -0.518449
vn 0.453495 0.790758 -0.411151
vn 0.578187 0.659045 -0.480999
g grp1
usemtl mtl1
f 2//2 1//1 11//11 
f 3//3 1//1 4//4 
f 1//1 2//2 4//4 
f 3//3 20//20 1//1 
f 20//20 3//3 23//23 
f 6//6 23//23 3//3 
f 20//20 12//12 1//1 
f 8//8 6//6 4//4 
f 2//2 5//5 4//4 
f 5//5 8//8 4//4 
f 5//5 2//2 16//16 
f 6//6 3//3 4//4 
f 26//26 6//6 7//7 
f 26//26 23//23 6//6 
f 8//8 7//7 6//6 
f 7//7 8//8 24//24 
f 30//30 28//28 9//9 
f 28//28 15//15 9//9 
f 9//9 15//15 14//14 
f 46//46 29//29 10//10 
f 11//11 1//1 13//13 
f 9//9 11//11 13//13 
f 12//12 13//13 1//1 
f 10//10 13//13 12//12 
f 10//10 12//12 19//19 
f 14//14 11//11 9//9 
f 13//13 10//10 29//29 
f 13//13 29//29 9//9 
f 9//9 29//29 30//30 
f 11//11 14//14 2//2 
f 16//16 2//2 14//14 
f 14//14 15//15 16//16 
f 17//17 16//16 15//15 
f 17//17 15//15 31//31 
f 21//21 16//16 17//17 
f 16//16 21//21 5//5 
f 21//21 17//17 36//36 
f 20//20 18//18 19//19 
f 23//23 18//18 20//20 
f 18//18 22//22 34//34 
f 19//19 12//12 20//20 
f 23//23 22//22 18//18 
f 23//23 26//26 22//22 
f 51//51 22//22 26//26 
f 5//5 24//24 8//8 
f 24//24 5//5 21//21 
f 25//25 24//24 21//21 
f 7//7 121//121 27//27 
f 121//121 7//7 24//24 
f 41//41 25//25 21//21 
f 43//43 27//27 121//121 
f 26//26 7//7 27//27 
f 15//15 28//28 31//31 
f 30//30 45//45 28//28 
f 28//28 45//45 31//31 
f 46//46 10//10 34//34 
f 29//29 46//46 30//30 
f 47//47 31//31 45//45 
f 31//31 47//47 32//32 
f 31//31 32//32 17//17 
f 36//36 17//17 33//33 
f 17//17 32//32 33//33 
f 50//50 47//47 48//48 
f 50//50 32//32 47//47 
f 33//33 32//32 50//50 
f 19//19 18//18 34//34 
f 10//10 19//19 34//34 
f 21//21 36//36 35//35 
f 35//35 40//40 21//21 
f 38//38 122//122 35//35 
f 33//33 37//37 36//36 
f 35//35 36//36 37//37 
f 38//38 35//35 37//37 
f 38//38 39//39 122//122 
f 38//38 37//37 39//39 
f 22//22 51//51 34//34 
f 122//122 41//41 21//21 
f 121//121 41//41 43//43 
f 41//41 122//122 42//42 
f 43//43 41//41 44//44 
f 42//42 44//44 41//41 
f 52//52 42//42 122//122 
f 54//54 51//51 26//26 
f 54//54 26//26 27//27 
f 54//54 27//27 43//43 
f 54//54 43//43 44//44 
f 56//56 49//49 30//30 
f 49//49 45//45 30//30 
f 49//49 48//48 45//45 
f 30//30 46//46 56//56 
f 46//46 34//34 57//57 
f 46//46 57//57 56//56 
f 47//47 45//45 48//48 
f 50//50 58//58 33//33 
f 48//48 58//58 50//50 
f 33//33 58//58 37//37 
f 58//58 39//39 37//37 
f 39//39 58//58 53//53 
f 51//51 57//57 34//34 
f 123//123 59//59 125//125 
f 52//52 122//122 39//39 
f 39//39 53//53 52//52 
f 42//42 52//52 44//44 
f 53//53 60//60 52//52 
f 54//54 44//44 55//55 
f 44//44 52//52 55//55 
f 55//55 52//52 64//64 
f 56//56 66//66 67//67 
f 70//70 66//66 124//124 
f 56//56 67//67 49//49 
f 49//49 67//67 48//48 
f 126//126 127//127 124//124 
f 53//53 61//61 60//60 
f 58//58 61//61 53//53 
f 52//52 60//60 64//64 
f 64//64 60//60 62//62 
f 60//60 61//61 76//76 
f 60//60 76//76 62//62 
f 61//61 78//78 76//76 
f 128//128 51//51 54//54 
f 54//54 63//63 79//79 
f 54//54 81//81 63//63 
f 79//79 63//63 80//80 
f 55//55 64//64 65//65 
f 81//81 54//54 55//55 
f 81//81 55//55 65//65 
f 63//63 81//81 82//82 
f 64//64 62//62 65//65 
f 48//48 67//67 69//69 
f 58//58 48//48 68//68 
f 69//69 68//68 48//48 
f 87//87 71//71 68//68 
f 73//73 71//71 87//87 
f 69//69 88//88 68//68 
f 87//87 68//68 88//88 
f 94//94 73//73 87//87 
f 70//70 124//124 127//127 
f 58//58 68//68 71//71 
f 61//61 58//58 72//72 
f 72//72 58//58 71//71 
f 73//73 72//72 71//71 
f 97//97 72//72 73//73 
f 127//127 74//74 70//70 
f 70//70 74//74 75//75 
f 80//80 75//75 129//129 
f 70//70 75//75 98//98 
f 75//75 106//106 98//98 
f 93//93 70//70 98//98 
f 78//78 61//61 72//72 
f 76//76 78//78 77//77 
f 77//77 62//62 76//76 
f 84//84 62//62 77//77 
f 103//103 84//84 77//77 
f 72//72 97//97 78//78 
f 104//104 78//78 97//97 
f 103//103 77//77 78//78 
f 79//79 129//129 128//128 
f 54//54 79//79 128//128 
f 80//80 129//129 79//79 
f 80//80 106//106 75//75 
f 81//81 65//65 83//83 
f 65//65 62//62 83//83 
f 84//84 83//83 62//62 
f 81//81 85//85 82//82 
f 81//81 83//83 85//85 
f 85//85 83//83 84//84 
f 67//67 89//89 69//69 
f 89//89 67//67 86//86 
f 66//66 86//86 67//67 
f 89//89 86//86 91//91 
f 86//86 66//66 93//93 
f 86//86 93//93 115//115 
f 89//89 88//88 69//69 
f 89//89 90//90 88//88 
f 90//90 87//87 88//88 
f 94//94 87//87 90//90 
f 89//89 91//91 90//90 
f 91//91 92//92 90//90 
f 92//92 94//94 90//90 
f 91//91 116//116 92//92 
f 70//70 93//93 66//66 
f 98//98 118//118 93//93 
f 93//93 118//118 114//114 
f 96//96 94//94 92//92 
f 95//95 94//94 96//96 
f 96//96 92//92 116//116 
f 119//119 95//95 96//96 
f 94//94 97//97 73//73 
f 95//95 97//97 94//94 
f 95//95 104//104 97//97 
f 98//98 106//106 99//99 
f 99//99 118//118 98//98 
f 99//99 108//108 118//118 
f 108//108 102//102 118//118 
f 100//100 112//112 103//103 
f 95//95 119//119 100//100 
f 119//119 101//101 100//100 
f 112//112 100//100 101//101 
f 101//101 113//113 112//112 
f 101//101 119//119 120//120 
f 113//113 101//101 102//102 
f 113//113 102//102 108//108 
f 104//104 103//103 78//78 
f 100//100 104//104 95//95 
f 104//104 100//100 103//103 
f 105//105 63//63 82//82 
f 63//63 106//106 80//80 
f 106//106 63//63 105//105 
f 99//99 106//106 107//107 
f 107//107 106//106 105//105 
f 107//107 111//111 113//113 
f 105//105 111//111 107//107 
f 99//99 107//107 108//108 
f 112//112 84//84 103//103 
f 84//84 109//109 85//85 
f 105//105 82//82 110//110 
f 110//110 82//82 85//85 
f 109//109 110//110 85//85 
f 109//109 111//111 110//110 
f 112//112 109//109 84//84 
f 112//112 111//111 109//109 
f 110//110 111//111 105//105 
f 111//111 112//112 113//113 
f 113//113 108//108 107//107 
f 91//91 86//86 115//115 
f 93//93 114//114 115//115 
f 116//116 91//91 115//115 
f 117//117 116//116 115//115 
f 117//117 119//119 96//96 
f 117//117 115//115 114//114 
f 116//116 117//117 96//96 
f 120//120 119//119 117//117 
f 118//118 102//102 120//120 
f 120//120 102//102 101//101 
f 114//114 120//120 117//117 
f 120//120 114//114 118//118 
