#
# The license for this database is specified in the Creative Commons Attribution-Share Alike 2.1 Japan. If you use data from this database, please be sure attribute this database as follows: "BodyParts3D, (c)  The Database Center for Life Science licensed under CC Attribution-Share Alike 2.1 Japan".
# http://dbarchive.biosciencedbc.jp/en/bodyparts3d/lic.html
#
#
# Compatibility version : 4.0
# File ID : FJ2618
# Representation ID : BP9681
# Build-up logic : FMA 3.0 part_of
# Concept ID : FMA16983
# English name : Distal part of jejunum
# Bounds(mm): (-49.876000,-178.290000,960.939000)-(-9.605400,-153.845000,1000.700000)
# Volume(cm3): 15.023800
#
v -47.5672 -169.338 985.528
v -48.5802 -163.511 985.496
v -49.5361 -167.216 991.254
v -48.9037 -166.196 994.554
v -49.876 -162.71 989.577
v -48.6076 -159.748 987.921
v -47.0258 -159.34 985.407
v -48.4834 -159.768 993.792
v -44.8072 -172.37 985.122
v -46.6476 -172.201 990.185
v -45.5145 -171.951 993.996
v -42.8978 -174.61 990.104
v -44.3486 -168.105 981.53
v -43.6192 -167.55 999.263
v -44.3771 -162.852 999.8
v -44.2606 -159.221 998.822
v -41.033 -163.374 1000.7
v -41.1158 -159.456 999.737
v -42.6244 -155.438 986.482
v -45.6714 -155.746 990.388
v -39.706 -153.845 991.675
v -43.4577 -156.002 996.005
v -39.0237 -175.563 987.04
v -38.3615 -173.329 981.246
v -39.4005 -172.661 996.588
v -35.425 -170.527 997.586
v -41.2604 -161.613 979.519
v -36.5742 -162.561 999.666
v -36.9842 -156.121 995.895
v -33.9911 -175.415 990.815
v -31.6185 -171.221 975.851
v -32.8955 -170.994 977.177
v -31.7817 -172.419 994.424
v -32.8383 -167.995 970.031
v -34.936 -164.981 976.31
v -34.1304 -167.949 976.317
v -33.4562 -165.04 975.332
v -32.8108 -168.833 975.231
v -32.1759 -165.348 997.138
v -31.6414 -169.455 996.05
v -30.4468 -165.309 996.32
v -29.783 -168.952 995.727
v -33.6099 -162.025 976.312
v -32.3801 -161.158 975.01
v -31.7887 -159.877 976.306
v -33.0031 -159.131 977.704
v -31.88 -158.677 994.799
v -31.9769 -163.5 996.82
v -30.3155 -162.948 996.04
v -32.1762 -154.526 989.637
v -26.3401 -176.271 980.461
v -29.5543 -174.282 969.782
v -29.7957 -170.474 964.697
v -26.2394 -174.783 965.564
v -30.3779 -173.222 977.986
v -29.1462 -173.757 976.848
v -24.47 -172.245 993.987
v -29.1088 -165.335 962.918
v -26.4399 -169.117 961.831
v -26.2824 -165.26 961.228
v -27.4448 -161.618 962.59
v -30.1468 -158.979 967.729
v -24.7499 -164.356 995.505
v -26.1631 -157.649 964.716
v -25.107 -155.708 967.145
v -28.5896 -156.278 973.989
v -28.7975 -157.568 977.26
v -29.2057 -157.772 977.974
v -24.7654 -177.538 972.427
v -24.3173 -177.006 978.616
v -20.0821 -178.042 983.039
v -21.6597 -177.087 987.568
v -23.5939 -171.481 962.381
v -22.5717 -165.028 960.939
v -17.063 -170.22 992.61
v -25.0436 -161.023 961.945
v -20.5606 -160.05 962.683
v -17.5166 -161.732 991.78
v -22.5193 -157.301 964.424
v -21.1938 -155.608 967.581
v -19 -157.254 966.558
v -22.8165 -154.442 972.1
v -24.1301 -154.765 981.458
v -22.2691 -154.831 979.031
v -20.2824 -154.826 983.639
v -20.2497 -156.607 988.913
v -19.461 -176.656 968.001
v -17.628 -178.29 978.446
v -15.9785 -176.9 985.083
v -18.0135 -171.782 963.931
v -15.0902 -174.101 968.311
v -16.3389 -174.247 989.798
v -12.7021 -172.877 986.911
v -18.9589 -168.069 962.079
v -16.2455 -166.884 963.616
v -13.2738 -169.108 967.896
v -12.7971 -168.365 989.347
v -17.8741 -163.778 962.534
v -17.1911 -161.378 964.096
v -15.553 -163.885 964.837
v -12.0222 -159.703 979.173
v -12.6106 -160.361 973.948
v -11.5867 -164.658 986.551
v -15.4592 -156.527 976.81
v -14.9668 -157.826 985.159
v -11.0861 -171.77 973.489
v -12.2523 -175.187 978.462
v -10.1104 -171.502 978.804
v -9.92238 -167.92 975.503
v -9.6054 -167.826 978.992
v -10.6638 -169.314 984.627
v -11.1603 -164.234 973.241
v -10.2591 -163.508 978.548
v -44.2606 -159.221 998.822
v -32.8108 -168.833 975.231
v -29.2057 -157.772 977.974
v -22.2691 -154.831 979.031
vn -0.824536 -0.396762 -0.403385
vn -0.852518 0.0494778 -0.520352
vn -0.94514 -0.325989 0.0210314
vn -0.864979 -0.164713 0.474005
vn -0.993375 0.111249 -0.0287983
vn -0.863016 0.452792 -0.224014
vn -0.652512 0.540796 -0.530818
vn -0.844003 0.408035 0.34809
vn -0.545136 -0.731596 -0.409382
vn -0.725513 -0.688129 -0.0104699
vn -0.601237 -0.669826 0.435715
vn -0.3425 -0.930824 0.12752
vn -0.548929 -0.267139 -0.792031
vn -0.338705 -0.401569 0.850894
vn -0.528881 0.0811445 0.844808
vn -0.723606 0.397511 0.564251
vn -0.000557114 -0.0538289 0.99855
vn -0.0142519 0.463146 0.886168
vn -0.30991 0.828616 -0.46621
vn -0.583203 0.810034 -0.0609847
vn -0.0682205 0.98982 0.124905
vn -0.31246 0.807113 0.500936
vn -0.216996 -0.97049 -0.105178
vn -0.349623 -0.706559 -0.615255
vn -0.100321 -0.778402 0.619698
vn 0.257066 -0.443889 0.858417
vn -0.482161 0.32828 -0.812252
vn 0.400959 0.183482 0.897534
vn 0.253349 0.733625 0.630562
vn 0.0245885 -0.888292 0.45862
vn -0.752124 -0.6176 -0.229959
vn -0.526362 -0.534492 -0.661257
vn 0.194891 -0.597889 0.777525
vn -0.955094 -0.178587 -0.236437
vn -0.481974 0.0167971 -0.876025
vn -0.576937 -0.248838 -0.777961
vn -0.839272 0.0705916 -0.53911
vn -0.947151 -0.317451 -0.0461485
vn 0.445272 -0.0692167 0.892716
vn 0.357442 -0.285873 0.889108
vn 0.29385 -0.0212869 0.955615
vn 0.183844 -0.260692 0.947756
vn -0.573393 0.370224 -0.730859
vn -0.840475 0.459057 -0.287867
vn -0.635618 0.71155 -0.299476
vn -0.340882 0.637493 -0.690943
vn 0.336843 0.514316 0.78868
vn 0.445637 0.194781 0.873766
vn 0.251032 0.226648 0.94107
vn 0.197438 0.922565 0.3315
vn -0.336594 -0.905013 -0.260108
vn -0.725653 -0.67178 -0.148794
vn -0.720994 -0.382392 -0.577879
vn -0.337322 -0.740819 -0.580862
vn -0.454813 -0.763547 -0.458412
vn -0.601273 -0.796092 -0.0686201
vn 0.155709 -0.537546 0.828733
vn -0.725919 0.0455971 -0.686267
vn -0.328001 -0.299143 -0.896063
vn -0.306782 0.0675867 -0.949377
vn -0.529839 0.361371 -0.767256
vn -0.803718 0.47925 -0.352643
vn 0.234336 0.0767728 0.969119
vn -0.362455 0.668632 -0.649274
vn -0.262383 0.900062 -0.347913
vn -0.573716 0.819006 0.00890963
vn -0.510061 0.859579 0.0310009
vn -0.210892 0.798814 -0.563401
vn -0.324253 -0.943626 -0.066557
vn -0.434666 -0.900417 0.0177311
vn -0.0981949 -0.992348 0.0748513
vn 0.0682808 -0.913573 0.400901
vn 0.0474874 -0.476946 -0.877649
vn 0.0927645 0.0189219 -0.995508
vn 0.496825 -0.203522 0.843649
vn -0.127821 0.413738 -0.901378
vn 0.299741 0.470015 -0.830206
vn 0.523973 0.38517 0.759669
vn 0.0874375 0.737355 -0.669822
vn 0.250378 0.906972 -0.338693
vn 0.531463 0.706489 -0.467354
vn -0.00259901 0.997373 -0.0723899
vn -0.136199 0.980126 -0.14423
vn -0.362654 0.911733 0.192939
vn 0.224201 0.969072 0.103115
vn 0.330355 0.781166 0.52976
vn 0.234181 -0.85706 -0.45892
vn 0.231018 -0.972325 -0.0348547
vn 0.413147 -0.866912 0.27888
vn 0.485572 -0.445148 -0.752372
vn 0.664652 -0.580652 -0.470192
vn 0.404408 -0.658077 0.635129
vn 0.777948 -0.466955 0.420416
vn 0.352736 -0.182772 -0.917699
vn 0.677516 -0.0873339 -0.730305
vn 0.844007 -0.117952 -0.523201
vn 0.780171 -0.037556 0.624438
vn 0.506878 0.164704 -0.846136
vn 0.660638 0.449698 -0.601107
vn 0.805172 0.223637 -0.549258
vn 0.82673 0.560585 0.0475518
vn 0.80629 0.512268 -0.295766
vn 0.889003 0.275125 0.366033
vn 0.492967 0.865785 -0.086021
vn 0.629845 0.70576 0.324343
vn 0.884333 -0.359522 -0.297823
vn 0.688498 -0.722921 -0.057939
vn 0.948368 -0.31586 0.0288177
vn 0.973694 -0.00139132 -0.227857
vn 0.996884 0.0280704 0.0737131
vn 0.948016 -0.125569 0.292401
vn 0.911165 0.231337 -0.340971
vn 0.955758 0.290923 -0.0434835
vn -0.211864 0.479334 0.851676
vn -0.703554 -0.346545 -0.620417
vn -0.540705 0.838342 -0.0694365
vn 0.0451312 0.995293 -0.0857562
g grp1
usemtl mtl1
f 1//1 10//10 3//3 
f 3//3 11//11 4//4 
f 11//11 14//14 4//4 
f 3//3 5//5 2//2 
f 2//2 1//1 3//3 
f 3//3 4//4 5//5 
f 5//5 4//4 8//8 
f 7//7 27//27 2//2 
f 2//2 5//5 6//6 
f 6//6 7//7 2//2 
f 7//7 6//6 20//20 
f 8//8 6//6 5//5 
f 6//6 8//8 20//20 
f 8//8 22//22 20//20 
f 8//8 16//16 22//22 
f 10//10 12//12 11//11 
f 1//1 9//9 10//10 
f 9//9 12//12 10//10 
f 23//23 12//12 9//9 
f 23//23 9//9 24//24 
f 3//3 10//10 11//11 
f 12//12 25//25 11//11 
f 25//25 14//14 11//11 
f 13//13 2//2 27//27 
f 1//1 2//2 13//13 
f 9//9 1//1 13//13 
f 8//8 4//4 15//15 
f 14//14 15//15 4//4 
f 14//14 25//25 26//26 
f 17//17 15//15 14//14 
f 26//26 17//17 14//14 
f 26//26 28//28 17//17 
f 7//7 19//19 27//27 
f 19//19 7//7 20//20 
f 16//16 8//8 15//15 
f 22//22 114//114 18//18 
f 114//114 15//15 18//18 
f 17//17 18//18 15//15 
f 28//28 18//18 17//17 
f 20//20 22//22 21//21 
f 22//22 29//29 21//21 
f 20//20 21//21 19//19 
f 18//18 29//29 22//22 
f 23//23 24//24 51//51 
f 12//12 30//30 25//25 
f 30//30 12//12 23//23 
f 24//24 9//9 13//13 
f 30//30 26//26 25//25 
f 30//30 33//33 26//26 
f 26//26 33//33 40//40 
f 26//26 40//40 39//39 
f 35//35 27//27 43//43 
f 13//13 27//27 35//35 
f 28//28 26//26 39//39 
f 43//43 27//27 46//46 
f 27//27 19//19 46//46 
f 18//18 28//28 29//29 
f 28//28 47//47 29//29 
f 48//48 47//47 28//28 
f 19//19 21//21 83//83 
f 50//50 21//21 29//29 
f 83//83 21//21 50//50 
f 47//47 50//50 29//29 
f 58//58 53//53 34//34 
f 13//13 36//36 32//32 
f 34//34 31//31 38//38 
f 32//32 115//115 31//31 
f 32//32 24//24 13//13 
f 24//24 32//32 55//55 
f 55//55 32//32 31//31 
f 56//56 55//55 31//31 
f 30//30 57//57 33//33 
f 34//34 38//38 37//37 
f 37//37 62//62 34//34 
f 58//58 34//34 62//62 
f 36//36 13//13 35//35 
f 37//37 35//35 43//43 
f 36//36 35//35 37//37 
f 32//32 36//36 115//115 
f 37//37 115//115 36//36 
f 39//39 48//48 28//28 
f 40//40 41//41 39//39 
f 41//41 48//48 39//39 
f 41//41 49//49 48//48 
f 40//40 42//42 41//41 
f 33//33 42//42 40//40 
f 65//65 64//64 62//62 
f 37//37 44//44 62//62 
f 43//43 44//44 37//37 
f 45//45 44//44 43//43 
f 45//45 43//43 46//46 
f 44//44 66//66 62//62 
f 45//45 66//66 44//44 
f 45//45 67//67 66//66 
f 19//19 68//68 46//46 
f 45//45 46//46 68//68 
f 47//47 48//48 49//49 
f 63//63 49//49 41//41 
f 63//63 47//47 49//49 
f 65//65 62//62 66//66 
f 85//85 83//83 50//50 
f 52//52 69//69 56//56 
f 69//69 70//70 56//56 
f 51//51 70//70 71//71 
f 51//51 71//71 23//23 
f 53//53 58//58 59//59 
f 53//53 59//59 54//54 
f 34//34 53//53 52//52 
f 34//34 52//52 31//31 
f 52//52 53//53 54//54 
f 52//52 54//54 69//69 
f 52//52 56//56 31//31 
f 56//56 51//51 55//55 
f 55//55 51//51 24//24 
f 51//51 56//56 70//70 
f 57//57 30//30 72//72 
f 57//57 42//42 33//33 
f 59//59 58//58 60//60 
f 74//74 59//59 60//60 
f 57//57 63//63 42//42 
f 63//63 41//41 42//42 
f 62//62 64//64 61//61 
f 60//60 58//58 61//61 
f 61//61 76//76 60//60 
f 61//61 64//64 76//76 
f 58//58 62//62 61//61 
f 116//116 67//67 45//45 
f 50//50 47//47 86//86 
f 78//78 47//47 63//63 
f 79//79 64//64 65//65 
f 79//79 65//65 80//80 
f 66//66 67//67 84//84 
f 82//82 65//65 66//66 
f 82//82 66//66 84//84 
f 67//67 116//116 83//83 
f 83//83 68//68 19//19 
f 117//117 67//67 83//83 
f 85//85 50//50 86//86 
f 69//69 88//88 71//71 
f 87//87 88//88 69//69 
f 69//69 71//71 70//70 
f 23//23 72//72 30//30 
f 23//23 71//71 72//72 
f 87//87 54//54 73//73 
f 73//73 54//54 59//59 
f 90//90 87//87 73//73 
f 90//90 73//73 94//94 
f 69//69 54//54 87//87 
f 90//90 91//91 87//87 
f 92//92 57//57 72//72 
f 75//75 57//57 92//92 
f 57//57 75//75 63//63 
f 73//73 59//59 74//74 
f 94//94 73//73 74//74 
f 63//63 75//75 78//78 
f 74//74 60//60 76//76 
f 64//64 79//79 76//76 
f 94//94 74//74 98//98 
f 74//74 77//77 98//98 
f 76//76 77//77 74//74 
f 77//77 76//76 79//79 
f 77//77 99//99 98//98 
f 99//99 77//77 81//81 
f 105//105 86//86 78//78 
f 47//47 78//78 86//86 
f 80//80 65//65 82//82 
f 79//79 81//81 77//77 
f 80//80 81//81 79//79 
f 85//85 117//117 83//83 
f 80//80 82//82 104//104 
f 82//82 117//117 104//104 
f 117//117 85//85 104//104 
f 86//86 105//105 85//85 
f 85//85 105//105 104//104 
f 107//107 88//88 87//87 
f 89//89 71//71 88//88 
f 89//89 72//72 71//71 
f 87//87 91//91 107//107 
f 88//88 107//107 89//89 
f 107//107 93//93 89//89 
f 89//89 92//92 72//72 
f 92//92 93//93 75//75 
f 75//75 93//93 97//97 
f 92//92 89//89 93//93 
f 97//97 93//93 111//111 
f 94//94 98//98 95//95 
f 94//94 95//95 90//90 
f 90//90 95//95 96//96 
f 98//98 100//100 95//95 
f 95//95 100//100 96//96 
f 91//91 90//90 96//96 
f 103//103 97//97 111//111 
f 97//97 103//103 78//78 
f 99//99 81//81 102//102 
f 99//99 100//100 98//98 
f 100//100 99//99 102//102 
f 100//100 112//112 96//96 
f 100//100 102//102 112//112 
f 112//112 102//102 113//113 
f 101//101 103//103 113//113 
f 105//105 103//103 101//101 
f 97//97 78//78 75//75 
f 78//78 103//103 105//105 
f 104//104 105//105 101//101 
f 104//104 81//81 80//80 
f 102//102 81//81 104//104 
f 102//102 104//104 101//101 
f 107//107 91//91 106//106 
f 91//91 96//96 106//106 
f 108//108 107//107 106//106 
f 107//107 108//108 93//93 
f 93//93 108//108 111//111 
f 109//109 96//96 112//112 
f 108//108 106//106 109//109 
f 108//108 109//109 110//110 
f 96//96 109//109 106//106 
f 103//103 111//111 110//110 
f 108//108 110//110 111//111 
f 101//101 113//113 102//102 
f 109//109 112//112 113//113 
f 109//109 113//113 110//110 
f 103//103 110//110 113//113 
