#
# The license for this database is specified in the Creative Commons Attribution-Share Alike 2.1 Japan. If you use data from this database, please be sure attribute this database as follows: "BodyParts3D, (c)  The Database Center for Life Science licensed under CC Attribution-Share Alike 2.1 Japan".
# http://dbarchive.biosciencedbc.jp/en/bodyparts3d/lic.html
#
#
# Compatibility version : 4.0
# File ID : FJ2614
# Representation ID : BP9681
# Build-up logic : FMA 3.0 part_of
# Concept ID : FMA16983
# English name : Distal part of jejunum
# Bounds(mm): (-31.986300,-182.963000,931.550000)-(9.459000,-157.803000,963.520000)
# Volume(cm3): 13.548000
#
v -31.1028 -174.987 942.043
v -30.696 -169.698 936.689
v -31.9863 -170.701 941.716
v -31.6974 -169.316 946.274
v -30.3799 -173.868 948.351
v -29.6008 -170.038 950.829
v -30.7742 -164.94 941.325
v -29.6395 -164.376 947.715
v -26.4776 -181.266 939.852
v -25.4982 -181.828 942.698
v -24.7553 -181.064 946.462
v -27.3926 -179.803 937.599
v -29.0646 -178.258 944.577
v -29.2392 -178.456 940.149
v -27.6685 -180.374 942.2
v -26.6942 -180.509 945.045
v -27.349 -177.761 949.39
v -24.6954 -177.024 953.222
v -29.965 -174.589 936.668
v -28.2863 -174.597 951.332
v -25.405 -172.669 954.789
v -29.2194 -163.564 937.867
v -27.5846 -165.763 934.187
v -27.1551 -166.22 952.466
v -24.151 -168.081 955.371
v -23.1392 -163.528 953.698
v -25.6555 -161.488 936.134
v -28.6157 -161.902 945.264
v -27.596 -160.977 940.138
v -26.3579 -159.948 943.583
v -24.6712 -159.133 944.266
v -24.3706 -159.163 940.439
v -27.2519 -161.987 948.456
v -25.9122 -160.158 946.591
v -22.5206 -160.003 949.76
v -25.0555 -181.611 938.045
v -21.0126 -182.059 937.041
v -22.045 -182.963 941.637
v -24.0693 -178.426 933.849
v -23.3827 -179.696 950.889
v -19.5628 -175.856 957.512
v -25.407 -170.465 932.251
v -20.7177 -172.125 931.55
v -21.4359 -165.452 932.032
v -18.9846 -160.496 935.94
v -20.67 -158.393 944.197
v -21.7579 -158.93 947.732
v -18.6554 -182.793 941.424
v -14.6659 -181.471 947.685
v -18.008 -180.115 935.876
v -16.4719 -181.219 951.821
v -16.7615 -178.749 956.533
v -12.9976 -176.282 959.794
v -14.4468 -172.463 933.515
v -15.5477 -172.696 959.887
v -14.5496 -166.498 933.303
v -13.1442 -159.146 944.46
v -12.1165 -178.561 942.816
v -9.59172 -177.983 944.317
v -10.2659 -175.488 941.458
v -9.69497 -172.115 940.04
v -8.60519 -175.476 942.73
v -8.12353 -171.971 941.332
v -10.2495 -165.367 939.338
v -10.1056 -167.572 938.854
v -8.95241 -167.856 940.22
v -7.72597 -165.43 941.171
v -10.6105 -163.573 940.185
v -8.83601 -159.526 958.331
v -7.73276 -162.14 960.808
v -7.51619 -157.805 955.111
v -0.385262 -181.054 956.515
v -0.324062 -179.793 959.635
v -1.08458 -166.728 963.318
v -1.92556 -162.222 945.201
v 0.430323 -159.87 948.907
v -3.30286 -159.189 959.602
v 1.87092 -159.417 959.163
v 0.496997 -161.52 961.673
v -1.46749 -157.97 951.661
v 1.95434 -158.539 953.824
v -0.113968 -157.803 955.162
v 0.163885 -180.322 952.232
v 4.61129 -178.717 953.403
v 2.83563 -180.462 958.222
v 3.9885 -180.169 955.807
v 5.85278 -179.082 957.968
v 6.54618 -178.127 955.664
v 1.61219 -177.13 962.439
v 3.34091 -179.193 960.451
v 0.729772 -170.769 945.711
v 2.86349 -176.44 949.773
v 6.27032 -173.423 951.818
v 1.44486 -173.992 963.52
v 5.78499 -175.167 962.784
v 7.23172 -176.689 960.682
v 6.9264 -167.693 952.477
v 5.56058 -166.037 962.638
v 6.05067 -170.685 963.473
v 7.77632 -169.264 962.361
v 3.20633 -162.548 949.328
v 3.67202 -160.741 951.62
v 3.08175 -159.113 956.764
v 4.78666 -160.902 958.767
v 4.45248 -160.144 955.213
v 6.27912 -162.974 954.075
v 6.74211 -162.661 957.15
v 8.04193 -164.836 958.474
v 4.19036 -161.668 960.594
v 6.89835 -163.895 960.046
v 7.37083 -175.892 954.628
v 8.77349 -175.243 958.884
v 8.43452 -173.623 961.392
v 8.17666 -165.612 956.188
v 9.20669 -167.763 958.293
v 9.03249 -170.673 956.054
v 8.33576 -166.401 960.091
v 9.45901 -170.168 959.746
v -18.008 -180.115 935.876
v -14.4468 -172.463 933.515
vn -0.946235 -0.323289 0.0110766
vn -0.862147 0.0953047 -0.497613
vn -0.992358 -0.0313297 -0.119348
vn -0.974982 0.0530689 0.215857
vn -0.88048 -0.324202 0.345901
vn -0.799047 0.0462464 0.599487
vn -0.915292 0.397936 -0.0623459
vn -0.833361 0.42186 0.357131
vn -0.545759 -0.830346 -0.112573
vn -0.436003 -0.891169 0.125374
vn -0.361986 -0.873947 0.32432
vn -0.643393 -0.631046 -0.43339
vn -0.798213 -0.570628 0.192976
vn -0.819165 -0.560916 -0.119763
vn -0.67851 -0.731118 0.0713447
vn -0.587357 -0.76256 0.271135
vn -0.643837 -0.638263 0.422012
vn -0.533811 -0.554774 0.638178
vn -0.816834 -0.293717 -0.4965
vn -0.730259 -0.343435 0.590571
vn -0.589426 -0.142457 0.795162
vn -0.768001 0.502028 -0.39767
vn -0.562337 0.331919 -0.757369
vn -0.654149 0.378034 0.655117
vn -0.520094 0.201 0.830121
vn -0.458021 0.55976 0.690569
vn -0.386472 0.722035 -0.57385
vn -0.719 0.680756 0.140037
vn -0.640673 0.750742 -0.161013
vn -0.527543 0.848964 0.0309421
vn -0.322231 0.943386 0.0786734
vn -0.280833 0.939294 -0.197129
vn -0.587104 0.660914 0.467442
vn -0.47362 0.840661 0.262628
vn -0.363688 0.817493 0.446584
vn -0.351618 -0.855843 -0.379338
vn 0.028795 -0.88494 -0.464814
vn -0.169515 -0.985456 0.0118589
vn -0.266083 -0.512882 -0.816181
vn -0.393209 -0.795814 0.460507
vn -0.422814 -0.387542 0.81917
vn -0.436795 -0.0474111 -0.898311
vn 0.100538 -0.159964 -0.98199
vn -0.0814526 0.363394 -0.928068
vn 0.174662 0.82533 -0.536957
vn -0.0360107 0.994711 -0.0961969
vn -0.254679 0.939557 0.228847
vn 0.308896 -0.941252 -0.136483
vn 0.248519 -0.952902 -0.173828
vn 0.177352 -0.478791 -0.859829
vn -0.0941246 -0.95512 0.280868
vn -0.286499 -0.732716 0.617289
vn -0.238113 -0.453857 0.858671
vn 0.281519 -0.213975 -0.935394
vn -0.338051 -0.034836 0.940483
vn 0.543327 0.280735 -0.791191
vn 0.23905 0.852505 -0.464855
vn 0.570022 -0.703605 -0.424282
vn 0.400935 -0.703103 -0.58728
vn 0.591186 -0.513239 -0.622161
vn 0.68782 -0.267623 -0.674746
vn 0.496394 -0.460887 -0.735646
vn 0.546533 -0.246709 -0.800273
vn 0.690638 0.254873 -0.676801
vn 0.77821 0.0949594 -0.620783
vn 0.660871 -0.00537886 -0.75048
vn 0.529252 0.184451 -0.828173
vn 0.510379 0.555855 -0.656154
vn -0.288854 0.754648 0.589126
vn -0.280768 0.401642 0.871696
vn -0.119292 0.969393 0.214585
vn 0.0610513 -0.994643 0.0834155
vn -0.0912202 -0.822559 0.561316
vn -0.0798314 0.152562 0.985064
vn 0.467232 0.435489 -0.769443
vn 0.431236 0.736284 -0.521461
vn -0.0577878 0.815087 0.57645
vn 0.268885 0.83797 0.474877
vn 0.0690972 0.523868 0.848992
vn 0.155737 0.959621 -0.234252
vn 0.45547 0.869273 -0.192126
vn 0.160267 0.978852 0.127139
vn 0.292738 -0.854998 -0.428116
vn 0.576862 -0.650855 -0.493577
vn 0.214392 -0.938108 0.27201
vn 0.411112 -0.897848 -0.157658
vn 0.603417 -0.7813 0.159557
vn 0.73964 -0.628904 -0.23961
vn -0.0238938 -0.53511 0.844444
vn 0.248953 -0.757441 0.603578
vn 0.587364 -0.0876927 -0.804558
vn 0.534717 -0.496107 -0.684073
vn 0.775632 -0.168985 -0.608144
vn -0.0728526 -0.171584 0.982472
vn 0.329493 -0.389917 0.859883
vn 0.633943 -0.59193 0.497731
vn 0.826483 0.128623 -0.548071
vn 0.397428 0.359585 0.844245
vn 0.29993 0.00100746 0.953961
vn 0.697157 0.150568 0.700929
vn 0.70479 0.333833 -0.625961
vn 0.674074 0.625247 -0.393308
vn 0.472455 0.870565 0.137488
vn 0.621215 0.729777 0.285513
vn 0.695876 0.711514 -0.0974953
vn 0.827722 0.441979 -0.345732
vn 0.810283 0.585954 0.00999593
vn 0.881239 0.460529 0.106445
vn 0.432836 0.625848 0.64882
vn 0.712113 0.548966 0.437643
vn 0.817346 -0.355748 -0.453199
vn 0.92211 -0.386095 0.0253601
vn 0.761606 -0.213865 0.611733
vn 0.912061 0.323997 -0.251337
vn 0.969951 0.243113 -0.00950496
vn 0.947619 -0.0236209 -0.318529
vn 0.827844 0.355372 0.434034
vn 0.973208 0.0381253 0.226742
vn 0.574707 -0.715675 -0.396889
vn 0.76243 -0.265702 -0.590002
g grp1
usemtl mtl1
f 19//19 14//14 1//1 
f 13//13 5//5 1//1 
f 7//7 2//2 3//3 
f 22//22 2//2 7//7 
f 19//19 1//1 3//3 
f 2//2 42//42 19//19 
f 19//19 3//3 2//2 
f 3//3 4//4 7//7 
f 5//5 4//4 1//1 
f 1//1 4//4 3//3 
f 5//5 6//6 4//4 
f 5//5 20//20 6//6 
f 21//21 25//25 6//6 
f 23//23 2//2 22//22 
f 4//4 8//8 7//7 
f 4//4 6//6 8//8 
f 6//6 24//24 8//8 
f 36//36 9//9 12//12 
f 36//36 38//38 9//9 
f 9//9 10//10 15//15 
f 16//16 10//10 11//11 
f 10//10 38//38 11//11 
f 14//14 12//12 9//9 
f 14//14 19//19 12//12 
f 12//12 19//19 39//39 
f 12//12 39//39 36//36 
f 1//1 14//14 13//13 
f 16//16 17//17 13//13 
f 9//9 15//15 14//14 
f 14//14 15//15 13//13 
f 16//16 13//13 15//15 
f 10//10 16//16 15//15 
f 13//13 17//17 5//5 
f 5//5 17//17 20//20 
f 17//17 18//18 20//20 
f 11//11 17//17 16//16 
f 40//40 18//18 17//17 
f 51//51 40//40 11//11 
f 40//40 17//17 11//11 
f 18//18 21//21 20//20 
f 52//52 41//41 18//18 
f 21//21 18//18 41//41 
f 44//44 42//42 23//23 
f 42//42 39//39 19//19 
f 2//2 23//23 42//42 
f 20//20 21//21 6//6 
f 21//21 41//41 55//55 
f 21//21 55//55 25//25 
f 29//29 22//22 7//7 
f 23//23 22//22 27//27 
f 23//23 27//27 44//44 
f 7//7 8//8 28//28 
f 25//25 24//24 6//6 
f 26//26 24//24 25//25 
f 27//27 22//22 29//29 
f 32//32 27//27 29//29 
f 28//28 29//29 7//7 
f 29//29 28//28 30//30 
f 34//34 31//31 30//30 
f 29//29 30//30 32//32 
f 32//32 30//30 31//31 
f 31//31 34//34 47//47 
f 33//33 28//28 8//8 
f 8//8 24//24 33//33 
f 28//28 34//34 30//30 
f 34//34 28//28 33//33 
f 24//24 26//26 33//33 
f 33//33 26//26 35//35 
f 34//34 33//33 35//35 
f 36//36 37//37 38//38 
f 37//37 39//39 50//50 
f 119//119 48//48 37//37 
f 38//38 37//37 48//48 
f 9//9 38//38 10//10 
f 38//38 51//51 11//11 
f 38//38 48//48 51//51 
f 48//48 49//49 51//51 
f 43//43 50//50 39//39 
f 37//37 36//36 39//39 
f 52//52 18//18 40//40 
f 51//51 52//52 40//40 
f 55//55 41//41 53//53 
f 41//41 52//52 53//53 
f 39//39 42//42 43//43 
f 43//43 42//42 44//44 
f 27//27 32//32 45//45 
f 45//45 44//44 27//27 
f 46//46 45//45 32//32 
f 32//32 31//31 46//46 
f 31//31 47//47 46//46 
f 34//34 35//35 47//47 
f 48//48 58//58 49//49 
f 54//54 50//50 43//43 
f 48//48 119//119 58//58 
f 58//58 119//119 120//120 
f 60//60 58//58 120//120 
f 73//73 53//53 52//52 
f 52//52 51//51 73//73 
f 89//89 94//94 53//53 
f 73//73 89//89 53//53 
f 55//55 53//53 94//94 
f 43//43 44//44 56//56 
f 54//54 43//43 56//56 
f 44//44 45//45 56//56 
f 68//68 56//56 45//45 
f 45//45 46//46 57//57 
f 68//68 45//45 57//57 
f 70//70 26//26 25//25 
f 70//70 25//25 55//55 
f 47//47 35//35 71//71 
f 59//59 58//58 60//60 
f 60//60 62//62 59//59 
f 59//59 62//62 92//92 
f 58//58 59//59 49//49 
f 83//83 49//49 59//59 
f 72//72 73//73 51//51 
f 60//60 120//120 61//61 
f 60//60 61//61 62//62 
f 61//61 63//63 62//62 
f 120//120 66//66 61//61 
f 61//61 66//66 63//63 
f 91//91 63//63 66//66 
f 120//120 56//56 65//65 
f 66//66 120//120 65//65 
f 65//65 56//56 64//64 
f 64//64 56//56 68//68 
f 65//65 64//64 66//66 
f 64//64 67//67 66//66 
f 68//68 67//67 64//64 
f 91//91 66//66 67//67 
f 74//74 55//55 94//94 
f 26//26 69//69 35//35 
f 26//26 70//70 69//69 
f 35//35 69//69 71//71 
f 77//77 69//69 70//70 
f 69//69 77//77 71//71 
f 74//74 70//70 55//55 
f 46//46 47//47 71//71 
f 46//46 71//71 80//80 
f 57//57 46//46 80//80 
f 49//49 83//83 72//72 
f 72//72 51//51 49//49 
f 83//83 59//59 92//92 
f 85//85 73//73 72//72 
f 62//62 63//63 91//91 
f 62//62 91//91 92//92 
f 95//95 94//94 89//89 
f 75//75 91//91 67//67 
f 79//79 74//74 98//98 
f 68//68 75//75 67//67 
f 57//57 75//75 68//68 
f 75//75 57//57 76//76 
f 80//80 76//76 57//57 
f 79//79 77//77 70//70 
f 77//77 79//79 78//78 
f 79//79 109//109 78//78 
f 70//70 74//74 79//79 
f 76//76 80//80 81//81 
f 80//80 82//82 81//81 
f 81//81 102//102 76//76 
f 71//71 82//82 80//80 
f 82//82 71//71 77//77 
f 78//78 82//82 77//77 
f 81//81 82//82 103//103 
f 82//82 78//78 103//103 
f 92//92 84//84 83//83 
f 83//83 86//86 72//72 
f 84//84 86//86 83//83 
f 84//84 92//92 111//111 
f 88//88 84//84 111//111 
f 90//90 73//73 85//85 
f 86//86 85//85 72//72 
f 87//87 90//90 85//85 
f 85//85 86//86 87//87 
f 86//86 88//88 87//87 
f 86//86 84//84 88//88 
f 90//90 87//87 96//96 
f 87//87 88//88 112//112 
f 96//96 87//87 112//112 
f 112//112 88//88 111//111 
f 73//73 90//90 89//89 
f 95//95 90//90 96//96 
f 92//92 91//91 93//93 
f 111//111 92//92 93//93 
f 95//95 89//89 90//90 
f 99//99 94//94 95//95 
f 99//99 74//74 94//94 
f 95//95 96//96 113//113 
f 113//113 99//99 95//95 
f 101//101 97//97 91//91 
f 93//93 91//91 97//97 
f 101//101 106//106 97//97 
f 97//97 106//106 114//114 
f 99//99 98//98 74//74 
f 99//99 100//100 98//98 
f 100//100 117//117 98//98 
f 113//113 100//100 99//99 
f 118//118 117//117 100//100 
f 113//113 118//118 100//100 
f 91//91 75//75 101//101 
f 101//101 75//75 76//76 
f 102//102 81//81 105//105 
f 101//101 76//76 102//102 
f 106//106 101//101 102//102 
f 106//106 102//102 105//105 
f 105//105 81//81 103//103 
f 104//104 78//78 109//109 
f 110//110 104//104 109//109 
f 103//103 104//104 105//105 
f 78//78 104//104 103//103 
f 107//107 104//104 110//110 
f 106//106 107//107 114//114 
f 108//108 107//107 110//110 
f 107//107 106//106 105//105 
f 104//104 107//107 105//105 
f 107//107 108//108 114//114 
f 98//98 109//109 79//79 
f 98//98 110//110 109//109 
f 117//117 110//110 98//98 
f 93//93 116//116 111//111 
f 112//112 111//111 116//116 
f 116//116 118//118 112//112 
f 113//113 96//96 112//112 
f 113//113 112//112 118//118 
f 114//114 108//108 115//115 
f 110//110 117//117 108//108 
f 97//97 116//116 93//93 
f 97//97 114//114 116//116 
f 116//116 115//115 118//118 
f 118//118 115//115 117//117 
f 116//116 114//114 115//115 
f 115//115 108//108 117//117 
