#
# The license for this database is specified in the Creative Commons Attribution-Share Alike 2.1 Japan. If you use data from this database, please be sure attribute this database as follows: "BodyParts3D, (c)  The Database Center for Life Science licensed under CC Attribution-Share Alike 2.1 Japan".
# http://dbarchive.biosciencedbc.jp/en/bodyparts3d/lic.html
#
#
# Compatibility version : 4.0
# File ID : FJ2617
# Representation ID : BP9588
# Build-up logic : FMA 3.0 part_of
# Concept ID : FMA16981
# English name : Proximal part of jejunum
# Bounds(mm): (53.544500,-165.355000,988.836000)-(95.199900,-134.059000,1017.550000)
# Volume(cm3): 6.248400
#
v 59.9061 -164.335 993.944
v 54.4884 -160.903 995.562
v 55.9429 -161.786 993.881
v 59.1879 -162.274 990.952
v 55.1271 -161.477 999.912
v 54.2787 -160.974 997.806
v 54.4788 -159.977 1000.59
v 56.3017 -163.05 996.943
v 58.4005 -163.703 999.768
v 56.0426 -160.744 1002.11
v 58.9156 -161.515 1003.32
v 57.7968 -159.581 1004.12
v 56.9335 -158.199 1003.93
v 54.1921 -159.379 994.565
v 54.8721 -157.149 992.919
v 55.0001 -154.564 994.301
v 53.7089 -159.554 997.86
v 53.7536 -159.528 996.26
v 53.968 -158.458 999.904
v 53.5445 -157.888 997.048
v 53.7509 -157.715 995.367
v 54.1387 -155.319 996.868
v 54.5146 -155.383 999.744
v 55.2024 -158.475 1002.12
v 54.9196 -156.683 1001.46
v 62.1042 -163.817 991.706
v 64.511 -164.042 993.472
v 62.9569 -161.848 991.25
v 63.6906 -165.355 997.095
v 64.4326 -165.314 995.443
v 64.583 -164.885 998.627
v 65.5391 -165.188 996.977
v 66.1349 -164.818 996.764
v 66.1743 -164.769 997.607
v 65.8225 -163.594 999.901
v 66.8654 -163.944 997.811
v 67.0444 -163.246 996.587
v 63.5891 -162.204 1002.92
v 57.9447 -159.402 990.213
v 60.6974 -161.79 990.121
v 61.185 -159.178 1005.39
v 57.3422 -151.626 993.274
v 59.7239 -153.852 988.836
v 59.0406 -151.159 1005.46
v 61.7579 -154.477 1007.23
v 58.1892 -148.42 997.912
v 57.3298 -149.411 1000.44
v 58.5187 -149.239 1003.86
v 67.8801 -161.559 997.42
v 67.2952 -159.425 995.567
v 69.4966 -156.953 999.049
v 67.1451 -159.456 1003.7
v 68.9431 -158.486 1001.44
v 68.0584 -154.719 996.157
v 67.2496 -156.118 1006.98
v 69.7777 -156.157 1005.58
v 68.9837 -151.614 1010.19
v 63.4944 -150.505 992.766
v 63.421 -149.467 1008.2
v 60.502 -148.199 994.246
v 60.5172 -145.402 1002.12
v 62.2651 -146.095 1006.08
v 72.8745 -154.684 1004.11
v 72.7328 -151.94 999.201
v 72.5619 -154.416 1007.21
v 71.9585 -152.499 1010.12
v 63.2921 -144.182 998.224
v 65.8978 -143.575 997.068
v 66.2945 -141.69 1003.1
v 70.4741 -141.305 1008
v 79.306 -147.244 1015.03
v 80.9634 -148.749 1014.59
v 84.7123 -149.466 1006.67
v 85.9957 -147.253 1004.85
v 85.2117 -147.03 1017
v 86.3469 -148.356 1014.88
v 80.9 -144.564 1015.65
v 85.2961 -145.278 1017.55
v 85.158 -142.499 1016.46
v 81.3161 -138.213 1010.25
v 83.3105 -139.232 1013.39
v 92.9884 -145.2 1012.63
v 93.4819 -144.228 1010.08
v 89.6904 -147.194 1015.03
v 90.4165 -145.525 1017.46
v 90.0522 -144.729 1017.38
v 92.1432 -145.485 1015.73
v 91.8252 -144.609 1016.97
v 91.2223 -143.743 1016.72
v 93.415 -144.398 1015.36
v 89.9936 -140.109 1005.78
v 87.7368 -138.645 1014.46
v 88.2165 -143.272 1016.88
v 85.3729 -137.173 1005.34
v 83.6366 -136.687 1007.16
v 85.7554 -138.75 1014.53
v 85.7062 -136.256 1013.45
v 86.3486 -134.826 1011.71
v 94.7726 -143.342 1013
v 93.984 -141.982 1014.24
v 95.0661 -142.39 1011.43
v 95.1672 -142.337 1013
v 95.1999 -140.567 1011.33
v 95.0684 -140.632 1012.21
v 93.2557 -141.119 1008.04
v 91.7392 -138.433 1013.11
v 93.6699 -138.828 1012.33
v 91.7074 -135.956 1012.16
v 94.6214 -139.12 1011.39
v 94.3477 -138.494 1010.59
v 92.7609 -135.947 1010.59
v 92.2274 -135.585 1011.44
v 87.7133 -134.549 1010.19
v 88.1097 -134.644 1012.86
v 88.6748 -134.825 1009.33
v 89.4032 -134.92 1012.71
v 88.7971 -134.059 1012.16
v 90.6701 -135.6 1009.06
v 91.3334 -135.015 1010.63
v 62.1042 -163.817 991.706
v 60.6974 -161.79 990.121
v 59.7239 -153.852 988.836
v 59.7239 -153.852 988.836
v 59.7239 -153.852 988.836
v 63.4944 -150.505 992.766
v 60.502 -148.199 994.246
v 65.8978 -143.575 997.068
v 90.4165 -145.525 1017.46
v 91.8252 -144.609 1016.97
v 93.415 -144.398 1015.36
v 89.9936 -140.109 1005.78
v 95.1672 -142.337 1013
v 94.3477 -138.494 1010.59
v 92.7609 -135.947 1010.59
v 88.1097 -134.644 1012.86
vn -0.323556 -0.91832 -0.228034
vn -0.815524 -0.532536 -0.226551
vn -0.657863 -0.60627 -0.446824
vn -0.408925 -0.642305 -0.648247
vn -0.675612 -0.671953 0.30336
vn -0.853696 -0.517977 0.0538772
vn -0.862383 -0.330358 0.383614
vn -0.596841 -0.801345 -0.04033
vn -0.301178 -0.889701 0.343111
vn -0.607553 -0.50011 0.617065
vn -0.253373 -0.675929 0.692042
vn -0.428055 -0.371986 0.823647
vn -0.622015 -0.134693 0.771333
vn -0.853172 -0.263398 -0.450244
vn -0.816351 0.0682023 -0.573515
vn -0.843261 0.397318 -0.362006
vn -0.969197 -0.223158 0.104198
vn -0.959427 -0.246345 -0.137163
vn -0.947259 0.0149169 0.320121
vn -0.996831 0.0721893 0.0334215
vn -0.963166 0.0880042 -0.254099
vn -0.92756 0.370533 -0.0483578
vn -0.925849 0.281298 0.252341
vn -0.789572 -0.0645031 0.610259
vn -0.855084 0.169826 0.489888
vn -0.0735582 -0.845938 -0.528184
vn 0.636118 -0.48338 -0.601412
vn 0.598134 -0.150452 -0.787147
vn -0.0781011 -0.99099 0.108805
vn 0.195862 -0.938667 -0.283802
vn 0.138705 -0.89737 0.418913
vn 0.301137 -0.950779 0.0730529
vn 0.673498 -0.703491 -0.226936
vn 0.537601 -0.802101 0.260037
vn 0.471761 -0.720869 0.50773
vn 0.818578 -0.553975 0.151793
vn 0.851967 -0.367821 -0.372641
vn 0.136324 -0.745421 0.652505
vn -0.570069 -0.270932 -0.77564
vn -0.245943 -0.423426 -0.871907
vn -0.114745 -0.489845 0.864225
vn -0.681845 0.575826 -0.451122
vn -0.674004 0.355667 -0.647472
vn -0.679222 0.150865 0.71826
vn -0.356024 -0.214467 0.909534
vn -0.743796 0.638268 -0.198447
vn -0.857602 0.501551 0.113868
vn -0.80904 0.396743 0.433647
vn 0.932197 -0.30062 -0.201587
vn 0.785982 -0.101559 -0.609851
vn 0.855129 -0.365496 -0.367651
vn 0.55223 -0.658162 0.511728
vn 0.800687 -0.583196 0.137054
vn 0.691739 -0.13622 -0.709184
vn 0.12447 -0.649064 0.750482
vn 0.473476 -0.794503 0.380244
vn -0.232552 -0.399042 0.886953
vn 0.595284 -0.083497 -0.799165
vn -0.459913 0.0831373 0.884064
vn -0.53821 0.71387 -0.448018
vn -0.69396 0.709374 0.123318
vn -0.586145 0.518799 0.622319
vn 0.567601 -0.821446 -0.0552773
vn 0.60152 -0.503798 -0.619969
vn 0.279122 -0.881901 0.379922
vn 0.00228059 -0.723084 0.690756
vn -0.500762 0.817399 -0.284774
vn 0.102561 0.498719 -0.860674
vn -0.395788 0.918233 -0.0141367
vn -0.4049 0.774177 0.486525
vn -0.329021 -0.230748 0.915697
vn -0.113628 -0.657653 0.744702
vn 0.48245 -0.845346 -0.229416
vn 0.548354 -0.441534 -0.71018
vn -0.072116 -0.578785 0.812285
vn 0.210937 -0.895137 0.392729
vn -0.433345 0.365449 0.823808
vn -0.155027 0.0867044 0.984098
vn -0.204503 0.440893 0.873952
vn -0.537061 0.726105 0.429345
vn -0.518931 0.476409 0.70975
vn 0.625456 -0.780123 -0.0145717
vn 0.712792 -0.594628 -0.371946
vn 0.427288 -0.880665 0.204582
vn 0.37178 -0.76581 0.524705
vn 0.107388 0.296582 0.94895
vn 0.591959 -0.723533 0.355084
vn 0.604658 -0.569462 0.556868
vn 0.228595 0.477798 0.848206
vn 0.744318 -0.603408 0.286164
vn 0.502853 -0.171552 -0.847177
vn 0.131788 0.428779 0.893745
vn 0.039455 0.416127 0.90845
vn 0.0932417 0.748508 -0.656537
vn -0.301295 0.942102 -0.14719
vn -0.226807 0.429726 0.87401
vn -0.376891 0.560021 0.737787
vn -0.441397 0.880243 0.174188
vn 0.837248 -0.546502 0.0187314
vn 0.538538 0.395211 0.744167
vn 0.916529 -0.289059 -0.276442
vn 0.98007 -0.170332 0.102227
vn 0.978704 0.150712 -0.139374
vn 0.821728 0.365514 0.437221
vn 0.74897 -0.0687876 -0.659024
vn 0.349754 0.384221 0.854427
vn 0.579315 0.453838 0.677071
vn 0.45968 0.445102 0.768491
vn 0.837644 0.464552 0.287304
vn 0.696122 0.324368 -0.640469
vn 0.589723 0.635198 -0.498749
vn 0.630564 0.663098 0.40335
vn -0.1904 0.951767 -0.240596
vn 0.128157 0.45835 0.879483
vn 0.0717238 0.908024 -0.412733
vn 0.327656 0.500705 0.801209
vn 0.11339 0.97127 0.209231
vn 0.398012 0.67727 -0.618783
vn 0.399706 0.890982 -0.215375
vn 0.464057 -0.385273 -0.797632
vn 0.430067 -0.232191 -0.872428
vn -0.187727 -0.179353 -0.965708
vn 0.576443 -0.0136088 -0.817024
vn 0.158983 0.671124 -0.724097
vn 0.168859 0.509139 -0.843957
vn 0.0746527 0.605483 -0.792349
vn -0.309478 0.883605 -0.351378
vn 0.0804996 0.00121375 0.996754
vn 0.380618 0.320877 0.867276
vn 0.714064 0.148444 0.684161
vn 0.504889 0.418246 -0.755087
vn 0.735979 0.228753 0.637186
vn 0.864036 0.483081 0.141686
vn 0.811259 0.505421 0.293954
vn -0.370675 0.818421 0.439076
g grp1
usemtl mtl1
f 4//4 1//1 3//3 
f 3//3 1//1 8//8 
f 26//26 1//1 4//4 
f 9//9 8//8 1//1 
f 29//29 31//31 9//9 
f 1//1 29//29 9//9 
f 11//11 9//9 38//38 
f 2//2 3//3 8//8 
f 2//2 14//14 3//3 
f 39//39 4//4 3//3 
f 14//14 39//39 3//3 
f 14//14 15//15 39//39 
f 4//4 40//40 26//26 
f 8//8 5//5 6//6 
f 9//9 10//10 5//5 
f 8//8 6//6 2//2 
f 6//6 5//5 7//7 
f 10//10 7//7 5//5 
f 2//2 6//6 18//18 
f 7//7 17//17 6//6 
f 17//17 18//18 6//6 
f 9//9 5//5 8//8 
f 18//18 14//14 2//2 
f 24//24 19//19 7//7 
f 7//7 10//10 24//24 
f 10//10 9//9 11//11 
f 24//24 10//10 13//13 
f 24//24 13//13 44//44 
f 11//11 12//12 10//10 
f 10//10 12//12 13//13 
f 11//11 41//41 12//12 
f 45//45 13//13 12//12 
f 44//44 13//13 45//45 
f 18//18 21//21 14//14 
f 21//21 15//15 14//14 
f 16//16 15//15 21//21 
f 39//39 15//15 43//43 
f 43//43 15//15 16//16 
f 46//46 42//42 16//16 
f 16//16 22//22 46//46 
f 20//20 18//18 17//17 
f 19//19 17//17 7//7 
f 24//24 25//25 19//19 
f 17//17 19//19 20//20 
f 20//20 19//19 23//23 
f 22//22 20//20 23//23 
f 20//20 21//21 18//18 
f 22//22 21//21 20//20 
f 25//25 23//23 19//19 
f 48//48 23//23 25//25 
f 16//16 21//21 22//22 
f 23//23 47//47 22//22 
f 22//22 47//47 46//46 
f 47//47 23//23 48//48 
f 25//25 24//24 44//44 
f 25//25 44//44 48//48 
f 30//30 1//1 26//26 
f 26//26 27//27 30//30 
f 120//120 28//28 27//27 
f 28//28 120//120 121//121 
f 33//33 30//30 27//27 
f 28//28 50//50 27//27 
f 27//27 37//37 33//33 
f 50//50 37//37 27//27 
f 50//50 28//28 58//58 
f 30//30 29//29 1//1 
f 31//31 38//38 9//9 
f 33//33 32//32 30//30 
f 30//30 32//32 29//29 
f 32//32 31//31 29//29 
f 33//33 34//34 32//32 
f 34//34 31//31 32//32 
f 31//31 34//34 35//35 
f 31//31 35//35 38//38 
f 33//33 36//36 34//34 
f 35//35 34//34 36//36 
f 36//36 52//52 35//35 
f 53//53 52//52 36//36 
f 36//36 33//33 37//37 
f 49//49 36//36 37//37 
f 53//53 36//36 49//49 
f 51//51 53//53 49//49 
f 50//50 49//49 37//37 
f 38//38 41//41 11//11 
f 35//35 52//52 38//38 
f 38//38 52//52 55//55 
f 40//40 4//4 39//39 
f 39//39 122//122 40//40 
f 121//121 123//123 28//28 
f 41//41 45//45 12//12 
f 41//41 38//38 55//55 
f 45//45 41//41 55//55 
f 43//43 16//16 42//42 
f 60//60 43//43 42//42 
f 58//58 28//28 123//123 
f 126//126 125//125 124//124 
f 45//45 59//59 44//44 
f 44//44 62//62 48//48 
f 51//51 49//49 50//50 
f 58//58 54//54 50//50 
f 54//54 51//51 50//50 
f 55//55 52//52 56//56 
f 53//53 56//56 52//52 
f 51//51 63//63 53//53 
f 53//53 63//63 56//56 
f 57//57 45//45 55//55 
f 55//55 56//56 65//65 
f 55//55 66//66 57//57 
f 57//57 59//59 45//45 
f 65//65 66//66 55//55 
f 65//65 56//56 63//63 
f 126//126 68//68 125//125 
f 60//60 42//42 46//46 
f 67//67 60//60 46//46 
f 44//44 59//59 62//62 
f 46//46 47//47 61//61 
f 61//61 47//47 48//48 
f 48//48 62//62 61//61 
f 67//67 46//46 61//61 
f 54//54 64//64 51//51 
f 54//54 58//58 64//64 
f 64//64 63//63 51//51 
f 73//73 63//63 64//64 
f 57//57 66//66 72//72 
f 65//65 76//76 66//66 
f 72//72 66//66 76//76 
f 57//57 71//71 59//59 
f 72//72 71//71 57//57 
f 59//59 77//77 62//62 
f 62//62 77//77 70//70 
f 127//127 60//60 67//67 
f 67//67 69//69 127//127 
f 69//69 94//94 127//127 
f 69//69 67//67 61//61 
f 69//69 61//61 62//62 
f 76//76 65//65 63//63 
f 71//71 77//77 59//59 
f 77//77 71//71 78//78 
f 77//77 80//80 70//70 
f 62//62 70//70 69//69 
f 69//69 70//70 95//95 
f 70//70 80//80 95//95 
f 94//94 69//69 95//95 
f 64//64 58//58 74//74 
f 73//73 76//76 63//63 
f 73//73 64//64 74//74 
f 74//74 83//83 73//73 
f 73//73 84//84 76//76 
f 72//72 76//76 75//75 
f 85//85 75//75 76//76 
f 85//85 76//76 84//84 
f 78//78 75//75 128//128 
f 77//77 81//81 80//80 
f 75//75 71//71 72//72 
f 71//71 75//75 78//78 
f 79//79 77//77 78//78 
f 77//77 79//79 81//81 
f 93//93 79//79 78//78 
f 79//79 93//93 92//92 
f 105//105 83//83 74//74 
f 82//82 84//84 73//73 
f 82//82 87//87 84//84 
f 73//73 83//83 82//82 
f 99//99 90//90 82//82 
f 86//86 78//78 128//128 
f 86//86 93//93 78//78 
f 87//87 85//85 84//84 
f 87//87 88//88 85//85 
f 129//129 89//89 86//86 
f 129//129 86//86 128//128 
f 89//89 93//93 86//86 
f 92//92 93//93 89//89 
f 82//82 90//90 87//87 
f 87//87 90//90 88//88 
f 129//129 100//100 89//89 
f 100//100 92//92 89//89 
f 130//130 100//100 129//129 
f 100//100 106//106 92//92 
f 68//68 94//94 125//125 
f 91//91 74//74 58//58 
f 94//94 131//131 125//125 
f 92//92 96//96 79//79 
f 115//115 94//94 95//95 
f 96//96 81//81 79//79 
f 97//97 81//81 96//96 
f 80//80 81//81 97//97 
f 98//98 80//80 97//97 
f 92//92 97//97 96//96 
f 95//95 80//80 98//98 
f 92//92 114//114 97//97 
f 98//98 97//97 135//135 
f 113//113 115//115 95//95 
f 113//113 95//95 98//98 
f 99//99 82//82 83//83 
f 99//99 102//102 90//90 
f 101//101 99//99 83//83 
f 132//132 104//104 100//100 
f 101//101 83//83 105//105 
f 100//100 104//104 107//107 
f 102//102 99//99 101//101 
f 101//101 103//103 102//102 
f 102//102 103//103 104//104 
f 103//103 101//101 105//105 
f 130//130 132//132 100//100 
f 74//74 91//91 105//105 
f 94//94 118//118 131//131 
f 94//94 115//115 118//118 
f 131//131 118//118 111//111 
f 100//100 107//107 106//106 
f 108//108 106//106 107//107 
f 112//112 108//108 107//107 
f 103//103 105//105 110//110 
f 133//133 109//109 103//103 
f 109//109 104//104 103//103 
f 104//104 109//109 107//107 
f 112//112 107//107 109//109 
f 105//105 131//131 110//110 
f 131//131 111//111 110//110 
f 111//111 118//118 119//119 
f 119//119 112//112 111//111 
f 109//109 133//133 112//112 
f 133//133 134//134 112//112 
f 108//108 116//116 106//106 
f 116//116 92//92 106//106 
f 117//117 115//115 113//113 
f 116//116 114//114 92//92 
f 117//117 113//113 98//98 
f 117//117 98//98 135//135 
f 116//116 117//117 114//114 
f 112//112 116//116 108//108 
f 112//112 117//117 116//116 
f 115//115 119//119 118//118 
f 115//115 117//117 119//119 
f 119//119 117//117 112//112 
