#
# The license for this database is specified in the Creative Commons Attribution-Share Alike 2.1 Japan. If you use data from this database, please be sure attribute this database as follows: "BodyParts3D, (c)  The Database Center for Life Science licensed under CC Attribution-Share Alike 2.1 Japan".
# http://dbarchive.biosciencedbc.jp/en/bodyparts3d/lic.html
#
#
# Compatibility version : 4.0
# File ID : FJ2575
# Representation ID : BP9639
# Build-up logic : FMA 3.0 part_of
# Concept ID : FMA14964
# English name : Proximal part of ileum
# Bounds(mm): (60.438100,-156.296000,854.588000)-(101.842000,-134.150000,913.043000)
# Volume(cm3): 15.494600
#
v 61.0954 -149.92 863.539
v 61.8412 -149.255 867.114
v 60.4381 -147.763 864.671
v 60.4929 -147.813 861.465
v 60.8362 -142.927 863.909
v 60.5426 -143.623 860.887
v 65.5612 -154.477 863.615
v 67.9079 -153.428 868.764
v 64.5721 -150.106 856.565
v 65.6937 -153.441 858.595
v 62.9147 -151.552 860.397
v 68.0519 -147.812 873.803
v 62.3064 -147.102 857.348
v 62.8529 -144.212 856.424
v 63.694 -146.537 855.88
v 64.9107 -144.952 855.314
v 61.2354 -143.959 858.488
v 63.7798 -142.708 869.94
v 66.8242 -142.206 873.407
v 62.868 -142.54 856.983
v 63.5833 -143.37 856.183
v 65.0199 -142.56 856.085
v 61.8509 -141.143 861.132
v 62.1855 -141.949 858.23
v 63.3498 -140.069 860.08
v 63.864 -140.951 857.805
v 64.8001 -138.677 866.142
v 68.4949 -138.435 873.093
v 68.8875 -155.763 859.727
v 70.3589 -156.296 863.742
v 72.7404 -155.826 859.606
v 72.5694 -152.083 873.905
v 74.7005 -151.382 879.641
v 67.7199 -153.341 856.899
v 69.6291 -150.259 854.814
v 70.7002 -153.61 856.468
v 72.1056 -152.05 855.764
v 73.2927 -146.363 887.775
v 66.5662 -148.663 854.932
v 66.6791 -144.855 855.041
v 69.5093 -148.258 854.588
v 72.0864 -149.165 855.177
v 68.2114 -142.307 856.067
v 66.8107 -140.295 857.431
v 69.6608 -136.707 861.576
v 72.5569 -134.889 869.279
v 76.6929 -155.377 863.677
v 78.1147 -154.281 862.141
v 75.7165 -153.332 873.325
v 81.7344 -152.946 887.79
v 82.4505 -149.08 900.003
v 83.1067 -148.813 902.911
v 73.9247 -154.421 858.13
v 75.4575 -151.607 857.502
v 80.9521 -145.508 900.074
v 80.2071 -143.267 898.862
v 81.3146 -142.172 901.299
v 82.4257 -142.09 907.473
v 72.5307 -144.979 856.145
v 72.753 -137.513 860.371
v 77.0816 -139.801 861.345
v 73.8864 -135.686 863.373
v 76.2359 -136.845 863.212
v 77.0452 -135.339 867.544
v 77.9324 -134.352 875.211
v 86.4978 -153.355 898.575
v 89.06 -154.607 894.913
v 87.2435 -152.983 904.595
v 90.6306 -153.446 908.012
v 81.7722 -152.917 868.482
v 84.8339 -150.667 879.325
v 81.9335 -152.355 882.151
v 85.5879 -152.948 887.357
v 85.5197 -149.723 908.607
v 88.7291 -150.398 910.761
v 85.893 -144.993 911.583
v 91.2634 -147.527 912.685
v 82.8185 -150.35 865.499
v 86.2964 -140.404 911.453
v 90.892 -143.393 913.043
v 79.0172 -147.047 860.025
v 83.3529 -143.558 866.49
v 85.9856 -137.055 909.079
v 84.2101 -135.285 901.194
v 90.5525 -137.977 911.127
v 80.3326 -138.381 866.212
v 85.8154 -137.707 878.393
v 85.9574 -134.875 886.85
v 95.142 -154.641 896.821
v 90.9108 -154.673 904.025
v 94.1211 -155.239 900.369
v 92.3093 -152.284 910.022
v 93.7775 -153.499 908.508
v 94.3148 -154.504 906.078
v 95.3359 -151.485 910.163
v 96.6122 -152.983 907.973
v 93.8195 -152.853 891.549
v 94.7819 -145.529 912.355
v 96.8586 -148.793 910.832
v 87.7202 -146.643 878.642
v 89.2474 -149.508 884.042
v 91.1093 -145.073 883.416
v 94.4021 -140.631 911.549
v 87.2821 -142.402 876.914
v 90.7275 -140.32 883.728
v 91.8779 -134.538 906.809
v 93.5879 -134.15 902.836
v 95.5553 -135.666 905.926
v 94.0638 -137.224 909.497
v 89.0974 -137.268 884.61
v 96.5738 -154.804 900.886
v 99.3534 -153.049 899.523
v 98.4283 -153.236 904.778
v 97.9647 -150.785 893.191
v 99.0029 -152.622 896.815
v 99.6603 -147.69 893.636
v 100.486 -150.382 896.37
v 100.752 -151.273 898.953
v 101.708 -148.878 900.686
v 101.679 -147.847 897.969
v 98.8752 -150.835 908.098
v 100.096 -147.795 908.122
v 100.353 -151.111 904.736
v 100.462 -145.355 907.628
v 101.641 -147.397 904.175
v 98.8079 -145.816 909.779
v 98.5707 -142.757 892.491
v 100.617 -143.922 895.365
v 100.691 -141.988 897.349
v 101.842 -145.92 899.415
v 99.267 -141.774 908.011
v 100.715 -141.633 903.781
v 97.2525 -141.667 910.177
v 97.0876 -139.886 909.314
v 96.6878 -139.151 892.323
v 99.4216 -140.956 894.866
v 95.0785 -135.801 895.652
v 99.0198 -139.074 897.038
v 98.784 -139.003 906.063
v 97.6657 -136.73 902.629
v 73.2927 -146.363 887.775
v 86.2964 -140.404 911.453
v 85.9856 -137.055 909.079
v 84.2101 -135.285 901.194
vn -0.848365 -0.527348 0.0467062
vn -0.76195 -0.421443 0.49175
vn -0.973411 -0.0718783 0.217495
vn -0.943085 -0.230428 -0.239779
vn -0.897711 0.390988 0.203085
vn -0.961462 0.240346 -0.133511
vn -0.573793 -0.813894 0.0913173
vn -0.428449 -0.758579 0.490907
vn -0.585318 -0.434831 -0.684342
vn -0.566076 -0.713038 -0.413684
vn -0.758593 -0.566799 -0.321366
vn -0.718863 -0.430506 0.545802
vn -0.781991 -0.243037 -0.573955
vn -0.634964 0.086463 -0.767688
vn -0.53901 -0.139868 -0.830605
vn -0.306655 0.127615 -0.943227
vn -0.869457 0.112992 -0.480913
vn -0.814524 0.212433 0.539836
vn -0.829952 0.122973 0.544112
vn -0.561919 0.42708 -0.708414
vn -0.399413 0.30265 -0.865374
vn -0.196869 0.471404 -0.859663
vn -0.773544 0.627681 -0.0874413
vn -0.730621 0.549161 -0.405728
vn -0.53569 0.806919 -0.248831
vn -0.375575 0.720165 -0.583357
vn -0.631307 0.76356 0.135746
vn -0.71941 0.566802 0.401479
vn -0.260175 -0.901205 -0.346611
vn -0.113759 -0.98358 0.140107
vn 0.180158 -0.917155 -0.355486
vn -0.458272 -0.779768 0.426554
vn -0.434308 -0.874027 0.217839
vn -0.315624 -0.594535 -0.739533
vn -0.0131695 -0.300895 -0.953566
vn 0.00999925 -0.666042 -0.745847
vn 0.297162 -0.371158 -0.879737
vn -0.855601 -0.205653 0.475031
vn -0.268525 -0.184816 -0.945377
vn -0.0177901 0.223876 -0.974455
vn 0.0891548 0.0578606 -0.994336
vn 0.389539 -0.0229048 -0.920725
vn 0.103297 0.462023 -0.880832
vn -0.0959705 0.684531 -0.722639
vn -0.247607 0.899512 -0.359957
vn -0.253294 0.967369 0.00632878
vn 0.296336 -0.955075 0.00400546
vn 0.593349 -0.694009 -0.407786
vn -0.0779101 -0.959906 0.269277
vn -0.160375 -0.986234 -0.0402669
vn -0.767942 -0.548802 0.330274
vn -0.820937 -0.515471 0.245667
vn 0.391396 -0.631774 -0.669082
vn 0.610436 -0.277475 -0.741872
vn -0.908105 -0.178986 0.378562
vn -0.89305 0.157346 0.421549
vn -0.946846 0.191092 0.258778
vn -0.910965 0.0616754 0.407847
vn 0.358301 0.30062 -0.883882
vn 0.232516 0.657213 -0.716943
vn 0.586462 0.427251 -0.688127
vn 0.130841 0.920671 -0.367758
vn 0.478446 0.704007 -0.524847
vn 0.362797 0.896716 -0.25353
vn 0.0427804 0.998069 -0.0450318
vn -0.523867 -0.83326 0.176752
vn -0.124869 -0.989689 -0.0701614
vn -0.563257 -0.795195 0.224515
vn -0.280949 -0.854361 0.437189
vn 0.570936 -0.819 -0.0571882
vn 0.577272 -0.781844 -0.235534
vn 0.0974571 -0.994779 -0.0302809
vn 0.187137 -0.937328 -0.293933
vn -0.699307 -0.544797 0.462781
vn -0.357402 -0.558884 0.748273
vn -0.528241 -0.166094 0.832691
vn 0.00336892 -0.309519 0.950887
vn 0.837351 -0.301344 -0.456109
vn -0.74403 0.214017 0.632942
vn -0.0219014 0.123675 0.992081
vn 0.674726 0.0920352 -0.732307
vn 0.852078 0.216309 -0.476627
vn -0.792861 0.41953 0.442004
vn -0.871756 0.372948 0.317728
vn 0.0110469 0.569099 0.822195
vn 0.668455 0.589878 -0.453002
vn 0.696958 0.610465 -0.376274
vn 0.272917 0.946099 -0.174395
vn 0.268029 -0.93323 -0.239254
vn -0.243146 -0.959089 0.145013
vn 0.0426555 -0.999087 0.00220711
vn -0.0427588 -0.662337 0.747985
vn 0.0955294 -0.828943 0.551114
vn 0.127209 -0.956407 0.262876
vn 0.292919 -0.559707 0.775195
vn 0.404902 -0.767906 0.496361
vn 0.401921 -0.778583 -0.481943
vn 0.377183 0.0128049 0.92605
vn 0.487489 -0.274519 0.828851
vn 0.867355 -0.341231 -0.362293
vn 0.595995 -0.613422 -0.518173
vn 0.789558 -0.141376 -0.597169
vn 0.362912 0.359918 0.859508
vn 0.876002 0.143955 -0.460323
vn 0.772873 0.339301 -0.536229
vn 0.0549399 0.913069 0.404087
vn 0.246632 0.968914 0.0194451
vn 0.53736 0.767748 0.349008
vn 0.374613 0.653008 0.658214
vn 0.583614 0.701096 -0.409707
vn 0.348667 -0.937061 0.0186527
vn 0.639172 -0.76684 -0.0584376
vn 0.567523 -0.786877 0.242367
vn 0.654934 -0.478064 -0.58525
vn 0.618268 -0.705484 -0.346463
vn 0.822844 -0.125715 -0.554187
vn 0.829402 -0.393139 -0.396905
vn 0.868576 -0.482964 -0.110999
vn 0.974396 -0.223915 0.0203586
vn 0.960809 -0.127822 -0.245982
vn 0.657937 -0.505172 0.558498
vn 0.823322 -0.191902 0.534148
vn 0.854373 -0.471856 0.217712
vn 0.891418 0.115368 0.43825
vn 0.977608 -0.0570342 0.202558
vn 0.68172 0.0496518 0.729926
vn 0.788887 0.195253 -0.582695
vn 0.912649 0.143527 -0.382717
vn 0.922587 0.347116 -0.168355
vn 0.992483 0.104688 -0.0633842
vn 0.793836 0.319473 0.517457
vn 0.925172 0.358607 0.124333
vn 0.598035 0.261454 0.757625
vn 0.607796 0.505642 0.612299
vn 0.701775 0.536962 -0.468172
vn 0.823763 0.399611 -0.402152
vn 0.531907 0.807979 -0.253465
vn 0.78567 0.587263 -0.19454
vn 0.76605 0.551053 0.33092
vn 0.70195 0.711849 0.0231758
vn -0.915735 -0.175055 0.361642
vn -0.225175 0.315703 0.921753
vn -0.223948 0.783287 0.579921
vn -0.209872 0.971616 0.109157
g grp1
usemtl mtl1
f 11//11 1//1 4//4 
f 1//1 3//3 4//4 
f 1//1 2//2 3//3 
f 7//7 2//2 1//1 
f 6//6 3//3 5//5 
f 6//6 4//4 3//3 
f 4//4 6//6 17//17 
f 23//23 6//6 5//5 
f 4//4 13//13 11//11 
f 17//17 13//13 4//4 
f 2//2 18//18 3//3 
f 3//3 18//18 5//5 
f 7//7 30//30 8//8 
f 9//9 11//11 13//13 
f 7//7 11//11 10//10 
f 10//10 11//11 9//9 
f 39//39 34//34 9//9 
f 29//29 7//7 10//10 
f 34//34 29//29 10//10 
f 34//34 10//10 9//9 
f 1//1 11//11 7//7 
f 8//8 2//2 7//7 
f 2//2 12//12 18//18 
f 8//8 12//12 2//2 
f 18//18 12//12 19//19 
f 15//15 13//13 14//14 
f 13//13 17//17 14//14 
f 20//20 14//14 17//17 
f 9//9 13//13 15//15 
f 14//14 16//16 15//15 
f 16//16 14//14 21//21 
f 21//21 14//14 20//20 
f 39//39 9//9 15//15 
f 16//16 39//39 15//15 
f 40//40 39//39 16//16 
f 18//18 19//19 28//28 
f 19//19 38//38 28//28 
f 17//17 6//6 24//24 
f 17//17 24//24 20//20 
f 26//26 20//20 24//24 
f 16//16 21//21 22//22 
f 22//22 21//21 20//20 
f 22//22 20//20 26//26 
f 22//22 26//26 44//44 
f 22//22 40//40 16//16 
f 43//43 40//40 22//22 
f 43//43 22//22 44//44 
f 18//18 27//27 5//5 
f 23//23 5//5 27//27 
f 24//24 6//6 23//23 
f 23//23 27//27 25//25 
f 23//23 25//25 24//24 
f 24//24 25//25 26//26 
f 26//26 25//25 45//45 
f 27//27 45//45 25//25 
f 44//44 26//26 45//45 
f 18//18 28//28 27//27 
f 46//46 27//27 28//28 
f 45//45 27//27 46//46 
f 30//30 29//29 31//31 
f 29//29 36//36 31//31 
f 36//36 53//53 31//31 
f 30//30 7//7 29//29 
f 31//31 47//47 30//30 
f 49//49 8//8 30//30 
f 49//49 32//32 8//8 
f 66//66 38//38 33//33 
f 36//36 29//29 34//34 
f 34//34 39//39 35//35 
f 36//36 34//34 35//35 
f 37//37 36//36 35//35 
f 37//37 35//35 42//42 
f 53//53 36//36 37//37 
f 53//53 37//37 54//54 
f 8//8 32//32 12//12 
f 33//33 12//12 32//32 
f 141//141 19//19 12//12 
f 33//33 38//38 12//12 
f 55//55 56//56 38//38 
f 51//51 55//55 38//38 
f 35//35 39//39 41//41 
f 41//41 39//39 40//40 
f 40//40 43//43 59//59 
f 59//59 41//41 40//40 
f 35//35 41//41 42//42 
f 41//41 59//59 42//42 
f 84//84 28//28 38//38 
f 38//38 56//56 84//84 
f 60//60 43//43 44//44 
f 45//45 60//60 44//44 
f 60//60 59//59 43//43 
f 46//46 28//28 144//144 
f 62//62 45//45 46//46 
f 60//60 45//45 62//62 
f 31//31 53//53 48//48 
f 47//47 31//31 48//48 
f 47//47 49//49 30//30 
f 49//49 33//33 32//32 
f 49//49 72//72 33//33 
f 72//72 50//50 33//33 
f 72//72 49//49 70//70 
f 66//66 33//33 50//50 
f 67//67 66//66 50//50 
f 66//66 51//51 38//38 
f 66//66 52//52 51//51 
f 52//52 74//74 58//58 
f 74//74 76//76 58//58 
f 68//68 74//74 52//52 
f 54//54 37//37 42//42 
f 53//53 54//54 48//48 
f 52//52 58//58 55//55 
f 55//55 58//58 57//57 
f 51//51 52//52 55//55 
f 55//55 57//57 56//56 
f 79//79 83//83 58//58 
f 76//76 79//79 58//58 
f 59//59 81//81 42//42 
f 42//42 81//81 54//54 
f 59//59 61//61 81//81 
f 56//56 57//57 84//84 
f 57//57 58//58 84//84 
f 83//83 84//84 58//58 
f 60//60 63//63 61//61 
f 59//59 60//60 61//61 
f 60//60 62//62 63//63 
f 62//62 46//46 64//64 
f 63//63 62//62 64//64 
f 86//86 61//61 63//63 
f 86//86 63//63 64//64 
f 65//65 64//64 46//46 
f 64//64 87//87 86//86 
f 46//46 144//144 65//65 
f 144//144 88//88 65//65 
f 66//66 90//90 68//68 
f 66//66 67//67 90//90 
f 68//68 69//69 74//74 
f 69//69 75//75 74//74 
f 90//90 69//69 68//68 
f 69//69 92//92 75//75 
f 90//90 94//94 69//69 
f 69//69 94//94 93//93 
f 69//69 93//93 92//92 
f 70//70 49//49 47//47 
f 72//72 70//70 71//71 
f 73//73 72//72 71//71 
f 70//70 100//100 71//71 
f 50//50 72//72 73//73 
f 67//67 50//50 73//73 
f 67//67 73//73 89//89 
f 68//68 52//52 66//66 
f 75//75 76//76 74//74 
f 77//77 76//76 75//75 
f 76//76 77//77 80//80 
f 78//78 48//48 54//54 
f 47//47 48//48 70//70 
f 48//48 78//78 70//70 
f 78//78 100//100 70//70 
f 54//54 81//81 78//78 
f 82//82 78//78 81//81 
f 78//78 82//82 100//100 
f 100//100 101//101 71//71 
f 71//71 101//101 73//73 
f 142//142 85//85 143//143 
f 76//76 80//80 142//142 
f 80//80 85//85 142//142 
f 85//85 80//80 103//103 
f 82//82 61//61 86//86 
f 61//61 82//82 81//81 
f 82//82 86//86 87//87 
f 82//82 87//87 104//104 
f 100//100 82//82 104//104 
f 64//64 65//65 88//88 
f 64//64 88//88 87//87 
f 88//88 110//110 87//87 
f 67//67 89//89 91//91 
f 89//89 111//111 91//91 
f 91//91 90//90 67//67 
f 91//91 94//94 90//90 
f 94//94 111//111 113//113 
f 91//91 111//111 94//94 
f 94//94 96//96 93//93 
f 93//93 95//95 92//92 
f 77//77 92//92 95//95 
f 113//113 96//96 94//94 
f 93//93 96//96 95//95 
f 121//121 95//95 96//96 
f 121//121 99//99 95//95 
f 73//73 97//97 89//89 
f 73//73 101//101 97//97 
f 114//114 97//97 101//101 
f 102//102 114//114 101//101 
f 77//77 75//75 92//92 
f 98//98 80//80 77//77 
f 95//95 99//99 77//77 
f 77//77 99//99 98//98 
f 121//121 122//122 99//99 
f 102//102 101//101 100//100 
f 100//100 104//104 102//102 
f 80//80 98//98 103//103 
f 133//133 103//103 98//98 
f 126//126 133//133 98//98 
f 133//133 134//134 103//103 
f 110//110 105//105 87//87 
f 104//104 87//87 105//105 
f 102//102 104//104 105//105 
f 135//135 110//110 137//137 
f 135//135 105//105 110//110 
f 106//106 144//144 143//143 
f 106//106 107//107 144//144 
f 108//108 109//109 134//134 
f 108//108 106//106 109//109 
f 107//107 137//137 88//88 
f 108//108 107//107 106//106 
f 140//140 107//107 108//108 
f 137//137 107//107 140//140 
f 85//85 106//106 143//143 
f 85//85 109//109 106//106 
f 109//109 85//85 103//103 
f 103//103 134//134 109//109 
f 139//139 108//108 134//134 
f 88//88 144//144 107//107 
f 89//89 97//97 115//115 
f 112//112 89//89 115//115 
f 112//112 113//113 111//111 
f 89//89 112//112 111//111 
f 112//112 123//123 113//113 
f 123//123 112//112 118//118 
f 96//96 113//113 121//121 
f 123//123 121//121 113//113 
f 102//102 116//116 114//114 
f 114//114 115//115 97//97 
f 118//118 112//112 115//115 
f 115//115 114//114 117//117 
f 115//115 117//117 118//118 
f 117//117 114//114 116//116 
f 118//118 117//117 120//120 
f 117//117 116//116 120//120 
f 120//120 119//119 118//118 
f 120//120 130//130 119//119 
f 120//120 116//116 128//128 
f 120//120 128//128 130//130 
f 123//123 122//122 121//121 
f 122//122 123//123 125//125 
f 124//124 122//122 125//125 
f 122//122 124//124 126//126 
f 118//118 119//119 123//123 
f 125//125 123//123 119//119 
f 125//125 132//132 124//124 
f 119//119 130//130 125//125 
f 125//125 130//130 132//132 
f 98//98 99//99 126//126 
f 99//99 122//122 126//126 
f 102//102 127//127 116//116 
f 105//105 127//127 102//102 
f 127//127 136//136 128//128 
f 128//128 136//136 129//129 
f 116//116 127//127 128//128 
f 128//128 129//129 130//130 
f 130//130 129//129 132//132 
f 139//139 134//134 131//131 
f 139//139 131//131 132//132 
f 131//131 124//124 132//132 
f 126//126 131//131 133//133 
f 131//131 134//134 133//133 
f 126//126 124//124 131//131 
f 88//88 137//137 110//110 
f 105//105 135//135 127//127 
f 127//127 135//135 136//136 
f 137//137 140//140 138//138 
f 137//137 138//138 135//135 
f 138//138 140//140 132//132 
f 135//135 138//138 136//136 
f 136//136 138//138 129//129 
f 129//129 138//138 132//132 
f 140//140 139//139 132//132 
f 140//140 108//108 139//139 
