#
# The license for this database is specified in the Creative Commons Attribution-Share Alike 2.1 Japan. If you use data from this database, please be sure attribute this database as follows: "BodyParts3D, (c)  The Database Center for Life Science licensed under CC Attribution-Share Alike 2.1 Japan".
# http://dbarchive.biosciencedbc.jp/en/bodyparts3d/lic.html
#
#
# Compatibility version : 4.0
# File ID : FJ2765
# Representation ID : BP8714
# Build-up logic : FMA 3.0 is_a
# Concept ID : FMA59805
# English name : Left sublingual gland
# Bounds(mm): (7.302200,-163.572000,1440.850000)-(19.881000,-140.969000,1453.980000)
# Volume(cm3): 0.596000
#
v 19.7922 -143.113 1452.93
v 19.881 -142.377 1451.65
v 19.8381 -141.696 1452.95
v 17.8319 -149.471 1451.19
v 19.0841 -146.432 1450.9
v 17.5665 -147.149 1452.29
v 17.2146 -146.735 1452.23
v 18.5218 -146.774 1448.25
v 17.9413 -145.883 1447.79
v 19.3909 -143.9 1453.3
v 19.4112 -143.108 1453.74
v 19.0395 -143.83 1453.7
v 19.0615 -143.068 1453.98
v 18.688 -143.466 1453.93
v 18.3348 -144.983 1453.21
v 18.3346 -144.141 1453.58
v 18.296 -143.169 1453.83
v 17.9056 -144.673 1453.13
v 19.6658 -143.235 1450.56
v 18.7136 -145.33 1452.8
v 17.027 -144.499 1451.93
v 19.4866 -143.242 1450.05
v 17.2581 -144.68 1449.08
v 19.4167 -142.365 1453.83
v 19.4245 -141.189 1453.4
v 18.7175 -142.362 1453.98
v 17.9857 -142.409 1453.34
v 19.7407 -142.039 1451.25
v 19.4245 -140.969 1452.32
v 18.9977 -142.29 1450.46
v 18.6858 -141.253 1453
v 18.3025 -142.114 1451.23
v 17.8699 -142.176 1452.56
v 14.5071 -157.215 1443.16
v 15.025 -154.593 1450.22
v 15.3895 -156.317 1448.16
v 16.3293 -152.798 1445.83
v 15.9686 -154.088 1444.79
v 15.9322 -153.219 1444.7
v 15.6117 -153.917 1443.8
v 14.8363 -152.194 1444.2
v 16.8436 -148.528 1451.93
v 15.8729 -150.913 1451.37
v 15.201 -148.741 1450.62
v 14.0641 -149.576 1447.86
v 15.8416 -149.551 1445.54
v 16.5421 -147.452 1451.71
v 16.3539 -146.703 1451.25
v 16.0021 -148.372 1451.52
v 15.4342 -146.865 1448.13
v 16.3839 -146.768 1447.12
v 16.6441 -144.805 1450.51
v 12.9357 -160.343 1447.26
v 11.499 -160.41 1448.16
v 13.0938 -160.271 1446
v 11.7726 -161.846 1446.08
v 11.5108 -161.721 1446.94
v 11.3537 -160.719 1441.75
v 13.7494 -158.099 1449.02
v 13.5376 -157.273 1449.63
v 11.4315 -159.693 1448.35
v 13.2763 -157.873 1441.53
v 12.9392 -157.449 1441.25
v 12.1201 -158.733 1440.97
v 11.4641 -158.338 1440.85
v 13.9584 -155.72 1450
v 13.6056 -155.383 1449.85
v 13.0416 -156.671 1449.46
v 13.1592 -155.114 1449.33
v 12.929 -155.776 1441.83
v 12.3949 -155.121 1442.69
v 13.7844 -153.737 1450.1
v 12.9936 -153.548 1448.19
v 10.0256 -163.086 1444.54
v 8.99672 -163.45 1444.77
v 8.90615 -163.572 1443.91
v 8.93469 -162.896 1442.24
v 8.55604 -162.766 1441.82
v 10.678 -162.543 1446.09
v 10.031 -162.271 1446.49
v 9.99288 -161.513 1446.9
v 8.35987 -162.62 1445.08
v 8.57676 -161.33 1445.15
v 8.94634 -160.042 1441.67
v 10.2616 -161.637 1441.58
v 10.3603 -160.787 1440.96
v 9.63877 -160.387 1440.95
v 8.95945 -162.272 1441.47
v 8.61063 -161.874 1441.28
v 10.0661 -157.905 1444.76
v 8.89192 -159.785 1443.88
v 8.76902 -159.769 1443.25
v 11.1284 -157.88 1441.09
v 10.2066 -158.305 1441.58
v 8.19648 -163.478 1443.93
v 8.23166 -163.25 1442.61
v 8.20389 -162.987 1442.11
v 7.84155 -163.122 1442.55
v 7.73754 -162.927 1443.92
v 7.57736 -163.003 1442.95
v 7.99222 -162.26 1444.65
v 8.21565 -162.616 1441.69
v 8.20593 -161.172 1441.53
v 7.82593 -162.648 1441.92
v 7.85664 -162.26 1441.68
v 7.6758 -161.893 1441.8
v 7.90852 -160.719 1443.32
v 7.73462 -160.85 1442.53
v 7.39673 -162.66 1442.93
v 7.4042 -162.639 1442.53
v 7.32906 -162.284 1442.91
v 7.30223 -162.268 1442.53
v 7.41476 -162.255 1442.17
v 7.48905 -161.59 1443.32
v 7.3584 -161.603 1442.54
v 7.50249 -161.559 1442.14
v 8.22674 -161.555 1441.4
v 17.9413 -145.883 1447.79
v 17.9413 -145.883 1447.79
v 19.4866 -143.242 1450.05
v 19.4167 -142.365 1453.83
v 19.4245 -141.189 1453.4
v 19.4245 -141.189 1453.4
v 19.4245 -141.189 1453.4
v 19.4245 -141.189 1453.4
v 19.7407 -142.039 1451.25
v 19.4245 -140.969 1452.32
v 19.4245 -140.969 1452.32
v 19.4245 -140.969 1452.32
v 18.9977 -142.29 1450.46
v 18.6858 -141.253 1453
v 16.3293 -152.798 1445.83
v 16.3293 -152.798 1445.83
v 15.9322 -153.219 1444.7
v 14.8363 -152.194 1444.2
v 14.8363 -152.194 1444.2
v 15.8729 -150.913 1451.37
v 15.8416 -149.551 1445.54
v 16.3839 -146.768 1447.12
v 16.6441 -144.805 1450.51
v 13.5376 -157.273 1449.63
v 8.99672 -163.45 1444.77
v 10.678 -162.543 1446.09
vn 0.963308 -0.161792 0.214151
vn 0.995182 0.0335352 -0.092136
vn 0.958273 0.240177 0.155007
vn 0.594201 -0.427776 0.681126
vn 0.937054 -0.330426 0.112912
vn -0.141155 -0.266846 0.953346
vn -0.578807 -0.036231 0.814659
vn 0.874208 -0.0713455 -0.480282
vn 0.705191 0.102674 -0.701544
vn 0.775564 -0.406447 0.483012
vn 0.728654 -0.229645 0.645233
vn 0.423429 -0.433767 0.795333
vn 0.296717 -0.147471 0.94351
vn -0.0903249 -0.264789 0.960067
vn 0.0230316 -0.429363 0.902838
vn -0.378542 -0.3169 0.869644
vn -0.615915 -0.0616925 0.785393
vn -0.60924 -0.166909 0.775221
vn 0.976927 -0.0746562 -0.200099
vn 0.629616 -0.472299 0.616861
vn -0.910009 0.165039 0.380324
vn 0.890477 0.0614531 -0.450859
vn -0.504928 0.685278 -0.524826
vn 0.886194 0.0334469 0.462105
vn 0.816999 0.565037 0.115092
vn -0.253059 0.265662 0.930261
vn -0.795842 0.333146 0.505618
vn 0.951625 0.224385 -0.209906
vn 0.872496 0.488544 -0.00869876
vn 0.410965 0.592897 -0.692518
vn -0.666998 0.702233 0.248963
vn -0.622586 0.699548 -0.350741
vn -0.865718 0.497454 0.0554269
vn 0.865676 -0.408448 -0.289441
vn 0.19147 -0.316359 0.929116
vn 0.906746 -0.416983 0.0627459
vn 0.970413 -0.192893 -0.145228
vn 0.956049 -0.17695 -0.233795
vn 0.941712 0.00511006 -0.336383
vn 0.739883 0.115625 -0.662725
vn 0.606299 0.460538 -0.648311
vn -0.400558 -0.0448501 0.915173
vn -0.355561 -0.108879 0.92829
vn -0.866745 0.294482 0.402533
vn -0.928064 0.361662 0.0888746
vn 0.645315 0.112845 -0.755536
vn -0.623135 0.132301 0.770843
vn -0.816085 0.202242 0.54139
vn -0.613088 0.114331 0.781698
vn -0.857761 0.509105 -0.0711134
vn -0.0305542 0.56802 -0.822448
vn -0.759089 0.599511 -0.253712
vn 0.720212 -0.63415 0.281334
vn -0.0801015 -0.508566 0.857289
vn 0.809829 -0.580325 -0.0860268
vn 0.668305 -0.74294 0.0375306
vn 0.371582 -0.738588 0.562508
vn 0.68556 -0.593885 -0.42108
vn 0.54653 -0.545848 0.635103
vn 0.275313 -0.419571 0.864964
vn -0.57551 -0.0698897 0.814803
vn 0.712042 -0.271734 -0.647423
vn 0.390561 0.124315 -0.912145
vn 0.438354 -0.241194 -0.865836
vn -0.00532569 0.156584 -0.98765
vn -0.289739 -0.114849 0.95019
vn -0.61293 -0.0135954 0.79002
vn -0.674703 0.0826048 0.733452
vn -0.832196 0.127886 0.539532
vn 0.00341192 0.467722 -0.883869
vn -0.614267 0.593002 -0.520601
vn -0.631584 0.0192197 0.77507
vn -0.918417 0.304456 0.25262
vn 0.541064 -0.831559 -0.125533
vn 0.201056 -0.969187 0.142314
vn 0.186732 -0.974221 -0.126587
vn 0.36513 -0.818772 -0.44305
vn 0.137748 -0.758045 -0.63749
vn 0.476421 -0.862295 0.17167
vn -0.2118 -0.651843 0.728177
vn -0.612183 -0.200404 0.764899
vn -0.681731 -0.340975 0.647286
vn -0.808087 0.279636 0.518458
vn -0.693097 0.580538 -0.427309
vn 0.510863 -0.677937 -0.528602
vn 0.237451 -0.347629 -0.907068
vn -0.375355 0.194136 -0.906322
vn 0.204671 -0.597675 -0.775174
vn -0.182262 -0.258112 -0.948767
vn -0.866837 0.473529 0.156088
vn -0.810905 0.519427 0.269496
vn -0.755379 0.655288 -0.000804248
vn -0.403626 0.45579 -0.793311
vn -0.701239 0.53107 -0.475634
vn -0.473926 -0.868083 0.147735
vn -0.0385911 -0.941252 -0.335492
vn -0.109115 -0.826812 -0.551793
vn -0.481271 -0.807332 -0.341457
vn -0.884813 -0.304212 0.352932
vn -0.774273 -0.632762 -0.0106679
vn -0.857474 0.0284787 0.513739
vn -0.19638 -0.565323 -0.801152
vn -0.644771 0.374679 -0.666248
vn -0.553933 -0.567337 -0.609333
vn -0.53957 -0.246675 -0.804994
vn -0.722088 0.0824324 -0.686873
vn -0.799958 0.547238 0.246165
vn -0.811323 0.559296 -0.170127
vn -0.942245 -0.31941 0.100754
vn -0.873127 -0.430915 -0.227951
vn -0.985463 -0.0656325 0.1567
vn -0.988883 -0.0906103 -0.117898
vn -0.865989 -0.135692 -0.481301
vn -0.922888 0.242781 0.29889
vn -0.971381 0.220816 -0.0875212
vn -0.838523 0.287931 -0.462575
vn -0.494736 0.0548964 -0.867308
vn 0.312483 0.505213 -0.804434
vn -0.0895368 0.612516 -0.785371
vn 0.417708 0.530558 -0.737583
vn 0.33293 0.116062 0.935782
vn 0.818789 0.193094 0.540647
vn 0.201417 0.336477 0.919899
vn -0.421134 0.594773 0.684756
vn -0.188766 0.962263 0.196003
vn 0.455853 0.630301 -0.628425
vn 0.390314 0.706072 -0.590861
vn -0.188766 0.962263 0.196003
vn -0.451707 0.805824 -0.382896
vn -0.368156 0.706527 -0.604385
vn -0.188766 0.962263 0.196003
vn 0.711489 0.539642 -0.450077
vn 0.738925 0.000980076 -0.673787
vn 0.698543 0.491439 -0.52012
vn 0.680794 0.0809992 -0.727982
vn -0.164624 0.556786 -0.81418
vn 0.342243 -0.3588 0.868408
vn 0.00504915 0.478206 -0.878233
vn -0.597888 0.628655 -0.497315
vn -0.931535 0.313394 0.184462
vn -0.376075 -0.155724 0.91341
vn -0.34511 -0.706852 0.617462
vn 0.0397148 -0.790858 0.61071
g grp1
usemtl mtl1
f 1//1 5//5 19//19 
f 19//19 2//2 1//1 
f 19//19 28//28 2//2 
f 1//1 2//2 3//3 
f 2//2 28//28 3//3 
f 3//3 28//28 29//29 
f 25//25 3//3 29//29 
f 36//36 37//37 8//8 
f 5//5 4//4 36//36 
f 43//43 6//6 42//42 
f 137//137 4//4 6//6 
f 35//35 4//4 137//137 
f 36//36 8//8 5//5 
f 19//19 5//5 8//8 
f 4//4 5//5 20//20 
f 15//15 4//4 20//20 
f 15//15 18//18 6//6 
f 4//4 15//15 6//6 
f 18//18 7//7 6//6 
f 7//7 42//42 6//6 
f 47//47 42//42 7//7 
f 48//48 47//47 7//7 
f 18//18 48//48 7//7 
f 9//9 22//22 8//8 
f 1//1 11//11 10//10 
f 24//24 11//11 1//1 
f 20//20 10//10 12//12 
f 12//12 11//11 13//13 
f 12//12 10//10 11//11 
f 13//13 11//11 121//121 
f 14//14 15//15 12//12 
f 15//15 20//20 12//12 
f 14//14 12//12 13//13 
f 14//14 13//13 26//26 
f 26//26 13//13 121//121 
f 16//16 15//15 14//14 
f 16//16 14//14 17//17 
f 17//17 14//14 26//26 
f 17//17 26//26 27//27 
f 15//15 16//16 18//18 
f 17//17 18//18 16//16 
f 21//21 17//17 27//27 
f 10//10 20//20 5//5 
f 1//1 10//10 5//5 
f 19//19 22//22 28//28 
f 32//32 23//23 52//52 
f 32//32 52//52 33//33 
f 17//17 21//21 18//18 
f 8//8 22//22 19//19 
f 118//118 30//30 120//120 
f 23//23 130//130 119//119 
f 1//1 3//3 24//24 
f 122//122 24//24 3//3 
f 26//26 121//121 123//123 
f 31//31 26//26 124//124 
f 27//27 26//26 31//31 
f 27//27 33//33 21//21 
f 30//30 126//126 120//120 
f 30//30 127//127 126//126 
f 128//128 131//131 125//125 
f 130//130 23//23 32//32 
f 32//32 129//129 130//130 
f 31//31 129//129 32//32 
f 27//27 31//31 33//33 
f 21//21 33//33 140//140 
f 32//32 33//33 31//31 
f 36//36 59//59 53//53 
f 55//55 58//58 34//34 
f 55//55 34//34 36//36 
f 4//4 59//59 36//36 
f 35//35 60//60 59//59 
f 66//66 60//60 35//35 
f 36//36 34//34 38//38 
f 72//72 35//35 43//43 
f 66//66 35//35 72//72 
f 49//49 44//44 72//72 
f 59//59 4//4 35//35 
f 38//38 39//39 37//37 
f 36//36 38//38 37//37 
f 132//132 134//134 41//41 
f 38//38 40//40 39//39 
f 135//135 8//8 133//133 
f 134//134 40//40 41//41 
f 38//38 34//34 40//40 
f 41//41 40//40 70//70 
f 72//72 43//43 49//49 
f 49//49 43//43 42//42 
f 44//44 50//50 45//45 
f 73//73 44//44 45//45 
f 135//135 46//46 8//8 
f 71//71 138//138 136//136 
f 47//47 49//49 42//42 
f 48//48 18//18 21//21 
f 21//21 140//140 50//50 
f 47//47 48//48 49//49 
f 48//48 21//21 50//50 
f 48//48 44//44 49//49 
f 44//44 48//48 50//50 
f 51//51 23//23 119//119 
f 139//139 50//50 23//23 
f 23//23 50//50 52//52 
f 71//71 51//51 138//138 
f 71//71 50//50 139//139 
f 45//45 50//50 71//71 
f 46//46 9//9 8//8 
f 138//138 51//51 119//119 
f 57//57 53//53 59//59 
f 54//54 59//59 60//60 
f 57//57 59//59 54//54 
f 56//56 53//53 57//57 
f 55//55 53//53 56//56 
f 56//56 58//58 55//55 
f 56//56 74//74 58//58 
f 56//56 57//57 79//79 
f 79//79 74//74 56//56 
f 74//74 85//85 58//58 
f 53//53 55//55 36//36 
f 68//68 61//61 141//141 
f 54//54 141//141 61//61 
f 90//90 83//83 68//68 
f 40//40 34//34 62//62 
f 58//58 62//62 34//34 
f 62//62 63//63 40//40 
f 70//70 40//40 63//63 
f 58//58 64//64 62//62 
f 64//64 63//63 62//62 
f 65//65 70//70 63//63 
f 58//58 86//86 64//64 
f 63//63 64//64 65//65 
f 93//93 70//70 65//65 
f 86//86 65//65 64//64 
f 87//87 65//65 86//86 
f 68//68 141//141 66//66 
f 68//68 66//66 67//67 
f 67//67 66//66 72//72 
f 69//69 67//67 72//72 
f 72//72 73//73 69//69 
f 69//69 68//68 67//67 
f 68//68 69//69 90//90 
f 90//90 69//69 73//73 
f 90//90 73//73 71//71 
f 71//71 136//136 70//70 
f 93//93 71//71 70//70 
f 94//94 71//71 93//93 
f 72//72 44//44 73//73 
f 73//73 45//45 71//71 
f 79//79 75//75 74//74 
f 75//75 76//76 74//74 
f 80//80 82//82 142//142 
f 81//81 82//82 80//80 
f 77//77 85//85 74//74 
f 74//74 76//76 77//77 
f 77//77 78//78 88//88 
f 75//75 95//95 76//76 
f 95//95 96//96 76//76 
f 76//76 96//96 77//77 
f 77//77 96//96 97//97 
f 78//78 77//77 97//97 
f 78//78 97//97 102//102 
f 88//88 78//78 102//102 
f 80//80 143//143 57//57 
f 80//80 142//142 143//143 
f 54//54 81//81 80//80 
f 57//57 54//54 80//80 
f 61//61 81//81 54//54 
f 81//81 61//61 83//83 
f 82//82 81//81 83//83 
f 77//77 88//88 85//85 
f 83//83 91//91 107//107 
f 91//91 92//92 107//107 
f 88//88 102//102 89//89 
f 85//85 86//86 58//58 
f 85//85 88//88 86//86 
f 89//89 87//87 86//86 
f 87//87 103//103 84//84 
f 88//88 89//89 86//86 
f 103//103 87//87 117//117 
f 117//117 87//87 89//89 
f 68//68 83//83 61//61 
f 91//91 83//83 90//90 
f 71//71 94//94 90//90 
f 90//90 94//94 84//84 
f 91//91 90//90 92//92 
f 90//90 84//84 92//92 
f 87//87 93//93 65//65 
f 94//94 93//93 87//87 
f 84//84 94//94 87//87 
f 95//95 142//142 82//82 
f 99//99 95//95 82//82 
f 95//95 98//98 96//96 
f 96//96 98//98 97//97 
f 104//104 102//102 97//97 
f 98//98 104//104 97//97 
f 100//100 95//95 99//99 
f 98//98 95//95 100//100 
f 82//82 101//101 99//99 
f 100//100 99//99 109//109 
f 100//100 110//110 98//98 
f 110//110 104//104 98//98 
f 110//110 100//100 109//109 
f 83//83 101//101 82//82 
f 101//101 83//83 114//114 
f 102//102 104//104 105//105 
f 102//102 105//105 89//89 
f 89//89 105//105 117//117 
f 83//83 107//107 114//114 
f 105//105 106//106 117//117 
f 116//116 108//108 103//103 
f 116//116 103//103 106//106 
f 108//108 114//114 107//107 
f 108//108 84//84 103//103 
f 108//108 107//107 92//92 
f 84//84 108//108 92//92 
f 109//109 99//99 111//111 
f 109//109 111//111 110//110 
f 110//110 111//111 112//112 
f 104//104 110//110 113//113 
f 113//113 110//110 112//112 
f 104//104 113//113 105//105 
f 112//112 111//111 115//115 
f 112//112 115//115 113//113 
f 113//113 115//115 116//116 
f 113//113 116//116 106//106 
f 105//105 113//113 106//106 
f 114//114 99//99 101//101 
f 99//99 114//114 111//111 
f 111//111 114//114 115//115 
f 115//115 108//108 116//116 
f 115//115 114//114 108//108 
f 106//106 103//103 117//117 
