# Blender v2.77 (sub 0) OBJ File: 'BLANKOblend.blend'
# www.blender.org
mtllib acromial branch of right thoraco-acromial artery.mtl
o grp1
v -138.065948 -97.926003 1334.710327
v -138.047485 -97.827606 1334.175049
v -132.503906 -99.473358 1333.827148
v -138.013428 -97.378998 1334.045532
v -133.343750 -98.957245 1333.550781
v -138.292358 -97.578796 1334.361694
v -138.259033 -97.524269 1334.686768
v -137.993896 -97.563972 1334.953125
v -138.172455 -97.203392 1334.457031
v -137.966492 -97.242165 1334.847656
v -138.024002 -97.146820 1334.640015
v -137.722656 -97.026581 1334.546875
v -137.513596 -97.252541 1334.839233
v -138.024002 -97.146820 1334.640015
v -135.343750 -98.199440 1334.872070
v -134.902344 -98.849823 1334.520508
v -134.710938 -97.789276 1334.036133
v -133.117188 -98.577362 1333.485352
v -132.397003 -98.326416 1333.609985
v -131.578125 -98.395233 1334.133789
v -132.644531 -99.223846 1334.468750
v -131.750000 -98.880096 1334.488281
v -130.781250 -99.622284 1333.148438
v -130.648438 -99.700897 1333.927734
v -130.921875 -98.994354 1332.958984
v -130.273438 -98.645721 1333.025391
v -129.460938 -98.538452 1333.440430
v -129.447266 -99.939667 1333.285645
v -129.898438 -99.420135 1334.027344
v -130.352997 -98.639717 1333.050049
v -129.531250 -99.029510 1332.511719
v -128.570312 -99.544647 1332.132812
v -129.507812 -98.953949 1333.919922
v -127.890625 -99.849335 1332.167969
v -128.404297 -99.716034 1333.399414
v -128.093750 -99.439056 1333.421875
v -126.648438 -99.185760 1332.738281
v -128.210999 -98.937813 1331.920044
v -128.199219 -98.543304 1332.305664
v -127.039062 -98.481659 1332.515625
v -127.143555 -99.900116 1332.241699
v -126.070312 -99.277557 1330.554688
v -125.992188 -99.567108 1332.007812
v -126.696999 -98.784210 1330.900024
v -126.696999 -98.784210 1330.900024
v -126.874001 -98.420517 1331.380005
v -126.158203 -98.166718 1331.512695
v -124.546875 -98.308807 1331.164062
v -124.851562 -99.425995 1330.187500
v -123.656250 -98.578339 1330.507812
v -124.515625 -98.554901 1329.062500
v -124.500000 -97.937714 1330.734375
v -125.566406 -98.025604 1330.410156
v -123.953125 -99.062714 1330.375000
v -124.403999 -98.147415 1328.869995
v -121.735001 -98.651711 1327.719971
v -122.562500 -98.203339 1327.109375
v -119.539062 -97.938690 1326.335938
v -120.890625 -96.891815 1325.382812
v -122.007812 -97.031464 1328.250000
v -121.497002 -98.399017 1326.479980
v -121.125000 -97.211151 1325.437500
v -121.106934 -96.576263 1326.419922
v -120.362000 -97.774414 1327.319946
v -121.500000 -97.375214 1328.375000
v -119.856003 -98.306511 1325.050049
v -119.828125 -96.638885 1326.328125
v -119.819000 -97.968315 1324.390015
v -119.000000 -97.488495 1323.312500
v -118.718750 -97.014374 1325.734375
v -119.779999 -98.336411 1325.859985
v -118.347000 -98.431610 1323.949951
v -117.093750 -97.765839 1321.703125
v -119.816406 -96.572968 1324.628906
v -117.515625 -98.338104 1322.406250
v -117.837891 -98.238495 1324.494141
v -118.273438 -96.535126 1324.859375
v -117.890625 -97.627167 1325.054688
v -118.484375 -97.092010 1323.000000
v -118.588867 -96.332901 1324.335449
v -117.781250 -96.598846 1322.925781
v -116.406250 -98.238495 1323.609375
v -116.992188 -96.493378 1323.295898
v -113.898438 -99.179901 1319.750000
v -116.007812 -98.892792 1321.623047
v -116.300781 -98.748260 1322.957031
v -115.320312 -97.931854 1323.093750
v -116.593750 -97.082245 1321.640625
v -115.472656 -96.910370 1321.412109
v -114.015625 -99.562714 1321.099609
v -114.421875 -97.543182 1322.402344
v -111.992188 -100.140839 1319.210938
v -113.101562 -99.068573 1321.660156
v -115.109375 -98.246307 1320.312500
v -115.000000 -97.508026 1320.539062
v -112.209000 -97.753815 1320.579956
v -113.810547 -97.228729 1320.839844
v -113.015625 -98.660370 1319.140625
v -113.037003 -98.355217 1321.760010
v -112.976562 -97.875214 1319.531250
v -111.519531 -100.240448 1320.400391
v -111.320312 -98.090057 1319.281250
v -109.220703 -100.397675 1320.247070
v -110.945312 -99.046112 1320.867188
v -110.968750 -98.436737 1320.574219
v -110.570312 -100.329803 1318.332031
v -110.039062 -99.506561 1320.589844
v -111.375000 -99.371307 1318.417969
v -110.953125 -98.836151 1318.441406
v -109.500000 -98.851776 1318.341797
v -109.400391 -101.025848 1318.465820
v -108.513672 -101.324432 1319.492676
v -108.621094 -100.223846 1317.647949
v -108.102051 -98.882904 1318.971436
v -109.117996 -101.251213 1319.000000
v -108.667969 -99.384735 1320.139648
v -107.717285 -99.189362 1319.602539
v -106.943359 -101.459198 1317.830078
v -108.855469 -100.594696 1317.841797
v -107.759766 -100.302948 1320.177490
v -104.654297 -99.762604 1318.146484
v -106.154541 -102.029816 1318.473877
v -107.789062 -99.742401 1317.682617
v -106.599609 -100.181854 1320.100342
v -105.335938 -101.919586 1319.772949
v -103.546875 -101.851776 1320.343750
v -106.076538 -100.841400 1317.456177
v -106.431999 -99.731613 1319.859985
v -105.238281 -100.717987 1320.250977
v -103.462891 -99.735748 1319.091553
v -102.527344 -102.739471 1319.503418
v -104.566406 -100.346527 1317.666016
v -104.846680 -99.647186 1319.449707
v -103.140625 -102.166229 1318.060547
v -104.164062 -101.467987 1317.645508
v -104.216003 -100.222214 1320.140015
v -102.625000 -101.422089 1320.705078
v -101.898499 -102.419708 1320.494995
v -102.400002 -100.708214 1320.630005
v -102.429688 -101.256073 1317.811523
v -100.625000 -100.410370 1320.710938
v -100.878906 -102.920624 1319.217773
v -100.786003 -102.452217 1320.900024
v -99.687500 -101.406464 1321.531250
v -99.375000 -101.318573 1318.507812
v -100.675003 -100.606216 1318.510010
v -98.812500 -102.722870 1319.054688
v -98.906250 -102.152557 1318.726562
v -95.013672 -101.557831 1319.849121
v -95.432159 -100.670868 1322.082031
v -95.242798 -103.471649 1320.717773
v -95.096680 -100.923065 1320.254883
v -95.786499 -103.459686 1321.892578
v -95.063721 -103.029022 1320.156738
v -95.851074 -101.141815 1322.566406
v -95.508728 -103.592041 1321.080933
v -95.795410 -102.991425 1322.497070
v -95.801270 -102.531464 1322.737549
v -95.700684 -101.754608 1322.822021
v -95.184692 -103.500824 1321.543945
v -94.550537 -102.965851 1321.800781
v -95.124023 -103.165253 1322.187500
v -95.139648 -102.361542 1322.708496
v -94.687500 -102.572479 1322.328125
v -94.435059 -102.129364 1322.216309
v -94.870117 -102.259979 1319.884277
v -95.114746 -101.312714 1322.557617
v -94.829529 -100.802216 1321.850586
v -95.265533 -100.516586 1321.387695
v -94.525505 -103.070892 1320.988281
v -94.360168 -102.597382 1320.553711
v -94.341797 -102.121979 1320.387207
v -94.126083 -102.204697 1321.538940
v -94.447510 -101.324799 1321.974609
v -94.980835 -100.638519 1320.792480
v -94.390701 -101.088211 1321.102051
v -94.477539 -101.355682 1320.457031
v -94.165131 -101.627846 1321.010376
vn -0.5357 -0.6081 -0.5859
vn -0.2293 -0.9647 -0.1296
vn -0.5371 -0.7403 0.4044
vn -0.2035 -0.8819 0.4252
vn -0.2192 -0.4536 -0.8638
vn -0.4105 0.3657 -0.8353
vn -0.8930 0.0371 0.4486
vn -0.9599 -0.0996 -0.2619
vn -0.3521 -0.0364 0.9353
vn -0.6919 0.7087 -0.1378
vn -0.3019 0.5969 0.7433
vn -0.6321 0.7189 0.2893
vn -0.0030 0.9999 -0.0159
vn 0.1585 0.6296 0.7606
vn -0.0240 0.8478 0.5297
vn 0.0458 -0.0581 0.9973
vn 0.1630 0.9084 -0.3850
vn -0.1061 0.2915 -0.9507
vn 0.0434 0.8869 -0.4600
vn 0.2046 0.8591 0.4691
vn -0.0188 -0.6663 0.7455
vn 0.1650 0.0935 0.9819
vn -0.2782 -0.7066 -0.6506
vn -0.0058 -0.8639 0.5037
vn -0.2744 0.0553 -0.9600
vn -0.1897 0.8236 -0.5345
vn 0.1640 0.9551 0.2468
vn -0.0197 -0.9943 0.1044
vn 0.2372 -0.3573 0.9033
vn 0.0109 0.9633 -0.2680
vn -0.3693 -0.4116 -0.8332
vn -0.3442 0.2978 -0.8904
vn 0.3203 0.3553 0.8782
vn -0.1507 -0.8988 -0.4116
vn 0.2810 -0.7080 0.6479
vn 0.4241 -0.1818 0.8872
vn 0.5051 -0.0742 0.8599
vn -0.4963 0.3693 -0.7857
vn -0.2617 0.8801 -0.3962
vn 0.1878 0.8310 0.5236
vn 0.1781 -0.9760 0.1254
vn 0.4788 -0.7334 0.4826
vn -0.5607 -0.0985 -0.8221
vn -0.5824 0.5502 -0.5984
vn -0.4275 -0.5377 -0.7267
vn -0.4593 0.7533 -0.4707
vn -0.1334 0.9795 0.1508
vn 0.4882 0.4165 0.7669
vn 0.0529 -0.9628 -0.2649
vn 0.6977 -0.1820 0.6929
vn -0.6810 -0.0427 -0.7311
vn 0.2374 0.8184 0.5234
vn -0.4971 0.8044 -0.3252
vn 0.5137 -0.7702 0.3781
vn -0.7169 0.1045 -0.6893
vn 0.2591 -0.9624 0.0818
vn -0.6004 -0.4359 -0.6704
vn 0.5173 -0.6960 0.4980
vn -0.5968 0.5954 -0.5379
vn 0.1394 0.9060 0.3996
vn -0.7181 0.1380 -0.6821
vn -0.2561 0.9651 -0.0550
vn 0.5757 0.4252 0.6984
vn -0.3089 -0.8796 -0.3618
vn -0.1971 -0.9536 -0.2278
vn 0.3200 0.8259 0.4643
vn -0.5394 -0.6247 -0.5646
vn 0.7037 -0.1369 0.6972
vn -0.6713 -0.0715 -0.7377
vn 0.6332 0.3241 0.7029
vn 0.2110 -0.9515 0.2240
vn -0.0985 -0.9940 0.0477
vn -0.6113 -0.0284 -0.7909
vn -0.4316 0.7808 -0.4518
vn -0.5605 -0.6309 -0.5365
vn 0.3419 -0.7949 0.5012
vn 0.6135 -0.3198 0.7221
vn -0.5770 0.4046 -0.7095
vn -0.0031 0.9997 -0.0259
vn 0.3817 0.8067 0.4512
vn -0.2710 0.8450 -0.4610
vn 0.2211 0.9728 0.0692
vn -0.4285 -0.8700 -0.2441
vn 0.0603 -0.9200 0.3872
vn 0.4182 -0.5870 0.6932
vn 0.5556 -0.1331 0.8207
vn -0.3910 0.5838 -0.7116
vn -0.0353 0.9228 -0.3836
vn -0.1433 -0.9642 0.2231
vn -0.5190 -0.4723 -0.7124
vn 0.5735 0.4115 0.7084
vn -0.4194 -0.8129 -0.4042
vn 0.2859 -0.4645 0.8381
vn -0.5168 -0.0013 -0.8561
vn -0.3117 0.5729 -0.7580
vn 0.4083 0.8376 0.3628
vn 0.1971 0.9675 -0.1587
vn 0.4048 -0.1275 0.9055
vn -0.3918 0.1254 -0.9115
vn -0.1336 0.7069 -0.6945
vn 0.1086 -0.5285 0.8419
vn 0.1160 0.9112 -0.3953
vn 0.0516 -0.4807 0.8754
vn 0.4009 0.2314 0.8864
vn 0.4587 0.6180 0.6385
vn -0.3826 -0.5304 -0.7565
vn 0.3098 -0.0168 0.9506
vn -0.3671 -0.0409 -0.9293
vn -0.1324 0.4537 -0.8813
vn 0.0538 0.7458 -0.6640
vn -0.3209 -0.8104 -0.4902
vn -0.1794 -0.8756 0.4485
vn -0.1896 -0.0619 -0.9799
vn 0.2571 0.9563 0.1391
vn -0.2929 -0.9552 -0.0438
vn 0.2727 0.4279 0.8617
vn 0.2207 0.8121 0.5402
vn -0.1874 -0.6524 -0.7344
vn -0.2701 -0.4676 -0.8417
vn 0.0731 -0.0242 0.9970
vn 0.1907 0.8110 -0.5530
vn -0.1873 -0.9517 -0.2434
vn 0.0311 0.4682 -0.8831
vn 0.0827 0.3706 0.9251
vn -0.1850 -0.7140 0.6753
vn -0.2205 -0.3882 0.8948
vn -0.0087 -0.0824 -0.9966
vn 0.1059 0.6195 0.7778
vn -0.0569 0.1312 0.9897
vn 0.1326 0.9903 0.0409
vn -0.1528 -0.9793 0.1329
vn 0.1502 0.3927 -0.9073
vn 0.1390 0.8699 0.4732
vn 0.0346 -0.6987 -0.7146
vn 0.0366 -0.3178 -0.9474
vn -0.0659 0.5624 0.8242
vn -0.2131 -0.0748 0.9742
vn -0.2458 -0.7627 0.5982
vn -0.1829 0.3416 0.9219
vn 0.1879 0.0038 -0.9822
vn -0.0782 0.7286 0.6804
vn -0.0410 -0.9485 -0.3141
vn -0.3209 -0.4063 0.8555
vn 0.2736 0.1899 -0.9429
vn 0.2309 0.6061 -0.7611
vn 0.4431 0.8642 -0.2385
vn 0.1248 -0.6789 -0.7236
vn 0.2236 -0.2980 -0.9280
vn -0.2422 0.2796 0.9291
vn 0.4643 0.2660 -0.8448
vn 0.1633 0.8293 0.5344
vn 0.3140 -0.8847 -0.3444
vn 0.4046 0.6761 -0.6158
vn -0.0536 -0.9063 0.4193
vn 0.4106 -0.6208 -0.6679
vn -0.0719 0.5383 0.8397
vn 0.0591 -0.9971 -0.0484
vn -0.0690 -0.6377 0.7672
vn -0.0981 -0.2872 0.9528
vn 0.0091 0.1323 0.9912
vn 0.3346 -0.9190 0.2086
vn 0.7398 -0.5859 0.3309
vn 0.3495 -0.7023 0.6201
vn 0.3609 -0.2080 0.9091
vn 0.6375 -0.3870 0.6662
vn 0.5227 -0.1659 -0.8362
vn 0.4066 0.4085 0.8172
vn 0.5473 0.7515 0.3683
vn 0.2237 0.9698 0.0973
vn 0.7361 -0.6592 -0.1539
vn 0.8466 -0.3619 -0.3903
vn 0.8513 -0.0500 -0.5223
vn 0.9787 -0.1147 0.1703
vn 0.7958 -0.0356 0.6045
vn 0.7995 0.3953 0.4523
vn 0.8047 0.5919 -0.0454
vn 0.7701 0.3996 -0.4973
vn 0.9693 0.2159 -0.1175
usemtl mtl1
s 1
f 2//1 3//2 1//3
f 1//3 3//2 16//4
f 5//5 2//1 4//6
f 1//3 7//7 6//8
f 1//3 8//9 7//7
f 6//8 2//1 1//3
f 7//7 9//10 6//8
f 7//7 10//11 9//10
f 6//8 4//6 2//1
f 7//7 8//9 10//11
f 9//10 4//6 6//8
f 10//11 11//12 9//10
f 4//6 9//10 12//13
f 10//11 13//14 14//15
f 9//10 11//12 12//13
f 13//14 12//13 14//15
f 13//14 10//11 8//9
f 13//14 8//9 15//16
f 17//17 4//6 12//13
f 4//6 18//18 5//5
f 15//16 1//3 16//4
f 8//9 1//3 15//16
f 5//5 3//2 2//1
f 4//6 17//17 18//18
f 19//19 18//18 17//17
f 20//20 13//14 15//16
f 13//14 17//17 12//13
f 16//4 21//21 15//16
f 20//20 15//16 22//22
f 13//14 20//20 17//17
f 17//17 20//20 19//19
f 3//2 5//5 23//23
f 3//2 21//21 16//4
f 22//22 15//16 21//21
f 24//24 21//21 3//2
f 25//25 23//23 5//5
f 25//25 5//5 18//18
f 18//18 19//19 26//26
f 20//20 27//27 19//19
f 3//2 28//28 24//24
f 21//21 24//24 29//29
f 29//29 22//22 21//21
f 25//25 18//18 26//26
f 27//27 30//30 19//19
f 3//2 23//23 28//28
f 23//23 25//25 32//31
f 32//31 25//25 31//32
f 22//22 33//33 20//20
f 33//33 22//22 29//29
f 34//34 28//28 23//23
f 35//35 24//24 28//28
f 36//36 33//33 29//29
f 35//35 29//29 24//24
f 31//32 25//25 26//26
f 27//27 26//26 30//30
f 34//34 23//23 32//31
f 29//29 35//35 36//36
f 36//36 37//37 33//33
f 38//38 32//31 31//32
f 39//39 31//32 26//26
f 38//38 31//32 39//39
f 20//20 33//33 27//27
f 40//40 39//39 27//27
f 41//41 35//35 28//28
f 39//39 26//26 27//27
f 33//33 40//40 27//27
f 40//40 33//33 37//37
f 28//28 34//34 41//41
f 43//42 35//35 41//41
f 36//36 35//35 37//37
f 38//38 44//43 32//31
f 45//44 38//38 39//39
f 34//34 32//31 42//45
f 37//37 35//35 43//42
f 32//31 44//43 42//45
f 46//46 45//44 39//39
f 47//47 39//39 40//40
f 40//40 37//37 48//48
f 46//46 39//39 47//47
f 49//49 34//34 42//45
f 34//34 49//49 41//41
f 43//42 41//41 49//49
f 50//50 37//37 43//42
f 37//37 50//50 48//48
f 42//45 44//43 51//51
f 48//48 52//52 40//40
f 45//44 46//46 53//53
f 52//52 47//47 40//40
f 53//53 46//46 47//47
f 49//49 54//54 43//42
f 43//42 54//54 50//50
f 51//51 44//43 55//55
f 55//55 45//44 53//53
f 56//56 54//54 49//49
f 57//57 42//45 51//51
f 58//58 50//50 54//54
f 55//55 53//53 59//59
f 52//52 48//48 60//60
f 49//49 42//45 57//57
f 55//55 62//61 51//51
f 57//57 51//51 62//61
f 53//53 47//47 63//62
f 63//62 59//59 53//53
f 60//60 47//47 52//52
f 60//60 63//62 47//47
f 65//63 60//60 48//48
f 61//64 66//65 56//56
f 61//64 56//56 49//49
f 54//54 56//56 58//58
f 61//64 49//49 57//57
f 50//50 65//63 48//48
f 62//61 55//55 59//59
f 65//63 67//66 60//60
f 61//64 57//57 68//67
f 64//68 50//50 58//58
f 65//63 50//50 64//68
f 62//61 69//69 57//57
f 67//66 65//63 70//70
f 66//65 71//71 56//56
f 61//64 68//67 66//65
f 71//71 66//65 72//72
f 71//71 58//58 56//56
f 65//63 64//68 70//70
f 68//67 57//57 69//69
f 73//73 68//67 69//69
f 74//74 59//59 63//62
f 67//66 63//62 60//60
f 66//65 68//67 75//75
f 71//71 76//76 58//58
f 62//61 59//59 69//69
f 72//72 66//65 75//75
f 72//72 76//76 71//71
f 78//77 64//68 58//58
f 69//69 59//59 79//78
f 70//70 64//68 78//77
f 59//59 74//74 79//78
f 80//79 74//74 63//62
f 67//66 80//79 63//62
f 77//80 80//79 67//66
f 76//76 78//77 58//58
f 68//67 73//73 75//75
f 79//78 74//74 81//81
f 81//81 74//74 80//79
f 81//81 80//79 83//82
f 83//82 80//79 77//80
f 75//75 85//83 72//72
f 86//84 82//85 76//76
f 87//86 78//77 82//85
f 76//76 82//85 78//77
f 73//73 69//69 79//78
f 73//73 79//78 88//87
f 88//87 79//78 81//81
f 89//88 81//81 83//82
f 72//72 85//83 86//84
f 90//89 86//84 85//83
f 86//84 76//76 72//72
f 85//83 75//75 84//90
f 78//77 87//86 70//70
f 70//70 91//91 67//66
f 67//66 91//91 77//80
f 88//87 81//81 89//88
f 90//89 85//83 92//92
f 93//93 82//85 86//84
f 73//73 84//90 75//75
f 70//70 87//86 91//91
f 73//73 88//87 94//94
f 88//87 95//95 94//94
f 96//96 83//82 77//80
f 89//88 95//95 88//87
f 96//96 97//97 83//82
f 82//85 93//93 87//86
f 83//82 97//97 89//88
f 92//92 85//83 84//90
f 86//84 90//89 93//93
f 94//94 84//90 73//73
f 87//86 99//98 91//91
f 98//99 94//94 95//95
f 100//100 95//95 89//88
f 100//100 89//88 97//97
f 93//93 90//89 101//101
f 87//86 93//93 99//98
f 98//99 95//95 100//100
f 102//102 100//100 97//97
f 91//91 96//96 77//80
f 103//103 93//93 101//101
f 99//98 93//93 104//104
f 104//104 91//91 99//98
f 98//99 84//90 94//94
f 105//105 96//96 91//91
f 106//106 92//92 84//90
f 93//93 103//103 107//107
f 107//107 104//104 93//93
f 108//108 84//90 98//99
f 98//99 100//100 109//109
f 105//105 91//91 104//104
f 110//110 109//109 100//100
f 102//102 110//110 100//100
f 111//111 92//92 106//106
f 101//101 90//89 112//112
f 108//108 106//106 84//90
f 113//113 106//106 108//108
f 109//109 108//108 98//99
f 96//96 105//105 114//114
f 96//96 114//114 97//97
f 90//89 92//92 115//115
f 115//115 92//92 111//111
f 107//107 116//116 104//104
f 109//109 113//113 108//108
f 116//116 105//105 104//104
f 117//117 114//114 105//105
f 111//111 106//106 118//118
f 115//115 112//112 90//89
f 119//119 106//106 113//113
f 118//118 106//106 119//119
f 120//120 107//107 103//103
f 116//116 117//117 105//105
f 110//110 102//102 121//121
f 114//114 102//102 97//97
f 115//115 111//111 122//122
f 112//112 103//103 101//101
f 123//123 113//113 109//109
f 116//116 107//107 120//120
f 124//124 116//116 120//120
f 109//109 110//110 123//123
f 115//115 122//122 112//112
f 125//125 103//103 112//112
f 120//120 103//103 125//125
f 125//125 126//126 120//120
f 118//118 119//119 113//113
f 127//127 118//118 113//113
f 116//116 124//124 128//128
f 121//121 123//123 110//110
f 128//128 117//117 116//116
f 114//114 121//121 102//102
f 111//111 118//118 122//122
f 129//129 124//124 120//120
f 123//123 127//127 113//113
f 121//121 114//114 130//130
f 131//131 112//112 122//122
f 129//129 120//120 126//126
f 123//123 132//132 127//127
f 132//132 123//123 121//121
f 114//114 117//117 133//133
f 114//114 133//133 130//130
f 125//125 112//112 131//131
f 134//134 122//122 118//118
f 135//135 118//118 127//127
f 128//128 133//133 117//117
f 136//136 128//128 124//124
f 134//134 118//118 135//135
f 126//126 137//137 129//129
f 124//124 129//129 136//136
f 136//136 133//133 128//128
f 138//138 126//126 125//125
f 136//136 129//129 139//139
f 140//140 135//135 127//127
f 132//132 140//140 127//127
f 136//136 141//141 133//133
f 141//141 130//130 133//133
f 122//122 134//134 142//142
f 131//131 122//122 142//142
f 143//143 126//126 138//138
f 139//139 129//129 137//137
f 140//140 134//134 135//135
f 139//139 141//141 136//136
f 140//140 132//132 145//144
f 132//132 121//121 146//145
f 132//132 146//145 145//144
f 130//130 175//146 121//121
f 134//134 147//147 142//142
f 131//131 138//138 125//125
f 140//140 148//148 134//134
f 139//139 137//137 144//149
f 148//148 140//140 145//144
f 145//144 146//145 149//150
f 150//151 130//130 141//141
f 151//152 142//142 147//147
f 126//126 143//143 137//137
f 152//153 146//145 121//121
f 149//150 146//145 152//153
f 148//148 147//147 134//134
f 144//149 141//141 139//139
f 153//154 138//138 131//131
f 154//155 147//147 148//148
f 147//147 154//155 151//152
f 155//156 141//141 144//149
f 156//157 142//142 151//152
f 142//142 156//157 131//131
f 138//138 157//158 143//143
f 157//158 138//138 153//154
f 157//158 158//159 143//143
f 137//137 143//143 158//159
f 158//159 144//149 137//137
f 158//159 159//160 144//149
f 159//160 155//156 144//149
f 156//157 151//152 160//161
f 156//157 153//154 131//131
f 156//157 160//161 153//154
f 161//162 162//163 160//161
f 157//158 163//164 158//159
f 157//158 162//163 163//164
f 162//163 157//158 153//154
f 160//161 162//163 153//154
f 164//165 163//164 162//163
f 163//164 159//160 158//159
f 166//166 154//155 148//148
f 166//166 148//148 145//144
f 145//144 149//150 166//166
f 159//160 167//167 155//156
f 150//151 141//141 155//156
f 155//156 167//167 150//151
f 167//167 168//168 150//151
f 130//130 169//169 175//146
f 130//130 150//151 169//169
f 160//161 151//152 170//170
f 160//161 170//170 161//162
f 162//163 161//162 164//165
f 154//155 166//166 171//171
f 154//155 171//171 170//170
f 154//155 170//170 151//152
f 171//171 166//166 172//172
f 173//173 161//162 170//170
f 164//165 165//174 163//164
f 161//162 165//174 164//165
f 173//173 165//174 161//162
f 149//150 172//172 166//166
f 163//164 167//167 159//160
f 163//164 165//174 167//167
f 165//174 174//175 167//167
f 168//168 169//169 150//151
f 169//169 168//168 175//146
f 176//176 175//146 168//168
f 174//175 176//176 168//168
f 174//175 168//168 167//167
f 175//146 152//153 121//121
f 175//146 177//177 152//153
f 171//171 173//173 170//170
f 172//172 178//178 171//171
f 171//171 178//178 173//173
f 177//177 172//172 149//150
f 152//153 177//177 149//150
f 172//172 177//177 178//178
f 165//174 173//173 174//175
f 178//178 176//176 174//175
f 174//175 173//173 178//178
f 176//176 177//177 175//146
f 176//176 178//178 177//177
