# Blender v2.77 (sub 0) OBJ File: ''
# www.blender.org
mtllib anterior division of left renal artery.mtl
o grp1.008
v 28.637207 -109.897263 1040.020752
v 28.187943 -109.407089 1040.325195
v 28.502716 -109.826462 1040.871826
v 28.316467 -109.518234 1041.158691
v 28.057747 -109.095627 1040.821411
v 28.290039 -109.227219 1039.640625
v 28.753906 -109.768723 1039.555664
v 28.312012 -108.633224 1039.313477
v 28.804688 -109.286301 1039.039062
v 27.972778 -108.449844 1040.136475
v 27.957458 -108.255035 1040.776001
v 30.031738 -110.109543 1039.574219
v 29.479095 -110.300430 1040.201782
v 29.458496 -110.070969 1039.516602
v 29.712738 -110.322800 1041.035156
v 29.033356 -110.201279 1040.756348
v 29.029297 -110.039719 1041.394531
v 28.932129 -109.804367 1041.798828
v 29.735535 -110.048019 1041.830078
v 29.349121 -109.830246 1042.039062
v 29.281250 -109.490402 1038.905273
v 28.108887 -108.757248 1041.423340
v 28.545898 -109.037216 1042.066406
v 29.324219 -108.800949 1038.558594
v 28.857422 -108.330734 1038.735352
v 28.138184 -108.032150 1041.509766
v 28.577148 -108.164719 1042.309570
v 28.754883 -107.920090 1038.872070
v 28.228516 -107.928879 1039.542969
v 28.327148 -107.244797 1039.895508
v 28.115372 -107.482666 1040.789673
v 28.420410 -107.327316 1041.647461
v 28.716797 -107.205246 1039.219727
v 28.385612 -106.953354 1040.472412
v 30.651184 -110.140854 1040.137817
v 30.730415 -109.918137 1039.606445
v 30.135994 -110.326660 1040.502686
v 30.639587 -110.146164 1041.247559
v 29.634766 -109.519699 1042.453125
v 30.466064 -109.628098 1042.321289
v 29.031250 -109.007980 1042.537109
v 29.774414 -108.654465 1042.964600
v 30.168678 -109.574387 1038.892578
v 30.842163 -109.504074 1039.093750
v 29.511719 -108.255295 1042.955566
v 29.995117 -108.869308 1038.476074
v 29.022461 -107.164230 1042.417969
v 29.800537 -107.791183 1038.384277
v 30.482422 -108.320969 1038.410156
v 28.936035 -106.717941 1041.916016
v 29.618164 -107.201340 1038.610352
v 28.601013 -106.683365 1041.057373
v 28.951904 -106.303879 1040.289795
v 29.028198 -106.288094 1041.220093
v 29.212524 -106.375656 1039.581055
v 30.718628 -109.965012 1041.619141
v 31.654053 -109.603317 1040.460693
v 30.214600 -109.101730 1042.795898
v 29.349609 -107.548996 1042.790039
v 30.680176 -108.852707 1038.571777
v 39.750000 -101.718918 1040.625000
v 40.500000 -101.937668 1040.773438
v 29.464630 -106.761887 1038.968750
v 39.625000 -101.187668 1040.750000
v 35.074551 -103.025665 1040.570068
v 35.939751 -102.182175 1041.354980
v 35.250000 -105.875168 1043.242188
v 34.968750 -105.062668 1043.470703
v 33.794750 -104.870667 1043.225098
v 34.524300 -103.761673 1043.010010
v 36.181641 -101.975754 1042.084473
v 36.991150 -105.896164 1042.044922
v 38.869629 -104.644699 1041.840942
v 35.309299 -106.367165 1042.869995
v 41.695312 -102.457199 1043.146484
v 37.791351 -104.688171 1040.494995
v 39.003799 -103.370667 1040.544922
v 37.259003 -105.482162 1040.839966
v 36.062500 -103.343918 1043.488281
v 39.016998 -102.156166 1044.050049
v 37.851562 -101.371262 1043.250000
v 40.550781 -99.250168 1042.396484
v 39.572350 -103.908173 1041.415039
v 40.833900 -99.472168 1041.719971
v 42.109398 -101.656174 1043.869995
v 41.968002 -101.369171 1044.175049
v 40.335850 -103.061668 1041.244995
v 40.015625 -100.437668 1044.048828
v 46.250000 -96.000168 1043.000000
v 39.691406 -99.844894 1043.128906
v 40.636951 -102.529175 1041.109985
v 42.015625 -101.972824 1041.900391
v 41.593750 -100.906418 1044.445312
v 41.851562 -98.453293 1043.929688
v 41.933800 -98.466469 1042.319946
v 40.265625 -99.382004 1042.616211
v 46.125000 -97.625168 1045.390625
v 43.625000 -99.265793 1041.765625
v 42.690300 -100.743164 1041.599976
v 44.437500 -97.937668 1042.156250
v 42.939949 -100.854172 1041.840088
v 42.906250 -98.922043 1044.835938
v 42.365234 -101.853683 1042.121094
v 44.687500 -99.156418 1042.289062
v 43.957031 -100.636887 1043.441895
v 45.292801 -99.003571 1044.630005
v 44.406250 -97.211105 1045.179688
v 42.934570 -97.424973 1043.498291
v 44.494999 -96.680069 1042.925049
v 44.780300 -99.769516 1042.994995
v 45.331947 -99.168320 1044.360107
v 46.484375 -96.265793 1045.906250
v 44.769531 -96.050949 1044.701172
v 47.152344 -97.324387 1043.603516
v 46.521484 -98.227707 1043.858398
v 45.404297 -95.582199 1043.658203
v 47.312500 -95.937668 1043.296875
v 45.515800 -98.329369 1042.609985
v 45.944050 -97.674911 1042.734985
v 45.328125 -96.062668 1045.371094
v 45.394531 -95.346848 1044.291504
v 47.792969 -96.773605 1045.076172
v 48.644043 -95.928879 1045.089844
v 46.696301 -97.622269 1045.109985
v 47.376701 -93.898468 1044.275024
v 48.640625 -95.906418 1044.710938
v 47.953125 -95.968918 1043.773438
v 46.742188 -94.851730 1045.953125
v 49.764648 -91.795319 1045.195068
v 46.870117 -93.938644 1045.028320
v 48.854347 -95.085365 1046.130005
v 49.562500 -92.906418 1044.640625
v 47.562500 -93.412277 1045.974609
v 49.563477 -94.763840 1045.193359
v 51.530998 -91.408020 1047.764893
v 48.561649 -95.553513 1044.195068
v 48.152344 -92.613449 1045.944336
v 48.075550 -92.754013 1045.239990
v 49.938850 -93.915817 1045.020020
v 54.335938 -88.097824 1049.138672
v 49.781250 -93.343918 1044.687500
v 49.916748 -93.673874 1044.879883
v 49.421875 -92.156418 1047.273438
v 50.281250 -92.062668 1047.578125
v 50.737400 -90.250320 1046.104980
v 52.437500 -89.000168 1046.718750
v 52.722656 -87.414230 1048.179688
v 53.031250 -89.828293 1047.078125
v 54.259766 -88.461105 1048.619141
v 54.640625 -87.593918 1048.156250
v 54.437500 -87.375168 1048.000000
v 53.265625 -87.234543 1047.875000
v 53.437500 -88.906418 1048.953125
v 53.562500 -87.281418 1047.750000
v 53.382812 -86.711105 1048.997070
v 55.625000 -85.156418 1050.687500
v 55.875000 -85.156418 1050.812500
v 55.093750 -86.906418 1049.992188
v 53.992249 -86.542923 1049.704956
v 54.171875 -85.937668 1049.035156
v 55.621094 -84.730637 1050.445312
v 56.290527 -86.100266 1049.782715
v 57.296875 -83.734543 1050.210938
v 56.257812 -84.250168 1049.960938
v 55.833984 -84.441574 1050.095703
v 57.734375 -84.250168 1050.250000
v 57.835938 -84.320480 1051.476562
v 57.070312 -85.291183 1050.573242
v 57.511719 -84.734543 1050.253906
v 56.718750 -84.062668 1051.171875
v 57.044922 -83.564621 1051.106445
v 57.500000 -84.187668 1050.062500
v 58.217773 -84.356613 1051.024414
v 57.654297 -83.128098 1051.033203
v 58.687500 -82.797043 1052.140625
v 59.367188 -83.433762 1051.382812
v 61.333984 -82.171310 1052.851074
v 61.004395 -81.819992 1053.158691
v 60.433594 -81.552902 1052.616211
v 61.448975 -82.071701 1052.482178
v 61.450684 -81.750412 1052.334961
v 61.312744 -81.980148 1053.090820
v 60.841797 -81.426437 1052.314941
v 61.353027 -81.479050 1052.350586
v 60.998047 -81.442062 1053.052002
v 61.578384 -81.900703 1052.709473
v 61.342041 -81.697372 1053.103271
v 61.034454 -81.264862 1052.698608
v 61.559372 -81.612778 1052.600098
v 61.317993 -81.365677 1052.840820
vn -0.6942 -0.7120 0.1050
vn -0.8077 -0.5187 0.2804
vn -0.8829 -0.4538 -0.1207
vn -0.6091 -0.7587 -0.2311
vn -0.8396 -0.3704 -0.3974
vn -0.5491 -0.6899 -0.4716
vn -0.8278 -0.0973 -0.5524
vn -0.5633 -0.4209 -0.7110
vn -0.9824 -0.0053 -0.1868
vn -0.9531 -0.2882 0.0926
vn -0.9950 0.0633 0.0777
vn -0.1657 -0.9716 -0.1689
vn -0.1900 -0.8611 -0.4716
vn 0.1175 -0.8893 -0.4420
vn -0.0469 -0.9819 0.1834
vn -0.4018 -0.9132 0.0680
vn -0.4167 -0.8551 0.3084
vn -0.5120 -0.7008 0.4967
vn -0.2896 -0.7346 0.6136
vn -0.0429 -0.8854 0.4628
vn -0.2501 -0.5891 -0.7684
vn -0.9190 -0.1605 0.3602
vn -0.7375 -0.3311 0.5886
vn -0.3042 -0.2385 -0.9223
vn -0.5530 -0.0079 -0.8331
vn -0.9232 0.1468 0.3553
vn -0.7420 0.0512 0.6684
vn -0.6358 0.1906 -0.7479
vn -0.8851 0.1810 -0.4288
vn -0.8595 0.4283 -0.2790
vn -0.9397 0.3377 0.0542
vn -0.8361 0.3721 0.4031
vn -0.6700 0.4526 -0.5885
vn -0.8376 0.5419 -0.0687
vn 0.4029 -0.8079 -0.4300
vn 0.3761 -0.9114 -0.1674
vn 0.1566 -0.9860 -0.0582
vn 0.3434 -0.9147 0.2129
vn -0.1856 -0.6240 0.7591
vn -0.5101 -0.3507 0.7853
vn -0.1414 -0.2615 0.9548
vn 0.1111 -0.6518 -0.7502
vn -0.3487 -0.0140 0.9371
vn -0.0094 -0.3144 -0.9493
vn -0.1593 0.1234 -0.9795
vn 0.1579 -0.0798 -0.9842
vn 0.3005 -0.3857 -0.8723
vn -0.5916 0.4156 0.6908
vn -0.2857 0.4057 -0.8682
vn -0.3886 0.5920 -0.7061
vn -0.7810 0.6019 0.1666
vn -0.6308 0.7622 -0.1452
vn -0.6319 0.6031 0.4868
vn -0.6021 0.7689 0.2151
vn -0.5319 0.7250 -0.4376
vn 0.3424 -0.8478 0.4051
vn 0.2255 -0.7221 0.6540
vn 0.5675 -0.8163 -0.1081
vn 0.0648 -0.4946 0.8667
vn 0.4111 -0.6506 -0.6385
vn -0.4154 0.2449 0.8760
vn 0.1544 0.1445 -0.9774
vn 0.3623 -0.1272 -0.9233
vn -0.0273 0.4094 -0.9119
vn -0.0498 -0.0706 0.9963
vn -0.2610 0.2651 0.9282
vn -0.3891 0.4481 0.8048
vn -0.4685 0.8468 -0.2519
vn -0.5220 0.8387 0.1553
vn 0.5320 -0.8167 0.2237
vn 0.3433 -0.6321 0.6947
vn 0.5590 -0.7830 0.2728
vn -0.3430 0.7566 -0.5567
vn 0.1820 -0.4125 0.8926
vn 0.5078 -0.5059 -0.6973
vn 0.4401 -0.3480 -0.8278
vn 0.5746 -0.6920 -0.4370
vn 0.6008 -0.7944 -0.0888
vn -0.2997 0.2987 0.9061
vn -0.1625 -0.0138 0.9866
vn -0.5167 0.6407 0.5679
vn -0.4775 0.8246 -0.3035
vn 0.5926 -0.6869 -0.4207
vn 0.4107 -0.6631 0.6259
vn -0.3416 0.7328 -0.5884
vn 0.2537 -0.4868 0.8358
vn 0.5628 -0.5554 -0.6122
vn -0.4033 0.3614 0.8407
vn 0.0486 0.3999 -0.9153
vn -0.5719 0.7890 0.2246
vn 0.5161 -0.4152 -0.7492
vn 0.5757 -0.5356 -0.6178
vn 0.6530 -0.6660 -0.3607
vn 0.0140 -0.2713 0.9624
vn -0.5852 0.6713 0.4549
vn -0.4336 0.7563 -0.4898
vn -0.5427 0.8383 -0.0527
vn 0.4926 -0.2914 -0.8200
vn 0.3340 0.0075 -0.9425
vn 0.1751 0.2454 -0.9535
vn 0.2010 -0.4920 0.8471
vn 0.6059 -0.4713 -0.6410
vn -0.3010 0.0525 0.9522
vn -0.6193 0.7822 0.0680
vn 0.6433 -0.7573 0.1120
vn 0.5816 -0.3306 -0.7433
vn 0.4276 -0.6695 0.6074
vn -0.4859 0.3126 0.8162
vn -0.2667 0.6797 -0.6833
vn 0.5865 -0.7304 0.3502
vn 0.6910 -0.6340 -0.3472
vn -0.2150 -0.1402 0.9665
vn 0.7197 -0.4566 -0.5230
vn 0.7203 -0.6881 -0.0872
vn -0.6841 0.6186 0.3863
vn -0.5268 0.7564 -0.3877
vn 0.4458 0.0232 -0.8948
vn 0.5810 -0.2858 -0.7621
vn 0.5117 -0.1408 -0.8475
vn -0.6409 0.7637 -0.0781
vn 0.6366 -0.6931 0.3382
vn 0.7358 -0.6622 0.1418
vn 0.4733 -0.6634 0.5795
vn -0.6458 0.4181 0.6388
vn 0.7881 -0.5656 -0.2430
vn 0.6254 -0.2204 -0.7486
vn -0.0984 0.5334 -0.8401
vn -0.3801 0.6859 -0.6205
vn 0.4686 -0.6232 0.6262
vn 0.2569 0.2916 -0.9214
vn -0.7399 0.5186 0.4285
vn -0.7114 0.7026 0.0166
vn -0.5306 0.1755 0.8292
vn 0.8180 -0.5421 -0.1921
vn 0.1880 -0.5156 0.8359
vn 0.7274 -0.3412 -0.5953
vn -0.7551 0.6511 0.0766
vn -0.6303 0.7298 -0.2648
vn 0.7956 -0.3606 -0.4869
vn 0.5381 -0.6863 0.4893
vn 0.5560 -0.0220 -0.8309
vn 0.7063 -0.2152 -0.6744
vn -0.4858 0.0418 0.8730
vn -0.0602 -0.3498 0.9349
vn -0.3112 0.6434 -0.6994
vn 0.1628 0.3978 -0.9029
vn -0.6630 0.7208 -0.2024
vn 0.8060 -0.3418 -0.4833
vn 0.7199 -0.6718 0.1746
vn 0.7262 -0.2278 -0.6486
vn 0.5542 0.0741 -0.8291
vn -0.3505 0.7122 -0.6082
vn 0.4165 -0.6437 0.6420
vn 0.0111 0.5702 -0.8215
vn -0.7588 0.5927 0.2700
vn -0.5728 0.1730 0.8012
vn -0.2880 -0.1864 0.9393
vn 0.2274 -0.5837 0.7795
vn -0.6857 0.3238 0.6519
vn -0.5750 0.7823 -0.2394
vn 0.7479 -0.6607 -0.0639
vn -0.0267 0.6726 -0.7395
vn -0.7081 0.5678 0.4198
vn -0.3214 0.7895 -0.5229
vn -0.5963 0.7949 -0.1115
vn 0.5484 -0.7664 0.3346
vn 0.7443 -0.3996 -0.5351
vn 0.6282 -0.2100 -0.7492
vn -0.5923 0.3337 0.7334
vn 0.4444 0.1954 -0.8743
vn -0.6254 0.7079 0.3283
vn 0.5895 -0.8070 0.0363
vn 0.1960 -0.6497 0.7345
vn -0.4354 0.8834 -0.1731
vn -0.5473 0.3511 0.7598
vn 0.6637 -0.6407 -0.3861
vn 0.5802 -0.7379 0.3447
vn -0.1246 -0.0178 0.9920
vn -0.5047 0.8242 0.2570
vn 0.7749 -0.5434 -0.3229
vn 0.7420 0.0247 -0.6700
vn 0.4654 -0.3944 0.7924
vn -0.0903 0.8365 -0.5405
vn 0.4911 0.6450 -0.5855
vn -0.1643 0.6225 0.7652
vn 0.9709 -0.2013 0.1294
vn 0.5765 0.2125 0.7890
vn -0.0294 0.9983 0.0505
vn 0.5220 0.7830 0.3383
vn 0.9310 0.3545 -0.0873
usemtl mtl1.008
s 1
f 3//1 4//2 2//3
f 3//1 2//3 1//4
f 6//5 7//6 1//4
f 8//7 9//8 6//5
f 2//3 6//5 1//4
f 6//5 2//3 10//9
f 2//3 5//10 10//9
f 4//2 5//10 2//3
f 11//11 10//9 5//10
f 6//5 10//9 8//7
f 13//12 14//13 12//14
f 15//15 16//16 13//12
f 16//16 17//17 3//1
f 17//17 18//18 3//1
f 20//19 17//17 19//20
f 18//18 17//17 20//19
f 7//6 21//21 14//13
f 7//6 14//13 1//4
f 16//16 1//4 13//12
f 13//12 1//4 14//13
f 1//4 16//16 3//1
f 4//2 22//22 5//10
f 4//2 3//1 18//18
f 18//18 23//23 4//2
f 4//2 23//23 22//22
f 9//8 21//21 7//6
f 21//21 9//8 24//24
f 24//24 9//8 25//25
f 7//6 6//5 9//8
f 22//22 11//11 5//10
f 26//26 11//11 22//22
f 26//26 22//22 27//27
f 8//7 25//25 9//8
f 28//28 25//25 8//7
f 29//29 28//28 8//7
f 29//29 8//7 10//9
f 29//29 10//9 30//30
f 10//9 11//11 31//31
f 31//31 30//30 10//9
f 11//11 26//26 31//31
f 31//31 26//26 32//32
f 28//28 29//29 33//33
f 33//33 29//29 30//30
f 30//30 31//31 34//34
f 12//14 36//35 35//36
f 13//12 37//37 15//15
f 37//37 13//12 12//14
f 35//36 37//37 12//14
f 37//37 38//38 15//15
f 16//16 15//15 17//17
f 19//20 17//17 15//15
f 39//39 18//18 20//19
f 39//39 41//40 18//18
f 42//41 41//40 39//39
f 12//14 14//13 43//42
f 36//35 12//14 43//42
f 23//23 18//18 41//40
f 23//23 41//40 27//27
f 27//27 41//40 45//43
f 43//42 21//21 46//44
f 43//42 14//13 21//21
f 24//24 46//44 21//21
f 23//23 27//27 22//22
f 48//45 49//46 46//44
f 60//47 46//44 49//46
f 24//24 25//25 48//45
f 46//44 24//24 48//45
f 32//32 26//26 27//27
f 47//48 32//32 27//27
f 48//45 28//28 51//49
f 48//45 25//25 28//28
f 33//33 51//49 28//28
f 63//50 51//49 33//33
f 34//34 31//31 52//51
f 30//30 34//34 53//52
f 34//34 52//51 53//52
f 31//31 32//32 52//51
f 52//51 32//32 50//53
f 52//51 54//54 53//52
f 63//50 33//33 55//55
f 33//33 30//30 55//55
f 30//30 53//52 55//55
f 15//15 38//38 19//20
f 38//38 56//56 19//20
f 56//56 40//57 19//20
f 36//35 57//58 35//36
f 38//38 37//37 35//36
f 57//58 38//38 35//36
f 40//57 39//39 19//20
f 19//20 39//39 20//19
f 58//59 42//41 39//39
f 39//39 40//57 58//59
f 44//60 36//35 43//42
f 42//41 45//43 41//40
f 45//43 59//61 27//27
f 60//47 44//60 43//42
f 60//47 43//42 46//44
f 59//61 47//48 27//27
f 48//45 61//62 49//46
f 50//53 32//32 47//48
f 62//63 49//46 61//62
f 64//64 48//45 51//49
f 48//45 64//64 61//62
f 52//51 50//53 54//54
f 68//65 45//43 42//41
f 68//65 69//66 45//43
f 70//67 47//48 59//61
f 45//43 69//66 59//61
f 55//55 53//52 66//68
f 54//54 71//69 53//52
f 71//69 66//68 53//52
f 57//58 72//70 38//38
f 56//56 38//38 72//70
f 69//66 70//67 59//61
f 74//71 58//59 40//57
f 56//56 75//72 40//57
f 42//41 58//59 68//65
f 65//73 63//50 55//55
f 74//71 67//74 58//59
f 60//47 76//75 44//60
f 60//47 49//46 62//63
f 70//67 50//53 47//48
f 75//72 74//71 40//57
f 76//75 60//47 77//76
f 77//76 60//47 62//63
f 51//49 63//50 65//73
f 36//35 78//77 57//58
f 78//77 36//35 44//60
f 57//58 78//77 73//78
f 75//72 56//56 72//70
f 68//65 58//59 67//74
f 79//79 69//66 68//65
f 54//54 50//53 71//69
f 65//73 55//55 66//68
f 67//74 80//80 68//65
f 78//77 44//60 76//75
f 79//79 70//67 69//66
f 71//69 50//53 81//81
f 65//73 66//68 82//82
f 78//77 83//83 73//78
f 73//78 72//70 57//58
f 70//67 81//81 50//53
f 75//72 85//84 74//71
f 79//79 68//65 80//80
f 70//67 79//79 81//81
f 84//85 65//73 82//82
f 65//73 84//85 51//49
f 85//84 86//86 74//71
f 86//86 67//74 74//71
f 87//87 83//83 78//77
f 87//87 78//77 76//75
f 88//88 81//81 79//79
f 64//64 51//49 89//89
f 81//81 90//90 71//69
f 91//91 76//75 77//76
f 73//78 75//72 72//70
f 92//92 83//83 87//87
f 103//93 73//78 83//83
f 76//75 91//91 87//87
f 92//92 103//93 83//83
f 88//88 79//79 80//80
f 89//89 51//49 84//85
f 67//74 93//94 80//80
f 62//63 91//91 77//76
f 81//81 94//95 90//90
f 84//85 82//82 95//96
f 82//82 66//68 96//97
f 96//97 66//68 71//69
f 96//97 71//69 90//90
f 73//78 103//93 75//72
f 93//94 67//74 86//86
f 62//63 99//98 91//91
f 99//98 62//63 98//99
f 100//100 64//64 89//89
f 61//62 98//99 62//63
f 86//86 97//101 93//94
f 101//102 87//87 91//91
f 92//92 87//87 101//102
f 102//103 88//88 80//80
f 101//102 91//91 99//98
f 64//64 100//100 61//62
f 100//100 98//99 61//62
f 88//88 94//95 81//81
f 96//97 90//90 108//104
f 92//92 101//102 103//93
f 75//72 103//93 105//105
f 99//98 98//99 104//106
f 90//90 94//95 108//104
f 106//107 85//84 75//72
f 99//98 104//106 101//102
f 93//94 102//103 80//80
f 94//95 88//88 107//108
f 107//108 88//88 102//103
f 82//82 96//97 108//104
f 84//85 95//96 109//109
f 75//72 111//110 106//107
f 111//110 75//72 105//105
f 106//107 86//86 85//84
f 104//106 103//93 101//102
f 110//111 103//93 104//106
f 93//94 97//101 112//112
f 93//94 112//112 102//103
f 89//89 84//85 109//109
f 103//93 110//111 105//105
f 114//113 110//111 104//106
f 114//113 115//114 110//111
f 107//108 113//115 94//95
f 95//96 82//82 116//116
f 116//116 82//82 108//104
f 108//104 94//95 113//115
f 110//111 115//114 105//105
f 117//117 98//99 100//100
f 109//109 95//96 116//116
f 104//106 118//118 114//113
f 119//119 114//113 118//118
f 98//99 119//119 104//106
f 118//118 104//106 119//119
f 117//117 119//119 98//99
f 121//120 116//116 108//104
f 108//104 113//115 121//120
f 111//110 105//105 122//121
f 105//105 115//114 122//121
f 115//114 123//122 122//121
f 106//107 97//101 86//86
f 111//110 124//123 106//107
f 112//112 107//108 102//103
f 100//100 89//89 117//117
f 120//124 113//115 107//108
f 124//123 111//110 122//121
f 124//123 97//101 106//107
f 115//114 126//125 123//122
f 119//119 127//126 114//113
f 127//126 119//119 117//117
f 129//127 89//89 109//109
f 129//127 109//109 125//128
f 126//125 115//114 114//113
f 124//123 131//129 97//101
f 89//89 132//130 117//117
f 133//131 113//115 120//124
f 130//132 121//120 113//115
f 133//131 130//132 113//115
f 120//124 128//133 133//131
f 125//128 109//109 116//116
f 116//116 121//120 130//132
f 126//125 134//134 123//122
f 131//129 135//135 97//101
f 124//123 122//121 131//129
f 127//126 136//136 114//113
f 107//108 128//133 120//124
f 112//112 128//133 107//108
f 132//130 89//89 129//127
f 137//137 130//132 133//131
f 126//125 114//113 136//136
f 116//116 130//132 138//138
f 125//128 116//116 138//138
f 139//139 126//125 136//136
f 122//121 140//140 131//129
f 123//122 140//140 122//121
f 117//117 141//141 127//126
f 142//142 136//136 127//126
f 141//141 142//142 127//126
f 141//141 117//117 132//130
f 128//133 143//143 133//131
f 140//140 135//135 131//129
f 139//139 136//136 142//142
f 97//101 135//135 144//144
f 112//112 97//101 144//144
f 143//143 128//133 112//112
f 143//143 112//112 144//144
f 145//145 129//127 125//128
f 137//137 138//138 130//132
f 139//139 134//134 126//125
f 129//127 146//146 132//130
f 138//138 137//137 147//147
f 148//148 134//134 139//139
f 142//142 148//148 139//139
f 134//134 149//149 123//122
f 149//149 134//134 148//148
f 142//142 141//141 150//150
f 141//141 151//151 150//150
f 132//130 151//151 141//141
f 150//150 148//148 142//142
f 145//145 125//128 152//152
f 152//152 125//128 138//138
f 153//153 144//144 135//135
f 154//154 129//127 145//145
f 146//146 129//127 154//154
f 152//152 138//138 147//147
f 132//130 146//146 151//151
f 154//154 145//145 152//152
f 137//137 155//155 147//147
f 155//155 137//137 133//131
f 123//122 149//149 140//140
f 140//140 153//153 135//135
f 156//156 143//143 157//157
f 144//144 153//153 158//158
f 157//157 144//144 158//158
f 157//157 143//143 144//144
f 159//159 143//143 156//156
f 159//159 133//131 143//143
f 147//147 155//155 160//160
f 159//159 155//155 133//131
f 160//160 152//152 147//147
f 148//148 150//150 162//161
f 149//149 148//148 162//161
f 163//162 154//154 152//152
f 156//156 161//163 159//159
f 161//163 155//155 159//159
f 152//152 160//160 164//164
f 160//160 155//155 165//165
f 164//164 160//160 165//165
f 149//149 162//161 140//140
f 140//140 158//158 153//153
f 155//155 161//163 165//165
f 168//166 140//140 162//161
f 168//166 158//158 140//140
f 151//151 169//167 150//150
f 169//167 151//151 166//168
f 161//163 156//156 170//169
f 163//162 146//146 154//154
f 152//152 164//164 163//162
f 162//161 150//150 169//167
f 151//151 172//170 166//168
f 146//146 172//170 151//151
f 172//170 146//146 163//162
f 171//171 165//165 161//163
f 162//161 173//172 168//166
f 158//158 168//166 167//173
f 173//172 162//161 169//167
f 167//173 157//157 158//158
f 171//171 161//163 170//169
f 164//164 165//165 174//174
f 174//174 165//165 171//171
f 175//175 170//169 156//156
f 157//157 175//175 156//156
f 163//162 164//164 174//174
f 175//175 171//171 170//169
f 176//176 173//172 169//167
f 176//176 169//167 166//168
f 173//172 167//173 168//166
f 173//172 177//177 167//173
f 157//157 167//173 178//178
f 157//157 178//178 175//175
f 171//171 179//179 174//174
f 175//175 179//179 171//171
f 173//172 176//176 177//177
f 166//168 180//180 176//176
f 181//181 180//180 166//168
f 178//178 167//173 182//182
f 163//162 174//174 183//183
f 172//170 181//181 166//168
f 163//162 184//184 172//170
f 184//184 163//162 183//183
f 184//184 181//181 172//170
f 183//183 174//174 179//179
f 185//185 179//179 175//175
f 167//173 177//177 182//182
f 178//178 185//185 175//175
f 176//176 180//180 177//177
f 181//181 186//186 180//180
f 186//186 182//182 177//177
f 180//180 186//186 177//177
f 182//182 187//187 178//178
f 183//183 179//179 188//188
f 179//179 185//185 188//188
f 185//185 190//189 188//188
f 188//188 184//184 183//183
f 187//187 185//185 178//178
f 187//187 182//182 186//186
f 186//186 189//190 187//187
f 189//190 186//186 181//181
f 190//189 185//185 187//187
f 181//181 184//184 189//190
f 184//184 190//189 189//190
f 190//189 184//184 188//188
f 187//187 189//190 190//189
