#
# The license for this database is specified in the Creative Commons Attribution-Share Alike 2.1 Japan. If you use data from this database, please be sure attribute this database as follows: "BodyParts3D, (c)  The Database Center for Life Science licensed under CC Attribution-Share Alike 2.1 Japan".
# http://dbarchive.biosciencedbc.jp/en/bodyparts3d/lic.html
#
#
# Compatibility version : 4.0
# File ID : FJ2978
# Representation ID : BP9666
# Build-up logic : FMA 3.0 part_of
# Concept ID : FMA68665
# English name : Anterior part of right apical segmental artery
# Bounds(mm): (-38.870400,-92.275800,1291.150000)-(-26.389800,-73.040600,1347.790000)
# Volume(cm3): 0.684300
#
v -38.8704 -73.7625 1346.44
v -38.6537 -74.3787 1346.3
v -38.4088 -74.1101 1345.89
v -38.4546 -73.7779 1346.03
v -38.1525 -73.2876 1346.2
v -38.1761 -73.0406 1346.6
v -37.8436 -73.066 1346.51
v -37.6297 -73.0734 1346.58
v -37.7761 -73.1082 1347.2
v -37.6668 -74.2821 1347.79
v -37.259 -73.2131 1346.73
v -37.4155 -73.3873 1347.53
v -37.3135 -74.3003 1347.56
v -38.7361 -74.6465 1346.78
v -38.6185 -74.6324 1347.05
v -37.9679 -75.0042 1346.83
v -37.6821 -74.5878 1347.67
v -35.4301 -75.0664 1342.01
v -36.5762 -74.1385 1344
v -36.1473 -75.3094 1343.15
v -35.437 -76.0362 1343.36
v -37.1466 -73.4013 1345.52
v -36.525 -74.3725 1346.76
v -36.6221 -75.3268 1346.03
v -35.7098 -75.3006 1345.49
v -33.5364 -75.8961 1337.55
v -33.6652 -76.7219 1338.14
v -35.1562 -74.5005 1342.12
v -34.7565 -75.7392 1340.75
v -34.2745 -75.1683 1340.09
v -34.071 -76.6103 1340.15
v -34.9382 -74.1971 1342.54
v -34.2843 -74.3808 1343.49
v -33.8537 -74.4361 1342.42
v -34.6328 -75.9851 1343.65
v -34.102 -75.5813 1343.61
v -33.9401 -74.9686 1343.48
v -32.6958 -77.5967 1331.34
v -32.4546 -76.3034 1332.72
v -32.2506 -75.6352 1335.2
v -31.6244 -75.6423 1336.12
v -31.2734 -77.3432 1336.53
v -33.3793 -74.9156 1339.35
v -32.9273 -74.8608 1339.6
v -32.3157 -77.2254 1338.73
v -31.2894 -76.1053 1337.19
v -31.2869 -76.7282 1337.43
v -32.723 -77.3473 1338.42
v -33.1376 -76.8438 1340.54
v -32.671 -74.974 1340.4
v -32.5729 -75.3346 1340.99
v -32.5393 -76.5637 1340.47
v -32.4153 -75.9632 1340.79
v -32.0847 -77.9628 1320.68
v -32.0996 -79.2521 1320.17
v -30.6204 -76.7368 1327.37
v -30.6367 -78.7452 1328.9
v -30.1643 -77.327 1330.27
v -30.1982 -77.6701 1330.55
v -30.6078 -76.6129 1332.91
v -30.5249 -77.1215 1333.65
v -31.8954 -78.4071 1332.12
v -30.6619 -77.4676 1333.99
v -31.4746 -77.9409 1335.06
v -33.3115 -88.2811 1292.7
v -33.2309 -90.9626 1294.63
v -33.0221 -90.0747 1295.88
v -32.3877 -83.524 1302.79
v -32.3826 -80.7639 1305.05
v -31.5845 -81.5285 1309.01
v -31.1429 -77.664 1311.27
v -32.1907 -78.6516 1314.53
v -30.6292 -81.1157 1313.21
v -30.6574 -77.3635 1318.86
v -30.068 -77.5445 1318.71
v -29.6142 -77.9818 1319.93
v -29.5855 -79.8336 1318.4
v -29.3457 -78.6666 1319.38
v -31.3737 -77.382 1320.07
v -30.5492 -77.2833 1320.91
v -29.9225 -77.66 1320.51
v -30.7631 -79.8682 1321.74
v -31.9323 -87.2954 1291.63
v -33.0525 -88.299 1292.16
v -33.0253 -88.5925 1292.31
v -32.4723 -87.9885 1291.76
v -32.4778 -91.2278 1295.67
v -32.4583 -91.4954 1295.1
v -30.8937 -92.2758 1295.84
v -30.3223 -91.498 1296.62
v -31.9428 -83.5721 1296.75
v -31.0187 -86.2062 1301.66
v -29.6856 -85.9095 1302.31
v -30.3759 -78.8506 1304.02
v -30.941 -83.5357 1305.18
v -29.3475 -84.2125 1304.41
v -29.8444 -82.9461 1306.7
v -30.066 -82.0025 1309.16
v -28.6474 -81.4898 1309.05
v -30.2122 -77.4567 1310.97
v -29.0752 -77.8734 1312.28
v -28.7417 -80.493 1312.31
v -29.3693 -80.9482 1312.69
v -31.0987 -87.4037 1291.15
v -30.1857 -86.7523 1291.21
v -28.2351 -91.448 1296.03
v -28.6742 -82.1477 1297.88
v -28.1157 -79.4399 1304.56
v -27.4845 -83.5166 1303.32
v -27.2266 -81.7988 1303.39
v -28.102 -84.7189 1302.87
v -27.5266 -80.7849 1306.34
v -28.7558 -82.8106 1306.33
v -27.8238 -81.9465 1306.15
v -28.1217 -80.2608 1310.05
v -27.9639 -79.3937 1309.13
v -27.7239 -87.6309 1291.34
v -26.5736 -88.458 1292.54
v -26.989 -90.4041 1293.96
v -26.6614 -89.8968 1295.15
v -26.4715 -89.7836 1294.59
v -26.5462 -90.4905 1294.15
v -26.4399 -89.9165 1293.48
v -26.3898 -89.5662 1294.12
v -27.9404 -91.8011 1295.35
v -27.3784 -90.871 1295.7
v -27.2279 -84.8096 1295.97
v -38.8704 -73.7625 1346.44
v -38.1761 -73.0406 1346.6
v -37.7761 -73.1082 1347.2
v -37.6668 -74.2821 1347.79
v -37.6668 -74.2821 1347.79
v -37.4155 -73.3873 1347.53
v -38.7361 -74.6465 1346.78
v -38.6185 -74.6324 1347.05
v -38.6185 -74.6324 1347.05
v -37.6821 -74.5878 1347.67
v -32.6958 -77.5967 1331.34
v -32.0996 -79.2521 1320.17
v -30.6367 -78.7452 1328.9
v -31.8954 -78.4071 1332.12
v -33.3115 -88.2811 1292.7
v -33.2309 -90.9626 1294.63
v -33.2309 -90.9626 1294.63
v -32.3826 -80.7639 1305.05
v -32.1907 -78.6516 1314.53
v -33.0525 -88.299 1292.16
v -33.0525 -88.299 1292.16
v -33.0253 -88.5925 1292.31
v -32.4723 -87.9885 1291.76
v -32.4583 -91.4954 1295.1
v -30.8937 -92.2758 1295.84
v -30.3759 -78.8506 1304.02
v -30.3759 -78.8506 1304.02
v -30.3759 -78.8506 1304.02
v -31.0987 -87.4037 1291.15
v -31.0987 -87.4037 1291.15
v -30.1857 -86.7523 1291.21
v -27.7239 -87.6309 1291.34
v -27.7239 -87.6309 1291.34
v -27.7239 -87.6309 1291.34
v -26.5736 -88.458 1292.54
v -26.5462 -90.4905 1294.15
v -26.4399 -89.9165 1293.48
v -26.4399 -89.9165 1293.48
v -27.9404 -91.8011 1295.35
v -27.9404 -91.8011 1295.35
vn -0.784398 0.224497 -0.578204
vn -0.829707 -0.279925 -0.482938
vn -0.749974 0.0629396 -0.658466
vn -0.642828 0.382334 -0.663772
vn -0.453844 0.702843 -0.547757
vn -0.161288 0.946495 -0.279523
vn 0.0515687 0.974715 -0.21742
vn 0.139067 0.986428 -0.0872897
vn -0.607481 0.403391 0.684283
vn -0.593016 0.319716 0.738995
vn 0.44203 0.880435 0.171593
vn 0.68986 0.452187 0.56535
vn 0.616691 -0.203119 0.760549
vn -0.677461 -0.712335 -0.183371
vn -0.809175 0.161837 0.564841
vn -0.24983 -0.927184 0.279133
vn -0.518747 -0.289759 0.804327
vn -0.809285 0.245298 -0.533748
vn -0.601995 0.520782 -0.6053
vn -0.824341 -0.28078 -0.491554
vn -0.327969 -0.943897 0.0386727
vn -0.168554 0.890925 -0.421713
vn 0.747412 -0.0681342 0.660858
vn 0.119996 -0.908088 0.401219
vn 0.540122 -0.569074 0.620018
vn -0.884958 0.36311 -0.291548
vn -0.830706 -0.544333 -0.11674
vn -0.567242 0.666545 -0.483687
vn -0.911513 -0.0820469 -0.403004
vn -0.746035 0.51086 -0.427146
vn -0.614882 -0.782436 -0.0985647
vn -0.139669 0.937714 -0.318097
vn 0.69816 0.64054 0.319814
vn 0.467456 0.881239 0.0700152
vn 0.308858 -0.849662 0.427412
vn 0.721886 -0.380669 0.577902
vn 0.83328 0.177842 0.523465
vn -0.973679 0.18896 -0.127447
vn -0.812786 0.561532 -0.155119
vn -0.286191 0.939863 -0.186418
vn 0.518419 0.854616 -0.0295592
vn 0.728585 -0.624417 0.281545
vn -0.306196 0.8973 -0.317958
vn 0.216376 0.970203 -0.109033
vn 0.454797 -0.831783 0.318272
vn 0.911322 0.372919 0.174424
vn 0.913288 -0.275234 0.300252
vn -0.212866 -0.967126 0.139123
vn 0.0634337 -0.961384 0.267802
vn 0.653936 0.750038 0.0990486
vn 0.849487 0.42216 0.316468
vn 0.639605 -0.639036 0.427246
vn 0.900193 -0.101647 0.423463
vn -0.885011 0.460779 -0.0666202
vn -0.999816 0.0173671 -0.00808572
vn 0.516177 0.854805 -0.0535708
vn 0.213123 -0.96632 0.144234
vn 0.973893 0.217668 0.0644447
vn 0.950619 -0.285534 0.12163
vn 0.83994 0.54135 0.0379629
vn 0.988526 0.0426762 0.144895
vn -0.629573 -0.775547 0.0465222
vn 0.861356 -0.47009 0.192564
vn 0.353065 -0.912577 0.206272
vn -0.86733 -0.297857 -0.398772
vn -0.867437 -0.307569 -0.391093
vn -0.786919 -0.408785 0.462226
vn -0.782367 -0.485542 0.390064
vn -0.990647 0.131733 0.035571
vn -0.578848 -0.785559 0.218703
vn -0.607862 0.786919 -0.106121
vn -0.999817 0.00866315 0.0170782
vn -0.0225809 -0.984136 0.175971
vn 0.112128 0.993395 -0.0243703
vn 0.468987 0.883203 0.00207252
vn 0.816642 0.576458 0.0281491
vn 0.765289 -0.623344 0.160547
vn 0.994045 -0.00992746 0.108521
vn -0.29914 0.952064 -0.0639526
vn 0.251934 0.966031 -0.0575652
vn 0.608194 0.793437 -0.0236083
vn 0.00569231 -0.988637 0.150214
vn -0.532074 0.518269 -0.669547
vn -0.867091 -0.288099 -0.40639
vn -0.86733 -0.297857 -0.398772
vn -0.570752 0.303699 -0.762895
vn -0.648229 -0.604134 0.463488
vn -0.0151847 -0.687655 -0.725879
vn -0.22473 -0.757806 0.612558
vn 0.111624 -0.74582 0.656729
vn -0.577615 0.695414 -0.427505
vn -0.429081 -0.647798 0.629482
vn 0.0684574 -0.762031 0.643912
vn -0.729763 0.647647 -0.219089
vn -0.277226 -0.833482 0.477968
vn 0.156344 -0.826079 0.541434
vn 0.0930207 -0.898036 0.429975
vn 0.0796212 -0.9449 0.317529
vn 0.624836 -0.728763 0.280149
vn 0.124976 0.988871 -0.0807211
vn 0.633351 0.773845 -0.00547005
vn 0.752013 -0.630677 0.191633
vn 0.444777 -0.872858 0.200732
vn -0.419124 0.392982 -0.818475
vn -0.156344 0.759278 -0.631707
vn 0.407632 -0.693446 0.594111
vn 0.281285 0.819805 -0.498796
vn 0.668208 0.719465 -0.189389
vn 0.875981 -0.350378 0.331501
vn 0.992723 0.109825 0.0494009
vn 0.493708 -0.670078 0.5543
vn 0.98489 -0.0786167 0.154309
vn 0.422878 -0.795691 0.433648
vn 0.802725 -0.500401 0.324392
vn 0.92221 -0.33417 0.194572
vn 0.950651 0.304972 0.0570561
vn -0.0173246 -0.690939 -0.722705
vn 0.956632 0.243695 -0.159585
vn 0.0524573 -0.72557 -0.686146
vn 0.908363 -0.290667 0.300648
vn 0.964854 -0.176191 0.19497
vn 0.133799 -0.754309 -0.642741
vn 0.471904 -0.446627 -0.760152
vn 0.998516 -0.0467596 0.0279177
vn 0.0301542 -0.712692 -0.700828
vn 0.728502 -0.518217 0.448036
vn 0.807948 0.508606 -0.297557
vn -0.748681 0.293839 0.594251
vn -0.673825 0.535112 0.509525
vn 0.267045 0.950579 0.158387
vn -0.518747 -0.289759 0.804327
vn 0.536246 -0.127624 0.834358
vn -0.459422 0.364404 0.810026
vn -0.917 0.0140491 0.39864
vn -0.518747 -0.289759 0.804327
vn -0.364472 -0.853517 0.372383
vn 0.257383 -0.714672 0.650383
vn -0.723339 -0.690033 0.0251829
vn -0.668014 -0.73903 0.087137
vn 0.77442 -0.612921 0.15685
vn 0.0633914 -0.986332 0.15209
vn -0.922656 0.343193 -0.175851
vn -0.876131 -0.370762 0.308107
vn -0.0100032 -0.692753 -0.721105
vn -0.99977 0.012404 0.0174754
vn -0.804938 0.587832 -0.0807964
vn -0.712752 0.507478 -0.484201
vn -0.33191 -0.453556 -0.827117
vn -0.134165 -0.608383 -0.782221
vn -0.201306 -0.554896 -0.807196
vn -0.603131 -0.728995 0.323726
vn -0.00689013 -0.693369 -0.72055
vn -0.191401 0.841581 -0.50508
vn -0.269068 0.945535 -0.183211
vn 0.305187 0.9076 -0.288312
vn -0.0234546 -0.679906 -0.732924
vn 0.0569929 0.0119745 -0.998303
vn 0.0569929 0.0119745 -0.998303
vn 0.0569929 0.0119745 -0.998303
vn 0.570424 0.65611 -0.494102
vn 0.471904 -0.446627 -0.760152
vn 0.471904 -0.446627 -0.760152
vn 0.92383 -0.323977 0.203905
vn 0.99684 -0.0683878 -0.0404218
vn 0.055481 -0.729073 -0.682184
vn 0.194326 -0.807972 0.556254
vn 0.697585 -0.578633 0.422563
g grp1
usemtl mtl1
f 19//19 3//3 4//4 
f 2//2 20//20 14//14 
f 1//1 5//5 4//4 
f 3//3 1//1 4//4 
f 3//3 2//2 1//1 
f 1//1 6//6 5//5 
f 1//1 2//2 14//14 
f 128//128 134//134 15//15 
f 4//4 5//5 19//19 
f 20//20 2//2 3//3 
f 129//129 128//128 9//9 
f 19//19 5//5 22//22 
f 6//6 7//7 22//22 
f 22//22 5//5 6//6 
f 130//130 8//8 6//6 
f 6//6 8//8 7//7 
f 9//9 128//128 10//10 
f 128//128 15//15 10//10 
f 131//131 135//135 17//17 
f 22//22 7//7 8//8 
f 130//130 11//11 8//8 
f 130//130 12//12 11//11 
f 13//13 12//12 132//132 
f 133//133 9//9 10//10 
f 13//13 132//132 137//137 
f 25//25 13//13 137//137 
f 136//136 14//14 16//16 
f 21//21 16//16 14//14 
f 20//20 21//21 14//14 
f 137//137 136//136 16//16 
f 137//137 16//16 24//24 
f 25//25 137//137 24//24 
f 18//18 29//29 20//20 
f 29//29 31//31 20//20 
f 19//19 18//18 20//20 
f 3//3 19//19 20//20 
f 18//18 19//19 28//28 
f 32//32 28//28 19//19 
f 19//19 22//22 32//32 
f 32//32 22//22 8//8 
f 30//30 18//18 28//28 
f 31//31 21//21 20//20 
f 21//21 24//24 16//16 
f 35//35 25//25 24//24 
f 21//21 35//35 24//24 
f 23//23 37//37 12//12 
f 13//13 23//23 12//12 
f 23//23 13//13 25//25 
f 23//23 25//25 36//36 
f 36//36 37//37 23//23 
f 29//29 27//27 31//31 
f 27//27 48//48 31//31 
f 26//26 27//27 29//29 
f 40//40 30//30 43//43 
f 43//43 28//28 32//32 
f 44//44 43//43 32//32 
f 44//44 32//32 34//34 
f 18//18 30//30 29//29 
f 31//31 49//49 21//21 
f 30//30 26//26 29//29 
f 43//43 30//30 28//28 
f 48//48 49//49 31//31 
f 45//45 49//49 48//48 
f 8//8 34//34 32//32 
f 11//11 34//34 8//8 
f 33//33 11//11 12//12 
f 33//33 12//12 37//37 
f 34//34 33//33 51//51 
f 11//11 33//33 34//34 
f 50//50 34//34 51//51 
f 49//49 35//35 21//21 
f 36//36 25//25 35//35 
f 52//52 36//36 35//35 
f 52//52 35//35 49//49 
f 51//51 33//33 37//37 
f 53//53 51//51 37//37 
f 36//36 53//53 37//37 
f 36//36 52//52 53//53 
f 39//39 54//54 38//38 
f 54//54 39//39 40//40 
f 39//39 38//38 26//26 
f 62//62 48//48 27//27 
f 26//26 38//38 27//27 
f 27//27 138//138 62//62 
f 39//39 26//26 40//40 
f 41//41 40//40 44//44 
f 26//26 30//30 40//40 
f 44//44 40//40 43//43 
f 52//52 49//49 45//45 
f 47//47 52//52 45//45 
f 42//42 47//47 45//45 
f 64//64 45//45 48//48 
f 44//44 34//34 50//50 
f 44//44 50//50 41//41 
f 51//51 46//46 50//50 
f 53//53 46//46 51//51 
f 50//50 46//46 41//41 
f 47//47 53//53 52//52 
f 46//46 53//53 47//47 
f 72//72 55//55 54//54 
f 70//70 82//82 139//139 
f 138//138 139//139 62//62 
f 82//82 62//62 139//139 
f 80//80 40//40 56//56 
f 79//79 40//40 80//80 
f 54//54 55//55 38//38 
f 79//79 54//54 40//40 
f 41//41 56//56 40//40 
f 56//56 41//41 60//60 
f 56//56 60//60 76//76 
f 58//58 76//76 60//60 
f 57//57 64//64 141//141 
f 60//60 61//61 58//58 
f 58//58 61//61 59//59 
f 78//78 58//58 59//59 
f 41//41 46//46 60//60 
f 47//47 63//63 61//61 
f 47//47 42//42 63//63 
f 61//61 63//63 59//59 
f 141//141 64//64 48//48 
f 63//63 42//42 64//64 
f 63//63 64//64 140//140 
f 63//63 140//140 59//59 
f 60//60 46//46 61//61 
f 47//47 61//61 46//46 
f 64//64 42//42 45//45 
f 84//84 85//85 65//65 
f 66//66 65//65 85//85 
f 91//91 142//142 69//69 
f 142//142 143//143 69//69 
f 69//69 143//143 67//67 
f 144//144 117//117 88//88 
f 151//151 87//87 143//143 
f 143//143 87//87 67//67 
f 67//67 68//68 69//69 
f 87//87 92//92 67//67 
f 92//92 68//68 67//67 
f 68//68 92//92 95//95 
f 68//68 70//70 69//69 
f 68//68 95//95 70//70 
f 94//94 69//69 71//71 
f 95//95 98//98 70//70 
f 146//146 71//71 69//69 
f 71//71 54//54 79//79 
f 71//71 79//79 100//100 
f 54//54 71//71 146//146 
f 100//100 79//79 74//74 
f 72//72 145//145 55//55 
f 100//100 75//75 101//101 
f 69//69 70//70 139//139 
f 80//80 74//74 79//79 
f 75//75 74//74 80//80 
f 81//81 76//76 75//75 
f 101//101 75//75 76//76 
f 73//73 82//82 70//70 
f 103//103 82//82 73//73 
f 103//103 77//77 82//82 
f 80//80 81//81 75//75 
f 59//59 77//77 78//78 
f 82//82 57//57 141//141 
f 82//82 77//77 57//57 
f 81//81 80//80 56//56 
f 76//76 81//81 56//56 
f 59//59 140//140 77//77 
f 58//58 78//78 76//76 
f 86//86 83//83 104//104 
f 105//105 104//104 83//83 
f 91//91 147//147 142//142 
f 150//150 149//149 148//148 
f 83//83 147//147 91//91 
f 147//147 83//83 86//86 
f 156//156 149//149 150//150 
f 83//83 91//91 105//105 
f 156//156 144//144 149//149 
f 117//117 144//144 156//156 
f 87//87 151//151 89//89 
f 152//152 88//88 117//117 
f 89//89 90//90 92//92 
f 107//107 91//91 153//153 
f 90//90 93//93 92//92 
f 87//87 89//89 92//92 
f 94//94 91//91 69//69 
f 95//95 96//96 97//97 
f 92//92 93//93 95//95 
f 93//93 96//96 95//95 
f 154//154 71//71 100//100 
f 95//95 97//97 98//98 
f 113//113 98//98 97//97 
f 96//96 113//113 97//97 
f 108//108 100//100 101//101 
f 155//155 100//100 108//108 
f 98//98 73//73 70//70 
f 99//99 98//98 113//113 
f 99//99 103//103 98//98 
f 102//102 99//99 115//115 
f 102//102 103//103 99//99 
f 116//116 78//78 115//115 
f 76//76 78//78 116//116 
f 98//98 103//103 73//73 
f 74//74 75//75 100//100 
f 77//77 102//102 115//115 
f 77//77 103//103 102//102 
f 115//115 78//78 77//77 
f 157//157 158//158 159//159 
f 160//160 105//105 107//107 
f 117//117 125//125 152//152 
f 166//166 90//90 89//89 
f 166//166 106//106 90//90 
f 105//105 91//91 107//107 
f 90//90 106//106 111//111 
f 111//111 96//96 93//93 
f 111//111 93//93 90//90 
f 155//155 108//108 107//107 
f 114//114 111//111 109//109 
f 112//112 114//114 109//109 
f 112//112 109//109 110//110 
f 113//113 96//96 111//111 
f 108//108 116//116 110//110 
f 110//110 116//116 112//112 
f 111//111 114//114 113//113 
f 112//112 115//115 114//114 
f 116//116 108//108 101//101 
f 76//76 116//116 101//101 
f 115//115 112//112 116//116 
f 99//99 113//113 114//114 
f 114//114 115//115 99//99 
f 127//127 160//160 107//107 
f 118//118 160//160 127//127 
f 127//127 110//110 118//118 
f 162//162 123//123 161//161 
f 124//124 118//118 110//110 
f 164//164 118//118 124//124 
f 125//125 117//117 119//119 
f 126//126 120//120 109//109 
f 165//165 119//119 117//117 
f 119//119 165//165 122//122 
f 125//125 119//119 122//122 
f 163//163 120//120 126//126 
f 163//163 126//126 167//167 
f 164//164 124//124 163//163 
f 163//163 124//124 121//121 
f 120//120 163//163 121//121 
f 110//110 121//121 124//124 
f 121//121 110//110 120//120 
f 126//126 106//106 167//167 
f 126//126 111//111 106//106 
f 109//109 111//111 126//126 
f 127//127 108//108 110//110 
f 127//127 107//107 108//108 
f 110//110 109//109 120//120 
