#
# The license for this database is specified in the Creative Commons Attribution-Share Alike 2.1 Japan. If you use data from this database, please be sure attribute this database as follows: "BodyParts3D, (c)  The Database Center for Life Science licensed under CC Attribution-Share Alike 2.1 Japan".
# http://dbarchive.biosciencedbc.jp/en/bodyparts3d/lic.html
#
#
# Compatibility version : 4.0
# File ID : FJ2977
# Representation ID : BP9743
# Build-up logic : FMA 3.0 part_of
# Concept ID : FMA68683
# English name : Anterior branch of right anterior segmental artery
# Bounds(mm): (-56.033400,-147.013000,1263.700000)-(-37.274600,-126.756000,1278.380000)
# Volume(cm3): 0.114400
#
v -55.785 -145.349 1264.46
v -55.3714 -145.207 1264.55
v -55.5051 -145.263 1264.81
v -55.123 -145.473 1263.87
v -54.5395 -145.773 1264.01
v -54.9492 -146.231 1263.7
v -55.4345 -147.013 1264.62
v -55.9289 -145.744 1265.05
v -56.0334 -146.13 1265.03
v -55.8118 -146.211 1265.24
v -54.5738 -146.227 1263.96
v -54.8909 -146.68 1263.93
v -54.6883 -146.845 1264.68
v -54.2483 -146.399 1264.35
v -53.1186 -144.504 1266.9
v -52.9964 -145.094 1267.57
v -51.9112 -144.728 1266.12
v -52.624 -144.325 1266.45
v -51.7867 -143.839 1267.86
v -51.0534 -143.822 1267.22
v -52.3193 -146.155 1266.94
v -52.1241 -145.615 1267.92
v -52.0043 -144.142 1268.18
v -49.8438 -144.402 1267.63
v -50.8195 -145.497 1267.4
v -48.5442 -141.846 1269.54
v -48.8937 -143.139 1268.47
v -50.0936 -145.151 1268.77
v -49.7134 -144.683 1269.61
v -49.3987 -142.264 1270.23
v -48.1388 -141.023 1271.15
v -49.5988 -144.135 1270.18
v -48.0935 -143.87 1269.49
v -47.3501 -140.376 1270.99
v -46.796 -140.472 1270.63
v -48.3889 -143.797 1270.67
v -48.075 -143.023 1271.44
v -47.7836 -143.693 1270.35
v -48.7585 -144.338 1269.86
v -45.2768 -137.522 1273.18
v -46.5191 -139.15 1272.48
v -46.1584 -138.883 1272.08
v -48.335 -142.656 1271.51
v -47.4879 -141.245 1272.34
v -45.6571 -138.267 1273.71
v -45.9343 -141.602 1270.79
v -46.1045 -142.18 1271.08
v -44.2121 -136.744 1272.9
v -45.0222 -138.373 1271.95
v -43.9951 -138.028 1272.23
v -46.9546 -142.712 1271.62
v -43.0345 -133.829 1274.69
v -44.7385 -138.803 1274.42
v -45.8529 -140.94 1273.17
v -42.869 -137.993 1273.11
v -43.6389 -139.389 1272.98
v -42.2214 -133.358 1274.25
v -41.0267 -134.076 1274.12
v -42.2527 -137.071 1274.98
v -43.3676 -137.927 1274.92
v -44.3047 -140.012 1273.44
v -39.2938 -126.756 1276.18
v -39.3155 -126.857 1276.83
v -39.036 -126.826 1276.2
v -41.8943 -132.233 1276.57
v -42.5162 -134.877 1276.13
v -39.7593 -126.841 1276.97
v -40.036 -127.431 1276.84
v -39.7519 -126.857 1277.37
v -39.5002 -126.918 1277.4
v -39.5341 -126.948 1277.57
v -39.371 -127.073 1277.78
v -39.4256 -127.201 1278.1
v -38.939 -127.36 1278.12
v -39.7192 -127.543 1277.88
v -39.5868 -127.612 1278.04
v -39.1155 -127.523 1278.37
v -38.6105 -127.731 1275.64
v -38.2034 -127.103 1275.8
v -38.1531 -127.891 1275.74
v -37.5562 -127.609 1276.58
v -37.6121 -128.337 1276.38
v -37.2746 -127.772 1276.81
v -40.5669 -133.318 1276.7
v -39.8814 -133.311 1275.76
v -38.0223 -127.776 1278.13
v -37.7808 -127.956 1278.19
v -37.5443 -127.899 1277.8
v -38.1995 -127.938 1278.38
v -37.7496 -128.579 1277.66
v -37.3914 -128.272 1276.98
v -55.785 -145.349 1264.46
v -55.785 -145.349 1264.46
v -55.123 -145.473 1263.87
v -54.9492 -146.231 1263.7
v -55.4345 -147.013 1264.62
v -55.4345 -147.013 1264.62
v -55.9289 -145.744 1265.05
v -56.0334 -146.13 1265.03
v -56.0334 -146.13 1265.03
v -56.0334 -146.13 1265.03
v -54.8909 -146.68 1263.93
v -51.0534 -143.822 1267.22
v -52.3193 -146.155 1266.94
v -50.0936 -145.151 1268.77
v -48.335 -142.656 1271.51
v -45.9343 -141.602 1270.79
v -41.0267 -134.076 1274.12
v -39.2938 -126.756 1276.18
v -39.7593 -126.841 1276.97
v -39.7519 -126.857 1277.37
v -39.4256 -127.201 1278.1
v -39.1155 -127.523 1278.37
v -38.2034 -127.103 1275.8
v -38.2034 -127.103 1275.8
v -38.2034 -127.103 1275.8
v -38.1531 -127.891 1275.74
v -37.5562 -127.609 1276.58
v -37.2746 -127.772 1276.81
v -37.2746 -127.772 1276.81
v -37.2746 -127.772 1276.81
v -37.7808 -127.956 1278.19
v -37.5443 -127.899 1277.8
v -38.1995 -127.938 1278.38
v -37.3914 -128.272 1276.98
vn -0.418545 0.90786 -0.0247262
vn -0.233768 0.953603 -0.189723
vn -0.449962 0.877098 0.168027
vn 0.158651 0.737017 -0.65699
vn 0.509567 0.220331 -0.831743
vn -0.709732 -0.215441 -0.670721
vn -0.686603 -0.333793 -0.645877
vn -0.66055 0.467542 0.587434
vn -0.764378 -0.218965 -0.606449
vn -0.617478 -0.297286 0.728245
vn 0.610426 -0.196321 -0.767358
vn 0.529392 -0.657201 -0.536498
vn 0.355315 -0.917027 -0.18114
vn 0.638114 -0.455425 -0.620805
vn -0.574296 0.757516 0.31041
vn -0.673586 0.112623 0.730478
vn 0.361443 0.569801 -0.738029
vn -0.151513 0.948227 -0.279122
vn -0.470473 0.881528 -0.0395286
vn -0.27405 0.91665 -0.290945
vn 0.356065 -0.933795 -0.0352827
vn -0.268092 -0.697047 0.66502
vn -0.699816 0.586323 0.408023
vn 0.640427 -0.064102 -0.765339
vn 0.574648 -0.75144 -0.32422
vn -0.261272 0.814529 -0.517956
vn 0.366205 0.386457 -0.84649
vn 0.0719481 -0.885996 0.458077
vn 0.0160923 -0.820751 0.571059
vn -0.750256 0.593043 0.292259
vn -0.779255 0.618886 0.0986984
vn -0.322143 -0.528391 0.78551
vn 0.681721 -0.677957 -0.275011
vn -0.488876 0.759291 -0.429509
vn 0.0662403 0.54619 -0.835038
vn 0.137762 -0.798324 0.58626
vn -0.130389 -0.597121 0.791483
vn 0.532492 -0.82657 0.182303
vn 0.391742 -0.885814 0.24874
vn -0.738978 0.623304 -0.255741
vn -0.771249 0.636293 -0.0175097
vn -0.586852 0.704241 -0.399561
vn -0.731389 0.168215 0.660889
vn -0.664394 0.0311151 0.746735
vn -0.822857 0.332197 0.461033
vn 0.528512 0.126484 -0.83945
vn 0.736018 -0.672269 -0.0795763
vn -0.339676 0.589823 -0.732618
vn -0.189485 0.615382 -0.765115
vn 0.265582 0.276335 -0.923637
vn 0.364259 -0.78686 0.498163
vn -0.860231 0.490153 -0.140543
vn -0.362964 -0.24297 0.899568
vn -0.0639531 -0.536425 0.841522
vn 0.787548 -0.261769 -0.557893
vn 0.828109 -0.549077 -0.112915
vn -0.309576 0.458802 -0.832864
vn 0.134518 0.239172 -0.961614
vn 0.652348 -0.606481 0.454558
vn 0.167663 -0.520042 0.837524
vn 0.545242 -0.716356 0.435368
vn -0.476467 0.444821 -0.758362
vn 0.313881 0.930702 0.187808
vn 0.310056 0.946027 0.0943244
vn -0.774862 0.191966 0.602277
vn -0.306337 -0.183491 0.934071
vn 0.0677941 0.992867 0.0980766
vn -0.907767 0.418788 0.0239829
vn -0.893341 0.362969 0.264945
vn 0.328358 0.920288 0.212721
vn 0.197986 0.926401 0.320285
vn 0.32115 0.894592 0.310755
vn 0.168525 0.866841 0.46924
vn 0.33917 0.829035 0.444595
vn -0.780827 0.243482 0.575349
vn -0.655566 0.121194 0.745349
vn -0.461506 -0.0306907 0.886606
vn 0.0248578 0.24075 -0.970269
vn 0.366135 0.922848 0.119572
vn 0.755534 -0.0238042 -0.654677
vn 0.738379 0.130198 -0.661698
vn 0.826083 -0.12902 -0.54858
vn 0.670532 0.153515 -0.725823
vn 0.406887 -0.475659 0.779867
vn 0.866525 -0.494137 0.0704447
vn 0.391802 0.801455 0.451842
vn 0.620788 -0.430407 0.655265
vn 0.427004 0.856501 0.289954
vn 0.0590563 -0.31765 0.946367
vn 0.788609 -0.438461 0.431101
vn 0.894416 -0.341276 -0.289051
vn -0.722109 -0.0936762 -0.685407
vn -0.962845 0.263688 -0.0582916
vn -0.663608 0.0156236 -0.747917
vn 0.508074 -0.00310028 -0.861308
vn 0.22541 -0.969233 -0.0988851
vn -0.390714 -0.744144 0.541841
vn -0.962845 0.263688 -0.0582916
vn -0.962845 0.263688 -0.0582916
vn -0.640834 -0.634988 0.431418
vn -0.654013 0.138486 0.7437
vn -0.599776 -0.425251 -0.677813
vn 0.322659 0.522096 -0.789498
vn -0.0674815 -0.86915 0.489922
vn 0.505487 -0.86182 -0.0418258
vn -0.410414 -0.335981 0.847748
vn 0.776921 -0.413946 -0.474386
vn 0.684851 -0.135637 -0.715948
vn 0.202297 0.976746 0.0710111
vn -0.881181 0.455552 -0.126459
vn 0.114092 0.969595 0.216493
vn -0.70575 0.219564 0.673579
vn 0.259903 0.714282 0.649809
vn -0.200209 0.366095 -0.908785
vn 0.796173 0.101791 -0.596445
vn 0.245954 0.0916302 -0.964941
vn 0.251959 0.111145 -0.961334
vn 0.407865 0.893354 0.188586
vn 0.90255 -0.313642 -0.295012
vn 0.403319 0.896339 0.18415
vn 0.959787 -0.139587 0.243564
vn 0.411866 0.730932 0.544155
vn 0.899583 -0.273177 0.340771
vn 0.313043 0.678871 0.664182
vn 0.90899 -0.31948 0.267712
g grp1
usemtl mtl1
f 3//3 18//18 2//2 
f 17//17 4//4 18//18 
f 8//8 3//3 1//1 
f 6//6 9//9 92//92 
f 93//93 99//99 98//98 
f 2//2 4//4 1//1 
f 1//1 3//3 2//2 
f 94//94 6//6 92//92 
f 4//4 2//2 18//18 
f 9//9 6//6 7//7 
f 17//17 5//5 4//4 
f 4//4 5//5 95//95 
f 5//5 11//11 95//95 
f 95//95 11//11 12//12 
f 5//5 17//17 24//24 
f 102//102 7//7 6//6 
f 96//96 12//12 13//13 
f 97//97 10//10 100//100 
f 15//15 3//3 8//8 
f 8//8 101//101 10//10 
f 16//16 8//8 10//10 
f 16//16 15//15 8//8 
f 14//14 12//12 11//11 
f 14//14 11//11 24//24 
f 24//24 11//11 5//5 
f 25//25 12//12 14//14 
f 13//13 12//12 25//25 
f 3//3 15//15 18//18 
f 13//13 21//21 96//96 
f 104//104 22//22 97//97 
f 15//15 16//16 23//23 
f 22//22 16//16 10//10 
f 22//22 10//10 97//97 
f 14//14 24//24 25//25 
f 13//13 25//25 21//21 
f 26//26 20//20 19//19 
f 19//19 18//18 15//15 
f 23//23 19//19 15//15 
f 17//17 18//18 103//103 
f 20//20 18//18 19//19 
f 104//104 28//28 22//22 
f 19//19 23//23 30//30 
f 30//30 23//23 16//16 
f 30//30 16//16 43//43 
f 32//32 16//16 22//22 
f 103//103 26//26 27//27 
f 24//24 27//27 46//46 
f 17//17 103//103 24//24 
f 24//24 33//33 25//25 
f 103//103 27//27 24//24 
f 33//33 24//24 107//107 
f 25//25 105//105 21//21 
f 26//26 19//19 30//30 
f 106//106 16//16 32//32 
f 29//29 32//32 22//22 
f 22//22 28//28 29//29 
f 33//33 105//105 25//25 
f 44//44 31//31 30//30 
f 30//30 34//34 26//26 
f 31//31 34//34 30//30 
f 30//30 43//43 44//44 
f 44//44 45//45 31//31 
f 33//33 47//47 38//38 
f 39//39 33//33 38//38 
f 33//33 39//39 105//105 
f 27//27 26//26 35//35 
f 35//35 26//26 34//34 
f 27//27 35//35 46//46 
f 46//46 35//35 50//50 
f 107//107 47//47 33//33 
f 29//29 36//36 32//32 
f 32//32 37//37 106//106 
f 36//36 37//37 32//32 
f 39//39 36//36 29//29 
f 38//38 36//36 39//39 
f 38//38 51//51 36//36 
f 39//39 29//29 28//28 
f 34//34 31//31 42//42 
f 42//42 31//31 41//41 
f 31//31 45//45 41//41 
f 40//40 41//41 45//45 
f 42//42 41//41 40//40 
f 54//54 44//44 106//106 
f 51//51 37//37 36//36 
f 52//52 40//40 45//45 
f 35//35 49//49 50//50 
f 35//35 34//34 49//49 
f 51//51 38//38 47//47 
f 51//51 47//47 61//61 
f 57//57 48//48 40//40 
f 40//40 48//48 42//42 
f 57//57 50//50 48//48 
f 49//49 42//42 48//48 
f 49//49 48//48 50//50 
f 49//49 34//34 42//42 
f 37//37 54//54 106//106 
f 51//51 54//54 37//37 
f 61//61 54//54 51//51 
f 47//47 56//56 61//61 
f 52//52 45//45 65//65 
f 52//52 57//57 40//40 
f 44//44 54//54 53//53 
f 44//44 53//53 45//45 
f 52//52 65//65 69//69 
f 57//57 58//58 50//50 
f 55//55 46//46 50//50 
f 47//47 107//107 56//56 
f 56//56 107//107 55//55 
f 59//59 61//61 56//56 
f 57//57 62//62 78//78 
f 58//58 57//57 78//78 
f 50//50 108//108 55//55 
f 82//82 85//85 55//55 
f 85//85 56//56 55//55 
f 60//60 61//61 59//59 
f 54//54 60//60 53//53 
f 54//54 61//61 60//60 
f 56//56 85//85 59//59 
f 63//63 64//64 109//109 
f 63//63 109//109 67//67 
f 110//110 62//62 52//52 
f 63//63 79//79 64//64 
f 110//110 52//52 68//68 
f 52//52 62//62 57//57 
f 65//65 45//45 66//66 
f 89//89 66//66 84//84 
f 60//60 84//84 66//66 
f 84//84 60//60 59//59 
f 59//59 85//85 84//84 
f 66//66 45//45 53//53 
f 60//60 66//66 53//53 
f 111//111 63//63 67//67 
f 110//110 68//68 69//69 
f 68//68 52//52 69//69 
f 70//70 63//63 111//111 
f 71//71 70//70 111//111 
f 73//73 71//71 111//111 
f 112//112 69//69 75//75 
f 72//72 70//70 71//71 
f 72//72 71//71 73//73 
f 112//112 75//75 76//76 
f 72//72 73//73 74//74 
f 76//76 77//77 112//112 
f 70//70 72//72 74//74 
f 74//74 73//73 113//113 
f 63//63 70//70 74//74 
f 124//124 74//74 113//113 
f 65//65 75//75 69//69 
f 76//76 75//75 65//65 
f 65//65 77//77 76//76 
f 77//77 66//66 89//89 
f 65//65 66//66 77//77 
f 87//87 89//89 84//84 
f 55//55 108//108 82//82 
f 114//114 78//78 62//62 
f 79//79 109//109 64//64 
f 115//115 81//81 82//82 
f 115//115 82//82 80//80 
f 82//82 108//108 80//80 
f 118//118 79//79 63//63 
f 82//82 81//81 83//83 
f 119//119 91//91 82//82 
f 117//117 58//58 78//78 
f 78//78 116//116 117//117 
f 82//82 91//91 85//85 
f 90//90 85//85 125//125 
f 84//84 90//90 87//87 
f 90//90 84//84 85//85 
f 63//63 74//74 86//86 
f 86//86 74//74 124//124 
f 88//88 63//63 86//86 
f 122//122 88//88 86//86 
f 120//120 118//118 63//63 
f 87//87 90//90 123//123 
f 88//88 120//120 63//63 
f 121//121 123//123 125//125 
f 125//125 123//123 90//90 
f 124//124 122//122 86//86 
