# Blender v2.77 (sub 0) OBJ File: ''
# www.blender.org
mtllib anterior division of left renal artery_2.mtl
o grp1.009
v 48.290527 -89.195717 1006.047852
v 48.224609 -88.871750 1007.355469
v 48.208984 -88.523605 1007.632812
v 48.271301 -88.426071 1007.890015
v 48.682800 -88.521370 1008.419983
v 50.345459 -89.373802 1002.369385
v 49.059570 -89.146400 1003.486328
v 48.523193 -89.286232 1004.844238
v 48.352798 -88.904564 1004.840027
v 49.148438 -89.255211 1004.281250
v 49.065674 -89.019630 1004.623535
v 47.996925 -88.758034 1006.351685
v 48.712898 -88.873756 1006.119995
v 49.029785 -88.760933 1004.110352
v 48.596634 -88.418190 1006.691650
v 49.043598 -88.755058 1004.070007
v 48.519135 -88.799843 1004.430664
v 48.341400 -88.897926 1004.840576
v 48.318283 -88.321175 1006.585083
v 48.342529 -88.321144 1006.576721
v 48.712898 -88.873756 1006.119995
v 48.664734 -87.899460 1008.384155
v 48.721924 -88.682655 1006.783691
v 50.472260 -88.933022 1002.049316
v 49.556400 -88.841560 1003.190002
v 48.681152 -88.583450 1008.500732
v 48.792969 -88.740402 1007.554688
v 48.791698 -88.742271 1007.539978
v 49.130371 -88.361496 1007.889160
v 48.786621 -88.301437 1007.360352
v 48.761719 -88.169113 1008.702148
v 49.005127 -87.889648 1008.871094
v 50.663300 -89.269585 1002.200317
v 50.441406 -88.819984 1002.453125
v 48.601398 -88.409462 1006.700012
v 48.670868 -88.131882 1007.759277
v 48.534199 -88.174965 1007.289978
v 49.041801 -87.979668 1008.000000
v 48.771484 -88.053879 1007.757812
v 50.353516 -89.173744 1002.046875
v 50.658142 -89.183342 1002.060303
v 50.727310 -89.065926 1002.271484
v 50.660500 -89.267258 1002.200012
v 50.650398 -89.180656 1002.080017
v 50.725700 -89.066460 1002.270020
v 49.847099 -88.906860 1003.280029
v 49.804688 -88.365891 1008.760742
v 49.437500 -88.195480 1009.144531
v 49.823002 -88.368965 1008.770020
v 49.602699 -88.145569 1008.320007
v 50.271301 -88.153267 1008.770020
v 49.436768 -87.771667 1008.391357
v 52.128906 -87.593918 1010.128906
v 51.873047 -87.830734 1009.538086
v 51.127563 -87.355423 1008.966125
v 49.602699 -88.145569 1008.320007
v 52.671875 -86.629074 1010.390625
v 52.292969 -86.967453 1010.340820
v 52.696289 -87.483566 1009.571289
v 53.320499 -86.456665 1010.270020
v 54.108398 -86.830124 1010.391602
v 53.193359 -86.933456 1009.688477
v 53.404297 -86.283493 1010.905029
v 53.216797 -87.041183 1010.998047
v 53.674805 -87.232590 1010.892578
v 53.621094 -87.311691 1010.872070
v 54.133202 -86.772964 1010.520020
v 54.042900 -85.982468 1011.380005
v 54.677246 -86.547287 1012.783203
v 53.946701 -86.219170 1011.929993
v 54.042900 -85.982468 1011.380005
v 54.157104 -86.786179 1010.502441
v 55.160156 -85.988449 1011.839844
v 54.703125 -85.914230 1013.656250
v 53.371094 -88.117355 1025.375000
v 51.783813 -90.389938 1029.429443
v 52.191650 -90.599716 1030.016357
v 52.713684 -90.527390 1029.613037
v 51.552368 -90.228073 1030.121826
v 51.427124 -89.911545 1029.468262
v 51.521729 -89.060715 1030.208984
v 52.112793 -89.950241 1030.746582
v 51.754150 -89.364914 1030.572754
v 52.890800 -87.648071 1025.410034
v 51.665039 -88.896652 1029.859375
v 52.711498 -87.178566 1026.599976
v 52.210701 -88.639168 1029.939941
v 53.648438 -86.019699 1023.093750
v 56.063477 -85.554855 1013.904297
v 55.468102 -86.418571 1013.429993
v 55.468102 -86.418571 1013.429993
v 55.235802 -85.160370 1014.380005
v 52.592285 -90.310959 1030.525879
v 54.318359 -87.943527 1025.800781
v 53.219360 -89.994797 1030.018799
v 52.815918 -89.893723 1030.627686
v 52.814697 -89.271652 1030.589355
v 56.214783 -85.878830 1014.629517
v 55.257370 -85.617554 1015.926147
v 55.533203 -85.258957 1013.423828
v 55.235802 -85.160370 1014.380005
v 54.458984 -86.052902 1024.855469
v 54.910156 -86.496262 1024.507812
v 54.260742 -87.015793 1023.031250
v 53.609375 -86.015793 1024.704102
v 55.128662 -86.389816 1021.112793
v 53.755699 -86.310669 1022.739990
v 53.755699 -86.310669 1022.739990
v 54.897217 -84.811478 1020.313721
v 54.829102 -85.765793 1019.658203
v 56.109798 -85.518372 1014.059998
v 55.588654 -85.982727 1015.887939
v 55.853516 -86.084152 1015.554688
v 55.258545 -84.852951 1017.716797
v 55.420502 -84.834633 1016.367310
v 56.260986 -84.946579 1015.496094
v 55.973270 -84.600113 1016.895264
v 55.441898 -84.845268 1016.380005
v 54.973511 -86.791916 1023.182617
v 55.305908 -85.920227 1018.871094
v 54.945801 -85.069016 1022.216797
v 55.973602 -85.943329 1019.057617
v 55.387501 -85.796967 1017.710022
v 55.310101 -85.931870 1018.820007
v 54.917114 -85.220581 1018.856934
v 56.393982 -85.357040 1015.239258
v 56.487610 -85.365814 1018.025146
v 55.773193 -85.140305 1021.041016
v 55.644897 -84.661697 1019.899658
v 56.455093 -84.953964 1017.705688
vn -0.2527 -0.9621 0.1024
vn -0.6793 -0.7220 0.1316
vn -0.9502 0.1248 0.2855
vn -0.7906 -0.3881 0.4736
vn -0.7043 -0.4000 0.5864
vn -0.5193 -0.8487 -0.1003
vn -0.7464 -0.2685 -0.6089
vn 0.0064 -0.9838 -0.1791
vn -0.8366 -0.4912 -0.2425
vn 0.5884 -0.7322 0.3432
vn -0.9989 -0.0460 0.0020
vn 0.9514 -0.1337 0.2773
vn 0.6255 -0.7436 0.2361
vn 0.8554 0.4876 0.1747
vn 0.3295 0.9404 -0.0838
vn 0.7226 0.6488 -0.2386
vn 0.4313 0.8718 0.2324
vn -0.9909 -0.0035 -0.1345
vn -0.7394 0.4913 -0.4603
vn -0.7237 0.6706 -0.1628
vn 0.3888 0.9168 -0.0909
vn 0.9742 0.0471 0.2206
vn -0.6756 0.6735 0.3000
vn 0.9634 -0.1456 -0.2251
vn 0.0218 0.6943 -0.7193
vn -0.4128 -0.2781 -0.8673
vn -0.3260 0.8973 -0.2976
vn 0.4666 -0.8791 0.0971
vn 0.7985 -0.5992 -0.0583
vn 0.8071 0.0199 -0.5900
vn 0.6036 0.6915 -0.3969
vn -0.7949 0.0441 0.6051
vn -0.5963 0.5082 0.6214
vn 0.3926 -0.9194 -0.0226
vn 0.4154 0.9025 0.1137
vn 0.8563 0.2367 -0.4591
vn 0.0038 0.9332 -0.3594
vn 0.2788 0.9163 -0.2876
vn 0.5465 0.5021 -0.6702
vn -0.0536 0.9653 -0.2556
vn 0.3407 -0.3214 -0.8835
vn 0.9485 0.2908 0.1258
vn 0.9449 -0.2236 -0.2390
vn 0.2920 0.9317 0.2162
vn 0.0121 -0.9639 0.2661
vn -0.3206 -0.4415 0.8380
vn 0.1373 -0.9658 0.2199
vn 0.3913 -0.8176 -0.4225
vn 0.5688 -0.0998 -0.8164
vn 0.4338 -0.5468 -0.7162
vn 0.4208 0.2962 -0.8574
vn -0.1197 0.9555 -0.2695
vn -0.1825 -0.6634 0.7257
vn 0.1012 -0.9302 0.3529
vn 0.1906 0.2625 -0.9459
vn 0.5180 -0.3532 -0.7791
vn 0.4283 -0.1279 -0.8945
vn -0.4603 0.8599 0.2206
vn -0.5148 0.1462 0.8447
vn 0.5539 -0.4372 -0.7085
vn 0.0378 0.8991 -0.4361
vn 0.3659 -0.8532 -0.3718
vn 0.3628 -0.9317 0.0150
vn -0.7512 0.2799 0.5978
vn -0.5496 -0.3264 0.7690
vn 0.5108 -0.8388 -0.1886
vn -0.2556 -0.7971 0.5471
vn 0.2345 0.7072 -0.6670
vn 0.4371 0.5950 -0.6745
vn -0.8327 -0.0081 0.5537
vn 0.0336 0.9239 -0.3811
vn 0.5389 -0.8296 -0.1462
vn -0.5706 -0.6594 0.4896
vn 0.7993 0.2656 -0.5391
vn -0.5497 0.8215 0.1516
vn -0.4822 0.8668 0.1272
vn -0.9755 0.0061 0.2198
vn -0.5117 -0.7922 -0.3325
vn 0.4094 -0.9011 -0.1427
vn -0.1008 -0.9703 0.2200
vn -0.2092 -0.8136 -0.5425
vn -0.7575 -0.5437 0.3613
vn -0.9577 -0.2026 -0.2045
vn -0.2219 -0.2953 0.9293
vn -0.5016 0.3356 0.7974
vn -0.7213 -0.4758 -0.5034
vn -0.6740 0.6029 0.4268
vn -0.3504 0.8102 0.4699
vn -0.9001 0.3791 -0.2150
vn 0.9274 0.1714 -0.3325
vn 0.7328 -0.6529 -0.1917
vn -0.0134 -0.9715 0.2365
vn -0.8056 0.5873 0.0779
vn 0.2913 -0.6977 0.6545
vn 0.7476 -0.6449 -0.1589
vn 0.8901 -0.3700 0.2660
vn 0.5418 -0.1661 0.8239
vn 0.4599 0.4418 0.7703
vn -0.1997 0.8299 0.5210
vn 0.8688 -0.4877 -0.0855
vn -0.9408 -0.2977 0.1620
vn 0.2772 0.9060 -0.3200
vn -0.2111 0.9648 -0.1565
vn 0.4598 0.7584 0.4619
vn 0.9508 0.0800 0.2993
vn -0.1795 -0.8898 -0.4195
vn -0.7782 0.6251 0.0610
vn -0.4469 0.8768 0.1774
vn -0.9436 -0.0872 -0.3195
vn -0.6393 -0.6529 -0.4062
vn -0.5263 0.8472 -0.0725
vn -0.7880 -0.4905 -0.3721
vn 0.9608 -0.1126 -0.2535
vn 0.2612 -0.9625 0.0732
vn -0.4889 -0.8567 0.1646
vn -0.7380 0.6681 -0.0951
vn -0.9727 0.2273 -0.0476
vn 0.1427 0.9882 -0.0563
vn -0.3742 0.9232 -0.0876
vn 0.6995 -0.7131 -0.0469
vn 0.1789 -0.9619 -0.2070
vn -0.0351 -0.9990 -0.0271
vn 0.1165 0.9557 0.2704
vn 0.4773 -0.8736 -0.0949
vn -0.5879 -0.8071 0.0545
vn -0.4557 -0.8817 -0.1224
vn -0.9630 0.0811 -0.2570
vn 0.9814 0.0818 -0.1734
vn 0.6136 0.7615 -0.2088
vn 0.9759 -0.2125 0.0492
vn 0.8316 0.4820 0.2760
vn 0.2890 0.9488 0.1273
vn 0.8669 0.4958 0.0518
usemtl mtl1.009
s 1
f 1//1 2//2 3//3
f 2//2 4//4 3//3
f 2//2 5//5 4//4
f 8//6 7//7 6//8
f 8//6 9//9 7//7
f 8//6 6//8 10//10
f 8//6 1//1 12//11
f 8//6 12//11 9//9
f 10//10 1//1 8//6
f 10//10 11//12 13//13
f 11//14 14//15 15//16
f 11//14 16//17 14//15
f 12//11 18//18 9//9
f 1//1 10//10 13//13
f 17//19 18//18 19//20
f 17//19 20//21 14//15
f 21//22 11//14 15//16
f 15//16 14//15 20//21
f 12//11 19//20 18//18
f 19//20 12//11 22//23
f 1//1 13//13 23//24
f 1//1 3//3 12//11
f 24//25 40//26 17//19
f 17//19 40//26 7//7
f 7//7 18//18 17//19
f 25//27 17//19 14//15
f 27//28 2//2 1//1
f 1//1 23//24 28//29
f 28//29 23//24 29//30
f 30//31 29//30 23//24
f 27//28 28//29 29//30
f 3//3 31//32 32//33
f 31//32 4//4 5//5
f 10//10 6//8 33//34
f 34//35 11//12 10//10
f 21//22 15//16 23//24
f 15//16 35//36 23//24
f 30//31 23//24 35//36
f 15//16 20//21 36//37
f 19//20 22//23 37//38
f 15//16 36//37 30//31
f 38//39 30//31 36//37
f 12//11 3//3 22//23
f 3//3 32//33 22//23
f 37//38 22//23 39//40
f 40//26 6//8 7//7
f 33//34 40//26 41//41
f 33//34 6//8 40//26
f 40//26 24//25 41//41
f 42//42 10//10 33//34
f 43//43 44//43 45//43
f 41//41 24//25 42//42
f 42//42 24//25 34//35
f 24//25 17//19 25//27
f 25//27 34//35 24//25
f 34//35 10//10 42//42
f 46//44 25//27 16//17
f 46//44 34//35 25//27
f 46//44 16//17 11//14
f 27//28 29//30 47//45
f 2//2 27//28 47//45
f 5//5 48//46 31//32
f 47//45 26//47 2//2
f 49//48 47//45 29//30
f 49//48 50//49 51//50
f 29//30 50//49 49//48
f 50//49 29//30 52//51
f 30//31 38//39 29//30
f 52//51 29//30 38//39
f 22//23 52//52 39//40
f 26//47 47//45 53//53
f 54//54 53//53 47//45
f 50//49 52//51 55//55
f 51//50 56//56 55//57
f 31//32 48//46 32//33
f 53//53 48//46 26//47
f 57//58 22//23 32//33
f 58//59 32//33 48//46
f 57//58 32//33 58//59
f 59//60 49//48 51//50
f 58//59 48//46 53//53
f 55//57 59//60 51//50
f 57//58 60//61 22//23
f 22//23 60//61 52//52
f 54//62 49//48 59//60
f 55//57 61//63 59//60
f 63//64 57//58 58//59
f 64//65 58//59 53//53
f 54//62 59//60 65//66
f 54//54 66//67 53//53
f 64//65 53//53 66//67
f 62//68 52//52 60//61
f 67//69 62//68 60//61
f 63//64 58//59 64//65
f 70//70 63//64 64//65
f 60//61 57//58 71//71
f 61//63 72//72 59//60
f 72//72 65//66 59//60
f 66//67 69//73 64//65
f 60//61 73//74 67//69
f 64//65 69//73 70//70
f 68//75 63//76 74//77
f 76//78 78//79 77//80
f 78//79 76//78 75//81
f 79//82 80//83 76//78
f 76//78 77//80 79//82
f 77//80 82//84 79//82
f 83//85 79//82 82//84
f 76//78 80//83 84//86
f 80//83 79//82 81//87
f 83//85 81//87 79//82
f 85//88 81//87 83//85
f 88//89 84//86 80//83
f 73//74 89//90 72//72
f 65//66 72//72 90//91
f 69//73 66//67 91//92
f 69//73 74//77 70//70
f 73//74 60//61 71//71
f 68//75 74//77 92//93
f 78//79 93//94 77//80
f 78//79 94//95 95//96
f 82//84 77//80 93//94
f 78//79 95//96 93//94
f 82//84 93//94 96//97
f 82//84 96//97 97//98
f 94//95 78//79 75//81
f 83//85 87//99 85//88
f 82//84 97//98 83//85
f 97//98 87//99 83//85
f 76//78 84//86 75//81
f 80//83 81//87 88//89
f 72//72 89//90 98//100
f 90//91 72//72 98//100
f 69//73 99//101 74//77
f 100//102 73//74 71//71
f 71//71 101//103 100//102
f 95//96 96//97 93//94
f 97//98 96//97 95//96
f 97//98 102//104 87//99
f 102//104 97//98 103//105
f 75//81 104//106 94//95
f 87//99 86//107 85//88
f 84//86 104//106 75//81
f 88//89 81//87 86//107
f 86//107 87//99 105//108
f 107//109 84//86 88//89
f 104//106 84//86 108//110
f 88//89 86//107 105//108
f 88//89 105//108 109//111
f 104//106 108//110 110//112
f 98//100 89//90 111//113
f 69//73 91//92 113//114
f 112//115 69//73 113//114
f 113//114 90//91 98//100
f 112//115 99//101 69//73
f 114//116 115//117 99//101
f 89//90 73//74 100//102
f 99//101 115//117 74//77
f 117//118 100//102 101//103
f 74//77 115//117 92//93
f 118//119 117//118 101//103
f 95//96 94//95 103//105
f 97//98 95//96 103//105
f 94//95 104//106 119//120
f 102//104 105//108 87//99
f 106//121 104//106 120//122
f 119//120 104//106 106//121
f 102//104 121//123 105//108
f 122//124 119//120 106//121
f 120//122 104//106 110//112
f 123//125 122//124 120//122
f 120//122 122//124 106//121
f 124//126 120//122 110//112
f 107//109 125//127 110//112
f 88//89 125//127 107//109
f 125//127 109//111 114//116
f 88//89 109//111 125//127
f 105//108 121//123 109//111
f 122//124 112//115 113//114
f 122//124 113//114 98//100
f 99//101 123//125 125//127
f 99//101 125//127 114//116
f 123//125 99//101 112//115
f 122//124 123//125 112//115
f 125//127 123//125 110//112
f 124//126 110//112 123//125
f 98//100 111//113 126//128
f 89//90 116//129 126//128
f 117//118 118//119 114//116
f 89//90 100//102 116//129
f 100//102 117//118 116//129
f 103//105 94//95 119//120
f 119//120 127//130 103//105
f 122//124 127//130 119//120
f 128//131 103//105 127//130
f 128//131 121//123 102//104
f 103//105 128//131 102//104
f 128//131 129//132 121//123
f 127//130 122//124 98//100
f 127//130 98//100 126//128
f 130//133 128//131 127//130
f 128//131 130//133 129//132
f 121//123 129//132 109//111
f 126//128 116//129 130//133
f 130//133 116//129 117//118
f 130//133 127//130 126//128
f 109//111 129//132 117//118
f 117//118 129//132 130//133
f 114//116 109//111 117//118
