#
# The license for this database is specified in the Creative Commons Attribution-Share Alike 2.1 Japan. If you use data from this database, please be sure attribute this database as follows: "BodyParts3D, (c)  The Database Center for Life Science licensed under CC Attribution-Share Alike 2.1 Japan".
# http://dbarchive.biosciencedbc.jp/en/bodyparts3d/lic.html
#
#
# Compatibility version : 4.0
# File ID : FJ3017
# Representation ID : BP9687
# Build-up logic : FMA 3.0 part_of
# Concept ID : FMA68662
# English name : Apical part of right apical segmental artery
# Bounds(mm): (-43.143900,-108.870000,1321.640000)-(-35.785400,-105.201000,1328.710000)
# Volume(cm3): 0.021500
#
v -42.9519 -105.632 1327.63
v -42.6861 -105.262 1327.76
v -43.1439 -105.896 1327.86
v -43.1331 -106.072 1327.96
v -42.9793 -106.127 1327.69
v -43.0061 -106.282 1328.08
v -42.9892 -106.215 1328.22
v -42.9198 -106.348 1327.85
v -42.9154 -106.365 1328.16
v -42.8458 -106.36 1328.38
v -42.5361 -106.212 1328.62
v -42.5371 -106.303 1328.6
v -42.0308 -107.16 1326.68
v -41.9322 -107.29 1327.04
v -42.3778 -105.201 1327.98
v -42.1947 -105.277 1327.85
v -42.1687 -105.235 1328.14
v -42.0166 -105.36 1328.17
v -42.1761 -105.598 1328.46
v -42.0355 -105.421 1328.39
v -42.2534 -106.281 1328.56
v -42.3404 -106.115 1328.71
v -42.1902 -106.15 1328.62
v -42.08 -105.842 1328.65
v -41.8034 -105.694 1328.25
v -41.8869 -106.737 1326.25
v -41.4574 -106.422 1326.06
v -41.6009 -107.375 1326.01
v -41.2268 -105.97 1327.37
v -40.784 -108.089 1325.33
v -41.1393 -107.939 1326.02
v -41.1628 -107.682 1326.86
v -40.9947 -107.995 1326.25
v -40.6183 -106.618 1327.05
v -40.8978 -107.043 1327.36
v -40.2748 -106.842 1325
v -40.5201 -107.67 1324.65
v -40.4106 -106.551 1325.63
v -40.5683 -108.29 1325.46
v -40.0082 -108.505 1325.47
v -40.5362 -108.186 1326.08
v -40.4997 -107.832 1326.61
v -40.2627 -107.15 1326.81
v -39.7269 -107.55 1323.92
v -40.0142 -108.129 1324.23
v -39.8068 -108.502 1324.37
v -39.7515 -108.656 1324.9
v -39.4578 -108.676 1325.09
v -39.7285 -106.781 1325.62
v -39.3309 -106.92 1325.29
v -39.7859 -108.36 1325.78
v -39.6236 -107.087 1326.05
v -39.5928 -107.477 1326.19
v -39.6897 -108.062 1326.05
v -39.2944 -107.85 1325.91
v -39.1172 -107.388 1323.48
v -39.381 -107.893 1323.53
v -38.8333 -108.431 1323.26
v -39.3456 -107.028 1324.16
v -38.9107 -108.748 1323.75
v -39.1866 -106.905 1324.54
v -38.6692 -107.086 1324.89
v -39.3027 -108.773 1324.44
v -38.9558 -107.17 1325.33
v -38.6391 -107.604 1325.36
v -38.9011 -108.578 1325.13
v -38.6606 -108.088 1322.93
v -38.2269 -108.692 1323.07
v -38.6578 -106.959 1323.78
v -38.0552 -106.886 1323.87
v -38.2981 -108.87 1323.62
v -37.953 -107.433 1324.73
v -38.4813 -108.855 1324.32
v -38.3251 -108.775 1324.49
v -37.9119 -107.863 1324.84
v -38.0707 -107.072 1322.84
v -37.5416 -107.022 1324.04
v -37.5785 -108.858 1323.7
v -37.3941 -108.689 1323.99
v -37.7672 -108.426 1324.55
v -37.0525 -107.12 1321.82
v -37.3523 -107.763 1321.84
v -37.225 -107.256 1321.86
v -37.0729 -107.849 1321.64
v -37.061 -107.375 1321.75
v -37.2602 -108.041 1321.82
v -36.9646 -107.926 1321.75
v -36.9466 -108.379 1321.81
v -37.2931 -107.049 1322.06
v -37.0138 -106.814 1322.08
v -36.7969 -106.627 1322.31
v -36.7179 -108.55 1321.93
v -36.8291 -108.64 1322.13
v -36.3838 -108.792 1322.45
v -36.5341 -106.589 1322.82
v -36.3352 -106.698 1322.91
v -36.3313 -108.771 1322.75
v -36.0492 -108.678 1322.84
v -36.1006 -108.586 1323.09
v -36.3315 -106.795 1323.21
v -36.0002 -107.036 1323.3
v -36.2355 -107.075 1323.48
v -36.0497 -107.287 1323.17
v -35.9582 -107.386 1323.5
v -36.0778 -108.292 1323.42
v -35.9263 -108.349 1323.09
v -35.9186 -108.484 1323.1
v -35.7854 -107.928 1323.4
v -42.9519 -105.632 1327.63
v -42.6861 -105.262 1327.76
v -42.6861 -105.262 1327.76
v -43.1439 -105.896 1327.86
v -43.1439 -105.896 1327.86
v -43.1331 -106.072 1327.96
v -42.9892 -106.215 1328.22
v -42.8458 -106.36 1328.38
v -42.5361 -106.212 1328.62
v -42.5361 -106.212 1328.62
v -42.5371 -106.303 1328.6
v -42.5371 -106.303 1328.6
v -42.3778 -105.201 1327.98
v -42.1687 -105.235 1328.14
v -42.0355 -105.421 1328.39
v -42.2534 -106.281 1328.56
v -42.3404 -106.115 1328.71
v -42.08 -105.842 1328.65
v -40.4106 -106.551 1325.63
v -37.0525 -107.12 1321.82
v -37.0525 -107.12 1321.82
v -37.0729 -107.849 1321.64
v -37.061 -107.375 1321.75
v -36.9466 -108.379 1321.81
v -37.0138 -106.814 1322.08
v -36.7969 -106.627 1322.31
v -36.7969 -106.627 1322.31
v -36.7969 -106.627 1322.31
v -36.7969 -106.627 1322.31
v -36.7179 -108.55 1321.93
v -36.7179 -108.55 1321.93
v -36.3838 -108.792 1322.45
v -36.5341 -106.589 1322.82
v -36.3352 -106.698 1322.91
v -36.3352 -106.698 1322.91
v -36.0492 -108.678 1322.84
v -36.0002 -107.036 1323.3
v -35.9582 -107.386 1323.5
v -35.9186 -108.484 1323.1
v -35.7854 -107.928 1323.4
vn -0.62183 0.327948 -0.711181
vn -0.105373 0.817174 -0.566678
vn -0.811161 0.584793 -0.00590781
vn -0.873797 -0.444382 -0.197491
vn -0.837137 -0.277427 -0.471419
vn -0.79751 -0.596817 0.0882429
vn -0.64841 0.365108 0.668027
vn -0.768669 -0.626274 -0.130111
vn -0.721858 -0.660422 0.206795
vn -0.502369 -0.792457 0.345887
vn -0.608427 0.26142 0.749318
vn -0.550036 -0.173641 0.81689
vn -0.783504 -0.56666 -0.254985
vn -0.588414 -0.801358 0.107676
vn -0.496234 0.55217 0.66997
vn 0.329243 0.913311 -0.239714
vn 0.518476 0.85502 -0.0111503
vn 0.656359 0.733434 0.176825
vn -0.480529 0.52911 0.699381
vn 0.733043 0.564171 0.379946
vn 0.254544 -0.604581 0.754778
vn 0.283709 -0.509126 0.812588
vn 0.442651 -0.407546 0.798728
vn -0.310912 0.512451 0.800455
vn 0.779747 0.367271 0.507057
vn -0.749635 0.0759355 -0.657481
vn -0.377505 0.642723 -0.666631
vn -0.802468 -0.331699 -0.496005
vn 0.669343 0.730152 0.137323
vn -0.703169 -0.63185 -0.326066
vn -0.617733 -0.784589 -0.0531505
vn -0.17862 -0.858901 0.479982
vn -0.385753 -0.894092 0.227583
vn 0.755825 0.418148 0.503866
vn 0.500889 -0.376157 0.779497
vn -0.257603 0.82116 -0.509252
vn -0.742929 -0.05618 -0.667009
vn -0.068969 0.868635 -0.490629
vn -0.468072 -0.883609 -0.0120268
vn -0.185217 -0.946125 0.265599
vn -0.151783 -0.906619 0.393705
vn 0.187563 -0.710432 0.678311
vn 0.711721 0.0517014 0.700557
vn -0.604634 0.377377 -0.70143
vn -0.701976 -0.379494 -0.602673
vn -0.552504 -0.751899 -0.359704
vn -0.332544 -0.943079 -0.00397588
vn -0.00358339 -0.954576 0.297946
vn 0.540736 0.812528 0.217721
vn 0.429043 0.868549 0.248082
vn 0.120103 -0.831823 0.54189
vn 0.666736 0.520694 0.533236
vn 0.694697 0.132108 0.707067
vn 0.400992 -0.561619 0.723733
vn 0.607717 -0.161274 0.777606
vn -0.514225 0.639242 -0.571789
vn -0.676179 -0.0128043 -0.736626
vn -0.552102 -0.54696 -0.6293
vn -0.281111 0.883188 -0.37544
vn -0.393311 -0.841298 -0.370843
vn -0.0108873 0.990848 -0.134542
vn 0.348966 0.868629 0.351718
vn -0.241779 -0.967815 -0.0698422
vn 0.540428 0.687985 0.48437
vn 0.633871 0.271564 0.724196
vn 0.282446 -0.774244 0.566366
vn -0.62996 -0.239185 -0.738878
vn -0.346677 -0.807984 -0.476422
vn -0.229195 0.95452 -0.190686
vn -3.63739e-06 0.987943 0.154818
vn -0.123885 -0.979404 -0.15944
vn 0.498749 0.531408 0.68473
vn 0.0258175 -0.987037 0.158402
vn 0.248481 -0.867446 0.43104
vn 0.572288 0.0841051 0.815728
vn -0.453791 0.786523 -0.418874
vn 0.240487 0.826283 0.509335
vn 0.164273 -0.970159 0.17834
vn 0.361776 -0.806846 0.46703
vn 0.485479 -0.52734 0.697297
vn -0.473709 0.466086 -0.747237
vn -0.61939 0.044085 -0.783845
vn -0.531568 0.301972 -0.791359
vn -0.518066 -0.0385038 -0.854474
vn -0.411299 0.237408 -0.88004
vn -0.552092 -0.315832 -0.77165
vn 0.707877 0.0501041 -0.704556
vn -0.423062 -0.620916 -0.659911
vn -0.544107 0.577792 -0.608361
vn -0.483347 0.723663 -0.492633
vn -0.432394 0.83674 -0.336007
vn 0.401509 -0.101706 -0.91019
vn -0.193878 -0.887092 -0.418903
vn 0.0610992 -0.988878 -0.135596
vn 0.10351 0.951321 0.2903
vn 0.800111 0.127245 -0.586201
vn 0.219895 -0.970677 0.097119
vn 0.326379 -0.905338 0.271734
vn 0.393996 -0.815702 0.423553
vn 0.338653 0.826884 0.448973
vn 0.471827 0.690035 0.548845
vn 0.411001 0.568471 0.712684
vn 0.842323 0.141049 -0.520189
vn 0.508353 0.318461 0.8001
vn 0.548929 -0.507643 0.66406
vn 0.855778 0.0798195 -0.511149
vn 0.486692 -0.678158 0.550665
vn 0.579178 -0.287586 0.762789
vn -0.811161 0.584793 -0.00590781
vn -0.811161 0.584793 -0.00590781
vn -0.56326 0.503386 0.655241
vn -0.828795 -0.159639 -0.536297
vn -0.636952 0.429158 0.640403
vn -0.767918 0.2801 0.576061
vn -0.829341 -0.472238 0.298637
vn -0.611244 -0.00427852 0.79143
vn 0.00125494 -0.681381 0.731928
vn 0.16842 -0.213551 0.962305
vn 0.16842 -0.213551 0.962305
vn 0.0111468 -0.776448 0.630083
vn 0.193382 0.939162 -0.283864
vn -0.42728 0.599198 0.677048
vn -0.359316 0.564687 0.742981
vn 0.16842 -0.213551 0.962305
vn -0.45036 0.50432 0.736775
vn 0.657495 -0.0473501 0.75197
vn 0.387573 0.921518 0.0243171
vn 0.802974 0.148051 -0.577333
vn 0.276113 0.601829 -0.749376
vn 0.727186 0.0306276 -0.685757
vn 0.787558 0.133974 -0.601501
vn 0.555733 -0.084846 -0.82702
vn 0.276113 0.601829 -0.749376
vn -0.154246 0.987243 0.0394832
vn 0.276113 0.601829 -0.749376
vn 0.798203 0.138015 -0.586365
vn 0.566813 0.74683 -0.347804
vn -0.164375 -0.861993 -0.47953
vn 0.804609 0.0228177 -0.593366
vn 0.771251 -0.21913 -0.597623
vn 0.566813 0.74683 -0.347804
vn 0.566813 0.74683 -0.347804
vn 0.442833 0.854867 0.270374
vn 0.828868 0.0192647 -0.559113
vn 0.898679 0.0455372 -0.436237
vn 0.963691 0.143306 -0.225307
vn 0.8925 0.0214722 -0.450537
vn 0.903033 0.166054 -0.39618
g grp1
usemtl mtl1
f 1//1 2//2 27//27 
f 110//110 109//109 3//3 
f 1//1 26//26 112//112 
f 112//112 26//26 5//5 
f 26//26 1//1 27//27 
f 4//4 13//13 8//8 
f 13//13 14//14 8//8 
f 14//14 6//6 8//8 
f 111//111 19//19 15//15 
f 5//5 4//4 112//112 
f 113//113 114//114 7//7 
f 111//111 113//113 19//19 
f 19//19 113//113 7//7 
f 115//115 4//4 6//6 
f 4//4 8//8 6//6 
f 6//6 9//9 115//115 
f 10//10 115//115 9//9 
f 11//11 19//19 7//7 
f 116//116 11//11 7//7 
f 14//14 10//10 9//9 
f 6//6 14//14 9//9 
f 11//11 116//116 12//12 
f 117//117 21//21 22//22 
f 119//119 124//124 118//118 
f 5//5 13//13 4//4 
f 38//38 27//27 2//2 
f 16//16 38//38 2//2 
f 14//14 32//32 10//10 
f 120//120 10//10 32//32 
f 2//2 121//121 16//16 
f 121//121 17//17 16//16 
f 122//122 15//15 19//19 
f 20//20 18//18 17//17 
f 17//17 18//18 29//29 
f 18//18 20//20 29//29 
f 29//29 16//16 17//17 
f 29//29 20//20 25//25 
f 123//123 122//122 19//19 
f 24//24 123//123 19//19 
f 20//20 126//126 25//25 
f 125//125 19//19 11//11 
f 19//19 125//125 24//24 
f 126//126 22//22 23//23 
f 23//23 22//22 21//21 
f 126//126 23//23 35//35 
f 35//35 23//23 21//21 
f 5//5 26//26 28//28 
f 5//5 28//28 13//13 
f 33//33 14//14 31//31 
f 13//13 31//31 14//14 
f 29//29 127//127 16//16 
f 33//33 32//32 14//14 
f 42//42 120//120 32//32 
f 25//25 126//126 43//43 
f 35//35 21//21 42//42 
f 120//120 42//42 21//21 
f 26//26 37//37 28//28 
f 26//26 27//27 44//44 
f 38//38 36//36 27//27 
f 28//28 30//30 13//13 
f 30//30 31//31 13//13 
f 31//31 30//30 39//39 
f 39//39 33//33 31//31 
f 39//39 41//41 33//33 
f 41//41 39//39 40//40 
f 29//29 49//49 127//127 
f 41//41 32//32 33//33 
f 34//34 29//29 25//25 
f 43//43 34//34 25//25 
f 35//35 43//43 126//126 
f 26//26 44//44 37//37 
f 37//37 44//44 57//57 
f 45//45 37//37 57//57 
f 56//56 44//44 36//36 
f 45//45 28//28 37//37 
f 45//45 30//30 28//28 
f 39//39 30//30 46//46 
f 45//45 46//46 30//30 
f 46//46 47//47 39//39 
f 39//39 47//47 40//40 
f 27//27 36//36 44//44 
f 51//51 41//41 40//40 
f 48//48 51//51 40//40 
f 52//52 34//34 53//53 
f 34//34 49//49 29//29 
f 43//43 35//35 55//55 
f 55//55 53//53 43//43 
f 32//32 41//41 42//42 
f 42//42 41//41 51//51 
f 54//54 42//42 51//51 
f 35//35 42//42 54//54 
f 53//53 34//34 43//43 
f 46//46 63//63 47//47 
f 59//59 56//56 36//36 
f 38//38 61//61 36//36 
f 61//61 59//59 36//36 
f 47//47 48//48 40//40 
f 49//49 34//34 52//52 
f 49//49 50//50 127//127 
f 50//50 49//49 64//64 
f 49//49 52//52 64//64 
f 51//51 66//66 54//54 
f 54//54 80//80 55//55 
f 80//80 54//54 66//66 
f 55//55 35//35 54//54 
f 57//57 67//67 45//45 
f 58//58 45//45 67//67 
f 60//60 58//58 68//68 
f 69//69 59//59 61//61 
f 70//70 69//69 61//61 
f 76//76 56//56 59//59 
f 45//45 58//58 46//46 
f 46//46 58//58 60//60 
f 46//46 60//60 63//63 
f 60//60 71//71 63//63 
f 62//62 61//61 127//127 
f 50//50 62//62 127//127 
f 70//70 61//61 62//62 
f 63//63 48//48 47//47 
f 51//51 48//48 66//66 
f 63//63 71//71 73//73 
f 48//48 63//63 73//73 
f 62//62 50//50 64//64 
f 65//65 52//52 53//53 
f 55//55 65//65 53//53 
f 65//65 64//64 52//52 
f 72//72 64//64 65//65 
f 64//64 72//72 62//62 
f 44//44 82//82 57//57 
f 76//76 59//59 69//69 
f 91//91 76//76 69//69 
f 134//134 69//69 70//70 
f 57//57 82//82 67//67 
f 71//71 60//60 68//68 
f 78//78 73//73 71//71 
f 62//62 77//77 70//70 
f 72//72 77//77 62//62 
f 73//73 74//74 48//48 
f 74//74 66//66 48//48 
f 74//74 80//80 66//66 
f 78//78 74//74 73//73 
f 79//79 74//74 78//78 
f 79//79 80//80 74//74 
f 75//75 55//55 80//80 
f 65//65 55//55 75//75 
f 82//82 44//44 83//83 
f 86//86 58//58 67//67 
f 86//86 67//67 82//82 
f 68//68 88//88 93//93 
f 58//58 86//86 88//88 
f 68//68 93//93 71//71 
f 78//78 71//71 94//94 
f 71//71 93//93 94//94 
f 72//72 65//65 75//75 
f 102//102 77//77 72//72 
f 102//102 72//72 75//75 
f 75//75 80//80 108//108 
f 108//108 104//104 75//75 
f 89//89 90//90 81//81 
f 83//83 89//89 81//81 
f 81//81 85//85 83//83 
f 83//83 84//84 82//82 
f 84//84 83//83 85//85 
f 84//84 86//86 82//82 
f 88//88 86//86 84//84 
f 132//132 130//130 87//87 
f 132//132 87//87 92//92 
f 91//91 90//90 76//76 
f 83//83 44//44 89//89 
f 89//89 56//56 76//76 
f 89//89 44//44 56//56 
f 90//90 89//89 76//76 
f 128//128 103//103 131//131 
f 129//129 133//133 135//135 
f 131//131 103//103 87//87 
f 130//130 131//131 87//87 
f 88//88 68//68 58//58 
f 95//95 134//134 70//70 
f 97//97 78//78 94//94 
f 80//80 79//79 107//107 
f 105//105 80//80 107//107 
f 78//78 98//98 79//79 
f 98//98 99//99 79//79 
f 103//103 128//128 136//136 
f 88//88 138//138 93//93 
f 87//87 103//103 139//139 
f 138//138 94//94 93//93 
f 139//139 103//103 144//144 
f 139//139 144//144 140//140 
f 98//98 97//97 94//94 
f 96//96 103//103 136//136 
f 137//137 141//141 142//142 
f 70//70 77//77 95//95 
f 77//77 100//100 95//95 
f 143//143 95//95 100//100 
f 103//103 106//106 144//144 
f 98//98 107//107 99//99 
f 107//107 79//79 99//99 
f 98//98 78//78 97//97 
f 77//77 102//102 100//100 
f 100//100 101//101 143//143 
f 103//103 96//96 145//145 
f 101//101 100//100 102//102 
f 101//101 102//102 104//104 
f 145//145 146//146 103//103 
f 75//75 104//104 102//102 
f 103//103 146//146 148//148 
f 105//105 108//108 80//80 
f 108//108 105//105 107//107 
f 106//106 147//147 144//144 
f 106//106 148//148 147//147 
f 106//106 103//103 148//148 
