#
# The license for this database is specified in the Creative Commons Attribution-Share Alike 2.1 Japan. If you use data from this database, please be sure attribute this database as follows: "BodyParts3D, (c)  The Database Center for Life Science licensed under CC Attribution-Share Alike 2.1 Japan".
# http://dbarchive.biosciencedbc.jp/en/bodyparts3d/lic.html
#
#
# Compatibility version : 4.0
# File ID : FJ3474
# Representation ID : BP10270
# Build-up logic : FMA 3.0 is_a
# Concept ID : FMA70490
# English name : Posterior division of left renal artery
# Bounds(mm): (40.816800,-75.935700,1028.310100)-(49.811500,-71.211300,1039.150000)
# Volume(cm3): 0.016100
#
v 41.2609 -75.8861 1038.26
v 41.3993 -75.9277 1038.35
v 41.4007 -75.8827 1038.22
v 41.5161 -75.8794 1038.27
v 41.5424 -75.6607 1038.02
v 41.5727 -75.9067 1038.52
v 41.7585 -75.7219 1038.33
v 41.2803 -75.9071 1038.5
v 41.1811 -75.8561 1038.44
v 41.1661 -75.7864 1038.65
v 41.3667 -75.9052 1038.65
v 41.4434 -75.9357 1038.57
v 41.3723 -75.8142 1038.86
v 41.5079 -75.8955 1038.72
v 41.2135 -75.6234 1038.97
v 41.4849 -75.7928 1038.91
v 41.4103 -75.7305 1038.98
v 41.1002 -75.7779 1038.19
v 41.1818 -75.694 1038
v 41.0759 -75.5169 1037.92
v 40.9486 -75.5556 1038.08
v 40.8988 -75.3556 1038.02
v 40.855 -75.2178 1038.09
v 41.2736 -75.4148 1037.86
v 40.9966 -75.2203 1037.94
v 40.9944 -74.9971 1038.02
v 41.271 -74.925 1037.87
v 41.04 -75.7331 1038.37
v 40.9089 -75.5518 1038.39
v 40.8226 -75.3259 1038.21
v 41.0165 -75.6586 1038.57
v 40.9063 -75.48 1038.6
v 40.8244 -75.307 1038.53
v 41.0311 -75.5689 1038.78
v 40.8284 -75.1426 1038.63
v 40.9306 -75.3642 1038.8
v 40.8168 -75.0212 1038.37
v 41.0763 -75.4472 1038.97
v 40.9849 -75.1415 1038.94
v 40.891 -74.8727 1038.61
v 40.9462 -74.7688 1038.3
v 41.729 -75.7744 1038.66
v 41.6798 -75.7155 1038.85
v 41.5029 -75.6885 1039
v 41.3972 -75.5812 1039.08
v 41.2485 -75.4094 1039.12
v 41.675 -75.4768 1039.03
v 41.5071 -75.3311 1039.14
v 41.1345 -75.2414 1039.09
v 41.3018 -75.1179 1039.15
v 41.2161 -74.9348 1039.07
v 41.1444 -74.6311 1038.8
v 41.4696 -74.2778 1038.1
v 41.0125 -74.6433 1038.52
v 41.1835 -74.4469 1038.35
v 41.2271 -74.4212 1038.59
v 42.71 -74.8596 1038.22
v 42.7178 -74.8415 1038.49
v 42.7674 -74.5677 1037.79
v 41.9637 -74.4047 1039.02
v 42.3517 -74.5546 1038.96
v 41.9306 -74.1733 1037.81
v 42.0385 -73.7481 1038.14
v 41.6242 -74.028 1038.38
v 41.7077 -74.1558 1038.79
v 43.1745 -74.4945 1038.28
v 43.171 -74.4786 1038.03
v 42.8682 -74.1137 1037.55
v 43.7445 -73.9191 1037.56
v 42.9686 -74.4124 1038.68
v 42.9285 -73.8845 1038.8
v 42.5706 -73.4307 1038.39
v 42.7432 -73.5754 1038.68
v 43.9221 -73.5551 1037.3
v 44.0085 -73.9391 1038.01
v 43.5774 -73.8608 1038.55
v 43.4996 -72.8677 1037.94
v 43.7221 -72.9046 1037.44
v 43.6998 -72.9085 1038.24
v 45.0436 -73.296 1037.68
v 44.0977 -73.0971 1038.37
v 44.8724 -73.0121 1036.95
v 44.3531 -72.9948 1037.07
v 45.4835 -73.0678 1037.19
v 45.0213 -72.9628 1037.97
v 45.8572 -72.5631 1036.49
v 44.8608 -72.2232 1037.16
v 45.2425 -72.297 1037.75
v 44.6428 -72.3315 1037.7
v 46.2725 -72.5699 1036.47
v 46.2093 -72.7083 1037
v 46.4254 -72.4294 1037.13
v 46.9643 -72.1758 1035.79
v 46.8222 -71.6511 1035.76
v 45.9626 -72.0082 1036.35
v 46.1181 -71.7141 1036.45
v 45.7694 -71.7887 1036.94
v 46.0952 -72.0557 1037.35
v 45.9335 -71.8436 1037.2
v 49.3922 -72.0574 1029.4
v 48.2251 -71.9644 1034.69
v 47.574 -72.0335 1035.28
v 47.1813 -72.2878 1036.04
v 47.6277 -72.0912 1035.94
v 47.2584 -72.0246 1036.54
v 48.6753 -71.7685 1032.46
v 48.1275 -71.7777 1034.16
v 47.3672 -71.9014 1035.27
v 47.901 -71.3524 1034.58
v 46.5676 -71.5334 1036.63
v 47.0784 -71.731 1036.68
v 47.0536 -71.3683 1035.99
v 47.2697 -71.365 1036.14
v 46.6203 -71.6707 1036.88
v 49.7495 -72.1061 1028.4
v 49.8115 -71.9759 1028.31
v 49.6526 -72.0086 1028.46
v 49.8023 -72.1044 1028.62
v 49.454 -72.132 1029.68
v 49.0498 -71.4755 1031.61
v 49.1286 -71.6768 1033.38
v 49.07 -71.3792 1032.98
v 48.5533 -71.3964 1033.08
v 48.4829 -71.2113 1034.04
v 48.497 -71.2725 1034.81
v 48.2273 -71.5327 1035.44
v 47.98 -71.2355 1035.35
v 47.793 -71.5741 1036
v 48.0208 -71.3519 1035.6
v 44.0977 -73.0971 1038.37
v 45.0213 -72.9628 1037.97
v 45.2425 -72.297 1037.75
v 46.2093 -72.7083 1037
v 46.4254 -72.4294 1037.13
v 46.9643 -72.1758 1035.79
v 46.8222 -71.6511 1035.76
v 46.8222 -71.6511 1035.76
v 45.9626 -72.0082 1036.35
v 49.3922 -72.0574 1029.4
v 48.2251 -71.9644 1034.69
v 47.6277 -72.0912 1035.94
v 47.6277 -72.0912 1035.94
v 48.6753 -71.7685 1032.46
v 48.6753 -71.7685 1032.46
v 48.6753 -71.7685 1032.46
v 48.6753 -71.7685 1032.46
v 48.1275 -71.7777 1034.16
v 48.1275 -71.7777 1034.16
v 47.901 -71.3524 1034.58
v 47.901 -71.3524 1034.58
v 47.901 -71.3524 1034.58
v 49.7495 -72.1061 1028.4
v 49.7495 -72.1061 1028.4
v 49.7495 -72.1061 1028.4
v 49.8115 -71.9759 1028.31
v 49.8115 -71.9759 1028.31
v 49.8115 -71.9759 1028.31
v 49.8115 -71.9759 1028.31
v 49.6526 -72.0086 1028.46
v 49.6526 -72.0086 1028.46
v 49.6526 -72.0086 1028.46
v 49.8023 -72.1044 1028.62
v 49.8023 -72.1044 1028.62
v 49.454 -72.132 1029.68
v 49.454 -72.132 1029.68
v 49.0498 -71.4755 1031.61
v 49.1286 -71.6768 1033.38
v 49.1286 -71.6768 1033.38
v 49.1286 -71.6768 1033.38
v 49.07 -71.3792 1032.98
v 48.5533 -71.3964 1033.08
v 48.497 -71.2725 1034.81
v 48.2273 -71.5327 1035.44
v 47.793 -71.5741 1036
vn -0.303831 -0.91311 -0.271877
vn 0.0248784 -0.986043 -0.164624
vn 0.0747211 -0.851245 -0.519422
vn 0.387264 -0.840055 -0.379914
vn 0.300029 -0.613032 -0.730872
vn 0.429947 -0.902465 -0.0264945
vn 0.623184 -0.740616 -0.251256
vn -0.363705 -0.926867 0.0929286
vn -0.579173 -0.813691 0.0496579
vn -0.606972 -0.733387 0.306152
vn -0.289039 -0.907632 0.304403
vn -0.00506776 -0.994428 0.105292
vn -0.285906 -0.81901 0.497474
vn 0.226253 -0.905471 0.359072
vn -0.515329 -0.590642 0.620949
vn 0.183469 -0.780963 0.597022
vn -0.136268 -0.679994 0.720444
vn -0.595416 -0.760019 -0.260484
vn -0.217972 -0.67442 -0.70544
vn -0.459082 -0.321559 -0.828157
vn -0.776936 -0.521256 -0.353076
vn -0.797125 -0.167527 -0.580109
vn -0.87026 0.14736 -0.470035
vn -0.0878666 -0.223643 -0.970702
vn -0.531412 0.0888116 -0.842445
vn -0.682565 0.37918 -0.624762
vn -0.359092 0.180691 -0.915644
vn -0.749391 -0.660764 0.042476
vn -0.874629 -0.483148 0.0398966
vn -0.966955 -0.194826 -0.164442
vn -0.767017 -0.603028 0.219187
vn -0.858514 -0.44779 0.249876
vn -0.96781 -0.20866 0.140727
vn -0.74345 -0.539793 0.394849
vn -0.955755 0.0468593 0.290408
vn -0.865941 -0.270615 0.420611
vn -0.968903 0.21722 -0.118504
vn -0.706237 -0.341749 0.62003
vn -0.79667 0.118472 0.59269
vn -0.883622 0.396564 0.248895
vn -0.8258 0.505242 -0.250568
vn 0.626163 -0.759245 0.177389
vn 0.555849 -0.64115 0.529111
vn 0.290044 -0.576043 0.764231
vn -0.017621 -0.448187 0.893766
vn -0.33 -0.269082 0.904818
vn 0.429376 -0.374378 0.821874
vn 0.149862 -0.128629 0.980304
vn -0.560221 -0.0177122 0.828154
vn -0.175227 0.0953783 0.979897
vn -0.451488 0.364652 0.814363
vn -0.675221 0.534335 0.508491
vn -0.626222 0.604212 -0.492721
vn -0.796156 0.591734 0.126433
vn -0.726677 0.673656 -0.134641
vn -0.666616 0.701992 0.25066
vn 0.605353 -0.776923 -0.173028
vn 0.677958 -0.699397 0.226311
vn 0.381118 -0.67986 -0.62653
vn -0.0315211 0.285237 0.957939
vn 0.343817 -0.131686 0.929757
vn -0.44336 0.323825 -0.835805
vn -0.569556 0.792334 -0.218662
vn -0.620138 0.783143 0.0459949
vn -0.432001 0.667768 0.606186
vn 0.62676 -0.759919 0.172321
vn 0.517424 -0.811696 -0.270964
vn -0.0458052 -0.242601 -0.969044
vn 0.315588 -0.766815 -0.558927
vn 0.586509 -0.533644 0.609288
vn 0.201083 0.15505 0.967226
vn -0.436122 0.837534 0.329141
vn -0.137679 0.588861 0.796422
vn 0.0172015 -0.467293 -0.883935
vn 0.550384 -0.833529 0.0480387
vn 0.472439 -0.259572 0.842273
vn -0.468178 0.883371 0.0215719
vn -0.536898 0.592594 -0.600477
vn -0.185489 0.769611 0.610977
vn 0.581367 -0.695775 0.421794
vn 0.0204847 0.527379 0.849383
vn -0.0236968 -0.606551 -0.794691
vn -0.294419 -0.105651 -0.949819
vn 0.363505 -0.892299 -0.267705
vn 0.576262 -0.520208 0.630322
vn -0.289609 -0.429657 -0.85529
vn -0.514851 0.807123 -0.288928
vn -0.00394026 0.717625 0.696419
vn -0.278415 0.901655 0.330914
vn 0.11442 -0.883037 -0.455141
vn 0.362031 -0.926005 -0.106992
vn 0.606252 -0.624377 0.492556
vn -0.111485 -0.854258 -0.507755
vn -0.618337 -0.25605 -0.743033
vn -0.572966 0.56916 -0.589718
vn -0.528314 0.740832 -0.414791
vn -0.341468 0.938246 0.0556276
vn 0.38936 0.330983 0.859563
vn -0.0263285 0.837277 0.546145
vn -0.625828 -0.765589 -0.14904
vn -0.241279 -0.950208 -0.197203
vn -0.123076 -0.932828 -0.338652
vn 0.199645 -0.951866 -0.232578
vn 0.274059 -0.959511 -0.0650474
vn 0.708104 -0.242661 0.663103
vn -0.61812 -0.782883 -0.0708579
vn -0.495065 -0.784812 -0.372802
vn -0.587926 -0.55827 -0.585387
vn -0.933038 -0.196815 -0.301171
vn -0.101349 0.950862 0.292556
vn 0.537699 0.324103 0.778355
vn -0.339684 0.931911 -0.127105
vn 0.207597 0.874408 0.438536
vn 0.220451 0.734804 0.641455
vn -0.628204 -0.754843 -0.188608
vn 0.826728 -0.527964 -0.194355
vn -0.758582 -0.604666 -0.242759
vn 0.826728 -0.527964 -0.194355
vn -0.546876 -0.831333 -0.0990577
vn -0.484152 0.845735 -0.224341
vn 0.242432 -0.966879 0.0798284
vn 0.924385 0.348051 0.156117
vn -0.932562 0.212596 -0.291774
vn -0.120695 0.987888 -0.0975235
vn 0.865715 0.313066 0.390547
vn 0.778245 -0.413048 0.472996
vn 0.113126 0.979187 0.16851
vn 0.761272 -0.196816 0.617841
vn 0.54713 0.665829 0.507268
vn 0.380388 0.0322459 0.924265
vn 0.420125 0.0688864 0.904848
vn 0.366136 0.189867 0.910986
vn 0.603516 -0.666462 0.437717
vn 0.559956 -0.0240604 0.828173
vn -0.60205 -0.207178 -0.771111
vn -0.568868 0.68272 -0.458566
vn -0.745758 0.226959 -0.626366
vn -0.446323 -0.0492128 -0.893517
vn -0.95979 0.139319 -0.243708
vn 0.378067 -0.923974 0.0577765
vn 0.486752 -0.861209 0.146257
vn 0.726592 -0.495988 0.475457
vn 0.11155 -0.992791 0.0438441
vn -0.554236 -0.812071 -0.182655
vn -0.933038 -0.196815 -0.301171
vn -0.925438 0.215668 -0.311531
vn -0.933038 -0.196815 -0.301171
vn -0.745758 0.226959 -0.626366
vn -0.854668 0.353429 -0.380303
vn -0.479591 0.83511 -0.269412
vn -0.745758 0.226959 -0.626366
vn 0.826728 -0.527964 -0.194355
vn -0.651138 -0.196477 -0.733086
vn 0.0593492 -0.998216 -0.00652484
vn -0.651138 -0.196477 -0.733086
vn 0.965363 0.229633 0.123866
vn -0.396661 0.889604 -0.226416
vn 0.313993 0.946761 -0.0710752
vn -0.651138 -0.196477 -0.733086
vn -0.945373 0.20626 -0.252442
vn -0.50076 0.832598 -0.236687
vn 0.300107 -0.951046 0.0738081
vn 0.954036 0.277135 0.114069
vn 0.300107 -0.951046 0.0738081
vn -0.0405715 -0.992125 0.118496
vn 0.234166 0.969564 -0.0715031
vn 0.779526 -0.500401 0.376746
vn 0.520865 -0.840495 0.149222
vn 0.925473 0.281064 0.253974
vn 0.285423 0.958061 -0.0255316
vn -0.48607 0.846911 -0.215586
vn 0.315609 0.935492 0.158889
vn 0.823556 0.252665 0.507853
vn 0.548292 0.562374 0.61896
g grp1
usemtl mtl1
f 19//19 1//1 18//18 
f 2//2 12//12 8//8 
f 2//2 1//1 3//3 
f 8//8 1//1 2//2 
f 8//8 9//9 1//1 
f 3//3 19//19 5//5 
f 3//3 1//1 19//19 
f 9//9 18//18 1//1 
f 5//5 19//19 24//24 
f 2//2 3//3 4//4 
f 2//2 4//4 6//6 
f 12//12 2//2 6//6 
f 4//4 3//3 5//5 
f 68//68 5//5 24//24 
f 4//4 5//5 7//7 
f 6//6 4//4 7//7 
f 7//7 42//42 6//6 
f 42//42 14//14 6//6 
f 7//7 5//5 59//59 
f 58//58 42//42 7//7 
f 8//8 11//11 10//10 
f 8//8 10//10 9//9 
f 18//18 9//9 28//28 
f 9//9 10//10 28//28 
f 28//28 10//10 31//31 
f 10//10 34//34 31//31 
f 34//34 32//32 31//31 
f 11//11 8//8 12//12 
f 11//11 13//13 10//10 
f 6//6 14//14 12//12 
f 12//12 14//14 11//11 
f 13//13 11//11 14//14 
f 13//13 15//15 10//10 
f 34//34 10//10 15//15 
f 15//15 38//38 34//34 
f 43//43 16//16 14//14 
f 14//14 16//16 13//13 
f 13//13 16//16 17//17 
f 17//17 15//15 13//13 
f 46//46 38//38 15//15 
f 14//14 42//42 43//43 
f 17//17 16//16 44//44 
f 44//44 16//16 43//43 
f 17//17 45//45 15//15 
f 17//17 44//44 45//45 
f 46//46 15//15 45//45 
f 46//46 45//45 48//48 
f 46//46 49//49 38//38 
f 19//19 18//18 21//21 
f 20//20 24//24 19//19 
f 18//18 28//28 21//21 
f 19//19 21//21 20//20 
f 25//25 20//20 22//22 
f 22//22 20//20 21//21 
f 21//21 30//30 22//22 
f 25//25 22//22 23//23 
f 23//23 22//22 30//30 
f 24//24 20//20 25//25 
f 25//25 23//23 26//26 
f 37//37 23//23 30//30 
f 26//26 23//23 37//37 
f 24//24 25//25 27//27 
f 27//27 25//25 26//26 
f 59//59 5//5 68//68 
f 68//68 24//24 27//27 
f 28//28 29//29 21//21 
f 29//29 30//30 21//21 
f 29//29 28//28 31//31 
f 31//31 32//32 29//29 
f 32//32 33//33 29//29 
f 32//32 36//36 33//33 
f 29//29 33//33 30//30 
f 33//33 37//37 30//30 
f 34//34 36//36 32//32 
f 36//36 35//35 33//33 
f 33//33 35//35 37//37 
f 34//34 38//38 36//36 
f 40//40 37//37 35//35 
f 38//38 39//39 36//36 
f 35//35 36//36 39//39 
f 39//39 40//40 35//35 
f 37//37 40//40 41//41 
f 49//49 39//39 38//38 
f 40//40 54//54 41//41 
f 26//26 41//41 53//53 
f 26//26 37//37 41//41 
f 53//53 41//41 55//55 
f 41//41 54//54 55//55 
f 57//57 7//7 59//59 
f 7//7 57//57 58//58 
f 58//58 43//43 42//42 
f 47//47 44//44 43//43 
f 47//47 45//45 44//44 
f 47//47 48//48 45//45 
f 48//48 50//50 46//46 
f 61//61 48//48 47//47 
f 60//60 48//48 61//61 
f 48//48 60//60 50//50 
f 46//46 50//50 49//49 
f 50//50 51//51 49//49 
f 51//51 39//39 49//49 
f 52//52 39//39 51//51 
f 40//40 52//52 54//54 
f 39//39 52//52 40//40 
f 51//51 65//65 52//52 
f 51//51 50//50 60//60 
f 26//26 62//62 27//27 
f 62//62 26//26 53//53 
f 54//54 56//56 55//55 
f 56//56 54//54 52//52 
f 56//56 52//52 65//65 
f 58//58 70//70 43//43 
f 70//70 47//47 43//43 
f 67//67 66//66 57//57 
f 57//57 66//66 58//58 
f 70//70 58//58 66//66 
f 47//47 70//70 61//61 
f 67//67 57//57 59//59 
f 60//60 65//65 51//51 
f 73//73 65//65 60//60 
f 61//61 71//71 60//60 
f 76//76 71//71 61//61 
f 55//55 64//64 53//53 
f 62//62 53//53 78//78 
f 78//78 53//53 63//63 
f 63//63 53//53 64//64 
f 78//78 63//63 77//77 
f 77//77 63//63 72//72 
f 64//64 55//55 56//56 
f 56//56 65//65 64//64 
f 64//64 72//72 63//63 
f 65//65 72//72 64//64 
f 65//65 73//73 72//72 
f 66//66 67//67 75//75 
f 59//59 69//69 67//67 
f 68//68 74//74 59//59 
f 69//69 59//59 74//74 
f 76//76 61//61 70//70 
f 80//80 76//76 70//70 
f 60//60 71//71 73//73 
f 68//68 27//27 62//62 
f 87//87 78//78 77//77 
f 83//83 68//68 62//62 
f 83//83 62//62 78//78 
f 84//84 75//75 69//69 
f 74//74 82//82 69//69 
f 75//75 70//70 66//66 
f 75//75 80//80 70//70 
f 75//75 67//67 69//69 
f 85//85 76//76 80//80 
f 71//71 81//81 73//73 
f 130//130 76//76 131//131 
f 71//71 76//76 130//130 
f 74//74 68//68 83//83 
f 79//79 89//89 77//77 
f 73//73 79//79 72//72 
f 73//73 81//81 79//79 
f 79//79 77//77 72//72 
f 80//80 75//75 84//84 
f 82//82 84//84 69//69 
f 83//83 86//86 82//82 
f 74//74 83//83 82//82 
f 87//87 95//95 78//78 
f 89//89 87//87 77//77 
f 81//81 88//88 79//79 
f 88//88 89//89 79//79 
f 82//82 90//90 84//84 
f 86//86 90//90 82//82 
f 91//91 80//80 84//84 
f 80//80 133//133 92//92 
f 92//92 85//85 80//80 
f 130//130 131//131 132//132 
f 86//86 83//83 138//138 
f 138//138 83//83 78//78 
f 96//96 95//95 87//87 
f 90//90 93//93 103//103 
f 90//90 103//103 91//91 
f 91//91 84//84 90//90 
f 98//98 131//131 134//134 
f 105//105 111//111 134//134 
f 111//111 98//98 134//134 
f 98//98 132//132 131//131 
f 86//86 94//94 135//135 
f 94//94 86//86 138//138 
f 102//102 103//103 93//93 
f 108//108 102//102 93//93 
f 94//94 108//108 135//135 
f 86//86 93//93 90//90 
f 136//136 95//95 96//96 
f 136//136 96//96 112//112 
f 89//89 97//97 87//87 
f 87//87 97//97 96//96 
f 89//89 99//99 97//97 
f 112//112 96//96 97//97 
f 110//110 112//112 97//97 
f 97//97 99//99 110//110 
f 99//99 89//89 88//88 
f 88//88 98//98 99//99 
f 98//98 114//114 99//99 
f 100//100 117//117 115//115 
f 119//119 106//106 100//100 
f 104//104 103//103 102//102 
f 101//101 104//104 102//102 
f 141//141 140//140 121//121 
f 167//167 126//126 142//142 
f 103//103 104//104 91//91 
f 142//142 92//92 133//133 
f 126//126 128//128 142//142 
f 92//92 142//142 105//105 
f 142//142 128//128 105//105 
f 111//111 105//105 128//128 
f 121//121 140//140 143//143 
f 101//101 107//107 144//144 
f 147//147 109//109 145//145 
f 146//146 149//149 123//123 
f 171//171 150//150 124//124 
f 108//108 107//107 102//102 
f 107//107 101//101 102//102 
f 107//107 108//108 94//94 
f 137//137 151//151 148//148 
f 112//112 150//150 136//136 
f 124//124 150//150 112//112 
f 113//113 110//110 114//114 
f 113//113 127//127 112//112 
f 98//98 111//111 114//114 
f 110//110 113//113 112//112 
f 99//99 114//114 110//110 
f 116//116 118//118 152//152 
f 155//155 153//153 159//159 
f 162//162 164//164 154//154 
f 115//115 119//119 100//100 
f 162//162 168//168 164//164 
f 156//156 122//122 163//163 
f 169//169 163//163 122//122 
f 165//165 121//121 143//143 
f 146//146 123//123 139//139 
f 160//160 139//139 123//123 
f 120//120 157//157 161//161 
f 166//166 170//170 158//158 
f 161//161 171//171 120//120 
f 120//120 171//171 124//124 
f 170//170 166//166 124//124 
f 112//112 127//127 124//124 
f 169//169 122//122 125//125 
f 170//170 124//124 172//172 
f 173//173 129//129 174//174 
f 125//125 173//173 169//169 
f 173//173 125//125 129//129 
f 129//129 172//172 127//127 
f 124//124 127//127 172//172 
f 111//111 174//174 113//113 
f 111//111 113//113 114//114 
f 129//129 127//127 113//113 
f 174//174 129//129 113//113 
