#
# The license for this database is specified in the Creative Commons Attribution-Share Alike 2.1 Japan. If you use data from this database, please be sure attribute this database as follows: "BodyParts3D, (c)  The Database Center for Life Science licensed under CC Attribution-Share Alike 2.1 Japan".
# http://dbarchive.biosciencedbc.jp/en/bodyparts3d/lic.html
#
#
# Compatibility version : 4.0
# File ID : FJ1718
# Representation ID : BP7638
# Build-up logic : FMA 3.0 is_a
# Concept ID : FMA76128
# English name : Trunk of inferior terminal branch of right middle cerebral artery
# Bounds(mm): (-58.197300,-110.677700,1545.728500)-(-40.576200,-103.459000,1562.794900)
# Volume(cm3): 0.078300
#
v -57.2773 -108.884 1560.78
v -57.8965 -109.74 1560.76
v -57.7904 -110.002 1560.76
v -57.738 -109.268 1560.7
v -57.7023 -109.735 1560.62
v -57.2669 -109.247 1560.53
v -57.2174 -110.221 1560.69
v -57.7281 -108.781 1561.27
v -57.4068 -108.78 1561.99
v -57.1951 -108.611 1561.28
v -58.0758 -109.486 1561
v -58.0122 -109.982 1561.01
v -58.1707 -109.513 1561.28
v -58.1125 -109.988 1561.26
v -58.0753 -109.993 1561.74
v -58.0499 -109.501 1561.98
v -57.8569 -109.015 1561
v -57.9947 -109.029 1561.24
v -57.9627 -110.234 1561.26
v -57.9624 -109.025 1561.74
v -57.7327 -110.325 1561.01
v -57.6865 -110.473 1561.52
v -57.7096 -109.757 1562.34
v -57.4989 -109.266 1562.38
v -57.5005 -110.235 1562.22
v -57.1726 -110.525 1561.05
v -56.9906 -109.522 1560.49
v -56.9705 -109.025 1560.66
v -56.2642 -109.47 1560.71
v -56.2857 -108.995 1560.94
v -56.217 -109.987 1560.76
v -55.7256 -109.513 1560.72
v -55.7486 -108.999 1560.92
v -55.4962 -109.977 1560.78
v -56.9634 -108.718 1561
v -56.2638 -108.659 1561.46
v -56.0101 -108.615 1561.96
v -56.0239 -108.89 1562.47
v -55.7136 -108.594 1561.48
v -56.9337 -110.65 1561.74
v -56.9751 -110.458 1562.23
v -57.0165 -109.723 1562.65
v -56.9985 -110.006 1562.59
v -56.7337 -109.254 1562.62
v -56.4697 -109.742 1562.76
v -56.2338 -110.227 1562.6
v -55.8372 -110.492 1561.2
v -55.7861 -110.538 1562.22
v -55.5187 -110.577 1561.5
v -55.5205 -109.249 1562.71
v -55.4982 -109.748 1562.76
v -55.2119 -110.212 1562.48
v -53.7623 -108.254 1559.98
v -54.9477 -109.205 1560.52
v -54.9716 -109.722 1560.58
v -54.9397 -108.522 1560.97
v -54.9099 -108.586 1562.15
v -54.7832 -108.316 1561.49
v -54.9284 -110.226 1560.93
v -54.7685 -110.411 1561.98
v -53.9829 -110.03 1561.95
v -53.966 -109.207 1562.26
v -53.7664 -110.131 1561.22
v -51.1396 -106.307 1556.6
v -51.1712 -106.752 1556.44
v -52.4167 -107.936 1558.42
v -51.5301 -108.518 1558.19
v -53.0169 -107.552 1560.4
v -52.6639 -107.331 1559.34
v -52.2445 -107.472 1560.41
v -51.3113 -107.767 1560.13
v -53.0961 -109.005 1559.41
v -52.0417 -109.188 1559.45
v -51.8423 -108.978 1560.46
v -49.1798 -104.252 1550.24
v -49.6366 -104.822 1551.58
v -49.3405 -104.096 1551.43
v -49.2712 -104.082 1552.61
v -49.2184 -105.608 1551.51
v -50.2434 -106.231 1554.42
v -49.3353 -106.424 1553.6
v -49.7537 -104.86 1555.03
v -50.5641 -105.92 1555.07
v -50.2575 -105.244 1555.15
v -50.7578 -107.335 1556.24
v -50.0938 -107.503 1556.11
v -49.2665 -107.163 1556.66
v -51.0348 -106.11 1557.67
v -50.3515 -105.824 1557.38
v -49.8411 -106.096 1557.57
v -50.4364 -108.199 1558.05
v -50.1198 -107.47 1558.63
v -47.5111 -104.28 1547.79
v -48.2105 -105.271 1549.04
v -47.4907 -104.991 1547.81
v -47.3228 -105.547 1548.7
v -47.2031 -105.417 1547.99
v -48.6176 -104.748 1549.1
v -48.7384 -103.744 1550.03
v -48.4255 -103.991 1549
v -47.6665 -103.515 1549.24
v -47.7407 -103.616 1550.37
v -47.7536 -105.526 1549.76
v -47.5377 -105.314 1550.57
v -47.173 -105.379 1549.68
v -48.7207 -103.673 1551.01
v -47.4435 -104.357 1551.19
v -48.9833 -105.999 1552.28
v -48.4763 -105.688 1550.98
v -48.4869 -105.95 1552.29
v -47.8087 -105.316 1552.31
v -48.7581 -104.081 1552.99
v -48.258 -104.505 1553.44
v -49.0624 -106.552 1553.92
v -48.7718 -106.613 1554.72
v -48.1905 -105.765 1554.22
v -49.0425 -104.952 1555.26
v -48.5663 -105.745 1555.46
v -45.9891 -104.743 1546.67
v -45.5838 -104.247 1546.72
v -45.6001 -105.018 1546.49
v -45.1937 -105.484 1546.52
v -46.7109 -104.268 1547.2
v -46.7618 -104.741 1547.13
v -46.7535 -103.773 1547.78
v -46.107 -103.77 1548.63
v -46.3324 -105.236 1547.02
v -45.6956 -105.632 1548.28
v -45.7497 -105.204 1548.78
v -45.4912 -105.789 1547.24
v -46.9633 -104.016 1550.01
v -46.8128 -104.546 1549.97
v -45.9201 -104.274 1549
v -44.532 -104.75 1546.1
v -44.4784 -105.249 1546.11
v -43.995 -105.731 1546.29
v -43.973 -105.961 1546.76
v -43.4786 -104.993 1545.83
v -43.4825 -105.488 1545.96
v -44.7174 -104.281 1548.17
v -44.5992 -103.928 1547.58
v -43.7279 -104.505 1547.89
v -44.7526 -105.266 1548.27
v -44.1002 -105.929 1547.32
v -44.078 -104.98 1548.11
v -43.5927 -105.494 1547.81
v -42.8412 -104.289 1546.03
v -42.5362 -103.954 1546.55
v -42.0553 -104.758 1545.76
v -41.3452 -104.272 1546.01
v -41.2831 -104.766 1545.85
v -42.9461 -105.241 1545.79
v -42.9871 -105.85 1546.28
v -42.5272 -105.503 1545.89
v -41.9952 -105.242 1545.81
v -41.8179 -105.719 1546.24
v -42.003 -105.912 1546.72
v -41.2707 -105.256 1545.98
v -41.2515 -105.682 1546.5
v -42.3293 -104.265 1547.57
v -41.5097 -104.528 1547.78
v -41.2878 -103.947 1547.22
v -42.9141 -105.717 1547.51
v -42.7508 -105.966 1546.99
v -42.555 -105.192 1547.77
v -42.012 -105.801 1547.25
v -41.5642 -105.035 1547.81
v -41.3304 -105.755 1547
v -41.2937 -105.497 1547.47
v -40.9998 -104.515 1546.03
v -41.044 -104.021 1546.51
v -40.659 -104.508 1546.51
v -41.0054 -104.991 1546
v -40.8766 -105.248 1546.25
v -40.7607 -104.985 1546.25
v -40.6238 -104.985 1546.54
v -40.7325 -105.255 1546.52
v -40.7276 -104.257 1546.98
v -40.6058 -104.527 1546.97
v -40.7129 -104.518 1547.25
v -40.8831 -105.491 1546.99
v -40.7783 -105.25 1547.25
v -41.0133 -104.994 1547.63
v -40.5895 -104.973 1547
v -40.673 -105.234 1546.99
v -40.6706 -104.999 1547.25
v -54.7832 -108.316 1561.49
v -52.4167 -107.936 1558.42
v -53.0169 -107.552 1560.4
v -51.3113 -107.767 1560.13
v -53.0961 -109.005 1559.41
v -52.0417 -109.188 1559.45
v -49.6366 -104.822 1551.58
v -49.2184 -105.608 1551.51
v -47.5111 -104.28 1547.79
v -47.7536 -105.526 1549.76
v -47.5377 -105.314 1550.57
v -47.5377 -105.314 1550.57
v -47.173 -105.379 1549.68
v -47.4435 -104.357 1551.19
v -46.107 -103.77 1548.63
v -44.5992 -103.928 1547.58
v -44.5992 -103.928 1547.58
v -44.078 -104.98 1548.11
v -42.3293 -104.265 1547.57
v -41.2878 -103.947 1547.22
v -42.555 -105.192 1547.77
v -41.044 -104.021 1546.51
vn -0.213258 0.737473 -0.640823
vn -0.705209 -0.08332 -0.704086
vn -0.521913 -0.4235 -0.740442
vn -0.538318 0.324312 -0.77784
vn -0.353543 -0.118011 -0.927944
vn -0.145265 0.320002 -0.936214
vn -0.0735124 -0.543823 -0.835974
vn -0.480985 0.863011 -0.154481
vn -0.293683 0.836588 0.462461
vn -0.111853 0.979332 -0.168518
vn -0.856758 0.160845 -0.489995
vn -0.82355 -0.327556 -0.463112
vn -0.994 0.0791591 -0.0754844
vn -0.935237 -0.322443 -0.146157
vn -0.857312 -0.411646 0.309134
vn -0.860075 0.132936 0.492544
vn -0.613339 0.589088 -0.52611
vn -0.83243 0.518049 -0.196685
vn -0.754475 -0.638612 -0.151468
vn -0.757963 0.57674 0.304735
vn -0.478877 -0.735348 -0.479521
vn -0.463778 -0.879044 0.110418
vn -0.58142 -0.173831 0.794817
vn -0.479907 0.377769 0.791821
vn -0.492881 -0.616026 0.614475
vn -0.0966424 -0.9241 -0.369729
vn 0.1072 -0.00583913 -0.99422
vn 0.179252 0.528776 -0.829617
vn 0.15695 0.235418 -0.959138
vn 0.164108 0.668758 -0.725142
vn 0.0988771 -0.337624 -0.936073
vn -0.127823 0.0242298 -0.991501
vn -0.166932 0.606788 -0.777137
vn -0.0576085 -0.356315 -0.932588
vn 0.114535 0.839596 -0.531
vn 0.0429586 0.931183 -0.362012
vn -0.106491 0.977706 0.180972
vn -0.0805828 0.727664 0.681184
vn -0.240219 0.91628 -0.320508
vn -0.0991195 -0.990312 0.0972483
vn -0.215185 -0.807898 0.548632
vn -0.306226 0.00955334 0.951911
vn -0.274246 -0.407165 0.871209
vn -0.180429 0.418448 0.890139
vn -0.100202 -0.0662795 0.992757
vn -0.0265758 -0.558675 0.828961
vn 0.0938576 -0.789152 -0.606984
vn 0.0745284 -0.909036 0.409998
vn 0.123498 -0.977425 -0.171431
vn 0.0748117 0.351603 0.933155
vn 0.163026 -0.176582 0.970691
vn 0.27946 -0.573987 0.769702
vn -0.688798 0.450228 -0.568201
vn -0.437275 0.222526 -0.871363
vn -0.26502 -0.324233 -0.908095
vn -0.450317 0.743393 -0.494551
vn 0.0127068 0.796941 0.603923
vn -0.349413 0.914578 -0.203611
vn 0.00935421 -0.750688 -0.66059
vn 0.295349 -0.906016 0.303158
vn 0.517845 -0.631784 0.576789
vn 0.442567 0.0878636 0.89242
vn 0.369555 -0.928735 -0.02968
vn -0.869877 0.423113 -0.253553
vn -0.880302 -0.070912 -0.469085
vn -0.632295 -0.374086 -0.678426
vn -0.329697 -0.719403 -0.611358
vn -0.578717 0.796227 -0.176378
vn -0.739637 0.632416 -0.23019
vn 0.189296 0.745726 0.638796
vn 0.50696 0.494123 0.706282
vn -0.576271 -0.120542 -0.80832
vn -0.0525708 -0.851823 -0.521185
vn 0.710058 -0.556521 0.431396
vn -0.891834 0.306491 -0.332709
vn -0.878005 -0.313133 -0.362016
vn -0.797002 0.598012 -0.084668
vn -0.455643 0.879496 0.137394
vn -0.809317 -0.453841 -0.372873
vn -0.78887 -0.438147 -0.430943
vn -0.296624 -0.860622 -0.413938
vn -0.27838 0.922075 0.268853
vn -0.947133 0.18535 -0.261887
vn -0.765163 0.643702 -0.0131259
vn -0.566818 -0.602826 -0.561532
vn -0.0282732 -0.901436 -0.431989
vn 0.862239 -0.468443 0.192629
vn -0.549299 0.830205 0.0950302
vn -0.0231808 0.90464 0.425546
vn 0.539676 0.596566 0.594019
vn 0.565388 -0.823994 -0.0370287
vn 0.864599 -0.152122 0.478882
vn -0.706241 0.057668 -0.705619
vn -0.483594 -0.809208 -0.333645
vn -0.666742 -0.368744 -0.647675
vn -0.120709 -0.992514 0.0185637
vn -0.449946 -0.789737 -0.41697
vn -0.836735 -0.203974 -0.508203
vn -0.588253 0.781809 -0.206719
vn -0.664045 0.566817 -0.48761
vn -0.0904721 0.992224 -0.0854755
vn 0.386733 0.875469 0.289812
vn -0.256013 -0.950733 -0.174827
vn 0.329491 -0.943313 0.039962
vn 0.174521 -0.971715 0.159099
vn -0.254459 0.964607 0.0691612
vn 0.927829 0.157916 0.33793
vn -0.101284 -0.944353 -0.312951
vn 0.00405133 -0.982366 -0.186922
vn 0.385805 -0.908826 -0.158715
vn 0.863406 -0.499979 0.0674639
vn 0.0950024 0.950639 0.295397
vn 0.65066 0.663789 0.368818
vn 0.182109 -0.938102 -0.29462
vn 0.647313 -0.757234 -0.0870765
vn 0.941668 -0.290519 0.169882
vn 0.360937 0.815974 0.451565
vn 0.884787 0.212342 0.414805
vn -0.446887 0.097152 -0.8893
vn -0.208139 0.733116 -0.647472
vn -0.417109 -0.200664 -0.886428
vn -0.357567 -0.620365 -0.698063
vn -0.454116 0.444357 -0.772221
vn -0.582032 -0.0525808 -0.811464
vn -0.266039 0.842615 -0.468212
vn 0.564315 0.633946 0.528831
vn -0.495271 -0.505896 -0.706241
vn 0.204948 -0.810714 0.548397
vn 0.483091 -0.427652 0.764027
vn -0.261493 -0.918105 -0.297833
vn 0.696507 0.490047 0.524149
vn 0.786738 -0.175089 0.591936
vn 0.591879 0.366226 0.718024
vn -0.281715 0.230121 -0.931494
vn -0.289008 -0.313206 -0.904641
vn -0.208872 -0.764397 -0.609975
vn -0.0886524 -0.977542 -0.191187
vn -0.165645 0.0448582 -0.985165
vn -0.147153 -0.505593 -0.85013
vn 0.401584 0.566727 0.71941
vn 0.327203 0.698776 0.636121
vn 0.244947 0.414273 0.876572
vn 0.307351 -0.490403 0.8155
vn 0.0178937 -0.948761 0.315488
vn 0.313401 -0.304431 0.899501
vn 0.188315 -0.567966 0.801219
vn -0.102587 0.610568 -0.785291
vn -0.0305195 0.982304 -0.184789
vn 0.0114064 0.172754 -0.984899
vn 0.160702 0.620472 -0.767587
vn 0.272977 0.0213617 -0.961783
vn -0.0560023 -0.229907 -0.9716
vn -0.00923341 -0.888213 -0.45934
vn 0.0287683 -0.599466 -0.799883
vn 0.12473 -0.352694 -0.927388
vn 0.178547 -0.794747 -0.580085
vn 0.146024 -0.978997 -0.142273
vn 0.336441 -0.520339 -0.784892
vn 0.436976 -0.841005 -0.319002
vn -0.00244255 0.890511 0.454954
vn 0.198304 0.329579 0.923067
vn 0.210642 0.839266 0.50126
vn 0.087508 -0.713247 0.695429
vn 0.0650418 -0.985995 0.153572
vn 0.0543734 0.186959 0.980862
vn 0.134063 -0.883586 0.448667
vn 0.144787 -0.287919 0.946646
vn 0.302947 -0.933541 0.191635
vn 0.339779 -0.688891 0.640297
vn 0.616054 0.305907 -0.725878
vn 0.034763 0.959771 -0.278625
vn 0.886831 0.317433 -0.335809
vn 0.566094 -0.186812 -0.802894
vn 0.626178 -0.52813 -0.573568
vn 0.822264 -0.128511 -0.554407
vn 0.968423 -0.144281 -0.203322
vn 0.794973 -0.544466 -0.267535
vn 0.77698 0.613648 0.140495
vn 0.976844 0.197093 0.0832456
vn 0.768274 0.301854 0.564481
vn 0.636363 -0.758525 0.140294
vn 0.706113 -0.515186 0.485786
vn 0.559382 -0.152776 0.814709
vn 0.981726 -0.0917595 0.166717
vn 0.890553 -0.442399 0.105827
vn 0.871431 -0.171775 0.459458
vn -0.139034 0.926406 0.349917
vn -0.832874 0.322988 -0.449444
vn -0.161583 0.913214 0.374073
vn 0.723191 -0.13165 0.677985
vn -0.167247 -0.724035 -0.66918
vn 0.482449 -0.874702 -0.0462614
vn -0.925828 0.34564 -0.152891
vn -0.345937 -0.881113 -0.32244
vn -0.465749 0.681481 -0.564501
vn 0.314824 -0.938284 0.143208
vn 0.871426 -0.358736 0.334552
vn 0.677228 -0.728304 0.104576
vn 0.607097 -0.546785 0.576593
vn 0.878849 0.223508 0.421507
vn 0.21212 0.967192 0.139803
vn 0.0539791 0.987484 -0.148196
vn 0.14347 0.95366 0.264479
vn 0.363708 0.296393 0.883101
vn 0.0387329 0.338316 0.940235
vn 0.510456 0.855657 0.0853505
vn 0.125838 -0.46591 0.875838
vn 0.645239 0.691928 -0.323887
g grp1
usemtl mtl1
f 4//4 17//17 1//1 
f 4//4 1//1 6//6 
f 1//1 35//35 28//28 
f 6//6 1//1 28//28 
f 17//17 4//4 11//11 
f 18//18 17//17 11//11 
f 4//4 2//2 11//11 
f 2//2 3//3 12//12 
f 11//11 2//2 12//12 
f 4//4 5//5 2//2 
f 2//2 5//5 3//3 
f 3//3 21//21 12//12 
f 7//7 3//3 5//5 
f 21//21 3//3 7//7 
f 5//5 6//6 27//27 
f 5//5 4//4 6//6 
f 27//27 7//7 5//5 
f 21//21 7//7 26//26 
f 6//6 28//28 27//27 
f 31//31 7//7 27//27 
f 20//20 8//8 18//18 
f 17//17 18//18 8//8 
f 17//17 8//8 1//1 
f 10//10 8//8 9//9 
f 8//8 20//20 9//9 
f 10//10 1//1 8//8 
f 10//10 9//9 37//37 
f 44//44 38//38 9//9 
f 35//35 1//1 10//10 
f 9//9 38//38 37//37 
f 11//11 13//13 18//18 
f 11//11 12//12 13//13 
f 12//12 14//14 13//13 
f 14//14 15//15 13//13 
f 13//13 20//20 18//18 
f 13//13 15//15 16//16 
f 15//15 23//23 16//16 
f 20//20 16//16 24//24 
f 14//14 12//12 19//19 
f 21//21 22//22 19//19 
f 12//12 21//21 19//19 
f 19//19 15//15 14//14 
f 15//15 19//19 22//22 
f 13//13 16//16 20//20 
f 23//23 24//24 16//16 
f 23//23 15//15 25//25 
f 26//26 22//22 21//21 
f 22//22 26//26 40//40 
f 25//25 15//15 22//22 
f 9//9 20//20 24//24 
f 42//42 24//24 23//23 
f 23//23 25//25 43//43 
f 22//22 40//40 41//41 
f 41//41 25//25 22//22 
f 44//44 9//9 24//24 
f 42//42 44//44 24//24 
f 42//42 23//23 43//43 
f 49//49 40//40 26//26 
f 25//25 41//41 43//43 
f 35//35 30//30 28//28 
f 54//54 33//33 56//56 
f 28//28 29//29 27//27 
f 31//31 47//47 7//7 
f 47//47 26//26 7//7 
f 28//28 30//30 29//29 
f 29//29 31//31 27//27 
f 32//32 31//31 29//29 
f 30//30 33//33 29//29 
f 32//32 29//29 33//33 
f 31//31 59//59 47//47 
f 31//31 32//32 34//34 
f 54//54 32//32 33//33 
f 34//34 59//59 31//31 
f 54//54 55//55 32//32 
f 34//34 32//32 55//55 
f 36//36 30//30 35//35 
f 36//36 35//35 10//10 
f 36//36 10//10 37//37 
f 33//33 30//30 36//36 
f 33//33 36//36 39//39 
f 39//39 36//36 37//37 
f 57//57 37//37 38//38 
f 56//56 33//33 39//39 
f 58//58 39//39 37//37 
f 37//37 57//57 187//187 
f 49//49 48//48 40//40 
f 48//48 41//41 40//40 
f 44//44 42//42 45//45 
f 42//42 43//43 45//45 
f 38//38 44//44 50//50 
f 43//43 46//46 45//45 
f 43//43 41//41 46//46 
f 48//48 46//46 41//41 
f 50//50 44//44 45//45 
f 51//51 50//50 45//45 
f 45//45 46//46 51//51 
f 47//47 49//49 26//26 
f 46//46 52//52 51//51 
f 52//52 46//46 48//48 
f 59//59 49//49 47//47 
f 57//57 38//38 50//50 
f 50//50 51//51 62//62 
f 53//53 54//54 56//56 
f 53//53 56//56 68//68 
f 54//54 53//53 72//72 
f 69//69 53//53 68//68 
f 72//72 53//53 66//66 
f 69//69 188//188 53//53 
f 191//191 59//59 55//55 
f 54//54 72//72 55//55 
f 55//55 59//59 34//34 
f 56//56 39//39 58//58 
f 189//189 187//187 57//57 
f 68//68 56//56 58//58 
f 62//62 57//57 50//50 
f 70//70 189//189 57//57 
f 70//70 57//57 62//62 
f 49//49 60//60 48//48 
f 60//60 52//52 48//48 
f 62//62 51//51 52//52 
f 63//63 49//49 59//59 
f 63//63 60//60 49//49 
f 61//61 60//60 63//63 
f 52//52 61//61 62//62 
f 61//61 52//52 60//60 
f 74//74 61//61 63//63 
f 65//65 188//188 64//64 
f 65//65 85//85 66//66 
f 88//88 64//64 69//69 
f 69//69 64//64 188//188 
f 67//67 72//72 66//66 
f 66//66 85//85 67//67 
f 68//68 88//88 69//69 
f 88//88 189//189 89//89 
f 189//189 70//70 89//89 
f 73//73 191//191 67//67 
f 70//70 62//62 71//71 
f 90//90 70//70 71//71 
f 90//90 89//89 70//70 
f 92//92 190//190 74//74 
f 91//91 92//92 74//74 
f 63//63 59//59 73//73 
f 192//192 74//74 63//63 
f 73//73 59//59 191//191 
f 192//192 91//91 74//74 
f 74//74 62//62 61//61 
f 190//190 62//62 74//74 
f 76//76 75//75 98//98 
f 98//98 79//79 76//76 
f 99//99 75//75 77//77 
f 193//193 77//77 75//75 
f 94//94 79//79 98//98 
f 76//76 79//79 80//80 
f 80//80 83//83 76//76 
f 83//83 77//77 193//193 
f 84//84 77//77 83//83 
f 78//78 77//77 84//84 
f 78//78 106//106 77//77 
f 78//78 112//112 106//106 
f 81//81 194//194 108//108 
f 82//82 78//78 84//84 
f 117//117 82//82 89//89 
f 112//112 78//78 82//82 
f 117//117 112//112 82//82 
f 80//80 194//194 81//81 
f 80//80 65//65 83//83 
f 65//65 64//64 83//83 
f 88//88 84//84 64//64 
f 64//64 84//84 83//83 
f 84//84 88//88 82//82 
f 81//81 85//85 80//80 
f 80//80 85//85 65//65 
f 73//73 67//67 86//86 
f 85//85 81//81 86//86 
f 86//86 67//67 85//85 
f 86//86 81//81 114//114 
f 86//86 114//114 91//91 
f 82//82 88//88 89//89 
f 90//90 117//117 89//89 
f 118//118 117//117 90//90 
f 118//118 92//92 87//87 
f 118//118 90//90 92//92 
f 192//192 86//86 91//91 
f 87//87 92//92 91//91 
f 71//71 92//92 90//90 
f 99//99 100//100 75//75 
f 100//100 93//93 98//98 
f 75//75 100//100 98//98 
f 98//98 93//93 95//95 
f 100//100 101//101 125//125 
f 195//195 100//100 125//125 
f 97//97 94//94 95//95 
f 97//97 96//96 94//94 
f 97//97 95//95 127//127 
f 96//96 97//97 130//130 
f 77//77 106//106 99//99 
f 101//101 100//100 99//99 
f 101//101 99//99 106//106 
f 106//106 102//102 101//101 
f 126//126 102//102 131//131 
f 102//102 201//201 101//101 
f 95//95 94//94 98//98 
f 194//194 94//94 109//109 
f 103//103 109//109 94//94 
f 196//196 104//104 109//109 
f 96//96 103//103 94//94 
f 105//105 196//196 96//96 
f 104//104 196//196 105//105 
f 111//111 197//197 107//107 
f 199//199 132//132 197//197 
f 132//132 107//107 197//197 
f 102//102 106//106 112//112 
f 107//107 113//113 118//118 
f 102//102 113//113 107//107 
f 102//102 112//112 113//113 
f 102//102 107//107 131//131 
f 108//108 194//194 109//109 
f 81//81 108//108 114//114 
f 110//110 108//108 109//109 
f 108//108 110//110 114//114 
f 109//109 104//104 110//110 
f 110//110 115//115 114//114 
f 111//111 110//110 198//198 
f 110//110 111//111 115//115 
f 113//113 112//112 117//117 
f 114//114 115//115 91//91 
f 111//111 116//116 115//115 
f 116//116 107//107 118//118 
f 107//107 116//116 111//111 
f 117//117 118//118 113//113 
f 87//87 91//91 115//115 
f 116//116 87//87 115//115 
f 118//118 87//87 116//116 
f 93//93 123//123 124//124 
f 120//120 119//119 123//123 
f 123//123 119//119 124//124 
f 119//119 127//127 124//124 
f 127//127 119//119 121//121 
f 134//134 135//135 121//121 
f 119//119 120//120 134//134 
f 121//121 119//119 134//134 
f 121//121 122//122 127//127 
f 121//121 135//135 122//122 
f 93//93 124//124 95//95 
f 95//95 124//124 127//127 
f 123//123 195//195 125//125 
f 120//120 123//123 125//125 
f 133//133 141//141 126//126 
f 132//132 129//129 133//133 
f 129//129 145//145 133//133 
f 202//202 101//101 201//201 
f 140//140 141//141 133//133 
f 204//204 140//140 133//133 
f 127//127 130//130 97//97 
f 128//128 105//105 96//96 
f 128//128 129//129 199//199 
f 127//127 122//122 130//130 
f 144//144 96//96 130//130 
f 129//129 143//143 145//145 
f 129//129 128//128 143//143 
f 131//131 133//133 126//126 
f 133//133 131//131 132//132 
f 132//132 131//131 200//200 
f 129//129 132//132 199//199 
f 134//134 120//120 147//147 
f 134//134 138//138 135//135 
f 202//202 120//120 125//125 
f 147//147 138//138 134//134 
f 148//148 120//120 202//202 
f 120//120 148//148 147//147 
f 139//139 135//135 138//138 
f 136//136 122//122 135//135 
f 130//130 122//122 136//136 
f 135//135 139//139 136//136 
f 137//137 130//130 136//136 
f 144//144 130//130 137//137 
f 153//153 136//136 139//139 
f 137//137 136//136 153//153 
f 137//137 164//164 144//144 
f 152//152 139//139 138//138 
f 152//152 154//154 139//139 
f 139//139 154//154 153//153 
f 142//142 140//140 204//204 
f 202//202 125//125 101//101 
f 142//142 141//141 140//140 
f 96//96 144//144 128//128 
f 128//128 144//144 146//146 
f 143//143 146//146 145//145 
f 146//146 143//143 128//128 
f 164//164 163//163 144//144 
f 163//163 146//146 144//144 
f 142//142 204//204 165//165 
f 163//163 207//207 146//146 
f 146//146 207//207 145//145 
f 149//149 152//152 138//138 
f 138//138 147//147 149//149 
f 160//160 148//148 203//203 
f 162//162 148//148 160//160 
f 149//149 147//147 150//150 
f 147//147 148//148 150//150 
f 150//150 151//151 149//149 
f 170//170 173//173 151//151 
f 150//150 170//170 151//151 
f 171//171 150//150 148//148 
f 171//171 148//148 162//162 
f 155//155 154//154 152//152 
f 156//156 153//153 154//154 
f 157//157 153//153 156//156 
f 153//153 157//157 164//164 
f 153//153 164//164 137//137 
f 155//155 152//152 149//149 
f 155//155 156//156 154//154 
f 168//168 164//164 157//157 
f 151//151 155//155 149//149 
f 157//157 156//156 159//159 
f 159//159 168//168 157//157 
f 173//173 158//158 151//151 
f 151//151 158//158 155//155 
f 158//158 156//156 155//155 
f 159//159 156//156 158//158 
f 173//173 174//174 158//158 
f 174//174 159//159 158//158 
f 141//141 142//142 205//205 
f 205//205 142//142 165//165 
f 161//161 162//162 160//160 
f 161//161 205//205 165//165 
f 161//161 165//165 167//167 
f 180//180 162//162 161//161 
f 183//183 180//180 161//161 
f 167//167 183//183 161//161 
f 166//166 163//163 164//164 
f 167//167 207//207 163//163 
f 168//168 166//166 164//164 
f 169//169 163//163 166//166 
f 169//169 166//166 168//168 
f 169//169 167//167 163//163 
f 169//169 183//183 167//167 
f 173//173 170//170 175//175 
f 208//208 170//170 150//150 
f 170//170 208//208 172//172 
f 170//170 172//172 175//175 
f 175//175 172//172 176//176 
f 206//206 178//178 208//208 
f 208//208 178//178 172//172 
f 172//172 178//178 179//179 
f 172//172 179//179 176//176 
f 176//176 179//179 184//184 
f 175//175 174//174 173//173 
f 175//175 177//177 174//174 
f 177//177 159//159 174//174 
f 159//159 181//181 168//168 
f 177//177 175//175 176//176 
f 177//177 176//176 185//185 
f 177//177 185//185 181//181 
f 159//159 177//177 181//181 
f 176//176 184//184 185//185 
f 186//186 180//180 183//183 
f 178//178 162//162 180//180 
f 178//178 180//180 179//179 
f 179//179 180//180 184//184 
f 184//184 180//180 186//186 
f 182//182 181//181 185//185 
f 181//181 182//182 169//169 
f 168//168 181//181 169//169 
f 186//186 183//183 182//182 
f 169//169 182//182 183//183 
f 186//186 182//182 185//185 
f 186//186 185//185 184//184 
