#
# The license for this database is specified in the Creative Commons Attribution-Share Alike 2.1 Japan. If you use data from this database, please be sure attribute this database as follows: "BodyParts3D, (c)  The Database Center for Life Science licensed under CC Attribution-Share Alike 2.1 Japan".
# http://dbarchive.biosciencedbc.jp/en/bodyparts3d/lic.html
#
#
# Compatibility version : 4.0
# File ID : FJ1844
# Representation ID : BP6766
# Build-up logic : FMA 3.0 part_of
# Concept ID : FMA50542
# English name : Basilar artery
# Bounds(mm): (-2.309300,-98.208700,1502.584200)-(0.976600,-83.522800,1532.312300)
# Volume(cm3): 0.208700
#
v -1.37738 -97.9683 1530.97
v -1.08328 -97.8978 1531.63
v -1.37302 -96.3094 1522.52
v -1.96244 -96.8023 1527.58
v -1.96969 -96.0431 1529.1
v -1.62499 -97.565 1529.05
v -1.63621 -95.3939 1528.29
v -1.0603 -95.3529 1529.84
v -2.00977 -96.9128 1530.74
v -1.79734 -97.5647 1530.87
v -1.70534 -97.566 1531.35
v -1.8062 -96.7317 1531.63
v -1.75779 -96.1176 1531.21
v -1.35213 -97.2657 1531.98
v -1.36251 -96.404 1531.99
v -1.10078 -95.5967 1531.26
v -1.39208 -93.46 1512.68
v -2.16611 -93.4075 1515.76
v -1.66098 -94.854 1516.82
v -2.1023 -94.6713 1523.2
v -1.09598 -93.6636 1522.94
v -1.88823 -90.5716 1509.04
v -1.34586 -91.2044 1509.16
v -2.07721 -92.7234 1512.96
v -2.20606 -91.4134 1511.67
v -2.06664 -90.6644 1511.86
v -1.97682 -92.5579 1515.64
v -1.37611 -91.8387 1515.33
v -1.09291 -92.5011 1517.77
v -2.1473 -90.1882 1509.26
v -1.38323 -86.5255 1503.56
v -1.36317 -87.6879 1509.23
v -2.28148 -85.7876 1504.68
v -2.05539 -85.8208 1503.76
v -2.18002 -84.7636 1503.78
v -2.04867 -84.414 1503.76
v -1.87706 -84.7332 1503.19
v -1.81142 -84.0958 1503.75
v -1.66361 -85.312 1502.92
v -1.66551 -84.712 1502.97
v -1.68588 -84.3703 1503.19
v -1.37039 -84.3997 1502.92
v -1.37642 -83.7098 1504.07
v -1.09105 -85.6209 1502.69
v -1.08384 -84.9869 1502.63
v -1.1112 -83.7842 1503.46
v -2.20619 -84.8756 1504.57
v -1.88679 -84.116 1504.34
v -1.69017 -84.4606 1505.27
v -1.38895 -83.7945 1504.66
v -1.07419 -84.2007 1505.48
v -0.818154 -97.5805 1527.01
v -0.809977 -98.0146 1529.28
v -0.483621 -97.863 1528.31
v -0.226033 -98.0245 1529.77
v -0.766148 -98.1682 1530.99
v -0.481859 -97.9675 1531.62
v 0.0884421 -97.934 1530.68
v -0.76607 -96.3897 1522.15
v -0.168455 -96.2779 1522.29
v -0.481612 -97.4881 1526.61
v 0.0872514 -97.4728 1527.64
v -0.492866 -95.308 1529.91
v 0.0991665 -95.3694 1529.02
v 0.578234 -97.2344 1529.5
v 0.684421 -96.121 1528.88
v -0.782289 -96.094 1532.06
v -0.792285 -95.4343 1530.97
v -0.502056 -97.3122 1532.17
v -0.528597 -96.6923 1532.27
v -0.493138 -95.5282 1531.33
v -0.197613 -96.1093 1531.99
v -0.192725 -95.5021 1530.94
v 0.100688 -97.5419 1531.74
v 0.0786516 -96.7104 1532.06
v 0.280805 -96.1326 1531.65
v 0.089285 -95.7375 1531.3
v 0.501036 -96.7008 1531.62
v 0.51583 -96.1199 1530.99
v 0.682467 -96.9532 1530.77
v -0.500208 -93.2075 1511.87
v 0.0996802 -93.9385 1513.65
v -0.824458 -95.2382 1516.69
v -0.784475 -94.3728 1514.08
v -0.221025 -95.0753 1516.34
v 0.769231 -93.4088 1514.7
v 0.354519 -94.8838 1517.11
v 0.785529 -93.3759 1516.87
v 0.633132 -95.3623 1522.5
v -0.556251 -95.0142 1528.3
v 0.702405 -90.7869 1509.81
v 0.903456 -90.6555 1510.67
v -0.809655 -90.667 1513.47
v -0.520474 -91.6073 1515.26
v 0.489888 -91.5392 1513.98
v 0.823752 -92.1401 1513.85
v -0.450739 -92.5597 1518.14
v 0.468503 -92.9892 1517.78
v -0.491545 -89.9034 1507.28
v -0.46302 -88.139 1510.02
v 0.522322 -89.3335 1510.72
v 0.821088 -90.156 1510.97
v -0.760532 -86.2958 1503.07
v 0.357233 -86.1026 1503.44
v -0.783628 -84.1344 1502.94
v -0.79279 -83.5506 1504.04
v -0.475769 -85.5795 1502.64
v -0.485623 -83.7213 1503.47
v -0.21127 -84.7201 1502.69
v -0.184664 -84.1322 1503.02
v 0.32286 -84.1123 1503.47
v 0.365386 -85.2948 1502.94
v 0.389922 -84.7027 1503.04
v 0.563722 -84.1336 1504.07
v 0.841506 -85.8427 1504.03
v 0.781366 -85.3062 1503.46
v 0.948449 -85.6999 1504.54
v 0.734925 -84.7138 1503.52
v -0.801616 -83.6166 1504.64
v -0.183081 -83.6383 1504.33
v -0.219819 -83.9455 1505.11
v 0.0989351 -84.57 1505.7
v 0.384753 -84.1985 1504.85
v 0.863861 -85.0068 1504.73
v -1.97682 -92.5579 1515.64
v 0.785529 -93.3759 1516.87
v -0.809655 -90.667 1513.47
v -0.491545 -89.9034 1507.28
vn -0.518214 -0.852157 0.0726819
vn -0.319628 -0.776126 0.543568
vn -0.491368 -0.849791 -0.190821
vn -0.90993 -0.407479 -0.0773894
vn -0.9114 0.396998 0.108359
vn -0.625773 -0.768781 -0.131846
vn -0.589651 0.791605 0.160232
vn -0.264058 0.955171 0.133872
vn -0.993147 -0.0425598 0.108849
vn -0.851209 -0.523996 0.0295148
vn -0.791889 -0.491553 0.362335
vn -0.86818 0.0269367 0.495518
vn -0.820891 0.497189 0.280965
vn -0.484099 -0.27974 0.829092
vn -0.523038 0.351808 0.776313
vn -0.400815 0.837771 0.370793
vn -0.536442 -0.741898 -0.402265
vn -0.998014 -0.0628747 -0.00396207
vn -0.689475 -0.692778 -0.211383
vn -0.934598 0.343842 0.0911028
vn -0.275624 0.934101 0.226909
vn -0.746581 -0.535702 -0.394513
vn -0.368061 -0.74972 -0.549955
vn -0.888056 -0.410301 -0.207388
vn -0.998975 -0.0423696 -0.0159318
vn -0.839331 0.448443 0.307282
vn -0.628742 0.735717 0.251801
vn -0.45383 0.81515 0.359956
vn -0.322735 0.909101 0.263397
vn -0.932911 -0.290292 -0.21309
vn -0.486531 -0.615377 -0.62016
vn -0.408547 0.698407 0.587637
vn -0.997948 -0.0281069 -0.0575296
vn -0.866229 -0.289761 -0.407046
vn -0.966 0.108748 -0.234558
vn -0.864957 0.446485 -0.229132
vn -0.827767 0.157562 -0.538494
vn -0.653322 0.705689 -0.274177
vn -0.650046 -0.177434 -0.738889
vn -0.585978 0.237923 -0.774611
vn -0.632393 0.535023 -0.560205
vn -0.379595 0.505574 -0.774792
vn -0.434279 0.899658 -0.0449232
vn -0.297043 -0.371989 -0.879426
vn -0.221585 0.138534 -0.96525
vn -0.318402 0.825457 -0.466091
vn -0.94006 0.309131 0.143964
vn -0.764188 0.632197 0.127838
vn -0.651697 0.597173 0.467627
vn -0.464568 0.816122 0.343687
vn -0.228118 0.768232 0.598148
vn -0.21849 -0.953371 -0.208195
vn -0.196606 -0.971479 -0.132571
vn 0.163032 -0.969439 -0.183326
vn 0.288653 -0.951826 -0.103476
vn -0.0140113 -0.994995 0.0989371
vn 0.207815 -0.845461 0.491944
vn 0.615175 -0.785455 0.0679697
vn 0.0126947 -0.974482 -0.224107
vn 0.50163 -0.843769 -0.190844
vn 0.210125 -0.950928 -0.227118
vn 0.59912 -0.783317 -0.165738
vn 0.107537 0.984008 0.141999
vn 0.498665 0.852115 0.158849
vn 0.864891 -0.498095 -0.0621756
vn 0.970834 0.233636 0.0538099
vn -0.131739 0.609661 0.781638
vn -0.11673 0.974424 0.192019
vn 0.104328 -0.425616 0.89887
vn -0.00531526 0.0988455 0.995089
vn 0.0995505 0.908698 0.40541
vn 0.320922 0.56524 0.759942
vn 0.31316 0.932141 0.18178
vn 0.666165 -0.513242 0.541116
vn 0.538864 0.0294798 0.841877
vn 0.697384 0.467605 0.54314
vn 0.529046 0.778549 0.337596
vn 0.88877 0.0239845 0.457725
vn 0.878773 0.443468 0.176338
vn 0.975011 -0.194584 0.107196
vn 0.148207 -0.836153 -0.528094
vn 0.568171 -0.746007 -0.347356
vn -0.186844 -0.95018 -0.249493
vn -0.0998088 -0.919512 -0.380179
vn 0.309708 -0.916387 -0.253604
vn 0.957596 -0.269948 -0.100688
vn 0.732651 -0.659433 -0.168434
vn 0.99839 -0.0563298 -0.00664326
vn 0.918101 -0.38696 -0.0857518
vn -0.0292572 0.981386 0.189805
vn 0.801058 -0.487925 -0.346749
vn 0.996708 -0.0722958 -0.0366948
vn -0.442233 0.770237 0.459526
vn 0.042956 0.931189 0.361998
vn 0.654543 0.670209 0.349847
vn 0.976089 0.184159 0.115478
vn 0.223346 0.936416 0.270631
vn 0.740274 0.644255 0.192175
vn -0.166307 -0.771799 -0.613733
vn 0.172531 0.764187 0.621491
vn 0.709122 0.550544 0.440509
vn 0.943687 0.263921 0.1995
vn 0.0146259 -0.658922 -0.752069
vn 0.58447 -0.54197 -0.603873
vn -0.0603117 0.603083 -0.795395
vn -0.0629959 0.992326 -0.106395
vn 0.194586 -0.295039 -0.935461
vn 0.166078 0.891463 -0.421558
vn 0.251603 0.238471 -0.937991
vn 0.330409 0.62201 -0.709883
vn 0.587478 0.699963 -0.406104
vn 0.587122 -0.148717 -0.79572
vn 0.655956 0.297533 -0.693682
vn 0.782958 0.621875 -0.0157326
vn 0.900108 -0.305323 -0.310778
vn 0.887334 -0.101444 -0.44983
vn 0.997008 -0.0123313 -0.0763043
vn 0.916197 0.285248 -0.281454
vn -0.0796338 0.947081 0.310959
vn 0.377662 0.923588 0.0660028
vn 0.257936 0.812224 0.523221
vn 0.463019 0.685381 0.562019
vn 0.673265 0.646777 0.358322
vn 0.934097 0.319449 0.159422
vn -0.968864 0.22927 0.0934791
vn 0.889649 0.430293 0.152879
vn 0.20193 0.824714 0.528271
vn 0.487432 -0.682444 -0.544684
g grp1
usemtl mtl1
f 6//6 52//52 53//53 
f 4//4 6//6 10//10 
f 10//10 6//6 1//1 
f 6//6 53//53 1//1 
f 53//53 56//56 1//1 
f 1//1 2//2 11//11 
f 10//10 1//1 11//11 
f 56//56 2//2 1//1 
f 14//14 2//2 69//69 
f 19//19 3//3 4//4 
f 3//3 19//19 83//83 
f 85//85 59//59 83//83 
f 3//3 83//83 59//59 
f 4//4 9//9 20//20 
f 4//4 3//3 6//6 
f 3//3 52//52 6//6 
f 52//52 3//3 59//59 
f 10//10 9//9 4//4 
f 13//13 5//5 9//9 
f 13//13 7//7 5//5 
f 7//7 16//16 8//8 
f 8//8 16//16 68//68 
f 11//11 9//9 10//10 
f 11//11 12//12 9//9 
f 12//12 13//13 9//9 
f 12//12 15//15 13//13 
f 2//2 14//14 11//11 
f 12//12 11//11 14//14 
f 15//15 12//12 14//14 
f 7//7 13//13 16//16 
f 13//13 15//15 16//16 
f 70//70 15//15 14//14 
f 70//70 67//67 15//15 
f 70//70 14//14 69//69 
f 71//71 16//16 67//67 
f 16//16 15//15 67//67 
f 16//16 71//71 68//68 
f 23//23 99//99 81//81 
f 22//22 24//24 30//30 
f 17//17 19//19 24//24 
f 22//22 17//17 24//24 
f 22//22 23//23 17//17 
f 19//19 17//17 84//84 
f 81//81 84//84 17//17 
f 17//17 23//23 81//81 
f 24//24 18//18 25//25 
f 18//18 24//24 19//19 
f 19//19 84//84 83//83 
f 19//19 4//4 18//18 
f 4//4 20//20 18//18 
f 27//27 20//20 21//21 
f 27//27 21//21 29//29 
f 20//20 125//125 18//18 
f 20//20 9//9 5//5 
f 20//20 5//5 7//7 
f 21//21 20//20 7//7 
f 21//21 7//7 90//90 
f 90//90 7//7 8//8 
f 99//99 23//23 31//31 
f 25//25 18//18 26//26 
f 24//24 25//25 30//30 
f 18//18 125//125 26//26 
f 28//28 26//26 27//27 
f 28//28 29//29 94//94 
f 93//93 26//26 28//28 
f 94//94 29//29 97//97 
f 28//28 94//94 93//93 
f 28//28 27//27 29//29 
f 31//31 22//22 34//34 
f 22//22 31//31 23//23 
f 31//31 103//103 99//99 
f 30//30 25//25 33//33 
f 33//33 25//25 26//26 
f 26//26 93//93 32//32 
f 127//127 100//100 32//32 
f 127//127 95//95 100//100 
f 30//30 34//34 22//22 
f 39//39 31//31 34//34 
f 31//31 39//39 44//44 
f 31//31 44//44 103//103 
f 49//49 26//26 32//32 
f 33//33 26//26 47//47 
f 35//35 33//33 47//47 
f 30//30 33//33 34//34 
f 33//33 35//35 34//34 
f 37//37 39//39 34//34 
f 34//34 35//35 37//37 
f 36//36 41//41 37//37 
f 36//36 37//37 35//35 
f 35//35 47//47 36//36 
f 36//36 47//47 48//48 
f 38//38 36//36 48//48 
f 37//37 40//40 39//39 
f 41//41 40//40 37//37 
f 38//38 41//41 36//36 
f 46//46 38//38 43//43 
f 43//43 38//38 48//48 
f 40//40 45//45 39//39 
f 45//45 40//40 42//42 
f 40//40 41//41 42//42 
f 41//41 46//46 42//42 
f 41//41 38//38 46//46 
f 44//44 39//39 45//45 
f 105//105 42//42 46//46 
f 44//44 45//45 107//107 
f 42//42 105//105 45//45 
f 108//108 105//105 46//46 
f 108//108 46//46 106//106 
f 46//46 43//43 106//106 
f 26//26 49//49 47//47 
f 48//48 47//47 49//49 
f 48//48 49//49 50//50 
f 43//43 48//48 50//50 
f 32//32 100//100 51//51 
f 49//49 32//32 51//51 
f 49//49 51//51 50//50 
f 100//100 121//121 51//51 
f 106//106 43//43 119//119 
f 43//43 50//50 119//119 
f 119//119 50//50 51//51 
f 61//61 54//54 52//52 
f 52//52 54//54 53//53 
f 61//61 62//62 54//54 
f 54//54 55//55 53//53 
f 53//53 55//55 56//56 
f 54//54 62//62 55//55 
f 62//62 58//58 55//55 
f 55//55 58//58 56//56 
f 58//58 62//62 65//65 
f 56//56 57//57 2//2 
f 2//2 57//57 69//69 
f 69//69 57//57 74//74 
f 56//56 58//58 57//57 
f 74//74 57//57 58//58 
f 85//85 87//87 60//60 
f 87//87 89//89 60//60 
f 85//85 60//60 59//59 
f 60//60 61//61 59//59 
f 59//59 61//61 52//52 
f 60//60 62//62 61//61 
f 60//60 89//89 62//62 
f 65//65 62//62 89//89 
f 64//64 79//79 66//66 
f 8//8 68//68 63//63 
f 63//63 73//73 64//64 
f 64//64 73//73 77//77 
f 77//77 79//79 64//64 
f 58//58 65//65 80//80 
f 80//80 65//65 89//89 
f 89//89 66//66 80//80 
f 79//79 80//80 66//66 
f 70//70 72//72 67//67 
f 67//67 72//72 71//71 
f 63//63 68//68 71//71 
f 63//63 71//71 73//73 
f 74//74 75//75 69//69 
f 75//75 70//70 69//69 
f 75//75 72//72 70//70 
f 76//76 72//72 75//75 
f 73//73 71//71 77//77 
f 76//76 77//77 72//72 
f 72//72 77//77 71//71 
f 78//78 76//76 75//75 
f 74//74 58//58 80//80 
f 74//74 80//80 78//78 
f 74//74 78//78 75//75 
f 80//80 79//79 78//78 
f 76//76 78//78 79//79 
f 77//77 76//76 79//79 
f 81//81 82//82 84//84 
f 128//128 91//91 81//81 
f 81//81 91//91 82//82 
f 84//84 82//82 85//85 
f 87//87 85//85 82//82 
f 87//87 82//82 86//86 
f 86//86 88//88 66//66 
f 83//83 84//84 85//85 
f 87//87 86//86 89//89 
f 86//86 66//66 89//89 
f 97//97 64//64 98//98 
f 29//29 21//21 97//97 
f 90//90 64//64 21//21 
f 64//64 97//97 21//21 
f 66//66 126//126 98//98 
f 98//98 64//64 66//66 
f 90//90 8//8 63//63 
f 63//63 64//64 90//90 
f 86//86 82//82 91//91 
f 86//86 92//92 96//96 
f 86//86 91//91 92//92 
f 92//92 102//102 96//96 
f 96//96 102//102 95//95 
f 102//102 101//101 95//95 
f 97//97 95//95 94//94 
f 94//94 95//95 127//127 
f 95//95 98//98 126//126 
f 86//86 96//96 88//88 
f 95//95 126//126 96//96 
f 97//97 98//98 95//95 
f 103//103 104//104 128//128 
f 128//128 104//104 91//91 
f 91//91 117//117 92//92 
f 101//101 100//100 95//95 
f 103//103 44//44 107//107 
f 103//103 107//107 104//104 
f 91//91 104//104 115//115 
f 91//91 115//115 117//117 
f 101//101 122//122 100//100 
f 92//92 117//117 102//102 
f 117//117 124//124 102//102 
f 102//102 124//124 101//101 
f 45//45 109//109 107//107 
f 109//109 112//112 107//107 
f 109//109 45//45 105//105 
f 110//110 109//109 105//105 
f 110//110 105//105 108//108 
f 108//108 106//106 120//120 
f 113//113 112//112 109//109 
f 113//113 109//109 110//110 
f 112//112 104//104 107//107 
f 113//113 110//110 111//111 
f 113//113 111//111 118//118 
f 111//111 110//110 108//108 
f 120//120 111//111 108//108 
f 112//112 116//116 104//104 
f 113//113 116//116 112//112 
f 118//118 116//116 113//113 
f 111//111 114//114 118//118 
f 120//120 114//114 111//111 
f 123//123 114//114 120//120 
f 104//104 116//116 115//115 
f 115//115 116//116 117//117 
f 116//116 118//118 117//117 
f 117//117 118//118 124//124 
f 118//118 114//114 124//124 
f 124//124 114//114 123//123 
f 51//51 121//121 119//119 
f 121//121 100//100 122//122 
f 106//106 119//119 120//120 
f 120//120 119//119 121//121 
f 123//123 120//120 121//121 
f 123//123 121//121 122//122 
f 101//101 123//123 122//122 
f 124//124 123//123 101//101 
