#
# The license for this database is specified in the Creative Commons Attribution-Share Alike 2.1 Japan. If you use data from this database, please be sure attribute this database as follows: "BodyParts3D, (c)  The Database Center for Life Science licensed under CC Attribution-Share Alike 2.1 Japan".
# http://dbarchive.biosciencedbc.jp/en/bodyparts3d/lic.html
#
#
# Compatibility version : 4.0
# File ID : FJ2653
# Representation ID : BP9745
# Build-up logic : FMA 3.0 part_of
# Concept ID : FMA3895
# English name : Circumflex branch of left coronary artery
# Bounds(mm): (73.745700,-128.307000,1188.330000)-(76.831100,-119.449000,1198.680100)
# Volume(cm3): 0.003200
#
v 73.8865 -128.177 1188.77
v 74.0786 -128.307 1188.58
v 74.0786 -128.254 1188.78
v 73.8706 -127.965 1188.38
v 73.8785 -128.165 1188.44
v 74.0786 -128.165 1188.36
v 74.0786 -127.965 1188.33
v 74.2841 -127.934 1188.54
v 73.7802 -128.165 1188.58
v 73.7457 -127.965 1188.58
v 73.7859 -127.968 1188.78
v 73.9121 -127.908 1189.02
v 73.9079 -127.626 1189.02
v 74.2837 -127.698 1188.65
v 74.3002 -128.105 1188.64
v 74.2439 -127.194 1189.12
v 74.2788 -126.787 1189.57
v 74.2748 -126.772 1189.95
v 74.4544 -127.118 1189.92
v 74.4785 -126.965 1189.28
v 74.6547 -127.353 1189.58
v 74.8207 -126.965 1189.58
v 74.6731 -126.754 1190.19
v 74.311 -126.353 1190.02
v 74.4785 -126.365 1189.72
v 74.6786 -126.165 1189.8
v 74.9464 -126.334 1189.98
v 74.4858 -126.535 1190.3
v 74.5039 -125.255 1190.75
v 74.6814 -126.136 1190.51
v 74.6882 -125.567 1190.74
v 74.9388 -126.345 1190.18
v 74.8736 -125.602 1190.69
v 74.8698 -125.342 1190.86
v 75.0786 -125.425 1190.38
v 75.0664 -125.429 1190.6
v 74.5397 -124.821 1190.77
v 74.6476 -124.558 1191.22
v 74.6786 -124.92 1190.38
v 74.7817 -124.763 1191.39
v 74.8758 -124.273 1191.18
v 75.0754 -124.971 1190.52
v 75.2082 -124.965 1190.78
v 75.0916 -124.876 1191.38
v 75.0842 -124.532 1190.8
v 74.9551 -124.165 1192.18
v 74.9827 -123.975 1191.96
v 75.0301 -123.765 1192.58
v 74.9301 -122.165 1193.18
v 75.077 -121.365 1193.18
v 75.0786 -121.765 1192.87
v 74.977 -121.765 1193.58
v 75.0676 -121.365 1193.98
v 75.2784 -124.316 1192.38
v 75.2682 -123.805 1191.9
v 75.2785 -123.585 1192.18
v 75.2564 -123.527 1193.02
v 75.6165 -123.99 1191.93
v 75.4673 -123.58 1192.16
v 75.4643 -123.493 1193.09
v 75.6957 -124.165 1192.38
v 75.8082 -123.565 1192.58
v 75.6957 -123.565 1192.98
v 75.2785 -123.165 1192.43
v 75.4785 -123.242 1192.38
v 75.4785 -122.965 1192.47
v 75.4843 -122.234 1192.67
v 75.7435 -122.22 1192.98
v 75.6792 -122.262 1193.23
v 75.2775 -122.214 1193.49
v 75.3012 -121.91 1193.82
v 75.4914 -122.238 1193.45
v 75.5082 -121.926 1193.81
v 75.6801 -121.965 1193.38
v 75.8724 -121.756 1194
v 75.8957 -121.891 1194.43
v 75.8503 -121.904 1195.1
v 76.2672 -121.777 1195.39
v 75.2785 -121.81 1192.79
v 75.4755 -121.586 1192.95
v 75.2785 -121.101 1193.58
v 75.474 -121.191 1193.38
v 75.7705 -121.765 1193.78
v 75.7145 -121.365 1193.38
v 75.6786 -121.12 1193.78
v 75.5306 -121.347 1195.33
v 75.7457 -121.165 1196.18
v 75.8201 -120.942 1196.02
v 75.8593 -121.606 1195.95
v 75.8785 -121.029 1195.18
v 76.1805 -121.165 1194.98
v 76.2661 -121.619 1196.18
v 76.3582 -121.565 1194.98
v 76.2541 -120.746 1195.98
v 76.4838 -120.949 1195.83
v 76.6861 -121.1 1196.47
v 75.8588 -120.548 1197.18
v 75.9242 -120.772 1197.34
v 76.0915 -121.262 1196.87
v 76.4686 -120.98 1197.39
v 76.4677 -120.299 1196.82
v 76.7588 -120.363 1197.15
v 76.2787 -120.401 1198.3
v 76.0419 -120.19 1197.15
v 76.288 -119.502 1197.96
v 76.6658 -119.617 1197.92
v 75.9249 -120.002 1198.32
v 75.9147 -119.792 1198.14
v 76.0693 -119.765 1198.56
v 76.0816 -120.213 1198.39
v 76.0916 -119.966 1198.59
v 76.101 -119.536 1198.37
v 76.2788 -120.155 1198.59
v 76.2857 -119.958 1198.68
v 76.2712 -119.773 1198.67
v 76.2843 -119.579 1198.56
v 76.4796 -120.186 1198.55
v 76.4711 -119.972 1198.67
v 76.4731 -119.771 1198.66
v 76.4677 -119.449 1198.37
v 76.4865 -119.577 1198.56
v 76.7193 -120.217 1198.29
v 76.8102 -119.985 1198.32
v 76.67 -119.787 1198.57
v 76.6658 -119.967 1198.58
v 76.8311 -119.812 1198.1
v 76.6634 -119.507 1198.18
v 76.7021 -119.585 1198.38
v 73.8865 -128.177 1188.77
v 73.8865 -128.177 1188.77
v 74.0786 -128.307 1188.58
v 74.0786 -128.307 1188.58
v 74.0786 -128.254 1188.78
v 74.0786 -128.254 1188.78
v 74.0786 -128.254 1188.78
v 73.8706 -127.965 1188.38
v 73.8706 -127.965 1188.38
v 73.8706 -127.965 1188.38
v 73.8785 -128.165 1188.44
v 73.8785 -128.165 1188.44
v 74.0786 -128.165 1188.36
v 74.0786 -128.165 1188.36
v 74.0786 -127.965 1188.33
v 74.0786 -127.965 1188.33
v 73.7802 -128.165 1188.58
v 73.7802 -128.165 1188.58
v 73.7457 -127.965 1188.58
v 73.7457 -127.965 1188.58
v 73.9121 -127.908 1189.02
v 73.9079 -127.626 1189.02
v 73.9079 -127.626 1189.02
v 74.2837 -127.698 1188.65
v 74.3002 -128.105 1188.64
v 74.2788 -126.787 1189.57
v 74.2748 -126.772 1189.95
v 74.2748 -126.772 1189.95
v 74.4544 -127.118 1189.92
v 74.4544 -127.118 1189.92
v 74.4785 -126.965 1189.28
v 74.6547 -127.353 1189.58
v 74.6547 -127.353 1189.58
v 74.8207 -126.965 1189.58
v 74.6731 -126.754 1190.19
v 74.6731 -126.754 1190.19
v 74.311 -126.353 1190.02
v 74.9464 -126.334 1189.98
v 74.4858 -126.535 1190.3
v 74.5039 -125.255 1190.75
v 74.5039 -125.255 1190.75
v 74.6814 -126.136 1190.51
v 74.6882 -125.567 1190.74
v 74.8698 -125.342 1190.86
v 74.8698 -125.342 1190.86
v 75.0786 -125.425 1190.38
v 75.0664 -125.429 1190.6
v 74.5397 -124.821 1190.77
v 74.6476 -124.558 1191.22
v 74.6786 -124.92 1190.38
v 74.6786 -124.92 1190.38
v 74.8758 -124.273 1191.18
v 75.2082 -124.965 1190.78
v 75.2082 -124.965 1190.78
v 75.0916 -124.876 1191.38
v 75.0916 -124.876 1191.38
v 75.0916 -124.876 1191.38
v 75.0842 -124.532 1190.8
v 75.0842 -124.532 1190.8
v 74.9551 -124.165 1192.18
v 75.0301 -123.765 1192.58
v 75.0301 -123.765 1192.58
v 74.9301 -122.165 1193.18
v 75.077 -121.365 1193.18
v 74.977 -121.765 1193.58
v 75.2784 -124.316 1192.38
v 75.2682 -123.805 1191.9
v 75.6165 -123.99 1191.93
v 75.6165 -123.99 1191.93
v 75.6957 -124.165 1192.38
v 75.8082 -123.565 1192.58
v 75.6957 -123.565 1192.98
v 75.4785 -123.242 1192.38
v 75.4785 -122.965 1192.47
v 75.4843 -122.234 1192.67
v 75.7435 -122.22 1192.98
v 75.2775 -122.214 1193.49
v 75.3012 -121.91 1193.82
v 75.3012 -121.91 1193.82
v 75.4914 -122.238 1193.45
v 75.4914 -122.238 1193.45
v 75.5082 -121.926 1193.81
v 75.5082 -121.926 1193.81
v 75.8957 -121.891 1194.43
v 76.2672 -121.777 1195.39
v 75.2785 -121.101 1193.58
v 75.7705 -121.765 1193.78
v 75.7145 -121.365 1193.38
v 75.5306 -121.347 1195.33
v 75.8785 -121.029 1195.18
v 76.1805 -121.165 1194.98
v 76.2661 -121.619 1196.18
v 76.3582 -121.565 1194.98
v 76.4838 -120.949 1195.83
v 76.7588 -120.363 1197.15
v 76.6658 -119.617 1197.92
v 75.9147 -119.792 1198.14
v 76.0693 -119.765 1198.56
v 76.101 -119.536 1198.37
v 76.101 -119.536 1198.37
v 76.67 -119.787 1198.57
v 76.6634 -119.507 1198.18
v 76.6634 -119.507 1198.18
v 76.7021 -119.585 1198.38
vn -0.396408 -0.894122 0.208343
vn -0.375311 -0.920731 -0.106752
vn -0.369328 -0.898304 0.238004
vn -0.821123 -0.172712 -0.543992
vn -0.31558 -0.853493 -0.41468
vn -0.211814 -0.821065 -0.530082
vn 0.0385676 0.709027 -0.704126
vn 0.790308 0.0302518 -0.611963
vn -0.429036 -0.901497 -0.0568342
vn -0.839195 -0.144764 -0.524209
vn -0.915682 -0.157669 0.369686
vn -0.87962 -0.135837 0.45587
vn -0.935097 0.0675797 0.347888
vn 0.657623 0.344653 -0.669885
vn 0.86178 -0.358529 -0.358877
vn -0.357837 0.722258 -0.591858
vn -0.557589 0.599031 -0.574679
vn -0.928541 -0.00595881 0.371182
vn -0.519513 -0.477591 0.708529
vn -0.304191 0.625759 -0.718258
vn 0.658385 -0.688708 0.303662
vn 0.9576 -0.285373 -0.0395496
vn 0.320673 -0.683579 0.655659
vn -0.992008 0.0735251 0.102536
vn -0.515964 0.49668 -0.697918
vn 0.399571 0.380843 -0.833847
vn 0.648196 0.268537 -0.712552
vn -0.71199 -0.300181 0.634793
vn -0.967412 0.0163269 0.252682
vn -0.299693 -0.37253 0.878297
vn -0.414629 -0.276253 0.867045
vn 0.857163 -0.34815 0.379557
vn 0.445451 -0.446337 0.776116
vn -0.312124 -0.537576 0.78332
vn 0.977087 -0.208697 0.0417959
vn 0.954072 -0.279018 0.10907
vn -0.98293 0.0763015 0.167413
vn -0.927052 -0.106547 0.359474
vn 0.221522 0.444281 -0.868068
vn -0.578002 -0.558461 0.595008
vn -0.689704 0.685258 -0.233944
vn 0.678657 0.306254 -0.667558
vn 0.931543 -0.336541 0.137722
vn 0.364455 -0.764408 0.531839
vn 0.352228 0.488963 -0.798029
vn -0.964638 0.246842 0.0924282
vn -0.801193 0.578777 -0.152008
vn -0.986018 0.165513 0.0193621
vn -0.703065 -0.343958 0.622409
vn -0.947806 0.308298 -0.0813439
vn -0.695161 0.271104 -0.665773
vn -0.987676 0.0033441 0.156475
vn -0.854988 0.495865 0.152032
vn -0.5067 -0.644894 0.57216
vn -0.39653 0.789435 -0.468569
vn -0.436582 0.639718 -0.63258
vn -0.542666 -0.426388 0.723676
vn 0.929235 0.058493 -0.364831
vn 0.0882192 0.62477 -0.775809
vn 0.0555658 -0.452882 0.889837
vn 0.380494 -0.802557 0.459486
vn 0.982931 -0.112568 0.145517
vn 0.241442 -0.55531 0.795825
vn -0.331881 0.301479 -0.893849
vn -0.0159337 0.481423 -0.876343
vn -0.0933088 0.283773 -0.954341
vn 0.0560919 0.303928 -0.951042
vn 0.749186 0.264561 -0.607229
vn 0.900354 -0.128743 0.415678
vn -0.431818 -0.41189 0.802421
vn -0.60415 -0.689784 0.398998
vn 0.242988 -0.276402 0.929816
vn 0.0139661 -0.741724 0.67056
vn 0.902962 -0.331506 0.27343
vn 0.739584 -0.594056 -0.316406
vn 0.65943 -0.712662 -0.239303
vn -0.13163 -0.97822 0.160499
vn 0.22728 -0.968905 0.097815
vn -0.0778159 0.438921 -0.89515
vn 0.391911 0.539081 -0.745518
vn -0.704953 0.703208 0.0924128
vn 0.226436 0.828739 -0.51178
vn 0.525446 -0.849648 0.0447705
vn 0.668927 0.574043 -0.472241
vn 0.507957 0.820587 -0.261948
vn -0.9073 -0.262954 0.32812
vn -0.982544 -0.0465777 0.180106
vn -0.763133 0.632585 -0.132151
vn -0.675511 -0.64681 0.354009
vn 0.197417 0.960556 -0.195853
vn 0.849195 0.377262 -0.369514
vn -0.0746238 -0.933279 0.351314
vn 0.822701 -0.523038 -0.222698
vn 0.0086838 0.911805 -0.410532
vn 0.921624 0.233448 -0.310019
vn 0.948565 -0.315692 0.023744
vn -0.989919 0.141249 -0.0104684
vn -0.853115 -0.417576 0.312769
vn -0.368163 -0.800315 0.473235
vn 0.362148 -0.812089 0.45756
vn 0.264219 0.8043 -0.53225
vn 0.986712 0.0471826 -0.15548
vn -0.160151 -0.797671 0.58144
vn -0.573574 0.714487 -0.400652
vn -0.200596 0.910458 -0.361701
vn 0.791115 0.510101 -0.337542
vn -0.929023 -0.144722 0.340547
vn -0.74403 0.599373 -0.295249
vn -0.898793 0.20266 0.388716
vn -0.612255 -0.591333 0.524851
vn -0.604682 -0.210001 0.768283
vn -0.344613 0.868818 0.355524
vn -0.204429 -0.574592 0.792498
vn -0.141572 -0.137085 0.98039
vn -0.263014 0.234595 0.935836
vn -0.197009 0.650101 0.733864
vn 0.296032 -0.662 0.688565
vn 0.209501 -0.265621 0.941039
vn 0.209859 0.225199 0.951443
vn 0.108163 0.957384 0.2678
vn 0.303786 0.625955 0.718258
vn 0.728077 -0.546699 0.41355
vn 0.947865 -0.0800156 0.308462
vn 0.48509 0.327701 0.810741
vn 0.62155 -0.234098 0.747579
vn 0.965041 0.257185 -0.0505109
vn 0.175676 0.943452 -0.281135
vn 0.509535 0.72523 0.46305
vn -0.792364 -0.398371 0.462017
vn -0.279859 -0.636473 0.718736
vn 0.673259 -0.621196 -0.401045
vn 0.631933 -0.749174 0.198492
vn 0.646406 -0.72033 0.251562
vn -0.275063 -0.635842 0.721141
vn 0.248609 -0.725245 0.642038
vn -0.162097 0.721039 -0.673667
vn -0.625376 0.6755 -0.390645
vn -0.295243 -0.213847 -0.931182
vn -0.80182 -0.200401 -0.56296
vn -0.356095 -0.281141 -0.891155
vn 0.751795 -0.332332 -0.569526
vn -0.295243 -0.213847 -0.931182
vn -0.231488 -0.144451 -0.962053
vn 0.709496 0.107221 -0.696505
vn -0.821123 -0.172712 -0.543992
vn -0.904645 -0.291352 0.311017
vn -0.690064 0.656946 -0.303701
vn -0.98041 0.0217328 0.195764
vn -0.394185 -0.560291 0.728486
vn -0.695157 0.623843 -0.357179
vn -0.907814 0.41857 -0.0259621
vn 0.0528997 0.678323 -0.732857
vn 0.646406 -0.72033 0.251562
vn -0.96614 0.257219 -0.0202674
vn -0.980564 0.190596 0.0465541
vn -0.678921 -0.326077 0.65783
vn 0.284895 -0.705039 0.649426
vn -0.153273 -0.5318 0.832884
vn 0.613046 0.367338 -0.699455
vn 0.876409 -0.429995 0.21682
vn 0.284895 -0.705039 0.649426
vn 0.648789 0.334254 -0.683628
vn 0.68633 -0.434339 0.583353
vn -0.0974787 -0.497982 0.861691
vn -0.81247 0.387607 -0.435493
vn 0.982612 -0.183662 0.0272315
vn -0.182278 -0.440598 0.879004
vn -0.769196 -0.205633 0.605023
vn -0.390004 -0.388218 0.834975
vn 0.450969 -0.405528 0.795094
vn 0.141319 -0.459175 0.877033
vn 0.113566 -0.542808 0.832143
vn 0.526752 -0.602018 0.600089
vn 0.726712 0.209937 -0.654076
vn 0.573644 -0.533866 0.621224
vn -0.77199 0.546042 -0.325374
vn -0.850568 0.524121 -0.0427911
vn -0.782678 0.451232 -0.428726
vn -0.130039 0.785484 -0.605066
vn -0.0543064 0.811761 -0.581459
vn 0.920608 0.0610613 -0.385683
vn 0.562475 -0.795257 0.226249
vn 0.903631 -0.36232 0.228421
vn -0.250562 -0.750521 0.611504
vn 0.439248 -0.835681 0.329694
vn 0.109923 0.802822 -0.585998
vn 0.794405 0.309096 -0.522857
vn -0.704314 -0.455244 0.544697
vn -0.854522 0.289093 -0.431529
vn -0.738935 -0.360329 0.569332
vn -0.965199 0.1444 -0.218036
vn -0.100912 0.716618 -0.690127
vn -0.609774 -0.671559 0.420932
vn 0.141435 -0.728563 0.670218
vn 0.277113 0.722028 -0.633944
vn 0.328352 0.612968 -0.718648
vn 0.740568 0.443268 -0.505046
vn 0.982502 -0.176439 -0.0596518
vn 0.698879 0.277595 -0.659172
vn 0.905192 -0.140867 0.400978
vn 0.708933 0.341689 -0.616978
vn 0.639613 0.216243 -0.737654
vn 0.702066 0.234259 -0.672478
vn 0.972362 -0.0683666 0.223246
vn 0.0139661 -0.741724 0.67056
vn -0.0142827 -0.731374 0.681827
vn -0.0747356 -0.996538 0.0364092
vn 0.773802 -0.304912 0.55521
vn 0.0422006 -0.751308 0.658601
vn 0.626761 -0.777822 0.046511
vn 0.0173524 -0.999777 0.0120496
vn 0.201052 -0.979563 -0.00589137
vn 0.787543 -0.615177 -0.0365212
vn 0.0453598 0.957466 -0.284958
vn 0.938898 -0.168629 -0.300057
vn 0.964469 -0.166979 -0.204736
vn -0.760761 0.644637 0.0754038
vn -0.594958 0.802881 0.0375161
vn 0.327218 0.89746 -0.295794
vn 0.708218 -0.679323 0.192215
vn 0.873296 0.369045 -0.318055
vn 0.487791 0.755326 -0.437656
vn 0.721014 0.55971 -0.40849
vn 0.21478 0.859496 -0.463828
vn -0.951053 0.205494 0.230805
vn -0.487164 0.38587 0.783439
vn -0.881369 0.364809 0.300172
vn -0.664498 0.706242 -0.244263
vn 0.896286 0.104983 0.430871
vn 0.861515 0.498282 -0.0975037
vn 0.486805 0.841122 0.235658
vn 0.927317 0.304833 0.217165
g grp1
usemtl mtl1
f 5//5 2//2 9//9 
f 5//5 6//6 2//2 
f 131//131 141//141 15//15 
f 2//2 1//1 9//9 
f 2//2 3//3 1//1 
f 153//153 133//133 132//132 
f 4//4 139//139 145//145 
f 4//4 145//145 10//10 
f 7//7 136//136 16//16 
f 16//16 137//137 147//147 
f 142//142 138//138 143//143 
f 142//142 140//140 138//138 
f 8//8 15//15 141//141 
f 144//144 8//8 141//141 
f 8//8 144//144 14//14 
f 152//152 7//7 16//16 
f 146//146 11//11 148//148 
f 129//129 12//12 11//11 
f 129//129 11//11 146//146 
f 11//11 13//13 148//148 
f 11//11 12//12 13//13 
f 16//16 147//147 150//150 
f 134//134 149//149 130//130 
f 153//153 21//21 133//133 
f 12//12 18//18 13//13 
f 16//16 150//150 17//17 
f 155//155 154//154 151//151 
f 154//154 155//155 24//24 
f 22//22 15//15 8//8 
f 160//160 15//15 22//22 
f 8//8 14//14 162//162 
f 152//152 16//16 20//20 
f 149//149 134//134 19//19 
f 156//156 149//149 19//19 
f 20//20 16//16 17//17 
f 20//20 17//17 25//25 
f 17//17 165//165 25//25 
f 14//14 159//159 162//162 
f 157//157 135//135 161//161 
f 23//23 157//157 161//161 
f 159//159 26//26 162//162 
f 160//160 22//22 32//32 
f 163//163 160//160 32//32 
f 162//162 26//26 27//27 
f 22//22 166//166 32//32 
f 19//19 28//28 156//156 
f 167//167 158//158 164//164 
f 155//155 29//29 24//24 
f 26//26 20//20 25//25 
f 25//25 39//39 26//26 
f 25//25 165//165 178//178 
f 32//32 166//166 35//35 
f 27//27 26//26 174//174 
f 28//28 168//168 156//156 
f 167//167 164//164 30//30 
f 30//30 169//169 167//167 
f 30//30 31//31 169//169 
f 31//31 34//34 169//169 
f 163//163 32//32 170//170 
f 32//32 33//33 170//170 
f 33//33 171//171 170//170 
f 172//172 171//171 33//33 
f 35//35 36//36 32//32 
f 175//175 173//173 33//33 
f 175//175 33//33 32//32 
f 26//26 39//39 42//42 
f 173//173 175//175 44//44 
f 43//43 36//36 35//35 
f 174//174 26//26 42//42 
f 42//42 181//181 174//174 
f 36//36 43//43 183//183 
f 29//29 37//37 24//24 
f 176//176 178//178 165//165 
f 29//29 38//38 37//37 
f 34//34 40//40 169//169 
f 184//184 40//40 34//34 
f 40//40 38//38 29//29 
f 41//41 178//178 176//176 
f 176//176 177//177 41//41 
f 177//177 46//46 47//47 
f 41//41 177//177 47//47 
f 45//45 42//42 39//39 
f 186//186 179//179 180//180 
f 40//40 188//188 38//38 
f 55//55 41//41 47//47 
f 58//58 181//181 42//42 
f 58//58 42//42 187//187 
f 180//180 195//195 186//186 
f 46//46 48//48 47//47 
f 55//55 47//47 56//56 
f 56//56 47//47 189//189 
f 188//188 57//57 190//190 
f 54//54 40//40 184//184 
f 54//54 188//188 40//40 
f 54//54 57//57 188//188 
f 57//57 49//49 190//190 
f 51//51 64//64 189//189 
f 191//191 51//51 189//189 
f 52//52 50//50 191//191 
f 56//56 189//189 64//64 
f 49//49 57//57 70//70 
f 51//51 79//79 64//64 
f 49//49 70//70 193//193 
f 193//193 70//70 71//71 
f 50//50 51//51 191//191 
f 51//51 192//192 79//79 
f 52//52 53//53 50//50 
f 81//81 50//50 53//53 
f 196//196 186//186 195//195 
f 59//59 196//196 195//195 
f 61//61 194//194 185//185 
f 57//57 194//194 60//60 
f 59//59 55//55 56//56 
f 60//60 70//70 57//57 
f 61//61 185//185 182//182 
f 198//198 181//181 58//58 
f 61//61 63//63 194//194 
f 63//63 60//60 194//194 
f 196//196 59//59 65//65 
f 62//62 198//198 58//58 
f 200//200 198//198 62//62 
f 197//197 201//201 199//199 
f 65//65 59//59 56//56 
f 64//64 65//65 56//56 
f 65//65 64//64 66//66 
f 60//60 72//72 70//70 
f 66//66 64//64 67//67 
f 67//67 64//64 79//79 
f 80//80 67//67 79//79 
f 202//202 199//199 201//201 
f 60//60 63//63 72//72 
f 199//199 202//202 203//203 
f 69//69 74//74 208//208 
f 68//68 203//203 80//80 
f 200//200 62//62 69//69 
f 200//200 69//69 208//208 
f 203//203 68//68 199//199 
f 62//62 204//204 69//69 
f 69//69 204//204 74//74 
f 73//73 205//205 209//209 
f 73//73 206//206 205//205 
f 77//77 193//193 71//71 
f 74//74 210//210 208//208 
f 211//211 77//77 207//207 
f 89//89 193//193 77//77 
f 83//83 210//210 74//74 
f 83//83 75//75 210//210 
f 75//75 76//76 210//210 
f 211//211 212//212 77//77 
f 212//212 78//78 77//77 
f 76//76 75//75 93//93 
f 213//213 76//76 93//93 
f 78//78 92//92 77//77 
f 77//77 92//92 89//89 
f 80//80 79//79 192//192 
f 192//192 82//82 80//80 
f 214//214 82//82 192//192 
f 84//84 80//80 82//82 
f 74//74 204//204 216//216 
f 68//68 80//80 84//84 
f 52//52 86//86 53//53 
f 82//82 85//85 84//84 
f 85//85 82//82 214//214 
f 85//85 214//214 90//90 
f 81//81 53//53 218//218 
f 53//53 217//217 218//218 
f 215//215 74//74 216//216 
f 215//215 216//216 75//75 
f 75//75 216//216 93//93 
f 85//85 221//221 84//84 
f 221//221 85//85 91//91 
f 90//90 219//219 85//85 
f 52//52 89//89 86//86 
f 89//89 87//87 86//86 
f 89//89 99//99 98//98 
f 89//89 98//98 87//87 
f 217//217 88//88 218//218 
f 217//217 87//87 88//88 
f 99//99 89//89 92//92 
f 94//94 218//218 88//88 
f 219//219 90//90 94//94 
f 104//104 94//94 88//88 
f 221//221 91//91 95//95 
f 94//94 222//222 219//219 
f 101//101 222//222 94//94 
f 101//101 94//94 104//104 
f 93//93 96//96 213//213 
f 220//220 213//213 96//96 
f 221//221 95//95 96//96 
f 96//96 95//95 102//102 
f 222//222 101//101 223//223 
f 98//98 97//97 87//87 
f 87//87 97//97 88//88 
f 104//104 88//88 97//97 
f 99//99 110//110 98//98 
f 98//98 110//110 107//107 
f 103//103 110//110 99//99 
f 92//92 100//100 99//99 
f 103//103 99//99 100//100 
f 100//100 117//117 103//103 
f 96//96 100//100 220//220 
f 106//106 223//223 101//101 
f 106//106 126//126 223//223 
f 102//102 126//126 96//96 
f 113//113 110//110 103//103 
f 103//103 117//117 113//113 
f 122//122 117//117 100//100 
f 122//122 100//100 96//96 
f 108//108 104//104 97//97 
f 98//98 107//107 97//97 
f 97//97 107//107 225//225 
f 104//104 108//108 105//105 
f 101//101 104//104 105//105 
f 101//101 105//105 224//224 
f 224//224 105//105 127//127 
f 230//230 126//126 106//106 
f 110//110 111//111 107//107 
f 107//107 109//109 225//225 
f 111//111 115//115 226//226 
f 107//107 111//111 109//109 
f 226//226 116//116 112//112 
f 109//109 227//227 225//225 
f 105//105 108//108 228//228 
f 110//110 113//113 111//111 
f 111//111 113//113 114//114 
f 114//114 115//115 111//111 
f 116//116 226//226 115//115 
f 117//117 118//118 113//113 
f 118//118 114//114 113//113 
f 118//118 119//119 114//114 
f 119//119 115//115 114//114 
f 116//116 119//119 121//121 
f 119//119 116//116 115//115 
f 127//127 105//105 120//120 
f 105//105 112//112 120//120 
f 120//120 112//112 116//116 
f 121//121 120//120 116//116 
f 122//122 125//125 117//117 
f 117//117 125//125 118//118 
f 124//124 119//119 125//125 
f 125//125 119//119 118//118 
f 124//124 121//121 119//119 
f 124//124 128//128 121//121 
f 128//128 120//120 121//121 
f 122//122 96//96 123//123 
f 122//122 123//123 125//125 
f 96//96 126//126 123//123 
f 123//123 229//229 125//125 
f 123//123 126//126 232//232 
f 229//229 123//123 232//232 
f 232//232 126//126 230//230 
f 120//120 128//128 231//231 
