#
# The license for this database is specified in the Creative Commons Attribution-Share Alike 2.1 Japan. If you use data from this database, please be sure attribute this database as follows: "BodyParts3D, (c)  The Database Center for Life Science licensed under CC Attribution-Share Alike 2.1 Japan".
# http://dbarchive.biosciencedbc.jp/en/bodyparts3d/lic.html
#
#
# Compatibility version : 4.0
# File ID : FJ3078
# Representation ID : BP9379
# Build-up logic : FMA 3.0 part_of
# Concept ID : FMA14771
# English name : Common hepatic artery
# Bounds(mm): (-15.322300,-142.669000,1075.210000)-(5.790700,-126.891000,1085.420000)
# Volume(cm3): 0.359000
#
v -14.9915 -139.978 1082.72
v -15.2799 -140.738 1082.94
v -14.5626 -139.579 1084.54
v -14.7227 -139.34 1083.62
v -14.5429 -139.28 1084.06
v -14.0731 -138.948 1083.6
v -14.29 -139.091 1082.95
v -14.874 -139.971 1084.49
v -14.8461 -140.723 1084.78
v -14.8855 -139.611 1084.03
v -15.1266 -140.733 1084.39
v -15.2536 -140.208 1083.58
v -15.3223 -141.036 1083.56
v -14.9323 -141.369 1084.53
v -15.1052 -141.449 1084.1
v -14.0718 -139.306 1084.62
v -13.6772 -139.369 1084.85
v -13.7001 -139.017 1084.33
v -13.196 -139.464 1084.96
v -13.2549 -139.112 1084.55
v -14.3539 -140.003 1085.01
v -14.1262 -139.634 1084.92
v -13.8238 -139.903 1085.2
v -13.8261 -140.859 1085.38
v -13.3057 -139.814 1085.21
v -13.3785 -140.364 1085.42
v -14.1775 -141.49 1085.1
v -15.1508 -141.242 1082.73
v -14.9367 -140.884 1082.25
v -14.8113 -141.368 1082.24
v -14.9545 -141.837 1082.99
v -14.4288 -142.045 1082.41
v -14.5741 -142.126 1084.23
v -14.6221 -142.266 1083.27
v -13.9544 -142.594 1083.9
v -13.7823 -142.545 1082.77
v -13.1671 -138.828 1083.82
v -12.8222 -139.766 1085.09
v -12.7253 -138.943 1084.01
v -12.6749 -139.263 1084.53
v -12.0079 -139.97 1084.63
v -12.873 -140.144 1085.29
v -12.9925 -140.706 1085.41
v -13.304 -141.652 1085.22
v -13.7589 -142.318 1084.59
v -12.6281 -141.917 1084.87
v -12.6451 -142.344 1084.39
v -12.4664 -140.291 1085.16
v -12.4629 -140.937 1085.21
v -11.8712 -140.904 1084.69
v -13.808 -140.058 1080.69
v -13.2822 -139.037 1080.75
v -13.0232 -142.669 1083.66
v -12.0866 -141.935 1084.38
v -12.1562 -142.329 1083.7
v -11.3693 -138.168 1079.82
v -11.6103 -138.919 1078.52
v -12.7821 -140.487 1079.34
v -13.0153 -141.317 1080.04
v -10.0693 -138.053 1080.27
v -10.0089 -138.579 1081.27
v -9.81797 -139.941 1082.03
v -10.1259 -141.358 1081.83
v -10.7965 -140.072 1077.36
v -9.78176 -138.209 1077.53
v -10.9587 -141.04 1077.88
v -11.4797 -141.786 1079.27
v -8.71456 -137.926 1079.43
v -10.628 -142.097 1080.2
v -8.37522 -138.909 1080.4
v -8.4021 -139.92 1080.74
v -9.52068 -138.889 1076.69
v -7.84087 -137.507 1077.21
v -9.515 -140.776 1076.74
v -9.33994 -141.394 1077.23
v -8.75563 -137.66 1078.45
v -6.7584 -137.775 1078.88
v -8.59043 -141.36 1080.05
v -8.29877 -139.628 1075.86
v -8.04421 -141.031 1076.34
v -5.24829 -136.38 1077.24
v -7.08738 -137.263 1077.66
v -6.59238 -137.07 1077.24
v -8.26854 -141.704 1077.6
v -6.7914 -141.44 1078.2
v -3.70762 -135.262 1078.03
v -5.86645 -137.1 1078.34
v -5.00139 -136.769 1078.61
v -6.02315 -138.945 1079.48
v -5.3587 -138.043 1079.22
v -3.63616 -137.421 1079.62
v -4.61007 -138.844 1079.37
v -1.28824 -133.14 1080.17
v -2.70878 -135.219 1079.69
v -0.00473879 -130.858 1080.35
v -1.02823 -134.33 1080.88
v 2.21448 -127.281 1081.79
v 1.57479 -127.822 1080.88
v 1.23254 -128.448 1081.65
v 1.68749 -127.897 1082.09
v 0.428957 -130.941 1081.7
v 3.18984 -127.4 1082.64
v 1.56691 -128.502 1082.41
v 2.09539 -127.918 1082.6
v 2.01646 -129.025 1082.97
v 3.14677 -128.089 1083.19
v 3.24047 -128.554 1083.39
v 3.73963 -128.263 1083.29
v 2.92849 -129.653 1083.35
v -6.31276 -140.421 1075.6
v -6.34129 -140.965 1076.15
v -5.65791 -137.29 1075.82
v -2.50458 -134.414 1077.29
v -4.76635 -139.966 1078.96
v -0.827259 -132.356 1078.63
v 0.140644 -131.047 1079.09
v -2.74226 -138.188 1079.6
v 2.07403 -128.109 1079.52
v 1.44256 -129.258 1079.34
v 2.89908 -126.891 1081.14
v 2.66458 -127.207 1080.09
v 3.46094 -127.085 1080.01
v 1.57879 -134.204 1081.64
v 4.08035 -126.929 1080.77
v 3.40148 -126.929 1081.82
v 4.37734 -127.124 1081.78
v 2.73585 -131.66 1082.82
v 3.90109 -127.565 1082.77
v 4.89333 -128.068 1082.58
v 3.77033 -129.06 1083.47
v 4.37896 -128.257 1083.09
v 4.25926 -128.973 1083.34
v 4.1275 -129.401 1083.38
v 4.56384 -129.309 1083.22
v 4.85012 -128.819 1082.99
v 4.55834 -129.792 1083.11
v 3.53502 -129.688 1083.43
v 3.91023 -130.229 1083.22
v -5.36418 -139.44 1075.21
v -3.36681 -137.573 1075.27
v -4.75114 -140.186 1075.65
v -4.17863 -139.331 1075.29
v -2.18507 -135.554 1076
v -4.24419 -140.525 1076.78
v 0.850276 -131.317 1078.2
v 3.04802 -127.877 1079.23
v 2.10609 -129.303 1078.87
v 2.45967 -130.882 1078.18
v 0.190762 -137.274 1079.36
v 4.00304 -127.481 1079.57
v 4.38043 -127.176 1080.22
v 4.84868 -127.28 1080.86
v 5.14275 -127.57 1081.39
v 4.68972 -127.488 1080.03
v 5.27227 -127.716 1080.85
v 5.69768 -128.684 1080.67
v 4.61247 -131.757 1081.6
v 3.07973 -133.261 1081.8
v 5.66642 -128.666 1081.62
v 5.04442 -129.332 1082.86
v 5.37676 -129.076 1082.46
v 5.13115 -129.92 1082.56
v 5.57455 -129.867 1081.8
v 4.13677 -131.386 1082.53
v -2.42957 -138.946 1075.95
v -0.487138 -135.662 1076.18
v 0.725395 -135.996 1076.94
v 0.457507 -137.331 1077.94
v 4.55451 -128.518 1079.22
v 3.70147 -130.594 1078.59
v 4.17642 -132.624 1079.78
v 2.61539 -135.002 1079.92
v 5.43188 -128.481 1080.1
v 5.31591 -129.905 1079.98
v 5.7907 -129.292 1081.08
v 5.57901 -130.138 1081.12
v -8.59043 -141.36 1080.05
v -5.00139 -136.769 1078.61
v -6.02315 -138.945 1079.48
v -6.02315 -138.945 1079.48
v -3.63616 -137.421 1079.62
v -4.76635 -139.966 1078.96
v -4.76635 -139.966 1078.96
v -4.76635 -139.966 1078.96
vn -0.837212 0.429442 -0.338608
vn -0.960848 0.0701234 -0.268055
vn -0.595802 0.588881 0.546113
vn -0.711972 0.702054 -0.0146737
vn -0.526028 0.797658 0.29502
vn -0.355639 0.930006 0.0927912
vn -0.575798 0.799372 -0.171643
vn -0.793265 0.338231 0.506291
vn -0.66977 0.0145951 0.742425
vn -0.784204 0.560675 0.265834
vn -0.915989 0.0140132 0.400958
vn -0.948422 0.309651 0.0679057
vn -0.985735 -0.164076 0.0374989
vn -0.752032 -0.323362 0.574357
vn -0.878362 -0.421275 0.225848
vn -0.367556 0.756892 0.540386
vn -0.140605 0.696257 0.703886
vn -0.203166 0.897875 0.39057
vn 0.125281 0.676681 0.725539
vn 0.0770043 0.851614 0.518483
vn -0.526984 0.31036 0.791179
vn -0.380343 0.567671 0.730129
vn -0.243742 0.387971 0.888858
vn -0.275405 -0.0322527 0.960787
vn 0.0240613 0.483261 0.875146
vn -0.0306783 0.20561 0.978153
vn -0.437333 -0.409312 0.800752
vn -0.905639 -0.25303 -0.340284
vn -0.847522 -0.0140284 -0.530575
vn -0.760265 -0.365614 -0.536957
vn -0.82643 -0.523133 -0.208194
vn -0.567239 -0.695748 -0.440652
vn -0.605267 -0.678186 0.416793
vn -0.62869 -0.774957 -0.0647381
vn -0.287597 -0.943023 0.16732
vn -0.234041 -0.945891 -0.224755
vn -0.0394298 0.970046 0.239699
vn 0.351609 0.524604 0.775346
vn 0.22454 0.881216 0.415981
vn 0.368706 0.719278 0.588808
vn 0.634861 0.401908 0.659865
vn 0.238138 0.300054 0.92372
vn 0.190317 -0.0275921 0.981335
vn 0.0432205 -0.425943 0.903717
vn -0.117517 -0.795932 0.59387
vn 0.391198 -0.551169 0.737005
vn 0.320742 -0.827071 0.461603
vn 0.515898 0.210887 0.830287
vn 0.461833 -0.178469 0.868826
vn 0.729298 -0.134994 0.670747
vn -0.793224 0.249179 -0.555612
vn -0.665313 0.640948 -0.38281
vn 0.11967 -0.981624 0.14864
vn 0.638884 -0.568648 0.518137
vn 0.500453 -0.829372 0.248371
vn -0.329085 0.937648 -0.111888
vn -0.657774 0.477734 -0.582326
vn -0.742933 -0.115894 -0.659257
vn -0.612739 -0.529017 -0.587105
vn 0.0758344 0.955748 0.284244
vn 0.447282 0.698338 0.558805
vn 0.711833 0.136382 0.68898
vn 0.68259 -0.545141 0.486715
vn -0.613848 -0.0343107 -0.788679
vn -0.44897 0.75388 -0.479678
vn -0.534391 -0.519569 -0.666689
vn -0.301244 -0.856052 -0.420032
vn 0.133274 0.885323 0.445468
vn 0.213947 -0.975963 0.0415065
vn 0.411767 0.516628 0.750695
vn 0.565925 -0.0835071 0.820217
vn -0.51031 0.398405 -0.76214
vn -0.312682 0.930538 -0.190602
vn -0.421846 -0.431293 -0.797516
vn -0.271498 -0.783961 -0.558296
vn -0.129379 0.985712 0.107855
vn -0.0153456 0.721426 0.692321
vn 0.367105 -0.853926 0.368842
vn -0.352194 -0.0509591 -0.934539
vn -0.178256 -0.666475 -0.723904
vn -0.539265 0.841504 0.0326247
vn -0.213709 0.953989 0.210317
vn -0.358746 0.932402 -0.0438976
vn 0.00959412 -0.957114 -0.289552
vn 0.328559 -0.934133 0.139443
vn -0.699077 0.694024 0.172111
vn -0.336311 0.80905 0.48201
vn -0.576376 0.746147 0.333251
vn 0.37579 0.324481 0.86804
vn -0.20181 0.384956 0.900601
vn -0.517561 0.314812 0.795628
vn -0.0299126 -0.125485 0.991644
vn -0.811847 0.441081 0.38256
vn -0.669475 0.380909 0.637739
vn -0.876506 0.479781 0.0393407
vn -0.538368 0.0110457 0.842637
vn -0.480913 0.82498 0.296867
vn -0.750238 0.640589 -0.163672
vn -0.879085 0.408642 0.245401
vn -0.745855 0.570926 0.343138
vn -0.822241 0.256131 0.508249
vn -0.176576 0.763771 0.620866
vn -0.756165 0.311671 0.575391
vn -0.508467 0.534175 0.675366
vn -0.533751 0.168291 0.828727
vn -0.196586 0.480906 0.854449
vn -0.179043 0.201835 0.962915
vn 0.135753 0.380915 0.91459
vn -0.258476 -0.08024 0.962679
vn -0.0603367 -0.50133 -0.86315
vn 0.146604 -0.879808 -0.452156
vn -0.350981 0.628982 -0.693681
vn -0.526429 0.746156 -0.407582
vn 0.438071 0.0865069 0.894768
vn -0.709914 0.664937 -0.232124
vn -0.70342 0.572793 -0.420843
vn 0.0463944 -0.403988 0.913587
vn -0.550305 0.549831 -0.628371
vn -0.61646 0.507981 -0.601608
vn -0.270928 0.960433 -0.0645421
vn -0.401029 0.80649 -0.434453
vn -0.0100179 0.892152 -0.451625
vn 0.0183552 -0.449217 0.893234
vn 0.20917 0.974521 -0.0809758
vn -0.00215042 0.948496 0.316781
vn 0.419009 0.855945 0.302968
vn 0.0171769 -0.372403 0.927912
vn 0.218171 0.703335 0.676551
vn 0.659406 0.508217 0.553984
vn 0.0668724 0.063506 0.995738
vn 0.409522 0.4108 0.814577
vn 0.3456 0.143214 0.927389
vn 0.28208 -0.137178 0.949533
vn 0.48743 -0.0512218 0.871658
vn 0.609708 0.191563 0.769129
vn 0.492748 -0.29404 0.818987
vn 0.0288816 -0.187333 0.981872
vn 0.259632 -0.341816 0.90319
vn -0.0624982 -0.113356 -0.991587
vn 0.108902 0.0941847 -0.989581
vn 0.260701 -0.663679 -0.701117
vn 0.249295 -0.324441 -0.912464
vn -0.136819 0.49567 -0.857666
vn 0.459547 -0.88566 -0.0665042
vn -0.414743 0.578923 -0.702023
vn -0.126639 0.536681 -0.834228
vn -0.334297 0.427301 -0.840035
vn 0.0435192 0.33896 -0.939794
vn 0.448436 -0.74486 0.494053
vn 0.248191 0.663287 -0.706011
vn 0.361256 0.850434 -0.382436
vn 0.575602 0.81163 -0.0996889
vn 0.738603 0.641993 0.205698
vn 0.60433 0.621496 -0.498526
vn 0.826861 0.543973 -0.142807
vn 0.961643 0.181363 -0.205793
vn 0.782256 -0.531967 0.324171
vn 0.453908 -0.602186 0.656765
vn 0.938311 0.260331 0.227599
vn 0.680217 -0.0985944 0.72635
vn 0.844803 0.0615731 0.531522
vn 0.739086 -0.333899 0.585032
vn 0.922314 -0.23865 0.303945
vn 0.484434 -0.476334 0.733778
vn 0.516888 -0.495908 -0.697783
vn 0.328295 0.0690359 -0.942049
vn 0.672246 -0.290629 -0.680896
vn 0.705744 -0.681667 -0.193014
vn 0.461184 0.264974 -0.846816
vn 0.497064 0.0359999 -0.866967
vn 0.851826 -0.462607 -0.245739
vn 0.730454 -0.656787 0.187263
vn 0.812472 0.284614 -0.508807
vn 0.835242 -0.156062 -0.527272
vn 0.994638 -0.0916583 -0.0478983
vn 0.92783 -0.370276 -0.0450298
vn 0.555134 -0.415471 0.720563
vn -0.44087 0.391431 0.807722
vn -0.0486096 0.305602 0.950918
vn 0.0961783 -0.352563 0.930832
vn -0.193571 -0.143583 0.970522
vn 0.390215 -0.436732 0.810554
vn 0.114813 -0.424012 0.89835
vn 0.441733 -0.821316 0.360986
g grp1
usemtl mtl1
f 12//12 1//1 2//2 
f 13//13 12//12 2//2 
f 28//28 13//13 2//2 
f 2//2 1//1 29//29 
f 29//29 28//28 2//2 
f 4//4 10//10 5//5 
f 6//6 7//7 4//4 
f 5//5 6//6 4//4 
f 1//1 4//4 7//7 
f 52//52 1//1 7//7 
f 7//7 6//6 56//56 
f 11//11 12//12 13//13 
f 12//12 8//8 10//10 
f 12//12 11//11 8//8 
f 10//10 8//8 3//3 
f 11//11 9//9 8//8 
f 4//4 12//12 10//10 
f 13//13 15//15 11//11 
f 10//10 3//3 5//5 
f 12//12 4//4 1//1 
f 11//11 14//14 9//9 
f 14//14 27//27 9//9 
f 14//14 11//11 15//15 
f 31//31 13//13 28//28 
f 15//15 13//13 31//31 
f 15//15 33//33 14//14 
f 14//14 33//33 27//27 
f 15//15 31//31 34//34 
f 15//15 34//34 33//33 
f 5//5 3//3 16//16 
f 3//3 22//22 16//16 
f 22//22 17//17 16//16 
f 6//6 5//5 18//18 
f 5//5 16//16 18//18 
f 18//18 17//17 20//20 
f 16//16 17//17 18//18 
f 19//19 17//17 25//25 
f 38//38 19//19 25//25 
f 6//6 18//18 37//37 
f 20//20 17//17 19//19 
f 37//37 18//18 20//20 
f 38//38 25//25 42//42 
f 8//8 9//9 21//21 
f 21//21 3//3 8//8 
f 21//21 22//22 3//3 
f 22//22 21//21 23//23 
f 9//9 24//24 21//21 
f 24//24 9//9 27//27 
f 23//23 17//17 22//22 
f 21//21 24//24 23//23 
f 25//25 17//17 23//23 
f 25//25 23//23 26//26 
f 42//42 25//25 26//26 
f 26//26 23//23 24//24 
f 26//26 24//24 43//43 
f 42//42 26//26 43//43 
f 24//24 27//27 44//44 
f 52//52 7//7 56//56 
f 51//51 1//1 52//52 
f 51//51 29//29 1//1 
f 30//30 28//28 29//29 
f 31//31 28//28 30//30 
f 58//58 29//29 51//51 
f 30//30 29//29 58//58 
f 32//32 31//31 30//30 
f 34//34 31//31 32//32 
f 6//6 37//37 56//56 
f 35//35 33//33 34//34 
f 36//36 34//34 32//32 
f 34//34 36//36 35//35 
f 32//32 67//67 36//36 
f 37//37 20//20 39//39 
f 20//20 40//40 39//39 
f 19//19 40//40 20//20 
f 40//40 19//19 38//38 
f 39//39 40//40 61//61 
f 41//41 61//61 40//40 
f 41//41 40//40 38//38 
f 38//38 42//42 48//48 
f 48//48 42//42 43//43 
f 43//43 24//24 44//44 
f 45//45 44//44 27//27 
f 33//33 45//45 27//27 
f 44//44 45//45 46//46 
f 35//35 45//45 33//33 
f 47//47 46//46 45//45 
f 36//36 53//53 35//35 
f 53//53 45//45 35//35 
f 47//47 54//54 46//46 
f 47//47 55//55 54//54 
f 38//38 48//48 41//41 
f 41//41 48//48 50//50 
f 50//50 48//48 49//49 
f 48//48 43//43 49//49 
f 43//43 44//44 49//49 
f 62//62 41//41 50//50 
f 50//50 49//49 46//46 
f 49//49 44//44 46//46 
f 57//57 52//52 56//56 
f 51//51 52//52 57//57 
f 60//60 56//56 37//37 
f 37//37 39//39 60//60 
f 60//60 39//39 61//61 
f 53//53 36//36 69//69 
f 50//50 63//63 62//62 
f 54//54 50//50 46//46 
f 63//63 50//50 54//54 
f 55//55 63//63 54//54 
f 53//53 47//47 45//45 
f 53//53 55//55 47//47 
f 69//69 55//55 53//53 
f 57//57 58//58 51//51 
f 57//57 56//56 65//65 
f 58//58 59//59 30//30 
f 66//66 59//59 58//58 
f 59//59 32//32 30//30 
f 67//67 32//32 59//59 
f 66//66 67//67 59//59 
f 60//60 76//76 56//56 
f 69//69 36//36 67//67 
f 69//69 63//63 55//55 
f 62//62 61//61 41//41 
f 57//57 64//64 58//58 
f 64//64 66//66 58//58 
f 65//65 56//56 73//73 
f 72//72 57//57 65//65 
f 66//66 75//75 67//67 
f 60//60 61//61 68//68 
f 76//76 60//60 68//68 
f 78//78 63//63 69//69 
f 61//61 62//62 70//70 
f 61//61 70//70 68//68 
f 71//71 70//70 62//62 
f 71//71 62//62 63//63 
f 63//63 177//177 71//71 
f 72//72 64//64 57//57 
f 79//79 64//64 72//72 
f 72//72 65//65 112//112 
f 112//112 65//65 73//73 
f 64//64 74//74 66//66 
f 75//75 84//84 67//67 
f 67//67 84//84 69//69 
f 85//85 69//69 84//84 
f 76//76 82//82 73//73 
f 83//83 73//73 82//82 
f 73//73 56//56 76//76 
f 68//68 82//82 76//76 
f 82//82 68//68 77//77 
f 85//85 78//78 69//69 
f 70//70 77//77 68//68 
f 77//77 70//70 89//89 
f 179//179 90//90 77//77 
f 70//70 71//71 89//89 
f 89//89 71//71 114//114 
f 182//182 71//71 177//177 
f 79//79 74//74 64//64 
f 72//72 112//112 79//79 
f 80//80 75//75 74//74 
f 79//79 80//80 74//74 
f 111//111 84//84 80//80 
f 74//74 75//75 66//66 
f 75//75 80//80 84//84 
f 112//112 73//73 83//83 
f 87//87 83//83 82//82 
f 82//82 77//77 87//87 
f 112//112 83//83 81//81 
f 88//88 86//86 81//81 
f 90//90 87//87 77//77 
f 83//83 87//87 81//81 
f 87//87 88//88 81//81 
f 87//87 90//90 178//178 
f 91//91 178//178 90//90 
f 90//90 179//179 92//92 
f 92//92 180//180 183//183 
f 85//85 184//184 78//78 
f 86//86 94//94 93//93 
f 88//88 94//94 86//86 
f 178//178 91//91 94//94 
f 181//181 90//90 92//92 
f 181//181 92//92 117//117 
f 115//115 86//86 93//93 
f 95//95 115//115 93//93 
f 93//93 94//94 96//96 
f 123//123 96//96 181//181 
f 94//94 91//91 96//96 
f 95//95 101//101 99//99 
f 99//99 98//98 95//95 
f 95//95 93//93 101//101 
f 93//93 96//96 101//101 
f 100//100 97//97 98//98 
f 97//97 120//120 98//98 
f 101//101 105//105 103//103 
f 99//99 103//103 100//100 
f 99//99 100//100 98//98 
f 99//99 101//101 103//103 
f 101//101 96//96 105//105 
f 97//97 104//104 102//102 
f 97//97 102//102 125//125 
f 106//106 102//102 104//104 
f 128//128 102//102 106//106 
f 128//128 125//125 102//102 
f 100//100 104//104 97//97 
f 100//100 103//103 104//104 
f 103//103 105//105 104//104 
f 104//104 105//105 106//106 
f 107//107 106//106 105//105 
f 109//109 105//105 96//96 
f 128//128 106//106 108//108 
f 106//106 107//107 108//108 
f 109//109 107//107 105//105 
f 107//107 109//109 130//130 
f 139//139 79//79 112//112 
f 141//141 110//110 139//139 
f 141//141 111//111 110//110 
f 110//110 111//111 80//80 
f 110//110 80//80 79//79 
f 139//139 110//110 79//79 
f 111//111 144//144 85//85 
f 84//84 111//111 85//85 
f 112//112 113//113 143//143 
f 81//81 86//86 113//113 
f 112//112 81//81 113//113 
f 144//144 184//184 85//85 
f 113//113 86//86 115//115 
f 113//113 115//115 145//145 
f 143//143 113//113 145//145 
f 92//92 183//183 117//117 
f 149//149 117//117 183//183 
f 144//144 149//149 184//184 
f 116//116 95//95 98//98 
f 98//98 119//119 116//116 
f 115//115 95//95 116//116 
f 145//145 115//115 116//116 
f 181//181 117//117 123//123 
f 118//118 146//146 147//147 
f 147//147 119//119 118//118 
f 118//118 119//119 98//98 
f 116//116 119//119 145//145 
f 118//118 98//98 121//121 
f 121//121 98//98 120//120 
f 146//146 118//118 121//121 
f 120//120 122//122 121//121 
f 121//121 122//122 146//146 
f 122//122 120//120 124//124 
f 127//127 96//96 123//123 
f 97//97 125//125 120//120 
f 125//125 124//124 120//120 
f 125//125 128//128 126//126 
f 125//125 126//126 124//124 
f 128//128 129//129 126//126 
f 153//153 126//126 129//129 
f 109//109 127//127 137//137 
f 109//109 96//96 127//127 
f 138//138 127//127 164//164 
f 131//131 128//128 108//108 
f 128//128 131//131 129//129 
f 153//153 129//129 159//159 
f 108//108 107//107 130//130 
f 130//130 109//109 137//137 
f 131//131 108//108 132//132 
f 108//108 130//130 132//132 
f 130//130 137//137 133//133 
f 137//137 138//138 133//133 
f 133//133 132//132 130//130 
f 133//133 138//138 136//136 
f 131//131 132//132 135//135 
f 135//135 132//132 134//134 
f 132//132 133//133 134//134 
f 133//133 136//136 134//134 
f 129//129 131//131 135//135 
f 135//135 134//134 160//160 
f 160//160 134//134 136//136 
f 129//129 135//135 161//161 
f 161//161 135//135 160//160 
f 160//160 136//136 162//162 
f 162//162 136//136 164//164 
f 137//137 127//127 138//138 
f 136//136 138//138 164//164 
f 139//139 112//112 140//140 
f 143//143 140//140 112//112 
f 142//142 139//139 140//140 
f 140//140 165//165 142//142 
f 142//142 141//141 139//139 
f 141//141 144//144 111//111 
f 142//142 165//165 141//141 
f 144//144 168//168 149//149 
f 168//168 144//144 165//165 
f 141//141 165//165 144//144 
f 145//145 148//148 143//143 
f 147//147 146//146 148//148 
f 119//119 147//147 145//145 
f 147//147 148//148 145//145 
f 168//168 172//172 149//149 
f 124//124 151//151 122//122 
f 146//146 122//122 150//150 
f 150//150 122//122 151//151 
f 151//151 154//154 150//150 
f 169//169 150//150 154//154 
f 173//173 169//169 154//154 
f 146//146 150//150 169//169 
f 146//146 169//169 148//148 
f 148//148 169//169 170//170 
f 149//149 123//123 117//117 
f 126//126 152//152 124//124 
f 124//124 152//152 151//151 
f 153//153 152//152 126//126 
f 154//154 151//151 152//152 
f 153//153 155//155 152//152 
f 153//153 159//159 155//155 
f 152//152 155//155 154//154 
f 155//155 173//173 154//154 
f 155//155 156//156 173//173 
f 159//159 156//156 155//155 
f 156//156 159//159 175//175 
f 127//127 158//158 164//164 
f 158//158 127//127 123//123 
f 158//158 157//157 164//164 
f 158//158 172//172 157//157 
f 149//149 158//158 123//123 
f 149//149 172//172 158//158 
f 129//129 161//161 159//159 
f 162//162 161//161 160//160 
f 161//161 162//162 163//163 
f 163//163 159//159 161//161 
f 163//163 162//162 157//157 
f 157//157 176//176 163//163 
f 163//163 175//175 159//159 
f 164//164 157//157 162//162 
f 166//166 140//140 143//143 
f 165//165 140//140 166//166 
f 148//148 166//166 143//143 
f 167//167 165//165 166//166 
f 165//165 167//167 168//168 
f 167//167 170//170 174//174 
f 166//166 148//148 170//170 
f 166//166 170//170 167//167 
f 167//167 171//171 168//168 
f 172//172 168//168 171//171 
f 170//170 169//169 174//174 
f 173//173 174//174 169//169 
f 167//167 174//174 171//171 
f 172//172 171//171 157//157 
f 173//173 156//156 174//174 
f 174//174 156//156 175//175 
f 174//174 175//175 176//176 
f 171//171 174//174 176//176 
f 176//176 157//157 171//171 
f 163//163 176//176 175//175 
