#
# The license for this database is specified in the Creative Commons Attribution-Share Alike 2.1 Japan. If you use data from this database, please be sure attribute this database as follows: "BodyParts3D, (c)  The Database Center for Life Science licensed under CC Attribution-Share Alike 2.1 Japan".
# http://dbarchive.biosciencedbc.jp/en/bodyparts3d/lic.html
#
#
# Compatibility version : 4.0
# File ID : FJ2677
# Representation ID : BP9354
# Build-up logic : FMA 3.0 part_of
# Concept ID : FMA3815
# English name : First anterior ventricular branch of right coronary artery
# Bounds(mm): (20.933200,-176.313000,1226.870000)-(34.177000,-174.160000,1231.439900)
# Volume(cm3): 0.005200
#
v 20.977 -175.565 1229.98
v 21.09 -175.347 1229.8
v 21.0941 -175.118 1229.99
v 21.4626 -175.86 1230.02
v 21.2944 -175.567 1229.72
v 21.3099 -175.364 1229.69
v 21.4893 -175.181 1229.79
v 21.2739 -175.155 1229.79
v 21.3607 -175.046 1229.98
v 21.6467 -175.777 1229.86
v 21.696 -175.365 1229.73
v 21.9113 -175.565 1229.76
v 20.9332 -175.365 1230.18
v 21.0932 -175.553 1230.38
v 21.0896 -175.356 1230.4
v 21.0893 -175.119 1230.19
v 21.3786 -175.769 1230.38
v 21.3863 -175.579 1230.51
v 21.3174 -175.38 1230.51
v 21.2942 -175.028 1230.18
v 21.3166 -175.182 1230.42
v 21.5592 -175.138 1230.38
v 21.8754 -175.107 1230.19
v 23.149 -176.181 1230.57
v 23.6231 -176.276 1230.57
v 22.3842 -175.359 1229.94
v 22.7184 -175.566 1229.93
v 23.4018 -175.936 1230.07
v 23.6776 -175.755 1230.14
v 22.5083 -175.26 1230.4
v 22.6302 -175.558 1230.71
v 22.6784 -175.303 1230.18
v 22.9416 -175.948 1230.76
v 23.2612 -175.505 1230.17
v 23.5024 -176.161 1230.79
v 23.5041 -175.958 1230.93
v 23.4542 -175.558 1230.77
v 23.8253 -175.752 1230.97
v 23.6732 -175.532 1230.37
v 23.6327 -175.493 1230.57
v 23.9418 -176.208 1230.36
v 24.0961 -176.313 1230.59
v 24.063 -176.296 1230.77
v 24.4636 -176.291 1230.78
v 24.6881 -176.221 1230.6
v 24.8685 -176.2 1230.98
v 24.2106 -175.54 1230.6
v 24.1246 -175.561 1230.8
v 24.2552 -176.162 1230.99
v 24.4941 -175.957 1230.33
v 24.5313 -175.947 1231.16
v 24.4643 -175.748 1230.36
v 24.8683 -175.578 1231.12
v 25.5341 -176.146 1230.97
v 25.4988 -175.948 1231.35
v 25.6659 -175.956 1230.68
v 25.6718 -175.764 1231.44
v 25.6341 -175.578 1231.39
v 25.6874 -175.379 1230.96
v 25.9402 -175.579 1230.7
v 26.112 -175.565 1231.44
v 25.9671 -175.35 1231.16
v 26.2785 -175.31 1230.98
v 26.4689 -175.98 1230.76
v 26.5243 -176.018 1231.11
v 26.4396 -175.766 1231.41
v 26.4751 -175.588 1230.63
v 26.9915 -175.764 1231.17
v 26.8986 -175.572 1231.27
v 26.8803 -175.377 1231.15
v 27.2209 -175.996 1230.46
v 27.2484 -175.761 1230.15
v 27.1364 -175.544 1230.23
v 28.2814 -175.267 1229.41
v 28.3952 -175.165 1229.58
v 28.5699 -175.565 1229.98
v 28.5944 -175.561 1229
v 27.4785 -175.235 1230.58
v 29.7362 -175.564 1228.5
v 29.682 -175.36 1228.53
v 28.7888 -175.764 1228.97
v 28.9769 -175.565 1228.77
v 28.9036 -175.364 1228.86
v 29.0231 -175.896 1229.04
v 29.0785 -175.879 1229.38
v 29.3054 -175.761 1228.72
v 29.3054 -175.242 1228.78
v 29.2343 -175.161 1229
v 29.5514 -175.884 1228.96
v 29.4785 -175.2 1229.18
v 29.8717 -175.105 1228.77
v 30.5017 -175.161 1228.39
v 30.6614 -175.365 1228.27
v 30.8793 -175.553 1228.31
v 31.2791 -175.163 1228.15
v 31.2847 -174.918 1228.37
v 31.4571 -175.36 1228.12
v 31.8699 -174.961 1227.99
v 31.9399 -175.152 1227.92
v 30.4973 -175.742 1228.57
v 30.8241 -174.982 1228.61
v 31.0138 -175.059 1228.78
v 31.2457 -175.176 1228.82
v 31.3292 -174.909 1228.56
v 31.4785 -175.601 1228.58
v 32.0598 -175.428 1228.16
v 32.0785 -174.713 1228.18
v 32.4762 -175.154 1228.4
v 32.675 -174.77 1227.58
v 32.8784 -174.949 1227.47
v 32.7821 -174.779 1228.22
v 33.256 -175.005 1227.39
v 33.3455 -174.75 1227.94
v 33.5811 -174.386 1227.05
v 33.3875 -174.31 1227.43
v 33.8651 -174.772 1227
v 33.8571 -174.877 1227.19
v 33.7759 -174.885 1227.43
v 34.071 -174.748 1227.18
v 33.6346 -174.588 1226.95
v 33.8771 -174.566 1226.87
v 33.8787 -174.378 1226.9
v 34.0785 -174.565 1226.93
v 33.6034 -174.373 1227.61
v 33.8785 -174.16 1227.18
v 34.0895 -174.576 1227.39
v 34.177 -174.365 1227.18
v 34.0327 -174.379 1227.41
v 20.977 -175.565 1229.98
v 20.977 -175.565 1229.98
v 20.977 -175.565 1229.98
v 21.0941 -175.118 1229.99
v 21.2944 -175.567 1229.72
v 21.4893 -175.181 1229.79
v 21.2739 -175.155 1229.79
v 20.9332 -175.365 1230.18
v 20.9332 -175.365 1230.18
v 21.0932 -175.553 1230.38
v 21.0896 -175.356 1230.4
v 21.0896 -175.356 1230.4
v 21.0893 -175.119 1230.19
v 21.0893 -175.119 1230.19
v 23.6776 -175.755 1230.14
v 23.8253 -175.752 1230.97
v 24.5313 -175.947 1231.16
v 24.4643 -175.748 1230.36
v 24.8683 -175.578 1231.12
v 25.6341 -175.578 1231.39
v 25.6874 -175.379 1230.96
v 25.9402 -175.579 1230.7
v 26.2785 -175.31 1230.98
v 26.4689 -175.98 1230.76
v 26.4689 -175.98 1230.76
v 26.4689 -175.98 1230.76
v 26.4751 -175.588 1230.63
v 27.2209 -175.996 1230.46
v 28.2814 -175.267 1229.41
v 28.3952 -175.165 1229.58
v 28.3952 -175.165 1229.58
v 28.5699 -175.565 1229.98
v 27.4785 -175.235 1230.58
v 27.4785 -175.235 1230.58
v 29.0785 -175.879 1229.38
v 29.2343 -175.161 1229
v 29.4785 -175.2 1229.18
v 29.4785 -175.2 1229.18
v 29.4785 -175.2 1229.18
v 29.8717 -175.105 1228.77
v 31.9399 -175.152 1227.92
v 31.4785 -175.601 1228.58
v 31.4785 -175.601 1228.58
v 32.0598 -175.428 1228.16
v 32.0785 -174.713 1228.18
v 32.0785 -174.713 1228.18
v 32.4762 -175.154 1228.4
v 32.8784 -174.949 1227.47
v 32.7821 -174.779 1228.22
v 33.256 -175.005 1227.39
v 33.256 -175.005 1227.39
v 33.3455 -174.75 1227.94
v 33.3875 -174.31 1227.43
v 33.8571 -174.877 1227.19
v 34.071 -174.748 1227.18
v 34.071 -174.748 1227.18
v 33.6346 -174.588 1226.95
v 33.8771 -174.566 1226.87
v 33.8771 -174.566 1226.87
v 33.8787 -174.378 1226.9
v 33.8787 -174.378 1226.9
v 34.0785 -174.565 1226.93
v 34.0785 -174.565 1226.93
v 33.8785 -174.16 1227.18
v 33.8785 -174.16 1227.18
v 34.0895 -174.576 1227.39
v 34.0895 -174.576 1227.39
v 34.177 -174.365 1227.18
v 34.177 -174.365 1227.18
v 34.177 -174.365 1227.18
vn -0.914197 0.168511 -0.368576
vn -0.700854 0.17538 -0.691409
vn -0.806098 0.478298 -0.348478
vn -0.261748 -0.929015 -0.261572
vn -0.134788 -0.582202 -0.801794
vn -0.0960159 0.171239 -0.98054
vn 0.130258 0.461185 -0.877691
vn -0.328479 0.468275 -0.820256
vn 0.0639863 0.93578 -0.34673
vn -0.0250692 -0.681261 -0.731611
vn 0.193529 0.281919 -0.939717
vn 0.147673 -0.0862373 -0.985269
vn -0.904386 0.344852 -0.251325
vn -0.8032 -0.47014 0.365838
vn -0.815419 -0.0899913 0.571833
vn -0.843742 0.536519 -0.0157057
vn -0.399509 -0.782299 0.477913
vn -0.286312 -0.256675 0.923116
vn -0.294067 0.10795 0.949669
vn -0.143955 0.964602 0.220954
vn -0.225779 0.627011 0.745575
vn 0.0512109 0.83141 0.553294
vn 0.172565 0.98243 0.0710847
vn -0.245611 -0.896098 0.369707
vn -0.140037 -0.990136 0.00458279
vn 0.280132 0.607673 -0.743142
vn 0.270231 0.416332 -0.868126
vn 0.165789 -0.28774 -0.94325
vn 0.243152 0.0995871 -0.964862
vn 0.126647 0.923259 0.362703
vn -0.108921 0.368139 0.923369
vn 0.268282 0.895128 -0.356049
vn -0.268274 -0.47363 0.83887
vn 0.291907 0.702451 -0.649118
vn -0.232087 -0.757112 0.610669
vn -0.237721 -0.237104 0.94195
vn -0.00439586 0.805172 0.593025
vn -0.198726 0.171244 0.964979
vn 0.238398 0.860169 -0.450861
vn 0.125881 0.988575 0.0829042
vn 0.0581619 -0.796682 -0.601594
vn 0.0347176 -0.982063 -0.185331
vn -0.0895602 -0.934564 0.344339
vn 0.0777555 -0.980286 0.181642
vn 0.204734 -0.889913 -0.407602
vn 0.0361181 -0.899001 0.436455
vn 0.0384042 0.966698 -0.253021
vn -0.0868147 0.914512 0.395134
vn -0.109347 -0.695599 0.71006
vn 0.247401 -0.221508 -0.943253
vn -0.136035 -0.519022 0.843867
vn 0.155291 0.781224 -0.604627
vn -0.199565 0.824294 0.529824
vn 0.118986 -0.992539 -0.0266252
vn -0.0103449 -0.698245 0.715784
vn 0.145051 -0.490876 -0.85907
vn -0.100765 -0.100491 0.989822
vn -0.231054 0.273864 0.933602
vn -0.113865 0.993367 0.0160144
vn 0.121941 0.0621716 -0.990588
vn 0.0490949 0.441546 0.895894
vn -0.0991741 0.935185 0.339992
vn -0.207175 0.740337 -0.639516
vn 0.0395942 -0.964525 -0.261004
vn 0.153312 -0.932567 0.326823
vn 0.190259 -0.378754 0.90573
vn -0.0166433 -0.0906719 -0.995742
vn 0.470541 -0.477574 0.741967
vn 0.413484 0.179958 0.89255
vn 0.240367 0.764607 0.597997
vn 0.0451086 -0.998953 0.00765481
vn -0.527333 -0.37182 -0.763983
vn -0.525006 0.476766 -0.705027
vn -0.587522 0.374585 -0.717289
vn -0.314262 0.893015 -0.322123
vn 0.633726 -0.240974 0.735067
vn -0.590107 0.0252011 -0.806932
vn -0.347234 0.859011 -0.376204
vn -0.220821 -0.348479 -0.910934
vn -0.301873 0.417102 -0.857262
vn -0.419416 -0.599251 -0.681901
vn -0.413714 -0.107611 -0.904025
vn -0.424242 0.539974 -0.726944
vn -0.108888 -0.949819 -0.293236
vn 0.333605 -0.868206 0.367322
vn -0.199429 -0.698697 -0.68706
vn -0.272539 0.780055 -0.563237
vn -0.278132 0.865007 -0.417619
vn 0.0562214 -0.990025 -0.129185
vn 0.254845 0.737152 0.625828
vn -0.22188 0.826437 -0.517466
vn -0.266372 0.681491 -0.681627
vn -0.224403 -0.0144237 -0.97439
vn -0.0898093 -0.612365 -0.785458
vn -0.304982 0.285396 -0.908589
vn -0.289269 0.86531 -0.409344
vn -0.150663 -0.402859 -0.902776
vn -0.410282 0.51844 -0.750259
vn -0.394645 0.0678215 -0.916327
vn 0.0109495 -0.884456 -0.466496
vn -0.140247 0.989112 0.0445937
vn 0.0784832 0.774537 0.627641
vn 0.256818 0.247295 0.934286
vn -0.0170251 0.894377 0.44699
vn 0.157492 -0.987517 -0.00270326
vn -0.0183235 -0.790822 -0.611771
vn -0.460766 0.705857 -0.538015
vn 0.36891 -0.0330895 0.928876
vn -0.535054 0.285779 -0.795014
vn -0.493407 -0.00854092 -0.869757
vn 0.0704056 0.778446 0.623751
vn -0.244243 -0.611245 -0.752811
vn 0.456559 0.26212 0.850204
vn -0.489061 0.596816 -0.636105
vn -0.456483 0.801012 -0.387302
vn 0.133581 -0.71736 -0.683777
vn 0.248168 -0.855352 -0.454737
vn 0.492199 -0.81182 0.314148
vn 0.488366 -0.745186 -0.454088
vn -0.473191 0.170188 -0.864365
vn 0.0118764 -0.5407 -0.841132
vn -0.380654 0.25352 -0.889286
vn 0.400522 -0.629404 -0.665908
vn 0.167867 0.757015 0.631465
vn -0.380246 0.783948 -0.490752
vn 0.627206 -0.558432 0.542925
vn 0.524475 0.608409 -0.595622
vn 0.559195 0.487712 0.670401
vn -0.418765 -0.758974 -0.498591
vn -0.611658 -0.291385 -0.735506
vn -0.674543 -0.71364 0.18897
vn -0.307598 0.931862 -0.1924
vn -0.543397 -0.198188 -0.815746
vn 0.16882 0.860258 -0.481099
vn -0.0776635 0.880975 -0.466746
vn -0.859406 -0.277634 0.429349
vn -0.740894 0.450257 0.498343
vn -0.412203 -0.260635 0.873017
vn -0.535431 0.489924 0.68796
vn -0.412092 -0.12636 0.902338
vn -0.406168 0.913795 -0.00233136
vn -0.529082 0.620364 0.578982
vn 0.276879 0.655448 -0.702656
vn -0.101139 0.720658 0.685874
vn -0.246454 0.25017 0.93631
vn 0.230317 0.192919 -0.953801
vn -0.24761 0.329274 0.91119
vn -0.14028 0.80121 0.581708
vn -0.00725419 0.788917 -0.614457
vn -0.00784698 0.780572 -0.625016
vn -0.0178971 0.981758 0.189289
vn 0.0903475 -0.319487 -0.943274
vn -0.260526 -0.755859 -0.600669
vn -0.551989 -0.258559 -0.792752
vn -0.446055 0.316039 -0.83735
vn -0.342373 -0.762437 -0.549064
vn -0.342008 0.866396 -0.363851
vn 0.376098 0.732161 0.567883
vn 0.0737713 0.99084 0.113111
vn 0.458864 0.621046 0.63541
vn 0.030958 0.96148 0.273127
vn 0.514414 0.615276 0.597339
vn 0.272747 -0.0773498 0.958971
vn 0.0332605 0.985379 0.167097
vn 0.691748 -0.20347 0.692881
vn -0.00545225 0.976235 0.216647
vn 0.179733 0.377949 0.908213
vn -0.0572349 0.9831 0.173894
vn -0.155984 -0.654956 -0.739393
vn 0.323176 -0.325514 0.888593
vn 0.434049 -0.866778 0.245553
vn 0.366502 -0.920998 0.132056
vn -0.246922 0.968939 0.0136653
vn 0.0138927 0.859571 0.510828
vn 0.485368 -0.774772 0.405149
vn -0.243784 -0.591381 -0.76866
vn 0.388914 0.229988 0.892105
vn 0.229387 -0.971534 -0.0591902
vn 0.0291222 -0.878751 -0.476391
vn 0.580429 -0.511872 0.633316
vn -0.0582052 0.911469 0.407231
vn 0.374579 -0.922173 0.0963737
vn 0.600943 -0.740374 0.301187
vn 0.963685 -0.266598 -0.015406
vn -0.256938 -0.556223 -0.790316
vn -0.335741 0.194375 -0.921681
vn 0.2995 0.191537 -0.934673
vn -0.308138 0.746405 -0.589856
vn 0.467183 0.487688 -0.737496
vn 0.449095 0.367579 -0.81437
vn 0.950727 -0.262966 -0.164214
vn 0.474522 0.690935 -0.545379
vn 0.251835 0.847713 0.466863
vn 0.718364 0.128406 0.683714
vn 0.955128 -0.264278 0.133746
vn 0.963685 -0.266598 -0.015406
vn 0.829171 0.178105 0.529862
vn 0.524774 0.764106 0.375173
g grp1
usemtl mtl1
f 2//2 1//1 13//13 
f 2//2 13//13 3//3 
f 13//13 16//16 3//3 
f 4//4 129//129 5//5 
f 133//133 2//2 6//6 
f 133//133 130//130 2//2 
f 2//2 8//8 6//6 
f 2//2 3//3 8//8 
f 135//135 132//132 9//9 
f 9//9 132//132 20//20 
f 132//132 141//141 20//20 
f 5//5 12//12 10//10 
f 10//10 4//4 5//5 
f 12//12 5//5 6//6 
f 7//7 6//6 8//8 
f 9//9 134//134 135//135 
f 11//11 12//12 6//6 
f 11//11 6//6 7//7 
f 26//26 11//11 7//7 
f 9//9 26//26 134//134 
f 9//9 20//20 23//23 
f 26//26 12//12 11//11 
f 26//26 27//27 12//12 
f 26//26 9//9 32//32 
f 9//9 23//23 32//32 
f 131//131 14//14 136//136 
f 136//136 14//14 15//15 
f 21//21 142//142 139//139 
f 139//139 142//142 137//137 
f 4//4 17//17 131//131 
f 131//131 17//17 14//14 
f 138//138 17//17 18//18 
f 18//18 19//19 138//138 
f 19//19 140//140 138//138 
f 21//21 139//139 19//19 
f 142//142 21//21 20//20 
f 31//31 19//19 18//18 
f 31//31 21//21 19//19 
f 20//20 21//21 22//22 
f 31//31 22//22 21//21 
f 23//23 20//20 22//22 
f 33//33 18//18 17//17 
f 18//18 33//33 31//31 
f 22//22 30//30 23//23 
f 22//22 31//31 30//30 
f 32//32 23//23 30//30 
f 10//10 28//28 41//41 
f 4//4 10//10 41//41 
f 41//41 25//25 4//4 
f 4//4 25//25 24//24 
f 25//25 35//35 24//24 
f 25//25 43//43 35//35 
f 35//35 43//43 49//49 
f 41//41 42//42 25//25 
f 42//42 43//43 25//25 
f 10//10 12//12 28//28 
f 28//28 12//12 27//27 
f 27//27 26//26 32//32 
f 27//27 32//32 34//34 
f 29//29 28//28 27//27 
f 143//143 27//27 34//34 
f 28//28 29//29 50//50 
f 4//4 24//24 17//17 
f 17//17 24//24 33//33 
f 35//35 33//33 24//24 
f 33//33 35//35 36//36 
f 36//36 31//31 33//33 
f 31//31 37//37 30//30 
f 34//34 32//32 39//39 
f 39//39 32//32 40//40 
f 32//32 30//30 40//40 
f 30//30 37//37 40//40 
f 38//38 31//31 36//36 
f 144//144 37//37 31//31 
f 39//39 143//143 34//34 
f 51//51 36//36 49//49 
f 36//36 35//35 49//49 
f 145//145 38//38 36//36 
f 143//143 39//39 52//52 
f 48//48 37//37 144//144 
f 47//47 52//52 39//39 
f 47//47 39//39 40//40 
f 47//47 40//40 48//48 
f 40//40 37//37 48//48 
f 29//29 146//146 50//50 
f 41//41 45//45 42//42 
f 45//45 44//44 42//42 
f 42//42 44//44 43//43 
f 44//44 49//49 43//43 
f 45//45 46//46 44//44 
f 44//44 46//46 49//49 
f 51//51 49//49 46//46 
f 45//45 54//54 46//46 
f 41//41 28//28 50//50 
f 48//48 53//53 62//62 
f 144//144 53//53 48//48 
f 145//145 147//147 38//38 
f 47//47 48//48 62//62 
f 41//41 50//50 45//45 
f 146//146 60//60 50//50 
f 47//47 150//150 52//52 
f 56//56 45//45 50//50 
f 56//56 50//50 60//60 
f 58//58 147//147 145//145 
f 59//59 47//47 62//62 
f 53//53 148//148 62//62 
f 57//57 58//58 145//145 
f 150//150 47//47 149//149 
f 54//54 45//45 56//56 
f 51//51 46//46 55//55 
f 55//55 57//57 51//51 
f 54//54 55//55 46//46 
f 61//61 58//58 57//57 
f 63//63 150//150 149//149 
f 62//62 148//148 61//61 
f 59//59 62//62 151//151 
f 54//54 65//65 55//55 
f 56//56 64//64 54//54 
f 57//57 55//55 66//66 
f 67//67 56//56 60//60 
f 66//66 61//61 57//57 
f 63//63 155//155 150//150 
f 54//54 64//64 65//65 
f 55//55 65//65 66//66 
f 152//152 56//56 67//67 
f 151//151 62//62 70//70 
f 70//70 62//62 61//61 
f 71//71 65//65 64//64 
f 156//156 153//153 72//72 
f 85//85 68//68 65//65 
f 65//65 68//68 66//66 
f 72//72 154//154 155//155 
f 66//66 68//68 69//69 
f 66//66 69//69 61//61 
f 69//69 70//70 61//61 
f 65//65 71//71 85//85 
f 85//85 76//76 68//68 
f 155//155 73//73 72//72 
f 68//68 76//76 69//69 
f 155//155 63//63 73//73 
f 160//160 70//70 69//69 
f 78//78 73//73 63//63 
f 151//151 70//70 161//161 
f 77//77 72//72 73//73 
f 77//77 73//73 74//74 
f 73//73 78//78 157//157 
f 157//157 78//78 75//75 
f 72//72 81//81 156//156 
f 81//81 72//72 77//77 
f 88//88 157//157 75//75 
f 158//158 162//162 160//160 
f 81//81 84//84 156//156 
f 84//84 85//85 71//71 
f 77//77 74//74 83//83 
f 83//83 157//157 88//88 
f 160//160 90//90 158//158 
f 81//81 77//77 82//82 
f 82//82 77//77 83//83 
f 76//76 85//85 165//165 
f 70//70 160//160 162//162 
f 82//82 80//80 79//79 
f 100//100 86//86 79//79 
f 79//79 80//80 93//93 
f 80//80 92//92 93//93 
f 91//91 92//92 80//80 
f 92//92 91//91 101//101 
f 81//81 86//86 84//84 
f 89//89 85//85 84//84 
f 86//86 81//81 82//82 
f 87//87 83//83 88//88 
f 86//86 89//89 84//84 
f 79//79 86//86 82//82 
f 82//82 83//83 80//80 
f 87//87 80//80 83//83 
f 80//80 87//87 91//91 
f 87//87 88//88 91//91 
f 166//166 164//164 159//159 
f 168//168 164//164 166//166 
f 100//100 89//89 86//86 
f 103//103 167//167 163//163 
f 93//93 92//92 95//95 
f 95//95 92//92 96//96 
f 92//92 101//101 96//96 
f 100//100 79//79 94//94 
f 94//94 79//79 93//93 
f 106//106 100//100 94//94 
f 106//106 94//94 97//97 
f 97//97 94//94 93//93 
f 97//97 93//93 95//95 
f 106//106 105//105 100//100 
f 99//99 97//97 95//95 
f 95//95 98//98 99//99 
f 98//98 95//95 96//96 
f 98//98 96//96 107//107 
f 173//173 96//96 104//104 
f 106//106 97//97 169//169 
f 174//174 104//104 111//111 
f 101//101 168//168 166//166 
f 101//101 102//102 104//104 
f 166//166 102//102 101//101 
f 102//102 167//167 103//103 
f 104//104 96//96 101//101 
f 105//105 89//89 100//100 
f 102//102 103//103 104//104 
f 85//85 89//89 105//105 
f 111//111 104//104 103//103 
f 170//170 103//103 163//163 
f 109//109 99//99 98//98 
f 109//109 98//98 107//107 
f 170//170 108//108 103//103 
f 99//99 109//109 110//110 
f 108//108 177//177 103//103 
f 174//174 111//111 124//124 
f 112//112 106//106 169//169 
f 112//112 169//169 176//176 
f 175//175 171//171 172//172 
f 120//120 110//110 109//109 
f 120//120 109//109 114//114 
f 112//112 176//176 185//185 
f 108//108 113//113 177//177 
f 116//116 112//112 185//185 
f 113//113 124//124 177//177 
f 178//178 118//118 172//172 
f 118//118 180//180 175//175 
f 118//118 175//175 172//172 
f 114//114 109//109 107//107 
f 115//115 114//114 107//107 
f 181//181 174//174 124//124 
f 125//125 114//114 115//115 
f 121//121 116//116 185//185 
f 123//123 116//116 121//121 
f 179//179 116//116 117//117 
f 182//182 118//118 178//178 
f 118//118 126//126 180//180 
f 116//116 119//119 117//117 
f 116//116 123//123 119//119 
f 182//182 183//183 118//118 
f 126//126 118//118 183//183 
f 186//186 120//120 122//122 
f 122//122 120//120 114//114 
f 125//125 188//188 114//114 
f 190//190 187//187 189//189 
f 127//127 189//189 192//192 
f 189//189 127//127 190//190 
f 124//124 128//128 193//193 
f 124//124 193//193 181//181 
f 113//113 128//128 124//124 
f 113//113 194//194 128//128 
f 191//191 196//196 184//184 
f 184//184 196//196 195//195 
f 194//194 197//197 128//128 
f 198//198 193//193 128//128 
