#
# The license for this database is specified in the Creative Commons Attribution-Share Alike 2.1 Japan. If you use data from this database, please be sure attribute this database as follows: "BodyParts3D, (c)  The Database Center for Life Science licensed under CC Attribution-Share Alike 2.1 Japan".
# http://dbarchive.biosciencedbc.jp/en/bodyparts3d/lic.html
#
#
# Compatibility version : 4.0
# File ID : FJ2673
# Representation ID : BP9354
# Build-up logic : FMA 3.0 part_of
# Concept ID : FMA3815
# English name : First anterior ventricular branch of right coronary artery
# Bounds(mm): (11.319500,-176.509000,1222.500000)-(33.614500,-172.346000,1232.470000)
# Volume(cm3): 0.025000
#
v 11.7933 -173.35 1231.58
v 11.4473 -173.159 1231.8
v 11.7862 -173.43 1231.96
v 11.5754 -173.198 1232.17
v 11.435 -172.979 1231.59
v 11.4322 -172.769 1231.58
v 11.7517 -173.03 1231.39
v 11.6892 -172.479 1231.6
v 11.9388 -172.81 1231.35
v 12.1673 -172.581 1231.59
v 11.3374 -172.953 1231.79
v 11.3964 -172.96 1232.16
v 11.3244 -172.765 1231.78
v 11.3195 -172.765 1231.97
v 11.4165 -172.574 1231.79
v 11.4869 -172.583 1232.17
v 11.7613 -173.01 1232.41
v 11.6825 -172.369 1231.97
v 11.8762 -172.406 1232.17
v 11.9686 -172.644 1232.37
v 11.8813 -172.365 1231.79
v 11.8794 -172.346 1231.98
v 12.1609 -173.022 1232.47
v 12.1176 -172.439 1231.97
v 12.2033 -172.552 1232.17
v 13.9094 -174.706 1231.6
v 14.0654 -174.574 1232.16
v 13.0492 -173.728 1231.26
v 13.2369 -173.531 1231.32
v 13.2776 -173.309 1231.57
v 13.6235 -174.305 1231.27
v 13.8473 -173.755 1231.39
v 14.0467 -174.126 1231.2
v 14.3647 -173.982 1231.37
v 13.2009 -173.566 1232.37
v 13.1745 -174.176 1232.17
v 13.2408 -173.924 1232.37
v 13.8295 -173.575 1231.77
v 14.0744 -174.339 1232.28
v 14.0469 -173.932 1232.19
v 14.4819 -174.754 1231.16
v 15.0554 -174.768 1230.98
v 15.254 -175.132 1231.16
v 15.5906 -175.25 1231.53
v 16.0347 -174.972 1230.72
v 14.6963 -174.946 1231.94
v 14.8662 -174.752 1232.11
v 15.479 -174.967 1231.93
v 15.7021 -174.75 1231.92
v 14.498 -174.189 1231.21
v 14.6452 -174.544 1231.06
v 15.0816 -174.19 1231.38
v 15.2441 -174.505 1231
v 15.7007 -174.316 1231.36
v 15.997 -174.46 1230.95
v 14.8415 -174.545 1232.15
v 15.4731 -174.341 1231.74
v 16.0603 -174.752 1230.7
v 16.644 -175.153 1231.54
v 17.0439 -174.736 1231.43
v 16.7342 -174.44 1231
v 17.6994 -174.786 1230.21
v 18.3731 -175.182 1230.07
v 18.0637 -175.402 1230.42
v 18.0751 -175.169 1231.06
v 18.0122 -174.954 1231.14
v 18.6467 -175.464 1230.64
v 18.9501 -175.169 1230.9
v 19.1549 -174.8 1230.83
v 18.5665 -174.567 1230.77
v 19.1475 -174.61 1230.23
v 20.6333 -175.159 1230.71
v 20.9657 -175.769 1229.96
v 21.1422 -175.329 1229.64
v 21.9889 -175.97 1229.69
v 21.9707 -175.765 1229.34
v 22.2332 -175.229 1229.25
v 22.274 -176 1229.77
v 21.0785 -175.565 1230.62
v 21.1793 -175.835 1230.18
v 21.197 -174.879 1230.15
v 21.2795 -174.962 1230.39
v 21.6856 -175.201 1230.42
v 22.0785 -175.765 1230.22
v 23.0893 -176.205 1228.97
v 23.7001 -175.944 1227.71
v 22.6645 -175.577 1229.91
v 22.5282 -175.162 1229.69
v 22.9287 -175.969 1229.53
v 23.6785 -175.965 1228.94
v 24.0364 -175.765 1228.58
v 25.6998 -176.353 1226.59
v 24.2785 -176.41 1227.98
v 24.2348 -176.336 1227.5
v 25.0785 -176.501 1227.38
v 25.2786 -176.504 1226.99
v 25.3432 -176.149 1226.65
v 25.2382 -175.76 1226.85
v 24.2308 -175.546 1228.05
v 24.6785 -175.965 1228.03
v 24.6116 -175.588 1227.49
v 24.8785 -175.765 1227.76
v 25.3501 -176.173 1227.57
v 25.4694 -175.654 1226.99
v 26.1412 -176.509 1226.78
v 26.8078 -176.441 1226.78
v 27.1287 -176.409 1226.38
v 26.2369 -176.418 1227
v 25.7389 -175.677 1226.77
v 26.489 -175.968 1226.26
v 26.7622 -175.698 1226.39
v 26.7339 -175.632 1226.6
v 26.6686 -175.765 1226.9
v 27.151 -176.159 1226.16
v 25.6502 -175.956 1227.41
v 25.8657 -175.774 1227.17
v 25.609 -175.721 1227.22
v 25.9025 -175.673 1226.97
v 26.1022 -175.977 1227.21
v 26.8168 -175.952 1227.01
v 26.9534 -176.163 1226.97
v 28.2877 -175.652 1226.19
v 28.4272 -175.612 1226.58
v 28.4132 -175.556 1226.37
v 28.775 -176.326 1226.37
v 28.7848 -176.171 1226.65
v 29.0053 -176.152 1226.03
v 29.0352 -175.954 1226.67
v 29.0785 -175.765 1225.91
v 29.0561 -175.523 1226.17
v 29.5045 -175.566 1225.88
v 29.4867 -175.453 1226.16
v 29.8728 -175.765 1225.59
v 30.1485 -175.363 1225.72
v 30.0378 -176.097 1225.78
v 30.1439 -175.559 1225.49
v 30.2634 -176.081 1225.96
v 30.3931 -175.77 1226.17
v 30.2349 -175.566 1226.18
v 30.616 -175.765 1225.18
v 31.1013 -175.555 1224.74
v 31.2485 -175.763 1224.77
v 31.4373 -175.185 1224.6
v 31.5256 -175.125 1224.92
v 31.7934 -175.799 1224.63
v 30.5376 -176.019 1225.52
v 30.939 -175.766 1225.78
v 30.8663 -175.573 1225.86
v 30.8105 -175.271 1225.61
v 31.2992 -175.568 1225.53
v 31.166 -175.373 1225.56
v 31.3207 -175.835 1225.33
v 32.4785 -175.617 1223.58
v 32.7864 -174.899 1223.46
v 33.0506 -175.175 1222.65
v 33.0537 -174.974 1222.67
v 33.2785 -175.429 1222.78
v 33.2904 -175.167 1222.52
v 33.2785 -174.965 1222.5
v 33.2513 -174.772 1222.81
v 33.4487 -175.35 1222.81
v 33.4971 -175.165 1222.59
v 33.6025 -175.158 1222.77
v 33.5106 -175.173 1223.04
v 33.4785 -174.965 1222.55
v 33.6145 -174.965 1222.78
v 33.4785 -174.856 1222.98
v 32.0428 -175.568 1224.8
v 32.1928 -175.164 1223.73
v 32.272 -175.356 1224.57
v 32.6512 -175.556 1224
v 11.6892 -172.479 1231.6
v 11.3964 -172.96 1232.16
v 11.3195 -172.765 1231.97
v 14.0654 -174.574 1232.16
v 15.5906 -175.25 1231.53
v 16.0347 -174.972 1230.72
v 14.6963 -174.946 1231.94
v 15.479 -174.967 1231.93
v 15.4731 -174.341 1231.74
v 17.0439 -174.736 1231.43
v 16.7342 -174.44 1231
v 18.3731 -175.182 1230.07
v 18.0637 -175.402 1230.42
v 19.1549 -174.8 1230.83
v 18.5665 -174.567 1230.77
v 18.5665 -174.567 1230.77
v 20.9657 -175.769 1229.96
v 21.1422 -175.329 1229.64
v 21.9707 -175.765 1229.34
v 22.2332 -175.229 1229.25
v 21.0785 -175.565 1230.62
v 21.197 -174.879 1230.15
v 22.0785 -175.765 1230.22
v 23.7001 -175.944 1227.71
v 24.2785 -176.41 1227.98
v 25.0785 -176.501 1227.38
v 25.3432 -176.149 1226.65
v 24.6785 -175.965 1228.03
v 24.6116 -175.588 1227.49
v 24.8785 -175.765 1227.76
v 26.6686 -175.765 1226.9
v 26.8168 -175.952 1227.01
v 28.4132 -175.556 1226.37
v 29.0352 -175.954 1226.67
v 29.4867 -175.453 1226.16
v 29.8728 -175.765 1225.59
v 30.3931 -175.77 1226.17
v 31.5256 -175.125 1224.92
v 31.5256 -175.125 1224.92
v 30.5376 -176.019 1225.52
v 30.8105 -175.271 1225.61
v 32.4785 -175.617 1223.58
v 32.4785 -175.617 1223.58
v 32.7864 -174.899 1223.46
v 33.0506 -175.175 1222.65
v 33.0537 -174.974 1222.67
v 33.2785 -175.429 1222.78
v 33.2785 -175.429 1222.78
v 33.2904 -175.167 1222.52
v 33.2904 -175.167 1222.52
v 33.2904 -175.167 1222.52
v 33.2785 -174.965 1222.5
v 33.2785 -174.965 1222.5
v 33.2785 -174.965 1222.5
v 33.2513 -174.772 1222.81
v 33.2513 -174.772 1222.81
v 33.4487 -175.35 1222.81
v 33.4487 -175.35 1222.81
v 33.4971 -175.165 1222.59
v 33.4971 -175.165 1222.59
v 33.4971 -175.165 1222.59
v 33.6025 -175.158 1222.77
v 33.6025 -175.158 1222.77
v 33.6025 -175.158 1222.77
v 33.4785 -174.965 1222.55
v 33.4785 -174.965 1222.55
v 33.6145 -174.965 1222.78
v 33.6145 -174.965 1222.78
v 33.4785 -174.856 1222.98
v 33.4785 -174.856 1222.98
v 33.4785 -174.856 1222.98
v 32.1928 -175.164 1223.73
vn -0.537381 -0.688648 -0.486812
vn -0.76201 -0.641243 -0.0902664
vn -0.559171 -0.826045 0.0705538
vn -0.59978 -0.650291 0.466246
vn -0.725035 -0.338355 -0.599867
vn -0.684409 0.21541 -0.69655
vn -0.384853 -0.198068 -0.901475
vn -0.459583 0.71649 -0.52481
vn -0.0690788 0.33761 -0.938748
vn 0.365264 0.752923 -0.547439
vn -0.956274 -0.232247 -0.177768
vn -0.885976 -0.433066 0.165832
vn -0.94753 0.186839 -0.259378
vn -0.980085 0.185584 0.0706473
vn -0.754939 0.631506 -0.176823
vn -0.603907 0.514165 0.609041
vn -0.374046 -0.190844 0.907562
vn -0.357886 0.932253 0.0531305
vn 0.0576216 0.856266 0.513311
vn 0.100628 0.487605 0.867246
vn 0.125245 0.950671 -0.283792
vn 0.125942 0.986467 0.104985
vn 0.0197507 0.0705514 0.997313
vn 0.455734 0.889089 0.0427464
vn 0.458914 0.75498 0.468406
vn -0.438699 -0.893461 -0.0962818
vn -0.393251 -0.865348 0.310685
vn -0.0658002 0.0134888 -0.997742
vn 0.249816 0.500695 -0.828792
vn 0.442821 0.732616 -0.516898
vn -0.322492 -0.393526 -0.860893
vn 0.346233 0.705144 -0.618784
vn 0.0643338 0.358253 -0.931405
vn 0.206634 0.734404 -0.646493
vn 0.241012 0.231774 0.942441
vn -0.396141 -0.73284 0.553188
vn -0.11175 -0.320894 0.940499
vn 0.481186 0.870203 -0.10586
vn 0.102975 -0.104855 0.989142
vn 0.388077 0.519529 0.761239
vn -0.353256 -0.544385 -0.760825
vn -0.266821 -0.165279 -0.949468
vn -0.298472 -0.804791 -0.513055
vn -0.211989 -0.975692 -0.0555563
vn -0.271154 -0.651863 -0.708202
vn -0.357526 -0.917051 0.176617
vn 0.0761458 -0.378667 0.922395
vn 0.0197191 -0.760844 0.648635
vn 0.309071 0.120596 0.943362
vn 0.0362307 0.524597 -0.85058
vn -0.153219 0.0852821 -0.984505
vn 0.214001 0.92135 -0.324527
vn -0.0520358 0.538914 -0.840752
vn 0.144518 0.988327 -0.04821
vn -0.0463919 0.846834 -0.52983
vn 0.228613 0.0707489 0.970943
vn 0.27895 0.945358 0.168777
vn -0.234805 0.302683 -0.923715
vn 0.226639 -0.524582 0.820639
vn 0.322395 0.377245 0.868187
vn 0.2011 0.911418 0.358993
vn -0.196613 0.337816 -0.920448
vn -0.201597 -0.668882 -0.71551
vn -0.127042 -0.988788 -0.0784702
vn 0.221106 -0.480521 0.848653
vn 0.279027 0.0737163 0.95745
vn 0.0280763 -0.870092 0.492089
vn 0.133533 -0.289393 0.947851
vn 0.182689 0.612426 0.769129
vn 0.230014 0.535503 0.812607
vn 0.0210849 0.912669 -0.408156
vn 0.196965 0.250367 0.947903
vn -0.2877 -0.57181 -0.768285
vn -0.110829 0.555731 -0.823942
vn -0.273722 -0.948439 -0.159809
vn -0.516799 -0.0540471 -0.854399
vn -0.284234 0.734009 -0.616799
vn 0.0463371 -0.940916 0.335454
vn -0.00319189 -0.790724 0.612164
vn -0.0829633 -0.972971 0.215512
vn -0.108189 0.751315 -0.651016
vn 0.264313 0.772424 0.577494
vn 0.411437 0.323357 0.85215
vn 0.10871 -0.85002 0.515411
vn -0.0637644 -0.986967 0.147751
vn -0.58325 -0.423018 -0.693452
vn 0.621163 0.0708397 0.780473
vn 0.415711 0.854355 0.311869
vn 0.389625 -0.688949 0.61118
vn 0.65213 -0.204499 0.730005
vn 0.656147 0.415796 0.62975
vn -0.260644 -0.621694 -0.738621
vn -0.236985 -0.963269 -0.1263
vn -0.421631 -0.793613 -0.438641
vn -0.0641121 -0.997709 0.0215985
vn -0.199762 -0.923605 -0.327185
vn -0.426448 -0.383577 -0.819153
vn -0.304246 0.697223 -0.649087
vn 0.475884 0.807392 0.348786
vn 0.511341 -0.394703 0.763374
vn -0.105114 0.937295 -0.33231
vn 0.626421 0.278781 0.727927
vn 0.43483 -0.358035 0.826277
vn -0.0213334 0.996401 -0.0820364
vn 0.0282885 -0.999147 -0.0300894
vn 0.153929 -0.838774 0.522269
vn -0.0413152 -0.849717 -0.525618
vn 0.259221 -0.67673 0.689087
vn -0.109315 0.955357 -0.274489
vn -0.253468 0.183162 -0.949845
vn -0.147978 0.808169 -0.570057
vn -0.0158645 0.996097 0.0868273
vn 0.0980981 0.895763 0.433574
vn -0.130997 -0.387004 -0.912725
vn 0.422283 0.371808 0.826702
vn 0.271252 0.691171 0.669855
vn 0.287431 0.810556 0.510277
vn 0.105753 0.956771 0.270934
vn 0.331814 0.174716 0.927024
vn 0.142087 0.55341 0.8207
vn 0.199847 -0.339657 0.919073
vn -0.123008 0.841679 -0.52578
vn 0.0691392 0.787931 0.611869
vn -0.120876 0.927695 -0.353228
vn 0.104424 -0.994526 0.0036648
vn 0.232388 -0.650584 0.723005
vn -0.120248 -0.620694 -0.774777
vn 0.273071 -0.373342 0.886594
vn -0.226347 0.391703 -0.891816
vn -0.196312 0.846789 -0.494378
vn -0.360031 0.6919 -0.625821
vn -0.206452 0.938086 -0.27816
vn -0.314206 -0.464657 -0.82787
vn -0.314947 0.909617 -0.270933
vn -0.102151 -0.859744 -0.500406
vn -0.550497 0.325828 -0.768628
vn 0.320673 -0.870894 0.372441
vn 0.403118 -0.611512 0.680844
vn 0.272219 0.57836 0.769023
vn -0.451452 -0.454464 -0.767889
vn -0.637409 -0.122202 -0.760774
vn -0.367219 -0.733136 -0.572418
vn -0.523677 0.716775 -0.46043
vn -0.216247 0.975284 -0.0453667
vn 0.152227 -0.986556 -0.0594513
vn -0.256661 -0.783258 -0.566243
vn 0.576535 -0.408023 0.707902
vn 0.533072 0.18821 0.824871
vn -0.131994 0.990588 0.0362361
vn 0.665805 -0.0518729 0.74432
vn 0.455642 0.586262 0.669842
vn 0.537578 -0.709085 0.456299
vn -0.664237 -0.319474 -0.675815
vn -0.433529 0.869219 -0.237723
vn -0.668233 -0.0574838 -0.741728
vn -0.699998 0.0970013 -0.707526
vn -0.381946 -0.66921 -0.637397
vn -0.334235 -0.649702 -0.68277
vn -0.538989 -0.0151511 -0.842177
vn -0.487225 0.807276 -0.333044
vn 0.315579 -0.709004 -0.630653
vn 0.214547 -0.763228 -0.609469
vn 0.686439 -0.619987 -0.380023
vn 0.858229 -0.211253 0.467776
vn 0.279501 -0.141544 -0.949655
vn 0.860183 -0.0366828 -0.508665
vn 0.476969 0.666281 0.57321
vn 0.705331 -0.343103 0.620313
vn -0.578999 0.715997 -0.390012
vn 0.705946 0.229542 0.670038
vn 0.571112 -0.754706 0.322878
vn 0.137591 0.713601 -0.686908
vn -0.68046 -0.0387725 0.731758
vn -0.826074 0.179575 0.534186
vn -0.125501 -0.517583 0.846379
vn 0.0455333 -0.833776 0.550223
vn -0.27612 -0.0704829 -0.958535
vn -0.0316378 -0.696702 0.716663
vn 0.243835 -0.221068 0.944285
vn 0.359562 0.627289 0.690813
vn 0.211385 0.867622 0.450054
vn 0.0180442 0.979895 -0.198697
vn -0.215094 -0.0368955 -0.975896
vn -0.229301 -0.710902 -0.66486
vn 0.181837 0.0734062 0.980585
vn 0.122126 0.854158 0.50547
vn 0.12626 0.986201 0.107078
vn -0.221212 -0.945387 -0.239393
vn -0.34052 -0.317332 -0.885069
vn -0.485309 -0.716548 -0.501033
vn -0.290116 0.722671 -0.627359
vn 0.247672 -0.0362732 0.968165
vn 0.180618 0.980247 0.080575
vn 0.459604 -0.149203 0.875501
vn -0.542274 0.365727 -0.756428
vn 0.415336 -0.661444 0.62449
vn 0.335956 -0.658152 0.673773
vn -0.420572 0.32978 -0.845201
vn 0.52982 0.46804 0.707269
vn 0.299323 0.92366 0.239284
vn 0.365485 0.860146 0.355766
vn 0.191103 0.555722 0.809106
vn 0.210366 -0.0332209 0.977058
vn -0.0238255 0.963163 0.267862
vn 0.21124 0.395912 0.893662
vn 0.0608341 0.880338 0.470429
vn -0.439014 0.34361 -0.83018
vn 0.45243 0.117681 0.884001
vn 0.418516 0.734031 0.53483
vn 0.110371 0.96319 0.245118
vn 0.128858 -0.990014 -0.0571576
vn 0.235886 0.791653 0.563599
vn 0.14324 -0.987409 -0.0671315
vn -0.427856 -0.685562 -0.589019
vn 0.1241 0.956409 0.264352
vn -0.381946 -0.66921 -0.637397
vn -0.49295 0.765013 -0.414434
vn 0.331384 -0.940721 0.0723119
vn 0.412321 -0.64514 -0.643262
vn -0.454109 -0.134876 -0.880678
vn 0.315579 -0.709004 -0.630653
vn 0.279501 -0.141544 -0.949655
vn -0.419924 0.754402 -0.504521
vn 0.241437 -0.104185 -0.964808
vn 0.128738 0.847801 -0.514451
vn 0.137753 0.949049 0.283427
vn 0.345795 0.881495 -0.321548
vn 0.633188 -0.73843 0.231935
vn 0.686439 -0.619987 -0.380023
vn 0.316705 -0.178469 -0.931583
vn 0.686439 -0.619987 -0.380023
vn 0.86187 -0.0325971 -0.50608
vn 0.781158 -0.578936 0.233721
vn 0.861029 -0.03464 -0.507374
vn 0.945011 -0.0698053 0.319502
vn 0.288036 0.872802 -0.39402
vn 0.861029 -0.03464 -0.507374
vn 0.91186 0.0562861 0.406624
vn 0.443393 0.870224 -0.214739
vn 0.1241 0.956409 0.264352
vn 0.805838 0.19087 0.56053
vn 0.45025 0.876292 -0.171428
vn -0.735557 -0.11982 -0.666783
g grp1
usemtl mtl1
f 5//5 2//2 11//11 
f 3//3 2//2 1//1 
f 1//1 2//2 5//5 
f 1//1 5//5 7//7 
f 31//31 7//7 28//28 
f 31//31 1//1 7//7 
f 2//2 4//4 12//12 
f 2//2 12//12 11//11 
f 3//3 4//4 2//2 
f 4//4 17//17 173//173 
f 36//36 4//4 3//3 
f 36//36 17//17 4//4 
f 23//23 17//17 37//37 
f 35//35 23//23 37//37 
f 40//40 20//20 35//35 
f 35//35 20//20 23//23 
f 5//5 11//11 6//6 
f 11//11 13//13 6//6 
f 15//15 8//8 6//6 
f 15//15 6//6 13//13 
f 9//9 28//28 7//7 
f 7//7 6//6 9//9 
f 5//5 6//6 7//7 
f 9//9 6//6 8//8 
f 29//29 28//28 9//9 
f 10//10 29//29 9//9 
f 10//10 9//9 172//172 
f 21//21 10//10 172//172 
f 30//30 29//29 10//10 
f 30//30 10//10 38//38 
f 11//11 14//14 13//13 
f 11//11 12//12 14//14 
f 13//13 14//14 15//15 
f 173//173 16//16 174//174 
f 173//173 17//17 16//16 
f 15//15 14//14 16//16 
f 18//18 8//8 15//15 
f 15//15 16//16 18//18 
f 16//16 17//17 20//20 
f 8//8 18//18 21//21 
f 16//16 19//19 18//18 
f 16//16 20//20 19//19 
f 21//21 18//18 22//22 
f 19//19 22//22 18//18 
f 20//20 17//17 23//23 
f 21//21 24//24 10//10 
f 19//19 25//25 24//24 
f 25//25 19//19 20//20 
f 22//22 24//24 21//21 
f 24//24 22//22 19//19 
f 20//20 40//40 25//25 
f 10//10 24//24 38//38 
f 40//40 38//38 25//25 
f 25//25 38//38 24//24 
f 26//26 31//31 41//41 
f 46//46 27//27 26//26 
f 175//175 178//178 47//47 
f 1//1 26//26 3//3 
f 26//26 1//1 31//31 
f 33//33 28//28 29//29 
f 32//32 33//33 29//29 
f 32//32 29//29 30//30 
f 32//32 30//30 38//38 
f 31//31 28//28 33//33 
f 32//32 34//34 33//33 
f 34//34 32//32 38//38 
f 51//51 41//41 31//31 
f 51//51 31//31 33//33 
f 50//50 51//51 33//33 
f 34//34 50//50 33//33 
f 26//26 36//36 3//3 
f 17//17 36//36 37//37 
f 175//175 37//37 36//36 
f 26//26 27//27 36//36 
f 39//39 37//37 175//175 
f 35//35 37//37 39//39 
f 40//40 35//35 39//39 
f 56//56 40//40 39//39 
f 47//47 39//39 175//175 
f 42//42 41//41 51//51 
f 53//53 42//42 51//51 
f 26//26 41//41 43//43 
f 43//43 41//41 42//42 
f 43//43 44//44 26//26 
f 64//64 44//44 43//43 
f 45//45 43//43 42//42 
f 42//42 53//53 58//58 
f 67//67 59//59 176//176 
f 184//184 43//43 45//45 
f 58//58 177//177 42//42 
f 46//46 26//26 44//44 
f 176//176 48//48 178//178 
f 47//47 178//178 48//48 
f 49//49 56//56 47//47 
f 48//48 176//176 59//59 
f 179//179 49//49 47//47 
f 53//53 51//51 50//50 
f 34//34 53//53 50//50 
f 34//34 52//52 53//53 
f 52//52 34//34 38//38 
f 55//55 53//53 52//52 
f 55//55 52//52 54//54 
f 52//52 38//38 57//57 
f 54//54 52//52 57//57 
f 58//58 53//53 55//55 
f 61//61 54//54 57//57 
f 56//56 39//39 47//47 
f 180//180 40//40 49//49 
f 49//49 40//40 56//56 
f 40//40 180//180 38//38 
f 60//60 180//180 49//49 
f 63//63 184//184 45//45 
f 179//179 59//59 49//49 
f 64//64 67//67 44//44 
f 59//59 66//66 49//49 
f 66//66 60//60 49//49 
f 62//62 183//183 177//177 
f 62//62 177//177 58//58 
f 58//58 55//55 62//62 
f 67//67 65//65 59//59 
f 65//65 66//66 59//59 
f 66//66 70//70 60//60 
f 55//55 54//54 182//182 
f 61//61 57//57 181//181 
f 186//186 61//61 181//181 
f 71//71 182//182 187//187 
f 74//74 183//183 62//62 
f 73//73 63//63 189//189 
f 73//73 184//184 63//63 
f 70//70 66//66 69//69 
f 68//68 65//65 67//67 
f 66//66 65//65 68//68 
f 68//68 185//185 66//66 
f 79//79 68//68 67//67 
f 74//74 62//62 71//71 
f 71//71 62//62 55//55 
f 71//71 55//55 182//182 
f 81//81 74//74 71//71 
f 188//188 80//80 64//64 
f 67//67 64//64 80//80 
f 80//80 79//79 67//67 
f 192//192 72//72 68//68 
f 68//68 72//72 185//185 
f 82//82 70//70 69//69 
f 72//72 82//82 69//69 
f 193//193 71//71 187//187 
f 83//83 82//82 72//72 
f 189//189 76//76 73//73 
f 77//77 74//74 81//81 
f 191//191 193//193 88//88 
f 188//188 190//190 75//75 
f 75//75 80//80 188//188 
f 189//189 191//191 76//76 
f 78//78 80//80 75//75 
f 94//94 75//75 190//190 
f 84//84 78//78 89//89 
f 85//85 78//78 75//75 
f 83//83 72//72 192//192 
f 79//79 80//80 84//84 
f 193//193 187//187 82//82 
f 194//194 83//83 192//192 
f 78//78 84//84 80//80 
f 88//88 193//193 82//82 
f 83//83 88//88 82//82 
f 85//85 94//94 93//93 
f 196//196 89//89 85//85 
f 94//94 190//190 86//86 
f 191//191 195//195 76//76 
f 90//90 89//89 196//196 
f 89//89 78//78 85//85 
f 89//89 87//87 194//194 
f 194//194 87//87 83//83 
f 87//87 88//88 83//83 
f 75//75 94//94 85//85 
f 101//101 191//191 88//88 
f 200//200 88//88 99//99 
f 90//90 87//87 89//89 
f 91//91 87//87 90//90 
f 91//91 99//99 88//88 
f 91//91 88//88 87//87 
f 94//94 92//92 96//96 
f 92//92 94//94 97//97 
f 110//110 92//92 97//97 
f 94//94 86//86 97//97 
f 94//94 95//95 93//93 
f 94//94 96//96 95//95 
f 105//105 95//95 96//96 
f 197//197 103//103 196//196 
f 95//95 105//105 108//108 
f 197//197 108//108 103//103 
f 110//110 198//198 98//98 
f 109//109 98//98 104//104 
f 195//195 98//98 198//198 
f 195//195 191//191 98//98 
f 98//98 191//191 101//101 
f 90//90 102//102 91//91 
f 201//201 99//99 91//91 
f 196//196 100//100 90//90 
f 199//199 102//102 90//90 
f 201//201 200//200 99//99 
f 98//98 101//101 104//104 
f 199//199 117//117 102//102 
f 104//104 200//200 117//117 
f 117//117 200//200 201//201 
f 103//103 100//100 196//196 
f 115//115 100//100 103//103 
f 115//115 117//117 199//199 
f 92//92 105//105 96//96 
f 92//92 110//110 114//114 
f 105//105 92//92 107//107 
f 107//107 125//125 105//105 
f 125//125 106//106 105//105 
f 121//121 108//108 106//106 
f 106//106 108//108 105//105 
f 107//107 92//92 114//114 
f 108//108 119//119 103//103 
f 108//108 121//121 119//119 
f 98//98 111//111 110//110 
f 111//111 98//98 109//109 
f 112//112 109//109 118//118 
f 109//109 104//104 118//118 
f 111//111 109//109 112//112 
f 112//112 118//118 113//113 
f 129//129 114//114 110//110 
f 129//129 110//110 111//111 
f 124//124 111//111 112//112 
f 204//204 112//112 123//123 
f 116//116 118//118 117//117 
f 117//117 118//118 104//104 
f 116//116 117//117 115//115 
f 119//119 115//115 103//103 
f 116//116 119//119 202//202 
f 119//119 116//116 115//115 
f 113//113 118//118 116//116 
f 120//120 202//202 119//119 
f 121//121 203//203 119//119 
f 114//114 127//127 107//107 
f 121//121 106//106 126//126 
f 123//123 112//112 113//113 
f 122//122 111//111 124//124 
f 122//122 129//129 111//111 
f 123//123 202//202 120//120 
f 130//130 122//122 124//124 
f 203//203 121//121 128//128 
f 132//132 130//130 124//124 
f 206//206 204//204 123//123 
f 127//127 114//114 129//129 
f 121//121 126//126 128//128 
f 107//107 127//127 125//125 
f 125//125 126//126 106//106 
f 137//137 126//126 125//125 
f 125//125 127//127 135//135 
f 125//125 135//135 137//137 
f 130//130 129//129 122//122 
f 137//137 128//128 126//126 
f 133//133 127//127 129//129 
f 123//123 120//120 205//205 
f 129//129 131//131 207//207 
f 129//129 130//130 131//131 
f 131//131 130//130 132//132 
f 131//131 132//132 134//134 
f 139//139 206//206 123//123 
f 205//205 139//139 123//123 
f 127//127 133//133 135//135 
f 134//134 132//132 149//149 
f 139//139 212//212 206//206 
f 137//137 138//138 128//128 
f 136//136 140//140 207//207 
f 207//207 131//131 136//136 
f 208//208 139//139 205//205 
f 136//136 131//131 134//134 
f 133//133 140//140 135//135 
f 134//134 149//149 144//144 
f 135//135 140//140 146//146 
f 211//211 137//137 135//135 
f 136//136 134//134 143//143 
f 143//143 134//134 144//144 
f 140//140 136//136 141//141 
f 136//136 143//143 141//141 
f 140//140 142//142 146//146 
f 146//146 142//142 145//145 
f 211//211 145//145 137//137 
f 142//142 140//140 141//141 
f 141//141 143//143 169//169 
f 145//145 152//152 137//137 
f 153//153 142//142 141//141 
f 152//152 168//168 150//150 
f 243//243 153//153 141//141 
f 145//145 142//142 213//213 
f 209//209 170//170 167//167 
f 154//154 143//143 144//144 
f 210//210 240//240 215//215 
f 145//145 171//171 152//152 
f 171//171 168//168 152//152 
f 155//155 153//153 243//243 
f 138//138 137//137 147//147 
f 208//208 148//148 139//139 
f 147//147 148//148 208//208 
f 148//148 151//151 139//139 
f 139//139 151//151 212//212 
f 152//152 147//147 137//137 
f 147//147 150//150 148//148 
f 150//150 151//151 148//148 
f 152//152 150//150 147//147 
f 151//151 150//150 170//170 
f 151//151 170//170 209//209 
f 151//151 209//209 212//212 
f 168//168 170//170 150//150 
f 214//214 216//216 157//157 
f 171//171 213//213 218//218 
f 243//243 156//156 155//155 
f 217//217 169//169 160//160 
f 169//169 154//154 160//160 
f 158//158 157//157 216//216 
f 159//159 220//220 155//155 
f 155//155 156//156 159//159 
f 223//223 217//217 160//160 
f 226//226 215//215 240//240 
f 219//219 221//221 161//161 
f 228//228 171//171 218//218 
f 161//161 221//221 162//162 
f 164//164 171//171 228//228 
f 230//230 222//222 165//165 
f 165//165 222//222 224//224 
f 227//227 236//236 225//225 
f 229//229 231//231 163//163 
f 228//228 233//233 164//164 
f 232//232 237//237 234//234 
f 234//234 237//237 166//166 
f 235//235 238//238 164//164 
f 164//164 238//238 241//241 
f 239//239 236//236 227//227 
f 242//242 239//239 227//227 
f 170//170 164//164 241//241 
f 169//169 143//143 154//154 
f 213//213 171//171 145//145 
f 170//170 168//168 171//171 
f 170//170 171//171 164//164 
