#
# The license for this database is specified in the Creative Commons Attribution-Share Alike 2.1 Japan. If you use data from this database, please be sure attribute this database as follows: "BodyParts3D, (c)  The Database Center for Life Science licensed under CC Attribution-Share Alike 2.1 Japan".
# http://dbarchive.biosciencedbc.jp/en/bodyparts3d/lic.html
#
#
# Compatibility version : 4.0
# File ID : FJ3081
# Representation ID : BP9378
# Build-up logic : FMA 3.0 part_of
# Concept ID : FMA14772
# English name : Hepatic artery proper
# Bounds(mm): (-22.417400,-151.458000,1081.530000)-(-11.440700,-138.815000,1111.740000)
# Volume(cm3): 0.449400
#
v -22.0598 -148.6 1110.47
v -22.2009 -148.302 1108.74
v -22.0355 -148.998 1107.72
v -21.4264 -147.154 1108.6
v -20.9092 -146.857 1109.71
v -22.4174 -149.333 1109.25
v -22.0076 -149.856 1110.43
v -22.1748 -150.175 1109.51
v -21.6847 -150.66 1110.11
v -20.0682 -146.62 1109.55
v -21.4653 -147.519 1110.44
v -20.8803 -147.208 1110.62
v -20.3172 -147.82 1111.38
v -19.9526 -147.017 1110.64
v -21.1658 -148.256 1111.28
v -20.8949 -149.299 1111.57
v -21.4746 -149.401 1111.21
v -21.1539 -150.13 1111.18
v -20.5678 -149.829 1111.56
v -21.1871 -150.656 1110.73
v -19.4711 -147.535 1111.12
v -20.3485 -148.442 1111.65
v -19.972 -149.15 1111.74
v -19.5129 -148.447 1111.6
v -21.8699 -149.912 1107.86
v -21.6513 -150.875 1109.57
v -21.6604 -150.771 1108.75
v -21.0413 -151.213 1108.74
v -20.5315 -151.445 1108.91
v -20.2953 -150.592 1111.19
v -20.8362 -151.294 1109.89
v -20.2715 -151.178 1110.52
v -19.6926 -150.794 1111.02
v -19.388 -150.966 1110.71
v -20.0881 -151.458 1109.83
v -18.8112 -147.189 1110.25
v -18.288 -148.483 1110.91
v -18.1169 -147.622 1109.99
v -19.0289 -149.603 1111.46
v -18.4201 -150.125 1110.84
v -19.6446 -149.926 1111.56
v -19.0454 -150.543 1111
v -19.9985 -150.997 1106.77
v -19.7435 -151.437 1108.58
v -19.067 -151.295 1109.32
v -17.9862 -149.294 1110.68
v -17.5404 -148.829 1109.7
v -17.7601 -149.816 1109.83
v -18.2387 -150.667 1109.67
v -19.2109 -146.118 1102.51
v -18.4402 -145.562 1103.72
v -17.7522 -145.772 1105.04
v -20.0558 -150.296 1105.21
v -17.5159 -146.496 1106.76
v -17.1789 -147.199 1107.44
v -18.3742 -150.246 1103.57
v -17.7851 -150.574 1105.2
v -17.6722 -144.43 1097.6
v -18.2302 -145.791 1097.84
v -18.8934 -146.356 1100.34
v -18.96 -147.507 1100.31
v -18.6479 -148.066 1100.09
v -17.7407 -144.776 1099.53
v -15.8133 -144.413 1100.13
v -15.335 -145.378 1101.72
v -16.3461 -149.72 1103.67
v -17.9129 -145.072 1095.56
v -18.1098 -146.388 1097.3
v -16.7394 -143.463 1096.87
v -17.4721 -147.566 1097.3
v -17.6283 -148.421 1098.98
v -16.4507 -143.969 1098.91
v -15.0449 -144.372 1099.3
v -16.6437 -149.606 1101.59
v -14.9691 -146.333 1102.31
v -15.325 -148.759 1102.42
v -17.7304 -146.102 1095.5
v -16.9966 -146.583 1094.5
v -16.2653 -147.704 1096.24
v -14.3534 -144.811 1098.85
v -13.914 -145.997 1098.75
v -14.4625 -147.321 1101.02
v -15.4555 -148.795 1099.9
v -17.006 -141.577 1089.94
v -17.3754 -142.361 1089.78
v -16.5625 -141.678 1091.78
v -15.2949 -147.532 1095.91
v -14.1801 -147.219 1097.89
v -16.3712 -140.539 1088.04
v -16.608 -140.731 1086.77
v -15.557 -140.407 1088.96
v -17.386 -143.104 1089.42
v -16.9374 -144.23 1089.43
v -16.2684 -144.648 1089.17
v -14.6124 -141.064 1090.58
v -13.7473 -142.097 1091.39
v -16.2388 -140.545 1085.02
v -15.7372 -139.813 1085.27
v -16.7938 -141.493 1086.27
v -16.3072 -141.569 1084.77
v -16.3936 -142.975 1086.22
v -15.4844 -139.777 1086.76
v -13.5786 -140.55 1087.91
v -13.3717 -141.696 1089.38
v -14.8781 -139.629 1082.86
v -15.6405 -141.185 1083.35
v -15.034 -139.395 1083.91
v -14.1242 -138.991 1083.17
v -15.9245 -140.592 1084.03
v -15.614 -139.947 1084.06
v -15.5136 -142.187 1083.79
v -14.5394 -139.15 1084.75
v -14.2422 -139.329 1085.76
v -14.5536 -143.701 1086.09
v -13.6961 -139.699 1086.42
v -13.0971 -140.96 1087.46
v -12.723 -140.08 1085.77
v -13.5688 -143.499 1087.09
v -13.0234 -142.293 1088.19
v -14.1291 -139.557 1082.14
v -13.9434 -139.888 1081.8
v -15.1202 -140.265 1082.65
v -14.7236 -139.99 1082.25
v -14.762 -140.432 1082.09
v -14.8999 -140.816 1082.2
v -14.4573 -140.121 1081.94
v -14.8176 -141.449 1082.31
v -14.4787 -140.559 1081.83
v -14.5891 -140.936 1081.91
v -14.0828 -140.488 1081.65
v -14.2189 -140.878 1081.67
v -13.3512 -138.815 1083.35
v -13.5535 -138.968 1082.73
v -12.626 -139.018 1082.99
v -13.3169 -139.48 1082.01
v -12.8684 -139.183 1082.42
v -14.4066 -142.199 1082.56
v -14.98 -142.95 1084.36
v -13.1068 -138.952 1084.19
v -12.6627 -138.934 1083.55
v -12.3116 -139.34 1084.28
v -12.0484 -139.312 1083.51
v -11.7692 -140.249 1084.46
v -13.379 -143.022 1084.92
v -12.4894 -140.655 1085.87
v -12.3703 -141.612 1085.63
v -12.5851 -142.351 1085.15
v -13.485 -140.286 1081.57
v -14.1412 -141.497 1081.81
v -13.8295 -140.996 1081.56
v -13.6835 -141.463 1081.64
v -13.361 -141.138 1081.53
v -12.4506 -139.259 1082.59
v -12.6875 -140.238 1081.71
v -12.4131 -139.828 1082.04
v -12.006 -139.753 1082.47
v -11.9991 -140.132 1082.2
v -12.2374 -140.531 1081.88
v -11.8015 -140.586 1082.29
v -13.1867 -141.774 1081.79
v -12.8168 -140.849 1081.59
v -12.9171 -141.435 1081.68
v -12.4902 -142.049 1082.31
v -12.0099 -141.194 1082.14
v -13.8412 -142.116 1082.1
v -13.7511 -142.497 1082.64
v -13.2979 -142.274 1082.22
v -11.7441 -139.711 1083.76
v -12.002 -139.441 1082.97
v -11.6689 -139.811 1083.22
v -11.7682 -139.826 1082.79
v -11.594 -140.111 1082.91
v -11.4407 -140.446 1083.5
v -11.7549 -140.135 1082.52
v -11.5205 -140.559 1082.81
v -11.6 -141.393 1083.93
v -11.4683 -140.975 1083.03
v -11.6098 -141.002 1082.61
v -11.806 -141.707 1082.79
v -12.639 -142.573 1083.39
v -12.0475 -142.193 1083.44
vn -0.876048 0.207811 0.435149
vn -0.925214 0.374361 -0.0619121
vn -0.94578 -0.00896236 -0.324683
vn -0.704946 0.708288 -0.037133
vn -0.439782 0.878881 0.184825
vn -0.996989 -0.077096 -0.00826619
vn -0.8244 -0.301384 0.479095
vn -0.890989 -0.452523 0.0368994
vn -0.682047 -0.640078 0.353712
vn -0.0296629 0.961581 0.272915
vn -0.71349 0.61207 0.341031
vn -0.337248 0.771196 0.539927
vn -0.11504 0.546351 0.829618
vn 0.0398217 0.835491 0.548059
vn -0.513106 0.338472 0.788771
vn -0.368465 -0.0618872 0.927579
vn -0.657598 -0.0820273 0.74889
vn -0.487332 -0.4106 0.770659
vn -0.193738 -0.321793 0.926777
vn -0.477954 -0.66351 0.575599
vn 0.297155 0.59606 0.74593
vn -0.157418 0.229608 0.960468
vn 0.0285841 -0.0498931 0.998345
vn 0.251541 0.261006 0.931989
vn -0.856259 -0.381494 -0.348255
vn -0.649835 -0.7572 0.066044
vn -0.716291 -0.657213 -0.234516
vn -0.476261 -0.861791 -0.174616
vn -0.209675 -0.97409 -0.0847601
vn -0.15904 -0.605542 0.77976
vn -0.384689 -0.893318 0.232375
vn -0.110511 -0.848748 0.51712
vn 0.121951 -0.682276 0.720852
vn 0.314376 -0.838612 0.444857
vn 0.0367491 -0.980927 0.19087
vn 0.425636 0.782685 0.454134
vn 0.655178 0.308193 0.689752
vn 0.728725 0.524061 0.440817
vn 0.44982 -0.150206 0.880398
vn 0.686258 -0.444668 0.575604
vn 0.133826 -0.39163 0.910339
vn 0.42524 -0.598877 0.678615
vn -0.251904 -0.921769 -0.294766
vn 0.0709465 -0.989625 -0.124939
vn 0.399808 -0.910585 0.104828
vn 0.802281 -0.105076 0.587626
vn 0.908719 0.134015 0.395309
vn 0.885179 -0.336264 0.321536
vn 0.671896 -0.687384 0.275788
vn -0.70732 0.70064 -0.093816
vn -0.381333 0.920501 0.085228
vn 0.129426 0.94982 0.284765
vn -0.561829 -0.724794 -0.398774
vn 0.491721 0.790508 0.365114
vn 0.749403 0.528121 0.399355
vn -0.137964 -0.937737 -0.31877
vn 0.281081 -0.951259 -0.126886
vn -0.835304 0.544793 0.0739377
vn -0.97292 0.157288 -0.169374
vn -0.900309 0.385233 -0.202582
vn -0.928145 -0.118349 -0.352902
vn -0.773653 -0.477076 -0.416964
vn -0.65775 0.750055 0.0691528
vn 0.225384 0.908349 0.352284
vn 0.60737 0.691179 0.391629
vn 0.577184 -0.816595 -0.00557426
vn -0.993902 0.0518123 -0.0973374
vn -0.927233 -0.240703 -0.286881
vn -0.547648 0.805175 0.227541
vn -0.679933 -0.631058 -0.373439
vn -0.509212 -0.752223 -0.418167
vn -0.26293 0.92772 0.264961
vn 0.508396 0.784615 0.354843
vn 0.205064 -0.949004 -0.239459
vn 0.873874 0.324501 0.361999
vn 0.821682 -0.560262 0.104616
vn -0.889702 -0.384536 -0.246093
vn -0.608148 -0.717073 -0.340533
vn -0.22984 -0.895948 -0.380067
vn 0.77389 0.554326 0.306296
vn 0.980135 0.0847039 0.179334
vn 0.956673 -0.180079 0.228798
vn 0.556698 -0.819146 -0.138157
vn -0.801477 0.588153 0.108214
vn -0.965945 0.256695 -0.0325229
vn -0.528696 0.812409 0.245912
vn 0.346234 -0.890442 -0.295354
vn 0.852908 -0.518702 -0.0591254
vn -0.603791 0.784291 0.142563
vn -0.865249 0.499215 -0.0461383
vn -0.163651 0.939267 0.301655
vn -0.965475 -0.168951 -0.198277
vn -0.76672 -0.561191 -0.311777
vn -0.420961 -0.823293 -0.380764
vn 0.392513 0.850177 0.350903
vn 0.711569 0.634389 0.302027
vn -0.897686 0.378196 -0.226115
vn -0.658771 0.751686 -0.0314341
vn -0.97323 0.0623957 -0.221204
vn -0.918861 -0.105764 -0.380143
vn -0.778261 -0.504761 -0.373531
vn -0.358384 0.916766 0.176353
vn 0.711919 0.601849 0.361869
vn 0.892172 0.384865 0.236449
vn -0.663553 0.638809 -0.389384
vn -0.854764 -0.10033 -0.509227
vn -0.582014 0.802216 -0.133075
vn -0.385568 0.896057 -0.220045
vn -0.894668 0.23392 -0.380593
vn -0.792329 0.546516 -0.271173
vn -0.705774 -0.509166 -0.492578
vn -0.274244 0.956347 0.100946
vn 0.0162107 0.956554 0.291104
vn 0.128441 -0.946984 -0.29449
vn 0.421249 0.81678 0.394233
vn 0.866356 0.373661 0.331369
vn 0.69781 0.552162 0.456266
vn 0.680422 -0.721547 -0.128044
vn 0.982323 -0.0960209 0.16069
vn -0.397807 0.686847 -0.608268
vn -0.250143 0.457729 -0.853178
vn -0.829819 0.276471 -0.484731
vn -0.666868 0.448697 -0.594943
vn -0.704887 0.16538 -0.68977
vn -0.782461 -0.0368888 -0.621606
vn -0.509881 0.357999 -0.782214
vn -0.681828 -0.358506 -0.637639
vn -0.540914 0.112635 -0.833502
vn -0.619668 -0.126679 -0.774574
vn -0.322129 0.178094 -0.929793
vn -0.426968 -0.0801196 -0.90071
vn -0.00062224 0.999138 -0.0415049
vn -0.0780976 0.905631 -0.416814
vn 0.351449 0.905746 -0.236872
vn 0.0362763 0.632559 -0.773662
vn 0.229427 0.800604 -0.553532
vn -0.474725 -0.670379 -0.570289
vn -0.380526 -0.823262 -0.421236
vn 0.163067 0.951731 0.260035
vn 0.364389 0.927549 0.0829074
vn 0.58628 0.721315 0.368755
vn 0.655121 0.755172 0.023042
vn 0.873306 0.246208 0.420379
vn 0.54107 -0.839112 -0.0559827
vn 0.869318 0.27431 0.411146
vn 0.931055 -0.166269 0.324793
vn 0.770627 -0.624783 0.125623
vn -0.00890232 0.230835 -0.972952
vn -0.437671 -0.388318 -0.810958
vn -0.213097 -0.0945492 -0.972445
vn -0.155853 -0.390395 -0.90736
vn 0.0409869 -0.170819 -0.98445
vn 0.486512 0.736152 -0.470517
vn 0.292082 0.311449 -0.904261
vn 0.4417 0.510568 -0.737714
vn 0.664459 0.541063 -0.515505
vn 0.675184 0.315595 -0.666728
vn 0.565837 0.110277 -0.817109
vn 0.789798 0.0665608 -0.609745
vn 0.103089 -0.533786 -0.839312
vn 0.315839 -0.0402555 -0.947959
vn 0.334482 -0.348054 -0.875774
vn 0.474199 -0.670933 -0.570074
vn 0.642676 -0.261142 -0.720259
vn -0.220654 -0.665948 -0.712619
vn -0.10432 -0.896436 -0.430721
vn 0.116247 -0.816921 -0.564912
vn 0.836938 0.506621 0.207049
vn 0.673411 0.69458 -0.253133
vn 0.864071 0.495457 -0.0889053
vn 0.805805 0.490226 -0.332201
vn 0.918612 0.312666 -0.241644
vn 0.985846 0.157526 0.0573913
vn 0.82394 0.305955 -0.476984
vn 0.939211 0.106676 -0.326349
vn 0.932255 -0.310299 0.186052
vn 0.974606 -0.173158 -0.141985
vn 0.876031 -0.161346 -0.454464
vn 0.819715 -0.479662 -0.313036
vn 0.409663 -0.895497 -0.173957
vn 0.697788 -0.712073 -0.0777438
g grp1
usemtl mtl1
f 11//11 1//1 15//15 
f 60//60 3//3 2//2 
f 6//6 2//2 3//3 
f 4//4 11//11 5//5 
f 11//11 12//12 5//5 
f 11//11 4//4 2//2 
f 60//60 2//2 4//4 
f 4//4 51//51 50//50 
f 5//5 10//10 51//51 
f 4//4 5//5 51//51 
f 12//12 10//10 5//5 
f 60//60 4//4 50//50 
f 2//2 6//6 1//1 
f 2//2 1//1 11//11 
f 6//6 8//8 7//7 
f 6//6 7//7 1//1 
f 25//25 6//6 3//3 
f 25//25 8//8 6//6 
f 26//26 9//9 8//8 
f 8//8 9//9 7//7 
f 9//9 20//20 7//7 
f 26//26 8//8 27//27 
f 31//31 9//9 26//26 
f 9//9 31//31 20//20 
f 14//14 36//36 10//10 
f 15//15 12//12 11//11 
f 12//12 15//15 13//13 
f 12//12 13//13 14//14 
f 21//21 14//14 13//13 
f 12//12 14//14 10//10 
f 36//36 14//14 21//21 
f 1//1 17//17 15//15 
f 15//15 17//17 16//16 
f 15//15 16//16 22//22 
f 13//13 15//15 22//22 
f 7//7 18//18 17//17 
f 1//1 7//7 17//17 
f 17//17 18//18 16//16 
f 16//16 18//18 19//19 
f 18//18 7//7 20//20 
f 18//18 30//30 19//19 
f 30//30 18//18 20//20 
f 20//20 32//32 30//30 
f 30//30 41//41 19//19 
f 21//21 13//13 24//24 
f 21//21 24//24 37//37 
f 21//21 37//37 36//36 
f 39//39 37//37 24//24 
f 24//24 13//13 22//22 
f 16//16 23//23 22//22 
f 23//23 24//24 22//22 
f 23//23 41//41 39//39 
f 24//24 23//23 39//39 
f 16//16 19//19 23//23 
f 23//23 19//19 41//41 
f 27//27 8//8 25//25 
f 27//27 25//25 53//53 
f 28//28 31//31 26//26 
f 27//27 28//28 26//26 
f 53//53 28//28 27//27 
f 28//28 29//29 31//31 
f 43//43 28//28 53//53 
f 43//43 29//29 28//28 
f 38//38 55//55 54//54 
f 31//31 32//32 20//20 
f 33//33 41//41 30//30 
f 35//35 32//32 31//31 
f 29//29 35//35 31//31 
f 33//33 30//30 32//32 
f 33//33 34//34 42//42 
f 32//32 34//34 33//33 
f 35//35 34//34 32//32 
f 38//38 36//36 37//37 
f 36//36 38//38 54//54 
f 46//46 37//37 39//39 
f 38//38 37//37 47//47 
f 47//47 37//37 46//46 
f 41//41 42//42 39//39 
f 42//42 40//40 39//39 
f 40//40 46//46 39//39 
f 46//46 40//40 48//48 
f 41//41 33//33 42//42 
f 49//49 40//40 42//42 
f 34//34 49//49 42//42 
f 61//61 3//3 60//60 
f 3//3 61//61 25//25 
f 62//62 53//53 25//25 
f 10//10 52//52 51//51 
f 10//10 36//36 52//52 
f 52//52 36//36 54//54 
f 29//29 43//43 44//44 
f 57//57 44//44 56//56 
f 56//56 44//44 43//43 
f 47//47 55//55 38//38 
f 44//44 35//35 29//29 
f 45//45 44//44 57//57 
f 44//44 45//45 35//35 
f 45//45 34//34 35//35 
f 34//34 45//45 49//49 
f 47//47 46//46 48//48 
f 40//40 49//49 48//48 
f 61//61 62//62 25//25 
f 53//53 62//62 71//71 
f 43//43 53//53 56//56 
f 63//63 60//60 50//50 
f 51//51 63//63 50//50 
f 71//71 56//56 53//53 
f 64//64 52//52 54//54 
f 56//56 74//74 57//57 
f 76//76 48//48 49//49 
f 45//45 66//66 49//49 
f 57//57 66//66 45//45 
f 63//63 58//58 60//60 
f 63//63 69//69 58//58 
f 58//58 59//59 60//60 
f 60//60 59//59 61//61 
f 61//61 68//68 62//62 
f 72//72 69//69 63//63 
f 72//72 52//52 64//64 
f 63//63 51//51 72//72 
f 51//51 52//52 72//72 
f 56//56 71//71 79//79 
f 64//64 65//65 73//73 
f 79//79 74//74 56//56 
f 64//64 54//54 65//65 
f 65//65 54//54 55//55 
f 47//47 75//75 55//55 
f 82//82 75//75 47//47 
f 66//66 57//57 74//74 
f 76//76 49//49 66//66 
f 48//48 82//82 47//47 
f 82//82 48//48 76//76 
f 59//59 68//68 61//61 
f 67//67 59//59 58//58 
f 67//67 68//68 59//59 
f 67//67 77//77 68//68 
f 70//70 68//68 77//77 
f 62//62 68//68 70//70 
f 71//71 62//62 70//70 
f 64//64 73//73 95//95 
f 74//74 79//79 87//87 
f 65//65 80//80 73//73 
f 66//66 74//74 83//83 
f 75//75 65//65 55//55 
f 65//65 75//75 80//80 
f 82//82 81//81 75//75 
f 80//80 75//75 81//81 
f 76//76 66//66 83//83 
f 88//88 76//76 83//83 
f 88//88 82//82 76//76 
f 85//85 67//67 58//58 
f 69//69 86//86 58//58 
f 70//70 77//77 78//78 
f 79//79 70//70 78//78 
f 73//73 80//80 95//95 
f 71//71 70//70 79//79 
f 88//88 81//81 82//82 
f 86//86 84//84 58//58 
f 84//84 86//86 89//89 
f 89//89 86//86 91//91 
f 58//58 84//84 85//85 
f 90//90 85//85 84//84 
f 92//92 77//77 67//67 
f 67//67 85//85 92//92 
f 86//86 72//72 91//91 
f 72//72 86//86 69//69 
f 72//72 64//64 91//91 
f 91//91 64//64 95//95 
f 94//94 114//114 79//79 
f 79//79 114//114 87//87 
f 96//96 95//95 80//80 
f 88//88 87//87 118//118 
f 87//87 83//83 74//74 
f 87//87 114//114 118//118 
f 87//87 88//88 83//83 
f 104//104 80//80 81//81 
f 119//119 81//81 88//88 
f 104//104 81//81 119//119 
f 90//90 99//99 85//85 
f 85//85 99//99 92//92 
f 101//101 92//92 99//99 
f 89//89 90//90 84//84 
f 89//89 91//91 102//102 
f 113//113 91//91 95//95 
f 101//101 93//93 92//92 
f 77//77 92//92 93//93 
f 78//78 77//77 93//93 
f 94//94 78//78 93//93 
f 78//78 94//94 79//79 
f 95//95 96//96 103//103 
f 118//118 119//119 88//88 
f 89//89 98//98 90//90 
f 98//98 97//97 90//90 
f 98//98 110//110 97//97 
f 110//110 109//109 97//97 
f 109//109 100//100 97//97 
f 97//97 99//99 90//90 
f 99//99 97//97 100//100 
f 100//100 101//101 99//99 
f 101//101 100//100 111//111 
f 102//102 91//91 113//113 
f 98//98 89//89 102//102 
f 98//98 102//102 112//112 
f 102//102 113//113 112//112 
f 93//93 101//101 94//94 
f 101//101 138//138 94//94 
f 94//94 138//138 114//114 
f 113//113 95//95 115//115 
f 103//103 115//115 95//95 
f 104//104 103//103 96//96 
f 116//116 103//103 104//104 
f 96//96 80//80 104//104 
f 105//105 122//122 110//110 
f 122//122 106//106 109//109 
f 106//106 100//100 109//109 
f 122//122 125//125 106//106 
f 108//108 107//107 112//112 
f 105//105 107//107 108//108 
f 110//110 122//122 109//109 
f 98//98 107//107 110//110 
f 107//107 98//98 112//112 
f 107//107 105//105 110//110 
f 106//106 111//111 100//100 
f 127//127 111//111 106//106 
f 111//111 137//137 138//138 
f 139//139 115//115 141//141 
f 141//141 115//115 117//117 
f 138//138 101//101 111//111 
f 139//139 113//113 115//115 
f 116//116 145//145 103//103 
f 145//145 116//116 119//119 
f 117//117 115//115 103//103 
f 103//103 145//145 117//117 
f 119//119 118//118 147//147 
f 118//118 114//114 144//144 
f 119//119 116//116 104//104 
f 105//105 108//108 120//120 
f 123//123 105//105 120//120 
f 120//120 126//126 123//123 
f 126//126 120//120 121//121 
f 130//130 126//126 121//121 
f 120//120 135//135 121//121 
f 121//121 148//148 130//130 
f 123//123 122//122 105//105 
f 123//123 124//124 122//122 
f 122//122 124//124 125//125 
f 123//123 126//126 124//124 
f 127//127 106//106 125//125 
f 124//124 126//126 128//128 
f 128//128 129//129 124//124 
f 124//124 129//129 125//125 
f 125//125 129//129 127//127 
f 127//127 129//129 149//149 
f 128//128 131//131 129//129 
f 129//129 131//131 149//149 
f 126//126 130//130 128//128 
f 128//128 130//130 131//131 
f 130//130 150//150 131//131 
f 150//150 149//149 131//131 
f 149//149 137//137 127//127 
f 120//120 108//108 133//133 
f 108//108 112//112 132//132 
f 132//132 133//133 108//108 
f 134//134 133//133 132//132 
f 134//134 132//132 140//140 
f 120//120 133//133 135//135 
f 134//134 136//136 133//133 
f 136//136 135//135 133//133 
f 155//155 136//136 153//153 
f 153//153 136//136 134//134 
f 137//137 111//111 127//127 
f 137//137 166//166 138//138 
f 165//165 137//137 149//149 
f 165//165 166//166 137//137 
f 180//180 114//114 166//166 
f 138//138 166//166 114//114 
f 113//113 139//139 112//112 
f 132//132 112//112 139//139 
f 117//117 143//143 141//141 
f 140//140 132//132 139//139 
f 141//141 140//140 139//139 
f 142//142 134//134 140//140 
f 140//140 141//141 142//142 
f 169//169 134//134 142//142 
f 142//142 141//141 168//168 
f 142//142 170//170 169//169 
f 168//168 170//170 142//142 
f 141//141 143//143 168//168 
f 117//117 145//145 143//143 
f 119//119 146//146 145//145 
f 146//146 119//119 147//147 
f 144//144 147//147 118//118 
f 130//130 148//148 150//150 
f 149//149 150//150 151//151 
f 151//151 165//165 149//149 
f 152//152 150//150 148//148 
f 151//151 150//150 152//152 
f 161//161 152//152 148//148 
f 152//152 160//160 151//151 
f 165//165 151//151 160//160 
f 136//136 155//155 135//135 
f 121//121 135//135 148//148 
f 155//155 153//153 156//156 
f 135//135 155//155 154//154 
f 135//135 154//154 148//148 
f 155//155 158//158 154//154 
f 156//156 157//157 155//155 
f 148//148 154//154 161//161 
f 161//161 154//154 158//158 
f 158//158 155//155 157//157 
f 156//156 174//174 157//157 
f 158//158 157//157 159//159 
f 174//174 159//159 157//157 
f 159//159 174//174 175//175 
f 178//178 159//159 175//175 
f 152//152 162//162 160//160 
f 163//163 167//167 160//160 
f 167//167 165//165 160//160 
f 162//162 152//152 161//161 
f 162//162 163//163 160//160 
f 162//162 161//161 164//164 
f 162//162 164//164 163//163 
f 161//161 158//158 164//164 
f 164//164 158//158 159//159 
f 179//179 163//163 164//164 
f 164//164 159//159 178//178 
f 167//167 166//166 165//165 
f 166//166 167//167 180//180 
f 163//163 180//180 167//167 
f 179//179 181//181 163//163 
f 134//134 169//169 153//153 
f 153//153 169//169 156//156 
f 173//173 168//168 143//143 
f 169//169 171//171 156//156 
f 169//169 170//170 171//171 
f 170//170 168//168 173//173 
f 173//173 143//143 176//176 
f 171//171 172//172 174//174 
f 170//170 172//172 171//171 
f 172//172 173//173 175//175 
f 170//170 173//173 172//172 
f 173//173 176//176 177//177 
f 171//171 174//174 156//156 
f 175//175 173//173 177//177 
f 172//172 175//175 174//174 
f 143//143 145//145 146//146 
f 143//143 146//146 176//176 
f 147//147 176//176 146//146 
f 175//175 177//177 178//178 
f 178//178 177//177 179//179 
f 176//176 181//181 179//179 
f 179//179 177//177 176//176 
f 164//164 178//178 179//179 
f 144//144 114//114 180//180 
f 147//147 180//180 181//181 
f 180//180 147//147 144//144 
f 181//181 180//180 163//163 
f 181//181 176//176 147//147 
