#
# The license for this database is specified in the Creative Commons Attribution-Share Alike 2.1 Japan. If you use data from this database, please be sure attribute this database as follows: "BodyParts3D, (c)  The Database Center for Life Science licensed under CC Attribution-Share Alike 2.1 Japan".
# http://dbarchive.biosciencedbc.jp/en/bodyparts3d/lic.html
#
#
# Compatibility version : 4.0
# File ID : FJ2034
# Representation ID : BP7718
# Build-up logic : FMA 3.0 part_of
# Concept ID : FMA14819
# English name : Ileal branch of inferior branch of ileocolic artery
# Bounds(mm): (-53.377200,-133.010200,936.600000)-(-29.121100,-121.694500,956.950800)
# Volume(cm3): 0.219000
#
v -52.6722 -124.5 937.5
v -52.8 -124.441 938.1
v -51.9 -122.1 936.625
v -51.1439 -122.12 937.499
v -53.1976 -123.6 938.7
v -53.3772 -122.4 938.4
v -52.4871 -122.106 938.644
v -52.5 -121.695 937.8
v -52.2 -121.709 937.2
v -51.6 -123.9 936.64
v -50.0032 -123.998 941.345
v -51.4107 -122.7 936.6
v -49.2733 -123.374 941.679
v -48.9669 -122.782 941.215
v -49.0489 -122.459 940.316
v -44.5451 -126.652 943.125
v -44.2287 -126.905 944.358
v -42.3156 -127.16 947.037
v -44.7675 -123.588 942.923
v -43.5174 -124.141 944.936
v -42.5363 -125.933 947.085
v -42.1477 -125.455 943.547
v -42.5917 -124.631 943.671
v -39.9144 -125.216 946.537
v -41.487 -125.353 947.317
v -37.3326 -129.277 948.482
v -37.6849 -129.513 949.135
v -39.6 -127.229 945.6
v -37.5267 -127.144 947.242
v -37.1046 -126.494 949.884
v -36.4531 -127.001 948.518
v -35.4385 -127.106 950.388
v -31.9425 -132.552 955.212
v -31.9904 -132.432 955.668
v -31.1691 -132.9 956.1
v -30.9679 -132.775 954.602
v -30.3914 -132.9 955.2
v -32.2746 -131.774 956.04
v -32.5602 -131.301 955.901
v -31.5 -132.497 956.4
v -31.5 -132 956.819
v -31.1575 -132.307 956.377
v -31.1371 -131.4 956.797
v -30.9921 -129.64 955.743
v -30.4643 -129.787 955.9
v -31.2 -130.8 956.951
v -30.6 -130.188 956.7
v -30.2528 -130.199 956.39
v -29.7974 -132.6 954.6
v -30.6192 -132.014 953.67
v -29.5406 -132.014 954.612
v -29.4 -131.7 954.274
v -29.1211 -131.1 954.6
v -30.101 -129.772 954.985
v -30.4718 -129.589 955.101
v -29.482 -130.2 955.5
v -29.7437 -129.958 955.478
v -29.9698 -130.437 953.995
v -29.765 -130.051 954.868
v -52.6722 -124.5 937.5
v -52.6722 -124.5 937.5
v -52.8 -124.441 938.1
v -52.8 -124.441 938.1
v -51.9 -122.1 936.625
v -51.9 -122.1 936.625
v -53.1976 -123.6 938.7
v -53.3772 -122.4 938.4
v -53.3772 -122.4 938.4
v -52.5 -121.695 937.8
v -52.2 -121.709 937.2
v -51.6 -123.9 936.64
v -51.6 -123.9 936.64
v -51.6 -123.9 936.64
v -51.6 -123.9 936.64
v -51.6 -123.9 936.64
v -51.4107 -122.7 936.6
v -51.4107 -122.7 936.6
v -42.5917 -124.631 943.671
v -31.1691 -132.9 956.1
v -30.3914 -132.9 955.2
v -31.5 -132.497 956.4
v -31.5 -132 956.819
v -31.2 -130.8 956.951
v -30.6 -130.188 956.7
v -30.2528 -130.199 956.39
v -29.7974 -132.6 954.6
v -29.7974 -132.6 954.6
v -29.5406 -132.014 954.612
v -29.4 -131.7 954.274
v -29.1211 -131.1 954.6
v -29.1211 -131.1 954.6
v -29.482 -130.2 955.5
v -29.482 -130.2 955.5
v -29.7437 -129.958 955.478
vn -0.940496 -0.264325 -0.21354
vn -0.932111 -0.321304 -0.167133
vn -0.772679 0.0753574 -0.630308
vn 0.470323 0.80719 -0.356707
vn -0.940496 -0.264325 -0.21354
vn -0.756736 0.21666 -0.616773
vn -0.322153 0.769481 0.551468
vn -0.103779 0.940795 0.322699
vn -0.755068 0.436569 -0.489161
vn -0.710082 -0.0152589 -0.703953
vn -0.615255 0.0410598 0.787258
vn -0.0767269 -0.0210015 -0.996831
vn -0.444773 0.501721 0.741926
vn -0.174228 0.841866 0.510789
vn 0.117879 0.977737 0.173596
vn 0.00724832 -0.911274 -0.411737
vn -0.364693 -0.928831 0.065361
vn -0.628648 -0.629552 0.45658
vn 0.359718 0.925354 -0.11968
vn 0.0573005 0.944003 0.324924
vn -0.587929 0.172798 0.790241
vn 0.629271 0.189795 -0.753655
vn 0.589241 0.619638 -0.518502
vn 0.417948 0.903365 -0.0961863
vn -0.275211 0.698819 0.660235
vn 0.0960144 -0.821512 -0.56205
vn -0.309086 -0.941478 -0.134481
vn 0.459083 -0.430774 -0.776967
vn 0.679384 0.224546 -0.698582
vn 0.128254 0.933395 0.335148
vn 0.648286 0.61647 -0.446866
vn 0.479355 0.873871 -0.0810463
vn -0.437726 -0.899109 -0.0001692
vn -0.591015 -0.764229 0.258176
vn -0.404038 -0.911958 0.0713214
vn -0.0669572 -0.937101 -0.342576
vn 0.728533 -0.317426 0.607026
vn -0.710379 -0.359025 0.605362
vn -0.685503 -0.0935752 0.722031
vn -0.666134 -0.592117 0.453502
vn -0.700313 -0.219872 0.67913
vn 0.558366 -0.402316 0.725513
vn 0.605832 -0.261251 0.751476
vn 0.07338 0.895922 0.438109
vn 0.338196 0.850137 0.403597
vn -0.527869 0.332961 0.78134
vn 0.0108872 0.826697 0.562542
vn 0.464659 0.766063 0.444117
vn 0.25975 -0.771018 -0.581431
vn 0.304087 -0.648027 -0.698278
vn 0.74697 -0.337163 0.573025
vn 0.585474 -0.228959 -0.777688
vn 0.757497 0.393273 -0.521089
vn 0.522286 0.848469 -0.085538
vn 0.359416 0.923622 0.133203
vn 0.724496 -0.3123 0.61447
vn 0.505288 0.602846 0.617463
vn 0.712765 0.457689 -0.531495
vn 0.6771 0.685603 -0.267364
vn -0.656139 0.100277 -0.747948
vn -0.199566 -0.974599 -0.101636
vn -0.589996 -0.634684 0.499079
vn -0.278267 -0.959885 0.0344798
vn 0.528491 0.703528 -0.475128
vn -0.0767269 -0.0210015 -0.996831
vn -0.653751 -0.267844 0.707721
vn -0.525542 0.478286 0.703596
vn -0.943736 -0.205901 -0.258779
vn -0.723076 0.580045 -0.375112
vn 0.331314 0.931206 -0.151944
vn 0.13776 -0.848989 -0.510137
vn -0.0767269 -0.0210015 -0.996831
vn 0.604559 -0.121539 -0.787233
vn 0.579985 0.41716 -0.699711
vn 0.57385 -0.114181 -0.810961
vn 0.601723 0.516173 -0.609504
vn 0.604559 -0.121539 -0.787233
vn 0.604559 -0.121539 -0.787233
vn 0.520794 -0.36926 0.769689
vn 0.0133707 -0.976163 -0.216627
vn 0.335781 -0.50708 0.793802
vn 0.466208 -0.38721 0.795436
vn 0.446485 -0.178036 0.876901
vn 0.582829 -0.195234 0.788792
vn 0.693881 -0.284496 0.661507
vn 0.747762 -0.339543 0.570581
vn 0.915928 -0.401248 0.00871538
vn 0.912381 -0.409343 -0.000265295
vn 0.912381 -0.409343 -0.000265295
vn 0.738571 -0.324204 0.591104
vn 0.908688 -0.417373 -0.00924593
vn 0.502903 0.686096 0.5257
vn 0.746005 0.64041 -0.182626
vn 0.530688 0.847506 -0.0102474
g grp1
usemtl mtl1
f 1//1 2//2 5//5 
f 18//18 11//11 66//66 
f 62//62 18//18 66//66 
f 9//9 3//3 6//6 
f 10//10 6//6 3//3 
f 4//4 64//64 70//70 
f 23//23 64//64 4//4 
f 66//66 11//11 67//67 
f 60//60 6//6 10//10 
f 1//1 5//5 68//68 
f 67//67 11//11 13//13 
f 7//7 67//67 13//13 
f 8//8 67//67 7//7 
f 7//7 14//14 8//8 
f 9//9 6//6 69//69 
f 28//28 16//16 71//71 
f 12//12 72//72 65//65 
f 23//23 76//76 64//64 
f 77//77 78//78 73//73 
f 7//7 13//13 14//14 
f 14//14 15//15 8//8 
f 70//70 8//8 15//15 
f 61//61 71//71 16//16 
f 74//74 23//23 22//22 
f 61//61 18//18 63//63 
f 61//61 17//17 18//18 
f 11//11 21//21 13//13 
f 18//18 21//21 11//11 
f 15//15 14//14 20//20 
f 61//61 16//16 17//17 
f 14//14 25//25 20//20 
f 14//14 13//13 25//25 
f 4//4 70//70 19//19 
f 70//70 15//15 19//19 
f 28//28 26//26 16//16 
f 23//23 4//4 19//19 
f 20//20 19//19 15//15 
f 20//20 24//24 19//19 
f 22//22 28//28 75//75 
f 17//17 16//16 27//27 
f 18//18 17//17 27//27 
f 25//25 13//13 21//21 
f 23//23 19//19 24//24 
f 30//30 20//20 25//25 
f 24//24 20//20 30//30 
f 27//27 16//16 26//26 
f 28//28 22//22 29//29 
f 22//22 23//23 29//29 
f 23//23 24//24 31//31 
f 31//31 24//24 32//32 
f 32//32 24//24 30//30 
f 23//23 31//31 29//29 
f 58//58 29//29 31//31 
f 47//47 30//30 25//25 
f 31//31 32//32 59//59 
f 58//58 31//31 59//59 
f 25//25 21//21 46//46 
f 46//46 47//47 25//25 
f 30//30 47//47 44//44 
f 26//26 50//50 36//36 
f 26//26 28//28 50//50 
f 40//40 38//38 18//18 
f 18//18 38//38 39//39 
f 21//21 18//18 39//39 
f 52//52 50//50 28//28 
f 28//28 29//29 52//52 
f 29//29 53//53 52//52 
f 18//18 34//34 40//40 
f 18//18 27//27 33//33 
f 33//33 35//35 34//34 
f 34//34 18//18 33//33 
f 35//35 40//40 34//34 
f 35//35 33//33 36//36 
f 36//36 33//33 27//27 
f 79//79 37//37 42//42 
f 27//27 26//26 36//36 
f 36//36 80//80 35//35 
f 80//80 36//36 49//49 
f 39//39 46//46 21//21 
f 40//40 41//41 38//38 
f 41//41 46//46 39//39 
f 38//38 41//41 39//39 
f 81//81 79//79 42//42 
f 81//81 42//42 82//82 
f 82//82 42//42 43//43 
f 82//82 43//43 83//83 
f 42//42 37//37 43//43 
f 30//30 55//55 32//32 
f 58//58 53//53 29//29 
f 54//54 59//59 32//32 
f 55//55 54//54 32//32 
f 47//47 48//48 45//45 
f 30//30 44//44 45//45 
f 45//45 44//44 47//47 
f 37//37 56//56 85//85 
f 83//83 43//43 84//84 
f 37//37 85//85 43//43 
f 85//85 84//84 43//43 
f 36//36 50//50 49//49 
f 86//86 51//51 37//37 
f 52//52 49//49 50//50 
f 87//87 89//89 88//88 
f 51//51 90//90 37//37 
f 88//88 89//89 91//91 
f 57//57 45//45 92//92 
f 45//45 48//48 92//92 
f 55//55 94//94 54//54 
f 45//45 94//94 55//55 
f 30//30 45//45 55//55 
f 93//93 59//59 94//94 
f 94//94 59//59 54//54 
f 58//58 59//59 53//53 
f 56//56 37//37 90//90 
f 93//93 53//53 59//59 
