#
# The license for this database is specified in the Creative Commons Attribution-Share Alike 2.1 Japan. If you use data from this database, please be sure attribute this database as follows: "BodyParts3D, (c)  The Database Center for Life Science licensed under CC Attribution-Share Alike 2.1 Japan".
# http://dbarchive.biosciencedbc.jp/en/bodyparts3d/lic.html
#
#
# Compatibility version : 4.0
# File ID : FJ3439
# Representation ID : BP10384
# Build-up logic : FMA 3.0 part_of
# Concept ID : FMA14815
# English name : Ileocolic artery
# Bounds(mm): (-31.380500,-144.370000,954.466000)-(-5.439800,-129.636000,983.391000)
# Volume(cm3): 0.363200
#
v -31.1273 -132.3 956.1
v -30.0553 -132.958 956.343
v -30.1185 -132.67 955.426
v -30.1055 -132.3 954.9
v -31.3148 -132 956.7
v -31.3805 -131.1 957
v -30.2744 -132.815 956.986
v -30.4855 -132.116 957.695
v -30.4888 -131.013 957.756
v -30.9452 -130.2 957
v -30.6211 -129.9 956.7
v -30.1045 -129.793 956.886
v -30.1443 -130.022 957.235
v -29.2877 -132.602 955.327
v -29.4 -131.7 954.466
v -29.4189 -131.283 954.616
v -28.5202 -131.523 955.085
v -29.7 -129.636 955.8
v -29.4189 -130.856 954.832
v -29.4 -130.05 955.2
v -29.1359 -129.76 956.028
v -29.1 -130.8 954.555
v -29.1 -130.188 954.9
v -28.2923 -130.148 956.539
v -29.277 -129.781 956.781
v -25.4999 -133.821 958.351
v -25.4832 -134.877 960.003
v -26.5418 -132.668 956.961
v -27.0924 -131.845 960.634
v -26.1298 -131.464 960.588
v -23.6865 -135.133 960.682
v -23.915 -135.529 963.479
v -23.9293 -134.629 964.284
v -24.0137 -133.147 959.271
v -21.6258 -134.705 961.677
v -23.0084 -133.099 960.393
v -21.3389 -133.054 963.698
v -18.1538 -136.939 965.685
v -20.8428 -137.104 965.606
v -18.5076 -137.271 970.219
v -19.7326 -134.725 963.589
v -19.1441 -134.305 964.819
v -19.7701 -133.9 966.463
v -18.8012 -135.717 969.541
v -18.0156 -138.088 967.259
v -17.009 -138.13 967.614
v -16.7821 -138.914 971.405
v -16.3085 -137.18 967.35
v -15.9027 -136.556 967.725
v -17.9748 -135.151 969.407
v -14.7698 -139.985 971.985
v -13.5751 -140.691 975.335
v -14.0927 -140.078 975.319
v -13.8408 -136.855 970.568
v -14.0861 -136.456 972.594
v -13.923 -136.499 971.238
v -13.3016 -140.447 972.83
v -11.786 -140.748 973.809
v -11.402 -142.058 977.023
v -12.1138 -138.25 972.222
v -12.3582 -138.298 976.76
v -11.8945 -138.042 976.496
v -12.4506 -140.085 977.891
v -11.302 -139.731 978.96
v -13.3891 -136.701 972.68
v -11.6021 -137.713 973.965
v -9.18947 -142.903 982.011
v -10.5991 -142.302 976.946
v -8.88895 -141.753 982.454
v -8.78074 -142.421 982.718
v -10.715 -139.562 973.91
v -9.92015 -139.228 975.099
v -10.5721 -138.283 976.683
v -8.62738 -139.559 977.297
v -8.31402 -144.044 981.678
v -8.0298 -144.18 980.981
v -7.51558 -144.272 982.179
v -7.48393 -144.085 980.345
v -6.9133 -144.316 980.995
v -6.89657 -144.37 981.604
v -6.90037 -144.233 982.218
v -6.73953 -143.853 980.233
v -8.38187 -143.072 982.977
v -8.08704 -143.673 982.777
v -7.45521 -143.699 982.971
v -7.54354 -143.099 983.293
v -6.90791 -143.086 983.263
v -6.59743 -143.73 982.773
v -6.29647 -143.101 983
v -7.7662 -140.727 982.144
v -6.90773 -140.986 982.506
v -7.14335 -140.524 981.582
v -6.31611 -141.053 982.175
v -6.37415 -140.813 981.523
v -8.07415 -142.499 983.242
v -8.10733 -141.896 983.107
v -8.31264 -141.189 982.497
v -7.47907 -142.522 983.391
v -7.4997 -141.937 983.285
v -7.50815 -141.328 982.941
v -6.92185 -142.479 983.35
v -6.90006 -141.882 983.206
v -6.31547 -142.492 983.098
v -6.28075 -141.618 982.768
v -8.15082 -139.657 979.114
v -6.85185 -142.649 979.087
v -6.03454 -143.936 981.29
v -6.05899 -143.895 981.927
v -5.78455 -143.384 980.672
v -5.92228 -143.398 982.486
v -5.63507 -143.386 981.899
v -5.47294 -143.097 981.279
v -5.7934 -141.604 982.19
v -6.13549 -140.994 981.124
v -6.00382 -141.1 981.627
v -5.82564 -142.69 980.223
v -5.43982 -142.789 981.877
v -5.6992 -142.799 982.49
v -5.98691 -141.99 980.002
v -5.44581 -142.217 981.033
v -5.547 -142.2 982.155
v -5.73981 -142.189 982.517
v -5.85528 -141.481 980.705
v -5.61743 -141.602 981.583
v -31.1273 -132.3 956.1
v -30.1055 -132.3 954.9
v -30.1055 -132.3 954.9
v -31.3148 -132 956.7
v -31.3805 -131.1 957
v -30.9452 -130.2 957
v -30.6211 -129.9 956.7
v -29.4 -131.7 954.466
v -29.7 -129.636 955.8
v -29.4 -130.05 955.2
v -29.1 -130.8 954.555
v -29.1 -130.188 954.9
vn -0.859982 0.177421 -0.47849
vn -0.386136 -0.9142 -0.123035
vn -0.247843 -0.871423 -0.423316
vn -0.566896 -0.667532 -0.482732
vn -0.948699 0.0354683 -0.314184
vn -0.794155 0.272388 -0.543251
vn -0.56719 -0.808515 0.156841
vn -0.739333 -0.298497 0.603561
vn -0.594379 0.309314 0.74232
vn -0.451666 0.622464 0.639169
vn -0.286358 0.920696 0.265174
vn -0.178285 0.900244 0.39721
vn -0.25831 0.778897 0.571485
vn 0.136982 -0.7878 -0.600506
vn 0.450025 -0.437776 -0.778351
vn -0.643856 0.288985 -0.708475
vn 0.635236 -0.103363 -0.76537
vn -0.725203 0.306618 -0.616495
vn -0.683156 0.323074 -0.65492
vn -0.665541 0.341653 -0.663573
vn 0.332771 0.927681 -0.169325
vn -0.60016 0.337502 -0.72519
vn -0.542124 0.412676 -0.731984
vn 0.54941 0.802487 -0.232728
vn 0.129003 0.970157 0.205314
vn 0.427949 -0.566961 -0.703856
vn -0.0951085 -0.936816 -0.336646
vn 0.597274 -0.264101 -0.757308
vn -0.459338 0.538444 0.706461
vn -0.0888103 0.880744 0.465192
vn 0.207407 -0.799028 -0.56439
vn -0.673008 -0.642829 0.365831
vn -0.730701 -0.140181 0.66815
vn 0.700191 0.0357271 -0.713061
vn 0.630367 -0.253919 -0.733596
vn 0.723986 0.373717 -0.57981
vn 0.372498 0.927422 0.0336649
vn 0.473952 -0.564956 -0.675422
vn -0.390367 -0.920199 -0.0291185
vn -0.783996 -0.199776 0.587741
vn 0.745728 0.159028 -0.646992
vn 0.675275 0.63457 -0.375931
vn 0.0894988 0.948673 0.303331
vn -0.542666 0.505665 0.670684
vn -0.0103901 -0.922184 -0.386613
vn 0.27814 -0.767449 -0.577633
vn -0.636379 -0.743138 0.206802
vn 0.674641 -0.235906 -0.699435
vn 0.773712 0.17844 -0.607889
vn -0.208305 0.828043 0.520532
vn -0.279154 -0.942119 -0.185704
vn -0.651258 -0.741029 0.163523
vn -0.78594 -0.464595 0.407984
vn 0.742536 0.533766 -0.404641
vn 0.218551 0.952396 0.212549
vn 0.58231 0.793963 -0.174751
vn 0.0172675 -0.911795 -0.410282
vn 0.249677 -0.788841 -0.561597
vn -0.446097 -0.89215 -0.0711729
vn 0.797462 0.221848 -0.561104
vn -0.318155 0.748025 0.582439
vn -0.0114331 0.911048 0.412143
vn -0.786443 0.025788 0.617124
vn -0.576029 0.478249 0.662925
vn 0.427551 0.90366 0.0244494
vn 0.631752 0.755285 -0.174452
vn -0.777363 -0.433432 0.455899
vn -0.134803 -0.930831 -0.33968
vn -0.634209 0.326583 0.700801
vn -0.703154 0.0126412 0.710926
vn 0.766604 -0.0548694 -0.639772
vn 0.801682 0.385004 -0.45725
vn 0.322469 0.931846 0.166361
vn 0.719392 0.646559 -0.253844
vn -0.556319 -0.804076 0.209691
vn -0.286028 -0.951963 -0.109335
vn -0.189232 -0.929631 0.316193
vn 0.00272963 -0.913675 -0.406437
vn 0.179542 -0.946808 -0.267059
vn 0.188688 -0.98056 0.0538423
vn 0.221666 -0.874232 0.431952
vn 0.415113 -0.739686 -0.529665
vn -0.573531 -0.305152 0.760226
vn -0.46778 -0.641218 0.608293
vn -0.0225837 -0.664579 0.746877
vn -0.188026 -0.330755 0.924796
vn 0.215495 -0.299712 0.929373
vn 0.374343 -0.642615 0.668516
vn 0.543609 -0.300166 0.78383
vn -0.0895052 0.840263 0.534739
vn 0.222433 0.763116 0.606776
vn 0.234802 0.919306 0.315824
vn 0.498577 0.765866 0.406041
vn 0.497432 0.856023 0.140664
vn -0.389041 0.0158845 0.921083
vn -0.428752 0.353396 0.831434
vn -0.389751 0.626564 0.674916
vn -0.0589362 -0.0208775 0.998043
vn -0.0820335 0.297127 0.951307
vn -0.084507 0.631391 0.770846
vn 0.206479 0.0718506 0.975809
vn 0.25945 0.413695 0.872664
vn 0.530727 0.061426 0.845314
vn 0.529754 0.481084 0.698512
vn 0.511225 0.859335 0.0138398
vn 0.594531 -0.45468 -0.663173
vn 0.644751 -0.751178 -0.14152
vn 0.583426 -0.763343 0.277348
vn 0.734423 -0.496038 -0.463215
vn 0.692674 -0.487419 0.531626
vn 0.860801 -0.460637 0.216415
vn 0.939883 -0.306691 -0.150205
vn 0.768074 0.494692 0.406623
vn 0.698333 0.708485 -0.101882
vn 0.696132 0.702084 0.149927
vn 0.83751 -0.143139 -0.52734
vn 0.97653 -0.102981 0.189168
vn 0.824783 -0.13513 0.549066
vn 0.846798 0.177821 -0.501311
vn 0.972427 0.141519 -0.185358
vn 0.93903 0.176378 0.295149
vn 0.767097 0.210852 0.605891
vn 0.830842 0.466889 -0.302848
vn 0.88193 0.470406 0.0302862
vn -0.570138 -0.809919 -0.137744
vn -0.711732 0.299368 -0.635465
vn 0.0638162 -0.752973 -0.65495
vn -0.711969 -0.539679 0.449274
vn -0.71482 0.00530309 0.699289
vn -0.793059 0.383573 -0.473212
vn -0.755807 0.338117 -0.560743
vn -0.597568 0.24726 -0.762742
vn 0.0846311 0.995703 -0.0375804
vn 0.216347 0.89793 -0.383295
vn 0.689768 0.122969 -0.713512
vn 0.553285 0.719475 -0.419799
g grp1
usemtl mtl1
f 1//1 5//5 6//6 
f 7//7 128//128 125//125 
f 3//3 2//2 125//125 
f 125//125 2//2 7//7 
f 3//3 125//125 4//4 
f 1//1 6//6 126//126 
f 14//14 3//3 127//127 
f 128//128 8//8 129//129 
f 8//8 33//33 129//129 
f 129//129 33//33 9//9 
f 126//126 6//6 18//18 
f 133//133 11//11 12//12 
f 129//129 9//9 10//10 
f 130//130 131//131 6//6 
f 6//6 131//131 18//18 
f 10//10 29//29 13//13 
f 10//10 9//9 29//29 
f 11//11 10//10 12//12 
f 10//10 13//13 12//12 
f 2//2 3//3 27//27 
f 27//27 14//14 31//31 
f 2//2 39//39 7//7 
f 31//31 14//14 26//26 
f 32//32 7//7 39//39 
f 32//32 128//128 7//7 
f 14//14 127//127 15//15 
f 132//132 126//126 16//16 
f 19//19 16//16 126//126 
f 27//27 3//3 14//14 
f 16//16 22//22 132//132 
f 16//16 19//19 22//22 
f 15//15 17//17 28//28 
f 17//17 135//135 34//34 
f 15//15 135//135 17//17 
f 135//135 36//36 34//34 
f 28//28 17//17 34//34 
f 26//26 14//14 15//15 
f 18//18 20//20 126//126 
f 133//133 12//12 25//25 
f 19//19 126//126 20//20 
f 21//21 134//134 133//133 
f 25//25 21//21 133//133 
f 19//19 20//20 22//22 
f 20//20 23//23 22//22 
f 134//134 21//21 136//136 
f 24//24 21//21 37//37 
f 21//21 25//25 37//37 
f 136//136 36//36 135//135 
f 42//42 36//36 136//136 
f 136//136 21//21 24//24 
f 42//42 136//136 24//24 
f 13//13 29//29 12//12 
f 30//30 25//25 12//12 
f 29//29 30//30 12//12 
f 30//30 37//37 25//25 
f 28//28 26//26 15//15 
f 27//27 39//39 2//2 
f 8//8 128//128 33//33 
f 33//33 128//128 32//32 
f 9//9 33//33 29//29 
f 45//45 39//39 27//27 
f 39//39 47//47 32//32 
f 45//45 27//27 31//31 
f 34//34 35//35 28//28 
f 34//34 41//41 35//35 
f 26//26 28//28 35//35 
f 34//34 36//36 41//41 
f 32//32 40//40 33//33 
f 32//32 47//47 40//40 
f 26//26 35//35 38//38 
f 26//26 38//38 31//31 
f 48//48 38//38 35//35 
f 41//41 48//48 35//35 
f 33//33 40//40 29//29 
f 29//29 40//40 44//44 
f 30//30 44//44 50//50 
f 30//30 29//29 44//44 
f 50//50 43//43 30//30 
f 37//37 30//30 43//43 
f 24//24 37//37 42//42 
f 45//45 51//51 39//39 
f 51//51 47//47 39//39 
f 41//41 36//36 42//42 
f 41//41 42//42 49//49 
f 37//37 43//43 55//55 
f 45//45 46//46 58//58 
f 46//46 38//38 58//58 
f 40//40 47//47 53//53 
f 53//53 47//47 52//52 
f 40//40 53//53 63//63 
f 63//63 44//44 40//40 
f 31//31 46//46 45//45 
f 31//31 38//38 46//46 
f 41//41 49//49 48//48 
f 49//49 42//42 54//54 
f 58//58 57//57 45//45 
f 57//57 51//51 45//45 
f 42//42 37//37 56//56 
f 49//49 54//54 60//60 
f 56//56 54//54 42//42 
f 56//56 37//37 65//65 
f 65//65 37//37 55//55 
f 56//56 66//66 54//54 
f 43//43 50//50 62//62 
f 55//55 43//43 62//62 
f 51//51 59//59 47//47 
f 68//68 51//51 57//57 
f 68//68 59//59 51//51 
f 47//47 59//59 52//52 
f 49//49 71//71 48//48 
f 44//44 63//63 64//64 
f 64//64 63//63 69//69 
f 50//50 44//44 61//61 
f 50//50 61//61 62//62 
f 64//64 61//61 44//44 
f 97//97 61//61 64//64 
f 55//55 73//73 65//65 
f 55//55 62//62 73//73 
f 66//66 56//56 65//65 
f 73//73 66//66 65//65 
f 52//52 67//67 53//53 
f 63//63 53//53 67//67 
f 67//67 70//70 63//63 
f 70//70 67//67 83//83 
f 106//106 58//58 38//38 
f 68//68 57//57 58//58 
f 64//64 69//69 97//97 
f 97//97 69//69 96//96 
f 70//70 96//96 69//69 
f 63//63 70//70 69//69 
f 95//95 70//70 83//83 
f 95//95 96//96 70//70 
f 106//106 38//38 48//48 
f 71//71 106//106 48//48 
f 49//49 60//60 71//71 
f 54//54 66//66 72//72 
f 106//106 71//71 116//116 
f 54//54 72//72 60//60 
f 60//60 72//72 71//71 
f 66//66 105//105 74//74 
f 72//72 66//66 74//74 
f 73//73 105//105 66//66 
f 61//61 97//97 90//90 
f 61//61 90//90 62//62 
f 62//62 90//90 92//92 
f 92//92 73//73 62//62 
f 73//73 92//92 105//105 
f 68//68 58//58 78//78 
f 58//58 82//82 78//78 
f 58//58 106//106 82//82 
f 76//76 75//75 52//52 
f 52//52 75//75 67//67 
f 84//84 67//67 75//75 
f 59//59 68//68 76//76 
f 76//76 52//52 59//59 
f 76//76 77//77 75//75 
f 77//77 84//84 75//75 
f 85//85 84//84 77//77 
f 68//68 78//78 76//76 
f 76//76 78//78 79//79 
f 79//79 80//80 76//76 
f 76//76 80//80 77//77 
f 80//80 81//81 77//77 
f 79//79 78//78 82//82 
f 81//81 85//85 77//77 
f 81//81 88//88 85//85 
f 82//82 107//107 79//79 
f 79//79 107//107 80//80 
f 80//80 108//108 81//81 
f 81//81 108//108 88//88 
f 107//107 82//82 109//109 
f 108//108 80//80 107//107 
f 106//106 109//109 82//82 
f 110//110 88//88 108//108 
f 110//110 89//89 88//88 
f 67//67 84//84 83//83 
f 83//83 84//84 86//86 
f 86//86 95//95 83//83 
f 86//86 84//84 85//85 
f 87//87 86//86 85//85 
f 87//87 98//98 86//86 
f 85//85 88//88 87//87 
f 88//88 89//89 87//87 
f 89//89 103//103 87//87 
f 71//71 72//72 119//119 
f 71//71 119//119 116//116 
f 97//97 100//100 90//90 
f 90//90 91//91 92//92 
f 100//100 91//91 90//90 
f 114//114 105//105 94//94 
f 105//105 92//92 94//94 
f 104//104 93//93 91//91 
f 92//92 93//93 94//94 
f 91//91 93//93 92//92 
f 104//104 122//122 113//113 
f 113//113 93//93 104//104 
f 114//114 94//94 115//115 
f 94//94 93//93 115//115 
f 86//86 98//98 95//95 
f 98//98 99//99 95//95 
f 99//99 96//96 95//95 
f 100//100 96//96 99//99 
f 96//96 100//100 97//97 
f 102//102 100//100 99//99 
f 98//98 87//87 101//101 
f 101//101 102//102 99//99 
f 101//101 99//99 98//98 
f 102//102 91//91 100//100 
f 103//103 101//101 87//87 
f 104//104 102//102 103//103 
f 103//103 102//102 101//101 
f 104//104 91//91 102//102 
f 103//103 122//122 104//104 
f 74//74 105//105 114//114 
f 111//111 108//108 107//107 
f 110//110 108//108 111//111 
f 109//109 106//106 116//116 
f 118//118 111//111 117//117 
f 118//118 110//110 111//111 
f 110//110 118//118 89//89 
f 118//118 103//103 89//89 
f 107//107 109//109 112//112 
f 107//107 112//112 111//111 
f 112//112 109//109 116//116 
f 112//112 117//117 111//111 
f 72//72 74//74 123//123 
f 113//113 122//122 121//121 
f 74//74 114//114 123//123 
f 93//93 113//113 115//115 
f 116//116 119//119 120//120 
f 120//120 121//121 117//117 
f 117//117 121//121 118//118 
f 118//118 121//121 122//122 
f 103//103 118//118 122//122 
f 72//72 123//123 119//119 
f 119//119 123//123 120//120 
f 120//120 123//123 124//124 
f 113//113 121//121 124//124 
f 124//124 121//121 120//120 
f 124//124 123//123 114//114 
f 115//115 124//124 114//114 
f 113//113 124//124 115//115 
f 112//112 116//116 120//120 
f 120//120 117//117 112//112 
