#
# The license for this database is specified in the Creative Commons Attribution-Share Alike 2.1 Japan. If you use data from this database, please be sure attribute this database as follows: "BodyParts3D, (c)  The Database Center for Life Science licensed under CC Attribution-Share Alike 2.1 Japan".
# http://dbarchive.biosciencedbc.jp/en/bodyparts3d/lic.html
#
#
# Compatibility version : 4.0
# File ID : FJ2987
# Representation ID : BP9541
# Build-up logic : FMA 3.0 part_of
# Concept ID : FMA68694
# English name : Inferior branch of medial segmental artery
# Bounds(mm): (-49.298500,-155.382000,1191.570000)-(-31.374500,-134.459000,1217.170000)
# Volume(cm3): 0.087000
#
v -49.1227 -135.424 1215.27
v -48.5508 -135.787 1214.41
v -48.3932 -135.044 1214.82
v -48.6044 -134.696 1215.53
v -48.7919 -136.42 1214.63
v -49.2308 -135.331 1215.81
v -49.2985 -135.972 1216.46
v -48.739 -136.87 1215.84
v -45.9682 -140.057 1209.92
v -47.6289 -134.459 1215.43
v -47.1893 -134.536 1216.17
v -46.7624 -135.346 1215.7
v -47.3785 -134.966 1216.49
v -46.9943 -134.994 1216.48
v -46.7296 -136.234 1216.11
v -47.4252 -135.625 1217.11
v -47.046 -136.393 1216.44
v -48.5627 -136.263 1217.04
v -48.2134 -136.062 1217.17
v -47.6174 -136.617 1216.63
v -44.5915 -143.43 1207.02
v -45.0112 -140.398 1209.31
v -44.4037 -140.06 1210.14
v -45.7202 -142.157 1210.74
v -44.6515 -142.751 1210.45
v -45.6877 -142.541 1209.67
v -44.5657 -139.49 1211.47
v -41.4507 -145.04 1204.39
v -42.1362 -145.83 1203.52
v -43.8652 -145.308 1206.14
v -41.8014 -148.017 1203.95
v -42.4006 -143.185 1207.18
v -43.7995 -145.184 1207.52
v -43.4584 -141.737 1209.98
v -38.9847 -148.768 1199.38
v -40.1206 -149.509 1199.92
v -38.4881 -148.342 1200.5
v -39.7237 -146.88 1202.99
v -39.5502 -148.2 1203.33
v -41.6951 -147.418 1205.18
v -41.9337 -145.315 1207.1
v -40.8852 -147.663 1204.74
v -37.0519 -151.15 1199.36
v -35.9411 -151.234 1198.08
v -38.6754 -150.77 1200.38
v -33.5308 -154.77 1191.79
v -32.9681 -153.304 1191.57
v -33.0992 -154.784 1191.68
v -32.9031 -154.546 1193.3
v -31.6982 -153.722 1192.1
v -32.3496 -155.382 1191.76
v -31.7254 -153.952 1192.38
v -31.3745 -154.227 1191.82
v -31.4817 -154.646 1191.74
v -31.6879 -154.176 1192.38
v -31.7903 -154.521 1192.41
v -48.6044 -134.696 1215.53
v -48.6044 -134.696 1215.53
v -49.2308 -135.331 1215.81
v -49.2308 -135.331 1215.81
v -49.2985 -135.972 1216.46
v -47.6289 -134.459 1215.43
v -47.1893 -134.536 1216.17
v -47.1893 -134.536 1216.17
v -46.9943 -134.994 1216.48
v -47.4252 -135.625 1217.11
v -48.5627 -136.263 1217.04
v -48.2134 -136.062 1217.17
v -41.4507 -145.04 1204.39
v -42.1362 -145.83 1203.52
v -41.8014 -148.017 1203.95
v -43.7995 -145.184 1207.52
v -38.9847 -148.768 1199.38
v -40.1206 -149.509 1199.92
v -38.4881 -148.342 1200.5
v -38.4881 -148.342 1200.5
v -35.9411 -151.234 1198.08
v -35.9411 -151.234 1198.08
v -38.6754 -150.77 1200.38
v -33.5308 -154.77 1191.79
v -33.5308 -154.77 1191.79
v -32.9681 -153.304 1191.57
v -32.9681 -153.304 1191.57
v -31.6982 -153.722 1192.1
v -32.3496 -155.382 1191.76
v -32.3496 -155.382 1191.76
v -31.3745 -154.227 1191.82
v -31.3745 -154.227 1191.82
v -31.4817 -154.646 1191.74
vn -0.859234 0.257111 -0.442279
vn -0.643207 0.370713 -0.669968
vn -0.384852 0.651187 -0.654098
vn -0.557645 0.715867 -0.420198
vn -0.932823 -0.181061 -0.311541
vn -0.741948 0.620562 -0.253804
vn -0.916612 -0.399767 0.00304039
vn -0.675452 -0.66657 0.315356
vn -0.467053 0.491094 -0.735315
vn 0.207015 0.80418 -0.557172
vn -0.207575 0.952595 0.222429
vn 0.880774 0.473517 -0.00429919
vn -0.117331 0.655815 0.745748
vn 0.927926 0.265258 0.261901
vn 0.831552 -0.0695981 0.551069
vn -0.122482 0.682956 0.720118
vn 0.613339 -0.352227 0.706931
vn -0.263988 -0.738621 0.620281
vn -0.37098 0.60634 0.703367
vn 0.294565 -0.565062 0.770673
vn -0.807406 0.116947 -0.578289
vn 0.0296368 0.730873 -0.68187
vn 0.651691 0.689408 -0.316251
vn -0.523732 -0.741115 0.420064
vn 0.0406205 -0.719783 0.69301
vn -0.843771 -0.535536 0.0353698
vn 0.861114 0.507894 -0.0229408
vn 0.133737 0.798095 -0.587502
vn -0.643505 0.328472 -0.69138
vn -0.892769 -0.412457 -0.181225
vn -0.762107 -0.647096 -0.021451
vn 0.793177 0.603807 -0.0792934
vn -0.743371 -0.654598 0.13748
vn 0.923034 0.211528 0.321347
vn 0.125795 0.8521 -0.508036
vn -0.646278 0.312613 -0.69613
vn 0.291391 0.879993 -0.375104
vn 0.820913 0.566872 0.0689835
vn 0.774512 -0.162058 0.611448
vn -0.107422 -0.810338 0.576032
vn 0.621195 -0.371939 0.689767
vn 0.336839 -0.632759 0.697249
vn 0.516171 -0.523982 0.677503
vn 0.737453 0.674723 -0.0301906
vn -0.592543 -0.804736 0.0359607
vn -0.709125 0.169431 -0.684424
vn -0.657628 0.290204 -0.695203
vn -0.153275 -0.18797 -0.970141
vn 0.3048 -0.752521 0.583789
vn 0.441374 0.781285 -0.441343
vn -0.45279 -0.880729 0.138917
vn 0.851656 0.260061 0.455028
vn 0.224992 0.126791 -0.966076
vn 0.135458 0.0245303 -0.990479
vn 0.836217 -0.0213544 0.547982
vn 0.70866 -0.413693 0.571541
vn -0.207575 0.952595 0.222429
vn -0.379156 0.669819 0.638422
vn -0.98028 -0.079246 -0.181028
vn -0.403607 0.670888 0.622101
vn -0.428921 0.570133 0.700696
vn -0.207575 0.952595 0.222429
vn -0.199621 0.647741 0.735243
vn 0.83193 0.546149 -0.0980467
vn 0.0720546 0.630348 0.772962
vn 0.613117 -0.290112 0.734794
vn -0.494414 0.342443 0.798929
vn 0.206927 -0.560982 0.801549
vn 0.692458 0.696709 -0.187347
vn -0.106797 0.723869 -0.681622
vn -0.32086 -0.840162 0.437238
vn -0.279018 -0.797108 0.535506
vn -0.591065 0.392481 -0.704699
vn -0.803521 -0.571082 -0.167986
vn 0.719508 0.692709 -0.0496174
vn 0.824543 0.363014 0.433993
vn 0.858781 0.228309 0.458662
vn 0.813504 0.0509618 0.579322
vn 0.0537659 -0.827624 0.558702
vn -0.557543 -0.828525 0.0518832
vn -0.253399 -0.240945 -0.936875
vn 0.0160952 -0.0191352 -0.999687
vn 0.346088 0.831183 -0.435153
vn 0.835136 0.371513 0.405618
vn -0.0512081 -0.198215 -0.97882
vn 0.369019 -0.786712 0.494882
vn 0.465869 0.638379 -0.612731
vn 0.886857 -0.00340613 0.462031
vn 0.741051 -0.511031 0.435536
g grp1
usemtl mtl1
f 4//4 1//1 6//6 
f 59//59 1//1 7//7 
f 7//7 1//1 5//5 
f 3//3 2//2 1//1 
f 3//3 1//1 4//4 
f 10//10 3//3 4//4 
f 62//62 57//57 11//11 
f 58//58 19//19 63//63 
f 5//5 26//26 7//7 
f 58//58 60//60 61//61 
f 61//61 19//19 58//58 
f 8//8 7//7 26//26 
f 26//26 24//24 8//8 
f 18//18 7//7 8//8 
f 8//8 24//24 18//18 
f 9//9 3//3 22//22 
f 22//22 10//10 23//23 
f 9//9 2//2 3//3 
f 21//21 2//2 9//9 
f 22//22 3//3 10//10 
f 10//10 64//64 23//23 
f 64//64 12//12 23//23 
f 64//64 14//14 12//12 
f 23//23 12//12 27//27 
f 14//14 27//27 12//12 
f 27//27 14//14 34//34 
f 34//34 14//14 15//15 
f 34//34 15//15 41//41 
f 1//1 2//2 21//21 
f 1//1 21//21 5//5 
f 13//13 63//63 19//19 
f 13//13 19//19 16//16 
f 65//65 63//63 13//13 
f 16//16 65//65 13//13 
f 20//20 66//66 68//68 
f 66//66 15//15 14//14 
f 15//15 17//17 41//41 
f 15//15 66//66 17//17 
f 17//17 20//20 41//41 
f 20//20 17//17 66//66 
f 19//19 61//61 67//67 
f 18//18 20//20 68//68 
f 21//21 29//29 36//36 
f 21//21 30//30 5//5 
f 30//30 26//26 5//5 
f 28//28 70//70 22//22 
f 22//22 23//23 28//28 
f 27//27 69//69 23//23 
f 21//21 74//74 30//30 
f 29//29 21//21 9//9 
f 70//70 9//9 22//22 
f 25//25 41//41 20//20 
f 24//24 26//26 33//33 
f 72//72 25//25 24//24 
f 25//25 18//18 24//24 
f 25//25 20//20 18//18 
f 35//35 70//70 28//28 
f 38//38 69//69 32//32 
f 74//74 31//31 30//30 
f 33//33 30//30 31//31 
f 40//40 72//72 71//71 
f 27//27 32//32 69//69 
f 27//27 34//34 32//32 
f 34//34 41//41 39//39 
f 38//38 32//32 34//34 
f 34//34 39//39 38//38 
f 33//33 26//26 30//30 
f 25//25 72//72 40//40 
f 35//35 28//28 37//37 
f 38//38 75//75 69//69 
f 29//29 73//73 36//36 
f 45//45 31//31 74//74 
f 79//79 40//40 71//71 
f 79//79 42//42 40//40 
f 41//41 42//42 39//39 
f 40//40 42//42 25//25 
f 42//42 41//41 25//25 
f 73//73 47//47 36//36 
f 42//42 79//79 43//43 
f 42//42 43//43 39//39 
f 44//44 75//75 38//38 
f 38//38 39//39 77//77 
f 78//78 39//39 43//43 
f 47//47 46//46 36//36 
f 80//80 45//45 74//74 
f 51//51 45//45 80//80 
f 82//82 48//48 81//81 
f 81//81 48//48 85//85 
f 53//53 54//54 82//82 
f 54//54 85//85 82//82 
f 85//85 48//48 82//82 
f 37//37 83//83 35//35 
f 56//56 78//78 43//43 
f 50//50 87//87 83//83 
f 50//50 83//83 37//37 
f 43//43 79//79 49//49 
f 86//86 49//49 79//79 
f 88//88 84//84 52//52 
f 76//76 78//78 84//84 
f 84//84 78//78 52//52 
f 56//56 49//49 86//86 
f 56//56 43//43 49//49 
f 88//88 52//52 55//55 
f 89//89 56//56 86//86 
f 55//55 78//78 56//56 
f 55//55 52//52 78//78 
f 89//89 88//88 56//56 
f 88//88 55//55 56//56 
