#
# The license for this database is specified in the Creative Commons Attribution-Share Alike 2.1 Japan. If you use data from this database, please be sure attribute this database as follows: "BodyParts3D, (c)  The Database Center for Life Science licensed under CC Attribution-Share Alike 2.1 Japan".
# http://dbarchive.biosciencedbc.jp/en/bodyparts3d/lic.html
#
#
# Compatibility version : 4.0
# File ID : FJ2889
# Representation ID : BP9412
# Build-up logic : FMA 3.0 part_of
# Concept ID : FMA8642
# English name : Left superior segmental artery
# Bounds(mm): (46.531100,-42.784600,1279.810100)-(54.341000,-40.194800,1290.880000)
# Volume(cm3): 0.040700
#
v 46.5311 -41.6552 1279.99
v 46.6052 -41.0085 1280.18
v 47.7319 -40.3702 1280.05
v 46.6567 -41.1584 1279.91
v 46.8654 -42.0998 1280.47
v 46.8321 -41.9086 1279.84
v 47.2038 -40.4268 1280.11
v 47.2521 -42.5989 1279.92
v 47.7844 -40.1948 1280.46
v 48.5371 -40.2719 1280.51
v 47.3247 -40.4054 1280.7
v 47.7436 -40.9852 1283.95
v 48.1425 -42.036 1284.65
v 48.9478 -42.5098 1279.81
v 49.4303 -42.3268 1280.41
v 49.3147 -41.3343 1280.02
v 49.5339 -40.9546 1280.57
v 49.6826 -41.6366 1280.37
v 48.7493 -42.7514 1280.54
v 49.7946 -40.6617 1283.69
v 49.3034 -42.7846 1284.68
v 49.9892 -40.7262 1286.63
v 48.9782 -41.6412 1286.42
v 49.5406 -42.4545 1286.5
v 50.1722 -41.8146 1287.89
v 50.2411 -41.4891 1287.96
v 50.3466 -42.2365 1284.03
v 50.5078 -41.2521 1284.25
v 51.2601 -40.8809 1286.76
v 50.7898 -42.6676 1286.49
v 51.5481 -42.2872 1286.69
v 51.8656 -41.5733 1286.93
v 51.5821 -41.6826 1289.37
v 51.5527 -42.0245 1289.2
v 51.8159 -41.3372 1289.46
v 52.8116 -42.0418 1288.42
v 53.2085 -41.4589 1288.99
v 52.5254 -40.9512 1289.32
v 53.3595 -41.1489 1290.51
v 53.7681 -41.391 1290.82
v 54.0154 -41.2096 1290.38
v 53.138 -41.8563 1290.74
v 53.1946 -41.5472 1290.81
v 53.4384 -42.2682 1290.44
v 53.6867 -41.8583 1290.88
v 53.7773 -42.2584 1290.23
v 54.341 -41.6825 1290.35
v 54.0026 -42.0288 1290.06
v 54.1761 -42.0959 1290.57
v 46.5311 -41.6552 1279.99
v 46.5311 -41.6552 1279.99
v 46.5311 -41.6552 1279.99
v 46.6052 -41.0085 1280.18
v 46.6052 -41.0085 1280.18
v 46.6052 -41.0085 1280.18
v 47.7319 -40.3702 1280.05
v 46.6567 -41.1584 1279.91
v 46.6567 -41.1584 1279.91
v 46.8321 -41.9086 1279.84
v 47.2038 -40.4268 1280.11
v 47.2038 -40.4268 1280.11
v 47.2521 -42.5989 1279.92
v 47.2521 -42.5989 1279.92
v 47.7436 -40.9852 1283.95
v 48.9478 -42.5098 1279.81
v 48.9478 -42.5098 1279.81
v 49.4303 -42.3268 1280.41
v 49.3147 -41.3343 1280.02
v 49.3034 -42.7846 1284.68
v 48.9782 -41.6412 1286.42
v 50.3466 -42.2365 1284.03
v 51.2601 -40.8809 1286.76
v 50.7898 -42.6676 1286.49
v 51.5481 -42.2872 1286.69
v 51.8656 -41.5733 1286.93
v 53.7681 -41.391 1290.82
v 53.7681 -41.391 1290.82
v 54.0154 -41.2096 1290.38
v 54.0154 -41.2096 1290.38
v 53.6867 -41.8583 1290.88
v 53.6867 -41.8583 1290.88
v 53.7773 -42.2584 1290.23
v 54.341 -41.6825 1290.35
v 54.1761 -42.0959 1290.57
v 54.1761 -42.0959 1290.57
vn -0.939084 0.191482 -0.285405
vn -0.939084 0.191482 -0.285405
vn -0.0463729 0.236699 -0.970476
vn -0.939084 0.191482 -0.285405
vn -0.795761 -0.583238 0.163089
vn -0.679728 -0.478095 -0.556232
vn -0.141659 0.358164 -0.922849
vn -0.679728 -0.478095 -0.556232
vn -0.135515 0.98558 -0.10133
vn 0.340177 0.881011 -0.328785
vn -0.505825 0.847839 0.159092
vn -0.586475 0.748878 0.308592
vn -0.826066 -0.460931 0.324281
vn 0.00349975 0.0372785 -0.999299
vn 0.507637 -0.852191 -0.126789
vn 0.592185 0.393785 -0.703029
vn 0.729895 0.587742 -0.349017
vn 0.896291 -0.0436614 -0.441312
vn 0.286664 -0.949239 -0.1295
vn 0.554416 0.818679 -0.149624
vn -0.343244 -0.92568 0.15906
vn -0.253472 0.930555 0.264234
vn -0.642143 0.602183 0.47437
vn -0.502561 -0.771603 0.38995
vn -0.725259 -0.263589 0.636019
vn -0.705359 0.337243 0.623487
vn 0.926411 -0.192959 -0.32331
vn 0.909305 0.307672 -0.280183
vn 0.158401 0.986718 -0.0360214
vn 0.499975 -0.812466 -0.299874
vn 0.847745 -0.210466 -0.486859
vn 0.859289 -0.126 -0.495729
vn -0.6942 -0.0163301 0.719597
vn -0.573809 -0.561218 0.596471
vn -0.570424 0.556912 0.60371
vn 0.773195 -0.338549 -0.53624
vn 0.771711 0.318487 -0.55048
vn 0.0440443 0.995622 0.0824479
vn -0.190054 0.861316 0.471184
vn -0.00785105 0.784453 0.620139
vn 0.708901 0.496884 -0.500566
vn -0.471811 -0.410244 0.780445
vn -0.421635 0.263409 0.867663
vn -0.134179 -0.891802 0.432071
vn -0.158056 -0.0237986 0.987143
vn 0.123224 -0.980773 0.151328
vn 0.831744 -0.0504091 -0.552866
vn 0.678536 -0.610905 -0.407903
vn 0.123504 -0.876834 0.464659
vn -0.679728 -0.478095 -0.556232
vn -0.463064 -0.0255181 -0.885958
vn -0.91821 -0.336857 0.208368
vn -0.645574 0.60879 -0.461096
vn -0.700271 0.694999 0.163083
vn -0.948106 -0.0783696 0.308144
vn 0.114396 0.843666 -0.52454
vn -0.100456 0.144338 -0.984416
vn -0.645574 0.60879 -0.461096
vn -0.173673 -0.0268379 -0.984438
vn -0.430195 0.899708 -0.0738806
vn -0.645574 0.60879 -0.461096
vn -0.446787 -0.894389 0.0211974
vn -0.0562209 -0.148736 -0.987278
vn -0.925537 -0.110506 0.362174
vn 0.276011 -0.932125 -0.234437
vn 0.728488 -0.195696 -0.656512
vn 0.85954 -0.338959 -0.38249
vn 0.051776 0.136276 -0.989317
vn 0.389313 -0.909778 -0.144011
vn -0.810851 -0.244295 0.531828
vn 0.444927 -0.881473 -0.158258
vn 0.731002 0.521516 -0.440066
vn -0.0885613 -0.983916 0.15513
vn 0.483695 -0.843317 -0.234213
vn 0.737672 0.563092 -0.372516
vn 0.652562 0.19854 0.731262
vn -0.0547554 0.139942 0.988645
vn 0.175592 0.972068 0.15573
vn 0.694146 0.441845 0.568273
vn -0.0689577 -0.713438 0.697317
vn 0.546234 0.0153766 0.837491
vn 0.549184 -0.772993 -0.317614
vn 0.692613 0.287381 0.661588
vn 0.693422 -0.645195 -0.320763
vn 0.610246 0.0697949 0.789132
g grp1
usemtl mtl1
f 4//4 1//1 2//2 
f 57//57 7//7 3//3 
f 56//56 60//60 9//9 
f 9//9 60//60 11//11 
f 56//56 10//10 16//16 
f 10//10 56//56 9//9 
f 6//6 8//8 50//50 
f 59//59 51//51 57//57 
f 62//62 5//5 52//52 
f 62//62 13//13 5//5 
f 14//14 57//57 68//68 
f 61//61 58//58 53//53 
f 13//13 52//52 5//5 
f 11//11 60//60 54//54 
f 59//59 57//57 14//14 
f 14//14 63//63 59//59 
f 57//57 3//3 68//68 
f 55//55 52//52 13//13 
f 11//11 54//54 12//12 
f 9//9 11//11 22//22 
f 22//22 11//11 12//12 
f 10//10 9//9 22//22 
f 22//22 20//20 10//10 
f 55//55 13//13 64//64 
f 22//22 12//12 23//23 
f 64//64 13//13 70//70 
f 65//65 19//19 62//62 
f 15//15 19//19 65//65 
f 67//67 66//66 18//18 
f 66//66 16//16 18//18 
f 18//18 27//27 67//67 
f 10//10 17//17 16//16 
f 16//16 17//17 18//18 
f 18//18 17//17 28//28 
f 27//27 18//18 28//28 
f 19//19 21//21 62//62 
f 71//71 19//19 15//15 
f 17//17 10//10 20//20 
f 20//20 28//28 17//17 
f 71//71 69//69 19//19 
f 13//13 62//62 21//21 
f 21//21 24//24 13//13 
f 71//71 30//30 69//69 
f 22//22 23//23 26//26 
f 13//13 24//24 70//70 
f 70//70 24//24 25//25 
f 24//24 21//21 73//73 
f 25//25 26//26 70//70 
f 26//26 25//25 33//33 
f 35//35 26//26 33//33 
f 28//28 32//32 27//27 
f 20//20 22//22 29//29 
f 27//27 32//32 31//31 
f 75//75 28//28 20//20 
f 20//20 72//72 75//75 
f 30//30 71//71 74//74 
f 36//36 30//30 74//74 
f 36//36 31//31 32//32 
f 26//26 35//35 22//22 
f 25//25 24//24 34//34 
f 25//25 34//34 33//33 
f 44//44 24//24 73//73 
f 44//44 34//34 24//24 
f 44//44 42//42 34//34 
f 39//39 22//22 35//35 
f 34//34 42//42 33//33 
f 22//22 39//39 38//38 
f 33//33 43//43 35//35 
f 33//33 42//42 43//43 
f 72//72 37//37 75//75 
f 32//32 37//37 36//36 
f 22//22 38//38 29//29 
f 39//39 35//35 43//43 
f 37//37 72//72 41//41 
f 38//38 78//78 29//29 
f 39//39 43//43 40//40 
f 78//78 38//38 39//39 
f 78//78 39//39 40//40 
f 36//36 48//48 30//30 
f 48//48 36//36 47//47 
f 47//47 36//36 37//37 
f 41//41 47//47 37//37 
f 83//83 79//79 76//76 
f 42//42 45//45 43//43 
f 43//43 45//45 77//77 
f 42//42 44//44 80//80 
f 44//44 73//73 46//46 
f 48//48 82//82 30//30 
f 46//46 49//49 44//44 
f 49//49 80//80 44//44 
f 48//48 84//84 82//82 
f 48//48 47//47 84//84 
f 85//85 83//83 76//76 
f 81//81 85//85 76//76 
