#
# The license for this database is specified in the Creative Commons Attribution-Share Alike 2.1 Japan. If you use data from this database, please be sure attribute this database as follows: "BodyParts3D, (c)  The Database Center for Life Science licensed under CC Attribution-Share Alike 2.1 Japan".
# http://dbarchive.biosciencedbc.jp/en/bodyparts3d/lic.html
#
#
# Compatibility version : 4.0
# File ID : FJ2882
# Representation ID : BP9615
# Build-up logic : FMA 3.0 part_of
# Concept ID : FMA8646
# English name : Left lateral basal segmental artery
# Bounds(mm): (103.645000,-60.294300,1144.939900)-(107.816000,-45.838400,1160.689900)
# Volume(cm3): 0.091800
#
v 105.41 -58.1909 1160.68
v 106.112 -57.7047 1160.69
v 106.482 -58.0836 1160.65
v 106.768 -57.472 1160.02
v 104.936 -58.6328 1159.64
v 105.04 -59.2035 1160.14
v 105.022 -58.9313 1158.98
v 106.917 -57.8216 1160.44
v 107.398 -57.795 1159.48
v 107.558 -58.6691 1160.1
v 105.593 -60.0755 1159.46
v 105.737 -59.8587 1158.9
v 107.74 -58.6814 1159.18
v 107.816 -59.2254 1159.54
v 107.609 -59.4961 1159.61
v 107.652 -58.8745 1158.75
v 107.729 -59.5412 1159.34
v 106.313 -59.9598 1159.52
v 106.348 -60.2943 1159.2
v 104.223 -52.4325 1152.06
v 106.171 -54.0068 1154.07
v 104.869 -56.217 1153.93
v 106.082 -56.4786 1154.13
v 103.999 -52.3914 1150.58
v 104.649 -52.0429 1149.22
v 106.299 -53.5455 1152.45
v 105.545 -52.5666 1150.08
v 106.21 -54.2669 1152.3
v 103.645 -45.9451 1145.28
v 104.98 -46.1598 1145.2
v 104.058 -45.8384 1145.85
v 103.672 -46.8584 1145.92
v 103.804 -46.4833 1144.94
v 105.41 -58.1909 1160.68
v 105.41 -58.1909 1160.68
v 106.112 -57.7047 1160.69
v 106.112 -57.7047 1160.69
v 104.936 -58.6328 1159.64
v 105.04 -59.2035 1160.14
v 105.04 -59.2035 1160.14
v 106.917 -57.8216 1160.44
v 107.558 -58.6691 1160.1
v 107.558 -58.6691 1160.1
v 107.558 -58.6691 1160.1
v 105.593 -60.0755 1159.46
v 107.816 -59.2254 1159.54
v 107.729 -59.5412 1159.34
v 106.348 -60.2943 1159.2
v 106.348 -60.2943 1159.2
v 104.223 -52.4325 1152.06
v 104.223 -52.4325 1152.06
v 104.223 -52.4325 1152.06
v 106.171 -54.0068 1154.07
v 104.649 -52.0429 1149.22
v 103.645 -45.9451 1145.28
v 103.645 -45.9451 1145.28
v 104.98 -46.1598 1145.2
v 104.98 -46.1598 1145.2
v 104.98 -46.1598 1145.2
v 104.98 -46.1598 1145.2
v 104.98 -46.1598 1145.2
v 104.058 -45.8384 1145.85
v 104.058 -45.8384 1145.85
v 104.058 -45.8384 1145.85
v 103.804 -46.4833 1144.94
v 103.804 -46.4833 1144.94
vn -0.48773 0.693421 0.530364
vn -0.48773 0.693421 0.530364
vn 0.216664 -0.195998 0.956369
vn 0.452402 0.775712 0.440003
vn -0.920633 0.206533 0.33133
vn -0.922332 0.146284 0.357638
vn -0.954223 -0.289218 -0.0762288
vn 0.384106 0.0930375 0.91859
vn 0.812271 0.518841 0.266494
vn 0.444566 -0.0258731 0.895373
vn 0.0377675 -0.64865 0.760149
vn -0.422213 -0.781626 -0.459125
vn 0.982319 0.187166 0.00436955
vn 0.994493 0.0526832 -0.0905978
vn 0.46305 -0.611376 0.64172
vn 0.964543 -0.0729648 -0.253638
vn 0.809267 -0.391182 -0.438251
vn 0.106191 -0.575763 0.810691
vn 0.229651 -0.758285 0.610134
vn -0.48773 0.693421 0.530364
vn 0.479373 0.750888 0.454278
vn -0.532474 -0.696905 -0.480412
vn 0.342589 -0.692045 -0.635379
vn -0.943893 -0.274368 -0.183815
vn 0.240233 -0.638391 -0.731262
vn 0.97906 0.198607 -0.0446773
vn 0.554758 -0.523207 -0.646914
vn 0.867176 -0.275047 -0.415158
vn -0.978154 0.128371 0.163508
vn 0.364068 -0.53934 -0.75932
vn -0.197947 0.66938 0.716064
vn -0.997748 -0.0629072 -0.0232692
vn -0.904204 -0.301129 -0.30288
vn -0.920633 0.206533 0.33133
vn 0.0786014 -0.372614 0.924652
vn 0.179796 0.0707771 0.981154
vn 0.222747 0.833905 0.504961
vn -0.980636 -0.191321 -0.041826
vn 0.0730546 -0.553807 0.829434
vn -0.935642 -0.346588 -0.0667198
vn 0.59905 0.660912 0.452034
vn 0.904866 0.335606 0.261889
vn 0.137209 -0.510614 0.848792
vn 0.658148 -0.3554 0.663726
vn -0.687707 -0.656847 -0.309211
vn 0.717138 -0.425946 0.551618
vn 0.611977 -0.68571 0.394064
vn 0.441066 -0.705722 -0.554452
vn -0.257507 -0.814339 -0.520136
vn -0.914952 0.26589 0.303589
vn -0.000784931 0.786913 0.617063
vn -0.977905 0.0942121 0.186618
vn 0.576375 0.648918 0.496686
vn -0.709049 -0.522853 -0.473153
vn 0.036718 0.541556 -0.839863
vn 0.136365 0.951179 -0.276881
vn 0.036718 0.541556 -0.839863
vn 0.928767 0.330548 0.167718
vn 0.576375 0.648918 0.496686
vn 0.136365 0.951179 -0.276881
vn 0.915341 -0.177619 -0.361388
vn 0.576375 0.648918 0.496686
vn 0.136365 0.951179 -0.276881
vn -0.767706 0.429024 0.475989
vn 0.036718 0.541556 -0.839863
vn 0.321323 -0.54652 -0.773348
g grp1
usemtl mtl1
f 2//2 20//20 1//1 
f 5//5 6//6 34//34 
f 18//18 35//35 39//39 
f 36//36 35//35 3//3 
f 35//35 18//18 3//3 
f 21//21 37//37 4//4 
f 3//3 8//8 36//36 
f 37//37 41//41 4//4 
f 5//5 34//34 50//50 
f 4//4 41//41 9//9 
f 21//21 4//4 9//9 
f 38//38 7//7 40//40 
f 10//10 8//8 3//3 
f 42//42 9//9 41//41 
f 3//3 18//18 43//43 
f 37//37 21//21 51//51 
f 21//21 9//9 26//26 
f 13//13 26//26 9//9 
f 26//26 13//13 16//16 
f 39//39 11//11 18//18 
f 45//45 40//40 7//7 
f 42//42 13//13 9//9 
f 15//15 43//43 18//18 
f 14//14 13//13 42//42 
f 46//46 44//44 15//15 
f 14//14 16//16 13//13 
f 16//16 14//14 17//17 
f 47//47 46//46 15//15 
f 47//47 15//15 19//19 
f 18//18 19//19 15//15 
f 17//17 48//48 23//23 
f 18//18 11//11 19//19 
f 45//45 12//12 49//49 
f 52//52 24//24 7//7 
f 7//7 24//24 22//22 
f 7//7 38//38 52//52 
f 45//45 7//7 22//22 
f 45//45 22//22 12//12 
f 22//22 49//49 12//12 
f 16//16 28//28 26//26 
f 28//28 17//17 23//23 
f 16//16 17//17 28//28 
f 21//21 31//31 51//51 
f 29//29 32//32 52//52 
f 32//32 24//24 52//52 
f 27//27 23//23 25//25 
f 30//30 27//27 25//25 
f 24//24 54//54 22//22 
f 22//22 25//25 23//23 
f 23//23 49//49 22//22 
f 28//28 23//23 27//27 
f 29//29 33//33 32//32 
f 57//57 65//65 55//55 
f 58//58 21//21 26//26 
f 59//59 62//62 53//53 
f 63//63 60//60 56//56 
f 26//26 28//28 61//61 
f 29//29 52//52 64//64 
f 25//25 66//66 30//30 
f 24//24 32//32 33//33 
f 24//24 33//33 54//54 
f 61//61 28//28 27//27 
