#
# The license for this database is specified in the Creative Commons Attribution-Share Alike 2.1 Japan. If you use data from this database, please be sure attribute this database as follows: "BodyParts3D, (c)  The Database Center for Life Science licensed under CC Attribution-Share Alike 2.1 Japan".
# http://dbarchive.biosciencedbc.jp/en/bodyparts3d/lic.html
#
#
# Compatibility version : 4.0
# File ID : FJ2046
# Representation ID : BP6930
# Build-up logic : FMA 3.0 part_of
# Concept ID : FMA14753
# English name : Left renal artery
# Bounds(mm): (3.604000,-120.366300,1036.392200)-(39.461200,-96.756900,1049.791300)
# Volume(cm3): 2.288900
#
v 4.58143 -119.172 1039.78
v 4.60401 -119.035 1038.66
v 4.06155 -118.366 1039.33
v 4.35153 -118.162 1038.28
v 3.79169 -117.5 1040.08
v 3.85763 -117.455 1038.96
v 4.1587 -117.067 1038.36
v 3.87672 -116.897 1038.82
v 5.50269 -119.927 1039.91
v 5.53215 -119.823 1038.76
v 4.58942 -118.555 1041.05
v 5.38151 -118.653 1037.76
v 4.88157 -117.605 1037.76
v 3.65124 -116.645 1039.66
v 3.6509 -116.308 1040.27
v 4.06115 -116.335 1038.67
v 3.71815 -116.085 1039.53
v 3.90992 -115.489 1039.41
v 3.80365 -115.275 1039.96
v 6.39964 -120.266 1039.8
v 5.87083 -119.499 1041.77
v 6.62467 -120.122 1041.14
v 7.59899 -120.307 1039.77
v 7.70989 -120.172 1041.66
v 9.40719 -119.924 1041.72
v 9.70858 -119.718 1040.27
v 7.19228 -118.572 1037.56
v 6.59794 -120.098 1038.74
v 6.54351 -119.731 1038.16
v 7.90373 -119.702 1038.53
v 4.17768 -116.516 1042.14
v 4.10221 -115.232 1042.34
v 5.4453 -115.015 1045.4
v 5.31813 -113.59 1044.97
v 6.47327 -116.232 1046.73
v 5.02761 -116.145 1037.91
v 4.56916 -115.348 1038.61
v 6.34547 -116.274 1037.4
v 5.2396 -113.632 1039.38
v 6.97091 -113.486 1038.35
v 3.94346 -114.625 1041.38
v 4.28046 -114.401 1039.79
v 4.194 -113.957 1041.25
v 4.38625 -113.863 1042.54
v 4.89046 -113.318 1040.32
v 5.4761 -112.174 1042.31
v 8.63767 -118.596 1046.66
v 7.52538 -117.343 1047.38
v 8.51606 -117.165 1048.58
v 7.96292 -115.51 1048.87
v 10.0323 -118.397 1047.57
v 9.6432 -117.692 1048.68
v 9.41567 -116.441 1049.44
v 10.8384 -117.697 1048.59
v 9.33971 -115.154 1049.65
v 10.6899 -116.711 1049.37
v 10.0845 -115.556 1049.75
v 6.29604 -114.15 1046.94
v 7.92059 -113.788 1048.73
v 9.63056 -113.052 1049.35
v 10.2817 -113.956 1037.27
v 9.84121 -111.633 1038.72
v 7.42126 -111.488 1040.56
v 8.43284 -110.11 1043.79
v 6.21929 -111.595 1044.67
v 6.94123 -111.863 1046.68
v 8.18447 -110.687 1046.68
v 14.4155 -117.65 1041.64
v 12.3858 -117.894 1046.86
v 15.2523 -115.288 1047.34
v 10.1712 -114.384 1049.74
v 11.3862 -115.145 1049.59
v 12.5614 -116.362 1048.7
v 15.8344 -115.474 1038.36
v 9.11104 -111.427 1048.31
v 12.1815 -112.829 1049.18
v 12.017 -111.276 1048.63
v 10.6103 -110.09 1047.53
v 10.8405 -109.199 1045.69
v 17.074 -115.38 1045.74
v 15.7538 -113.735 1047.76
v 18.4799 -113.671 1046.29
v 20.1875 -111.072 1037.38
v 19.2632 -109.418 1037.77
v 17.5398 -107.756 1040
v 15.9897 -107.386 1043.44
v 18.7293 -109.183 1046.82
v 20.1673 -111.103 1046.54
v 17.1766 -107.767 1045.67
v 27.4119 -111.802 1042.43
v 25.6743 -112.63 1039.81
v 24.933 -107.635 1037.25
v 22.1224 -104.56 1042.01
v 21.4673 -105.667 1044.96
v 23.0586 -105.203 1039.24
v 30.3046 -108.375 1037.97
v 29.9877 -109.01 1043.62
v 31.9644 -109.093 1040.87
v 29.119 -101.562 1044.41
v 33.0594 -102.307 1036.55
v 31.8915 -100.248 1037.56
v 31.1162 -98.7646 1040.04
v 29.1591 -100.284 1043.25
v 30.862 -98.667 1041.76
v 36.296 -103.914 1038.04
v 37.8305 -101.544 1038.01
v 37.8547 -101.028 1039.05
v 38.4007 -102.755 1038.94
v 38.4425 -102.198 1038.4
v 38.392 -101.702 1038.29
v 38.1193 -101.205 1038.54
v 36.263 -103.045 1043.5
v 37.6617 -103.379 1042.06
v 33.1552 -102.163 1044.64
v 36.2751 -100.399 1043.71
v 34.6333 -100.24 1036.9
v 35.9724 -102.164 1036.93
v 35.8329 -100.235 1037.5
v 37.3605 -100.995 1038.21
v 33.8128 -98.8826 1037.89
v 33.1616 -98.1184 1038.95
v 34.4182 -98.792 1038.13
v 34.9683 -98.6844 1039.33
v 33.9369 -97.5724 1039.43
v 33.2749 -97.1285 1040.99
v 33.8359 -96.9735 1040.48
v 34.7948 -97.513 1040.48
v 34.7454 -96.9048 1041.43
v 34.4581 -96.762 1040.7
v 35.9912 -99.4881 1042.16
v 32.2153 -98.9392 1043.78
v 32.5884 -97.7538 1042.52
v 34.2014 -98.8396 1044.03
v 33.9963 -97.5537 1043.14
v 34.1142 -96.8368 1041.71
v 35.3737 -98.3797 1042.64
v 34.7365 -97.5513 1042.81
v 39.0093 -102.031 1038.51
v 38.9204 -101.603 1038.25
v 39.4612 -101.801 1038.68
v 39.2709 -101.13 1039.03
v 37.9064 -101.154 1042.43
v 38.8464 -102.608 1040.99
v 38.6171 -102.158 1042.06
v 38.654 -101.165 1040.57
v 39.3721 -101.401 1040.85
v 37.8305 -101.544 1038.01
v 38.392 -101.702 1038.29
v 38.392 -101.702 1038.29
v 38.1193 -101.205 1038.54
v 38.1193 -101.205 1038.54
v 35.8329 -100.235 1037.5
v 34.7454 -96.9048 1041.43
v 34.4581 -96.762 1040.7
v 38.9204 -101.603 1038.25
v 38.9204 -101.603 1038.25
v 38.9204 -101.603 1038.25
v 39.4612 -101.801 1038.68
v 39.4612 -101.801 1038.68
v 39.2709 -101.13 1039.03
v 39.2709 -101.13 1039.03
v 37.9064 -101.154 1042.43
v 37.9064 -101.154 1042.43
v 39.3721 -101.401 1040.85
v 39.3721 -101.401 1040.85
v 39.3721 -101.401 1040.85
vn -0.730242 -0.676469 0.0955854
vn -0.705604 -0.591736 -0.389835
vn -0.907005 -0.416909 -0.0594046
vn -0.761075 -0.278853 -0.585667
vn -0.957372 -0.260094 0.12566
vn -0.942487 -0.169228 -0.288237
vn -0.753622 0.0403986 -0.656066
vn -0.915076 0.0496414 -0.400214
vn -0.494504 -0.861759 0.113303
vn -0.43597 -0.829117 -0.349993
vn -0.801319 -0.487475 0.34678
vn -0.338793 -0.386014 -0.858028
vn -0.470999 -0.0249013 -0.881782
vn -0.992257 -0.0391028 -0.117887
vn -0.994913 0.00817783 0.100408
vn -0.783301 0.232097 -0.576689
vn -0.955859 0.154229 -0.250095
vn -0.843165 0.330591 -0.424008
vn -0.945638 0.290442 -0.146325
vn -0.189781 -0.981672 -0.0174332
vn -0.567165 -0.740236 0.361074
vn -0.300969 -0.918362 0.256961
vn 0.153044 -0.977681 -0.143934
vn -0.0224283 -0.981141 0.191989
vn 0.279046 -0.956343 0.0868413
vn 0.386541 -0.886509 -0.254337
vn 0.0812365 -0.315747 -0.945359
vn -0.0279615 -0.929345 -0.368153
vn -0.0542336 -0.688287 -0.723408
vn 0.277814 -0.77152 -0.572342
vn -0.904985 -0.228915 0.358608
vn -0.949722 0.0290738 0.311741
vn -0.888802 -0.0782258 0.451567
vn -0.888739 0.235019 0.393585
vn -0.808202 -0.283375 0.516244
vn -0.493121 0.270797 -0.826741
vn -0.619476 0.426091 -0.659315
vn -0.200742 0.104406 -0.974065
vn -0.546044 0.62582 -0.556943
vn -0.357489 0.527798 -0.770474
vn -0.970507 0.216511 0.106017
vn -0.777244 0.498579 -0.383811
vn -0.869708 0.488656 -0.0694532
vn -0.904858 0.373866 0.203609
vn -0.667058 0.676459 -0.312148
vn -0.689565 0.71996 -0.0784723
vn -0.328964 -0.839592 0.432282
vn -0.661346 -0.540217 0.520372
vn -0.497991 -0.548726 0.671495
vn -0.64958 -0.17346 0.740241
vn 0.0815992 -0.926034 0.368513
vn -0.151328 -0.711128 0.686584
vn -0.273738 -0.349857 0.895917
vn 0.262471 -0.739923 0.619373
vn -0.336548 0.0172699 0.941508
vn 0.155203 -0.432243 0.888301
vn -0.0126692 -0.140157 0.990048
vn -0.818446 0.0692645 0.570393
vn -0.587696 0.231662 0.775207
vn -0.200614 0.320281 0.925837
vn -0.0671051 0.153184 -0.985917
vn -0.277086 0.653538 -0.704352
vn -0.433241 0.801374 -0.412433
vn -0.441641 0.89405 -0.0750203
vn -0.73211 0.649794 0.204407
vn -0.717214 0.461335 0.522278
vn -0.495342 0.790672 0.359825
vn 0.424775 -0.904298 -0.0425682
vn 0.421625 -0.846419 0.32528
vn 0.512027 -0.477117 0.714275
vn -0.00944186 0.12387 0.992254
vn 0.28544 -0.0981713 0.953355
vn 0.476736 -0.491041 0.72911
vn 0.286287 -0.596068 -0.750162
vn -0.383507 0.556794 0.736819
vn 0.205951 0.157041 0.965879
vn -0.0131024 0.521837 0.852945
vn -0.219514 0.774696 0.593009
vn -0.313207 0.919243 0.238524
vn 0.478274 -0.707798 0.51988
vn 0.436722 -0.242212 0.866376
vn 0.417341 -0.424611 0.80345
vn 0.034899 -0.101413 -0.994232
vn -0.210052 0.450503 -0.867712
vn -0.366358 0.814773 -0.449362
vn -0.357455 0.93239 0.0536216
vn 0.0304699 0.374916 0.926558
vn 0.323706 -0.154896 0.933392
vn -0.160301 0.791755 0.58943
vn 0.475892 -0.839837 0.261154
vn 0.419191 -0.838543 -0.348029
vn -0.146738 0.158124 -0.976455
vn -0.502102 0.856702 -0.118131
vn -0.369229 0.77823 0.507964
vn -0.426437 0.646976 -0.632118
vn 0.283026 -0.477216 -0.831962
vn 0.460561 -0.549107 0.697399
vn 0.617678 -0.784442 -0.0558935
vn -0.194765 0.475926 0.857648
vn -0.0299429 0.0293397 -0.999121
vn -0.354364 0.514036 -0.781149
vn -0.525944 0.775036 -0.350289
vn -0.438089 0.739068 0.511719
vn -0.542696 0.83335 0.104919
vn 0.508131 -0.588696 -0.628681
vn 0.451125 0.0286893 -0.891999
vn 0.246596 0.963453 -0.104635
vn 0.574917 -0.716328 -0.395404
vn 0.382435 -0.382935 -0.840895
vn 0.195083 -0.198705 -0.960447
vn 0.471321 0.605159 -0.641592
vn 0.46674 -0.293358 0.834323
vn 0.631803 -0.604693 0.484944
vn 0.208855 -0.0453844 0.976893
vn 0.632954 0.333435 0.698706
vn 0.115497 0.436689 -0.892168
vn 0.366276 -0.0833647 -0.926764
vn 0.539974 0.554648 -0.633083
vn 0.4818 0.777005 -0.405132
vn -0.0728831 0.680134 -0.729456
vn -0.348641 0.750843 -0.560967
vn 0.468224 0.675651 -0.56944
vn 0.752695 0.612512 -0.241411
vn -0.0191216 0.807509 -0.589545
vn -0.469568 0.882165 -0.0359253
vn -0.334021 0.893136 -0.301228
vn 0.867802 0.434898 -0.240381
vn 0.893168 0.44778 -0.0417665
vn 0.0069415 0.962006 -0.272939
vn 0.813659 0.580592 0.0295203
vn -0.293357 0.617897 0.729482
vn -0.436311 0.826698 0.35525
vn 0.129814 0.401131 0.906776
vn -0.0578118 0.763808 0.642849
vn -0.110526 0.967859 0.225907
vn 0.87371 0.474144 0.108708
vn 0.503531 0.688332 0.522164
vn 0.422845 -0.566947 -0.706947
vn 0.261088 -0.359363 -0.89593
vn 0.714945 -0.613484 -0.335397
vn 0.155141 0.971078 -0.181488
vn 0.683154 0.72936 0.0365439
vn 0.783015 -0.603191 0.151818
vn 0.742511 -0.172298 0.647295
vn 0.179778 0.98042 0.0803572
vn 0.90288 -0.367807 0.222544
vn 0.502852 0.625473 -0.596593
vn 0.488304 0.59119 -0.641914
vn -0.134545 0.385785 -0.912725
vn 0.197803 0.91569 -0.349837
vn -0.134545 0.385785 -0.912725
vn 0.495406 0.829409 -0.258174
vn 0.219679 0.936823 0.272218
vn 0.827295 0.464474 -0.315985
vn -0.134545 0.385785 -0.912725
vn 0.190232 0.796265 -0.574259
vn 0.645944 0.484422 -0.589993
vn 0.645944 0.484422 -0.589993
vn 0.960365 0.278497 -0.0117964
vn 0.645944 0.484422 -0.589993
vn 0.960365 0.278497 -0.0117964
vn 0.242307 0.968519 0.0570764
vn 0.695031 0.241934 0.677052
vn 0.960365 0.278497 -0.0117964
vn 0.270076 0.955787 0.116321
vn 0.724768 0.280604 0.629263
g grp1
usemtl mtl1
f 10//10 20//20 9//9 
f 9//9 21//21 1//1 
f 9//9 1//1 10//10 
f 10//10 2//2 12//12 
f 10//10 1//1 2//2 
f 12//12 2//2 4//4 
f 1//1 3//3 2//2 
f 1//1 11//11 3//3 
f 11//11 5//5 3//3 
f 2//2 3//3 4//4 
f 3//3 6//6 4//4 
f 3//3 5//5 6//6 
f 5//5 14//14 6//6 
f 7//7 13//13 4//4 
f 7//7 4//4 6//6 
f 6//6 8//8 7//7 
f 6//6 14//14 8//8 
f 7//7 8//8 16//16 
f 36//36 7//7 16//16 
f 10//10 12//12 29//29 
f 21//21 11//11 1//1 
f 21//21 48//48 11//11 
f 12//12 13//13 38//38 
f 4//4 13//13 12//12 
f 5//5 15//15 14//14 
f 13//13 7//7 36//36 
f 17//17 16//16 8//8 
f 14//14 17//17 8//8 
f 14//14 15//15 17//17 
f 28//28 10//10 29//29 
f 29//29 12//12 27//27 
f 12//12 38//38 27//27 
f 15//15 19//19 17//17 
f 11//11 31//31 5//5 
f 15//15 5//5 31//31 
f 15//15 41//41 19//19 
f 36//36 16//16 37//37 
f 16//16 17//17 18//18 
f 37//37 16//16 18//18 
f 19//19 18//18 17//17 
f 42//42 18//18 19//19 
f 9//9 22//22 21//21 
f 20//20 10//10 28//28 
f 24//24 20//20 23//23 
f 20//20 24//24 22//22 
f 9//9 20//20 22//22 
f 21//21 22//22 47//47 
f 23//23 20//20 28//28 
f 22//22 24//24 47//47 
f 24//24 23//23 25//25 
f 24//24 25//25 51//51 
f 25//25 23//23 26//26 
f 26//26 23//23 30//30 
f 26//26 68//68 25//25 
f 74//74 26//26 30//30 
f 51//51 47//47 24//24 
f 29//29 27//27 30//30 
f 74//74 30//30 27//27 
f 27//27 38//38 61//61 
f 13//13 36//36 38//38 
f 30//30 28//28 29//29 
f 23//23 28//28 30//30 
f 48//48 35//35 11//11 
f 35//35 31//31 11//11 
f 32//32 15//15 31//31 
f 41//41 15//15 32//32 
f 35//35 33//33 31//31 
f 33//33 32//32 31//31 
f 33//33 34//34 32//32 
f 44//44 32//32 34//34 
f 33//33 58//58 34//34 
f 35//35 58//58 33//33 
f 42//42 37//37 18//18 
f 39//39 37//37 42//42 
f 40//40 38//38 36//36 
f 39//39 40//40 37//37 
f 40//40 36//36 37//37 
f 40//40 61//61 38//38 
f 39//39 63//63 40//40 
f 63//63 39//39 45//45 
f 44//44 41//41 32//32 
f 41//41 43//43 19//19 
f 44//44 43//43 41//41 
f 19//19 43//43 42//42 
f 42//42 45//45 39//39 
f 43//43 45//45 42//42 
f 43//43 46//46 45//45 
f 46//46 43//43 44//44 
f 45//45 46//46 63//63 
f 44//44 65//65 46//46 
f 65//65 44//44 34//34 
f 68//68 69//69 25//25 
f 68//68 26//26 74//74 
f 69//69 51//51 25//25 
f 47//47 48//48 21//21 
f 47//47 49//49 48//48 
f 35//35 48//48 50//50 
f 49//49 50//50 48//48 
f 52//52 47//47 51//51 
f 52//52 49//49 47//47 
f 53//53 49//49 52//52 
f 53//53 50//50 49//49 
f 69//69 54//54 51//51 
f 52//52 51//51 54//54 
f 50//50 53//53 55//55 
f 54//54 56//56 52//52 
f 52//52 56//56 53//53 
f 55//55 59//59 50//50 
f 57//57 55//55 53//53 
f 56//56 57//57 53//53 
f 55//55 57//57 71//71 
f 58//58 35//35 50//50 
f 50//50 59//59 58//58 
f 58//58 66//66 34//34 
f 66//66 58//58 59//59 
f 59//59 75//75 66//66 
f 75//75 59//59 60//60 
f 71//71 60//60 55//55 
f 60//60 59//59 55//55 
f 75//75 67//67 66//66 
f 67//67 75//75 78//78 
f 40//40 63//63 62//62 
f 40//40 62//62 61//61 
f 62//62 63//63 85//85 
f 61//61 62//62 84//84 
f 84//84 62//62 85//85 
f 63//63 46//46 64//64 
f 85//85 63//63 64//64 
f 86//86 85//85 64//64 
f 34//34 66//66 65//65 
f 65//65 67//67 64//64 
f 66//66 67//67 65//65 
f 64//64 46//46 65//65 
f 68//68 80//80 69//69 
f 80//80 73//73 69//69 
f 80//80 70//70 73//73 
f 70//70 81//81 73//73 
f 69//69 73//73 54//54 
f 73//73 56//56 54//54 
f 72//72 57//57 56//56 
f 57//57 72//72 71//71 
f 56//56 73//73 72//72 
f 81//81 72//72 73//73 
f 72//72 76//76 71//71 
f 81//81 76//76 72//72 
f 74//74 27//27 61//61 
f 68//68 74//74 91//91 
f 77//77 75//75 60//60 
f 76//76 60//60 71//71 
f 76//76 77//77 60//60 
f 78//78 75//75 77//77 
f 87//87 77//77 76//76 
f 86//86 64//64 79//79 
f 67//67 78//78 79//79 
f 79//79 64//64 67//67 
f 89//89 79//79 78//78 
f 90//90 80//80 68//68 
f 82//82 81//81 70//70 
f 70//70 80//80 82//82 
f 88//88 81//81 82//82 
f 81//81 88//88 76//76 
f 87//87 89//89 77//77 
f 88//88 87//87 76//76 
f 77//77 89//89 78//78 
f 74//74 61//61 83//83 
f 61//61 84//84 83//83 
f 89//89 86//86 79//79 
f 91//91 90//90 68//68 
f 95//95 84//84 85//85 
f 74//74 83//83 96//96 
f 96//96 83//83 92//92 
f 92//92 83//83 84//84 
f 84//84 95//95 92//92 
f 93//93 85//85 86//86 
f 94//94 93//93 86//86 
f 94//94 86//86 89//89 
f 97//97 82//82 80//80 
f 90//90 97//97 80//80 
f 74//74 96//96 91//91 
f 114//114 88//88 82//82 
f 104//104 93//93 94//94 
f 99//99 94//94 87//87 
f 94//94 89//89 87//87 
f 95//95 85//85 93//93 
f 91//91 96//96 98//98 
f 96//96 105//105 98//98 
f 98//98 90//90 91//91 
f 98//98 97//97 90//90 
f 114//114 82//82 97//97 
f 87//87 88//88 114//114 
f 97//97 112//112 114//114 
f 96//96 92//92 100//100 
f 94//94 99//99 103//103 
f 99//99 87//87 114//114 
f 94//94 103//103 104//104 
f 98//98 108//108 143//143 
f 108//108 98//98 105//105 
f 105//105 96//96 117//117 
f 101//101 92//92 95//95 
f 96//96 100//100 117//117 
f 101//101 100//100 92//92 
f 101//101 95//95 102//102 
f 95//95 93//93 102//102 
f 102//102 93//93 104//104 
f 121//121 101//101 102//102 
f 131//131 103//103 99//99 
f 108//108 105//105 109//109 
f 117//117 109//109 105//105 
f 110//110 109//109 106//106 
f 119//119 111//111 147//147 
f 111//111 148//148 147//147 
f 119//119 107//107 150//150 
f 109//109 138//138 108//108 
f 138//138 109//109 139//139 
f 139//139 109//109 110//110 
f 155//155 149//149 151//151 
f 98//98 113//113 97//97 
f 113//113 112//112 97//97 
f 144//144 115//115 112//112 
f 142//142 130//130 115//115 
f 113//113 144//144 112//112 
f 162//162 145//145 107//107 
f 114//114 133//133 99//99 
f 131//131 99//99 133//133 
f 114//114 112//112 115//115 
f 133//133 114//114 115//115 
f 116//116 100//100 101//101 
f 120//120 116//116 101//101 
f 118//118 117//117 116//116 
f 116//116 117//117 100//100 
f 122//122 118//118 116//116 
f 116//116 120//120 122//122 
f 117//117 106//106 109//109 
f 117//117 118//118 106//106 
f 107//107 152//152 162//162 
f 119//119 147//147 152//152 
f 107//107 119//119 152//152 
f 120//120 101//101 121//121 
f 121//121 102//102 126//126 
f 124//124 122//122 120//120 
f 120//120 121//121 124//124 
f 102//102 104//104 125//125 
f 124//124 121//121 126//126 
f 142//142 118//118 123//123 
f 118//118 122//122 123//123 
f 123//123 122//122 127//127 
f 122//122 124//124 129//129 
f 129//129 124//124 126//126 
f 102//102 125//125 126//126 
f 123//123 130//130 142//142 
f 136//136 130//130 127//127 
f 130//130 123//123 127//127 
f 127//127 122//122 154//154 
f 135//135 129//129 126//126 
f 135//135 126//126 125//125 
f 136//136 127//127 128//128 
f 129//129 135//135 153//153 
f 154//154 128//128 127//127 
f 130//130 136//136 115//115 
f 132//132 104//104 103//103 
f 134//134 132//132 131//131 
f 131//131 132//132 103//103 
f 125//125 104//104 132//132 
f 131//131 133//133 134//134 
f 134//134 135//135 132//132 
f 135//135 125//125 132//132 
f 137//137 133//133 115//115 
f 133//133 137//137 134//134 
f 137//137 135//135 134//134 
f 115//115 136//136 137//137 
f 153//153 135//135 137//137 
f 128//128 137//137 136//136 
f 108//108 138//138 140//140 
f 108//108 140//140 143//143 
f 140//140 138//138 139//139 
f 141//141 107//107 145//145 
f 141//141 156//156 150//150 
f 150//150 107//107 141//141 
f 143//143 140//140 146//146 
f 157//157 160//160 158//158 
f 159//159 161//161 164//164 
f 141//141 145//145 165//165 
f 98//98 143//143 113//113 
f 144//144 163//163 115//115 
f 144//144 113//113 143//143 
f 166//166 163//163 144//144 
f 165//165 145//145 162//162 
f 143//143 146//146 144//144 
