#
# The license for this database is specified in the Creative Commons Attribution-Share Alike 2.1 Japan. If you use data from this database, please be sure attribute this database as follows: "BodyParts3D, (c)  The Database Center for Life Science licensed under CC Attribution-Share Alike 2.1 Japan".
# http://dbarchive.biosciencedbc.jp/en/bodyparts3d/lic.html
#
#
# Compatibility version : 4.0
# File ID : FJ2886
# Representation ID : BP9878
# Build-up logic : FMA 3.0 part_of
# Concept ID : FMA8645
# English name : Left anterior basal segmental artery
# Bounds(mm): (109.383000,-99.608400,1137.420000)-(125.432000,-94.216200,1174.460000)
# Volume(cm3): 0.207200
#
v 109.796 -94.8932 1172.86
v 110.881 -94.6789 1171.64
v 110.853 -94.2162 1173.46
v 109.991 -96.0458 1171.64
v 109.383 -95.9247 1173.04
v 109.575 -96.8847 1173.12
v 111.498 -94.2366 1173.44
v 112.47 -94.7895 1173.33
v 111.019 -94.6813 1173.62
v 111.952 -94.7173 1174.03
v 110.444 -97.2133 1171.45
v 110.329 -97.4675 1172.6
v 110.286 -97.5183 1173.62
v 110.858 -97.7201 1172.83
v 112.804 -95.3333 1173.57
v 112.532 -95.5726 1174.39
v 112.108 -97.8653 1171.97
v 112.61 -97.4961 1172.65
v 111.861 -97.3417 1174.29
v 113.154 -95.7733 1172.99
v 113.208 -96.3434 1172.9
v 112.406 -96.7004 1174.46
v 115.683 -95.7324 1163
v 115.55 -95.6397 1165.19
v 115.317 -97.9453 1160.18
v 116.649 -96.4448 1164.02
v 119.381 -97.0148 1155.1
v 117.535 -97.5229 1155.27
v 117.945 -97.0504 1155.43
v 117.779 -99.255 1156.07
v 120.864 -97.2509 1149.87
v 119.347 -97.7204 1151.06
v 119.889 -98.6198 1149.11
v 120.756 -97.9932 1153.54
v 121.01 -97.622 1152.11
v 118.733 -99.2452 1152.98
v 119.882 -99.5868 1151.3
v 119.525 -97.1626 1155.72
v 119.341 -98.6706 1157.09
v 119.77 -99.3828 1154.45
v 119.244 -99.5797 1154.12
v 119.45 -98.1477 1157.25
v 121.982 -96.9626 1145.99
v 121.377 -97.4441 1145.3
v 122.56 -98.9881 1145.2
v 122.446 -97.2529 1147.01
v 120.749 -98.947 1147.39
v 121.39 -99.2467 1147.03
v 121.992 -97.6646 1149.27
v 122.209 -99.1948 1147.59
v 122.841 -97.9004 1147.25
v 120.731 -99.6084 1150.93
v 121.786 -99.0979 1149.99
v 121.933 -98.587 1150.24
v 121.049 -98.8563 1152.65
v 124.051 -95.7282 1137.8
v 123.504 -96.3606 1138.61
v 123.897 -96.4933 1137.42
v 124.257 -95.668 1138.45
v 124.501 -95.6027 1137.74
v 124.862 -95.8721 1138.96
v 124.204 -97.1332 1137.59
v 124.772 -97.1285 1137.46
v 124.737 -97.2453 1137.56
v 124.591 -97.5094 1138.85
v 123.014 -98.2563 1141.92
v 123.738 -98.3054 1142.91
v 123.358 -98.2212 1145.5
v 125.421 -96.2656 1137.86
v 125.432 -96.8533 1137.86
v 125.3 -96.4654 1138.8
v 109.796 -94.8932 1172.86
v 110.853 -94.2162 1173.46
v 110.853 -94.2162 1173.46
v 109.383 -95.9247 1173.04
v 109.575 -96.8847 1173.12
v 111.498 -94.2366 1173.44
v 111.952 -94.7173 1174.03
v 111.952 -94.7173 1174.03
v 110.286 -97.5183 1173.62
v 110.286 -97.5183 1173.62
v 112.532 -95.5726 1174.39
v 111.861 -97.3417 1174.29
v 112.406 -96.7004 1174.46
v 120.864 -97.2509 1149.87
v 119.889 -98.6198 1149.11
v 121.982 -96.9626 1145.99
v 124.051 -95.7282 1137.8
v 123.897 -96.4933 1137.42
v 123.897 -96.4933 1137.42
v 123.897 -96.4933 1137.42
v 123.897 -96.4933 1137.42
v 124.501 -95.6027 1137.74
v 124.501 -95.6027 1137.74
v 124.204 -97.1332 1137.59
v 124.772 -97.1285 1137.46
v 124.772 -97.1285 1137.46
v 124.737 -97.2453 1137.56
v 125.421 -96.2656 1137.86
v 125.421 -96.2656 1137.86
v 125.432 -96.8533 1137.86
v 125.3 -96.4654 1138.8
vn -0.699517 0.609074 -0.373771
vn -0.354264 0.896826 -0.264952
vn -0.215547 0.954674 -0.205271
vn -0.912225 0.0199743 -0.409202
vn -0.46422 0.124634 0.876907
vn -0.816098 -0.505249 -0.280548
vn 0.338737 0.939001 0.0594522
vn 0.64977 0.706534 0.280372
vn -0.407213 0.138227 0.902813
vn 0.0439604 0.790854 0.610424
vn -0.739904 -0.617226 -0.267533
vn -0.56942 -0.811188 -0.133174
vn -0.50836 0.0252026 0.860776
vn -0.172513 -0.981708 0.0805578
vn 0.832941 0.434539 0.342615
vn 0.8533 0.296021 0.429244
vn 0.120275 -0.979011 0.164536
vn 0.533998 -0.789007 0.303833
vn -0.400535 0.102753 0.910502
vn 0.919934 0.139801 0.366302
vn 0.90758 -0.125568 0.400663
vn -0.401671 0.100801 0.91022
vn 0.0171923 0.989563 -0.143069
vn 0.511984 0.854492 0.0878363
vn -0.877461 -0.326792 -0.351097
vn 0.843296 0.462148 0.274357
vn 0.334674 0.941907 0.0283555
vn -0.835622 0.376814 -0.399684
vn -0.390274 0.880712 -0.26839
vn -0.477974 -0.868874 -0.128836
vn -0.399015 0.904286 -0.151836
vn -0.681075 0.682332 -0.265631
vn -0.914738 0.235864 -0.328059
vn 0.910862 0.273284 0.309267
vn 0.730717 0.642696 0.230205
vn -0.71069 -0.653058 -0.261601
vn -0.343559 -0.928214 -0.142781
vn 0.679861 0.7122 0.174815
vn 0.786584 -0.505992 0.353918
vn 0.484353 -0.843226 0.23318
vn -0.00241727 -0.998454 0.0555295
vn 0.931725 -0.0458892 0.360254
vn -0.458626 0.887813 -0.0380873
vn -0.797823 0.572581 -0.188757
vn 0.170238 -0.976681 -0.130818
vn 0.50271 0.827427 0.250295
vn -0.683863 -0.65567 -0.320044
vn -0.18633 -0.965113 -0.183949
vn 0.627351 0.747919 0.216907
vn 0.496366 -0.866714 0.0492725
vn 0.879063 0.369466 0.301237
vn 0.239491 -0.969609 0.0500205
vn 0.738327 -0.638862 0.21617
vn 0.943645 -0.14194 0.298976
vn 0.870243 -0.372723 0.322109
vn -0.644336 0.756631 -0.111088
vn -0.904748 0.332406 -0.26634
vn -0.925092 0.191669 -0.327823
vn -0.0825862 0.99111 0.104308
vn 0.182735 0.981538 0.0564855
vn 0.52811 0.819666 0.221918
vn -0.670826 -0.644275 -0.367289
vn 0.336075 0.149435 -0.929905
vn -0.171841 -0.610857 -0.772867
vn 0.325155 -0.935717 -0.136777
vn -0.246738 -0.927161 -0.281944
vn 0.628854 -0.77712 0.0250411
vn 0.914614 -0.341188 0.216962
vn 0.714042 0.690525 0.115409
vn 0.833555 -0.551435 -0.0332566
vn 0.808888 0.522484 0.26965
vn -0.626535 0.370544 0.685675
vn -0.490224 0.230519 0.84056
vn 0.0439604 0.790854 0.610424
vn -0.916 0.0347467 -0.39967
vn -0.606878 -0.0553358 0.792866
vn 0.0439604 0.790854 0.610424
vn 0.583292 0.72918 0.357865
vn -0.399056 0.125712 0.908268
vn -0.52761 -0.847073 -0.0639891
vn 0.00243028 -0.968366 0.249522
vn -0.40177 0.105654 0.909625
vn 0.273849 -0.919314 0.282609
vn 0.812214 -0.425399 0.399179
vn 0.269436 0.957462 0.103301
vn -0.83372 -0.432045 -0.343871
vn 0.187234 0.963825 0.189697
vn -0.244355 0.470351 -0.847974
vn -0.244355 0.470351 -0.847974
vn -0.799596 -0.479593 -0.361438
vn 0.196616 0.210666 -0.957581
vn -0.206914 -0.342616 -0.916407
vn -0.244355 0.470351 -0.847974
vn 0.239176 0.216209 -0.946598
vn -0.191637 -0.482426 -0.854717
vn -0.191637 -0.482426 -0.854717
vn 0.578596 -0.62376 -0.525499
vn 0.267258 -0.913998 -0.305254
vn 0.403672 0.117042 -0.907386
vn 0.991119 0.0185535 0.131676
vn 0.515358 0.00964737 -0.856921
vn 0.975207 -0.0605204 0.212857
g grp1
usemtl mtl1
f 1//1 28//28 4//4 
f 2//2 1//1 3//3 
f 72//72 5//5 73//73 
f 9//9 73//73 5//5 
f 4//4 75//75 1//1 
f 75//75 4//4 6//6 
f 25//25 6//6 4//4 
f 6//6 25//25 11//11 
f 6//6 11//11 12//12 
f 5//5 76//76 13//13 
f 1//1 29//29 28//28 
f 2//2 3//3 23//23 
f 1//1 2//2 29//29 
f 2//2 23//23 29//29 
f 3//3 7//7 23//23 
f 77//77 74//74 10//10 
f 8//8 7//7 78//78 
f 9//9 79//79 73//73 
f 5//5 79//79 9//9 
f 8//8 15//15 26//26 
f 6//6 12//12 80//80 
f 11//11 30//30 12//12 
f 12//12 30//30 14//14 
f 80//80 12//12 14//14 
f 14//14 30//30 17//17 
f 8//8 78//78 16//16 
f 82//82 79//79 5//5 
f 19//19 22//22 5//5 
f 13//13 19//19 5//5 
f 15//15 8//8 16//16 
f 82//82 5//5 22//22 
f 15//15 16//16 20//20 
f 20//20 16//16 21//21 
f 21//21 16//16 84//84 
f 83//83 18//18 84//84 
f 14//14 83//83 81//81 
f 17//17 83//83 14//14 
f 18//18 83//83 17//17 
f 24//24 23//23 7//7 
f 24//24 7//7 8//8 
f 28//28 25//25 4//4 
f 15//15 20//20 26//26 
f 20//20 42//42 26//26 
f 21//21 39//39 42//42 
f 21//21 42//42 20//20 
f 84//84 39//39 21//21 
f 18//18 39//39 84//84 
f 27//27 23//23 24//24 
f 36//36 30//30 25//25 
f 11//11 25//25 30//30 
f 38//38 24//24 26//26 
f 8//8 26//26 24//24 
f 25//25 28//28 33//33 
f 25//25 86//86 36//36 
f 27//27 29//29 23//23 
f 38//38 27//27 24//24 
f 38//38 26//26 34//34 
f 26//26 42//42 34//34 
f 28//28 29//29 32//32 
f 41//41 17//17 30//30 
f 18//18 40//40 39//39 
f 40//40 17//17 41//41 
f 18//18 17//17 40//40 
f 32//32 43//43 44//44 
f 31//31 43//43 32//32 
f 49//49 27//27 35//35 
f 85//85 27//27 49//49 
f 32//32 33//33 28//28 
f 33//33 32//32 44//44 
f 47//47 36//36 86//86 
f 36//36 47//47 37//37 
f 85//85 29//29 27//27 
f 32//32 29//29 31//31 
f 48//48 52//52 37//37 
f 38//38 35//35 27//27 
f 38//38 34//34 35//35 
f 52//52 40//40 41//41 
f 34//34 55//55 54//54 
f 34//34 51//51 35//35 
f 51//51 34//34 54//54 
f 55//55 39//39 40//40 
f 37//37 30//30 36//36 
f 41//41 30//30 37//37 
f 52//52 41//41 37//37 
f 34//34 42//42 55//55 
f 55//55 42//42 39//39 
f 86//86 62//62 47//47 
f 66//66 48//48 47//47 
f 50//50 45//45 67//67 
f 46//46 87//87 85//85 
f 46//46 85//85 49//49 
f 48//48 37//37 47//47 
f 50//50 52//52 48//48 
f 53//53 52//52 50//50 
f 45//45 50//50 48//48 
f 46//46 49//49 51//51 
f 45//45 48//48 66//66 
f 68//68 53//53 50//50 
f 68//68 50//50 67//67 
f 40//40 52//52 53//53 
f 35//35 51//51 49//49 
f 53//53 55//55 40//40 
f 55//55 53//53 54//54 
f 51//51 54//54 68//68 
f 53//53 68//68 54//54 
f 57//57 33//33 44//44 
f 58//58 57//57 56//56 
f 58//58 33//33 57//57 
f 59//59 60//60 56//56 
f 44//44 56//56 57//57 
f 43//43 59//59 56//56 
f 88//88 93//93 89//89 
f 90//90 62//62 86//86 
f 59//59 61//61 60//60 
f 87//87 46//46 61//61 
f 59//59 87//87 61//61 
f 94//94 63//63 91//91 
f 92//92 96//96 95//95 
f 61//61 69//69 60//60 
f 94//94 99//99 63//63 
f 95//95 96//96 64//64 
f 97//97 70//70 98//98 
f 70//70 65//65 98//98 
f 56//56 44//44 43//43 
f 61//61 46//46 51//51 
f 65//65 70//70 67//67 
f 70//70 68//68 67//67 
f 51//51 71//71 61//61 
f 68//68 102//102 51//51 
f 70//70 102//102 68//68 
f 66//66 47//47 62//62 
f 66//66 62//62 98//98 
f 98//98 65//65 66//66 
f 45//45 66//66 65//65 
f 65//65 67//67 45//45 
f 101//101 63//63 99//99 
f 71//71 69//69 61//61 
f 100//100 102//102 70//70 
