#
# The license for this database is specified in the Creative Commons Attribution-Share Alike 2.1 Japan. If you use data from this database, please be sure attribute this database as follows: "BodyParts3D, (c)  The Database Center for Life Science licensed under CC Attribution-Share Alike 2.1 Japan".
# http://dbarchive.biosciencedbc.jp/en/bodyparts3d/lic.html
#
#
# Compatibility version : 4.0
# File ID : FJ3519
# Representation ID : BP10372
# Build-up logic : FMA 3.0 part_of
# Concept ID : FMA14747
# English name : Left inferior phrenic artery
# Bounds(mm): (113.569000,-109.659000,1032.080000)-(116.941000,-87.840000,1092.930100)
# Volume(cm3): 0.027100
#
v 113.598 -88.8236 1082.56
v 113.569 -88.8718 1085.07
v 113.592 -88.436 1084.3
v 113.878 -109.2 1032.4
v 114.4 -109.659 1032.4
v 114.4 -109.519 1032.8
v 114.4 -108.8 1032.08
v 114.4 -108 1033.99
v 114.4 -107.32 1034
v 114.784 -109.221 1032.82
v 114.872 -109.2 1032.4
v 115.146 -108 1033.2
v 115.161 -107.947 1034.03
v 115.478 -107.051 1034.52
v 115.2 -106.8 1034.06
v 114.741 -105.6 1036
v 115.164 -105.333 1037.02
v 115.183 -104.062 1036.97
v 115.592 -105.884 1035.27
v 115.77 -105.153 1036.87
v 115.6 -104.354 1036.63
v 115.932 -104.477 1037.11
v 114.993 -102.04 1039.7
v 115.18 -101.93 1040.73
v 115.981 -103.525 1038.53
v 116.059 -102.8 1038.8
v 116.066 -101.6 1040.8
v 115.6 -101.122 1042
v 115.603 -100.901 1040.54
v 116.066 -100.8 1041.2
v 114.812 -98.8748 1044.26
v 115.2 -99.8571 1043.6
v 115.191 -98.8798 1043.23
v 115.6 -99.5965 1044
v 115.6 -98.4719 1045.6
v 115.916 -98 1045.6
v 114.634 -96.4 1047.6
v 115.155 -97.3027 1047.67
v 115.6 -97.2 1045.56
v 114.829 -94.3966 1050.99
v 115.236 -95.2976 1048.71
v 115.772 -95.6 1050
v 115.722 -94.8817 1050.35
v 114.709 -94.8 1052.4
v 115.816 -94.8 1051.6
v 115.2 -94.2719 1050.8
v 115.604 -93.2843 1054.09
v 114.719 -93.694 1054.99
v 114.812 -93.1755 1056.26
v 114.825 -93.2434 1054.75
v 115.201 -93.1428 1054.25
v 115.2 -92.8588 1055.63
v 115.211 -92.6906 1057.19
v 115.6 -94.0781 1056
v 115.95 -93.6442 1054.69
v 115.588 -92.9536 1055.25
v 115.615 -92.6851 1056.87
v 116.055 -93.1783 1056.44
v 115.122 -92.7996 1058.76
v 115.632 -92.5236 1058.74
v 116.393 -93.1978 1059.21
v 116.386 -92.7969 1060.02
v 115.475 -93.1919 1063.16
v 115.514 -92.8002 1062.81
v 115.603 -93.2021 1065.3
v 115.603 -92.7945 1065.18
v 115.957 -93.6195 1065.23
v 115.943 -92.4189 1064.25
v 116.368 -92.3413 1064.64
v 115.086 -91.4203 1070.56
v 115.594 -93.169 1067.56
v 115.437 -92.7405 1067.29
v 115.204 -92.4 1070
v 115.622 -92.245 1067.39
v 115.605 -91.9758 1068.12
v 115.949 -93.072 1068.94
v 115.999 -91.9667 1067.47
v 116 -91.5997 1068.83
v 116.411 -93.2958 1067.83
v 116.314 -92.7309 1069.64
v 116.704 -92.704 1068.57
v 116.408 -91.9566 1067.84
v 116.394 -91.5945 1069.47
v 116.464 -91.5383 1070.49
v 115.585 -91.0051 1070.47
v 115.582 -90.3532 1071.95
v 115.99 -91.0306 1070.49
v 114.836 -89.1276 1075.07
v 115.741 -90 1075.6
v 115.6 -89.4469 1074.4
v 113.936 -89.2769 1078.03
v 113.891 -88.8421 1078.41
v 114.06 -89.6 1077.2
v 114.4 -89.6656 1078.8
v 114.409 -88.1737 1078.37
v 114.8 -90.0406 1077.2
v 114.83 -88.3379 1077.47
v 114.787 -88.1209 1078.46
v 115.297 -89.2 1079.2
v 115.2 -88.3781 1078
v 114 -89.3344 1081.6
v 114.78 -89.3633 1080.96
v 115.249 -88.4879 1080.47
v 114 -89.4531 1084.8
v 115.174 -88.8774 1085.31
v 114.799 -89.6597 1087.29
v 115.159 -88.455 1086.48
v 114.787 -88.0846 1086.33
v 115.194 -89.6331 1089.02
v 114.005 -89.9435 1092.01
v 113.94 -89.1552 1091.81
v 114.399 -90.3537 1091.69
v 114.788 -90.3518 1091.55
v 114.8 -90.3719 1092.4
v 114.8 -88.7344 1092.4
v 115.183 -90.2065 1091.91
v 115.402 -89.9728 1091.86
v 115.312 -89.9727 1092.38
v 115.498 -89.5533 1091.55
v 115.167 -89.5994 1092.74
v 115.169 -88.813 1091.52
v 115.35 -89.1989 1092.23
v 114.411 -89.5979 1092.86
v 114.8 -90 1092.83
v 114.799 -89.6 1092.93
v 114.8 -89.2 1092.87
v 114.415 -87.9434 1079.61
v 114.012 -88.0326 1080.52
v 114.401 -87.84 1081.06
v 114.811 -87.9725 1080.27
v 114.045 -87.9631 1084.71
v 116.693 -93.5368 1064.18
v 116.941 -93.1739 1065.55
v 116.921 -92.7821 1064.99
v 116.904 -92.709 1066.99
v 113.598 -88.8236 1082.56
v 113.569 -88.8718 1085.07
v 113.878 -109.2 1032.4
v 113.878 -109.2 1032.4
v 113.878 -109.2 1032.4
v 114.4 -109.659 1032.4
v 114.4 -109.659 1032.4
v 114.4 -109.659 1032.4
v 114.4 -109.519 1032.8
v 114.4 -109.519 1032.8
v 114.4 -108.8 1032.08
v 114.4 -108.8 1032.08
v 114.4 -108.8 1032.08
v 114.4 -108 1033.99
v 114.4 -108 1033.99
v 114.4 -107.32 1034
v 114.872 -109.2 1032.4
v 114.872 -109.2 1032.4
v 115.146 -108 1033.2
v 115.161 -107.947 1034.03
v 115.161 -107.947 1034.03
v 115.2 -106.8 1034.06
v 115.164 -105.333 1037.02
v 115.6 -104.354 1036.63
v 114.993 -102.04 1039.7
v 116.059 -102.8 1038.8
v 116.066 -101.6 1040.8
v 115.6 -101.122 1042
v 116.066 -100.8 1041.2
v 114.812 -98.8748 1044.26
v 115.2 -99.8571 1043.6
v 115.6 -99.5965 1044
v 115.6 -98.4719 1045.6
v 115.916 -98 1045.6
v 114.634 -96.4 1047.6
v 114.634 -96.4 1047.6
v 115.155 -97.3027 1047.67
v 115.6 -97.2 1045.56
v 114.829 -94.3966 1050.99
v 115.236 -95.2976 1048.71
v 115.772 -95.6 1050
v 115.772 -95.6 1050
v 114.709 -94.8 1052.4
v 114.709 -94.8 1052.4
v 115.816 -94.8 1051.6
v 115.816 -94.8 1051.6
v 115.2 -94.2719 1050.8
v 114.719 -93.694 1054.99
v 114.825 -93.2434 1054.75
v 115.201 -93.1428 1054.25
v 115.2 -92.8588 1055.63
v 115.6 -94.0781 1056
v 115.6 -94.0781 1056
v 115.6 -94.0781 1056
v 115.95 -93.6442 1054.69
v 115.588 -92.9536 1055.25
v 115.615 -92.6851 1056.87
v 115.632 -92.5236 1058.74
v 116.386 -92.7969 1060.02
v 115.957 -93.6195 1065.23
v 115.957 -93.6195 1065.23
v 116.368 -92.3413 1064.64
v 115.594 -93.169 1067.56
v 115.204 -92.4 1070
v 115.999 -91.9667 1067.47
v 116.408 -91.9566 1067.84
v 115.741 -90 1075.6
v 113.936 -89.2769 1078.03
v 114.06 -89.6 1077.2
v 114.4 -89.6656 1078.8
v 114.8 -90.0406 1077.2
v 114.8 -90.0406 1077.2
v 115.297 -89.2 1079.2
v 114 -89.3344 1081.6
v 114.78 -89.3633 1080.96
v 115.249 -88.4879 1080.47
v 114 -89.4531 1084.8
v 115.174 -88.8774 1085.31
v 114.005 -89.9435 1092.01
v 113.94 -89.1552 1091.81
v 113.94 -89.1552 1091.81
v 114.399 -90.3537 1091.69
v 114.8 -90.3719 1092.4
v 114.8 -88.7344 1092.4
v 115.312 -89.9727 1092.38
v 115.167 -89.5994 1092.74
v 114.411 -89.5979 1092.86
v 114.411 -89.5979 1092.86
v 114.411 -89.5979 1092.86
v 114.8 -90 1092.83
v 114.8 -90 1092.83
v 114.799 -89.6 1092.93
v 114.8 -89.2 1092.87
v 114.8 -89.2 1092.87
v 116.693 -93.5368 1064.18
v 116.693 -93.5368 1064.18
v 116.921 -92.7821 1064.99
v 116.904 -92.709 1066.99
vn -0.994127 0.0957331 -0.0504698
vn -0.998591 0.0406566 0.0340995
vn -0.92838 0.371632 0.00034968
vn -0.293495 -0.333781 -0.895796
vn -0.293495 -0.333781 -0.895796
vn -0.684929 -0.596975 0.417724
vn -0.293495 -0.333781 -0.895796
vn -0.699972 -0.440415 0.562204
vn -0.512047 0.660769 -0.548809
vn 0.689103 -0.666722 0.283934
vn 0.321513 -0.33062 -0.887311
vn 0.72193 0.343404 -0.600741
vn 0.493552 -0.671811 0.552337
vn 0.987112 -0.103396 -0.122147
vn -0.291391 0.716409 -0.633916
vn -0.992231 0.000209217 0.12441
vn 0.248944 -0.737662 0.6276
vn -0.495878 0.663821 -0.559864
vn 0.848855 0.297681 -0.436842
vn 0.748724 -0.536346 0.389544
vn -0.0299117 0.738637 -0.673439
vn 0.989183 0.0262477 -0.14432
vn -0.778103 0.485558 -0.398484
vn -0.736353 -0.523959 0.428079
vn 0.895049 -0.36121 0.261561
vn 0.646681 0.558868 -0.519106
vn 0.627437 -0.612603 0.480667
vn 0.575016 -0.639211 0.510653
vn 0.244405 0.751539 -0.612744
vn 0.9924 0.112269 -0.0503821
vn -0.82209 -0.477244 0.310494
vn -0.754707 -0.544312 0.366253
vn -0.536321 0.676143 -0.505164
vn -0.0651125 -0.805073 0.589592
vn 0.081715 -0.826906 0.556372
vn 0.740676 -0.551057 0.384365
vn -0.869281 0.373931 -0.323305
vn -0.829936 -0.491008 0.264796
vn 0.108998 0.811714 -0.573794
vn -0.511478 0.793864 -0.328892
vn -0.465779 0.763429 -0.447466
vn 0.40048 -0.789523 0.465047
vn 0.870759 0.445116 -0.208928
vn -0.944015 -0.308268 0.117504
vn 0.38834 -0.860044 0.330933
vn -0.453227 0.824552 -0.338673
vn 0.612684 0.750211 -0.2486
vn -0.999778 -0.00396691 0.0206937
vn -0.902453 0.430651 0.0108517
vn -0.977356 0.207857 -0.0396305
vn -0.482469 0.843549 -0.235901
vn -0.617697 0.780364 -0.0973794
vn -0.450001 0.891718 -0.0483553
vn 0.120315 -0.978678 0.166476
vn 0.963768 0.230576 -0.134108
vn 0.114776 0.970751 -0.210876
vn -0.0332461 0.992369 -0.118739
vn 0.83771 0.525813 -0.147523
vn -0.798695 0.599173 0.0554844
vn -0.306033 0.951937 -0.0126682
vn 0.99501 0.0127843 -0.0989568
vn 0.566499 0.818545 -0.0951994
vn -0.991828 -0.0990503 0.0804176
vn -0.904253 0.422637 0.0608668
vn -0.937928 -0.346766 0.0066978
vn -0.955346 0.29427 -0.0268293
vn -0.457926 -0.886841 0.0617748
vn -0.554127 0.831536 -0.0386132
vn 0.593918 0.79995 -0.0856795
vn -0.92134 0.306903 -0.238629
vn -0.39421 -0.904227 0.164232
vn -0.991955 0.0641333 -0.109139
vn -0.983198 -0.161528 -0.0850307
vn -0.790967 0.590417 -0.160556
vn -0.614592 0.732133 -0.293697
vn -0.152426 -0.957865 0.243436
vn -0.506737 0.834128 -0.217827
vn 0.081164 0.952514 -0.29348
vn 0.44661 -0.875905 0.182568
vn 0.5594 -0.760896 0.328799
vn 0.914307 -0.358023 0.189372
vn 0.202165 0.960064 -0.193405
vn 0.632017 0.757102 -0.165382
vn 0.921547 0.388133 -0.0102134
vn -0.25644 0.887965 -0.381781
vn 0.0737957 0.924245 -0.3746
vn 0.411556 0.865479 -0.285601
vn -0.392346 0.847559 -0.357362
vn 0.965113 -0.184196 0.18609
vn 0.567482 0.794198 -0.217287
vn -0.731576 -0.680185 0.046326
vn -0.928799 0.332789 -0.163046
vn -0.596866 -0.787546 0.153371
vn -0.643428 -0.76231 0.0698807
vn -0.451903 0.861829 -0.230291
vn -0.475521 -0.857924 0.194542
vn 0.107415 0.960925 -0.255117
vn 0.175416 0.972528 -0.153033
vn 0.414175 -0.888603 0.197088
vn 0.70069 0.708875 -0.0808049
vn -0.762827 -0.646527 -0.00987278
vn 0.221223 -0.973862 0.0515127
vn 0.955577 -0.277014 0.100678
vn -0.787053 -0.615866 -0.0354475
vn 0.653763 -0.749169 -0.106488
vn 0.520524 -0.837066 -0.168449
vn 0.890699 0.454352 0.0147903
vn 0.379034 0.923598 0.0574494
vn 0.746355 -0.651958 -0.133809
vn -0.686167 -0.677348 0.265282
vn -0.982514 0.0408335 0.181656
vn -0.0221128 -0.996899 -0.075518
vn 0.281509 -0.953408 -0.108467
vn 0.400935 -0.895598 0.192759
vn -0.638058 0.547002 0.541914
vn 0.593902 -0.804535 0.00199409
vn 0.8879 -0.459765 0.0158278
vn 0.645787 -0.644983 0.408602
vn 0.997802 -0.0594529 0.0292798
vn 0.592844 -0.0164243 0.80515
vn 0.685145 0.721296 0.10153
vn 0.871387 0.3873 0.301136
vn -0.906405 0.031008 0.42127
vn 0.546585 -0.431645 0.717585
vn -0.177475 -0.0473967 0.982983
vn -0.627251 0.566949 0.533971
vn -0.124412 0.985363 -0.116541
vn -0.658064 0.747985 -0.0864248
vn -0.0408529 0.998985 -0.0189809
vn 0.508088 0.860918 -0.0258239
vn -0.428394 0.901308 0.0642044
vn 0.703224 -0.709411 -0.0470212
vn 0.932931 -0.358036 0.0380723
vn 0.71748 0.693839 -0.0617251
vn 0.992931 -0.0821275 0.0856913
vn -0.793453 -0.608575 -0.00831512
vn -0.807947 -0.588627 -0.0272002
vn -0.684929 -0.596975 0.417724
vn -0.700375 0.565321 -0.43576
vn -0.949052 -0.00463812 0.315085
vn -0.638644 -0.726306 0.254191
vn 0.640684 -0.743943 0.189928
vn 0.321513 -0.33062 -0.887311
vn 0.544361 -0.728665 0.415594
vn -0.000652041 -0.616681 0.787213
vn -0.570589 0.650432 -0.501364
vn 0.321513 -0.33062 -0.887311
vn 0.618833 0.383048 -0.685798
vn -0.948349 -0.080302 0.306897
vn 0.00765895 -0.687519 0.726126
vn -0.985869 0.122296 0.114478
vn 0.880038 -0.465639 0.0933502
vn 0.69148 0.284692 -0.663932
vn 0.960415 -0.278574 0.000530764
vn 0.927387 -0.358882 0.105623
vn 0.127481 -0.703174 0.699496
vn 0.750535 0.37043 -0.547246
vn -0.742348 -0.455043 0.491788
vn 0.690564 0.497928 -0.524585
vn -0.950294 -0.239578 0.198856
vn 0.995375 -0.0866873 0.0413898
vn 0.997755 -0.0528894 0.0410844
vn -0.283457 -0.751259 0.596038
vn 0.576699 0.642765 -0.504253
vn -0.862352 0.391687 -0.320829
vn 0.0343746 -0.821703 0.568879
vn 0.677218 -0.587983 0.442326
vn 0.781644 -0.523417 0.339216
vn 0.977391 0.192304 -0.0878932
vn -0.966008 -0.227698 0.122398
vn -0.530408 0.727932 -0.434491
vn 0.442195 -0.781799 0.439605
vn 0.835912 0.485547 -0.255922
vn -0.978215 0.198234 -0.061635
vn 0.58453 0.728201 -0.357838
vn 0.788895 -0.528272 0.313965
vn 0.994769 0.0917742 -0.0448654
vn 0.233026 -0.917462 0.322431
vn -0.650381 -0.697496 0.300839
vn 0.990939 0.106479 -0.0818679
vn 0.909347 -0.401111 0.11045
vn 0.467435 0.821764 -0.325895
vn -0.563388 -0.805368 0.184328
vn -0.564753 0.810333 -0.156254
vn 0.155719 0.953526 -0.257952
vn 0.00794204 0.987427 -0.157875
vn -0.563388 -0.805368 0.184328
vn 0.823162 -0.566883 0.0323784
vn 0.170509 -0.984446 0.0423418
vn 0.823162 -0.566883 0.0323784
vn 0.71603 0.681434 -0.151489
vn 0.610396 0.783261 -0.117979
vn 0.46109 0.883473 -0.0828987
vn 0.963853 0.242482 -0.110408
vn -0.805855 -0.589723 0.0531436
vn -0.00402175 -0.994536 0.104316
vn -0.0479158 0.994822 -0.0896255
vn -0.889378 -0.457081 -0.00912431
vn -0.469973 -0.851694 0.231824
vn 0.0782303 0.981977 -0.17205
vn 0.750166 0.655998 -0.0831676
vn 0.955354 -0.240723 0.171322
vn -0.991072 0.0137701 -0.132618
vn -0.988269 0.000531726 -0.152721
vn 0.287051 -0.944668 0.158761
vn 0.169491 -0.917289 0.360351
vn 0.487997 -0.817161 0.306768
vn 0.932772 -0.298126 0.202626
vn -6.33138e-07 -0.998983 0.0450955
vn 0.90015 -0.422768 0.104863
vn 0.835523 0.549423 0.00590329
vn 0.217836 -0.970739 -0.101057
vn 0.992425 -0.121765 -0.0163032
vn -0.970259 -0.0195371 0.241278
vn -0.642389 0.757301 0.117607
vn -0.627251 0.566949 0.533971
vn -0.663207 -0.737336 0.128425
vn -0.581065 -0.698836 0.417124
vn 0.264562 0.929949 0.255346
vn 0.968126 -0.0278746 0.248909
vn 0.934113 0.0215979 0.356323
vn -0.616082 0.586568 0.525719
vn -0.59029 -0.608285 0.530611
vn -0.177475 -0.0473967 0.982983
vn -0.589491 -0.609826 0.52973
vn -0.173662 -0.234602 0.956454
vn 0.463862 -0.0429771 0.884865
vn 0.611471 0.381075 0.693459
vn -0.174941 0.141504 0.974357
vn 0.342153 -0.936548 0.0762166
vn 0.956489 -0.281484 -0.0767817
vn 0.995303 0.0743879 -0.0619594
vn 0.800224 0.594399 -0.0795682
g grp1
usemtl mtl1
f 1//1 2//2 3//3 
f 5//5 4//4 7//7 
f 138//138 141//141 6//6 
f 6//6 8//8 138//138 
f 146//146 139//139 9//9 
f 140//140 149//149 151//151 
f 142//142 10//10 144//144 
f 13//13 144//144 10//10 
f 9//9 15//15 146//146 
f 143//143 147//147 11//11 
f 10//10 142//142 152//152 
f 155//155 10//10 152//152 
f 148//148 12//12 153//153 
f 152//152 154//154 155//155 
f 148//148 157//157 12//12 
f 156//156 150//150 145//145 
f 155//155 154//154 14//14 
f 157//157 14//14 12//12 
f 15//15 9//9 18//18 
f 157//157 19//19 14//14 
f 22//22 14//14 19//19 
f 149//149 16//16 151//151 
f 16//16 18//18 151//151 
f 150//150 156//156 17//17 
f 16//16 149//149 158//158 
f 24//24 16//16 158//158 
f 14//14 20//20 155//155 
f 156//156 20//20 17//17 
f 15//15 18//18 21//21 
f 17//17 20//20 28//28 
f 24//24 158//158 163//163 
f 14//14 22//22 20//20 
f 19//19 157//157 159//159 
f 159//159 22//22 19//19 
f 28//28 20//20 25//25 
f 25//25 20//20 22//22 
f 18//18 16//16 23//23 
f 29//29 21//21 18//18 
f 22//22 159//159 26//26 
f 22//22 161//161 25//25 
f 26//26 159//159 29//29 
f 24//24 160//160 16//16 
f 18//18 23//23 33//33 
f 18//18 33//33 29//29 
f 27//27 28//28 25//25 
f 162//162 25//25 161//161 
f 30//30 162//162 161//161 
f 26//26 29//29 164//164 
f 29//29 39//39 164//164 
f 24//24 31//31 160//160 
f 33//33 23//23 165//165 
f 39//39 29//29 33//33 
f 24//24 32//32 31//31 
f 163//163 166//166 24//24 
f 166//166 163//163 34//34 
f 27//27 167//167 28//28 
f 36//36 167//167 27//27 
f 169//169 162//162 30//30 
f 165//165 37//37 33//33 
f 32//32 38//38 31//31 
f 166//166 34//34 35//35 
f 35//35 42//42 166//166 
f 172//172 166//166 42//42 
f 167//167 36//36 168//168 
f 176//176 168//168 36//36 
f 43//43 177//177 169//169 
f 169//169 30//30 173//173 
f 38//38 170//170 31//31 
f 38//38 44//44 170//170 
f 41//41 33//33 171//171 
f 40//40 41//41 171//171 
f 46//46 41//41 40//40 
f 42//42 45//45 172//172 
f 39//39 33//33 41//41 
f 173//173 175//175 43//43 
f 43//43 175//175 182//182 
f 177//177 43//43 180//180 
f 43//43 169//169 173//173 
f 45//45 178//178 172//172 
f 178//178 45//45 54//54 
f 170//170 48//48 174//174 
f 170//170 44//44 48//48 
f 40//40 51//51 46//46 
f 185//185 47//47 182//182 
f 47//47 43//43 182//182 
f 180//180 43//43 55//55 
f 47//47 55//55 43//43 
f 174//174 48//48 50//50 
f 50//50 48//48 49//49 
f 184//184 49//49 52//52 
f 179//179 187//187 183//183 
f 184//184 51//51 40//40 
f 52//52 51//51 184//184 
f 53//53 52//52 49//49 
f 49//49 59//59 53//53 
f 47//47 185//185 56//56 
f 185//185 186//186 56//56 
f 186//186 57//57 56//56 
f 186//186 53//53 57//57 
f 181//181 190//190 188//188 
f 188//188 190//190 132//132 
f 55//55 47//47 58//58 
f 58//58 47//47 191//191 
f 191//191 192//192 58//58 
f 55//55 58//58 61//61 
f 187//187 67//67 183//183 
f 48//48 195//195 63//63 
f 48//48 63//63 49//49 
f 49//49 63//63 59//59 
f 189//189 230//230 196//196 
f 57//57 53//53 60//60 
f 53//53 59//59 60//60 
f 60//60 59//59 68//68 
f 58//58 192//192 62//62 
f 192//192 193//193 62//62 
f 62//62 193//193 69//69 
f 60//60 68//68 197//197 
f 55//55 61//61 231//231 
f 194//194 61//61 58//58 
f 63//63 64//64 59//59 
f 59//59 64//64 68//68 
f 64//64 63//63 66//66 
f 64//64 66//66 68//68 
f 134//134 62//62 69//69 
f 195//195 65//65 63//63 
f 63//63 65//65 66//66 
f 65//65 72//72 66//66 
f 74//74 66//66 72//72 
f 74//74 68//68 66//66 
f 68//68 74//74 77//77 
f 230//230 79//79 196//196 
f 68//68 200//200 197//197 
f 197//197 200//200 82//82 
f 133//133 79//79 230//230 
f 134//134 69//69 201//201 
f 196//196 76//76 71//71 
f 65//65 195//195 198//198 
f 65//65 198//198 72//72 
f 198//198 73//73 72//72 
f 74//74 72//72 75//75 
f 75//75 72//72 70//70 
f 70//70 72//72 73//73 
f 70//70 85//85 75//75 
f 199//199 71//71 76//76 
f 76//76 96//96 199//199 
f 75//75 77//77 74//74 
f 78//78 77//77 75//75 
f 78//78 75//75 85//85 
f 196//196 79//79 76//76 
f 80//80 76//76 79//79 
f 80//80 206//206 76//76 
f 80//80 89//89 207//207 
f 200//200 78//78 82//82 
f 82//82 78//78 83//83 
f 83//83 87//87 84//84 
f 78//78 87//87 83//83 
f 81//81 80//80 79//79 
f 89//89 80//80 81//81 
f 81//81 135//135 84//84 
f 81//81 84//84 89//89 
f 84//84 233//233 83//83 
f 83//83 233//233 201//201 
f 96//96 93//93 199//199 
f 78//78 85//85 87//87 
f 204//204 70//70 73//73 
f 85//85 70//70 88//88 
f 86//86 85//85 88//88 
f 86//86 88//88 90//90 
f 85//85 86//86 87//87 
f 90//90 87//87 86//86 
f 90//90 84//84 87//87 
f 88//88 97//97 90//90 
f 89//89 99//99 207//207 
f 89//89 84//84 90//90 
f 93//93 94//94 91//91 
f 70//70 204//204 203//203 
f 203//203 92//92 70//70 
f 92//92 88//88 70//70 
f 88//88 92//92 95//95 
f 128//128 95//95 92//92 
f 127//127 95//95 128//128 
f 129//129 127//127 128//128 
f 96//96 94//94 93//93 
f 207//207 99//99 205//205 
f 88//88 95//95 97//97 
f 97//97 95//95 98//98 
f 100//100 90//90 97//97 
f 100//100 97//97 98//98 
f 202//202 103//103 208//208 
f 100//100 89//89 90//90 
f 211//211 89//89 100//100 
f 130//130 100//100 98//98 
f 211//211 100//100 130//130 
f 94//94 101//101 91//91 
f 101//101 104//104 137//137 
f 203//203 1//1 92//92 
f 91//91 101//101 136//136 
f 137//137 136//136 101//101 
f 92//92 1//1 3//3 
f 92//92 3//3 128//128 
f 3//3 131//131 128//128 
f 205//205 102//102 209//209 
f 209//209 102//102 212//212 
f 99//99 102//102 205//205 
f 210//210 208//208 103//103 
f 102//102 105//105 212//212 
f 105//105 106//106 212//212 
f 210//210 103//103 213//213 
f 103//103 107//107 213//213 
f 211//211 130//130 107//107 
f 130//130 108//108 107//107 
f 2//2 111//111 3//3 
f 131//131 3//3 215//215 
f 212//212 106//106 113//113 
f 109//109 106//106 105//105 
f 104//104 110//110 137//137 
f 214//214 123//123 111//111 
f 214//214 111//111 2//2 
f 113//113 112//112 212//212 
f 110//110 104//104 217//217 
f 216//216 222//222 126//126 
f 115//115 216//216 126//126 
f 112//112 113//113 114//114 
f 218//218 110//110 217//217 
f 113//113 116//116 114//114 
f 109//109 116//116 113//113 
f 116//116 118//118 114//114 
f 124//124 114//114 118//118 
f 106//106 109//109 113//113 
f 122//122 219//219 228//228 
f 219//219 121//121 108//108 
f 117//117 116//116 109//109 
f 118//118 116//116 117//117 
f 109//109 119//119 117//117 
f 117//117 119//119 220//220 
f 124//124 118//118 120//120 
f 109//109 105//105 119//119 
f 119//119 213//213 107//107 
f 119//119 107//107 122//122 
f 119//119 122//122 220//220 
f 221//221 220//220 122//122 
f 107//107 121//121 122//122 
f 219//219 122//122 121//121 
f 121//121 107//107 108//108 
f 110//110 218//218 225//225 
f 110//110 225//225 223//223 
f 224//224 226//226 125//125 
f 125//125 229//229 224//224 
f 124//124 120//120 227//227 
f 120//120 122//122 228//228 
f 227//227 120//120 228//228 
f 98//98 95//95 127//127 
f 98//98 127//127 130//130 
f 127//127 129//129 130//130 
f 128//128 131//131 129//129 
f 129//129 131//131 108//108 
f 129//129 108//108 130//130 
f 131//131 219//219 108//108 
f 131//131 215//215 219//219 
f 61//61 194//194 232//232 
f 133//133 231//231 61//61 
f 61//61 232//232 133//133 
f 133//133 232//232 135//135 
f 201//201 233//233 134//134 
f 81//81 79//79 133//133 
f 81//81 133//133 135//135 
