#
# The license for this database is specified in the Creative Commons Attribution-Share Alike 2.1 Japan. If you use data from this database, please be sure attribute this database as follows: "BodyParts3D, (c)  The Database Center for Life Science licensed under CC Attribution-Share Alike 2.1 Japan".
# http://dbarchive.biosciencedbc.jp/en/bodyparts3d/lic.html
#
#
# Compatibility version : 4.0
# File ID : FJ2904
# Representation ID : BP9625
# Build-up logic : FMA 3.0 part_of
# Concept ID : FMA13279
# English name : Left anterior segmental artery
# Bounds(mm): (79.238800,-122.783000,1264.640000)-(93.459300,-110.219000,1280.060100)
# Volume(cm3): 0.116200
#
v 80.1829 -111.014 1277.99
v 80.8073 -110.796 1277.83
v 79.2915 -110.824 1279.17
v 79.2388 -111.188 1279.09
v 79.4269 -110.734 1278.81
v 79.3422 -110.956 1278.77
v 79.3611 -111.148 1278.71
v 79.5607 -110.493 1279.28
v 79.2608 -111.224 1279.32
v 79.403 -110.916 1279.58
v 79.8734 -110.59 1278.47
v 79.6354 -110.927 1278.41
v 79.7585 -111.179 1278.27
v 79.3856 -111.321 1279.57
v 79.9048 -110.318 1278.94
v 79.8781 -110.313 1279.36
v 79.7575 -110.561 1279.69
v 79.9969 -110.484 1279.74
v 80.3214 -110.219 1279.04
v 80.2922 -110.266 1279.42
v 80.7074 -110.393 1278.49
v 80.4081 -110.537 1279.77
v 79.3288 -111.383 1278.88
v 79.3261 -111.46 1279.27
v 79.7159 -111.581 1278.43
v 79.5446 -111.75 1278.84
v 79.5241 -111.771 1279.23
v 80.0554 -111.905 1278.3
v 79.8567 -111.994 1278.74
v 79.9776 -112.07 1279.16
v 79.6705 -110.838 1279.84
v 79.5934 -111.228 1279.86
v 79.9268 -110.702 1279.9
v 79.8244 -111.093 1280.01
v 80.1089 -110.757 1279.97
v 80.2184 -111.217 1280.06
v 80.0764 -111.558 1279.97
v 79.6887 -111.64 1279.72
v 80.0823 -111.773 1279.8
v 80.8792 -110.343 1278.95
v 80.7707 -110.417 1279.38
v 80.5328 -110.863 1279.91
v 81.5566 -110.964 1279.22
v 81.3113 -111.589 1279.51
v 80.6747 -112.258 1279.12
v 80.6131 -111.72 1279.78
v 82.7979 -111.976 1276.08
v 82.7895 -112.409 1276.05
v 83.286 -111.361 1277.74
v 85.1521 -113.06 1274.23
v 84.2477 -111.646 1276.3
v 84.1863 -112.043 1275.45
v 84.5409 -113.536 1276.67
v 83.7844 -113.624 1276.04
v 84.2365 -112.232 1277.38
v 86.1152 -112.561 1275.25
v 85.6339 -114.504 1274.12
v 85.9162 -112.7 1275.91
v 86.5664 -113.634 1275.54
v 88.1739 -114.621 1271.66
v 87.3605 -113.513 1273.19
v 87.5468 -113.643 1274.44
v 86.7043 -115.235 1273.93
v 88.288 -114.584 1273.91
v 89.3008 -114.926 1271.62
v 88.9243 -116.833 1270.39
v 88.6393 -114.239 1272.8
v 89.5518 -115.238 1272.26
v 88.1847 -115.477 1273.69
v 90.7084 -119.049 1267.98
v 90.8253 -116.993 1269.27
v 90.8155 -119.332 1268.66
v 90.3984 -116.088 1270.72
v 90.309 -116.571 1271.42
v 89.725 -117.816 1270.54
v 90.3745 -117.686 1270.85
v 91.3259 -118.307 1267.81
v 91.7802 -118.555 1267.69
v 91.9881 -118.477 1268.33
v 91.2232 -119.29 1269.04
v 91.7683 -119.025 1269.02
v 92.9607 -121.997 1264.71
v 92.8647 -122.354 1264.64
v 93.0077 -122.633 1264.67
v 93.2417 -122.466 1264.64
v 93.3091 -122.077 1264.83
v 92.8222 -121.152 1265.35
v 93.0606 -120.865 1266.42
v 93.1756 -121.278 1265.58
v 92.3991 -122.051 1265.1
v 92.2762 -122.063 1265.53
v 92.5128 -121.591 1265.1
v 92.7775 -122.609 1264.79
v 92.7444 -122.684 1265.15
v 92.6713 -122.348 1265.74
v 92.9457 -122.783 1264.93
v 92.9149 -121.902 1266.21
v 93.437 -122.362 1264.89
v 93.3923 -122.556 1264.85
v 93.1759 -122.738 1264.8
v 93.4361 -122.018 1265.16
v 93.4317 -122.019 1265.39
v 93.1189 -122.753 1265.18
v 93.2887 -122.439 1265.47
v 93.2408 -121.951 1265.88
v 93.4593 -122.406 1265.1
v 93.3732 -122.618 1265.05
v 85.1521 -113.06 1274.23
v 85.6339 -114.504 1274.12
v 86.7043 -115.235 1273.93
v 88.9243 -116.833 1270.39
v 88.9243 -116.833 1270.39
v 88.1847 -115.477 1273.69
v 90.7084 -119.049 1267.98
v 89.725 -117.816 1270.54
v 91.9881 -118.477 1268.33
v 92.9607 -121.997 1264.71
v 92.8647 -122.354 1264.64
v 93.0077 -122.633 1264.67
v 93.0077 -122.633 1264.67
v 93.0077 -122.633 1264.67
v 93.0606 -120.865 1266.42
v 92.7444 -122.684 1265.15
v 92.7444 -122.684 1265.15
v 92.9457 -122.783 1264.93
v 93.1759 -122.738 1264.8
v 93.1759 -122.738 1264.8
vn -0.511192 0.315864 -0.79932
vn -0.281209 0.663388 -0.693425
vn -0.933137 0.357595 0.0371727
vn -0.990089 -0.0727358 -0.120137
vn -0.711917 0.598453 -0.367462
vn -0.891414 0.21935 -0.396569
vn -0.842929 -0.0731619 -0.533028
vn -0.67473 0.72625 0.131531
vn -0.965063 -0.0536059 0.256474
vn -0.819644 0.294331 0.49148
vn -0.412026 0.690148 -0.59492
vn -0.67242 0.289009 -0.681414
vn -0.663665 -0.0316907 -0.747359
vn -0.838101 -0.236554 0.491558
vn -0.376112 0.886726 -0.268806
vn -0.325559 0.916587 0.232121
vn -0.519785 0.649746 0.554666
vn -0.146995 0.750125 0.644752
vn -0.0129832 0.997413 -0.0707052
vn 0.104424 0.928952 0.355167
vn -0.01394 0.91766 -0.397122
vn 0.284366 0.648781 0.705847
vn -0.887945 -0.336565 -0.313493
vn -0.885944 -0.443741 0.134898
vn -0.716564 -0.34032 -0.608866
vn -0.763104 -0.579444 -0.286211
vn -0.677108 -0.724677 0.12794
vn -0.63412 -0.560634 -0.532523
vn -0.575281 -0.79439 -0.194925
vn -0.386555 -0.891644 0.235682
vn -0.576483 0.343301 0.741493
vn -0.639715 -0.118278 0.759457
vn -0.305398 0.491358 0.815659
vn -0.329123 0.0896303 0.940024
vn 0.00311765 0.423261 0.906003
vn 0.169345 -0.0508237 0.984246
vn -0.188455 -0.411865 0.891545
vn -0.572708 -0.596292 0.56253
vn -0.152168 -0.763156 0.628042
vn 0.319716 0.945258 0.0653376
vn 0.445731 0.7765 0.445389
vn 0.403176 0.280182 0.871176
vn 0.583819 0.41993 0.694848
vn 0.500511 -0.122891 0.856964
vn -0.07106 -0.891954 0.446508
vn 0.231218 -0.548003 0.803885
vn -0.489674 0.307235 -0.815982
vn -0.642848 -0.2127 -0.73587
vn 0.576097 0.721658 0.383827
vn -0.389745 0.500181 -0.773251
vn 0.288898 0.94206 -0.17047
vn -0.103375 0.794128 -0.598895
vn 0.207742 -0.696264 0.687066
vn -0.480107 -0.869451 -0.116416
vn 0.627099 0.101568 0.772289
vn 0.558331 0.821717 0.114222
vn -0.718422 -0.185399 -0.670446
vn 0.692377 0.471791 0.545919
vn 0.629451 -0.0695962 0.773917
vn -0.245722 0.624516 -0.741351
vn 0.249119 0.894031 -0.372354
vn 0.756399 0.474517 0.450215
vn -0.107426 -0.86555 0.489165
vn 0.744102 0.0324547 0.667277
vn 0.504618 0.815712 -0.282799
vn -0.795368 -0.219636 -0.564933
vn 0.636534 0.770874 0.0240165
vn 0.832544 0.460639 0.307705
vn -0.0683551 -0.835521 0.54519
vn -0.673637 0.247588 -0.696357
vn 0.424836 0.777993 -0.462862
vn -0.694283 -0.688236 0.21048
vn 0.811481 0.583748 0.0271602
vn 0.817762 -0.0137663 0.575392
vn -0.700174 -0.713805 -0.0154792
vn 0.286351 -0.627207 0.724303
vn -0.152848 0.629531 -0.761793
vn 0.495143 0.713935 -0.495107
vn 0.912731 0.181425 0.36607
vn -0.0382694 -0.753961 0.655804
vn 0.714717 -0.280338 0.640773
vn -0.313418 0.447795 -0.837406
vn -0.598709 -0.0020312 -0.800964
vn -0.471739 -0.332882 -0.816488
vn 0.454542 -0.0736011 -0.887679
vn 0.644257 0.444882 -0.622104
vn 0.237596 0.658999 -0.71363
vn 0.908012 0.41158 -0.0782108
vn 0.802629 0.526014 -0.28124
vn -0.831023 -0.105898 -0.546065
vn -0.846238 -0.532284 -0.0235681
vn -0.488135 0.377705 -0.786806
vn -0.696749 -0.536482 -0.476159
vn -0.731678 -0.650782 -0.202806
vn -0.238744 -0.79998 0.550485
vn -0.377019 -0.821758 -0.427282
vn 0.358518 -0.616544 0.700955
vn 0.914711 0.070095 -0.397984
vn 0.84977 -0.399797 -0.343589
vn 0.440157 -0.522222 -0.730443
vn 0.949386 0.260384 -0.175687
vn 0.979052 0.0386289 0.199915
vn 0.191152 -0.923794 0.331761
vn 0.641738 -0.547034 0.537518
vn 0.806461 -0.258887 0.5316
vn 0.97847 -0.188222 0.0846739
vn 0.741769 -0.658362 0.12782
vn -0.684949 -0.102062 -0.721407
vn -0.658422 -0.73036 -0.181807
vn -0.566351 -0.823915 -0.0202685
vn -0.641555 0.206514 -0.738755
vn -0.785654 -0.610525 -0.100033
vn 0.565696 -0.321717 0.759267
vn -0.895204 -0.423816 -0.137805
vn -0.157675 -0.812744 0.560879
vn 0.741261 0.626739 -0.24027
vn 0.284722 0.392016 -0.87479
vn 0.0313402 0.0377629 -0.998795
vn -0.0156898 -0.119111 -0.992757
vn 0.293064 -0.525425 -0.798776
vn -0.247565 -0.818825 -0.517916
vn 0.907381 -0.0102297 0.420185
vn -0.657465 -0.686144 0.311361
vn -0.1943 -0.911517 0.36247
vn -0.00426938 -0.992493 0.122228
vn -0.133877 -0.850235 -0.509095
vn 0.454424 -0.889432 -0.0490783
g grp1
usemtl mtl1
f 1//1 47//47 48//48 
f 47//47 1//1 2//2 
f 1//1 11//11 2//2 
f 47//47 2//2 50//50 
f 3//3 5//5 6//6 
f 7//7 4//4 6//6 
f 6//6 4//4 3//3 
f 4//4 9//9 3//3 
f 15//15 11//11 5//5 
f 5//5 12//12 6//6 
f 5//5 11//11 12//12 
f 6//6 12//12 7//7 
f 12//12 13//13 7//7 
f 13//13 25//25 7//7 
f 16//16 15//15 8//8 
f 15//15 5//5 8//8 
f 8//8 5//5 3//3 
f 7//7 23//23 4//4 
f 7//7 25//25 23//23 
f 24//24 4//4 23//23 
f 24//24 9//9 4//4 
f 9//9 10//10 3//3 
f 9//9 14//14 10//10 
f 38//38 14//14 24//24 
f 24//24 14//14 9//9 
f 31//31 10//10 32//32 
f 32//32 10//10 14//14 
f 11//11 1//1 12//12 
f 1//1 48//48 13//13 
f 12//12 1//1 13//13 
f 13//13 48//48 25//25 
f 17//17 16//16 8//8 
f 8//8 10//10 17//17 
f 3//3 10//10 8//8 
f 17//17 10//10 31//31 
f 20//20 16//16 18//18 
f 16//16 17//17 18//18 
f 33//33 18//18 17//17 
f 31//31 33//33 17//17 
f 11//11 21//21 2//2 
f 15//15 19//19 21//21 
f 21//21 11//11 15//15 
f 19//19 15//15 16//16 
f 16//16 20//20 19//19 
f 22//22 41//41 20//20 
f 22//22 20//20 18//18 
f 35//35 22//22 18//18 
f 40//40 21//21 19//19 
f 40//40 19//19 20//20 
f 41//41 40//40 20//20 
f 22//22 35//35 42//42 
f 23//23 25//25 26//26 
f 23//23 26//26 24//24 
f 24//24 26//26 27//27 
f 38//38 24//24 27//27 
f 25//25 28//28 26//26 
f 28//28 29//29 26//26 
f 27//27 26//26 29//29 
f 48//48 28//28 25//25 
f 54//54 29//29 28//28 
f 30//30 27//27 29//29 
f 30//30 29//29 54//54 
f 30//30 38//38 27//27 
f 38//38 30//30 39//39 
f 45//45 30//30 54//54 
f 33//33 31//31 34//34 
f 34//34 31//31 32//32 
f 32//32 14//14 38//38 
f 34//34 32//32 37//37 
f 18//18 33//33 35//35 
f 33//33 34//34 35//35 
f 35//35 34//34 36//36 
f 38//38 37//37 32//32 
f 37//37 38//38 39//39 
f 36//36 34//34 37//37 
f 36//36 42//42 35//35 
f 36//36 37//37 46//46 
f 39//39 46//46 37//37 
f 39//39 45//45 46//46 
f 45//45 39//39 30//30 
f 21//21 51//51 52//52 
f 2//2 21//21 52//52 
f 52//52 50//50 2//2 
f 48//48 54//54 28//28 
f 21//21 40//40 51//51 
f 51//51 40//40 49//49 
f 41//41 49//49 40//40 
f 49//49 41//41 43//43 
f 43//43 41//41 22//22 
f 43//43 22//22 42//42 
f 43//43 44//44 55//55 
f 44//44 53//53 55//55 
f 46//46 53//53 44//44 
f 54//54 53//53 45//45 
f 45//45 53//53 46//46 
f 42//42 36//36 44//44 
f 36//36 46//46 44//44 
f 44//44 43//43 42//42 
f 47//47 108//108 48//48 
f 48//48 108//108 57//57 
f 61//61 60//60 52//52 
f 56//56 51//51 49//49 
f 56//56 49//49 58//58 
f 50//50 52//52 60//60 
f 54//54 63//63 53//53 
f 43//43 55//55 49//49 
f 58//58 49//49 55//55 
f 59//59 58//58 55//55 
f 53//53 59//59 55//55 
f 57//57 108//108 66//66 
f 50//50 60//60 111//111 
f 52//52 51//51 61//61 
f 56//56 61//61 51//51 
f 58//58 59//59 62//62 
f 56//56 67//67 61//61 
f 48//48 109//109 54//54 
f 110//110 54//54 109//109 
f 56//56 58//58 62//62 
f 60//60 70//70 111//111 
f 67//67 62//62 68//68 
f 62//62 64//64 68//68 
f 110//110 109//109 75//75 
f 67//67 56//56 62//62 
f 53//53 63//63 69//69 
f 113//113 64//64 59//59 
f 53//53 113//113 59//59 
f 59//59 64//64 62//62 
f 114//114 72//72 112//112 
f 65//65 60//60 61//61 
f 60//60 65//65 71//71 
f 112//112 75//75 109//109 
f 72//72 75//75 112//112 
f 65//65 61//61 67//67 
f 68//68 65//65 67//67 
f 74//74 64//64 113//113 
f 69//69 63//63 115//115 
f 76//76 69//69 115//115 
f 60//60 77//77 70//70 
f 71//71 77//77 60//60 
f 73//73 71//71 65//65 
f 74//74 79//79 73//73 
f 72//72 80//80 115//115 
f 71//71 78//78 77//77 
f 73//73 116//116 71//71 
f 65//65 68//68 73//73 
f 113//113 76//76 74//74 
f 68//68 64//64 74//74 
f 73//73 68//68 74//74 
f 115//115 80//80 76//76 
f 80//80 81//81 76//76 
f 76//76 81//81 74//74 
f 114//114 91//91 72//72 
f 95//95 72//72 91//91 
f 77//77 92//92 70//70 
f 70//70 92//92 90//90 
f 71//71 116//116 78//78 
f 77//77 78//78 87//87 
f 87//87 78//78 89//89 
f 116//116 89//89 78//78 
f 116//116 88//88 89//89 
f 79//79 81//81 122//122 
f 95//95 80//80 72//72 
f 95//95 97//97 80//80 
f 81//81 79//79 74//74 
f 97//97 81//81 80//80 
f 92//92 83//83 90//90 
f 87//87 82//82 92//92 
f 83//83 92//92 82//82 
f 90//90 83//83 93//93 
f 84//84 93//93 83//83 
f 85//85 118//118 117//117 
f 86//86 85//85 117//117 
f 85//85 119//119 118//118 
f 120//120 85//85 100//100 
f 85//85 86//86 98//98 
f 85//85 98//98 99//99 
f 85//85 99//99 100//100 
f 77//77 87//87 92//92 
f 87//87 89//89 86//86 
f 105//105 122//122 81//81 
f 101//101 86//86 89//89 
f 101//101 89//89 102//102 
f 89//89 88//88 102//102 
f 102//102 122//122 105//105 
f 105//105 81//81 97//97 
f 91//91 114//114 90//90 
f 93//93 94//94 91//91 
f 90//90 93//93 91//91 
f 123//123 95//95 91//91 
f 87//87 86//86 117//117 
f 121//121 96//96 93//93 
f 96//96 94//94 93//93 
f 126//126 96//96 121//121 
f 127//127 103//103 125//125 
f 103//103 124//124 125//125 
f 103//103 95//95 124//124 
f 95//95 104//104 97//97 
f 86//86 101//101 98//98 
f 98//98 101//101 106//106 
f 106//106 99//99 98//98 
f 107//107 127//127 99//99 
f 106//106 101//101 102//102 
f 104//104 103//103 107//107 
f 127//127 107//107 103//103 
f 102//102 105//105 104//104 
f 95//95 103//103 104//104 
f 97//97 104//104 105//105 
f 99//99 106//106 107//107 
f 104//104 107//107 106//106 
f 106//106 102//102 104//104 
