#
# The license for this database is specified in the Creative Commons Attribution-Share Alike 2.1 Japan. If you use data from this database, please be sure attribute this database as follows: "BodyParts3D, (c)  The Database Center for Life Science licensed under CC Attribution-Share Alike 2.1 Japan".
# http://dbarchive.biosciencedbc.jp/en/bodyparts3d/lic.html
#
#
# Compatibility version : 4.0
# File ID : FJ2994
# Representation ID : BP9774
# Build-up logic : FMA 3.0 part_of
# Concept ID : FMA68706
# English name : Medial branch of right superior segmental artery
# Bounds(mm): (-45.057700,-67.928400,1221.340000)-(-31.715900,-30.004800,1260.780000)
# Volume(cm3): 0.208900
#
v -44.7364 -66.5321 1257.59
v -45.0577 -66.0412 1258
v -43.8885 -66.6705 1256.47
v -44.4833 -66.4346 1260.22
v -44.4009 -66.5709 1259.79
v -43.0437 -67.2504 1256.65
v -42.116 -67.3021 1256.54
v -43.0215 -66.8579 1260.78
v -42.661 -67.2751 1260.52
v -37.4696 -32.5576 1231.52
v -37.7434 -32.9475 1233.86
v -38.914 -31.0236 1236.04
v -39.6415 -31.6301 1238.4
v -39.8198 -31.0162 1239.43
v -39.0411 -30.3045 1238.29
v -38.9049 -30.0643 1239.44
v -38.3298 -30.1067 1237.56
v -39.6024 -32.3289 1239.66
v -40.3988 -32.3958 1242.94
v -40.5062 -31.5956 1243.8
v -39.916 -30.6768 1242.98
v -39.6015 -33.4832 1243.73
v -41.0975 -67.9284 1258.19
v -40.8001 -67.0591 1258.95
v -41.024 -67.2576 1259.36
v -41.2581 -67.8863 1259.35
v -40.4078 -34.0017 1246.23
v -40.1352 -31.7546 1246.82
v -40.7831 -34.3238 1248.48
v -39.3798 -35.0337 1247.01
v -39.6653 -36.2006 1248.88
v -40.7029 -55.972 1256.52
v -41.5769 -66.6971 1260.25
v -40.7056 -33.3054 1248.5
v -40.533 -34.2781 1250.53
v -40.1277 -33.0509 1249.44
v -40.6974 -34.9233 1250.8
v -40.6711 -36.5334 1251.84
v -40.2911 -34.7426 1251.48
v -39.732 -38.1238 1251.07
v -39.8732 -42.5388 1254.36
v -40.1853 -51.3458 1256.67
v -40.4599 -35.817 1252.25
v -40.265 -38.4759 1254.32
v -40.1843 -41.3742 1255.42
v -40.0042 -46.5094 1256.69
v -33.827 -34.6981 1222.61
v -33.7282 -34.1303 1222.35
v -34.5286 -33.211 1229.83
v -37.167 -31.1909 1232.04
v -36.1009 -33.5997 1231.16
v -35.3513 -33.513 1230.87
v -37.5622 -32.9907 1235
v -36.6366 -32.8988 1234.74
v -35.8576 -31.486 1234.23
v -36.627 -30.6769 1234.43
v -36.4682 -32.2883 1236.02
v -38.2372 -30.0048 1238.96
v -37.6553 -30.2245 1239.11
v -37.8364 -32.7126 1238.75
v -37.1223 -31.6631 1239.92
v -38.0905 -33.0018 1242.98
v -38.706 -30.1952 1242.18
v -38.0863 -30.6302 1242.73
v -37.5725 -32.2046 1243.35
v -37.745 -32.2527 1245.82
v -38.162 -34.2263 1246.42
v -39.1085 -30.9489 1245.46
v -38.1962 -32.3366 1247.81
v -38.3257 -35.7611 1248.53
v -38.9614 -35.9864 1248.46
v -38.7531 -37.2701 1250.02
v -38.8654 -52.4172 1255.63
v -37.9653 -52.3917 1255.61
v -37.9643 -55.3159 1256.14
v -39.408 -57.1363 1255.98
v -37.8815 -58.3962 1257.57
v -38.9457 -62.1736 1258.36
v -39.4199 -32.2875 1248.62
v -38.4394 -33.3892 1250.13
v -37.466 -36.1434 1250.48
v -37.5951 -35.8126 1252.15
v -38.0424 -39.2419 1251.9
v -37.749 -37.5242 1250.93
v -38.1538 -43.7644 1253.92
v -38.9903 -48.23 1255.26
v -38.0694 -48.0115 1254.94
v -37.4753 -47.8449 1255.02
v -38.0642 -57.6007 1259.32
v -39.4866 -59.0052 1260.11
v -39.1728 -34.4224 1251.78
v -39.4532 -37.0441 1254.23
v -38.2486 -38.1599 1255.06
v -39.4255 -40.0379 1256.01
v -39.7376 -42.3309 1256.58
v -38.3321 -42.1131 1257.21
v -38.9226 -44.1403 1257.75
v -39.8223 -47.4939 1257.57
v -37.9937 -46.3168 1258.45
v -39.3508 -50.7401 1259.03
v -33.2059 -34.4205 1221.34
v -32.6553 -33.7039 1221.48
v -32.9184 -35.5583 1221.87
v -33.3617 -35.2396 1223.51
v -32.5509 -35.4899 1221.9
v -32.486 -35.4409 1222.55
v -32.314 -35.1437 1223.11
v -31.7625 -35.0838 1222.11
v -31.7159 -34.1079 1222.12
v -32.0322 -34.7364 1223.14
v -37.0494 -52.7739 1256.31
v -37.1773 -39.5167 1252.93
v -36.7804 -42.887 1254.6
v -36.2638 -48.3834 1257.12
v -36.6955 -51.4242 1258.51
v -37.5755 -52.7335 1259.29
v -36.6952 -53.4622 1258.03
v -36.9361 -40.1165 1255.01
v -37.016 -43.2518 1257.07
v -36.9014 -48.1292 1258.41
v -44.7364 -66.5321 1257.59
v -45.0577 -66.0412 1258
v -45.0577 -66.0412 1258
v -43.8885 -66.6705 1256.47
v -43.8885 -66.6705 1256.47
v -44.4833 -66.4346 1260.22
v -44.4833 -66.4346 1260.22
v -43.0437 -67.2504 1256.65
v -42.116 -67.3021 1256.54
v -42.116 -67.3021 1256.54
v -43.0215 -66.8579 1260.78
v -42.661 -67.2751 1260.52
v -37.7434 -32.9475 1233.86
v -39.6015 -33.4832 1243.73
v -41.0975 -67.9284 1258.19
v -41.2581 -67.8863 1259.35
v -39.6653 -36.2006 1248.88
v -40.7029 -55.972 1256.52
v -40.7029 -55.972 1256.52
v -39.732 -38.1238 1251.07
v -40.1853 -51.3458 1256.67
v -37.167 -31.1909 1232.04
v -35.8576 -31.486 1234.23
v -37.8364 -32.7126 1238.75
v -37.8364 -32.7126 1238.75
v -37.1223 -31.6631 1239.92
v -38.0905 -33.0018 1242.98
v -37.5725 -32.2046 1243.35
v -37.745 -32.2527 1245.82
v -39.1085 -30.9489 1245.46
v -37.466 -36.1434 1250.48
v -39.3508 -50.7401 1259.03
v -39.3508 -50.7401 1259.03
v -33.2059 -34.4205 1221.34
v -33.2059 -34.4205 1221.34
v -32.6553 -33.7039 1221.48
v -32.6553 -33.7039 1221.48
v -32.9184 -35.5583 1221.87
v -32.9184 -35.5583 1221.87
v -32.5509 -35.4899 1221.9
v -31.7625 -35.0838 1222.11
v -31.7625 -35.0838 1222.11
v -31.7159 -34.1079 1222.12
v -31.7159 -34.1079 1222.12
v -37.1773 -39.5167 1252.93
v -36.9361 -40.1165 1255.01
v -37.016 -43.2518 1257.07
vn -0.798308 -0.0197319 -0.601926
vn -0.835271 0.190339 -0.515843
vn -0.770013 0.10104 -0.629977
vn -0.902954 0.317266 0.289856
vn -0.603954 -0.7897 0.107769
vn -0.328756 -0.92657 -0.182724
vn 0.0505163 -0.221116 -0.973938
vn 0.079854 -0.00702955 0.996782
vn -0.41767 -0.883147 0.213551
vn -0.936154 -0.146658 -0.319542
vn -0.776576 -0.604143 -0.17872
vn -0.874854 0.37708 -0.304042
vn -0.958425 -0.155691 -0.239126
vn -0.930435 0.327384 -0.164652
vn -0.630486 0.754848 -0.180811
vn -0.330586 0.943231 -0.0320769
vn -0.186791 0.969794 -0.156872
vn -0.62301 -0.766858 -0.154232
vn -0.917096 -0.34127 -0.206082
vn -0.958466 0.285011 -0.0105499
vn -0.606935 0.792641 0.0578726
vn -0.559339 -0.778067 -0.285921
vn -0.275734 -0.956901 -0.0911712
vn 0.902688 -0.334186 0.27106
vn 0.825783 -0.282255 0.488276
vn -0.366444 -0.930403 0.00832262
vn -0.666475 -0.664413 -0.338181
vn -0.602862 0.750252 0.27144
vn -0.960733 -0.232948 -0.150757
vn -0.0396549 -0.875727 -0.481176
vn -0.198904 -0.790069 -0.579851
vn -0.837137 0.29428 -0.461086
vn 0.552574 -0.247753 0.795789
vn -0.915442 0.360716 0.178466
vn -0.800559 0.476966 0.362779
vn -0.541177 0.708492 0.452954
vn -0.945578 0.228361 0.231806
vn -0.996617 -0.0820524 -0.00466221
vn -0.619092 0.574246 0.535693
vn -0.762298 -0.441744 -0.473037
vn -0.831713 -0.261213 -0.489919
vn -0.683554 0.0121196 -0.7298
vn -0.830921 0.340519 0.440019
vn -0.84112 0.241109 0.484132
vn -0.984357 0.0108672 0.17585
vn -0.986995 -0.0417138 -0.155247
vn -0.868559 -0.356111 -0.344661
vn -0.828545 0.326907 -0.454581
vn 0.806167 -0.458412 0.374103
vn -0.78678 0.459308 -0.412327
vn 0.0237415 -0.982551 0.184473
vn 0.407695 -0.859282 0.308902
vn -0.110099 -0.990825 0.0783804
vn 0.414323 -0.882808 0.221328
vn 0.936687 -0.162707 0.310072
vn 0.368589 0.927728 -0.0588411
vn 0.803529 -0.52276 0.284716
vn 0.13824 0.990399 -0.000564558
vn 0.560811 0.82145 0.10349
vn -0.13457 -0.990108 -0.0397091
vn 0.811836 -0.566494 0.141443
vn 0.265781 -0.927032 -0.264523
vn 0.0989979 0.984632 0.143875
vn 0.762343 0.61532 0.200535
vn 0.908714 -0.416771 -0.0232669
vn 0.918876 0.36926 0.138977
vn 0.693189 -0.631309 -0.347762
vn -0.295756 0.919387 0.259337
vn 0.624795 0.710473 0.32382
vn 0.524422 -0.653991 -0.545231
vn 0.110304 -0.786319 -0.607894
vn 0.222064 -0.700615 -0.678105
vn -0.34231 -0.0577328 -0.937812
vn 0.174596 -0.141514 -0.974418
vn 0.532507 -0.193727 -0.823957
vn -0.0247244 -0.0597711 -0.997906
vn 0.913133 -0.274781 -0.301136
vn 0.947605 -0.303886 0.0984762
vn -0.0309568 0.882701 0.468915
vn 0.42143 0.756182 0.500585
vn 0.808899 -0.400053 -0.430859
vn 0.801955 0.469477 0.369403
vn 0.436774 -0.469437 -0.76737
vn 0.639531 -0.474382 -0.604949
vn 0.046566 -0.323888 -0.944949
vn -0.582477 -0.138269 -0.801001
vn -0.0455057 -0.173589 -0.983766
vn 0.423082 -0.167017 -0.890566
vn 0.816731 -0.187144 0.545827
vn 0.285401 -0.00268602 0.958404
vn 0.017804 0.757269 0.652861
vn -0.393255 0.56 0.729212
vn 0.330989 0.54728 0.768721
vn -0.423494 0.389596 0.817843
vn -0.775042 0.182342 0.60503
vn 0.0695947 0.377727 0.923298
vn -0.380484 0.259914 0.887511
vn -0.952677 0.0731155 0.29506
vn 0.126965 0.222522 0.966625
vn -0.901475 0.353079 -0.250354
vn -0.851187 -0.236443 -0.468589
vn 0.241351 0.958756 -0.150125
vn -0.775512 -0.54367 -0.320941
vn -0.010123 -0.978726 0.204922
vn 0.258314 -0.319292 -0.911771
vn 0.272928 -0.943667 0.187092
vn 0.642822 -0.675778 0.3607
vn 0.449526 -0.136683 -0.882748
vn 0.956245 -0.00592468 0.292506
vn 0.880329 -0.302691 0.365238
vn 0.831957 -0.168161 -0.528743
vn 0.699102 -0.351347 -0.622745
vn 0.823415 -0.130049 -0.552336
vn 0.995671 0.0221299 0.0902695
vn 0.839163 -0.0218318 0.543441
vn 0.372567 0.0609381 0.926002
vn 0.984048 -0.156123 0.0852908
vn 0.995704 0.0924693 0.00472893
vn 0.475945 0.346968 0.80814
vn 0.665112 0.139797 0.733541
vn -0.475844 -0.879474 -0.00984564
vn -0.902954 0.317266 0.289856
vn -0.763223 -0.639745 0.0906472
vn -0.50229 -0.818409 -0.279126
vn -0.145903 -0.147353 -0.978263
vn -0.552216 -0.782979 0.28636
vn -0.308656 0.171868 0.935518
vn -0.129766 -0.461529 -0.877583
vn -0.0890045 -0.948189 -0.304986
vn 0.743727 -0.283733 -0.605282
vn -0.421199 -0.713174 0.560335
vn 0.403573 -0.358961 0.841591
vn -0.229416 -0.969504 0.0862036
vn 0.181961 -0.952253 -0.245161
vn 0.910259 -0.365168 -0.195141
vn 0.7761 -0.396091 0.490694
vn -0.769829 -0.53343 -0.35045
vn -0.430924 0.0560776 -0.900644
vn -0.983605 0.0822429 0.160488
vn -0.0334206 -0.67268 -0.739178
vn -0.994131 0.0756816 0.0772988
vn -0.28157 0.925864 -0.251982
vn 0.819146 0.554485 0.146785
vn 0.75137 -0.648392 0.122599
vn 0.281234 -0.958408 -0.0485903
vn 0.924686 0.325578 0.19737
vn 0.841622 -0.5385 -0.041111
vn 0.92767 0.351808 0.125134
vn 0.964488 -0.238155 -0.114214
vn 0.401813 0.860663 0.312739
vn 0.994515 0.104309 -0.00776783
vn -0.902954 0.317266 0.289856
vn -0.421043 0.152152 0.894188
vn 0.312487 -0.261659 -0.913174
vn -0.637759 0.587371 -0.498256
vn -0.624267 0.63135 -0.460096
vn 0.488362 -0.0807312 -0.868899
vn 0.146431 -0.387074 -0.910347
vn -0.00678894 -0.991637 0.128881
vn 0.31913 -0.946888 0.0394969
vn 0.601324 -0.766764 0.224683
vn 0.962181 -0.0486942 0.268024
vn 0.557621 -0.0181147 -0.829898
vn 0.598133 0.801251 0.0153035
vn 0.993836 0.0358198 -0.104916
vn 0.675813 0.437761 0.592993
vn 0.931325 0.139791 0.336293
g grp1
usemtl mtl1
f 32//32 3//3 2//2 
f 2//2 3//3 1//1 
f 32//32 2//2 100//100 
f 124//124 6//6 121//121 
f 4//4 152//152 122//122 
f 121//121 5//5 123//123 
f 126//126 123//123 5//5 
f 5//5 9//9 126//126 
f 128//128 125//125 7//7 
f 76//76 7//7 125//125 
f 6//6 129//129 23//23 
f 23//23 121//121 6//6 
f 76//76 125//125 138//138 
f 121//121 23//23 26//26 
f 26//26 9//9 121//121 
f 8//8 153//153 127//127 
f 121//121 9//9 5//5 
f 131//131 126//126 9//9 
f 33//33 8//8 132//132 
f 50//50 48//48 10//10 
f 10//10 12//12 50//50 
f 10//10 47//47 11//11 
f 18//18 133//133 53//53 
f 56//56 142//142 17//17 
f 12//12 13//13 14//14 
f 13//13 12//12 10//10 
f 14//14 15//15 12//12 
f 18//18 10//10 11//11 
f 142//142 12//12 15//15 
f 142//142 15//15 17//17 
f 17//17 15//15 16//16 
f 58//58 17//17 16//16 
f 18//18 19//19 13//13 
f 10//10 18//18 13//13 
f 18//18 60//60 22//22 
f 21//21 15//15 14//14 
f 16//16 15//15 21//21 
f 63//63 58//58 16//16 
f 63//63 16//16 21//21 
f 19//19 14//14 13//13 
f 21//21 14//14 20//20 
f 14//14 19//19 20//20 
f 18//18 22//22 19//19 
f 62//62 30//30 134//134 
f 21//21 20//20 28//28 
f 68//68 63//63 21//21 
f 68//68 21//21 28//28 
f 22//22 27//27 19//19 
f 19//19 27//27 29//29 
f 27//27 22//22 30//30 
f 136//136 135//135 24//24 
f 24//24 89//89 25//25 
f 33//33 132//132 136//136 
f 24//24 25//25 136//136 
f 25//25 89//89 33//33 
f 136//136 25//25 33//33 
f 68//68 28//28 79//79 
f 20//20 34//34 28//28 
f 20//20 29//29 34//34 
f 20//20 19//19 29//29 
f 34//34 29//29 37//37 
f 29//29 38//38 37//37 
f 30//30 31//31 27//27 
f 30//30 71//71 31//31 
f 67//67 71//71 30//30 
f 27//27 137//137 29//29 
f 29//29 137//137 40//40 
f 140//140 31//31 71//71 
f 138//138 42//42 73//73 
f 138//138 73//73 76//76 
f 8//8 90//90 153//153 
f 8//8 33//33 90//90 
f 78//78 24//24 135//135 
f 89//89 24//24 78//78 
f 28//28 34//34 36//36 
f 28//28 36//36 79//79 
f 37//37 35//35 34//34 
f 34//34 35//35 36//36 
f 35//35 39//39 36//36 
f 36//36 39//39 91//91 
f 36//36 91//91 79//79 
f 29//29 40//40 38//38 
f 39//39 37//37 43//43 
f 43//43 37//37 38//38 
f 43//43 38//38 44//44 
f 35//35 37//37 39//39 
f 41//41 38//38 40//40 
f 141//141 98//98 46//46 
f 98//98 141//141 139//139 
f 139//139 153//153 98//98 
f 33//33 89//89 90//90 
f 39//39 43//43 92//92 
f 92//92 43//43 44//44 
f 94//94 44//44 95//95 
f 41//41 45//45 38//38 
f 45//45 44//44 38//38 
f 44//44 45//45 95//95 
f 41//41 46//46 45//45 
f 46//46 98//98 45//45 
f 48//48 101//101 47//47 
f 106//106 52//52 104//104 
f 47//47 10//10 48//48 
f 133//133 104//104 51//51 
f 52//52 51//51 104//104 
f 53//53 133//133 51//51 
f 54//54 53//53 51//51 
f 54//54 51//51 52//52 
f 49//49 57//57 52//52 
f 49//49 55//55 57//57 
f 142//142 56//56 102//102 
f 59//59 143//143 56//56 
f 60//60 18//18 53//53 
f 54//54 60//60 53//53 
f 54//54 52//52 57//57 
f 61//61 54//54 57//57 
f 144//144 54//54 61//61 
f 57//57 55//55 61//61 
f 56//56 17//17 58//58 
f 58//58 59//59 56//56 
f 59//59 58//58 63//63 
f 143//143 59//59 64//64 
f 143//143 64//64 146//146 
f 145//145 62//62 134//134 
f 147//147 144//144 61//61 
f 63//63 64//64 59//59 
f 147//147 61//61 65//65 
f 150//150 64//64 63//63 
f 148//148 146//146 64//64 
f 148//148 64//64 66//66 
f 67//67 30//30 62//62 
f 65//65 67//67 147//147 
f 67//67 65//65 149//149 
f 76//76 75//75 7//7 
f 130//130 75//75 77//77 
f 135//135 130//130 77//77 
f 150//150 69//69 64//64 
f 69//69 150//150 79//79 
f 64//64 69//69 66//66 
f 66//66 69//69 82//82 
f 67//67 70//70 71//71 
f 70//70 72//72 71//71 
f 81//81 84//84 70//70 
f 72//72 70//70 84//84 
f 70//70 67//67 81//81 
f 67//67 149//149 81//81 
f 72//72 140//140 71//71 
f 87//87 74//74 73//73 
f 87//87 88//88 74//74 
f 73//73 74//74 76//76 
f 74//74 88//88 75//75 
f 75//75 111//111 77//77 
f 88//88 111//111 75//75 
f 74//74 75//75 76//76 
f 78//78 135//135 77//77 
f 89//89 78//78 77//77 
f 80//80 69//69 79//79 
f 80//80 79//79 91//91 
f 69//69 80//80 82//82 
f 66//66 82//82 151//151 
f 84//84 83//83 72//72 
f 72//72 83//83 140//140 
f 84//84 112//112 83//83 
f 84//84 81//81 112//112 
f 83//83 85//85 140//140 
f 112//112 113//113 83//83 
f 83//83 113//113 85//85 
f 85//85 41//41 40//40 
f 41//41 85//85 86//86 
f 85//85 113//113 88//88 
f 46//46 41//41 86//86 
f 86//86 87//87 73//73 
f 85//85 87//87 86//86 
f 87//87 85//85 88//88 
f 73//73 42//42 86//86 
f 42//42 46//46 86//86 
f 116//116 90//90 89//89 
f 153//153 90//90 116//116 
f 39//39 92//92 91//91 
f 93//93 91//91 92//92 
f 91//91 82//82 80//80 
f 93//93 82//82 91//91 
f 92//92 44//44 94//94 
f 92//92 94//94 93//93 
f 93//93 94//94 96//96 
f 98//98 95//95 45//45 
f 96//96 94//94 97//97 
f 95//95 97//97 94//94 
f 97//97 153//153 99//99 
f 96//96 97//97 99//99 
f 98//98 153//153 95//95 
f 95//95 153//153 97//97 
f 11//11 47//47 103//103 
f 103//103 47//47 101//101 
f 154//154 105//105 158//158 
f 48//48 156//156 155//155 
f 50//50 156//156 48//48 
f 159//159 104//104 133//133 
f 108//108 105//105 154//154 
f 160//160 106//106 159//159 
f 106//106 104//104 159//159 
f 157//157 108//108 154//154 
f 106//106 160//160 161//161 
f 161//161 107//107 106//106 
f 107//107 52//52 106//106 
f 107//107 49//49 52//52 
f 161//161 110//110 107//107 
f 109//109 55//55 110//110 
f 110//110 55//55 49//49 
f 107//107 110//110 49//49 
f 157//157 163//163 108//108 
f 162//162 109//109 110//110 
f 56//56 164//164 102//102 
f 164//164 56//56 143//143 
f 77//77 111//111 117//117 
f 77//77 117//117 89//89 
f 151//151 82//82 118//118 
f 151//151 118//118 165//165 
f 118//118 113//113 165//165 
f 113//113 118//118 114//114 
f 113//113 111//111 88//88 
f 113//113 114//114 111//111 
f 117//117 115//115 89//89 
f 89//89 115//115 116//116 
f 120//120 116//116 115//115 
f 111//111 114//114 117//117 
f 120//120 115//115 114//114 
f 114//114 115//115 117//117 
f 166//166 82//82 93//93 
f 166//166 93//93 119//119 
f 93//93 96//96 119//119 
f 118//118 167//167 114//114 
f 119//119 96//96 99//99 
f 114//114 167//167 120//120 
f 120//120 119//119 99//99 
f 153//153 116//116 99//99 
f 116//116 120//120 99//99 
