#
# The license for this database is specified in the Creative Commons Attribution-Share Alike 2.1 Japan. If you use data from this database, please be sure attribute this database as follows: "BodyParts3D, (c)  The Database Center for Life Science licensed under CC Attribution-Share Alike 2.1 Japan".
# http://dbarchive.biosciencedbc.jp/en/bodyparts3d/lic.html
#
#
# Compatibility version : 4.0
# File ID : FJ2698
# Representation ID : BP9400
# Build-up logic : FMA 3.0 part_of
# Concept ID : FMA3840
# English name : Posterior interventricular branch of right coronary artery
# Bounds(mm): (39.459900,-154.170000,1175.900000)-(45.111400,-145.197000,1178.910000)
# Volume(cm3): 0.003900
#
v 39.5012 -145.807 1176.58
v 39.4599 -145.566 1176.58
v 39.5614 -145.818 1176.37
v 39.5158 -145.564 1176.39
v 39.5108 -145.565 1176.77
v 39.6799 -145.566 1176.96
v 39.5647 -145.372 1176.58
v 39.7341 -145.827 1176.96
v 39.7 -145.321 1176.78
v 39.948 -145.668 1176.13
v 39.8629 -145.248 1176.38
v 39.8752 -145.197 1176.58
v 40.9227 -147.588 1176.37
v 40.241 -146.902 1176.59
v 40.1335 -146.747 1176.37
v 40.2573 -146.531 1176.11
v 40.9339 -147.187 1176.87
v 41.0782 -147.333 1176.04
v 41.6099 -147.277 1176.76
v 41.4367 -147.107 1176.12
v 41.4726 -146.936 1176.39
v 40.1189 -145.645 1177
v 40.1443 -145.35 1176.39
v 40.0712 -145.268 1176.77
v 40.4374 -145.66 1176.76
v 42.1675 -150.964 1176.78
v 42.3137 -151.163 1177.13
v 42.2886 -150.733 1176.4
v 42.58 -151.586 1177.19
v 42.5202 -151.325 1176.79
v 42.5 -150.769 1176.4
v 42.7476 -150.758 1176.59
v 42.6919 -150.771 1177.12
v 42.8916 -151.344 1176.8
v 42.8785 -150.936 1176.78
v 42.8755 -150.878 1176.98
v 42.916 -151.002 1177.18
v 43.1316 -151.989 1177.18
v 43.0785 -151.213 1176.98
v 42.8785 -151.792 1177.58
v 42.9696 -151.483 1177.6
v 43.1184 -151.395 1177.51
v 42.0426 -150.565 1176.78
v 42.027 -149.965 1176.38
v 42.0933 -150.378 1176.38
v 42.2785 -150.565 1177.03
v 42.2771 -150.129 1176.82
v 42.3005 -149.903 1176.08
v 42.4941 -150.171 1176.13
v 42.4942 -150.164 1176.84
v 42.4959 -149.52 1176.67
v 42.7658 -150.586 1176.78
v 42.6732 -150.379 1176.37
v 42.7538 -150.371 1176.58
v 42.6873 -150.372 1176.78
v 42.7645 -150.13 1176.37
v 42.7593 -150.141 1176.58
v 42.7693 -149.599 1176.59
v 42.9339 -149.553 1176.39
v 42.8785 -149.215 1175.98
v 42.8695 -149.32 1176.57
v 42.1596 -148.542 1176.18
v 42.1551 -148.508 1176.39
v 42.2014 -148.319 1176.59
v 42.2925 -149.024 1176.18
v 42.3013 -149.038 1176.39
v 42.2996 -148.767 1176.19
v 42.3258 -148.789 1176.4
v 42.4568 -148.794 1175.96
v 42.3831 -148.498 1175.93
v 42.4785 -148.565 1176.61
v 42.4393 -148.141 1175.92
v 42.4785 -148.165 1176.67
v 42.4217 -147.716 1176.18
v 42.5596 -147.765 1176.38
v 42.6785 -148.965 1176.65
v 42.658 -148.783 1175.9
v 42.8785 -148.565 1175.94
v 42.8785 -148.565 1176.62
v 42.869 -148.163 1176.18
v 42.9207 -148.165 1176.38
v 43.0448 -148.587 1176.36
v 44.6082 -153.965 1178.78
v 44.6785 -154.17 1178.58
v 44.6602 -153.909 1178.31
v 43.9959 -152.813 1177.93
v 44.1614 -152.965 1178.18
v 44.0785 -152.754 1178.18
v 44.3053 -153.149 1177.99
v 44.2785 -152.765 1177.65
v 44.4735 -153.697 1178.36
v 44.4785 -152.823 1178.38
v 44.5457 -152.565 1177.78
v 44.6644 -153.713 1178.77
v 44.6756 -152.794 1178.18
v 43.4785 -151.965 1177.11
v 43.4785 -151.765 1177.1
v 43.5174 -151.632 1177.42
v 44.8785 -153.965 1178.3
v 44.8785 -153.965 1178.91
v 45.1114 -153.965 1178.58
v 44.8785 -153.677 1178.78
v 39.4599 -145.566 1176.58
v 39.4599 -145.566 1176.58
v 39.5158 -145.564 1176.39
v 39.5108 -145.565 1176.77
v 39.6799 -145.566 1176.96
v 39.6799 -145.566 1176.96
v 39.6799 -145.566 1176.96
v 39.7341 -145.827 1176.96
v 39.7 -145.321 1176.78
v 39.8629 -145.248 1176.38
v 39.8629 -145.248 1176.38
v 39.8752 -145.197 1176.58
v 40.9227 -147.588 1176.37
v 40.9227 -147.588 1176.37
v 41.0782 -147.333 1176.04
v 41.6099 -147.277 1176.76
v 41.6099 -147.277 1176.76
v 40.1189 -145.645 1177
v 40.1189 -145.645 1177
v 40.0712 -145.268 1176.77
v 40.0712 -145.268 1176.77
v 40.0712 -145.268 1176.77
v 40.4374 -145.66 1176.76
v 42.3137 -151.163 1177.13
v 42.5202 -151.325 1176.79
v 42.5 -150.769 1176.4
v 42.6919 -150.771 1177.12
v 42.8916 -151.344 1176.8
v 43.0785 -151.213 1176.98
v 42.8785 -151.792 1177.58
v 42.9696 -151.483 1177.6
v 43.1184 -151.395 1177.51
v 42.0426 -150.565 1176.78
v 42.027 -149.965 1176.38
v 42.027 -149.965 1176.38
v 42.2785 -150.565 1177.03
v 42.2771 -150.129 1176.82
v 42.4941 -150.171 1176.13
v 42.4959 -149.52 1176.67
v 42.7658 -150.586 1176.78
v 42.7593 -150.141 1176.58
v 42.9339 -149.553 1176.39
v 42.8785 -149.215 1175.98
v 42.8695 -149.32 1176.57
v 42.1596 -148.542 1176.18
v 42.2925 -149.024 1176.18
v 42.3013 -149.038 1176.39
v 42.3013 -149.038 1176.39
v 42.2996 -148.767 1176.19
v 42.2996 -148.767 1176.19
v 42.2996 -148.767 1176.19
v 42.3258 -148.789 1176.4
v 42.3258 -148.789 1176.4
v 42.4568 -148.794 1175.96
v 42.4785 -148.565 1176.61
v 42.4785 -148.165 1176.67
v 42.5596 -147.765 1176.38
v 42.6785 -148.965 1176.65
v 42.8785 -148.565 1175.94
v 42.8785 -148.565 1175.94
v 42.8785 -148.565 1176.62
v 42.9207 -148.165 1176.38
v 43.0448 -148.587 1176.36
v 44.6082 -153.965 1178.78
v 44.6082 -153.965 1178.78
v 44.6785 -154.17 1178.58
v 44.6785 -154.17 1178.58
v 44.6785 -154.17 1178.58
v 44.6785 -154.17 1178.58
v 44.6785 -154.17 1178.58
v 44.6602 -153.909 1178.31
v 44.1614 -152.965 1178.18
v 44.0785 -152.754 1178.18
v 44.2785 -152.765 1177.65
v 44.2785 -152.765 1177.65
v 44.4785 -152.823 1178.38
v 44.4785 -152.823 1178.38
v 44.4785 -152.823 1178.38
v 44.5457 -152.565 1177.78
v 44.5457 -152.565 1177.78
v 44.5457 -152.565 1177.78
v 43.4785 -151.965 1177.11
v 43.4785 -151.765 1177.1
v 43.5174 -151.632 1177.42
v 44.8785 -153.965 1178.3
v 44.8785 -153.965 1178.3
v 44.8785 -153.965 1178.91
v 44.8785 -153.965 1178.91
v 44.8785 -153.965 1178.91
v 45.1114 -153.965 1178.58
v 45.1114 -153.965 1178.58
v 45.1114 -153.965 1178.58
v 44.8785 -153.677 1178.78
vn -0.928003 -0.366821 0.0652106
vn -0.946273 -0.162173 -0.279762
vn -0.744832 -0.267693 -0.6112
vn -0.949979 -0.155135 -0.271061
vn -0.850087 -0.232688 0.472449
vn -0.736811 -0.169532 0.654498
vn -0.721097 0.691435 -0.0440016
vn -0.711067 -0.383812 0.589128
vn -0.531247 0.747075 0.399568
vn -0.114744 0.214171 -0.970033
vn -0.515215 0.673593 -0.529931
vn -0.379254 0.916335 0.12844
vn -0.545714 -0.727401 0.416034
vn -0.705078 -0.619942 0.344291
vn -0.726542 -0.558693 -0.399998
vn -0.468571 -0.283391 -0.836738
vn -0.239596 -0.391755 0.888325
vn 0.0015128 0.0928352 -0.99568
vn 0.154229 0.0211068 0.98781
vn 0.376383 0.463349 -0.802274
vn 0.690458 0.715767 -0.104616
vn -0.00649461 -0.0604279 0.998151
vn 0.558378 0.729507 -0.395011
vn 0.591984 0.803655 -0.06078
vn 0.768323 0.637982 0.051565
vn -0.833686 -0.496182 -0.242426
vn -0.875056 -0.429777 0.222639
vn -0.390688 -0.470501 -0.791197
vn -0.729051 -0.68183 -0.0599445
vn -0.605334 -0.668969 -0.431337
vn -0.0565159 -0.520969 -0.851703
vn 0.857543 -0.0387051 -0.512954
vn 0.0927916 0.537595 0.838082
vn 0.00650914 -0.503892 -0.863742
vn 0.891924 0.230325 -0.38913
vn 0.828662 0.541176 0.142997
vn 0.688717 0.672698 0.270455
vn -0.360984 -0.748122 -0.55678
vn 0.639609 0.113702 -0.760245
vn -0.483068 0.0779041 0.87211
vn -0.491049 0.0693885 0.868364
vn 0.543731 0.705379 0.454749
vn -0.964635 -0.251943 -0.0774903
vn -0.738606 -0.0241097 -0.673706
vn -0.809135 -0.277709 -0.51786
vn -0.663453 0.163184 0.730206
vn -0.751532 0.300313 0.587377
vn -0.440108 -0.141261 -0.886764
vn -0.0952253 -0.315387 -0.944173
vn 0.355202 0.341495 0.87018
vn 0.127789 0.120143 0.984498
vn 0.965949 0.197789 -0.1668
vn 0.760267 -0.255673 -0.597181
vn 0.999674 -0.0133994 -0.0217451
vn 0.833101 0.310562 0.457705
vn 0.896981 -0.263876 -0.354676
vn 0.714225 0.118663 0.689784
vn 0.601951 -0.0177732 0.798335
vn 0.956719 -0.22162 -0.188609
vn 0.889753 -0.196435 -0.41201
vn 0.841918 -0.129625 0.523805
vn -0.674289 -0.452989 -0.583211
vn -0.658047 -0.611177 0.439815
vn -0.316869 -0.426013 0.847412
vn -0.79948 0.0584547 -0.597842
vn -0.965709 0.163175 0.20194
vn -0.851427 -0.521147 0.058974
vn -0.639041 -0.0851738 0.764442
vn -0.823822 0.0516323 -0.564492
vn -0.405073 -0.28417 -0.869001
vn -0.584207 -0.378352 0.71802
vn 0.195749 0.262094 -0.944981
vn -0.0385566 -0.145123 0.988662
vn 0.536422 0.655029 -0.532155
vn 0.528341 0.537846 0.656946
vn -0.589743 -0.0286766 0.807081
vn -0.0534035 -0.0712213 -0.99603
vn 0.927741 0.104511 -0.358293
vn 0.122241 -0.0452829 0.991467
vn 0.743773 0.492621 -0.451805
vn 0.620487 0.366265 0.693431
vn 0.949228 0.0949948 -0.299903
vn -0.924407 -0.37735 0.0554794
vn -0.710574 -0.528249 -0.464798
vn -0.707005 -0.522575 -0.476507
vn -0.699106 -0.713142 -0.0517501
vn -0.879864 -0.470453 0.0671778
vn -0.787551 -0.488792 0.375295
vn -0.712249 -0.598512 -0.366721
vn -0.462749 -0.642393 -0.610897
vn -0.82044 -0.489793 -0.294925
vn -0.507943 0.0192232 0.861176
vn 0.58404 -0.0936697 -0.806302
vn -0.385196 0.270177 0.882399
vn 0.720277 0.60213 0.344442
vn -0.0794852 -0.557558 -0.826324
vn 0.509525 0.0524424 -0.858856
vn 0.75102 0.608022 -0.257446
vn -0.199079 -0.626238 -0.753786
vn 0.409717 -0.865193 0.289091
vn 0.409717 -0.865193 0.289091
vn 0.741566 0.420278 0.522921
vn -0.953634 -0.163435 0.252727
vn -0.880067 0.474715 -0.0113609
vn -0.638666 0.406965 -0.653058
vn -0.763019 0.51253 0.393846
vn -0.103234 -0.0469299 0.993549
vn -0.652149 0.486447 0.581439
vn 0.0309751 0.595223 0.802963
vn -0.0849111 -0.085473 0.992716
vn -0.00680706 0.562741 0.826605
vn 0.217726 0.541684 -0.811895
vn 0.33545 0.9057 -0.259192
vn 0.385244 0.903817 -0.186281
vn -0.544278 -0.546608 -0.636381
vn -0.723413 -0.678599 -0.127189
vn -0.544373 -0.519364 -0.658725
vn 0.640247 0.59182 0.489727
vn 0.56759 0.413157 0.71214
vn -0.00680706 0.562741 0.826605
vn 0.556539 0.454801 0.695285
vn -0.109437 0.885728 0.451119
vn -0.0445685 0.528547 0.847733
vn 0.544296 0.495471 0.676941
vn 0.556539 0.454801 0.695285
vn -0.612685 0.0912727 0.785039
vn -0.0538738 -0.544134 -0.837267
vn 0.590894 -0.265628 -0.761765
vn 0.705471 0.559662 0.434844
vn 0.636763 0.00579463 -0.771038
vn 0.821622 0.560401 -0.104345
vn -0.738065 -0.60065 0.307375
vn 0.135795 0.596371 0.791139
vn 0.147447 0.601613 0.785062
vn -0.729274 0.247251 0.637986
vn -0.967873 -0.156414 -0.196869
vn -0.865991 0.298918 0.400884
vn 0.0349316 0.484007 0.874367
vn -0.147609 0.352634 0.924046
vn 0.639868 -0.31173 -0.70242
vn -0.646489 0.126333 0.752391
vn 0.827015 0.413481 0.380894
vn 0.986593 -0.112687 0.118047
vn 0.823694 -0.120561 0.55407
vn 0.0956862 -0.13104 -0.986749
vn 0.279617 -0.0561026 0.958471
vn -0.735297 -0.671699 0.0903295
vn -0.986449 0.155572 0.0521114
vn -0.366862 0.346965 0.86315
vn -0.767745 0.0561538 0.638291
vn -0.820623 0.0443411 -0.569747
vn -0.99418 0.0595603 0.089771
vn -0.743095 -0.493759 -0.451677
vn -0.986438 0.0929591 0.135272
vn -0.853803 -0.517883 0.0530888
vn -0.533732 -0.262548 -0.803865
vn -0.0829952 -0.0695868 0.994117
vn 0.504093 0.426648 0.750907
vn 0.667146 0.706002 -0.23765
vn 0.112331 0.0184198 0.9935
vn 0.168543 0.000106992 -0.985694
vn 0.483918 0.460736 -0.744007
vn 0.747588 0.201736 0.632784
vn 0.848773 0.481663 -0.218141
vn 0.862742 0.0284143 0.504846
vn -0.302201 -0.716854 0.628327
vn -0.539757 0.144024 0.829409
vn -0.925614 -0.374002 0.0579765
vn 0.409717 -0.865193 0.289091
vn -0.216145 -0.707635 -0.672707
vn 0.403189 -0.851408 -0.335476
vn -0.302201 -0.716854 0.628327
vn -0.199079 -0.626238 -0.753786
vn -0.576134 0.068653 0.814467
vn -0.442809 -0.0367008 0.895865
vn -0.179328 -0.536393 -0.824696
vn 0.51414 -0.136467 -0.84678
vn 0.504836 0.690851 0.517557
vn -0.0954994 0.385211 0.917874
vn 0.139554 0.609696 0.780253
vn 0.694304 0.629158 -0.349432
vn 0.605402 0.759414 0.238282
vn 0.942904 0.306424 -0.130524
vn 0.477165 -0.0605733 -0.876724
vn 0.749664 0.572324 -0.332338
vn 0.522979 0.743043 0.417588
vn 0.403189 -0.851408 -0.335476
vn 0.660237 -0.11853 -0.741645
vn -0.302201 -0.716854 0.628327
vn -0.271323 0.27207 0.923235
vn 0.790742 0.251861 0.557937
vn 0.403189 -0.851408 -0.335476
vn 0.76755 -0.0547616 -0.638645
vn 0.897979 0.345661 0.272308
vn -0.0973539 0.397345 0.912491
g grp1
usemtl mtl1
f 3//3 15//15 1//1 
f 1//1 14//14 8//8 
f 15//15 14//14 1//1 
f 15//15 3//3 16//16 
f 8//8 14//14 17//17 
f 10//10 16//16 3//3 
f 2//2 4//4 1//1 
f 1//1 5//5 103//103 
f 1//1 4//4 3//3 
f 5//5 1//1 8//8 
f 8//8 6//6 5//5 
f 110//110 22//22 107//107 
f 104//104 7//7 105//105 
f 7//7 11//11 105//105 
f 106//106 7//7 104//104 
f 108//108 9//9 106//106 
f 11//11 7//7 12//12 
f 7//7 106//106 9//9 
f 12//12 7//7 9//9 
f 10//10 3//3 105//105 
f 17//17 22//22 110//110 
f 109//109 120//120 111//111 
f 10//10 105//105 11//11 
f 23//23 10//10 112//112 
f 113//113 114//114 23//23 
f 23//23 114//114 24//24 
f 12//12 9//9 122//122 
f 123//123 111//111 120//120 
f 63//63 17//17 13//13 
f 70//70 18//18 72//72 
f 70//70 62//62 115//115 
f 13//13 147//147 63//63 
f 70//70 115//115 117//117 
f 116//116 14//14 15//15 
f 117//117 115//115 15//15 
f 16//16 117//117 15//15 
f 18//18 16//16 10//10 
f 19//19 22//22 17//17 
f 14//14 13//13 17//17 
f 73//73 19//19 17//17 
f 20//20 72//72 18//18 
f 10//10 20//20 18//18 
f 10//10 23//23 20//20 
f 21//21 25//25 118//118 
f 119//119 125//125 121//121 
f 20//20 23//23 21//21 
f 24//24 25//25 23//23 
f 23//23 25//25 21//21 
f 125//125 124//124 121//121 
f 26//26 27//27 43//43 
f 41//41 46//46 126//126 
f 26//26 43//43 45//45 
f 28//28 26//26 45//45 
f 46//46 135//135 126//126 
f 26//26 30//30 29//29 
f 26//26 29//29 27//27 
f 40//40 41//41 126//126 
f 29//29 132//132 27//27 
f 28//28 31//31 127//127 
f 30//30 26//26 28//28 
f 34//34 127//127 31//31 
f 33//33 138//138 133//133 
f 53//53 32//32 128//128 
f 127//127 96//96 38//38 
f 29//29 30//30 38//38 
f 34//34 96//96 127//127 
f 128//128 32//32 130//130 
f 130//130 32//32 35//35 
f 35//35 52//52 36//36 
f 129//129 36//36 142//142 
f 35//35 32//32 52//52 
f 38//38 86//86 29//29 
f 29//29 86//86 132//132 
f 97//97 184//184 130//130 
f 130//130 35//35 39//39 
f 36//36 131//131 35//35 
f 37//37 131//131 36//36 
f 129//129 37//37 36//36 
f 130//130 39//39 97//97 
f 185//185 131//131 98//98 
f 131//131 37//37 98//98 
f 129//129 42//42 37//37 
f 37//37 42//42 186//186 
f 134//134 33//33 133//133 
f 48//48 28//28 45//45 
f 44//44 48//48 45//45 
f 45//45 43//43 136//136 
f 135//135 47//47 137//137 
f 47//47 135//135 46//46 
f 48//48 44//44 65//65 
f 69//69 48//48 65//65 
f 137//137 66//66 148//148 
f 137//137 47//47 66//66 
f 50//50 139//139 138//138 
f 28//28 49//49 31//31 
f 49//49 28//28 48//48 
f 50//50 51//51 139//139 
f 149//149 139//139 51//51 
f 150//150 141//141 68//68 
f 129//129 55//55 50//50 
f 33//33 50//50 138//138 
f 140//140 53//53 128//128 
f 57//57 50//50 55//55 
f 140//140 56//56 53//53 
f 58//58 50//50 57//57 
f 58//58 51//51 50//50 
f 48//48 156//156 77//77 
f 141//141 76//76 68//68 
f 32//32 53//53 54//54 
f 32//32 54//54 52//52 
f 142//142 54//54 55//55 
f 129//129 142//142 55//55 
f 53//53 56//56 54//54 
f 54//54 56//56 143//143 
f 143//143 55//55 54//54 
f 56//56 59//59 143//143 
f 57//57 144//144 58//58 
f 140//140 60//60 56//56 
f 59//59 56//56 60//60 
f 48//48 145//145 49//49 
f 61//61 58//58 144//144 
f 58//58 146//146 51//51 
f 145//145 48//48 77//77 
f 146//146 79//79 51//51 
f 79//79 160//160 51//51 
f 59//59 60//60 82//82 
f 61//61 144//144 165//165 
f 78//78 82//82 60//60 
f 163//163 61//61 165//165 
f 158//158 75//75 118//118 
f 17//17 63//63 64//64 
f 64//64 73//73 17//17 
f 74//74 72//72 20//20 
f 21//21 74//74 20//20 
f 147//147 67//67 63//63 
f 63//63 71//71 64//64 
f 157//157 73//73 64//64 
f 159//159 74//74 21//21 
f 65//65 151//151 69//69 
f 148//148 66//66 152//152 
f 66//66 154//154 152//152 
f 62//62 70//70 156//156 
f 62//62 156//156 153//153 
f 63//63 67//67 155//155 
f 68//68 71//71 63//63 
f 76//76 71//71 68//68 
f 77//77 156//156 70//70 
f 77//77 70//70 72//72 
f 79//79 157//157 160//160 
f 145//145 77//77 161//161 
f 72//72 161//161 77//77 
f 81//81 158//158 163//163 
f 79//79 73//73 157//157 
f 72//72 74//74 80//80 
f 74//74 159//159 80//80 
f 81//81 75//75 158//158 
f 72//72 80//80 162//162 
f 78//78 80//80 82//82 
f 82//82 80//80 164//164 
f 81//81 163//163 165//165 
f 159//159 164//164 80//80 
f 21//21 118//118 75//75 
f 90//90 85//85 91//91 
f 85//85 84//84 91//91 
f 168//168 83//83 91//91 
f 101//101 100//100 169//169 
f 99//99 170//170 173//173 
f 192//192 171//171 187//187 
f 166//166 172//172 189//189 
f 176//176 99//99 173//173 
f 190//190 94//94 167//167 
f 132//132 86//86 88//88 
f 40//40 175//175 41//41 
f 41//41 175//175 92//92 
f 38//38 90//90 86//86 
f 96//96 90//90 38//38 
f 86//86 89//89 87//87 
f 94//94 92//92 174//174 
f 87//87 88//88 86//86 
f 175//175 174//174 92//92 
f 186//186 178//178 95//95 
f 89//89 91//91 87//87 
f 89//89 90//90 91//91 
f 87//87 91//91 83//83 
f 90//90 89//89 86//86 
f 94//94 174//174 167//167 
f 184//184 97//97 93//93 
f 98//98 181//181 185//185 
f 95//95 182//182 186//186 
f 178//178 102//102 95//95 
f 195//195 179//179 94//94 
f 184//184 93//93 177//177 
f 188//188 177//177 93//93 
f 190//190 195//195 94//94 
f 193//193 188//188 93//93 
f 194//194 183//183 95//95 
f 180//180 134//134 133//133 
f 178//178 186//186 42//42 
f 95//95 102//102 194//194 
f 194//194 102//102 191//191 
