#
# The license for this database is specified in the Creative Commons Attribution-Share Alike 2.1 Japan. If you use data from this database, please be sure attribute this database as follows: "BodyParts3D, (c)  The Database Center for Life Science licensed under CC Attribution-Share Alike 2.1 Japan".
# http://dbarchive.biosciencedbc.jp/en/bodyparts3d/lic.html
#
#
# Compatibility version : 4.0
# File ID : FJ2695
# Representation ID : BP9400
# Build-up logic : FMA 3.0 part_of
# Concept ID : FMA3840
# English name : Posterior interventricular branch of right coronary artery
# Bounds(mm): (37.641400,-134.781000,1174.950000)-(46.478500,-128.965000,1178.650000)
# Volume(cm3): 0.006300
#
v 37.8867 -134.661 1177.98
v 37.8887 -134.698 1178.19
v 37.8819 -134.613 1178.38
v 38.0852 -134.781 1178.17
v 38.0843 -134.727 1178.37
v 38.2678 -134.663 1177.79
v 38.4685 -134.69 1178.16
v 38.346 -133.891 1177.33
v 37.6794 -134.368 1177.98
v 37.6534 -134.353 1178.18
v 37.6532 -134.165 1177.99
v 37.6414 -134.165 1178.18
v 37.7496 -134.556 1178.18
v 37.7226 -134.374 1178.37
v 37.7514 -134.159 1177.78
v 37.7135 -134.17 1178.38
v 37.722 -133.964 1177.97
v 37.7108 -133.969 1178.18
v 37.892 -133.727 1177.96
v 37.8966 -134.364 1177.67
v 37.8808 -134.367 1178.55
v 37.8942 -134.15 1177.62
v 37.893 -134.164 1178.56
v 37.8817 -133.963 1178.44
v 38.0295 -133.754 1177.59
v 37.901 -133.749 1178.17
v 38.0945 -133.716 1178.34
v 38.0717 -134.558 1178.56
v 38.0791 -134.365 1178.65
v 38.082 -134.161 1177.49
v 38.0945 -134.171 1178.64
v 38.1 -133.94 1177.46
v 38.1512 -133.914 1178.53
v 38.2817 -134.557 1178.57
v 38.3365 -134.294 1177.48
v 38.2789 -134.358 1178.65
v 38.6791 -133.156 1177.19
v 39.2678 -133.189 1176.94
v 39.6209 -133.249 1177.01
v 39.8699 -133.249 1177.24
v 38.4784 -134.37 1178.57
v 38.4687 -134.158 1178.58
v 38.4826 -133.102 1177.79
v 38.7224 -134.286 1177.57
v 38.6984 -133.761 1178.36
v 38.8957 -134.165 1178.18
v 39.4004 -132.394 1177
v 39.4502 -132.616 1176.81
v 39.7046 -132.752 1176.7
v 39.8446 -132.18 1176.78
v 39.8927 -132.943 1176.78
v 39.9586 -132.374 1176.59
v 39.8764 -132.064 1176.99
v 38.7731 -132.823 1177.4
v 39.0556 -132.756 1177.8
v 39.3111 -132.396 1177.38
v 39.6484 -132.818 1177.81
v 40.0926 -133.035 1176.98
v 40.2636 -132.967 1177.18
v 40.3514 -132.152 1176.48
v 40.307 -131.922 1176.76
v 40.2874 -131.911 1176.98
v 40.5434 -132.798 1176.74
v 40.5324 -132.386 1176.4
v 40.5314 -132.18 1177.32
v 40.7417 -132.773 1176.96
v 40.7015 -132.562 1177.26
v 40.72 -131.808 1176.76
v 40.7251 -131.859 1176.96
v 41.6081 -132.313 1176.03
v 41.5998 -131.759 1176.19
v 40.0785 -132.965 1177.47
v 40.049 -132.157 1177.37
v 43.0458 -131.565 1175.46
v 43.068 -131.389 1175.59
v 41.8083 -132.172 1176.8
v 41.6421 -131.959 1176.79
v 41.6461 -131.706 1176.4
v 41.6502 -131.771 1176.57
v 41.8438 -131.959 1175.91
v 41.9855 -132.407 1176.62
v 42.1028 -131.954 1176.64
v 42.059 -131.68 1176.4
v 42.2213 -132.452 1176.19
v 42.2892 -132.425 1176.38
v 42.3497 -132.137 1176.57
v 42.2654 -131.602 1176.19
v 42.4851 -131.717 1176.36
v 42.9455 -131.713 1176.23
v 43.2462 -132.016 1175.6
v 43.2434 -132.037 1176
v 43.4436 -132 1175.79
v 43.8299 -131.367 1175.17
v 44.1144 -131.118 1175.67
v 44.1548 -130.765 1175.18
v 44.3942 -131.365 1175.18
v 44.2785 -131.34 1175.58
v 44.1778 -130.755 1175.42
v 43.184 -131.325 1175.82
v 44.8785 -130.142 1175.18
v 45.0785 -130.586 1175.38
v 45.2184 -130.206 1174.95
v 45.6785 -130.167 1174.98
v 45.8061 -130.082 1175.19
v 45.6079 -129.565 1175.38
v 45.6785 -129.765 1175.43
v 45.8022 -129.365 1175.18
v 45.8781 -129.58 1175.06
v 46.0555 -129.201 1175.57
v 46.0785 -129.63 1175.38
v 46.1735 -129.565 1175.18
v 46.0822 -129.24 1175.19
v 46.0785 -128.965 1175.35
v 46.2785 -129.474 1175.38
v 46.2785 -129.365 1175.22
v 46.2786 -129.168 1175.23
v 46.301 -129.165 1175.58
v 46.2785 -128.965 1175.31
v 46.2785 -128.965 1175.62
v 46.4785 -129.165 1175.36
v 38.4784 -134.37 1178.57
v 38.6984 -133.761 1178.36
v 38.8957 -134.165 1178.18
v 39.6484 -132.818 1177.81
v 43.068 -131.389 1175.59
v 41.8438 -131.959 1175.91
v 44.1144 -131.118 1175.67
v 44.1548 -130.765 1175.18
v 44.3942 -131.365 1175.18
v 44.3942 -131.365 1175.18
v 44.3942 -131.365 1175.18
v 44.1778 -130.755 1175.42
v 44.8785 -130.142 1175.18
v 44.8785 -130.142 1175.18
v 44.8785 -130.142 1175.18
v 45.0785 -130.586 1175.38
v 45.0785 -130.586 1175.38
v 45.0785 -130.586 1175.38
v 45.6785 -130.167 1174.98
v 45.6079 -129.565 1175.38
v 45.6079 -129.565 1175.38
v 45.6785 -129.765 1175.43
v 45.8022 -129.365 1175.18
v 46.0555 -129.201 1175.57
v 46.0555 -129.201 1175.57
v 46.0785 -129.63 1175.38
v 46.1735 -129.565 1175.18
v 46.1735 -129.565 1175.18
v 46.0785 -128.965 1175.35
v 46.0785 -128.965 1175.35
v 46.0785 -128.965 1175.35
v 46.2785 -129.474 1175.38
v 46.2785 -129.474 1175.38
v 46.2785 -129.365 1175.22
v 46.2785 -128.965 1175.31
v 46.2785 -128.965 1175.31
v 46.2785 -128.965 1175.62
v 46.2785 -128.965 1175.62
v 46.2785 -128.965 1175.62
v 46.2785 -128.965 1175.62
v 46.4785 -129.165 1175.36
v 46.4785 -129.165 1175.36
v 46.4785 -129.165 1175.36
vn -0.551295 -0.750114 -0.365244
vn -0.542783 -0.831247 0.12006
vn -0.601213 -0.620635 0.503344
vn -0.106935 -0.992769 -0.0545345
vn -0.117258 -0.884346 0.451865
vn 0.0257104 -0.831444 -0.555013
vn 0.533219 -0.835396 0.133387
vn -0.349791 -0.131936 -0.927491
vn -0.878367 -0.337981 -0.337993
vn -0.973609 -0.195327 0.118041
vn -0.975153 0.109026 -0.192847
vn -0.979631 0.138256 0.145632
vn -0.81998 -0.566762 0.0800866
vn -0.829978 -0.299129 0.470807
vn -0.839208 0.0465591 -0.541813
vn -0.842909 0.143115 0.518674
vn -0.87027 0.414987 -0.26536
vn -0.857076 0.483449 0.178036
vn -0.772991 0.627558 -0.093037
vn -0.546652 -0.439576 -0.712703
vn -0.607151 -0.238892 0.757825
vn -0.685109 -0.0101258 -0.72837
vn -0.498896 0.220256 0.838207
vn -0.57276 0.540739 0.616073
vn -0.762288 0.375134 -0.527439
vn -0.653899 0.684276 0.322772
vn -0.41742 0.685487 0.596547
vn -0.284937 -0.564609 0.774614
vn -0.221103 -0.198523 0.954831
vn -0.423793 -0.247453 -0.871302
vn -0.0813488 0.233376 0.968978
vn -0.585185 0.0746538 -0.807456
vn -0.089976 0.492411 0.865699
vn 0.214336 -0.609123 0.763564
vn -0.0530629 -0.52038 -0.852284
vn 0.175616 -0.116986 0.977483
vn -0.632744 0.310532 -0.709369
vn -0.130435 -0.367542 -0.920815
vn 0.252582 -0.68732 -0.681024
vn 0.619461 -0.777881 -0.105686
vn 0.644335 -0.611675 0.459005
vn 0.383279 0.16723 0.908368
vn -0.601589 0.756981 0.25509
vn 0.409878 -0.728283 -0.549185
vn 0.160258 0.38788 0.907671
vn 0.73836 -0.626117 0.250604
vn -0.624811 0.652963 -0.428077
vn -0.493544 0.175274 -0.851876
vn -0.267116 -0.218414 -0.938586
vn -0.506444 0.618461 -0.60085
vn 0.0733 -0.640974 -0.764055
vn -0.416684 0.188025 -0.889394
vn -0.442283 0.896162 -0.035757
vn -0.716957 0.652543 -0.245276
vn -0.229809 0.69901 0.67718
vn -0.492482 0.848626 0.193122
vn 0.533724 -0.124175 0.836492
vn 0.356879 -0.869269 -0.342066
vn 0.51162 -0.85049 0.12211
vn -0.394539 0.448714 -0.801869
vn -0.361137 0.861276 -0.357469
vn -0.23209 0.952939 0.195042
vn 0.0968228 -0.850339 -0.517252
vn -0.235103 -0.264826 -0.935197
vn 0.283648 0.39874 0.872095
vn 0.390412 -0.893767 0.220813
vn 0.484847 -0.341389 0.805219
vn -0.169987 0.985206 -0.0217428
vn 0.0572076 0.8629 0.502126
vn -0.213205 -0.4469 -0.868806
vn -0.311891 0.874908 -0.370486
vn 0.61896 -0.587973 0.520745
vn -0.0994581 0.776322 0.62244
vn -0.432838 0.251622 -0.865643
vn -0.477325 0.538354 -0.694503
vn 0.386971 0.0136125 0.921991
vn 0.233253 0.586654 0.775519
vn -0.0804503 0.98471 0.154513
vn 0.0784187 0.854356 0.513737
vn -0.335962 -0.0364071 -0.941171
vn 0.429736 -0.558348 0.70963
vn 0.280638 0.429371 0.858419
vn 0.0762764 0.833204 0.54768
vn 0.177062 -0.953226 -0.244968
vn 0.424856 -0.817418 0.389005
vn 0.467391 -0.203222 0.860376
vn -0.0843582 0.958752 0.271439
vn 0.129854 0.738577 0.661545
vn 0.241828 0.436547 0.866572
vn 0.108942 -0.779926 -0.616317
vn 0.544306 -0.609362 0.576549
vn 0.478615 -0.874123 0.0826862
vn -0.202013 -0.153377 -0.967298
vn -0.020221 0.517483 0.855455
vn -0.425409 0.366616 -0.827418
vn 0.0401569 -0.344183 -0.938044
vn 0.587994 -0.375084 0.716642
vn -0.549735 0.835194 0.0155393
vn -0.18712 0.914849 0.357824
vn -0.421058 0.494814 -0.760177
vn -0.222219 0.266285 0.937929
vn -0.186296 0.188842 -0.964174
vn 0.173884 -0.0435959 -0.983801
vn 0.724965 -0.659729 0.197948
vn -0.375916 0.142371 0.915652
vn -0.356894 0.106261 0.928082
vn -0.256998 0.459952 -0.849939
vn 0.117151 0.197366 -0.973305
vn -0.437444 0.0699277 0.896523
vn 0.684375 -0.672112 0.282661
vn 0.754279 -0.656513 -0.00737248
vn -0.00196518 0.348949 -0.93714
vn -0.185009 0.498823 -0.846728
vn 0.614649 -0.787985 0.0358661
vn 0.350571 0.0647295 -0.934297
vn 0.341703 0.199713 -0.918343
vn 0.415759 -0.345099 0.841458
vn 0 1 0
vn -0.679243 0.534333 0.503108
vn 0.773556 -0.523787 -0.356733
vn 0.476449 -0.138769 0.868182
vn 0.629031 -0.0440183 0.776133
vn 0.633927 -0.0505097 0.771742
vn 0.0921053 0.479447 0.872724
vn -0.429396 0.902446 -0.0347715
vn -0.410604 0.551541 -0.726091
vn 0.392142 -0.0662232 0.917518
vn -0.576283 0.817023 0.0192696
vn 0.37704 -0.869334 -0.31953
vn 0.643958 -0.689391 0.33175
vn 0.668678 -0.735299 -0.110473
vn -0.0995173 0.639532 0.762296
vn -0.652136 0.757546 0.0290278
vn -0.206385 0.414326 0.886419
vn -0.637511 0.75788 0.138556
vn 0.338944 -0.111903 0.934128
vn 0.61971 -0.641536 0.452096
vn 0.18624 -0.194813 0.962997
vn 0.733664 -0.654238 -0.183601
vn -0.721129 0.692756 -0.00783947
vn -0.661321 0.544511 0.51591
vn 0.214658 -0.290309 0.932546
vn -0.721129 0.692756 -0.00783947
vn 0.085518 -0.331833 0.939454
vn -0.670331 0.539461 0.509547
vn 0.21762 -0.382127 0.898121
vn 0.371214 -0.00304682 -0.928542
vn 0.872807 -0.403394 -0.274737
vn -0.781193 0.605003 -0.153979
vn -0.670331 0.539461 0.509547
vn 0 1 0
vn 0.826397 -0.465402 -0.316969
vn 0.56457 -0.476984 0.673607
vn 0.826397 -0.465402 -0.316969
vn 0.142751 0.415117 -0.898499
vn 0.7071 0.707114 0
vn 0 1 0
vn 0.777663 -0.0381441 0.627523
vn -0.0102094 -0.197397 0.98027
vn 0.7071 0.707114 0
vn 0.537358 0.179467 -0.824037
vn 0.756678 -0.233708 0.610589
vn 0.7071 0.707114 0
g grp1
usemtl mtl1
f 1//1 2//2 13//13 
f 13//13 2//2 3//3 
f 6//6 4//4 1//1 
f 1//1 4//4 2//2 
f 6//6 1//1 20//20 
f 4//4 5//5 2//2 
f 5//5 3//3 2//2 
f 3//3 5//5 28//28 
f 4//4 6//6 7//7 
f 20//20 35//35 6//6 
f 5//5 34//34 28//28 
f 4//4 7//7 5//5 
f 6//6 35//35 44//44 
f 6//6 44//44 7//7 
f 7//7 34//34 5//5 
f 37//37 8//8 32//32 
f 9//9 13//13 10//10 
f 15//15 20//20 9//9 
f 11//11 15//15 9//9 
f 9//9 10//10 11//11 
f 10//10 12//12 11//11 
f 15//15 11//11 17//17 
f 11//11 12//12 18//18 
f 17//17 11//11 18//18 
f 1//1 9//9 20//20 
f 13//13 9//9 1//1 
f 13//13 14//14 10//10 
f 13//13 3//3 14//14 
f 3//3 21//21 14//14 
f 15//15 22//22 20//20 
f 16//16 10//10 14//14 
f 12//12 10//10 16//16 
f 21//21 23//23 16//16 
f 14//14 21//21 16//16 
f 25//25 22//22 15//15 
f 17//17 25//25 15//15 
f 12//12 16//16 18//18 
f 16//16 24//24 18//18 
f 16//16 23//23 24//24 
f 19//19 25//25 17//17 
f 17//17 18//18 19//19 
f 24//24 26//26 18//18 
f 19//19 18//18 26//26 
f 29//29 21//21 28//28 
f 21//21 3//3 28//28 
f 20//20 22//22 30//30 
f 23//23 21//21 29//29 
f 29//29 31//31 23//23 
f 32//32 30//30 22//22 
f 25//25 32//32 22//22 
f 31//31 33//33 23//23 
f 33//33 24//24 23//23 
f 24//24 27//27 26//26 
f 27//27 24//24 33//33 
f 54//54 25//25 19//19 
f 35//35 20//20 30//30 
f 29//29 28//28 34//34 
f 29//29 34//34 36//36 
f 35//35 30//30 8//8 
f 36//36 31//31 29//29 
f 8//8 30//30 32//32 
f 32//32 25//25 37//37 
f 54//54 37//37 25//25 
f 34//34 7//7 41//41 
f 34//34 121//121 36//36 
f 121//121 42//42 36//36 
f 42//42 31//31 36//36 
f 42//42 45//45 33//33 
f 42//42 33//33 31//31 
f 54//54 19//19 43//43 
f 19//19 26//26 43//43 
f 46//46 7//7 40//40 
f 8//8 37//37 48//48 
f 39//39 35//35 38//38 
f 38//38 35//35 8//8 
f 38//38 8//8 48//48 
f 58//58 39//39 51//51 
f 51//51 39//39 38//38 
f 39//39 58//58 40//40 
f 39//39 44//44 35//35 
f 42//42 123//123 122//122 
f 43//43 26//26 27//27 
f 7//7 44//44 40//40 
f 7//7 46//46 41//41 
f 44//44 39//39 40//40 
f 121//121 123//123 42//42 
f 46//46 40//40 72//72 
f 122//122 123//123 57//57 
f 72//72 57//57 123//123 
f 37//37 54//54 47//47 
f 47//47 54//54 56//56 
f 48//48 37//37 47//47 
f 49//49 38//38 48//48 
f 56//56 53//53 47//47 
f 53//53 56//56 73//73 
f 48//48 47//47 50//50 
f 38//38 49//49 51//51 
f 49//49 48//48 52//52 
f 52//52 48//48 50//50 
f 50//50 47//47 53//53 
f 53//53 73//73 62//62 
f 49//49 64//64 51//51 
f 62//62 61//61 53//53 
f 61//61 50//50 53//53 
f 56//56 54//54 43//43 
f 43//43 27//27 55//55 
f 27//27 33//33 55//55 
f 55//55 33//33 124//124 
f 56//56 43//43 55//55 
f 45//45 124//124 33//33 
f 56//56 55//55 73//73 
f 55//55 124//124 73//73 
f 65//65 73//73 124//124 
f 59//59 40//40 58//58 
f 72//72 40//40 59//59 
f 64//64 63//63 51//51 
f 64//64 49//49 52//52 
f 52//52 60//60 64//64 
f 52//52 50//50 60//60 
f 60//60 50//50 61//61 
f 63//63 58//58 51//51 
f 58//58 66//66 59//59 
f 66//66 72//72 59//59 
f 66//66 67//67 72//72 
f 69//69 73//73 65//65 
f 69//69 62//62 73//73 
f 68//68 61//61 62//62 
f 63//63 66//66 58//58 
f 64//64 70//70 63//63 
f 77//77 69//69 65//65 
f 68//68 62//62 69//69 
f 60//60 61//61 71//71 
f 71//71 61//61 68//68 
f 80//80 64//64 60//60 
f 76//76 67//67 81//81 
f 67//67 76//76 65//65 
f 60//60 71//71 126//126 
f 76//76 77//77 65//65 
f 71//71 68//68 78//78 
f 78//78 68//68 69//69 
f 63//63 70//70 84//84 
f 66//66 81//81 67//67 
f 70//70 64//64 80//80 
f 77//77 79//79 69//69 
f 69//69 79//79 78//78 
f 84//84 66//66 63//63 
f 72//72 67//67 57//57 
f 67//67 65//65 57//57 
f 80//80 74//74 70//70 
f 93//93 70//70 74//74 
f 70//70 93//93 90//90 
f 84//84 70//70 90//90 
f 84//84 90//90 92//92 
f 84//84 85//85 66//66 
f 76//76 82//82 77//77 
f 82//82 83//83 77//77 
f 77//77 83//83 79//79 
f 87//87 71//71 78//78 
f 83//83 78//78 79//79 
f 85//85 81//81 66//66 
f 86//86 76//76 81//81 
f 86//86 82//82 76//76 
f 87//87 78//78 83//83 
f 85//85 86//86 81//81 
f 126//126 71//71 75//75 
f 126//126 75//75 74//74 
f 86//86 89//89 82//82 
f 87//87 83//83 88//88 
f 88//88 83//83 82//82 
f 89//89 88//88 82//82 
f 89//89 99//99 88//88 
f 88//88 99//99 87//87 
f 125//125 71//71 99//99 
f 99//99 71//71 87//87 
f 85//85 91//91 86//86 
f 97//97 89//89 86//86 
f 85//85 84//84 92//92 
f 92//92 91//91 85//85 
f 86//86 91//91 97//97 
f 90//90 93//93 96//96 
f 129//129 92//92 90//90 
f 92//92 97//97 91//91 
f 130//130 97//97 92//92 
f 75//75 95//95 74//74 
f 74//74 95//95 93//93 
f 93//93 95//95 102//102 
f 125//125 99//99 98//98 
f 96//96 93//93 102//102 
f 128//128 125//125 98//98 
f 102//102 95//95 100//100 
f 133//133 128//128 98//98 
f 132//132 94//94 134//134 
f 134//134 94//94 101//101 
f 127//127 97//97 136//136 
f 132//132 99//99 89//89 
f 94//94 132//132 89//89 
f 97//97 127//127 89//89 
f 130//130 137//137 97//97 
f 134//134 101//101 105//105 
f 104//104 137//137 130//130 
f 96//96 102//102 103//103 
f 101//101 106//106 105//105 
f 139//139 104//104 131//131 
f 104//104 110//110 137//137 
f 146//146 142//142 138//138 
f 108//108 103//103 102//102 
f 104//104 139//139 111//111 
f 108//108 147//147 103//103 
f 111//111 110//110 104//104 
f 105//105 106//106 109//109 
f 146//146 144//144 142//142 
f 100//100 107//107 102//102 
f 102//102 107//107 108//108 
f 140//140 143//143 135//135 
f 113//113 112//112 107//107 
f 149//149 143//143 140//140 
f 141//141 145//145 150//150 
f 112//112 108//108 107//107 
f 117//117 144//144 146//146 
f 150//150 145//145 119//119 
f 151//151 157//157 118//118 
f 110//110 111//111 114//114 
f 115//115 147//147 108//108 
f 112//112 115//115 108//108 
f 152//152 148//148 154//154 
f 153//153 117//117 146//146 
f 112//112 116//116 115//115 
f 116//116 112//112 155//155 
f 155//155 112//112 113//113 
f 152//152 154//154 120//120 
f 161//161 115//115 116//116 
f 155//155 161//161 116//116 
f 117//117 162//162 158//158 
f 144//144 117//117 159//159 
f 163//163 156//156 160//160 
f 153//153 162//162 117//117 
