# Blender v2.77 (sub 0) OBJ File: ''
# www.blender.org
mtllib posterior segmental branch of left renal artery.mtl
o grp1.005
v 56.844200 -75.858871 1047.530029
v 55.068848 -73.138840 1052.087891
v 57.508606 -77.901657 1042.216064
v 56.289062 -74.121262 1051.070312
v 54.751953 -72.579269 1051.212891
v 54.632690 -72.339279 1052.558105
v 55.213623 -70.254082 1056.859375
v 54.720200 -71.222565 1052.030029
v 54.322815 -69.807793 1056.589844
v 54.228100 -70.327972 1054.599976
v 54.235962 -68.246269 1056.954102
v 57.580700 -77.843971 1041.420044
v 57.042900 -76.916466 1041.869995
v 58.544052 -78.269691 1041.479248
v 58.583984 -77.957687 1043.029297
v 58.456177 -77.830002 1040.584229
v 57.919300 -76.919968 1040.339966
v 57.159100 -76.003471 1041.800049
v 58.960815 -78.085861 1042.249512
v 58.895081 -76.586349 1039.854126
v 58.205200 -75.631569 1040.420044
v 59.501701 -77.766365 1041.479980
v 59.637070 -77.465134 1040.755127
v 58.480099 -76.223167 1039.939941
v 59.354980 -77.201828 1040.203613
v 59.679565 -77.295944 1042.082520
v 59.494202 -75.612068 1043.489990
v 58.877899 -75.987465 1039.939941
v 58.480099 -76.223167 1039.939941
v 58.858887 -75.230392 1040.780762
v 59.956558 -76.387375 1040.759399
v 59.463902 -76.138870 1040.119995
v 59.380493 -75.552780 1040.428711
v 58.214844 -76.281418 1046.203125
v 58.809399 -75.175369 1046.069946
v 58.127930 -73.432785 1047.554688
v 57.520802 -72.765167 1047.709961
v 59.768524 -75.714493 1041.103516
v 57.722401 -73.098671 1049.640015
v 57.722401 -73.098671 1049.640015
v 56.312500 -70.953300 1055.156250
v 56.773438 -73.590012 1045.765625
v 56.794300 -72.636765 1047.520020
v 55.850300 -70.931168 1051.000000
v 56.927700 -71.330467 1051.589966
v 55.850300 -70.931168 1051.000000
v 56.144001 -69.325775 1054.260010
v 54.815800 -68.892975 1054.650024
v 54.815800 -68.892975 1054.650024
v 56.113281 -67.425957 1059.726562
v 56.474602 -69.859879 1055.599976
v 56.609001 -67.882179 1058.040039
v 56.474602 -69.859879 1055.599976
v 56.927700 -71.330467 1051.589966
v 56.144001 -69.325775 1054.260010
v 56.609001 -67.882179 1058.040039
v 57.473801 -64.786179 1059.540039
v 56.609001 -67.882179 1058.040039
v 55.455700 -66.363174 1057.569946
v 55.166016 -67.519707 1059.523438
v 54.700100 -67.634476 1058.849976
v 57.164062 -64.609550 1062.023438
v 56.609001 -67.882179 1058.040039
v 57.473801 -64.786179 1059.540039
v 57.322899 -65.952675 1060.339966
v 57.322899 -65.952675 1060.339966
v 55.455700 -66.363174 1057.569946
v 55.455700 -66.363174 1057.569946
v 55.355400 -65.600777 1058.829956
v 55.455700 -66.363174 1057.569946
v 55.032715 -65.975273 1059.587646
v 56.674500 -64.121872 1059.709961
v 56.308594 -64.523613 1061.472656
v 57.848145 -61.944996 1062.143555
v 56.820312 -63.703297 1060.070312
v 57.378906 -63.222828 1062.519531
v 59.218750 -63.371265 1062.347656
v 58.875000 -62.093922 1061.359375
v 58.969101 -63.205570 1062.900024
v 59.549801 -61.698273 1063.969971
v 59.590801 -62.339771 1061.810059
v 59.925598 -60.336670 1064.260010
v 59.184101 -63.369572 1062.319946
v 60.281250 -61.484547 1062.343750
v 62.187500 -58.000172 1064.664062
v 61.402401 -58.553673 1064.530029
v 63.718750 -57.976734 1064.976562
v 62.647099 -58.153576 1066.229980
v 62.848598 -59.514271 1064.930054
v 61.782200 -60.071774 1065.089966
v 61.782200 -60.071774 1065.089966
v 63.543800 -58.652176 1066.250000
v 62.647099 -58.153576 1066.229980
v 64.850304 -55.730377 1067.420044
v 64.850304 -55.730377 1067.420044
v 63.543800 -58.652176 1066.250000
v 66.148003 -56.352577 1068.680054
v 64.161903 -56.958874 1065.680054
v 66.154297 -56.350761 1068.691406
v 65.468002 -56.879677 1066.880005
v 65.703499 -55.445877 1069.339966
v 65.742203 -56.028774 1069.079956
v 62.647099 -58.153576 1066.229980
v 65.742203 -56.028774 1069.079956
v 66.143997 -55.758175 1067.540039
v 65.955803 -55.283775 1067.790039
v 65.955803 -55.283775 1067.790039
v 67.219902 -55.144577 1069.229980
v 67.616096 -54.824776 1070.910034
v 67.616096 -54.824776 1070.910034
v 67.219902 -55.144577 1069.229980
v 67.520500 -54.229176 1069.920044
v 67.049599 -53.886574 1070.520020
v 66.690498 -54.104374 1070.650024
v 66.690498 -54.104374 1070.650024
v 67.520500 -54.229176 1069.920044
v 67.124802 -54.482777 1071.550049
v 67.124802 -54.482777 1071.550049
v 67.517601 -54.256577 1071.550049
v 67.517601 -54.256577 1071.550049
v 67.304604 -53.903275 1071.359985
v 67.124802 -54.482777 1071.550049
v 67.304604 -53.903275 1071.359985
v 67.304604 -53.903275 1071.359985
v 67.952202 -54.224274 1070.869995
v 67.952202 -54.224274 1070.869995
v 67.738297 -53.848476 1070.750000
v 67.517601 -54.256577 1071.550049
v 67.738297 -53.848476 1070.750000
v 67.304604 -53.903275 1071.359985
v 67.738297 -53.848476 1070.750000
v 67.616096 -54.824776 1070.910034
v 67.952202 -54.224274 1070.869995
v 67.517601 -54.256577 1071.550049
v 67.952202 -54.224274 1070.869995
vn -0.2886 -0.8869 0.3606
vn -0.6404 -0.7033 0.3086
vn -0.5995 -0.7989 0.0480
vn 0.1069 -0.8468 0.5210
vn -0.9751 -0.1449 -0.1678
vn -0.0708 -0.7711 0.6328
vn -0.9195 -0.3798 0.1016
vn -0.8241 -0.4180 0.3824
vn -0.9980 -0.0367 -0.0514
vn -0.8502 0.3793 -0.3651
vn -0.9590 0.2809 -0.0382
vn -0.6505 -0.6857 -0.3266
vn -0.9388 -0.1994 -0.2808
vn 0.0749 -0.9854 -0.1526
vn 0.2210 -0.8927 0.3927
vn -0.1346 -0.7260 -0.6744
vn -0.6892 -0.1389 -0.7111
vn -0.8367 0.3296 -0.4373
vn 0.4835 -0.8436 0.2335
vn 0.0349 -0.1613 -0.9863
vn -0.5381 0.5690 -0.6219
vn 0.7254 -0.6884 0.0035
vn 0.7535 -0.5745 -0.3197
vn -0.4511 0.0190 -0.8923
vn 0.4419 -0.4616 -0.7692
vn 0.9101 -0.3538 0.2157
vn 0.0552 0.4357 -0.8984
vn -0.3096 0.5074 -0.8042
vn 0.1449 0.9032 -0.4039
vn 0.9695 0.0641 -0.2364
vn 0.9768 0.1173 0.1794
vn 0.6001 0.1665 -0.7824
vn 0.5407 0.6754 -0.5014
vn 0.6127 -0.6340 0.4717
vn 0.9238 -0.1534 0.3508
vn 0.8708 0.4902 0.0372
vn 0.5544 0.8072 -0.2027
vn 0.8400 0.5304 -0.1144
vn 0.9007 -0.2369 0.3643
vn 0.9544 0.2466 0.1684
vn 0.7879 -0.4557 0.4142
vn -0.5916 0.6947 -0.4091
vn 0.0018 0.9157 -0.4019
vn -0.5189 0.7032 -0.4862
vn 0.8468 0.5259 -0.0795
vn 0.3489 0.8587 -0.3754
vn 0.2454 0.8165 -0.5226
vn -0.7511 0.5297 -0.3940
vn 0.1053 0.8222 -0.5593
vn 0.2796 -0.6781 0.6797
vn 0.9797 -0.1453 0.1381
vn 0.8501 -0.4316 0.3018
vn 0.9489 0.2929 -0.1174
vn 0.9037 0.4248 -0.0537
vn 0.9105 0.3725 -0.1795
vn 0.9074 0.3431 -0.2426
vn 0.4252 0.3845 -0.8194
vn 0.5959 0.2090 -0.7754
vn 0.4654 0.3962 -0.7915
vn -0.4991 -0.4489 0.7412
vn -0.8824 -0.1726 0.4378
vn -0.1599 -0.4885 0.8578
vn 0.9696 -0.2105 -0.1246
vn 0.9196 -0.2956 -0.2588
vn 0.9037 -0.3490 -0.2479
vn 0.7209 -0.6597 0.2121
vn 0.0519 0.7488 -0.6607
vn -0.6598 0.6289 -0.4112
vn -0.7072 0.6434 -0.2931
vn 0.8033 0.5168 -0.2961
vn -0.9215 0.2608 0.2879
vn -0.0398 0.6400 -0.7673
vn -0.7957 0.0826 0.6000
vn -0.7210 0.6927 0.0209
vn -0.4056 0.7504 -0.5219
vn -0.7117 0.0751 0.6985
vn 0.4440 -0.7561 0.4808
vn 0.3221 0.4430 -0.8367
vn 0.3090 -0.7303 0.6093
vn -0.2455 -0.3782 0.8926
vn 0.8047 -0.1934 -0.5613
vn -0.7327 0.3160 0.6027
vn 0.8136 -0.4738 -0.3370
vn 0.7252 -0.1786 -0.6649
vn -0.2072 0.7620 -0.6135
vn -0.6842 0.7293 -0.0021
vn 0.5973 0.0866 -0.7973
vn -0.7376 0.3327 0.5876
vn 0.6747 -0.7363 0.0516
vn 0.4717 -0.7928 0.3860
vn -0.1031 -0.4987 0.8606
vn 0.4633 -0.8338 0.3004
vn -0.1672 -0.5626 0.8097
vn -0.3196 0.8735 -0.3672
vn -0.7955 0.4656 0.3879
vn -0.2728 -0.4657 0.8419
vn 0.6966 -0.7172 0.0180
vn 0.1926 0.6213 -0.7595
vn -0.1389 -0.7583 0.6370
vn 0.8167 -0.4218 -0.3938
vn -0.8282 0.0790 0.5549
vn -0.0974 -0.7963 0.5971
vn -0.4702 -0.3818 0.7957
vn -0.6077 -0.3537 0.7111
vn 0.6866 0.2293 -0.6900
vn 0.4484 0.5500 -0.7046
vn -0.1193 0.8808 -0.4581
vn 0.7997 -0.5936 -0.0901
vn 0.8153 -0.5730 -0.0831
vn 0.8717 -0.0207 -0.4897
vn 0.7999 0.2853 -0.5280
vn -0.2097 0.9549 -0.2101
vn -0.8392 0.2940 0.4575
vn -0.5118 0.8587 0.0251
vn 0.0720 0.8878 -0.4545
vn 0.1151 -0.7918 0.5999
vn -0.8189 0.0856 0.5676
vn 0.2328 -0.8191 0.5242
vn 0.3700 -0.6670 0.6467
vn -0.2243 0.3552 0.9075
vn -0.7486 0.3990 0.5295
vn -0.2760 0.9557 0.1022
vn 0.8636 -0.4920 -0.1099
vn 0.8915 0.1920 -0.4103
vn 0.8471 0.3602 -0.3908
vn 0.6548 0.5869 0.4762
vn 0.6083 0.6286 0.4846
vn 0.0143 0.9784 -0.2062
vn 0.7832 -0.4012 0.4749
vn 0.6987 0.5429 0.4659
usemtl mtl1.005
s 1
f 1//1 2//2 3//3
f 1//1 4//4 2//2
f 3//3 2//2 5//5
f 4//4 7//6 2//2
f 2//2 6//7 5//5
f 2//2 7//6 9//8
f 2//2 9//8 6//7
f 5//5 10//9 8//10
f 5//5 6//7 10//9
f 6//7 9//8 10//9
f 9//8 11//11 10//9
f 8//10 10//9 11//11
f 12//12 3//3 13//13
f 3//3 5//5 13//13
f 14//14 15//15 3//3
f 16//16 14//14 12//12
f 14//14 3//3 12//12
f 13//13 17//17 12//12
f 18//18 17//17 13//13
f 13//13 5//5 18//18
f 14//14 19//19 15//15
f 20//20 16//16 17//17
f 16//16 12//12 17//17
f 17//17 18//18 21//21
f 19//19 14//14 22//22
f 14//14 16//16 23//23
f 22//22 14//14 23//23
f 20//20 17//17 24//24
f 17//17 21//21 24//24
f 23//23 16//16 25//25
f 25//25 16//16 20//20
f 19//19 22//22 26//26
f 28//27 20//20 24//24
f 28//27 29//28 21//21
f 21//21 30//29 28//27
f 26//26 22//22 23//23
f 23//23 31//30 26//26
f 31//30 27//31 26//26
f 23//23 25//25 31//30
f 32//32 31//30 25//25
f 20//20 32//32 25//25
f 28//27 32//32 20//20
f 28//27 30//29 33//33
f 32//32 28//27 33//33
f 3//3 15//15 1//1
f 19//19 34//34 15//15
f 26//26 34//34 19//19
f 26//26 35//35 34//34
f 27//31 35//35 26//26
f 27//31 36//36 35//35
f 30//29 37//37 38//38
f 38//38 37//37 36//36
f 36//36 27//31 38//38
f 38//38 33//33 30//29
f 4//4 1//1 15//15
f 15//15 34//34 4//4
f 35//35 39//39 34//34
f 40//40 35//35 36//36
f 4//4 34//34 41//41
f 21//21 18//18 42//42
f 21//21 42//42 30//29
f 18//18 5//5 42//42
f 42//42 43//43 30//29
f 43//43 37//37 30//29
f 42//42 5//5 8//10
f 42//42 8//10 44//44
f 39//39 41//41 34//34
f 44//44 43//43 42//42
f 45//45 41//41 40//40
f 36//36 45//45 40//40
f 46//46 37//37 43//43
f 45//45 37//37 46//46
f 47//47 45//45 46//46
f 36//36 37//37 45//45
f 7//6 4//4 41//41
f 48//48 44//44 8//10
f 49//49 47//47 46//46
f 41//41 50//50 7//6
f 45//45 51//51 41//41
f 52//52 41//41 51//51
f 52//52 50//50 41//41
f 53//53 54//54 55//55
f 53//53 55//55 56//56
f 57//57 58//58 59//59
f 7//6 60//60 9//8
f 9//8 61//61 11//11
f 9//8 60//60 61//61
f 60//60 7//6 50//50
f 62//62 60//60 50//50
f 63//63 64//64 65//65
f 50//50 52//52 66//66
f 48//48 8//10 11//11
f 47//47 49//49 67//67
f 11//11 68//68 48//48
f 11//11 69//69 68//68
f 70//70 56//56 55//55
f 61//61 71//71 11//11
f 61//61 60//60 71//71
f 71//71 69//69 11//11
f 68//68 69//69 72//72
f 60//60 73//73 71//71
f 69//69 71//71 74//74
f 71//71 73//73 74//74
f 62//62 73//73 60//60
f 72//72 69//69 75//75
f 74//74 75//75 69//69
f 73//73 76//76 74//74
f 38//38 27//31 31//30
f 33//33 31//30 32//32
f 31//30 33//33 38//38
f 66//66 77//77 50//50
f 50//50 77//77 62//62
f 57//57 59//59 72//72
f 72//72 78//78 57//57
f 78//78 72//72 75//75
f 73//73 62//62 76//76
f 77//77 79//79 62//62
f 79//79 80//80 62//62
f 76//76 62//62 80//80
f 64//64 81//81 65//65
f 76//76 80//80 82//82
f 65//65 81//81 83//83
f 82//82 74//74 76//76
f 78//78 81//81 57//57
f 78//78 84//84 81//81
f 81//81 84//84 83//83
f 78//78 75//75 85//85
f 85//85 75//75 74//74
f 85//85 74//74 86//86
f 84//84 87//87 83//83
f 78//78 87//87 84//84
f 88//88 82//82 80//80
f 74//74 82//82 86//86
f 87//87 89//89 83//83
f 77//77 89//89 79//79
f 89//89 90//90 79//79
f 79//79 91//91 80//80
f 92//92 90//90 89//89
f 91//91 93//93 80//80
f 78//78 85//85 87//87
f 85//85 86//86 94//94
f 86//86 82//82 95//95
f 93//93 91//91 96//96
f 89//89 97//97 92//92
f 87//87 85//85 98//98
f 88//88 95//95 82//82
f 96//96 99//99 93//93
f 87//87 100//100 89//89
f 98//98 85//85 94//94
f 100//100 97//97 89//89
f 95//95 88//88 101//101
f 102//102 93//93 99//99
f 101//101 103//103 104//104
f 105//105 100//100 87//87
f 105//105 87//87 98//98
f 105//105 98//98 106//106
f 107//107 98//98 94//94
f 97//97 100//100 108//108
f 97//97 108//108 109//109
f 100//100 105//105 111//110
f 111//110 105//105 112//111
f 105//105 106//106 112//111
f 107//107 94//94 113//112
f 95//95 101//101 114//113
f 94//94 115//114 113//112
f 116//115 107//107 113//112
f 102//102 99//99 117//116
f 101//101 104//104 118//117
f 101//101 118//117 114//113
f 99//99 110//118 117//116
f 117//116 110//118 119//119
f 120//120 121//120 122//120
f 123//121 114//113 118//117
f 124//122 113//112 115//114
f 125//123 109//109 108//108
f 111//110 112//111 126//124
f 126//124 112//111 127//125
f 128//126 129//126 130//127
f 131//128 116//115 113//112
f 131//128 113//112 124//122
f 132//129 133//129 134//129
f 128//126 135//130 129//126
