# Blender v2.77 (sub 0) OBJ File: ''
# www.blender.org
mtllib posterior segmental branch of right renal artery.mtl
o grp1.001
v -109.347656 -56.214031 995.666992
v -107.460938 -56.210613 996.429688
v -108.904785 -56.074135 994.730469
v -107.087891 -55.307781 995.333984
v -105.195312 -55.453289 999.648438
v -105.460938 -54.811687 1000.304688
v -106.539001 -54.473465 999.403992
v -107.734375 -54.646648 998.179688
v -106.539001 -54.473465 999.403992
v -111.475220 -55.309059 994.347290
v -110.898438 -55.534344 995.140625
v -111.058655 -55.413490 993.695312
v -111.226257 -54.647072 994.537109
v -111.205002 -54.566860 993.916992
v -111.054001 -55.396061 993.711975
v -111.388000 -55.247559 994.328979
v -111.388000 -55.247559 994.328979
v -111.205002 -54.566860 993.916992
v -109.747002 -54.072662 995.497009
v -110.803001 -54.850460 993.513000
v -110.714844 -54.384926 993.751465
v -111.205002 -54.566860 993.916992
v -110.735001 -54.243462 994.192017
v -110.095947 -55.282631 993.556152
v -110.803001 -54.850460 993.513000
v -109.686523 -54.667885 993.763184
v -109.747002 -54.072662 995.497009
v -105.265625 -53.504070 997.648438
v -106.859001 -53.526463 997.682007
v -101.411133 -52.017742 1008.351562
v -100.866997 -53.326363 1007.289978
v -99.246094 -53.816570 1009.617188
v -101.902344 -53.518719 1005.482422
v -101.866997 -53.517063 1005.570007
v -100.757812 -53.366741 1006.406250
v -100.156250 -51.734051 1009.857422
v -103.979492 -55.121990 999.518066
v -104.900002 -53.516365 1001.669983
v -104.900002 -53.516365 1001.669983
v -104.996094 -52.771160 999.923828
v -102.544922 -51.421062 1005.462891
v -101.940430 -51.310711 1003.521484
v -102.875000 -53.054852 1000.136719
v -100.138672 -52.356121 1005.070312
v -101.130676 -50.566570 1006.141846
v -100.766998 -50.745365 1007.969971
v -89.020302 -60.811863 1016.330017
v -94.341003 -55.238064 1013.789978
v -93.781097 -57.791862 1014.000000
v -96.419098 -55.883064 1011.630005
v -97.924103 -53.721966 1011.849976
v -98.585999 -53.961163 1009.020020
v -96.419098 -55.883064 1011.630005
v -88.183701 -62.968266 1016.239990
v -93.781097 -57.791862 1014.000000
v -98.529297 -51.997234 1011.154297
v -89.042198 -62.123264 1014.010010
v -95.376602 -55.639763 1010.580017
v -89.042198 -62.123264 1014.010010
v -94.796875 -53.797039 1012.890625
v -99.615097 -53.538162 1008.059998
v -99.327881 -52.864910 1006.928711
v -99.615097 -53.538162 1008.059998
v -98.585999 -53.961163 1009.020020
v -98.143997 -52.630665 1007.890015
v -98.837891 -51.406902 1007.261719
v -98.143997 -52.630665 1007.890015
v -98.573486 -51.186443 1010.270996
v -98.186035 -51.163006 1008.798828
v -95.827499 -53.545864 1009.849976
v -95.376602 -55.639763 1010.580017
v -86.054688 -65.828293 1015.189453
v -88.183701 -62.968266 1016.239990
v -86.167297 -63.401165 1016.799988
v -86.499023 -64.830246 1016.260620
v -89.042198 -62.123264 1014.010010
v -89.817001 -59.320763 1012.830017
v -88.406097 -59.819263 1016.010010
v -89.020302 -60.811863 1016.330017
v -88.406097 -59.819263 1016.010010
v -89.014801 -58.592163 1014.789978
v -89.817001 -59.320763 1012.830017
v -81.022202 -73.948265 1011.090027
v -79.406250 -74.330246 1011.515625
v -84.034180 -66.365402 1016.210205
v -81.750000 -67.597824 1014.833984
v -85.316895 -66.790207 1014.016113
v -86.307899 -64.704170 1013.989990
v -84.742188 -66.640793 1013.083984
v -84.005859 -66.226730 1012.714844
v -83.018501 -65.675568 1013.039978
v -85.688904 -62.454266 1013.950012
v -83.705597 -64.569466 1016.109985
v -86.167297 -63.401165 1016.799988
v -84.813004 -62.728565 1015.969971
v -82.671631 -64.947433 1014.567383
v -84.813004 -62.728565 1015.969971
v -89.042198 -62.123264 1014.010010
v -89.817001 -59.320763 1012.830017
v -85.688904 -62.454266 1013.950012
v -89.817001 -59.320763 1012.830017
v -85.688904 -62.454266 1013.950012
v -86.307899 -64.704170 1013.989990
v -79.381401 -76.591766 1009.229980
v -78.227097 -77.194466 1010.359985
v -74.795197 -81.784866 1009.179993
v -76.051498 -80.179268 1009.750000
v -75.465401 -80.222069 1007.609985
v -79.381401 -76.591766 1009.229980
v -78.227097 -77.194466 1010.359985
v -77.821297 -76.101868 1010.909973
v -81.516899 -73.482468 1010.030029
v -82.023697 -71.801765 1009.979980
v -79.404999 -75.349068 1008.059998
v -79.404999 -75.349068 1008.059998
v -79.466499 -72.995865 1008.460022
v -79.093201 -72.041664 1011.770020
v -81.938202 -70.456871 1010.070007
v -79.881302 -70.117569 1010.599976
v -79.466499 -72.995865 1008.460022
v -77.359375 -73.687668 1009.406250
v -70.401001 -85.940971 1008.630005
v -68.914062 -87.406418 1010.531250
v -70.389603 -85.384369 1010.609985
v -75.242203 -78.947670 1010.640015
v -77.404785 -75.033859 1010.767822
v -75.242203 -78.947670 1010.640015
v -74.132103 -78.235664 1010.219971
v -76.869873 -74.557175 1010.004639
v -74.538803 -76.970467 1009.320007
v -75.945999 -77.999466 1007.219971
v -74.035500 -77.771271 1008.109985
v -76.853699 -74.283569 1009.200012
v -67.392578 -88.819016 1010.092285
v -66.985802 -88.272171 1012.679993
v -66.985802 -88.272171 1012.679993
v -67.925781 -87.342209 1011.757812
v -68.422852 -85.189621 1011.439941
v -69.827400 -83.909164 1011.020020
v -69.338600 -85.106468 1007.539978
v -67.958008 -84.267258 1007.915527
v -68.009766 -84.010422 1010.639404
v -67.478302 -83.821671 1009.260010
v -67.478302 -83.821671 1009.260010
v -63.313843 -91.899124 1016.293823
v -63.855591 -91.103256 1018.308350
v -62.259766 -91.473801 1018.711182
v -63.160645 -90.680588 1019.036377
v -61.785034 -91.947815 1016.995361
v -60.990845 -91.345566 1017.869202
v -63.475586 -90.566574 1012.433594
v -61.211426 -90.758713 1015.438477
v -61.150146 -89.791336 1018.784180
v -62.845215 -89.560471 1019.185913
v -65.517097 -90.233467 1014.049988
v -65.240234 -89.981613 1011.042969
v -64.049805 -89.758957 1018.462402
v -64.980598 -88.718666 1015.799988
v -62.783081 -88.863205 1018.891846
v -61.731689 -88.382126 1017.948486
v -63.631500 -87.920967 1016.280029
v -66.761230 -88.186691 1008.853516
v -64.170898 -88.892746 1010.316406
v -66.132812 -87.041183 1008.467773
v -66.069099 -87.468170 1013.500000
v -65.066406 -87.113449 1013.792969
v -65.022697 -87.150169 1013.880005
v -64.921875 -86.125168 1011.515625
v -62.638672 -87.734055 1013.410156
v -64.587700 -86.886467 1010.000000
v -66.807129 -85.790207 1011.933594
v -60.459541 -90.265518 1017.228638
v -62.146484 -88.988449 1013.083984
v -60.719139 -89.089691 1017.311646
vn 0.1937 -0.8524 -0.4857
vn 0.2446 -0.9634 -0.1101
vn -0.2772 -0.9250 0.2599
vn 0.6301 -0.1968 -0.7512
vn -0.1316 -0.9230 0.3616
vn -0.5369 -0.5536 0.6366
vn -0.6593 -0.3188 0.6809
vn -0.7173 0.3071 0.6254
vn -0.3284 -0.9442 -0.0260
vn -0.7218 -0.4825 0.4962
vn -0.8176 0.4765 0.3233
vn -0.7052 0.1702 -0.6883
vn -0.7970 0.0043 -0.6039
vn -0.8829 -0.0450 -0.4674
vn -0.9263 0.1233 0.3559
vn -0.9654 0.2609 0.0012
vn -0.2017 -0.8063 -0.5561
vn -0.5531 0.6768 0.4858
vn -0.2490 0.3383 -0.9075
vn -0.1218 0.7852 -0.6071
vn -0.5196 0.8474 -0.1094
vn -0.2488 0.9635 -0.0984
vn 0.1852 -0.3465 -0.9196
vn -0.1029 -0.2639 -0.9590
vn 0.3942 0.4344 -0.8099
vn -0.0167 0.9831 -0.1822
vn 0.4083 0.7196 -0.5616
vn -0.4101 0.9050 0.1133
vn -0.8164 -0.0707 0.5731
vn -0.4644 -0.8627 0.2000
vn -0.5862 -0.7861 0.1961
vn -0.2346 -0.8812 0.4104
vn 0.1367 -0.9894 -0.0497
vn 0.2861 -0.9536 -0.0942
vn 0.6244 -0.7324 -0.2717
vn -0.8326 -0.1866 0.5216
vn -0.7903 0.5027 0.3502
vn -0.5509 -0.5134 0.6580
vn -0.3046 0.9488 -0.0842
vn -0.7415 0.6283 0.2355
vn 0.2129 0.8989 -0.3829
vn 0.7355 0.3670 -0.5695
vn 0.8193 -0.3991 -0.4116
vn -0.0539 0.9961 -0.0698
vn -0.4073 0.8549 0.3215
vn -0.6668 0.3257 0.6703
vn -0.4364 -0.1422 0.8885
vn -0.2184 0.2891 0.9321
vn -0.4991 -0.1023 0.8605
vn -0.7096 -0.6512 0.2689
vn -0.6604 -0.1700 0.7314
vn -0.2504 -0.8747 -0.4150
vn -0.3677 -0.8223 -0.4343
vn -0.7269 -0.6753 0.1250
vn -0.7277 -0.6059 0.3215
vn -0.3387 0.5151 0.7874
vn -0.4130 -0.7072 -0.5739
vn -0.2144 -0.7640 -0.6085
vn -0.7169 -0.6970 0.0119
vn -0.0912 -0.9861 -0.1388
vn 0.2604 -0.8749 -0.4083
vn 0.6101 -0.5619 -0.5587
vn 0.3754 -0.7588 -0.5322
vn 0.6199 -0.2260 -0.7515
vn 0.6671 0.5279 -0.5257
vn 0.0283 -0.6510 -0.7585
vn 0.0598 0.9099 0.4105
vn 0.3270 0.7965 0.5086
vn 0.6530 0.1835 -0.7348
vn 0.3253 -0.2637 -0.9081
vn 0.4833 0.8679 -0.1150
vn -0.8196 -0.5686 0.0707
vn -0.3884 -0.2264 0.8933
vn -0.2636 -0.2479 0.9322
vn -0.5279 -0.4877 0.6953
vn 0.1467 -0.3469 -0.9264
vn 0.1707 -0.3150 -0.9336
vn 0.1075 0.3910 0.9141
vn 0.0001 0.3080 0.9514
vn 0.5092 0.7198 0.4717
vn 0.6665 0.7443 -0.0438
vn 0.6828 0.5392 -0.4930
vn -0.5902 -0.6202 0.5168
vn 0.0185 -0.3870 0.9219
vn 0.0596 -0.3880 0.9197
vn 0.6988 0.0097 0.7153
vn -0.8470 -0.3410 -0.4077
vn -0.6314 -0.3727 -0.6800
vn -0.6702 -0.0159 -0.7421
vn -0.2684 0.3410 -0.9009
vn 0.3296 0.5843 -0.7415
vn -0.2248 0.2036 -0.9529
vn 0.6090 0.2101 0.7648
vn 0.2740 0.2470 0.9295
vn 0.3615 0.3505 0.8640
vn 0.8008 0.5988 -0.0067
vn 0.7221 0.6546 0.2237
vn -0.5302 -0.5573 -0.6390
vn -0.4267 -0.4468 -0.7863
vn 0.6216 0.6382 -0.4543
vn 0.2073 -0.0742 -0.9755
vn -0.7326 -0.6245 0.2707
vn -0.6874 -0.6248 0.3702
vn -0.7261 -0.6857 -0.0517
vn -0.6090 -0.5581 0.5636
vn -0.5434 -0.4876 -0.6833
vn -0.7346 -0.5245 -0.4303
vn -0.2708 -0.4128 0.8696
vn 0.0338 -0.1651 0.9857
vn -0.8674 -0.4487 -0.2153
vn -0.7147 -0.0557 -0.6972
vn -0.7545 -0.3980 -0.5218
vn -0.3348 0.0195 -0.9421
vn -0.3571 0.1301 -0.9250
vn 0.6984 0.0059 0.7157
vn -0.4086 0.2846 -0.8672
vn 0.5806 0.5713 -0.5801
vn 0.2700 0.5567 -0.7856
vn 0.7708 0.6046 0.2008
vn -0.5532 -0.7126 -0.4315
vn -0.7486 -0.6284 0.2117
vn -0.4003 -0.2083 0.8924
vn -0.3189 -0.3170 0.8932
vn 0.5083 0.1262 0.8519
vn 0.2166 0.1555 0.9638
vn 0.4221 0.4008 0.8132
vn 0.7438 0.4999 0.4436
vn 0.7052 0.6625 0.2525
vn 0.0200 0.1024 -0.9945
vn 0.5760 0.5899 -0.5659
vn 0.4732 0.5783 -0.6646
vn -0.5047 -0.8383 -0.2062
vn -0.8010 -0.4954 0.3362
vn -0.7562 0.0760 0.6499
vn -0.6359 -0.0589 0.7695
vn -0.1760 0.2408 0.9545
vn -0.0084 0.1396 0.9902
vn -0.0570 -0.2457 -0.9677
vn 0.5027 0.3390 -0.7952
vn 0.4239 0.6672 0.6126
vn 0.5729 0.7397 0.3530
vn 0.7092 0.6214 -0.3331
vn -0.2830 -0.9579 -0.0485
vn 0.1194 -0.6891 0.7148
vn -0.6751 -0.5561 0.4848
vn -0.2660 -0.3067 0.9139
vn 0.3395 -0.9388 -0.0586
vn 0.7234 -0.6260 0.2911
vn 0.3560 -0.7806 -0.5138
vn 0.7875 -0.4472 -0.4240
vn 0.6395 0.1371 0.7565
vn -0.1155 0.1671 0.9791
vn -0.8249 -0.5219 0.2169
vn -0.0576 -0.8732 -0.4839
vn -0.7699 0.2047 0.6044
vn -0.7585 0.3986 0.5155
vn -0.1557 0.6484 0.7452
vn 0.4050 0.8299 0.3836
vn -0.3063 0.8468 0.4348
vn -0.0218 -0.6303 -0.7760
vn 0.6021 -0.3410 -0.7220
vn 0.4223 -0.1071 -0.9001
vn -0.5291 0.4569 0.7150
vn -0.2524 0.8307 0.4962
vn -0.4699 0.6911 0.5491
vn 0.5930 0.7947 0.1294
vn 0.7305 0.6648 -0.1563
vn 0.7850 0.3675 -0.4987
vn -0.0296 0.6015 0.7983
vn 0.9955 -0.0926 -0.0189
vn 0.8683 0.0591 -0.4926
vn 0.8590 0.5053 0.0816
usemtl mtl1.001
s 1
f 3//1 2//2 1//3
f 2//2 3//1 4//4
f 2//2 5//5 1//3
f 6//6 1//3 5//5
f 6//6 7//7 8//8
f 10//9 1//3 11//10
f 8//8 13//11 11//10
f 14//12 15//13 16//14
f 17//15 11//10 13//11
f 18//16 17//15 13//11
f 10//9 12//17 1//3
f 13//11 8//8 19//18
f 20//19 15//13 14//12
f 20//19 14//12 21//20
f 21//20 22//21 23//22
f 22//21 13//11 23//22
f 13//11 19//18 23//22
f 12//17 3//1 1//3
f 24//23 12//17 25//24
f 24//23 20//19 26//25
f 26//25 20//19 21//20
f 23//22 27//26 21//20
f 4//4 3//1 24//23
f 24//23 3//1 12//17
f 26//25 4//4 24//23
f 26//25 21//20 28//27
f 21//20 27//26 28//27
f 1//3 6//6 11//10
f 6//6 8//8 11//10
f 8//8 29//28 19//18
f 27//26 29//28 28//27
f 30//29 31//30 32//31
f 30//29 33//32 31//30
f 34//33 35//34 31//30
f 2//2 37//35 5//5
f 37//35 2//2 4//4
f 6//6 38//36 7//7
f 39//37 8//8 9//38
f 40//39 39//37 41//40
f 8//8 39//37 40//39
f 6//6 5//5 33//32
f 5//5 37//35 33//32
f 37//35 35//34 33//32
f 40//39 42//41 43//42
f 37//35 4//4 43//42
f 4//4 28//27 43//42
f 44//43 35//34 37//35
f 33//32 30//29 6//6
f 6//6 30//29 38//36
f 30//29 41//40 39//37
f 34//33 33//32 35//34
f 42//41 40//39 45//44
f 40//39 41//40 45//44
f 41//40 46//45 45//44
f 41//40 30//29 46//45
f 46//45 30//29 36//46
f 4//4 26//25 28//27
f 8//8 40//39 29//28
f 28//27 29//28 40//39
f 40//39 43//42 28//27
f 47//47 48//48 49//49
f 50//50 51//51 30//29
f 52//52 53//53 32//31
f 54//54 55//55 50//50
f 55//55 51//51 50//50
f 56//56 51//51 48//48
f 57//57 53//53 58//58
f 59//59 54//54 50//50
f 58//58 53//53 52//52
f 49//49 48//48 51//51
f 61//60 31//30 35//34
f 61//60 32//31 31//30
f 52//52 32//31 61//60
f 63//61 35//34 62//62
f 63//61 62//62 64//63
f 62//62 65//64 64//63
f 62//62 44//43 66//65
f 52//52 67//66 58//58
f 65//64 62//62 66//65
f 30//29 51//51 36//46
f 51//51 56//56 36//46
f 30//29 32//31 50//50
f 56//56 68//67 36//46
f 60//68 68//67 56//56
f 70//69 71//70 65//64
f 70//69 65//64 66//65
f 69//71 70//69 66//65
f 69//71 68//67 60//68
f 60//68 56//56 48//48
f 43//42 44//43 37//35
f 44//43 43//42 66//65
f 62//62 35//34 44//43
f 66//65 43//42 42//41
f 42//41 45//44 66//65
f 45//44 69//71 66//65
f 46//45 36//46 68//67
f 46//45 68//67 45//44
f 68//67 69//71 45//44
f 59//59 72//72 54//54
f 73//73 74//74 47//47
f 74//74 73//73 75//75
f 76//76 71//70 77//77
f 47//47 49//49 73//73
f 78//78 48//48 79//79
f 78//78 60//68 48//48
f 80//80 81//81 60//68
f 70//69 77//77 71//70
f 69//71 82//82 70//69
f 69//71 60//68 81//81
f 81//81 82//82 69//71
f 72//72 83//83 75//75
f 84//84 85//85 75//75
f 83//83 84//84 75//75
f 84//84 86//86 85//85
f 87//87 72//72 88//88
f 88//88 89//89 87//87
f 90//90 89//89 88//88
f 91//91 90//90 92//92
f 85//85 74//74 75//75
f 85//85 93//93 94//94
f 93//93 95//95 94//94
f 96//96 97//97 93//93
f 81//81 97//97 96//96
f 54//54 72//72 75//75
f 72//72 98//98 88//88
f 88//88 98//98 99//99
f 81//81 100//100 82//82
f 101//101 102//101 103//101
f 88//88 92//92 90//90
f 96//96 100//100 81//81
f 94//94 78//78 79//79
f 95//95 78//78 94//94
f 97//97 81//81 80//80
f 104//102 105//103 83//83
f 106//104 107//105 104//102
f 107//105 105//103 104//102
f 108//106 106//104 109//107
f 110//108 111//109 84//84
f 112//110 104//102 83//83
f 112//110 87//87 113//111
f 83//83 110//108 84//84
f 112//110 114//112 109//107
f 113//111 114//112 112//110
f 109//107 114//112 108//106
f 115//113 113//111 116//114
f 83//83 72//72 112//110
f 86//86 84//84 117//115
f 116//114 113//111 118//116
f 112//110 72//72 87//87
f 113//111 87//87 89//89
f 113//111 89//89 118//116
f 91//91 119//117 120//118
f 117//115 121//119 86//86
f 121//119 96//96 86//86
f 96//96 121//119 119//117
f 90//90 118//116 89//89
f 120//118 118//116 90//90
f 91//91 120//118 90//90
f 91//91 100//100 96//96
f 86//86 96//96 93//93
f 91//91 96//96 119//117
f 86//86 93//93 85//85
f 106//104 122//120 123//121
f 106//104 123//121 107//105
f 107//105 124//122 125//123
f 122//120 106//104 108//106
f 125//123 110//108 107//105
f 111//109 110//108 125//123
f 126//124 84//84 111//109
f 111//109 127//125 126//124
f 126//124 127//125 128//126
f 128//126 129//127 126//124
f 129//127 128//126 130//128
f 121//119 129//127 130//128
f 108//106 115//113 131//129
f 116//114 131//129 115//113
f 132//130 131//129 120//118
f 120//118 119//117 133//131
f 132//130 120//118 133//131
f 84//84 126//124 117//115
f 121//119 117//115 129//127
f 126//124 129//127 117//115
f 123//121 134//132 135//133
f 136//134 137//135 123//121
f 134//132 123//121 122//120
f 123//121 137//135 124//122
f 137//135 138//136 124//122
f 138//136 139//137 124//122
f 122//120 108//106 140//138
f 131//129 132//130 141//139
f 123//121 124//122 107//105
f 125//123 124//122 139//137
f 127//125 139//137 128//126
f 128//126 142//140 130//128
f 142//140 128//126 139//137
f 142//140 143//141 130//128
f 140//138 108//106 131//129
f 132//130 130//128 144//142
f 132//130 121//119 130//128
f 145//143 147//144 146//145
f 148//146 146//145 147//144
f 147//144 145//143 149//147
f 147//144 149//147 150//148
f 151//149 152//150 149//147
f 149//147 152//150 150//148
f 147//144 150//148 153//151
f 154//152 147//144 153//151
f 145//143 155//153 134//132
f 145//143 156//154 151//149
f 155//153 145//143 146//145
f 146//145 148//146 157//155
f 146//145 157//155 155//153
f 155//153 157//155 158//156
f 157//155 148//146 154//152
f 158//156 157//155 159//157
f 159//157 160//158 161//159
f 158//156 159//157 161//159
f 149//147 145//143 151//149
f 154//152 159//157 157//155
f 147//144 154//152 148//146
f 153//151 159//157 154//152
f 160//158 159//157 153//151
f 156//154 134//132 162//160
f 163//161 156//154 162//160
f 163//161 162//160 164//162
f 155//153 135//133 134//132
f 165//163 136//134 158//156
f 137//135 136//134 165//163
f 156//154 145//143 134//132
f 166//164 165//163 167//165
f 151//149 156//154 163//161
f 160//158 168//166 166//164
f 169//167 168//166 160//158
f 155//153 158//156 135//133
f 165//163 158//156 167//165
f 158//156 161//159 167//165
f 160//158 166//164 161//159
f 162//160 134//132 122//120
f 140//138 162//160 122//120
f 162//160 140//138 164//162
f 140//138 141//139 164//162
f 141//139 132//130 144//142
f 170//168 141//139 144//142
f 170//168 163//161 164//162
f 164//162 141//139 170//168
f 137//135 171//169 138//136
f 138//136 142//140 139//137
f 165//163 171//169 137//135
f 171//169 142//140 138//136
f 166//164 171//169 165//163
f 171//169 168//166 142//140
f 168//166 171//169 166//164
f 143//141 142//140 168//166
f 170//168 168//166 169//167
f 144//142 168//166 170//168
f 140//138 131//129 141//139
f 152//150 172//170 150//148
f 173//171 152//150 163//161
f 152//150 151//149 163//161
f 169//167 160//158 174//172
f 152//150 173//171 172//170
f 172//170 173//171 174//172
f 169//167 174//172 173//171
f 150//148 172//170 153//151
f 174//172 160//158 153//151
f 153//151 172//170 174//172
f 170//168 173//171 163//161
f 169//167 173//171 170//168
