#
# The license for this database is specified in the Creative Commons Attribution-Share Alike 2.1 Japan. If you use data from this database, please be sure attribute this database as follows: "BodyParts3D, (c)  The Database Center for Life Science licensed under CC Attribution-Share Alike 2.1 Japan".
# http://dbarchive.biosciencedbc.jp/en/bodyparts3d/lic.html
#
#
# Compatibility version : 4.0
# File ID : FJ2697
# Representation ID : BP9400
# Build-up logic : FMA 3.0 part_of
# Concept ID : FMA3840
# English name : Posterior interventricular branch of right coronary artery
# Bounds(mm): (38.799100,-153.360000,1175.890000)-(41.558300,-140.870000,1178.530000)
# Volume(cm3): 0.010500
#
v 39.0771 -152.741 1178.17
v 39.0089 -152.388 1177.79
v 39.1817 -153.125 1178.16
v 39.2214 -153.154 1178.37
v 39.2874 -153.269 1178.19
v 39.2897 -153.167 1178.06
v 39.279 -152.931 1177.89
v 39.2691 -152.914 1178.42
v 39.2582 -152.25 1177.58
v 39.4785 -153.36 1178.18
v 39.4785 -153.349 1178.38
v 39.4757 -153.142 1177.98
v 39.4785 -153.165 1178.53
v 39.6161 -152.944 1178.37
v 39.471 -152.538 1177.76
v 39.6785 -153.173 1178.38
v 39.6785 -153.165 1178.15
v 39.6785 -152.884 1178.18
v 39.0823 -150.961 1177.11
v 39.2824 -151.365 1177.29
v 38.7991 -151.316 1177.57
v 38.8954 -151.995 1177.79
v 38.8958 -151.803 1177.57
v 38.8914 -151.271 1177.76
v 39.0591 -150.965 1177.78
v 39.086 -152.19 1178.12
v 39.0785 -151.626 1177.98
v 39.2927 -152.2 1178.17
v 39.4013 -151.104 1177.38
v 39.2785 -150.765 1177.65
v 38.8249 -150.594 1177.19
v 38.8082 -149.765 1177.18
v 39.0611 -149.676 1176.77
v 39.2778 -149.836 1176.83
v 39.4735 -149.495 1177.18
v 39.0639 -149.424 1177.39
v 39.2659 -149.326 1177.37
v 39.4554 -148.14 1176.59
v 39.5029 -148.855 1176.81
v 39.4921 -147.651 1176.79
v 38.8488 -147.263 1176.42
v 38.827 -146.765 1176.78
v 38.9864 -146.165 1176.58
v 39.0852 -147.319 1176.27
v 39.0867 -147.142 1177.02
v 39.0785 -146.565 1176.21
v 39.2924 -147.464 1177.01
v 39.3513 -146.658 1176.22
v 39.3078 -146.757 1176.98
v 39.3405 -146.096 1176.92
v 39.5301 -147.165 1176.58
v 39.502 -147.165 1176.78
v 39.6239 -146.765 1176.58
v 39.5739 -146.765 1176.78
v 39.9161 -146.208 1176.59
v 39.924 -146.1 1176.36
v 39.4785 -145.765 1176.17
v 39.8868 -145.78 1176.92
v 40.6135 -145.165 1176.78
v 40.4536 -144.699 1176.1
v 40.887 -144.809 1176.39
v 40.8471 -144.622 1176.18
v 40.2926 -144.165 1176.38
v 40.4078 -143.949 1176.58
v 40.4785 -143.686 1176.18
v 40.8159 -144.073 1176.77
v 40.8909 -143.376 1176.7
v 40.862 -142.764 1175.95
v 41.1989 -144.165 1176.58
v 41.0612 -143.237 1175.89
v 41.3092 -143.752 1176.19
v 41.264 -143.349 1176.62
v 41.2805 -142.93 1175.93
v 41.4579 -143.2 1176.38
v 41.492 -142.95 1176.19
v 40.6167 -142.441 1176.38
v 40.6488 -141.955 1176.59
v 40.6467 -141.771 1176.38
v 40.6146 -141.388 1176.77
v 40.7219 -142.559 1176.59
v 40.7437 -141.374 1176.38
v 40.6944 -141.39 1176.98
v 40.8678 -141.18 1176.38
v 40.6972 -141.181 1176.59
v 40.7007 -141.173 1176.96
v 40.8784 -141.948 1176.86
v 40.8837 -141.555 1176.18
v 40.8863 -141.387 1177.15
v 40.8896 -141.171 1177.15
v 41.0848 -142.58 1175.89
v 41.071 -142.157 1175.94
v 41.0856 -141.586 1176.1
v 41.0778 -141.588 1177.11
v 41.0786 -141.36 1177.2
v 41.0725 -141.183 1176.31
v 41.2392 -142.382 1176.75
v 41.267 -142.154 1175.97
v 41.2715 -141.411 1177.16
v 41.2857 -141.386 1176.24
v 41.2689 -141.171 1177.16
v 41.5261 -142.531 1176.41
v 41.4821 -142.013 1176.19
v 41.5583 -141.408 1176.58
v 41.5008 -141.421 1176.95
v 41.4595 -141.126 1176.6
v 41.4678 -141.172 1176.97
v 40.8964 -140.98 1176.58
v 40.8799 -140.962 1176.96
v 41.0785 -140.87 1176.79
v 41.0785 -140.974 1177.06
v 41.2603 -140.963 1176.58
v 41.2775 -140.944 1176.96
v 39.0771 -152.741 1178.17
v 39.0089 -152.388 1177.79
v 39.1817 -153.125 1178.16
v 39.2214 -153.154 1178.37
v 39.2874 -153.269 1178.19
v 39.279 -152.931 1177.89
v 39.2691 -152.914 1178.42
v 39.2582 -152.25 1177.58
v 39.4785 -153.36 1178.18
v 39.4785 -153.36 1178.18
v 39.4785 -153.36 1178.18
v 39.4785 -153.349 1178.38
v 39.4785 -153.349 1178.38
v 39.4757 -153.142 1177.98
v 39.4785 -153.165 1178.53
v 39.4785 -153.165 1178.53
v 39.4785 -153.165 1178.53
v 39.471 -152.538 1177.76
v 39.6785 -153.173 1178.38
v 39.6785 -153.173 1178.38
v 39.6785 -153.165 1178.15
v 39.6785 -153.165 1178.15
v 39.6785 -152.884 1178.18
v 39.0823 -150.961 1177.11
v 38.7991 -151.316 1177.57
v 38.8954 -151.995 1177.79
v 39.086 -152.19 1178.12
v 39.0785 -151.626 1177.98
v 39.4013 -151.104 1177.38
v 38.8082 -149.765 1177.18
v 38.8082 -149.765 1177.18
v 39.0611 -149.676 1176.77
v 39.4554 -148.14 1176.59
v 39.5029 -148.855 1176.81
v 39.4921 -147.651 1176.79
v 38.8488 -147.263 1176.42
v 38.827 -146.765 1176.78
v 38.9864 -146.165 1176.58
v 39.0852 -147.319 1176.27
v 39.0867 -147.142 1177.02
v 39.0785 -146.565 1176.21
v 39.0785 -146.565 1176.21
v 39.3078 -146.757 1176.98
v 39.5301 -147.165 1176.58
v 39.502 -147.165 1176.78
v 39.4785 -145.765 1176.17
v 39.4785 -145.765 1176.17
v 39.8868 -145.78 1176.92
v 40.6135 -145.165 1176.78
v 40.6135 -145.165 1176.78
v 40.4536 -144.699 1176.1
v 40.4536 -144.699 1176.1
v 40.2926 -144.165 1176.38
v 40.2926 -144.165 1176.38
v 40.4078 -143.949 1176.58
v 40.4078 -143.949 1176.58
v 40.4785 -143.686 1176.18
v 41.1989 -144.165 1176.58
v 41.4579 -143.2 1176.38
v 41.492 -142.95 1176.19
v 40.6167 -142.441 1176.38
v 40.6167 -142.441 1176.38
v 40.7219 -142.559 1176.59
v 41.5261 -142.531 1176.41
v 41.4821 -142.013 1176.19
v 41.5583 -141.408 1176.58
v 41.5008 -141.421 1176.95
v 41.4595 -141.126 1176.6
v 41.4678 -141.172 1176.97
v 40.8799 -140.962 1176.96
v 41.0785 -140.87 1176.79
v 41.0785 -140.87 1176.79
v 41.0785 -140.87 1176.79
v 41.2603 -140.963 1176.58
v 41.2775 -140.944 1176.96
v 41.2775 -140.944 1176.96
vn -0.96341 -0.268011 -0.00334475
vn -0.954147 -0.269944 -0.12936
vn -0.69574 -0.485927 -0.528981
vn -0.751772 -0.578862 0.315845
vn -0.533403 -0.66875 -0.517933
vn -0.452443 -0.616035 -0.644823
vn -0.636691 -0.420508 -0.646373
vn -0.704544 0.00924048 0.7096
vn -0.455673 -0.378923 -0.805469
vn -0.285947 -0.701049 -0.653273
vn -0.517861 -0.779015 0.353491
vn -0.112917 -0.533852 -0.838005
vn -0.459016 -0.561407 0.688568
vn 0.69525 0.341429 0.632498
vn 0.587306 -0.223146 -0.777996
vn 0.678582 -0.73448 0.00814353
vn 0.537659 -0.436779 -0.721212
vn 0.973048 0.189048 0.132053
vn -0.533268 -0.283541 -0.797013
vn 0.506793 -0.247453 -0.825789
vn -0.964173 -0.132616 -0.229746
vn -0.955591 -0.247097 -0.160591
vn -0.768139 -0.298097 -0.566657
vn -0.747321 0.136328 0.650327
vn -0.0899385 0.25072 0.963873
vn -0.811843 0.0861617 0.577484
vn -0.708772 0.130608 0.693242
vn 0.185006 0.369849 0.910486
vn 0.801139 -0.145687 -0.580476
vn 0.609301 0.232398 0.758119
vn -0.824353 -0.149802 -0.545896
vn -0.911753 -0.0671082 -0.405219
vn -0.716114 -0.143006 -0.683177
vn 0.465254 -0.214628 -0.858763
vn 0.901828 0.0612886 0.427726
vn -0.433675 0.20056 0.878465
vn 0.370942 0.180338 0.910978
vn 0.700481 -0.14163 -0.699477
vn 0.729609 -0.181193 -0.659424
vn 0.999734 -0.0198477 0.0117505
vn -0.664251 -0.130599 -0.736012
vn -0.59109 0.234923 0.771637
vn -0.86197 0.341547 -0.374636
vn -0.568089 -0.117327 -0.814561
vn -0.599333 0.142797 0.787661
vn -0.562712 -0.0684023 -0.823818
vn 0.594799 0.0843361 0.799438
vn 0.420872 -0.209066 -0.882699
vn 0.0420843 0.0680327 0.996795
vn -0.335031 0.242042 0.910588
vn 0.809581 -0.125068 -0.57353
vn 0.691004 -0.0303915 0.722212
vn 0.893785 -0.395136 -0.212171
vn 0.837122 -0.277201 0.471579
vn 0.838443 -0.51194 0.186895
vn 0.729493 -0.504854 -0.461478
vn -0.756216 0.398526 -0.518955
vn 0.0428686 0.0537092 0.997636
vn 0.539486 -0.486118 0.687491
vn 0.156486 -0.160743 -0.974512
vn 0.837777 -0.503229 -0.21187
vn 0.52442 -0.352395 -0.775114
vn -0.864389 0.475552 -0.163348
vn -0.932451 0.359881 -0.0319422
vn -0.753655 0.109713 -0.648049
vn 0.0751767 0.0684715 0.994817
vn -0.0738144 0.0364249 0.996607
vn -0.574831 0.0951414 -0.812722
vn 0.925177 -0.379489 0.00598472
vn 0.15691 -0.131497 -0.97882
vn 0.825613 -0.299507 -0.478183
vn 0.561662 -0.0694298 0.824449
vn 0.55935 -0.0537168 -0.82719
vn 0.98043 -0.195331 -0.0245569
vn 0.991044 -0.105375 -0.0820209
vn -0.987857 0.124498 -0.0929435
vn -0.92619 -0.129068 0.35428
vn -0.920096 0.110123 -0.375894
vn -0.993006 0.079255 0.0875108
vn -0.253001 -0.152089 0.955437
vn -0.730484 0.308856 -0.609099
vn -0.788107 -0.126998 0.602295
vn -0.490199 0.524663 -0.696013
vn -0.838341 0.472841 -0.271303
vn -0.856381 0.362702 0.367505
vn -0.488548 -0.355988 0.796614
vn -0.496319 0.294516 -0.816656
vn -0.423581 -0.228583 0.876544
vn -0.401021 0.29943 0.86575
vn 0.0167916 0.0614287 -0.99797
vn -0.184697 0.19791 -0.962662
vn -0.0032198 0.358998 -0.933333
vn -0.0996486 -0.402198 0.910114
vn -0.028344 -0.0969937 0.994881
vn -0.0621488 0.592238 -0.803363
vn 0.165635 -0.23981 0.956586
vn 0.376453 0.182002 -0.908382
vn 0.36946 -0.228308 0.900763
vn 0.500098 0.412577 -0.761369
vn 0.36513 0.288028 0.88528
vn 0.746922 -0.165677 0.64394
vn 0.706806 0.150565 -0.691199
vn 0.994287 0.101686 0.0324378
vn 0.66433 -0.155636 0.731056
vn 0.639775 0.437744 -0.631719
vn 0.655533 0.291254 0.696741
vn -0.377364 0.819388 -0.431509
vn -0.363062 0.724083 0.586421
vn -0.0374639 0.901269 -0.431637
vn -0.0377097 0.757577 0.651656
vn 0.199457 0.743032 -0.638843
vn 0.430918 0.590729 0.682165
vn -0.799528 0.0531707 0.598271
vn -0.553855 -0.411755 -0.723673
vn -0.925536 -0.375153 0.0514202
vn -0.669419 -0.0219262 0.742561
vn -0.625935 -0.768035 0.135379
vn 0.0298613 -0.447796 -0.893637
vn -0.169618 0.325487 0.930208
vn 0.269651 -0.335974 -0.902447
vn -0.428968 -0.901955 0.0496268
vn 0.471134 -0.584874 -0.660269
vn 0.678582 -0.73448 0.00814353
vn 0.660053 -0.750085 0.0412707
vn 0.485982 -0.55227 0.677362
vn 0.537659 -0.436779 -0.721212
vn -0.534577 -0.0696212 0.842247
vn 0.485982 -0.55227 0.677362
vn 0.299917 0.320296 0.898588
vn 0.588015 -0.275551 -0.760467
vn 0.485982 -0.55227 0.677362
vn 0.893463 0.166886 0.41698
vn 0.695967 -0.717638 -0.0249973
vn 0.976937 0.0226903 -0.212318
vn 0.962006 0.221519 0.159607
vn 0.187259 -0.279512 -0.941704
vn -0.905841 0.0614167 0.419142
vn -0.832354 0.0583706 0.551162
vn -0.232665 0.27571 0.932658
vn 0.0407477 0.291864 0.955592
vn 0.979194 0.0636043 0.192699
vn -0.754293 0.135513 0.642401
vn -0.998255 -0.00161606 -0.0590319
vn 0.0964069 -0.230913 -0.968186
vn 0.994711 -0.0359773 -0.0962043
vn 0.99946 -0.00967182 -0.0313968
vn 0.769561 0.0573495 0.635993
vn -0.961317 0.110444 -0.252331
vn -0.982069 0.079061 -0.171142
vn -0.675351 0.409152 0.613593
vn 0.134756 -0.15943 -0.977969
vn 0.114945 0.116465 0.986521
vn -0.832032 0.261132 -0.489422
vn 0.00333479 -0.0650992 -0.997873
vn 0.63306 -0.125059 0.763934
vn 0.983784 -0.123716 0.129859
vn 0.985616 -0.0969282 0.138442
vn -0.00653354 -0.0515082 -0.998651
vn -0.417102 0.323671 -0.849272
vn 0.646545 -0.371734 0.666178
vn 0.322207 -0.0520118 0.945239
vn 0.846609 -0.518092 0.121797
vn -0.417102 0.323671 -0.849272
vn -0.604714 0.0462766 -0.795097
vn -0.417102 0.323671 -0.849272
vn -0.806427 0.067762 -0.587438
vn -0.410324 0.202907 0.88908
vn -0.833965 0.18495 0.519901
vn -0.964585 0.26376 0.00255331
vn 0.570224 -0.0860779 0.816967
vn 0.805037 -0.099402 0.584838
vn 0.759348 -0.0819113 -0.645509
vn -0.943037 0.0397461 0.330304
vn -0.825569 0.112417 -0.552991
vn -0.847537 -0.00844106 0.53067
vn 0.998362 -0.0358978 -0.0445467
vn 0.983083 0.00576326 -0.183069
vn 0.751104 0.295741 -0.590237
vn 0.987906 0.0337449 0.151336
vn 0.802645 0.596439 0.00464257
vn 0.923654 0.374774 0.0800505
vn -0.654583 0.754672 -0.0446214
vn -0.461797 0.884854 -0.0614569
vn -0.0427565 0.931506 0.361203
vn 0.395173 0.91649 -0.0623288
vn 0.520955 0.851114 -0.0648915
vn 0.610408 0.791752 -0.0230596
vn 0.0396547 0.931626 0.361247
g grp1
usemtl mtl1
f 22//22 2//2 1//1 
f 113//113 26//26 138//138 
f 113//113 8//8 26//26 
f 23//23 2//2 22//22 
f 6//6 5//5 3//3 
f 117//117 11//11 4//4 
f 115//115 117//117 4//4 
f 11//11 13//13 4//4 
f 7//7 6//6 3//3 
f 115//115 4//4 1//1 
f 116//116 8//8 113//113 
f 116//116 127//127 8//8 
f 3//3 114//114 7//7 
f 7//7 114//114 9//9 
f 1//1 2//2 115//115 
f 9//9 114//114 23//23 
f 28//28 139//139 119//119 
f 6//6 12//12 10//10 
f 6//6 10//10 5//5 
f 121//121 11//11 117//117 
f 12//12 6//6 118//118 
f 12//12 118//118 15//15 
f 15//15 118//118 120//120 
f 126//126 17//17 122//122 
f 123//123 16//16 124//124 
f 128//128 125//125 131//131 
f 126//126 130//130 17//17 
f 18//18 14//14 132//132 
f 132//132 14//14 129//129 
f 18//18 28//28 14//14 
f 14//14 28//28 129//129 
f 28//28 119//119 129//129 
f 16//16 123//123 133//133 
f 15//15 18//18 134//134 
f 18//18 132//132 134//134 
f 19//19 31//31 33//33 
f 120//120 136//136 20//20 
f 34//34 20//20 136//136 
f 20//20 15//15 120//120 
f 29//29 15//15 20//20 
f 34//34 29//29 20//20 
f 31//31 19//19 23//23 
f 31//31 23//23 21//21 
f 23//23 22//22 21//21 
f 138//138 24//24 137//137 
f 138//138 27//27 24//24 
f 19//19 9//9 23//23 
f 26//26 27//27 138//138 
f 25//25 24//24 27//27 
f 36//36 24//24 25//25 
f 28//28 140//140 139//139 
f 28//28 30//30 140//140 
f 30//30 25//25 140//140 
f 30//30 37//37 25//25 
f 37//37 36//36 25//25 
f 30//30 28//28 18//18 
f 15//15 29//29 18//18 
f 135//135 141//141 30//30 
f 31//31 21//21 32//32 
f 137//137 24//24 142//142 
f 31//31 32//32 33//33 
f 24//24 36//36 142//142 
f 142//142 36//36 45//45 
f 34//34 136//136 144//144 
f 37//37 152//152 36//36 
f 39//39 29//29 34//34 
f 141//141 146//146 35//35 
f 141//141 35//35 30//30 
f 30//30 35//35 37//37 
f 142//142 45//45 42//42 
f 33//33 32//32 41//41 
f 143//143 149//149 148//148 
f 44//44 33//33 41//41 
f 37//37 47//47 152//152 
f 34//34 144//144 151//151 
f 151//151 48//48 34//34 
f 40//40 35//35 146//146 
f 47//47 35//35 147//147 
f 35//35 47//47 37//37 
f 34//34 38//38 39//39 
f 146//146 145//145 40//40 
f 48//48 38//38 34//34 
f 38//38 48//48 51//51 
f 52//52 47//47 147//147 
f 156//156 40//40 145//145 
f 40//40 156//156 157//157 
f 44//44 41//41 46//46 
f 148//148 43//43 153//153 
f 148//148 149//149 43//43 
f 47//47 49//49 152//152 
f 48//48 151//151 154//154 
f 153//153 43//43 57//57 
f 49//49 50//50 152//152 
f 50//50 42//42 45//45 
f 155//155 47//47 52//52 
f 48//48 53//53 51//51 
f 54//54 155//155 52//52 
f 154//154 158//158 48//48 
f 43//43 63//63 57//57 
f 42//42 50//50 150//150 
f 157//157 156//156 54//54 
f 156//156 53//53 54//54 
f 55//55 54//54 53//53 
f 50//50 49//49 58//58 
f 53//53 48//48 56//56 
f 160//160 54//54 55//55 
f 155//155 54//54 160//160 
f 53//53 56//56 55//55 
f 63//63 43//43 64//64 
f 150//150 50//50 167//167 
f 48//48 158//158 60//60 
f 159//159 165//165 163//163 
f 55//55 59//59 160//160 
f 166//166 65//65 164//164 
f 62//62 56//56 48//48 
f 60//60 62//62 48//48 
f 161//161 66//66 58//58 
f 66//66 50//50 58//58 
f 167//167 50//50 66//66 
f 68//68 164//164 65//65 
f 62//62 60//60 70//70 
f 56//56 62//62 61//61 
f 56//56 61//61 55//55 
f 162//162 55//55 61//61 
f 61//61 69//69 162//162 
f 161//161 170//170 66//66 
f 61//61 62//62 71//71 
f 61//61 71//71 69//69 
f 62//62 70//70 71//71 
f 169//169 63//63 64//64 
f 167//167 96//96 80//80 
f 64//64 76//76 169//169 
f 67//67 167//167 66//66 
f 67//67 96//96 167//167 
f 173//173 168//168 175//175 
f 170//170 72//72 66//66 
f 72//72 67//67 66//66 
f 70//70 164//164 68//68 
f 70//70 68//68 90//90 
f 74//74 69//69 71//71 
f 71//71 70//70 73//73 
f 72//72 96//96 67//67 
f 73//73 70//70 90//90 
f 71//71 75//75 74//74 
f 71//71 73//73 172//172 
f 170//170 171//171 72//72 
f 72//72 101//101 96//96 
f 74//74 75//75 176//176 
f 72//72 171//171 101//101 
f 102//102 172//172 73//73 
f 75//75 177//177 176//176 
f 65//65 174//174 68//68 
f 68//68 174//174 78//78 
f 173//173 77//77 78//78 
f 77//77 79//79 78//78 
f 77//77 82//82 79//79 
f 84//84 78//78 79//79 
f 85//85 84//84 79//79 
f 79//79 82//82 85//85 
f 175//175 77//77 173//173 
f 175//175 86//86 77//77 
f 68//68 78//78 87//87 
f 78//78 81//81 87//87 
f 87//87 81//81 83//83 
f 86//86 82//82 77//77 
f 82//82 86//86 88//88 
f 78//78 84//84 81//81 
f 84//84 83//83 81//81 
f 85//85 82//82 89//89 
f 89//89 82//82 88//88 
f 107//107 83//83 84//84 
f 89//89 108//108 85//85 
f 68//68 87//87 91//91 
f 68//68 91//91 90//90 
f 80//80 96//96 86//86 
f 91//91 87//87 92//92 
f 95//95 92//92 87//87 
f 83//83 95//95 87//87 
f 88//88 86//86 93//93 
f 93//93 94//94 88//88 
f 88//88 94//94 89//89 
f 107//107 95//95 83//83 
f 110//110 108//108 89//89 
f 73//73 90//90 97//97 
f 97//97 90//90 91//91 
f 92//92 97//97 91//91 
f 97//97 92//92 99//99 
f 86//86 96//96 93//93 
f 99//99 92//92 95//95 
f 98//98 93//93 96//96 
f 94//94 93//93 98//98 
f 98//98 100//100 94//94 
f 100//100 89//89 94//94 
f 95//95 111//111 99//99 
f 89//89 100//100 110//110 
f 97//97 99//99 102//102 
f 96//96 104//104 98//98 
f 104//104 106//106 100//100 
f 98//98 104//104 100//100 
f 99//99 111//111 105//105 
f 106//106 112//112 100//100 
f 176//176 177//177 103//103 
f 97//97 102//102 73//73 
f 102//102 99//99 178//178 
f 96//96 101//101 104//104 
f 179//179 176//176 103//103 
f 179//179 103//103 181//181 
f 178//178 99//99 105//105 
f 181//181 103//103 180//180 
f 187//187 181//181 180//180 
f 84//84 85//85 182//182 
f 107//107 84//84 182//182 
f 111//111 95//95 107//107 
f 111//111 107//107 109//109 
f 107//107 182//182 183//183 
f 110//110 184//184 108//108 
f 186//186 185//185 187//187 
f 188//188 184//184 110//110 
f 100//100 112//112 110//110 
f 187//187 180//180 186//186 
