#
# The license for this database is specified in the Creative Commons Attribution-Share Alike 2.1 Japan. If you use data from this database, please be sure attribute this database as follows: "BodyParts3D, (c)  The Database Center for Life Science licensed under CC Attribution-Share Alike 2.1 Japan".
# http://dbarchive.biosciencedbc.jp/en/bodyparts3d/lic.html
#
#
# Compatibility version : 4.0
# File ID : FJ2972
# Representation ID : BP9421
# Build-up logic : FMA 3.0 part_of
# Concept ID : FMA68673
# English name : Posterior part of right posterior segmental artery
# Bounds(mm): (-82.431400,-52.373600,1280.340000)-(-78.741400,-41.570900,1282.780000)
# Volume(cm3): 0.025800
#
v -81.491 -41.8464 1280.41
v -82.1355 -41.8127 1280.48
v -81.6018 -41.7774 1280.53
v -81.8599 -41.8662 1280.37
v -82.0831 -42.1639 1280.5
v -82.1806 -42.254 1280.59
v -81.2924 -41.7199 1280.74
v -81.1698 -41.7055 1280.81
v -81.2985 -41.7725 1280.54
v -81.1613 -41.7789 1280.7
v -81.0782 -42.0696 1280.94
v -81.2987 -41.9668 1280.55
v -81.2241 -41.9698 1280.63
v -82.1744 -41.6228 1281.35
v -82.2854 -41.6457 1281.35
v -82.2996 -41.7171 1280.94
v -82.4314 -41.7521 1281.08
v -82.3883 -41.8776 1281.29
v -82.388 -41.7924 1280.79
v -81.1887 -41.6184 1281.38
v -81.3235 -42.1156 1281.66
v -81.5715 -41.5772 1281.47
v -81.9224 -41.5709 1281.57
v -81.8013 -41.5741 1281.65
v -82.0837 -41.7432 1281.62
v -81.5279 -41.7045 1281.66
v -81.7895 -41.8125 1281.73
v -82.2913 -41.8742 1281.47
v -81.9643 -43.6859 1282.12
v -82.1695 -43.806 1282.01
v -82.3556 -44.0509 1281.77
v -81.0081 -44.2958 1281.06
v -82.4023 -44.3532 1281.55
v -80.8262 -44.4727 1281.58
v -81.407 -44.6163 1282.36
v -81.278 -45.1308 1280.9
v -81.5604 -45.1891 1280.84
v -82.3 -45.57 1281.47
v -81.9167 -45.6232 1281
v -82.3288 -45.5586 1281.86
v -80.7204 -45.6002 1282.06
v -82.1137 -45.9515 1282.3
v -80.9155 -46.0757 1281.11
v -81.2516 -46.4086 1280.95
v -80.6273 -46.016 1281.53
v -81.4298 -46.0037 1282.63
v -81.7942 -45.9983 1282.55
v -81.4989 -46.6118 1280.96
v -82.2168 -46.797 1281.82
v -82.1038 -47.1252 1282.19
v -81.674 -47.2468 1282.65
v -80.7673 -47.1459 1282.59
v -81.2753 -47.3538 1282.76
v -81.5631 -47.604 1281.03
v -81.2419 -47.6091 1280.94
v -80.8879 -47.8915 1280.94
v -80.4054 -47.7271 1281.25
v -81.9513 -47.4845 1281.37
v -81.9198 -47.5592 1282.41
v -82.0062 -48.0855 1281.87
v -81.4134 -47.894 1282.75
v -81.5753 -48.2126 1282.62
v -81.7713 -49.0125 1281.62
v -79.9195 -48.486 1281.77
v -81.8433 -48.6477 1282.13
v -80.0199 -48.4654 1282.21
v -80.4565 -48.8694 1282.71
v -81.0458 -48.6864 1282.78
v -81.3042 -49.1103 1280.97
v -81.5578 -49.2756 1282.36
v -79.8493 -49.7493 1280.92
v -80.2973 -49.6833 1280.74
v -80.6937 -49.6926 1280.72
v -79.5579 -49.7968 1281.22
v -81.5876 -49.8118 1281.82
v -81.5079 -49.972 1282.01
v -81.1147 -49.8658 1282.57
v -80.1214 -50.4335 1282.67
v -80.593 -50.5818 1282.65
v -81.1419 -50.6499 1282.27
v -79.0284 -51.5035 1280.72
v -79.4227 -51.4423 1280.49
v -79.8404 -51.5815 1280.37
v -79.3386 -51.6667 1280.5
v -79.5294 -51.7513 1280.48
v -80.0343 -51.6946 1280.36
v -79.9748 -51.8764 1280.34
v -80.2518 -51.9098 1280.42
v -80.064 -51.9423 1280.44
v -80.3991 -52.0841 1280.56
v -80.6384 -51.7901 1280.7
v -78.8391 -51.5301 1280.96
v -78.9641 -51.612 1280.95
v -80.898 -52.0253 1281.29
v -80.7736 -52.2463 1281.05
v -80.6031 -52.2348 1281.05
v -80.7443 -52.3136 1281.22
v -80.7819 -52.3579 1281.58
v -80.8683 -52.1416 1281.61
v -78.812 -51.408 1281.66
v -78.9225 -51.3087 1281.91
v -78.9861 -51.414 1282.08
v -78.7414 -51.6402 1281.67
v -78.8307 -51.6933 1281.95
v -79.0407 -51.8099 1282.08
v -79.0726 -51.6053 1282.24
v -79.2145 -51.4906 1282.34
v -80.2856 -52.2897 1282.19
v -80.4217 -52.2865 1282.28
v -80.7419 -52.1474 1281.97
v -80.63 -52.3448 1281.71
v -80.7628 -52.354 1281.77
v -80.6562 -52.3736 1281.93
v -79.2469 -51.6543 1282.39
v -79.1291 -51.8707 1282.33
v -79.4233 -51.9203 1282.5
v -79.3857 -51.9703 1282.28
v -79.8158 -51.941 1282.55
v -79.8566 -52.1791 1282.49
v -80.1284 -52.2393 1282.46
v -81.491 -41.8464 1280.41
v -82.1355 -41.8127 1280.48
v -81.8599 -41.8662 1280.37
v -81.1698 -41.7055 1280.81
v -81.2985 -41.7725 1280.54
v -81.1613 -41.7789 1280.7
v -82.2854 -41.6457 1281.35
v -82.4314 -41.7521 1281.08
v -82.388 -41.7924 1280.79
v -81.1887 -41.6184 1281.38
v -81.1887 -41.6184 1281.38
v -81.1887 -41.6184 1281.38
v -81.5715 -41.5772 1281.47
v -81.9224 -41.5709 1281.57
v -81.8013 -41.5741 1281.65
v -81.8013 -41.5741 1281.65
v -81.5279 -41.7045 1281.66
v -80.7204 -45.6002 1282.06
v -80.0199 -48.4654 1282.21
v -79.0284 -51.5035 1280.72
v -79.3386 -51.6667 1280.5
v -79.5294 -51.7513 1280.48
v -79.9748 -51.8764 1280.34
v -79.9748 -51.8764 1280.34
v -80.2518 -51.9098 1280.42
v -80.064 -51.9423 1280.44
v -80.3991 -52.0841 1280.56
v -80.3991 -52.0841 1280.56
v -78.8391 -51.5301 1280.96
v -80.7736 -52.2463 1281.05
v -80.7443 -52.3136 1281.22
v -80.7819 -52.3579 1281.58
v -78.7414 -51.6402 1281.67
v -78.8307 -51.6933 1281.95
v -78.8307 -51.6933 1281.95
v -79.0407 -51.8099 1282.08
v -79.0407 -51.8099 1282.08
v -79.0726 -51.6053 1282.24
v -79.0726 -51.6053 1282.24
v -80.4217 -52.2865 1282.28
v -80.7628 -52.354 1281.77
v -80.6562 -52.3736 1281.93
v -79.1291 -51.8707 1282.33
v -79.1291 -51.8707 1282.33
v -79.4233 -51.9203 1282.5
v -79.8566 -52.1791 1282.49
v -80.1284 -52.2393 1282.46
vn 0.433906 -0.102548 -0.895103
vn -0.117389 0.93601 -0.331822
vn -0.0187778 0.940931 -0.338078
vn -0.00391339 0.876888 -0.480679
vn -0.4347 -0.144921 -0.888839
vn -0.686173 -0.126432 -0.716367
vn 0.0937987 0.951667 -0.292457
vn 0.972307 0.230632 -0.0377918
vn 0.109659 0.935236 -0.336612
vn 0.260755 0.880888 -0.395023
vn 0.987876 0.126439 -0.0900829
vn 0.637434 -0.0717972 -0.767152
vn 0.743787 -0.040325 -0.6672
vn -0.120797 0.982806 -0.139645
vn -0.270168 0.957566 -0.100376
vn -0.209143 0.955841 -0.206463
vn -0.417207 0.893739 -0.164832
vn -0.909509 0.170111 0.379284
vn -0.365078 0.898892 -0.242306
vn 0.980541 0.189064 0.0528518
vn 0.603567 0.22638 0.764499
vn -0.00875072 0.98627 -0.164911
vn -0.0739991 0.995541 -0.0584947
vn 0.371276 0.813401 0.447808
vn -0.498085 0.357772 0.78988
vn 0.334937 0.275734 0.900993
vn -0.0794718 0.265133 0.960931
vn -0.789563 0.195818 0.581589
vn -0.298928 0.183728 0.936422
vn -0.667349 0.12158 0.734755
vn -0.922547 0.0445652 0.383302
vn 0.796843 -0.0108266 -0.604089
vn -0.999307 -0.0340436 -0.0150574
vn 0.987782 0.0997888 -0.119702
vn 0.227808 0.214463 0.949794
vn 0.413741 -0.0532391 -0.908837
vn -0.0470735 -0.113283 -0.992447
vn -0.960945 -0.10306 -0.256833
vn -0.418875 -0.108932 -0.901486
vn -0.979992 -0.0515713 0.192239
vn 0.980185 0.180071 0.0825337
vn -0.778456 0.00392687 0.627687
vn 0.592751 0.0647501 -0.802779
vn 0.17267 -0.00558368 -0.984964
vn 0.929411 0.163754 -0.330727
vn 0.0190331 0.148732 0.988694
vn -0.409106 0.0864853 0.908379
vn -0.111343 -0.0450569 -0.99276
vn -0.988768 -0.134311 -0.0655663
vn -0.934781 -0.117651 0.335176
vn -0.502502 -0.0159153 0.86443
vn 0.593976 0.195084 0.780471
vn -0.0169909 0.065414 0.997714
vn -0.471666 -0.0596728 -0.879756
vn -0.105152 0.0144736 -0.994351
vn 0.274441 0.137929 -0.95166
vn 0.726487 0.243705 -0.642514
vn -0.816371 -0.141379 -0.559956
vn -0.777726 -0.121601 0.61673
vn -0.981129 -0.191563 -0.0262554
vn -0.318633 -0.048666 0.946628
vn -0.559889 -0.141306 0.81643
vn -0.943412 -0.217729 -0.250136
vn 0.940775 0.326197 -0.0924001
vn -0.926383 -0.218053 0.307029
vn 0.698223 0.199855 0.687418
vn 0.353141 0.0864428 0.931568
vn -0.145819 -0.0698463 0.986843
vn -0.545589 -0.0444786 -0.836872
vn -0.778548 -0.229517 0.58411
vn 0.535246 0.311373 -0.785213
vn 0.211562 0.223575 -0.951449
vn -0.152831 0.0943477 -0.983738
vn 0.777615 0.373937 -0.505457
vn -0.963431 -0.266004 0.0322886
vn -0.904037 -0.293057 0.311182
vn -0.513197 -0.209558 0.832295
vn 0.108735 -0.0327569 0.993531
vn -0.194527 -0.137374 0.97123
vn -0.755558 -0.288863 0.587954
vn 0.63119 0.322785 -0.705272
vn 0.380019 0.220025 -0.898429
vn 0.132885 0.0658121 -0.988944
vn 0.330391 -0.0180549 -0.943671
vn 0.349802 -0.922421 -0.163641
vn -0.167022 0.0911798 -0.981728
vn 0.00451155 0.0323065 -0.999468
vn -0.433965 -0.00783373 -0.900896
vn 0.342742 -0.919904 -0.190536
vn -0.0227457 -0.614351 -0.788705
vn -0.693696 -0.147551 -0.704993
vn 0.882028 0.3673 -0.295156
vn 0.46435 -0.854268 -0.233679
vn -0.931591 -0.346102 -0.11114
vn -0.872778 -0.275877 -0.40268
vn 0.234724 -0.947019 -0.219226
vn 0.233478 -0.952433 -0.195854
vn -0.917651 -0.396153 -0.0313089
vn -0.94021 -0.332234 0.0750003
vn 0.942007 0.321695 0.0955794
vn 0.87312 0.281572 0.397969
vn 0.797568 0.228015 0.558475
vn 0.431678 -0.893341 -0.124882
vn 0.852271 0.21869 0.475194
vn 0.386546 -0.91722 -0.0963868
vn 0.69997 0.172928 0.69292
vn 0.608378 0.150246 0.779296
vn 0.226067 -0.974109 0.00239899
vn -0.643414 -0.302496 0.703217
vn -0.79791 -0.340531 0.497372
vn 0.206974 -0.973303 -0.0992122
vn -0.886739 -0.35016 0.301798
vn -0.758989 -0.377964 0.530169
vn 0.526794 0.0980905 0.844314
vn 0.944232 -0.0926105 0.31599
vn 0.314276 -0.0303889 0.948845
vn 0.381929 -0.923576 0.0337248
vn 0.0108126 -0.160556 0.986968
vn 0.353926 -0.935175 0.0135423
vn -0.282736 -0.217001 0.934329
vn 0.00479092 0.86854 -0.495596
vn -0.597286 -0.11714 -0.793428
vn -0.210083 -0.14152 -0.967387
vn 0.0850762 0.950135 -0.30001
vn 0.684006 -0.039172 -0.728424
vn 0.904326 0.0487303 -0.424052
vn -0.751098 0.391177 0.531819
vn -0.9843 0.0800437 0.157309
vn -0.894569 -0.0869158 -0.438398
vn 0.0728824 0.986252 -0.148306
vn 0.636109 0.242893 0.732371
vn 0.2035 0.840116 0.502785
vn 0.28854 0.830074 0.477203
vn -0.462744 0.603599 0.649258
vn 0.0205061 0.999749 0.00897687
vn -0.206432 0.423089 0.882259
vn 0.28854 0.830074 0.477203
vn 0.712142 0.203381 0.67193
vn 0.936871 0.289503 0.196112
vn 0.665829 -0.472366 -0.57753
vn 0.554287 -0.730484 -0.398948
vn 0.25302 -0.149467 -0.955845
vn 0.341326 -0.895472 -0.285703
vn -0.0754618 -0.800292 -0.594843
vn -0.0495703 -0.714042 -0.698346
vn -0.0495703 -0.714042 -0.698346
vn -0.666309 -0.200272 -0.718278
vn 0.207887 -0.956135 -0.206372
vn 0.59857 -0.701995 -0.385899
vn 0.068737 -0.944211 -0.322088
vn -0.888153 -0.450864 -0.0889141
vn 0.124073 -0.991256 -0.0449231
vn 0.942032 0.280665 0.183857
vn 0.478739 -0.877849 -0.013785
vn 0.639873 -0.398583 0.657035
vn 0.639873 -0.398583 0.657035
vn 0.944232 -0.0926105 0.31599
vn 0.639873 -0.398583 0.657035
vn 0.944232 -0.0926105 0.31599
vn 0.0809739 -0.983175 0.163737
vn 0.0430693 -0.99738 -0.0581228
vn 0.130464 -0.991365 -0.0131719
vn 0.582005 0.0958222 0.80752
vn 0.346473 -0.934045 0.0866968
vn 0.399454 -0.875859 0.270755
vn 0.0417609 -0.253872 0.966336
vn 0.139885 -0.98472 0.103728
g grp1
usemtl mtl1
f 7//7 9//9 3//3 
f 125//125 12//12 1//1 
f 9//9 121//121 3//3 
f 2//2 16//16 3//3 
f 2//2 19//19 16//16 
f 121//121 4//4 3//3 
f 2//2 3//3 4//4 
f 123//123 5//5 122//122 
f 5//5 6//6 122//122 
f 129//129 122//122 6//6 
f 11//11 8//8 20//20 
f 10//10 9//9 7//7 
f 7//7 3//3 22//22 
f 10//10 7//7 124//124 
f 126//126 8//8 11//11 
f 124//124 7//7 22//22 
f 13//13 125//125 126//126 
f 125//125 13//13 12//12 
f 32//32 12//12 13//13 
f 1//1 12//12 32//32 
f 126//126 32//32 13//13 
f 130//130 124//124 22//22 
f 22//22 16//16 14//14 
f 16//16 22//22 3//3 
f 16//16 17//17 15//15 
f 127//127 128//128 18//18 
f 16//16 15//15 14//14 
f 18//18 28//28 127//127 
f 19//19 17//17 16//16 
f 18//18 128//128 31//31 
f 33//33 128//128 129//129 
f 33//33 31//31 128//128 
f 28//28 18//18 31//31 
f 26//26 21//21 131//131 
f 41//41 11//11 20//20 
f 132//132 133//133 137//137 
f 133//133 24//24 137//137 
f 22//22 23//23 135//135 
f 134//134 25//25 136//136 
f 26//26 136//136 27//27 
f 27//27 136//136 25//25 
f 14//14 23//23 22//22 
f 14//14 15//15 23//23 
f 25//25 29//29 27//27 
f 127//127 25//25 134//134 
f 28//28 25//25 127//127 
f 123//123 1//1 37//37 
f 11//11 32//32 126//126 
f 38//38 33//33 129//129 
f 11//11 41//41 34//34 
f 36//36 1//1 32//32 
f 37//37 5//5 123//123 
f 38//38 129//129 58//58 
f 25//25 30//30 29//29 
f 28//28 30//30 25//25 
f 35//35 26//26 27//27 
f 43//43 36//36 32//32 
f 36//36 37//37 1//1 
f 129//129 6//6 58//58 
f 34//34 32//32 11//11 
f 45//45 32//32 34//34 
f 21//21 138//138 131//131 
f 31//31 30//30 28//28 
f 39//39 6//6 5//5 
f 6//6 39//39 58//58 
f 45//45 43//43 32//32 
f 36//36 44//44 37//37 
f 45//45 34//34 41//41 
f 40//40 31//31 33//33 
f 40//40 33//33 38//38 
f 21//21 26//26 35//35 
f 43//43 44//44 36//36 
f 44//44 48//48 37//37 
f 5//5 37//37 39//39 
f 38//38 49//49 40//40 
f 35//35 27//27 29//29 
f 46//46 35//35 29//29 
f 29//29 47//47 46//46 
f 29//29 30//30 47//47 
f 47//47 30//30 42//42 
f 31//31 40//40 42//42 
f 31//31 42//42 30//30 
f 48//48 39//39 37//37 
f 44//44 55//55 48//48 
f 39//39 54//54 58//58 
f 50//50 40//40 49//49 
f 58//58 49//49 38//38 
f 35//35 46//46 52//52 
f 52//52 46//46 53//53 
f 53//53 46//46 47//47 
f 53//53 47//47 51//51 
f 21//21 35//35 52//52 
f 50//50 42//42 40//40 
f 47//47 42//42 51//51 
f 43//43 56//56 44//44 
f 44//44 56//56 55//55 
f 48//48 55//55 39//39 
f 55//55 54//54 39//39 
f 64//64 45//45 41//41 
f 57//57 43//43 45//45 
f 60//60 49//49 58//58 
f 52//52 138//138 21//21 
f 50//50 59//59 42//42 
f 59//59 51//51 42//42 
f 60//60 50//50 49//49 
f 65//65 50//50 60//60 
f 65//65 59//59 50//50 
f 55//55 56//56 73//73 
f 73//73 69//69 54//54 
f 57//57 56//56 43//43 
f 56//56 57//57 71//71 
f 63//63 60//60 58//58 
f 69//69 58//58 54//54 
f 57//57 45//45 64//64 
f 52//52 66//66 138//138 
f 59//59 62//62 51//51 
f 68//68 53//53 61//61 
f 68//68 61//61 62//62 
f 51//51 62//62 61//61 
f 53//53 51//51 61//61 
f 55//55 73//73 54//54 
f 57//57 74//74 71//71 
f 74//74 57//57 64//64 
f 41//41 139//139 64//64 
f 63//63 75//75 60//60 
f 75//75 65//65 60//60 
f 67//67 53//53 68//68 
f 52//52 53//53 67//67 
f 70//70 62//62 59//59 
f 65//65 70//70 59//59 
f 72//72 56//56 71//71 
f 73//73 56//56 72//72 
f 91//91 58//58 69//69 
f 62//62 77//77 68//68 
f 78//78 67//67 68//68 
f 77//77 62//62 70//70 
f 88//88 69//69 73//73 
f 88//88 91//91 69//69 
f 91//91 95//95 58//58 
f 63//63 58//58 95//95 
f 74//74 64//64 92//92 
f 75//75 76//76 65//65 
f 76//76 70//70 65//65 
f 52//52 101//101 66//66 
f 68//68 79//79 78//78 
f 79//79 68//68 77//77 
f 81//81 71//71 74//74 
f 82//82 72//72 71//71 
f 83//83 73//73 72//72 
f 99//99 76//76 75//75 
f 139//139 101//101 64//64 
f 52//52 67//67 107//107 
f 120//120 79//79 77//77 
f 118//118 79//79 120//120 
f 80//80 77//77 70//70 
f 76//76 80//80 70//70 
f 79//79 118//118 78//78 
f 81//81 74//74 92//92 
f 86//86 73//73 83//83 
f 99//99 75//75 94//94 
f 94//94 75//75 63//63 
f 100//100 92//92 64//64 
f 64//64 101//101 100//100 
f 107//107 106//106 52//52 
f 52//52 106//106 102//102 
f 52//52 102//102 101//101 
f 110//110 80//80 76//76 
f 77//77 80//80 109//109 
f 116//116 67//67 78//78 
f 114//114 107//107 67//67 
f 116//116 114//114 67//67 
f 116//116 78//78 118//118 
f 82//82 81//81 84//84 
f 149//149 141//141 140//140 
f 141//141 149//149 93//93 
f 82//82 71//71 81//81 
f 82//82 83//83 72//72 
f 84//84 83//83 82//82 
f 141//141 93//93 85//85 
f 142//142 83//83 84//84 
f 86//86 83//83 87//87 
f 87//87 83//83 142//142 
f 89//89 143//143 85//85 
f 88//88 73//73 86//86 
f 86//86 87//87 88//88 
f 146//146 145//145 144//144 
f 145//145 146//146 90//90 
f 91//91 88//88 147//147 
f 148//148 89//89 96//96 
f 91//91 147//147 95//95 
f 96//96 150//150 148//148 
f 103//103 93//93 149//149 
f 85//85 93//93 103//103 
f 89//89 85//85 96//96 
f 96//96 85//85 97//97 
f 95//95 94//94 63//63 
f 112//112 76//76 99//99 
f 150//150 96//96 97//97 
f 95//95 151//151 94//94 
f 94//94 151//151 98//98 
f 94//94 98//98 99//99 
f 85//85 111//111 97//97 
f 97//97 111//111 152//152 
f 152//152 111//111 161//161 
f 99//99 98//98 112//112 
f 92//92 100//100 153//153 
f 100//100 101//101 153//153 
f 104//104 153//153 101//101 
f 104//104 101//101 102//102 
f 154//154 105//105 103//103 
f 104//104 102//102 106//106 
f 155//155 158//158 156//156 
f 157//157 159//159 115//115 
f 163//163 106//106 107//107 
f 105//105 85//85 103//103 
f 85//85 105//105 117//117 
f 117//117 105//105 164//164 
f 85//85 119//119 108//108 
f 109//109 120//120 77//77 
f 110//110 109//109 80//80 
f 112//112 110//110 76//76 
f 112//112 113//113 110//110 
f 108//108 160//160 162//162 
f 113//113 109//109 110//110 
f 108//108 111//111 85//85 
f 162//162 111//111 108//108 
f 161//161 111//111 162//162 
f 163//163 107//107 114//114 
f 163//163 114//114 116//116 
f 165//165 117//117 164//164 
f 85//85 117//117 119//119 
f 119//119 117//117 165//165 
f 118//118 166//166 116//116 
f 166//166 118//118 120//120 
f 108//108 119//119 167//167 
f 108//108 167//167 160//160 
