#
# The license for this database is specified in the Creative Commons Attribution-Share Alike 2.1 Japan. If you use data from this database, please be sure attribute this database as follows: "BodyParts3D, (c)  The Database Center for Life Science licensed under CC Attribution-Share Alike 2.1 Japan".
# http://dbarchive.biosciencedbc.jp/en/bodyparts3d/lic.html
#
#
# Compatibility version : 4.0
# File ID : FJ2307
# Representation ID : BP6801
# Build-up logic : FMA 3.0 part_of
# Concept ID : FMA3992
# English name : Right thyrocervical trunk
# Bounds(mm): (-42.804000,-99.482600,1352.188000)-(-40.030900,-97.492200,1357.946300)
# Volume(cm3): 0.013900
#
v -42.7729 -98.882 1357.48
v -42.6988 -98.3978 1357.52
v -42.7273 -98.3723 1357.08
v -41.88 -99.4717 1357.89
v -42.5441 -98.9697 1357.66
v -42.5497 -99.2445 1357.65
v -42.4239 -99.1732 1357.72
v -42.3766 -99.3737 1357.71
v -42.0816 -99.372 1357.83
v -41.9751 -99.4826 1357.78
v -42.5998 -97.9669 1357.34
v -42.0256 -97.6328 1357.45
v -41.8585 -98.9566 1353.27
v -42.0011 -98.4737 1353.19
v -41.8187 -98.2541 1352.65
v -41.8736 -97.9208 1353.26
v -41.6672 -98.6383 1352.5
v -41.6286 -98.2427 1352.42
v -41.2259 -97.9831 1357.77
v -41.6301 -97.7196 1357.64
v -41.5688 -99.3993 1357.46
v -41.1983 -98.9958 1357.95
v -41.1037 -99.01 1357.51
v -41.5914 -97.8824 1352.6
v -41.3881 -97.5561 1353.16
v -41.1033 -97.7413 1352.49
v -41.4369 -99.2798 1353.16
v -41.2354 -99.3833 1353.36
v -41.0634 -99.2783 1352.72
v -41.4511 -99.035 1352.57
v -41.4644 -98.4009 1352.29
v -41.2699 -98.7248 1352.28
v -41.1492 -98.9973 1352.39
v -40.955 -98.8103 1352.27
v -40.8476 -99.001 1352.4
v -41.3676 -98.1686 1352.29
v -41.1594 -98.3446 1352.2
v -40.8908 -98.0387 1352.27
v -41.008 -98.4302 1357.72
v -40.4435 -99.1715 1353.45
v -40.1288 -98.241 1353.68
v -40.1048 -98.6354 1353.43
v -40.0757 -98.2119 1352.96
v -40.7169 -97.5423 1353.32
v -40.3216 -97.9101 1352.71
v -40.2777 -97.8146 1353.36
v -40.8601 -99.3741 1353.41
v -40.6593 -99.2405 1352.8
v -40.6795 -98.5046 1352.25
v -40.5804 -98.7835 1352.36
v -40.4761 -98.9289 1352.52
v -40.3737 -98.6354 1352.45
v -40.2312 -98.8363 1352.76
v -40.151 -98.4216 1352.7
v -40.6972 -97.8446 1352.45
v -40.4858 -98.2455 1352.36
v -42.7729 -98.882 1357.48
v -42.6988 -98.3978 1357.52
v -41.88 -99.4717 1357.89
v -41.88 -99.4717 1357.89
v -42.5497 -99.2445 1357.65
v -42.3766 -99.3737 1357.71
v -42.3766 -99.3737 1357.71
v -42.0816 -99.372 1357.83
v -41.9751 -99.4826 1357.78
v -42.5998 -97.9669 1357.34
v -42.0256 -97.6328 1357.45
v -41.2259 -97.9831 1357.77
v -41.2259 -97.9831 1357.77
v -41.2259 -97.9831 1357.77
v -41.6301 -97.7196 1357.64
v -41.1983 -98.9958 1357.95
v -41.1983 -98.9958 1357.95
v -41.1983 -98.9958 1357.95
v -41.008 -98.4302 1357.72
v -40.6972 -97.8446 1352.45
vn -0.607631 0.00554547 0.7942
vn -0.360568 0.240951 0.901074
vn -0.977223 0.198238 -0.0757428
vn -0.485196 -0.721359 0.494192
vn -0.433479 0.0655501 0.898777
vn -0.514568 -0.071603 0.854455
vn -0.350056 0.00352656 0.936722
vn -0.408956 -0.143255 0.90124
vn -0.263 0.0662142 0.962521
vn -0.393905 -0.691008 0.606092
vn -0.790543 0.609168 -0.0628956
vn -0.369411 0.397468 0.839973
vn -0.795665 -0.545656 -0.263015
vn -0.962636 -0.0684171 -0.262015
vn -0.872565 0.175974 -0.455702
vn -0.840591 0.499207 -0.210236
vn -0.745256 -0.267693 -0.610684
vn -0.649272 0.181272 -0.738638
vn -0.203093 0.167303 0.964761
vn -0.271646 0.264156 0.925435
vn 0.507113 -0.851389 0.134064
vn -0.202496 0.165839 0.965139
vn 0.830617 -0.526078 0.182531
vn -0.590613 0.605607 -0.533307
vn -0.35732 0.917678 -0.17375
vn -0.0931998 0.794822 -0.599643
vn -0.483699 -0.850068 -0.208373
vn -0.167053 -0.979434 -0.113144
vn -0.0834995 -0.912063 -0.401457
vn -0.518888 -0.656576 -0.547415
vn -0.459067 -0.0257508 -0.888028
vn -0.323496 -0.320608 -0.890259
vn -0.155939 -0.619289 -0.769522
vn 0.0602096 -0.337093 -0.939544
vn 0.193404 -0.659066 -0.726792
vn -0.330218 0.361541 -0.87192
vn -0.0970352 0.0280999 -0.994884
vn 0.102363 0.366519 -0.924763
vn 0.975076 -0.0330329 0.219399
vn 0.663392 -0.747745 0.0280965
vn 0.956039 0.244877 0.161323
vn 0.964251 -0.25804 0.0603014
vn 0.967911 0.220852 -0.119882
vn 0.301067 0.949898 -0.0839785
vn 0.692074 0.58536 -0.422359
vn 0.764967 0.643433 0.0286141
vn 0.212047 -0.97643 -0.0402499
vn 0.41703 -0.845915 -0.332435
vn 0.297665 -0.0506903 -0.953324
vn 0.388072 -0.372525 -0.842986
vn 0.541834 -0.568973 -0.618616
vn 0.664447 -0.197141 -0.720864
vn 0.818376 -0.488825 -0.302177
vn 0.896274 -0.00765756 -0.443435
vn 0.347168 0.497963 -0.794674
vn 0.558868 0.2234 -0.798598
vn -0.970605 -0.206836 -0.12306
vn -0.976777 0.200409 0.0757775
vn -0.189302 0.160328 0.968741
vn 0.318427 -0.942326 0.10308
vn -0.67176 -0.725278 -0.150699
vn -0.294036 -0.645608 0.704793
vn -0.401041 -0.910697 -0.0989759
vn -0.393905 -0.691008 0.606092
vn -0.0385301 -0.998908 -0.0264313
vn -0.408002 0.428516 0.806169
vn -0.118188 0.992918 0.0120296
vn 0.877234 0.432651 0.208022
vn 0.510037 0.848267 0.142495
vn 0.510507 0.163813 0.844126
vn 0.348825 0.930467 0.11204
vn 0.581142 -0.786767 0.208019
vn 0.510507 0.163813 0.844126
vn 0.94833 -0.23369 0.214614
vn 0.510507 0.163813 0.844126
vn 0.283929 0.907901 -0.308383
g grp1
usemtl mtl1
f 6//6 5//5 1//1 
f 5//5 2//2 1//1 
f 58//58 3//3 57//57 
f 19//19 2//2 5//5 
f 58//58 11//11 3//3 
f 14//14 57//57 3//3 
f 2//2 20//20 12//12 
f 19//19 20//20 2//2 
f 5//5 7//7 19//19 
f 7//7 5//5 6//6 
f 6//6 8//8 7//7 
f 7//7 8//8 9//9 
f 19//19 7//7 9//9 
f 64//64 62//62 10//10 
f 4//4 64//64 10//10 
f 59//59 19//19 9//9 
f 60//60 65//65 47//47 
f 66//66 2//2 12//12 
f 11//11 16//16 3//3 
f 3//3 16//16 14//14 
f 13//13 61//61 57//57 
f 13//13 27//27 61//61 
f 63//63 61//61 27//27 
f 57//57 14//14 13//13 
f 14//14 17//17 13//13 
f 16//16 15//15 14//14 
f 14//14 15//15 17//17 
f 17//17 30//30 13//13 
f 13//13 30//30 27//27 
f 15//15 18//18 17//17 
f 15//15 16//16 24//24 
f 15//15 24//24 18//18 
f 41//41 46//46 68//68 
f 41//41 68//68 39//39 
f 69//69 44//44 71//71 
f 46//46 44//44 69//69 
f 21//21 60//60 47//47 
f 40//40 21//21 47//47 
f 22//22 19//19 59//59 
f 21//21 72//72 60//60 
f 23//23 72//72 21//21 
f 73//73 75//75 70//70 
f 23//23 39//39 74//74 
f 21//21 40//40 23//23 
f 44//44 67//67 71//71 
f 63//63 28//28 65//65 
f 47//47 65//65 28//28 
f 25//25 16//16 11//11 
f 25//25 24//24 16//16 
f 67//67 25//25 11//11 
f 24//24 25//25 26//26 
f 24//24 26//26 36//36 
f 29//29 27//27 30//30 
f 29//29 30//30 33//33 
f 28//28 63//63 27//27 
f 27//27 29//29 28//28 
f 29//29 33//33 35//35 
f 47//47 28//28 29//29 
f 48//48 47//47 29//29 
f 29//29 35//35 48//48 
f 32//32 30//30 17//17 
f 18//18 31//31 17//17 
f 17//17 31//31 32//32 
f 31//31 37//37 32//32 
f 33//33 30//30 32//32 
f 35//35 33//33 34//34 
f 34//34 33//33 32//32 
f 37//37 34//34 32//32 
f 37//37 49//49 34//34 
f 18//18 36//36 31//31 
f 36//36 18//18 24//24 
f 31//31 36//36 37//37 
f 38//38 36//36 26//26 
f 36//36 38//38 37//37 
f 26//26 55//55 38//38 
f 23//23 42//42 39//39 
f 23//23 40//40 42//42 
f 42//42 40//40 53//53 
f 45//45 46//46 43//43 
f 45//45 54//54 56//56 
f 54//54 42//42 53//53 
f 41//41 43//43 46//46 
f 42//42 54//54 43//43 
f 54//54 45//45 43//43 
f 25//25 67//67 44//44 
f 44//44 76//76 26//26 
f 44//44 26//26 25//25 
f 45//45 44//44 46//46 
f 44//44 45//45 76//76 
f 45//45 56//56 55//55 
f 48//48 40//40 47//47 
f 40//40 48//48 53//53 
f 51//51 53//53 48//48 
f 48//48 35//35 51//51 
f 35//35 34//34 50//50 
f 50//50 34//34 49//49 
f 38//38 49//49 37//37 
f 51//51 35//35 50//50 
f 49//49 52//52 50//50 
f 38//38 56//56 49//49 
f 50//50 52//52 51//51 
f 52//52 49//49 56//56 
f 52//52 53//53 51//51 
f 54//54 52//52 56//56 
f 53//53 52//52 54//54 
f 56//56 38//38 55//55 
f 41//41 39//39 42//42 
f 43//43 41//41 42//42 
