#
# The license for this database is specified in the Creative Commons Attribution-Share Alike 2.1 Japan. If you use data from this database, please be sure attribute this database as follows: "BodyParts3D, (c)  The Database Center for Life Science licensed under CC Attribution-Share Alike 2.1 Japan".
# http://dbarchive.biosciencedbc.jp/en/bodyparts3d/lic.html
#
#
# Compatibility version : 4.0
# File ID : FJ1704
# Representation ID : BP7709
# Build-up logic : FMA 3.0 part_of
# Concept ID : FMA50519
# English name : Right posterior inferior cerebellar artery
# Bounds(mm): (-35.553900,-58.078300,1490.745800)-(-22.032000,-49.934500,1498.502200)
# Volume(cm3): 0.006300
#
v -35.5539 -57.8017 1498.35
v -35.3929 -57.9549 1498.35
v -35.3929 -57.8017 1498.11
v -35.3929 -57.8017 1498.5
v -35.3929 -57.6017 1498.29
v -35.3929 -57.6017 1498.39
v -34.9755 -57.8017 1497.93
v -34.4102 -57.8017 1497.71
v -34.1929 -58.0017 1497.72
v -34.1888 -57.6499 1497.75
v -33.8262 -58.0017 1497.55
v -33.9932 -57.8017 1497.54
v -33.7929 -58.0626 1497.75
v -33.7929 -57.6157 1497.75
v -33.8102 -57.8017 1497.95
v -35.1556 -57.8017 1498.44
v -34.9747 -57.9968 1498.15
v -34.6556 -57.9849 1497.95
v -34.5737 -57.8017 1498.23
v -34.3929 -58.0376 1497.95
v -34.1079 -58.0017 1497.95
v -35.1929 -57.6017 1498.14
v -35.1929 -57.6001 1498.35
v -34.7903 -57.6015 1498.15
v -34.4929 -57.6017 1497.95
v -33.5921 -58.0521 1497.56
v -33.5929 -58.0017 1497.79
v -33.5793 -57.8016 1497.37
v -33.5929 -57.6194 1497.55
v -33.3929 -58.0783 1497.55
v -33.339 -57.9946 1497.36
v -33.042 -57.8 1497.15
v -33.1929 -57.8017 1497.72
v -32.9929 -58.0751 1497.35
v -32.9929 -58.0017 1497.58
v -32.7929 -58.0158 1497.15
v -32.5929 -58.0439 1497.35
v -32.4341 -57.7652 1496.91
v -32.3929 -58.0501 1497.15
v -32.1637 -57.8017 1497.35
v -32.5573 -57.5877 1497.11
v -31.3747 -57.8467 1496.94
v -30.8747 -57.6088 1496.38
v -30.7929 -57.4017 1496.26
v -31.9929 -57.522 1497.15
v -31.142 -57.2897 1496.55
v -30.9929 -57.2477 1496.75
v -30.8631 -57.4199 1496.89
v -30.1612 -56.9679 1496.05
v -30.024 -57.1976 1496.04
v -29.3927 -56.9077 1495.97
v -29.3929 -56.6017 1495.72
v -29.3696 -56.3146 1495.75
v -29.3989 -56.1817 1495.96
v -29.2299 -56.1563 1496.17
v -30.3875 -57.5393 1496.36
v -30.1929 -57.4439 1496.55
v -30.1929 -57.2017 1496.66
v -29.9929 -56.7064 1496.35
v -29.3929 -56.8329 1496.35
v -28.9779 -55.7489 1495.75
v -28.824 -55.635 1495.95
v -28.5929 -55.6017 1496.05
v -28.5929 -55.2617 1495.75
v -28.3929 -56.0017 1495.94
v -28.3565 -55.3289 1495.28
v -28.3322 -54.9789 1495.73
v -28.1929 -54.6896 1495.35
v -27.9931 -55.3742 1495.36
v -27.7236 -53.9121 1495.32
v -27.5184 -53.6454 1494.9
v -26.9929 -53.4017 1494.62
v -27.1929 -54.0017 1495.54
v -26.5643 -53.2238 1494.94
v -26.4826 -51.7954 1494.12
v -26.4513 -51.5224 1494.2
v -26.4013 -51.5259 1494.55
v -26.0764 -51.736 1493.87
v -25.7773 -51.9387 1494.32
v -25.7839 -51.8572 1494.53
v -25.8296 -51.8166 1493.98
v -26.6062 -52.4259 1495.08
v -26.1861 -52.2055 1494.89
v -25.9688 -50.9803 1493.71
v -25.8002 -51.0532 1494.41
v -25.1815 -51.2267 1493.92
v -25.1723 -50.4144 1492.95
v -25.0557 -50.2088 1492.96
v -25.0044 -50.6223 1492.81
v -24.7938 -50.799 1492.84
v -24.7016 -50.0181 1492.9
v -24.5612 -50.4171 1492.38
v -24.5678 -50.2119 1492.44
v -24.4098 -50.8585 1492.79
v -24.3868 -50.6655 1492.36
v -25.6275 -50.5103 1493.78
v -25.4684 -50.4106 1493.35
v -25.4068 -51.0409 1493.31
v -25.2155 -51.2306 1493.57
v -25.1821 -50.3161 1493.74
v -25.1835 -50.1799 1493.35
v -25.0318 -50.8423 1493.97
v -24.7766 -50.0662 1493.33
v -24.591 -50.8052 1493.47
v -24.4864 -50.5882 1493.51
v -24.4207 -50.2018 1493.36
v -22.854 -51.2136 1491.22
v -22.5885 -51.238 1490.97
v -22.5929 -51.3314 1491.35
v -23.5778 -50.4214 1491.53
v -22.8243 -50.9803 1490.91
v -22.6236 -50.7887 1490.79
v -22.6403 -50.4486 1491
v -24.0152 -49.9608 1492.77
v -23.7637 -50.6326 1491.71
v -23.8162 -50.6139 1492.86
v -23.7675 -50.2275 1492.87
v -23.6229 -50.916 1491.97
v -23.6099 -50.1096 1491.79
v -23.6203 -49.9605 1492.18
v -23.3929 -50.9376 1492.15
v -23.3701 -50.0589 1492.31
v -22.8625 -50.6209 1492.14
v -23.0007 -50.1437 1491.57
v -22.6024 -51.004 1491.8
v -22.6129 -50.2742 1491.57
v -22.6336 -50.4055 1491.86
v -22.3863 -51.2198 1490.96
v -22.3932 -51.3073 1491.15
v -22.2032 -51.201 1491.15
v -22.2123 -51.1908 1491.35
v -22.4121 -51.003 1490.8
v -22.3924 -50.7931 1490.78
v -22.3811 -50.4919 1490.96
v -22.4074 -50.3788 1491.17
v -22.2055 -51.0024 1490.92
v -22.0717 -51.0017 1491.15
v -22.071 -50.994 1491.35
v -22.1311 -50.7981 1490.97
v -22.041 -50.8089 1491.16
v -22.0517 -50.801 1491.35
v -22.1137 -50.6092 1491.15
v -22.1435 -50.5906 1491.37
v -22.1946 -50.9833 1491.56
v -22.1795 -50.7797 1491.57
v -35.5539 -57.8017 1498.35
v -35.5539 -57.8017 1498.35
v -35.5539 -57.8017 1498.35
v -35.5539 -57.8017 1498.35
v -35.3929 -57.9549 1498.35
v -35.3929 -57.9549 1498.35
v -35.3929 -57.8017 1498.11
v -35.3929 -57.8017 1498.5
v -35.3929 -57.8017 1498.5
v -35.3929 -57.8017 1498.5
v -35.3929 -57.6017 1498.29
v -35.3929 -57.6017 1498.29
v -35.3929 -57.6017 1498.39
v -35.3929 -57.6017 1498.39
v -35.3929 -57.6017 1498.39
v -34.9755 -57.8017 1497.93
v -34.4102 -57.8017 1497.71
v -34.1929 -58.0017 1497.72
v -33.8262 -58.0017 1497.55
v -33.9932 -57.8017 1497.54
v -33.7929 -58.0626 1497.75
v -33.7929 -58.0626 1497.75
v -33.7929 -57.6157 1497.75
v -33.8102 -57.8017 1497.95
v -35.1556 -57.8017 1498.44
v -34.9747 -57.9968 1498.15
v -34.5737 -57.8017 1498.23
v -34.3929 -58.0376 1497.95
v -34.3929 -58.0376 1497.95
v -34.1079 -58.0017 1497.95
v -35.1929 -57.6017 1498.14
v -35.1929 -57.6001 1498.35
v -34.7903 -57.6015 1498.15
v -34.7903 -57.6015 1498.15
v -34.4929 -57.6017 1497.95
v -33.5921 -58.0521 1497.56
v -33.5921 -58.0521 1497.56
v -33.5921 -58.0521 1497.56
v -33.5929 -58.0017 1497.79
v -33.5793 -57.8016 1497.37
v -33.5929 -57.6194 1497.55
v -33.5929 -57.6194 1497.55
v -33.3929 -58.0783 1497.55
v -33.042 -57.8 1497.15
v -33.1929 -57.8017 1497.72
v -32.9929 -58.0751 1497.35
v -32.9929 -58.0751 1497.35
v -32.9929 -58.0017 1497.58
v -32.7929 -58.0158 1497.15
v -32.5929 -58.0439 1497.35
v -32.5929 -58.0439 1497.35
v -32.4341 -57.7652 1496.91
v -32.3929 -58.0501 1497.15
v -32.3929 -58.0501 1497.15
v -32.3929 -58.0501 1497.15
v -32.1637 -57.8017 1497.35
v -32.5573 -57.5877 1497.11
v -31.3747 -57.8467 1496.94
v -30.7929 -57.4017 1496.26
v -31.9929 -57.522 1497.15
v -31.142 -57.2897 1496.55
v -31.142 -57.2897 1496.55
v -30.9929 -57.2477 1496.75
v -30.8631 -57.4199 1496.89
v -30.1612 -56.9679 1496.05
v -30.1612 -56.9679 1496.05
v -29.3929 -56.6017 1495.72
v -29.3696 -56.3146 1495.75
v -29.3989 -56.1817 1495.96
v -29.2299 -56.1563 1496.17
v -30.1929 -57.4439 1496.55
v -30.1929 -57.2017 1496.66
v -30.1929 -57.2017 1496.66
v -29.9929 -56.7064 1496.35
v -29.9929 -56.7064 1496.35
v -29.9929 -56.7064 1496.35
v -29.3929 -56.8329 1496.35
v -29.3929 -56.8329 1496.35
v -29.3929 -56.8329 1496.35
v -28.9779 -55.7489 1495.75
v -28.5929 -55.6017 1496.05
v -28.5929 -55.2617 1495.75
v -28.5929 -55.2617 1495.75
v -28.3929 -56.0017 1495.94
v -28.3565 -55.3289 1495.28
v -28.3565 -55.3289 1495.28
v -28.1929 -54.6896 1495.35
v -27.9931 -55.3742 1495.36
v -27.7236 -53.9121 1495.32
v -27.5184 -53.6454 1494.9
v -26.9929 -53.4017 1494.62
v -26.9929 -53.4017 1494.62
v -26.9929 -53.4017 1494.62
v -27.1929 -54.0017 1495.54
v -27.1929 -54.0017 1495.54
v -27.1929 -54.0017 1495.54
v -26.5643 -53.2238 1494.94
v -26.0764 -51.736 1493.87
v -26.6062 -52.4259 1495.08
v -26.1861 -52.2055 1494.89
v -25.8002 -51.0532 1494.41
v -24.4098 -50.8585 1492.79
v -24.4098 -50.8585 1492.79
v -25.1821 -50.3161 1493.74
v -25.0318 -50.8423 1493.97
v -24.7766 -50.0662 1493.33
v -22.5929 -51.3314 1491.35
v -22.8243 -50.9803 1490.91
v -22.6236 -50.7887 1490.79
v -23.8162 -50.6139 1492.86
v -23.6229 -50.916 1491.97
v -23.3929 -50.9376 1492.15
v -22.3924 -50.7931 1490.78
v -22.3924 -50.7931 1490.78
v -22.3811 -50.4919 1490.96
v -22.3811 -50.4919 1490.96
vn -0.628086 -0.660017 -0.412172
vn -0.481813 -0.74325 -0.46415
vn -0.413191 -0.742306 -0.527498
vn -0.552082 -0.580149 0.59886
vn -0.623761 0.531216 -0.573351
vn -0.626018 0.383379 0.67906
vn -0.312108 -0.674109 -0.669451
vn -0.334535 -0.609412 -0.718821
vn -0.426835 -0.49671 -0.755706
vn -0.195593 0.778495 -0.596397
vn -0.163148 -0.951 -0.262642
vn -0.356547 -0.399209 -0.844693
vn -0.162163 -0.974057 -0.157845
vn -0.173793 0.873216 -0.455292
vn 0.261882 -0.488463 0.832359
vn 0.217171 -0.714261 0.665334
vn -0.287603 -0.796614 -0.531687
vn -0.252273 -0.751718 -0.609326
vn 0.209362 -0.655419 0.725667
vn -0.294925 -0.784465 -0.545558
vn -0.0149636 -0.999873 0.00552456
vn -0.277078 0.620507 -0.73362
vn 0.26356 0.444454 0.856152
vn 0.365743 0.571123 0.734881
vn -0.253258 0.800304 -0.543484
vn -0.200965 -0.945886 -0.254779
vn 0.0910773 -0.956541 0.27701
vn -0.317571 -0.468206 -0.82458
vn -0.318792 0.706353 -0.63201
vn -0.16815 -0.885711 -0.432714
vn -0.268963 -0.684646 -0.677435
vn -0.314222 0.622538 -0.716736
vn 0.320021 -0.326613 0.889331
vn -0.296296 -0.701632 -0.648013
vn 0.126374 -0.931672 0.340613
vn -0.299603 -0.548744 -0.78046
vn -0.0047272 -0.990893 -0.134572
vn -0.207742 -0.535451 -0.818618
vn -0.0854938 -0.994853 -0.0543926
vn 0.369077 -0.586989 0.720573
vn -0.368981 0.5788 -0.727217
vn 0.20393 -0.964753 -0.166324
vn -0.044638 -0.74093 -0.670097
vn -0.445844 0.498561 -0.743411
vn 0.172049 0.608465 0.774706
vn -0.463043 0.476289 -0.747489
vn -0.267128 0.954018 0.135987
vn 0.0957899 0.572149 0.814537
vn -0.339699 -0.0418682 -0.939602
vn -0.0204563 -0.518122 -0.855062
vn 0.512472 -0.792179 -0.331397
vn -0.431587 0.0369474 -0.901314
vn -0.706372 0.53212 -0.466785
vn -0.713667 0.598602 -0.363806
vn -0.295568 0.576018 0.76213
vn 0.290108 -0.904661 -0.312131
vn 0.501479 -0.863354 0.0560249
vn 0.427677 -0.380429 0.819979
vn -0.600551 0.740623 -0.301358
vn 0.64546 -0.749609 0.146519
vn -0.721786 0.522198 -0.45424
vn -0.591422 0.663636 0.458046
vn -0.373456 0.526417 0.763817
vn -0.786917 0.421351 -0.450805
vn 0.772653 -0.634391 0.0235837
vn -0.52176 0.129522 -0.843203
vn -0.685964 0.595606 0.41798
vn -0.817296 0.26934 -0.509394
vn 0.469956 -0.605254 -0.642502
vn -0.873059 0.487202 -0.0200508
vn -0.570692 0.0192413 -0.820939
vn 0.160113 -0.419484 -0.893531
vn 0.393434 -0.0520246 0.91788
vn 0.852973 -0.407463 0.326208
vn -0.671104 0.0314588 -0.740695
vn -0.864503 0.461741 -0.198569
vn -0.606296 0.633677 0.480477
vn -0.47368 -0.153432 -0.867229
vn 0.770007 -0.634859 -0.0635844
vn 0.823038 -0.372867 0.428461
vn 0.420008 -0.685966 -0.594175
vn -0.358796 0.477828 0.801839
vn 0.343207 0.223223 0.912349
vn -0.786885 0.208472 -0.58082
vn 0.347702 0.327345 0.878606
vn 0.73761 -0.627726 0.248781
vn -0.713734 0.210854 -0.667925
vn -0.613591 0.661935 -0.430521
vn -0.574101 -0.344531 -0.742769
vn -0.316647 -0.721119 -0.616216
vn -0.307497 0.929538 -0.203484
vn -0.663342 -0.0936754 -0.74243
vn -0.586958 0.498719 -0.637778
vn -0.246204 -0.83102 -0.498789
vn -0.491536 -0.66 -0.568148
vn -0.619751 0.763903 0.179888
vn -0.730669 0.600466 -0.324906
vn -0.27349 -0.561208 -0.781184
vn 0.384597 -0.851503 -0.35641
vn 0.310207 0.54943 0.775821
vn -0.450587 0.892298 0.0278604
vn 0.751261 -0.351691 0.558499
vn -0.191152 0.967948 0.162903
vn 0.64568 -0.601905 0.469901
vn 0.663175 -0.117869 0.739125
vn 0.431038 0.535575 0.7262
vn -0.491093 -0.831234 -0.260535
vn -0.207638 -0.805964 -0.554354
vn -0.284756 -0.946786 -0.150031
vn -0.57456 0.253271 -0.77829
vn -0.44376 -0.511935 -0.735527
vn -0.356933 0.385597 -0.850831
vn -0.13211 0.702853 -0.698959
vn 0.240564 0.910121 0.337356
vn -0.652566 -0.438893 -0.617681
vn 0.644554 -0.212172 0.73453
vn 0.621372 0.315532 0.717173
vn -0.533753 -0.728509 -0.429397
vn -0.3107 0.785018 -0.535922
vn 0.0327966 0.993158 -0.112083
vn 0.306516 -0.71198 0.631769
vn 0.454281 0.832959 0.315925
vn 0.57777 -0.202348 0.790719
vn 0.14313 0.962802 -0.229186
vn 0.342951 -0.636446 0.690884
vn 0.497794 0.852203 0.161097
vn 0.661398 0.49097 0.567011
vn 0.324286 -0.727566 -0.604555
vn 0.25727 -0.954218 -0.152576
vn 0.66166 -0.705999 -0.252531
vn 0.594428 -0.742303 0.30926
vn 0.0681448 -0.364283 -0.928792
vn -0.0336398 -0.0808456 -0.996159
vn -0.0411576 0.514525 -0.856487
vn 0.392211 0.894383 -0.215057
vn 0.649356 -0.337274 -0.681603
vn 0.903456 -0.368229 -0.219489
vn 0.926378 -0.307487 0.217432
vn 0.776142 0.16227 -0.609321
vn 0.987265 0.0554775 -0.149097
vn 0.947334 0.134415 0.290674
vn 0.809504 0.550639 -0.203715
vn 0.749145 0.604281 0.271342
vn 0.695408 -0.323319 0.641773
vn 0.763952 0.171376 0.622099
vn -0.552082 -0.580149 0.59886
vn -0.74529 0.453142 -0.489085
vn -0.626018 0.383379 0.67906
vn -0.778939 0.6271 0
vn -0.552082 -0.580149 0.59886
vn 0.211017 -0.705967 0.676079
vn -0.536507 0.521455 -0.66351
vn -0.626018 0.383379 0.67906
vn 0.185884 -0.683671 0.705721
vn 0.190574 0.452465 0.871181
vn -0.778939 0.6271 0
vn 0 1 0
vn 0.149134 0.486134 0.861065
vn -0.778939 0.6271 0
vn -0.00456752 0.999983 -0.00370284
vn -0.232306 0.701622 -0.673618
vn -0.295456 0.673897 -0.677177
vn -0.0524755 -0.994744 -0.0879298
vn -0.286256 -0.452532 -0.844554
vn -0.254241 0.74851 -0.612449
vn 0.201927 -0.579212 0.789771
vn 0.248466 -0.947345 0.201997
vn 0.257484 0.786973 0.560692
vn 0.228023 0.717545 0.65813
vn 0.304565 0.480077 0.822658
vn 0.219932 -0.713897 0.664816
vn 0.304313 0.682525 0.664495
vn 0.124975 -0.991086 -0.0461409
vn 0.143349 -0.707366 0.692159
vn 0.26342 -0.581423 0.769778
vn -0.00310323 0.999983 -0.00493722
vn -0.00465481 0.999962 -0.00740579
vn -0.153748 0.791984 -0.590866
vn -0.000174663 0.999973 -0.00740587
vn 0.282906 0.717025 0.637056
vn 0.0628584 -0.976209 0.207521
vn -0.285683 -0.558527 -0.778738
vn -0.12301 -0.896846 -0.424894
vn 0.225027 -0.428238 0.8752
vn -0.278563 0.668022 -0.690035
vn 0.203898 0.868904 0.451033
vn -0.101058 0.981059 -0.165259
vn 0.0604991 -0.948815 0.309983
vn -0.335759 -0.490692 -0.804045
vn 0.249048 0.735253 0.63038
vn 0.116813 -0.944903 0.305797
vn 0.0761007 -0.974083 -0.213006
vn 0.330823 -0.421461 0.84435
vn -0.0047272 -0.990893 -0.134572
vn 0.0741254 -0.9488 0.307058
vn 0.394549 -0.699161 0.596243
vn -0.370177 0.569836 -0.73366
vn -0.119324 -0.657186 -0.744223
vn 0.35961 -0.763601 0.536278
vn 0.126685 -0.947798 -0.292625
vn 0.230439 0.469109 0.852546
vn -0.155359 0.9872 0.0360515
vn 0.379971 -0.48921 0.785045
vn -0.214669 -0.335547 -0.917238
vn -0.121157 0.989838 0.0744369
vn -0.466407 0.783274 -0.411032
vn -0.329381 0.943089 0.0457196
vn 0.0501872 0.638776 0.767754
vn 0.407279 -0.397443 0.822291
vn -0.515486 0.373591 -0.77117
vn -0.624039 0.693829 -0.359412
vn 0.231671 -0.552009 -0.801008
vn -0.478835 0.12864 -0.868429
vn -0.60891 0.737791 0.291366
vn -0.22758 0.581962 0.780722
vn 0.439527 -0.374138 0.816601
vn -0.0503972 0.545493 0.836599
vn 0.276161 0.194475 0.941231
vn -0.431584 0.892759 0.129295
vn -0.0379475 0.567739 0.822334
vn -0.50225 0.804658 0.316655
vn 0.104868 0.242197 0.964543
vn 0.410718 -0.041469 0.910819
vn 0.478757 -0.36569 0.798162
vn -0.725659 0.663813 0.18103
vn 0.402099 -0.0467495 0.914402
vn -0.761314 0.600402 0.244783
vn -0.558277 0.626242 0.544195
vn 0.402099 -0.0467495 0.914402
vn -0.736436 0.341323 -0.58409
vn 0.158079 -0.428392 -0.889658
vn -0.814591 0.574168 0.0822983
vn 0.641173 -0.533829 -0.551292
vn -0.416049 0.489123 0.766592
vn -0.878924 0.388918 -0.27611
vn -0.454501 -0.0624302 -0.888556
vn 0.630253 -0.587338 -0.507755
vn 0.208795 -0.492921 -0.84465
vn -0.27932 0.430573 0.858247
vn 0.837259 -0.364198 0.407869
vn 0.335481 0.146576 0.930574
vn 0.666315 -0.595428 -0.448876
vn 0.153183 -0.591855 -0.791355
vn 0.293656 0.225013 0.929051
vn 0.778924 -0.249182 0.575487
vn -0.327353 0.688415 0.647244
vn 0.440449 -0.866718 0.234105
vn -0.0845132 -0.996359 -0.0112418
vn -0.297214 0.863483 0.407505
vn 0.430962 0.339278 0.836159
vn 0.249023 0.768101 0.589922
vn 0.276613 -0.838784 0.468964
vn -0.623821 0.0260083 -0.781135
vn -0.146645 -0.191103 -0.970554
vn 0.358209 -0.827403 0.43254
vn -0.152175 -0.98558 0.073993
vn -0.244601 -0.967892 0.0579321
vn -0.0292231 0.52095 -0.853087
vn 0.544981 0.100433 -0.832412
vn 0.0782343 0.881769 -0.465149
vn 0.591764 0.577351 -0.562567
g grp1
usemtl mtl1
f 3//3 2//2 1//1 
f 150//150 4//4 146//146 
f 5//5 152//152 147//147 
f 153//153 6//6 148//148 
f 154//154 151//151 16//16 
f 152//152 5//5 22//22 
f 170//170 23//23 155//155 
f 23//23 158//158 155//155 
f 156//156 149//149 159//159 
f 157//157 160//160 176//176 
f 176//176 160//160 177//177 
f 7//7 8//8 18//18 
f 25//25 162//162 161//161 
f 18//18 8//8 20//20 
f 10//10 162//162 25//25 
f 8//8 9//9 20//20 
f 173//173 163//163 21//21 
f 9//9 8//8 12//12 
f 165//165 162//162 10//10 
f 163//163 11//11 13//13 
f 15//15 175//175 166//166 
f 13//13 21//21 163//163 
f 164//164 9//9 12//12 
f 11//11 26//26 13//13 
f 165//165 10//10 14//14 
f 169//169 168//168 180//180 
f 25//25 14//14 10//10 
f 181//181 27//27 167//167 
f 15//15 166//166 184//184 
f 182//182 164//164 28//28 
f 28//28 164//164 12//12 
f 29//29 185//185 165//165 
f 29//29 165//165 14//14 
f 3//3 7//7 17//17 
f 3//3 17//17 2//2 
f 151//151 171//171 16//16 
f 152//152 22//22 161//161 
f 170//170 24//24 23//23 
f 18//18 17//17 7//7 
f 161//161 178//178 25//25 
f 20//20 17//17 18//18 
f 171//171 174//174 19//19 
f 16//16 171//171 19//19 
f 24//24 170//170 172//172 
f 180//180 24//24 172//172 
f 19//19 174//174 175//175 
f 175//175 15//15 19//19 
f 169//169 180//180 172//172 
f 179//179 176//176 177//177 
f 178//178 161//161 22//22 
f 183//183 31//31 30//30 
f 188//188 27//27 181//181 
f 31//31 182//182 28//28 
f 184//184 33//33 15//15 
f 32//32 185//185 29//29 
f 186//186 168//168 190//190 
f 190//190 168//168 169//169 
f 189//189 34//34 31//31 
f 31//31 34//34 30//30 
f 188//188 191//191 35//35 
f 188//188 35//35 27//27 
f 31//31 28//28 189//189 
f 193//193 33//33 184//184 
f 189//189 36//36 34//34 
f 192//192 194//194 37//37 
f 195//195 35//35 191//191 
f 39//39 37//37 194//194 
f 198//198 36//36 38//38 
f 38//38 36//36 189//189 
f 193//193 196//196 40//40 
f 193//193 40//40 33//33 
f 32//32 41//41 197//197 
f 32//32 29//29 41//41 
f 201//201 45//45 190//190 
f 199//199 40//40 196//196 
f 43//43 198//198 38//38 
f 45//45 186//186 190//190 
f 202//202 187//187 205//205 
f 43//43 50//50 56//56 
f 42//42 43//43 56//56 
f 197//197 41//41 44//44 
f 38//38 204//204 43//43 
f 40//40 199//199 203//203 
f 200//200 43//43 42//42 
f 50//50 43//43 204//204 
f 50//50 204//204 49//49 
f 210//210 44//44 46//46 
f 59//59 211//211 206//206 
f 202//202 205//205 47//47 
f 44//44 41//41 46//46 
f 48//48 45//45 201//201 
f 207//207 202//202 47//47 
f 48//48 208//208 45//45 
f 203//203 209//209 40//40 
f 219//219 207//207 47//47 
f 48//48 220//220 208//208 
f 56//56 57//57 42//42 
f 56//56 50//50 51//51 
f 50//50 49//49 52//52 
f 50//50 212//212 51//51 
f 51//51 60//60 57//57 
f 53//53 211//211 54//54 
f 213//213 52//52 49//49 
f 211//211 59//59 54//54 
f 213//213 66//66 52//52 
f 230//230 53//53 61//61 
f 61//61 53//53 54//54 
f 214//214 221//221 55//55 
f 51//51 65//65 60//60 
f 51//51 212//212 69//69 
f 69//69 212//212 231//231 
f 222//222 63//63 55//55 
f 51//51 69//69 65//65 
f 229//229 226//226 223//223 
f 58//58 209//209 203//203 
f 217//217 220//220 48//48 
f 57//57 56//56 51//51 
f 216//216 58//58 203//203 
f 217//217 215//215 220//220 
f 216//216 224//224 58//58 
f 222//222 55//55 218//218 
f 225//225 214//214 62//62 
f 214//214 55//55 62//62 
f 62//62 55//55 63//63 
f 229//229 73//73 226//226 
f 230//230 61//61 64//64 
f 225//225 62//62 227//227 
f 228//228 62//62 63//63 
f 64//64 68//68 230//230 
f 228//228 67//67 232//232 
f 67//67 228//228 63//63 
f 232//232 67//67 70//70 
f 68//68 71//71 230//230 
f 234//234 67//67 63//63 
f 235//235 232//232 70//70 
f 74//74 65//65 69//69 
f 69//69 231//231 72//72 
f 236//236 230//230 71//71 
f 239//239 234//234 63//63 
f 234//234 239//239 82//82 
f 236//236 71//71 78//78 
f 242//242 233//233 237//237 
f 81//81 242//242 237//237 
f 65//65 74//74 240//240 
f 83//83 244//244 241//241 
f 240//240 74//74 245//245 
f 76//76 235//235 70//70 
f 76//76 70//70 77//77 
f 75//75 78//78 71//71 
f 76//76 75//75 235//235 
f 81//81 238//238 243//243 
f 77//77 96//96 76//76 
f 242//242 81//81 79//79 
f 74//74 79//79 80//80 
f 80//80 102//102 245//245 
f 81//81 243//243 98//98 
f 98//98 78//78 75//75 
f 234//234 82//82 77//77 
f 74//74 80//80 245//245 
f 84//84 75//75 76//76 
f 96//96 84//84 76//76 
f 84//84 98//98 75//75 
f 83//83 85//85 244//244 
f 246//246 77//77 82//82 
f 96//96 77//77 246//246 
f 250//250 85//85 83//83 
f 250//250 100//100 85//85 
f 96//96 97//97 84//84 
f 80//80 79//79 86//86 
f 81//81 99//99 79//79 
f 102//102 80//80 86//86 
f 81//81 98//98 99//99 
f 79//79 99//99 86//86 
f 87//87 89//89 84//84 
f 98//98 84//84 89//89 
f 98//98 90//90 94//94 
f 90//90 98//98 89//89 
f 87//87 92//92 89//89 
f 93//93 92//92 87//87 
f 87//87 88//88 93//93 
f 103//103 91//91 101//101 
f 91//91 88//88 101//101 
f 90//90 89//89 95//95 
f 92//92 95//95 89//89 
f 93//93 88//88 91//91 
f 94//94 90//90 95//95 
f 103//103 114//114 91//91 
f 106//106 114//114 251//251 
f 95//95 92//92 115//115 
f 117//117 114//114 106//106 
f 120//120 91//91 114//114 
f 84//84 97//97 87//87 
f 96//96 246//246 249//249 
f 98//98 94//94 99//99 
f 88//88 97//97 101//101 
f 88//88 87//87 97//97 
f 96//96 101//101 97//97 
f 96//96 249//249 101//101 
f 106//106 100//100 250//250 
f 103//103 101//101 249//249 
f 86//86 99//99 247//247 
f 104//104 86//86 247//247 
f 86//86 104//104 102//102 
f 105//105 106//106 250//250 
f 105//105 102//102 104//104 
f 106//106 251//251 100//100 
f 116//116 105//105 104//104 
f 106//106 105//105 117//117 
f 255//255 104//104 247//247 
f 105//105 116//116 117//117 
f 111//111 107//107 115//115 
f 132//132 108//108 111//111 
f 111//111 108//108 107//107 
f 108//108 109//109 107//107 
f 108//108 132//132 128//128 
f 128//128 129//129 108//108 
f 129//129 109//109 108//108 
f 121//121 252//252 125//125 
f 110//110 253//253 115//115 
f 110//110 112//112 253//253 
f 113//113 112//112 110//110 
f 113//113 110//110 119//119 
f 113//113 119//119 124//124 
f 132//132 111//111 254//254 
f 113//113 124//124 135//135 
f 126//126 135//135 124//124 
f 133//133 132//132 254//254 
f 112//112 113//113 258//258 
f 113//113 134//134 258//258 
f 260//260 113//113 135//135 
f 118//118 94//94 95//95 
f 95//95 115//115 118//118 
f 255//255 247//247 121//121 
f 92//92 110//110 115//115 
f 92//92 93//93 110//110 
f 91//91 119//119 93//93 
f 119//119 91//91 120//120 
f 118//118 115//115 107//107 
f 107//107 257//257 256//256 
f 256//256 257//257 248//248 
f 255//255 121//121 123//123 
f 110//110 93//93 119//119 
f 124//124 119//119 120//120 
f 117//117 122//122 114//114 
f 122//122 120//120 114//114 
f 123//123 121//121 125//125 
f 116//116 123//123 117//117 
f 124//124 120//120 122//122 
f 257//257 107//107 109//109 
f 123//123 127//127 117//117 
f 127//127 122//122 117//117 
f 122//122 126//126 124//124 
f 127//127 126//126 122//122 
f 128//128 130//130 129//129 
f 130//130 131//131 129//129 
f 129//129 131//131 252//252 
f 125//125 252//252 131//131 
f 136//136 128//128 132//132 
f 136//136 132//132 259//259 
f 128//128 136//136 130//130 
f 130//130 136//136 137//137 
f 130//130 137//137 131//131 
f 131//131 137//137 138//138 
f 125//125 131//131 144//144 
f 144//144 131//131 138//138 
f 259//259 139//139 136//136 
f 136//136 139//139 137//137 
f 137//137 139//139 140//140 
f 137//137 140//140 138//138 
f 138//138 140//140 141//141 
f 138//138 141//141 144//144 
f 144//144 141//141 145//145 
f 139//139 259//259 261//261 
f 261//261 142//142 139//139 
f 139//139 142//142 140//140 
f 140//140 142//142 141//141 
f 141//141 142//142 143//143 
f 127//127 145//145 143//143 
f 143//143 145//145 141//141 
f 142//142 261//261 135//135 
f 143//143 142//142 135//135 
f 126//126 143//143 135//135 
f 143//143 126//126 127//127 
f 144//144 145//145 123//123 
f 125//125 144//144 123//123 
f 145//145 127//127 123//123 
