#
# The license for this database is specified in the Creative Commons Attribution-Share Alike 2.1 Japan. If you use data from this database, please be sure attribute this database as follows: "BodyParts3D, (c)  The Database Center for Life Science licensed under CC Attribution-Share Alike 2.1 Japan".
# http://dbarchive.biosciencedbc.jp/en/bodyparts3d/lic.html
#
#
# Compatibility version : 4.0
# File ID : FJ3565
# Representation ID : BP10391
# Build-up logic : FMA 3.0 part_of
# Concept ID : FMA14765
# English name : Right common iliac artery
# Bounds(mm): (-37.502900,-130.066000,903.462000)-(10.176700,-105.044000,964.665000)
# Volume(cm3): 4.898900
#
v -36.0097 -112.528 909.536
v -36.6736 -110.697 911.1
v -34.3797 -110.101 914.153
v -37.0827 -108.339 909.582
v -36.4851 -108.216 910.589
v -33.865 -107.301 911.724
v -37.5029 -109.864 908.508
v -36.8568 -110.224 906.587
v -34.2623 -112.515 907.22
v -34.8378 -109.943 904.653
v -31.0631 -110.933 905.516
v -37.262 -108.229 907.399
v -36.8258 -108.649 905.905
v -36.4852 -107.077 906.335
v -35.8576 -107.521 904.879
v -36.4854 -107.17 909.101
v -35.0234 -105.947 905.379
v -34.9644 -105.693 907.633
v -33.7644 -105.222 905.771
v -31.9468 -108.854 903.714
v -33.9414 -107.474 903.652
v -34.2736 -106.756 903.945
v -33.3614 -105.69 904.433
v -32.4905 -106.945 903.462
v -32.8495 -106.268 903.731
v -32.125 -105.366 904.74
v -27.5783 -118.539 918.3
v -30.6165 -116.008 918.978
v -29.823 -114.866 920.938
v -28.1157 -107.441 906.09
v -28.3158 -106.561 907.311
v -32.9243 -105.941 909.801
v -32.0934 -105.044 907.048
v -31.6112 -105.098 905.673
v -30.1559 -105.848 908.701
v -30.3139 -105.37 906.653
v -30.2554 -107.484 903.947
v -28.6612 -109.263 905.54
v -31.6004 -105.918 904.053
v -30.4623 -105.612 905.137
v -26.3108 -114.177 924.248
v -24.8678 -118.577 916.692
v -24.1946 -111.879 921.916
v -20.7414 -113.733 915.076
v -20.8115 -120.548 932.545
v -18.9809 -122.757 932.736
v -18.8837 -115.31 931.428
v -16.9697 -123.078 927.103
v -19.6089 -112.933 918.442
v -14.2971 -121.21 924.658
v -14.6696 -116.169 923.16
v -15.4005 -114.532 925.418
v -13.3107 -120.648 941.253
v -11.5629 -123.061 943.968
v -9.3969 -118.478 940.962
v -3.66316 -127.352 952.966
v -6.82664 -124.455 950.076
v -6.2657 -121.983 949.822
v -5.48817 -119.917 946.961
v -3.08859 -123.837 937.776
v -5.78376 -118.526 934.519
v -4.51166 -120.468 934.824
v -0.992892 -124.885 961.422
v 0.959837 -128.222 961.751
v 1.12485 -129.312 951.707
v -3.53558 -125.228 955.179
v -2.83217 -122.892 956.091
v -2.008 -120.88 954.932
v 2.71888 -128.394 949.635
v 1.73234 -119.658 947.436
v -2.16516 -119.344 940.702
v 0.0736019 -120.704 941.64
v 2.40885 -120.969 945.204
v -0.0285179 -124.74 963.487
v 1.46587 -125.64 964.365
v 1.61531 -124.057 964.534
v 3.28657 -126.465 964.221
v 2.72438 -125.099 964.665
v 3.01492 -123.549 964.578
v 4.13998 -124.697 964.442
v 0.153121 -123.011 963.193
v 2.65015 -122.239 964.14
v 2.7454 -129.954 956.863
v 2.42622 -129.632 959.596
v 5.05088 -130.066 960.227
v 4.92016 -129.154 961.942
v 6.20252 -130.017 957.553
v 7.00879 -129.405 960.362
v 7.53407 -129.555 958.963
v 7.173 -128.465 961.443
v 6.06576 -126.714 963.194
v 0.571037 -120.887 961.097
v 2.49791 -120.444 962.57
v 4.16634 -120.906 963.099
v 7.77753 -129.311 957.317
v 2.88822 -118.925 957.885
v 5.37293 -119.004 954.852
v 6.64703 -119.97 953.446
v 6.40109 -123.27 950.141
v 5.41842 -123.341 963.768
v 8.33949 -128.528 960.034
v 9.01766 -126.976 960.495
v 9.131 -124.045 960.993
v 8.26775 -120.692 960.018
v 8.65946 -126.969 954.738
v 9.40219 -127.85 958.241
v 10.1335 -125.4 956.549
v 10.1767 -125.656 958.834
v 8.53974 -120.25 957.068
v 9.12236 -122.053 955.175
v 10.0682 -122.777 958.465
v 6.00947 -118.956 958.97
v -36.8258 -108.649 905.905
v -20.7414 -113.733 915.076
v -19.6089 -112.933 918.442
v -14.6696 -116.169 923.16
v -0.0285179 -124.74 963.487
vn -0.718794 -0.691923 -0.0676587
vn -0.895607 -0.113664 0.430079
vn -0.674166 0.372912 0.637524
vn -0.911687 0.297008 0.283923
vn -0.704262 0.466154 0.535459
vn -0.366721 0.761724 0.534128
vn -0.985056 -0.171709 0.0134465
vn -0.788177 -0.43104 -0.439297
vn -0.264965 -0.820171 -0.507062
vn -0.373619 -0.454881 -0.808388
vn 0.197611 -0.676175 -0.709745
vn -0.961985 0.243922 -0.122825
vn -0.624153 -0.239537 -0.743677
vn -0.800289 0.555794 -0.225012
vn -0.680409 0.197005 -0.705856
vn -0.694247 0.673747 0.253152
vn -0.56389 0.728126 -0.389692
vn -0.430753 0.887507 0.163657
vn -0.225027 0.957897 -0.178317
vn 0.125959 -0.364509 -0.922642
vn -0.30987 0.00304735 -0.950774
vn -0.44692 0.447428 -0.774642
vn -0.269428 0.778367 -0.567057
vn 0.0599071 0.155804 -0.98597
vn -0.128418 0.534792 -0.835168
vn 0.0278705 0.879528 -0.47503
vn -0.405012 -0.904802 -0.131521
vn -0.772622 -0.552604 0.312543
vn -0.790602 0.0539077 0.609953
vn 0.765011 0.366818 -0.529342
vn 0.604096 0.789657 -0.107284
vn -0.0902931 0.916437 0.389859
vn 0.0154815 0.988299 0.151739
vn 0.125484 0.977172 -0.171433
vn 0.29407 0.923234 0.247311
vn 0.358605 0.93346 0.00734571
vn 0.493089 0.147045 -0.857462
vn 0.575781 -0.319241 -0.752702
vn 0.232753 0.593705 -0.770286
vn 0.472078 0.765046 -0.438003
vn -0.501815 0.599158 0.623852
vn 0.0309925 -0.871454 -0.489497
vn 0.0425983 0.939381 0.340218
vn 0.734275 -0.163847 -0.658782
vn -0.801544 -0.231654 0.551239
vn -0.512145 -0.847452 0.139764
vn -0.323309 0.785311 0.527975
vn -0.0494471 -0.958668 -0.280198
vn 0.369786 0.917125 0.148793
vn 0.521693 -0.560536 -0.643145
vn 0.706404 0.601149 -0.373648
vn 0.490643 0.860652 -0.136193
vn -0.647226 0.415434 0.639151
vn -0.788251 -0.0496232 0.613349
vn -0.156433 0.922287 0.353434
vn -0.757614 -0.505562 0.41283
vn -0.822081 -0.0132353 0.569217
vn -0.644245 0.579511 0.499114
vn -0.292358 0.929954 0.222961
vn 0.676238 -0.43758 -0.592643
vn 0.665819 0.651657 -0.363358
vn 0.791728 0.0765749 -0.606055
vn -0.906276 -0.124573 0.403912
vn -0.526156 -0.675122 0.517078
vn -0.0505848 -0.985144 -0.164112
vn -0.881838 -0.149827 0.447117
vn -0.846306 0.316919 0.428169
vn -0.625976 0.702656 0.338274
vn 0.355647 -0.839038 -0.411739
vn 0.25408 0.958794 -0.127112
vn 0.412206 0.903997 -0.113474
vn 0.73669 0.515622 -0.437519
vn 0.684217 0.598749 -0.416349
vn -0.729393 -0.459569 0.506736
vn -0.359496 -0.343222 0.867734
vn -0.334072 0.145028 0.931323
vn 0.0446467 -0.477767 0.877351
vn 0.00633192 -0.112709 0.993608
vn 0.108158 0.190462 0.975718
vn 0.302517 -0.0665633 0.950817
vn -0.695039 0.402774 0.595563
vn -0.09228 0.472398 0.876541
vn -0.173138 -0.984888 -0.00422645
vn -0.362644 -0.897955 0.249331
vn 0.0608887 -0.972989 0.222675
vn 0.0788578 -0.772123 0.630561
vn 0.19891 -0.97172 -0.127257
vn 0.417753 -0.805456 0.420385
vn 0.495614 -0.861155 0.113043
vn 0.522671 -0.560635 0.642264
vn 0.486311 -0.279425 0.827903
vn -0.622134 0.703567 0.343427
vn -0.255504 0.808829 0.529635
vn 0.248825 0.665256 0.703932
vn 0.556479 -0.794625 -0.242698
vn -0.258111 0.950673 0.172042
vn 0.205647 0.972026 -0.113465
vn 0.571817 0.755284 -0.320267
vn 0.833755 0.0442832 -0.550356
vn 0.451345 0.249502 0.856759
vn 0.683627 -0.625447 0.376126
vn 0.775345 -0.326248 0.540743
vn 0.773018 0.0871153 0.628374
vn 0.642297 0.590496 0.488641
vn 0.744485 -0.48013 -0.463914
vn 0.835322 -0.549552 0.0151627
vn 0.952601 -0.112171 -0.282787
vn 0.960983 -0.14796 0.23371
vn 0.672304 0.736813 -0.0715057
vn 0.855139 0.362217 -0.370858
vn 0.948654 0.297001 0.108837
vn 0.23466 0.941541 0.241734
vn -0.917884 0.170729 -0.358247
vn 0.780529 0.495947 -0.38054
vn 0.760508 0.560385 -0.328019
vn 0.7468 -0.138055 -0.650562
vn -0.695771 0.11025 0.709752
g grp1
usemtl mtl1
f 1//1 2//2 7//7 
f 28//28 29//29 2//2 
f 1//1 28//28 2//2 
f 2//2 4//4 7//7 
f 3//3 2//2 29//29 
f 41//41 6//6 3//3 
f 3//3 5//5 2//2 
f 5//5 4//4 2//2 
f 4//4 5//5 16//16 
f 6//6 5//5 3//3 
f 16//16 5//5 6//6 
f 16//16 6//6 18//18 
f 1//1 7//7 8//8 
f 9//9 8//8 10//10 
f 8//8 13//13 10//10 
f 27//27 1//1 9//9 
f 1//1 8//8 9//9 
f 20//20 10//10 21//21 
f 9//9 42//42 27//27 
f 42//42 9//9 11//11 
f 11//11 9//9 10//10 
f 20//20 11//11 10//10 
f 50//50 42//42 11//11 
f 7//7 12//12 8//8 
f 12//12 113//113 8//8 
f 13//13 15//15 10//10 
f 4//4 12//12 7//7 
f 12//12 14//14 113//113 
f 15//15 113//113 14//14 
f 14//14 17//17 15//15 
f 16//16 14//14 12//12 
f 4//4 16//16 12//12 
f 15//15 21//21 10//10 
f 22//22 21//21 15//15 
f 15//15 17//17 22//22 
f 18//18 14//14 16//16 
f 17//17 14//14 18//18 
f 23//23 22//22 17//17 
f 22//22 23//23 25//25 
f 32//32 18//18 6//6 
f 32//32 33//33 18//18 
f 19//19 17//17 18//18 
f 19//19 23//23 17//17 
f 33//33 19//19 18//18 
f 34//34 19//19 33//33 
f 34//34 26//26 19//19 
f 24//24 20//20 21//21 
f 38//38 50//50 11//11 
f 38//38 11//11 20//20 
f 38//38 20//20 37//37 
f 20//20 24//24 37//37 
f 24//24 21//21 25//25 
f 21//21 22//22 25//25 
f 26//26 25//25 23//23 
f 26//26 23//23 19//19 
f 39//39 24//24 25//25 
f 26//26 39//39 25//25 
f 28//28 45//45 29//29 
f 1//1 27//27 28//28 
f 3//3 29//29 41//41 
f 6//6 43//43 32//32 
f 44//44 38//38 30//30 
f 30//30 40//40 31//31 
f 49//49 31//31 35//35 
f 30//30 115//115 114//114 
f 31//31 115//115 30//30 
f 26//26 34//34 40//40 
f 36//36 40//40 34//34 
f 33//33 36//36 34//34 
f 32//32 35//35 33//33 
f 33//33 35//35 36//36 
f 31//31 40//40 36//36 
f 35//35 32//32 43//43 
f 35//35 31//31 36//36 
f 39//39 37//37 24//24 
f 37//37 30//30 38//38 
f 40//40 30//30 37//37 
f 39//39 40//40 37//37 
f 39//39 26//26 40//40 
f 46//46 45//45 28//28 
f 27//27 46//46 28//28 
f 46//46 27//27 48//48 
f 27//27 42//42 48//48 
f 42//42 50//50 48//48 
f 43//43 6//6 41//41 
f 43//43 49//49 35//35 
f 56//56 54//54 45//45 
f 45//45 53//53 29//29 
f 46//46 56//56 45//45 
f 53//53 41//41 29//29 
f 41//41 53//53 47//47 
f 43//43 41//41 47//47 
f 44//44 50//50 38//38 
f 52//52 51//51 115//115 
f 44//44 116//116 50//50 
f 115//115 51//51 114//114 
f 52//52 49//49 43//43 
f 54//54 53//53 45//45 
f 50//50 69//69 48//48 
f 55//55 47//47 53//53 
f 69//69 50//50 60//60 
f 62//62 60//60 50//50 
f 116//116 62//62 50//50 
f 71//71 52//52 43//43 
f 55//55 71//71 43//43 
f 55//55 43//43 47//47 
f 57//57 54//54 56//56 
f 54//54 57//57 53//53 
f 58//58 55//55 53//53 
f 58//58 53//53 57//57 
f 61//61 52//52 71//71 
f 51//51 61//61 62//62 
f 51//51 52//52 61//61 
f 56//56 66//66 57//57 
f 57//57 67//67 58//58 
f 68//68 58//58 67//67 
f 58//58 59//59 55//55 
f 59//59 58//58 68//68 
f 62//62 99//99 60//60 
f 61//61 72//72 62//62 
f 70//70 71//71 55//55 
f 61//61 71//71 72//72 
f 64//64 74//74 63//63 
f 63//63 117//117 81//81 
f 84//84 46//46 83//83 
f 83//83 46//46 65//65 
f 64//64 56//56 84//84 
f 66//66 56//56 63//63 
f 63//63 67//67 66//66 
f 56//56 64//64 63//63 
f 63//63 81//81 67//67 
f 67//67 92//92 68//68 
f 81//81 92//92 67//67 
f 65//65 46//46 48//48 
f 65//65 48//48 69//69 
f 56//56 46//46 84//84 
f 66//66 67//67 57//57 
f 96//96 59//59 68//68 
f 99//99 105//105 60//60 
f 73//73 110//110 99//99 
f 59//59 70//70 55//55 
f 62//62 72//72 99//99 
f 73//73 71//71 70//70 
f 73//73 72//72 71//71 
f 72//72 73//73 99//99 
f 64//64 84//84 86//86 
f 64//64 75//75 74//74 
f 76//76 117//117 75//75 
f 81//81 117//117 76//76 
f 82//82 81//81 76//76 
f 77//77 75//75 64//64 
f 77//77 78//78 75//75 
f 78//78 76//76 75//75 
f 64//64 86//86 77//77 
f 78//78 79//79 76//76 
f 76//76 79//79 82//82 
f 80//80 78//78 77//77 
f 79//79 78//78 80//80 
f 100//100 79//79 80//80 
f 79//79 100//100 82//82 
f 100//100 94//94 82//82 
f 80//80 77//77 91//91 
f 91//91 100//100 80//80 
f 81//81 82//82 93//93 
f 92//92 81//81 93//93 
f 82//82 94//94 93//93 
f 85//85 84//84 83//83 
f 84//84 85//85 86//86 
f 85//85 83//83 87//87 
f 86//86 85//85 88//88 
f 90//90 86//86 88//88 
f 91//91 86//86 90//90 
f 88//88 85//85 89//89 
f 89//89 87//87 95//95 
f 85//85 87//87 89//89 
f 87//87 69//69 95//95 
f 101//101 90//90 88//88 
f 88//88 89//89 101//101 
f 101//101 89//89 106//106 
f 106//106 89//89 95//95 
f 86//86 91//91 77//77 
f 104//104 94//94 100//100 
f 92//92 96//96 68//68 
f 92//92 93//93 96//96 
f 94//94 112//112 93//93 
f 93//93 112//112 96//96 
f 87//87 83//83 65//65 
f 69//69 87//87 65//65 
f 69//69 105//105 95//95 
f 60//60 105//105 69//69 
f 99//99 107//107 105//105 
f 107//107 99//99 110//110 
f 97//97 59//59 96//96 
f 98//98 97//97 109//109 
f 97//97 70//70 59//59 
f 98//98 110//110 73//73 
f 98//98 73//73 70//70 
f 98//98 70//70 97//97 
f 101//101 102//102 90//90 
f 101//101 106//106 102//102 
f 90//90 102//102 91//91 
f 108//108 102//102 106//106 
f 106//106 107//107 108//108 
f 112//112 94//94 104//104 
f 100//100 91//91 103//103 
f 102//102 103//103 91//91 
f 100//100 103//103 104//104 
f 103//103 102//102 108//108 
f 111//111 103//103 108//108 
f 104//104 103//103 111//111 
f 104//104 109//109 112//112 
f 95//95 105//105 106//106 
f 106//106 105//105 107//107 
f 108//108 107//107 111//111 
f 107//107 110//110 111//111 
f 110//110 109//109 111//111 
f 111//111 109//109 104//104 
f 97//97 96//96 112//112 
f 98//98 109//109 110//110 
f 109//109 97//97 112//112 
