# Blender v2.77 (sub 0) OBJ File: 'BLANKOblend.blend'
# www.blender.org
mtllib right posterior circumflex humeral artery2.mtl
o grp1
v -140.292664 -87.338470 1292.333740
v -140.399414 -87.633179 1292.736328
v -140.104431 -86.946404 1292.813232
v -140.253906 -86.501846 1292.570190
v -140.238037 -86.592728 1293.054199
v -140.281738 -86.769012 1292.203125
v -141.597656 -85.472870 1291.876953
v -140.534668 -87.029877 1291.948730
v -140.390381 -87.315643 1293.348145
v -140.781616 -87.837509 1293.071899
v -140.916992 -87.510956 1293.605225
v -140.529297 -86.771271 1293.550781
v -142.227997 -84.740715 1292.719971
v -140.992432 -86.950897 1293.748047
v -142.531250 -84.883026 1293.042969
v -141.032486 -87.835907 1292.322998
v -140.857422 -87.284393 1291.868408
v -142.841797 -83.923553 1292.262207
v -141.292175 -87.879852 1293.223877
v -141.251007 -87.932716 1292.790039
v -141.908722 -87.690292 1292.827393
v -141.703125 -87.084442 1293.674072
v -141.503662 -87.535858 1293.573242
v -141.246948 -87.355682 1291.850098
v -142.765625 -84.375214 1291.429688
v -143.128006 -83.550011 1291.829956
v -141.604858 -87.809113 1292.479248
v -143.449219 -85.863495 1291.732422
v -141.797729 -87.643036 1293.260254
v -144.187500 -83.625214 1292.843750
v -143.203125 -85.906464 1293.136719
v -146.187500 -79.672089 1291.072266
v -144.733002 -84.001213 1291.069946
v -143.718750 -85.711151 1292.787109
v -144.607422 -84.785370 1291.789062
v -146.729996 -79.404114 1290.329956
v -146.750000 -80.250214 1290.093750
v -146.509003 -81.473915 1290.349976
v -147.412003 -80.344215 1291.849976
v -148.490753 -77.927490 1291.372437
v -148.859375 -76.750214 1290.773438
v -152.175781 -75.316620 1289.160645
v -147.781250 -80.750214 1291.421875
v -152.242188 -74.968964 1288.900391
v -151.734375 -75.109589 1290.656250
v -152.554688 -73.648651 1288.603516
v -150.484375 -75.273651 1289.218750
v -150.396484 -74.885956 1289.744141
v -151.468750 -76.304901 1290.285156
v -150.445999 -75.216713 1290.550049
v -151.592773 -73.761932 1289.889648
v -151.885742 -75.969940 1289.658203
v -152.734375 -73.164276 1290.140625
v -153.656250 -73.000214 1290.203125
v -151.910156 -75.441620 1290.478516
v -152.453125 -73.183807 1288.889648
v -152.332993 -73.130013 1289.229980
v -152.235992 -73.592613 1288.829956
v -155.058594 -70.925995 1289.055664
v -156.548996 -70.146362 1289.300049
v -156.843750 -70.656464 1287.828125
v -156.637695 -69.884979 1288.301270
v -153.341797 -74.557098 1289.423340
v -153.552734 -74.325409 1289.673828
v -156.648438 -71.822479 1288.515625
v -155.062500 -72.640839 1289.816406
v -156.080994 -70.631912 1288.099976
v -156.615005 -69.974510 1288.229980
v -157.500000 -71.199432 1289.080078
v -159.390625 -68.867401 1289.207031
v -158.488998 -70.078110 1287.790039
v -158.537109 -68.470917 1288.369385
v -159.443359 -68.013885 1288.710449
v -158.710938 -68.847862 1287.701172
v -159.627197 -69.789032 1288.395386
v -157.003998 -71.293617 1289.410034
v -160.167969 -69.361542 1288.697266
v -160.464844 -67.455284 1287.751953
v -162.188004 -67.782204 1287.439941
v -161.351562 -67.679893 1287.313965
v -159.981003 -69.036514 1289.069946
v -163.230713 -66.159882 1288.695068
v -161.236328 -68.629120 1287.800781
v -161.209717 -66.864960 1288.096802
v -161.855469 -66.936729 1287.444336
v -163.744141 -65.680878 1288.410645
v -162.632812 -66.758026 1288.855957
v -163.712891 -66.673065 1288.823975
v -163.271973 -67.606415 1287.928589
v -164.767578 -65.136078 1287.810303
v -162.921875 -67.517792 1288.662109
v -163.561523 -67.426483 1288.298584
v -167.531250 -65.155479 1287.287598
v -163.675781 -65.819298 1287.526855
v -164.950684 -65.696007 1287.224121
v -166.487793 -65.947968 1288.514648
v -165.702515 -64.770264 1288.165771
v -168.882812 -64.092987 1288.822266
v -166.221436 -64.769737 1287.470215
v -166.199997 -65.445412 1288.810059
v -167.777344 -64.584190 1287.355957
v -167.781006 -65.391006 1287.479980
v -165.718750 -66.471405 1287.930664
v -168.048340 -65.550995 1288.348877
v -169.120117 -65.232742 1287.886353
v -168.736572 -63.788296 1288.162109
v -169.685547 -63.816616 1287.708008
v -168.820312 -64.778534 1288.934082
v -170.787109 -63.468960 1288.133789
v -170.382996 -65.027313 1288.430054
v -170.300781 -64.713104 1288.966797
v -171.937500 -64.433807 1287.917969
v -171.612305 -63.358669 1288.789062
v -171.332031 -64.157928 1289.242188
v -170.515625 -64.246300 1287.585938
v -172.281250 -63.614956 1287.998047
v -172.721680 -64.669891 1289.048096
v -172.577148 -64.755493 1288.644775
v -172.434006 -64.655914 1288.260010
v -173.640625 -63.927944 1289.679688
v -173.156250 -63.545132 1289.425781
v -175.216003 -64.468910 1288.699951
v -174.162109 -63.344814 1288.699219
v -174.203125 -64.395721 1289.720703
v -175.085938 -63.463589 1289.651367
v -174.390625 -63.836147 1288.386719
v -174.864014 -63.351696 1289.210938
v -175.433594 -64.776093 1289.057617
v -175.361816 -64.856598 1289.432373
v -175.484375 -64.672455 1289.972656
v -176.560547 -64.972626 1290.149414
v -177.979492 -63.938198 1290.081055
v -177.359375 -64.539276 1290.769531
v -177.031250 -64.336151 1289.152344
v -177.078125 -63.947475 1289.335938
v -177.953125 -65.117401 1290.857422
v -177.490234 -63.855190 1290.215820
v -178.625000 -64.406464 1291.031250
v -178.722656 -65.587128 1290.295898
v -179.437500 -65.570526 1290.265625
v -179.968750 -65.187714 1290.281250
v -179.835938 -64.718964 1290.464844
v -180.390625 -64.791229 1291.285156
v -179.987000 -65.602310 1291.770020
v -182.546875 -65.836151 1292.500000
v -181.281250 -65.812714 1292.312500
v -180.539062 -66.298553 1291.204102
v -181.671875 -66.763885 1292.167969
v -182.625000 -66.406464 1291.531250
v -182.095001 -65.840317 1291.339966
v -183.101562 -66.006073 1292.173828
v -185.826004 -68.386810 1293.209961
v -183.796875 -67.664276 1293.421875
v -185.031250 -67.406464 1292.781250
v -184.367188 -68.121307 1293.000000
v -185.348007 -68.717812 1293.910034
v -184.990005 -68.216713 1292.949951
v -190.666992 -70.991913 1297.051025
v -186.140625 -67.703339 1293.695312
v -186.134995 -67.843117 1294.250000
v -190.542175 -71.795013 1296.850708
v -190.320801 -71.756805 1296.442505
v -190.551758 -71.445526 1297.106201
v -190.995728 -71.481628 1296.049194
v -190.794922 -70.763885 1296.056641
v -191.112183 -70.838837 1296.518066
v -190.976807 -70.924286 1296.912598
v -190.760300 -71.848236 1296.291016
v -191.129089 -71.720428 1296.649536
v -190.947998 -71.705811 1296.219971
v -191.197144 -71.146576 1296.829834
v -190.930176 -71.409698 1297.080933
v -191.292389 -71.361725 1296.385864
v -190.995605 -71.480804 1296.065186
vn 0.8146 0.5544 -0.1704
vn 0.8174 0.4539 0.3547
vn 0.9943 -0.0478 0.0953
vn 0.7973 0.2184 -0.5627
vn 0.7799 -0.4795 -0.4022
vn 0.5423 -0.1077 -0.8333
vn 0.6772 0.5344 -0.5057
vn 0.7028 -0.7112 -0.0182
vn 0.7547 -0.3426 0.5595
vn 0.4127 -0.8642 0.2879
vn 0.2555 -0.4879 0.8346
vn 0.5654 0.2695 0.7796
vn 0.5099 0.6937 0.5087
vn 0.1823 0.0474 0.9821
vn 0.3393 0.5891 0.7334
vn 0.1339 -0.8683 -0.4776
vn 0.2959 -0.3606 -0.8845
vn -0.0933 -0.5027 -0.8594
vn 0.6975 0.6669 0.2623
vn -0.0824 -0.9109 0.4043
vn -0.0818 -0.9954 -0.0499
vn -0.6000 -0.8000 0.0012
vn -0.5511 -0.6981 0.4571
vn -0.3306 -0.1854 0.9254
vn -0.2761 -0.5400 0.7951
vn 0.6332 0.3882 -0.6696
vn 0.7853 0.5896 -0.1892
vn -0.3755 -0.8616 -0.3415
vn -0.5209 -0.6437 -0.5606
vn -0.0444 0.2337 0.9713
vn -0.5220 -0.2745 0.8076
vn 0.7548 0.6533 0.0583
vn -0.7339 -0.6497 -0.1981
vn -0.7431 -0.5122 0.4305
vn 0.6619 0.3931 -0.6382
vn -0.3346 -0.4929 -0.8032
vn 0.2606 0.0136 -0.9654
vn -0.1447 -0.3435 -0.9279
vn -0.4892 -0.1907 0.8510
vn 0.1960 0.3914 0.8991
vn 0.5821 0.6551 0.4817
vn -0.5199 -0.6201 -0.5876
vn -0.7239 -0.4617 0.5127
vn -0.2235 -0.4079 -0.8853
vn -0.3129 -0.0963 0.9449
vn 0.2708 0.1200 -0.9551
vn 0.5578 0.3547 -0.7503
vn 0.7184 0.6785 -0.1533
vn -0.7149 -0.6636 -0.2202
vn -0.7714 -0.5203 0.3665
vn 0.6093 0.7365 0.2938
vn 0.4308 0.5803 0.6911
vn 0.2945 0.5910 0.7509
vn -0.0806 0.1691 0.9823
vn -0.5737 -0.3912 0.7196
vn 0.5705 0.5653 -0.5958
vn 0.6600 0.7270 -0.1894
vn 0.5223 0.3894 -0.7587
vn 0.5861 0.8018 0.1171
vn 0.1109 -0.0287 -0.9934
vn 0.5508 0.7288 -0.4068
vn -0.6402 -0.7629 -0.0904
vn 0.3455 0.6349 0.6910
vn -0.6556 -0.6840 0.3199
vn -0.5911 -0.7420 -0.3163
vn -0.4335 -0.3609 0.8257
vn 0.4285 0.3986 -0.8108
vn 0.5097 0.5690 -0.6454
vn -0.5782 -0.7284 0.3676
vn -0.0654 0.0880 0.9940
vn -0.2207 -0.4772 -0.8506
vn 0.5558 0.8255 -0.0981
vn 0.4119 0.7785 0.4736
vn 0.3550 0.4420 -0.8238
vn -0.5835 -0.8120 -0.0125
vn -0.4642 -0.5182 0.7183
vn 0.4466 0.6814 -0.5799
vn -0.2461 -0.5109 -0.8237
vn 0.0771 0.0327 -0.9965
vn -0.5268 -0.7247 0.4442
vn -0.3615 -0.4165 0.8342
vn 0.2155 0.5988 0.7714
vn -0.3850 -0.7664 -0.5142
vn 0.4796 0.8747 -0.0703
vn 0.2932 0.5044 -0.8121
vn 0.3670 0.8416 0.3963
vn 0.0462 0.2751 0.9603
vn -0.1407 -0.1949 0.9707
vn 0.3778 0.8904 -0.2537
vn -0.4208 -0.5789 0.6984
vn -0.4164 -0.8554 0.3079
vn -0.4609 -0.8756 -0.1446
vn -0.1309 -0.2022 -0.9705
vn 0.3547 0.6982 -0.6218
vn 0.0911 0.2194 -0.9714
vn -0.2564 -0.7033 0.6630
vn 0.3217 0.9189 0.2283
vn 0.1997 0.5872 0.7844
vn 0.2092 0.7337 -0.6465
vn -0.1185 -0.4718 0.8737
vn 0.0216 0.3976 -0.9173
vn -0.1741 -0.6793 -0.7129
vn -0.4115 -0.9113 0.0116
vn -0.2511 -0.8821 0.3985
vn -0.2784 -0.9155 -0.2904
vn 0.2316 0.9728 0.0013
vn 0.0445 0.6818 -0.7302
vn 0.0368 -0.2304 0.9724
vn -0.1202 -0.9556 0.2691
vn -0.0309 -0.6411 0.7668
vn -0.2449 -0.3835 -0.8905
vn 0.0781 0.9550 0.2860
vn 0.0643 0.9333 -0.3534
vn -0.1392 0.0543 -0.9888
vn 0.0628 -0.2517 0.9658
vn -0.1343 0.5530 -0.8223
vn 0.0392 -0.8622 0.5050
vn -0.0924 -0.9952 -0.0334
vn -0.1796 -0.8742 -0.4512
vn 0.2241 0.0921 0.9702
vn -0.2064 -0.4760 -0.8549
vn -0.1526 0.8897 -0.4303
vn 0.1479 0.6499 0.7455
vn 0.2630 -0.4134 0.8717
vn 0.0259 0.8648 0.5014
vn -0.2651 0.2609 -0.9283
vn -0.1335 0.9899 -0.0487
vn -0.0473 -0.8784 -0.4757
vn 0.1137 -0.9917 0.0596
vn 0.2646 -0.7620 0.5911
vn -0.3606 0.9162 -0.1745
vn 0.3327 -0.8622 0.3819
vn 0.3132 0.0113 0.9496
vn -0.3440 0.0271 -0.9386
vn -0.3411 0.6584 -0.6710
vn -0.1237 0.9419 0.3124
vn 0.0434 0.7053 0.7076
vn 0.1354 -0.9285 -0.3457
vn -0.1380 -0.6263 -0.7673
vn 0.4279 -0.5322 0.7306
vn -0.4239 0.0360 -0.9050
vn -0.4741 0.6934 -0.5426
vn -0.3146 0.9346 0.1660
vn 0.4631 -0.2818 0.8403
vn -0.1602 0.8163 0.5549
vn 0.2835 0.2594 0.9232
vn 0.2904 -0.9386 -0.1865
vn 0.5208 -0.7872 0.3304
vn -0.4276 -0.0455 -0.9028
vn -0.5441 0.4542 -0.7055
vn -0.5463 0.8112 -0.2086
vn -0.3276 -0.2809 -0.9021
vn 0.5591 -0.4433 0.7007
vn -0.5863 0.2952 -0.7544
vn 0.2895 -0.8866 -0.3607
vn 0.5521 -0.8289 0.0903
vn 0.0593 -0.7455 -0.6639
vn -0.0266 0.3988 0.9166
vn -0.5808 0.7851 -0.2150
vn -0.2481 0.8361 0.4892
vn -0.1348 -0.9346 -0.3292
vn 0.1734 -0.8360 0.5207
vn 0.4140 -0.9098 -0.0288
vn 0.2329 -0.2389 0.9427
vn -0.6603 -0.1674 -0.7321
vn -0.7018 0.4198 -0.5756
vn -0.7608 0.6490 0.0019
vn -0.4912 0.6203 0.6115
vn -0.6776 -0.6912 0.2513
vn -0.4651 -0.6578 -0.5924
vn -0.4539 -0.2487 0.8557
vn -0.8532 0.1639 0.4952
vn -0.9628 -0.0897 -0.2551
vn -0.8950 0.0106 -0.4459
usemtl mtl1
s 1
f 4//1 5//2 3//3
f 4//1 3//3 6//4
f 6//4 3//3 1//5
f 1//5 8//6 6//4
f 7//7 4//1 6//4
f 2//8 1//5 3//3
f 9//9 2//8 3//3
f 2//8 9//9 10//10
f 11//11 10//10 9//9
f 3//3 5//2 9//9
f 12//12 9//9 5//2
f 5//2 13//13 12//12
f 11//11 9//9 12//12
f 14//14 11//11 12//12
f 14//14 12//12 15//15
f 6//4 8//6 7//7
f 2//8 16//16 1//5
f 1//5 16//16 17//17
f 16//16 24//18 17//17
f 17//17 8//6 1//5
f 4//1 13//13 5//2
f 4//1 7//7 18//19
f 13//13 4//1 18//19
f 16//16 2//8 10//10
f 10//10 19//20 20//21
f 20//21 16//16 10//10
f 13//13 15//15 12//12
f 11//11 19//20 10//10
f 21//22 19//20 29//23
f 11//11 14//14 22//24
f 11//11 22//24 23//25
f 23//25 19//20 11//11
f 29//23 19//20 23//25
f 17//17 25//26 8//6
f 8//6 25//26 7//7
f 7//7 26//27 18//19
f 25//26 26//27 7//7
f 27//28 24//18 16//16
f 28//29 24//18 27//28
f 16//16 20//21 27//28
f 27//28 20//21 19//20
f 27//28 19//20 21//22
f 14//14 15//15 30//30
f 22//24 14//14 30//30
f 29//23 23//25 31//31
f 23//25 22//24 31//31
f 25//26 32//32 26//27
f 13//13 18//19 15//15
f 21//22 28//29 27//28
f 28//29 21//22 35//33
f 21//22 29//23 34//34
f 35//33 21//22 34//34
f 31//31 34//34 29//23
f 25//26 36//35 32//32
f 24//18 28//29 33//36
f 17//17 24//18 37//37
f 38//38 37//37 24//18
f 24//18 33//36 38//38
f 22//24 30//30 39//39
f 32//32 18//19 26//27
f 40//40 15//15 41//41
f 28//29 35//33 42//42
f 15//15 40//40 30//30
f 39//39 31//31 22//24
f 31//31 39//39 43//43
f 43//43 34//34 31//31
f 44//44 37//37 38//38
f 17//17 37//37 25//26
f 42//42 33//36 28//29
f 18//19 32//32 15//15
f 32//32 41//41 15//15
f 35//33 34//34 43//43
f 39//39 30//30 45//45
f 25//26 37//37 36//35
f 45//45 30//30 40//40
f 46//46 37//37 44//44
f 37//37 47//47 36//35
f 36//35 48//48 32//32
f 32//32 48//48 41//41
f 36//35 47//47 48//48
f 52//49 43//43 49//50
f 37//37 46//46 47//47
f 51//51 50//52 41//41
f 42//42 38//38 33//36
f 35//33 52//49 42//42
f 50//52 40//40 41//41
f 50//52 53//53 40//40
f 40//40 53//53 54//54
f 35//33 43//43 52//49
f 43//43 39//39 55//55
f 55//55 49//50 43//43
f 45//45 55//55 39//39
f 56//56 48//48 47//47
f 56//56 57//57 48//48
f 42//42 44//44 38//38
f 41//41 48//48 51//51
f 45//45 40//40 54//54
f 53//53 50//52 51//51
f 46//46 58//58 47//47
f 58//58 56//56 47//47
f 48//48 57//57 51//51
f 51//51 59//59 53//53
f 46//46 44//44 61//60
f 62//61 57//57 56//56
f 51//51 57//57 59//59
f 52//49 49//50 63//62
f 53//53 59//59 60//63
f 63//62 49//50 64//64
f 46//46 56//56 58//58
f 52//49 63//62 42//42
f 63//62 65//65 42//42
f 49//50 55//55 64//64
f 45//45 54//54 66//66
f 46//46 67//67 56//56
f 68//68 62//61 56//56
f 62//61 59//59 57//57
f 56//56 67//67 68//68
f 69//69 63//62 64//64
f 66//66 55//55 45//45
f 64//64 55//55 66//66
f 54//54 70//70 66//66
f 44//44 65//65 71//71
f 62//61 72//72 59//59
f 72//72 73//73 59//59
f 42//42 65//65 44//44
f 59//59 73//73 60//63
f 46//46 61//60 67//67
f 74//74 68//68 67//67
f 61//60 74//74 67//67
f 61//60 44//44 71//71
f 69//69 64//64 66//66
f 63//62 69//69 65//65
f 65//65 69//69 75//75
f 69//69 66//66 76//76
f 54//54 53//53 70//70
f 68//68 74//74 62//61
f 53//53 60//63 70//70
f 66//66 70//70 76//76
f 78//77 62//61 74//74
f 65//65 79//78 71//71
f 71//71 80//79 61//60
f 78//77 72//72 62//61
f 75//75 69//69 77//80
f 69//69 76//76 81//81
f 69//69 81//81 77//80
f 60//63 73//73 82//82
f 61//60 80//79 74//74
f 65//65 83//83 79//78
f 75//75 83//83 65//65
f 73//73 72//72 84//84
f 81//81 76//76 70//70
f 85//85 78//77 74//74
f 80//79 85//85 74//74
f 78//77 84//84 72//72
f 73//73 84//84 86//86
f 70//70 60//63 87//87
f 81//81 70//70 88//88
f 60//63 82//82 87//87
f 73//73 86//86 82//82
f 80//79 71//71 79//78
f 90//89 86//86 84//84
f 91//90 77//80 81//81
f 92//91 77//80 91//90
f 83//83 75//75 89//92
f 75//75 77//80 89//92
f 87//87 88//88 70//70
f 91//90 81//81 88//88
f 79//78 83//83 93//93
f 83//83 89//92 93//93
f 94//94 90//89 84//84
f 94//94 78//77 85//85
f 84//84 78//77 94//94
f 77//80 92//91 89//92
f 80//79 79//78 93//93
f 80//79 95//95 85//85
f 94//94 85//85 95//95
f 92//91 91//90 96//96
f 90//89 97//97 86//86
f 86//86 98//98 82//82
f 90//89 94//94 99//99
f 88//88 96//96 91//90
f 88//88 87//87 100//100
f 95//95 99//99 94//94
f 80//79 93//93 95//95
f 101//101 95//95 93//93
f 93//93 89//92 102//102
f 92//91 103//103 89//92
f 96//96 103//103 92//91
f 89//92 103//103 102//102
f 82//82 100//100 87//87
f 98//98 86//86 97//97
f 95//95 101//101 99//99
f 103//103 104//104 105//105
f 103//103 105//105 102//102
f 90//89 106//106 97//97
f 104//104 103//103 96//96
f 88//88 100//100 96//96
f 99//99 106//106 90//89
f 107//107 106//106 99//99
f 96//96 108//108 104//104
f 108//108 96//96 100//100
f 97//97 106//106 98//98
f 100//100 82//82 108//108
f 99//99 101//101 107//107
f 110//109 104//104 111//110
f 110//109 105//105 104//104
f 112//111 102//102 105//105
f 106//106 113//112 98//98
f 109//113 106//106 107//107
f 104//104 108//108 111//110
f 98//98 108//108 82//82
f 93//93 102//102 112//111
f 93//93 115//114 101//101
f 115//114 107//107 101//101
f 111//110 108//108 114//115
f 108//108 98//98 114//115
f 93//93 112//111 115//114
f 116//116 109//113 107//107
f 117//117 110//109 111//110
f 110//109 118//118 105//105
f 110//109 117//117 118//118
f 115//114 116//116 107//107
f 112//111 105//105 119//119
f 109//113 113//112 106//106
f 111//110 114//115 117//117
f 114//115 98//98 120//120
f 118//118 119//119 105//105
f 119//119 122//121 112//111
f 109//113 116//116 123//122
f 109//113 123//122 113//112
f 98//98 113//112 121//123
f 124//124 117//117 114//115
f 98//98 121//123 120//120
f 113//112 125//125 121//123
f 124//124 114//115 120//120
f 126//126 116//116 115//114
f 126//126 115//114 112//111
f 123//122 116//116 126//126
f 113//112 123//122 127//127
f 113//112 127//127 125//125
f 122//121 119//119 128//128
f 126//126 112//111 122//121
f 118//118 117//117 129//129
f 118//118 129//129 119//119
f 117//117 124//124 130//130
f 128//128 119//119 129//129
f 132//131 127//127 123//122
f 130//130 129//129 117//117
f 130//130 131//132 129//129
f 120//120 121//123 133//133
f 134//134 126//126 122//121
f 132//131 123//122 135//135
f 123//122 126//126 135//135
f 124//124 120//120 133//133
f 130//130 124//124 133//133
f 137//136 125//125 127//127
f 138//137 121//123 125//125
f 139//138 128//128 129//129
f 128//128 140//139 122//121
f 132//131 137//136 127//127
f 126//126 134//134 135//135
f 133//133 121//123 138//137
f 138//137 125//125 137//136
f 130//130 133//133 136//140
f 136//140 131//132 130//130
f 122//121 140//139 134//134
f 134//134 141//141 135//135
f 128//128 139//138 140//139
f 140//139 141//141 134//134
f 135//135 142//142 132//131
f 129//129 131//132 139//138
f 143//143 137//136 132//131
f 143//143 138//137 137//136
f 136//140 133//133 144//144
f 141//141 142//142 135//135
f 138//137 143//143 145//145
f 133//133 138//137 146//146
f 147//147 139//138 131//132
f 147//147 131//132 136//140
f 132//131 142//142 143//143
f 147//147 136//140 148//148
f 144//144 133//133 146//146
f 138//137 145//145 146//146
f 139//138 147//147 140//139
f 140//139 149//149 141//141
f 150//150 142//142 141//141
f 142//142 151//151 143//143
f 149//149 150//150 141//141
f 148//148 136//140 144//144
f 152//152 149//149 140//139
f 151//151 145//145 143//143
f 150//150 151//151 142//142
f 153//153 144//144 146//146
f 153//153 148//148 144//144
f 154//154 150//150 149//149
f 155//155 147//147 148//148
f 156//156 155//155 148//148
f 147//147 157//157 140//139
f 157//157 147//147 155//155
f 146//146 145//145 158//158
f 150//150 154//154 151//151
f 154//154 159//159 151//151
f 160//160 145//145 151//151
f 153//153 156//156 148//148
f 157//157 152//152 140//139
f 154//154 149//149 152//152
f 155//155 168//161 157//157
f 161//162 156//156 153//153
f 153//153 146//146 158//158
f 162//163 155//155 156//156
f 161//162 153//153 163//164
f 158//158 163//164 153//153
f 157//157 168//161 164//165
f 157//157 164//165 152//152
f 159//159 160//160 151//151
f 152//152 164//165 154//154
f 154//154 165//166 159//159
f 159//159 165//166 166//167
f 161//162 162//163 156//156
f 145//145 160//160 158//158
f 166//167 160//160 159//159
f 168//161 155//155 162//163
f 160//160 167//168 158//158
f 165//166 154//154 164//165
f 168//161 162//163 161//162
f 169//169 168//161 161//162
f 169//169 170//170 168//161
f 168//161 170//170 164//165
f 166//167 167//168 160//160
f 167//168 172//171 158//158
f 166//167 171//172 167//168
f 171//172 172//171 167//168
f 171//172 166//167 173//173
f 172//171 171//172 169//169
f 161//162 163//164 172//171
f 169//169 161//162 172//171
f 163//164 158//158 172//171
f 165//166 164//165 174//174
f 174//174 170//170 173//173
f 169//169 173//173 170//170
f 171//172 173//173 169//169
f 173//173 165//166 174//174
f 165//166 173//173 166//167
