#
# The license for this database is specified in the Creative Commons Attribution-Share Alike 2.1 Japan. If you use data from this database, please be sure attribute this database as follows: "BodyParts3D, (c)  The Database Center for Life Science licensed under CC Attribution-Share Alike 2.1 Japan".
# http://dbarchive.biosciencedbc.jp/en/bodyparts3d/lic.html
#
#
# Compatibility version : 4.0
# File ID : FJ1657
# Representation ID : BP7692
# Build-up logic : FMA 3.0 part_of
# Concept ID : FMA50532
# English name : Right anterior spinal artery
# Bounds(mm): (-14.499000,-73.401500,1465.462300)-(0.435100,-64.940500,1493.163000)
# Volume(cm3): 0.057100
#
v -14.499 -66.1991 1491.96
v -13.5902 -66.5229 1491.4
v -13.5248 -65.4794 1491.88
v -13.5734 -66.7186 1491.91
v -12.4804 -66.4991 1490.46
v -13.6626 -65.2921 1492.56
v -13.6626 -66.4991 1492.87
v -13.2617 -65.3018 1492.23
v -13.1878 -66.4955 1492.77
v -13.043 -65.8991 1493.16
v -12.7241 -65.3899 1492.53
v -11.2425 -67.1138 1489.66
v -10.9515 -68.3233 1489.21
v -10.5327 -68.17 1489.11
v -10.3051 -67.4995 1489.56
v -12.1615 -65.4933 1491.95
v -11.9153 -65.6755 1491.38
v -11.6164 -66.2056 1490.49
v -11.5584 -65.7315 1491.93
v -11.3076 -65.8347 1491.38
v -11.3128 -66.5343 1492.01
v -10.9522 -66.5553 1490.17
v -11.0014 -66.1544 1490.78
v -10.9436 -66.0378 1491.33
v -10.4203 -66.5244 1491.04
v -10.5529 -66.4984 1491.38
v -10.3795 -66.6687 1490.47
v -12.4626 -67.0991 1490.71
v -11.4899 -67.9991 1489.86
v -11.6698 -67.1973 1491.4
v -11.2938 -67.8977 1490.48
v -10.9783 -67.8025 1490.77
v -10.5898 -68.6474 1490.2
v -10.6737 -67.4532 1491.12
v -11.5983 -65.9177 1492.25
v -9.40459 -70.9889 1488.69
v -8.80809 -69.6979 1489.03
v -8.63312 -69.7556 1489.58
v -8.62729 -71.1437 1488.28
v -8.65404 -70.5173 1488.51
v -8.13156 -70.6828 1488.67
v -8.25557 -70.5395 1489.55
v -7.94835 -71.0248 1488.42
v -7.99395 -70.6646 1488.96
v -8.80902 -71.8991 1489.26
v -10.091 -67.4182 1490.92
v -9.75916 -67.5041 1490.12
v -9.75684 -68.6185 1490.43
v -9.80285 -67.3734 1490.49
v -9.42351 -68.0878 1490.11
v -9.2981 -68.5808 1490.18
v -8.87979 -69.7595 1489.97
v -8.86259 -70.3991 1489.95
v -6.39651 -72.49 1487.18
v -5.49943 -72.4649 1486.59
v -7.66859 -71.0137 1488.66
v -7.33835 -71.3037 1488.96
v -7.0759 -71.4509 1488.33
v -7.63865 -72.1903 1487.88
v -7.66259 -71.5991 1489.46
v -7.24575 -71.8688 1487.79
v -7.36259 -72.9937 1488.36
v -7.08156 -72.7375 1488.89
v -6.42839 -72.0322 1487.46
v -6.16259 -73.3077 1487.46
v -6.16964 -71.8217 1487.79
v -6.10869 -72.5119 1488.64
v -5.86638 -73.2761 1488.03
v -5.81293 -72.1537 1488.31
v -3.51764 -72.1961 1484.75
v -5.30366 -72.7833 1486.41
v -5.29683 -72.0158 1486.89
v -4.93896 -72.4915 1486.13
v -4.45224 -72.7682 1485.71
v -4.67675 -72.0503 1486.26
v -4.66446 -71.938 1486.58
v -4.25555 -72.1877 1485.63
v -4.39682 -71.9802 1486.88
v -4.17543 -73.3717 1486.64
v -3.69565 -72.784 1485.07
v -3.7769 -71.7927 1485.69
v -3.43881 -71.8921 1486.19
v -3.49095 -73.2372 1485.66
v -3.45515 -73.2169 1486.23
v -5.26204 -71.9625 1487.43
v -4.44959 -73.0722 1487.41
v -4.33038 -72.4695 1487.38
v -1.03588 -65.5959 1465.85
v -0.743009 -65.6035 1465.54
v -1.10675 -65.7893 1466.82
v -1.00413 -66.1024 1466.53
v -0.762592 -65.0271 1465.86
v -0.762592 -65.0262 1466.46
v -0.898482 -68.7163 1476.94
v -1.00026 -69.3095 1476.73
v -0.749524 -69.3904 1475.93
v -1.02817 -70.6517 1479.6
v -0.766455 -69.4581 1479.77
v -1.66086 -71.2689 1481.72
v -1.77022 -70.9831 1482.07
v -1.47775 -70.6848 1481.17
v -1.1985 -70.0922 1480.15
v -1.18345 -70.1238 1480.9
v -1.38315 -70.505 1482.35
v -1.35393 -71.6927 1481.71
v -0.781536 -71.8009 1482.01
v -2.88788 -71.5295 1484.48
v -2.32295 -71.283 1483.5
v -2.56293 -71.4078 1484.75
v -1.97837 -71.054 1483.82
v -1.11992 -70.7054 1482.98
v -0.678821 -70.9886 1482.89
v -2.57178 -71.6284 1483.62
v -2.5522 -72.1909 1483.61
v -2.24051 -71.5975 1482.98
v -2.3064 -72.8765 1484.81
v -1.96215 -72.1387 1482.93
v -2.00304 -72.5377 1483.58
v -1.54868 -71.5985 1484.41
v -1.40376 -72.4048 1483.61
v -0.9632 -71.8578 1483.5
v -2.77119 -72.7991 1485.96
v -2.21933 -71.5816 1485.01
v -2.34494 -71.9437 1485.44
v -1.94619 -72.4991 1485.06
v -0.462592 -65.1807 1465.56
v -0.185152 -65.6135 1465.53
v -0.462534 -66.3967 1466.47
v 0.0767154 -66.0326 1466.33
v -0.169806 -65.1896 1467.08
v 0.138313 -65.3301 1465.91
v 0.215863 -65.3615 1466.37
v 0.26684 -65.6923 1466.46
v 0.276815 -66.5558 1470.16
v 0.272601 -67.4128 1470.78
v 0.375916 -67.5491 1472.05
v -0.475882 -67.6623 1474.81
v -0.162879 -68.5039 1477.49
v 0.130447 -68.1058 1475.91
v 0.394029 -68.5316 1476.14
v 0.423929 -68.8714 1476.28
v -0.157256 -69.4003 1475.63
v -0.162469 -69.2195 1479.39
v 0.136516 -69.0788 1478.6
v -0.499134 -70.6877 1479.03
v -0.452946 -69.2174 1479.44
v 0.066014 -70.6484 1479.83
v 0.389878 -69.2281 1477.9
v 0.304364 -69.6597 1477.53
v 0.280371 -70.0847 1479.6
v 0.171194 -69.7794 1479.89
v -0.514071 -69.6829 1480.61
v -0.200824 -69.8675 1480.73
v -0.0265496 -70.7041 1481.18
v -14.499 -66.1991 1491.96
v -14.499 -66.1991 1491.96
v -14.499 -66.1991 1491.96
v -13.5902 -66.5229 1491.4
v -12.4804 -66.4991 1490.46
v -13.6626 -65.2921 1492.56
v -13.6626 -65.2921 1492.56
v -13.6626 -65.2921 1492.56
v -13.6626 -66.4991 1492.87
v -13.043 -65.8991 1493.16
v -13.043 -65.8991 1493.16
v -13.043 -65.8991 1493.16
v -10.9515 -68.3233 1489.21
v -11.3128 -66.5343 1492.01
v -12.4626 -67.0991 1490.71
v -12.4626 -67.0991 1490.71
v -11.4899 -67.9991 1489.86
v -11.5983 -65.9177 1492.25
v -9.40459 -70.9889 1488.69
v -8.63312 -69.7556 1489.58
v -8.25557 -70.5395 1489.55
v -8.80902 -71.8991 1489.26
v -8.80902 -71.8991 1489.26
v -10.091 -67.4182 1490.92
v -9.75684 -68.6185 1490.43
v -9.2981 -68.5808 1490.18
v -8.87979 -69.7595 1489.97
v -8.86259 -70.3991 1489.95
v -6.39651 -72.49 1487.18
v -7.33835 -71.3037 1488.96
v -7.0759 -71.4509 1488.33
v -7.63865 -72.1903 1487.88
v -7.66259 -71.5991 1489.46
v -7.36259 -72.9937 1488.36
v -7.08156 -72.7375 1488.89
v -6.16259 -73.3077 1487.46
v -5.86638 -73.2761 1488.03
v -5.30366 -72.7833 1486.41
v -3.69565 -72.784 1485.07
v -1.03588 -65.5959 1465.85
v -1.03588 -65.5959 1465.85
v -1.03588 -65.5959 1465.85
v -0.743009 -65.6035 1465.54
v -0.743009 -65.6035 1465.54
v -0.762592 -65.0271 1465.86
v -0.762592 -65.0271 1465.86
v -0.762592 -65.0262 1466.46
v -1.02817 -70.6517 1479.6
v -0.781536 -71.8009 1482.01
v -1.40376 -72.4048 1483.61
v -0.9632 -71.8578 1483.5
v -2.77119 -72.7991 1485.96
v -1.94619 -72.4991 1485.06
v -0.462592 -65.1807 1465.56
v -0.462592 -65.1807 1465.56
v -0.462592 -65.1807 1465.56
v -0.185152 -65.6135 1465.53
v -0.185152 -65.6135 1465.53
v -0.185152 -65.6135 1465.53
v 0.138313 -65.3301 1465.91
v 0.138313 -65.3301 1465.91
v 0.215863 -65.3615 1466.37
v -0.157256 -69.4003 1475.63
v -0.499134 -70.6877 1479.03
vn -0.580873 -0.41895 -0.697902
vn -0.595837 -0.367096 -0.714296
vn -0.272525 0.81093 -0.517806
vn -0.401578 -0.915499 -0.0244226
vn -0.660824 -0.332704 -0.67277
vn -0.41233 0.853785 -0.317861
vn -0.634597 0.190506 0.748995
vn 0.0248455 0.981698 -0.188817
vn 0.211826 -0.680593 0.701372
vn -0.571802 0.202227 0.795077
vn 0.292506 0.88011 0.373959
vn -0.116201 0.506567 -0.854334
vn -0.790303 -0.359156 -0.496415
vn -0.00675928 0.350669 -0.936475
vn 0.400957 0.583502 -0.706228
vn 0.255065 0.965192 -0.0578533
vn 0.109759 0.917944 -0.381224
vn -0.0251316 0.775994 -0.63024
vn 0.529508 0.804993 0.267596
vn 0.365566 0.918865 -0.148487
vn 0.221402 -0.639268 0.736422
vn 0.243232 0.73226 -0.636108
vn 0.333774 0.858268 -0.389835
vn 0.611769 0.790953 0.0114473
vn 0.768929 0.635178 0.0727865
vn 0.771865 0.358929 0.524781
vn 0.607213 0.724385 -0.326433
vn -0.567769 -0.774287 -0.279497
vn -0.82205 -0.470179 -0.321193
vn -0.0889665 -0.854538 0.511712
vn -0.455377 -0.767857 0.450586
vn -0.206277 -0.705056 0.678488
vn -0.377465 -0.569373 0.730298
vn 0.051146 -0.592739 0.803769
vn 0.53768 0.645527 0.542397
vn -0.475401 -0.108356 -0.873071
vn 0.692402 0.569291 -0.443269
vn 0.802781 0.561767 -0.199899
vn -0.18423 0.194316 -0.963484
vn 0.326119 0.492275 -0.807039
vn 0.516629 0.669318 -0.533955
vn 0.799955 0.504026 0.325622
vn 0.292735 0.661788 -0.690176
vn 0.737011 0.670655 -0.0838841
vn -0.768106 -0.615118 -0.177886
vn 0.376254 -0.350541 0.857644
vn 0.74866 0.577506 -0.325569
vn -0.214921 -0.48853 0.845664
vn 0.877688 0.423072 0.22511
vn 0.904717 0.423203 0.0488581
vn 0.85098 0.237928 0.468213
vn 0.810302 0.281388 0.514034
vn 0.533282 0.0812627 0.842025
vn -0.437688 0.335342 -0.834251
vn -0.535236 0.408053 -0.739604
vn 0.558903 0.781362 -0.277669
vn 0.585468 0.809242 0.0485298
vn 0.144891 0.809852 -0.568459
vn -0.40225 0.0864692 -0.911437
vn 0.60261 0.34204 0.72102
vn -0.12743 0.53511 -0.835116
vn -0.640342 -0.590535 -0.491152
vn -0.168584 -0.846457 0.505065
vn -0.241542 0.706519 -0.665198
vn -0.573686 -0.448159 -0.685593
vn 0.194244 0.975016 -0.107765
vn 0.483948 -0.154211 0.861402
vn -0.0770874 -0.97146 0.224328
vn 0.495637 0.660229 0.564306
vn -0.763488 0.140148 -0.630432
vn -0.576857 -0.439822 -0.688326
vn -0.252968 0.8884 -0.383083
vn -0.628761 0.264368 -0.73128
vn -0.655154 -0.125792 -0.744949
vn -0.500923 0.709042 -0.496323
vn -0.166645 0.981333 -0.0959908
vn -0.66653 0.471481 -0.577445
vn 0.212849 0.915865 0.340422
vn 0.176865 -0.971001 0.160858
vn -0.666826 -0.248568 -0.702536
vn -0.298131 0.951367 -0.0775862
vn 0.250125 0.837776 0.485354
vn -0.0221869 -0.967083 -0.253492
vn 0.441539 -0.852257 0.280537
vn 0.111913 0.985899 0.124417
vn 0.530005 -0.511531 0.676336
vn 0.581115 0.325374 0.745947
vn -0.970335 -0.213646 -0.113158
vn -0.345829 -0.75508 -0.557006
vn -0.98459 0.174703 0.00783344
vn -0.749753 -0.593608 -0.292403
vn -0.609417 0.374333 -0.698917
vn 0.109663 0.981934 0.154209
vn -0.849038 0.505534 0.153526
vn -0.974088 -0.205285 -0.0949275
vn -0.510877 -0.807241 -0.29558
vn -0.951581 -0.225893 -0.208483
vn -0.575847 0.779107 0.247775
vn -0.907738 -0.171812 -0.382744
vn -0.907053 0.36045 -0.217554
vn -0.952452 0.258738 -0.160901
vn -0.961366 0.270956 -0.0485526
vn -0.749468 0.656954 0.0819061
vn -0.501419 0.853112 0.144152
vn -0.419185 -0.781458 -0.462176
vn 0.180355 -0.926758 -0.329532
vn -0.620337 0.74746 -0.237667
vn -0.76179 0.612723 -0.210348
vn -0.113653 0.960707 0.253231
vn -0.345444 0.927045 0.145794
vn 0.226805 0.859184 0.458653
vn 0.790536 0.368979 0.488781
vn -0.836721 0.299607 -0.458402
vn -0.715982 -0.329293 -0.615578
vn -0.8847 0.0232343 -0.465581
vn 0.430761 -0.90057 0.0584672
vn -0.64198 -0.548466 -0.535768
vn -0.143346 -0.893547 -0.425471
vn 0.713892 0.359441 0.600966
vn 0.218707 -0.945858 -0.239833
vn 0.88195 0.0137839 0.471141
vn 0.589544 -0.711239 0.382855
vn 0.379516 0.741451 0.55337
vn 0.638344 0.351772 0.68467
vn 0.674439 -0.696338 0.245449
vn -0.00885517 0.0666528 -0.997737
vn -0.00885517 0.0666528 -0.997737
vn -0.0491882 -0.886425 -0.460251
vn 0.704144 -0.606226 -0.36969
vn 0.345073 0.928396 0.137863
vn 0.333431 0.942439 -0.0251459
vn 0.989052 0.134036 -0.0617226
vn 0.984057 -0.10117 -0.146274
vn 0.937371 0.337537 0.0860518
vn 0.894719 -0.417393 -0.158934
vn 0.994457 -0.0911917 -0.0523353
vn -0.327373 0.898141 0.293545
vn 0.189304 0.92763 0.321973
vn 0.628746 0.738828 0.24251
vn 0.928226 0.352539 0.118793
vn 0.997051 -0.0749066 -0.0166892
vn 0.552621 -0.789347 -0.267471
vn 0.374681 0.848544 0.373613
vn 0.690598 0.668766 0.275364
vn -0.381978 -0.841888 -0.381204
vn -0.149228 0.92823 0.340764
vn 0.744779 -0.652792 -0.138442
vn 0.982669 0.155405 0.101049
vn 0.896383 -0.425438 -0.124501
vn 0.990132 -0.119399 0.0733667
vn 0.846663 0.439221 0.300411
vn -0.100081 0.924587 0.367591
vn 0.608394 0.666098 0.431473
vn 0.966427 -0.0911142 0.240243
vn -0.491366 -0.867629 -0.0760263
vn -0.530995 0.657974 -0.533961
vn -0.693455 0.177603 0.698267
vn -0.524546 -0.80015 -0.290881
vn -0.336456 0.534205 -0.775514
vn -0.634597 0.190506 0.748995
vn 0.10716 0.989249 0.0995157
vn 0.104597 0.751067 0.651888
vn -0.101555 -0.877714 0.468299
vn 0.234745 -0.572501 0.785581
vn 0.276397 0.678922 0.680199
vn 0.530134 -0.0846931 0.843674
vn -0.382858 0.11906 -0.916103
vn 0.60668 -0.0479485 0.793499
vn -0.733852 -0.344145 -0.585684
vn -0.399815 -0.874208 0.275516
vn -0.589503 -0.691875 0.416888
vn 0.588071 -0.0437527 0.807625
vn -0.756637 -0.54836 -0.356093
vn 0.842971 0.313634 0.437074
vn 0.615281 0.19884 0.762818
vn -0.250154 -0.465184 0.849133
vn -0.270714 -0.799126 0.53676
vn 0.76544 0.0906845 0.637085
vn 0.4426 -0.121877 0.888398
vn 0.487208 -0.0985312 0.86771
vn 0.497808 -0.00134293 0.867286
vn -0.190678 -0.397832 0.897425
vn -0.559789 -0.409417 -0.720426
vn 0.628988 0.423374 0.652019
vn 0.485839 0.874046 -0.00183785
vn -0.582138 -0.507485 -0.635275
vn 0.0732512 -0.401922 0.912739
vn -0.167006 -0.906506 0.387757
vn 0.198437 -0.440383 0.875606
vn -0.158412 -0.977571 -0.138785
vn 0.358261 -0.634312 0.685053
vn -0.604336 0.088664 -0.79178
vn -0.366557 -0.754449 -0.544465
vn -0.532524 -0.691864 -0.487588
vn -0.677213 0.344476 -0.650168
vn -0.901415 0.43248 0.0202939
vn -0.609417 0.374333 -0.698917
vn -0.00885517 0.0666528 -0.997737
vn 0.333299 0.942117 -0.0364331
vn -0.906667 0.421733 0.00983472
vn -0.814476 0.562612 0.14176
vn -0.572904 -0.72136 -0.389128
vn 0.824088 -0.562864 0.0637431
vn 0.740077 -0.649852 0.173145
vn 0.8074 -0.573932 0.136775
vn 0.691385 0.0227848 0.722127
vn 0.781596 0.0661814 0.620264
vn 0.332141 0.941416 -0.0584624
vn -0.536829 0.401246 -0.74217
vn 0.526955 0.392481 -0.753841
vn 0.180243 -0.781748 -0.596977
vn 0.526955 0.392481 -0.753841
vn 0.823181 -0.343392 -0.452166
vn 0.526955 0.392481 -0.753841
vn 0.917488 -0.191402 -0.348685
vn 0.558516 0.823043 0.103244
vn -0.183784 -0.924572 -0.333751
vn 0.309183 -0.900042 -0.307132
g grp1
usemtl mtl1
f 5//5 2//2 1//1 
f 155//155 158//158 4//4 
f 159//159 156//156 3//3 
f 3//3 156//156 6//6 
f 18//18 159//159 3//3 
f 8//8 3//3 6//6 
f 158//158 28//28 4//4 
f 17//17 18//18 3//3 
f 17//17 3//3 8//8 
f 2//2 5//5 169//169 
f 8//8 11//11 16//16 
f 16//16 17//17 8//8 
f 170//170 30//30 4//4 
f 7//7 10//10 160//160 
f 7//7 160//160 157//157 
f 163//163 155//155 4//4 
f 30//30 9//9 163//163 
f 30//30 163//163 4//4 
f 9//9 164//164 163//163 
f 11//11 8//8 161//161 
f 165//165 11//11 162//162 
f 9//9 30//30 21//21 
f 21//21 164//164 9//9 
f 165//165 35//35 11//11 
f 5//5 13//13 169//169 
f 167//167 159//159 12//12 
f 167//167 12//12 14//14 
f 13//13 29//29 169//169 
f 14//14 39//39 167//167 
f 14//14 12//12 15//15 
f 12//12 22//22 15//15 
f 167//167 39//39 36//36 
f 39//39 14//14 40//40 
f 14//14 15//15 40//40 
f 173//173 29//29 13//13 
f 20//20 17//17 16//16 
f 19//19 20//20 16//16 
f 12//12 159//159 18//18 
f 17//17 20//20 23//23 
f 26//26 24//24 19//19 
f 19//19 24//24 20//20 
f 35//35 26//26 19//19 
f 26//26 172//172 168//168 
f 18//18 22//22 12//12 
f 23//23 22//22 18//18 
f 23//23 18//18 17//17 
f 20//20 24//24 23//23 
f 27//27 22//22 23//23 
f 24//24 27//27 23//23 
f 24//24 25//25 27//27 
f 26//26 25//25 24//24 
f 31//31 170//170 171//171 
f 30//30 31//31 32//32 
f 30//30 170//170 31//31 
f 31//31 171//171 33//33 
f 33//33 32//32 31//31 
f 33//33 34//34 32//32 
f 32//32 34//34 30//30 
f 30//30 34//34 21//21 
f 22//22 27//27 15//15 
f 34//34 46//46 21//21 
f 27//27 47//47 15//15 
f 48//48 34//34 33//33 
f 25//25 26//26 49//49 
f 49//49 26//26 178//178 
f 178//178 26//26 168//168 
f 35//35 19//19 11//11 
f 11//11 19//19 16//16 
f 172//172 166//166 168//168 
f 15//15 37//37 40//40 
f 39//39 59//59 36//36 
f 37//37 41//41 40//40 
f 40//40 43//43 39//39 
f 37//37 44//44 41//41 
f 38//38 44//44 37//37 
f 42//42 174//174 52//52 
f 40//40 41//41 43//43 
f 174//174 42//42 44//44 
f 175//175 53//53 60//60 
f 43//43 41//41 56//56 
f 56//56 58//58 43//43 
f 44//44 56//56 41//41 
f 173//173 186//186 62//62 
f 173//173 45//45 29//29 
f 173//173 62//62 45//45 
f 33//33 176//176 182//182 
f 33//33 171//171 176//176 
f 187//187 182//182 176//176 
f 43//43 61//61 39//39 
f 39//39 61//61 59//59 
f 15//15 47//47 37//37 
f 27//27 49//49 47//47 
f 25//25 49//49 27//27 
f 46//46 34//34 179//179 
f 178//178 51//51 49//49 
f 47//47 50//50 37//37 
f 47//47 49//49 50//50 
f 50//50 49//49 51//51 
f 180//180 46//46 179//179 
f 37//37 50//50 38//38 
f 51//51 174//174 50//50 
f 181//181 180//180 179//179 
f 52//52 174//174 51//51 
f 181//181 179//179 53//53 
f 48//48 33//33 182//182 
f 175//175 181//181 53//53 
f 64//64 54//54 61//61 
f 61//61 54//54 59//59 
f 183//183 65//65 186//186 
f 65//65 183//183 71//71 
f 54//54 64//64 55//55 
f 55//55 192//192 54//54 
f 64//64 72//72 55//55 
f 79//79 68//68 190//190 
f 44//44 42//42 57//57 
f 60//60 184//184 175//175 
f 43//43 58//58 61//61 
f 185//185 56//56 57//57 
f 44//44 57//57 56//56 
f 57//57 66//66 185//185 
f 177//177 188//188 63//63 
f 189//189 187//187 176//176 
f 68//68 63//63 188//188 
f 65//65 62//62 186//186 
f 58//58 64//64 61//61 
f 190//190 68//68 188//188 
f 66//66 57//57 69//69 
f 69//69 184//184 60//60 
f 67//67 69//69 60//60 
f 67//67 187//187 189//189 
f 72//72 64//64 66//66 
f 66//66 64//64 58//58 
f 189//189 191//191 67//67 
f 72//72 66//66 85//85 
f 66//66 69//69 85//85 
f 67//67 87//87 69//69 
f 86//86 67//67 191//191 
f 70//70 74//74 77//77 
f 70//70 77//77 107//107 
f 80//80 74//74 70//70 
f 70//70 114//114 80//80 
f 113//113 114//114 70//70 
f 107//107 113//113 70//70 
f 109//109 107//107 81//81 
f 55//55 73//73 192//192 
f 76//76 72//72 85//85 
f 192//192 73//73 74//74 
f 74//74 65//65 71//71 
f 75//75 55//55 72//72 
f 75//75 72//72 76//76 
f 75//75 73//73 55//55 
f 78//78 76//76 85//85 
f 78//78 85//85 69//69 
f 77//77 73//73 75//75 
f 81//81 75//75 76//76 
f 81//81 76//76 78//78 
f 86//86 191//191 79//79 
f 81//81 77//77 75//75 
f 80//80 65//65 74//74 
f 69//69 87//87 78//78 
f 77//77 74//74 73//73 
f 81//81 107//107 77//77 
f 87//87 82//82 78//78 
f 78//78 82//82 81//81 
f 84//84 122//122 86//86 
f 84//84 86//86 79//79 
f 86//86 206//206 87//87 
f 193//193 83//83 190//190 
f 83//83 79//79 190//190 
f 83//83 84//84 79//79 
f 124//124 82//82 87//87 
f 206//206 124//124 87//87 
f 109//109 81//81 82//82 
f 122//122 84//84 116//116 
f 116//116 84//84 83//83 
f 67//67 86//86 87//87 
f 88//88 91//91 90//90 
f 194//194 89//89 91//91 
f 92//92 197//197 195//195 
f 198//198 126//126 127//127 
f 211//211 128//128 89//89 
f 89//89 128//128 91//91 
f 130//130 208//208 199//199 
f 209//209 197//197 92//92 
f 91//91 95//95 90//90 
f 200//200 196//196 90//90 
f 130//130 199//199 93//93 
f 201//201 200//200 90//90 
f 91//91 128//128 96//96 
f 95//95 91//91 96//96 
f 201//201 90//90 94//94 
f 90//90 95//95 94//94 
f 201//201 94//94 137//137 
f 95//95 102//102 94//94 
f 95//95 96//96 97//97 
f 95//95 97//97 102//102 
f 98//98 94//94 102//102 
f 94//94 98//98 137//137 
f 137//137 98//98 146//146 
f 102//102 97//97 99//99 
f 102//102 99//99 101//101 
f 202//202 105//105 99//99 
f 145//145 202//202 96//96 
f 145//145 105//105 202//202 
f 105//105 218//218 106//106 
f 98//98 152//152 146//146 
f 99//99 115//115 100//100 
f 108//108 100//100 115//115 
f 99//99 100//100 101//101 
f 103//103 101//101 100//100 
f 100//100 104//104 103//103 
f 102//102 101//101 103//103 
f 152//152 103//103 104//104 
f 104//104 111//111 152//152 
f 103//103 152//152 98//98 
f 102//102 103//103 98//98 
f 153//153 152//152 111//111 
f 117//117 115//115 99//99 
f 105//105 117//117 99//99 
f 117//117 105//105 118//118 
f 118//118 105//105 106//106 
f 108//108 115//115 113//113 
f 110//110 104//104 108//108 
f 107//107 110//110 108//108 
f 107//107 108//108 113//113 
f 109//109 110//110 107//107 
f 111//111 110//110 109//109 
f 123//123 111//111 109//109 
f 100//100 108//108 104//104 
f 111//111 104//104 110//110 
f 111//111 123//123 119//119 
f 112//112 111//111 119//119 
f 112//112 153//153 111//111 
f 119//119 121//121 112//112 
f 153//153 112//112 154//154 
f 154//154 112//112 121//121 
f 114//114 118//118 193//193 
f 113//113 115//115 114//114 
f 83//83 193//193 118//118 
f 117//117 114//114 115//115 
f 117//117 118//118 114//114 
f 83//83 118//118 116//116 
f 118//118 120//120 116//116 
f 125//125 116//116 204//204 
f 120//120 118//118 106//106 
f 205//205 125//125 204//204 
f 121//121 119//119 207//207 
f 203//203 205//205 204//204 
f 123//123 109//109 82//82 
f 82//82 124//124 123//123 
f 125//125 122//122 116//116 
f 124//124 206//206 207//207 
f 123//123 124//124 119//119 
f 124//124 207//207 119//119 
f 129//129 128//128 211//211 
f 130//130 131//131 208//208 
f 212//212 210//210 214//214 
f 213//213 215//215 129//129 
f 128//128 129//129 142//142 
f 135//135 142//142 129//129 
f 215//215 132//132 133//133 
f 129//129 215//215 133//133 
f 130//130 216//216 131//131 
f 135//135 129//129 133//133 
f 134//134 216//216 130//130 
f 132//132 134//134 133//133 
f 217//217 96//96 128//128 
f 93//93 137//137 130//130 
f 135//135 149//149 142//142 
f 133//133 134//134 135//135 
f 135//135 134//134 136//136 
f 149//149 135//135 136//136 
f 134//134 130//130 139//139 
f 136//136 134//134 140//140 
f 139//139 140//140 134//134 
f 130//130 137//137 138//138 
f 139//139 130//130 138//138 
f 136//136 140//140 141//141 
f 149//149 136//136 141//141 
f 149//149 141//141 148//148 
f 141//141 140//140 148//148 
f 144//144 140//140 139//139 
f 138//138 144//144 139//139 
f 140//140 144//144 148//148 
f 217//217 145//145 96//96 
f 146//146 138//138 137//137 
f 138//138 146//146 143//143 
f 142//142 147//147 218//218 
f 218//218 147//147 106//106 
f 143//143 146//146 152//152 
f 142//142 149//149 147//147 
f 138//138 143//143 144//144 
f 149//149 148//148 150//150 
f 149//149 150//150 147//147 
f 151//151 148//148 144//144 
f 143//143 151//151 144//144 
f 148//148 151//151 150//150 
f 152//152 153//153 143//143 
f 203//203 154//154 205//205 
f 153//153 151//151 143//143 
f 154//154 147//147 150//150 
f 147//147 154//154 203//203 
f 151//151 153//153 154//154 
f 150//150 151//151 154//154 
