#
# The license for this database is specified in the Creative Commons Attribution-Share Alike 2.1 Japan. If you use data from this database, please be sure attribute this database as follows: "BodyParts3D, (c)  The Database Center for Life Science licensed under CC Attribution-Share Alike 2.1 Japan".
# http://dbarchive.biosciencedbc.jp/en/bodyparts3d/lic.html
#
#
# Compatibility version : 4.0
# File ID : FJ2044
# Representation ID : BP7722
# Build-up logic : FMA 3.0 part_of
# Concept ID : FMA8620
# English name : Right anterior segmental artery
# Bounds(mm): (-97.180800,-86.770800,1014.537000)-(-58.207100,-80.854100,1034.496900)
# Volume(cm3): 0.360300
#
v -92.6533 -84.7052 1018.04
v -96.2503 -83.204 1017.07
v -96.8624 -83.163 1016.17
v -95.8997 -83.8178 1016.29
v -96.4112 -83.3741 1015.3
v -95.7544 -83.6906 1015.37
v -95.9395 -83.3484 1015
v -94.372 -84.35 1016.16
v -94.6272 -83.303 1014.98
v -93.688 -84.1829 1015.71
v -96.271 -82.5415 1017.31
v -94.3397 -83.6214 1017.97
v -93.4897 -82.7109 1018.3
v -96.9054 -82.4234 1016.79
v -97.1391 -82.4055 1015.87
v -96.903 -82.9405 1015.48
v -97.007 -82.5027 1015.38
v -97.0388 -81.9465 1015.62
v -96.901 -81.6235 1016.36
v -96.5088 -82.9995 1015.01
v -96.6882 -82.5661 1014.97
v -96.7881 -82.0081 1015.11
v -96.6126 -81.2865 1015.68
v -96.4117 -82.0542 1014.77
v -96.4385 -81.7244 1014.91
v -95.8961 -82.4686 1014.59
v -96.0266 -81.6647 1014.76
v -96.0331 -81.2545 1015.08
v -95.6303 -81.0226 1015.37
v -95.9812 -81.0086 1015.44
v -95.8723 -80.8967 1015.86
v -95.5424 -81.7958 1014.66
v -95.0308 -81.5394 1014.98
v -95.5604 -81.3 1014.98
v -95.2179 -80.9824 1015.85
v -94.8269 -82.5101 1014.76
v -94.8962 -81.2774 1015.36
v -96.4081 -81.3225 1016.71
v -95.6072 -81.47 1017.21
v -95.4789 -81.0484 1016.65
v -91.6369 -85.0315 1016.9
v -90.8027 -84.8441 1016.68
v -89.8559 -84.4884 1016.69
v -89.4385 -85.6161 1018.39
v -89.1032 -83.025 1019.8
v -88.6896 -85.5465 1018.02
v -88.7431 -84.0702 1020.5
v -93.3135 -83.4147 1015.33
v -93.0407 -82.4025 1015.58
v -92.108 -82.1279 1017.92
v -92.3927 -82.0681 1016.35
v -86.1334 -85.8935 1020.69
v -85.875 -85.673 1019.11
v -84.877 -86.0976 1020.58
v -83.1911 -85.287 1023.84
v -88.4682 -85.1485 1017.55
v -89.1202 -83.9821 1016.89
v -88.1464 -82.6659 1018.75
v -86.5229 -84.6855 1018.13
v -86.49 -83.3863 1018.48
v -84.2678 -83.5702 1022.75
v -84.1646 -83.0287 1021.96
v -78.1961 -86.2433 1026.1
v -77.127 -85.2336 1028.58
v -83.8609 -85.2019 1019.71
v -81.6049 -85.9549 1021.88
v -81.8388 -83.1613 1022.04
v -80.227 -85.3042 1022.25
v -83.1796 -84.0291 1020.13
v -77.4712 -85.8377 1024.99
v -76.2571 -83.5356 1029.52
v -75.6582 -84.6006 1025.75
v -73.6403 -83.8288 1031.35
v -76.5555 -82.6811 1027.75
v -76.1841 -83.1323 1026.13
v -72.1794 -84.1683 1032.03
v -71.7521 -85.4965 1030.38
v -71.6096 -85.4099 1029.68
v -69.4396 -85.3342 1031.4
v -69.7735 -85.2243 1030.55
v -68.6601 -85.2712 1032.26
v -70.8753 -83.3219 1032.76
v -68.9232 -82.5098 1033.16
v -72.2939 -83.2694 1028.1
v -71.5882 -84.6309 1028.59
v -73.2734 -82.4238 1028.5
v -72.0283 -82.5496 1031.79
v -70.8879 -81.7986 1031.02
v -64.057 -84.7677 1034.34
v -68.4443 -85.3143 1031.32
v -68.8475 -84.7113 1030.12
v -66.5667 -85.6721 1032.1
v -68.0197 -83.8432 1029.91
v -66.3731 -85.4145 1031.24
v -65.813 -84.565 1030.51
v -65.7602 -83.4683 1030.43
v -67.4794 -84.1433 1033.8
v -65.5306 -83.4065 1034.16
v -65.4647 -82.6906 1033.74
v -65.6473 -82.0761 1031.66
v -68.0059 -82.8254 1030.02
v -68.1928 -82.0523 1030.59
v -67.1039 -81.7917 1031.93
v -61.3404 -86.2305 1031.36
v -63.6453 -85.6407 1033.93
v -62.363 -86.4771 1032.08
v -62.1213 -86.509 1032.99
v -62.5902 -84.6627 1030.6
v -64.7227 -82.6505 1031.15
v -63.2289 -82.6734 1033.36
v -63.1737 -83.455 1030.86
v -63.0268 -82.515 1032.32
v -62.8344 -82.8554 1031.46
v -60.0153 -86.3915 1031.5
v -60.5382 -85.7388 1030.86
v -59.8674 -85.6567 1030.84
v -60.1123 -85.2381 1030.66
v -59.5551 -85.0722 1030.74
v -60.0741 -86.7178 1032.68
v -59.8435 -86.4048 1033.51
v -59.955 -85.2374 1034.4
v -60.3995 -84.1949 1034.44
v -59.8785 -83.7214 1034.16
v -60.3582 -84.3435 1030.68
v -59.1824 -86.4429 1032.4
v -58.9083 -85.496 1033.88
v -59.0911 -84.5127 1034.19
v -59.9498 -83.0507 1033.34
v -58.652 -85.9219 1033.03
v -59.2874 -85.7342 1031.13
v -58.661 -84.5345 1033.83
v -58.831 -84.0248 1033.79
v -58.5518 -85.6789 1031.99
v -58.3182 -85.1456 1033.09
v -58.797 -85.0956 1031.22
v -58.3811 -84.1939 1033.16
v -58.9338 -84.1374 1031.27
v -58.7998 -83.4798 1032.83
v -58.2803 -84.497 1032.26
v -59.9821 -83.212 1031.53
v -96.9054 -82.4234 1016.79
v -96.901 -81.6235 1016.36
v -96.4081 -81.3225 1016.71
v -88.7431 -84.0702 1020.5
v -83.1911 -85.287 1023.84
v -84.2678 -83.5702 1022.75
v -83.8609 -85.2019 1019.71
v -81.8388 -83.1613 1022.04
v -80.227 -85.3042 1022.25
v -76.2571 -83.5356 1029.52
v -76.2571 -83.5356 1029.52
v -76.5555 -82.6811 1027.75
v -76.1841 -83.1323 1026.13
v -73.2734 -82.4238 1028.5
v -70.8879 -81.7986 1031.02
vn -0.373529 -0.832549 0.409071
vn -0.57169 -0.563269 0.596572
vn -0.78932 -0.599835 0.131043
vn -0.453623 -0.88807 0.0745489
vn -0.525714 -0.760656 -0.380826
vn -0.25763 -0.864576 -0.431433
vn -0.173643 -0.615936 -0.768421
vn -0.233967 -0.950353 -0.205155
vn 0.115748 -0.407528 -0.905827
vn 0.015206 -0.721639 -0.692103
vn -0.484381 0.0547731 0.873141
vn -0.424174 -0.312371 0.85
vn -0.266181 0.381969 0.885013
vn -0.867242 -0.224574 0.444363
vn -0.997113 -0.0758379 0.00373006
vn -0.822433 -0.440706 -0.359698
vn -0.899034 -0.0746374 -0.431471
vn -0.917315 0.317899 -0.239738
vn -0.883943 0.456624 0.100695
vn -0.510651 -0.448942 -0.733271
vn -0.651364 -0.164957 -0.740617
vn -0.759677 0.265718 -0.593535
vn -0.639046 0.733462 -0.231634
vn -0.469789 0.144075 -0.870942
vn -0.541304 0.492225 -0.681693
vn -0.146142 -0.138328 -0.979545
vn -0.204962 0.412153 -0.887762
vn -0.282841 0.730796 -0.62124
vn 0.0980687 0.903531 -0.417151
vn -0.265841 0.895712 -0.356411
vn -0.164157 0.986433 -0.00157776
vn 0.130068 0.322621 -0.937549
vn 0.370084 0.505345 -0.779528
vn 0.114486 0.689936 -0.714759
vn 0.265408 0.959629 -0.0931171
vn 0.294658 0.0432805 -0.954622
vn 0.373029 0.774883 -0.510299
vn -0.566483 0.341909 0.749797
vn -0.204939 0.597945 0.774895
vn -0.0110678 0.930218 0.366841
vn -0.105545 -0.94303 -0.315522
vn 0.133347 -0.677395 -0.723433
vn 0.299584 -0.352377 -0.886611
vn -0.161005 -0.986891 -0.011122
vn -0.202365 0.771795 0.602811
vn 0.065543 -0.900567 -0.429747
vn -0.428267 -0.567586 0.703159
vn 0.280596 -0.23085 -0.931651
vn 0.426068 0.419465 -0.801571
vn 0.0943017 0.91761 0.386133
vn 0.355812 0.873057 -0.33342
vn -0.33648 -0.834694 0.435968
vn 0.26244 -0.760682 -0.593706
vn 0.0130904 -0.989977 -0.140623
vn -0.446342 -0.704436 0.55186
vn 0.252826 -0.626459 -0.737311
vn 0.401442 0.0820231 -0.912204
vn 0.132802 0.990869 -0.0233019
vn 0.433533 -0.179572 -0.883064
vn 0.421887 0.587166 -0.690831
vn -0.522325 0.245382 0.816679
vn -0.131521 0.960693 0.244483
vn -0.000648497 -0.997981 0.0635066
vn -0.41111 -0.637988 0.651122
vn 0.387969 -0.613137 -0.688144
vn 0.307074 -0.832777 -0.460638
vn 0.392158 0.73181 -0.557375
vn 0.50712 -0.56049 -0.654736
vn 0.538302 0.295642 -0.789194
vn 0.442696 -0.721291 -0.532691
vn -0.614249 -0.0612514 0.786732
vn 0.581583 0.0114201 -0.813407
vn -0.516173 0.00750986 0.856451
vn -0.389351 0.811456 0.435827
vn 0.454345 0.538573 -0.709584
vn -0.368392 -0.454659 0.810908
vn 0.0272323 -0.995849 0.0868541
vn 0.270034 -0.908413 -0.319166
vn 0.0615343 -0.99619 -0.0617902
vn 0.166749 -0.948251 -0.270211
vn -0.176164 -0.920862 0.347822
vn -0.390678 0.122163 0.912385
vn -0.206038 0.611711 0.763779
vn 0.401706 0.345479 -0.848102
vn 0.465328 -0.445171 -0.765044
vn 0.30012 0.667474 -0.681474
vn -0.40924 0.642609 0.647747
vn 0.0241901 0.969562 -0.243649
vn -0.106106 -0.197797 0.974483
vn -0.00659459 -0.974316 -0.22509
vn 0.208145 -0.742051 -0.637209
vn -0.162237 -0.979458 -0.119754
vn 0.301097 -0.158637 -0.940306
vn -0.0659472 -0.852343 -0.518808
vn 0.0557314 -0.395737 -0.916671
vn 0.177613 0.205987 -0.962301
vn -0.268516 -0.27933 0.921886
vn -0.110022 0.249947 0.961989
vn 0.0227175 0.720579 0.693001
vn 0.194344 0.913351 -0.357799
vn 0.284492 0.379773 -0.880248
vn 0.179574 0.828759 -0.530011
vn 0.0679329 0.989429 0.128121
vn -0.0765905 -0.761327 -0.643829
vn -0.156839 -0.66493 0.730253
vn -0.118727 -0.96103 -0.24965
vn -0.143095 -0.958906 0.244997
vn 0.03139 -0.0155929 -0.999386
vn 0.210185 0.653 -0.727608
vn 0.108285 0.933567 0.341654
vn 0.122402 0.499534 -0.857603
vn 0.171641 0.982087 -0.0777423
vn 0.171987 0.815811 -0.552153
vn 0.130715 -0.840083 -0.526474
vn -0.0120338 -0.500625 -0.86558
vn 0.192341 -0.485087 -0.853051
vn 0.0671435 -0.184616 -0.980514
vn 0.36725 -0.0745875 -0.927127
vn 0.082719 -0.996451 0.0155934
vn 0.209698 -0.813774 0.542033
vn 0.125643 -0.323018 0.938015
vn 0.0743845 0.23058 0.970206
vn 0.246018 0.562142 0.789603
vn 0.152512 0.289692 -0.944891
vn 0.498905 -0.857694 -0.124314
vn 0.603929 -0.387886 0.696287
vn 0.437218 0.11937 0.891398
vn 0.258883 0.905633 0.33587
vn 0.73113 -0.636228 0.246299
vn 0.498977 -0.558019 -0.663051
vn 0.792046 0.0613862 0.607367
vn 0.603436 0.535665 0.590701
vn 0.849754 -0.446877 -0.279676
vn 0.9534 -0.187516 0.236358
vn 0.741848 -0.125037 -0.658807
vn 0.91187 0.31013 0.26891
vn 0.599532 0.432472 -0.673446
vn 0.674451 0.738314 -0.00301888
vn 0.95922 0.166224 -0.228617
vn 0.261208 0.82681 -0.498153
vn -0.622768 0.3324 0.708287
vn -0.672646 0.350835 0.651508
vn -0.394037 0.871078 0.293187
vn -0.39809 0.29831 0.867488
vn -0.579512 0.0745347 0.811548
vn -0.341776 0.801358 0.490933
vn 0.543055 -0.0119037 -0.839613
vn 0.0932677 0.989629 -0.109254
vn 0.587331 0.0128011 -0.809245
vn -0.405843 0.794251 0.452169
vn -0.504755 0.366902 0.781412
vn 0.0456589 0.975562 -0.214929
vn 0.0742717 0.965067 -0.251255
vn 0.00168761 0.966648 -0.256102
vn -0.22219 0.882449 0.414627
g grp1
usemtl mtl1
f 1//1 52//52 47//47 
f 2//2 14//14 3//3 
f 2//2 11//11 14//14 
f 14//14 15//15 3//3 
f 2//2 3//3 4//4 
f 4//4 3//3 5//5 
f 12//12 11//11 2//2 
f 5//5 3//3 16//16 
f 5//5 16//16 20//20 
f 2//2 4//4 1//1 
f 4//4 6//6 8//8 
f 1//1 4//4 8//8 
f 6//6 5//5 7//7 
f 6//6 4//4 5//5 
f 20//20 26//26 7//7 
f 5//5 20//20 7//7 
f 8//8 6//6 10//10 
f 10//10 6//6 7//7 
f 9//9 10//10 7//7 
f 9//9 7//7 26//26 
f 9//9 26//26 36//36 
f 41//41 1//1 8//8 
f 8//8 10//10 41//41 
f 48//48 9//9 36//36 
f 48//48 10//10 9//9 
f 11//11 39//39 38//38 
f 141//141 11//11 38//38 
f 11//11 12//12 13//13 
f 39//39 11//11 13//13 
f 2//2 1//1 12//12 
f 12//12 1//1 47//47 
f 50//50 39//39 13//13 
f 15//15 16//16 3//3 
f 14//14 19//19 15//15 
f 38//38 142//142 141//141 
f 19//19 18//18 15//15 
f 16//16 17//17 21//21 
f 16//16 21//21 20//20 
f 16//16 15//15 17//17 
f 22//22 21//21 17//17 
f 15//15 18//18 17//17 
f 18//18 22//22 17//17 
f 22//22 18//18 23//23 
f 18//18 19//19 23//23 
f 23//23 19//19 143//143 
f 21//21 26//26 20//20 
f 21//21 24//24 26//26 
f 24//24 21//21 22//22 
f 25//25 24//24 22//22 
f 25//25 23//23 28//28 
f 25//25 22//22 23//23 
f 28//28 23//23 30//30 
f 30//30 23//23 31//31 
f 23//23 143//143 31//31 
f 24//24 27//27 26//26 
f 27//27 24//24 25//25 
f 27//27 25//25 28//28 
f 40//40 31//31 143//143 
f 27//27 32//32 26//26 
f 28//28 34//34 27//27 
f 34//34 32//32 27//27 
f 28//28 29//29 34//34 
f 29//29 31//31 35//35 
f 40//40 35//35 31//31 
f 40//40 50//50 35//35 
f 30//30 29//29 28//28 
f 31//31 29//29 30//30 
f 32//32 36//36 26//26 
f 36//36 33//33 49//49 
f 36//36 32//32 33//33 
f 35//35 50//50 51//51 
f 34//34 33//33 32//32 
f 33//33 34//34 37//37 
f 37//37 34//34 29//29 
f 35//35 51//51 37//37 
f 35//35 37//37 29//29 
f 49//49 33//33 37//37 
f 40//40 143//143 39//39 
f 50//50 40//40 39//39 
f 44//44 1//1 41//41 
f 41//41 42//42 46//46 
f 44//44 41//41 46//46 
f 48//48 57//57 43//43 
f 52//52 1//1 44//44 
f 52//52 55//55 47//47 
f 144//144 45//45 13//13 
f 13//13 45//45 50//50 
f 45//45 58//58 50//50 
f 54//54 52//52 44//44 
f 44//44 46//46 54//54 
f 56//56 46//46 42//42 
f 43//43 56//56 42//42 
f 10//10 42//42 41//41 
f 48//48 42//42 10//10 
f 36//36 49//49 48//48 
f 49//49 37//37 51//51 
f 43//43 42//42 48//48 
f 57//57 48//48 49//49 
f 144//144 13//13 12//12 
f 51//51 50//50 58//58 
f 49//49 51//51 60//60 
f 58//58 60//60 51//51 
f 57//57 49//49 60//60 
f 54//54 53//53 66//66 
f 54//54 46//46 53//53 
f 53//53 65//65 66//66 
f 145//145 61//61 144//144 
f 56//56 53//53 46//46 
f 59//59 56//56 43//43 
f 57//57 59//59 43//43 
f 59//59 53//53 56//56 
f 57//57 60//60 59//59 
f 59//59 65//65 53//53 
f 61//61 45//45 144//144 
f 45//45 62//62 58//58 
f 62//62 45//45 146//146 
f 67//67 60//60 58//58 
f 62//62 148//148 58//58 
f 52//52 64//64 55//55 
f 63//63 52//52 54//54 
f 64//64 52//52 63//63 
f 66//66 63//63 54//54 
f 71//71 61//61 145//145 
f 64//64 71//71 145//145 
f 67//67 69//69 60//60 
f 65//65 68//68 66//66 
f 147//147 69//69 149//149 
f 149//149 69//69 72//72 
f 74//74 62//62 146//146 
f 152//152 148//148 62//62 
f 75//75 69//69 67//67 
f 69//69 147//147 59//59 
f 60//60 69//69 59//59 
f 77//77 63//63 78//78 
f 76//76 64//64 81//81 
f 77//77 79//79 81//81 
f 97//97 76//76 81//81 
f 70//70 63//63 66//66 
f 66//66 68//68 70//70 
f 64//64 77//77 81//81 
f 64//64 63//63 77//77 
f 73//73 71//71 64//64 
f 63//63 70//70 78//78 
f 70//70 68//68 72//72 
f 72//72 75//75 84//84 
f 72//72 85//85 70//70 
f 84//84 75//75 86//86 
f 153//153 152//152 154//154 
f 154//154 152//152 88//88 
f 146//146 150//150 74//74 
f 76//76 73//73 64//64 
f 87//87 74//74 150//150 
f 151//151 73//73 87//87 
f 72//72 69//69 75//75 
f 148//148 152//152 153//153 
f 85//85 78//78 70//70 
f 85//85 91//91 78//78 
f 77//77 78//78 80//80 
f 77//77 80//80 79//79 
f 91//91 80//80 78//78 
f 81//81 79//79 90//90 
f 90//90 79//79 80//80 
f 85//85 93//93 91//91 
f 82//82 73//73 76//76 
f 76//76 97//97 82//82 
f 72//72 84//84 85//85 
f 86//86 102//102 84//84 
f 74//74 87//87 155//155 
f 83//83 155//155 87//87 
f 88//88 102//102 154//154 
f 87//87 73//73 82//82 
f 82//82 83//83 87//87 
f 106//106 92//92 94//94 
f 105//105 97//97 81//81 
f 105//105 89//89 97//97 
f 107//107 81//81 92//92 
f 107//107 92//92 106//106 
f 98//98 89//89 122//122 
f 91//91 90//90 80//80 
f 92//92 81//81 90//90 
f 92//92 90//90 94//94 
f 94//94 90//90 91//91 
f 94//94 91//91 95//95 
f 93//93 95//95 91//91 
f 101//101 96//96 93//93 
f 101//101 109//109 96//96 
f 95//95 93//93 96//96 
f 109//109 111//111 96//96 
f 82//82 97//97 83//83 
f 97//97 98//98 83//83 
f 98//98 99//99 83//83 
f 103//103 83//83 99//99 
f 97//97 89//89 98//98 
f 110//110 103//103 99//99 
f 128//128 110//110 99//99 
f 112//112 103//103 110//110 
f 93//93 84//84 101//101 
f 85//85 84//84 93//93 
f 101//101 84//84 102//102 
f 101//101 102//102 109//109 
f 102//102 88//88 103//103 
f 100//100 109//109 102//102 
f 103//103 155//155 83//83 
f 100//100 102//102 103//103 
f 94//94 95//95 104//104 
f 106//106 94//94 104//104 
f 106//106 104//104 114//114 
f 114//114 104//104 115//115 
f 95//95 115//115 104//104 
f 107//107 105//105 81//81 
f 105//105 121//121 89//89 
f 89//89 121//121 122//122 
f 120//120 121//121 105//105 
f 120//120 105//105 107//107 
f 106//106 119//119 107//107 
f 120//120 107//107 119//119 
f 122//122 99//99 98//98 
f 123//123 128//128 99//99 
f 95//95 96//96 108//108 
f 96//96 111//111 108//108 
f 115//115 95//95 108//108 
f 124//124 108//108 111//111 
f 112//112 100//100 103//103 
f 100//100 113//113 109//109 
f 113//113 100//100 112//112 
f 111//111 109//109 113//113 
f 124//124 111//111 140//140 
f 111//111 113//113 140//140 
f 110//110 128//128 112//112 
f 114//114 115//115 116//116 
f 116//116 115//115 117//117 
f 117//117 115//115 108//108 
f 124//124 117//117 108//108 
f 130//130 114//114 116//116 
f 130//130 116//116 118//118 
f 118//118 116//116 117//117 
f 118//118 135//135 130//130 
f 125//125 120//120 119//119 
f 119//119 106//106 114//114 
f 126//126 121//121 120//120 
f 121//121 126//126 127//127 
f 122//122 121//121 127//127 
f 127//127 123//123 122//122 
f 123//123 99//99 122//122 
f 114//114 130//130 125//125 
f 119//119 114//114 125//125 
f 124//124 140//140 137//137 
f 125//125 129//129 120//120 
f 120//120 129//129 126//126 
f 127//127 126//126 131//131 
f 127//127 131//131 132//132 
f 132//132 123//123 127//127 
f 132//132 128//128 123//123 
f 124//124 118//118 117//117 
f 124//124 137//137 118//118 
f 128//128 138//138 140//140 
f 133//133 125//125 130//130 
f 125//125 133//133 129//129 
f 133//133 134//134 129//129 
f 126//126 129//129 134//134 
f 131//131 126//126 134//134 
f 139//139 133//133 135//135 
f 133//133 130//130 135//135 
f 132//132 138//138 128//128 
f 134//134 133//133 139//139 
f 136//136 134//134 139//139 
f 134//134 136//136 131//131 
f 131//131 136//136 132//132 
f 139//139 135//135 137//137 
f 138//138 136//136 139//139 
f 132//132 136//136 138//138 
f 137//137 135//135 118//118 
f 139//139 137//137 138//138 
f 138//138 137//137 140//140 
f 128//128 140//140 112//112 
f 112//112 140//140 113//113 
