# Blender v2.77 (sub 0) OBJ File: ''
# www.blender.org
mtllib set of calcaneal branches of posterior tibial artery l.mtl
o grp1.002
v -75.437012 -120.275757 769.215332
v -75.049759 -120.201172 770.587158
v -77.293243 -122.543304 770.662842
v -76.674637 -121.382202 772.353271
v -76.007812 -119.441154 772.523132
v -77.131897 -121.369263 768.297485
v -83.726562 -105.359497 764.894531
v -78.973877 -122.017014 769.596436
v -81.467773 -106.818481 767.106934
v -79.588882 -121.606339 770.628662
v -78.598999 -120.935860 772.776001
v -85.011719 -102.617310 768.599609
v -88.912109 -101.355591 767.579590
v -88.281250 -102.929810 764.755859
v -86.282959 -98.815796 766.507568
v -90.033020 -100.911987 765.986450
v -87.815430 -96.668091 764.730469
v -90.285156 -96.257935 762.875000
v -94.036499 -95.423950 763.734497
v -91.955444 -92.134155 763.307617
v -92.153229 -92.284058 765.988770
v -92.307602 -90.940033 764.298462
v -93.916260 -94.531311 766.289062
v -92.615303 -93.719223 766.646973
v -92.615303 -93.719223 766.646973
v -93.785645 -94.342773 766.439209
v -92.615303 -93.719223 766.646973
v -93.651100 -93.275124 767.244019
v -100.251465 -88.650940 761.951172
v -97.898010 -88.458618 762.354248
v -94.300964 -89.848297 764.491699
v -96.131592 -94.099945 764.525879
v -98.355469 -90.552864 773.724609
v -99.353027 -88.719917 776.193359
v -96.835571 -88.108887 763.848755
v -98.122803 -91.517700 765.364807
v -97.313354 -89.120483 765.867615
v -103.531250 -89.248909 775.472656
v -101.162598 -90.781868 774.519043
v -98.235367 -89.925629 766.347107
v -99.517578 -86.671516 772.886230
v -103.550171 -89.244751 763.051880
v -100.895508 -86.285339 763.700439
v -98.268921 -91.782135 763.538452
v -98.213318 -89.985504 766.076050
v -98.690918 -89.643921 766.406616
v -98.593750 -89.360840 766.328369
v -98.238251 -89.904488 765.993713
v -98.186584 -89.355957 765.887817
v -98.079102 -89.574341 766.276367
v -97.333900 -89.111221 765.874023
v -100.867188 -87.128540 772.179688
v -102.205811 -86.760628 781.503906
v -104.000488 -86.459412 765.770874
v -102.071777 -90.002693 778.886719
v -105.081055 -88.093384 762.546387
v -104.072266 -87.084724 776.666992
v -104.087219 -86.009827 780.179077
v -103.228271 -89.566383 784.933960
v -106.586533 -89.126511 764.496460
v -105.716797 -88.400024 765.748291
v -104.178955 -90.284096 783.189758
v -105.324951 -88.578255 790.111328
v -106.421875 -87.907837 762.655762
v -107.421387 -85.619446 764.893799
v -105.597534 -90.077278 783.038574
v -105.042038 -92.565193 793.737061
v -106.319092 -93.340950 792.525391
v -106.367432 -99.207161 809.890625
v -105.726349 -102.472786 813.083496
v -107.043358 -103.270638 813.209961
v -106.522644 -103.478271 820.118408
v -107.032791 -101.432747 815.127930
v -107.350006 -104.492485 821.489319
v -106.128418 -85.982300 762.989990
v -106.918640 -88.977669 784.576172
v -106.467285 -88.280891 789.107422
v -107.998825 -92.429817 797.070312
v -107.946800 -103.099739 815.552124
v -107.971619 -102.656990 818.982910
v -108.276169 -102.740891 822.461548
v -109.441406 -103.499161 830.089844
v -106.328888 -87.528572 783.832336
v -108.212830 -96.226692 800.169922
v -107.690857 -90.102913 791.714844
v -108.616524 -102.757088 824.868164
v -108.854858 -104.188454 823.272461
v -111.097717 -101.712570 836.156860
v -111.200165 -101.681564 836.052795
v -111.616638 -101.239792 836.049927
v -112.014999 -102.054184 836.032837
v -124.329712 -87.807991 767.637512
v -128.892578 -89.638672 766.612305
v -122.390625 -88.312378 765.797363
v -122.898438 -89.905701 768.496582
v -120.187500 -90.563477 766.309082
v -127.417969 -90.573547 767.798584
v -131.809570 -87.093872 767.635254
v -130.074219 -89.133423 769.531494
v -131.490723 -87.125549 769.000610
v -134.171387 -88.956177 768.960205
v -139.425781 -85.389771 768.498047
v -137.150513 -87.792046 768.878296
v -137.525391 -84.942505 768.642090
v -139.503906 -85.925415 770.676758
v -128.514694 -51.749088 770.060364
v -128.817108 -51.018253 770.256836
v -129.087524 -51.406986 769.751709
v -129.148911 -51.073551 770.126587
v -133.751007 -54.777527 770.711975
v -134.414062 -55.556767 771.435547
v -129.204102 -51.754032 770.777832
v -128.889847 -51.339146 770.675232
v -128.856003 -51.090427 770.268005
v -128.878036 -51.347904 770.665039
v -136.277344 -55.303349 771.285400
v -134.898438 -55.117313 772.069336
v -137.744141 -84.590942 770.210571
v -134.447998 -55.589325 771.445007
v -141.374023 -82.320435 771.610107
v -136.048004 -56.036724 771.010010
v -136.064697 -56.071781 770.973511
v -142.211914 -80.355835 771.014771
v -138.281250 -58.605595 771.994141
v -137.210938 -57.625126 771.618164
v -137.014999 -57.490025 771.575012
v -140.802002 -59.113407 772.824951
v -142.223145 -83.916748 770.546753
v -141.275391 -60.592411 771.992920
v -142.954102 -82.512817 769.896484
v -145.226074 -76.779419 771.438965
v -141.030273 -61.818974 773.161255
v -144.727295 -65.224251 774.220886
v -142.841309 -64.008911 772.627197
v -145.141113 -80.017212 771.937744
v -144.592773 -77.847786 773.335938
v -146.742798 -75.119751 772.261963
v -145.017822 -74.135872 772.706787
v -144.489258 -67.835091 774.092773
v -146.092041 -67.550667 773.109863
v -146.904907 -74.155403 773.686768
v -145.189209 -71.674934 773.910645
v -145.339844 -69.344139 772.760315
v -145.134766 -71.554817 773.944824
v -146.210205 -71.159309 774.484619
vn 0.9859 -0.1550 0.0637
vn 0.1867 -0.9791 0.0809
vn 0.8335 -0.1958 -0.5167
vn 0.2147 -0.5624 -0.7985
vn 0.4186 -0.5825 0.6968
vn 0.5978 0.1703 0.7833
vn 0.3853 0.0441 -0.9217
vn -0.3570 -0.3789 0.8538
vn -0.4778 -0.7944 -0.3750
vn 0.8838 0.4428 -0.1512
vn -0.7364 -0.6595 0.1507
vn 0.3091 0.3879 0.8683
vn -0.6532 -0.1659 0.7388
vn -0.5475 -0.4597 -0.6992
vn 0.7668 0.5813 0.2720
vn -0.8346 -0.5307 0.1474
vn 0.7721 0.5482 -0.3215
vn 0.1812 -0.0110 -0.9834
vn 0.7754 0.4303 0.4622
vn 0.6346 0.4976 -0.5914
vn -0.5942 -0.6432 -0.4830
vn -0.2757 -0.7284 0.6273
vn 0.7660 0.6287 -0.1339
vn -0.0091 0.2091 0.9779
vn 0.3130 -0.6508 0.6917
vn 0.1825 -0.5874 0.7885
vn 0.5875 -0.4108 0.6972
vn 0.5507 0.1947 0.8117
vn -0.0197 0.0647 -0.9977
vn 0.3157 0.4950 -0.8095
vn -0.2590 -0.9538 0.1525
vn 0.4734 -0.7040 0.5294
vn 0.4091 -0.6981 0.5876
vn -0.5714 -0.7765 0.2656
vn 0.4555 0.8822 -0.1193
vn 0.4931 0.8692 -0.0381
vn -0.6197 -0.7684 -0.1598
vn -0.9399 -0.3248 -0.1053
vn 0.0821 0.9872 0.1367
vn -0.8661 -0.3527 -0.3542
vn 0.2737 0.9597 -0.0640
vn -0.2889 -0.6581 -0.6953
vn 0.2856 0.9485 -0.1374
vn -0.8302 0.3699 -0.4172
vn -0.9953 -0.0971 0.0038
vn -0.2062 0.8051 0.5562
vn -0.2450 0.8586 0.4503
vn -0.2273 0.8210 0.5238
vn -0.4710 0.7434 -0.4748
vn 0.6591 0.6515 0.3757
vn 0.1045 0.5988 0.7941
vn -0.0187 0.1172 0.9929
vn -0.5226 -0.4048 0.7504
vn 0.5481 -0.8020 0.2375
vn -0.0713 0.7198 -0.6905
vn -0.7817 0.5043 -0.3669
vn -0.2796 0.9600 -0.0163
vn 0.8812 -0.4602 0.1083
vn -0.1941 -0.7234 -0.6625
vn -0.0269 -0.9996 0.0001
vn -0.0109 -0.5062 0.8623
vn 0.2228 -0.9747 0.0197
vn -0.0547 0.9786 0.1984
vn -0.5299 -0.8092 -0.2539
vn 0.9695 -0.2451 0.0050
vn 0.4102 -0.8822 -0.2311
vn 0.3933 0.8101 0.4347
vn 0.3362 0.8142 0.4733
vn 0.9260 -0.3721 -0.0645
vn 0.9745 0.0502 0.2186
vn -0.5110 0.8376 0.1930
vn 0.3761 -0.9228 0.0838
vn -0.1495 -0.9448 -0.2917
vn -0.9745 -0.0805 -0.2096
vn -0.7797 0.6239 -0.0528
vn -0.4274 0.8795 0.2096
vn -0.7250 0.6188 0.3025
vn -0.8730 -0.4305 -0.2290
vn -0.9726 -0.2174 -0.0822
vn -0.9129 0.4013 -0.0741
vn -0.8168 -0.5752 -0.0439
vn 0.4820 0.8708 0.0965
vn 0.4950 -0.8113 0.3111
vn -0.1344 -0.0724 -0.9883
vn -0.8862 0.4501 0.1099
vn -0.4604 0.8714 -0.1694
vn 0.6021 0.7982 -0.0166
vn 0.4443 -0.1990 0.8735
vn -0.7535 -0.4201 0.5058
vn -0.2950 0.8407 0.4541
vn 0.0476 0.9746 0.2188
vn 0.0510 -0.3322 0.9418
vn -0.2746 -0.4697 -0.8390
vn 0.1490 -0.5359 0.8310
vn -0.2377 0.7427 -0.6260
vn 0.0022 -0.9751 -0.2216
vn -0.1072 -0.9911 0.0784
vn 0.3030 0.8223 0.4816
vn 0.0698 0.7938 -0.6041
vn -0.2845 -0.9515 0.1171
vn -0.4728 -0.8352 -0.2808
vn 0.2047 0.7335 -0.6481
vn -0.2774 -0.5858 0.7615
vn 0.8064 0.5119 -0.2962
vn 0.8984 -0.3544 -0.2593
vn 0.1269 0.2547 -0.9587
vn -0.3027 0.9278 -0.2180
vn 0.4484 -0.2379 0.8616
vn 0.6042 -0.7453 0.2821
vn 0.8343 -0.1188 0.5383
vn 0.4771 0.6085 0.6341
vn 0.2943 -0.6564 -0.6946
vn -0.6024 0.7431 -0.2915
vn 0.0462 0.2106 0.9765
vn 0.3530 -0.2599 0.8988
vn 0.0015 0.3468 0.9380
vn -0.1918 0.8438 0.5012
vn -0.4270 -0.1589 -0.8902
vn 0.5337 -0.7709 -0.3477
vn -0.3350 0.2065 -0.9193
vn 0.2237 -0.4944 -0.8399
vn 0.8000 0.5983 -0.0447
vn 0.5719 0.2698 0.7747
vn 0.7154 -0.6567 0.2387
vn 0.4276 -0.6417 -0.6367
vn 0.0689 -0.3938 -0.9166
vn -0.6328 0.6717 0.3853
vn -0.7119 -0.6927 0.1153
vn -0.6461 -0.2172 -0.7317
vn -0.4778 0.1454 -0.8663
vn -0.0117 0.2588 -0.9659
vn 0.7143 -0.5988 0.3624
vn -0.4953 0.3777 0.7823
vn -0.8515 -0.4883 0.1908
vn 0.8335 -0.4797 -0.2742
vn 0.1970 -0.1239 0.9725
vn -0.8552 -0.0368 -0.5170
vn 0.6051 -0.0934 0.7907
vn -0.8992 0.2612 -0.3510
vn 0.9736 0.1595 -0.1634
vn -0.3891 0.0038 0.9212
vn -0.8322 -0.1291 0.5392
vn 0.4679 -0.1841 0.8644
vn 0.2154 -0.0704 -0.9740
vn 0.9940 -0.1043 0.0321
usemtl mtl1.002
s 1
f 2//1 3//2 1//3
f 3//2 6//4 1//3
f 3//2 2//1 4//5
f 4//5 2//1 5//6
f 7//7 1//3 6//4
f 4//5 5//6 11//8
f 8//9 6//4 3//2
f 2//1 9//10 5//6
f 8//9 3//2 10//11
f 11//8 3//2 4//5
f 5//6 12//12 11//8
f 12//12 13//13 11//8
f 10//11 3//2 11//8
f 10//11 11//8 13//13
f 7//7 9//10 1//3
f 6//4 8//9 14//14
f 1//3 9//10 2//1
f 15//15 12//12 5//6
f 5//6 9//10 15//15
f 13//13 8//9 10//11
f 7//7 6//4 14//14
f 8//9 13//13 16//16
f 15//15 9//10 17//17
f 7//7 17//17 9//10
f 8//9 16//16 14//14
f 18//18 17//17 7//7
f 12//12 15//15 21//19
f 7//7 14//14 18//18
f 20//20 17//17 18//18
f 14//14 16//16 19//21
f 15//15 17//17 21//19
f 13//13 12//12 23//22
f 17//17 20//20 21//19
f 18//18 14//14 19//21
f 20//20 22//23 21//19
f 23//22 16//16 13//13
f 12//12 21//19 24//24
f 19//21 16//16 23//22
f 23//22 12//12 24//24
f 26//25 27//26 28//27
f 21//19 28//27 25//28
f 18//18 29//29 20//20
f 20//20 30//30 22//23
f 26//25 39//31 23//22
f 28//27 21//19 34//32
f 34//32 33//33 28//27
f 44//34 18//18 19//21
f 30//30 20//20 29//29
f 22//23 30//30 31//35
f 35//36 31//35 30//30
f 44//34 19//21 32//37
f 28//27 33//33 26//25
f 36//38 44//34 32//37
f 35//36 37//39 31//35
f 19//21 39//31 32//37
f 38//40 32//37 39//31
f 22//23 31//35 41//41
f 26//25 33//33 39//31
f 37//39 41//41 31//35
f 23//22 39//31 19//21
f 42//42 18//18 44//34
f 42//42 29//29 18//18
f 35//36 30//30 43//43
f 36//38 40//44 45//45
f 49//46 50//47 51//48
f 32//37 38//40 36//38
f 40//44 41//41 37//39
f 52//49 41//41 40//44
f 53//50 34//32 21//19
f 22//23 53//50 21//19
f 54//51 37//39 35//36
f 44//34 36//38 45//45
f 49//52 37//39 54//51
f 49//52 54//51 48//53
f 41//41 53//50 22//23
f 54//51 35//36 43//43
f 48//53 44//34 45//45
f 36//38 52//49 40//44
f 39//31 33//33 55//54
f 33//33 34//32 55//54
f 30//30 75//55 43//43
f 52//49 36//38 57//56
f 58//57 53//50 41//41
f 41//41 52//49 58//57
f 55//54 34//32 59//58
f 34//32 53//50 59//58
f 29//29 75//55 30//30
f 56//59 29//29 42//42
f 60//60 44//34 48//53
f 48//53 61//61 60//60
f 48//53 54//51 61//61
f 36//38 38//40 57//56
f 52//49 57//56 58//57
f 39//31 55//54 62//62
f 62//62 55//54 59//58
f 42//42 44//34 60//60
f 65//63 54//51 43//43
f 66//64 38//40 39//31
f 62//62 59//58 67//65
f 62//62 67//65 68//66
f 53//50 67//65 59//58
f 67//65 53//50 63//67
f 69//68 67//65 63//67
f 67//65 69//68 70//69
f 67//65 70//69 68//66
f 72//70 70//69 69//68
f 73//71 72//70 69//68
f 74//72 71//73 70//69
f 72//70 74//72 70//69
f 65//63 43//43 75//55
f 38//40 76//74 57//56
f 58//57 57//56 83//75
f 76//74 83//75 57//56
f 66//64 39//31 62//62
f 58//57 63//67 53//50
f 58//57 77//76 63//67
f 78//77 63//67 77//76
f 71//73 68//66 70//69
f 84//78 71//73 79//79
f 73//71 69//68 79//79
f 80//80 73//71 79//79
f 87//81 71//73 74//72
f 87//81 79//79 71//73
f 73//71 81//82 72//70
f 80//80 81//82 73//71
f 82//83 74//72 72//70
f 64//84 75//55 29//29
f 56//59 42//42 60//60
f 66//64 76//74 38//40
f 76//74 66//64 84//78
f 77//76 58//57 83//75
f 76//74 85//85 83//75
f 68//66 66//64 62//62
f 66//64 68//66 84//78
f 77//76 83//75 85//85
f 77//76 85//85 78//77
f 78//77 69//68 63//67
f 71//73 84//78 68//66
f 78//77 79//79 69//68
f 79//79 78//77 84//78
f 79//79 87//81 80//80
f 80//80 87//81 86//86
f 86//86 72//70 81//82
f 87//81 74//72 82//83
f 76//74 84//78 85//85
f 84//78 78//77 85//85
f 72//70 89//87 82//83
f 88//88 82//83 89//87
f 91//89 82//83 88//88
f 72//70 86//86 90//90
f 72//70 90//90 89//87
f 88//88 90//90 91//89
f 91//89 86//86 87//81
f 90//90 86//86 91//89
f 82//83 91//89 87//81
f 92//91 99//92 54//51
f 93//93 75//55 64//84
f 75//55 92//91 65//63
f 92//91 54//51 65//63
f 95//94 61//61 54//51
f 93//93 94//95 75//55
f 96//96 56//59 60//60
f 96//96 60//60 61//61
f 94//95 92//91 75//55
f 56//59 93//93 64//84
f 56//59 96//96 93//93
f 96//96 61//61 95//94
f 95//94 54//51 99//92
f 95//94 97//97 96//96
f 93//93 96//96 97//97
f 99//92 92//91 100//98
f 93//93 98//99 94//95
f 95//94 99//92 97//97
f 92//91 94//95 98//99
f 98//99 100//98 92//91
f 99//92 101//100 97//97
f 103//101 93//93 97//97
f 103//101 97//97 101//100
f 98//99 93//93 104//102
f 105//103 101//100 99//92
f 107//104 106//105 108//106
f 107//104 108//106 109//107
f 112//108 111//109 106//105
f 106//105 107//104 113//110
f 112//108 106//105 113//110
f 118//111 100//98 98//99
f 106//105 110//112 108//106
f 116//113 109//107 108//106
f 110//112 106//105 111//109
f 117//114 112//108 115//115
f 109//107 113//116 114//117
f 117//114 115//115 113//116
f 109//107 116//113 113//116
f 116//113 117//114 113//116
f 103//101 102//118 93//93
f 99//92 100//98 118//111
f 117//114 111//109 112//108
f 118//111 98//99 104//102
f 105//103 99//92 118//111
f 110//112 111//109 119//119
f 102//118 104//102 93//93
f 103//101 101//100 105//103
f 121//120 116//113 108//106
f 122//121 108//106 110//112
f 104//102 123//122 118//111
f 120//123 105//103 118//111
f 111//109 117//114 124//124
f 124//124 125//125 119//119
f 110//112 126//126 122//121
f 110//112 119//119 125//125
f 104//102 102//118 123//122
f 127//127 117//114 116//113
f 128//128 102//118 103//101
f 103//101 105//103 128//128
f 120//123 118//111 123//122
f 128//128 130//129 102//118
f 116//113 121//120 129//130
f 126//126 125//125 122//121
f 102//118 131//131 123//122
f 132//132 117//114 133//133
f 128//128 105//103 135//134
f 134//135 125//125 124//124
f 124//124 117//114 132//132
f 125//125 129//130 122//121
f 128//128 135//134 130//129
f 131//131 102//118 130//129
f 133//133 117//114 127//127
f 123//122 136//136 120//123
f 105//103 120//123 136//136
f 125//125 134//135 129//130
f 127//127 116//113 129//130
f 130//129 135//134 137//137
f 130//129 137//137 131//131
f 134//135 124//124 132//132
f 136//136 135//134 105//103
f 139//138 134//135 132//132
f 127//127 129//130 140//139
f 131//131 138//140 123//122
f 138//140 136//136 123//122
f 139//138 133//133 145//141
f 139//138 132//132 133//133
f 136//136 141//142 135//134
f 136//136 138//140 142//143
f 143//144 129//130 134//135
f 143//144 140//139 129//130
f 140//139 133//133 127//127
f 143//144 131//131 137//137
f 143//144 138//140 131//131
f 143//144 144//145 138//140
f 143//144 134//135 144//145
f 144//145 134//135 139//138
f 135//134 141//142 137//137
f 141//142 136//136 145//141
f 138//140 144//145 142//143
f 136//136 142//143 145//141
f 142//143 139//138 145//141
f 143//144 137//137 140//139
f 137//137 141//142 140//139
f 141//142 145//141 140//139
f 140//139 145//141 133//133
l 46 47
