# Blender v2.77 (sub 0) OBJ File: ''
# www.blender.org
mtllib set of perforating arteries 3.mtl
o grp1.009
v -69.637421 -112.390999 547.880310
v -69.910660 -112.463776 548.560791
v -70.802147 -113.224884 548.625000
v -70.499084 -112.396515 546.069763
v -70.907318 -113.123444 546.696228
v -71.788208 -109.267426 546.555481
v -71.627525 -113.214455 547.665222
v -70.868408 -112.234161 549.629028
v -70.196411 -111.660370 549.065674
v -73.650146 -106.461029 548.580078
v -73.133362 -111.944916 547.414185
v -73.202148 -109.961517 546.071045
v -72.068481 -112.172821 549.477051
v -74.778809 -106.088959 548.685059
v -74.258301 -105.171967 545.257080
v -73.942871 -104.352142 546.114380
v -75.274902 -105.753998 544.956055
v -76.119446 -106.843353 545.999634
v -75.004395 -115.452118 584.431274
v -74.055176 -115.707375 585.384949
v -76.162598 -115.953339 584.854980
v -75.412109 -117.021255 586.763306
v -74.778824 -110.068092 586.965088
v -74.503357 -116.299721 587.760925
v -75.485077 -116.317360 588.246460
v -76.345032 -106.456146 547.635620
v -76.112549 -104.856537 547.629150
v -77.224854 -106.262054 583.030029
v -78.030151 -108.518646 583.799316
v -74.801300 -110.563095 585.156006
v -74.801300 -110.563095 585.156006
v -76.485352 -105.519623 583.849609
v -76.641754 -104.802002 584.473145
v -76.732986 -116.530464 586.667114
v -75.662354 -110.875587 588.059570
v -76.976929 -110.875099 588.221069
v -75.560486 -100.551239 543.035767
v -75.639038 -100.171143 543.848328
v -79.780884 -106.380707 585.019043
v -78.750488 -108.493263 586.979980
v -76.287567 -101.081146 542.743286
v -76.741302 -100.177483 543.918884
v -76.891785 -100.709442 543.061890
v -77.302002 -104.567238 585.408691
v -77.164551 -107.444435 587.454590
v -78.609863 -105.168068 585.997070
v -78.164062 -103.130096 580.320312
v -78.480347 -104.428680 579.738281
v -78.476868 -106.250580 582.418701
v -79.148895 -108.011810 584.450928
v -77.744751 -108.506363 663.892761
v -78.655518 -108.628647 662.345947
v -78.188873 -105.983025 663.977600
v -77.654381 -107.271416 664.680359
v -78.795410 -107.239967 661.974976
v -78.845642 -109.544746 663.969788
v -78.081543 -108.473129 665.381836
v -78.550201 -106.404892 665.822266
v -80.255066 -102.945160 574.324951
v -78.745773 -102.494926 581.675415
v -79.947235 -104.971375 579.059204
v -79.408951 -105.827026 582.384521
v -80.348145 -104.658722 582.302063
v -79.123108 -102.917023 583.175537
v -79.854858 -103.838959 583.723145
v -80.341522 -109.172165 662.398376
v -83.309326 -104.791489 661.711304
v -80.347290 -109.618942 665.124268
v -78.824097 -107.608261 666.423462
v -80.274170 -117.052132 715.676025
v -81.796631 -117.854362 715.267944
v -80.851013 -118.890518 716.721497
v -79.861443 -118.228035 717.669312
v -79.592209 -115.833260 717.144775
v -84.791016 -109.459099 714.728516
v -81.861969 -119.085808 718.432861
v -79.969116 -117.386223 719.069336
v -80.689819 -116.385429 719.716675
v -81.911072 -117.627068 720.011414
v -80.458160 -104.357635 574.432739
v -80.225647 -103.553818 574.024780
v -80.617920 -102.741264 579.893066
v -86.974365 -104.823837 661.934570
v -84.674194 -102.134262 663.628906
v -82.412109 -104.130966 665.406738
v -81.969055 -108.305038 665.852051
v -84.105469 -105.462509 666.099854
v -85.616211 -111.898552 714.265137
v -82.747375 -118.798515 716.318237
v -83.064148 -118.008904 719.474365
v -81.304047 -104.259277 574.388123
v -81.343628 -103.248810 574.111206
v -81.760765 -103.726028 574.711426
v -81.368858 -102.687378 574.639282
v -84.325134 -107.603500 663.840454
v -85.095703 -109.550896 717.601562
v -88.532715 -104.056755 714.221191
v -83.561958 -118.625137 717.327026
v -89.778809 -107.483513 715.579102
v -86.380859 -110.941521 718.152344
v -85.311523 -102.364975 661.288818
v -86.722412 -105.006699 664.643799
v -85.987305 -102.852158 664.857910
v -88.788086 -105.706169 715.866211
v -85.840332 -103.721298 660.925537
v -86.320312 -100.457993 660.980957
v -88.583984 -107.645622 712.969238
v -88.696777 -103.776970 712.417480
v -88.427368 -103.314560 662.344971
v -91.543457 -104.243279 712.864746
v -88.873352 -95.563934 654.416443
v -89.703041 -96.481064 654.052734
v -88.761719 -98.043076 658.804688
v -88.022949 -101.728622 663.049805
v -89.856934 -104.082146 711.106445
v -89.493652 -100.179794 657.778320
v -89.319336 -100.640732 660.529297
v -91.159180 -104.343864 711.435547
v -90.539352 -95.912186 654.544739
v -89.834030 -95.006287 655.223816
v -91.492188 -101.804802 712.095703
v -91.382080 -99.774727 707.657104
v -91.533691 -99.252556 707.846680
v -91.960938 -99.078178 708.285156
v -92.445740 -100.475945 707.527832
v -91.481003 -100.482117 707.703979
v -91.628601 -100.033112 707.499023
v -91.628601 -100.033112 707.499023
v -92.250221 -99.410637 707.613281
v -91.417801 -99.781311 707.677979
v -93.052322 -99.821365 708.291687
vn 0.8200 -0.3694 0.4372
vn 0.1599 -0.9135 0.3740
vn 0.9825 -0.1668 -0.0831
vn 0.7655 0.3237 0.5561
vn 0.7000 0.3166 -0.6401
vn 0.4619 -0.2625 -0.8472
vn 0.0261 -0.8511 -0.5243
vn -0.3842 -0.9230 -0.0222
vn 0.2491 -0.2428 0.9375
vn 0.5198 0.4810 0.7060
vn -0.7194 -0.6727 -0.1730
vn -0.2017 -0.2984 -0.9329
vn -0.4629 -0.4377 0.7708
vn -0.1617 0.3360 0.9279
vn 0.6378 -0.0260 -0.7698
vn 0.9088 0.4155 -0.0394
vn -0.0925 -0.3524 -0.9313
vn -0.8046 -0.3859 -0.4514
vn -0.3998 -0.6041 -0.6894
vn 0.8160 -0.4063 -0.4112
vn 0.1040 -0.9945 0.0076
vn 0.7215 -0.4462 0.5295
vn 0.8851 0.3199 0.3380
vn -0.1345 -0.4823 0.8656
vn -0.8947 -0.1630 0.4158
vn -0.5915 0.3922 0.7045
vn 0.2997 -0.3906 -0.8704
vn -0.3824 -0.3175 -0.8678
vn 0.9762 0.2049 -0.0707
vn 0.7329 0.0693 -0.6768
vn 0.9124 0.1334 -0.3870
vn 0.8221 0.5550 0.1270
vn -0.7489 -0.6521 0.1179
vn 0.4448 0.1759 0.8782
vn -0.2963 0.0252 0.9548
vn 0.5279 0.4961 -0.6894
vn 0.4419 0.8854 0.1439
vn -0.5452 0.8153 0.1952
vn 0.6173 -0.2742 -0.7374
vn -0.9703 -0.0294 0.2400
vn -0.7447 -0.0245 0.6669
vn 0.1223 0.4267 0.8961
vn -0.0994 -0.0917 -0.9908
vn -0.7787 0.2955 -0.5535
vn 0.3848 0.7047 0.5961
vn 0.7474 -0.5109 -0.4247
vn 0.8565 0.4262 -0.2910
vn -0.0153 -0.6759 -0.7368
vn 0.2540 0.9631 0.0884
vn -0.8422 -0.4402 -0.3113
vn -0.3964 0.5286 0.7506
vn 0.9098 -0.3737 -0.1807
vn 0.7448 0.6364 -0.2007
vn 0.9767 0.1557 0.1477
vn 0.5177 -0.4716 -0.7139
vn 0.5003 0.1786 -0.8472
vn 0.7215 -0.4657 0.5125
vn 0.3692 -0.9287 -0.0339
vn 0.3705 -0.1011 0.9233
vn 0.5567 0.5239 0.6446
vn 0.4809 0.6643 -0.5722
vn -0.1351 -0.9827 -0.1265
vn -0.5514 -0.7311 -0.4019
vn -0.1807 0.8908 0.4169
vn -0.7695 0.4408 0.4621
vn -0.1478 -0.7241 -0.6737
vn -0.1248 -0.9146 0.3847
vn 0.4216 -0.8523 -0.3094
vn 0.6764 -0.1049 -0.7290
vn 0.8199 -0.5671 0.0790
vn 0.9483 0.3121 -0.0573
vn 0.6511 0.3440 -0.6766
vn 0.0335 -0.9339 0.3559
vn 0.7903 -0.2246 0.5701
vn 0.4930 0.2268 0.8399
vn 0.0269 -0.3357 0.9416
vn 0.5135 -0.0601 -0.8560
vn 0.3220 -0.7761 -0.5422
vn -0.6951 0.6965 0.1782
vn -0.9528 -0.2989 0.0533
vn 0.2998 0.2452 -0.9220
vn 0.4456 0.8779 0.1754
vn 0.2870 0.6652 0.6893
vn -0.3692 -0.5581 0.7431
vn -0.2595 -0.0221 0.9655
vn 0.0400 -0.4529 -0.8907
vn 0.0419 -0.1914 -0.9806
vn -0.3386 -0.8182 -0.4647
vn -0.6676 -0.7444 -0.0101
vn -0.5294 -0.4904 0.6923
vn -0.4781 -0.7100 -0.5170
vn -0.4874 0.2303 -0.8422
vn -0.5207 0.8109 -0.2671
vn -0.9703 -0.1946 -0.1439
vn -0.4997 -0.7203 -0.4812
vn -0.5825 -0.8125 0.0256
vn 0.4236 0.5787 0.6969
vn 0.5020 0.7527 0.4259
vn -0.8517 -0.1574 0.4998
vn -0.4054 0.0816 0.9105
vn 0.2251 -0.4161 -0.8810
vn 0.8145 0.2521 -0.5226
vn -0.7382 -0.3447 0.5799
vn -0.2507 0.4760 0.8429
vn -0.1703 0.5262 0.8331
vn 0.7804 0.6251 -0.0144
vn -0.9117 -0.3650 0.1888
vn 0.8778 0.2453 -0.4115
vn -0.0753 -0.3957 -0.9153
vn -0.9243 -0.1985 0.3261
vn 0.5828 0.5417 -0.6058
vn -0.0821 -0.2207 -0.9719
vn -0.1621 0.7431 0.6493
vn -0.6202 0.4051 0.6717
vn 0.3905 -0.4943 -0.7767
vn -0.6905 -0.5875 -0.4221
vn -0.9273 0.1112 0.3575
vn -0.5896 -0.6073 -0.5325
vn -0.8733 0.2574 -0.4136
vn -0.2745 0.9524 0.1330
vn -0.4460 0.6143 0.6509
vn 0.8940 0.1205 -0.4316
vn 0.7796 0.6202 0.0872
vn 0.0780 0.9855 0.1507
vn 0.4611 -0.4134 -0.7852
vn 0.6307 -0.1462 -0.7621
vn -0.4750 -0.3461 -0.8090
vn 0.1075 0.0913 -0.9900
vn -0.2665 0.6483 -0.7132
vn 0.3134 0.5771 -0.7541
vn -0.9429 0.3304 -0.0415
usemtl mtl1.009
s 1
f 2//1 3//2 1//3
f 1//3 9//4 2//1
f 6//5 1//3 4//6
f 5//7 4//6 1//3
f 5//7 1//3 3//2
f 7//8 5//7 3//2
f 3//2 2//1 8//9
f 9//4 10//10 8//9
f 8//9 2//1 9//4
f 4//6 5//7 11//11
f 4//6 12//12 6//5
f 7//8 11//11 5//7
f 4//6 11//11 12//12
f 6//5 9//4 1//3
f 13//13 3//2 8//9
f 13//13 7//8 3//2
f 7//8 13//13 11//11
f 13//13 8//9 14//14
f 12//12 15//15 6//5
f 16//16 6//5 15//15
f 9//4 6//5 16//16
f 9//4 16//16 10//10
f 8//9 10//10 14//14
f 12//12 17//17 15//15
f 12//12 11//11 18//18
f 21//19 20//20 22//21
f 24//22 22//21 20//20
f 20//20 23//23 24//22
f 24//22 25//24 22//21
f 12//12 18//18 17//17
f 11//11 13//13 26//25
f 18//18 11//11 26//25
f 26//25 13//13 14//14
f 14//14 27//26 26//25
f 20//20 21//19 19//27
f 19//27 21//19 29//28
f 20//20 30//29 23//23
f 19//27 31//30 20//20
f 30//29 32//31 23//23
f 23//23 32//31 33//32
f 34//33 21//19 22//21
f 34//33 22//21 25//24
f 24//22 23//23 35//34
f 35//34 25//24 24//22
f 35//34 36//35 25//24
f 15//15 37//36 16//16
f 38//37 16//16 37//36
f 38//37 42//38 14//14
f 38//37 14//14 10//10
f 19//27 29//28 28//39
f 19//27 32//31 31//30
f 19//27 28//39 32//31
f 39//40 34//33 40//41
f 34//33 25//24 40//41
f 40//41 25//24 36//35
f 36//35 35//34 45//42
f 15//15 41//43 37//36
f 41//43 15//15 17//17
f 37//36 43//44 42//38
f 41//43 43//44 37//36
f 17//17 18//18 41//43
f 18//18 43//44 41//43
f 16//16 38//37 10//10
f 42//38 38//37 37//36
f 43//44 18//18 26//25
f 42//38 27//26 14//14
f 33//32 44//45 23//23
f 39//40 21//19 34//33
f 23//23 44//45 45//42
f 23//23 45//42 35//34
f 26//25 42//38 43//44
f 26//25 27//26 42//38
f 48//46 32//31 28//39
f 47//47 32//31 48//46
f 28//39 29//28 49//48
f 48//46 28//39 49//48
f 32//31 47//47 33//32
f 60//49 33//32 47//47
f 44//45 33//32 60//49
f 21//19 50//50 29//28
f 50//50 21//19 39//40
f 46//51 45//42 44//45
f 40//41 36//35 45//42
f 45//42 46//51 40//41
f 51//52 53//53 54//54
f 52//55 55//56 51//52
f 51//52 55//56 53//53
f 54//54 57//57 51//52
f 51//52 57//57 56//58
f 54//54 69//59 57//57
f 58//60 54//54 53//53
f 54//54 58//60 69//59
f 47//47 59//61 60//49
f 61//62 48//46 62//63
f 62//63 48//46 49//48
f 62//63 49//48 29//28
f 64//64 44//45 60//49
f 62//63 29//28 50//50
f 39//40 62//63 50//50
f 44//45 64//64 46//51
f 46//51 65//65 39//40
f 46//51 39//40 40//41
f 56//58 66//66 52//55
f 51//52 56//58 52//55
f 56//58 57//57 68//67
f 68//67 57//57 69//59
f 72//68 70//69 73//70
f 74//71 70//69 75//72
f 73//70 76//73 72//68
f 73//70 70//69 74//71
f 74//71 77//74 73//70
f 76//73 73//70 77//74
f 77//74 74//71 78//75
f 77//74 78//75 79//76
f 81//77 59//61 47//47
f 48//46 80//78 81//77
f 48//46 81//77 47//47
f 61//62 80//78 48//46
f 60//49 82//79 64//64
f 61//62 62//63 63//80
f 65//65 64//64 82//79
f 65//65 63//80 39//40
f 64//64 65//65 46//51
f 63//80 62//63 39//40
f 55//56 52//55 66//66
f 66//66 67//81 55//56
f 53//53 55//56 67//81
f 53//53 67//81 84//82
f 68//67 66//66 56//58
f 85//83 58//60 53//53
f 86//84 68//67 69//59
f 58//60 87//85 69//59
f 71//86 88//87 70//69
f 72//68 89//88 71//86
f 70//69 72//68 71//86
f 89//88 72//68 76//73
f 98//89 89//88 76//73
f 76//73 77//74 79//76
f 76//73 79//76 90//90
f 81//77 80//78 91//91
f 81//77 92//92 59//61
f 92//92 94//93 59//61
f 81//77 91//91 92//92
f 92//92 91//91 93//94
f 93//94 94//93 92//92
f 59//61 94//93 60//49
f 80//78 61//62 91//91
f 61//62 63//80 93//94
f 93//94 91//91 61//62
f 94//93 82//79 60//49
f 93//94 63//80 82//79
f 63//80 65//65 82//79
f 83//95 67//81 66//66
f 68//67 95//96 66//66
f 95//96 83//95 66//66
f 87//85 58//60 85//83
f 86//84 69//59 87//85
f 75//72 70//69 88//87
f 88//87 71//86 89//88
f 90//90 98//89 76//73
f 74//71 96//97 78//75
f 74//71 97//98 96//97
f 94//93 93//94 82//79
f 85//83 53//53 84//82
f 86//84 95//96 68//67
f 98//89 88//87 89//88
f 98//89 90//90 99//99
f 100//100 79//76 78//75
f 100//100 78//75 96//97
f 67//81 83//95 105//101
f 75//72 97//98 74//71
f 100//100 90//90 79//76
f 101//102 67//81 105//101
f 67//81 101//102 84//82
f 86//84 102//103 95//96
f 85//83 103//104 87//85
f 96//97 104//105 100//100
f 101//102 106//106 84//82
f 103//104 85//83 84//82
f 86//84 87//85 102//103
f 102//103 87//85 103//104
f 100//100 99//99 90//90
f 83//95 95//96 102//103
f 109//107 83//95 102//103
f 75//72 108//108 97//98
f 98//89 107//109 88//87
f 99//99 110//110 98//89
f 111//111 101//102 105//101
f 105//101 83//95 112//112
f 113//113 84//82 106//106
f 113//113 103//104 84//82
f 114//114 102//103 103//104
f 109//107 102//103 114//114
f 75//72 107//109 108//108
f 108//108 107//109 115//115
f 88//87 107//109 75//72
f 107//109 98//89 110//110
f 100//100 104//105 99//99
f 104//105 96//97 97//98
f 111//111 106//106 101//102
f 116//116 112//112 83//95
f 114//114 103//104 113//113
f 83//95 109//107 116//116
f 116//116 109//107 117//117
f 117//117 109//107 114//114
f 115//115 107//109 118//118
f 110//110 118//118 107//109
f 105//101 112//112 111//111
f 119//119 111//111 112//112
f 111//111 119//119 120//120
f 120//120 106//106 111//111
f 120//120 113//113 106//106
f 113//113 117//117 114//114
f 104//105 97//98 121//121
f 121//121 99//99 104//105
f 119//119 112//112 116//116
f 117//117 120//120 119//119
f 116//116 117//117 119//119
f 117//117 113//113 120//120
f 122//122 108//108 115//115
f 122//122 123//123 108//108
f 108//108 123//123 97//98
f 124//124 97//98 123//123
f 121//121 97//98 124//124
f 121//121 110//110 99//99
f 115//115 126//125 122//122
f 126//125 127//126 122//122
f 125//127 126//125 115//115
f 128//128 126//125 125//127
f 129//129 130//130 128//128
f 130//130 129//129 124//124
f 125//127 129//129 128//128
f 125//127 115//115 118//118
f 125//127 118//118 131//131
f 121//121 124//124 131//131
f 118//118 110//110 131//131
f 129//129 125//127 131//131
f 129//129 131//131 124//124
f 131//131 110//110 121//121
