#
# The license for this database is specified in the Creative Commons Attribution-Share Alike 2.1 Japan. If you use data from this database, please be sure attribute this database as follows: "BodyParts3D, (c)  The Database Center for Life Science licensed under CC Attribution-Share Alike 2.1 Japan".
# http://dbarchive.biosciencedbc.jp/en/bodyparts3d/lic.html
#
#
# Compatibility version : 4.0
# File ID : FJ2899
# Representation ID : BP9726
# Build-up logic : FMA 3.0 part_of
# Concept ID : FMA8639
# English name : Superior lingular artery
# Bounds(mm): (101.084000,-115.260000,1232.040000)-(111.105000,-110.093000,1240.890000)
# Volume(cm3): 0.047400
#
v 101.598 -111.165 1239.04
v 101.084 -111.981 1239.71
v 101.315 -112.411 1239.71
v 102.501 -110.093 1239.71
v 101.4 -110.826 1239.53
v 102.044 -110.345 1239.29
v 101.23 -111.83 1240.09
v 101.099 -112.146 1240.14
v 102.591 -110.32 1239.93
v 103.025 -110.383 1239.42
v 103.217 -110.44 1239.83
v 103.296 -110.618 1240.18
v 103.139 -110.625 1240.46
v 102.993 -111.182 1240.73
v 103.443 -111.131 1240.35
v 103.059 -111.641 1240.68
v 101.705 -112.267 1240.65
v 101.88 -112.628 1240.35
v 102.788 -112.383 1240.45
v 102.384 -112.03 1240.89
v 104.857 -111.908 1237.58
v 105.367 -113.699 1234.89
v 104.93 -114.639 1235.34
v 105.169 -112.615 1235.88
v 104.408 -114.635 1237.14
v 104.483 -114.392 1237.8
v 105.048 -112.192 1238.05
v 105.597 -113.601 1237.79
v 106.894 -113.304 1234.12
v 106.632 -115.26 1234.51
v 106.597 -112.985 1236.29
v 107.607 -113.221 1235.58
v 107.212 -114.103 1236.4
v 106.772 -115.204 1236.02
v 109.769 -113.036 1232.81
v 108.291 -112.997 1234.39
v 110.25 -113.919 1232.04
v 110.017 -114.24 1232.05
v 110.102 -113.448 1232.12
v 110.609 -112.81 1233.05
v 110.594 -115.07 1233.52
v 111.105 -113.54 1233.86
v 110.462 -113.294 1234.08
v 110.849 -115.051 1232.97
v 101.084 -111.981 1239.71
v 102.501 -110.093 1239.71
v 102.501 -110.093 1239.71
v 102.501 -110.093 1239.71
v 101.4 -110.826 1239.53
v 101.4 -110.826 1239.53
v 101.4 -110.826 1239.53
v 102.044 -110.345 1239.29
v 101.23 -111.83 1240.09
v 101.099 -112.146 1240.14
v 101.099 -112.146 1240.14
v 101.099 -112.146 1240.14
v 102.591 -110.32 1239.93
v 103.217 -110.44 1239.83
v 103.139 -110.625 1240.46
v 103.139 -110.625 1240.46
v 102.993 -111.182 1240.73
v 101.705 -112.267 1240.65
v 101.705 -112.267 1240.65
v 102.384 -112.03 1240.89
v 104.857 -111.908 1237.58
v 105.169 -112.615 1235.88
v 106.632 -115.26 1234.51
v 106.632 -115.26 1234.51
v 107.212 -114.103 1236.4
v 106.772 -115.204 1236.02
v 108.291 -112.997 1234.39
v 110.25 -113.919 1232.04
v 110.25 -113.919 1232.04
v 110.017 -114.24 1232.05
v 110.017 -114.24 1232.05
v 110.102 -113.448 1232.12
v 110.609 -112.81 1233.05
v 110.609 -112.81 1233.05
v 110.594 -115.07 1233.52
v 111.105 -113.54 1233.86
v 111.105 -113.54 1233.86
v 110.849 -115.051 1232.97
v 110.849 -115.051 1232.97
v 110.849 -115.051 1232.97
v 110.849 -115.051 1232.97
vn -0.721252 0.238177 -0.650436
vn -0.870848 -0.203995 -0.447224
vn -0.71705 -0.691274 -0.0893263
vn 0.254954 0.901658 -0.3493
vn -0.760174 0.352129 -0.546023
vn -0.370304 0.637133 -0.67597
vn -0.913907 0.346767 0.211014
vn -0.897177 0.40201 0.182925
vn 0.239064 0.842957 0.481946
vn 0.437492 0.873182 -0.214836
vn 0.521143 0.792583 0.31658
vn 0.748821 0.569287 0.339382
vn 0.37203 0.876961 0.304193
vn -0.449668 0.474241 0.756897
vn 0.766095 0.195948 0.612131
vn 0.551654 -0.200034 0.809731
vn -0.54966 -0.672217 0.495982
vn -0.2528 -0.822108 0.510129
vn 0.351838 -0.58339 0.732029
vn -0.443242 0.478882 0.757766
vn 0.351856 0.885667 -0.302971
vn -0.537546 0.21953 -0.814157
vn -0.719943 -0.42582 -0.548051
vn 0.130702 0.90117 -0.413291
vn -0.363533 -0.925513 0.106156
vn 0.0323046 -0.843833 0.535632
vn 0.783825 0.490707 0.380558
vn 0.661698 -0.184751 0.726652
vn -0.34254 0.734327 -0.586029
vn -0.126591 -0.99191 -0.00947557
vn 0.546692 0.780354 0.303604
vn 0.435847 0.696152 0.570447
vn 0.588499 0.40069 0.702222
vn -0.0717288 -0.98627 0.14875
vn -0.202171 0.897127 -0.392798
vn 0.261914 0.905975 0.33258
vn -0.188609 0.106462 -0.976264
vn -0.418678 0.00284698 -0.90813
vn -0.346758 0.459157 -0.817883
vn -0.139302 0.914746 -0.379254
vn 0.050135 -0.998702 0.00896859
vn 0.888972 0.111079 -0.444286
vn 0.345754 0.751854 0.5614
vn 0.0444304 -0.998916 -0.0139023
vn -0.913907 0.346767 0.211014
vn -0.564109 0.816331 0.124032
vn 0.242311 0.725604 0.644038
vn -0.463706 0.518344 0.718537
vn -0.564109 0.816331 0.124032
vn -0.461625 0.504723 0.729491
vn -0.926871 0.290096 0.238232
vn -0.564109 0.816331 0.124032
vn -0.468519 0.463092 0.752354
vn -0.871785 -0.467054 -0.147824
vn -0.558876 -0.747368 0.359302
vn -0.557373 0.357149 0.74952
vn -0.458389 0.498187 0.735995
vn 0.471806 0.863316 -0.179121
vn -0.451181 0.483635 0.750022
vn 0.723483 0.303388 0.620103
vn 0.535518 0.0590857 0.842454
vn -0.499548 0.426063 0.754269
vn -0.0439947 -0.645807 0.762232
vn 0.232195 -0.486974 0.841987
vn 0.681583 0.71539 0.153823
vn -0.107124 0.885602 -0.451922
vn -0.505808 -0.206406 -0.837589
vn -0.16571 -0.809269 -0.563581
vn 0.515254 -0.420036 0.74705
vn 0.454489 -0.506831 0.732504
vn -0.1618 0.94444 -0.286102
vn 0.492487 -0.381866 -0.782071
vn 0.814843 0.223387 -0.534911
vn -0.16571 -0.809269 -0.563581
vn 0.492487 -0.381866 -0.782071
vn 0.715531 0.329418 -0.616035
vn 0.842261 0.18615 -0.50591
vn 0.318527 0.83987 0.439498
vn 0.649835 -0.402426 0.644801
vn 0.718946 -0.370757 0.587925
vn 0.457525 0.636051 0.621377
vn -0.16571 -0.809269 -0.563581
vn 0.492487 -0.381866 -0.782071
vn 0.890287 0.111125 -0.441634
vn 0.848396 -0.367924 0.380601
g grp1
usemtl mtl1
f 1//1 2//2 5//5 
f 5//5 6//6 1//1 
f 22//22 1//1 6//6 
f 7//7 45//45 8//8 
f 23//23 3//3 2//2 
f 54//54 2//2 3//3 
f 3//3 18//18 55//55 
f 4//4 24//24 6//6 
f 49//49 46//46 52//52 
f 24//24 4//4 10//10 
f 9//9 11//11 47//47 
f 4//4 58//58 10//10 
f 57//57 48//48 50//50 
f 51//51 45//45 7//7 
f 57//57 50//50 53//53 
f 22//22 6//6 24//24 
f 1//1 23//23 2//2 
f 1//1 22//22 23//23 
f 3//3 25//25 18//18 
f 9//9 13//13 11//11 
f 10//10 58//58 24//24 
f 12//12 11//11 13//13 
f 27//27 11//11 12//12 
f 57//57 53//53 59//59 
f 60//60 15//15 12//12 
f 14//14 53//53 20//20 
f 59//59 53//53 14//14 
f 15//15 60//60 61//61 
f 12//12 15//15 27//27 
f 61//61 64//64 16//16 
f 16//16 64//64 19//19 
f 61//61 16//16 15//15 
f 16//16 28//28 15//15 
f 17//17 55//55 18//18 
f 53//53 56//56 62//62 
f 64//64 63//63 18//18 
f 53//53 62//62 20//20 
f 18//18 19//19 64//64 
f 25//25 3//3 23//23 
f 21//21 24//24 58//58 
f 27//27 65//65 11//11 
f 26//26 18//18 25//25 
f 16//16 19//19 28//28 
f 15//15 28//28 27//27 
f 29//29 22//22 24//24 
f 21//21 31//31 24//24 
f 36//36 24//24 31//31 
f 27//27 31//31 65//65 
f 33//33 31//31 27//27 
f 28//28 33//33 27//27 
f 26//26 19//19 18//18 
f 29//29 66//66 71//71 
f 22//22 29//29 39//39 
f 71//71 35//35 29//29 
f 35//35 39//39 29//29 
f 30//30 25//25 23//23 
f 23//23 22//22 67//67 
f 30//30 34//34 25//25 
f 36//36 31//31 32//32 
f 32//32 31//31 33//33 
f 70//70 28//28 19//19 
f 28//28 70//70 69//69 
f 25//25 34//34 26//26 
f 70//70 19//19 26//26 
f 39//39 38//38 22//22 
f 22//22 38//38 67//67 
f 71//71 40//40 35//35 
f 44//44 41//41 30//30 
f 41//41 34//34 30//30 
f 37//37 38//38 39//39 
f 74//74 82//82 68//68 
f 83//83 75//75 72//72 
f 39//39 35//35 40//40 
f 73//73 76//76 77//77 
f 77//77 84//84 73//73 
f 77//77 42//42 84//84 
f 85//85 80//80 79//79 
f 81//81 78//78 43//43 
f 78//78 36//36 43//43 
f 81//81 43//43 33//33 
f 43//43 36//36 32//32 
f 43//43 32//32 33//33 
f 69//69 79//79 80//80 
f 79//79 69//69 70//70 
