# Blender v2.77 (sub 0) OBJ File: ''
# www.blender.org
mtllib superior segmental branch of left renal artery.mtl
o grp1.004
v 46.698120 -94.624283 1045.006348
v 45.844727 -94.191574 1045.317383
v 47.673901 -94.476067 1046.209961
v 46.370201 -94.384171 1046.160034
v 48.594002 -91.936066 1049.069946
v 46.643501 -93.787971 1047.000000
v 46.370201 -94.384171 1046.160034
v 45.744385 -93.394943 1046.379883
v 47.377399 -91.165871 1049.119995
v 45.478325 -93.189819 1045.680542
v 48.211700 -87.194878 1056.130005
v 48.974998 -86.520172 1057.689941
v 47.572800 -83.777573 1064.599976
v 46.537201 -82.863174 1065.689941
v 48.322800 -81.610374 1067.709961
v 48.887199 -82.637573 1064.349976
v 48.463200 -79.326675 1069.420044
v 47.605801 -80.666573 1070.020020
v 47.605801 -80.666573 1070.020020
v 48.541302 -76.181076 1074.930054
v 48.541302 -76.181076 1074.930054
v 46.684570 -79.347832 1071.757812
v 45.582642 -92.734451 1044.949097
v 46.443359 -83.839043 1060.679688
v 46.713200 -79.403976 1067.709961
v 45.866150 -79.852715 1069.591797
v 47.530399 -81.476074 1063.119995
v 46.155998 -77.447372 1071.290039
v 47.530399 -81.476074 1063.119995
v 46.713200 -79.403976 1067.709961
v 47.929699 -78.879478 1068.660034
v 48.784668 -81.977226 1064.208984
v 48.463200 -79.326675 1069.420044
v 46.880859 -74.316582 1077.605469
v 46.566700 -74.327477 1076.199951
v 46.566700 -74.327477 1076.199951
v 47.519600 -74.839676 1073.770020
v 48.574600 -74.946678 1074.729980
v 48.574600 -74.946678 1074.729980
v 47.879799 -76.667274 1075.199951
v 48.992599 -69.868576 1080.599976
v 47.519600 -74.839676 1073.770020
v 49.482800 -72.662277 1080.060059
v 47.626900 -74.156876 1078.640015
v 47.351700 -73.574677 1078.949951
v 47.492802 -72.096977 1079.569946
v 47.492802 -72.096977 1079.569946
v 49.482800 -72.662277 1080.060059
v 49.992802 -71.334679 1080.270020
v 49.992802 -71.334679 1080.270020
v 48.402000 -70.953178 1081.890015
v 48.328125 -71.101738 1081.726562
v 49.585300 -68.114777 1082.650024
v 49.678299 -71.363472 1081.839966
v 49.585300 -68.114777 1082.650024
v 50.789062 -68.502129 1084.412109
v 50.053600 -67.574074 1084.339966
v 46.167480 -93.255295 1044.142334
v 47.421692 -94.151291 1044.160889
v 47.779701 -94.577866 1045.099976
v 48.484619 -93.798141 1044.717041
v 48.145264 -93.062180 1044.083008
v 47.479355 -92.658859 1043.880859
v 48.451172 -94.103683 1046.111084
v 50.050301 -91.075668 1048.500000
v 49.980900 -90.385864 1047.449951
v 48.643600 -90.369766 1050.819946
v 50.001801 -89.245865 1052.079956
v 48.741699 -89.334564 1052.300049
v 47.768555 -87.900558 1053.070312
v 48.741699 -89.334564 1052.300049
v 50.798786 -88.468430 1050.782715
v 49.516300 -84.930977 1059.469971
v 47.000599 -90.049271 1048.569946
v 46.052063 -92.212326 1044.593506
v 47.271999 -89.392067 1048.359985
v 46.921101 -91.893967 1044.420044
v 48.778809 -87.236496 1049.804688
v 49.412109 -89.429855 1047.214844
v 47.386501 -89.138969 1049.760010
v 48.643600 -90.369766 1050.819946
v 47.386501 -89.138969 1049.760010
v 47.771900 -88.060066 1049.880005
v 47.668499 -86.354370 1053.119995
v 47.771900 -88.060066 1049.880005
v 48.053711 -85.070488 1054.226562
v 48.690800 -84.417679 1055.180054
v 49.563721 -85.043144 1053.996094
v 47.289902 -86.081573 1055.109985
v 50.444946 -86.352463 1052.609375
v 48.311768 -81.478691 1063.938477
v 48.992599 -69.868576 1080.599976
v 51.864101 -66.954178 1083.319946
v 51.137413 -65.653435 1084.579346
v 51.183399 -69.168678 1082.969971
v 51.864101 -66.954178 1083.319946
v 51.183399 -69.168678 1082.969971
v 50.896301 -67.193779 1082.920044
v 51.183399 -69.168678 1082.969971
v 52.614990 -66.035820 1084.165161
v 51.857300 -66.534378 1085.349976
v 51.727997 -66.002724 1085.389526
v 51.415039 -65.663750 1085.057617
v 52.458984 -66.771919 1085.018555
v 52.605400 -66.703377 1084.449951
v 52.605400 -66.703377 1084.449951
v 52.379799 -66.742279 1085.060059
v 52.111301 -65.891273 1085.239990
v 52.605400 -66.703377 1084.449951
v 52.449902 -65.858475 1084.839966
v 52.057068 -65.618828 1083.980469
v 52.136719 -65.822929 1085.306641
v 52.492676 -65.795097 1084.880859
v 52.608002 -66.036278 1084.170044
v 52.313301 -65.560478 1084.439941
v 51.291016 -65.494316 1084.320312
v 52.044880 -65.576591 1083.964355
v 51.732498 -66.002777 1085.380005
v 52.313301 -65.560478 1084.439941
v 50.081055 -88.028488 1049.189453
vn -0.2592 -0.9169 -0.3037
vn 0.1611 -0.9003 0.4043
vn -0.1788 -0.9358 0.3038
vn -0.0059 -0.7443 0.6678
vn -0.3454 -0.6340 0.6919
vn -0.7661 -0.6204 -0.1679
vn -0.6961 -0.5467 0.4653
vn -0.8310 -0.2581 0.4927
vn -0.7007 -0.3192 0.6381
vn -0.9979 -0.0381 0.0524
vn -0.3466 -0.8707 0.3490
vn 0.3162 -0.8404 0.4402
vn 0.0664 -0.8971 0.4369
vn -0.6710 -0.6807 0.2941
vn 0.7897 -0.5159 0.3321
vn 0.9941 -0.0173 0.1073
vn 0.9892 -0.1156 0.0896
vn -0.1386 -0.8286 0.5424
vn 0.5671 -0.6868 0.4547
vn 0.6413 -0.6444 0.4164
vn 0.9978 -0.0551 -0.0367
vn -0.4570 -0.7013 0.5470
vn -0.7342 0.5676 -0.3724
vn -0.9896 0.0177 -0.1430
vn -0.9752 -0.1949 0.1053
vn -0.0472 0.9229 -0.3822
vn -0.8595 0.4395 -0.2609
vn -0.0633 0.9054 -0.4198
vn 0.0370 0.8536 -0.5197
vn 0.5109 0.7391 -0.4389
vn 0.9019 0.4215 -0.0945
vn 0.8799 0.4160 -0.2294
vn -0.8138 -0.3748 0.4442
vn -0.9892 0.0138 0.1462
vn -0.6670 0.6719 -0.3220
vn -0.5758 0.7047 -0.4147
vn 0.9878 -0.1469 -0.0513
vn 0.6576 0.5830 -0.4771
vn 0.2081 -0.7954 0.5692
vn -0.6338 0.6832 -0.3628
vn 0.4762 0.6762 -0.5621
vn 0.9629 -0.2507 -0.0994
vn -0.2684 -0.7294 0.6292
vn -0.7472 -0.3414 0.5702
vn -0.9510 0.0825 0.2980
vn -0.7402 0.6191 -0.2624
vn 0.5503 -0.7135 0.4337
vn 0.9404 -0.3183 -0.1195
vn 0.5272 0.5442 -0.6526
vn -0.9453 0.2052 0.2536
vn -0.1999 -0.6644 0.7202
vn -0.8928 0.4448 0.0716
vn 0.2615 -0.7490 0.6087
vn -0.4610 0.6795 -0.5707
vn 0.0313 -0.5505 0.8342
vn -0.8158 0.0664 0.5746
vn -0.5495 -0.1237 -0.8263
vn 0.0684 -0.5924 -0.8027
vn 0.3607 -0.9163 -0.1741
vn 0.7815 -0.4054 -0.4742
vn 0.5541 0.0138 -0.8323
vn 0.0872 0.2984 -0.9504
vn 0.6567 -0.7313 0.1841
vn 0.9058 0.0738 -0.4172
vn -0.0857 -0.7687 0.6339
vn 0.5034 -0.7134 0.4875
vn 0.0401 -0.8659 0.4985
vn 0.9073 -0.4143 0.0725
vn -0.9169 -0.3311 0.2227
vn -0.6411 -0.6746 0.3660
vn 0.9943 -0.0516 -0.0929
vn 0.9056 -0.3239 0.2738
vn -0.9407 0.1680 -0.2947
vn -0.9487 0.2060 0.2399
vn -0.6190 0.5328 -0.5770
vn -0.8700 0.4823 -0.1027
vn -0.1787 0.6265 -0.7586
vn -0.1699 0.8670 -0.4684
vn 0.4481 0.6238 -0.6404
vn -0.8392 -0.2981 0.4549
vn -0.7319 -0.4765 0.4871
vn -0.9600 0.2787 0.0279
vn -0.6149 0.6794 -0.4005
vn -0.9477 0.2475 -0.2017
vn -0.9844 0.1752 -0.0159
vn -0.5686 0.7218 -0.3947
vn -0.0760 0.9211 -0.3819
vn 0.4126 0.8548 -0.3147
vn -0.9793 -0.0438 -0.1977
vn 0.6203 0.7289 -0.2897
vn 0.8749 0.4415 -0.1991
vn 0.4049 0.5285 -0.7462
vn 0.5039 0.3156 -0.8040
vn -0.6347 0.7144 0.2947
vn 0.9387 -0.2967 -0.1758
vn 0.9434 -0.2572 -0.2095
vn 0.7098 -0.6267 0.3216
vn -0.0626 0.6187 -0.7832
vn 0.8265 -0.1766 -0.5346
vn 0.7065 0.2353 -0.6675
vn -0.2409 0.0267 0.9702
vn -0.3380 0.7967 0.5010
vn 0.5508 -0.6243 0.5539
vn 0.0759 -0.2435 0.9669
vn 0.8219 -0.5599 0.1044
vn 0.8647 -0.1984 -0.4615
vn 0.7554 0.0262 0.6547
vn 0.5401 0.0318 0.8410
vn 0.9588 0.0479 0.2802
vn 0.9243 0.1805 0.3363
vn 0.6402 0.2389 -0.7301
vn 0.9440 0.2973 0.1432
vn 0.8658 0.4950 0.0727
vn -0.2972 0.9382 -0.1772
vn 0.2497 0.7895 -0.5606
vn 0.0345 0.9311 0.3631
vn -0.1311 0.6146 0.7779
vn 0.1538 0.9734 0.1699
vn 0.6256 0.6482 -0.4341
vn 0.6210 0.6017 -0.5023
usemtl mtl1.004
s 1
f 1//1 3//2 4//3
f 3//2 5//4 6//5
f 4//3 3//2 6//5
f 1//1 4//3 2//6
f 7//7 8//8 2//6
f 7//7 6//5 8//8
f 8//8 6//5 9//9
f 8//8 10//10 2//6
f 11//11 12//12 13//13
f 13//13 14//14 11//11
f 12//12 15//15 13//13
f 16//16 17//17 15//15
f 18//18 14//14 13//13
f 15//15 19//19 13//13
f 20//20 19//19 15//15
f 15//15 17//17 21//21
f 14//14 18//18 22//22
f 25//23 24//24 26//25
f 27//26 24//24 25//23
f 14//14 22//22 26//25
f 14//14 26//25 24//24
f 26//25 28//27 25//23
f 29//28 30//29 31//30
f 32//31 31//30 33//32
f 22//22 34//33 26//25
f 26//25 34//33 35//34
f 28//27 26//25 35//34
f 28//27 36//35 37//36
f 25//23 28//27 37//36
f 38//37 21//21 17//17
f 39//38 33//32 31//30
f 40//39 22//22 18//18
f 37//36 36//35 41//40
f 40//39 19//19 20//20
f 42//41 31//30 30//29
f 43//42 21//21 38//37
f 31//30 42//41 39//38
f 22//22 40//39 34//33
f 40//39 44//43 34//33
f 44//43 45//44 34//33
f 46//45 35//34 34//33
f 41//40 36//35 47//46
f 20//20 48//47 40//39
f 43//42 38//37 49//48
f 50//49 39//38 42//41
f 34//33 45//44 46//45
f 45//44 51//50 46//45
f 52//51 45//44 44//43
f 51//50 53//52 46//45
f 40//39 54//53 44//43
f 54//53 52//51 44//43
f 47//46 55//54 41//40
f 40//39 48//47 54//53
f 52//51 54//53 56//55
f 51//50 57//56 53//52
f 52//51 56//55 57//56
f 2//6 58//57 1//1
f 1//1 59//58 60//59
f 59//58 1//1 58//57
f 60//59 59//58 61//60
f 62//61 61//60 59//58
f 63//62 62//61 59//58
f 58//57 63//62 59//58
f 64//63 5//4 3//2
f 60//59 3//2 1//1
f 60//59 64//63 3//2
f 61//60 64//63 60//59
f 66//64 61//60 62//61
f 6//5 5//4 9//9
f 5//4 67//65 9//9
f 68//66 5//4 64//63
f 5//4 68//66 67//65
f 69//67 67//65 68//66
f 65//68 68//66 64//63
f 61//60 65//68 64//63
f 69//67 68//66 12//12
f 69//67 12//12 11//11
f 11//11 70//69 71//70
f 14//14 70//69 11//11
f 72//71 32//31 73//72
f 68//66 73//72 12//12
f 72//71 73//72 68//66
f 73//72 15//15 12//12
f 16//16 15//15 73//72
f 16//16 73//72 32//31
f 2//6 23//73 58//57
f 10//10 23//73 2//6
f 8//8 74//74 10//10
f 9//9 74//74 8//8
f 23//73 10//10 74//74
f 75//75 58//57 23//73
f 75//75 23//73 76//76
f 23//73 74//74 76//76
f 58//57 77//77 63//62
f 77//77 58//57 75//75
f 77//77 75//75 78//78
f 75//75 76//76 78//78
f 79//79 77//77 78//78
f 77//77 79//79 63//62
f 62//61 63//62 79//79
f 9//9 80//80 74//74
f 9//9 81//81 80//80
f 74//74 82//82 76//76
f 82//82 70//69 76//76
f 76//76 83//83 78//78
f 81//81 71//70 70//69
f 80//80 81//81 70//69
f 70//69 84//84 85//85
f 85//85 76//76 70//69
f 83//83 84//84 86//86
f 78//78 83//83 86//86
f 78//78 86//86 87//87
f 87//87 88//88 78//78
f 14//14 24//24 70//69
f 89//89 70//69 24//24
f 84//84 70//69 89//89
f 87//87 86//86 27//26
f 27//26 88//88 87//87
f 89//89 24//24 84//84
f 86//86 84//84 24//24
f 86//86 24//24 27//26
f 88//88 27//26 91//90
f 88//88 91//90 90//91
f 32//31 90//91 91//90
f 91//90 31//30 32//31
f 31//30 91//90 27//26
f 33//32 16//16 32//31
f 50//49 42//41 92//92
f 93//93 50//49 92//92
f 53//52 57//56 94//94
f 95//95 43//42 49//48
f 95//95 49//48 96//96
f 48//47 97//97 54//53
f 93//93 92//92 98//98
f 99//99 93//93 100//100
f 56//55 102//101 57//56
f 57//56 103//102 94//94
f 57//56 102//101 103//102
f 97//97 104//103 54//53
f 54//53 104//103 56//55
f 56//55 101//104 102//101
f 101//104 56//55 104//103
f 105//105 104//103 97//97
f 100//100 106//106 99//99
f 101//104 107//107 108//108
f 108//108 102//101 101//104
f 109//109 110//110 107//107
f 107//107 110//110 108//108
f 100//100 93//93 111//111
f 110//110 109//109 114//112
f 110//110 114//112 115//113
f 98//98 41//40 55//54
f 53//52 94//94 116//114
f 117//115 98//98 55//54
f 112//116 103//102 118//117
f 112//116 94//94 103//102
f 117//115 55//54 116//114
f 112//116 116//114 94//94
f 111//111 93//93 98//98
f 111//111 98//98 117//115
f 113//118 116//114 112//116
f 119//119 100//100 111//111
f 116//114 113//118 117//115
f 79//79 66//64 62//61
f 61//60 66//64 65//68
f 65//68 66//64 72//71
f 72//71 68//66 65//68
f 90//91 72//71 120//120
f 72//71 66//64 120//120
f 120//120 66//64 79//79
f 120//120 79//79 78//78
f 88//88 120//120 78//78
f 88//88 90//91 120//120
f 72//71 90//91 32//31
