#
# The license for this database is specified in the Creative Commons Attribution-Share Alike 2.1 Japan. If you use data from this database, please be sure attribute this database as follows: "BodyParts3D, (c)  The Database Center for Life Science licensed under CC Attribution-Share Alike 2.1 Japan".
# http://dbarchive.biosciencedbc.jp/en/bodyparts3d/lic.html
#
#
# Compatibility version : 4.0
# File ID : FJ2900
# Representation ID : BP9726
# Build-up logic : FMA 3.0 part_of
# Concept ID : FMA8639
# English name : Superior lingular artery
# Bounds(mm): (83.576900,-97.251500,1252.290000)-(107.480000,-79.138600,1259.010000)
# Volume(cm3): 0.137000
#
v 83.6277 -94.3833 1255.63
v 83.7297 -94.4476 1256.24
v 83.9475 -94.1062 1255.38
v 84.2029 -94.2236 1254.79
v 83.6462 -94.5797 1255.15
v 83.5769 -94.8076 1255.34
v 83.7132 -94.9255 1255.93
v 83.7021 -95.3438 1255.21
v 83.8537 -95.1501 1254.62
v 84.1023 -93.9762 1256.35
v 84.5159 -93.9341 1256.7
v 84.1742 -94.3172 1256.95
v 84.5446 -94.2268 1257.08
v 84.1668 -94.7946 1257.02
v 84.6057 -94.598 1257.38
v 84.4792 -94.7671 1257.38
v 84.5107 -95.062 1257.37
v 85.061 -94.3254 1257.24
v 84.726 -94.9427 1257.53
v 85.0667 -94.8159 1257.54
v 84.3124 -95.3395 1256.9
v 87.5622 -92.0678 1253.99
v 86.0242 -93.857 1253.59
v 85.8857 -94.3673 1253.53
v 84.3875 -94.9072 1254.21
v 84.3238 -95.4045 1254.2
v 84.4512 -95.9823 1254.27
v 85.4068 -95.4901 1253.83
v 86.3 -92.7034 1255.36
v 84.0824 -95.9875 1254.64
v 84.2379 -96.1337 1255.6
v 84.8163 -96.997 1255.29
v 86.0999 -93.4249 1256.47
v 85.0135 -96.1784 1257.23
v 85.0559 -96.8179 1256.47
v 85.3669 -96.7106 1257.06
v 85.3312 -95.2808 1257.64
v 85.2378 -95.9299 1257.57
v 85.4702 -96.3492 1257.43
v 85.6056 -96.1607 1257.53
v 85.9986 -95.9866 1257.38
v 85.8583 -96.4995 1257.23
v 88.2861 -92.066 1253.29
v 89.1154 -91.3143 1255.05
v 85.0538 -96.7097 1254.61
v 85.5098 -97.0689 1255.07
v 89.3437 -92.4993 1256.01
v 89.479 -93.1545 1256.12
v 87.4034 -93.9132 1256.7
v 85.5529 -97.0234 1256.65
v 85.3456 -97.2515 1255.75
v 86.4347 -96.6475 1256.55
v 86.2122 -97.0187 1255.79
v 86.2453 -96.929 1255.31
v 92.2199 -89.6145 1253.02
v 90.9344 -90.0511 1253.88
v 90.7707 -92.5502 1252.49
v 88.6266 -93.2844 1252.76
v 88.1782 -94.9888 1253.54
v 92.0798 -89.8627 1254.87
v 90.9652 -93.2555 1255.48
v 88.7252 -94.789 1256
v 91.882 -91.104 1252.29
v 96.5707 -86.927 1253.85
v 93.5938 -92.2269 1254.15
v 90.308 -94.3635 1254.26
v 94.6182 -89.3662 1255.3
v 92.3556 -91.571 1255.51
v 92.7424 -92.4041 1254.93
v 91.4221 -93.3478 1255.04
v 95.8172 -88.4371 1252.37
v 97.2122 -88.2285 1252.37
v 96.2943 -89.3829 1252.38
v 94.7111 -91.2525 1252.99
v 97.5324 -87.0725 1255.18
v 95.5914 -90.1399 1255.1
v 94.8581 -91.1806 1254.62
v 102.251 -83.965 1254.14
v 98.8135 -86.1131 1253.16
v 99.4672 -86.3261 1252.92
v 99.5441 -87.3026 1252.9
v 99.1663 -88.2277 1253.14
v 99.3215 -88.4899 1253.84
v 102.214 -83.056 1255.74
v 101.186 -84.0263 1254.54
v 98.868 -87.4666 1255.52
v 98.4776 -88.7631 1254.81
v 104.134 -81.6767 1255.98
v 103.278 -83.2231 1257.04
v 106.878 -79.1386 1258.78
v 106.251 -79.5049 1258.84
v 106.471 -79.3756 1258.08
v 102.514 -84.4124 1254.03
v 101.249 -86.8015 1253.81
v 104.346 -82.4594 1255.27
v 103.5 -85.0181 1255.06
v 100.911 -87.324 1254.57
v 105.101 -82.6466 1255.7
v 105.038 -83.4515 1256.53
v 102.707 -85.5777 1255.71
v 107.16 -79.206 1258.29
v 107.48 -79.6408 1258.71
v 106.76 -79.5354 1257.75
v 107.193 -79.7031 1257.86
v 107.357 -80.4786 1258.25
v 106.513 -80.277 1259.01
v 107.066 -80.6961 1258.63
v 84.8163 -96.997 1255.29
v 85.3669 -96.7106 1257.06
v 85.5529 -97.0234 1256.65
v 85.3456 -97.2515 1255.75
v 92.0798 -89.8627 1254.87
v 96.5707 -86.927 1253.85
v 97.5324 -87.0725 1255.18
v 102.214 -83.056 1255.74
v 103.278 -83.2231 1257.04
v 103.278 -83.2231 1257.04
v 106.878 -79.1386 1258.78
v 106.878 -79.1386 1258.78
v 106.251 -79.5049 1258.84
v 106.251 -79.5049 1258.84
v 103.5 -85.0181 1255.06
v 105.038 -83.4515 1256.53
v 102.707 -85.5777 1255.71
v 107.16 -79.206 1258.29
v 107.16 -79.206 1258.29
v 107.16 -79.206 1258.29
v 107.48 -79.6408 1258.71
v 107.48 -79.6408 1258.71
v 107.48 -79.6408 1258.71
v 107.357 -80.4786 1258.25
v 106.513 -80.277 1259.01
v 107.066 -80.6961 1258.63
vn -0.928664 0.369508 0.0323634
vn -0.915588 0.190928 0.353901
vn -0.623004 0.755451 -0.202877
vn -0.606199 0.542747 -0.581333
vn -0.842235 0.377497 -0.384885
vn -0.995434 -0.053611 -0.0789811
vn -0.922999 -0.26275 0.281134
vn -0.938097 -0.345484 -0.0247928
vn -0.82625 0.0320949 -0.562389
vn -0.618985 0.749682 0.234168
vn -0.321983 0.799251 0.507468
vn -0.629355 0.463544 0.62373
vn -0.232865 0.676966 0.698205
vn -0.833013 -0.130253 0.537701
vn -0.277652 0.451329 0.848064
vn -0.613751 0.117538 0.780701
vn -0.675138 -0.253643 0.692715
vn -0.0110156 0.592136 0.805763
vn -0.331269 0.0687162 0.941031
vn 0.00699996 0.385557 0.922658
vn -0.803429 -0.420166 0.421856
vn -0.528033 0.783591 -0.327363
vn -0.457709 0.352055 -0.816431
vn -0.363569 0.0464582 -0.930408
vn -0.561533 0.24766 -0.789522
vn -0.537619 -0.0948846 -0.837832
vn -0.443667 -0.422437 -0.790384
vn -0.174542 -0.327969 -0.928424
vn -0.419701 0.882445 0.212468
vn -0.774543 -0.490634 -0.399201
vn -0.824275 -0.522706 0.217599
vn -0.731389 -0.65814 0.178668
vn -0.11223 0.700993 0.704282
vn -0.64482 -0.494045 0.583204
vn -0.657067 -0.669882 0.345718
vn -0.553896 -0.654043 0.515196
vn 0.118229 0.0554797 0.991435
vn -0.340788 -0.294662 0.89277
vn -0.182805 -0.573713 0.798396
vn 0.189273 -0.301957 0.934343
vn 0.452645 -0.149602 0.879052
vn 0.349942 -0.610098 0.71086
vn -0.443869 0.514134 -0.733926
vn -0.300979 0.778134 0.551288
vn -0.220387 -0.702765 -0.676425
vn 0.062188 -0.889662 -0.452366
vn 0.00790724 0.406892 0.913442
vn 0.243706 -0.0140695 0.969747
vn 0.234828 0.244 0.940914
vn -0.463744 -0.812709 0.352769
vn -0.520698 -0.807534 0.27706
vn 0.529595 -0.739134 0.416185
vn 0.41312 -0.90655 0.086603
vn 0.351982 -0.887701 -0.29681
vn -0.423591 0.709691 -0.562947
vn -0.473782 0.878912 0.0551744
vn 0.124375 -0.37808 -0.91738
vn -0.198578 -0.040727 -0.979239
vn 0.205488 -0.660463 -0.722194
vn -0.430182 0.828551 0.358396
vn 0.477401 -0.481754 0.734847
vn 0.524087 -0.488257 0.69781
vn -0.170821 0.172789 -0.970033
vn -0.451732 0.820119 -0.351203
vn 0.537758 -0.814719 0.216909
vn 0.544818 -0.836842 -0.0535558
vn -0.0853125 0.132392 0.987519
vn 0.212967 -0.0832796 0.973504
vn 0.468634 -0.607024 0.641797
vn 0.530449 -0.682196 0.503223
vn -0.14538 0.342188 -0.928317
vn 0.123787 0.0221366 -0.992062
vn 0.223601 -0.289901 -0.93057
vn 0.442574 -0.727991 -0.5236
vn -0.542034 0.682587 0.490178
vn 0.282457 -0.422681 0.861138
vn 0.459849 -0.702176 0.543587
vn -0.0640258 0.582315 -0.810438
vn -0.297736 0.692992 -0.656594
vn 0.0601964 0.309681 -0.948933
vn 0.382274 -0.195744 -0.903079
vn 0.503784 -0.58026 -0.639922
vn 0.580952 -0.784458 -0.217072
vn -0.644922 0.508566 0.570469
vn -0.414294 0.796505 -0.440387
vn 0.065246 -0.281697 0.957283
vn 0.41041 -0.680254 0.607304
vn -0.302585 0.777137 -0.551817
vn -0.636765 0.30673 0.707422
vn -0.343409 0.932027 -0.115744
vn -0.638164 0.144157 0.756284
vn -0.377031 0.881823 -0.28326
vn 0.442876 0.0164435 -0.896432
vn 0.633613 -0.533359 -0.560413
vn 0.268537 0.41974 -0.86701
vn 0.704225 -0.318694 -0.63443
vn 0.603308 -0.789627 0.111844
vn 0.727283 -0.167308 -0.665633
vn 0.81871 -0.441728 -0.366865
vn 0.108098 -0.52594 0.843624
vn -0.119137 0.926052 -0.358097
vn 0.635928 0.725022 0.264459
vn 0.0937788 0.703757 -0.704224
vn 0.713515 0.268781 -0.647034
vn 0.880658 -0.179334 -0.438498
vn 0.131916 -0.204348 0.969969
vn 0.708728 -0.602602 0.366844
vn -0.322942 -0.848969 -0.418283
vn 0.0918233 -0.745887 0.659713
vn 0.294262 -0.861293 0.414228
vn 0.146484 -0.981659 -0.122019
vn -0.15996 0.400715 0.902131
vn -0.497931 0.754561 0.427437
vn -0.219269 0.17323 0.960163
vn -0.55857 0.807272 -0.190556
vn -0.264207 -0.0704207 0.961892
vn 0.055517 -0.50151 0.863369
vn 0.635928 0.725022 0.264459
vn 0.0962693 0.165138 0.981561
vn -0.572323 0.8196 -0.0265089
vn -0.0253449 0.203534 0.97874
vn 0.66098 -0.749904 0.0273817
vn 0.633002 -0.728155 0.262866
vn 0.57838 -0.762369 0.290293
vn 0.635928 0.725022 0.264459
vn 0.415415 0.606972 -0.677507
vn 0.88443 0.336173 -0.323683
vn 0.325544 -0.0532468 0.944026
vn 0.925739 0.190109 -0.326904
vn 0.832664 -0.356827 0.423492
vn 0.79679 -0.522409 0.30367
vn -0.523939 0.00662062 0.85173
vn 0.27144 -0.415782 0.868013
g grp1
usemtl mtl1
f 25//25 9//9 4//4 
f 33//33 29//29 11//11 
f 29//29 3//3 10//10 
f 3//3 1//1 10//10 
f 1//1 2//2 10//10 
f 1//1 7//7 2//2 
f 4//4 5//5 3//3 
f 5//5 1//1 3//3 
f 22//22 3//3 29//29 
f 6//6 7//7 1//1 
f 4//4 9//9 5//5 
f 6//6 5//5 9//9 
f 1//1 5//5 6//6 
f 9//9 8//8 6//6 
f 8//8 7//7 6//6 
f 9//9 30//30 8//8 
f 7//7 8//8 31//31 
f 12//12 10//10 2//2 
f 29//29 10//10 11//11 
f 14//14 2//2 7//7 
f 10//10 12//12 11//11 
f 14//14 7//7 21//21 
f 12//12 13//13 11//11 
f 13//13 33//33 11//11 
f 2//2 14//14 12//12 
f 13//13 12//12 15//15 
f 15//15 12//12 16//16 
f 12//12 14//14 16//16 
f 33//33 13//13 18//18 
f 14//14 17//17 16//16 
f 14//14 21//21 17//17 
f 18//18 13//13 15//15 
f 15//15 16//16 19//19 
f 19//19 16//16 17//17 
f 20//20 18//18 15//15 
f 19//19 20//20 15//15 
f 20//20 19//19 37//37 
f 18//18 20//20 49//49 
f 21//21 7//7 31//31 
f 22//22 43//43 4//4 
f 3//3 22//22 4//4 
f 58//58 24//24 23//23 
f 4//4 43//43 23//23 
f 25//25 4//4 23//23 
f 24//24 25//25 23//23 
f 26//26 25//25 24//24 
f 26//26 9//9 25//25 
f 26//26 30//30 9//9 
f 24//24 28//28 26//26 
f 26//26 28//28 27//27 
f 30//30 26//26 27//27 
f 27//27 28//28 45//45 
f 28//28 59//59 45//45 
f 29//29 33//33 44//44 
f 47//47 44//44 33//33 
f 22//22 29//29 56//56 
f 29//29 44//44 56//56 
f 31//31 8//8 30//30 
f 30//30 27//27 45//45 
f 32//32 31//31 30//30 
f 45//45 108//108 30//30 
f 49//49 33//33 18//18 
f 47//47 33//33 49//49 
f 49//49 20//20 37//37 
f 17//17 21//21 34//34 
f 34//34 21//21 35//35 
f 35//35 21//21 31//31 
f 36//36 34//34 35//35 
f 35//35 50//50 36//36 
f 36//36 39//39 34//34 
f 32//32 35//35 31//31 
f 109//109 42//42 39//39 
f 51//51 35//35 32//32 
f 108//108 46//46 111//111 
f 51//51 50//50 35//35 
f 110//110 42//42 109//109 
f 110//110 52//52 42//42 
f 37//37 19//19 38//38 
f 19//19 17//17 38//38 
f 37//37 41//41 49//49 
f 49//49 41//41 62//62 
f 38//38 17//17 34//34 
f 40//40 38//38 39//39 
f 38//38 34//34 39//39 
f 40//40 37//37 38//38 
f 40//40 41//41 37//37 
f 40//40 42//42 41//41 
f 42//42 40//40 39//39 
f 62//62 41//41 42//42 
f 22//22 56//56 55//55 
f 63//63 58//58 43//43 
f 55//55 63//63 43//43 
f 22//22 55//55 43//43 
f 43//43 58//58 23//23 
f 24//24 58//58 28//28 
f 28//28 58//58 59//59 
f 44//44 60//60 56//56 
f 47//47 112//112 44//44 
f 45//45 46//46 108//108 
f 45//45 59//59 46//46 
f 54//54 111//111 46//46 
f 59//59 54//54 46//46 
f 48//48 47//47 49//49 
f 48//48 68//68 47//47 
f 48//48 62//62 68//68 
f 48//48 49//49 62//62 
f 62//62 42//42 52//52 
f 110//110 111//111 53//53 
f 53//53 52//52 110//110 
f 53//53 54//54 66//66 
f 53//53 111//111 54//54 
f 62//62 52//52 66//66 
f 52//52 53//53 66//66 
f 64//64 55//55 56//56 
f 63//63 57//57 58//58 
f 57//57 59//59 58//58 
f 57//57 74//74 59//59 
f 112//112 47//47 68//68 
f 54//54 59//59 66//66 
f 69//69 68//68 61//61 
f 69//69 61//61 70//70 
f 61//61 68//68 62//62 
f 61//61 62//62 70//70 
f 63//63 55//55 71//71 
f 73//73 57//57 63//63 
f 74//74 57//57 73//73 
f 56//56 60//60 113//113 
f 67//67 112//112 68//68 
f 77//77 69//69 65//65 
f 70//70 65//65 69//69 
f 74//74 66//66 59//59 
f 62//62 66//66 65//65 
f 70//70 62//62 65//65 
f 75//75 113//113 60//60 
f 67//67 114//114 112//112 
f 67//67 68//68 76//76 
f 68//68 69//69 76//76 
f 69//69 77//77 76//76 
f 64//64 79//79 55//55 
f 55//55 79//79 71//71 
f 79//79 80//80 71//71 
f 80//80 72//72 71//71 
f 73//73 72//72 81//81 
f 72//72 73//73 71//71 
f 73//73 82//82 74//74 
f 73//73 63//63 71//71 
f 74//74 65//65 66//66 
f 87//87 65//65 97//97 
f 77//77 65//65 87//87 
f 89//89 84//84 75//75 
f 84//84 113//113 75//75 
f 114//114 67//67 86//86 
f 86//86 67//67 76//76 
f 76//76 87//87 86//86 
f 76//76 77//77 87//87 
f 80//80 81//81 72//72 
f 81//81 82//82 73//73 
f 85//85 64//64 115//115 
f 79//79 64//64 85//85 
f 78//78 80//80 79//79 
f 78//78 79//79 85//85 
f 78//78 93//93 80//80 
f 95//95 93//93 78//78 
f 93//93 81//81 80//80 
f 65//65 74//74 83//83 
f 94//94 83//83 82//82 
f 74//74 82//82 83//83 
f 85//85 88//88 78//78 
f 88//88 95//95 78//78 
f 116//116 114//114 86//86 
f 87//87 100//100 86//86 
f 97//97 124//124 87//87 
f 97//97 65//65 83//83 
f 94//94 97//97 83//83 
f 85//85 115//115 88//88 
f 84//84 89//89 91//91 
f 117//117 86//86 100//100 
f 90//90 101//101 92//92 
f 102//102 125//125 118//118 
f 106//106 128//128 119//119 
f 92//92 88//88 115//115 
f 120//120 92//92 115//115 
f 120//120 90//90 92//92 
f 106//106 119//119 121//121 
f 92//92 103//103 88//88 
f 103//103 92//92 101//101 
f 132//132 91//91 89//89 
f 106//106 117//117 100//100 
f 94//94 81//81 93//93 
f 82//82 81//81 94//94 
f 95//95 98//98 93//93 
f 96//96 98//98 99//99 
f 94//94 93//93 96//96 
f 93//93 98//98 96//96 
f 94//94 122//122 97//97 
f 124//124 97//97 122//122 
f 123//123 124//124 122//122 
f 105//105 98//98 104//104 
f 131//131 107//107 123//123 
f 124//124 123//123 107//107 
f 98//98 105//105 99//99 
f 103//103 126//126 104//104 
f 129//129 104//104 127//127 
f 133//133 128//128 106//106 
f 88//88 103//103 95//95 
f 95//95 103//103 104//104 
f 95//95 104//104 98//98 
f 130//130 107//107 131//131 
f 129//129 105//105 104//104 
f 106//106 100//100 133//133 
