#
# The license for this database is specified in the Creative Commons Attribution-Share Alike 2.1 Japan. If you use data from this database, please be sure attribute this database as follows: "BodyParts3D, (c)  The Database Center for Life Science licensed under CC Attribution-Share Alike 2.1 Japan".
# http://dbarchive.biosciencedbc.jp/en/bodyparts3d/lic.html
#
#
# Compatibility version : 4.0
# File ID : FJ1826
# Representation ID : BP10545
# Build-up logic : FMA 3.0 part_of
# Concept ID : FMA73422
# English name : Right superior colliculus
# Bounds(mm): (-8.560300,-74.317600,1537.272700)-(-0.721200,-68.213700,1543.394000)
# Volume(cm3): 0.135000
#
v -8.51769 -72.3684 1541.12
v -7.9968 -73.5772 1539.24
v -7.44015 -74.1366 1539.6
v -7.18811 -73.8666 1538.88
v -6.36391 -73.9146 1538.9
v -8.27533 -73.5744 1540.78
v -7.7406 -74.017 1540.86
v -7.81438 -73.3621 1542.02
v -6.82252 -73.5619 1542.32
v -6.26034 -74.2611 1540.81
v -6.95441 -72.2777 1538.13
v -8.42231 -72.6308 1539.88
v -7.97702 -72.3895 1538.9
v -7.9423 -71.133 1539.24
v -7.48447 -72.9932 1538.45
v -7.46608 -72.1866 1538.38
v -6.4368 -73.2509 1538.28
v -8.27009 -72.6796 1542.05
v -8.18 -71.7005 1542.04
v -8.36467 -71.4061 1540.77
v -7.78845 -72.0592 1542.56
v -7.46251 -72.9593 1542.58
v -7.47773 -71.3953 1542.59
v -6.50317 -71.9806 1543.15
v -6.20009 -72.9389 1542.99
v -6.13738 -70.1724 1537.83
v -7.79809 -70.1334 1540.14
v -6.94008 -69.5991 1538.62
v -6.51389 -68.8359 1539.54
v -8.00202 -70.7532 1541.4
v -7.61646 -70.7272 1542.05
v -7.43941 -69.7757 1540.83
v -6.45362 -70.4717 1542.62
v -6.47153 -69.5692 1541.74
v -6.23248 -68.8857 1540.77
v -5.91245 -74.2794 1540.12
v -4.66343 -73.9899 1539.56
v -3.68471 -73.3992 1538.89
v -5.53737 -74.0664 1541.48
v -4.92408 -74.138 1540.76
v -4.11019 -72.0462 1537.62
v -5.20484 -73.2661 1542.66
v -4.386 -71.5281 1543.31
v -3.9897 -69.2246 1537.49
v -3.75974 -70.741 1537.34
v -5.57092 -68.4654 1539.88
v -5.2548 -68.663 1538.27
v -5.24994 -68.3849 1538.94
v -4.26243 -68.2821 1538.62
v -4.33782 -68.259 1539.85
v -5.20677 -68.7503 1541.09
v -4.331 -70.7465 1543.2
v -3.80593 -69.4358 1542.33
v -3.30375 -73.6008 1540.14
v -3.44704 -73.4369 1541.44
v -3.51172 -72.4365 1537.86
v -2.8248 -71.6512 1537.61
v -1.77 -71.0972 1537.81
v -2.69357 -72.9698 1538.95
v -2.31841 -72.3193 1538.28
v -1.50129 -72.3149 1539.77
v -1.10409 -71.1125 1538.59
v -3.30878 -72.5784 1542.46
v -3.06603 -71.1 1542.94
v -1.83812 -71.3726 1542.03
v -1.38531 -72.0633 1540.85
v -3.38571 -68.6329 1537.95
v -3.02027 -69.8157 1537.34
v -2.72527 -69.4468 1537.49
v -2.45132 -70.4442 1537.42
v -2.38818 -69.8264 1537.45
v -2.07004 -70.4522 1537.52
v -2.06337 -69.7795 1537.63
v -1.47001 -70.425 1537.94
v -3.3473 -68.3212 1539.8
v -3.04988 -68.4365 1538.6
v -2.71866 -68.5785 1540.22
v -2.6524 -68.5449 1539.48
v -2.38107 -68.8712 1538.24
v -1.88763 -69.1461 1538.7
v -2.0722 -68.9949 1540.43
v -1.68848 -69.5192 1538.29
v -1.28475 -69.8119 1540.1
v -1.1084 -70.4234 1538.64
v -3.39801 -68.6442 1541.06
v -2.68716 -69.8764 1542.4
v -2.69956 -68.9877 1541.41
v -1.77849 -69.4835 1541.13
v -1.26602 -70.7265 1541.39
v -0.815126 -71.0749 1540.11
v -1.26602 -70.7265 1541.39
vn -0.99437 0.000869488 0.105964
vn -0.762282 -0.46512 -0.4501
vn -0.310353 -0.931107 -0.191627
vn -0.271251 -0.711557 -0.648159
vn 0.0602869 -0.847379 -0.527555
vn -0.846171 -0.527433 0.0762123
vn -0.392263 -0.886946 0.243838
vn -0.546351 -0.650734 0.5273
vn -0.161723 -0.803353 0.573122
vn -0.0515112 -0.982578 0.178571
vn -0.273573 -0.126339 -0.953518
vn -0.972509 -0.0243024 -0.231594
vn -0.822121 0.000791573 -0.569312
vn -0.873613 0.251965 -0.41631
vn -0.50494 -0.270538 -0.819661
vn -0.622821 0.0864066 -0.777578
vn -0.0948891 -0.488989 -0.867113
vn -0.825207 -0.216702 0.521607
vn -0.848052 0.268317 0.456962
vn -0.961472 0.274728 -0.00980291
vn -0.590298 0.0401566 0.806186
vn -0.424588 -0.386568 0.818713
vn -0.519471 0.335486 0.785875
vn -0.264331 0.0598486 0.962573
vn -0.0871532 -0.449637 0.88895
vn -0.377444 0.198593 -0.904487
vn -0.846424 0.525373 -0.0868856
vn -0.683259 0.478926 -0.551169
vn -0.554989 0.82593 -0.0991334
vn -0.838659 0.482248 0.253155
vn -0.617586 0.551771 0.560479
vn -0.664768 0.699629 0.261922
vn -0.302551 0.518622 0.799684
vn -0.372382 0.73476 0.566973
vn -0.408445 0.861036 0.302969
vn 0.0587674 -0.990069 -0.127706
vn 0.222802 -0.943134 -0.246693
vn 0.292023 -0.823902 -0.485704
vn 0.115033 -0.910987 0.396069
vn 0.223658 -0.969207 0.103024
vn -0.0252787 -0.307943 -0.951069
vn 0.177617 -0.688558 0.703093
vn 0.149773 -0.193057 0.969689
vn -0.103138 0.375265 -0.921162
vn -0.0622493 -0.0778705 -0.995018
vn -0.260731 0.955868 0.13541
vn -0.323858 0.732409 -0.598909
vn -0.266217 0.951672 -0.153133
vn -0.0231788 0.970749 -0.238976
vn -0.0584399 0.988016 0.14286
vn -0.152463 0.88995 0.429819
vn 0.0335374 0.347309 0.937151
vn -0.00535077 0.724315 0.689449
vn 0.460456 -0.886741 -0.0408717
vn 0.409109 -0.831219 0.376437
vn 0.165381 -0.606369 -0.777795
vn 0.228554 -0.336597 -0.913491
vn 0.5551 -0.322266 -0.766817
vn 0.493109 -0.805828 -0.327849
vn 0.495149 -0.637417 -0.590362
vn 0.729359 -0.666883 -0.15265
vn 0.85537 -0.302238 -0.420708
vn 0.455721 -0.531331 0.714147
vn 0.417849 -0.020021 0.908296
vn 0.681457 -0.175716 0.710451
vn 0.749534 -0.572252 0.332755
vn 0.111974 0.780883 -0.61456
vn 0.0756079 0.13054 -0.988556
vn 0.260974 0.484712 -0.834834
vn 0.174662 -0.0825806 -0.981159
vn 0.301614 0.17974 -0.936335
vn 0.416614 -0.0493851 -0.907741
vn 0.548088 0.392642 -0.738533
vn 0.753052 0.10826 -0.648993
vn 0.188724 0.97871 0.0806792
vn 0.278753 0.940014 -0.196646
vn 0.369016 0.907304 0.201559
vn 0.474909 0.879939 -0.0129683
vn 0.50693 0.752641 -0.420183
vn 0.687234 0.719693 -0.0987481
vn 0.60602 0.78221 0.144524
vn 0.769621 0.529644 -0.356596
vn 0.856629 0.512013 0.0634784
vn 0.930831 0.264115 -0.25258
vn 0.105295 0.920482 0.376333
vn 0.466919 0.438636 0.767845
vn 0.368703 0.807966 0.459617
vn 0.690428 0.601803 0.401426
vn 0.86754 -0.249317 0.430366
vn 0.995483 -0.0830087 0.0460797
vn 0.802817 0.346551 0.485168
g grp1
usemtl mtl1
f 20//20 12//12 1//1 
f 12//12 2//2 6//6 
f 3//3 7//7 6//6 
f 6//6 1//1 12//12 
f 6//6 2//2 3//3 
f 3//3 2//2 4//4 
f 3//3 10//10 7//7 
f 10//10 3//3 36//36 
f 17//17 4//4 15//15 
f 3//3 4//4 5//5 
f 5//5 36//36 3//3 
f 5//5 4//4 17//17 
f 7//7 8//8 6//6 
f 8//8 18//18 6//6 
f 6//6 18//18 1//1 
f 9//9 8//8 7//7 
f 9//9 7//7 10//10 
f 9//9 22//22 8//8 
f 22//22 9//9 25//25 
f 9//9 10//10 39//39 
f 9//9 39//39 42//42 
f 56//56 17//17 41//41 
f 12//12 20//20 14//14 
f 20//20 27//27 14//14 
f 13//13 15//15 2//2 
f 2//2 12//12 13//13 
f 12//12 14//14 13//13 
f 4//4 2//2 15//15 
f 13//13 16//16 15//15 
f 16//16 13//13 14//14 
f 28//28 16//16 14//14 
f 15//15 16//16 11//11 
f 17//17 11//11 41//41 
f 17//17 15//15 11//11 
f 18//18 19//19 1//1 
f 18//18 21//21 19//19 
f 1//1 19//19 20//20 
f 27//27 20//20 30//30 
f 8//8 22//22 18//18 
f 21//21 18//18 22//22 
f 19//19 30//30 20//20 
f 19//19 31//31 30//30 
f 22//22 24//24 21//21 
f 23//23 19//19 21//21 
f 31//31 19//19 23//23 
f 23//23 21//21 24//24 
f 23//23 33//33 31//31 
f 33//33 23//23 24//24 
f 25//25 24//24 22//22 
f 43//43 24//24 25//25 
f 42//42 25//25 9//9 
f 26//26 11//11 16//16 
f 16//16 28//28 26//26 
f 45//45 11//11 26//26 
f 27//27 28//28 14//14 
f 29//29 28//28 27//27 
f 29//29 27//27 32//32 
f 29//29 32//32 35//35 
f 28//28 29//29 47//47 
f 47//47 29//29 48//48 
f 48//48 29//29 46//46 
f 32//32 27//27 30//30 
f 32//32 30//30 31//31 
f 31//31 33//33 34//34 
f 32//32 31//31 34//34 
f 34//34 35//35 32//32 
f 34//34 33//33 53//53 
f 52//52 33//33 24//24 
f 52//52 53//53 33//33 
f 35//35 34//34 51//51 
f 5//5 37//37 36//36 
f 40//40 36//36 37//37 
f 40//40 37//37 54//54 
f 55//55 40//40 54//54 
f 5//5 38//38 37//37 
f 37//37 38//38 54//54 
f 36//36 40//40 10//10 
f 40//40 39//39 10//10 
f 40//40 55//55 39//39 
f 41//41 11//11 45//45 
f 5//5 17//17 56//56 
f 56//56 38//38 5//5 
f 43//43 25//25 42//42 
f 55//55 63//63 42//42 
f 42//42 63//63 43//43 
f 43//43 63//63 64//64 
f 55//55 42//42 39//39 
f 66//66 63//63 55//55 
f 52//52 24//24 43//43 
f 28//28 47//47 26//26 
f 26//26 47//47 44//44 
f 44//44 45//45 26//26 
f 67//67 47//47 49//49 
f 47//47 67//67 44//44 
f 68//68 45//45 44//44 
f 29//29 35//35 46//46 
f 35//35 51//51 46//46 
f 49//49 47//47 48//48 
f 48//48 46//46 50//50 
f 50//50 46//46 51//51 
f 49//49 48//48 50//50 
f 75//75 50//50 85//85 
f 67//67 49//49 76//76 
f 76//76 49//49 75//75 
f 49//49 50//50 75//75 
f 53//53 51//51 34//34 
f 51//51 53//53 85//85 
f 50//50 51//51 85//85 
f 66//66 55//55 54//54 
f 66//66 54//54 61//61 
f 60//60 38//38 56//56 
f 57//57 60//60 56//56 
f 57//57 56//56 41//41 
f 57//57 41//41 45//45 
f 72//72 57//57 70//70 
f 70//70 57//57 45//45 
f 58//58 60//60 57//57 
f 57//57 72//72 58//58 
f 38//38 59//59 54//54 
f 38//38 60//60 59//59 
f 54//54 59//59 61//61 
f 60//60 61//61 59//59 
f 60//60 58//58 62//62 
f 58//58 74//74 62//62 
f 61//61 60//60 62//62 
f 74//74 84//84 62//62 
f 66//66 65//65 63//63 
f 63//63 65//65 64//64 
f 64//64 52//52 43//43 
f 89//89 65//65 66//66 
f 66//66 90//90 89//89 
f 69//69 44//44 67//67 
f 79//79 69//69 67//67 
f 67//67 76//76 79//79 
f 71//71 68//68 69//69 
f 69//69 68//68 44//44 
f 70//70 45//45 68//68 
f 70//70 68//68 71//71 
f 73//73 71//71 69//69 
f 79//79 73//73 69//69 
f 72//72 70//70 71//71 
f 71//71 73//73 72//72 
f 73//73 79//79 82//82 
f 74//74 58//58 72//72 
f 73//73 74//74 72//72 
f 74//74 73//73 82//82 
f 74//74 82//82 84//84 
f 76//76 75//75 78//78 
f 78//78 75//75 77//77 
f 77//77 75//75 85//85 
f 85//85 87//87 77//77 
f 79//79 76//76 78//78 
f 77//77 81//81 78//78 
f 87//87 81//81 77//77 
f 79//79 80//80 82//82 
f 81//81 87//87 88//88 
f 78//78 80//80 79//79 
f 81//81 80//80 78//78 
f 82//82 80//80 83//83 
f 81//81 83//83 80//80 
f 88//88 83//83 81//81 
f 82//82 83//83 84//84 
f 88//88 91//91 83//83 
f 62//62 84//84 90//90 
f 91//91 90//90 83//83 
f 90//90 84//84 83//83 
f 86//86 53//53 52//52 
f 64//64 86//86 52//52 
f 53//53 87//87 85//85 
f 86//86 87//87 53//53 
f 91//91 86//86 65//65 
f 65//65 86//86 64//64 
f 86//86 88//88 87//87 
f 91//91 88//88 86//86 
f 61//61 62//62 90//90 
f 66//66 61//61 90//90 
