#
# The license for this database is specified in the Creative Commons Attribution-Share Alike 2.1 Japan. If you use data from this database, please be sure attribute this database as follows: "BodyParts3D, (c)  The Database Center for Life Science licensed under CC Attribution-Share Alike 2.1 Japan".
# http://dbarchive.biosciencedbc.jp/en/bodyparts3d/lic.html
#
#
# Compatibility version : 4.0
# File ID : FJ2611
# Representation ID : BP9681
# Build-up logic : FMA 3.0 part_of
# Concept ID : FMA16983
# English name : Distal part of jejunum
# Bounds(mm): (-1.814500,-183.234000,914.000000)-(46.016300,-158.802000,944.522000)
# Volume(cm3): 16.930200
#
v -1.10201 -177.578 927.612
v -0.0602176 -178.339 931.194
v 0.42909 -180.026 928.871
v -1.81454 -173.809 926.179
v -0.756477 -176.238 923.694
v -1.11096 -172.597 931.888
v 1.83495 -170.844 936.102
v 1.33341 -165.266 925.085
v -0.88784 -168.221 927.587
v 0.00292803 -167.475 931.391
v 1.13516 -165.158 930.251
v 4.62475 -182.639 929.796
v 0.583089 -179.982 925.87
v 1.81776 -179.026 921.986
v 3.44949 -182.177 926.13
v 2.18818 -181.647 928.597
v 2.7166 -180.937 931.736
v 7.23012 -177.006 937.906
v 0.414688 -171.621 921.053
v 2.9767 -174.799 918.602
v 2.00537 -175.655 935.934
v 4.74931 -173.371 938.283
v 5.71978 -166.415 918.691
v 3.13271 -164.995 933.806
v 4.75486 -165.626 936.001
v 7.87802 -167.254 938.307
v 5.66653 -162.687 922.671
v 4.36193 -162.465 930.361
v 7.23415 -163.823 935.741
v 7.79762 -161.618 932.586
v 8.49609 -183.234 927.376
v 6.6207 -178.659 918.714
v 6.0637 -180.888 921.122
v 9.54549 -181.725 933.901
v 7.71007 -172.241 916.362
v 10.797 -176.773 917.302
v 10.4806 -171.637 939.576
v 12.4679 -168.494 939.671
v 13.2988 -171.115 940.32
v 10.0764 -162.627 920.574
v 10.0806 -160.345 926.698
v 12.5864 -164.976 937.983
v 12.6358 -162.726 935.875
v 15.8709 -180.711 922.188
v 16.8842 -172.121 916.733
v 14.8111 -165.476 918.06
v 16.465 -159.875 931.202
v 21.0762 -177.234 920.21
v 23.4776 -170.889 917.958
v 25.1439 -168.243 944.522
v 19.6413 -161.178 923.237
v 23.4339 -164.126 920.758
v 24.417 -164.583 919.876
v 24.4892 -162.668 922.311
v 24.6312 -161.365 924.519
v 24.293 -162.158 942.053
v 24.3872 -178.454 923.017
v 25.8016 -179.795 926.707
v 28.1426 -180.176 926.939
v 26.7636 -180.996 935.966
v 27.2792 -179.254 940.225
v 24.1605 -176.187 919.943
v 27.1854 -177.839 919.337
v 29.3769 -175.31 943.192
v 27.8626 -166.918 915.344
v 32.8614 -167.061 943.87
v 29.7474 -163.094 916.786
v 25.7783 -161.477 923.619
v 25.9431 -160.534 926.721
v 27.0366 -160.466 926.041
v 28.5577 -163.038 944.046
v 32.0027 -161.187 942.156
v 29.2024 -159.86 940.95
v 34.4089 -178.97 920.285
v 32.4987 -180.648 930.387
v 35.3217 -179.82 933.155
v 32.9666 -178.683 939.32
v 29.5699 -174.689 915.531
v 34.3322 -174.247 914.941
v 34.8495 -173.596 942.194
v 30.9852 -167.79 914.009
v 35.0662 -164.377 915.469
v 36.2066 -161.557 918.316
v 31.9136 -159.894 920.731
v 34.2946 -158.802 934.134
v 36.4249 -179.483 925.131
v 38.7167 -175.307 917.728
v 40.1841 -176.146 920.955
v 42.8869 -174.439 931.771
v 40.4055 -175.258 937.02
v 35.8779 -169.922 914
v 38.9165 -171.314 915.56
v 39.8671 -168.118 916.244
v 40.4551 -168.797 940.232
v 42.2466 -171.261 938.591
v 41.9536 -165.364 919.496
v 42.4767 -163.696 922.036
v 43.8321 -163.167 930.464
v 41.1584 -163.877 938.897
v 43.4903 -166.76 938.306
v 37.7582 -159.645 923.868
v 40.6742 -160.546 936.15
v 42.7495 -170.592 919.483
v 43.9759 -172.089 924.189
v 44.7008 -168.202 924.373
v 45.2209 -171.254 932.432
v 44.7072 -171.516 935.644
v 44.7119 -170.714 936.634
v 45.8357 -169.241 935.672
v 45.1872 -168.497 937.136
v 46.0163 -168.399 933.908
v 44.7302 -165.387 937.166
v 44.8167 -164.538 936.424
v 45.743 -166.913 936.437
v 45.5212 -165.555 933.927
v 23.4776 -170.889 917.958
v 23.4776 -170.889 917.958
v 23.4776 -170.889 917.958
v 23.4339 -164.126 920.758
v 24.1605 -176.187 919.943
v 24.1605 -176.187 919.943
v 27.8626 -166.918 915.344
v 28.5577 -163.038 944.046
vn -0.937069 -0.348806 0.015389
vn -0.822729 -0.431064 0.370542
vn -0.75608 -0.640325 0.135378
vn -0.991411 0.00059289 -0.13078
vn -0.866764 -0.280207 -0.412558
vn -0.944267 0.000322389 0.32918
vn -0.682517 0.209357 0.700243
vn -0.733071 0.616317 -0.287681
vn -0.936595 0.345998 -0.0554615
vn -0.851703 0.384699 0.355822
vn -0.756077 0.637176 0.149514
vn -0.269699 -0.943664 0.191729
vn -0.737031 -0.644484 -0.203533
vn -0.584509 -0.593499 -0.553271
vn -0.390295 -0.893554 -0.221879
vn -0.564542 -0.822009 0.0747965
vn -0.494465 -0.722467 0.483266
vn -0.268788 -0.41661 0.868441
vn -0.825954 0.187887 -0.531506
vn -0.579557 -0.148619 -0.801266
vn -0.650215 -0.317738 0.690118
vn -0.39486 -0.0560739 0.917029
vn -0.437899 0.444983 -0.781175
vn -0.605086 0.633007 0.48288
vn -0.493376 0.492648 0.716853
vn -0.306119 0.334118 0.891435
vn -0.437252 0.821603 -0.365759
vn -0.510109 0.854612 0.0970944
vn -0.298306 0.692981 0.656347
vn -0.282956 0.888871 0.360339
vn -0.00788903 -0.996663 -0.0812465
vn -0.201793 -0.552784 -0.808523
vn -0.17203 -0.842169 -0.511036
vn -0.120413 -0.878146 0.46299
vn -0.170519 -0.01039 -0.9853
vn 0.0767761 -0.47742 -0.875314
vn -0.235436 0.00661188 0.971867
vn -0.297829 0.260955 0.918259
vn -0.297782 0.0110524 0.95457
vn -0.119636 0.795626 -0.593857
vn -0.166849 0.979035 -0.11684
vn -0.261757 0.550542 0.792708
vn -0.216431 0.800121 0.559431
vn 0.167718 -0.854307 -0.491967
vn 0.143538 -0.115026 -0.982937
vn 0.0537929 0.464892 -0.883732
vn -0.16281 0.955951 0.244235
vn 0.197225 -0.573961 -0.794777
vn 0.138768 -0.377518 -0.915545
vn -0.207525 0.0448632 0.977201
vn 0.0762404 0.864392 -0.497005
vn 0.0577762 0.660524 -0.748579
vn -0.505267 0.539561 -0.673483
vn -0.188029 0.808239 -0.558027
vn -0.0291416 0.90164 -0.431505
vn -0.329291 0.622322 0.710129
vn -0.00456346 -0.880234 -0.474518
vn 0.0390168 -0.967786 -0.248734
vn -0.0680026 -0.978028 -0.19707
vn 0.0825733 -0.992332 0.0919765
vn 0.00220541 -0.776892 0.629629
vn 0.0363746 -0.346504 -0.937343
vn -0.257305 -0.822696 -0.506918
vn 0.0822887 -0.407821 0.909346
vn -0.423152 -0.114618 -0.89878
vn 0.294492 0.0621177 0.953633
vn -0.285895 0.690333 -0.664609
vn -0.295032 0.889449 -0.349051
vn -0.0542168 0.958918 -0.278454
vn -0.214983 0.963788 -0.157783
vn -0.173915 0.589389 0.788907
vn 0.293381 0.589993 0.75222
vn -0.0245077 0.888959 0.457331
vn 0.152813 -0.875796 -0.457853
vn 0.11778 -0.992138 -0.0423056
vn 0.396825 -0.904765 0.154696
vn 0.315118 -0.775023 0.547759
vn -0.299573 -0.431521 -0.850909
vn 0.133256 -0.462564 -0.876514
vn 0.412551 -0.363216 0.83539
vn -0.146455 0.125961 -0.981165
vn 0.237594 0.480372 -0.84427
vn 0.28648 0.761056 -0.581999
vn -0.13952 0.942468 -0.30379
vn 0.00965254 0.998977 -0.0441688
vn 0.355542 -0.929159 -0.101261
vn 0.526911 -0.589298 -0.612448
vn 0.665012 -0.691291 -0.282622
vn 0.704207 -0.708659 0.0435341
vn 0.587248 -0.660756 0.467484
vn 0.25128 0.0237962 -0.967622
vn 0.541721 -0.238739 -0.805942
vn 0.589911 0.181369 -0.786835
vn 0.487385 -0.0257929 0.872806
vn 0.56229 -0.342815 0.752534
vn 0.716403 0.378299 -0.586223
vn 0.729997 0.593005 -0.339779
vn 0.774339 0.62635 -0.089912
vn 0.480155 0.382579 0.789357
vn 0.558768 0.111858 0.821746
vn 0.362655 0.913681 -0.183488
vn 0.436985 0.846951 0.302851
vn 0.835356 -0.19032 -0.515712
vn 0.887245 -0.418652 -0.193717
vn 0.966588 0.0997774 -0.23612
vn 0.9226 -0.384663 -0.0290503
vn 0.789687 -0.562058 0.245937
vn 0.723913 -0.430539 0.539061
vn 0.930608 -0.261936 0.255652
vn 0.698934 -0.131347 0.703022
vn 0.999058 -0.0220995 -0.0373427
vn 0.647143 0.294516 0.703183
vn 0.765847 0.547172 0.33776
vn 0.901974 0.140721 0.408217
vn 0.940455 0.337534 -0.0401862
vn 0.179762 0.305437 -0.93509
vn -0.484241 -0.238779 -0.841722
vn -0.613862 0.31197 -0.725154
vn -0.547573 0.31706 -0.774363
vn 0.213201 -0.778735 -0.590014
vn -0.495473 -0.548091 -0.673872
vn -0.496386 0.432326 -0.752792
vn 0.205242 0.177251 0.962527
g grp1
usemtl mtl1
f 5//5 13//13 1//1 
f 1//1 2//2 6//6 
f 3//3 2//2 1//1 
f 3//3 17//17 2//2 
f 2//2 17//17 21//21 
f 6//6 2//2 21//21 
f 3//3 1//1 13//13 
f 5//5 1//1 4//4 
f 19//19 5//5 4//4 
f 19//19 20//20 5//5 
f 4//4 1//1 6//6 
f 7//7 6//6 21//21 
f 4//4 9//9 19//19 
f 19//19 9//9 8//8 
f 9//9 11//11 8//8 
f 23//23 19//19 8//8 
f 4//4 6//6 9//9 
f 6//6 10//10 9//9 
f 10//10 11//11 9//9 
f 24//24 11//11 10//10 
f 11//11 24//24 28//28 
f 28//28 8//8 11//11 
f 6//6 7//7 10//10 
f 10//10 7//7 24//24 
f 15//15 31//31 12//12 
f 14//14 5//5 20//20 
f 32//32 14//14 20//20 
f 32//32 33//33 14//14 
f 13//13 5//5 14//14 
f 16//16 13//13 15//15 
f 15//15 12//12 16//16 
f 13//13 14//14 15//15 
f 15//15 14//14 33//33 
f 31//31 15//15 33//33 
f 3//3 13//13 16//16 
f 17//17 3//3 16//16 
f 12//12 17//17 16//16 
f 34//34 12//12 31//31 
f 21//21 17//17 18//18 
f 18//18 22//22 21//21 
f 17//17 34//34 18//18 
f 17//17 12//12 34//34 
f 23//23 20//20 19//19 
f 20//20 23//23 35//35 
f 21//21 22//22 7//7 
f 7//7 22//22 26//26 
f 22//22 37//37 26//26 
f 18//18 37//37 22//22 
f 7//7 26//26 25//25 
f 24//24 7//7 25//25 
f 25//25 26//26 29//29 
f 26//26 37//37 38//38 
f 23//23 27//27 40//40 
f 27//27 23//23 8//8 
f 40//40 27//27 41//41 
f 24//24 30//30 28//28 
f 27//27 8//8 28//28 
f 28//28 30//30 41//41 
f 27//27 28//28 41//41 
f 41//41 30//30 47//47 
f 24//24 25//25 29//29 
f 24//24 29//29 30//30 
f 29//29 26//26 42//42 
f 44//44 33//33 32//32 
f 44//44 32//32 36//36 
f 32//32 35//35 36//36 
f 33//33 44//44 31//31 
f 20//20 35//35 32//32 
f 36//36 35//35 45//45 
f 35//35 46//46 45//45 
f 39//39 37//37 18//18 
f 18//18 50//50 39//39 
f 46//46 35//35 23//23 
f 42//42 26//26 38//38 
f 38//38 37//37 39//39 
f 38//38 39//39 50//50 
f 46//46 23//23 40//40 
f 40//40 51//51 46//46 
f 51//51 40//40 41//41 
f 41//41 47//47 85//85 
f 30//30 43//43 47//47 
f 29//29 43//43 30//30 
f 42//42 43//43 29//29 
f 36//36 48//48 44//44 
f 36//36 45//45 48//48 
f 31//31 44//44 60//60 
f 45//45 49//49 48//48 
f 116//116 45//45 46//46 
f 56//56 38//38 50//50 
f 42//42 38//38 56//56 
f 52//52 46//46 51//51 
f 85//85 51//51 41//41 
f 43//43 56//56 47//47 
f 43//43 42//42 56//56 
f 48//48 57//57 44//44 
f 18//18 34//34 61//61 
f 60//60 34//34 31//31 
f 49//49 62//62 48//48 
f 120//120 57//57 48//48 
f 18//18 64//64 50//50 
f 46//46 52//52 116//116 
f 117//117 65//65 78//78 
f 71//71 56//56 50//50 
f 66//66 123//123 50//50 
f 85//85 69//69 51//51 
f 51//51 69//69 55//55 
f 51//51 55//55 54//54 
f 54//54 52//52 51//51 
f 53//53 118//118 119//119 
f 54//54 53//53 52//52 
f 54//54 55//55 68//68 
f 68//68 55//55 69//69 
f 47//47 56//56 73//73 
f 57//57 121//121 63//63 
f 57//57 63//63 59//59 
f 63//63 74//74 59//59 
f 57//57 58//58 44//44 
f 44//44 58//58 60//60 
f 57//57 59//59 58//58 
f 60//60 58//58 59//59 
f 60//60 59//59 75//75 
f 75//75 76//76 60//60 
f 60//60 61//61 34//34 
f 77//77 61//61 60//60 
f 77//77 64//64 61//61 
f 63//63 121//121 78//78 
f 74//74 63//63 78//78 
f 121//121 117//117 78//78 
f 64//64 18//18 61//61 
f 50//50 64//64 66//66 
f 66//66 64//64 80//80 
f 78//78 65//65 81//81 
f 53//53 122//122 118//118 
f 81//81 122//122 67//67 
f 53//53 54//54 67//67 
f 67//67 122//122 53//53 
f 67//67 54//54 68//68 
f 84//84 67//67 68//68 
f 70//70 68//68 69//69 
f 69//69 85//85 70//70 
f 68//68 70//70 84//84 
f 73//73 56//56 71//71 
f 72//72 73//73 71//71 
f 72//72 123//123 66//66 
f 85//85 84//84 70//70 
f 101//101 84//84 85//85 
f 85//85 47//47 73//73 
f 59//59 74//74 86//86 
f 59//59 86//86 75//75 
f 86//86 76//76 75//75 
f 76//76 77//77 60//60 
f 90//90 77//77 76//76 
f 78//78 79//79 74//74 
f 77//77 80//80 64//64 
f 79//79 78//78 81//81 
f 91//91 79//79 81//81 
f 80//80 94//94 66//66 
f 66//66 94//94 99//99 
f 83//83 67//67 84//84 
f 82//82 81//81 67//67 
f 82//82 67//67 83//83 
f 73//73 72//72 102//102 
f 99//99 72//72 66//66 
f 83//83 84//84 101//101 
f 102//102 85//85 73//73 
f 87//87 79//79 92//92 
f 74//74 79//79 87//87 
f 88//88 74//74 87//87 
f 88//88 86//86 74//74 
f 103//103 87//87 92//92 
f 103//103 88//88 87//87 
f 89//89 86//86 88//88 
f 104//104 89//89 88//88 
f 104//104 106//106 89//89 
f 86//86 89//89 76//76 
f 90//90 80//80 77//77 
f 90//90 76//76 89//89 
f 80//80 90//90 95//95 
f 91//91 92//92 79//79 
f 93//93 92//92 91//91 
f 92//92 93//93 103//103 
f 100//100 99//99 94//94 
f 80//80 95//95 94//94 
f 95//95 90//90 108//108 
f 107//107 89//89 106//106 
f 90//90 89//89 107//107 
f 108//108 90//90 107//107 
f 110//110 94//94 95//95 
f 110//110 100//100 94//94 
f 82//82 91//91 81//81 
f 82//82 93//93 91//91 
f 83//83 101//101 97//97 
f 82//82 83//83 96//96 
f 93//93 82//82 96//96 
f 96//96 83//83 97//97 
f 85//85 102//102 101//101 
f 101//101 102//102 98//98 
f 98//98 97//97 101//101 
f 99//99 102//102 72//72 
f 99//99 113//113 102//102 
f 112//112 99//99 100//100 
f 98//98 102//102 113//113 
f 104//104 88//88 103//103 
f 93//93 96//96 103//103 
f 104//104 103//103 105//105 
f 96//96 105//105 103//103 
f 106//106 104//104 105//105 
f 106//106 109//109 107//107 
f 106//106 105//105 111//111 
f 106//106 111//111 109//109 
f 108//108 110//110 95//95 
f 110//110 114//114 100//100 
f 107//107 109//109 108//108 
f 108//108 109//109 110//110 
f 109//109 114//114 110//110 
f 109//109 111//111 114//114 
f 96//96 97//97 105//105 
f 105//105 97//97 98//98 
f 105//105 98//98 115//115 
f 105//105 115//115 111//111 
f 114//114 112//112 100//100 
f 113//113 112//112 114//114 
f 112//112 113//113 99//99 
f 113//113 115//115 98//98 
f 111//111 115//115 114//114 
f 114//114 115//115 113//113 
