#
# The license for this database is specified in the Creative Commons Attribution-Share Alike 2.1 Japan. If you use data from this database, please be sure attribute this database as follows: "BodyParts3D, (c)  The Database Center for Life Science licensed under CC Attribution-Share Alike 2.1 Japan".
# http://dbarchive.biosciencedbc.jp/en/bodyparts3d/lic.html
#
#
# Compatibility version : 4.0
# File ID : FJ2620
# Representation ID : BP9681
# Build-up logic : FMA 3.0 part_of
# Concept ID : FMA16983
# English name : Distal part of jejunum
# Bounds(mm): (-80.458600,-170.556000,971.031000)-(-47.032800,-127.621000,1012.380000)
# Volume(cm3): 13.333400
#
v -80.0674 -138.808 1002.37
v -80.4586 -137.164 1003.98
v -79.9621 -133.644 1005.48
v -79.802 -133.664 1003.19
v -77.6571 -142.084 1000.78
v -75.0455 -142.123 1008.49
v -79.3977 -138.228 1000.77
v -79.8686 -136.463 1001.56
v -77.6426 -136.661 999.342
v -76.2388 -141.131 998.7
v -78.7667 -141.161 1004.49
v -79.1722 -137.262 1007.19
v -76.4178 -135.878 1010.21
v -77.9119 -132.762 1001.46
v -78.365 -132.301 1008.25
v -78.8175 -131.383 1004.57
v -78.432 -130.743 1006.74
v -77.2569 -129.621 1006.71
v -77.0828 -130.004 1008.24
v -75.984 -129.562 1004.32
v -74.9792 -131.673 1010.87
v -73.2387 -132.617 1011.89
v -73.2558 -130.182 1011.18
v -73.4538 -128.14 1009.18
v -73.4411 -127.884 1008.23
v -71.4123 -146.532 999.667
v -69.6468 -143.744 997.287
v -72.0932 -137.772 996.999
v -72.7083 -137.129 1011.78
v -71.278 -131.803 1000.03
v -70.4264 -134.428 997.763
v -70.9456 -135.524 1012.38
v -70.9007 -131.157 1012.17
v -69.2836 -130.37 1011.88
v -67.8772 -133.141 1012.33
v -69.9415 -127.64 1006.46
v -71.6318 -128.618 1010.56
v -71.6675 -127.621 1009.03
v -69.9943 -128.296 1010.31
v -68.2601 -127.655 1008.6
v -67.2369 -129.758 1010.93
v -67.2463 -128.233 1009.28
v -67.2161 -167.172 978.199
v -69.5232 -161.861 974.716
v -67.9897 -164.977 974.487
v -67.5085 -163.364 972.925
v -69.6442 -162.706 978.151
v -67.9854 -164.865 985.183
v -65.3902 -161.877 995.865
v -70.1846 -159.543 977.414
v -69.5013 -155.774 977.661
v -69.0317 -157.757 974.069
v -66.9918 -156.912 972.742
v -67.8814 -158.165 992.803
v -66.7952 -155.436 998.215
v -65.6395 -156.56 1000.04
v -67.0593 -152.125 977.46
v -66.8512 -153.946 973.784
v -65.6829 -150.358 990.248
v -67.7394 -151.547 1000.52
v -67.605 -148.505 997.204
v -66.9294 -151.514 995.54
v -67.6909 -151.385 1003
v -65.6428 -150.753 1006.38
v -64.8678 -144.453 994.579
v -66.6757 -143.488 1011.07
v -67.6209 -140.388 996.228
v -64.308 -137.847 995.8
v -62.1724 -138.441 1010.65
v -66.2633 -131.606 1011.47
v -64.9798 -130.761 1009.94
v -61.6771 -136.048 1009.81
v -66.2227 -128.783 1004.41
v -65.3053 -128.679 1006.71
v -63.7162 -130.325 1004.64
v -63.5086 -130.553 1006.49
v -66.7572 -127.928 1007.63
v -65.8276 -128.628 1008.3
v -64.4728 -168.725 974.71
v -62.4732 -166.671 971.702
v -65.7564 -168.215 982.405
v -64.091 -169.819 978.45
v -63.0677 -169.843 981.511
v -61.118 -170.556 979.422
v -63.4283 -167.27 988.734
v -60.6336 -169.888 983.021
v -65.4257 -165.214 972.201
v -65.3377 -163.173 971.807
v -59.1827 -162.799 999.348
v -64.6312 -155.116 972.4
v -61.8428 -159.195 1001.4
v -58.0955 -159.696 1002.57
v -63.8054 -151.184 975.439
v -59.3872 -149.911 1008.29
v -61.7566 -146.411 988.407
v -59.7612 -141.662 993.03
v -58.3615 -139.534 994.95
v -57.7489 -138.082 999.956
v -60.8188 -135.501 1008.31
v -60.8155 -170.414 975.292
v -61.1428 -169.064 972.907
v -59.3737 -168.249 972.584
v -57.987 -169.972 980.95
v -57.4742 -169.666 977.088
v -54.4883 -167.622 982.767
v -60.9807 -162.146 971.031
v -59.4359 -164.666 971.19
v -57.6459 -160.696 972.421
v -56.6538 -163.156 973.01
v -56.7673 -165.379 994.691
v -52.7704 -163.086 995.747
v -54.4338 -161.57 1000.63
v -60.3155 -155.203 973.013
v -55.8134 -156.73 1004.61
v -51.6991 -155.989 1003.74
v -57.7152 -152.709 976.244
v -50.6643 -149.302 1004.12
v -52.7525 -149.779 1006.11
v -54.1008 -145.022 987.583
v -55.6506 -143.666 1007.15
v -54.9087 -140.999 995.613
v -54.7039 -141.054 998.983
v -55.051 -141.553 1003.38
v -53.4827 -165.671 978.68
v -50.6872 -161.918 984.896
v -51.4162 -160.375 998.987
v -52.4174 -155.295 979.519
v -50.3437 -157.544 982.617
v -49.5127 -158.852 995.169
v -47.2983 -152.411 995
v -50.3067 -151.819 1003.95
v -48.9311 -154.862 1000.69
v -48.424 -150.303 1000.67
v -51.6786 -143.886 990.881
v -50.6372 -144.003 992.286
v -50.6497 -146.411 987.828
v -49.2632 -145.335 991.193
v -48.7722 -148.446 988.643
v -47.7732 -146.743 992.595
v -47.2743 -149.262 992.141
v -49.378 -144.827 994.477
v -48.1324 -146.61 995.993
v -47.0328 -148.95 994.811
v -50.2849 -146.48 1001.33
v -71.4123 -146.532 999.667
v -67.7394 -151.547 1000.52
v -67.7394 -151.547 1000.52
v -67.605 -148.505 997.204
v -67.6909 -151.385 1003
v -62.4732 -166.671 971.702
v -59.7612 -141.662 993.03
v -61.1428 -169.064 972.907
v -61.1428 -169.064 972.907
v -59.3737 -168.249 972.584
vn -0.932384 -0.283972 -0.223652
vn -0.995251 -0.0736107 0.0636989
vn -0.951652 0.240073 0.191636
vn -0.891263 0.34929 -0.289218
vn -0.720706 -0.571779 -0.391984
vn -0.529433 -0.514044 0.674878
vn -0.768673 -0.142061 -0.623667
vn -0.856598 0.156401 -0.49171
vn -0.508602 0.205302 -0.836167
vn -0.4606 -0.258384 -0.849167
vn -0.804556 -0.54873 0.227124
vn -0.817516 -0.194918 0.541918
vn -0.568093 -0.108825 0.815737
vn -0.502468 0.554454 -0.663405
vn -0.772441 0.204588 0.601231
vn -0.731 0.642715 -0.22925
vn -0.810226 0.546076 0.212918
vn -0.554342 0.83144 0.0375823
vn -0.613447 0.583244 0.532457
vn -0.331527 0.852551 -0.404038
vn -0.537233 0.242165 0.807921
vn -0.33569 0.0810588 0.938478
vn -0.36954 0.463137 0.805571
vn -0.386282 0.804889 0.450488
vn -0.287542 0.957718 -0.00980438
vn -0.548974 -0.482899 -0.682229
vn -0.412736 -0.241967 -0.878124
vn -0.254708 0.106695 -0.961114
vn -0.325049 -0.221921 0.91929
vn -0.0578324 0.74575 -0.663711
vn -0.148611 0.49142 -0.85815
vn -0.0951776 -0.059675 0.99367
vn -0.105806 0.269225 0.957247
vn 0.114254 0.448571 0.886414
vn 0.16448 0.0734276 0.983644
vn -0.0190443 0.966574 -0.25568
vn -0.14827 0.667412 0.729779
vn -0.0975567 0.953121 0.286432
vn 0.0922901 0.777226 0.622417
vn 0.142957 0.964713 0.221118
vn 0.353623 0.584806 0.730036
vn 0.38465 0.786638 0.482955
vn -0.766956 -0.639751 -0.0499711
vn -0.902589 -0.192989 -0.384822
vn -0.765119 -0.506615 -0.397409
vn -0.610567 -0.186535 -0.769683
vn -0.947431 -0.319708 0.0127154
vn -0.823642 -0.517513 0.231937
vn -0.702618 -0.543964 0.458727
vn -0.997681 0.0223411 -0.0642944
vn -0.919992 0.37841 -0.102081
vn -0.766833 0.152038 -0.623579
vn -0.442568 0.175961 -0.879302
vn -0.986561 -0.0259477 0.16132
vn -0.951393 -0.227523 0.207571
vn -0.778097 -0.476226 0.409602
vn -0.672376 0.711782 -0.203166
vn -0.57825 0.533168 -0.617543
vn -0.890483 0.437485 -0.125085
vn -0.634967 -0.556328 -0.536018
vn -0.708346 -0.18726 -0.680573
vn -0.978887 0.0725889 -0.19108
vn -0.65506 -0.728513 0.200413
vn -0.413636 -0.594608 0.689454
vn -0.640772 0.185528 -0.744977
vn -0.0618841 -0.310502 0.948556
vn -0.291737 -0.0113767 -0.956431
vn -0.146234 0.329324 -0.932824
vn 0.398703 0.0346923 0.916424
vn 0.429578 0.311822 0.847485
vn 0.643465 0.529961 0.552354
vn 0.632928 0.312637 0.70828
vn 0.29114 0.868542 -0.401088
vn 0.587177 0.809345 -0.0135559
vn 0.656376 0.727835 -0.198559
vn 0.771633 0.612462 0.171677
vn 0.335755 0.941312 0.0346392
vn 0.608935 0.727831 0.315373
vn -0.511918 -0.732461 -0.448821
vn -0.421644 -0.593309 -0.685712
vn -0.602965 -0.775083 0.188891
vn -0.448664 -0.893266 -0.0278516
vn -0.308137 -0.92796 0.209624
vn -0.0690264 -0.994606 0.0774277
vn -0.368381 -0.848519 0.379882
vn -0.0274085 -0.960552 0.276745
vn -0.47697 -0.403886 -0.780625
vn -0.32668 -0.0295635 -0.944673
vn -0.202589 -0.781324 0.590331
vn -0.11508 0.344712 -0.931628
vn -0.453984 -0.605288 0.653854
vn -0.135698 -0.605779 0.783976
vn -0.0910842 0.800319 -0.592616
vn 0.0975296 -0.36871 0.924414
vn -0.489842 0.776668 -0.396033
vn -0.221182 0.717608 -0.660392
vn 0.259843 0.775599 -0.575263
vn 0.696449 0.712615 -0.0844866
vn 0.767829 0.473989 0.431013
vn 0.0313919 -0.964881 -0.260804
vn -0.382466 -0.727075 -0.57016
vn 0.583317 -0.58238 -0.566194
vn 0.29683 -0.948395 0.111527
vn 0.556263 -0.799951 -0.225054
vn 0.680848 -0.728856 0.0722177
vn 0.0543177 0.0889037 -0.994558
vn 0.315957 -0.125869 -0.940387
vn 0.526616 0.212803 -0.823037
vn 0.743899 -0.0919741 -0.661933
vn 0.196363 -0.908535 0.36879
vn 0.602061 -0.751321 0.270258
vn 0.282393 -0.734247 0.617361
vn 0.28546 0.434077 -0.854453
vn 0.133212 -0.520434 0.843447
vn 0.508 -0.416206 0.754128
vn 0.456843 0.567653 -0.684883
vn 0.77098 0.213638 0.599958
vn 0.520895 -0.0488378 0.852222
vn 0.0899071 0.816702 -0.570013
vn 0.706846 0.330408 0.625459
vn 0.522387 0.840306 -0.144902
vn 0.659014 0.750106 0.0551506
vn 0.753754 0.614626 0.232571
vn 0.837813 -0.416267 -0.353259
vn 0.923014 -0.374032 -0.0902486
vn 0.708661 -0.590217 0.386578
vn 0.744827 0.261098 -0.614053
vn 0.927477 -0.0548034 -0.369842
vn 0.867513 -0.482981 0.118956
vn 0.983812 -0.177925 0.0213838
vn 0.762079 -0.0957194 0.64037
vn 0.880755 -0.29927 0.367025
vn 0.922451 0.117095 0.367931
vn 0.416292 0.826007 -0.380018
vn 0.547049 0.819788 -0.169369
vn 0.554747 0.619087 -0.555866
vn 0.674123 0.671555 -0.307526
vn 0.838916 0.313224 -0.445097
vn 0.884325 0.446877 -0.135171
vn 0.973809 0.0609242 -0.219054
vn 0.673585 0.738592 0.0276602
vn 0.84141 0.496236 0.21396
vn 0.984814 0.153918 0.0803185
vn 0.796174 0.450538 0.403885
vn -0.809943 -0.584017 0.0540089
vn -0.977609 -0.136812 -0.159885
vn -0.876698 -0.461241 0.136592
vn -0.978365 -0.131194 -0.159971
vn -0.870422 -0.489858 0.0490387
vn -0.0757942 -0.240164 -0.967769
vn -0.38254 0.199125 -0.902226
vn 0.284692 -0.816898 -0.501626
vn 0.0353785 -0.43369 -0.900367
vn 0.0582224 -0.397436 -0.915781
g grp1
usemtl mtl1
f 7//7 1//1 8//8 
f 1//1 2//2 8//8 
f 8//8 2//2 4//4 
f 2//2 12//12 3//3 
f 1//1 11//11 2//2 
f 2//2 11//11 12//12 
f 2//2 3//3 4//4 
f 15//15 3//3 12//12 
f 4//4 3//3 16//16 
f 5//5 10//10 26//26 
f 1//1 5//5 11//11 
f 5//5 63//63 11//11 
f 63//63 6//6 11//11 
f 6//6 63//63 64//64 
f 64//64 66//66 6//6 
f 8//8 9//9 7//7 
f 1//1 7//7 5//5 
f 10//10 5//5 7//7 
f 10//10 7//7 9//9 
f 9//9 31//31 28//28 
f 28//28 10//10 9//9 
f 6//6 12//12 11//11 
f 15//15 12//12 13//13 
f 6//6 13//13 12//12 
f 13//13 6//6 29//29 
f 29//29 6//6 66//66 
f 4//4 14//14 8//8 
f 16//16 14//14 4//4 
f 8//8 14//14 9//9 
f 9//9 14//14 31//31 
f 14//14 16//16 20//20 
f 30//30 31//31 14//14 
f 16//16 3//3 17//17 
f 17//17 3//3 15//15 
f 16//16 17//17 18//18 
f 17//17 15//15 19//19 
f 20//20 16//16 18//18 
f 17//17 19//19 18//18 
f 21//21 19//19 15//15 
f 21//21 15//15 13//13 
f 24//24 19//19 23//23 
f 13//13 22//22 21//21 
f 23//23 19//19 21//21 
f 29//29 22//22 13//13 
f 22//22 23//23 21//21 
f 29//29 32//32 22//22 
f 23//23 22//22 33//33 
f 19//19 24//24 18//18 
f 20//20 18//18 25//25 
f 25//25 18//18 24//24 
f 14//14 20//20 30//30 
f 30//30 20//20 36//36 
f 36//36 20//20 25//25 
f 24//24 23//23 37//37 
f 24//24 38//38 25//25 
f 25//25 38//38 36//36 
f 24//24 37//37 38//38 
f 65//65 61//61 26//26 
f 63//63 5//5 26//26 
f 26//26 10//10 27//27 
f 65//65 26//26 27//27 
f 67//67 27//27 10//10 
f 67//67 10//10 28//28 
f 28//28 31//31 68//68 
f 67//67 28//28 68//68 
f 32//32 29//29 66//66 
f 35//35 32//32 66//66 
f 30//30 97//97 31//31 
f 33//33 22//22 32//32 
f 37//37 23//23 33//33 
f 34//34 37//37 33//33 
f 33//33 32//32 35//35 
f 35//35 34//34 33//33 
f 70//70 34//34 35//35 
f 69//69 70//70 35//35 
f 70//70 41//41 34//34 
f 73//73 30//30 36//36 
f 97//97 30//30 73//73 
f 77//77 36//36 40//40 
f 36//36 77//77 73//73 
f 36//36 38//38 40//40 
f 40//40 38//38 39//39 
f 38//38 37//37 39//39 
f 34//34 39//39 37//37 
f 41//41 39//39 34//34 
f 40//40 39//39 42//42 
f 42//42 39//39 41//41 
f 42//42 77//77 40//40 
f 47//47 45//45 43//43 
f 45//45 79//79 43//43 
f 45//45 87//87 79//79 
f 48//48 47//47 43//43 
f 43//43 81//81 48//48 
f 47//47 50//50 44//44 
f 45//45 47//47 44//44 
f 45//45 44//44 46//46 
f 52//52 44//44 50//50 
f 87//87 45//45 46//46 
f 46//46 52//52 88//88 
f 44//44 52//52 46//46 
f 54//54 47//47 48//48 
f 47//47 54//54 50//50 
f 48//48 49//49 54//54 
f 50//50 51//51 52//52 
f 58//58 52//52 51//51 
f 53//53 52//52 58//58 
f 90//90 53//53 58//58 
f 50//50 54//54 51//51 
f 51//51 54//54 59//59 
f 54//54 49//49 55//55 
f 56//56 55//55 49//49 
f 91//91 64//64 56//56 
f 57//57 51//51 59//59 
f 51//51 57//57 58//58 
f 57//57 59//59 95//95 
f 54//54 55//55 62//62 
f 59//59 54//54 62//62 
f 62//62 65//65 59//59 
f 60//60 26//26 61//61 
f 55//55 146//146 62//62 
f 55//55 56//56 147//147 
f 146//146 148//148 62//62 
f 62//62 61//61 65//65 
f 145//145 147//147 149//149 
f 147//147 56//56 149//149 
f 56//56 64//64 63//63 
f 64//64 92//92 94//94 
f 65//65 95//95 59//59 
f 67//67 68//68 65//65 
f 65//65 27//27 67//67 
f 94//94 66//66 64//64 
f 66//66 94//94 69//69 
f 69//69 35//35 66//66 
f 68//68 31//31 97//97 
f 76//76 98//98 75//75 
f 97//97 75//75 98//98 
f 41//41 70//70 71//71 
f 72//72 71//71 70//70 
f 69//69 72//72 70//70 
f 78//78 71//71 76//76 
f 72//72 99//99 71//71 
f 71//71 99//99 76//76 
f 73//73 77//77 74//74 
f 77//77 78//78 74//74 
f 75//75 97//97 73//73 
f 78//78 76//76 74//74 
f 73//73 74//74 75//75 
f 76//76 75//75 74//74 
f 71//71 42//42 41//41 
f 42//42 78//78 77//77 
f 78//78 42//42 71//71 
f 100//100 82//82 79//79 
f 87//87 80//80 79//79 
f 84//84 82//82 100//100 
f 79//79 80//80 101//101 
f 101//101 100//100 79//79 
f 79//79 82//82 43//43 
f 81//81 43//43 82//82 
f 83//83 81//81 82//82 
f 82//82 84//84 83//83 
f 84//84 86//86 83//83 
f 83//83 86//86 85//85 
f 84//84 103//103 86//86 
f 85//85 48//48 81//81 
f 85//85 49//49 48//48 
f 85//85 81//81 83//83 
f 86//86 110//110 85//85 
f 85//85 110//110 89//89 
f 53//53 88//88 52//52 
f 46//46 88//88 87//87 
f 150//150 87//87 88//88 
f 106//106 150//150 88//88 
f 107//107 150//150 106//106 
f 89//89 49//49 85//85 
f 49//49 91//91 56//56 
f 89//89 91//91 49//49 
f 91//91 89//89 92//92 
f 89//89 112//112 92//92 
f 92//92 112//112 114//114 
f 88//88 53//53 90//90 
f 88//88 90//90 106//106 
f 113//113 106//106 90//90 
f 108//108 106//106 113//113 
f 92//92 64//64 91//91 
f 93//93 58//58 57//57 
f 93//93 57//57 95//95 
f 58//58 93//93 90//90 
f 113//113 90//90 93//93 
f 119//119 116//116 93//93 
f 116//116 113//113 93//93 
f 93//93 95//95 119//119 
f 92//92 114//114 94//94 
f 96//96 95//95 65//65 
f 65//65 68//68 151//151 
f 95//95 96//96 119//119 
f 69//69 118//118 120//120 
f 97//97 96//96 68//68 
f 97//97 119//119 96//96 
f 98//98 121//121 97//97 
f 76//76 123//123 98//98 
f 69//69 120//120 72//72 
f 120//120 99//99 72//72 
f 123//123 99//99 120//120 
f 123//123 76//76 99//99 
f 100//100 103//103 84//84 
f 152//152 102//102 100//100 
f 102//102 104//104 100//100 
f 100//100 104//104 103//103 
f 153//153 150//150 154//154 
f 107//107 154//154 150//150 
f 105//105 110//110 103//103 
f 104//104 102//102 124//124 
f 105//105 103//103 104//104 
f 105//105 104//104 124//124 
f 103//103 110//110 86//86 
f 105//105 111//111 110//110 
f 107//107 106//106 108//108 
f 108//108 109//109 107//107 
f 109//109 102//102 107//107 
f 102//102 109//109 124//124 
f 125//125 129//129 105//105 
f 129//129 111//111 105//105 
f 110//110 111//111 112//112 
f 111//111 126//126 112//112 
f 111//111 129//129 126//126 
f 89//89 110//110 112//112 
f 113//113 116//116 108//108 
f 116//116 127//127 108//108 
f 114//114 115//115 94//94 
f 112//112 115//115 114//114 
f 112//112 126//126 115//115 
f 115//115 126//126 132//132 
f 116//116 136//136 127//127 
f 131//131 115//115 132//132 
f 94//94 118//118 69//69 
f 118//118 94//94 115//115 
f 115//115 131//131 118//118 
f 131//131 117//117 118//118 
f 135//135 121//121 141//141 
f 122//122 141//141 121//121 
f 117//117 144//144 120//120 
f 117//117 120//120 118//118 
f 119//119 97//97 134//134 
f 134//134 97//97 121//121 
f 98//98 122//122 121//121 
f 141//141 122//122 123//123 
f 120//120 144//144 123//123 
f 122//122 98//98 123//123 
f 125//125 105//105 124//124 
f 109//109 128//128 124//124 
f 125//125 124//124 128//128 
f 127//127 128//128 109//109 
f 108//108 127//127 109//109 
f 128//128 127//127 138//138 
f 128//128 130//130 125//125 
f 129//129 125//125 130//130 
f 126//126 129//129 132//132 
f 127//127 136//136 138//138 
f 132//132 129//129 130//130 
f 130//130 133//133 132//132 
f 128//128 140//140 130//130 
f 140//140 143//143 130//130 
f 130//130 143//143 133//133 
f 117//117 131//131 133//133 
f 131//131 132//132 133//133 
f 136//136 116//116 119//119 
f 135//135 134//134 121//121 
f 119//119 134//134 136//136 
f 137//137 136//136 134//134 
f 135//135 137//137 134//134 
f 141//141 137//137 135//135 
f 138//138 139//139 140//140 
f 137//137 139//139 138//138 
f 137//137 138//138 136//136 
f 139//139 137//137 141//141 
f 128//128 138//138 140//140 
f 144//144 142//142 123//123 
f 123//123 142//142 141//141 
f 142//142 144//144 133//133 
f 142//142 139//139 141//141 
f 140//140 139//139 143//143 
f 139//139 142//142 143//143 
f 133//133 143//143 142//142 
f 117//117 133//133 144//144 
