#
# The license for this database is specified in the Creative Commons Attribution-Share Alike 2.1 Japan. If you use data from this database, please be sure attribute this database as follows: "BodyParts3D, (c)  The Database Center for Life Science licensed under CC Attribution-Share Alike 2.1 Japan".
# http://dbarchive.biosciencedbc.jp/en/bodyparts3d/lic.html
#
#
# Compatibility version : 4.0
# File ID : FJ2607
# Representation ID : BP9482
# Build-up logic : FMA 3.0 part_of
# Concept ID : FMA16982
# English name : Middle part of jejunum
# Bounds(mm): (59.320000,-163.716000,937.796000)-(106.441000,-129.585000,967.545000)
# Volume(cm3): 14.161600
#
v 69.2341 -162.355 943.897
v 65.9522 -159.202 940.924
v 67.0892 -157.194 939.044
v 65.0601 -161.015 945.545
v 64.4992 -159.518 942.555
v 66.5466 -161.228 943.317
v 68.0693 -161.077 942.24
v 64.4622 -160.305 948.604
v 68.0173 -162.854 947.648
v 68.1672 -161.631 952.711
v 66.8604 -157.341 955.868
v 70.8909 -160.856 955.171
v 62.1072 -156.022 941.082
v 64.0438 -156.581 939.66
v 62.3664 -154.035 939.191
v 63.9718 -152.42 937.846
v 61.093 -156.014 944.121
v 63.2907 -156.11 952.839
v 60.8005 -152.709 940.348
v 60.0163 -151.199 941.315
v 61.4372 -151.112 939.057
v 59.9649 -153.033 947.107
v 59.3546 -148.076 946.993
v 59.32 -148.193 943.297
v 60.8328 -149.124 951.33
v 64.1332 -150.749 955.681
v 60.6267 -146.363 941.374
v 60.9911 -145.083 950.218
v 72.8692 -163.716 946.591
v 73.9696 -162.943 944.785
v 76.6516 -162.426 945.352
v 75.1942 -160.026 941.855
v 74.1032 -163.493 950.893
v 75.7831 -163.497 947.794
v 78.2211 -161.736 952.151
v 75.0169 -161.37 954.713
v 69.7755 -158.846 939.917
v 71.4943 -157.156 939.166
v 70.8423 -161.206 942.018
v 68.677 -154.503 937.875
v 68.8857 -150.706 937.796
v 71.7207 -153.522 938.362
v 62.5845 -148.744 938.87
v 65.2021 -148.727 938.174
v 63.7679 -146.104 939.458
v 64.6822 -144.782 954.772
v 60.5243 -143.823 945.216
v 64.3862 -141.299 942.903
v 63.518 -141.972 950.993
v 80.3164 -158.622 944.42
v 80.1259 -161.229 948.876
v 77.66 -155.659 941.419
v 78.1095 -155.75 959.914
v 72.6338 -148.276 939.792
v 76.5758 -148.689 963.416
v 68.218 -143.696 940.417
v 67.9183 -140.324 943.579
v 65.32 -139.67 947.386
v 69.6173 -139.133 952.783
v 86.6841 -155.341 956.432
v 88.1342 -154.29 951.891
v 83.4798 -154.815 959.734
v 85.9081 -151.441 948.443
v 82.6113 -146.659 947.26
v 73.9407 -142.049 945.193
v 75.2866 -137.886 951.483
v 88.9736 -151.518 950.528
v 89.8474 -150.212 950.218
v 90.7722 -149.806 950.033
v 92.171 -152.677 954.287
v 90.8039 -151.497 951.53
v 92.7011 -151.213 952.005
v 92.0028 -151.451 961.001
v 87.9796 -148.774 949.026
v 86.5184 -146.682 948.134
v 82.2772 -144.079 948.052
v 81.0751 -141.102 949.123
v 84.583 -143.099 947.914
v 85.7338 -139.71 947.473
v 82.5502 -139.979 949.46
v 82.928 -138.572 949.823
v 81.4529 -138.247 950.797
v 82.3943 -136.289 952.174
v 82.5462 -135.445 962.665
v 98.4292 -151.255 952.372
v 100.089 -151.559 956.693
v 94.73 -151.615 953.32
v 95.1473 -152.016 957.4
v 93.9012 -146.637 966.03
v 91.5163 -146.349 947.15
v 90.1018 -138.096 946.477
v 88.9277 -137.419 967.545
v 87.277 -135.153 948.321
v 100.474 -149.738 951.278
v 101.921 -151.07 955.669
v 101.801 -150.921 958.137
v 104.027 -149.488 959.114
v 104.183 -148.975 955.337
v 105.805 -146.621 958.804
v 102.452 -148.574 962.292
v 103.491 -144.954 951.407
v 104.434 -146.382 962.707
v 96.8029 -144.612 947.034
v 100.093 -141.888 967.362
v 97.5293 -136.117 947.727
v 97.4618 -134.408 967.238
v 92.3379 -131.882 948.77
v 90.5112 -130.615 952.006
v 93.5923 -129.994 951.601
v 93.4403 -129.585 955.776
v 93.594 -132.053 965.338
v 105.856 -143.06 954.913
v 106.441 -142.179 958.281
v 106.017 -142.293 961.534
v 104.72 -139 953.313
v 104.201 -134.441 958.241
v 103.282 -139.931 966.018
v 103.089 -135.009 964.187
v 102.502 -134.11 953.62
v 99.4779 -130.908 954.884
v 98.872 -130.793 962.907
v 96.3208 -131.475 950.05
v 67.9183 -140.324 943.579
v 75.2866 -137.886 951.483
v 93.594 -132.053 965.338
v 103.089 -135.009 964.187
v 98.872 -130.793 962.907
vn -0.157017 -0.898872 -0.409115
vn -0.304671 -0.680527 -0.666377
vn -0.127197 -0.46745 -0.874821
vn -0.626194 -0.770136 -0.121537
vn -0.603298 -0.689393 -0.400959
vn -0.389423 -0.836592 -0.385309
vn -0.17819 -0.763299 -0.620986
vn -0.729197 -0.65756 0.18944
vn -0.359473 -0.933155 0.000746702
vn -0.459393 -0.775806 0.432531
vn -0.514891 -0.433294 0.739692
vn -0.190888 -0.689318 0.698858
vn -0.721123 -0.523056 -0.454307
vn -0.434946 -0.53237 -0.726225
vn -0.592435 -0.359689 -0.720864
vn -0.250068 -0.121044 -0.960632
vn -0.859331 -0.495241 -0.127623
vn -0.780546 -0.397307 0.482592
vn -0.833868 -0.307308 -0.458504
vn -0.936254 -0.113032 -0.332645
vn -0.680024 -0.0129929 -0.733075
vn -0.950889 -0.276289 0.139554
vn -0.980172 0.101249 0.170328
vn -0.981802 0.091474 -0.166427
vn -0.873943 -0.00148758 0.486026
vn -0.677696 -0.0551237 0.733273
vn -0.728848 0.360611 -0.582014
vn -0.852129 0.347214 0.39156
vn -0.0314796 -0.986961 -0.157853
vn 0.142488 -0.865904 -0.479487
vn 0.435142 -0.785556 -0.439946
vn 0.31266 -0.575143 -0.755946
vn 0.0095706 -0.959151 0.282734
vn 0.302968 -0.949626 -0.0801279
vn 0.378123 -0.867883 0.322184
vn 0.132596 -0.802378 0.581901
vn -0.00329004 -0.604634 -0.796497
vn 0.208888 -0.363353 -0.907932
vn 0.0271748 -0.751941 -0.65867
vn 0.0569139 -0.206738 -0.97674
vn 0.141018 0.163015 -0.976494
vn 0.334389 -0.0292929 -0.94198
vn -0.411773 0.253298 -0.875376
vn -0.0986493 0.278293 -0.955417
vn -0.286497 0.467473 -0.836294
vn -0.655639 0.311471 0.68784
vn -0.832408 0.551824 -0.0508634
vn -0.379576 0.741933 -0.552683
vn -0.634638 0.683503 0.360637
vn 0.643947 -0.459804 -0.611484
vn 0.588126 -0.802341 -0.101763
vn 0.517759 -0.112248 -0.848131
vn -0.00287077 -0.620024 0.784578
vn 0.458189 0.314415 -0.831388
vn -0.368445 -0.142304 0.918694
vn 0.137044 0.53227 -0.835409
vn -0.141769 0.954913 -0.260848
vn -0.394541 0.918199 -0.0353134
vn -0.352698 0.922728 0.15549
vn 0.429799 -0.869923 0.241882
vn 0.592581 -0.664257 -0.455644
vn 0.244849 -0.781576 0.573749
vn 0.576382 -0.104044 -0.81053
vn 0.369639 0.18618 -0.910332
vn 0.379082 0.584674 -0.717254
vn 0.116805 0.681024 -0.722885
vn 0.431149 -0.424722 -0.796066
vn 0.233083 -0.528099 -0.816568
vn 0.11371 -0.663611 -0.739385
vn 0.375727 -0.832471 -0.407212
vn 0.354909 -0.634324 -0.686784
vn 0.148548 -0.83134 -0.535545
vn 0.194092 -0.871809 0.449752
vn 0.194164 -0.387557 -0.901166
vn 0.0147237 -0.136168 -0.990576
vn 0.123993 0.28722 -0.949805
vn 0.061352 0.541836 -0.838242
vn -0.223386 0.0183171 -0.974558
vn -0.382302 0.141969 -0.913066
vn -0.334188 0.329647 -0.882979
vn -0.494401 0.435271 -0.752401
vn -0.225678 0.529743 -0.817583
vn -0.412725 0.769242 -0.487775
vn -0.470506 0.797431 0.377793
vn 0.12942 -0.901439 -0.413108
vn 0.164928 -0.983556 0.073592
vn 0.148884 -0.951877 -0.267887
vn 0.266561 -0.963736 -0.012571
vn 0.0659605 -0.538283 0.840179
vn -0.0282443 -0.397113 -0.917335
vn -0.0760713 0.149804 -0.985785
vn -0.211992 0.175217 0.961436
vn -0.447244 0.515618 -0.730829
vn 0.436585 -0.614175 -0.657406
vn 0.461467 -0.874694 -0.148184
vn 0.302961 -0.915289 0.265442
vn 0.669177 -0.713498 0.20766
vn 0.801505 -0.513882 -0.305802
vn 0.946827 -0.315455 0.0633047
vn 0.321562 -0.707925 0.62884
vn 0.709978 -0.149509 -0.68817
vn 0.707321 -0.405244 0.579202
vn 0.291366 -0.179542 -0.939612
vn 0.247725 -0.2408 0.938428
vn 0.432271 0.275022 -0.858781
vn 0.220782 0.413853 0.883166
vn -0.0777198 0.641856 -0.762876
vn -0.415781 0.870706 -0.262673
vn 0.0368069 0.94499 -0.325022
vn -0.117392 0.990784 0.0675795
vn -0.126315 0.625665 0.769798
vn 0.939157 -0.106458 -0.326575
vn 0.99441 0.0932406 -0.04955
vn 0.948921 0.0420548 0.312699
vn 0.855086 0.232436 -0.463467
vn 0.848165 0.529607 -0.0115005
vn 0.645624 0.0395739 0.76263
vn 0.457193 0.480012 0.748707
vn 0.692205 0.549009 -0.468446
vn 0.440606 0.88062 -0.174283
vn 0.278629 0.690752 0.667254
vn 0.374585 0.708674 -0.597885
vn 0.231912 0.706958 -0.668152
vn -0.181961 0.980408 -0.075437
vn -0.227517 0.941987 0.246772
vn 0.859107 0.423073 0.288
vn 0.358857 0.924683 0.127213
g grp1
usemtl mtl1
f 8//8 22//22 17//17 
f 18//18 22//22 8//8 
f 29//29 9//9 1//1 
f 9//9 33//33 10//10 
f 9//9 29//29 33//33 
f 33//33 12//12 10//10 
f 36//36 12//12 33//33 
f 36//36 53//53 12//12 
f 37//37 2//2 3//3 
f 9//9 8//8 4//4 
f 5//5 6//6 4//4 
f 6//6 5//5 2//2 
f 9//9 4//4 6//6 
f 1//1 6//6 7//7 
f 6//6 1//1 9//9 
f 2//2 7//7 6//6 
f 2//2 37//37 7//7 
f 1//1 7//7 39//39 
f 39//39 7//7 37//37 
f 9//9 10//10 8//8 
f 10//10 18//18 8//8 
f 10//10 11//11 18//18 
f 12//12 11//11 10//10 
f 12//12 55//55 11//11 
f 13//13 14//14 5//5 
f 13//13 15//15 14//14 
f 19//19 15//15 13//13 
f 14//14 3//3 2//2 
f 2//2 5//5 14//14 
f 19//19 21//21 15//15 
f 16//16 14//14 15//15 
f 21//21 16//16 15//15 
f 14//14 16//16 3//3 
f 17//17 5//5 4//4 
f 4//4 8//8 17//17 
f 13//13 5//5 17//17 
f 11//11 26//26 18//18 
f 55//55 26//26 11//11 
f 17//17 19//19 13//13 
f 17//17 20//20 19//19 
f 22//22 20//20 17//17 
f 27//27 20//20 24//24 
f 20//20 22//22 24//24 
f 19//19 20//20 21//21 
f 21//21 20//20 27//27 
f 16//16 21//21 43//43 
f 43//43 21//21 27//27 
f 24//24 22//22 23//23 
f 24//24 23//23 47//47 
f 18//18 25//25 22//22 
f 18//18 26//26 25//25 
f 22//22 25//25 23//23 
f 25//25 26//26 46//46 
f 47//47 27//27 24//24 
f 47//47 48//48 27//27 
f 47//47 23//23 28//28 
f 25//25 46//46 28//28 
f 23//23 25//25 28//28 
f 28//28 46//46 49//49 
f 1//1 30//30 29//29 
f 30//30 1//1 39//39 
f 30//30 34//34 29//29 
f 30//30 32//32 31//31 
f 34//34 30//30 31//31 
f 32//32 30//30 39//39 
f 51//51 34//34 31//31 
f 50//50 51//51 31//31 
f 32//32 50//50 31//31 
f 29//29 34//34 33//33 
f 35//35 36//36 33//33 
f 62//62 36//36 35//35 
f 34//34 35//35 33//33 
f 51//51 35//35 34//34 
f 51//51 60//60 35//35 
f 53//53 36//36 62//62 
f 37//37 3//3 38//38 
f 37//37 38//38 32//32 
f 39//39 37//37 32//32 
f 32//32 38//38 52//52 
f 42//42 52//52 38//38 
f 55//55 12//12 53//53 
f 40//40 38//38 3//3 
f 40//40 3//3 16//16 
f 41//41 40//40 16//16 
f 44//44 41//41 16//16 
f 41//41 44//44 56//56 
f 42//42 38//38 40//40 
f 41//41 42//42 40//40 
f 46//46 26//26 55//55 
f 44//44 16//16 43//43 
f 44//44 43//43 45//45 
f 27//27 45//45 43//43 
f 56//56 44//44 45//45 
f 45//45 27//27 48//48 
f 48//48 56//56 45//45 
f 48//48 58//58 57//57 
f 28//28 49//49 47//47 
f 49//49 58//58 47//47 
f 48//48 47//47 58//58 
f 50//50 32//32 52//52 
f 50//50 52//52 63//63 
f 63//63 61//61 50//50 
f 61//61 51//51 50//50 
f 51//51 61//61 60//60 
f 60//60 62//62 35//35 
f 54//54 52//52 42//42 
f 52//52 54//54 63//63 
f 63//63 54//54 64//64 
f 89//89 53//53 62//62 
f 41//41 54//54 42//42 
f 54//54 41//41 56//56 
f 56//56 65//65 54//54 
f 65//65 64//64 54//54 
f 84//84 49//49 46//46 
f 46//46 55//55 84//84 
f 123//123 56//56 48//48 
f 65//65 56//56 123//123 
f 66//66 65//65 123//123 
f 58//58 124//124 57//57 
f 58//58 59//59 124//124 
f 59//59 58//58 49//49 
f 63//63 67//67 61//61 
f 61//61 88//88 60//60 
f 62//62 60//60 73//73 
f 89//89 62//62 73//73 
f 53//53 89//89 55//55 
f 65//65 76//76 64//64 
f 65//65 77//77 76//76 
f 76//76 77//77 80//80 
f 77//77 65//65 66//66 
f 82//82 77//77 66//66 
f 82//82 66//66 83//83 
f 84//84 83//83 124//124 
f 92//92 84//84 55//55 
f 49//49 84//84 59//59 
f 124//124 59//59 84//84 
f 74//74 68//68 67//67 
f 68//68 74//74 69//69 
f 69//69 85//85 72//72 
f 85//85 69//69 90//90 
f 70//70 88//88 61//61 
f 61//61 71//71 70//70 
f 71//71 61//61 67//67 
f 71//71 67//67 68//68 
f 72//72 70//70 71//71 
f 87//87 70//70 72//72 
f 69//69 71//71 68//68 
f 72//72 71//71 69//69 
f 88//88 70//70 87//87 
f 87//87 85//85 88//88 
f 87//87 72//72 85//85 
f 73//73 60//60 88//88 
f 100//100 89//89 73//73 
f 67//67 63//63 74//74 
f 74//74 63//63 64//64 
f 75//75 64//64 76//76 
f 74//74 64//64 75//75 
f 69//69 74//74 90//90 
f 90//90 74//74 75//75 
f 90//90 75//75 78//78 
f 82//82 80//80 77//77 
f 75//75 76//76 78//78 
f 78//78 76//76 80//80 
f 78//78 80//80 79//79 
f 90//90 78//78 79//79 
f 80//80 81//81 79//79 
f 55//55 89//89 92//92 
f 80//80 82//82 81//81 
f 82//82 83//83 81//81 
f 94//94 95//95 85//85 
f 95//95 86//86 85//85 
f 86//86 88//88 85//85 
f 96//96 73//73 86//86 
f 85//85 90//90 94//94 
f 88//88 86//86 73//73 
f 96//96 100//100 73//73 
f 104//104 89//89 100//100 
f 103//103 90//90 91//91 
f 104//104 92//92 89//89 
f 106//106 92//92 104//104 
f 90//90 79//79 91//91 
f 79//79 81//81 93//93 
f 79//79 93//93 91//91 
f 111//111 84//84 92//92 
f 106//106 111//111 92//92 
f 93//93 81//81 83//83 
f 108//108 93//93 83//83 
f 108//108 83//83 84//84 
f 94//94 98//98 95//95 
f 94//94 101//101 98//98 
f 98//98 97//97 95//95 
f 95//95 96//96 86//86 
f 95//95 97//97 96//96 
f 98//98 99//99 97//97 
f 98//98 112//112 99//99 
f 96//96 97//97 100//100 
f 97//97 99//99 102//102 
f 103//103 94//94 90//90 
f 98//98 101//101 112//112 
f 113//113 114//114 99//99 
f 104//104 100//100 102//102 
f 104//104 102//102 117//117 
f 102//102 100//100 97//97 
f 102//102 99//99 114//114 
f 91//91 105//105 103//103 
f 94//94 103//103 101//101 
f 105//105 101//101 103//103 
f 106//106 104//104 117//117 
f 117//117 118//118 106//106 
f 105//105 122//122 119//119 
f 93//93 107//107 91//91 
f 108//108 107//107 93//93 
f 107//107 105//105 91//91 
f 105//105 107//107 122//122 
f 109//109 107//107 108//108 
f 110//110 109//109 108//108 
f 110//110 108//108 84//84 
f 122//122 107//107 109//109 
f 109//109 110//110 120//120 
f 125//125 110//110 84//84 
f 121//121 111//111 106//106 
f 127//127 110//110 125//125 
f 99//99 112//112 113//113 
f 102//102 114//114 117//117 
f 101//101 105//105 115//115 
f 101//101 115//115 112//112 
f 112//112 115//115 113//113 
f 113//113 115//115 116//116 
f 115//115 119//119 116//116 
f 119//119 120//120 116//116 
f 116//116 114//114 113//113 
f 117//117 114//114 126//126 
f 116//116 126//126 114//114 
f 119//119 122//122 120//120 
f 115//115 105//105 119//119 
f 120//120 127//127 116//116 
f 120//120 110//110 127//127 
f 118//118 121//121 106//106 
f 116//116 127//127 126//126 
f 120//120 122//122 109//109 
