#
# The license for this database is specified in the Creative Commons Attribution-Share Alike 2.1 Japan. If you use data from this database, please be sure attribute this database as follows: "BodyParts3D, (c)  The Database Center for Life Science licensed under CC Attribution-Share Alike 2.1 Japan".
# http://dbarchive.biosciencedbc.jp/en/bodyparts3d/lic.html
#
#
# Compatibility version : 4.0
# File ID : FJ2580
# Representation ID : BP9350
# Build-up logic : FMA 3.0 part_of
# Concept ID : FMA14965
# English name : Middle part of ileum
# Bounds(mm): (-61.027700,-171.634000,859.973000)-(-10.936500,-136.551000,906.352000)
# Volume(cm3): 17.082400
#
v -59.8148 -154.006 867.81
v -59.3904 -153.881 877.279
v -57.9747 -155.161 882.386
v -60.9471 -150.885 867.786
v -60.9275 -148.672 864.874
v -61.0277 -147.717 867.938
v -60.5513 -151.109 865.007
v -59.689 -150.79 876.54
v -59.8136 -143.702 868.138
v -59.8468 -146.718 862.403
v -59.6955 -143.159 864.402
v -54.614 -159.889 872.678
v -55.601 -160.299 878.292
v -52.9392 -161.954 880.076
v -55.0489 -160.474 882.641
v -54.6843 -158.605 888.193
v -51.0596 -161.695 890.984
v -51.7099 -158.487 892.988
v -55.5069 -153.81 862.205
v -58.5051 -153.46 863.617
v -57.2138 -156.455 866.697
v -57.7339 -157.335 870.182
v -57.8909 -157.601 877.716
v -54.8482 -155.394 889.52
v -52.4638 -151.774 891.876
v -58.9309 -149.976 861.703
v -57.4178 -147.607 860.347
v -55.4347 -150.767 860.355
v -56.6369 -149.104 883.552
v -58.4739 -143.333 861.943
v -55.6428 -143.243 860.423
v -58.3884 -140.589 865.63
v -57.5013 -140.903 862.611
v -55.657 -138.09 864.34
v -54.2775 -138.382 862.629
v -53.9604 -137.024 865.612
v -56.6151 -140.239 869.926
v -55.9569 -138.394 867.24
v -54.2107 -137.961 868.574
v -49.1551 -163.828 887.397
v -51.3043 -158.633 869.574
v -49.8013 -161.535 876.611
v -47.8586 -159.901 875.403
v -46.9429 -161.767 896.045
v -48.5466 -157.582 872.158
v -49.9543 -155.2 894.786
v -46.444 -152.768 895.963
v -51.7096 -152.249 861.895
v -49.1937 -150.947 863.427
v -50.6261 -147.274 889.242
v -43.943 -146.807 891.866
v -52.2363 -145.82 859.973
v -48.281 -144.716 861.499
v -52.6864 -136.981 863.92
v -52.3548 -136.58 865.322
v -50.8759 -139.344 861.683
v -50.5246 -137.606 863
v -50.3077 -136.741 864.408
v -50.2123 -136.551 865.946
v -48.6341 -136.903 865.752
v -47.8765 -140.195 862.369
v -47.7119 -138.608 863.34
v -47.4199 -137.748 864.789
v -52.3249 -136.702 866.804
v -51.3309 -137.205 868.558
v -48.4329 -137.636 868.756
v -51.4596 -139.878 874.039
v -49.1332 -140.136 874.609
v -46.5077 -140.772 872.504
v -44.5742 -164.401 884.516
v -42.7587 -167.238 895.042
v -46.3713 -161.626 878.624
v -41.08 -162.564 882.246
v -46.3359 -157.047 875.11
v -43.0417 -158.575 878.26
v -37.6127 -157.287 900.692
v -43.9592 -150.267 874.842
v -46.434 -143.828 863.001
v -45.0793 -144.178 866.032
v -45.2971 -147.386 871.233
v -44.8537 -145.341 871.778
v -45.1169 -143.072 872.422
v -42.2309 -145.456 877.019
v -44.5279 -142.849 880.971
v -46.3337 -140.875 863.326
v -46.4637 -139.196 864.041
v -45.3953 -140.751 864.781
v -45.852 -139.062 865.494
v -46.4454 -138.303 867.072
v -44.9842 -140.704 867.272
v -38.0779 -169.588 894.317
v -34.085 -170.936 898.754
v -35.4349 -164.726 902.486
v -34.2831 -169.09 901.418
v -34.82 -153.608 900.236
v -36.1429 -146.23 888.979
v -33.9018 -147.764 886.147
v -33.3125 -147.055 893.248
v -33.6275 -169.96 893.582
v -32.3638 -171.359 897.075
v -30.2379 -170.624 902.033
v -29.7 -171.634 899.793
v -27.9352 -171.195 896.524
v -27.2768 -171.056 901.791
v -32.3263 -165.652 888.739
v -28.5103 -168.915 892.597
v -31.3305 -167.837 903.712
v -30.042 -169.447 903.281
v -28.9845 -165.745 905.269
v -28.2683 -167.978 904.635
v -27.6908 -169.618 903.59
v -27.1321 -165.689 905.664
v -29.5036 -158.846 905.055
v -28.4766 -162.656 905.898
v -25.8652 -159.043 906.302
v -31.1437 -155.928 884.775
v -28.8435 -157.717 885.841
v -28.8147 -154.334 885.249
v -27.4208 -154.675 903.823
v -31.7005 -152.504 884.458
v -30.9677 -151.018 885.647
v -30.5308 -148.242 888.489
v -28.786 -151.436 885.886
v -28.3775 -148.487 888.209
v -32.148 -147.04 890.668
v -30.0756 -147.148 892.972
v -29.9798 -147.561 890.002
v -27.6603 -147.33 890.488
v -26.1753 -147.062 893.256
v -30.621 -150.096 898.75
v -25.0386 -171.151 899.258
v -25.9984 -168.209 904.518
v -24.8734 -165.843 905.475
v -24.7725 -169.715 902.871
v -23.6149 -167.522 904.247
v -21.1133 -164.598 904.535
v -27.1617 -164.181 888.675
v -24.6641 -162.255 906.352
v -22.1844 -160.685 906.006
v -24.5795 -156.151 884.181
v -21.8804 -156.909 905.446
v -22.4598 -152.669 903.065
v -22.1442 -150.527 883.962
v -22.466 -149.278 899.032
v -21.331 -147.144 886.687
v -22.7319 -146.414 889.201
v -21.4235 -168.952 893.551
v -19.9144 -168.401 900.837
v -17.9234 -168.472 896.115
v -15.2952 -165.545 899.322
v -19.4555 -163.739 888.021
v -15.5793 -160.052 902.546
v -20.8898 -158.171 884.427
v -19.1812 -154.306 883.68
v -16.8038 -157.493 885.174
v -19.1712 -152.695 902.375
v -15.0739 -156.082 901.634
v -18.5972 -149.912 884.592
v -17.62 -147.827 887.126
v -16.3754 -147.608 890.638
v -15.9921 -148.82 895.432
v -20.09 -146.452 888.851
v -19.2981 -146.766 893.087
v -15.2191 -165.234 891.792
v -12.3516 -163.034 893.692
v -13.0528 -161.509 890.276
v -11.9799 -160.238 898.388
v -12.1361 -157.206 889.068
v -10.9365 -157.403 892.308
v -11.5339 -155.143 896.324
v -14.8408 -153.685 885.765
v -14.3379 -150.534 887.696
v -12.7359 -151.053 891.956
v -11.9481 -153.629 889.905
v -28.8147 -154.334 885.249
v -30.5308 -148.242 888.489
vn -0.859037 -0.493088 -0.137548
vn -0.962839 -0.234177 0.134548
vn -0.935928 -0.186041 0.299043
vn -0.986741 -0.161819 0.0125362
vn -0.967069 -0.0140627 -0.254126
vn -0.987878 0.144897 0.0556913
vn -0.894516 -0.316673 -0.315531
vn -0.963196 0.10543 0.247261
vn -0.885926 0.415817 0.205504
vn -0.816403 0.095244 -0.569574
vn -0.911461 0.350212 -0.215849
vn -0.292413 -0.91264 -0.285627
vn -0.624794 -0.779363 -0.0471749
vn -0.344124 -0.931708 -0.116182
vn -0.714067 -0.683857 0.149826
vn -0.830455 -0.408996 0.378242
vn -0.682048 -0.636283 0.360492
vn -0.737281 -0.264945 0.621467
vn -0.149427 -0.669074 -0.728019
vn -0.640428 -0.568513 -0.516377
vn -0.422759 -0.801697 -0.422559
vn -0.67928 -0.716235 -0.159956
vn -0.856861 -0.510261 0.0736408
vn -0.842047 -0.00803017 0.539345
vn -0.648924 0.362427 0.668987
vn -0.655716 -0.28255 -0.700144
vn -0.395755 0.0156755 -0.918222
vn -0.0931315 -0.324455 -0.941305
vn -0.823149 0.381805 0.420299
vn -0.658288 0.304489 -0.688436
vn -0.246694 0.311738 -0.917584
vn -0.789768 0.613406 0.000380323
vn -0.632352 0.54919 -0.546371
vn -0.552145 0.79446 -0.25292
vn -0.26027 0.645979 -0.717614
vn -0.381221 0.924081 0.0273031
vn -0.654437 0.66449 0.360783
vn -0.584997 0.787914 0.192276
vn -0.356435 0.857272 0.371535
vn -0.455882 -0.889937 -0.0135408
vn 0.330271 -0.784436 -0.524958
vn 0.119008 -0.908685 -0.400162
vn 0.552957 -0.610176 -0.567383
vn -0.604676 -0.365907 0.707445
vn 0.795611 -0.411719 -0.444399
vn -0.587668 0.0565029 0.807127
vn -0.378517 0.397398 0.835942
vn 0.403189 -0.460811 -0.790627
vn 0.726992 -0.42661 -0.53804
vn -0.433335 0.723183 0.537799
vn -0.104274 0.855895 0.506528
vn 0.175297 0.0174057 -0.984362
vn 0.548711 -0.0904029 -0.83111
vn -0.19518 0.892296 -0.407079
vn -0.122859 0.988718 -0.0856911
vn 0.13144 0.428469 -0.893945
vn 0.148103 0.735065 -0.661623
vn 0.153288 0.932393 -0.327332
vn 0.0987223 0.990079 0.0999915
vn 0.369107 0.929173 -0.0199586
vn 0.45221 0.282053 -0.84614
vn 0.434917 0.577615 -0.690802
vn 0.519684 0.779214 -0.350363
vn -0.172605 0.960794 0.216986
vn -0.034267 0.927985 0.371039
vn 0.335466 0.88882 0.312188
vn -0.143586 0.895759 0.420713
vn 0.178825 0.918327 0.353125
vn 0.694315 0.699699 0.168371
vn -0.0466069 -0.92438 -0.378616
vn -0.555516 -0.76885 0.316657
vn 0.336795 -0.747092 -0.573082
vn 0.240175 -0.728033 -0.642093
vn 0.685102 -0.345575 -0.641259
vn 0.500458 -0.436366 -0.747748
vn -0.398555 0.227206 0.888556
vn 0.742222 -0.151839 -0.652726
vn 0.801841 -0.129153 -0.583413
vn 0.952995 -0.188416 -0.237276
vn 0.926075 -0.228798 -0.300061
vn 0.972966 -0.0154608 -0.230429
vn 0.931882 0.349461 -0.0973303
vn 0.785747 0.424994 -0.449424
vn 0.389023 0.917787 0.0795525
vn 0.695407 0.173426 -0.697375
vn 0.698289 0.459851 -0.54857
vn 0.909641 0.170917 -0.378604
vn 0.820559 0.538116 -0.192648
vn 0.670349 0.731922 0.122159
vn 0.955133 0.293509 0.0396754
vn -0.295326 -0.941501 -0.162353
vn -0.342972 -0.90436 0.253976
vn -0.46132 -0.0748632 0.88407
vn -0.46906 -0.567928 0.676343
vn -0.297003 0.505303 0.810221
vn 0.223918 0.97459 -0.00596209
vn 0.502993 0.792026 -0.345968
vn 0.0430961 0.979367 0.19744
vn 0.0104841 -0.865534 -0.500741
vn -0.116733 -0.980032 -0.16097
vn -0.214041 -0.807835 0.549172
vn -0.0463642 -0.990613 0.128594
vn 0.0797628 -0.948019 -0.308055
vn 0.0860024 -0.895747 0.436166
vn 0.217455 -0.571848 -0.791014
vn 0.0677347 -0.757844 -0.648911
vn -0.373262 -0.369524 0.850957
vn -0.262566 -0.585052 0.767315
vn -0.302345 -0.231355 0.924696
vn -0.152437 -0.444826 0.882549
vn -0.0130146 -0.682119 0.731125
vn -0.0631397 -0.279657 0.958022
vn -0.378093 0.25092 0.891114
vn -0.271329 -0.0398071 0.961663
vn -0.0916828 0.199266 0.975647
vn 0.39515 -0.212332 -0.89374
vn 0.00705358 -0.315897 -0.948767
vn 0.269808 -0.109604 -0.956656
vn -0.199562 0.520379 0.830289
vn 0.538126 0.152461 -0.828961
vn 0.399723 0.511809 -0.760442
vn 0.149708 0.891216 -0.428161
vn -0.0824275 0.362531 -0.92832
vn -0.109817 0.796841 -0.594125
vn 0.158692 0.975606 -0.151693
vn 0.0243007 0.998192 0.0549666
vn 0.0531402 0.945536 -0.32115
vn -0.106926 0.970858 -0.214479
vn -0.0646944 0.98446 0.163259
vn -0.175334 0.70163 0.690633
vn 0.269388 -0.960436 0.0706589
vn 0.11655 -0.520327 0.845977
vn 0.201135 -0.346226 0.916336
vn 0.289792 -0.758872 0.58321
vn 0.361784 -0.52379 0.771204
vn 0.442107 -0.359786 0.821642
vn -0.0267189 -0.523356 -0.851695
vn 0.0945231 -0.143746 0.98509
vn 0.300539 -0.0361606 0.953084
vn -0.182016 -0.133673 -0.974167
vn 0.230185 0.321558 0.918485
vn -0.000755345 0.650445 0.759553
vn -0.138701 0.382051 -0.913673
vn 0.0378602 0.870906 0.489988
vn -0.0179285 0.821842 -0.569434
vn -0.127174 0.980725 -0.148342
vn 0.224981 -0.868766 -0.441167
vn 0.49259 -0.725359 0.480843
vn 0.524775 -0.850426 -0.0372446
vn 0.693367 -0.562225 0.450716
vn 0.206382 -0.618678 -0.758053
vn 0.593865 -0.108601 0.797202
vn 0.0412867 -0.393968 -0.918197
vn 0.188184 -0.0389816 -0.98136
vn 0.442969 -0.328224 -0.834295
vn 0.328191 0.61321 0.718515
vn 0.641174 0.311518 0.701322
vn 0.339676 0.446326 -0.827897
vn 0.415381 0.786702 -0.456683
vn 0.532373 0.844914 -0.0519481
vn 0.523983 0.741771 0.418591
vn 0.179962 0.969763 -0.164842
vn 0.147771 0.965512 0.214359
vn 0.516617 -0.717647 -0.467002
vn 0.841011 -0.533208 -0.0915979
vn 0.695722 -0.446983 -0.562297
vn 0.900955 -0.152346 0.406289
vn 0.810724 -0.147403 -0.566567
vn 0.98561 -0.0965571 -0.13874
vn 0.90551 0.317198 0.281845
vn 0.639974 0.0856254 -0.763611
vn 0.719826 0.517052 -0.463149
vn 0.818155 0.574967 0.00597169
vn 0.924247 0.234678 -0.301153
vn 0.0423464 0.177896 -0.983138
vn 0.522121 0.568583 -0.635691
g grp1
usemtl mtl1
f 20//20 21//21 1//1 
f 1//1 7//7 20//20 
f 4//4 2//2 8//8 
f 1//1 2//2 4//4 
f 2//2 3//3 8//8 
f 5//5 7//7 4//4 
f 4//4 6//6 5//5 
f 5//5 6//6 11//11 
f 1//1 4//4 7//7 
f 26//26 7//7 5//5 
f 26//26 5//5 10//10 
f 7//7 26//26 20//20 
f 8//8 6//6 4//4 
f 8//8 9//9 6//6 
f 8//8 29//29 9//9 
f 30//30 10//10 11//11 
f 11//11 6//6 9//9 
f 9//9 32//32 11//11 
f 10//10 5//5 11//11 
f 33//33 30//30 11//11 
f 32//32 33//33 11//11 
f 37//37 32//32 9//9 
f 22//22 21//21 12//12 
f 13//13 22//22 12//12 
f 41//41 12//12 21//21 
f 13//13 23//23 22//22 
f 13//13 15//15 23//23 
f 15//15 13//13 14//14 
f 14//14 13//13 12//12 
f 2//2 23//23 3//3 
f 23//23 15//15 3//3 
f 15//15 14//14 40//40 
f 16//16 18//18 24//24 
f 16//16 24//24 3//3 
f 15//15 16//16 3//3 
f 15//15 17//17 16//16 
f 16//16 17//17 18//18 
f 26//26 19//19 20//20 
f 1//1 21//21 22//22 
f 19//19 21//21 20//20 
f 48//48 41//41 19//19 
f 19//19 41//41 21//21 
f 23//23 1//1 22//22 
f 2//2 1//1 23//23 
f 3//3 29//29 8//8 
f 29//29 3//3 24//24 
f 24//24 25//25 29//29 
f 24//24 18//18 46//46 
f 46//46 25//25 24//24 
f 27//27 26//26 10//10 
f 26//26 27//27 28//28 
f 19//19 26//26 28//28 
f 52//52 28//28 27//27 
f 48//48 19//19 28//28 
f 29//29 37//37 9//9 
f 37//37 29//29 50//50 
f 29//29 25//25 50//50 
f 50//50 25//25 47//47 
f 30//30 27//27 10//10 
f 52//52 27//27 31//31 
f 30//30 31//31 27//27 
f 30//30 33//33 31//31 
f 52//52 31//31 56//56 
f 37//37 50//50 39//39 
f 34//34 33//33 32//32 
f 35//35 33//33 34//34 
f 32//32 37//37 38//38 
f 34//34 32//32 38//38 
f 34//34 38//38 36//36 
f 31//31 33//33 35//35 
f 35//35 34//34 54//54 
f 54//54 34//34 36//36 
f 56//56 31//31 35//35 
f 57//57 35//35 54//54 
f 54//54 36//36 55//55 
f 55//55 36//36 64//64 
f 38//38 37//37 39//39 
f 38//38 39//39 36//36 
f 36//36 39//39 64//64 
f 71//71 17//17 40//40 
f 71//71 94//94 44//44 
f 41//41 42//42 12//12 
f 42//42 41//41 43//43 
f 41//41 49//49 45//45 
f 41//41 45//45 43//43 
f 43//43 45//45 74//74 
f 14//14 12//12 42//42 
f 42//42 70//70 14//14 
f 42//42 72//72 70//70 
f 42//42 43//43 72//72 
f 75//75 43//43 74//74 
f 43//43 75//75 72//72 
f 14//14 70//70 40//40 
f 17//17 15//15 40//40 
f 44//44 46//46 18//18 
f 44//44 18//18 17//17 
f 71//71 44//44 17//17 
f 48//48 49//49 41//41 
f 47//47 25//25 46//46 
f 46//46 44//44 93//93 
f 93//93 47//47 46//46 
f 95//95 51//51 47//47 
f 76//76 47//47 93//93 
f 28//28 52//52 48//48 
f 50//50 67//67 39//39 
f 51//51 67//67 50//50 
f 50//50 47//47 51//51 
f 52//52 56//56 61//61 
f 53//53 49//49 48//48 
f 53//53 52//52 61//61 
f 52//52 53//53 48//48 
f 53//53 61//61 85//85 
f 51//51 84//84 68//68 
f 68//68 67//67 51//51 
f 57//57 56//56 35//35 
f 57//57 54//54 58//58 
f 55//55 58//58 54//54 
f 65//65 59//59 64//64 
f 59//59 58//58 55//55 
f 55//55 64//64 59//59 
f 56//56 62//62 61//61 
f 62//62 56//56 57//57 
f 63//63 62//62 57//57 
f 57//57 58//58 63//63 
f 63//63 58//58 60//60 
f 58//58 59//59 60//60 
f 61//61 62//62 86//86 
f 63//63 86//86 62//62 
f 63//63 60//60 89//89 
f 67//67 65//65 39//39 
f 64//64 39//39 65//65 
f 68//68 65//65 67//67 
f 59//59 65//65 66//66 
f 66//66 65//65 68//68 
f 60//60 59//59 66//66 
f 66//66 68//68 69//69 
f 66//66 89//89 60//60 
f 99//99 70//70 73//73 
f 71//71 40//40 91//91 
f 92//92 94//94 71//71 
f 93//93 44//44 94//94 
f 70//70 72//72 73//73 
f 73//73 72//72 75//75 
f 75//75 74//74 77//77 
f 74//74 45//45 77//77 
f 76//76 95//95 47//47 
f 45//45 80//80 77//77 
f 130//130 144//144 51//51 
f 53//53 85//85 78//78 
f 49//49 79//79 45//45 
f 78//78 49//49 53//53 
f 49//49 78//78 79//79 
f 78//78 87//87 79//79 
f 81//81 77//77 80//80 
f 83//83 81//81 82//82 
f 69//69 82//82 90//90 
f 45//45 79//79 80//80 
f 80//80 79//79 81//81 
f 90//90 82//82 81//81 
f 90//90 81//81 79//79 
f 69//69 83//83 82//82 
f 68//68 84//84 69//69 
f 77//77 81//81 83//83 
f 83//83 69//69 84//84 
f 97//97 83//83 84//84 
f 84//84 51//51 96//96 
f 61//61 86//86 85//85 
f 86//86 87//87 85//85 
f 86//86 88//88 87//87 
f 88//88 86//86 63//63 
f 89//89 88//88 63//63 
f 78//78 85//85 87//87 
f 90//90 87//87 88//88 
f 79//79 87//87 90//90 
f 89//89 66//66 69//69 
f 89//89 69//69 90//90 
f 89//89 90//90 88//88 
f 91//91 92//92 71//71 
f 70//70 91//91 40//40 
f 91//91 100//100 92//92 
f 70//70 99//99 91//91 
f 99//99 100//100 91//91 
f 94//94 92//92 101//101 
f 94//94 101//101 108//108 
f 99//99 105//105 106//106 
f 73//73 75//75 105//105 
f 99//99 73//73 105//105 
f 94//94 107//107 93//93 
f 108//108 107//107 94//94 
f 116//116 75//75 77//77 
f 77//77 120//120 116//116 
f 120//120 77//77 83//83 
f 51//51 95//95 130//130 
f 121//121 83//83 97//97 
f 122//122 96//96 125//125 
f 96//96 122//122 97//97 
f 51//51 144//144 98//98 
f 96//96 51//51 98//98 
f 125//125 96//96 98//98 
f 98//98 126//126 125//125 
f 97//97 84//84 96//96 
f 100//100 99//99 103//103 
f 92//92 102//102 101//101 
f 100//100 102//102 92//92 
f 111//111 108//108 101//101 
f 103//103 102//102 100//100 
f 103//103 131//131 102//102 
f 131//131 104//104 102//102 
f 101//101 102//102 104//104 
f 108//108 111//111 110//110 
f 111//111 101//101 104//104 
f 106//106 105//105 137//137 
f 99//99 106//106 103//103 
f 107//107 109//109 93//93 
f 107//107 110//110 109//109 
f 109//109 114//114 93//93 
f 110//110 107//107 108//108 
f 112//112 109//109 110//110 
f 114//114 109//109 112//112 
f 132//132 112//112 110//110 
f 110//110 111//111 132//132 
f 112//112 132//132 133//133 
f 133//133 138//138 112//112 
f 138//138 114//114 112//112 
f 116//116 105//105 75//75 
f 117//117 105//105 116//116 
f 105//105 117//117 137//137 
f 76//76 93//93 113//113 
f 114//114 113//113 93//93 
f 114//114 115//115 113//113 
f 138//138 115//115 114//114 
f 116//116 120//120 118//118 
f 117//117 116//116 118//118 
f 140//140 117//117 175//175 
f 119//119 130//130 95//95 
f 95//95 113//113 119//119 
f 95//95 76//76 113//113 
f 119//119 113//113 115//115 
f 120//120 83//83 121//121 
f 176//176 121//121 97//97 
f 121//121 175//175 120//120 
f 124//124 121//121 122//122 
f 123//123 175//175 121//121 
f 123//123 121//121 124//124 
f 127//127 124//124 122//122 
f 127//127 122//122 125//125 
f 127//127 125//125 126//126 
f 126//126 98//98 144//144 
f 124//124 127//127 128//128 
f 128//128 127//127 126//126 
f 126//126 144//144 129//129 
f 129//129 128//128 126//126 
f 146//146 124//124 128//128 
f 163//163 129//129 144//144 
f 128//128 129//129 146//146 
f 130//130 142//142 144//144 
f 119//119 142//142 130//130 
f 134//134 104//104 131//131 
f 103//103 147//147 131//131 
f 104//104 134//134 111//111 
f 106//106 147//147 103//103 
f 106//106 137//137 151//151 
f 106//106 151//151 147//147 
f 131//131 148//148 134//134 
f 132//132 111//111 134//134 
f 134//134 135//135 132//132 
f 133//133 132//132 135//135 
f 136//136 133//133 135//135 
f 134//134 148//148 135//135 
f 135//135 148//148 136//136 
f 153//153 137//137 140//140 
f 137//137 153//153 151//151 
f 139//139 115//115 138//138 
f 136//136 138//138 133//133 
f 136//136 139//139 138//138 
f 139//139 152//152 141//141 
f 152//152 139//139 136//136 
f 140//140 137//137 117//117 
f 175//175 123//123 140//140 
f 143//143 140//140 123//123 
f 141//141 119//119 115//115 
f 139//139 141//141 115//115 
f 141//141 142//142 119//119 
f 156//156 142//142 141//141 
f 156//156 144//144 142//142 
f 123//123 124//124 143//143 
f 124//124 145//145 143//143 
f 145//145 124//124 146//146 
f 145//145 146//146 162//162 
f 146//146 129//129 163//163 
f 146//146 163//163 162//162 
f 151//151 164//164 147//147 
f 147//147 164//164 149//149 
f 149//149 148//148 131//131 
f 147//147 149//149 131//131 
f 150//150 148//148 149//149 
f 165//165 150//150 149//149 
f 150//150 136//136 148//148 
f 152//152 136//136 150//150 
f 157//157 141//141 152//152 
f 154//154 140//140 143//143 
f 153//153 140//140 154//154 
f 155//155 153//153 154//154 
f 155//155 151//151 153//153 
f 157//157 156//156 141//141 
f 161//161 156//156 157//157 
f 170//170 161//161 157//157 
f 154//154 143//143 158//158 
f 158//158 143//143 145//145 
f 145//145 159//159 158//158 
f 172//172 158//158 159//159 
f 154//154 158//158 171//171 
f 172//172 171//171 158//158 
f 155//155 154//154 171//171 
f 159//159 160//160 172//172 
f 173//173 160//160 161//161 
f 172//172 160//160 173//173 
f 144//144 156//156 161//161 
f 161//161 163//163 144//144 
f 161//161 160//160 163//163 
f 159//159 145//145 162//162 
f 162//162 163//163 160//160 
f 160//160 159//159 162//162 
f 149//149 164//164 165//165 
f 167//167 150//150 165//165 
f 166//166 164//164 151//151 
f 166//166 151//151 155//155 
f 166//166 155//155 168//168 
f 164//164 166//166 165//165 
f 165//165 166//166 169//169 
f 168//168 169//169 166//166 
f 150//150 167//167 152//152 
f 167//167 157//157 152//152 
f 165//165 169//169 167//167 
f 167//167 169//169 170//170 
f 171//171 168//168 155//155 
f 171//171 174//174 168//168 
f 168//168 174//174 169//169 
f 174//174 170//170 169//169 
f 167//167 170//170 157//157 
f 171//171 172//172 174//174 
f 174//174 172//172 173//173 
f 170//170 174//174 173//173 
f 173//173 161//161 170//170 
