#
# The license for this database is specified in the Creative Commons Attribution-Share Alike 2.1 Japan. If you use data from this database, please be sure attribute this database as follows: "BodyParts3D, (c)  The Database Center for Life Science licensed under CC Attribution-Share Alike 2.1 Japan".
# http://dbarchive.biosciencedbc.jp/en/bodyparts3d/lic.html
#
#
# Compatibility version : 4.0
# File ID : FJ2608
# Representation ID : BP9482
# Build-up logic : FMA 3.0 part_of
# Concept ID : FMA16982
# English name : Middle part of jejunum
# Bounds(mm): (73.506100,-154.018000,917.485000)-(106.621000,-129.096000,968.261000)
# Volume(cm3): 16.480700
#
v 74.1758 -148.726 933.41
v 75.225 -150.034 936.415
v 74.3242 -147.932 937.165
v 77.8651 -153.04 933.176
v 77.7053 -152.218 929.323
v 81.2073 -153.903 931.873
v 76.8308 -151.932 936.299
v 79.3453 -152.61 940.067
v 80.8015 -154.018 936.155
v 82.6094 -151.169 947.469
v 75.556 -149.966 928.075
v 75.6487 -148.168 925.539
v 77.2647 -150.052 925.59
v 75.3486 -150.813 931.932
v 74.323 -148.084 928.904
v 73.7145 -146.474 930.436
v 75.3524 -148.361 940.174
v 77.3798 -150.732 940.818
v 77.7805 -145.442 947.944
v 74.7915 -145.267 925.609
v 74.1936 -140.913 930.434
v 73.5061 -145.123 935.563
v 73.8512 -140.485 939.725
v 74.4898 -145.386 940.878
v 75.5726 -139.842 946.377
v 75.702 -134.866 938.379
v 74.7162 -136.892 941.216
v 77.4886 -135.934 949.258
v 88.0159 -153.84 936.032
v 82.9587 -150.26 923.134
v 86.8895 -152.042 927.032
v 86.954 -153.361 945.581
v 78.4298 -146.595 920.8
v 81.3435 -145.555 918.824
v 85.4425 -142.307 959.944
v 87.2948 -141.671 963.317
v 77.2244 -143.888 920.3
v 76.9853 -142.21 920.237
v 76.4524 -140.229 921.886
v 78.6502 -143.378 918.781
v 78.1118 -141.807 918.926
v 77.4351 -139.711 920.103
v 80.9506 -141.616 917.485
v 79.4038 -138.97 918.659
v 81.1161 -140.783 955.629
v 84.5876 -138.877 959.918
v 86.6464 -137.926 963.32
v 77.798 -137.608 921.268
v 76.9788 -138.028 922.827
v 78.7096 -134.985 924.66
v 78.1228 -132.36 938.197
v 76.7186 -133.788 943.241
v 81.0842 -131.173 942.705
v 80.9258 -133.159 951.786
v 84.8032 -135.439 959.205
v 92.7383 -152.928 943.58
v 94.2867 -151.619 942.049
v 90.0406 -148.376 922.597
v 94.0854 -150.418 938.596
v 89.614 -146.595 961.805
v 93.6807 -149.323 961.411
v 94.7267 -145.323 966.428
v 86.7725 -142.514 917.743
v 90.1241 -143.114 965.484
v 94.2558 -141.465 967.932
v 82.8545 -137.804 917.758
v 89.7707 -139.953 966.228
v 90.0457 -136.574 966.245
v 80.6732 -135.241 920.823
v 83.6029 -134.555 919.937
v 81.6786 -132.103 926.233
v 83.0296 -132.687 922.836
v 83.8923 -131.462 925.037
v 83.0106 -130.959 928.685
v 85.4857 -130.691 937.987
v 87.0881 -130.65 943.13
v 85.9403 -132.684 957.838
v 88.4522 -133.423 963.499
v 98.2253 -150.413 960.577
v 100.565 -151.155 956.097
v 93.6239 -149.15 928.678
v 97.6479 -147.412 942.614
v 95.9224 -146.229 938.091
v 97.1215 -147.869 964.667
v 97.5367 -145.903 966.316
v 100.278 -147.928 963.791
v 100.604 -144.007 966.296
v 92.8285 -143.243 922.351
v 95.4093 -142.303 929.542
v 96.6099 -141.606 940.735
v 95.109 -139.482 938.012
v 96.7004 -143.059 967.729
v 96.3135 -139.932 968.261
v 99.723 -140.973 967.387
v 87.2532 -136.323 919.081
v 91.333 -134.08 925.142
v 93.0236 -134.404 931.684
v 92.3366 -134.296 938.624
v 94.2087 -135.455 941.481
v 93.498 -137.12 967.727
v 97.0649 -135.94 967.405
v 86.1361 -131.872 923.753
v 86.7555 -130.553 928.054
v 90.1759 -131.301 930.793
v 89.8179 -132.086 939.301
v 92.2536 -132.649 942.707
v 90.3967 -130.313 959.732
v 93.6345 -129.096 956.79
v 91.7754 -132.352 964.832
v 96.0004 -130.324 962.478
v 102.384 -149.85 952.444
v 103.79 -148.871 958.852
v 104.907 -145.438 951.702
v 105.87 -141.903 953.1
v 106.052 -146.034 955.463
v 106.155 -144.802 958.723
v 106.621 -143.328 955.354
v 102.719 -145.617 963.941
v 102.732 -141.208 948.459
v 102.9 -141.664 965.162
v 101.638 -137.954 965.925
v 104.775 -139.292 962.639
v 98.5193 -133.121 948.352
v 101.323 -131.926 954.784
v 99.0471 -133.454 965.252
v 103.091 -135.211 962.867
v 101.186 -132.015 961.274
v 95.9733 -130.1 951.281
v 97.7033 -129.596 958.529
v 104.521 -136.36 954.228
v 106.456 -140.133 955.92
v 106.52 -140.331 958.191
v 105.283 -136.581 957.658
vn -0.934763 -0.35463 0.0213621
vn -0.81704 -0.54858 0.177496
vn -0.928184 -0.327333 0.176998
vn -0.476772 -0.878275 -0.0363658
vn -0.433572 -0.848963 -0.302121
vn -0.100859 -0.971088 -0.216368
vn -0.622912 -0.765009 0.163529
vn -0.446755 -0.851092 0.275777
vn -0.23859 -0.967009 0.089264
vn -0.497158 -0.756806 0.424356
vn -0.735148 -0.606641 -0.302562
vn -0.784758 -0.420612 -0.455237
vn -0.49034 -0.714427 -0.49916
vn -0.771905 -0.633283 -0.0558067
vn -0.916053 -0.342035 -0.209424
vn -0.989283 -0.0890747 -0.115691
vn -0.834205 -0.447102 0.322803
vn -0.682336 -0.639795 0.353666
vn -0.774008 -0.420266 0.473591
vn -0.940293 -0.0733245 -0.332375
vn -0.965829 0.222353 -0.133165
vn -0.994846 -0.0835947 0.057394
vn -0.990505 0.0703676 0.118104
vn -0.936621 -0.208401 0.28162
vn -0.92714 -0.0144712 0.374436
vn -0.833124 0.545928 -0.0886965
vn -0.93978 0.319139 0.122329
vn -0.844932 0.325305 0.424577
vn 0.299155 -0.945429 -0.129116
vn -0.0902153 -0.819718 -0.565618
vn 0.237033 -0.903134 -0.358
vn -0.101884 -0.974101 0.201858
vn -0.483585 -0.564604 -0.668856
vn -0.0985295 -0.52725 -0.843978
vn -0.758917 -0.334518 0.558697
vn -0.754575 -0.287275 0.589991
vn -0.759646 -0.254967 -0.598273
vn -0.855538 0.00252358 -0.517734
vn -0.922248 0.201004 -0.330236
vn -0.485997 -0.297617 -0.821724
vn -0.635652 0.0125845 -0.771873
vn -0.792421 0.27745 -0.543222
vn -0.249538 -0.0580762 -0.966622
vn -0.508817 0.365617 -0.779378
vn -0.803192 -0.129815 0.581404
vn -0.826228 -0.0411882 0.561829
vn -0.775894 0.0817706 0.625542
vn -0.706491 0.540465 -0.456911
vn -0.860088 0.439772 -0.258553
vn -0.67172 0.69311 -0.261515
vn -0.578228 0.813085 -0.0674104
vn -0.718812 0.677231 0.157058
vn -0.272077 0.960723 0.0546299
vn -0.619142 0.696032 0.363596
vn -0.786497 0.328808 0.522788
vn 0.325628 -0.941347 -0.0884953
vn 0.620307 -0.724914 -0.299531
vn 0.387966 -0.641768 -0.661526
vn 0.742054 -0.623243 -0.246828
vn -0.601675 -0.57087 0.558654
vn -0.293515 -0.820637 0.490311
vn -0.264812 -0.565045 0.781408
vn 0.285162 -0.157073 -0.945521
vn -0.523073 -0.407468 0.748575
vn -0.256375 -0.201061 0.945434
vn -0.125856 0.378112 -0.917165
vn -0.548687 -0.0955537 0.830549
vn -0.5152 0.243886 0.821638
vn -0.479177 0.665447 -0.572337
vn -0.10158 0.715618 -0.691066
vn -0.500639 0.832221 -0.238262
vn -0.344898 0.830834 -0.43676
vn -0.207917 0.932795 -0.294389
vn -0.294156 0.949379 -0.110236
vn 0.12256 0.992419 0.00911743
vn 0.153669 0.978504 -0.137538
vn -0.642087 0.640222 0.421712
vn -0.640289 0.533091 0.553031
vn 0.100712 -0.914448 0.391973
vn 0.30103 -0.948985 0.0938477
vn 0.762045 -0.58614 -0.275185
vn 0.824823 -0.307696 -0.474332
vn 0.959005 -0.133144 -0.250165
vn -0.0369428 -0.755026 0.654654
vn 0.123083 -0.540314 0.832413
vn 0.347193 -0.683295 0.642312
vn 0.419272 -0.35115 0.8372
vn 0.801727 -0.0515162 -0.595467
vn 0.97594 0.10077 -0.193358
vn 0.877209 0.171722 -0.448349
vn 0.934452 0.316342 -0.163484
vn 0.0790714 -0.302015 0.950018
vn 0.0644548 0.0124857 0.997842
vn 0.389269 -0.0264804 0.920744
vn 0.408949 0.463948 -0.78582
vn 0.704039 0.59521 -0.387369
vn 0.865119 0.497572 -0.0631797
vn 0.766621 0.640622 -0.0435472
vn 0.742532 0.531488 -0.407636
vn -0.222372 0.196071 0.955043
vn 0.187414 0.354414 0.916115
vn 0.163139 0.856536 -0.489624
vn 0.107855 0.981369 -0.159002
vn 0.533203 0.845341 -0.0330633
vn 0.509598 0.856045 -0.0865844
vn 0.477975 0.791726 -0.380408
vn -0.373626 0.873375 0.312441
vn -0.0338296 0.998695 0.0382574
vn -0.203919 0.6561 0.726602
vn 0.0884299 0.905375 0.415303
vn 0.662042 -0.70607 -0.251328
vn 0.639064 -0.719149 0.272804
vn 0.856969 -0.238395 -0.456915
vn 0.899436 0.117756 -0.42089
vn 0.895439 -0.433094 -0.103049
vn 0.919287 -0.232849 0.31732
vn 0.987439 -0.0738541 -0.13968
vn 0.669503 -0.420677 0.612206
vn 0.788341 0.185922 -0.586474
vn 0.713815 -0.100677 0.69306
vn 0.593214 0.244507 0.767016
vn 0.872126 0.156129 0.463702
vn 0.628779 0.599877 -0.494757
vn 0.643626 0.744392 -0.177835
vn 0.363435 0.616859 0.69814
vn 0.747919 0.466135 0.472584
vn 0.59587 0.755049 0.273568
vn 0.32559 0.905223 -0.27306
vn 0.317664 0.946575 0.0555504
vn 0.826413 0.427803 -0.366095
vn 0.958017 0.232335 -0.168
vn 0.980758 0.124558 0.150331
vn 0.879999 0.470259 0.0667747
g grp1
usemtl mtl1
f 14//14 2//2 1//1 
f 1//1 3//3 22//22 
f 22//22 16//16 1//1 
f 2//2 17//17 3//3 
f 2//2 3//3 1//1 
f 3//3 24//24 22//22 
f 5//5 13//13 30//30 
f 14//14 7//7 2//2 
f 4//4 14//14 5//5 
f 4//4 5//5 6//6 
f 6//6 9//9 4//4 
f 6//6 5//5 30//30 
f 14//14 4//4 7//7 
f 7//7 8//8 18//18 
f 32//32 10//10 8//8 
f 7//7 4//4 9//9 
f 8//8 7//7 9//9 
f 8//8 9//9 32//32 
f 8//8 10//10 18//18 
f 19//19 10//10 60//60 
f 13//13 12//12 33//33 
f 12//12 13//13 11//11 
f 11//11 15//15 12//12 
f 20//20 12//12 15//15 
f 16//16 20//20 15//15 
f 14//14 1//1 15//15 
f 15//15 1//1 16//16 
f 11//11 5//5 14//14 
f 11//11 14//14 15//15 
f 13//13 5//5 11//11 
f 7//7 18//18 2//2 
f 2//2 18//18 17//17 
f 24//24 3//3 17//17 
f 18//18 10//10 19//19 
f 17//17 19//19 24//24 
f 17//17 18//18 19//19 
f 60//60 45//45 19//19 
f 37//37 33//33 12//12 
f 20//20 37//37 12//12 
f 38//38 37//37 20//20 
f 21//21 39//39 20//20 
f 16//16 22//22 21//21 
f 16//16 21//21 20//20 
f 22//22 23//23 21//21 
f 22//22 24//24 23//23 
f 21//21 23//23 27//27 
f 24//24 19//19 25//25 
f 19//19 45//45 25//25 
f 26//26 21//21 27//27 
f 25//25 23//23 24//24 
f 23//23 25//25 27//27 
f 28//28 27//27 25//25 
f 26//26 27//27 52//52 
f 27//27 28//28 52//52 
f 45//45 28//28 25//25 
f 6//6 29//29 9//9 
f 9//9 29//29 32//32 
f 29//29 56//56 32//32 
f 31//31 6//6 30//30 
f 31//31 29//29 6//6 
f 10//10 32//32 61//61 
f 61//61 60//60 10//10 
f 61//61 32//32 79//79 
f 30//30 13//13 33//33 
f 33//33 40//40 34//34 
f 43//43 34//34 40//40 
f 30//30 33//33 34//34 
f 63//63 34//34 43//43 
f 34//34 58//58 30//30 
f 58//58 34//34 63//63 
f 45//45 60//60 35//35 
f 60//60 36//36 35//35 
f 40//40 33//33 37//37 
f 37//37 38//38 41//41 
f 37//37 41//41 40//40 
f 20//20 39//39 38//38 
f 42//42 38//38 39//39 
f 42//42 39//39 49//49 
f 42//42 44//44 41//41 
f 38//38 42//42 41//41 
f 41//41 43//43 40//40 
f 43//43 41//41 44//44 
f 43//43 44//44 66//66 
f 44//44 69//69 66//66 
f 49//49 39//39 21//21 
f 45//45 46//46 55//55 
f 35//35 46//46 45//45 
f 35//35 36//36 46//46 
f 36//36 47//47 46//46 
f 47//47 55//55 46//46 
f 36//36 67//67 47//47 
f 48//48 49//49 50//50 
f 48//48 42//42 49//49 
f 48//48 50//50 69//69 
f 48//48 44//44 42//42 
f 69//69 44//44 48//48 
f 49//49 21//21 26//26 
f 50//50 49//49 26//26 
f 69//69 50//50 72//72 
f 71//71 72//72 50//50 
f 50//50 26//26 51//51 
f 71//71 50//50 51//51 
f 51//51 52//52 53//53 
f 71//71 51//51 74//74 
f 74//74 51//51 53//53 
f 26//26 52//52 51//51 
f 55//55 28//28 45//45 
f 54//54 28//28 55//55 
f 54//54 52//52 28//28 
f 53//53 52//52 54//54 
f 107//107 53//53 54//54 
f 55//55 77//77 54//54 
f 29//29 57//57 56//56 
f 59//59 57//57 29//29 
f 58//58 31//31 30//30 
f 31//31 58//58 81//81 
f 31//31 81//81 29//29 
f 81//81 59//59 29//29 
f 61//61 62//62 60//60 
f 84//84 62//62 61//61 
f 84//84 85//85 62//62 
f 92//92 62//62 85//85 
f 88//88 58//58 63//63 
f 36//36 64//64 67//67 
f 36//36 60//60 64//64 
f 67//67 100//100 68//68 
f 64//64 60//60 62//62 
f 62//62 65//65 64//64 
f 64//64 65//65 67//67 
f 65//65 100//100 67//67 
f 92//92 65//65 62//62 
f 66//66 63//63 43//43 
f 70//70 66//66 69//69 
f 95//95 63//63 66//66 
f 95//95 66//66 70//70 
f 68//68 47//47 67//67 
f 47//47 68//68 78//78 
f 70//70 69//69 72//72 
f 72//72 71//71 73//73 
f 102//102 70//70 72//72 
f 72//72 73//73 102//102 
f 103//103 102//102 73//73 
f 73//73 71//71 74//74 
f 73//73 74//74 103//103 
f 53//53 103//103 74//74 
f 103//103 53//53 75//75 
f 75//75 53//53 76//76 
f 53//53 107//107 108//108 
f 53//53 108//108 76//76 
f 54//54 77//77 107//107 
f 55//55 78//78 77//77 
f 107//107 78//78 109//109 
f 107//107 77//77 78//78 
f 55//55 47//47 78//78 
f 78//78 68//68 109//109 
f 57//57 111//111 56//56 
f 82//82 111//111 57//57 
f 56//56 80//80 32//32 
f 111//111 80//80 56//56 
f 79//79 32//32 80//80 
f 80//80 112//112 79//79 
f 112//112 86//86 79//79 
f 112//112 80//80 111//111 
f 61//61 79//79 84//84 
f 84//84 79//79 86//86 
f 81//81 58//58 88//88 
f 81//81 88//88 89//89 
f 81//81 89//89 83//83 
f 83//83 59//59 81//81 
f 59//59 82//82 57//57 
f 83//83 82//82 59//59 
f 82//82 83//83 90//90 
f 82//82 90//90 119//119 
f 92//92 85//85 87//87 
f 86//86 85//85 84//84 
f 86//86 87//87 85//85 
f 118//118 86//86 112//112 
f 120//120 94//94 87//87 
f 116//116 118//118 112//112 
f 118//118 87//87 86//86 
f 87//87 118//118 120//120 
f 63//63 95//95 88//88 
f 95//95 96//96 88//88 
f 89//89 88//88 96//96 
f 91//91 83//83 89//89 
f 91//91 89//89 97//97 
f 83//83 91//91 90//90 
f 93//93 100//100 65//65 
f 92//92 93//93 65//65 
f 94//94 92//92 87//87 
f 94//94 93//93 92//92 
f 101//101 93//93 94//94 
f 96//96 97//97 89//89 
f 104//104 98//98 97//97 
f 104//104 105//105 98//98 
f 98//98 91//91 97//97 
f 98//98 105//105 99//99 
f 99//99 105//105 106//106 
f 91//91 98//98 99//99 
f 91//91 99//99 90//90 
f 90//90 99//99 119//119 
f 106//106 123//123 99//99 
f 93//93 101//101 100//100 
f 109//109 100//100 101//101 
f 109//109 125//125 110//110 
f 125//125 109//109 101//101 
f 127//127 110//110 125//125 
f 95//95 70//70 102//102 
f 96//96 102//102 103//103 
f 95//95 102//102 96//96 
f 103//103 75//75 104//104 
f 104//104 96//96 103//103 
f 104//104 97//97 96//96 
f 105//105 104//104 75//75 
f 105//105 75//75 76//76 
f 105//105 76//76 106//106 
f 110//110 107//107 109//109 
f 108//108 107//107 110//110 
f 108//108 110//110 129//129 
f 128//128 76//76 108//108 
f 100//100 109//109 68//68 
f 111//111 115//115 112//112 
f 112//112 115//115 116//116 
f 82//82 119//119 113//113 
f 111//111 82//82 113//113 
f 111//111 113//113 115//115 
f 119//119 114//114 113//113 
f 115//115 113//113 117//117 
f 113//113 114//114 117//117 
f 114//114 131//131 117//117 
f 115//115 117//117 116//116 
f 132//132 116//116 117//117 
f 117//117 131//131 132//132 
f 118//118 116//116 120//120 
f 114//114 119//119 130//130 
f 119//119 123//123 130//130 
f 120//120 121//121 94//94 
f 94//94 121//121 101//101 
f 122//122 121//121 120//120 
f 116//116 122//122 120//120 
f 122//122 126//126 121//121 
f 122//122 116//116 132//132 
f 132//132 133//133 122//122 
f 122//122 133//133 126//126 
f 123//123 106//106 128//128 
f 123//123 119//119 99//99 
f 123//123 128//128 124//124 
f 130//130 123//123 124//124 
f 110//110 127//127 129//129 
f 129//129 127//127 124//124 
f 129//129 124//124 128//128 
f 124//124 127//127 133//133 
f 121//121 125//125 101//101 
f 126//126 127//127 125//125 
f 121//121 126//126 125//125 
f 127//127 126//126 133//133 
f 76//76 128//128 106//106 
f 108//108 129//129 128//128 
f 131//131 114//114 130//130 
f 132//132 131//131 133//133 
f 131//131 130//130 133//133 
f 130//130 124//124 133//133 
