#
# The license for this database is specified in the Creative Commons Attribution-Share Alike 2.1 Japan. If you use data from this database, please be sure attribute this database as follows: "BodyParts3D, (c)  The Database Center for Life Science licensed under CC Attribution-Share Alike 2.1 Japan".
# http://dbarchive.biosciencedbc.jp/en/bodyparts3d/lic.html
#
#
# Compatibility version : 4.0
# File ID : FJ2610
# Representation ID : BP9482
# Build-up logic : FMA 3.0 part_of
# Concept ID : FMA16982
# English name : Middle part of jejunum
# Bounds(mm): (18.909100,-179.273000,909.649000)-(75.574300,-144.478000,944.045000)
# Volume(cm3): 23.092600
#
v 24.4836 -175.905 925.036
v 20.0056 -170.316 922.438
v 22.1505 -172.483 922.057
v 21.8269 -170.477 920.624
v 20.1023 -171.988 924.747
v 19.513 -170.551 927.108
v 21.5667 -173.891 927.648
v 22.0596 -172.834 930.205
v 21.9467 -168.847 931.603
v 19.2736 -167.854 922.349
v 20.293 -168.489 921.082
v 19.6071 -164.308 922.331
v 18.9091 -168.413 924.036
v 20.0532 -164.955 926.941
v 29.0306 -177.637 930.323
v 20.2092 -164.854 920.66
v 21.0212 -162.533 920.492
v 22.0378 -164.152 918.576
v 23.8541 -166.778 917.544
v 22.5598 -162.269 918.759
v 24.1888 -163.52 916.955
v 22.8121 -160.9 920.321
v 21.5561 -161.281 922.751
v 23.2357 -160.393 926.787
v 24.7118 -159.207 923.423
v 35.6691 -176.882 917.965
v 33.3318 -179.273 923.759
v 38.5471 -175.475 937.839
v 33.8627 -171.846 914.114
v 31.9577 -175.282 917.327
v 29.6032 -171.292 915.381
v 29.4103 -166.748 913.775
v 31.9859 -168.529 913.089
v 33.0609 -168.324 940.901
v 26.8323 -162.548 916.089
v 26.7863 -160.439 918.776
v 30.217 -162.113 915.968
v 31.6617 -161.526 939.346
v 39.1506 -178.105 922.383
v 41.7966 -177.181 933.613
v 35.0559 -170.413 913.497
v 36.7991 -172.913 914.86
v 37.6285 -170.29 914.411
v 39.0861 -173.532 916.433
v 42.8598 -171.288 941.368
v 32.314 -165.737 913.19
v 35.4316 -167.228 913.457
v 35.774 -165.069 914.612
v 35.5129 -155.468 928.254
v 35.0308 -155.001 932.663
v 44.1829 -176.349 925.942
v 43.7294 -174.579 922.092
v 44.9225 -174.22 922.732
v 49.5494 -174.063 922.187
v 46.7988 -175.898 926.458
v 48.3425 -172.386 938.591
v 42.388 -169.947 918.287
v 45.1309 -168.931 918.599
v 45.0054 -171.963 920.248
v 48.1192 -167.753 941.874
v 40.2314 -165.524 917.482
v 40.5333 -162.07 919.606
v 42.599 -164.681 918.557
v 42.0529 -161.51 919.405
v 42.2242 -161.421 943.517
v 44.4759 -165.463 943.616
v 45.6487 -162.698 943.648
v 37.7814 -158.156 922.922
v 40.9457 -155.236 939.585
v 45.1353 -158.821 942.577
v 55.5471 -173.914 926.309
v 52.9497 -170.155 936.61
v 54.8372 -168.414 937.38
v 51.7084 -168.443 938.856
v 51.0472 -165.522 940.355
v 52.1601 -164.812 940.313
v 50.0288 -162.896 941.17
v 49.369 -161.256 941.358
v 48.6331 -159.097 941.111
v 51.1398 -161.977 941.152
v 50.316 -159.906 941.247
v 49.6402 -158.65 941.04
v 45.9459 -157.332 919.28
v 46.4692 -152.897 936.306
v 47.8034 -152.835 937.019
v 48.1831 -157.697 940.678
v 47.5413 -156.244 939.894
v 46.4538 -154.435 938.388
v 49.2574 -157.176 940.669
v 48.8523 -155.734 939.958
v 46.1614 -151.589 927.614
v 47.1596 -151.136 932.886
v 57.7806 -170.446 919.199
v 60.3686 -171.177 923.122
v 51.4658 -161.802 915.566
v 49.9704 -158.653 916.844
v 51.1047 -158.324 916.294
v 50.6884 -157.3 917.11
v 51.4914 -157.336 916.174
v 50.9072 -155.177 918.939
v 51.7794 -155.367 917.613
v 53.1178 -154.636 915.156
v 53.555 -152.354 920.686
v 64.6018 -160.877 940.975
v 60.1925 -156.129 944.045
v 56.6391 -152.032 942.903
v 60.2632 -150.347 943.425
v 56.797 -147.771 940.007
v 56.8784 -146.192 935.811
v 60.0367 -145.902 938.699
v 65.8899 -167.222 915.823
v 70.0559 -164.373 916.886
v 69.3539 -166.748 926.925
v 67.9903 -165.084 934.73
v 64.6597 -164.22 911.904
v 66.9699 -158.653 909.671
v 60.8004 -157.133 909.649
v 64.5592 -154.139 909.732
v 64.078 -153.536 943.201
v 59.5784 -152.96 910.936
v 59.9632 -150.034 914.246
v 62.4091 -147.915 941.038
v 62.5908 -145.184 928.817
v 63.9466 -144.478 933.962
v 73.0977 -162.521 925.146
v 69.1931 -159.646 911.616
v 71.3976 -160.134 915.701
v 72.6282 -161.374 931.895
v 68.5588 -156.457 910.664
v 70.5332 -155.233 913.728
v 72.8506 -151.813 921.123
v 73.3815 -150.287 932.44
v 71.0741 -156.407 936.877
v 66.8799 -151.77 912.92
v 68.2207 -146.189 924.836
v 71.4909 -148.545 923.327
v 71.4612 -147.598 932.568
v 68.7804 -149.49 937.679
v 68.1752 -144.986 931.151
v 66.1695 -145.367 935.371
v 75.2507 -155.928 924.664
v 74.6285 -153.724 922.954
v 75.5743 -152.635 926.856
v 74.9304 -151.173 926.16
v 74.1001 -149.77 926.13
v 75.5607 -155.078 928.486
v 74.9213 -153.697 931.011
v 75.1087 -151.237 929.174
v 74.3804 -149.662 928.615
v 72.4343 -147.388 928.457
v 45.0054 -171.963 920.248
v 37.7814 -158.156 922.922
v 53.1178 -154.636 915.156
v 64.6597 -164.22 911.904
v 59.5784 -152.96 910.936
v 59.5784 -152.96 910.936
vn -0.506612 -0.832784 -0.223191
vn -0.791275 -0.407863 -0.455557
vn -0.568185 -0.630042 -0.529351
vn -0.596244 -0.417553 -0.68567
vn -0.807472 -0.560727 -0.183232
vn -0.930828 -0.226841 0.286536
vn -0.698391 -0.694542 0.172805
vn -0.67079 -0.477511 0.567471
vn -0.769777 0.00100702 0.638312
vn -0.910942 -0.0932478 -0.401856
vn -0.719558 -0.213712 -0.66073
vn -0.943475 0.302545 -0.135356
vn -0.99365 -0.0953248 -0.0597726
vn -0.873394 0.348895 0.339788
vn -0.343911 -0.860329 0.376244
vn -0.838072 0.082588 -0.539272
vn -0.781478 0.461513 -0.419878
vn -0.699888 0.0668251 -0.711119
vn -0.584098 -0.212805 -0.78329
vn -0.531113 0.544628 -0.649075
vn -0.534688 0.172114 -0.827337
vn -0.489966 0.791117 -0.366152
vn -0.72434 0.689342 -0.0117875
vn -0.632627 0.725379 0.271308
vn -0.381075 0.914775 -0.134043
vn 0.0735919 -0.768865 -0.635162
vn -0.129435 -0.976298 -0.173464
vn -0.0521256 -0.766609 0.639995
vn -0.133854 -0.511202 -0.848973
vn -0.346822 -0.714201 -0.607973
vn -0.452465 -0.448544 -0.770769
vn -0.421877 -0.0134311 -0.906554
vn -0.145616 -0.179087 -0.972997
vn -0.396424 -0.294832 0.869438
vn -0.285187 0.547872 -0.786451
vn -0.171193 0.850051 -0.498103
vn 0.0374195 0.734051 -0.678062
vn -0.578898 0.445768 0.682765
vn 0.372012 -0.873436 -0.314191
vn 0.188431 -0.966167 0.176113
vn 0.158683 -0.229128 -0.960375
vn 0.24339 -0.464684 -0.851369
vn 0.513865 -0.077841 -0.854332
vn 0.514808 -0.484221 -0.707463
vn 0.0656623 -0.519394 0.852009
vn -0.0118168 0.361642 -0.932242
vn 0.338377 0.152376 -0.928592
vn 0.33594 0.558923 -0.758123
vn -0.246082 0.89987 -0.360108
vn -0.404599 0.902603 0.146995
vn 0.363109 -0.887702 -0.283086
vn 0.507263 -0.703872 -0.49724
vn 0.23512 -0.813751 -0.531533
vn 0.0927211 -0.857755 -0.505627
vn 0.170911 -0.951878 -0.254395
vn 0.392213 -0.695095 0.602504
vn 0.447969 -0.0876421 -0.889743
vn -0.0788191 -0.251382 -0.964673
vn 0.51463 -0.647393 -0.562172
vn 0.421422 -0.249374 0.871904
vn 0.491255 0.27621 -0.826061
vn 0.0992779 0.501405 -0.859498
vn -0.0239925 0.144022 -0.989284
vn -0.343106 0.301676 -0.889534
vn -0.182066 0.221878 0.957926
vn 0.0284459 -0.199491 0.979487
vn 0.276029 0.0789847 0.957898
vn 0.0284516 0.81787 -0.574699
vn -0.204282 0.750069 0.629019
vn 0.198066 0.46561 0.862541
vn 0.383836 -0.919614 0.0835471
vn 0.489256 -0.674565 0.552803
vn 0.316176 -0.619088 0.718862
vn 0.480904 -0.455613 0.749099
vn 0.372399 -0.265709 0.889223
vn 0.14918 -0.386069 0.910328
vn 0.278061 -0.0908691 0.956256
vn 0.232328 0.0871345 0.968727
vn 0.188793 0.261319 0.94661
vn 0.00508373 -0.136202 0.990668
vn -0.0895196 0.0109085 0.995925
vn -0.142493 0.150867 0.978231
vn -0.38307 0.653945 -0.65239
vn -0.176362 0.845417 0.50415
vn -0.331771 0.720122 0.609387
vn 0.0230597 0.383012 0.923456
vn -0.0165355 0.595323 0.803317
vn -0.0302029 0.724426 0.68869
vn -0.281417 0.262779 0.922904
vn -0.363438 0.462045 0.808967
vn -0.350838 0.906098 -0.236431
vn -0.364154 0.893372 0.263209
vn 0.200239 -0.873437 -0.443861
vn 0.366801 -0.905256 -0.214401
vn -0.438855 0.00745756 -0.898527
vn -0.424927 0.294829 -0.855869
vn -0.570622 0.222122 -0.790603
vn -0.559007 0.455752 -0.692677
vn -0.709655 0.273872 -0.649141
vn -0.473035 0.664046 -0.579034
vn -0.698882 0.573252 -0.427723
vn -0.591569 0.0930575 -0.800866
vn -0.539793 0.777529 -0.322602
vn 0.424263 -0.426821 0.798639
vn 0.0253979 -0.209137 0.977557
vn -0.335865 0.191576 0.922222
vn -0.0215834 0.415566 0.909307
vn -0.393032 0.703957 0.591584
vn -0.364078 0.926929 0.0908299
vn -0.0752339 0.899879 0.429601
vn 0.39975 -0.83303 -0.382441
vn 0.712355 -0.587545 -0.383851
vn 0.60952 -0.79192 0.0367203
vn 0.542512 -0.676997 0.497349
vn -0.101955 -0.557667 -0.82378
vn 0.284592 -0.157376 -0.945643
vn -0.298202 -0.0614663 -0.952522
vn 0.129107 0.448565 -0.884376
vn 0.48217 0.121141 0.867662
vn -0.520265 0.668967 -0.530856
vn -0.21266 0.86121 -0.46162
vn 0.241113 0.662653 0.709053
vn -0.241838 0.943487 -0.226596
vn -0.0114292 0.994544 0.103689
vn 0.889097 -0.454152 -0.0570271
vn 0.721468 -0.277365 -0.63447
vn 0.904892 -0.192079 -0.379838
vn 0.836757 -0.427372 0.342333
vn 0.61 0.235281 -0.756666
vn 0.823942 0.247135 -0.509945
vn 0.75207 0.49841 -0.431253
vn 0.811763 0.347101 0.46964
vn 0.752307 -0.108773 0.649771
vn 0.447075 0.697372 -0.560176
vn 0.24028 0.920557 -0.307963
vn 0.583048 0.718523 -0.379182
vn 0.65533 0.668757 0.351151
vn 0.630772 0.432133 0.644506
vn 0.312594 0.949283 0.033872
vn 0.363168 0.823152 0.436496
vn 0.971846 -0.130851 -0.195941
vn 0.913037 0.179735 -0.366141
vn 0.981915 0.156005 -0.107261
vn 0.886149 0.408991 -0.217868
vn 0.763221 0.588848 -0.265991
vn 0.982511 -0.134609 0.128655
vn 0.910461 -0.000604227 0.413594
vn 0.943859 0.287248 0.16315
vn 0.830391 0.55013 0.0883597
vn 0.616042 0.783794 -0.0784832
vn 0.120626 -0.52781 -0.840753
vn -0.351492 0.426281 -0.83351
vn -0.686458 0.636463 -0.351697
vn 0.513805 -0.547898 -0.66016
vn -0.37605 0.17083 -0.910716
vn 0.0166654 0.748182 -0.663284
g grp1
usemtl mtl1
f 7//7 15//15 8//8 
f 5//5 3//3 1//1 
f 7//7 5//5 1//1 
f 15//15 7//7 1//1 
f 2//2 3//3 5//5 
f 13//13 2//2 5//5 
f 11//11 4//4 2//2 
f 13//13 10//10 2//2 
f 10//10 11//11 2//2 
f 4//4 3//3 2//2 
f 3//3 4//4 31//31 
f 11//11 19//19 4//4 
f 5//5 7//7 6//6 
f 7//7 8//8 6//6 
f 5//5 6//6 13//13 
f 6//6 8//8 9//9 
f 8//8 34//34 9//9 
f 12//12 16//16 10//10 
f 12//12 10//10 13//13 
f 13//13 14//14 12//12 
f 6//6 14//14 13//13 
f 12//12 14//14 23//23 
f 24//24 23//23 14//14 
f 9//9 14//14 6//6 
f 27//27 40//40 15//15 
f 30//30 1//1 3//3 
f 30//30 3//3 31//31 
f 1//1 27//27 15//15 
f 30//30 27//27 1//1 
f 15//15 34//34 8//8 
f 15//15 28//28 34//34 
f 31//31 4//4 19//19 
f 10//10 16//16 11//11 
f 17//17 16//16 12//12 
f 18//18 19//19 11//11 
f 16//16 18//18 11//11 
f 18//18 16//16 17//17 
f 17//17 12//12 23//23 
f 18//18 17//17 20//20 
f 17//17 22//22 20//20 
f 18//18 21//21 19//19 
f 21//21 18//18 20//20 
f 35//35 21//21 20//20 
f 24//24 14//14 38//38 
f 22//22 17//17 23//23 
f 36//36 20//20 22//22 
f 36//36 22//22 25//25 
f 22//22 23//23 25//25 
f 23//23 24//24 25//25 
f 25//25 24//24 50//50 
f 24//24 38//38 50//50 
f 26//26 27//27 30//30 
f 27//27 26//26 39//39 
f 39//39 26//26 44//44 
f 39//39 40//40 27//27 
f 28//28 15//15 40//40 
f 30//30 31//31 29//29 
f 26//26 30//30 29//29 
f 29//29 31//31 33//33 
f 29//29 42//42 26//26 
f 19//19 21//21 32//32 
f 32//32 31//31 19//19 
f 33//33 31//31 32//32 
f 33//33 32//32 46//46 
f 46//46 32//32 35//35 
f 41//41 29//29 33//33 
f 9//9 34//34 38//38 
f 32//32 21//21 35//35 
f 35//35 37//37 46//46 
f 36//36 35//35 20//20 
f 35//35 36//36 37//37 
f 49//49 68//68 36//36 
f 14//14 9//9 38//38 
f 65//65 38//38 34//34 
f 25//25 49//49 36//36 
f 49//49 25//25 50//50 
f 44//44 52//52 39//39 
f 52//52 44//44 59//59 
f 52//52 51//51 39//39 
f 39//39 51//51 40//40 
f 40//40 56//56 28//28 
f 45//45 28//28 56//56 
f 42//42 29//29 41//41 
f 43//43 42//42 41//41 
f 42//42 43//43 44//44 
f 61//61 57//57 43//43 
f 44//44 26//26 42//42 
f 44//44 43//43 57//57 
f 57//57 151//151 44//44 
f 34//34 28//28 45//45 
f 47//47 33//33 46//46 
f 47//47 41//41 33//33 
f 47//47 43//43 41//41 
f 46//46 48//48 47//47 
f 46//46 37//37 48//48 
f 47//47 48//48 61//61 
f 47//47 61//61 43//43 
f 62//62 48//48 68//68 
f 61//61 48//48 62//62 
f 68//68 37//37 36//36 
f 48//48 37//37 68//68 
f 38//38 65//65 69//69 
f 49//49 50//50 91//91 
f 50//50 38//38 69//69 
f 115//115 151//151 58//58 
f 52//52 53//53 51//51 
f 51//51 53//53 55//55 
f 52//52 59//59 53//53 
f 54//54 55//55 53//53 
f 54//54 53//53 151//151 
f 54//54 151//151 115//115 
f 51//51 55//55 40//40 
f 40//40 71//71 56//56 
f 45//45 56//56 60//60 
f 60//60 56//56 74//74 
f 74//74 56//56 72//72 
f 72//72 56//56 71//71 
f 57//57 58//58 151//151 
f 60//60 66//66 45//45 
f 66//66 34//34 45//45 
f 61//61 62//62 63//63 
f 61//61 63//63 57//57 
f 58//58 57//57 63//63 
f 64//64 63//63 62//62 
f 65//65 34//34 66//66 
f 67//67 65//65 66//66 
f 60//60 67//67 66//66 
f 78//78 70//70 67//67 
f 78//78 67//67 60//60 
f 64//64 62//62 152//152 
f 70//70 69//69 65//65 
f 70//70 65//65 67//67 
f 69//69 92//92 50//50 
f 95//95 115//115 58//58 
f 55//55 54//54 71//71 
f 71//71 40//40 55//55 
f 54//54 115//115 93//93 
f 93//93 71//71 54//54 
f 71//71 93//93 94//94 
f 73//73 72//72 71//71 
f 95//95 58//58 63//63 
f 60//60 74//74 75//75 
f 80//80 75//75 76//76 
f 72//72 73//73 74//74 
f 73//73 75//75 74//74 
f 76//76 75//75 73//73 
f 64//64 95//95 63//63 
f 96//96 95//95 64//64 
f 77//77 78//78 60//60 
f 75//75 77//77 60//60 
f 80//80 77//77 75//75 
f 80//80 78//78 77//77 
f 80//80 81//81 78//78 
f 81//81 82//82 78//78 
f 82//82 79//79 78//78 
f 82//82 86//86 79//79 
f 64//64 152//152 83//83 
f 83//83 96//96 64//64 
f 83//83 68//68 49//49 
f 92//92 84//84 85//85 
f 84//84 88//88 85//85 
f 86//86 87//87 70//70 
f 87//87 88//88 70//70 
f 88//88 69//69 70//70 
f 79//79 70//70 78//78 
f 79//79 86//86 70//70 
f 88//88 84//84 69//69 
f 82//82 89//89 86//86 
f 90//90 87//87 86//86 
f 89//89 90//90 86//86 
f 87//87 90//90 85//85 
f 85//85 88//88 87//87 
f 108//108 85//85 90//90 
f 82//82 106//106 89//89 
f 90//90 89//89 106//106 
f 90//90 106//106 108//108 
f 91//91 50//50 92//92 
f 83//83 49//49 91//91 
f 92//92 69//69 84//84 
f 85//85 108//108 92//92 
f 93//93 111//111 94//94 
f 94//94 113//113 71//71 
f 113//113 94//94 111//111 
f 117//117 115//115 95//95 
f 76//76 73//73 105//105 
f 95//95 96//96 97//97 
f 97//97 96//96 98//98 
f 98//98 96//96 83//83 
f 99//99 95//95 97//97 
f 81//81 106//106 82//82 
f 76//76 105//105 80//80 
f 83//83 100//100 98//98 
f 97//97 98//98 99//99 
f 99//99 98//98 101//101 
f 100//100 101//101 98//98 
f 102//102 95//95 99//99 
f 100//100 103//103 101//101 
f 99//99 101//101 153//153 
f 153//153 101//101 103//103 
f 121//121 153//153 103//103 
f 83//83 103//103 100//100 
f 83//83 123//123 103//103 
f 83//83 91//91 123//123 
f 91//91 92//92 109//109 
f 92//92 108//108 109//109 
f 123//123 91//91 109//109 
f 115//115 111//111 93//93 
f 73//73 71//71 114//114 
f 113//113 114//114 71//71 
f 105//105 73//73 104//104 
f 104//104 73//73 114//114 
f 102//102 117//117 95//95 
f 105//105 106//106 80//80 
f 81//81 80//80 106//106 
f 104//104 119//119 105//105 
f 105//105 119//119 107//107 
f 122//122 107//107 119//119 
f 103//103 123//123 121//121 
f 153//153 121//121 120//120 
f 155//155 117//117 102//102 
f 107//107 106//106 105//105 
f 107//107 108//108 106//106 
f 109//109 108//108 110//110 
f 108//108 122//122 110//110 
f 107//107 122//122 108//108 
f 154//154 126//126 112//112 
f 154//154 112//112 111//111 
f 112//112 113//113 111//111 
f 133//133 104//104 114//114 
f 133//133 114//114 128//128 
f 116//116 115//115 117//117 
f 126//126 154//154 116//116 
f 116//116 117//117 118//118 
f 129//129 116//116 118//118 
f 134//134 129//129 118//118 
f 133//133 119//119 104//104 
f 138//138 119//119 133//133 
f 119//119 138//138 122//122 
f 117//117 155//155 118//118 
f 121//121 118//118 156//156 
f 118//118 121//121 134//134 
f 135//135 121//121 123//123 
f 134//134 121//121 135//135 
f 135//135 123//123 139//139 
f 109//109 124//124 123//123 
f 124//124 109//109 110//110 
f 124//124 110//110 140//140 
f 122//122 140//140 110//110 
f 125//125 113//113 112//112 
f 129//129 126//126 116//116 
f 126//126 129//129 130//130 
f 127//127 112//112 126//126 
f 127//127 126//126 130//130 
f 112//112 127//127 125//125 
f 125//125 141//141 146//146 
f 113//113 128//128 114//114 
f 128//128 113//113 125//125 
f 146//146 128//128 125//125 
f 133//133 128//128 147//147 
f 147//147 128//128 146//146 
f 129//129 134//134 130//130 
f 130//130 142//142 127//127 
f 130//130 134//134 131//131 
f 130//130 131//131 142//142 
f 136//136 131//131 134//134 
f 133//133 147//147 132//132 
f 134//134 135//135 136//136 
f 135//135 150//150 136//136 
f 131//131 136//136 145//145 
f 124//124 140//140 139//139 
f 132//132 137//137 138//138 
f 140//140 137//137 139//139 
f 149//149 137//137 132//132 
f 150//150 139//139 137//137 
f 150//150 137//137 149//149 
f 138//138 133//133 132//132 
f 140//140 122//122 138//138 
f 140//140 138//138 137//137 
f 150//150 135//135 139//139 
f 124//124 139//139 123//123 
f 141//141 125//125 127//127 
f 146//146 141//141 143//143 
f 127//127 142//142 141//141 
f 142//142 143//143 141//141 
f 148//148 143//143 144//144 
f 143//143 142//142 144//144 
f 142//142 131//131 144//144 
f 144//144 145//145 149//149 
f 144//144 131//131 145//145 
f 146//146 143//143 148//148 
f 147//147 146//146 148//148 
f 148//148 132//132 147//147 
f 148//148 149//149 132//132 
f 148//148 144//144 149//149 
f 145//145 136//136 150//150 
f 149//149 145//145 150//150 
