#
# The license for this database is specified in the Creative Commons Attribution-Share Alike 2.1 Japan. If you use data from this database, please be sure attribute this database as follows: "BodyParts3D, (c)  The Database Center for Life Science licensed under CC Attribution-Share Alike 2.1 Japan".
# http://dbarchive.biosciencedbc.jp/en/bodyparts3d/lic.html
#
#
# Compatibility version : 4.0
# File ID : FJ2605
# Representation ID : BP9639
# Build-up logic : FMA 3.0 part_of
# Concept ID : FMA14964
# English name : Proximal part of ileum
# Bounds(mm): (38.686700,-168.861000,884.683000)-(101.303000,-132.556000,913.760000)
# Volume(cm3): 16.634000
#
v 39.7366 -164.16 893.661
v 40.6637 -165.766 892.971
v 40.9773 -165.451 894.458
v 40.5205 -165.338 890.652
v 38.6867 -161.672 891.126
v 38.8045 -160.105 890.734
v 38.7307 -159.686 893.659
v 39.2681 -163.72 892.073
v 39.2695 -163.239 890.41
v 39.4036 -161.752 889.381
v 40.3396 -163.432 888.816
v 39.0793 -161.765 894.693
v 40.1438 -163.156 895.571
v 40.1816 -160.672 897.351
v 39.6125 -159.797 896.778
v 40.2287 -157.459 896.091
v 40.8217 -158.702 898.546
v 41.5741 -160.444 898.792
v 39.8607 -157.437 891.758
v 40.6589 -158.177 888.632
v 41.9217 -156.25 898.087
v 43.269 -165.69 888.213
v 41.5508 -166.726 891.6
v 41.1672 -164.942 889.054
v 42.3892 -167.421 893.104
v 42.5379 -167.021 894.502
v 42.1107 -166.783 890.575
v 43.1321 -167.902 892.326
v 44.0218 -168.057 894.417
v 44.8517 -168.598 893.74
v 44.9316 -168.396 894.543
v 44.7024 -168.472 892.251
v 44.351 -167.827 890.622
v 45.7517 -166.816 888.844
v 46.9738 -168.861 893.45
v 47.2968 -168.691 894.379
v 46.7424 -168.322 891.239
v 42.4433 -165.612 895.954
v 44.1751 -167.567 895.288
v 45.2658 -164.517 898.3
v 45.9008 -167.636 895.831
v 42.3871 -164.212 887.552
v 42.8534 -160.193 886.261
v 45.2196 -164.188 886.599
v 42.317 -158.397 900.041
v 42.2994 -157.483 899.837
v 44.716 -159.052 901.147
v 45.3626 -156.389 901.973
v 47.6451 -156.306 902.719
v 42.7756 -154.754 889.373
v 45.1057 -154.851 900.995
v 46.8946 -154.671 902.428
v 47.7094 -155.297 902.885
v 47.6723 -153.011 901.49
v 49.3821 -167.007 889.892
v 50.0754 -168.162 892.966
v 50.9961 -165.623 897.144
v 53.0185 -166.598 894.853
v 47.1861 -160.65 884.952
v 49.0979 -163.38 886.167
v 52.1421 -158.349 884.683
v 48.7363 -160.512 900.958
v 47.5836 -155.078 885.397
v 48.6576 -153.669 902.594
v 49.6715 -155.318 902.841
v 49.3693 -149.441 888.012
v 48.878 -147.887 893.924
v 52.4272 -149.235 900.149
v 54.5808 -151.398 901.834
v 57.2683 -147.359 901.154
v 56.5732 -145.025 899.436
v 60.0315 -162.622 889.86
v 60.0784 -160.093 886.941
v 63.3664 -160.543 894.709
v 61.6948 -157.879 898.517
v 61.5294 -150.336 901.547
v 65.489 -152.42 901.794
v 59.9471 -148.791 901.736
v 61.4695 -144.956 902.172
v 61.5657 -147.23 902.072
v 64.3017 -148.581 903.094
v 59.1575 -144.493 887.191
v 60.2928 -141.655 899.678
v 63.697 -137.591 896.424
v 70.4945 -157.925 892.961
v 66.3564 -156.137 899.266
v 67.9245 -157.768 897.229
v 66.693 -145.002 886.03
v 69.1567 -139.959 907.185
v 64.2296 -137.768 891.969
v 73.4824 -154.37 903.939
v 75.2946 -155.443 902.524
v 73.1282 -147.482 909.329
v 78.9767 -142.661 912.672
v 70.7793 -139.449 888.325
v 77.8792 -136.439 910.896
v 71.1169 -134.3 896.384
v 73.2626 -134.865 893.717
v 73.9254 -134.05 904.429
v 77.8858 -155.271 899.276
v 81.7219 -155.102 902.874
v 81.1557 -152.87 908.963
v 83.8671 -155.323 906.549
v 77.0821 -152.371 890.486
v 82.2439 -151.644 897.192
v 75.7667 -146.883 887.302
v 80.0492 -145.91 889.926
v 82.8036 -146.557 893.842
v 76.6776 -140.049 889.953
v 81.5163 -139.6 894.064
v 80.7967 -135.733 896.503
v 79.8053 -132.606 901.992
v 79.5495 -133.092 907.146
v 84.9307 -154.827 903.339
v 89.9457 -154.886 904.199
v 84.1679 -151.712 899.674
v 83.7354 -150.057 897.001
v 85.2307 -151.695 899.701
v 84.7673 -150.381 897.964
v 85.8544 -150.602 897.974
v 85.4414 -149.073 896.615
v 86.9517 -153.511 901.267
v 86.0563 -147.641 912.542
v 85.8953 -147.598 895.681
v 86.5472 -143.499 913.76
v 84.6831 -139.343 895.407
v 88.5612 -139.687 894.489
v 85.9251 -138.597 913.503
v 87.0572 -135.523 911.673
v 90.752 -139.164 913.094
v 83.8603 -134.864 898.564
v 85.3461 -132.556 905.401
v 94.488 -154.508 902.36
v 92.846 -151.563 910.193
v 95.2054 -153.933 905.83
v 90.9103 -153.226 898.867
v 94.482 -151.328 896.684
v 96.0413 -147.344 911.317
v 90.1019 -148.337 894.816
v 93.3622 -147.132 894.42
v 91.703 -145.119 913.088
v 95.8892 -143.485 911.737
v 93.1978 -139.453 894.833
v 91.038 -134.951 909.715
v 94.9525 -138.681 910.604
v 92.1892 -134.937 897.799
v 91.8909 -133.718 904.19
v 98.1728 -152.956 903.113
v 98.4604 -152.048 906.025
v 97.9328 -149.016 896.949
v 96.9883 -152.954 900.151
v 97.9239 -151.029 898.287
v 99.6938 -151.49 903.495
v 99.2349 -151.313 900.54
v 99.433 -149.251 898.662
v 101.303 -147.977 902.676
v 98.7493 -149.258 908.512
v 100.018 -150.442 905.568
v 100.32 -147.695 907.26
v 98.1887 -145.961 910.199
v 98.3679 -146.392 896.69
v 101.05 -145.045 900.568
v 100.991 -144.273 905.039
v 98.6685 -143.61 909.415
v 96.4174 -136.356 899.948
v 97.07 -139.142 897.238
v 97.0714 -137.729 906.506
v 99.9211 -140.387 902.134
v 70.4945 -157.925 892.961
v 75.2946 -155.443 902.524
v 77.8858 -155.271 899.276
v 81.7219 -155.102 902.874
v 82.8036 -146.557 893.842
v 85.8953 -147.598 895.681
v 84.6831 -139.343 895.407
v 84.6831 -139.343 895.407
v 88.5612 -139.687 894.489
vn -0.839515 -0.467235 0.277319
vn -0.762722 -0.634282 0.126259
vn -0.703285 -0.571018 0.423472
vn -0.758793 -0.591307 -0.273109
vn -0.984348 -0.134283 -0.114138
vn -0.932776 0.219266 -0.286095
vn -0.97486 0.196518 0.105012
vn -0.905522 -0.424053 0.0144842
vn -0.874157 -0.364879 -0.320489
vn -0.822627 -0.0549724 -0.565918
vn -0.705474 -0.340158 -0.621771
vn -0.925874 -0.244463 0.288089
vn -0.741336 -0.440091 0.506697
vn -0.737398 -0.307612 0.601347
vn -0.909192 0.0547274 0.412764
vn -0.831154 0.502979 0.237054
vn -0.793658 0.126557 0.595054
vn -0.553246 -0.35956 0.751422
vn -0.82318 0.555999 -0.115063
vn -0.722189 0.36274 -0.58895
vn -0.729523 0.560111 0.39252
vn -0.316779 -0.679525 -0.661738
vn -0.652154 -0.747807 -0.124417
vn -0.592508 -0.580194 -0.558847
vn -0.595726 -0.791277 0.137811
vn -0.588667 -0.693927 0.414652
vn -0.505968 -0.764249 -0.3999
vn -0.447673 -0.888748 -0.098566
vn -0.449453 -0.839795 0.304528
vn -0.255592 -0.958543 0.12597
vn -0.22959 -0.86558 0.445038
vn -0.195396 -0.960461 -0.19833
vn -0.242568 -0.864418 -0.440388
vn -0.00338764 -0.753283 -0.657688
vn 0.0288777 -0.998288 -0.0508605
vn 0.0966492 -0.91841 0.383643
vn 0.0592604 -0.918756 -0.390352
vn -0.542203 -0.537466 0.645869
vn -0.369814 -0.694812 0.616825
vn -0.219551 -0.557972 0.80029
vn -0.0777665 -0.729645 0.67939
vn -0.451076 -0.405952 -0.794816
vn -0.492133 -0.0403938 -0.869582
vn -0.163383 -0.471584 -0.866553
vn -0.598164 -0.0785704 0.797513
vn -0.692528 0.325162 0.643953
vn -0.313233 -0.346525 0.884198
vn -0.488045 0.0701387 0.869996
vn -0.115624 -0.26109 0.958365
vn -0.665992 0.612975 -0.425108
vn -0.624707 0.547029 0.557225
vn -0.458065 0.406876 0.790334
vn -0.193564 0.0638722 0.979006
vn -0.473179 0.670505 0.571424
vn 0.240853 -0.788137 -0.566419
vn 0.3105 -0.942953 -0.120124
vn 0.189477 -0.662159 0.725013
vn 0.409141 -0.835442 0.366934
vn -0.121311 -0.172573 -0.977498
vn 0.125012 -0.537662 -0.833841
vn 0.0843747 -0.12936 -0.988001
vn 0.0740001 -0.454884 0.887471
vn -0.319165 0.316562 -0.893265
vn -0.176543 0.425973 0.887344
vn 0.132679 -0.118418 0.98406
vn -0.511646 0.669317 -0.538734
vn -0.639566 0.747593 0.179053
vn -0.374694 0.59782 0.708672
vn -0.000829546 0.11143 0.993772
vn -0.30577 0.280341 0.909898
vn -0.506131 0.561718 0.654449
vn 0.436762 -0.8524 -0.287496
vn 0.298788 -0.534264 -0.790751
vn 0.376376 -0.858016 0.3495
vn 0.149313 -0.524428 0.838261
vn -0.118194 -0.229482 0.96611
vn -0.273297 -0.514161 0.812987
vn -0.0744647 -0.00120377 0.997223
vn -0.47676 0.0640053 0.8767
vn -0.251648 -0.0841054 0.964157
vn -0.393 -0.267021 0.879915
vn -0.241339 0.535968 -0.809008
vn -0.561325 0.585262 0.585135
vn -0.510164 0.850399 0.128665
vn 0.324796 -0.926545 0.189796
vn -0.0686209 -0.687654 0.722789
vn 0.127689 -0.892206 0.433202
vn 0.00753791 0.226555 -0.973969
vn -0.559207 0.311126 0.768432
vn -0.373314 0.83626 -0.401629
vn -0.247518 -0.745145 0.619269
vn 0.110404 -0.993867 0.00626987
vn -0.414456 -0.336038 0.845757
vn -0.295062 -0.0324048 0.954929
vn 0.0462697 0.551445 -0.832927
vn -0.322255 0.553935 0.767664
vn -0.263454 0.958525 -0.108731
vn 0.0785056 0.849445 -0.521804
vn -0.417247 0.849523 0.322824
vn 0.160844 -0.982713 0.0916766
vn 0.376379 -0.772287 -0.511772
vn -0.169336 -0.62059 0.765633
vn 0.00515302 -0.962111 0.272611
vn 0.549807 -0.621898 -0.557634
vn 0.545322 -0.727685 -0.416051
vn 0.328945 -0.0240111 -0.944044
vn 0.688465 -0.0428334 -0.724003
vn 0.731656 -0.00999742 -0.6816
vn 0.416913 0.480572 -0.771514
vn 0.547101 0.30156 -0.78086
vn 0.309181 0.697089 -0.646896
vn 0.00318764 0.98106 -0.193678
vn -0.153869 0.919632 0.361387
vn 0.0328322 -0.88186 -0.470367
vn 0.0318435 -0.985589 -0.166131
vn 0.271539 -0.770103 -0.577242
vn 0.476752 -0.618115 -0.625013
vn -0.146243 -0.777884 -0.611154
vn 0.0598908 -0.784692 -0.616986
vn -0.191676 -0.717772 -0.669375
vn -0.0231576 -0.647622 -0.76161
vn -0.134698 -0.846479 -0.515102
vn -0.0886771 -0.377728 0.92166
vn -0.0690522 -0.376207 -0.923959
vn -0.00844479 -0.0871847 0.996156
vn 0.162595 0.575192 -0.801697
vn -0.120584 -0.0357827 -0.992058
vn -0.0593941 0.2769 0.959062
vn 0.0481132 0.729243 0.682562
vn 0.263769 0.304302 0.915329
vn 0.0677754 0.785083 -0.615671
vn 0.0890398 0.994894 0.0475077
vn 0.211586 -0.96573 -0.150323
vn 0.207395 -0.610395 0.764464
vn 0.282109 -0.913221 0.29401
vn -0.102021 -0.831177 -0.546569
vn 0.199397 -0.621955 -0.75724
vn 0.413028 -0.27632 0.867787
vn -0.148689 -0.450116 -0.880504
vn 0.206749 -0.164193 -0.964518
vn 0.181508 -0.184291 0.965967
vn 0.486651 0.0999707 0.867857
vn 0.300443 0.292212 -0.907935
vn 0.353099 0.790551 0.50035
vn 0.571558 0.472873 0.670606
vn 0.213149 0.807294 -0.550313
vn 0.379048 0.923521 0.0585789
vn 0.553906 -0.832401 -0.0172342
vn 0.581391 -0.706016 0.404383
vn 0.519776 -0.340602 -0.783468
vn 0.380419 -0.828756 -0.410421
vn 0.55116 -0.587791 -0.59222
vn 0.800077 -0.599369 0.0251673
vn 0.747782 -0.591676 -0.301232
vn 0.807527 -0.295045 -0.510733
vn 0.970059 -0.237579 -0.0504241
vn 0.619617 -0.436339 0.652444
vn 0.836428 -0.453796 0.30734
vn 0.884473 -0.128371 0.448585
vn 0.667988 -0.0871405 0.739053
vn 0.636273 -0.00287563 -0.771458
vn 0.933645 0.105244 -0.342391
vn 0.950428 0.216351 0.223336
vn 0.777795 0.243047 0.579623
vn 0.632342 0.752821 -0.182772
vn 0.672547 0.423284 -0.60705
vn 0.71099 0.635077 0.301944
vn 0.88068 0.465528 -0.0876701
vn 0.509782 -0.77294 -0.377737
vn -0.145442 -0.869188 0.472609
vn 0.502177 -0.78977 -0.352252
vn 0.0711572 -0.994689 -0.0743629
vn 0.240181 -0.61439 -0.751557
vn 0.465704 0.0767217 -0.881608
vn 0.388563 0.0265106 -0.921041
vn -0.235517 -0.0667447 -0.969576
vn -0.0599314 0.571936 -0.818106
g grp1
usemtl mtl1
f 8//8 2//2 1//1 
f 1//1 2//2 3//3 
f 3//3 13//13 1//1 
f 8//8 4//4 2//2 
f 2//2 26//26 3//3 
f 3//3 38//38 13//13 
f 43//43 11//11 10//10 
f 8//8 1//1 12//12 
f 1//1 13//13 12//12 
f 10//10 9//9 5//5 
f 8//8 12//12 5//5 
f 5//5 7//7 6//6 
f 6//6 7//7 19//19 
f 11//11 24//24 4//4 
f 9//9 11//11 4//4 
f 4//4 8//8 9//9 
f 9//9 8//8 5//5 
f 11//11 9//9 10//10 
f 5//5 6//6 10//10 
f 6//6 20//20 10//10 
f 6//6 19//19 20//20 
f 43//43 10//10 20//20 
f 12//12 7//7 5//5 
f 12//12 15//15 7//7 
f 15//15 16//16 7//7 
f 38//38 14//14 13//13 
f 13//13 14//14 12//12 
f 12//12 14//14 15//15 
f 14//14 17//17 15//15 
f 15//15 17//17 16//16 
f 19//19 7//7 16//16 
f 38//38 18//18 14//14 
f 14//14 18//18 17//17 
f 17//17 21//21 16//16 
f 18//18 45//45 17//17 
f 17//17 46//46 21//21 
f 46//46 51//51 21//21 
f 17//17 45//45 46//46 
f 19//19 16//16 67//67 
f 50//50 19//19 67//67 
f 42//42 44//44 22//22 
f 33//33 22//22 34//34 
f 34//34 22//22 44//44 
f 28//28 25//25 23//23 
f 25//25 26//26 2//2 
f 23//23 25//25 2//2 
f 27//27 28//28 23//23 
f 4//4 27//27 23//23 
f 26//26 38//38 3//3 
f 2//2 4//4 23//23 
f 4//4 24//24 27//27 
f 42//42 24//24 11//11 
f 39//39 26//26 29//29 
f 28//28 27//27 33//33 
f 39//39 38//38 26//26 
f 27//27 22//22 33//33 
f 22//22 27//27 24//24 
f 22//22 24//24 42//42 
f 28//28 29//29 25//25 
f 25//25 29//29 26//26 
f 28//28 30//30 29//29 
f 29//29 30//30 31//31 
f 28//28 32//32 30//30 
f 31//31 39//39 29//29 
f 32//32 28//28 33//33 
f 33//33 37//37 32//32 
f 37//37 33//33 34//34 
f 37//37 35//35 32//32 
f 32//32 35//35 30//30 
f 35//35 36//36 30//30 
f 30//30 36//36 31//31 
f 36//36 41//41 31//31 
f 37//37 56//56 35//35 
f 35//35 56//56 36//36 
f 55//55 37//37 34//34 
f 40//40 38//38 39//39 
f 41//41 40//40 39//39 
f 41//41 39//39 31//31 
f 40//40 41//41 57//57 
f 57//57 62//62 40//40 
f 57//57 41//41 36//36 
f 43//43 20//20 63//63 
f 43//43 42//42 11//11 
f 44//44 42//42 43//43 
f 43//43 59//59 44//44 
f 63//63 59//59 43//43 
f 60//60 44//44 59//59 
f 40//40 18//18 38//38 
f 40//40 47//47 18//18 
f 46//46 45//45 48//48 
f 46//46 48//48 51//51 
f 18//18 47//47 45//45 
f 45//45 47//47 48//48 
f 47//47 40//40 62//62 
f 48//48 53//53 52//52 
f 48//48 47//47 49//49 
f 48//48 49//49 53//53 
f 62//62 49//49 47//47 
f 50//50 66//66 63//63 
f 50//50 63//63 20//20 
f 19//19 50//50 20//20 
f 66//66 50//50 67//67 
f 21//21 51//51 67//67 
f 67//67 16//16 21//21 
f 51//51 48//48 52//52 
f 52//52 54//54 51//51 
f 67//67 51//51 54//54 
f 52//52 64//64 54//54 
f 64//64 52//52 53//53 
f 34//34 60//60 55//55 
f 60//60 34//34 44//44 
f 55//55 56//56 37//37 
f 73//73 55//55 60//60 
f 56//56 55//55 72//72 
f 73//73 72//72 55//55 
f 58//58 56//56 72//72 
f 58//58 57//57 36//36 
f 56//56 58//58 36//36 
f 57//57 75//75 62//62 
f 60//60 59//59 61//61 
f 61//61 59//59 63//63 
f 61//61 73//73 60//60 
f 49//49 62//62 65//65 
f 65//65 53//53 49//49 
f 62//62 75//75 65//65 
f 63//63 88//88 61//61 
f 66//66 82//82 63//63 
f 82//82 88//88 63//63 
f 64//64 53//53 65//65 
f 68//68 54//54 64//64 
f 64//64 65//65 69//69 
f 64//64 69//69 68//68 
f 69//69 65//65 75//75 
f 54//54 68//68 67//67 
f 58//58 75//75 57//57 
f 58//58 72//72 74//74 
f 74//74 75//75 58//58 
f 68//68 69//69 70//70 
f 78//78 70//70 69//69 
f 76//76 69//69 75//75 
f 90//90 66//66 67//67 
f 82//82 66//66 90//90 
f 67//67 68//68 71//71 
f 71//71 68//68 70//70 
f 78//78 80//80 70//70 
f 70//70 79//79 83//83 
f 83//83 71//71 70//70 
f 80//80 79//79 70//70 
f 71//71 83//83 67//67 
f 67//67 83//83 84//84 
f 104//104 72//72 73//73 
f 106//106 104//104 73//73 
f 61//61 106//106 73//73 
f 74//74 87//87 75//75 
f 86//86 75//75 87//87 
f 78//78 69//69 76//76 
f 75//75 81//81 76//76 
f 81//81 75//75 77//77 
f 81//81 80//80 76//76 
f 80//80 78//78 76//76 
f 80//80 81//81 79//79 
f 79//79 81//81 93//93 
f 90//90 95//95 82//82 
f 88//88 82//82 95//95 
f 90//90 67//67 84//84 
f 83//83 99//99 84//84 
f 83//83 89//89 99//99 
f 72//72 85//85 74//74 
f 85//85 87//87 74//74 
f 72//72 104//104 169//169 
f 85//85 100//100 87//87 
f 106//106 61//61 88//88 
f 86//86 77//77 75//75 
f 91//91 77//77 86//86 
f 87//87 91//91 86//86 
f 79//79 93//93 89//89 
f 106//106 88//88 95//95 
f 79//79 89//89 83//83 
f 95//95 90//90 98//98 
f 84//84 99//99 97//97 
f 90//90 84//84 97//97 
f 169//169 104//104 171//171 
f 92//92 87//87 100//100 
f 104//104 105//105 171//171 
f 170//170 91//91 87//87 
f 91//91 93//93 77//77 
f 93//93 81//81 77//77 
f 93//93 123//123 94//94 
f 93//93 91//91 102//102 
f 93//93 102//102 123//123 
f 93//93 94//94 89//89 
f 123//123 125//125 94//94 
f 106//106 95//95 109//109 
f 96//96 89//89 94//94 
f 89//89 96//96 99//99 
f 96//96 113//113 99//99 
f 96//96 94//94 128//128 
f 98//98 109//109 95//95 
f 111//111 109//109 98//98 
f 98//98 90//90 97//97 
f 98//98 97//97 112//112 
f 112//112 111//111 98//98 
f 97//97 99//99 112//112 
f 112//112 99//99 113//113 
f 171//171 105//105 101//101 
f 100//100 172//172 92//92 
f 170//170 103//103 91//91 
f 103//103 102//102 91//91 
f 172//172 103//103 92//92 
f 103//103 172//172 114//114 
f 114//114 115//115 103//103 
f 106//106 107//107 104//104 
f 104//104 107//107 117//117 
f 105//105 104//104 117//117 
f 101//101 105//105 116//116 
f 105//105 117//117 116//116 
f 116//116 114//114 101//101 
f 109//109 107//107 106//106 
f 109//109 110//110 107//107 
f 107//107 108//108 117//117 
f 117//117 173//173 124//124 
f 108//108 107//107 110//110 
f 94//94 125//125 128//128 
f 109//109 111//111 110//110 
f 110//110 111//111 126//126 
f 174//174 110//110 175//175 
f 129//129 96//96 128//128 
f 96//96 129//129 113//113 
f 131//131 111//111 112//112 
f 131//131 126//126 111//111 
f 131//131 112//112 132//132 
f 132//132 112//112 113//113 
f 129//129 132//132 113//113 
f 115//115 135//135 103//103 
f 115//115 114//114 122//122 
f 102//102 103//103 134//134 
f 102//102 134//134 123//123 
f 123//123 134//134 141//141 
f 135//135 134//134 103//103 
f 119//119 116//116 117//117 
f 118//118 116//116 119//119 
f 119//119 117//117 121//121 
f 119//119 120//120 118//118 
f 120//120 119//119 121//121 
f 122//122 118//118 136//136 
f 136//136 118//118 120//120 
f 139//139 120//120 121//121 
f 136//136 120//120 139//139 
f 139//139 121//121 124//124 
f 118//118 114//114 116//116 
f 122//122 114//114 118//118 
f 123//123 141//141 125//125 
f 125//125 141//141 130//130 
f 117//117 124//124 121//121 
f 174//174 108//108 110//110 
f 127//127 139//139 124//124 
f 125//125 130//130 128//128 
f 127//127 124//124 176//176 
f 131//131 177//177 126//126 
f 144//144 132//132 129//129 
f 128//128 130//130 129//129 
f 144//144 129//129 130//130 
f 135//135 115//115 133//133 
f 122//122 136//136 115//115 
f 115//115 136//136 133//133 
f 136//136 151//151 133//133 
f 151//151 148//148 133//133 
f 138//138 134//134 157//157 
f 135//135 133//133 148//148 
f 148//148 149//149 135//135 
f 135//135 149//149 134//134 
f 137//137 136//136 139//139 
f 139//139 140//140 137//137 
f 136//136 137//137 151//151 
f 149//149 157//157 134//134 
f 138//138 141//141 134//134 
f 142//142 138//138 160//160 
f 140//140 139//139 127//127 
f 140//140 127//127 143//143 
f 142//142 130//130 141//141 
f 142//142 145//145 130//130 
f 142//142 141//141 138//138 
f 142//142 164//164 145//145 
f 146//146 143//143 177//177 
f 146//146 166//166 143//143 
f 144//144 147//147 132//132 
f 167//167 147//147 144//144 
f 144//144 130//130 145//145 
f 145//145 167//167 144//144 
f 146//146 177//177 131//131 
f 146//146 131//131 132//132 
f 147//147 146//146 132//132 
f 146//146 147//147 165//165 
f 137//137 152//152 151//151 
f 140//140 150//150 137//137 
f 161//161 150//150 140//140 
f 150//150 155//155 152//152 
f 137//137 150//150 152//152 
f 151//151 154//154 148//148 
f 153//153 148//148 154//154 
f 151//151 152//152 154//154 
f 154//154 152//152 155//155 
f 150//150 161//161 155//155 
f 156//156 153//153 154//154 
f 154//154 155//155 156//156 
f 155//155 161//161 162//162 
f 156//156 155//155 162//162 
f 158//158 157//157 149//149 
f 149//149 148//148 153//153 
f 153//153 158//158 149//149 
f 156//156 158//158 153//153 
f 157//157 158//158 159//159 
f 159//159 158//158 156//156 
f 160//160 138//138 157//157 
f 157//157 159//159 160//160 
f 143//143 161//161 140//140 
f 143//143 166//166 161//161 
f 161//161 166//166 162//162 
f 168//168 162//162 166//166 
f 162//162 163//163 156//156 
f 163//163 162//162 168//168 
f 159//159 163//163 164//164 
f 160//160 159//159 164//164 
f 163//163 168//168 167//167 
f 159//159 156//156 163//163 
f 145//145 164//164 167//167 
f 164//164 142//142 160//160 
f 164//164 163//163 167//167 
f 165//165 166//166 146//146 
f 166//166 165//165 168//168 
f 168//168 165//165 167//167 
f 167//167 165//165 147//147 
