#
# The license for this database is specified in the Creative Commons Attribution-Share Alike 2.1 Japan. If you use data from this database, please be sure attribute this database as follows: "BodyParts3D, (c)  The Database Center for Life Science licensed under CC Attribution-Share Alike 2.1 Japan".
# http://dbarchive.biosciencedbc.jp/en/bodyparts3d/lic.html
#
#
# Compatibility version : 4.0
# File ID : FJ2596
# Representation ID : BP9639
# Build-up logic : FMA 3.0 part_of
# Concept ID : FMA14964
# English name : Proximal part of ileum
# Bounds(mm): (-57.085300,-168.072000,895.959000)-(-29.371500,-138.307000,930.954000)
# Volume(cm3): 9.279000
#
v -57.0613 -149.67 907.42
v -57.0853 -148.41 914.595
v -57.02 -144.874 910.994
v -54.7366 -141.972 908.184
v -53.4911 -139.324 913.9
v -53.6838 -141.484 917.322
v -53.9662 -156.296 902.333
v -52.4782 -159.189 906.01
v -54.2559 -157.487 914.011
v -53.654 -155.952 918.227
v -50.7208 -155.73 922.875
v -51.883 -153.81 897.793
v -51.3892 -149.588 923.738
v -48.258 -151.419 928.671
v -50.414 -147.341 898.732
v -49.0905 -143.056 923.188
v -47.9333 -144.289 926.841
v -47.007 -143.599 927.7
v -46.2396 -144.573 928.764
v -51.5127 -138.307 911.656
v -51.23 -138.624 915.566
v -47.9648 -138.452 911.122
v -47.6607 -138.656 914.486
v -46.9782 -142.601 926.701
v -46.0679 -142.412 927.477
v -46.6894 -141.291 922.828
v -47.4889 -163.466 903.346
v -49.4625 -161.066 910.114
v -43.7749 -161.413 926.029
v -48.9037 -157.402 896.586
v -50.999 -158.523 899.163
v -47.1328 -160.747 898.067
v -46.2419 -160.675 920.926
v -45.5991 -159.38 928.322
v -44.3704 -157.925 930.492
v -43.8011 -159.581 929.904
v -43.1993 -160.783 928.328
v -42.7356 -158.404 930.755
v -48.3459 -154.349 895.959
v -46.0462 -151.079 896.736
v -43.5335 -151.089 930.954
v -47.7021 -140.602 904.882
v -42.724 -143.305 907.324
v -44.5746 -140.385 911.101
v -43.9295 -141.3 920.502
v -44.5454 -141.731 926.434
v -42.3498 -142.958 926.473
v -44.378 -143.513 928.679
v -42.8637 -163.14 899.797
v -44.5894 -162.208 913.584
v -43.5483 -163.063 913.193
v -40.7997 -162.946 914.949
v -42.7937 -162.095 918.149
v -42.2441 -162.36 915.445
v -40.9074 -162.14 918.874
v -40.7581 -162.34 916.122
v -40.7784 -162.43 922.556
v -45.9212 -158.646 896.644
v -42.2742 -160.835 898.475
v -39.6769 -162.036 916.586
v -38.3918 -161.108 917.469
v -40.8708 -161.485 926.644
v -38.9806 -161.706 923.516
v -38.7035 -161.624 921.581
v -37.511 -160.451 922.443
v -42.3616 -159.97 929.692
v -40.863 -156.508 930.936
v -40.5417 -158.49 930.21
v -39.4252 -156.876 930.116
v -38.8149 -158.749 928.345
v -45.165 -154.401 896.26
v -41.9623 -153.286 897.571
v -41.7189 -156.02 897.418
v -39.4773 -152.431 899.646
v -39.8371 -155.406 898.322
v -39.0254 -152.227 929.665
v -37.8407 -155.123 928.412
v -42.9203 -145.645 901.437
v -37.8771 -149.514 911.406
v -38.1477 -148.499 923.387
v -39.5857 -167.175 906.016
v -37.3113 -163.864 902.753
v -39.6235 -165.653 913.333
v -39.5863 -167.028 910.827
v -36.8213 -168.072 910.802
v -36.6843 -167.313 913.002
v -35.7355 -165.83 914.333
v -34.3366 -167.184 912.771
v -38.5597 -163.251 915.295
v -39.582 -158.531 899.058
v -35.9073 -159.904 903.003
v -33.9666 -159.344 905.003
v -37.3644 -159.715 917.158
v -37.3847 -161.417 916.036
v -37.0046 -159.906 916.616
v -36.3392 -160.926 915.861
v -36.1631 -159.187 916.013
v -36.8231 -156.832 901.335
v -36.5672 -151.492 904.309
v -35.2965 -153.879 905.826
v -35.2371 -156.891 904.252
v -34.3153 -154.19 907.855
v -34.0492 -156.573 906.322
v -34.8812 -152.063 909.526
v -32.4583 -152.84 910.715
v -36.7897 -150.292 908.756
v -33.6982 -166.327 907.58
v -34.1815 -167.618 909.793
v -31.3046 -165.435 911.668
v -32.9048 -164.137 914.409
v -30.2823 -162.47 913.039
v -30.0318 -161.354 909.135
v -29.3715 -158.898 910.987
v -31.1942 -157.946 913.836
v -31.0595 -156.571 908.825
v -53.654 -155.952 918.227
v -50.7208 -155.73 922.875
v -50.414 -147.341 898.732
v -47.7021 -140.602 904.882
v -42.8637 -163.14 899.797
v -38.3918 -161.108 917.469
v -38.3918 -161.108 917.469
v -37.8771 -149.514 911.406
v -37.8771 -149.514 911.406
v -37.3644 -159.715 917.158
v -37.3644 -159.715 917.158
v -37.3644 -159.715 917.158
v -32.4583 -152.84 910.715
v -32.4583 -152.84 910.715
v -30.2823 -162.47 913.039
v -30.2823 -162.47 913.039
v -30.2823 -162.47 913.039
v -29.3715 -158.898 910.987
v -29.3715 -158.898 910.987
v -31.1942 -157.946 913.836
vn -0.954936 0.0171626 -0.296314
vn -0.9571 -0.0379243 0.287267
vn -0.938622 0.344827 0.00914053
vn -0.6896 0.601 -0.404044
vn -0.683774 0.723126 0.0976817
vn -0.710821 0.512171 0.482094
vn -0.871007 -0.404754 -0.278427
vn -0.704905 -0.705305 -0.0751889
vn -0.799397 -0.590678 0.109833
vn -0.869908 -0.20469 0.448734
vn -0.801182 -0.264207 0.536938
vn -0.713291 -0.0542045 -0.698769
vn -0.834693 0.127621 0.535725
vn -0.73229 -0.0278719 0.680423
vn -0.352346 0.436743 -0.827712
vn -0.698806 0.548666 0.45895
vn -0.799402 0.336736 0.497559
vn -0.664179 0.395565 0.634346
vn -0.402618 0.32907 0.854173
vn -0.230829 0.962934 -0.139559
vn -0.258589 0.916505 0.305205
vn 0.264117 0.95445 -0.138807
vn 0.245361 0.960913 0.128233
vn -0.640171 0.659669 0.393723
vn -0.33106 0.741402 0.583714
vn -0.224989 0.917644 0.327581
vn -0.502479 -0.844561 -0.185017
vn -0.485626 -0.842656 0.23259
vn -0.321798 -0.921726 0.216489
vn -0.395332 -0.345048 -0.851267
vn -0.679909 -0.5628 -0.470085
vn -0.315595 -0.668128 -0.673799
vn -0.501127 -0.843351 0.193985
vn -0.659209 -0.609522 0.440372
vn -0.470136 -0.247299 0.84724
vn -0.317576 -0.634249 0.704892
vn -0.221684 -0.874783 0.430826
vn -0.0207223 -0.325001 0.945487
vn -0.159355 0.0566894 -0.985592
vn 0.167605 0.363312 -0.916467
vn -0.0876513 0.114225 0.989581
vn 0.150711 0.891757 -0.426679
vn 0.725029 0.672945 -0.146554
vn 0.636788 0.766679 -0.0818821
vn 0.410419 0.905225 0.11011
vn 0.16762 0.922994 0.346388
vn 0.671166 0.676483 0.303161
vn 0.1877 0.55077 0.813278
vn -0.276341 -0.855111 -0.438657
vn -0.322309 -0.89292 0.314342
vn -0.440495 -0.706597 0.553792
vn -0.235479 -0.760161 0.605562
vn -0.164685 -0.983638 0.0730458
vn -0.159072 -0.960587 0.227966
vn 0.205698 -0.977727 0.0416888
vn 0.00320938 -0.971169 0.238369
vn 0.0766425 -0.996335 0.0379926
vn 0.0823418 -0.328708 -0.940835
vn 0.335916 -0.382602 -0.860684
vn 0.217261 -0.866851 0.448739
vn 0.374178 -0.920191 0.115064
vn 0.251295 -0.878296 0.406751
vn 0.547879 -0.808069 0.216455
vn 0.597226 -0.801786 -0.0214459
vn 0.94084 -0.32277 0.103148
vn 0.107908 -0.726577 0.678558
vn 0.289687 -0.0824656 0.953562
vn 0.412845 -0.501358 0.760394
vn 0.646622 -0.173769 0.742755
vn 0.727564 -0.496552 0.473377
vn 0.224478 0.0456536 -0.973409
vn 0.425571 0.264804 -0.865314
vn 0.372109 -0.102283 -0.922536
vn 0.663908 0.342297 -0.664875
vn 0.585524 0.0582384 -0.80856
vn 0.648131 0.248675 0.719782
vn 0.926679 -0.0361441 0.374113
vn 0.474006 0.606919 -0.637941
vn 0.685904 0.724887 -0.0638353
vn 0.919272 0.383861 0.0871216
vn -0.0360837 -0.937061 -0.347295
vn 0.530451 -0.430878 -0.730045
vn -0.387056 -0.686924 0.61508
vn -0.43013 -0.871906 0.234027
vn -0.0626531 -0.990012 0.126295
vn -0.163557 -0.822745 0.544371
vn 0.0212196 -0.496045 0.868037
vn 0.323399 -0.815889 0.47931
vn -0.0214907 -0.578815 0.815175
vn 0.549319 -0.215903 -0.807239
vn 0.739664 -0.0534257 -0.670852
vn 0.724954 0.176032 -0.665924
vn 0.76649 -0.640711 -0.044532
vn 0.347042 -0.497792 0.794837
vn 0.636752 -0.341182 0.691478
vn 0.347034 -0.24335 0.905731
vn 0.508958 0.050101 0.859332
vn 0.77783 0.0275279 -0.627872
vn 0.830103 0.428221 -0.357149
vn 0.882244 0.367704 -0.294004
vn 0.838975 0.214776 -0.499992
vn 0.696343 0.494416 -0.520249
vn 0.69425 0.386662 -0.60705
vn 0.602707 0.708773 -0.366587
vn 0.4271 0.54613 0.720644
vn 0.779971 0.611145 -0.134707
vn 0.570486 -0.656478 -0.49354
vn 0.375427 -0.917223 -0.133253
vn 0.768347 -0.626627 0.130313
vn 0.424633 -0.316755 0.848147
vn 0.62815 -0.494391 0.600837
vn 0.857493 -0.172245 -0.484806
vn 0.881259 0.29934 -0.365757
vn 0.414393 0.239604 0.877991
vn 0.7271 0.360748 -0.584111
vn -0.591428 -0.712224 0.378087
vn -0.64665 -0.702683 0.296785
vn -0.410857 0.699211 -0.585064
vn 0.128671 0.6397 -0.757779
vn 0.178226 -0.603339 -0.777315
vn 0.803241 -0.595492 -0.0138827
vn 0.70392 -0.39253 0.591959
vn 0.997716 0.0615279 0.0278759
vn 0.40242 0.484118 0.776973
vn 0.712264 -0.362665 0.60096
vn 0.509496 0.441923 0.738321
vn 0.996748 0.071285 0.0375768
vn 0.622223 0.621126 -0.476488
vn 0.817811 0.433654 0.378323
vn 0.958817 -0.283361 -0.0194242
vn 0.851597 0.0804614 0.517985
vn 0.489434 -0.0545873 0.87033
vn 0.967534 -0.252541 -0.0100592
vn 0.850301 0.261861 0.456528
vn 0.850301 0.261861 0.456528
g grp1
usemtl mtl1
f 2//2 3//3 1//1 
f 1//1 7//7 9//9 
f 2//2 1//1 9//9 
f 2//2 6//6 3//3 
f 9//9 10//10 2//2 
f 10//10 13//13 2//2 
f 2//2 13//13 6//6 
f 13//13 10//10 14//14 
f 1//1 3//3 4//4 
f 3//3 6//6 5//5 
f 3//3 5//5 4//4 
f 20//20 4//4 5//5 
f 8//8 9//9 7//7 
f 8//8 28//28 9//9 
f 33//33 9//9 28//28 
f 33//33 116//116 9//9 
f 10//10 11//11 14//14 
f 116//116 33//33 117//117 
f 11//11 34//34 14//14 
f 12//12 1//1 15//15 
f 15//15 39//39 12//12 
f 1//1 12//12 7//7 
f 15//15 1//1 4//4 
f 6//6 13//13 16//16 
f 17//17 16//16 13//13 
f 13//13 14//14 17//17 
f 17//17 24//24 16//16 
f 14//14 18//18 17//17 
f 17//17 18//18 24//24 
f 18//18 25//25 24//24 
f 19//19 25//25 18//18 
f 14//14 19//19 18//18 
f 118//118 4//4 42//42 
f 4//4 20//20 42//42 
f 44//44 42//42 22//22 
f 5//5 6//6 21//21 
f 20//20 5//5 21//21 
f 6//6 26//26 21//21 
f 21//21 23//23 20//20 
f 23//23 21//21 26//26 
f 22//22 42//42 20//20 
f 20//20 23//23 22//22 
f 44//44 22//22 23//23 
f 26//26 6//6 16//16 
f 26//26 45//45 23//23 
f 24//24 26//26 16//16 
f 25//25 26//26 24//24 
f 26//26 25//25 46//46 
f 31//31 27//27 8//8 
f 31//31 32//32 27//27 
f 28//28 8//8 27//27 
f 28//28 53//53 33//33 
f 28//28 50//50 53//53 
f 32//32 31//31 30//30 
f 31//31 12//12 30//30 
f 30//30 12//12 39//39 
f 58//58 32//32 30//30 
f 30//30 39//39 58//58 
f 39//39 71//71 58//58 
f 7//7 31//31 8//8 
f 31//31 7//7 12//12 
f 34//34 117//117 33//33 
f 29//29 34//34 33//33 
f 34//34 35//35 14//14 
f 36//36 35//35 34//34 
f 41//41 14//14 35//35 
f 37//37 34//34 29//29 
f 37//37 36//36 34//34 
f 38//38 35//35 36//36 
f 38//38 41//41 35//35 
f 36//36 37//37 66//66 
f 36//36 66//66 38//38 
f 37//37 29//29 62//62 
f 40//40 39//39 15//15 
f 71//71 39//39 40//40 
f 72//72 71//71 40//40 
f 78//78 72//72 40//40 
f 78//78 40//40 15//15 
f 15//15 119//119 78//78 
f 78//78 42//42 43//43 
f 47//47 76//76 80//80 
f 19//19 14//14 41//41 
f 48//48 19//19 41//41 
f 48//48 25//25 19//19 
f 44//44 43//43 42//42 
f 44//44 23//23 45//45 
f 43//43 44//44 80//80 
f 26//26 46//46 45//45 
f 44//44 45//45 47//47 
f 45//45 46//46 47//47 
f 47//47 46//46 48//48 
f 48//48 76//76 47//47 
f 47//47 80//80 44//44 
f 48//48 46//46 25//25 
f 41//41 76//76 48//48 
f 32//32 49//49 27//27 
f 58//58 120//120 32//32 
f 59//59 120//120 58//58 
f 49//49 81//81 27//27 
f 84//84 27//27 81//81 
f 51//51 50//50 28//28 
f 51//51 52//52 50//50 
f 52//52 54//54 50//50 
f 27//27 84//84 28//28 
f 51//51 28//28 83//83 
f 83//83 52//52 51//51 
f 56//56 54//54 52//52 
f 54//54 53//53 50//50 
f 54//54 56//56 53//53 
f 56//56 55//55 53//53 
f 55//55 56//56 60//60 
f 89//89 60//60 52//52 
f 52//52 60//60 56//56 
f 53//53 57//57 33//33 
f 33//33 57//57 29//29 
f 29//29 57//57 62//62 
f 73//73 58//58 71//71 
f 73//73 59//59 58//58 
f 73//73 90//90 59//59 
f 55//55 57//57 53//53 
f 60//60 61//61 55//55 
f 55//55 61//61 57//57 
f 61//61 64//64 57//57 
f 93//93 64//64 121//121 
f 93//93 65//65 64//64 
f 57//57 63//63 62//62 
f 63//63 57//57 64//64 
f 64//64 65//65 63//63 
f 77//77 65//65 80//80 
f 62//62 66//66 37//37 
f 38//38 66//66 68//68 
f 68//68 67//67 38//38 
f 67//67 41//41 38//38 
f 62//62 68//68 66//66 
f 68//68 69//69 67//67 
f 63//63 70//70 62//62 
f 62//62 70//70 68//68 
f 69//69 68//68 70//70 
f 63//63 65//65 70//70 
f 65//65 77//77 70//70 
f 71//71 72//72 73//73 
f 90//90 73//73 75//75 
f 75//75 73//73 72//72 
f 72//72 78//78 74//74 
f 72//72 74//74 75//75 
f 80//80 79//79 43//43 
f 123//123 80//80 65//65 
f 67//67 76//76 41//41 
f 67//67 69//69 76//76 
f 69//69 77//77 76//76 
f 80//80 76//76 77//77 
f 77//77 69//69 70//70 
f 78//78 43//43 99//99 
f 99//99 43//43 106//106 
f 106//106 43//43 79//79 
f 59//59 82//82 120//120 
f 81//81 120//120 82//82 
f 85//85 84//84 81//81 
f 82//82 107//107 81//81 
f 82//82 112//112 107//107 
f 81//81 107//107 108//108 
f 83//83 28//28 84//84 
f 84//84 86//86 83//83 
f 87//87 52//52 83//83 
f 87//87 89//89 52//52 
f 87//87 83//83 86//86 
f 85//85 86//86 84//84 
f 85//85 88//88 86//86 
f 88//88 87//87 86//86 
f 87//87 88//88 110//110 
f 85//85 81//81 108//108 
f 88//88 85//85 108//108 
f 94//94 60//60 89//89 
f 87//87 94//94 89//89 
f 82//82 90//90 98//98 
f 82//82 59//59 90//90 
f 98//98 90//90 75//75 
f 91//91 112//112 82//82 
f 98//98 91//91 82//82 
f 112//112 91//91 92//92 
f 91//91 101//101 92//92 
f 91//91 98//98 101//101 
f 101//101 103//103 92//92 
f 61//61 60//60 94//94 
f 95//95 122//122 94//94 
f 125//125 122//122 95//95 
f 97//97 125//125 95//95 
f 97//97 124//124 126//126 
f 123//123 65//65 127//127 
f 96//96 95//95 94//94 
f 95//95 96//96 97//97 
f 87//87 96//96 94//94 
f 110//110 96//96 87//87 
f 110//110 97//97 96//96 
f 110//110 114//114 97//97 
f 75//75 74//74 98//98 
f 99//99 98//98 74//74 
f 74//74 78//78 99//99 
f 100//100 99//99 106//106 
f 106//106 104//104 102//102 
f 100//100 101//101 99//99 
f 100//100 102//102 101//101 
f 100//100 106//106 102//102 
f 98//98 99//99 101//101 
f 103//103 101//101 102//102 
f 92//92 103//103 115//115 
f 115//115 103//103 102//102 
f 105//105 124//124 114//114 
f 104//104 128//128 102//102 
f 114//114 124//124 97//97 
f 104//104 106//106 79//79 
f 104//104 79//79 128//128 
f 108//108 109//109 88//88 
f 109//109 110//110 88//88 
f 109//109 108//108 107//107 
f 110//110 109//109 111//111 
f 112//112 92//92 115//115 
f 112//112 109//109 107//107 
f 112//112 115//115 113//113 
f 109//109 112//112 130//130 
f 130//130 112//112 133//133 
f 131//131 134//134 135//135 
f 110//110 132//132 114//114 
f 115//115 102//102 128//128 
f 113//113 115//115 128//128 
f 129//129 135//135 134//134 
