#
# The license for this database is specified in the Creative Commons Attribution-Share Alike 2.1 Japan. If you use data from this database, please be sure attribute this database as follows: "BodyParts3D, (c)  The Database Center for Life Science licensed under CC Attribution-Share Alike 2.1 Japan".
# http://dbarchive.biosciencedbc.jp/en/bodyparts3d/lic.html
#
#
# Compatibility version : 4.0
# File ID : FJ3194
# Representation ID : BP9881
# Build-up logic : FMA 3.0 part_of
# Concept ID : FMA24463
# English name : Distal phalanx of right little finger
# Bounds(mm): (-227.203000,-181.873000,676.749000)-(-218.895000,-168.171000,689.277000)
# Volume(cm3): 0.214800
#
v -227.065 -170.975 687.301
v -227.203 -171.446 686.815
v -226.777 -171.079 686.15
v -226.366 -171.352 685.853
v -226.457 -172.005 687.855
v -225.517 -171.893 688.531
v -225.3 -171.546 688.744
v -224.701 -171.764 689.144
v -225.355 -169.416 686.591
v -225.194 -169.396 686.312
v -225.232 -169.681 687.152
v -225.097 -169.029 686.536
v -223.567 -168.746 686.17
v -226.471 -173.087 686.358
v -225.975 -172.744 685.752
v -225.86 -173.323 686.855
v -225.374 -173.604 685.885
v -225.387 -173.15 685.225
v -225.468 -170.146 685.875
v -224.975 -169.525 686.035
v -222.563 -171.606 689.277
v -224.518 -171.849 689.096
v -224.503 -171.782 689.157
v -224.506 -171.945 688.765
v -224.446 -171.749 688.845
v -222.789 -172.674 688.782
v -222.862 -168.171 687.002
v -222.287 -168.639 686.258
v -222.776 -169.823 687.899
v -221.245 -168.729 687.338
v -224.804 -173.78 686.646
v -223.997 -174.097 686.745
v -222.963 -175.123 686.132
v -223.475 -171.28 684.7
v -222.443 -168.993 685.969
v -221.497 -169.23 686.047
v -224.097 -173.915 683.073
v -224.304 -174.687 684.781
v -224.439 -179.132 679.606
v -224.252 -179.326 680.038
v -223.932 -177.68 679.884
v -224.06 -178.268 680.593
v -223.663 -177.801 678.999
v -223.218 -176.817 679.463
v -224.47 -179.697 679.118
v -224.441 -179.33 679.04
v -224.305 -179.514 678.507
v -224.121 -180.059 678.042
v -223.833 -178.202 678.721
v -223.506 -177.907 678.664
v -223.752 -179.071 677.784
v -219.806 -172.266 688.569
v -220.721 -168.959 686.709
v -219.987 -169.895 686.637
v -219.696 -169.709 687.254
v -220.298 -174.294 685.378
v -220.137 -172.702 685.032
v -220.884 -173.503 683.171
v -220.347 -173.886 683.443
v -223.224 -178.578 682.257
v -222.583 -178.391 683.052
v -221.756 -178.279 682.971
v -220.663 -174.566 681.952
v -223.588 -180.839 679.795
v -223.253 -180.098 681.179
v -222.288 -180.816 681.057
v -223.745 -180.901 678.592
v -223.301 -180.859 677.505
v -222.913 -181.711 678.881
v -222.75 -181.621 678.21
v -222.662 -181.796 679.276
v -222.567 -181.873 678.867
v -222.215 -181.832 679.257
v -222.924 -178.974 677.346
v -223.13 -179.83 677
v -221.545 -178.048 678.028
v -222.465 -180.714 676.963
v -221.576 -179.83 676.749
v -221.188 -180.614 676.831
v -219.535 -171.379 688.292
v -219.73 -172.89 687.993
v -218.895 -171.809 687.87
v -220.142 -178.15 681.951
v -220.325 -176.416 683.173
v -220.083 -176.109 682.921
v -220.075 -177.07 682.532
v -220.897 -180.928 680.587
v -219.673 -178.053 681.403
v -219.488 -178.557 679.944
v -219.717 -179.182 681.007
v -221.117 -181.385 677.693
v -220.229 -179.003 677.805
v -220.26 -180.219 677.172
v -219.775 -179.665 677.853
v -220.003 -180.616 677.461
v -219.951 -180.945 678.607
v -219.922 -180.848 677.825
v -219.749 -180.536 677.864
v -227.065 -170.975 687.301
v -227.065 -170.975 687.301
v -227.065 -170.975 687.301
v -227.203 -171.446 686.815
v -227.203 -171.446 686.815
v -225.3 -171.546 688.744
v -224.701 -171.764 689.144
v -225.355 -169.416 686.591
v -225.097 -169.029 686.536
v -226.471 -173.087 686.358
v -226.471 -173.087 686.358
v -225.86 -173.323 686.855
v -225.374 -173.604 685.885
v -225.387 -173.15 685.225
v -222.563 -171.606 689.277
v -224.518 -171.849 689.096
v -224.503 -171.782 689.157
v -224.446 -171.749 688.845
v -222.862 -168.171 687.002
v -221.245 -168.729 687.338
v -223.475 -171.28 684.7
v -224.097 -173.915 683.073
v -224.097 -173.915 683.073
v -224.304 -174.687 684.781
v -224.304 -174.687 684.781
v -219.806 -172.266 688.569
v -219.806 -172.266 688.569
v -219.696 -169.709 687.254
v -219.696 -169.709 687.254
v -220.298 -174.294 685.378
v -220.137 -172.702 685.032
v -220.137 -172.702 685.032
v -220.347 -173.886 683.443
v -222.583 -178.391 683.052
v -220.663 -174.566 681.952
v -222.465 -180.714 676.963
v -219.73 -172.89 687.993
v -218.895 -171.809 687.87
v -218.895 -171.809 687.87
v -219.673 -178.053 681.403
v -220.003 -180.616 677.461
v -219.922 -180.848 677.825
vn -0.770858 0.587768 -0.245574
vn -0.827155 0.502336 -0.25194
vn -0.735053 0.259033 -0.626577
vn -0.522462 0.063573 -0.850289
vn -0.628658 -0.449375 0.634706
vn -0.339259 -0.487614 0.804448
vn -0.415134 -0.213007 0.884472
vn -0.108634 -0.655663 0.747198
vn -0.711249 0.573513 -0.406458
vn -0.650754 0.529154 -0.544532
vn -0.43431 0.596353 0.675084
vn -0.57123 0.622766 0.534657
vn -0.139583 0.686121 -0.713971
vn -0.683752 -0.283927 -0.672212
vn -0.683593 -0.309054 -0.661201
vn -0.385286 -0.702569 0.59829
vn -0.452836 -0.882816 0.124799
vn -0.777688 -0.414137 -0.472961
vn -0.471819 0.423472 -0.773342
vn -0.356703 0.54238 -0.760649
vn -0.0280303 -0.415135 0.909328
vn -0.108634 -0.655663 0.747198
vn -0.108634 -0.655663 0.747198
vn -0.196769 -0.391372 0.898949
vn -0.172431 -0.34669 0.921994
vn -0.149893 -0.626104 0.765196
vn -0.219458 0.547449 0.807551
vn 0.162412 0.744439 -0.647637
vn -0.0932656 0.525433 0.845708
vn 0.441049 0.896612 0.0395203
vn -0.389818 -0.832704 0.393251
vn -0.40556 -0.763757 0.502192
vn -0.241501 -0.743602 0.623485
vn -0.241807 0.45354 -0.857806
vn 0.0857822 0.532878 -0.841833
vn 0.326747 0.486116 -0.810511
vn -0.815907 -0.483502 -0.317052
vn -0.549481 -0.763522 0.33927
vn -0.984131 0.165158 0.0648804
vn -0.878566 -0.251345 0.406138
vn -0.894305 0.37648 -0.24183
vn -0.967526 -0.0946584 0.234379
vn -0.728151 0.553971 -0.403624
vn -0.536956 0.59131 -0.60169
vn -0.967943 -0.250439 0.0191594
vn -0.952849 0.230195 -0.197709
vn -0.911173 0.173121 -0.373889
vn -0.861433 -0.190747 -0.47069
vn -0.760406 0.495899 -0.419364
vn -0.580123 0.568666 -0.583161
vn -0.684596 0.357954 -0.634978
vn 0.442792 0.140864 0.88549
vn 0.477743 0.786258 -0.391868
vn 0.700255 0.377405 -0.605977
vn 0.534766 0.833197 0.140744
vn 0.798042 -0.498412 0.338696
vn 0.366777 0.390472 -0.844397
vn 0.506148 0.692106 -0.51459
vn 0.65806 0.592518 -0.464629
vn -0.774867 -0.367454 0.514352
vn 0.16032 -0.641578 0.750116
vn 0.404707 -0.55582 0.726137
vn 0.379958 0.70087 -0.603667
vn -0.699232 -0.630027 0.337847
vn -0.642121 -0.52023 0.563065
vn -0.136537 -0.760067 0.635339
vn -0.759231 -0.638712 -0.124963
vn -0.598357 -0.549343 -0.583259
vn -0.580277 -0.814396 -0.00615974
vn -0.349965 -0.843852 -0.406742
vn -0.344634 -0.886625 0.308421
vn -0.138966 -0.985681 -0.0955043
vn 0.170878 -0.961632 0.214626
vn -0.310046 0.567307 -0.762912
vn -0.478804 0.0530714 -0.876316
vn 0.10086 0.660096 -0.74438
vn -0.247068 -0.186676 -0.950847
vn 0.0914262 0.275393 -0.956974
vn 0.219387 -0.401416 -0.889233
vn 0.383302 0.387723 0.838302
vn 0.216183 -0.764813 0.606899
vn 0.900351 0.0787703 -0.427975
vn 0.635576 -0.377966 0.67319
vn 0.730147 -0.416678 0.541539
vn 0.99153 -0.00359658 0.129826
vn 0.709317 -0.339474 0.617759
vn 0.409545 -0.735419 0.539844
vn 0.79329 -0.259934 0.550568
vn 0.990904 0.113459 -0.0723628
vn 0.794459 -0.378073 0.475285
vn 0.222789 -0.887654 -0.403032
vn 0.561799 0.510025 -0.651349
vn 0.538413 0.122844 -0.833679
vn 0.840189 0.204752 -0.502154
vn 0.402055 -0.595509 -0.695501
vn 0.738381 -0.667434 0.0965705
vn 0.416796 -0.844823 -0.335493
vn 0.949037 -0.229178 -0.216347
vn -0.755773 -0.0974167 0.647548
vn -0.26494 0.590582 0.762246
vn -0.48719 0.743194 0.458595
vn -0.839743 -0.354628 0.411183
vn -0.779988 -0.181102 -0.599017
vn -0.145894 0.599501 0.786965
vn 0.108634 0.655663 -0.747198
vn -0.615052 0.651901 0.443549
vn -0.483401 0.663061 -0.571553
vn -0.72831 -0.552323 0.40559
vn -0.40359 -0.912853 0.061768
vn -0.393656 -0.916749 0.0678724
vn -0.737859 -0.514045 -0.437403
vn -0.456258 0.306918 -0.835242
vn 0.093378 0.488099 0.867779
vn 0.108634 0.655663 -0.747198
vn 0.108634 0.655663 -0.747198
vn -0.113677 0.515642 0.849229
vn 0.0865683 0.931274 -0.353884
vn 0.142212 0.464759 0.873942
vn 0.185697 0.748402 -0.636719
vn -0.694213 0.467983 -0.546863
vn -0.992103 0.0556169 -0.112425
vn -0.816147 -0.482987 -0.317218
vn -0.993953 0.0478564 -0.0988307
vn 0.13463 -0.555241 0.82072
vn 0.674375 -0.454457 0.581968
vn 0.783916 0.386064 -0.486242
vn 0.533897 0.482994 0.694025
vn 0.790839 -0.594065 0.147177
vn 0.970683 0.0370428 -0.237491
vn 0.527501 0.68278 -0.505523
vn 0.947315 0.175539 -0.26792
vn -0.527705 -0.55838 0.640109
vn 0.918014 0.311877 -0.244913
vn -0.116503 -0.769974 -0.627349
vn 0.753834 -0.539451 0.375136
vn 0.647244 0.259615 0.716712
vn 0.753834 -0.539451 0.375136
vn 0.992858 0.0294091 0.115624
vn 0.835176 -0.10624 -0.539625
vn 0.86323 -0.447346 -0.233913
g grp1
usemtl mtl1
f 1//1 3//3 2//2 
f 5//5 99//99 102//102 
f 3//3 9//9 19//19 
f 1//1 9//9 3//3 
f 14//14 3//3 15//15 
f 15//15 3//3 4//4 
f 3//3 19//19 4//4 
f 22//22 23//23 8//8 
f 99//99 5//5 7//7 
f 5//5 102//102 108//108 
f 26//26 5//5 16//16 
f 16//16 5//5 108//108 
f 6//6 7//7 5//5 
f 26//26 6//6 5//5 
f 115//115 114//114 105//105 
f 24//24 7//7 6//6 
f 7//7 24//24 25//25 
f 29//29 100//100 104//104 
f 106//106 101//101 11//11 
f 106//106 11//11 12//12 
f 9//9 10//10 19//19 
f 20//20 10//10 107//107 
f 107//107 10//10 9//9 
f 12//12 11//11 27//27 
f 10//10 20//20 19//19 
f 27//27 11//11 29//29 
f 11//11 100//100 29//29 
f 107//107 13//13 20//20 
f 20//20 13//13 34//34 
f 107//107 117//117 13//13 
f 14//14 103//103 3//3 
f 109//109 17//17 110//110 
f 14//14 15//15 111//111 
f 18//18 111//111 15//15 
f 17//17 31//31 110//110 
f 17//17 38//38 31//31 
f 19//19 20//20 34//34 
f 4//4 19//19 112//112 
f 19//19 34//34 112//112 
f 4//4 18//18 15//15 
f 34//34 13//13 35//35 
f 111//111 18//18 37//37 
f 25//25 26//26 21//21 
f 29//29 116//116 113//113 
f 29//29 113//113 80//80 
f 80//80 113//113 52//52 
f 116//116 29//29 104//104 
f 6//6 26//26 24//24 
f 24//24 26//26 25//25 
f 26//26 124//124 21//21 
f 28//28 13//13 117//117 
f 28//28 35//35 13//13 
f 53//53 28//28 117//117 
f 30//30 53//53 117//117 
f 53//53 36//36 28//28 
f 36//36 35//35 28//28 
f 29//29 118//118 27//27 
f 26//26 16//16 31//31 
f 26//26 31//31 32//32 
f 32//32 31//31 38//38 
f 33//33 26//26 32//32 
f 36//36 34//34 35//35 
f 57//57 34//34 36//36 
f 112//112 34//34 120//120 
f 122//122 111//111 37//37 
f 32//32 38//38 33//33 
f 38//38 42//42 33//33 
f 121//121 42//42 123//123 
f 42//42 60//60 33//33 
f 120//120 34//34 44//44 
f 40//40 42//42 39//39 
f 40//40 39//39 45//45 
f 64//64 40//40 45//45 
f 39//39 46//46 45//45 
f 60//60 42//42 40//40 
f 60//60 40//40 65//65 
f 65//65 40//40 64//64 
f 42//42 121//121 41//41 
f 44//44 41//41 120//120 
f 41//41 44//44 43//43 
f 42//42 41//41 39//39 
f 39//39 41//41 49//49 
f 39//39 49//49 46//46 
f 43//43 49//49 41//41 
f 49//49 47//47 46//46 
f 49//49 51//51 47//47 
f 43//43 50//50 49//49 
f 50//50 43//43 44//44 
f 44//44 119//119 76//76 
f 67//67 64//64 45//45 
f 46//46 47//47 45//45 
f 48//48 67//67 45//45 
f 45//45 47//47 48//48 
f 68//68 48//48 75//75 
f 49//49 74//74 51//51 
f 50//50 74//74 49//49 
f 44//44 74//74 50//50 
f 48//48 47//47 51//51 
f 44//44 76//76 74//74 
f 51//51 75//75 48//48 
f 75//75 51//51 74//74 
f 81//81 124//124 26//26 
f 80//80 118//118 29//29 
f 55//55 53//53 30//30 
f 126//126 54//54 53//53 
f 54//54 36//36 53//53 
f 36//36 54//54 57//57 
f 80//80 127//127 118//118 
f 54//54 126//126 82//82 
f 82//82 129//129 54//54 
f 136//136 127//127 80//80 
f 26//26 33//33 81//81 
f 81//81 33//33 56//56 
f 58//58 119//119 130//130 
f 130//130 59//59 58//58 
f 82//82 56//56 129//129 
f 33//33 61//61 62//62 
f 33//33 62//62 56//56 
f 129//129 56//56 85//85 
f 58//58 63//63 119//119 
f 59//59 63//63 58//58 
f 85//85 131//131 129//129 
f 85//85 133//133 131//131 
f 132//132 33//33 60//60 
f 61//61 66//66 62//62 
f 62//62 84//84 56//56 
f 76//76 119//119 63//63 
f 66//66 65//65 64//64 
f 71//71 66//66 64//64 
f 71//71 64//64 69//69 
f 132//132 60//60 65//65 
f 132//132 65//65 66//66 
f 73//73 66//66 71//71 
f 64//64 67//67 69//69 
f 67//67 48//48 68//68 
f 75//75 77//77 68//68 
f 70//70 67//67 68//68 
f 68//68 134//134 70//70 
f 69//69 67//67 70//70 
f 134//134 91//91 70//70 
f 72//72 71//71 69//69 
f 70//70 72//72 69//69 
f 72//72 70//70 91//91 
f 73//73 71//71 72//72 
f 91//91 73//73 72//72 
f 74//74 76//76 78//78 
f 92//92 78//78 76//76 
f 92//92 93//93 78//78 
f 63//63 92//92 76//76 
f 79//79 91//91 134//134 
f 75//75 74//74 78//78 
f 77//77 75//75 78//78 
f 79//79 77//77 78//78 
f 136//136 80//80 52//52 
f 137//137 125//125 135//135 
f 135//135 128//128 137//137 
f 88//88 86//86 83//83 
f 62//62 87//87 90//90 
f 62//62 90//90 83//83 
f 56//56 84//84 85//85 
f 86//86 62//62 83//83 
f 62//62 86//86 84//84 
f 84//84 86//86 85//85 
f 86//86 88//88 85//85 
f 73//73 87//87 66//66 
f 62//62 66//66 87//87 
f 73//73 96//96 87//87 
f 83//83 90//90 88//88 
f 89//89 138//138 90//90 
f 138//138 89//89 85//85 
f 85//85 89//89 133//133 
f 96//96 89//89 90//90 
f 87//87 96//96 90//90 
f 73//73 91//91 96//96 
f 133//133 89//89 92//92 
f 94//94 93//93 92//92 
f 91//91 79//79 95//95 
f 93//93 94//94 139//139 
f 93//93 95//95 79//79 
f 92//92 89//89 94//94 
f 98//98 89//89 96//96 
f 98//98 94//94 89//89 
f 91//91 97//97 96//96 
f 98//98 139//139 94//94 
f 95//95 97//97 91//91 
f 96//96 140//140 98//98 
f 98//98 140//140 139//139 
f 78//78 93//93 79//79 
