# Blender v2.77 (sub 0) OBJ File: 'BLANKOblend.blend'
# www.blender.org
mtllib left first metatarsal bone.mtl
o grp1
v 81.552124 -135.152710 -42.551170
v 79.137817 -136.595886 -40.184471
v 80.296799 -139.339996 -41.339222
v 83.391113 -134.309052 -44.221100
v 76.979797 -137.573303 -36.865623
v 81.678467 -134.543396 -41.509178
v 82.835785 -133.555710 -43.509453
v 89.763107 -137.409256 -46.206345
v 85.871094 -132.975494 -45.198280
v 87.170235 -131.461121 -44.332115
v 85.428696 -131.929794 -43.892162
v 92.601158 -137.896210 -46.332439
v 86.831360 -131.089447 -42.991966
v 89.805023 -129.983017 -40.718643
v 89.209839 -129.906158 -40.545677
v 78.075989 -141.849396 -39.904213
v 76.506012 -142.945679 -37.659752
v 78.895660 -149.889313 -39.564293
v 82.102898 -146.322998 -41.372124
v 75.481873 -139.555634 -34.176292
v 86.062164 -140.278595 -43.747032
v 76.103989 -138.717300 -34.691658
v 75.531212 -138.649734 -33.489948
v 76.342552 -138.739258 -32.864098
v 75.286011 -139.579956 -32.272484
v 75.287018 -139.575745 -32.278465
v 84.109741 -135.227264 -36.396141
v 87.437134 -133.565857 -39.393822
v 91.920456 -133.138580 -42.864895
v 89.521240 -131.326172 -37.095726
v 91.000366 -130.818939 -38.692955
v 89.721703 -130.324005 -38.594524
v 89.721703 -130.324005 -38.594524
v 77.849091 -150.519226 -37.655235
v 74.909264 -144.855865 -32.959793
v 75.971603 -145.860001 -29.474922
v 84.999023 -148.107758 -42.896385
v 75.027130 -140.201416 -29.858421
v 75.679100 -139.557007 -29.467823
v 75.659103 -140.061996 -27.851522
v 75.659103 -140.061996 -27.851522
v 77.151344 -140.593994 -24.635918
v 84.086914 -135.881836 -32.983421
v 93.771530 -139.917236 -46.299950
v 87.636017 -134.202637 -34.280540
v 94.232307 -137.936401 -44.104576
v 92.884903 -134.033997 -36.887123
v 89.529404 -132.421997 -34.802921
v 89.572998 -131.524002 -36.728523
v 90.067230 -132.466064 -34.898460
v 88.776367 -159.152328 -48.231960
v 78.227699 -151.123001 -34.461823
v 90.802902 -148.677979 -47.372025
v 92.824104 -145.134689 -48.071129
v 77.097321 -140.639191 -24.652184
v 76.942810 -142.994141 -26.179466
v 82.943359 -139.335938 -24.514671
v 94.033401 -145.812988 -47.583523
v 94.483337 -145.012085 -46.653465
v 94.292404 -136.767868 -40.523033
v 89.582634 -134.004883 -33.393456
v 80.969200 -158.095993 -43.467125
v 83.043213 -172.406601 -47.897793
v 91.576859 -153.951767 -48.452145
v 80.563263 -151.145630 -30.003809
v 93.341789 -149.796890 -47.835182
v 93.349701 -149.768982 -47.854324
v 78.863739 -146.720657 -25.844110
v 77.936066 -141.338287 -23.735222
v 94.876961 -142.803085 -43.100452
v 78.886566 -141.033768 -22.859245
v 93.702087 -139.693542 -39.052330
v 93.832825 -140.229950 -34.699486
v 93.898842 -137.280609 -33.274590
v 92.443604 -140.297241 -23.360497
v 93.692596 -138.031982 -26.090904
v 92.803192 -135.842346 -30.961571
v 88.485428 -176.031036 -61.758759
v 86.219795 -178.051270 -63.164108
v 84.764038 -170.256332 -51.617702
v 83.762512 -172.547592 -51.512478
v 92.149300 -159.080978 -49.843525
v 91.348701 -166.067978 -52.906425
v 82.977997 -158.673004 -35.211227
v 93.419571 -156.404251 -48.563503
v 93.888123 -154.265060 -47.397884
v 93.831703 -150.173981 -47.520924
v 93.828972 -150.218063 -47.523136
v 93.827148 -152.164368 -41.272728
v 94.014839 -143.328766 -38.273766
v 80.804474 -143.274902 -23.398827
v 81.289185 -141.109299 -22.275932
v 86.536964 -141.340759 -22.459517
v 94.659340 -138.832291 -29.860428
v 85.567337 -181.660614 -63.200333
v 86.497925 -181.094376 -64.032326
v 87.089142 -183.113495 -64.167740
v 85.298096 -179.401779 -61.448761
v 91.352501 -178.044983 -62.794331
v 87.092926 -175.498062 -58.917751
v 85.001678 -176.440048 -56.103058
v 91.020493 -176.271088 -61.313080
v 90.640701 -175.990875 -58.934418
v 88.270706 -175.007126 -58.327847
v 88.572701 -172.875992 -56.189228
v 85.925301 -174.533981 -56.167728
v 88.334000 -168.123978 -52.339626
v 90.961609 -174.539413 -58.219143
v 93.820099 -163.328979 -51.618526
v 94.920044 -166.814438 -53.970974
v 93.995056 -160.420456 -49.861660
v 94.930023 -160.308060 -47.145473
v 85.634888 -153.230469 -29.148462
v 93.274948 -147.592682 -33.890282
v 88.562157 -146.259338 -23.448082
v 94.168091 -139.126129 -26.185631
v 86.003555 -186.702255 -62.367218
v 89.188103 -187.022980 -62.691429
v 84.845619 -186.752838 -60.212357
v 84.649200 -184.226990 -54.986031
v 91.983498 -182.608978 -64.241333
v 89.889503 -184.330978 -64.421829
v 89.184174 -184.774704 -63.486816
v 90.117554 -184.517014 -64.145233
v 89.889503 -184.330978 -64.421829
v 90.116898 -184.528992 -64.149231
v 89.889503 -184.330978 -64.421829
v 91.501495 -184.083282 -64.168854
v 96.033997 -180.457809 -65.170258
v 96.588348 -182.571793 -65.456627
v 95.315697 -177.551987 -64.357529
v 95.144798 -178.342987 -64.295334
v 94.357483 -176.907333 -63.489288
v 95.144630 -178.343048 -64.297882
v 95.313469 -177.555252 -64.370880
v 90.396698 -175.903992 -58.606430
v 90.626465 -175.735580 -58.513885
v 90.396698 -175.903992 -58.606430
v 94.857346 -176.361496 -63.741974
v 102.106003 -175.499985 -63.189827
v 93.903503 -175.410049 -62.000271
v 96.759064 -172.099533 -61.670071
v 100.640999 -172.947983 -62.774025
v 96.171722 -170.989975 -59.105984
v 93.465797 -169.381989 -55.954826
v 86.006805 -172.017578 -43.303249
v 99.815582 -170.721176 -60.927883
v 96.490631 -169.706314 -57.038479
v 97.692856 -169.809860 -56.539730
v 97.153107 -167.803680 -52.651093
v 92.804932 -146.987305 -29.075708
v 89.685547 -141.708008 -22.091545
v 92.748047 -140.779510 -23.511620
v 91.532997 -141.382004 -22.674023
v 90.522903 -146.559998 -24.621426
v 91.553619 -141.385895 -22.628990
v 85.507645 -189.168503 -60.040985
v 88.376617 -191.570358 -57.888702
v 86.109894 -190.634827 -56.854462
v 89.454506 -189.562973 -61.268341
v 91.861328 -184.912766 -63.090057
v 92.882568 -187.465683 -62.652252
v 85.478302 -180.233978 -49.778629
v 92.956146 -183.866379 -64.058243
v 95.169403 -185.175980 -64.615929
v 96.376755 -184.547241 -65.065582
v 96.378601 -184.549988 -65.077827
v 88.256104 -172.358002 -42.396126
v 101.445724 -171.551666 -60.633205
v 102.109909 -175.502426 -63.192387
v 99.070168 -170.891235 -56.526745
v 103.007126 -173.828476 -59.920071
v 100.534416 -173.247314 -56.615055
v 96.456482 -165.794235 -48.908504
v 98.883904 -171.614990 -53.067726
v 94.798401 -162.881836 -40.837917
v 92.707153 -155.014160 -33.055202
v 90.828857 -153.690430 -30.360865
v 91.653564 -150.328125 -28.546900
v 93.882103 -163.779007 -38.073029
v 87.135620 -191.223892 -53.970242
v 96.054077 -189.530991 -60.939484
v 97.120667 -186.537949 -64.140900
v 96.835800 -184.859985 -64.965530
v 98.935791 -183.955017 -63.683258
v 99.873291 -182.563583 -64.469391
v 101.996490 -180.103256 -63.688553
v 102.953979 -181.516586 -62.367706
v 103.233002 -176.287979 -61.273232
v 103.482254 -183.364258 -60.416794
v 102.379997 -181.373978 -55.185032
v 93.789803 -173.531998 -43.114227
v 92.519531 -165.796875 -37.812527
v 97.386719 -171.631348 -45.993923
v 96.658081 -175.299561 -45.587307
v 92.516502 -191.930984 -56.751629
v 91.845718 -192.317307 -54.206818
v 88.308182 -191.104599 -52.367981
v 90.319237 -182.593246 -48.095184
v 90.409912 -186.211777 -49.530792
v 99.599426 -188.673080 -59.954620
v 102.065063 -184.611679 -62.212067
v 98.580139 -176.058334 -47.857819
v 89.717041 -190.300644 -50.587677
v 97.616760 -190.716049 -57.797882
v 96.025314 -191.618286 -54.695740
v 96.535278 -190.605026 -51.901764
v 91.921600 -188.944473 -49.083679
v 100.857986 -189.180511 -54.869995
v 94.813782 -185.665298 -48.341423
v 103.771484 -186.184555 -57.483429
v 103.741699 -185.219711 -57.527374
v 96.113823 -182.631485 -48.207031
v 98.586601 -182.506989 -48.818531
v 97.664902 -186.056717 -48.430901
v 104.191002 -185.782990 -56.760830
v 104.191002 -185.782990 -56.760830
v 104.191002 -185.782990 -56.760830
v 104.385933 -185.779175 -55.602737
v 103.122002 -184.286987 -53.644630
v 101.224998 -183.233978 -50.606529
v 100.783661 -185.627975 -49.492584
v 103.075073 -185.722305 -51.778717
vn -0.7716 0.3071 -0.5571
vn -0.5532 -0.0400 -0.8321
vn -0.7724 0.3935 -0.4986
vn -0.5141 0.0638 -0.8554
vn -0.5393 0.8403 0.0543
vn -0.6887 0.6149 -0.3842
vn -0.2302 0.3536 -0.9066
vn -0.5401 0.8189 -0.1943
vn 0.0454 0.7490 -0.6610
vn 0.3914 0.3382 -0.8558
vn -0.1874 0.0653 -0.9801
vn -0.5429 0.8377 0.0602
vn -0.2706 0.9626 0.0155
vn 0.4090 0.8919 -0.1927
vn -0.8813 -0.0389 -0.4709
vn -0.7277 0.6776 -0.1062
vn -0.6724 0.0256 -0.7398
vn -0.6992 -0.0217 -0.7146
vn -0.4515 -0.0740 -0.8892
vn -0.9565 0.1734 -0.2347
vn -0.4581 -0.1103 -0.8820
vn -0.6270 0.7782 0.0362
vn -0.6112 0.7914 -0.0068
vn -0.3522 0.9150 0.1967
vn -0.9946 0.0254 -0.1001
vn -0.5084 0.8196 0.2641
vn -0.3044 0.9340 0.1873
vn -0.5873 0.7340 0.3411
vn 0.6813 0.5824 -0.4435
vn -0.5705 0.7276 0.3810
vn 0.2922 0.9135 0.2832
vn -0.6881 0.6384 0.3450
vn -0.9272 -0.2129 -0.3080
vn -0.9814 -0.1833 -0.0569
vn -0.5336 0.0805 -0.8419
vn -0.9737 0.2125 0.0820
vn -0.5443 0.8186 0.1836
vn -0.9297 -0.1832 0.3195
vn -0.8561 -0.4043 0.3220
vn -0.2891 0.9229 0.2542
vn -0.3004 0.9022 0.3094
vn -0.2307 0.9124 0.3381
vn -0.3701 0.8603 0.3505
vn 0.8057 0.5730 0.1499
vn 0.6594 0.7412 0.1255
vn -0.4429 0.7799 0.4422
vn -0.0990 0.8807 0.4632
vn 0.2695 0.7933 0.5459
vn -0.4582 0.3081 -0.8338
vn -0.8430 -0.4850 0.2328
vn 0.0107 0.0819 -0.9966
vn -0.3879 0.0736 -0.9188
vn -0.8557 -0.2109 0.4726
vn -0.8617 -0.2556 0.4383
vn -0.0951 0.8515 0.5156
vn 0.7565 0.2607 -0.5998
vn 0.7198 0.0261 -0.6937
vn 0.9606 0.0493 -0.2737
vn 0.8945 0.3286 -0.3032
vn 0.9753 0.2206 0.0071
vn -0.2232 0.6986 0.6798
vn -0.5826 0.2784 -0.7636
vn -0.9362 -0.3010 0.1817
vn -0.1774 0.2072 -0.9621
vn -0.5616 -0.6554 0.5050
vn 0.1637 -0.0220 -0.9863
vn -0.3162 -0.3285 -0.8900
vn -0.4988 -0.5317 0.6845
vn -0.6742 -0.2074 0.7088
vn -0.4149 0.2157 0.8839
vn 0.9993 0.0370 0.0065
vn 0.9900 -0.0248 0.1386
vn 0.9608 0.2760 0.0276
vn 0.9985 -0.0399 -0.0385
vn 0.4029 0.5161 0.7559
vn 0.4917 0.7131 0.4997
vn 0.6185 0.7432 0.2552
vn -0.5643 0.4079 -0.7178
vn -0.8984 0.0887 -0.4300
vn -0.1004 0.3510 -0.9310
vn -0.2543 0.4671 -0.8468
vn -0.5833 -0.5504 0.5973
vn 0.6524 0.1911 -0.7334
vn 0.8824 0.0257 -0.4697
vn 0.5302 -0.0180 -0.8477
vn 0.9979 -0.0131 0.0639
vn 0.9944 0.0133 0.1051
vn -0.1950 -0.4331 0.8800
vn -0.0641 0.2245 0.9724
vn -0.0294 0.2275 0.9733
vn 0.9742 0.2205 0.0486
vn -0.8509 -0.0162 -0.5251
vn -0.3810 0.1299 -0.9154
vn -0.4157 -0.2286 -0.8803
vn -0.5212 0.5207 -0.6762
vn -0.9505 0.2440 -0.1925
vn -0.0897 0.8620 -0.4989
vn -0.1493 0.4681 -0.8710
vn -0.3454 0.8530 -0.3913
vn -0.0878 0.8872 -0.4529
vn -0.1558 0.9327 -0.3252
vn 0.0094 0.7727 -0.6347
vn -0.6319 0.5872 -0.5059
vn -0.9454 0.1812 -0.2710
vn -0.2636 0.6103 -0.7470
vn -0.4043 0.4722 -0.7833
vn -0.5092 0.4575 -0.7290
vn 0.2638 0.5113 -0.8179
vn 0.2320 0.7030 -0.6722
vn 0.6370 0.4422 -0.6314
vn 0.9695 0.2358 -0.0663
vn 0.9744 0.0853 -0.2081
vn -0.1265 -0.6064 0.7851
vn 0.9898 -0.1016 0.1002
vn 0.1339 -0.4594 0.8781
vn 0.9375 0.0881 0.3367
vn -0.5459 -0.4090 -0.7313
vn -0.0589 -0.3277 -0.9429
vn -0.9642 -0.1847 -0.1902
vn -0.1093 0.1340 -0.9849
vn 0.0290 0.0258 -0.9992
vn -0.0557 -0.9645 -0.2580
vn -0.0982 -0.5956 -0.7973
vn -0.4274 -0.8599 -0.2793
vn 0.1900 -0.6256 -0.7567
vn 0.2144 -0.6970 -0.6842
vn 0.1380 -0.3182 -0.9379
vn -0.9893 -0.1110 0.0950
vn -0.1145 0.2002 -0.9730
vn 0.0134 -0.0910 -0.9958
vn -0.7007 0.0958 -0.7070
vn -0.6358 0.1208 -0.7623
vn -0.4121 0.4310 -0.8028
vn -0.5040 0.3692 -0.7808
vn -0.6783 0.0006 -0.7348
vn -0.0173 0.3120 -0.9499
vn 0.2860 0.8042 -0.5211
vn -0.3681 0.6015 -0.7090
vn -0.3785 0.7857 -0.4894
vn 0.1338 0.2041 -0.9698
vn -0.4758 0.6374 -0.6061
vn -0.3662 0.6840 -0.6308
vn 0.2890 0.5257 -0.8000
vn -0.3940 0.7582 -0.5195
vn -0.3229 0.6126 -0.7214
vn 0.2051 0.8904 -0.4065
vn 0.0201 0.8833 -0.4683
vn -0.5725 -0.5123 0.6402
vn 0.4569 0.8582 -0.2339
vn 0.7897 0.5789 -0.2030
vn 0.9262 -0.2109 0.3127
vn 0.7756 -0.0575 0.6286
vn 0.2013 0.3854 0.9005
vn 0.0786 0.1183 0.9899
vn 0.5951 -0.4385 0.6735
vn 0.5079 -0.3242 0.7981
vn -0.0643 -0.6911 -0.7199
vn -0.7357 -0.5777 -0.3535
vn -0.7498 -0.6617 0.0001
vn -0.0681 -0.4388 -0.8960
vn -0.0798 -0.5626 -0.8228
vn -0.6634 -0.4135 0.6237
vn 0.0908 -0.8364 -0.5406
vn -0.2777 -0.3042 -0.9112
vn -0.1760 0.2357 -0.9558
vn -0.3765 0.0413 -0.9255
vn 0.7148 0.6799 -0.1637
vn 0.8361 0.2727 -0.4760
vn 0.7371 0.6565 0.1601
vn 0.9393 0.3348 0.0751
vn 0.9558 0.2847 0.0733
vn 0.9309 0.3072 0.1976
vn -0.2097 -0.5208 0.8275
vn 0.9726 0.0919 0.2135
vn 0.8937 -0.1455 0.4244
vn 0.4139 -0.5106 0.7537
vn 0.7527 -0.3482 0.5587
vn -0.2214 -0.9333 -0.2829
vn -0.6319 -0.6973 0.3383
vn 0.1479 -0.7986 -0.5834
vn 0.2080 -0.5335 -0.8198
vn 0.3043 -0.1645 -0.9383
vn 0.4531 -0.4329 -0.7793
vn 0.4048 -0.3105 -0.8601
vn 0.5724 -0.0382 -0.8191
vn 0.8382 -0.1465 -0.5253
vn 0.9729 0.1062 -0.2056
vn 0.9786 -0.1204 -0.1671
vn 0.8318 0.3631 0.4198
vn 0.9295 0.2524 0.2689
vn 0.2167 -0.4963 0.8407
vn 0.3365 -0.4796 0.8104
vn 0.9390 0.0664 0.3375
vn 0.8006 -0.2258 0.5551
vn 0.6425 -0.1906 0.7422
vn 0.0757 -0.9603 -0.2687
vn 0.0055 -0.9818 0.1899
vn -0.5303 -0.6570 0.5358
vn -0.3038 -0.3899 0.8693
vn -0.3888 -0.2924 0.8737
vn 0.4971 -0.7578 -0.4226
vn 0.6036 -0.4213 -0.6768
vn 0.8630 0.1575 0.4800
vn 0.3667 -0.8929 -0.2612
vn 0.3089 -0.9492 0.0603
vn -0.3933 -0.5521 0.7352
vn 0.3149 -0.8179 0.4815
vn -0.1302 -0.4628 0.8769
vn 0.6047 -0.7873 0.1206
vn -0.0741 -0.1226 0.9897
vn 0.8271 -0.4678 -0.3115
vn 0.9664 0.2334 -0.1073
vn 0.1496 -0.1883 0.9706
vn 0.3722 -0.0811 0.9246
vn 0.2450 -0.3000 0.9219
vn 0.8639 0.0037 -0.5036
vn 0.7986 -0.5891 -0.1237
vn 0.9951 -0.0469 0.0875
vn 0.8605 0.4866 -0.1510
vn 0.8985 0.3836 0.2137
vn 0.7242 0.1584 0.6711
vn 0.8399 -0.2109 0.5001
vn 0.5209 -0.2470 0.8171
usemtl mtl1
s 1
f 1//1 3//2 2//3
f 4//4 3//2 1//1
f 2//3 6//5 1//1
f 4//4 1//1 7//6
f 4//4 7//6 9//7
f 6//5 7//6 1//1
f 9//7 11//8 10//9
f 12//10 9//7 10//9
f 8//11 9//7 12//10
f 9//7 7//6 11//8
f 9//7 8//11 4//4
f 6//5 11//8 7//6
f 11//8 13//12 10//9
f 10//9 13//12 15//13
f 14//14 10//9 15//13
f 17//15 5//16 16//17
f 16//17 18//18 17//15
f 18//18 16//17 19//19
f 17//15 20//20 5//16
f 19//19 16//17 3//2
f 19//19 3//2 21//21
f 3//2 16//17 2//3
f 16//17 5//16 2//3
f 20//20 23//22 22//23
f 24//24 22//23 23//22
f 20//20 25//25 23//22
f 24//24 23//22 26//26
f 21//21 3//2 4//4
f 2//3 5//16 6//5
f 5//16 20//20 22//23
f 8//11 21//21 4//4
f 6//5 5//16 27//27
f 6//5 28//28 11//8
f 28//28 13//12 11//8
f 29//29 10//9 14//14
f 30//30 15//13 13//12
f 14//14 15//13 32//31
f 15//13 30//30 33//32
f 18//18 34//33 17//15
f 35//34 17//15 34//33
f 35//34 20//20 17//15
f 21//21 37//35 19//19
f 20//20 35//34 38//36
f 20//20 38//36 25//25
f 38//36 24//24 26//26
f 38//36 39//37 24//24
f 38//36 40//38 39//37
f 36//39 38//36 35//34
f 24//24 43//40 22//23
f 24//24 39//37 43//40
f 39//37 41//41 42//42
f 5//16 22//23 43//40
f 29//29 12//10 10//9
f 6//5 27//27 28//28
f 43//40 45//43 27//27
f 5//16 43//40 27//27
f 47//44 29//29 31//45
f 30//30 13//12 28//28
f 28//28 45//43 48//46
f 45//43 28//28 27//27
f 31//45 29//29 14//14
f 14//14 32//31 31//45
f 49//47 50//48 30//30
f 33//32 30//30 50//48
f 28//28 48//46 30//30
f 31//45 32//31 50//48
f 50//48 49//47 48//46
f 37//35 18//18 19//19
f 51//49 18//18 37//35
f 35//34 34//33 52//50
f 36//39 35//34 52//50
f 8//11 54//51 21//21
f 54//51 53//52 21//21
f 21//21 53//52 37//35
f 55//53 40//38 38//36
f 56//54 55//53 38//36
f 39//37 42//42 43//40
f 42//42 57//55 43//40
f 54//51 8//11 12//10
f 12//10 44//56 54//51
f 44//56 58//57 54//51
f 59//58 58//57 44//56
f 46//59 44//56 12//10
f 12//10 29//29 46//59
f 46//59 29//29 60//60
f 60//60 29//29 47//44
f 48//46 45//43 61//61
f 31//45 50//48 47//44
f 61//61 50//48 48//46
f 18//18 62//62 34//33
f 63//63 52//50 34//33
f 62//62 18//18 51//49
f 51//49 37//35 53//52
f 53//52 64//64 51//49
f 52//50 65//65 36//39
f 66//66 53//52 67//67
f 65//65 68//68 36//39
f 36//39 68//68 56//54
f 54//51 67//67 53//52
f 66//66 54//51 58//57
f 56//54 38//36 36//39
f 56//54 68//68 69//69
f 42//42 71//70 57//55
f 56//54 69//69 55//53
f 69//69 71//70 55//53
f 70//71 59//58 44//56
f 46//59 70//71 44//56
f 43//40 57//55 45//43
f 70//71 46//59 60//60
f 70//71 60//60 72//72
f 60//60 47//44 74//73
f 72//72 60//60 74//73
f 72//72 74//73 73//74
f 45//43 75//75 76//76
f 76//76 61//61 45//43
f 77//77 47//44 50//48
f 47//44 77//77 74//73
f 62//62 80//78 81//79
f 80//78 62//62 51//49
f 62//62 81//79 34//33
f 34//33 81//79 63//63
f 82//80 51//49 64//64
f 83//81 51//49 82//80
f 65//65 52//50 84//82
f 66//66 64//64 53//52
f 66//66 85//83 64//64
f 85//83 66//66 88//84
f 58//57 87//85 66//66
f 88//84 66//66 87//85
f 59//58 70//71 88//84
f 88//84 58//57 59//58
f 88//84 70//71 89//86
f 89//86 70//71 90//87
f 68//68 91//88 69//69
f 91//88 71//70 69//69
f 91//88 92//89 71//70
f 93//90 92//89 91//88
f 90//87 70//71 72//72
f 71//70 92//89 57//55
f 72//72 73//74 90//87
f 94//91 73//74 74//73
f 77//77 50//48 61//61
f 61//61 76//76 77//77
f 95//92 96//93 97//94
f 96//93 95//92 79//95
f 95//92 98//96 79//95
f 78//97 99//98 79//95
f 79//95 100//99 78//97
f 100//99 79//95 98//96
f 99//98 78//97 102//100
f 102//100 78//97 100//99
f 102//100 100//99 103//101
f 103//101 100//99 104//102
f 100//99 98//96 106//103
f 98//96 101//104 106//103
f 100//99 106//103 104//102
f 104//102 106//103 105//105
f 101//104 81//79 106//103
f 81//79 80//78 106//103
f 106//103 80//78 105//105
f 107//106 108//107 105//105
f 105//105 80//78 107//106
f 107//106 51//49 83//81
f 107//106 80//78 51//49
f 83//81 109//108 110//109
f 84//82 52//50 63//63
f 83//81 82//80 109//108
f 109//108 82//80 111//110
f 85//83 112//111 111//110
f 64//64 111//110 82//80
f 64//64 85//83 111//110
f 85//83 86//112 112//111
f 86//112 85//83 88//84
f 113//113 65//65 84//82
f 86//112 88//84 89//86
f 113//113 68//68 65//65
f 90//87 114//114 89//86
f 91//88 68//68 115//115
f 113//113 115//115 68//68
f 90//87 73//74 114//114
f 93//90 91//88 115//115
f 92//89 93//90 57//55
f 94//91 74//73 77//77
f 45//43 57//55 75//75
f 77//77 76//76 94//91
f 116//116 94//91 76//76
f 97//94 117//117 95//92
f 97//94 118//118 117//117
f 95//92 117//117 119//119
f 121//120 122//121 96//93
f 96//93 122//121 97//94
f 97//94 124//122 123//123
f 125//124 124//122 97//94
f 126//125 127//126 128//127
f 118//118 97//94 123//123
f 95//92 119//119 98//96
f 119//119 120//128 98//96
f 98//96 120//128 101//104
f 122//121 121//120 128//127
f 121//120 129//129 130//130
f 121//120 96//93 79//95
f 63//63 81//79 120//128
f 120//128 81//79 101//104
f 131//131 132//132 139//133
f 133//134 134//135 129//129
f 129//129 134//135 135//136
f 99//98 121//120 79//95
f 129//129 121//120 99//98
f 99//98 102//100 133//134
f 129//129 99//98 133//134
f 133//134 139//133 132//132
f 136//137 103//101 104//102
f 137//138 136//137 104//102
f 137//138 103//101 138//139
f 139//133 140//140 135//136
f 141//141 142//142 139//133
f 139//133 133//134 141//141
f 102//100 141//141 133//134
f 137//138 108//107 141//141
f 137//138 104//102 105//105
f 108//107 137//138 105//105
f 102//100 103//101 141//141
f 141//141 103//101 137//138
f 139//133 142//142 143//143
f 141//141 144//144 142//142
f 108//107 144//144 141//141
f 108//107 145//145 144//144
f 144//144 147//146 142//142
f 144//144 148//147 147//146
f 144//144 145//145 148//147
f 107//106 145//145 108//107
f 107//106 83//81 145//145
f 63//63 146//148 84//82
f 110//109 149//149 148//147
f 83//81 110//109 145//145
f 110//109 148//147 145//145
f 110//109 109//108 150//150
f 111//110 150//150 109//108
f 111//110 112//111 150//150
f 89//86 112//111 86//112
f 116//116 151//151 114//114
f 94//91 114//114 73//74
f 114//114 94//91 116//116
f 153//152 151//151 116//116
f 154//153 75//75 152//154
f 155//155 156//156 115//115
f 115//115 152//154 93//90
f 93//90 152//154 57//55
f 75//75 57//55 152//154
f 152//154 115//115 156//156
f 116//116 76//76 153//152
f 75//75 153//152 76//76
f 156//156 153//152 75//75
f 156//156 155//155 153//152
f 117//117 118//118 160//157
f 117//117 160//157 157//158
f 119//119 117//117 157//158
f 157//158 120//128 119//119
f 120//128 157//158 159//159
f 118//118 123//123 161//160
f 161//160 162//161 118//118
f 160//157 118//118 162//161
f 163//162 63//63 120//128
f 130//130 128//127 121//120
f 164//163 128//127 130//130
f 164//163 130//130 161//160
f 161//160 130//130 165//164
f 164//163 126//125 128//127
f 124//122 164//163 123//123
f 164//163 161//160 123//123
f 165//164 162//161 161//160
f 165//164 166//165 167//166
f 165//164 130//130 166//165
f 140//140 130//130 129//129
f 129//129 135//136 140//140
f 63//63 163//162 146//148
f 139//133 143//143 140//140
f 169//167 170//168 143//143
f 147//146 143//143 142//142
f 143//143 147//146 169//167
f 169//167 147//146 171//169
f 171//169 172//170 169//167
f 149//149 147//146 148//147
f 147//146 149//149 171//169
f 149//149 110//109 150//150
f 171//169 149//149 150//150
f 174//171 175//172 150//150
f 113//113 84//82 146//148
f 168//173 113//113 146//148
f 174//171 150//150 112//111
f 112//111 176//174 174//171
f 176//174 112//111 89//86
f 176//174 89//86 177//175
f 178//176 177//175 179//177
f 89//86 114//114 151//151
f 89//86 151//151 177//175
f 177//175 151//151 179//177
f 115//115 113//113 178//176
f 151//151 155//155 179//177
f 115//115 178//176 155//155
f 178//176 179//177 155//155
f 151//151 153//152 155//155
f 158//178 159//159 157//158
f 181//179 159//159 158//178
f 157//158 160//157 158//178
f 158//178 160//157 182//180
f 160//157 162//161 182//180
f 120//128 159//159 181//179
f 162//161 183//181 182//180
f 181//179 163//162 120//128
f 165//164 184//182 183//181
f 183//181 184//182 185//183
f 165//164 167//166 184//182
f 183//181 162//161 165//164
f 186//184 166//165 130//130
f 166//165 186//184 185//183
f 185//183 184//182 166//165
f 186//184 130//130 187//185
f 140//140 187//185 130//130
f 163//162 168//173 146//148
f 188//186 170//168 189//187
f 188//186 187//185 170//168
f 189//187 190//188 188//186
f 190//188 189//187 172//170
f 172//170 170//168 169//167
f 189//187 170//168 172//170
f 172//170 173//189 191//190
f 175//172 173//189 171//169
f 172//170 171//169 173//189
f 171//169 150//150 175//172
f 168//173 192//191 193//192
f 176//174 194//193 174//171
f 176//174 180//194 194//193
f 195//195 180//194 193//192
f 180//194 178//176 193//192
f 168//173 193//192 113//113
f 176//174 177//175 180//194
f 177//175 178//176 180//194
f 113//113 193//192 178//176
f 196//196 197//197 158//178
f 198//198 199//199 181//179
f 198//198 200//200 199//199
f 181//179 199//199 163//162
f 201//201 183//181 202//202
f 168//173 163//162 199//199
f 202//202 185//183 186//184
f 186//184 188//186 202//202
f 188//186 186//184 187//185
f 202//202 183//181 185//183
f 192//191 168//173 199//199
f 173//189 175//172 191//190
f 194//193 175//172 174//171
f 194//193 203//203 175//172
f 195//195 203//203 194//193
f 195//195 194//193 180//194
f 192//191 195//195 193//192
f 196//196 158//178 182//180
f 158//178 197//197 181//179
f 197//197 198//198 181//179
f 201//201 182//180 183//181
f 182//180 205//204 196//196
f 206//205 196//196 205//204
f 204//206 198//198 197//197
f 197//197 207//207 204//206
f 198//198 204//206 200//200
f 204//206 208//208 200//200
f 207//207 208//208 204//206
f 201//201 205//204 182//180
f 209//209 205//204 201//201
f 208//208 210//210 200//200
f 188//186 190//188 202//202
f 211//211 202//202 190//188
f 190//188 212//212 211//211
f 210//210 213//213 199//199
f 200//200 210//210 199//199
f 212//212 190//188 191//190
f 172//170 191//190 190//188
f 203//203 191//190 175//172
f 192//191 213//213 195//195
f 213//213 214//214 195//195
f 199//199 213//213 192//191
f 197//197 196//196 206//205
f 207//207 197//197 206//205
f 206//205 209//209 207//207
f 205//204 209//209 206//205
f 208//208 207//207 215//215
f 208//208 215//215 210//210
f 201//201 211//211 209//209
f 211//211 201//201 202//202
f 216//216 211//211 212//212
f 218//217 219//218 211//211
f 217//219 212//212 219//218
f 212//212 220//220 219//218
f 213//213 215//215 214//214
f 213//213 210//210 215//215
f 220//220 212//212 191//190
f 220//220 191//190 203//203
f 203//203 221//221 220//220
f 221//221 223//222 220//220
f 221//221 195//195 214//214
f 221//221 214//214 222//223
f 223//222 221//221 222//223
f 214//214 215//215 222//223
f 203//203 195//195 221//221
f 209//209 211//211 219//218
f 223//222 207//207 209//209
f 207//207 222//223 215//215
f 209//209 219//218 223//222
f 207//207 223//222 222//223
f 220//220 223//222 219//218
