#
# The license for this database is specified in the Creative Commons Attribution-Share Alike 2.1 Japan. If you use data from this database, please be sure attribute this database as follows: "BodyParts3D, (c)  The Database Center for Life Science licensed under CC Attribution-Share Alike 2.1 Japan".
# http://dbarchive.biosciencedbc.jp/en/bodyparts3d/lic.html
#
#
# Compatibility version : 4.0
# File ID : FJ3268
# Representation ID : BP9800
# Build-up logic : FMA 3.0 part_of
# Concept ID : FMA24438
# English name : Left lunate
# Bounds(mm): (236.339000,-127.131000,797.222000)-(252.883000,-110.628000,809.888000)
# Volume(cm3): 1.204500
#
v 238.11 -119.848 808.304
v 236.339 -118.52 806.312
v 236.794 -119.663 806.876
v 237.123 -118.904 807.766
v 237.292 -117.489 807.553
v 237.67 -115.394 805.937
v 237.287 -121.146 805.084
v 237.785 -121.658 805.53
v 238.102 -120.983 803.807
v 236.804 -118.991 805.092
v 237.556 -116.185 804.424
v 241.365 -120.635 809.622
v 238.857 -118.527 808.71
v 240.045 -122.032 808.143
v 239.02 -115.462 807.431
v 240.838 -113.588 806.463
v 241.493 -124.563 805.762
v 241.339 -124.309 803.777
v 240.764 -113.053 802.26
v 240.734 -123.91 803.18
v 243.096 -123.007 809.215
v 243.812 -121.836 809.888
v 243.551 -117.245 809.515
v 243.676 -114.981 808.431
v 242.718 -112.491 805.316
v 243.343 -125.59 806.057
v 241.688 -124.433 804.165
v 242.115 -124.832 804.751
v 241.983 -124.359 803.68
v 242.549 -124.746 803.767
v 243.056 -125.549 804.312
v 243.913 -126.228 803.078
v 244.284 -126.21 802.052
v 241.592 -124.291 803.357
v 241.606 -124.327 803.003
v 241.577 -124.153 802.2
v 241.994 -124.59 802.698
v 242.36 -124.605 803.354
v 242.82 -125.092 803.422
v 242.688 -125.161 802.778
v 242.761 -124.994 801.649
v 243.27 -125.679 803.553
v 243.09 -125.579 802.849
v 241.844 -119.052 800.091
v 243.176 -119.312 799.873
v 243.132 -118.214 799.656
v 243.276 -116.625 799.152
v 242.038 -115.434 799.445
v 242.786 -121.223 799.547
v 242.645 -121.969 799.429
v 243.772 -123.397 799.008
v 244.683 -112.504 806.061
v 245.005 -126.392 805.022
v 245.034 -126.427 804.329
v 245.457 -126.43 805.725
v 245.32 -126.544 803.983
v 245.717 -126.519 805.073
v 245.805 -126.407 804.684
v 245.713 -126.615 803.991
v 246.089 -126.626 805.076
v 246.027 -126.479 804.295
v 246.05 -126.73 804.013
v 246.599 -126.854 805.439
v 246.403 -126.634 804.718
v 246.43 -126.923 804.046
v 246.672 -126.435 806.543
v 246.797 -126.916 804.69
v 245.618 -126.77 803.658
v 245.676 -126.854 802.923
v 246.071 -126.908 803.699
v 244.139 -119.877 800.185
v 245.055 -117.987 800.644
v 243.802 -117.968 799.71
v 243.538 -115.559 798.756
v 244.076 -116.314 799.169
v 243.983 -115.793 798.863
v 244.722 -115.461 799.066
v 245.003 -114.461 798.438
v 243.305 -112.169 799.08
v 243.436 -112.408 798.531
v 244.161 -111.799 799.437
v 244.128 -111.975 798.277
v 244.219 -124.631 799.71
v 244.68 -125.244 800.116
v 245.207 -124.403 798.897
v 246.1 -124.41 798.796
v 244.439 -123.331 798.912
v 245.561 -123.475 799.164
v 244.147 -113.972 797.98
v 245.064 -112.907 797.346
v 245.699 -112.921 797.379
v 244.687 -112.183 797.566
v 244.604 -112.674 797.448
v 245.722 -111.93 797.81
v 245.734 -112.502 797.222
v 247.53 -124.571 808.744
v 247.936 -122.323 809.297
v 248.551 -115.97 807.961
v 247.546 -127.13 804.805
v 248.229 -126.769 806.114
v 248.99 -126.865 805.186
v 248.5 -120.326 802.456
v 247.477 -119.86 802.532
v 247.595 -118.97 802.402
v 248.744 -119.753 802.537
v 248.231 -110.804 802.626
v 247.547 -127.131 803.548
v 247.518 -123.33 800.555
v 247.504 -115.536 800.747
v 246.86 -111.186 799.598
v 247.29 -125.607 799.466
v 248.992 -125.197 799.561
v 249.439 -125.624 799.531
v 247.178 -112.755 797.721
v 247.192 -112.003 797.766
v 250.334 -125.541 806.31
v 250.301 -122.591 807.832
v 249.561 -112.154 803.813
v 249.043 -111.228 803.435
v 252.303 -124.219 803.753
v 250.644 -121.376 802.437
v 251.259 -120.499 803.667
v 251.417 -120.844 803.264
v 251.143 -120.066 803.111
v 251.242 -120.938 802.864
v 251.795 -121.985 803.273
v 250.401 -119.688 802.602
v 250.118 -117.642 802.188
v 250.876 -118.171 803.149
v 249.982 -115.615 801.317
v 250.413 -115.697 801.526
v 250.772 -115.505 802.233
v 249.895 -112.564 803.393
v 250.037 -111.764 802.816
v 250.476 -113.802 802.417
v 250.624 -113.821 801.202
v 250.784 -113.093 800.942
v 250.951 -111.754 801.046
v 249.576 -110.628 800.455
v 250.061 -110.734 801.296
v 252.125 -125.637 801.015
v 251.512 -123.554 801.68
v 251.474 -125.246 800.496
v 252.465 -124.857 802.746
v 249.854 -114.723 800.671
v 250.295 -114.662 800.832
v 249.875 -113.795 799.733
v 249.526 -112.849 798.173
v 250.507 -113.676 800.458
v 250.32 -112.659 798.157
v 251.281 -112.271 799.752
v 251.069 -112.764 799.544
v 251.017 -112.495 798.735
v 249.495 -111.355 798.281
v 250.413 -111.981 797.915
v 251.051 -111.637 799.312
v 249.905 -125.988 799.947
v 249.655 -112.103 797.616
v 252.883 -124.53 802.184
v 240.764 -113.053 802.26
v 242.645 -121.969 799.429
v 243.772 -123.397 799.008
v 245.207 -124.403 798.897
v 246.1 -124.41 798.796
v 246.1 -124.41 798.796
v 244.687 -112.183 797.566
v 245.734 -112.502 797.222
v 249.439 -125.624 799.531
v 249.439 -125.624 799.531
v 247.192 -112.003 797.766
v 250.301 -122.591 807.832
v 252.303 -124.219 803.753
v 251.417 -120.844 803.264
v 250.061 -110.734 801.296
v 252.125 -125.637 801.015
v 252.125 -125.637 801.015
v 251.474 -125.246 800.496
v 251.069 -112.764 799.544
v 251.017 -112.495 798.735
v 251.017 -112.495 798.735
v 250.413 -111.981 797.915
v 250.413 -111.981 797.915
v 249.905 -125.988 799.947
v 249.655 -112.103 797.616
v 249.655 -112.103 797.616
v 252.883 -124.53 802.184
v 252.883 -124.53 802.184
vn -0.550521 -0.311994 0.774329
vn -0.994823 0.0641067 0.078848
vn -0.794227 -0.461446 0.395311
vn -0.722289 -0.0343479 0.690738
vn -0.670919 0.356163 0.650397
vn -0.747198 0.633737 0.200181
vn -0.864337 -0.45774 -0.208316
vn -0.678119 -0.707149 0.200235
vn -0.73272 -0.26608 -0.626357
vn -0.847404 -0.0471841 -0.528847
vn -0.840466 0.307637 -0.446068
vn -0.310557 -0.182655 0.932841
vn -0.376686 0.178475 0.908985
vn -0.525035 -0.621271 0.581688
vn -0.377382 0.529325 0.759867
vn -0.347831 0.81248 0.467857
vn -0.53651 -0.842243 0.0527614
vn -0.258443 -0.954275 -0.150222
vn -0.748819 0.542001 -0.381451
vn -0.57131 -0.796185 -0.199238
vn -0.282088 -0.591589 0.75528
vn -0.0313177 -0.188289 0.981614
vn -0.0289699 0.25672 0.966052
vn -0.0442992 0.577515 0.815177
vn -0.267237 0.930858 0.249172
vn -0.414568 -0.852469 0.318481
vn -0.319059 -0.925523 -0.203982
vn -0.555887 -0.786116 -0.270206
vn -0.34955 -0.934853 -0.0621626
vn -0.692376 -0.711401 -0.120516
vn -0.652787 -0.750282 -0.104619
vn -0.456309 -0.889791 0.00741408
vn -0.365704 -0.862866 -0.348887
vn -0.280392 -0.95875 -0.0466835
vn -0.444935 -0.8955 0.0105567
vn -0.658277 -0.637836 -0.399796
vn -0.570415 -0.81989 0.0490527
vn -0.619826 -0.766103 0.170004
vn -0.757688 -0.639385 0.130753
vn -0.692884 -0.714658 0.0957875
vn -0.601237 -0.721882 -0.342637
vn -0.746134 -0.665767 -0.00626835
vn -0.696471 -0.717583 0.00164851
vn -0.349535 -0.0574621 -0.93516
vn 0.0771476 -0.0643357 -0.994942
vn 0.0318164 -0.267493 -0.963034
vn -0.0923219 -0.309363 -0.946452
vn -0.596445 -0.0760132 -0.799047
vn 0.0549056 0.241912 -0.968743
vn -0.70709 -0.289428 -0.645179
vn -0.608338 -0.510165 -0.607994
vn 0.00274068 0.804739 0.593622
vn -0.211848 -0.976988 0.0248078
vn -0.116543 -0.984929 0.127797
vn -0.285868 -0.944644 0.161022
vn -0.207705 -0.918692 0.335953
vn -0.218629 -0.966023 -0.137846
vn -0.193506 -0.973437 -0.122372
vn -0.246736 -0.823886 0.510228
vn -0.301654 -0.937707 -0.172369
vn -0.322101 -0.876786 0.357067
vn -0.365258 -0.768685 0.525081
vn -0.284339 -0.953816 0.0968857
vn -0.429497 -0.89948 -0.0804253
vn -0.359515 -0.875436 0.323049
vn -0.181797 -0.837073 0.516003
vn -0.41824 -0.903165 0.0967846
vn -0.298309 -0.913091 0.277986
vn -0.223552 -0.96696 -0.122528
vn -0.280876 -0.92277 0.263826
vn 0.430414 0.130471 -0.893153
vn 0.524627 -0.255117 -0.812208
vn 0.347179 -0.238491 -0.906967
vn -0.210515 -0.328335 -0.920804
vn 0.350533 -0.39507 -0.849145
vn 0.219114 -0.454042 -0.863617
vn 0.432365 -0.494985 -0.753691
vn 0.290939 -0.584528 -0.757418
vn -0.528565 0.805238 -0.26872
vn -0.688935 0.408595 -0.598681
vn -0.291457 0.955047 -0.0542014
vn -0.34406 0.870862 -0.351031
vn -0.484128 -0.63113 -0.606049
vn -0.367515 -0.753651 -0.544925
vn -0.294627 -0.646028 -0.704161
vn 0.311682 0.46679 -0.827624
vn -0.00784843 0.196296 -0.980513
vn 0.31963 0.47952 -0.81725
vn -0.133675 -0.404471 -0.904729
vn -0.118805 -0.287359 -0.950426
vn 0.132672 -0.498 -0.856968
vn -0.487856 0.378674 -0.786513
vn -0.437247 0.0378912 -0.898543
vn -0.0444596 0.859934 -0.508465
vn 0.0413636 -0.0777893 -0.996111
vn 0.183805 -0.540017 0.821338
vn 0.316452 -0.0326057 0.948048
vn 0.560234 0.388294 0.731687
vn -0.065877 -0.992226 0.105585
vn 0.12522 -0.884103 0.450203
vn 0.329099 -0.93083 0.1589
vn 0.107991 0.312236 -0.943847
vn 0.317961 0.11587 -0.940997
vn 0.226335 -0.271445 -0.935463
vn 0.0238883 -0.0236135 -0.999436
vn -0.112798 0.981154 0.156888
vn -0.0141314 -0.996399 -0.0836052
vn 0.332497 0.512036 -0.792
vn 0.300934 -0.563273 -0.76952
vn -0.138977 0.960592 -0.240723
vn -0.105997 -0.79801 -0.593249
vn 0.343917 0.5252 -0.778387
vn 0.332629 0.409066 -0.849719
vn 0.200891 -0.44213 -0.874165
vn -0.0321068 0.813405 -0.580811
vn 0.623054 -0.616332 0.481601
vn 0.614063 -0.208471 0.761227
vn 0.739486 0.404826 0.537844
vn 0.389282 0.745587 0.540887
vn 0.825795 -0.361247 0.433085
vn 0.235304 0.286647 -0.92869
vn 0.954918 0.256648 0.149208
vn 0.940425 0.328645 0.0871393
vn 0.864054 0.183128 -0.468909
vn 0.701282 0.330651 -0.631565
vn 0.944909 0.315414 0.0875297
vn 0.367875 0.0516368 -0.92844
vn 0.364695 -0.241934 -0.899147
vn 0.972991 0.0303737 -0.228837
vn 0.276062 -0.465333 -0.840985
vn 0.659225 -0.314228 -0.683142
vn 0.990359 -0.0360382 -0.133751
vn 0.888543 0.176796 0.42336
vn 0.801829 0.376467 0.46405
vn 0.955102 0.0734379 0.287032
vn 0.996508 -0.0775152 -0.0310351
vn 0.957195 -0.276182 0.0866116
vn 0.932909 0.251236 0.257993
vn 0.122634 0.980977 -0.15048
vn 0.111826 0.972266 0.205411
vn 0.506115 -0.859308 0.0737326
vn 0.396282 0.452498 -0.798878
vn 0.43896 0.467884 -0.767071
vn 0.762224 -0.574802 0.297687
vn 0.27107 -0.616516 -0.739208
vn 0.60071 -0.458137 -0.655178
vn 0.450662 -0.721241 -0.526037
vn 0.177708 -0.716307 -0.674777
vn 0.867104 -0.393097 -0.305949
vn 0.394319 -0.608104 -0.689001
vn 0.997076 -0.0763783 0.00255383
vn 0.585796 -0.739199 -0.332306
vn 0.557401 -0.755009 -0.345347
vn 0.118159 0.853394 -0.507698
vn 0.52555 -0.348766 -0.775989
vn 0.741113 0.632868 -0.22412
vn 0.0581369 -0.912976 -0.40385
vn -0.0581827 0.059985 -0.996502
vn 0.609134 0.36783 -0.702608
vn -0.384702 0.921394 0.0551227
vn -0.148023 0.175194 -0.973343
vn -0.145899 0.0416224 -0.988424
vn -0.122978 -0.0738297 -0.989659
vn -0.0376583 -0.516512 -0.855451
vn -0.112415 -0.0662331 -0.991452
vn -0.0751369 0.833466 -0.547438
vn 0.00194859 0.716646 -0.697434
vn 0.018647 -0.617366 -0.786455
vn 0.453595 -0.354493 -0.817671
vn 0.14075 0.0555856 -0.988484
vn 0.927611 0.204556 0.312561
vn 0.910793 0.273383 0.309383
vn 0.864406 0.25105 -0.435634
vn 0.678438 0.707544 0.197746
vn 0.450693 -0.343816 -0.823812
vn 0.690242 0.245974 -0.680488
vn 0.452153 -0.349161 -0.820758
vn 0.910861 -0.412671 -0.0059032
vn 0.647057 -0.333237 -0.685763
vn 0.948815 0.0326633 -0.314138
vn 0.848235 0.272286 -0.454265
vn 0.298201 0.768026 -0.566757
vn 0.452153 -0.349161 -0.820758
vn 0.219254 -0.531854 -0.81796
vn 0.0781599 0.671387 -0.736974
vn 0.794166 -0.54133 0.276155
vn 0.92916 0.358492 0.0902547
g grp1
usemtl mtl1
f 12//12 1//1 14//14 
f 1//1 12//12 13//13 
f 3//3 14//14 1//1 
f 8//8 14//14 3//3 
f 3//3 2//2 7//7 
f 7//7 2//2 10//10 
f 4//4 5//5 2//2 
f 3//3 4//4 2//2 
f 1//1 13//13 4//4 
f 13//13 5//5 4//4 
f 4//4 3//3 1//1 
f 5//5 13//13 15//15 
f 2//2 5//5 6//6 
f 2//2 11//11 10//10 
f 2//2 6//6 11//11 
f 5//5 15//15 6//6 
f 6//6 19//19 11//11 
f 3//3 7//7 8//8 
f 8//8 7//7 20//20 
f 9//9 20//20 7//7 
f 7//7 10//10 9//9 
f 20//20 17//17 8//8 
f 10//10 11//11 48//48 
f 23//23 13//13 12//12 
f 15//15 13//13 23//23 
f 26//26 14//14 17//17 
f 15//15 16//16 6//6 
f 24//24 15//15 23//23 
f 16//16 15//15 24//24 
f 6//6 16//16 160//160 
f 14//14 8//8 17//17 
f 17//17 20//20 18//18 
f 28//28 17//17 27//27 
f 27//27 17//17 18//18 
f 18//18 29//29 27//27 
f 29//29 18//18 34//34 
f 34//34 18//18 20//20 
f 20//20 9//9 36//36 
f 10//10 48//48 9//9 
f 25//25 160//160 16//16 
f 19//19 80//80 11//11 
f 34//34 20//20 35//35 
f 20//20 36//36 35//35 
f 9//9 50//50 36//36 
f 50//50 9//9 44//44 
f 9//9 48//48 44//44 
f 80//80 48//48 11//11 
f 21//21 14//14 26//26 
f 12//12 14//14 21//21 
f 22//22 12//12 21//21 
f 12//12 22//22 23//23 
f 23//23 22//22 97//97 
f 52//52 16//16 24//24 
f 21//21 26//26 66//66 
f 25//25 16//16 52//52 
f 31//31 17//17 28//28 
f 31//31 26//26 17//17 
f 32//32 26//26 31//31 
f 42//42 32//32 31//31 
f 28//28 27//27 29//29 
f 28//28 29//29 30//30 
f 30//30 31//31 28//28 
f 38//38 39//39 30//30 
f 29//29 38//38 30//30 
f 30//30 42//42 31//31 
f 39//39 42//42 30//30 
f 81//81 160//160 106//106 
f 41//41 32//32 43//43 
f 32//32 41//41 33//33 
f 41//41 84//84 33//33 
f 29//29 34//34 35//35 
f 29//29 35//35 37//37 
f 37//37 35//35 36//36 
f 38//38 29//29 37//37 
f 40//40 39//39 38//38 
f 38//38 37//37 40//40 
f 41//41 40//40 37//37 
f 37//37 36//36 41//41 
f 43//43 42//42 39//39 
f 39//39 40//40 43//43 
f 40//40 41//41 43//43 
f 51//51 41//41 36//36 
f 42//42 43//43 32//32 
f 49//49 45//45 71//71 
f 45//45 44//44 46//46 
f 45//45 46//46 73//73 
f 71//71 45//45 73//73 
f 48//48 47//47 44//44 
f 47//47 48//48 74//74 
f 47//47 46//46 44//44 
f 73//73 46//46 75//75 
f 47//47 75//75 46//46 
f 75//75 47//47 76//76 
f 47//47 74//74 76//76 
f 74//74 48//48 89//89 
f 79//79 80//80 19//19 
f 79//79 160//160 81//81 
f 41//41 51//51 83//83 
f 85//85 83//83 51//51 
f 161//161 44//44 49//49 
f 44//44 45//45 49//49 
f 50//50 51//51 36//36 
f 49//49 87//87 161//161 
f 162//162 161//161 87//87 
f 22//22 21//21 96//96 
f 24//24 23//23 98//98 
f 98//98 52//52 24//24 
f 96//96 21//21 66//66 
f 52//52 106//106 25//25 
f 66//66 26//26 55//55 
f 26//26 32//32 53//53 
f 53//53 32//32 54//54 
f 55//55 26//26 53//53 
f 54//54 58//58 53//53 
f 56//56 54//54 32//32 
f 55//55 53//53 57//57 
f 57//57 53//53 58//58 
f 61//61 56//56 59//59 
f 61//61 54//54 56//56 
f 59//59 56//56 68//68 
f 57//57 60//60 55//55 
f 57//57 58//58 60//60 
f 58//58 54//54 61//61 
f 59//59 62//62 61//61 
f 62//62 59//59 70//70 
f 70//70 59//59 68//68 
f 100//100 66//66 63//63 
f 66//66 55//55 63//63 
f 60//60 58//58 64//64 
f 58//58 61//61 64//64 
f 61//61 62//62 65//65 
f 70//70 107//107 65//65 
f 62//62 70//70 65//65 
f 63//63 99//99 100//100 
f 55//55 60//60 63//63 
f 63//63 64//64 67//67 
f 63//63 60//60 64//64 
f 64//64 61//61 67//67 
f 67//67 65//65 107//107 
f 67//67 61//61 65//65 
f 63//63 67//67 99//99 
f 67//67 107//107 99//99 
f 101//101 100//100 99//99 
f 25//25 106//106 160//160 
f 68//68 32//32 69//69 
f 69//69 32//32 33//33 
f 32//32 68//68 56//56 
f 69//69 33//33 111//111 
f 33//33 84//84 111//111 
f 69//69 107//107 70//70 
f 70//70 68//68 69//69 
f 107//107 69//69 111//111 
f 108//108 88//88 71//71 
f 108//108 71//71 103//103 
f 73//73 72//72 71//71 
f 71//71 72//72 103//103 
f 72//72 104//104 103//103 
f 72//72 109//109 104//104 
f 72//72 73//73 75//75 
f 75//75 109//109 72//72 
f 76//76 77//77 75//75 
f 77//77 76//76 78//78 
f 77//77 109//109 75//75 
f 77//77 78//78 109//109 
f 74//74 89//89 76//76 
f 89//89 78//78 76//76 
f 81//81 82//82 79//79 
f 79//79 82//82 80//80 
f 110//110 82//82 81//81 
f 94//94 82//82 110//110 
f 41//41 83//83 84//84 
f 84//84 83//83 85//85 
f 163//163 162//162 87//87 
f 111//111 84//84 85//85 
f 112//112 86//86 88//88 
f 111//111 85//85 164//164 
f 87//87 165//165 163//163 
f 112//112 113//113 86//86 
f 168//168 111//111 164//164 
f 88//88 87//87 49//49 
f 88//88 86//86 87//87 
f 71//71 88//88 49//49 
f 112//112 88//88 108//108 
f 48//48 93//93 89//89 
f 93//93 48//48 80//80 
f 78//78 89//89 91//91 
f 91//91 89//89 90//90 
f 89//89 93//93 90//90 
f 90//90 95//95 91//91 
f 93//93 95//95 90//90 
f 114//114 78//78 91//91 
f 95//95 114//114 91//91 
f 80//80 92//92 93//93 
f 92//92 80//80 82//82 
f 94//94 166//166 82//82 
f 95//95 93//93 92//92 
f 94//94 167//167 166//166 
f 22//22 96//96 97//97 
f 117//117 97//97 96//96 
f 97//97 117//117 98//98 
f 98//98 23//23 97//97 
f 66//66 100//100 96//96 
f 116//116 96//96 100//100 
f 117//117 96//96 116//116 
f 98//98 119//119 52//52 
f 98//98 118//118 119//119 
f 106//106 52//52 119//119 
f 101//101 99//99 107//107 
f 116//116 100//100 101//101 
f 116//116 101//101 141//141 
f 103//103 102//102 108//108 
f 102//102 103//103 105//105 
f 108//108 102//102 121//121 
f 102//102 105//105 121//121 
f 128//128 104//104 109//109 
f 105//105 103//103 104//104 
f 105//105 104//104 128//128 
f 110//110 81//81 106//106 
f 106//106 119//119 140//140 
f 112//112 108//108 143//143 
f 109//109 78//78 114//114 
f 114//114 148//148 109//109 
f 109//109 147//147 145//145 
f 115//115 94//94 110//110 
f 111//111 157//157 107//107 
f 157//157 111//111 168//168 
f 114//114 95//95 170//170 
f 115//115 167//167 94//94 
f 98//98 171//171 135//135 
f 118//118 134//134 119//119 
f 133//133 118//118 98//98 
f 98//98 135//135 133//133 
f 117//117 116//116 120//120 
f 171//171 172//172 126//126 
f 128//128 127//127 105//105 
f 127//127 121//121 105//105 
f 125//125 121//121 127//127 
f 171//171 126//126 122//122 
f 123//123 122//122 126//126 
f 122//122 123//123 124//124 
f 125//125 173//173 126//126 
f 125//125 124//124 173//173 
f 127//127 124//124 125//125 
f 124//124 127//127 128//128 
f 129//129 171//171 122//122 
f 171//171 129//129 132//132 
f 122//122 124//124 129//129 
f 132//132 129//129 131//131 
f 129//129 124//124 128//128 
f 131//131 129//129 128//128 
f 130//130 128//128 109//109 
f 128//128 130//130 131//131 
f 130//130 146//146 131//131 
f 145//145 146//146 130//130 
f 171//171 132//132 135//135 
f 132//132 131//131 146//146 
f 136//136 135//135 132//132 
f 134//134 118//118 133//133 
f 135//135 134//134 133//133 
f 132//132 149//149 136//136 
f 138//138 134//134 135//135 
f 135//135 136//136 137//137 
f 135//135 137//137 138//138 
f 136//136 149//149 137//137 
f 151//151 138//138 137//137 
f 119//119 134//134 174//174 
f 134//134 138//138 174//174 
f 139//139 110//110 106//106 
f 154//154 110//110 139//139 
f 106//106 140//140 139//139 
f 174//174 156//156 139//139 
f 156//156 154//154 139//139 
f 138//138 156//156 174//174 
f 141//141 101//101 107//107 
f 141//141 107//107 157//157 
f 175//175 183//183 177//177 
f 108//108 142//142 143//143 
f 125//125 159//159 142//142 
f 159//159 143//143 142//142 
f 120//120 116//116 144//144 
f 141//141 144//144 116//116 
f 159//159 176//176 143//143 
f 141//141 186//186 144//144 
f 144//144 186//186 120//120 
f 125//125 126//126 187//187 
f 142//142 108//108 121//121 
f 121//121 125//125 142//142 
f 130//130 109//109 145//145 
f 109//109 148//148 147//147 
f 170//170 158//158 114//114 
f 184//184 148//148 114//114 
f 146//146 145//145 147//147 
f 132//132 146//146 149//149 
f 146//146 147//147 149//149 
f 148//148 150//150 147//147 
f 150//150 148//148 184//184 
f 147//147 152//152 149//149 
f 147//147 153//153 152//152 
f 150//150 153//153 147//147 
f 150//150 155//155 179//179 
f 184//184 155//155 150//150 
f 151//151 137//137 178//178 
f 149//149 178//178 137//137 
f 181//181 156//156 180//180 
f 138//138 151//151 156//156 
f 180//180 151//151 178//178 
f 151//151 180//180 156//156 
f 110//110 154//154 115//115 
f 154//154 185//185 115//115 
f 182//182 185//185 154//154 
f 156//156 182//182 154//154 
f 169//169 177//177 183//183 
f 143//143 113//113 112//112 
f 187//187 126//126 172//172 
