#
# The license for this database is specified in the Creative Commons Attribution-Share Alike 2.1 Japan. If you use data from this database, please be sure attribute this database as follows: "BodyParts3D, (c)  The Database Center for Life Science licensed under CC Attribution-Share Alike 2.1 Japan".
# http://dbarchive.biosciencedbc.jp/en/bodyparts3d/lic.html
#
#
# Compatibility version : 4.0
# File ID : FJ3283
# Representation ID : BP10102
# Build-up logic : FMA 3.0 part_of
# Concept ID : FMA24444
# English name : Left trapezium
# Bounds(mm): (264.781000,-134.554000,785.747000)-(281.795000,-117.710000,805.793000)
# Volume(cm3): 1.488400
#
v 264.961 -126.887 798.111
v 264.922 -127.484 797.185
v 264.781 -127.117 797.126
v 265.227 -127.831 798.651
v 265.092 -126.489 796.986
v 265.153 -127.238 796.36
v 265.49 -127.591 796.316
v 265.374 -126.714 796.221
v 267.484 -132.105 804.405
v 268.082 -132.623 804.47
v 269.057 -133.357 803.144
v 267.447 -130.911 803.671
v 268.414 -129.798 805.355
v 268.097 -129.87 803.167
v 267.971 -128.596 802.623
v 268.675 -128.985 804.049
v 268.213 -127.753 803.154
v 266.905 -132.994 802.079
v 267.627 -133.373 803.115
v 267.785 -130.617 801.615
v 267.443 -128.919 799.561
v 268.042 -129.792 802.067
v 267.245 -133.168 799.257
v 267.434 -133.817 799.824
v 267.324 -132.077 799.67
v 267.404 -133.495 797.938
v 268.216 -134.139 800.11
v 267.643 -131.808 797.695
v 268.239 -130.578 799.415
v 265.984 -128.436 798.041
v 266.949 -128.597 796.907
v 268.003 -134.036 797.422
v 267.929 -133.387 796.503
v 268.676 -133.711 795.987
v 267.618 -132.089 796.592
v 268.085 -131.305 796.291
v 268.475 -132.525 795.412
v 267.015 -127.844 794.838
v 267.002 -127.472 794.403
v 267.338 -127.552 793.893
v 267.38 -126.939 794.18
v 267.805 -127.737 792.795
v 269.253 -130 805.793
v 270.018 -132.491 803.831
v 269.09 -128.888 804.671
v 269.722 -128.037 804.382
v 269.011 -134.537 797.121
v 269.46 -134.427 796.549
v 269.823 -134.554 797.845
v 270.51 -134.252 796.493
v 270.9 -134.296 797.272
v 268.972 -131.278 794.483
v 268.531 -129.141 794.418
v 269.197 -129.66 793.952
v 269.418 -131.925 794.323
v 269.678 -130.603 793.875
v 270.565 -130.574 793.238
v 270.624 -131.015 793.26
v 270.797 -130.728 792.94
v 271.056 -131.505 793.402
v 270.945 -130.405 792.44
v 269.103 -128.961 793.398
v 269.84 -129.508 793.455
v 269.665 -128.005 791.222
v 270.456 -129.375 792.563
v 268.818 -126.691 791.297
v 268.951 -127.294 790.992
v 270.78 -129.043 790.548
v 269.248 -126.747 790.013
v 269.45 -126.108 790.113
v 270.263 -127.268 789.169
v 270.509 -125.963 788.355
v 273.615 -129.789 803.092
v 272.726 -123.723 802.532
v 273.596 -121.331 799.993
v 271.717 -120.198 798.198
v 271.936 -119.757 797.618
v 272.439 -119.973 798.393
v 272.317 -133.519 798.312
v 273.405 -132.777 798.94
v 273.302 -133.367 797.68
v 270.69 -120.515 795.656
v 272.585 -119.615 795.722
v 271.959 -132.996 795.345
v 272.505 -133.596 797.014
v 271.732 -130.662 792.537
v 272.346 -128.24 788.624
v 271.068 -124.069 788.828
v 272.036 -123.65 788.254
v 272.315 -122.579 788.295
v 272.049 -124.238 788.007
v 272.343 -124.465 787.639
v 272.369 -123.263 788.246
v 272.674 -122.913 788.168
v 272.992 -123.593 788.143
v 273.02 -122.933 788.009
v 273.024 -122.247 787.907
v 272.513 -127.123 786.916
v 272.095 -125.293 787.166
v 273.121 -124.962 786.563
v 274.568 -127.088 803.923
v 276.913 -131.3 799.751
v 276.06 -129.454 801.824
v 275.45 -121.981 798.428
v 274.705 -120.484 796.69
v 276.15 -122.46 797.276
v 276.227 -133.045 797.132
v 276.138 -131.926 795.152
v 274.708 -119.062 793.927
v 274.278 -118.336 792.363
v 275.639 -118.22 791.514
v 275.151 -128.86 792.18
v 273.129 -118.748 790.698
v 274.102 -117.843 790.598
v 274.089 -118.638 788.909
v 274.594 -117.71 790.536
v 275.203 -117.758 789.672
v 276.214 -126.529 788.456
v 273.376 -123.946 787.441
v 273.672 -123.295 787.543
v 274.303 -122.559 787.288
v 275.34 -122.529 787.08
v 274.13 -119.916 788.029
v 275.172 -118.549 788.438
v 273.438 -126.141 786.078
v 274.238 -127.526 786.613
v 274.187 -127.132 786.014
v 274.898 -127.123 785.935
v 274.848 -126.784 785.765
v 274.814 -126.377 785.747
v 275.292 -127.182 786.491
v 275.25 -126.769 785.814
v 275.189 -126.386 785.75
v 275.799 -126.634 786.201
v 275.937 -126.218 786.112
v 275.553 -126.319 785.86
v 276.172 -126.085 786.566
v 275.847 -125.495 786.165
v 274.381 -123.87 786.746
v 274.755 -124.765 786.053
v 275.439 -123.891 786.635
v 278.426 -125.798 802.095
v 276.789 -122.697 799.4
v 278.876 -124.073 800.327
v 279.096 -132.164 798.681
v 279.16 -125.232 796.933
v 277.614 -122.962 795.106
v 278.56 -132.312 795.754
v 279.454 -132.69 796.938
v 277.659 -131.006 795.032
v 278.695 -127.948 795.195
v 277.806 -126.017 793.607
v 277.375 -126.623 793.037
v 277.285 -122.029 794.179
v 277.6 -122.805 793.983
v 276.756 -119.477 792.411
v 277.434 -125.813 792.227
v 277.477 -120.214 791.075
v 276.596 -118.48 789.604
v 276.866 -119.223 788.785
v 276.622 -124.36 787.128
v 277.507 -123.455 789.108
v 275.887 -119.695 787.792
v 276.2 -118.703 788.489
v 279.889 -128.822 800.566
v 281.289 -128.44 799.271
v 280.813 -131.874 797.743
v 280.783 -131.894 797.055
v 281.429 -131.142 797.214
v 281.086 -130.831 798.716
v 280.957 -130.421 796.435
v 281.443 -130.071 798.809
v 281.506 -128.513 798.424
v 281.506 -130.868 798.195
v 281.201 -128.919 797.071
v 281.555 -130.405 797.036
v 281.795 -129.767 798.321
v 281.782 -130.292 797.699
v 281.756 -129.592 797.593
v 280.59 -131.299 796.296
v 264.961 -126.887 798.111
v 264.781 -127.117 797.126
v 265.227 -127.831 798.651
v 265.153 -127.238 796.36
v 267.484 -132.105 804.405
v 267.484 -132.105 804.405
v 268.082 -132.623 804.47
v 268.082 -132.623 804.47
v 268.414 -129.798 805.355
v 268.414 -129.798 805.355
v 267.971 -128.596 802.623
v 268.675 -128.985 804.049
v 268.213 -127.753 803.154
v 266.905 -132.994 802.079
v 267.443 -128.919 799.561
v 267.002 -127.472 794.403
v 267.338 -127.552 793.893
v 267.805 -127.737 792.795
v 269.253 -130 805.793
v 269.253 -130 805.793
v 269.253 -130 805.793
v 269.46 -134.427 796.549
v 268.531 -129.141 794.418
v 268.531 -129.141 794.418
v 270.945 -130.405 792.44
v 268.951 -127.294 790.992
v 269.248 -126.747 790.013
v 271.936 -119.757 797.618
v 272.439 -119.973 798.393
v 270.69 -120.515 795.656
v 270.69 -120.515 795.656
v 272.585 -119.615 795.722
v 274.568 -127.088 803.923
v 276.227 -133.045 797.132
v 274.708 -119.062 793.927
v 275.151 -128.86 792.18
v 275.151 -128.86 792.18
v 274.102 -117.843 790.598
v 274.594 -117.71 790.536
v 278.426 -125.798 802.095
v 278.876 -124.073 800.327
v 278.56 -132.312 795.754
v 278.56 -132.312 795.754
v 279.454 -132.69 796.938
v 279.454 -132.69 796.938
v 280.783 -131.894 797.055
vn -0.892126 -0.0472828 0.449306
vn -0.767927 -0.61145 -0.190831
vn -0.953197 -0.3022 -0.00954848
vn -0.939926 -0.134068 0.313951
vn -0.827873 0.536858 -0.162512
vn -0.73804 -0.520692 -0.429159
vn -0.58878 -0.701428 -0.401668
vn -0.755267 0.326595 -0.568249
vn -0.697112 -0.548509 0.461707
vn -0.58578 -0.60959 0.534099
vn 0.195215 -0.907436 0.37209
vn -0.923843 0.374595 0.0786952
vn -0.486608 -0.157714 0.859267
vn -0.95375 0.279979 0.109416
vn -0.942697 -0.0661883 0.327019
vn -0.748216 0.572662 0.33501
vn -0.87309 -0.0545435 0.484498
vn -0.999045 0.0401949 -0.0171415
vn -0.434134 -0.830617 0.348715
vn -0.9061 0.413608 -0.0889439
vn -0.368453 -0.929432 0.019963
vn -0.989914 0.137401 -0.0345279
vn -0.995029 -0.0255056 -0.0962605
vn -0.712305 -0.701823 0.00816343
vn -0.937767 0.329374 -0.110025
vn -0.911955 -0.359245 -0.198193
vn -0.219174 -0.967831 0.123554
vn -0.920215 0.381432 -0.0878239
vn -0.983142 0.167696 -0.0728664
vn -0.488717 -0.867917 -0.0887502
vn -0.460101 -0.869754 -0.178421
vn -0.588697 -0.777778 -0.220221
vn -0.775476 -0.415236 -0.475622
vn -0.453562 -0.648646 -0.611178
vn -0.941919 0.0975623 -0.321358
vn -0.932214 0.209753 -0.294925
vn -0.707856 -0.282114 -0.647574
vn -0.610233 -0.696814 -0.376915
vn -0.667155 -0.559831 -0.49142
vn -0.723427 -0.594465 -0.351089
vn -0.743009 0.347491 -0.572003
vn -0.567103 -0.719681 -0.400567
vn -0.420416 -0.226151 0.878696
vn 0.443669 -0.663364 0.602583
vn -0.520971 0.673574 0.524296
vn -0.529618 0.560121 0.637
vn -0.289017 -0.938648 -0.188172
vn -0.146841 -0.767435 -0.624084
vn 0.151559 -0.986626 0.0599962
vn 0.222495 -0.896093 -0.384074
vn 0.324387 -0.945891 -0.00794772
vn -0.748095 -0.0712429 -0.659756
vn -0.894065 -0.413895 -0.171285
vn -0.663705 -0.331439 -0.670555
vn -0.497955 -0.365954 -0.786205
vn -0.559694 -0.181152 -0.808657
vn -0.737726 -0.260826 -0.62268
vn -0.561134 -0.308948 -0.767906
vn -0.695032 -0.407975 -0.592019
vn -0.140349 -0.686386 -0.713566
vn -0.808029 -0.408391 -0.424625
vn -0.550647 -0.661576 -0.509024
vn -0.563623 -0.545923 -0.619917
vn -0.601028 -0.682358 -0.416117
vn -0.760334 -0.51538 -0.395317
vn -0.904843 0.25484 -0.341051
vn -0.597253 -0.644333 -0.477623
vn -0.579255 -0.675486 -0.45627
vn -0.9044 0.208585 -0.372227
vn -0.849272 0.387893 -0.358157
vn -0.62782 -0.540598 -0.559996
vn -0.732045 0.0628335 -0.678352
vn 0.488802 -0.575531 0.65562
vn -0.164486 0.650524 0.74146
vn 0.364737 0.818437 0.443991
vn -0.568384 0.69862 0.43459
vn -0.534688 0.818428 0.210438
vn 0.328477 0.919044 0.217854
vn 0.364964 -0.897315 0.248249
vn 0.333823 -0.81382 0.475667
vn 0.225592 -0.938425 0.261662
vn -0.783254 0.514668 -0.348757
vn 0.226722 0.941655 0.248764
vn 0.207754 -0.827297 -0.521937
vn 0.284603 -0.951855 -0.113902
vn 0.0775343 -0.753519 -0.652838
vn -0.17257 -0.83738 -0.518667
vn -0.705258 0.416478 -0.573722
vn -0.308333 0.209595 -0.927901
vn -0.477835 0.166016 -0.862619
vn -0.401696 0.470691 -0.785551
vn -0.465274 0.592409 -0.657702
vn -0.17641 0.0351116 -0.98369
vn -0.353943 -0.0858193 -0.931321
vn -0.407973 0.253875 -0.876987
vn -0.523938 -0.135348 -0.840934
vn -0.483102 0.0368076 -0.87479
vn -0.490978 -0.533133 -0.688992
vn -0.580601 0.340549 -0.739546
vn -0.450915 0.478255 -0.753623
vn 0.453127 -0.391391 0.80093
vn 0.0920099 -0.785803 0.611594
vn 0.291633 -0.62039 0.728057
vn 0.576975 0.800243 0.163432
vn 0.497346 0.791956 0.354192
vn 0.708393 0.670661 0.219985
vn 0.126747 -0.910027 0.394698
vn 0.162021 -0.720656 -0.674095
vn 0.232617 0.86779 0.439124
vn -0.0703099 0.932748 0.353606
vn 0.375327 0.881673 0.285975
vn 0.262744 -0.862862 -0.431781
vn -0.766361 0.582418 -0.271074
vn -0.518585 0.813075 -0.264533
vn -0.560641 0.643014 -0.521742
vn 0.0763426 0.959887 0.269795
vn 0.0601478 0.959869 -0.273923
vn 0.847005 -0.503706 -0.169888
vn -0.529627 0.556629 -0.640046
vn -0.607276 0.147156 -0.780744
vn -0.369269 0.237851 -0.898369
vn 0.0195542 0.290074 -0.956804
vn -0.431267 0.37099 -0.82242
vn -0.118685 0.653794 -0.747306
vn -0.421803 0.013543 -0.906586
vn 0.00508323 -0.909341 -0.416021
vn -0.247643 -0.546063 -0.800305
vn 0.172817 -0.72547 -0.666204
vn -0.0607674 -0.220916 -0.973398
vn -0.107584 0.0648965 -0.992076
vn 0.530972 -0.791966 -0.301429
vn 0.396612 -0.437638 -0.806952
vn 0.140664 0.0264359 -0.989704
vn 0.727278 -0.522536 -0.444997
vn 0.750845 -0.113696 -0.650619
vn 0.437545 -0.0296427 -0.898708
vn 0.913642 -0.293654 -0.281116
vn 0.461835 0.247285 -0.851797
vn -0.341095 0.449791 -0.825435
vn -0.00921957 0.335044 -0.942158
vn 0.22832 0.395314 -0.889717
vn 0.266173 0.567088 0.779464
vn 0.532773 0.84623 0.00686646
vn 0.342281 0.732022 0.589057
vn 0.23291 -0.762454 0.603669
vn 0.824439 0.518739 -0.226295
vn 0.794411 0.576249 0.191961
vn 0.0322389 -0.903995 -0.426326
vn 0.330871 -0.917426 0.221029
vn 0.368956 -0.367795 -0.85358
vn 0.680912 -0.0193512 -0.73211
vn 0.922508 -0.0277753 -0.384978
vn 0.837236 -0.371697 -0.401095
vn 0.866424 0.437438 0.240745
vn 0.970956 0.238989 -0.0113603
vn 0.740178 0.587744 0.32664
vn 0.958182 -0.195267 -0.209182
vn 0.952568 0.303015 0.0282214
vn 0.695597 0.716798 -0.0484265
vn 0.830218 0.324205 -0.453463
vn 0.701338 0.142043 -0.698533
vn 0.975006 -0.0911663 -0.202612
vn 0.234837 0.345141 -0.908696
vn 0.417913 0.685044 -0.596711
vn 0.505349 -0.333787 0.795744
vn 0.849905 0.124286 0.51207
vn 0.600655 -0.752625 0.269757
vn 0.645124 -0.764058 -0.00554911
vn 0.853996 -0.464957 -0.233464
vn 0.534653 -0.527089 0.660547
vn 0.632743 0.0422373 -0.773209
vn 0.741609 -0.253799 0.620969
vn 0.916078 0.396573 -0.059419
vn 0.830957 -0.447458 0.330592
vn 0.758812 0.310408 -0.572582
vn 0.831466 -0.0547577 -0.55287
vn 0.969782 -0.0294854 0.242183
vn 0.97964 -0.183039 -0.0824725
vn 0.946966 0.183869 -0.263528
vn 0.556194 -0.343161 -0.756894
vn -0.703833 0.640983 0.306202
vn -0.893728 0.351819 -0.278343
vn -0.585317 -0.807374 0.0745001
vn -0.795001 0.182288 -0.578571
vn -0.420416 -0.226151 0.878696
vn -0.943272 0.152253 0.295053
vn -0.350254 -0.292453 0.889828
vn 0.187985 -0.741532 0.644044
vn -0.821404 0.490739 0.290638
vn -0.203679 0.68048 0.703891
vn -0.489728 -0.852534 0.182627
vn -0.890771 0.0463904 0.452079
vn -0.523471 0.553059 0.648154
vn -0.718729 -0.642248 0.266356
vn -0.901062 -0.433486 0.0133053
vn -0.728565 0.210867 -0.651712
vn -0.825315 0.285225 -0.487342
vn -0.841205 0.322292 -0.434168
vn -0.377886 0.624189 0.683806
vn 0.402357 -0.487027 0.775186
vn 0.0870636 0.420928 0.902906
vn 0.121387 -0.983935 -0.130907
vn -0.651953 -0.665201 -0.363957
vn -0.979226 0.202768 0.00108862
vn -0.160364 -0.737598 -0.655921
vn -0.906604 0.0143117 -0.421739
vn -0.698708 -0.407435 -0.58805
vn 0.198396 0.969972 0.140689
vn -0.278742 0.748819 0.60131
vn -0.611726 0.788988 0.0573556
vn -0.212299 0.90537 0.367741
vn -0.420192 0.895402 -0.147286
vn 0.163842 0.452144 0.876768
vn 0.102256 -0.896355 -0.431383
vn -0.412798 0.88488 -0.215836
vn 0.661847 -0.29557 -0.688909
vn 0.754101 -0.631622 -0.17996
vn -0.255287 0.92433 0.283625
vn -0.281108 0.926775 -0.249133
vn 0.681722 0.0263277 0.731138
vn 0.828446 0.551299 0.098725
vn 0.265125 -0.319655 -0.909686
vn 0.482864 -0.660188 -0.575321
vn 0.0809399 -0.930254 -0.357878
vn 0.462915 -0.654346 -0.597948
vn 0.572182 -0.568665 -0.590955
g grp1
usemtl mtl1
f 15//15 1//1 4//4 
f 3//3 2//2 4//4 
f 1//1 3//3 4//4 
f 181//181 5//5 182//182 
f 2//2 3//3 6//6 
f 182//182 5//5 8//8 
f 184//184 182//182 8//8 
f 2//2 30//30 183//183 
f 30//30 191//191 183//183 
f 30//30 2//2 7//7 
f 6//6 7//7 2//2 
f 21//21 191//191 30//30 
f 8//8 5//5 82//82 
f 7//7 6//6 39//39 
f 196//196 184//184 8//8 
f 38//38 7//7 39//39 
f 38//38 30//30 7//7 
f 19//19 10//10 9//9 
f 185//185 187//187 43//43 
f 188//188 11//11 44//44 
f 11//11 188//188 19//19 
f 13//13 185//185 43//43 
f 189//189 12//12 186//186 
f 189//189 16//16 12//12 
f 12//12 16//16 14//14 
f 192//192 15//15 14//14 
f 15//15 192//192 17//17 
f 190//190 199//199 45//45 
f 16//16 189//189 45//45 
f 45//45 46//46 16//16 
f 193//193 16//16 46//46 
f 17//17 1//1 15//15 
f 181//181 193//193 74//74 
f 186//186 12//12 18//18 
f 12//12 25//25 18//18 
f 194//194 19//19 9//9 
f 18//18 23//23 24//24 
f 18//18 25//25 23//23 
f 19//19 194//194 24//24 
f 24//24 27//27 19//19 
f 11//11 19//19 27//27 
f 11//11 27//27 49//49 
f 12//12 14//14 20//20 
f 14//14 22//22 20//20 
f 12//12 20//20 25//25 
f 29//29 25//25 20//20 
f 22//22 29//29 20//20 
f 14//14 15//15 22//22 
f 15//15 29//29 22//22 
f 195//195 29//29 15//15 
f 24//24 23//23 26//26 
f 23//23 35//35 26//26 
f 25//25 28//28 23//23 
f 23//23 28//28 35//35 
f 24//24 32//32 27//27 
f 28//28 25//25 29//29 
f 36//36 28//28 29//29 
f 35//35 28//28 36//36 
f 195//195 53//53 29//29 
f 30//30 38//38 31//31 
f 30//30 31//31 21//21 
f 8//8 82//82 41//41 
f 5//5 181//181 210//210 
f 181//181 76//76 210//210 
f 26//26 32//32 24//24 
f 34//34 32//32 33//33 
f 33//33 32//32 26//26 
f 35//35 33//33 26//26 
f 33//33 35//35 37//37 
f 34//34 33//33 37//37 
f 32//32 47//47 27//27 
f 32//32 34//34 47//47 
f 34//34 48//48 47//47 
f 34//34 37//37 55//55 
f 35//35 36//36 52//52 
f 203//203 54//54 36//36 
f 36//36 54//54 52//52 
f 29//29 204//204 36//36 
f 31//31 38//38 203//203 
f 38//38 39//39 40//40 
f 197//197 196//196 41//41 
f 21//21 31//31 203//203 
f 40//40 203//203 38//38 
f 42//42 203//203 40//40 
f 196//196 8//8 41//41 
f 41//41 198//198 197//197 
f 198//198 41//41 82//82 
f 188//188 44//44 200//200 
f 44//44 101//101 200//200 
f 199//199 46//46 45//45 
f 74//74 193//193 46//46 
f 79//79 11//11 49//49 
f 44//44 11//11 79//79 
f 76//76 181//181 74//74 
f 27//27 47//47 49//49 
f 47//47 202//202 49//49 
f 202//202 50//50 49//49 
f 60//60 48//48 34//34 
f 55//55 60//60 34//34 
f 79//79 49//49 51//51 
f 51//51 49//49 50//50 
f 60//60 50//50 48//48 
f 60//60 84//84 50//50 
f 84//84 85//85 50//50 
f 50//50 85//85 51//51 
f 37//37 35//35 52//52 
f 55//55 37//37 52//52 
f 52//52 54//54 56//56 
f 56//56 55//55 52//52 
f 55//55 56//56 58//58 
f 58//58 56//56 57//57 
f 60//60 58//58 59//59 
f 60//60 55//55 58//58 
f 57//57 59//59 58//58 
f 57//57 61//61 59//59 
f 60//60 59//59 61//61 
f 60//60 108//108 84//84 
f 86//86 108//108 60//60 
f 86//86 60//60 205//205 
f 203//203 42//42 62//62 
f 54//54 203//203 62//62 
f 63//63 62//62 42//42 
f 56//56 54//54 63//63 
f 63//63 54//54 62//62 
f 63//63 42//42 64//64 
f 64//64 42//42 67//67 
f 63//63 64//64 65//65 
f 64//64 68//68 65//65 
f 63//63 57//57 56//56 
f 65//65 57//57 63//63 
f 57//57 65//65 61//61 
f 65//65 68//68 61//61 
f 206//206 198//198 66//66 
f 198//198 82//82 66//66 
f 206//206 66//66 69//69 
f 82//82 70//70 66//66 
f 68//68 86//86 205//205 
f 87//87 86//86 68//68 
f 71//71 64//64 67//67 
f 207//207 71//71 67//67 
f 66//66 70//70 69//69 
f 70//70 72//72 69//69 
f 68//68 64//64 71//71 
f 71//71 207//207 72//72 
f 70//70 82//82 88//88 
f 98//98 71//71 72//72 
f 71//71 87//87 68//68 
f 98//98 87//87 71//71 
f 70//70 88//88 72//72 
f 80//80 73//73 44//44 
f 73//73 80//80 103//103 
f 73//73 101//101 44//44 
f 73//73 103//103 101//101 
f 46//46 199//199 74//74 
f 78//78 75//75 105//105 
f 210//210 76//76 77//77 
f 76//76 74//74 209//209 
f 209//209 77//77 76//76 
f 75//75 209//209 74//74 
f 80//80 44//44 79//79 
f 81//81 80//80 79//79 
f 81//81 79//79 85//85 
f 107//107 80//80 81//81 
f 107//107 81//81 85//85 
f 78//78 83//83 208//208 
f 77//77 212//212 210//210 
f 78//78 105//105 83//83 
f 83//83 105//105 109//109 
f 212//212 215//215 210//210 
f 85//85 79//79 51//51 
f 214//214 85//85 84//84 
f 214//214 84//84 108//108 
f 108//108 86//86 150//150 
f 113//113 88//88 82//82 
f 87//87 112//112 86//86 
f 125//125 98//98 72//72 
f 125//125 72//72 99//99 
f 99//99 72//72 88//88 
f 88//88 90//90 89//89 
f 88//88 89//89 91//91 
f 89//89 90//90 93//93 
f 92//92 88//88 91//91 
f 99//99 88//88 92//92 
f 89//89 95//95 91//91 
f 89//89 93//93 95//95 
f 95//95 93//93 94//94 
f 94//94 93//93 90//90 
f 95//95 92//92 91//91 
f 95//95 94//94 96//96 
f 96//96 94//94 97//97 
f 94//94 90//90 97//97 
f 119//119 92//92 95//95 
f 99//99 92//92 100//100 
f 100//100 92//92 119//119 
f 96//96 120//120 95//95 
f 97//97 120//120 96//96 
f 98//98 125//125 127//127 
f 87//87 126//126 112//112 
f 98//98 126//126 87//87 
f 127//127 126//126 98//98 
f 99//99 100//100 125//125 
f 101//101 103//103 165//165 
f 74//74 201//201 213//213 
f 74//74 144//144 75//75 
f 102//102 103//103 80//80 
f 146//146 106//106 143//143 
f 75//75 144//144 143//143 
f 75//75 143//143 104//104 
f 143//143 106//106 104//104 
f 107//107 102//102 80//80 
f 145//145 102//102 107//107 
f 104//104 106//106 105//105 
f 104//104 105//105 75//75 
f 154//154 156//156 106//106 
f 156//156 105//105 106//106 
f 148//148 214//214 108//108 
f 216//216 151//151 150//150 
f 211//211 109//109 110//110 
f 110//110 109//109 111//111 
f 150//150 86//86 112//112 
f 217//217 118//118 153//153 
f 123//123 90//90 88//88 
f 82//82 114//114 113//113 
f 113//113 114//114 115//115 
f 88//88 113//113 115//115 
f 123//123 88//88 115//115 
f 110//110 218//218 211//211 
f 117//117 115//115 114//114 
f 218//218 110//110 116//116 
f 219//219 117//117 114//114 
f 111//111 116//116 110//110 
f 117//117 124//124 115//115 
f 116//116 111//111 117//117 
f 118//118 217//217 131//131 
f 119//119 95//95 120//120 
f 120//120 139//139 119//119 
f 139//139 120//120 121//121 
f 121//121 122//122 139//139 
f 139//139 122//122 141//141 
f 122//122 161//161 141//141 
f 90//90 123//123 97//97 
f 120//120 97//97 121//121 
f 97//97 123//123 121//121 
f 122//122 121//121 123//123 
f 123//123 163//163 122//122 
f 124//124 123//123 115//115 
f 163//163 123//123 124//124 
f 127//127 125//125 129//129 
f 128//128 126//126 127//127 
f 127//127 129//129 128//128 
f 129//129 125//125 130//130 
f 140//140 130//130 125//125 
f 131//131 112//112 126//126 
f 131//131 126//126 128//128 
f 132//132 131//131 128//128 
f 132//132 128//128 129//129 
f 132//132 129//129 133//133 
f 129//129 130//130 133//133 
f 133//133 130//130 140//140 
f 131//131 132//132 134//134 
f 140//140 138//138 136//136 
f 136//136 134//134 132//132 
f 133//133 136//136 132//132 
f 136//136 133//133 140//140 
f 136//136 135//135 134//134 
f 138//138 135//135 136//136 
f 134//134 118//118 131//131 
f 118//118 134//134 137//137 
f 118//118 137//137 162//162 
f 137//137 134//134 135//135 
f 161//161 137//137 135//135 
f 138//138 161//161 135//135 
f 125//125 100//100 140//140 
f 100//100 119//119 139//139 
f 140//140 100//100 139//139 
f 141//141 140//140 139//139 
f 140//140 141//141 138//138 
f 161//161 138//138 141//141 
f 74//74 213//213 142//142 
f 142//142 144//144 74//74 
f 166//166 221//221 220//220 
f 145//145 103//103 102//102 
f 103//103 145//145 165//165 
f 165//165 220//220 101//101 
f 146//146 143//143 221//221 
f 145//145 107//107 149//149 
f 170//170 165//165 145//145 
f 149//149 167//167 145//145 
f 170//170 145//145 167//167 
f 149//149 168//168 167//167 
f 146//146 147//147 106//106 
f 147//147 154//154 106//106 
f 222//222 108//108 150//150 
f 224//224 214//214 148//148 
f 225//225 223//223 180//180 
f 222//222 150//150 180//180 
f 180//180 151//151 171//171 
f 175//175 171//171 151//151 
f 150//150 151//151 180//180 
f 216//216 153//153 151//151 
f 151//151 153//153 152//152 
f 146//146 152//152 155//155 
f 155//155 152//152 157//157 
f 151//151 152//152 146//146 
f 147//147 146//146 155//155 
f 147//147 155//155 154//154 
f 154//154 155//155 156//156 
f 156//156 109//109 105//105 
f 158//158 156//156 155//155 
f 156//156 111//111 109//109 
f 159//159 111//111 156//156 
f 153//153 118//118 157//157 
f 153//153 157//157 152//152 
f 157//157 118//118 162//162 
f 155//155 157//157 162//162 
f 155//155 162//162 158//158 
f 158//158 162//162 160//160 
f 160//160 159//159 158//158 
f 159//159 156//156 158//158 
f 159//159 117//117 111//111 
f 164//164 124//124 117//117 
f 160//160 164//164 159//159 
f 159//159 164//164 117//117 
f 162//162 161//161 160//160 
f 160//160 161//161 163//163 
f 163//163 161//161 122//122 
f 164//164 163//163 124//124 
f 164//164 160//160 163//163 
f 162//162 137//137 161//161 
f 165//165 166//166 220//220 
f 166//166 165//165 172//172 
f 173//173 221//221 166//166 
f 170//170 167//167 174//174 
f 168//168 169//169 167//167 
f 167//167 169//169 174//174 
f 172//172 165//165 170//170 
f 170//170 174//174 172//172 
f 180//180 171//171 176//176 
f 172//172 174//174 177//177 
f 174//174 178//178 177//177 
f 173//173 179//179 175//175 
f 174//174 169//169 178//178 
f 178//178 169//169 176//176 
f 178//178 176//176 179//179 
f 179//179 176//176 175//175 
f 176//176 169//169 180//180 
f 175//175 176//176 171//171 
f 166//166 172//172 177//177 
f 173//173 166//166 177//177 
f 177//177 178//178 179//179 
f 179//179 173//173 177//177 
f 173//173 146//146 221//221 
f 175//175 151//151 146//146 
f 146//146 173//173 175//175 
f 180//180 226//226 225//225 
f 180//180 169//169 226//226 
