#
# The license for this database is specified in the Creative Commons Attribution-Share Alike 2.1 Japan. If you use data from this database, please be sure attribute this database as follows: "BodyParts3D, (c)  The Database Center for Life Science licensed under CC Attribution-Share Alike 2.1 Japan".
# http://dbarchive.biosciencedbc.jp/en/bodyparts3d/lic.html
#
#
# Compatibility version : 4.0
# File ID : FJ3293
# Representation ID : BP9398
# Build-up logic : FMA 3.0 part_of
# Concept ID : FMA32643
# English name : Middle phalanx of left second toe
# Bounds(mm): (125.127000,-224.629000,-67.953600)-(139.212000,-207.529000,-59.341300)
# Volume(cm3): 0.458300
#
v 125.334 -212.459 -63.7372
v 126.941 -210.573 -66.2312
v 125.335 -210.941 -64.9712
v 125.836 -210.418 -65.4501
v 125.645 -210.392 -64.8495
v 125.16 -211.584 -64.5905
v 125.808 -211.405 -65.7206
v 125.525 -210.78 -64.1927
v 125.53 -212.014 -65.3141
v 125.17 -211.314 -64.0174
v 125.127 -211.713 -63.8751
v 125.248 -211.832 -63.3611
v 125.56 -211.593 -63.1453
v 128.344 -209.246 -66.0901
v 128.761 -208.657 -65.1779
v 126.737 -209.666 -65.419
v 126.815 -209.812 -64.3596
v 129.796 -208.12 -66.098
v 126.473 -213.119 -65.7709
v 128.136 -213.867 -65.9219
v 126 -213.185 -64.2789
v 127.21 -213.793 -64.9523
v 128.541 -211.42 -66.6236
v 127.68 -212.934 -66.4319
v 128.996 -211.86 -66.4924
v 129.22 -211.527 -66.5637
v 129.757 -211.944 -66.31
v 129.246 -213.35 -66.1866
v 126.054 -211.908 -61.8799
v 127.254 -210.952 -62.8485
v 126.016 -212.32 -61.5168
v 126.49 -211.943 -60.9639
v 126.225 -212.826 -61.7073
v 126.765 -212.256 -60.3757
v 127.778 -211.349 -60.6489
v 131.288 -210.094 -67.6925
v 131.029 -211.286 -67.1292
v 129.258 -211.029 -66.7911
v 129.524 -211.324 -66.6891
v 130.228 -208.933 -67.1021
v 130.79 -207.904 -66.8901
v 131.209 -208.39 -67.3549
v 131.654 -207.932 -67.1553
v 131.656 -207.658 -66.8471
v 132.045 -208.191 -67.2898
v 132.126 -207.79 -66.9432
v 131.991 -207.529 -66.3923
v 132.694 -208.355 -67.0328
v 132.667 -207.768 -66.3522
v 132.283 -209.869 -67.7818
v 130.971 -207.666 -66.4789
v 129.711 -208.469 -65.0344
v 131.841 -207.72 -65.69
v 130.946 -208.839 -64.3716
v 132.629 -207.648 -66.054
v 129.574 -216.171 -64.9303
v 130.852 -214.682 -66.216
v 127.121 -213.274 -61.4265
v 127.227 -211.909 -60.0449
v 128.564 -212.752 -59.8977
v 132.513 -211.131 -67.7188
v 133.152 -210.807 -67.6046
v 133.025 -211.892 -67.2992
v 133.761 -211.707 -67.0051
v 133.103 -212.867 -66.8855
v 133.403 -208.703 -66.214
v 133.686 -210.196 -66.7746
v 132.658 -208.309 -64.5187
v 133.529 -208.551 -64.9632
v 131.744 -209.29 -60.966
v 132.767 -209.019 -61.2383
v 131.367 -209.653 -60.2675
v 133.516 -208.406 -64.5168
v 133.651 -208.388 -64.0821
v 133.076 -208.556 -63.3855
v 133.884 -208.629 -64.0269
v 133.778 -208.528 -63.6439
v 134.039 -209.11 -62.8601
v 133.753 -208.781 -62.6533
v 131.481 -219.062 -65.9465
v 131.05 -219.633 -65.5476
v 130.638 -218.691 -65.1585
v 130.501 -218.484 -64.4721
v 130.827 -219.692 -65.2475
v 134.625 -215.703 -66.7161
v 133.604 -214.297 -66.7457
v 129.847 -215.292 -61.8148
v 133.789 -212.814 -66.8878
v 134.103 -212.384 -66.5155
v 134.583 -214.041 -66.4711
v 134.773 -213.937 -66.1689
v 130.394 -211.782 -59.3413
v 131.208 -212.575 -59.6869
v 134.191 -209.612 -63.2073
v 134.184 -210.089 -62.5719
v 134.461 -212.015 -63.718
v 132.909 -209.259 -60.9999
v 132.829 -210.455 -60.3594
v 133.762 -209.072 -62.1783
v 132.07 -221.904 -67.1723
v 131.857 -222.549 -67.1012
v 132.571 -222.398 -67.1963
v 131.114 -221.857 -66.566
v 130.895 -221.831 -65.9927
v 131.206 -221.524 -66.5428
v 130.855 -221.182 -65.4126
v 131.68 -221.697 -66.9776
v 131.208 -222.536 -66.4215
v 131.793 -223.09 -66.7023
v 132.073 -222.946 -66.9483
v 131.167 -222.509 -65.1382
v 134.187 -220.425 -67.2291
v 134.383 -220.9 -67.2606
v 134.894 -220.346 -67.3707
v 131.009 -220.914 -65.7653
v 131.643 -220.772 -66.4053
v 132.082 -221.173 -66.8769
v 132.914 -219.692 -66.7744
v 130.783 -219.968 -64.6461
v 131.586 -220.617 -63.5089
v 131.867 -218.449 -62.7381
v 135.218 -215.441 -66.54
v 135.672 -216.454 -66.8144
v 135.388 -217.707 -67.206
v 136.129 -217.332 -67.2962
v 136.412 -218.168 -67.906
v 136.949 -217.705 -67.7747
v 136.535 -217.105 -67.0853
v 136.508 -216.492 -66.4247
v 135.435 -214.947 -65.8672
v 135.726 -215.188 -64.0042
v 133.941 -213.381 -61.8083
v 133.547 -223.313 -66.4158
v 132.1 -224.153 -65.4792
v 132.515 -224.298 -65.6588
v 132.594 -224.586 -65.1356
v 132.308 -224.319 -64.6211
v 133.01 -224.337 -65.3312
v 133.082 -224.629 -63.9279
v 133.457 -224.422 -64.1351
v 132.795 -224.021 -63.6762
v 134.775 -221.491 -63.4692
v 136.039 -220.655 -67.2202
v 136.91 -218.534 -67.9536
v 137.892 -218.001 -67.7323
v 137.903 -217.709 -67.3095
v 138.038 -218.468 -67.6902
v 137.835 -219.116 -67.5675
v 138.371 -218.369 -67.3202
v 137.198 -217.276 -67.0617
v 137.392 -217.183 -66.5312
v 138.694 -218.486 -65.5247
v 135.362 -216.874 -63.1674
v 133.963 -223.88 -63.1851
v 134.664 -223.546 -63.9422
v 135.551 -222.793 -64.7309
v 135.121 -223.066 -64.3285
v 135.559 -222.48 -63.9774
v 138.647 -220.171 -66.6178
v 138.732 -220.531 -66.2044
v 138.801 -220.579 -65.3599
v 136.833 -219.907 -63.6324
v 139.212 -219.818 -66.0798
v 139.096 -219.86 -65.3786
v 128.761 -208.657 -65.1779
v 126.737 -209.666 -65.419
v 129.796 -208.12 -66.098
v 126.016 -212.32 -61.5168
v 126.49 -211.943 -60.9639
v 126.765 -212.256 -60.3757
v 132.629 -207.648 -66.054
v 132.629 -207.648 -66.054
v 129.574 -216.171 -64.9303
v 129.574 -216.171 -64.9303
v 127.227 -211.909 -60.0449
v 127.227 -211.909 -60.0449
v 127.227 -211.909 -60.0449
v 133.516 -208.406 -64.5168
v 133.651 -208.388 -64.0821
v 133.778 -208.528 -63.6439
v 130.394 -211.782 -59.3413
v 131.208 -212.575 -59.6869
v 132.909 -209.259 -60.9999
v 131.586 -220.617 -63.5089
v 131.867 -218.449 -62.7381
v 135.726 -215.188 -64.0042
v 132.594 -224.586 -65.1356
v 133.082 -224.629 -63.9279
v 137.892 -218.001 -67.7323
v 137.892 -218.001 -67.7323
v 138.694 -218.486 -65.5247
v 133.963 -223.88 -63.1851
v 135.559 -222.48 -63.9774
v 138.801 -220.579 -65.3599
v 139.212 -219.818 -66.0798
v 139.096 -219.86 -65.3786
v 139.096 -219.86 -65.3786
vn -0.897233 -0.43853 0.051613
vn -0.362454 0.236196 -0.901575
vn -0.908191 0.247583 -0.337478
vn -0.675273 0.477343 -0.562273
vn -0.718078 0.694629 0.0430649
vn -0.980085 -0.0799825 -0.181759
vn -0.625312 0.00585619 -0.780353
vn -0.61595 0.674374 0.407216
vn -0.847807 -0.300587 -0.436888
vn -0.892755 0.401563 0.204295
vn -0.995016 -0.0575541 0.0814307
vn -0.902689 0.21242 0.374206
vn -0.560782 0.66135 0.498136
vn -0.476726 0.562245 -0.675731
vn -0.492727 0.816163 -0.301825
vn -0.426621 0.660816 -0.617508
vn -0.403174 0.799654 0.444977
vn -0.526603 0.778335 -0.341883
vn -0.570811 -0.579135 -0.582046
vn -0.307402 -0.565432 -0.76537
vn -0.634639 -0.77124 -0.0492136
vn -0.551987 -0.814721 -0.177593
vn -0.0614312 -0.167854 -0.983896
vn -0.176999 -0.23944 -0.954641
vn 0.13176 -0.219115 -0.966762
vn 0.0286729 -0.38566 -0.922195
vn -0.0546623 -0.333293 -0.941237
vn 0.0212679 -0.213552 -0.9767
vn -0.652213 0.650417 0.389327
vn -0.329398 0.82817 0.453465
vn -0.831211 -0.419166 0.365224
vn -0.784414 0.372353 0.496032
vn -0.664787 -0.66836 0.333695
vn -0.495867 -0.592842 0.63455
vn -0.435179 0.86652 0.244464
vn -0.260285 -0.0634366 -0.963446
vn -0.24545 -0.469298 -0.848242
vn -0.246128 -0.164176 -0.955231
vn -0.140062 -0.502261 -0.853298
vn -0.438153 0.233777 -0.867969
vn -0.37483 0.67937 -0.63084
vn -0.195 0.346396 -0.917597
vn -0.0419926 0.633676 -0.772458
vn -0.0566263 0.877603 -0.476032
vn 0.200956 0.451226 -0.869489
vn 0.296229 0.751608 -0.58935
vn 0.108194 0.985711 -0.129108
vn 0.602883 0.431447 -0.671108
vn 0.612985 0.717956 -0.329831
vn 0.152751 0.170889 -0.973378
vn -0.248155 0.968616 -0.0142176
vn -0.202985 0.850073 0.485975
vn -0.0911308 0.911103 0.401978
vn -0.155031 0.775264 0.612316
vn 0.333151 0.888882 -0.314484
vn -0.559051 -0.323908 -0.763247
vn -0.238873 -0.166247 -0.956714
vn -0.501868 -0.792336 0.346888
vn -0.715403 0.420591 0.557945
vn -0.238679 -0.519014 0.820766
vn -0.0297597 -0.276949 -0.960424
vn 0.509579 0.0177267 -0.860241
vn 0.123046 -0.358669 -0.92532
vn 0.686193 -0.0378016 -0.726437
vn -0.137356 -0.278676 -0.950512
vn 0.842572 0.436417 -0.315614
vn 0.904829 0.227836 -0.359687
vn -0.0641209 0.931253 0.358687
vn 0.828192 0.529258 -0.184344
vn -0.315707 0.925968 0.207152
vn 0.143966 0.89593 0.420219
vn -0.0899632 0.724276 0.683616
vn 0.737553 0.642463 -0.207981
vn 0.0543189 0.987891 0.14533
vn -0.14975 0.963425 0.22223
vn 0.85486 0.504988 -0.119169
vn 0.792166 0.602835 0.0952055
vn 0.899521 0.397297 0.181706
vn 0.479238 0.823908 0.3025
vn -0.631552 0.00550066 -0.775314
vn -0.754463 0.055437 -0.653997
vn -0.864781 -0.188551 -0.465406
vn -0.928696 -0.299633 0.218504
vn -0.941709 -0.0511816 -0.332511
vn 0.046865 0.176533 -0.983178
vn 0.062594 -0.00764854 -0.99801
vn -0.526004 -0.623318 0.578615
vn 0.385022 -0.103085 -0.917132
vn 0.879659 0.200358 -0.431342
vn 0.571259 0.162128 -0.804598
vn 0.837492 0.374453 -0.397986
vn 0.141288 0.269663 0.952533
vn -0.140561 -0.510298 0.848433
vn 0.983653 0.178938 -0.0202058
vn 0.938393 0.120334 0.323942
vn 0.981296 0.185203 0.0525136
vn 0.309706 0.66159 0.682921
vn 0.597173 0.155403 0.786914
vn 0.746631 0.466757 0.474004
vn -0.216953 0.084612 -0.972508
vn -0.447976 -0.235295 -0.862527
vn 0.0261769 -0.220791 -0.97497
vn -0.806477 0.0434361 -0.589667
vn -0.980595 -0.0852595 -0.176537
vn -0.682131 0.36286 -0.634846
vn -0.996192 -0.0373547 -0.0787785
vn -0.455882 0.277819 -0.84557
vn -0.843284 -0.405012 -0.353323
vn -0.517496 -0.607492 -0.602621
vn -0.0824096 -0.579413 -0.810857
vn -0.91453 -0.341784 0.216374
vn -0.223784 0.110611 -0.968342
vn -0.0415131 -0.0790282 -0.996008
vn -0.072516 -0.180607 -0.980878
vn -0.85423 0.209634 -0.475757
vn -0.587604 0.319387 -0.743447
vn -0.366862 0.353537 -0.860479
vn -0.342691 0.0951988 -0.934612
vn -0.966845 -0.166868 0.193304
vn -0.812925 -0.238063 0.531487
vn -0.617224 -0.398305 0.678518
vn 0.459985 0.351212 -0.815515
vn 0.144213 0.445923 -0.883377
vn -0.262597 0.268756 -0.926722
vn -0.161993 0.534663 -0.829393
vn -0.248375 0.273311 -0.929307
vn 0.0977887 0.615324 -0.782185
vn 0.170944 0.708545 -0.684648
vn 0.518805 0.687952 -0.507507
vn 0.777261 0.540236 -0.322508
vn 0.815839 0.563109 -0.131586
vn 0.806447 0.0357655 0.590224
vn 0.321548 -0.670788 -0.668319
vn -0.707554 -0.679062 -0.195556
vn -0.0820313 -0.799509 -0.595026
vn 0.363826 -0.879809 -0.305886
vn -0.747774 -0.575142 0.331732
vn 0.474489 -0.816022 -0.330105
vn -0.518617 -0.66432 0.538252
vn 0.51618 -0.853473 -0.071712
vn -0.560397 -0.393429 0.728813
vn 0.171446 -0.129279 0.976675
vn 0.156125 -0.370878 -0.915464
vn 0.057565 -0.103121 -0.993002
vn 0.169483 0.0947822 -0.980965
vn 0.571268 0.747034 -0.339989
vn 0.515549 -0.116932 -0.848844
vn 0.300632 -0.369449 -0.879277
vn 0.842573 0.252529 -0.475709
vn 0.343818 0.798203 -0.494632
vn 0.609009 0.769724 -0.191397
vn 0.837939 0.545022 -0.0284654
vn 0.552158 -0.00554661 0.833721
vn -0.0406652 -0.16491 0.98547
vn 0.670221 -0.741593 0.0290541
vn 0.579544 -0.813865 -0.0418632
vn 0.656882 -0.75351 0.0269961
vn 0.440537 -0.233925 0.866721
vn 0.552167 -0.401899 -0.730471
vn 0.628886 -0.694894 -0.348747
vn 0.752612 -0.65532 0.0642718
vn 0.44016 -0.087209 0.893674
vn 0.934493 0.355494 0.0186294
vn 0.610744 0.0148213 0.79169
vn -0.314766 0.886811 0.338362
vn -0.532514 0.845983 0.0272271
vn -0.246215 0.926467 0.284671
vn -0.801781 0.385321 0.456809
vn -0.462238 0.839437 0.285802
vn -0.768082 0.342508 0.541053
vn 0.0788916 0.932579 0.352238
vn 0.786969 0.597055 -0.155582
vn -0.6328 -0.75315 0.179803
vn -0.930447 -0.362359 0.0544491
vn -0.44495 0.821887 0.355698
vn -0.273364 -0.272422 0.922528
vn -0.209427 0.469124 0.857941
vn 0.110241 0.98049 0.162745
vn 0.727886 0.675236 -0.119325
vn 0.0604362 0.961762 0.267135
vn -0.126938 -0.302479 0.944666
vn 0.472502 -0.170281 0.864723
vn 0.760049 0.266587 0.592669
vn -0.153022 -0.13196 0.979373
vn 0.127275 -0.23152 0.964469
vn 0.775817 0.214958 0.593212
vn -0.552511 -0.830813 -0.0669398
vn 0.480409 -0.877003 -0.00860333
vn 0.752018 0.358523 -0.55311
vn 0.272487 0.788263 -0.551718
vn 0.616275 0.223874 0.75504
vn 0.615447 -0.747768 0.249135
vn 0.689792 -0.669231 0.276255
vn 0.57035 -0.297553 0.765613
vn 0.864908 -0.395826 -0.308634
vn 0.918903 -0.37265 0.129417
vn 0.94022 0.293416 0.172899
g grp1
usemtl mtl1
f 19//19 21//21 9//9 
f 9//9 21//21 1//1 
f 6//6 9//9 1//1 
f 1//1 11//11 6//6 
f 14//14 2//2 16//16 
f 7//7 2//2 24//24 
f 9//9 6//6 3//3 
f 7//7 9//9 3//3 
f 10//10 5//5 3//3 
f 2//2 7//7 4//4 
f 7//7 3//3 4//4 
f 3//3 5//5 4//4 
f 2//2 4//4 16//16 
f 4//4 5//5 166//166 
f 6//6 10//10 3//3 
f 8//8 5//5 10//10 
f 10//10 13//13 8//8 
f 5//5 8//8 17//17 
f 9//9 7//7 19//19 
f 6//6 11//11 10//10 
f 13//13 17//17 8//8 
f 10//10 11//11 12//12 
f 1//1 12//12 11//11 
f 30//30 17//17 13//13 
f 10//10 12//12 13//13 
f 29//29 13//13 12//12 
f 40//40 38//38 14//14 
f 14//14 38//38 2//2 
f 5//5 17//17 166//166 
f 15//15 14//14 16//16 
f 17//17 165//165 166//166 
f 17//17 52//52 165//165 
f 30//30 52//52 17//17 
f 41//41 42//42 40//40 
f 40//40 14//14 41//41 
f 41//41 14//14 18//18 
f 41//41 18//18 51//51 
f 18//18 14//14 15//15 
f 52//52 167//167 165//165 
f 51//51 167//167 52//52 
f 24//24 19//19 7//7 
f 24//24 20//20 19//19 
f 19//19 22//22 21//21 
f 20//20 22//22 19//19 
f 20//20 56//56 22//22 
f 22//22 58//58 21//21 
f 21//21 58//58 33//33 
f 173//173 58//58 22//22 
f 21//21 33//33 1//1 
f 1//1 33//33 31//31 
f 23//23 24//24 2//2 
f 24//24 23//23 25//25 
f 26//26 25//25 23//23 
f 38//38 39//39 26//26 
f 23//23 38//38 26//26 
f 24//24 25//25 28//28 
f 28//28 25//25 27//27 
f 27//27 25//25 26//26 
f 27//27 26//26 39//39 
f 37//37 27//27 39//39 
f 20//20 24//24 28//28 
f 27//27 57//57 28//28 
f 12//12 1//1 31//31 
f 12//12 168//168 29//29 
f 30//30 13//13 29//29 
f 32//32 29//29 168//168 
f 31//31 33//33 34//34 
f 170//170 32//32 168//168 
f 29//29 169//169 30//30 
f 58//58 34//34 33//33 
f 32//32 170//170 59//59 
f 169//169 175//175 35//35 
f 40//40 36//36 38//38 
f 37//37 38//38 36//36 
f 50//50 61//61 36//36 
f 42//42 50//50 36//36 
f 37//37 36//36 61//61 
f 38//38 23//23 2//2 
f 37//37 39//39 38//38 
f 30//30 169//169 35//35 
f 75//75 30//30 35//35 
f 42//42 36//36 40//40 
f 41//41 43//43 42//42 
f 44//44 43//43 41//41 
f 51//51 44//44 41//41 
f 42//42 43//43 45//45 
f 46//46 43//43 44//44 
f 45//45 43//43 46//46 
f 44//44 51//51 47//47 
f 50//50 45//45 48//48 
f 46//46 48//48 45//45 
f 49//49 48//48 46//46 
f 46//46 44//44 47//47 
f 46//46 47//47 49//49 
f 51//51 53//53 47//47 
f 45//45 50//50 42//42 
f 49//49 47//47 55//55 
f 171//171 47//47 53//53 
f 69//69 49//49 172//172 
f 66//66 48//48 49//49 
f 49//49 69//69 66//66 
f 67//67 48//48 66//66 
f 52//52 53//53 51//51 
f 30//30 54//54 52//52 
f 52//52 54//54 53//53 
f 54//54 68//68 53//53 
f 171//171 53//53 68//68 
f 30//30 68//68 54//54 
f 20//20 57//57 56//56 
f 118//118 56//56 57//57 
f 58//58 173//173 87//87 
f 57//57 27//27 65//65 
f 86//86 57//57 65//65 
f 86//86 118//118 57//57 
f 57//57 20//20 28//28 
f 87//87 60//60 58//58 
f 60//60 176//176 34//34 
f 58//58 60//60 34//34 
f 65//65 27//27 37//37 
f 62//62 61//61 50//50 
f 62//62 50//50 48//48 
f 37//37 61//61 63//63 
f 65//65 37//37 63//63 
f 63//63 61//61 62//62 
f 62//62 64//64 63//63 
f 64//64 62//62 67//67 
f 48//48 67//67 62//62 
f 88//88 65//65 63//63 
f 64//64 88//88 63//63 
f 67//67 89//89 64//64 
f 89//89 88//88 64//64 
f 30//30 75//75 68//68 
f 72//72 35//35 175//175 
f 92//92 72//72 177//177 
f 98//98 72//72 92//92 
f 60//60 181//181 176//176 
f 67//67 66//66 69//69 
f 69//69 76//76 67//67 
f 67//67 76//76 94//94 
f 94//94 78//78 95//95 
f 35//35 72//72 70//70 
f 35//35 70//70 75//75 
f 75//75 70//70 71//71 
f 72//72 71//71 70//70 
f 97//97 71//71 72//72 
f 69//69 172//172 73//73 
f 171//171 68//68 178//178 
f 68//68 74//74 178//178 
f 74//74 68//68 75//75 
f 76//76 69//69 73//73 
f 76//76 73//73 179//179 
f 76//76 179//179 77//77 
f 74//74 75//75 180//180 
f 94//94 76//76 78//78 
f 78//78 76//76 77//77 
f 75//75 79//79 180//180 
f 78//78 77//77 79//79 
f 79//79 75//75 71//71 
f 78//78 79//79 99//99 
f 79//79 71//71 99//99 
f 99//99 71//71 97//97 
f 81//81 84//84 82//82 
f 80//80 81//81 82//82 
f 106//106 84//84 115//115 
f 84//84 81//81 115//115 
f 116//116 115//115 81//81 
f 80//80 116//116 81//81 
f 116//116 80//80 118//118 
f 120//120 121//121 83//83 
f 121//121 87//87 83//83 
f 84//84 119//119 83//83 
f 82//82 84//84 83//83 
f 120//120 83//83 119//119 
f 106//106 119//119 84//84 
f 174//174 83//83 87//87 
f 82//82 56//56 80//80 
f 83//83 174//174 82//82 
f 80//80 56//56 118//118 
f 118//118 86//86 85//85 
f 85//85 86//86 122//122 
f 60//60 87//87 93//93 
f 88//88 86//86 65//65 
f 89//89 90//90 88//88 
f 90//90 86//86 88//88 
f 89//89 67//67 96//96 
f 122//122 86//86 90//90 
f 90//90 89//89 91//91 
f 91//91 122//122 90//90 
f 131//131 91//91 89//89 
f 131//131 89//89 96//96 
f 91//91 130//130 122//122 
f 92//92 182//182 98//98 
f 60//60 93//93 181//181 
f 67//67 94//94 96//96 
f 78//78 99//99 95//95 
f 94//94 95//95 96//96 
f 95//95 132//132 96//96 
f 98//98 97//97 72//72 
f 132//132 95//95 98//98 
f 98//98 95//95 99//99 
f 99//99 183//183 98//98 
f 132//132 98//98 182//182 
f 100//100 107//107 112//112 
f 101//101 102//102 110//110 
f 102//102 101//101 100//100 
f 100//100 112//112 102//102 
f 102//102 133//133 110//110 
f 110//110 133//133 135//135 
f 101//101 108//108 103//103 
f 103//103 108//108 104//104 
f 103//103 105//105 107//107 
f 103//103 115//115 105//105 
f 103//103 104//104 115//115 
f 104//104 106//106 115//115 
f 107//107 105//105 116//116 
f 105//105 115//115 116//116 
f 107//107 100//100 101//101 
f 107//107 101//101 103//103 
f 111//111 106//106 104//104 
f 106//106 111//111 119//119 
f 117//117 112//112 107//107 
f 107//107 116//116 117//117 
f 101//101 109//109 108//108 
f 134//134 108//108 109//109 
f 101//101 110//110 109//109 
f 111//111 104//104 108//108 
f 109//109 110//110 135//135 
f 134//134 109//109 135//135 
f 134//134 111//111 108//108 
f 111//111 120//120 119//119 
f 118//118 112//112 117//117 
f 102//102 112//112 113//113 
f 113//113 112//112 114//114 
f 143//143 102//102 113//113 
f 143//143 113//113 114//114 
f 118//118 117//117 116//116 
f 124//124 118//118 85//85 
f 124//124 112//112 118//118 
f 112//112 124//124 126//126 
f 126//126 144//144 112//112 
f 112//112 144//144 114//114 
f 143//143 114//114 144//144 
f 127//127 144//144 126//126 
f 144//144 127//127 145//145 
f 85//85 122//122 123//123 
f 123//123 124//124 85//85 
f 129//129 123//123 122//122 
f 130//130 129//129 122//122 
f 123//123 129//129 128//128 
f 127//127 126//126 125//125 
f 124//124 125//125 126//126 
f 124//124 123//123 125//125 
f 128//128 127//127 125//125 
f 123//123 128//128 125//125 
f 127//127 128//128 150//150 
f 150//150 128//128 129//129 
f 130//130 131//131 129//129 
f 132//132 182//182 153//153 
f 186//186 132//132 153//153 
f 182//182 185//185 153//153 
f 93//93 87//87 121//121 
f 91//91 131//131 130//130 
f 132//132 186//186 96//96 
f 135//135 133//133 138//138 
f 111//111 134//134 137//137 
f 138//138 136//136 135//135 
f 135//135 187//187 134//134 
f 134//134 187//187 137//137 
f 137//137 120//120 111//111 
f 138//138 140//140 136//136 
f 141//141 120//120 137//137 
f 137//137 187//187 139//139 
f 136//136 140//140 188//188 
f 141//141 154//154 184//184 
f 141//141 137//137 139//139 
f 139//139 154//154 141//141 
f 133//133 102//102 143//143 
f 142//142 162//162 185//185 
f 142//142 185//185 184//184 
f 142//142 184//184 154//154 
f 144//144 148//148 143//143 
f 159//159 143//143 148//148 
f 133//133 143//143 159//159 
f 162//162 153//153 185//185 
f 148//148 144//144 147//147 
f 147//147 144//144 145//145 
f 149//149 147//147 189//189 
f 149//149 189//189 146//146 
f 152//152 149//149 146//146 
f 148//148 147//147 159//159 
f 149//149 159//159 147//147 
f 146//146 190//190 127//127 
f 127//127 150//150 146//146 
f 146//146 150//150 151//151 
f 151//151 150//150 129//129 
f 131//131 151//151 129//129 
f 152//152 151//151 131//131 
f 151//151 152//152 146//146 
f 149//149 152//152 163//163 
f 153//153 191//191 186//186 
f 192//192 188//188 140//140 
f 140//140 155//155 192//192 
f 138//138 155//155 140//140 
f 138//138 157//157 155//155 
f 156//156 138//138 133//133 
f 138//138 156//156 157//157 
f 158//158 142//142 154//154 
f 157//157 193//193 155//155 
f 155//155 193//193 192//192 
f 157//157 156//156 193//193 
f 160//160 156//156 133//133 
f 160//160 133//133 159//159 
f 160//160 159//159 195//195 
f 160//160 161//161 156//156 
f 195//195 161//161 160//160 
f 164//164 191//191 162//162 
f 156//156 161//161 193//193 
f 158//158 194//194 162//162 
f 162//162 194//194 164//164 
f 162//162 142//142 158//158 
f 149//149 195//195 159//159 
f 195//195 196//196 161//161 
f 197//197 163//163 152//152 
f 162//162 191//191 153//153 
