#
# The license for this database is specified in the Creative Commons Attribution-Share Alike 2.1 Japan. If you use data from this database, please be sure attribute this database as follows: "BodyParts3D, (c)  The Database Center for Life Science licensed under CC Attribution-Share Alike 2.1 Japan".
# http://dbarchive.biosciencedbc.jp/en/bodyparts3d/lic.html
#
#
# Compatibility version : 4.0
# File ID : FJ2773
# Representation ID : BP8764
# Build-up logic : FMA 3.0 is_a
# Concept ID : FMA55118
# English name : Left cuneiform cartilage
# Bounds(mm): (3.319700,-102.870000,1414.070000)-(5.065000,-100.193000,1417.330000)
# Volume(cm3): 0.004900
#
v 3.94181 -100.583 1414.07
v 4.20151 -100.722 1414.17
v 3.92345 -100.862 1414.16
v 4.34084 -100.493 1414.34
v 4.27588 -100.326 1414.47
v 4.08244 -100.429 1414.14
v 3.76859 -100.419 1414.11
v 3.91927 -100.289 1414.2
v 3.89457 -100.234 1414.3
v 3.70865 -100.296 1414.27
v 3.72024 -100.589 1414.11
v 3.6006 -100.562 1414.19
v 4.11928 -100.289 1414.31
v 3.54298 -100.435 1414.32
v 3.65634 -100.701 1414.17
v 3.99963 -100.204 1414.47
v 3.76115 -100.214 1414.51
v 3.50825 -100.72 1414.31
v 3.46009 -100.646 1414.38
v 3.85242 -100.193 1414.65
v 3.51274 -100.376 1414.58
v 3.73727 -100.223 1414.69
v 3.41037 -100.573 1414.59
v 4.06304 -100.213 1414.73
v 3.5865 -100.984 1414.36
v 3.44295 -100.877 1414.47
v 3.3807 -100.757 1414.6
v 4.4682 -100.902 1414.41
v 4.82812 -101.088 1414.99
v 4.35115 -101.194 1414.44
v 4.01181 -101.679 1414.72
v 3.69329 -101.407 1414.59
v 4.55213 -100.513 1414.78
v 4.44697 -100.422 1415.13
v 3.42374 -100.546 1414.99
v 3.31969 -100.945 1415.12
v 3.41339 -101.408 1414.91
v 3.83552 -100.253 1414.98
v 3.57448 -100.395 1415.07
v 4.04818 -100.328 1415.27
v 3.71726 -100.56 1415.64
v 4.76368 -101.824 1415.16
v 4.43087 -101.771 1414.87
v 4.16985 -102.239 1415.27
v 3.66423 -101.955 1415.19
v 4.87835 -100.957 1415.37
v 4.22415 -100.651 1415.96
v 4.62389 -100.787 1415.93
v 3.54207 -100.767 1415.75
v 3.81726 -100.964 1416.27
v 3.441 -101.328 1416.08
v 5.04933 -101.61 1415.7
v 4.88815 -102.289 1415.83
v 4.51371 -102.302 1415.43
v 4.28192 -102.619 1415.87
v 4.59212 -102.609 1415.96
v 3.89688 -102.438 1415.74
v 4.88856 -101.331 1416.35
v 3.45272 -101.94 1415.84
v 4.4773 -101.138 1416.56
v 5.06498 -102.127 1416.31
v 4.98015 -102.45 1416.61
v 4.85121 -102.541 1416.2
v 4.51955 -102.808 1416.42
v 4.78302 -102.72 1416.57
v 4.18388 -102.811 1416.58
v 4.77914 -102.731 1416.81
v 4.60416 -102.839 1416.77
v 4.39742 -102.87 1416.79
v 4.75256 -101.731 1416.94
v 4.95727 -102.141 1416.89
v 4.80493 -102.147 1417.13
v 4.58367 -102.063 1417.24
v 4.87994 -102.436 1417.03
v 4.36033 -102.073 1417.27
v 4.1712 -102.794 1416.9
v 4.67728 -102.326 1417.27
v 4.22219 -102.284 1417.28
v 3.93825 -102.661 1416.61
v 3.84258 -102.28 1416.93
v 3.91489 -102.581 1416.83
v 4.39514 -101.596 1417
v 3.97527 -101.824 1417.01
v 4.44972 -102.815 1417.06
v 4.19015 -102.685 1417.12
v 4.46694 -102.345 1417.33
v 4.64263 -102.745 1417.1
v 4.59311 -102.616 1417.25
v 4.40589 -102.684 1417.23
v 4.59311 -102.616 1417.25
v 4.40589 -102.684 1417.23
vn 0.0623245 -0.0204612 -0.997846
vn 0.464619 -0.115414 -0.877957
vn -0.0812479 -0.441822 -0.893416
vn 0.746039 0.370291 -0.553454
vn 0.558827 0.808478 -0.184596
vn 0.371037 0.412578 -0.831932
vn -0.307617 0.412562 -0.857418
vn 0.0472244 0.755632 -0.653292
vn -0.012817 0.938634 -0.344676
vn -0.446395 0.785505 -0.428618
vn -0.341606 -0.10312 -0.934169
vn -0.686368 0.0854423 -0.722218
vn 0.417188 0.787972 -0.45283
vn -0.781631 0.438163 -0.443921
vn -0.493188 -0.280555 -0.82344
vn 0.171853 0.975839 -0.134925
vn -0.301904 0.94596 -0.118377
vn -0.749064 -0.184052 -0.636418
vn -0.897376 0.0712284 -0.43548
vn -0.0788839 0.995621 0.0501604
vn -0.717322 0.694067 -0.0609926
vn -0.408363 0.907811 0.095494
vn -0.945089 0.294123 -0.142474
vn 0.22974 0.968897 0.0919729
vn -0.574715 -0.427897 -0.697572
vn -0.854614 -0.228119 -0.466473
vn -0.972362 -0.0197076 -0.232644
vn 0.736331 -0.114738 -0.666822
vn 0.915079 0.10371 -0.389711
vn 0.384013 -0.455041 -0.803413
vn -0.0654723 -0.648376 -0.7585
vn -0.419925 -0.582154 -0.696247
vn 0.810988 0.551171 -0.196238
vn 0.519255 0.840739 0.1534
vn -0.872314 0.470186 0.134137
vn -0.993962 0.09961 0.0460154
vn -0.858769 -0.364326 -0.360254
vn -0.184813 0.94951 0.253526
vn -0.590581 0.769308 0.243679
vn 0.0738505 0.94302 0.324438
vn -0.341652 0.827984 0.444653
vn 0.719254 -0.391634 -0.573844
vn 0.297411 -0.615263 -0.730067
vn -0.0839796 -0.777244 -0.623569
vn -0.547693 -0.673403 -0.496549
vn 0.887427 0.460704 0.0150134
vn 0.0953914 0.866581 0.489834
vn 0.575143 0.738923 0.351003
vn -0.760248 0.528332 0.378007
vn -0.390453 0.653771 0.648174
vn -0.890894 0.19338 0.410989
vn 0.985733 -0.0102187 -0.168005
vn 0.76642 -0.51229 -0.387504
vn 0.35231 -0.731075 -0.5843
vn -0.0456929 -0.903814 -0.42548
vn 0.392172 -0.816754 -0.423219
vn -0.507308 -0.798948 -0.322988
vn 0.844182 0.433182 0.31577
vn -0.923263 -0.384108 0.00690316
vn 0.273949 0.722972 0.634242
vn 0.990561 -0.135459 -0.0209483
vn 0.918691 -0.391186 0.0545864
vn 0.711688 -0.650881 -0.264299
vn 0.207455 -0.944303 -0.25545
vn 0.620438 -0.77217 -0.137149
vn -0.320259 -0.935459 -0.149499
vn 0.719571 -0.677939 0.150388
vn 0.343319 -0.938048 0.0468778
vn -0.062053 -0.99771 0.0269056
vn 0.579332 0.494539 0.647924
vn 0.924836 0.118814 0.361332
vn 0.701309 0.205347 0.682641
vn 0.31757 0.370758 0.872747
vn 0.830538 -0.26651 0.489059
vn -0.123265 0.351305 0.928111
vn -0.459651 -0.858072 0.228984
vn 0.53028 0.0109079 0.847753
vn -0.464672 -0.0446018 0.884359
vn -0.683787 -0.72968 -0.00132961
vn -0.82846 -0.142788 0.54154
vn -0.793449 -0.526084 0.306063
vn 0.0153163 0.592722 0.805262
vn -0.549544 0.347469 0.759781
vn -0.0355046 -0.917835 0.395372
vn -0.54958 -0.562249 0.617931
vn 0.0518054 -0.00667185 0.998635
vn 0.470308 -0.744753 0.473449
vn 0.458619 -0.290195 0.839914
vn 0.0296764 -0.776237 0.629742
vn 0.204981 -0.713316 0.670197
vn -0.239947 -0.278824 0.929883
g grp1
usemtl mtl1
f 28//28 2//2 4//4 
f 30//30 2//2 28//28 
f 28//28 4//4 29//29 
f 2//2 3//3 1//1 
f 3//3 2//2 30//30 
f 25//25 15//15 3//3 
f 13//13 4//4 6//6 
f 13//13 5//5 4//4 
f 29//29 4//4 33//33 
f 33//33 4//4 5//5 
f 6//6 1//1 7//7 
f 1//1 11//11 7//7 
f 8//8 6//6 7//7 
f 8//8 7//7 10//10 
f 7//7 14//14 10//10 
f 8//8 10//10 9//9 
f 2//2 6//6 4//4 
f 1//1 6//6 2//2 
f 3//3 11//11 1//1 
f 3//3 15//15 11//11 
f 7//7 11//11 12//12 
f 11//11 15//15 12//12 
f 6//6 8//8 13//13 
f 14//14 7//7 12//12 
f 12//12 19//19 14//14 
f 9//9 13//13 8//8 
f 16//16 5//5 13//13 
f 16//16 13//13 9//9 
f 17//17 16//16 9//9 
f 10//10 17//17 9//9 
f 14//14 21//21 10//10 
f 17//17 10//10 21//21 
f 12//12 15//15 18//18 
f 12//12 18//18 19//19 
f 14//14 19//19 23//23 
f 20//20 16//16 17//17 
f 14//14 23//23 21//21 
f 24//24 16//16 20//20 
f 20//20 17//17 22//22 
f 17//17 21//21 22//22 
f 18//18 15//15 25//25 
f 25//25 26//26 18//18 
f 23//23 19//19 27//27 
f 5//5 16//16 24//24 
f 38//38 24//24 20//20 
f 22//22 38//38 20//20 
f 38//38 22//22 39//39 
f 22//22 21//21 39//39 
f 26//26 19//19 18//18 
f 35//35 21//21 23//23 
f 39//39 21//21 35//35 
f 19//19 26//26 27//27 
f 42//42 28//28 29//29 
f 42//42 29//29 52//52 
f 30//30 31//31 3//3 
f 32//32 25//25 3//3 
f 31//31 32//32 3//3 
f 43//43 31//31 30//30 
f 32//32 37//37 25//25 
f 37//37 32//32 45//45 
f 5//5 34//34 33//33 
f 5//5 24//24 34//34 
f 46//46 29//29 33//33 
f 46//46 33//33 34//34 
f 26//26 37//37 27//27 
f 23//23 27//27 36//36 
f 36//36 27//27 37//37 
f 26//26 25//25 37//37 
f 35//35 23//23 36//36 
f 49//49 35//35 36//36 
f 34//34 24//24 40//40 
f 34//34 40//40 47//47 
f 24//24 38//38 40//40 
f 41//41 38//38 39//39 
f 40//40 38//38 41//41 
f 35//35 49//49 39//39 
f 39//39 49//49 41//41 
f 47//47 40//40 41//41 
f 42//42 52//52 53//53 
f 43//43 30//30 42//42 
f 30//30 28//28 42//42 
f 31//31 45//45 32//32 
f 44//44 45//45 31//31 
f 44//44 57//57 45//45 
f 54//54 43//43 42//42 
f 54//54 44//44 43//43 
f 43//43 44//44 31//31 
f 59//59 37//37 45//45 
f 52//52 29//29 46//46 
f 34//34 48//48 46//46 
f 58//58 52//52 46//46 
f 58//58 46//46 48//48 
f 59//59 36//36 37//37 
f 51//51 49//49 36//36 
f 47//47 48//48 34//34 
f 48//48 47//47 60//60 
f 58//58 48//48 60//60 
f 41//41 49//49 50//50 
f 49//49 51//51 50//50 
f 47//47 41//41 50//50 
f 47//47 50//50 60//60 
f 42//42 53//53 54//54 
f 61//61 63//63 53//53 
f 61//61 53//53 52//52 
f 61//61 52//52 58//58 
f 54//54 55//55 44//44 
f 55//55 57//57 44//44 
f 53//53 56//56 54//54 
f 56//56 55//55 54//54 
f 63//63 56//56 53//53 
f 56//56 63//63 64//64 
f 45//45 57//57 59//59 
f 59//59 57//57 79//79 
f 71//71 61//61 58//58 
f 70//70 71//71 58//58 
f 79//79 81//81 59//59 
f 59//59 80//80 51//51 
f 81//81 80//80 59//59 
f 58//58 60//60 70//70 
f 60//60 82//82 70//70 
f 82//82 60//60 50//50 
f 59//59 51//51 36//36 
f 61//61 62//62 63//63 
f 66//66 57//57 55//55 
f 62//62 65//65 63//63 
f 63//63 65//65 64//64 
f 64//64 55//55 56//56 
f 64//64 66//66 55//55 
f 62//62 67//67 65//65 
f 64//64 65//65 68//68 
f 65//65 67//67 68//68 
f 69//69 64//64 68//68 
f 66//66 64//64 69//69 
f 57//57 66//66 79//79 
f 62//62 61//61 71//71 
f 71//71 74//74 62//62 
f 72//72 71//71 70//70 
f 72//72 70//70 73//73 
f 73//73 77//77 72//72 
f 74//74 67//67 62//62 
f 72//72 77//77 74//74 
f 71//71 72//72 74//74 
f 80//80 81//81 85//85 
f 77//77 73//73 86//86 
f 78//78 80//80 85//85 
f 75//75 83//83 78//78 
f 80//80 78//78 83//83 
f 66//66 69//69 76//76 
f 77//77 86//86 88//88 
f 86//86 73//73 75//75 
f 78//78 86//86 75//75 
f 66//66 76//76 79//79 
f 76//76 81//81 79//79 
f 76//76 85//85 81//81 
f 73//73 70//70 82//82 
f 51//51 83//83 50//50 
f 50//50 83//83 82//82 
f 80//80 83//83 51//51 
f 75//75 73//73 82//82 
f 83//83 75//75 82//82 
f 67//67 74//74 87//87 
f 87//87 84//84 68//68 
f 84//84 69//69 68//68 
f 76//76 69//69 84//84 
f 85//85 76//76 84//84 
f 84//84 89//89 85//85 
f 88//88 86//86 91//91 
f 91//91 78//78 85//85 
f 78//78 91//91 86//86 
f 68//68 67//67 87//87 
f 77//77 88//88 74//74 
f 74//74 88//88 87//87 
f 87//87 90//90 89//89 
f 84//84 87//87 89//89 
