#
# The license for this database is specified in the Creative Commons Attribution-Share Alike 2.1 Japan. If you use data from this database, please be sure attribute this database as follows: "BodyParts3D, (c)  The Database Center for Life Science licensed under CC Attribution-Share Alike 2.1 Japan".
# http://dbarchive.biosciencedbc.jp/en/bodyparts3d/lic.html
#
#
# Compatibility version : 4.0
# File ID : FJ1309
# Representation ID : BP7371
# Build-up logic : FMA 3.0 part_of
# Concept ID : FMA59546
# English name : Left lacrimal sac
# Bounds(mm): (12.402100,-164.366200,1503.506100)-(15.775800,-159.359600,1518.665500)
# Volume(cm3): 0.111600
#
v 12.9787 -164.078 1515.75
v 12.6906 -163.739 1516.18
v 13.0832 -164.15 1516.64
v 12.798 -163.725 1517.22
v 12.6967 -163.122 1512.76
v 12.8714 -163.434 1512.65
v 12.4981 -163.212 1516.2
v 12.5228 -162.909 1517.3
v 12.7049 -163.134 1517.77
v 12.8068 -162.8 1518.09
v 13.0554 -163.22 1518.18
v 12.85 -162.459 1510.34
v 12.6214 -162.607 1512.44
v 12.4325 -162.551 1516.06
v 12.5059 -162.039 1517.24
v 12.6407 -162.574 1517.86
v 12.855 -162.072 1518.21
v 12.7461 -161.837 1510.81
v 12.5792 -161.471 1516.03
v 12.8141 -161.156 1517.85
v 12.7056 -161.844 1517.97
v 13.0143 -161.138 1518.19
v 13.0956 -160.843 1510.58
v 12.8093 -160.941 1517.21
v 12.9997 -160.794 1517.85
v 13.4158 -163.761 1512.2
v 13.7698 -163.764 1511.91
v 13.3919 -164.308 1515.96
v 13.9197 -164.305 1515.53
v 13.8876 -164.333 1516.82
v 13.1636 -163.965 1517.54
v 13.1548 -163.722 1517.88
v 13.4732 -163.991 1517.77
v 13.5665 -164.177 1517.43
v 13.6044 -163.748 1518.08
v 13.2678 -163.045 1510.24
v 13.672 -163.452 1510.77
v 13.1597 -162.79 1518.39
v 13.4767 -163.311 1518.34
v 13.8835 -161.956 1506.72
v 13.456 -162.165 1518.59
v 13.6646 -162.613 1518.59
v 13.9004 -162.266 1518.65
v 13.9114 -161.246 1504.38
v 13.3003 -161.538 1507.26
v 13.2713 -161.359 1518.46
v 13.6937 -161.642 1518.64
v 13.6722 -161.127 1518.55
v 13.6658 -160.91 1504.42
v 13.6969 -160.469 1504.03
v 13.8066 -160.898 1504.02
v 13.8397 -160.599 1503.8
v 14.0639 -160.579 1503.66
v 13.5172 -160.518 1504.74
v 13.3593 -160.577 1505.96
v 13.235 -160.399 1516.7
v 13.2955 -160.482 1517.85
v 13.594 -160.215 1517.57
v 13.8061 -160.273 1517.9
v 13.2718 -160.653 1518.1
v 13.3786 -160.915 1518.38
v 13.5808 -160.447 1518.08
v 13.6732 -160.689 1518.36
v 13.7787 -160.904 1518.49
v 13.9067 -160.707 1518.39
v 13.9016 -160.485 1518.21
v 13.93 -160.183 1503.7
v 13.8998 -159.868 1504.01
v 13.6595 -159.987 1504.56
v 13.6488 -159.882 1505.37
v 13.9215 -159.65 1504.46
v 13.9279 -159.573 1505.24
v 13.8976 -159.717 1507.2
v 13.8692 -160.101 1515.19
v 13.9314 -160.058 1517.08
v 14.2646 -163.678 1511.99
v 14.5519 -164.066 1515.57
v 14.432 -164.215 1516.62
v 13.9963 -164.083 1517.68
v 14.4062 -164.082 1517.43
v 14.5314 -163.837 1517.78
v 14.745 -163.915 1517.34
v 14.3005 -163.29 1510.33
v 14.6957 -163.22 1510.84
v 14.0056 -163.329 1518.38
v 14.0928 -162.806 1518.56
v 14.3925 -163.556 1518.13
v 14.7758 -163.422 1518
v 14.7086 -162.914 1518.32
v 14.2922 -162.06 1506.59
v 14.6015 -162.229 1518.53
v 14.1479 -161.099 1503.87
v 14.3313 -161.493 1504.36
v 14.6184 -161.568 1504.5
v 14.6774 -161.377 1504.02
v 14.0886 -161.116 1518.57
v 14.2197 -161.734 1518.64
v 14.4064 -160.282 1503.53
v 14.6624 -160.892 1503.68
v 14.2435 -160.282 1517.88
v 14.3547 -160.697 1518.31
v 14.5399 -161.038 1518.44
v 14.7328 -160.695 1518.13
v 14.1618 -160.165 1503.57
v 14.6601 -159.864 1503.54
v 14.8763 -160.061 1503.51
v 14.1686 -159.94 1503.63
v 14.3322 -159.62 1503.85
v 14.5722 -159.473 1504.03
v 14.6556 -159.629 1503.71
v 14.7947 -159.551 1503.82
v 14.8925 -159.655 1503.7
v 14.1623 -159.482 1504.57
v 14.675 -159.377 1504.58
v 14.2358 -159.458 1506.32
v 14.6474 -159.392 1506.57
v 14.3861 -159.735 1509.61
v 14.8404 -159.663 1508.84
v 14.007 -159.914 1509.79
v 14.0184 -160.093 1517.48
v 14.7134 -160.096 1517.16
v 15.0221 -163.742 1516.54
v 14.9168 -163.646 1517.59
v 15.1238 -162.774 1510.72
v 15.3632 -163.187 1516.36
v 15.4952 -162.746 1516.74
v 15.1413 -163.529 1517.24
v 15.2099 -163.13 1517.68
v 14.9226 -162.042 1507.02
v 15.399 -161.929 1508.15
v 15.0141 -162.575 1509.07
v 15.4397 -162.259 1512
v 15.374 -162.593 1517.74
v 15.5604 -162.067 1517.36
v 15.1034 -162.71 1518.1
v 15.0374 -162.182 1518.3
v 15.3333 -162.056 1518
v 14.999 -161.467 1504.52
v 14.995 -161.099 1503.82
v 15.2812 -161.127 1504.03
v 15.6677 -161.403 1509.15
v 15.6238 -161.344 1511.49
v 15.6433 -161.331 1516.19
v 15.4892 -161.424 1517.55
v 14.8255 -161.653 1518.44
v 14.9448 -161.24 1518.3
v 15.0601 -161.652 1518.3
v 15.1627 -161.235 1518.09
v 14.9828 -160.487 1503.57
v 14.9782 -160.265 1503.53
v 15.2007 -160.273 1503.58
v 15.0915 -160.794 1503.68
v 15.3839 -160.803 1503.81
v 15.3018 -160.491 1503.65
v 15.4985 -160.804 1503.94
v 15.4078 -160.278 1503.68
v 15.4992 -161.026 1504.41
v 15.5103 -160.492 1503.8
v 15.6513 -160.58 1504.13
v 15.7331 -160.551 1504.9
v 15.7643 -160.6 1507.19
v 15.7144 -160.285 1507.36
v 15.5448 -160.353 1509.85
v 15.6849 -160.796 1509.6
v 15.5755 -160.587 1511.62
v 15.6035 -160.622 1513.24
v 15.4524 -160.402 1515.88
v 15.4187 -160.706 1517.03
v 14.9603 -160.407 1517.56
v 15.0553 -160.805 1517.94
v 15.2792 -160.821 1517.6
v 14.9261 -161.009 1518.21
v 14.9852 -159.857 1503.58
v 15.0986 -160.061 1503.55
v 14.9735 -159.469 1504.14
v 15.1975 -159.851 1503.67
v 15.196 -159.601 1504.03
v 15.3129 -160.068 1503.65
v 15.4919 -159.951 1503.93
v 15.526 -160.184 1503.82
v 15.6557 -160.172 1504.17
v 15.276 -159.508 1504.72
v 15.5346 -159.764 1504.58
v 15.7288 -160.17 1504.86
v 15.0641 -159.442 1506.34
v 15.4931 -159.773 1506.59
v 15.1628 -159.854 1509.37
v 15.025 -159.905 1511.56
v 15.3726 -160.168 1511.64
v 15.4257 -160.188 1513.17
v 15.1899 -160.096 1515.76
v 14.8221 -159.987 1516.1
v 15.1707 -160.185 1516.55
vn -0.624048 -0.778118 -0.071391
vn -0.858786 -0.512327 -0.00292851
vn -0.523526 -0.844534 0.11262
vn -0.834064 -0.505343 0.221283
vn -0.938895 -0.328892 -0.101524
vn -0.783054 -0.601226 -0.159228
vn -0.972098 -0.234143 0.0142225
vn -0.975388 -0.155409 0.156414
vn -0.846235 -0.330225 0.418135
vn -0.757306 -0.164291 0.632057
vn -0.593068 -0.378254 0.71077
vn -0.935526 -0.302512 -0.18242
vn -0.990903 -0.108198 -0.0800231
vn -0.999836 0.0175668 -0.00437021
vn -0.983008 0.12783 0.131736
vn -0.91946 -0.0530874 0.389584
vn -0.702544 0.0240625 0.711233
vn -0.990437 0.116693 -0.0736057
vn -0.964207 0.264919 -0.0111073
vn -0.90508 0.311803 0.289153
vn -0.894363 0.120612 0.430775
vn -0.725198 0.302401 0.61858
vn -0.849015 0.52826 -0.0107108
vn -0.887199 0.45785 0.0570287
vn -0.775039 0.56501 0.282981
vn -0.378371 -0.905935 -0.190045
vn 0.0251325 -0.977741 -0.208307
vn -0.261349 -0.964375 -0.0409507
vn 0.125982 -0.986829 -0.101475
vn 0.0263632 -0.991098 0.130497
vn -0.529967 -0.773597 0.347395
vn -0.551053 -0.592239 0.587872
vn -0.252953 -0.802704 0.540075
vn -0.210473 -0.931423 0.296903
vn -0.0976927 -0.660898 0.74409
vn -0.615414 -0.73269 -0.290569
vn -0.20686 -0.932944 -0.29466
vn -0.474548 -0.174089 0.862842
vn -0.24054 -0.411009 0.879324
vn -0.524169 -0.804736 -0.278651
vn -0.348387 -0.030669 0.936849
vn -0.165422 -0.197902 0.966163
vn 0.0102427 -0.0784868 0.996863
vn -0.652116 -0.686016 -0.322685
vn -0.872289 -0.432828 -0.227534
vn -0.473329 0.151074 0.867834
vn -0.140125 0.0875336 0.986257
vn -0.20392 0.243888 0.948122
vn -0.901751 -0.346224 -0.258793
vn -0.929863 0.0317639 -0.366532
vn -0.775386 -0.431911 -0.460684
vn -0.687573 -0.226745 -0.689804
vn -0.34786 -0.237484 -0.90697
vn -0.98273 -0.0195577 -0.18401
vn -0.986463 0.125624 -0.105401
vn -0.599298 0.800153 0.0244425
vn -0.590107 0.756073 0.283069
vn -0.383758 0.898263 0.214135
vn -0.124284 0.881367 0.455792
vn -0.553489 0.597803 0.579897
vn -0.417737 0.394692 0.81836
vn -0.322567 0.777757 0.539485
vn -0.230708 0.588901 0.774577
vn -0.120219 0.395648 0.9105
vn 0.0353487 0.533958 0.844772
vn -0.00378037 0.734808 0.678265
vn -0.689591 0.1598 -0.706349
vn -0.753618 0.516506 -0.406548
vn -0.911674 0.370451 -0.17781
vn -0.829819 0.557416 -0.0262288
vn -0.668103 0.721723 -0.180981
vn -0.590404 0.807065 -0.00831317
vn -0.5917 0.803287 0.0679775
vn -0.272162 0.962169 0.0126062
vn -0.194315 0.9797 0.0493007
vn 0.343307 -0.923981 -0.168518
vn 0.553975 -0.826266 -0.101957
vn 0.434245 -0.899966 0.0386196
vn 0.109522 -0.854446 0.507865
vn 0.340309 -0.892574 0.295806
vn 0.434185 -0.728386 0.530035
vn 0.602731 -0.765835 0.224081
vn 0.263856 -0.929292 -0.258449
vn 0.565674 -0.808532 -0.162137
vn 0.111998 -0.456679 0.882553
vn 0.106831 -0.25535 0.960928
vn 0.278053 -0.598455 0.751357
vn 0.584434 -0.497238 0.641242
vn 0.430194 -0.322323 0.843232
vn -0.110702 -0.950259 -0.291122
vn 0.32449 -0.111019 0.939352
vn -0.386944 -0.604807 -0.696048
vn -0.2953 -0.884991 -0.359985
vn 0.099811 -0.955173 -0.278714
vn 0.0779776 -0.813255 -0.57666
vn 0.0842765 0.292494 0.952546
vn 0.17706 0.0664528 0.981954
vn -0.0795689 -0.106764 -0.991095
vn -0.0351844 -0.41479 -0.909237
vn 0.206739 0.83052 0.5172
vn 0.221992 0.584892 0.780142
vn 0.342813 0.322951 0.882146
vn 0.433829 0.60794 0.664982
vn -0.321368 0.0828318 -0.943325
vn -0.0583803 0.349422 -0.935145
vn 0.0770896 0.103193 -0.991669
vn -0.427079 0.486856 -0.761955
vn -0.41433 0.796286 -0.440748
vn -0.125271 0.944857 -0.302575
vn -0.116889 0.735 -0.667916
vn 0.138419 0.881349 -0.451735
vn 0.217887 0.69712 -0.683044
vn -0.358997 0.924992 -0.12454
vn 0.00635899 0.998564 -0.0531971
vn -0.316412 0.947727 0.0411989
vn -0.00854082 0.997813 0.0655474
vn -0.20367 0.976685 0.0678626
vn 0.205627 0.97397 0.0953962
vn -0.562844 0.825628 0.0393003
vn -0.0429206 0.965137 0.2582
vn 0.252068 0.938353 0.236547
vn 0.734343 -0.678698 -0.0105034
vn 0.676612 -0.609966 0.412477
vn 0.797809 -0.59536 -0.095123
vn 0.908553 -0.41751 -0.0147439
vn 0.968938 -0.239489 0.0616788
vn 0.837595 -0.523298 0.156824
vn 0.832631 -0.398505 0.384602
vn 0.400451 -0.887427 -0.228281
vn 0.811621 -0.572939 -0.114069
vn 0.612763 -0.766379 -0.192832
vn 0.948779 -0.314056 -0.0344492
vn 0.908524 -0.232132 0.347417
vn 0.978822 -0.0703176 0.192256
vn 0.712123 -0.284489 0.641831
vn 0.5903 -0.114903 0.798964
vn 0.846018 -0.0373977 0.531841
vn 0.463059 -0.852665 -0.241946
vn 0.239935 -0.587942 -0.7725
vn 0.537724 -0.713318 -0.449478
vn 0.979691 -0.200357 -0.00788036
vn 0.998426 -0.0558757 0.00484477
vn 0.995644 0.0768997 0.0527138
vn 0.940181 0.161435 0.299996
vn 0.426593 0.0737995 0.901428
vn 0.546126 0.238078 0.803159
vn 0.658509 0.0765551 0.748669
vn 0.770353 0.253054 0.585252
vn 0.128108 -0.233179 -0.963959
vn 0.127293 -0.0774297 -0.988838
vn 0.335179 -0.0535718 -0.94063
vn 0.226518 -0.372379 -0.900013
vn 0.515672 -0.431513 -0.740189
vn 0.413665 -0.222644 -0.882786
vn 0.788872 -0.434418 -0.434697
vn 0.595595 0.000358699 -0.803285
vn 0.812029 -0.560524 -0.162551
vn 0.754694 -0.163614 -0.635348
vn 0.947157 -0.173835 -0.269582
vn 0.980721 -0.184142 -0.065406
vn 0.9998 0.0167214 0.0109634
vn 0.954206 0.295625 0.0458006
vn 0.882754 0.46654 0.0555597
vn 0.993219 0.109324 0.0395442
vn 0.959759 0.280627 0.0105777
vn 0.975856 0.218325 0.00623468
vn 0.883865 0.461274 0.0775227
vn 0.880708 0.42231 0.214493
vn 0.578371 0.704572 0.411175
vn 0.662374 0.504583 0.553766
vn 0.812487 0.428606 0.395173
vn 0.558561 0.407477 0.722476
vn 0.211748 0.394614 -0.894116
vn 0.297067 0.158908 -0.941541
vn 0.22139 0.949755 -0.221251
vn 0.482881 0.524444 -0.701273
vn 0.507705 0.786542 -0.351551
vn 0.566095 0.248601 -0.78596
vn 0.765675 0.487821 -0.419251
vn 0.839731 0.14875 -0.522231
vn 0.959779 0.192011 -0.204832
vn 0.484364 0.872891 -0.0587532
vn 0.809545 0.576235 -0.112208
vn 0.970709 0.238748 -0.0269017
vn 0.348136 0.935546 0.059634
vn 0.770802 0.634665 0.0553529
vn 0.595026 0.800391 0.0729197
vn 0.390519 0.919811 0.0379943
vn 0.775446 0.631231 0.0151938
vn 0.797752 0.602946 0.00688467
vn 0.55494 0.829621 0.0613984
vn 0.146297 0.987152 0.0642569
vn 0.612146 0.768732 0.185277
g grp1
usemtl mtl1
f 6//6 36//36 26//26 
f 2//2 1//1 3//3 
f 6//6 2//2 5//5 
f 6//6 1//1 2//2 
f 26//26 1//1 6//6 
f 3//3 1//1 28//28 
f 26//26 28//28 1//1 
f 5//5 2//2 7//7 
f 3//3 4//4 2//2 
f 31//31 4//4 3//3 
f 4//4 31//31 32//32 
f 45//45 36//36 12//12 
f 6//6 5//5 12//12 
f 6//6 12//12 36//36 
f 5//5 7//7 13//13 
f 13//13 7//7 14//14 
f 7//7 8//8 14//14 
f 7//7 4//4 8//8 
f 4//4 7//7 2//2 
f 8//8 16//16 15//15 
f 4//4 9//9 8//8 
f 8//8 9//9 16//16 
f 9//9 4//4 32//32 
f 16//16 9//9 10//10 
f 32//32 11//11 9//9 
f 9//9 11//11 10//10 
f 10//10 11//11 38//38 
f 32//32 39//39 11//11 
f 39//39 38//38 11//11 
f 45//45 12//12 55//55 
f 5//5 13//13 12//12 
f 12//12 13//13 18//18 
f 13//13 14//14 18//18 
f 8//8 15//15 14//14 
f 15//15 19//19 14//14 
f 16//16 21//21 15//15 
f 16//16 17//17 21//21 
f 17//17 16//16 10//10 
f 10//10 38//38 17//17 
f 12//12 18//18 55//55 
f 23//23 55//55 18//18 
f 23//23 18//18 19//19 
f 24//24 23//23 19//19 
f 19//19 18//18 14//14 
f 15//15 24//24 19//19 
f 15//15 21//21 20//20 
f 15//15 20//20 24//24 
f 22//22 20//20 21//21 
f 22//22 21//21 17//17 
f 20//20 22//22 25//25 
f 46//46 22//22 17//17 
f 20//20 25//25 24//24 
f 25//25 56//56 24//24 
f 56//56 25//25 57//57 
f 60//60 57//57 25//25 
f 25//25 22//22 60//60 
f 22//22 46//46 61//61 
f 22//22 61//61 60//60 
f 90//90 83//83 37//37 
f 26//26 36//36 37//37 
f 37//37 27//27 26//26 
f 37//37 83//83 27//27 
f 27//27 83//83 76//76 
f 27//27 29//29 26//26 
f 76//76 29//29 27//27 
f 26//26 29//29 28//28 
f 28//28 30//30 3//3 
f 29//29 30//30 28//28 
f 30//30 34//34 3//3 
f 29//29 78//78 30//30 
f 34//34 31//31 3//3 
f 33//33 31//31 34//34 
f 32//32 31//31 33//33 
f 35//35 32//32 33//33 
f 79//79 33//33 34//34 
f 35//35 33//33 79//79 
f 30//30 79//79 34//34 
f 39//39 32//32 35//35 
f 35//35 87//87 85//85 
f 39//39 35//35 85//85 
f 35//35 79//79 87//87 
f 36//36 90//90 37//37 
f 39//39 42//42 38//38 
f 40//40 90//90 36//36 
f 41//41 17//17 38//38 
f 46//46 17//17 41//41 
f 42//42 41//41 38//38 
f 43//43 41//41 42//42 
f 43//43 47//47 41//41 
f 42//42 39//39 86//86 
f 86//86 43//43 42//42 
f 49//49 51//51 44//44 
f 44//44 40//40 45//45 
f 44//44 51//51 92//92 
f 92//92 93//93 44//44 
f 93//93 40//40 44//44 
f 45//45 40//40 36//36 
f 41//41 47//47 46//46 
f 48//48 46//46 47//47 
f 50//50 51//51 49//49 
f 50//50 49//49 54//54 
f 52//52 51//51 50//50 
f 54//54 69//69 50//50 
f 52//52 92//92 51//51 
f 52//52 67//67 53//53 
f 50//50 67//67 52//52 
f 53//53 92//92 52//52 
f 104//104 53//53 67//67 
f 49//49 45//45 54//54 
f 55//55 69//69 54//54 
f 44//44 45//45 49//49 
f 54//54 45//45 55//55 
f 56//56 23//23 24//24 
f 57//57 62//62 58//58 
f 58//58 56//56 57//57 
f 58//58 75//75 56//56 
f 58//58 62//62 59//59 
f 58//58 59//59 120//120 
f 100//100 120//120 59//59 
f 61//61 63//63 60//60 
f 48//48 61//61 46//46 
f 60//60 63//63 62//62 
f 57//57 60//60 62//62 
f 48//48 64//64 61//61 
f 63//63 61//61 64//64 
f 65//65 63//63 64//64 
f 66//66 62//62 63//63 
f 65//65 66//66 63//63 
f 101//101 66//66 65//65 
f 59//59 62//62 66//66 
f 96//96 65//65 64//64 
f 96//96 101//101 65//65 
f 69//69 68//68 50//50 
f 68//68 69//69 71//71 
f 108//108 68//68 71//71 
f 68//68 67//67 50//50 
f 67//67 107//107 104//104 
f 67//67 68//68 107//107 
f 113//113 108//108 71//71 
f 70//70 69//69 55//55 
f 69//69 70//70 71//71 
f 70//70 72//72 71//71 
f 72//72 113//113 71//71 
f 70//70 73//73 72//72 
f 70//70 55//55 23//23 
f 70//70 23//23 73//73 
f 72//72 73//73 115//115 
f 117//117 115//115 73//73 
f 73//73 23//23 119//119 
f 23//23 56//56 119//119 
f 56//56 75//75 74//74 
f 75//75 58//58 120//120 
f 77//77 78//78 29//29 
f 29//29 76//76 77//77 
f 78//78 80//80 30//30 
f 122//122 82//82 78//78 
f 77//77 122//122 78//78 
f 82//82 122//122 127//127 
f 30//30 80//80 79//79 
f 79//79 80//80 81//81 
f 80//80 78//78 82//82 
f 82//82 81//81 80//80 
f 123//123 81//81 82//82 
f 123//123 88//88 81//81 
f 87//87 79//79 81//81 
f 87//87 81//81 88//88 
f 83//83 84//84 76//76 
f 76//76 84//84 77//77 
f 39//39 85//85 86//86 
f 85//85 89//89 86//86 
f 85//85 87//87 89//89 
f 87//87 88//88 89//89 
f 93//93 90//90 40//40 
f 129//129 83//83 90//90 
f 86//86 91//91 43//43 
f 91//91 97//97 43//43 
f 89//89 91//91 86//86 
f 89//89 136//136 91//91 
f 93//93 92//92 95//95 
f 95//95 92//92 99//99 
f 95//95 94//94 93//93 
f 95//95 99//99 139//139 
f 94//94 95//95 138//138 
f 94//94 90//90 93//93 
f 138//138 129//129 94//94 
f 94//94 129//129 90//90 
f 97//97 47//47 43//43 
f 96//96 48//48 47//47 
f 96//96 64//64 48//48 
f 97//97 96//96 47//47 
f 102//102 96//96 97//97 
f 145//145 102//102 97//97 
f 102//102 145//145 146//146 
f 91//91 145//145 97//97 
f 147//147 146//146 145//145 
f 98//98 53//53 104//104 
f 150//150 98//98 106//106 
f 149//149 99//99 98//98 
f 149//149 98//98 150//150 
f 92//92 53//53 99//99 
f 98//98 99//99 53//53 
f 152//152 139//139 99//99 
f 152//152 99//99 149//149 
f 100//100 59//59 66//66 
f 101//101 100//100 66//66 
f 101//101 103//103 100//100 
f 96//96 102//102 101//101 
f 103//103 101//101 102//102 
f 172//172 170//170 103//103 
f 105//105 98//98 104//104 
f 106//106 98//98 105//105 
f 174//174 106//106 173//173 
f 173//173 106//106 105//105 
f 112//112 173//173 105//105 
f 104//104 107//107 105//105 
f 108//108 107//107 68//68 
f 108//108 113//113 109//109 
f 110//110 107//107 108//108 
f 110//110 108//108 109//109 
f 114//114 109//109 113//113 
f 111//111 110//110 109//109 
f 107//107 110//110 105//105 
f 111//111 109//109 175//175 
f 175//175 109//109 114//114 
f 112//112 105//105 110//110 
f 112//112 110//110 111//111 
f 177//177 112//112 111//111 
f 177//177 111//111 175//175 
f 182//182 175//175 114//114 
f 115//115 114//114 113//113 
f 72//72 115//115 113//113 
f 115//115 116//116 114//114 
f 115//115 117//117 116//116 
f 114//114 116//116 185//185 
f 73//73 119//119 117//117 
f 116//116 117//117 118//118 
f 118//118 185//185 116//116 
f 119//119 56//56 117//117 
f 74//74 117//117 56//56 
f 117//117 74//74 192//192 
f 74//74 75//75 192//192 
f 192//192 75//75 121//121 
f 121//121 120//120 100//100 
f 75//75 120//120 121//121 
f 124//124 77//77 84//84 
f 77//77 124//124 122//122 
f 122//122 124//124 125//125 
f 127//127 122//122 125//125 
f 127//127 123//123 82//82 
f 127//127 128//128 123//123 
f 124//124 132//132 125//125 
f 126//126 127//127 125//125 
f 125//125 132//132 126//126 
f 128//128 88//88 123//123 
f 126//126 128//128 127//127 
f 133//133 128//128 126//126 
f 88//88 135//135 89//89 
f 136//136 89//89 135//135 
f 88//88 128//128 135//135 
f 124//124 131//131 130//130 
f 83//83 131//131 84//84 
f 131//131 124//124 84//84 
f 129//129 131//131 83//83 
f 130//130 141//141 132//132 
f 141//141 142//142 132//132 
f 124//124 130//130 132//132 
f 132//132 142//142 126//126 
f 128//128 133//133 135//135 
f 135//135 133//133 137//137 
f 133//133 126//126 134//134 
f 133//133 134//134 137//137 
f 136//136 135//135 137//137 
f 139//139 140//140 95//95 
f 153//153 140//140 139//139 
f 138//138 95//95 140//140 
f 157//157 140//140 155//155 
f 140//140 157//157 138//138 
f 130//130 138//138 157//157 
f 130//130 157//157 160//160 
f 131//131 129//129 130//130 
f 130//130 129//129 138//138 
f 130//130 160//160 141//141 
f 126//126 142//142 143//143 
f 126//126 143//143 134//134 
f 171//171 170//170 148//148 
f 144//144 171//171 148//148 
f 144//144 137//137 134//134 
f 144//144 134//134 143//143 
f 136//136 147//147 145//145 
f 91//91 136//136 145//145 
f 146//146 172//172 102//102 
f 136//136 137//137 147//147 
f 172//172 146//146 148//148 
f 147//147 148//148 146//146 
f 148//148 170//170 172//172 
f 148//148 137//137 144//144 
f 147//147 137//137 148//148 
f 174//174 150//150 106//106 
f 151//151 150//150 174//174 
f 153//153 139//139 152//152 
f 150//150 151//151 149//149 
f 149//149 154//154 152//152 
f 154//154 149//149 151//151 
f 153//153 155//155 140//140 
f 154//154 153//153 152//152 
f 156//156 154//154 151//151 
f 156//156 151//151 178//178 
f 159//159 157//157 155//155 
f 158//158 153//153 154//154 
f 153//153 158//158 155//155 
f 156//156 158//158 154//154 
f 157//157 159//159 160//160 
f 155//155 158//158 159//159 
f 180//180 158//158 156//156 
f 158//158 180//180 159//159 
f 159//159 180//180 181//181 
f 159//159 181//181 160//160 
f 160//160 181//181 184//184 
f 160//160 184//184 161//161 
f 161//161 184//184 162//162 
f 141//141 160//160 161//161 
f 141//141 161//161 164//164 
f 162//162 163//163 164//164 
f 141//141 164//164 142//142 
f 164//164 161//161 162//162 
f 164//164 163//163 165//165 
f 189//189 165//165 163//163 
f 164//164 165//165 142//142 
f 142//142 165//165 166//166 
f 165//165 190//190 166//166 
f 165//165 189//189 190//190 
f 167//167 166//166 190//190 
f 142//142 166//166 143//143 
f 191//191 167//167 190//190 
f 166//166 167//167 143//143 
f 193//193 121//121 169//169 
f 191//191 193//193 167//167 
f 169//169 168//168 193//193 
f 193//193 168//168 167//167 
f 167//167 168//168 143//143 
f 169//169 100//100 103//103 
f 121//121 100//100 169//169 
f 170//170 169//169 103//103 
f 169//169 170//170 171//171 
f 171//171 168//168 169//169 
f 144//144 168//168 171//171 
f 143//143 168//168 144//144 
f 102//102 172//172 103//103 
f 177//177 176//176 112//112 
f 174//174 173//173 176//176 
f 112//112 176//176 173//173 
f 177//177 175//175 182//182 
f 151//151 174//174 178//178 
f 174//174 176//176 178//178 
f 177//177 179//179 176//176 
f 177//177 183//183 179//179 
f 156//156 178//178 180//180 
f 179//179 180//180 178//178 
f 176//176 179//179 178//178 
f 180//180 179//179 181//181 
f 181//181 183//183 184//184 
f 179//179 183//183 181//181 
f 182//182 114//114 185//185 
f 183//183 182//182 186//186 
f 183//183 177//177 182//182 
f 184//184 183//183 186//186 
f 182//182 185//185 186//186 
f 184//184 186//186 162//162 
f 186//186 185//185 187//187 
f 187//187 163//163 186//186 
f 162//162 186//186 163//163 
f 118//118 187//187 185//185 
f 187//187 118//118 188//188 
f 118//118 117//117 188//188 
f 189//189 163//163 187//187 
f 189//189 187//187 188//188 
f 188//188 117//117 192//192 
f 190//190 189//189 188//188 
f 188//188 192//192 191//191 
f 191//191 190//190 188//188 
f 192//192 121//121 193//193 
f 192//192 193//193 191//191 
