# Blender v2.77 (sub 0) OBJ File: 'BLANKOblend.blend'
# www.blender.org
mtllib tarsal plate of left lower eyelid.mtl
o grp1
v 18.126432 -163.586121 1513.393555
v 18.104713 -163.308594 1513.272583
v 18.250732 -163.350342 1513.726074
v 18.335205 -162.750977 1511.960693
v 18.323242 -162.809814 1512.601562
v 18.363281 -163.055908 1511.953125
v 18.366821 -163.720947 1513.244141
v 21.357849 -163.843246 1510.810059
v 18.334045 -163.785889 1513.701660
v 21.095703 -164.462158 1512.638184
v 18.217529 -163.598511 1513.789062
v 18.341553 -163.540314 1513.887939
v 18.506104 -163.787354 1513.807861
v 18.726562 -163.618958 1513.911865
v 18.890625 -162.920654 1511.152344
v 18.530273 -162.796143 1511.500000
v 18.356501 -162.706238 1512.150024
v 18.307007 -162.821533 1512.722656
v 18.765137 -163.312744 1513.742676
v 18.497314 -162.595581 1511.951172
v 19.078125 -162.663818 1510.921875
v 18.714844 -162.518738 1511.420410
v 19.265625 -162.470184 1511.007812
v 21.429688 -164.271729 1511.648438
v 22.867188 -164.742432 1512.470703
v 19.812500 -163.523682 1513.687500
v 24.312500 -163.952393 1512.460938
v 20.687500 -162.695557 1509.968750
v 21.437500 -162.597900 1509.656250
v 23.138800 -163.339752 1511.724976
v 22.625000 -164.312744 1513.000000
v 20.801100 -163.283249 1510.229980
v 22.281250 -163.181885 1509.140625
v 24.402344 -162.761963 1508.355469
v 22.943848 -164.782166 1512.105225
v 23.468750 -164.601807 1512.726562
v 22.546875 -162.947510 1508.914062
v 22.823900 -162.794250 1509.880005
v 22.980850 -164.167740 1510.334961
v 23.729698 -164.555496 1510.827515
v 23.578125 -163.265869 1508.476562
v 23.562500 -163.517090 1508.750000
v 22.849001 -162.809250 1508.839966
v 25.188000 -163.084244 1510.069946
v 25.618164 -165.075470 1511.643066
v 25.914062 -164.568115 1512.333008
v 24.365675 -163.989502 1509.234985
v 25.843750 -163.337891 1507.632812
v 25.662659 -164.652588 1510.257812
v 25.570312 -163.521729 1507.871094
v 26.203125 -164.795166 1512.226562
v 25.996094 -164.123779 1512.173828
v 25.281250 -162.912842 1507.843750
v 25.443600 -163.512238 1511.329956
v 26.470703 -162.730499 1507.791260
v 26.753906 -165.083496 1511.796387
v 27.800781 -162.971436 1507.112305
v 28.509766 -162.646729 1507.183105
v 27.348389 -165.085815 1511.236084
v 27.857422 -163.941650 1508.207031
v 27.421875 -163.424072 1507.331055
v 27.505859 -163.277100 1510.489258
v 28.320312 -164.481689 1512.024414
v 28.925781 -165.013550 1511.409424
v 27.816406 -164.179932 1511.957031
v 27.867188 -163.874268 1511.669922
v 28.910299 -163.227249 1510.410034
v 29.340820 -162.783447 1506.998535
v 29.553223 -162.489899 1507.382812
v 29.781250 -164.669189 1511.708984
v 29.124023 -163.393799 1507.223633
v 29.667603 -163.144775 1507.007812
v 29.179199 -162.668243 1508.459961
v 29.953674 -163.823486 1508.095703
v 29.147600 -163.755249 1511.599976
v 30.091156 -163.963623 1511.890625
v 30.325199 -164.263245 1511.900024
v 30.755800 -162.483246 1508.560059
v 30.547363 -164.749512 1510.918945
v 31.381836 -163.277588 1507.496094
v 31.088867 -163.375244 1511.528320
v 30.921875 -162.441650 1507.183594
v 32.093750 -163.539307 1508.351562
v 31.921875 -162.570557 1507.138672
v 31.222656 -163.002441 1507.120605
v 32.375000 -162.041260 1507.786621
v 31.740356 -164.556305 1510.959229
v 31.408203 -164.612061 1511.292480
v 31.671875 -163.796387 1511.960938
v 32.614258 -163.065674 1511.797119
v 32.225586 -162.936768 1511.125000
v 33.245350 -163.853241 1511.810059
v 32.429688 -163.886963 1511.949219
v 32.953125 -162.659424 1507.389648
v 32.763500 -162.106247 1508.735107
v 33.256104 -164.150146 1511.052368
v 34.822266 -163.537354 1511.653320
v 32.967701 -163.528244 1509.054932
v 33.488499 -163.312241 1512.140015
v 33.626953 -163.003174 1508.222656
v 33.959229 -162.267822 1510.767578
v 34.049805 -161.667236 1508.311035
v 34.109375 -162.222900 1507.687500
v 34.078125 -162.640381 1512.064453
v 34.640625 -161.562744 1508.250000
v 34.531250 -161.812744 1507.921875
v 34.309570 -163.772827 1511.143555
v 35.882812 -162.375244 1512.609375
v 36.179688 -162.791260 1512.144531
v 35.770199 -162.840240 1512.280029
v 34.455101 -162.819244 1508.660034
v 34.289001 -162.497238 1507.989990
v 35.644531 -162.197510 1508.703125
v 35.973499 -161.837250 1512.479980
v 35.546875 -161.781494 1508.226562
v 35.426758 -161.589844 1510.223389
v 35.344101 -161.668243 1510.979980
v 35.978271 -162.993286 1511.265625
v 35.693901 -162.042252 1508.560059
v 36.812500 -160.867432 1509.023438
v 35.755371 -161.126953 1508.939941
v 36.650391 -160.797119 1509.158203
v 36.674316 -162.640869 1511.873535
v 37.781250 -161.453369 1512.984375
v 36.718750 -161.468994 1508.898438
v 36.378906 -161.915771 1509.132812
v 36.671875 -161.433838 1512.767578
v 37.125000 -160.875244 1509.093750
v 37.675781 -161.095947 1509.652344
v 37.843750 -160.648682 1509.500000
v 37.339699 -160.551239 1511.869995
v 38.140625 -160.773682 1513.375000
v 37.022217 -160.580231 1509.707275
v 38.001400 -160.366241 1513.119995
v 37.632812 -161.926651 1511.568359
v 37.734375 -161.900635 1512.514648
v 38.843750 -159.500244 1510.437500
v 38.078125 -160.500244 1513.320312
v 38.421875 -159.642822 1510.388672
v 38.593262 -160.945801 1511.152344
v 38.695312 -161.047119 1513.019531
v 38.617188 -160.351807 1510.195312
v 39.356934 -158.790771 1511.499512
v 38.683998 -159.457245 1512.420044
v 39.207153 -160.655273 1512.332275
v 39.562500 -159.250244 1510.812500
v 39.289062 -159.242432 1513.898438
v 39.091801 -159.111237 1510.910034
v 39.977905 -159.786285 1512.446777
v 39.667252 -159.821243 1511.540039
v 39.775391 -159.988525 1513.318359
v 40.015625 -158.984619 1511.203125
v 39.517899 -159.684250 1510.989990
v 40.406250 -158.500244 1514.531250
v 40.093750 -159.375244 1514.000000
v 40.634602 -158.048248 1511.869995
v 40.319336 -157.880127 1514.112061
v 39.993500 -158.184250 1511.790039
v 39.993500 -158.184250 1511.790039
v 40.355598 -158.003250 1514.510010
v 40.640137 -158.769775 1512.501465
v 41.640625 -157.455322 1514.865234
v 41.194099 -157.829239 1514.839966
v 40.722656 -158.218994 1511.941406
v 40.421700 -157.887238 1511.969971
v 41.647339 -156.156860 1514.012573
v 41.378906 -156.906494 1515.240234
v 41.086102 -157.587250 1512.369995
v 41.953125 -156.484497 1513.634033
v 41.704834 -156.829834 1515.380859
v 41.562500 -156.375244 1513.500000
v 41.888855 -156.907471 1515.175781
v 41.821915 -156.322418 1513.505615
v 41.653801 -156.601242 1513.260010
v 41.814400 -156.364243 1513.530029
v 41.819599 -156.233246 1513.699951
v 41.511719 -156.504181 1515.194580
v 42.004707 -156.799484 1514.813721
v 42.011337 -156.485107 1514.833984
v 41.912262 -156.225464 1514.733643
v 41.737549 -156.609131 1515.378784
v 41.791840 -156.364746 1515.209473
v 41.714172 -156.253296 1514.976074
v 41.938721 -156.638184 1515.252930
v 41.819626 -156.117554 1513.967041
v 41.932701 -156.164703 1514.109131
vn -0.3258 -0.8358 -0.4419
vn -0.4571 -0.8482 -0.2675
vn -0.7862 -0.4728 -0.3980
vn -0.4939 -0.8393 0.2271
vn -0.9014 -0.4307 -0.0439
vn -0.7808 -0.2421 0.5760
vn -0.9537 0.2843 0.0985
vn -0.5286 0.6055 0.5949
vn -0.3493 0.0676 0.9346
vn -0.1539 -0.7668 0.6232
vn -0.2113 -0.9773 -0.0146
vn 0.0914 -0.1030 0.9905
vn -0.9254 0.3095 -0.2187
vn -0.8306 -0.0365 -0.5557
vn -0.5730 -0.5560 -0.6021
vn -0.9145 0.4044 0.0124
vn -0.7683 0.6393 0.0327
vn -0.7102 0.6794 0.1845
vn 0.0951 0.7439 0.6615
vn -0.5821 0.1873 -0.7912
vn -0.4710 0.8341 -0.2870
vn -0.1538 0.9546 -0.2553
vn -0.3071 0.9470 0.0947
vn -0.2893 -0.8946 -0.3407
vn -0.0374 -0.9478 0.3166
vn 0.2734 0.4594 0.8451
vn 0.2449 0.7173 0.6523
vn -0.4525 0.2612 -0.8527
vn -0.1749 0.8424 -0.5097
vn 0.1571 0.9171 0.3664
vn 0.1676 -0.3453 0.9234
vn -0.3731 -0.7507 -0.5452
vn -0.3925 -0.5474 -0.7391
vn -0.0578 0.9631 -0.2629
vn 0.0884 -0.6738 0.7336
vn -0.4271 0.0593 -0.9023
vn 0.1328 0.9690 0.2082
vn -0.1694 -0.9792 -0.1119
vn -0.2516 -0.8765 -0.4105
vn -0.1793 -0.9269 -0.3298
vn -0.2927 -0.7794 -0.5540
vn -0.3660 -0.3424 -0.8654
vn -0.2939 0.5961 -0.7472
vn 0.0718 0.9721 0.2234
vn -0.0714 -0.9966 -0.0404
vn 0.1953 0.0104 0.9807
vn -0.1898 -0.8799 -0.4356
vn -0.2696 0.4770 -0.8365
vn -0.2441 -0.3164 -0.9167
vn -0.1031 -0.9279 -0.3582
vn -0.1954 -0.7618 -0.6176
vn 0.1275 0.6302 0.7659
vn 0.1001 0.8968 0.4309
vn -0.0799 0.9875 -0.1359
vn 0.0523 -0.9377 0.3434
vn 0.0890 -0.5571 0.8257
vn -0.1138 0.7870 -0.6064
vn -0.1698 0.1282 -0.9771
vn -0.1072 -0.6408 -0.7602
vn 0.0085 0.9405 0.3398
vn 0.0171 -0.9831 -0.1821
vn -0.0232 -0.9038 -0.4274
vn 0.1162 -0.0709 0.9907
vn 0.1171 -0.9794 0.1645
vn 0.0721 0.5178 0.8524
vn 0.0172 0.8116 0.5840
vn 0.1542 -0.7172 0.6796
vn 0.0800 -0.4107 -0.9083
vn 0.0232 -0.7599 -0.6496
vn -0.0699 0.9353 0.3469
vn -0.1149 0.9900 -0.0822
vn -0.0382 0.2836 -0.9582
vn -0.0837 0.9733 0.2136
vn 0.1050 -0.9044 -0.4135
vn -0.0136 0.3867 0.9221
vn 0.0477 -0.2294 0.9722
vn -0.0789 0.8037 0.5897
vn -0.1541 0.9610 0.2298
vn 0.1211 -0.9742 -0.1903
vn 0.1888 -0.8151 -0.5476
vn -0.1752 0.8710 0.4590
vn -0.0234 0.7253 -0.6880
vn 0.2215 -0.8940 -0.3895
vn 0.1630 0.1837 -0.9694
vn 0.1359 -0.4537 -0.8807
vn -0.1505 0.9859 -0.0738
vn 0.2350 -0.9622 -0.1379
vn 0.1972 -0.9384 0.2837
vn -0.0293 0.0834 0.9961
vn -0.2671 0.7308 0.6281
vn -0.2444 0.9190 0.3094
vn 0.1893 -0.7758 0.6019
vn 0.0720 -0.4947 0.8661
vn 0.2904 -0.4492 -0.8449
vn -0.2308 0.9444 0.2342
vn 0.3409 -0.8864 0.3131
vn 0.2900 -0.8989 -0.3284
vn 0.2978 -0.9523 -0.0661
vn -0.2659 0.2739 0.9243
vn 0.3409 -0.8269 -0.4471
vn -0.3059 0.8940 0.3275
vn -0.2446 0.9683 0.0505
vn 0.3668 -0.1242 -0.9220
vn -0.1239 0.8976 -0.4231
vn 0.1494 0.5683 -0.8092
vn 0.3845 -0.9144 -0.1262
vn -0.1176 -0.1666 0.9790
vn -0.3584 0.6989 0.6189
vn 0.3499 -0.8225 0.4484
vn 0.1988 -0.7340 0.6494
vn 0.4316 -0.6450 -0.6306
vn 0.4755 -0.7411 -0.4740
vn 0.4143 -0.8250 -0.3843
vn 0.4112 -0.1344 -0.9016
vn -0.4251 0.8956 0.1308
vn -0.4685 0.8673 0.1680
vn 0.4289 -0.6599 -0.6169
vn -0.4836 0.5926 0.6442
vn -0.3594 0.9311 0.0621
vn 0.0292 0.7111 -0.7025
vn -0.2280 0.8996 -0.3724
vn 0.4765 -0.8651 -0.1567
vn 0.5095 -0.8582 0.0621
vn 0.2132 -0.6233 0.7523
vn 0.6004 -0.4160 -0.6830
vn 0.5493 -0.7336 -0.4001
vn -0.5757 0.5309 0.6218
vn 0.3988 0.2632 -0.8784
vn 0.6520 -0.6081 -0.4529
vn 0.5924 -0.0524 -0.8039
vn -0.6067 0.7820 0.1427
vn -0.1991 -0.2393 0.9503
vn -0.5504 0.8310 0.0811
vn -0.6708 0.5723 0.4716
vn 0.6108 -0.7740 -0.1671
vn 0.4966 -0.8044 0.3262
vn 0.0152 0.6827 -0.7306
vn -0.5777 0.2444 0.7788
vn -0.4326 0.8662 -0.2500
vn 0.7329 -0.4312 -0.5262
vn 0.6886 -0.6704 -0.2764
vn -0.6735 0.7383 -0.0365
vn -0.7031 0.7004 0.1233
vn 0.7144 -0.6961 -0.0708
vn 0.5179 -0.7415 0.4266
vn 0.5455 0.1654 -0.8216
vn -0.7247 0.3940 0.5653
vn -0.4678 0.8170 -0.3373
vn 0.7954 -0.5956 -0.1121
vn 0.7764 -0.5607 -0.2877
vn 0.7052 -0.6879 0.1716
vn 0.7674 -0.1615 -0.6205
vn 0.7657 -0.4752 -0.4335
vn -0.2150 -0.3123 0.9253
vn 0.4553 -0.6621 0.5953
vn 0.4250 0.3926 -0.8156
vn -0.7889 0.5907 0.1693
vn -0.6237 0.7562 -0.1976
vn -0.3203 0.7984 -0.5099
vn -0.7699 0.2712 0.5777
vn 0.8584 -0.4750 -0.1934
vn 0.7415 -0.5863 0.3262
vn 0.2958 -0.5880 0.7528
vn 0.8270 -0.2202 -0.5173
vn -0.1094 0.7391 -0.6647
vn -0.4959 0.8678 -0.0322
vn -0.5492 0.0774 0.8321
vn 0.7630 0.0709 -0.6425
vn 0.9417 0.0778 -0.3273
vn 0.1532 -0.2576 0.9540
vn -0.3661 0.8408 -0.3988
vn 0.7795 -0.4483 0.4375
vn -0.0708 0.8330 -0.5488
vn 0.7319 0.1948 -0.6530
vn 0.7279 0.4167 -0.5446
vn 0.7494 0.5732 -0.3314
vn -0.6184 0.5882 0.5211
vn 0.9680 -0.2482 0.0369
vn 0.9632 0.2246 0.1476
vn 0.0791 0.2486 0.9654
vn 0.2304 0.7564 0.6122
vn -0.2294 0.9311 0.2834
vn 0.8351 0.0869 0.5432
vn 0.5867 0.7917 0.1704
vn 0.1829 0.9525 -0.2433
vn 0.7395 0.6731 -0.0038
usemtl mtl1
s 1
f 8//1 7//2 6//3
f 7//2 9//4 1//5
f 6//3 7//2 1//5
f 1//5 11//6 2//7
f 11//6 3//8 2//7
f 1//5 9//4 11//6
f 3//8 11//6 12//9
f 11//6 9//4 13//10
f 12//9 11//6 13//10
f 7//2 10//11 9//4
f 9//4 10//11 13//10
f 14//12 12//9 13//10
f 4//13 16//14 6//3
f 6//3 16//14 15//15
f 1//5 2//7 6//3
f 6//3 2//7 4//13
f 5//16 17//17 4//13
f 2//7 5//16 4//13
f 3//8 5//16 2//7
f 5//16 3//8 18//18
f 19//19 18//18 3//8
f 19//19 3//8 12//9
f 14//12 19//19 12//9
f 16//14 21//20 15//15
f 21//20 16//14 22//21
f 21//20 22//21 23//22
f 4//13 20//23 22//21
f 17//17 20//23 4//13
f 4//13 22//21 16//14
f 17//17 18//18 20//23
f 24//24 7//2 8//1
f 25//25 13//10 10//11
f 13//10 25//25 14//12
f 8//1 6//3 15//15
f 19//19 14//12 26//26
f 26//26 27//27 19//19
f 21//20 23//22 28//28
f 28//28 23//22 29//29
f 23//22 22//21 20//23
f 7//2 24//24 10//11
f 27//27 18//18 19//19
f 20//23 18//18 30//30
f 23//22 20//23 30//30
f 26//26 14//12 31//31
f 8//1 15//15 32//32
f 21//20 28//28 33//33
f 29//29 23//22 34//34
f 36//35 14//12 25//25
f 36//35 31//31 14//12
f 15//15 21//20 33//33
f 33//33 32//32 15//15
f 32//32 33//33 8//1
f 28//28 37//36 33//33
f 28//28 29//29 37//36
f 23//22 38//37 34//34
f 35//38 25//25 10//11
f 39//39 24//24 8//1
f 39//39 40//40 24//24
f 24//24 35//38 10//11
f 40//40 35//38 24//24
f 42//41 8//1 33//33
f 41//42 33//33 37//36
f 37//36 29//29 43//43
f 43//43 29//29 34//34
f 38//37 44//44 34//34
f 44//44 38//37 30//30
f 30//30 38//37 23//22
f 40//40 45//45 35//38
f 39//39 8//1 42//41
f 46//46 27//27 26//26
f 42//41 33//33 41//42
f 47//47 39//39 42//41
f 27//27 30//30 18//18
f 53//48 41//42 37//36
f 37//36 43//43 53//48
f 53//48 43//43 34//34
f 48//49 41//42 53//48
f 49//50 45//45 40//40
f 35//38 45//45 25//25
f 47//47 40//40 39//39
f 26//26 31//31 46//46
f 42//41 41//42 50//51
f 50//51 47//47 42//41
f 52//52 27//27 46//46
f 50//51 41//42 48//49
f 44//44 30//30 54//53
f 53//48 34//34 55//54
f 36//35 25//25 56//55
f 50//51 49//50 47//47
f 49//50 40//40 47//47
f 36//35 46//46 31//31
f 36//35 56//55 51//56
f 51//56 46//46 36//35
f 54//53 30//30 27//27
f 34//34 44//44 55//54
f 58//57 53//48 55//54
f 45//45 56//55 25//25
f 27//27 52//52 54//53
f 48//49 53//48 57//58
f 61//59 50//51 48//49
f 62//60 55//54 44//44
f 62//60 44//44 54//53
f 57//58 53//48 58//57
f 59//61 45//45 49//50
f 49//50 60//62 59//61
f 59//61 56//55 45//45
f 63//63 46//46 51//56
f 56//55 64//64 51//56
f 46//46 65//65 52//52
f 60//62 50//51 61//59
f 50//51 60//62 49//50
f 54//53 52//52 62//60
f 65//65 66//66 52//52
f 66//66 62//60 52//52
f 48//49 57//58 61//59
f 51//56 70//67 63//63
f 51//56 64//64 70//67
f 46//46 63//63 65//65
f 61//59 57//58 72//68
f 72//68 71//69 61//59
f 67//70 62//60 66//66
f 58//57 55//54 69//71
f 57//58 58//57 68//72
f 73//73 69//71 55//54
f 55//54 62//60 73//73
f 59//61 64//64 56//55
f 74//74 59//61 60//62
f 66//66 65//65 76//75
f 63//63 76//75 65//65
f 77//76 63//63 70//67
f 71//69 60//62 61//59
f 71//69 74//74 60//62
f 66//66 76//75 75//77
f 66//66 75//77 67//70
f 72//68 57//58 68//72
f 69//71 73//73 78//78
f 67//70 73//73 62//60
f 78//78 73//73 67//70
f 79//79 59//61 74//74
f 76//75 63//63 77//76
f 80//80 74//74 71//69
f 81//81 75//77 76//75
f 67//70 75//77 81//81
f 82//82 58//57 69//71
f 68//72 58//57 82//82
f 79//79 64//64 59//61
f 74//74 83//83 79//79
f 71//69 72//68 80//80
f 84//84 68//72 82//82
f 72//68 68//72 84//84
f 80//80 72//68 85//85
f 86//86 82//82 69//71
f 69//71 78//78 86//86
f 83//83 87//87 79//79
f 87//87 64//64 79//79
f 87//87 88//88 64//64
f 64//64 88//88 70//67
f 89//89 76//75 77//76
f 83//83 74//74 80//80
f 81//81 76//75 90//90
f 84//84 85//85 72//68
f 67//70 81//81 78//78
f 91//91 78//78 81//81
f 70//67 92//92 93//93
f 70//67 93//93 77//76
f 90//90 76//75 89//89
f 93//93 89//89 77//76
f 84//84 94//94 85//85
f 78//78 91//91 95//95
f 86//86 78//78 95//95
f 88//88 92//92 70//67
f 88//88 97//96 92//92
f 87//87 83//83 98//97
f 98//97 96//98 87//87
f 99//99 89//89 93//93
f 80//80 85//85 94//94
f 80//80 100//100 83//83
f 100//100 98//97 83//83
f 91//91 81//81 90//90
f 94//94 100//100 80//80
f 101//101 91//91 90//90
f 102//102 86//86 95//95
f 87//87 96//98 88//88
f 96//98 97//96 88//88
f 90//90 89//89 99//99
f 94//94 84//84 103//103
f 105//104 82//82 86//86
f 106//105 84//84 82//82
f 103//103 84//84 106//105
f 105//104 86//86 102//102
f 100//100 107//106 98//97
f 96//98 98//97 107//106
f 108//107 99//99 93//93
f 90//90 104//108 101//101
f 99//99 104//108 90//90
f 106//105 82//82 105//104
f 102//102 95//95 91//91
f 96//98 107//106 97//96
f 109//109 92//92 97//96
f 109//109 110//110 92//92
f 110//110 93//93 92//92
f 94//94 112//111 100//100
f 100//100 113//112 111//113
f 112//111 113//112 100//100
f 100//100 111//113 107//106
f 111//113 113//112 107//106
f 112//111 94//94 103//103
f 112//111 103//103 113//112
f 115//114 113//112 103//103
f 91//91 101//101 116//115
f 117//116 101//101 104//108
f 91//91 116//115 102//102
f 113//112 115//114 119//117
f 116//115 101//101 117//116
f 104//108 99//99 114//118
f 99//99 108//107 114//118
f 121//119 105//104 102//102
f 106//105 105//104 120//120
f 106//105 115//114 103//103
f 102//102 116//115 121//119
f 122//121 120//120 105//104
f 105//104 121//119 122//121
f 97//96 107//106 118//122
f 113//112 118//122 107//106
f 109//109 97//96 123//123
f 123//123 97//96 118//122
f 110//110 108//107 93//93
f 108//107 110//110 124//124
f 115//114 125//125 119//117
f 113//112 119//117 126//126
f 127//127 114//118 108//107
f 125//125 126//126 119//117
f 106//105 128//128 115//114
f 117//116 104//108 114//118
f 128//128 106//105 120//120
f 109//109 124//124 110//110
f 113//112 126//126 118//122
f 129//129 126//126 125//125
f 115//114 130//130 125//125
f 128//128 130//130 115//114
f 116//115 117//116 131//131
f 117//116 114//118 131//131
f 114//118 127//127 131//131
f 108//107 132//132 127//127
f 122//121 121//119 133//133
f 116//115 133//133 121//119
f 131//131 127//127 134//134
f 126//126 135//135 118//122
f 118//122 135//135 123//123
f 123//123 136//136 109//109
f 109//109 136//136 124//124
f 129//129 135//135 126//126
f 108//107 124//124 132//132
f 120//120 137//137 128//128
f 127//127 138//138 134//134
f 127//127 132//132 138//138
f 122//121 133//133 139//139
f 120//120 122//121 139//139
f 130//130 128//128 137//137
f 135//135 136//136 123//123
f 125//125 130//130 129//129
f 142//140 129//129 130//130
f 129//129 140//141 135//135
f 133//133 116//115 131//131
f 137//137 120//120 139//139
f 131//131 139//139 133//133
f 131//131 143//142 139//139
f 144//143 143//142 131//131
f 145//144 136//136 135//135
f 145//144 135//135 140//141
f 141//145 136//136 145//144
f 136//136 141//145 124//124
f 137//137 146//146 130//130
f 140//141 129//129 142//140
f 142//140 130//130 146//146
f 147//147 138//138 132//132
f 134//134 138//138 147//147
f 134//134 144//143 131//131
f 147//147 144//143 134//134
f 137//137 139//139 148//148
f 148//148 139//139 143//142
f 149//149 140//141 150//150
f 140//141 149//149 145//144
f 145//144 151//151 141//145
f 152//152 142//140 146//146
f 153//153 142//140 152//152
f 140//141 142//140 150//150
f 150//150 142//140 153//153
f 154//154 147//147 132//132
f 124//124 141//145 155//155
f 124//124 154//154 132//132
f 155//155 154//154 124//124
f 137//137 156//156 146//146
f 152//152 146//146 156//156
f 147//147 157//157 144//143
f 148//148 143//142 158//158
f 137//137 148//148 159//159
f 144//143 157//157 143//142
f 160//160 157//157 147//147
f 149//149 150//150 161//161
f 145//144 149//149 151//151
f 155//155 141//145 151//151
f 150//150 153//153 152//152
f 150//150 152//152 161//161
f 162//162 151//151 149//149
f 155//155 163//163 154//154
f 151//151 162//162 155//155
f 162//162 163//163 155//155
f 156//156 164//164 152//152
f 161//161 152//152 164//164
f 160//160 147//147 154//154
f 156//156 137//137 165//165
f 159//159 165//165 137//137
f 166//166 143//142 157//157
f 160//160 154//154 167//167
f 161//161 162//162 149//149
f 168//168 164//164 156//156
f 161//161 164//164 169//169
f 167//167 154//154 170//170
f 165//165 159//159 171//171
f 158//158 143//142 166//166
f 158//158 166//166 171//171
f 164//164 168//168 169//169
f 154//154 163//163 170//170
f 162//162 170//170 163//163
f 162//162 172//172 170//170
f 156//156 173//173 168//168
f 173//173 156//156 165//165
f 171//171 173//173 165//165
f 168//168 174//174 169//169
f 175//175 176//176 169//169
f 169//169 174//174 175//175
f 177//177 166//166 157//157
f 161//161 169//169 178//178
f 161//161 178//178 162//162
f 162//162 178//178 172//172
f 169//169 179//179 178//178
f 160//160 167//167 177//177
f 157//157 160//160 177//177
f 177//177 167//167 181//180
f 170//170 181//180 167//167
f 181//180 182//181 177//177
f 183//182 177//177 182//181
f 172//172 184//183 170//170
f 184//183 181//180 170//170
f 181//180 184//183 182//181
f 178//178 184//183 172//172
f 184//183 179//179 180//184
f 182//181 184//183 180//184
f 185//185 173//173 171//171
f 166//166 177//177 183//182
f 171//171 166//166 185//185
f 169//169 176//176 186//186
f 186//186 176//176 185//185
f 169//169 186//186 179//179
f 166//166 183//182 185//185
f 186//186 185//185 180//184
f 180//184 185//185 183//182
f 179//179 186//186 180//184
f 183//182 182//181 180//184
f 184//183 178//178 179//179
