# Blender v2.77 (sub 0) OBJ File: 'BLANKOblend.blend'
# www.blender.org
mtllib tarsal plate of right lower eyelid.mtl
o grp1
v -43.197510 -157.114136 1514.878784
v -43.330688 -156.728302 1514.871094
v -43.251831 -156.479736 1513.573730
v -43.299622 -156.489258 1515.051758
v -43.143890 -156.085907 1514.011353
v -43.271492 -156.216217 1514.327393
v -42.451172 -157.961182 1512.755859
v -42.121094 -158.176025 1512.042969
v -43.216309 -156.877686 1515.206055
v -42.406250 -158.093994 1514.656250
v -42.812500 -157.172119 1515.236328
v -43.081543 -156.302979 1513.528320
v -43.067192 -156.391357 1515.260742
v -42.768555 -156.572021 1515.220459
v -42.924133 -156.306030 1515.049316
v -43.167000 -156.687241 1515.339966
v -43.160500 -156.592239 1515.329956
v -43.166992 -156.688812 1515.341553
v -43.043182 -156.652954 1515.386353
v -42.710701 -156.963242 1515.250000
v -41.523438 -157.906494 1512.015625
v -42.988708 -156.126648 1513.920044
v -43.149384 -156.212769 1514.860840
v -41.873600 -159.002243 1513.000000
v -41.843750 -159.000244 1514.066406
v -42.031250 -158.015869 1511.937500
v -41.843750 -158.343994 1514.609375
v -41.412899 -158.327240 1514.369995
v -41.412899 -158.327240 1514.369995
v -41.390999 -158.037247 1513.170044
v -41.046875 -159.211182 1510.921875
v -41.483398 -159.178955 1511.677734
v -40.857849 -160.292267 1512.514771
v -39.903099 -159.485245 1510.680054
v -40.564400 -159.181244 1510.760010
v -41.368401 -158.243240 1514.189941
v -40.740234 -160.247803 1511.718750
v -40.523438 -160.574463 1513.210938
v -40.218750 -160.343994 1513.609375
v -39.109375 -161.000244 1513.234375
v -39.875000 -160.172119 1513.585938
v -39.974300 -159.906250 1513.589966
v -39.666992 -160.112549 1513.324219
v -39.457031 -160.677979 1509.779297
v -39.067795 -161.926300 1512.119751
v -40.101562 -160.968994 1513.007812
v -38.960938 -161.890869 1512.572266
v -38.937500 -160.531494 1509.406250
v -40.075699 -159.386246 1512.459961
v -39.922852 -161.129395 1511.679688
v -38.669189 -162.120972 1511.508789
v -39.234375 -160.715088 1509.550781
v -38.617188 -161.004150 1512.982422
v -38.890625 -160.224854 1509.755859
v -39.068150 -160.180237 1510.765015
v -38.125000 -161.655518 1509.236328
v -37.751999 -162.312241 1512.609985
v -38.536098 -160.578247 1511.550049
v -37.642578 -162.795166 1512.004883
v -36.437500 -161.640869 1508.125000
v -37.187500 -161.468994 1508.437500
v -36.937500 -162.484619 1512.566406
v -37.171875 -161.258057 1508.578125
v -37.774414 -160.827881 1509.274902
v -37.557205 -161.175323 1510.353760
v -37.470459 -161.251801 1511.335449
v -37.243652 -163.060425 1511.527100
v -37.617188 -162.609619 1512.382812
v -37.121094 -162.090088 1508.675781
v -37.421875 -161.668213 1508.542969
v -37.638599 -161.528244 1512.400024
v -37.382812 -161.878174 1512.595703
v -36.372070 -162.226318 1512.189453
v -36.132812 -161.452881 1508.468750
v -36.261108 -161.739746 1509.889160
v -36.582100 -162.614243 1509.180054
v -35.539062 -162.549072 1507.988281
v -35.242188 -163.222900 1512.216797
v -36.154099 -161.909241 1510.979980
v -35.614258 -163.794434 1511.339111
v -34.453125 -163.703369 1512.017578
v -35.617188 -162.260010 1507.755859
v -35.609375 -162.062744 1507.750000
v -35.600101 -162.789246 1508.439941
v -34.702148 -161.873260 1508.421875
v -35.047901 -163.196243 1508.859985
v -35.458599 -163.608246 1511.849976
v -34.390320 -162.652344 1511.020508
v -35.359375 -162.847900 1512.158203
v -33.356201 -164.508347 1511.029419
v -32.401367 -164.308838 1511.817871
v -33.406250 -162.367432 1507.273438
v -33.603516 -162.793884 1507.252930
v -34.667969 -162.895996 1511.918945
v -33.079590 -163.126221 1511.352539
v -33.269501 -164.436249 1511.369995
v -33.531250 -163.636963 1511.991211
v -33.668945 -163.271729 1507.916016
v -34.015625 -162.511963 1507.292969
v -33.468750 -162.119385 1507.614258
v -32.523438 -162.993896 1507.123535
v -32.617188 -163.514709 1511.776855
v -32.289062 -162.757080 1507.012939
v -32.597698 -162.398239 1508.589966
v -31.366364 -163.853760 1508.214844
v -31.800800 -163.986237 1511.920044
v -31.050781 -163.571533 1511.407227
v -31.565430 -164.863281 1511.130737
v -30.054688 -165.025757 1511.468750
v -31.218750 -163.255859 1507.117188
v -30.324707 -162.640381 1507.077637
v -30.369873 -162.510590 1507.401123
v -28.117188 -165.015869 1511.923828
v -30.125200 -164.140244 1511.920044
v -30.345703 -163.192139 1507.034180
v -29.648438 -162.827759 1507.062500
v -29.347656 -164.394073 1512.025146
v -29.410156 -163.556885 1507.458984
v -30.172600 -163.141251 1510.130005
v -28.279200 -163.952240 1511.810059
v -27.934200 -163.502243 1511.069946
v -29.458599 -165.024246 1511.109985
v -28.181152 -165.137848 1511.514282
v -28.488281 -164.238525 1508.953125
v -29.573000 -164.705246 1511.939941
v -28.984375 -163.170166 1507.162109
v -27.031250 -162.775513 1507.837891
v -26.457031 -164.028076 1512.247070
v -26.578125 -164.440674 1512.468750
v -28.296875 -163.453857 1507.435547
v -27.781250 -162.967041 1507.460938
v -28.031500 -163.075241 1509.750000
v -26.136719 -164.744385 1510.750000
v -25.296875 -164.672119 1512.640625
v -26.578125 -163.429688 1507.843750
v -26.135300 -163.563248 1511.609985
v -25.129400 -163.089249 1510.660034
v -24.570312 -164.746826 1512.541016
v -26.254450 -163.885498 1508.790039
v -25.984375 -162.904816 1508.046875
v -25.764999 -162.763245 1508.459961
v -24.866211 -164.859650 1511.943726
v -25.187500 -163.379883 1508.382812
v -24.500000 -162.961182 1508.609375
v -24.838699 -164.411743 1510.590088
v -22.873047 -164.501770 1512.161133
v -24.408600 -164.306244 1512.939941
v -22.500000 -163.707275 1513.375000
v -24.187500 -162.730713 1508.906250
v -22.929688 -164.558350 1512.613281
v -23.932850 -163.978745 1510.185059
v -22.159599 -163.651993 1510.852539
v -22.875000 -163.047119 1509.468750
v -21.470400 -163.010239 1512.369995
v -23.505600 -162.795242 1509.140015
v -22.500000 -163.252197 1509.843750
v -21.781250 -162.519775 1510.234375
v -20.132812 -162.467041 1511.390625
v -20.734375 -162.541260 1510.761719
v -20.445312 -162.650513 1510.871094
v -19.876343 -163.695618 1513.888306
v -19.893555 -162.923096 1511.425781
v -20.330566 -163.296631 1513.677246
v -21.625000 -163.734619 1513.593750
v -19.955322 -163.536377 1513.914551
v -20.203199 -162.895248 1511.160034
v -19.686279 -163.813141 1513.514526
v -19.835938 -162.562744 1511.859375
v -19.592651 -163.355713 1513.786133
v -19.706543 -162.978760 1513.085938
v -19.924805 -162.663940 1511.388672
v -19.992201 -162.539246 1511.430054
v -19.910156 -162.912720 1511.437500
v -19.546875 -163.643402 1513.794922
v -19.696100 -163.628250 1513.869995
v -19.441650 -163.615051 1513.412109
v -19.643700 -163.042252 1512.060059
v -19.427109 -163.271240 1513.276855
v -19.631836 -162.789307 1512.554688
v -19.696100 -163.628250 1513.869995
v -19.517334 -163.475586 1513.791260
v -19.845100 -162.604248 1511.609985
v -19.845100 -162.604248 1511.609985
v -19.695312 -162.653915 1512.101562
v -19.630859 -162.730713 1511.968750
v -19.698975 -162.647217 1512.107422
vn -0.8495 -0.5101 0.1344
vn -0.9859 -0.1401 0.0913
vn -0.8967 0.1160 -0.4272
vn -0.8671 0.4964 0.0427
vn -0.3346 0.9369 -0.1014
vn -0.8969 0.2968 0.3279
vn -0.8788 -0.4235 -0.2200
vn -0.8369 -0.2319 -0.4958
vn -0.4554 -0.6444 0.6143
vn -0.7556 -0.3671 0.5425
vn -0.0921 -0.4455 0.8906
vn -0.9426 0.0764 0.3250
vn -0.5748 0.3477 0.7407
vn -0.0886 0.6834 0.7247
vn -0.6475 -0.1270 0.7514
vn 0.0498 0.0938 0.9943
vn 0.4700 0.0054 0.8827
vn 0.6727 0.5139 0.5324
vn 0.5093 0.8124 0.2840
vn -0.2289 0.7745 -0.5897
vn 0.4316 0.8887 -0.1549
vn 0.3996 0.7863 -0.4713
vn -0.3148 0.9157 0.2498
vn -0.8199 -0.5678 -0.0733
vn -0.6252 -0.6902 0.3644
vn 0.1765 -0.3447 0.9220
vn -0.4528 0.3823 -0.8055
vn 0.4786 -0.0531 0.8764
vn 0.7741 0.4331 0.4618
vn 0.7451 0.6634 0.0695
vn -0.6585 -0.0359 -0.7517
vn -0.8130 -0.4843 -0.3232
vn -0.7519 -0.6574 -0.0488
vn 0.5677 0.8146 -0.1189
vn -0.0640 0.6655 -0.7437
vn 0.7916 0.5545 0.2569
vn -0.7579 -0.5991 -0.2583
vn -0.5541 -0.7494 0.3625
vn -0.0648 -0.5277 0.8470
vn 0.5142 0.1164 0.8497
vn 0.4778 0.0815 0.8747
vn 0.6667 0.2352 0.7072
vn 0.7176 0.5520 0.4246
vn -0.6777 -0.7096 -0.1929
vn -0.7037 -0.5046 -0.5001
vn -0.5954 -0.8031 0.0208
vn -0.4069 -0.7916 0.4559
vn -0.5048 -0.7580 0.4130
vn -0.2484 0.4464 -0.8597
vn 0.6924 0.7088 0.1350
vn -0.5785 -0.7890 -0.2068
vn -0.6217 -0.2023 -0.7567
vn 0.5890 0.5026 0.6328
vn 0.3907 0.8696 -0.3020
vn 0.5943 0.8026 0.0502
vn -0.5886 -0.6784 -0.4396
vn -0.1541 -0.6059 0.7804
vn 0.5893 0.7961 0.1381
vn 0.1378 -0.2440 0.9600
vn -0.3381 0.2061 -0.9183
vn -0.1807 0.4997 -0.8471
vn 0.0563 0.8505 -0.5229
vn 0.4361 0.8999 0.0028
vn 0.4908 0.8652 0.1023
vn 0.5063 0.8464 0.1654
vn -0.4569 -0.8865 -0.0729
vn -0.4118 -0.8764 0.2498
vn -0.2433 -0.7506 0.6144
vn -0.5030 -0.2843 -0.8162
vn -0.5036 -0.6975 -0.5097
vn 0.5576 0.7516 0.3524
vn 0.4845 0.4796 0.7316
vn 0.4692 0.7631 0.4445
vn 0.2684 0.9614 -0.0606
vn 0.3865 0.9052 0.1765
vn -0.4418 -0.8383 -0.3195
vn -0.3847 -0.7228 -0.5740
vn 0.4354 0.8840 0.1705
vn -0.3394 -0.9390 0.0559
vn -0.0491 -0.5752 0.8165
vn 0.1732 -0.0198 0.9847
vn -0.3808 -0.4068 -0.8304
vn -0.2368 0.2670 -0.9342
vn -0.3853 -0.8180 -0.4270
vn 0.2699 0.9428 0.1958
vn -0.3227 -0.8840 -0.3381
vn -0.2262 -0.8230 0.5210
vn 0.3201 0.9070 0.2736
vn 0.3246 0.3580 0.8755
vn -0.0920 -0.5737 0.8139
vn -0.0283 0.5864 -0.8096
vn -0.2400 -0.4906 -0.8377
vn 0.3177 0.7385 0.5947
vn 0.2417 0.8883 0.3906
vn 0.1374 0.9482 -0.2863
vn -0.2533 -0.9656 -0.0593
vn -0.2071 -0.8840 0.4191
vn 0.1184 0.1434 0.9826
vn -0.2385 -0.8498 -0.4701
vn -0.2163 0.0992 -0.9713
vn -0.1496 -0.5926 -0.7915
vn 0.1560 0.6640 0.7313
vn -0.0420 0.0848 -0.9955
vn 0.1663 0.9591 0.2292
vn -0.0991 -0.9074 -0.4085
vn 0.0098 0.0954 0.9954
vn 0.1186 0.8616 0.4935
vn -0.1640 -0.9864 -0.0148
vn -0.0924 -0.9612 0.2598
vn -0.0831 -0.6532 -0.7526
vn 0.0896 0.6254 -0.7752
vn 0.0913 0.9916 -0.0913
vn -0.0566 -0.8446 0.5324
vn 0.0470 0.5895 0.8064
vn 0.0285 -0.4004 -0.9159
vn 0.1583 0.3401 -0.9270
vn -0.0603 0.1549 0.9861
vn 0.0325 -0.8252 -0.5639
vn 0.0500 0.9408 0.3351
vn -0.0581 0.7824 0.6200
vn -0.0666 0.9162 0.3952
vn -0.0430 -0.9715 -0.2332
vn 0.0264 -0.9996 -0.0130
vn 0.0478 -0.9194 -0.3903
vn -0.1274 -0.3866 0.9134
vn 0.1696 -0.6553 -0.7361
vn 0.1526 -0.2366 -0.9595
vn 0.1435 0.9185 -0.3684
vn -0.1518 0.7010 0.6969
vn -0.1790 0.1659 0.9698
vn 0.2817 0.2944 -0.9132
vn -0.0116 0.9746 0.2238
vn 0.1295 -0.9384 -0.3204
vn -0.0868 -0.6250 0.7758
vn -0.1348 0.8864 0.4429
vn 0.2829 -0.5266 -0.8016
vn -0.1064 0.9585 0.2645
vn 0.0524 -0.8932 0.4465
vn 0.1710 -0.8826 -0.4379
vn 0.0135 0.9959 -0.0895
vn 0.3018 0.5297 -0.7927
vn 0.1429 -0.9854 -0.0925
vn 0.3514 -0.5464 -0.7602
vn 0.4389 0.1655 -0.8831
vn 0.2155 -0.9051 -0.3664
vn 0.2640 -0.9316 -0.2500
vn -0.1646 -0.3160 0.9344
vn -0.2484 0.4464 0.8597
vn 0.1990 0.8149 -0.5444
vn 0.1511 -0.9779 0.1446
vn 0.2815 -0.8573 -0.4310
vn 0.4974 -0.2384 -0.8341
vn -0.1731 0.9182 0.3562
vn 0.4111 0.3638 -0.8359
vn 0.4151 -0.6827 -0.6013
vn 0.3499 -0.8389 -0.4168
vn 0.1694 0.9174 -0.3601
vn 0.2249 0.9620 -0.1552
vn 0.3511 0.7350 -0.5801
vn 0.0977 -0.6399 0.7623
vn -0.1408 0.7554 0.6400
vn -0.2194 0.0313 0.9751
vn -0.0254 0.2336 0.9720
vn 0.6039 0.1962 -0.7725
vn 0.7735 -0.4046 -0.4879
vn 0.5849 -0.3896 -0.7114
vn 0.4107 -0.9117 0.0135
vn -0.1435 0.9390 0.3124
vn 0.3943 0.6098 0.6875
vn 0.7734 0.2054 -0.5998
vn 0.5625 0.7053 -0.4316
vn 0.8412 0.2864 -0.4585
vn 0.6493 -0.5229 0.5523
vn 0.2985 -0.6101 0.7340
vn 0.8556 -0.5117 -0.0784
vn 0.8913 -0.3263 -0.3148
vn 0.9235 0.3178 -0.2147
vn 0.1609 0.9131 0.3748
vn 0.4509 0.8637 0.2253
vn 0.9305 0.3511 0.1043
vn 0.2492 0.1170 0.9614
vn 0.7700 0.1307 0.6245
vn 0.8195 0.3864 -0.4233
vn 0.4966 0.8663 -0.0541
vn 0.7269 0.6868 0.0034
vn 0.1006 0.9488 0.2995
usemtl mtl1
s 1
f 1//1 2//2 3//3
f 2//2 6//4 3//3
f 5//5 3//3 6//4
f 2//2 4//6 6//4
f 7//7 3//3 8//8
f 1//1 10//9 9//10
f 9//10 10//9 11//11
f 3//3 7//7 1//1
f 1//1 9//10 2//2
f 2//2 9//10 4//6
f 16//12 17//13 4//6
f 9//10 16//12 4//6
f 13//14 4//6 17//13
f 9//10 18//15 16//12
f 17//13 18//15 19//16
f 13//14 17//13 19//16
f 9//10 11//11 18//15
f 19//16 18//15 11//11
f 11//11 20//17 19//16
f 14//18 19//16 20//17
f 14//18 13//14 19//16
f 13//14 14//18 15//19
f 5//5 12//20 3//3
f 22//21 12//20 5//5
f 22//21 21//22 12//20
f 22//21 15//19 14//18
f 14//18 21//22 22//21
f 6//4 4//6 23//23
f 5//5 6//4 23//23
f 4//6 13//14 23//23
f 13//14 15//19 23//23
f 22//21 5//5 15//19
f 15//19 5//5 23//23
f 24//24 1//1 7//7
f 1//1 25//25 10//9
f 27//26 11//11 10//9
f 3//3 26//27 8//8
f 3//3 12//20 26//27
f 27//26 28//28 20//17
f 20//17 29//29 14//18
f 27//26 20//17 11//11
f 21//22 14//18 30//30
f 31//31 32//32 8//8
f 7//7 8//8 32//32
f 7//7 32//32 24//24
f 25//25 1//1 24//24
f 25//25 24//24 33//33
f 26//27 31//31 8//8
f 30//30 34//34 21//22
f 21//22 26//27 12//20
f 21//22 35//35 26//27
f 30//30 14//18 36//36
f 24//24 32//32 37//37
f 37//37 33//33 24//24
f 25//25 33//33 38//38
f 38//38 10//9 25//25
f 39//39 10//9 38//38
f 39//39 27//26 10//9
f 31//31 26//27 35//35
f 39//39 40//40 41//41
f 39//39 41//41 27//26
f 41//41 42//42 27//26
f 30//30 36//36 43//43
f 29//29 42//42 43//43
f 34//34 35//35 21//22
f 28//28 27//26 42//42
f 29//29 36//36 14//18
f 36//36 29//29 43//43
f 33//33 37//37 50//44
f 37//37 32//32 44//45
f 33//33 45//46 38//38
f 47//47 38//38 46//48
f 31//31 44//45 32//32
f 38//38 47//47 39//39
f 31//31 35//35 48//49
f 49//50 34//34 30//30
f 30//30 43//43 49//50
f 37//37 44//45 50//44
f 50//44 51//51 45//46
f 50//44 45//46 33//33
f 46//48 38//38 45//46
f 46//48 45//46 47//47
f 52//52 44//45 31//31
f 41//41 40//40 53//53
f 31//31 48//49 52//52
f 34//34 54//54 35//35
f 54//54 48//49 35//35
f 54//54 34//34 55//55
f 49//50 55//55 34//34
f 43//43 42//42 41//41
f 44//45 56//56 50//44
f 50//44 56//56 51//51
f 57//57 39//39 47//47
f 49//50 43//43 53//53
f 53//53 43//43 41//41
f 58//58 55//55 49//50
f 44//45 52//52 56//56
f 53//53 40//40 62//59
f 61//60 48//49 60//61
f 48//49 63//62 60//61
f 48//49 61//60 52//52
f 63//62 48//49 54//54
f 64//63 63//62 54//54
f 54//54 55//55 65//64
f 58//58 65//64 55//55
f 65//64 58//58 66//65
f 51//51 67//66 45//46
f 45//46 67//66 59//67
f 67//66 51//51 56//56
f 59//67 47//47 45//46
f 59//67 68//68 47//47
f 47//47 68//68 57//57
f 62//59 39//39 57//57
f 62//59 40//40 39//39
f 70//69 52//52 61//60
f 56//56 52//52 70//69
f 69//70 56//56 70//69
f 58//58 71//71 66//65
f 53//53 58//58 49//50
f 58//58 53//53 71//71
f 71//71 72//72 73//73
f 53//53 72//72 71//71
f 72//72 53//53 62//59
f 64//63 74//74 63//62
f 64//63 54//54 65//64
f 65//64 75//75 64//63
f 76//76 67//66 56//56
f 62//59 57//57 68//68
f 69//70 70//69 77//77
f 76//76 56//56 69//70
f 75//75 65//64 79//78
f 66//65 79//78 65//64
f 71//71 73//73 66//65
f 80//79 59//67 67//66
f 80//79 67//66 76//76
f 68//68 81//80 62//59
f 62//59 81//80 78//81
f 82//82 70//69 61//60
f 83//83 82//82 61//60
f 70//69 82//82 77//77
f 76//76 69//70 84//84
f 69//70 77//77 84//84
f 78//81 72//72 62//59
f 83//83 61//60 60//61
f 75//75 74//74 64//63
f 74//74 75//75 85//85
f 79//78 66//65 73//73
f 76//76 86//86 80//79
f 87//87 68//68 59//67
f 87//87 59//67 80//79
f 86//86 76//76 84//84
f 79//78 88//88 75//75
f 89//89 72//72 78//81
f 89//89 73//73 72//72
f 68//68 87//87 81//80
f 81//80 87//87 91//90
f 60//61 92//91 83//83
f 93//92 77//77 82//82
f 88//88 85//85 75//75
f 73//73 88//88 79//78
f 94//93 88//88 73//73
f 94//93 95//94 88//88
f 73//73 89//89 94//93
f 100//95 60//61 63//62
f 92//91 60//61 100//95
f 100//95 63//62 74//74
f 74//74 85//85 100//95
f 90//96 96//97 80//79
f 90//96 80//79 86//86
f 78//81 81//80 97//98
f 98//99 84//84 77//77
f 86//86 84//84 98//99
f 97//98 94//93 89//89
f 78//81 97//98 89//89
f 93//92 82//82 99//100
f 83//83 99//100 82//82
f 99//100 83//83 92//91
f 87//87 80//79 96//97
f 98//99 90//96 86//86
f 96//97 91//90 87//87
f 93//92 101//101 98//99
f 94//93 102//102 95//94
f 92//91 103//103 99//100
f 77//77 93//92 98//99
f 88//88 95//94 85//85
f 104//104 85//85 95//94
f 100//95 85//85 104//104
f 98//99 105//105 90//96
f 106//106 102//102 97//98
f 97//98 102//102 94//93
f 107//107 95//94 102//102
f 103//103 93//92 99//100
f 93//92 103//103 101//101
f 90//96 108//108 96//97
f 96//97 108//108 109//109
f 109//109 91//90 96//97
f 106//106 97//98 81//80
f 98//99 101//101 110//110
f 92//91 111//111 103//103
f 111//111 92//91 100//95
f 112//112 111//111 100//95
f 105//105 108//108 90//96
f 91//90 109//109 113//113
f 91//90 106//106 81//80
f 101//101 103//103 110//110
f 110//110 105//105 98//99
f 106//106 114//114 102//102
f 102//102 114//114 107//107
f 115//115 110//110 103//103
f 95//94 107//107 104//104
f 103//103 111//111 116//116
f 100//95 104//104 112//112
f 114//114 106//106 117//117
f 115//115 118//118 110//110
f 119//119 120//120 121//121
f 119//119 104//104 107//107
f 107//107 120//120 119//119
f 116//116 115//115 103//103
f 112//112 104//104 119//119
f 105//105 122//122 108//108
f 122//122 109//109 108//108
f 122//122 123//123 109//109
f 124//124 122//122 105//105
f 125//125 91//90 113//113
f 117//117 106//106 91//90
f 120//120 107//107 114//114
f 130//126 118//118 115//115
f 110//110 118//118 105//105
f 118//118 124//124 105//105
f 126//127 130//126 115//115
f 115//115 116//116 126//127
f 111//111 112//112 127//128
f 125//125 117//117 91//90
f 120//120 114//114 117//117
f 128//129 120//120 117//117
f 129//130 117//117 125//125
f 116//116 131//131 126//127
f 131//131 116//116 111//111
f 123//123 122//122 124//124
f 109//109 123//123 113//113
f 128//129 117//117 129//130
f 118//118 130//126 124//124
f 132//132 112//112 119//119
f 132//132 119//119 121//121
f 123//123 124//124 133//133
f 125//125 113//113 134//134
f 121//121 120//120 136//135
f 131//131 111//111 127//128
f 130//126 126//127 135//136
f 132//132 121//121 137//137
f 138//138 113//113 123//123
f 134//134 129//130 125//125
f 130//126 135//136 139//139
f 124//124 130//126 139//139
f 126//127 131//131 135//136
f 127//128 112//112 132//132
f 127//128 132//132 141//140
f 141//140 132//132 137//137
f 137//137 121//121 136//135
f 140//141 131//131 127//128
f 133//133 142//142 123//123
f 123//123 142//142 138//138
f 139//139 133//133 124//124
f 138//138 134//134 113//113
f 128//129 136//135 120//120
f 135//136 143//143 139//139
f 140//141 135//136 131//131
f 140//141 144//144 135//136
f 140//141 127//128 141//140
f 145//145 142//142 133//133
f 142//142 145//145 146//146
f 147//147 129//130 134//134
f 145//145 133//133 139//139
f 147//147 148//148 129//130
f 143//143 135//136 144//144
f 149//149 140//141 141//140
f 149//149 144//144 140//141
f 150//150 138//138 142//142
f 134//134 138//138 147//147
f 145//145 139//139 151//151
f 139//139 143//143 151//151
f 145//145 151//151 146//146
f 143//143 144//144 153//152
f 136//135 128//129 154//153
f 155//154 144//144 149//149
f 146//146 150//150 142//142
f 151//151 143//143 156//155
f 151//151 156//155 152//156
f 155//154 153//152 144//144
f 149//149 157//157 155//154
f 158//158 141//140 137//137
f 137//137 136//135 158//158
f 153//152 156//155 143//143
f 128//129 129//130 148//148
f 157//157 159//159 155//154
f 149//149 141//140 157//157
f 157//157 141//140 158//158
f 136//135 154//153 158//158
f 152//156 146//146 151//151
f 150//150 161//160 138//138
f 154//153 128//129 163//161
f 128//129 148//148 163//161
f 164//162 148//148 147//147
f 147//147 138//138 161//160
f 161//160 164//162 147//147
f 148//148 164//162 165//163
f 155//154 160//164 153//152
f 159//159 160//164 155//154
f 148//148 165//163 163//161
f 152//156 156//155 162//165
f 166//166 156//155 153//152
f 160//164 166//166 153//152
f 167//167 150//150 146//146
f 146//146 152//156 167//167
f 159//159 157//157 158//158
f 158//158 154//153 168//168
f 161//160 165//163 164//162
f 156//155 166//166 162//165
f 152//156 162//165 167//167
f 154//153 163//161 168//168
f 169//169 163//161 165//163
f 159//159 158//158 160//164
f 158//158 171//170 160//164
f 160//164 171//170 166//166
f 171//170 158//158 172//171
f 166//166 171//170 173//172
f 167//167 161//160 150//150
f 174//173 161//160 167//167
f 161//160 174//173 175//174
f 174//173 167//167 176//175
f 162//165 173//172 177//176
f 177//176 185//177 176//175
f 168//168 163//161 170//178
f 179//179 170//178 169//169
f 162//165 176//175 167//167
f 176//175 185//177 178//180
f 169//169 178//180 179//179
f 176//175 162//165 177//176
f 170//178 163//161 169//169
f 180//181 165//163 161//160
f 181//182 165//163 180//181
f 181//182 169//169 165//163
f 180//181 174//173 181//182
f 181//182 174//173 176//175
f 176//175 178//180 181//182
f 181//182 178//180 169//169
f 172//171 182//183 171//170
f 183//184 172//171 158//158
f 183//184 158//158 184//185
f 173//172 171//170 185//177
f 173//172 185//177 177//176
f 182//183 185//177 171//170
f 185//177 183//184 184//185
f 178//180 185//177 179//179
f 179//179 185//177 184//185
f 186//186 168//168 170//178
f 170//178 179//179 186//186
