# Blender v2.77 (sub 0) OBJ File: 'BLANKOblend.blend'
# www.blender.org
mtllib posterior cusp of pulmonary valve.mtl
o grp1
v 30.300781 -130.433792 1247.517578
v 31.595459 -129.099808 1248.839844
v 33.792969 -131.611526 1246.376953
v 32.776978 -128.371780 1250.166992
v 34.230225 -128.350906 1251.084961
v 31.555664 -132.688675 1245.717773
v 34.785156 -129.906448 1248.400391
v 35.623657 -128.986954 1251.312500
v 33.970703 -134.073441 1245.382812
v 33.617188 -131.826370 1247.814453
v 35.663086 -132.909134 1247.957031
v 34.040100 -130.572464 1249.410156
v 36.983398 -131.085159 1248.994141
v 37.221954 -130.019180 1252.207520
v 36.353516 -135.165237 1246.007812
v 35.997070 -132.158157 1246.831055
v 34.343750 -134.555954 1246.565918
v 37.585938 -133.100296 1247.601562
v 38.769043 -132.510452 1250.028809
v 36.957031 -132.684769 1249.708008
v 35.732422 -136.575394 1245.848633
v 33.267578 -135.551956 1245.119507
v 37.046875 -134.633621 1248.253906
v 40.050171 -134.657303 1250.508789
v 38.724609 -135.639420 1247.978516
v 37.459961 -137.225784 1247.063477
v 39.967041 -136.738968 1249.988281
v 29.107544 -128.208206 1251.710938
v 30.328369 -127.559105 1253.727539
v 32.782715 -127.651604 1253.778564
v 29.001953 -132.738480 1246.347656
v 29.853027 -130.304886 1249.881836
v 32.009094 -129.204300 1251.734375
v 35.030151 -130.007034 1251.620605
v 34.484833 -128.249268 1255.141846
v 30.363281 -132.234573 1247.595703
v 32.752014 -128.829315 1253.568726
v 34.461899 -129.450195 1254.150879
v 28.884766 -135.200394 1245.647949
v 29.709961 -136.523392 1246.537598
v 32.353516 -133.981155 1246.417725
v 38.138428 -133.584183 1250.768555
v 37.097534 -131.614883 1254.008423
v 31.924194 -137.646683 1245.513672
v 32.306499 -136.278198 1246.369995
v 39.496635 -132.999130 1253.115356
v 38.530273 -132.092484 1255.241699
v 35.708984 -135.402786 1247.084961
v 34.869141 -137.172562 1247.058594
v 34.697266 -138.400589 1246.238281
v 38.495117 -135.953812 1249.978516
v 37.334961 -137.232010 1248.865234
v 37.084473 -138.849075 1248.124023
v 27.683594 -129.225784 1250.519531
v 26.746094 -131.215042 1248.757812
v 28.945068 -128.881760 1254.125000
v 26.908203 -133.509964 1247.001953
v 27.475586 -132.072464 1249.314453
v 35.702637 -129.441116 1256.555176
v 28.102539 -134.819534 1247.132812
v 27.461914 -136.130569 1246.185059
v 28.717285 -137.070511 1245.831543
v 30.135742 -139.127151 1246.616211
v 33.464600 -139.703812 1247.153320
v 31.649414 -138.106644 1247.046875
v 39.002777 -134.630783 1254.578369
v 33.841797 -138.635208 1247.781738
v 39.439850 -135.770340 1252.713623
v 40.459473 -135.518021 1254.488281
v 35.922363 -138.498734 1248.936035
v 38.956787 -137.547928 1252.069824
v 40.567322 -136.799088 1252.242188
v 39.433533 -138.803268 1251.819092
v 40.397369 -138.020294 1254.182129
v 25.885742 -130.194046 1251.076172
v 27.044312 -128.150925 1254.914795
v 24.689453 -131.387405 1251.694336
v 25.775391 -133.673050 1248.126953
v 31.238770 -127.929039 1258.867920
v 26.768555 -134.200394 1248.583984
v 26.585938 -137.943558 1247.496094
v 35.093750 -130.718948 1258.484375
v 35.355469 -130.171097 1258.358398
v 28.082031 -137.440628 1247.561523
v 39.481689 -135.106888 1257.093506
v 38.093750 -133.906448 1257.609375
v 38.296398 -134.457199 1257.319946
v 29.407227 -139.776566 1249.369141
v 30.742920 -140.035721 1250.049561
v 39.326660 -136.838593 1257.277832
v 39.202400 -136.332199 1257.050049
v 35.078701 -139.970200 1249.359985
v 30.232422 -140.776566 1248.599121
v 38.848145 -138.694809 1257.230225
v 39.409721 -137.438904 1254.002197
v 39.080872 -139.667770 1256.890991
v 25.104187 -129.487076 1255.037598
v 25.883301 -131.969437 1251.824219
v 27.212099 -130.409195 1252.119995
v 25.953033 -130.292923 1255.160156
v 26.976288 -129.308456 1256.688477
v 27.750000 -128.968948 1260.769531
v 24.080078 -133.556839 1251.507812
v 32.859375 -128.718948 1259.128906
v 25.682617 -137.497513 1248.386719
v 26.847656 -136.644241 1248.509766
v 25.750488 -136.146439 1250.604492
v 24.807129 -133.355423 1253.436523
v 33.056641 -129.476639 1259.145508
v 32.739101 -129.350204 1259.040039
v 33.048698 -129.491196 1259.150024
v 33.898602 -129.765198 1258.890015
v 35.300999 -130.980194 1258.410034
v 37.145100 -132.839203 1257.900024
v 27.695312 -139.552933 1247.861328
v 28.160156 -139.113480 1248.954102
v 38.477600 -134.594193 1257.500000
v 39.202400 -136.332199 1257.050049
v 39.412998 -136.445206 1257.219971
v 39.412998 -136.445206 1257.219971
v 40.031006 -136.820175 1256.920532
v 39.188499 -138.210205 1257.260010
v 39.326900 -137.582199 1257.079956
v 39.447201 -137.498199 1257.209961
v 39.278900 -136.846191 1257.270020
v 39.412998 -136.445206 1257.219971
v 39.202400 -136.332199 1257.050049
v 39.278900 -136.846191 1257.270020
v 40.200256 -138.236343 1256.119629
v 23.999786 -130.614944 1257.192871
v 25.959244 -128.643295 1259.841553
v 28.528809 -127.983421 1259.847656
v 30.412201 -128.217194 1259.810059
v 26.703125 -128.656448 1261.017578
v 27.503799 -128.528198 1260.760010
v 31.051001 -128.804199 1259.739990
v 30.412201 -128.217194 1259.810059
v 24.589111 -137.380142 1250.945312
v 31.777344 -129.095901 1259.316406
v 31.094299 -128.972198 1259.550049
v 31.334961 -128.755081 1259.572266
v 28.590099 -128.857193 1260.479980
v 32.803200 -129.182205 1259.219971
v 31.927799 -128.930191 1259.479980
v 32.494873 -129.293167 1259.193359
v 32.803200 -129.182205 1259.219971
v 32.491001 -129.289200 1259.209961
v 32.739101 -129.350204 1259.040039
v 33.048698 -129.491196 1259.150024
v 32.803200 -129.182205 1259.219971
v 32.739101 -129.350204 1259.040039
v 25.857666 -139.457230 1249.663086
v 26.974609 -138.915726 1249.885742
v 26.083374 -138.430618 1251.229492
v 27.148438 -140.675003 1249.791016
v 38.125000 -139.133011 1257.644531
v 39.278900 -136.846191 1257.270020
v 39.326900 -137.582199 1257.079956
v 39.447201 -137.498199 1257.209961
v 39.188499 -138.210205 1257.260010
v 39.447201 -137.498199 1257.209961
v 39.326900 -137.582199 1257.079956
v 39.207802 -138.542206 1257.290039
v 39.188499 -138.210205 1257.260010
v 38.848400 -138.678192 1257.229980
v 39.447201 -137.498199 1257.209961
v 38.848400 -138.678192 1257.229980
v 38.710098 -139.017197 1257.449951
v 39.207802 -138.542206 1257.290039
v 39.197266 -139.158401 1257.245117
v 39.207802 -138.542206 1257.290039
v 38.710098 -139.017197 1257.449951
v 24.810301 -131.850204 1257.050049
v 23.474762 -133.288986 1254.241943
v 28.590099 -128.857193 1260.479980
v 26.865997 -140.414383 1252.828857
v 28.702637 -141.626297 1251.528809
v 26.368866 -141.464554 1252.586914
v 38.254299 -139.181198 1257.579956
v 35.194599 -140.449203 1258.380005
v 37.777500 -139.894196 1257.650024
v 38.254299 -139.181198 1257.579956
v 37.750000 -139.890823 1257.644531
v 25.121826 -129.555862 1261.153809
v 25.237305 -130.775589 1261.470703
v 26.281250 -129.578323 1261.132812
v 27.619659 -128.967865 1260.780273
v 25.380501 -129.846191 1261.400024
v 24.513012 -133.732193 1257.215820
v 25.125076 -136.792130 1254.343262
v 24.295105 -138.193436 1254.357178
v 23.660259 -135.217484 1256.332520
v 25.226543 -140.462906 1253.412842
v 27.569107 -140.947754 1254.210938
v 27.257927 -142.024551 1254.746582
v 30.069300 -141.816193 1259.949951
v 37.519775 -139.282913 1257.775635
v 23.813782 -131.355301 1260.113525
v 24.140900 -131.671204 1261.319946
v 26.249300 -128.896194 1261.060059
v 25.380501 -129.846191 1261.400024
v 26.249300 -128.896194 1261.060059
v 24.849731 -132.355667 1261.625488
v 25.955500 -129.883194 1261.229980
v 25.222300 -130.767197 1261.469971
v 24.129395 -133.213333 1261.425781
v 26.553711 -140.562698 1255.183594
v 24.465300 -131.535202 1261.619995
v 24.981199 -131.557205 1261.550049
v 24.184900 -133.231201 1261.410034
v 24.840300 -132.436203 1261.619995
v 24.682861 -134.321976 1261.592285
v 25.250000 -134.164261 1261.516113
v 25.239599 -134.350204 1261.500000
v 26.211670 -139.659622 1256.519531
v 25.855530 -141.303818 1255.702393
v 28.315033 -142.151321 1260.445068
v 28.405701 -141.288818 1260.546143
v 31.805000 -140.713196 1259.489990
v 31.805000 -140.713196 1259.489990
v 24.649292 -133.998245 1261.461914
v 26.281601 -136.761200 1261.189941
v 26.281601 -136.761200 1261.189941
v 26.718500 -137.933197 1260.839966
v 26.647699 -137.979202 1261.069946
v 26.647699 -137.979202 1261.069946
v 26.281601 -136.761200 1261.189941
v 27.735352 -141.902054 1260.416992
v 28.294922 -141.335419 1260.580933
v 27.985413 -141.740356 1260.652466
v 28.440918 -141.223831 1260.614258
v 31.805000 -140.713196 1259.489990
v 27.754400 -140.300201 1260.739990
v 27.966499 -141.721191 1260.579956
v 28.315001 -142.123199 1260.430054
v 28.315001 -142.123199 1260.430054
vn -0.2039 0.6733 -0.7107
vn -0.0610 0.8282 -0.5571
vn 0.1547 0.5630 -0.8118
vn -0.0967 0.3805 -0.9197
vn 0.3373 0.7628 -0.5516
vn 0.0683 0.9199 -0.3862
vn 0.2956 0.9258 -0.2357
vn 0.5242 0.8311 -0.1858
vn 0.0798 -0.0389 -0.9960
vn 0.1830 0.2355 -0.9545
vn -0.1641 -0.6525 0.7398
vn -0.5034 -0.5186 0.6911
vn -0.2648 -0.8096 0.5238
vn 0.6257 0.6516 -0.4289
vn 0.6946 0.7170 -0.0581
vn 0.4632 0.4861 -0.7410
vn -0.2805 -0.1844 0.9420
vn 0.6847 0.3763 -0.6242
vn -0.6816 -0.5888 0.4344
vn 0.7911 0.5310 -0.3038
vn 0.3382 -0.2222 -0.9145
vn 0.4785 0.0992 -0.8725
vn -0.7188 -0.1991 0.6661
vn 0.7791 0.0298 -0.6262
vn 0.9209 0.2726 -0.2786
vn 0.6066 -0.3520 -0.7128
vn 0.8788 -0.2329 -0.4165
vn -0.2311 0.9187 -0.3202
vn -0.0776 0.9930 -0.0892
vn 0.1730 0.9843 -0.0356
vn 0.2194 -0.8143 0.5373
vn -0.0240 -0.9357 0.3520
vn -0.4953 -0.8325 0.2482
vn 0.4360 0.8912 0.1251
vn -0.3290 0.4313 -0.8401
vn 0.2010 -0.5802 0.7893
vn -0.1747 -0.9795 0.1006
vn -0.4741 -0.8799 -0.0313
vn -0.2678 0.1024 -0.9580
vn -0.0045 -0.2951 0.9555
vn -0.8298 -0.4724 0.2971
vn -0.7411 -0.6708 -0.0293
vn -0.0512 0.1924 0.9800
vn 0.8683 0.4943 0.0424
vn 0.7879 0.5627 0.2502
vn -0.0253 -0.3803 -0.9245
vn -0.5208 0.0086 0.8536
vn -0.3438 0.3891 0.8546
vn -0.6780 0.4146 0.6070
vn -0.8725 0.0177 0.4883
vn 0.2683 -0.5404 -0.7975
vn 0.4938 -0.7337 -0.4666
vn -0.5650 0.5749 -0.5919
vn -0.4152 0.7982 -0.4365
vn 0.2340 -0.9558 0.1780
vn -0.5609 0.3042 -0.7700
vn 0.5505 -0.5804 0.6001
vn 0.4851 -0.1841 0.8548
vn 0.6200 0.7319 0.2828
vn -0.5529 -0.0804 -0.8294
vn -0.2834 -0.2955 -0.9123
vn 0.2210 0.1870 0.9572
vn -0.1611 -0.6321 -0.7579
vn 0.1833 -0.8166 -0.5474
vn 0.0200 0.5815 0.8133
vn -0.2334 0.7585 0.6085
vn -0.9764 -0.1501 0.1551
vn -0.9019 -0.4269 -0.0657
vn 0.9672 0.2092 0.1442
vn -0.4287 0.8060 0.4080
vn -0.7862 0.5450 0.2914
vn 0.9842 -0.1291 -0.1212
vn 0.6471 -0.7303 -0.2189
vn 0.9203 -0.3903 -0.0281
vn -0.6356 0.6678 -0.3874
vn -0.3912 0.9149 -0.0999
vn -0.8424 0.4300 -0.3246
vn -0.7899 0.1926 -0.5822
vn 0.1855 0.9362 0.2985
vn 0.7722 -0.2265 0.5936
vn -0.6329 -0.7463 -0.2063
vn 0.4704 0.4507 0.7587
vn 0.4825 0.4032 0.7776
vn 0.7281 0.1947 0.6572
vn -0.8948 -0.4313 0.1157
vn -0.9065 -0.4221 0.0099
vn 0.1375 0.8684 0.4764
vn -0.1073 0.9573 0.2685
vn -0.9923 -0.0922 -0.0830
vn -0.9320 -0.3317 -0.1460
vn 0.2656 -0.9482 -0.1742
vn -0.0142 -0.9077 -0.4193
vn -0.3063 0.9432 0.1287
vn -0.6047 0.7921 0.0833
vn -0.9302 0.3592 0.0755
vn -0.7159 0.6825 -0.1474
vn 0.5244 -0.7710 0.3612
vn 0.7982 -0.4769 0.3679
vn 0.7190 -0.6681 0.1916
vn 0.2074 -0.9779 -0.0269
vn 0.4584 -0.8844 0.0882
vn 0.4862 0.5899 0.6447
vn -0.9421 0.0936 -0.3219
vn -0.8253 -0.1971 -0.5292
vn 0.9316 0.1000 0.3496
vn 0.7970 0.1838 0.5753
vn 0.9642 -0.1461 0.2212
vn -0.4398 -0.8855 -0.1497
vn -0.2980 -0.9507 -0.0857
vn 0.3442 0.1184 0.9314
vn 0.4280 0.6447 0.6334
vn -0.6161 -0.3687 -0.6960
vn 0.3908 0.0959 0.9155
vn 0.3536 0.0477 0.9342
vn -0.3847 -0.6515 -0.6538
vn 0.3610 0.7140 0.6000
vn 0.4106 0.1093 0.9053
vn -0.6956 -0.4200 0.5828
vn -0.7447 -0.4434 0.4988
vn 0.4658 0.0497 0.8835
vn 0.8035 0.0000 0.5953
vn -0.9271 0.3735 0.0327
vn -0.9961 0.0840 -0.0286
vn -0.5114 0.2727 0.8149
vn 0.4338 -0.0056 0.9010
vn 0.5594 -0.7858 0.2639
vn 0.9234 -0.3132 0.2218
vn -0.4853 0.8681 0.1042
vn -0.0385 0.9523 0.3028
vn 0.1969 0.8136 0.5471
vn -0.2446 0.9269 0.2847
vn 0.2522 0.1374 0.9579
vn 0.2958 0.1866 0.9369
vn 0.2947 0.2084 0.9326
vn -0.1732 -0.9825 -0.0690
vn 0.2561 -0.3851 0.8867
vn 0.1755 -0.3075 0.9352
vn 0.2962 -0.4386 0.8485
vn 0.3325 0.1048 0.9373
vn 0.3145 0.1859 0.9309
vn 0.1538 -0.5863 0.7953
vn 0.1530 -0.6084 0.7787
vn -0.2696 -0.9618 -0.0478
vn -0.4896 -0.5434 0.6819
vn 0.2165 -0.7509 0.6240
vn -0.9373 -0.2158 -0.2736
vn -0.7459 -0.5219 -0.4137
vn 0.6667 0.5693 0.4811
vn 0.8911 0.3604 0.2758
vn 0.4535 -0.0272 0.8908
vn -0.6348 -0.2317 0.7371
vn -0.7895 0.3236 0.5216
vn -0.1205 0.0825 0.9893
vn -0.1929 0.0773 0.9782
vn -0.0482 0.0872 0.9950
vn -0.1523 0.5810 0.7995
vn -0.1522 0.5809 0.7996
vn -0.3487 0.6063 0.7147
vn 0.5923 -0.3435 0.7288
vn 0.5088 -0.0844 0.8567
vn 0.3460 -0.1605 0.9244
vn -0.8864 0.4620 -0.0302
vn -0.9909 0.0808 -0.1079
vn 0.2821 0.1211 0.9517
vn 0.5744 0.7773 0.2566
vn -0.3925 -0.8099 -0.4359
vn 0.0068 -0.9802 -0.1981
vn -0.5057 -0.8342 -0.2200
vn 0.3245 -0.1433 0.9350
vn 0.3205 -0.1874 0.9285
vn 0.3094 -0.1140 0.9441
vn 0.0518 0.5287 0.8472
vn 0.2223 -0.9749 0.0074
vn -0.5801 0.6347 0.5105
vn 0.9402 -0.3365 0.0528
vn 0.8882 -0.4594 -0.0008
vn 0.6044 -0.7963 0.0251
vn 0.2595 0.0959 0.9610
vn 0.2257 0.0522 0.9728
vn 0.9976 0.0658 -0.0202
vn 0.9690 0.2399 0.0589
vn -0.9519 -0.3061 0.0153
vn -0.9774 -0.1874 0.0976
vn -0.8321 -0.5415 -0.1203
vn 0.1458 0.9815 0.1238
vn 0.3113 -0.1384 0.9402
vn 0.2364 0.1347 0.9623
vn -0.9553 0.2490 0.1597
vn -0.8834 0.2020 0.4228
vn 0.1763 0.1870 0.9664
vn -0.3459 0.3862 0.8551
vn -0.2230 0.5043 0.8343
vn 0.9962 -0.0581 -0.0649
vn 0.2862 -0.0159 0.9580
vn 0.2468 0.0287 0.9686
vn 0.7290 0.6844 0.0107
vn -0.1731 -0.9845 -0.0265
vn -0.0929 -0.9955 -0.0197
vn -0.3234 0.1392 0.9360
vn -0.9622 -0.1598 0.2204
vn 0.1637 0.0481 0.9853
vn -0.5838 -0.0080 0.8119
vn 0.0831 0.0091 0.9965
vn 0.0362 -0.0456 0.9983
vn 0.2155 -0.0257 0.9762
vn 0.9381 0.2963 -0.1791
vn 0.9037 0.4043 -0.1411
vn -0.7324 -0.6662 0.1406
vn -0.0939 0.9951 0.0315
vn 0.3195 -0.1105 0.9411
vn -0.5818 -0.6323 0.5116
vn -0.4344 -0.2940 0.8514
vn 0.1810 -0.0408 0.9826
vn 0.8889 0.4048 -0.2142
vn 0.9224 0.3859 0.0170
vn 0.0464 -0.1246 0.9911
vn 0.8887 0.3074 0.3401
vn 0.9116 0.2402 0.3336
vn 0.8474 0.4570 -0.2703
vn 0.3310 -0.3401 0.8802
vn 0.3301 -0.2397 0.9130
vn 0.1786 -0.1105 0.9777
vn 0.2236 -0.1292 0.9661
vn 0.3391 -0.2243 0.9136
vn 0.2326 -0.0166 0.9724
vn -0.3020 -0.3592 0.8830
vn -0.2043 -0.4876 0.8488
vn 0.3044 -0.2826 0.9096
usemtl mtl1
s 1
f 1//1 2//2 3//3
f 6//4 1//1 3//3
f 3//3 2//2 7//5
f 4//6 7//5 2//2
f 7//5 4//6 5//7
f 7//5 5//7 8//8
f 22//9 6//4 9//10
f 10//11 11//12 12//13
f 7//5 8//8 13//14
f 13//14 8//8 14//15
f 6//4 3//3 9//10
f 3//3 16//16 9//10
f 10//11 17//17 11//12
f 7//5 16//16 3//3
f 13//14 18//18 16//16
f 16//16 7//5 13//14
f 12//13 11//12 20//19
f 13//14 14//15 19//20
f 21//21 22//9 15//22
f 9//10 16//16 15//22
f 13//14 19//20 18//18
f 11//12 23//23 20//19
f 16//16 18//18 15//22
f 18//18 25//24 15//22
f 25//24 18//18 24//25
f 19//20 24//25 18//18
f 26//26 15//22 25//24
f 24//25 27//27 25//24
f 2//2 28//28 4//6
f 28//28 29//29 4//6
f 30//30 5//7 4//6
f 30//30 4//6 29//29
f 32//31 10//11 12//13
f 32//31 12//13 33//32
f 33//32 12//13 34//33
f 30//30 35//34 5//7
f 5//7 35//34 8//8
f 1//1 6//4 31//35
f 32//31 36//36 10//11
f 37//37 34//33 38//38
f 8//8 35//34 14//15
f 39//39 6//4 22//9
f 39//39 31//35 6//4
f 41//40 10//11 36//36
f 42//41 34//33 20//19
f 34//33 43//42 38//38
f 17//17 41//40 45//43
f 10//11 41//40 17//17
f 20//19 34//33 12//13
f 14//15 46//44 19//20
f 14//15 47//45 46//44
f 9//10 15//22 22//9
f 21//21 44//46 22//9
f 11//12 17//17 48//47
f 48//47 23//23 11//12
f 20//19 23//23 42//41
f 19//20 46//44 24//25
f 42//41 43//42 34//33
f 49//48 48//47 17//17
f 48//47 52//49 23//23
f 51//50 23//23 52//49
f 23//23 51//50 42//41
f 50//51 21//21 26//26
f 26//26 21//21 15//22
f 26//26 25//24 27//27
f 53//52 26//26 27//27
f 31//35 55//53 1//1
f 55//53 54//54 1//1
f 2//2 1//1 54//54
f 54//54 28//28 2//2
f 32//31 33//32 56//55
f 33//32 37//37 56//55
f 55//53 31//35 57//56
f 58//57 36//36 32//31
f 33//32 34//33 37//37
f 57//56 31//35 39//39
f 41//40 36//36 60//58
f 59//59 14//15 35//34
f 59//59 47//45 14//15
f 61//60 39//39 62//61
f 60//58 40//62 41//40
f 39//39 22//9 62//61
f 62//61 22//9 44//46
f 40//62 45//43 41//40
f 63//63 44//46 64//64
f 50//51 44//46 21//21
f 17//17 45//43 49//48
f 45//43 65//65 49//48
f 40//62 65//65 45//43
f 64//64 44//46 50//51
f 65//65 67//66 49//48
f 52//49 48//47 49//48
f 42//41 51//50 68//67
f 42//41 66//68 43//42
f 68//67 66//68 42//41
f 69//69 46//44 47//45
f 53//52 50//51 26//26
f 52//49 49//48 70//70
f 67//66 70//70 49//48
f 52//49 71//71 51//50
f 68//67 51//50 71//71
f 24//25 46//44 69//69
f 27//27 24//25 72//72
f 24//25 69//69 72//72
f 53//52 27//27 73//73
f 27//27 72//72 73//73
f 72//72 69//69 74//74
f 75//75 76//76 54//54
f 75//75 54//54 55//53
f 75//75 55//53 77//77
f 28//28 54//54 76//76
f 55//53 57//56 78//78
f 79//79 35//34 30//30
f 58//57 60//58 36//36
f 80//80 60//58 58//57
f 61//60 57//56 39//39
f 78//78 57//56 61//60
f 38//38 43//42 82//81
f 59//59 83//82 47//45
f 40//62 60//58 84//83
f 83//82 85//84 47//45
f 62//61 44//46 63//63
f 40//62 84//83 65//65
f 43//42 66//68 87//85
f 87//85 86//86 43//42
f 88//87 89//88 67//66
f 88//87 67//66 65//65
f 47//45 85//84 69//69
f 66//68 68//67 90//89
f 87//85 66//68 91//90
f 90//89 91//90 66//68
f 64//64 92//91 93//92
f 89//88 70//70 67//66
f 50//51 53//52 64//64
f 53//52 92//91 64//64
f 156//93 70//70 89//88
f 156//93 94//94 70//70
f 70//70 71//71 52//49
f 70//70 94//94 71//71
f 71//71 94//94 95//95
f 71//71 95//95 68//67
f 73//73 92//91 53//52
f 73//73 72//72 74//74
f 77//77 97//96 75//75
f 76//76 75//75 97//96
f 76//76 29//29 28//28
f 78//78 77//77 55//53
f 58//57 32//31 99//97
f 99//97 98//98 58//57
f 98//98 99//97 100//99
f 56//55 99//97 32//31
f 100//99 99//97 56//55
f 102//100 101//101 56//55
f 79//79 30//30 29//29
f 98//98 80//80 58//57
f 104//102 35//34 79//79
f 103//103 78//78 105//104
f 107//105 106//106 80//80
f 107//105 80//80 108//107
f 109//108 110//109 38//38
f 59//59 35//34 104//102
f 83//82 59//59 104//102
f 111//110 112//111 83//82
f 61//60 105//104 78//78
f 105//104 61//60 81//112
f 106//106 60//58 80//80
f 106//106 84//83 60//58
f 38//38 82//81 109//108
f 83//82 112//111 113//113
f 62//61 81//112 61//60
f 43//42 86//86 82//81
f 113//113 114//114 83//82
f 115//115 62//61 63//63
f 116//116 65//65 84//83
f 114//114 85//84 83//82
f 88//87 65//65 116//116
f 85//84 114//114 117//117
f 118//118 119//119 87//85
f 87//85 119//119 86//86
f 117//117 120//120 85//84
f 93//92 63//63 64//64
f 85//84 120//120 121//121
f 68//67 95//95 90//89
f 121//121 69//69 85//84
f 95//95 122//122 123//123
f 123//123 90//89 95//95
f 125//124 126//124 127//124
f 121//121 120//120 128//125
f 92//91 73//73 96//126
f 74//74 129//127 96//126
f 73//73 74//74 96//126
f 129//127 74//74 69//69
f 129//127 69//69 121//121
f 76//76 97//96 131//128
f 132//129 79//79 29//29
f 132//129 29//29 76//76
f 78//78 103//103 77//77
f 108//107 98//98 100//99
f 56//55 101//101 100//99
f 133//130 79//79 132//129
f 133//130 132//129 134//131
f 135//132 136//133 137//134
f 133//130 104//102 79//79
f 98//98 108//107 80//80
f 38//38 139//135 37//37
f 102//100 37//37 139//135
f 140//136 141//137 142//138
f 38//38 110//109 139//135
f 143//139 83//82 104//102
f 143//139 104//102 144//140
f 145//141 146//142 141//137
f 147//143 139//135 110//109
f 148//144 149//144 150//144
f 151//145 146//142 145//141
f 137//134 136//133 104//102
f 136//133 144//140 104//102
f 145//141 141//137 140//136
f 105//104 138//146 103//103
f 143//139 111//110 83//82
f 81//112 62//61 115//115
f 152//147 105//104 81//112
f 106//106 153//148 84//83
f 153//148 116//116 84//83
f 154//149 153//148 106//106
f 63//63 93//92 115//115
f 152//147 81//112 115//115
f 121//121 128//125 124//150
f 94//94 122//122 95//95
f 157//151 158//151 159//151
f 160//152 161//152 162//152
f 163//153 164//153 165//154
f 166//155 164//153 163//153
f 167//156 168//157 169//158
f 124//150 170//159 121//121
f 170//159 129//127 121//121
f 171//160 170//159 124//150
f 170//159 96//126 129//127
f 171//160 172//161 170//159
f 130//162 131//128 97//96
f 134//131 132//129 131//128
f 77//77 130//162 97//96
f 132//129 76//76 131//128
f 174//163 77//77 103//103
f 102//100 56//55 37//37
f 135//132 175//164 136//133
f 138//146 174//163 103//103
f 154//149 106//106 107//105
f 116//116 153//148 176//165
f 152//147 115//115 155//166
f 176//165 88//87 116//116
f 155//166 115//115 93//92
f 93//92 177//167 155//166
f 155//166 177//167 178//168
f 93//92 92//91 177//167
f 179//169 180//170 181//171
f 167//156 182//172 168//157
f 179//169 170//159 172//161
f 179//169 181//171 170//159
f 183//173 96//126 170//159
f 130//162 184//174 131//128
f 131//128 184//174 134//131
f 174//163 130//162 77//77
f 108//107 100//99 173//175
f 185//176 173//175 100//99
f 186//177 101//101 102//100
f 100//99 101//101 186//177
f 187//178 175//164 135//132
f 135//132 188//179 187//178
f 108//107 173//175 189//180
f 189//180 190//181 108//107
f 138//146 191//182 174//163
f 191//182 192//183 174//163
f 190//181 107//105 108//107
f 190//181 154//149 107//105
f 193//184 191//182 138//146
f 152//147 138//146 105//104
f 152//147 193//184 138//146
f 193//184 152//147 178//168
f 153//148 154//149 176//165
f 178//168 152//147 155//166
f 194//185 89//88 88//87
f 88//87 176//165 194//185
f 183//173 177//167 92//91
f 183//173 92//91 96//126
f 196//186 179//169 197//187
f 196//186 180//170 179//169
f 198//188 184//174 130//162
f 198//188 199//189 184//174
f 200//190 188//179 135//132
f 201//191 202//192 184//174
f 192//183 198//188 174//163
f 173//175 185//176 203//193
f 130//162 174//163 198//188
f 204//194 187//178 188//179
f 185//176 100//99 186//177
f 188//179 205//195 204//194
f 203//193 189//180 173//175
f 190//181 207//196 154//149
f 176//165 154//149 207//196
f 177//167 195//197 178//168
f 194//185 156//93 89//88
f 207//196 194//185 176//165
f 217//198 195//197 177//167
f 208//199 201//191 184//174
f 208//199 184//174 199//189
f 206//200 199//189 198//188
f 205//195 188//179 209//201
f 208//199 209//201 188//179
f 208//199 199//189 210//202
f 211//203 209//201 208//199
f 208//199 212//204 211//203
f 192//183 206//200 198//188
f 211//203 212//204 214//205
f 189//180 203//193 213//206
f 215//207 190//181 189//180
f 191//182 206//200 192//183
f 189//180 213//206 215//207
f 207//196 190//181 215//207
f 178//168 216//208 193//184
f 191//182 216//208 206//200
f 191//182 193//184 216//208
f 195//197 216//208 178//168
f 217//198 216//208 195//197
f 194//185 218//209 156//93
f 207//196 218//209 194//185
f 183//173 217//198 177//167
f 220//210 196//186 197//187
f 210//202 212//204 208//199
f 206//200 228//211 221//212
f 212//204 223//213 214//205
f 213//206 222//214 215//207
f 215//207 222//214 224//215
f 212//204 225//216 223//213
f 226//217 224//215 227//218
f 216//208 228//211 206//200
f 215//207 229//219 207//196
f 217//198 228//211 216//208
f 218//209 219//220 156//93
f 230//221 196//186 220//210
f 231//222 230//223 232//224
f 215//207 224//215 229//219
f 229//219 224//215 226//217
f 225//216 212//204 233//225
f 212//204 230//223 233//225
f 234//226 221//212 228//211
f 228//211 235//227 234//226
f 230//223 231//222 233//225
f 196//186 230//221 236//228
