#
# Compatibility version : 3.0
# File ID : FJ120
# Representation ID : BP4149
# Build-up logic : FMA 3.0 part_of
# Concept ID : FMA53647
# English name : Right nasal bone
# Bounds(mm): (-8.742300,-194.968000,1510.680100)-(-0.569400,-174.701000,1541.050000)
# Volume(cm3): 0.457100
#
v -8.44063 -190.403 1512.19
v -8.70358 -189.201 1512.22
v -8.4117 -190.157 1511.46
v -8.50787 -188.837 1511.8
v -8.62253 -189.29 1513.33
v -8.66786 -188.576 1513.69
v -8.45519 -188.962 1514.34
v -8.40212 -187.587 1515.4
v -8.3941 -187.396 1514.42
v -6.4959 -192.739 1514.56
v -6.16019 -192.832 1514.58
v -8.21072 -191.093 1511.77
v -7.72064 -191.588 1511.77
v -7.72064 -191.093 1511.31
v -7.29284 -191.615 1511.99
v -6.9863 -190.788 1511.57
v -7.75737 -190.867 1514.55
v -7.46844 -191.973 1513.35
v -6.89397 -192.33 1514.61
v -7.72073 -188.909 1510.9
v -7.43953 -188.188 1510.93
v -7.12851 -188.755 1510.74
v -7.10646 -188.251 1510.74
v -6.78437 -188.285 1510.78
v -7.465 -187.311 1511.85
v -7.06052 -187.205 1511.53
v -7.11332 -186.757 1512.47
v -6.78437 -187.348 1511.32
v -7.35312 -186.478 1519.92
v -6.92172 -185.395 1521.51
v -7.43029 -185.04 1518.88
v -6.10127 -183.745 1519.3
v -7.09963 -185.178 1520.92
v -6.92176 -184.835 1521.48
v -6.84064 -184.498 1521.11
v -6.17726 -183.291 1522.07
v -6.60236 -183.906 1522.93
v -6.23451 -184.738 1523.63
v -6.45726 -182.959 1522.99
v -6.16019 -182.355 1522.91
v -6.63312 -182.732 1524.02
v -6.59376 -182.402 1523.59
v -6.39961 -181.999 1524.37
v -5.91881 -182.043 1527.07
v -5.9328 -181.592 1525.94
v -6.19189 -178.922 1533.93
v -6.85508 -177.986 1535.81
v -6.78437 -178.298 1535.71
v -6.65515 -177.674 1537.37
v -6.11446 -177.056 1537.03
v -6.08518 -177.143 1537.67
v -5.80665 -193.489 1516.51
v -5.53601 -193.59 1516
v -5.22192 -193.223 1515.75
v -3.73275 -194.624 1519.23
v -4.7631 -192.03 1515.83
v -5.61322 -192.253 1519.45
v -5.53601 -185.476 1513.96
v -5.16119 -186.543 1514.28
v -5.22392 -185.741 1514.27
v -4.67533 -182.979 1522.39
v -4.91183 -184.82 1526.44
v -5.8481 -181.743 1523.32
v -5.44224 -181.096 1525.25
v -4.55098 -181.107 1524.57
v -4.85902 -178.819 1529.28
v -4.59974 -178.081 1531.44
v -5.2908 -178.61 1538.61
v -4.78657 -176.549 1536.06
v -4.67214 -176.156 1537.52
v -5.77116 -177.373 1538.3
v -5.51604 -176.873 1538.03
v -5.38241 -177.049 1538.93
v -5.22309 -177.178 1539.24
v -5.2001 -176.563 1538.57
v -5.04593 -176.113 1539.86
v -4.81763 -175.56 1539.23
v -4.75823 -175.489 1540.17
v -4.61443 -176.195 1540.39
v -4.20013 -175.805 1540.78
v -4.00912 -176.208 1540.79
v -3.98826 -175.483 1540.83
v -3.61301 -175.837 1541.01
v -4.26144 -174.897 1539.86
v -3.98263 -174.96 1539.21
v -3.65499 -174.729 1539.85
v -3.6739 -174.725 1540.17
v -3.97052 -174.984 1540.47
v -3.65 -175.205 1540.8
v -3.35138 -194.924 1518.64
v -2.7272 -194.958 1519.58
v -2.41511 -194.968 1519.58
v -2.30052 -194.839 1519.26
v -2.10302 -194.631 1519.89
v -1.9738 -194.526 1519.58
v -2.7272 -193.914 1521.14
v -2.10302 -193.272 1521.73
v -1.93966 -193.278 1521.45
v -1.91513 -192.966 1521.45
v -1.79337 -192.966 1521.76
v -2.10302 -191.709 1523.32
v -2.41511 -185.854 1529.25
v -2.10302 -185.941 1528.94
v -1.51054 -184.54 1528.63
v -1.5136 -183.23 1528.44
v -1.31777 -183.41 1530.29
v -1.51054 -184.54 1530.81
v -1.79093 -184.54 1531.29
v -1.58031 -183.32 1532.34
v -1.82238 -182.674 1533.79
v -1.47773 -183.092 1528
v -1.84701 -182.043 1531.75
v -1.52449 -182.356 1533.65
v -1.32524 -181.419 1535.18
v -1.42209 -180.463 1533.57
v -2.11878 -180.597 1537.74
v -1.79093 -177.92 1528.63
v -1.16675 -178.922 1528.12
v -1.53005 -178.61 1535.81
v -2.10302 -179.546 1539.56
v -2.10302 -178.922 1540.05
v -1.72022 -178.61 1538.93
v -2.63832 -177.297 1530.92
v -2.09948 -177.049 1531.44
v -3.33559 -176.171 1536.83
v -1.55164 -176.709 1537.31
v -1.47884 -177.353 1537.37
v -0.993641 -177.674 1535.81
v -1.01802 -177.674 1536.43
v -2.43656 -175.394 1539.18
v -1.40814 -176.737 1540.17
v -1.43252 -176.113 1539.86
v -1.16675 -177.674 1540.4
v -3.0982 -176.842 1540.8
v -2.98091 -175.556 1540.83
v -2.40944 -175.5 1540.46
v -1.79093 -177.049 1540.78
v -1.47884 -176.737 1540.58
v -3.34163 -174.911 1539.45
v -3.07794 -174.883 1539.85
v -3.02425 -174.896 1540.17
v -3.35257 -174.753 1540.16
v -2.46515 -175.208 1539.87
v -3.34192 -174.881 1540.48
v -0.929495 -183.151 1527.62
v -0.569393 -182.355 1527.69
v -0.842472 -178.298 1530.19
v -0.822463 -179.234 1533
v -8.21072 -191.093 1511.77
v -7.72064 -191.588 1511.77
v -6.78437 -187.348 1511.32
v -6.10127 -183.745 1519.3
v -6.17726 -183.291 1522.07
v -6.17726 -183.291 1522.07
v -6.16019 -182.355 1522.91
v -6.19189 -178.922 1533.93
v -6.19189 -178.922 1533.93
v -6.19189 -178.922 1533.93
v -6.19189 -178.922 1533.93
v -6.85508 -177.986 1535.81
v -6.65515 -177.674 1537.37
v -5.53601 -193.59 1516
v -4.7631 -192.03 1515.83
v -5.53601 -185.476 1513.96
v -5.53601 -185.476 1513.96
v -4.67533 -182.979 1522.39
v -4.67533 -182.979 1522.39
v -5.8481 -181.743 1523.32
v -4.55098 -181.107 1524.57
v -4.59974 -178.081 1531.44
v -5.2908 -178.61 1538.61
v -5.04593 -176.113 1539.86
v -2.41511 -194.968 1519.58
v -2.41511 -194.968 1519.58
v -2.30052 -194.839 1519.26
v -2.10302 -194.631 1519.89
v -1.9738 -194.526 1519.58
v -1.9738 -194.526 1519.58
v -2.10302 -193.272 1521.73
v -1.91513 -192.966 1521.45
v -1.79337 -192.966 1521.76
v -2.10302 -191.709 1523.32
v -2.10302 -191.709 1523.32
v -2.10302 -191.709 1523.32
v -2.10302 -191.709 1523.32
v -2.10302 -191.709 1523.32
v -2.10302 -191.709 1523.32
v -2.10302 -191.709 1523.32
v -2.41511 -185.854 1529.25
v -2.10302 -185.941 1528.94
v -1.51054 -184.54 1530.81
v -1.79093 -184.54 1531.29
v -1.79093 -184.54 1531.29
v -1.79093 -184.54 1531.29
v -1.58031 -183.32 1532.34
v -1.82238 -182.674 1533.79
v -1.47773 -183.092 1528
v -1.52449 -182.356 1533.65
v -1.32524 -181.419 1535.18
v -2.11878 -180.597 1537.74
v -1.79093 -177.92 1528.63
v -1.79093 -177.92 1528.63
v -1.16675 -178.922 1528.12
v -2.10302 -179.546 1539.56
v -2.10302 -179.546 1539.56
v -2.10302 -179.546 1539.56
v -2.09948 -177.049 1531.44
v -1.50392 -176.737 1537.68
v -1.50392 -176.737 1537.68
v -1.50392 -176.737 1537.68
v -1.47884 -177.353 1537.37
v -1.01802 -177.674 1536.43
v -1.43252 -176.113 1539.86
v -1.16675 -177.674 1540.4
v -1.16675 -177.674 1540.4
v -1.16675 -177.674 1540.4
v -1.16675 -177.674 1540.4
v -1.47884 -176.737 1540.58
v -0.705695 -182.952 1527.38
v -0.569393 -182.355 1527.69
v -0.842472 -178.298 1530.19
v -0.842472 -178.298 1530.19
v -0.842472 -178.298 1530.19
v -7.72064 -191.093 1511.31
v -6.78437 -188.285 1510.78
v -5.22392 -185.741 1514.27
v -5.22392 -185.741 1514.27
v -5.77116 -177.373 1538.3
v -5.38241 -177.049 1538.93
v -6.65515 -177.674 1537.37
v -5.53601 -185.476 1513.96
vn -0.956264 -0.289688 0.0405054
vn -0.993855 0.0227383 -0.108328
vn -0.842879 -0.151374 -0.516373
vn -0.833403 0.319374 -0.451043
vn -0.960393 -0.229649 0.157816
vn -0.995633 0.0165031 0.0918842
vn -0.936362 -0.230584 0.264682
vn -0.985475 0.0593841 0.159101
vn -0.883291 0.450881 -0.128463
vn -0.509892 -0.848964 -0.138818
vn 0.0891746 -0.881452 -0.463779
vn -0.887604 -0.458293 0.0461081
vn -0.215339 -0.902671 -0.372577
vn -0.474737 -0.331443 -0.815335
vn 0.393644 -0.688713 -0.608867
vn 0.633324 -0.373071 -0.678026
vn -0.886447 -0.404239 0.225394
vn -0.75367 -0.652941 0.0751573
vn -0.786957 -0.601793 0.136173
vn -0.486089 0.0512946 -0.872403
vn -0.574019 0.448853 -0.68486
vn 0.128188 -0.170959 -0.976904
vn -0.179757 0.333051 -0.925616
vn 0.732978 -0.0737585 -0.676242
vn -0.671053 0.626352 -0.396701
vn -0.344492 0.721807 -0.600267
vn -0.535815 0.786115 -0.308101
vn -0.0410093 0.653157 -0.756111
vn -0.944667 -0.133281 0.299733
vn -0.954455 -0.0514254 0.29389
vn -0.858788 0.511798 -0.023369
vn -0.726763 0.673256 -0.136168
vn -0.968882 0.140451 0.203817
vn -0.973893 0.159617 0.161417
vn -0.88901 0.457185 0.0253451
vn -0.884178 0.406585 -0.23004
vn -0.994289 0.106707 -0.00178402
vn -0.914362 -0.236351 0.328757
vn -0.880043 0.258709 -0.398239
vn -0.0132489 0.621344 -0.783426
vn -0.989166 0.00890063 0.146532
vn -0.895058 0.371757 -0.246308
vn -0.843899 0.535883 0.0257828
vn -0.986904 0.0478766 0.154042
vn -0.872323 0.488129 0.0279797
vn -0.798528 -0.599376 -0.0556802
vn -0.980452 -0.038819 -0.192893
vn -0.862527 -0.498664 0.0859095
vn -0.849893 -0.46805 0.242098
vn -0.619213 0.783369 -0.0539271
vn -0.643568 0.695152 0.320289
vn -0.697301 -0.711308 0.0883935
vn -0.41758 -0.887424 -0.195208
vn 0.536671 -0.580149 -0.612708
vn -0.562082 -0.754922 0.337871
vn 0.79959 -0.204403 -0.56469
vn -0.807484 -0.438203 0.394901
vn -0.355804 0.843539 -0.4023
vn 0.898628 0.145816 -0.413769
vn 0.725614 0.0517296 -0.686155
vn -0.0195317 0.97258 -0.231749
vn -0.813199 -0.413362 0.409682
vn 0.108304 0.66125 -0.742306
vn -0.555003 0.804511 -0.211505
vn -0.284758 0.87992 -0.380334
vn -0.633659 0.727204 -0.263913
vn -0.847654 0.29076 -0.44378
vn -0.682553 -0.675547 0.27885
vn -0.351806 0.900897 -0.254199
vn -0.530588 0.833705 -0.15301
vn -0.812119 -0.0664301 0.579697
vn -0.716425 0.654269 0.242215
vn -0.888499 -0.00261995 0.45887
vn -0.8359 -0.130338 0.533183
vn -0.847591 0.530442 -0.01487
vn -0.823094 -0.0948749 0.559924
vn -0.818108 0.560678 -0.127827
vn -0.771233 0.410518 0.486492
vn -0.696132 -0.167457 0.69811
vn -0.541266 0.013257 0.840747
vn -0.410808 -0.325378 0.851684
vn -0.433166 0.355416 0.82828
vn -0.120067 0.0278683 0.992375
vn -0.507622 0.861131 0.0278193
vn -0.255437 0.893463 -0.369427
vn 0.0209639 0.984488 -0.174196
vn -0.136406 0.957519 0.254068
vn -0.386977 0.722021 0.573527
vn -0.0617019 0.518708 0.852722
vn -0.0681111 -0.972107 -0.22443
vn -0.226402 -0.915864 0.331565
vn 0.108005 -0.982218 -0.153568
vn 0.584399 -0.522157 -0.621152
vn 0.78641 -0.567111 0.244836
vn 0.75348 -0.127127 -0.645064
vn -0.225044 -0.734883 0.639767
vn 0.162733 -0.749748 0.641401
vn 0.907874 -0.389343 0.155486
vn 0.935388 0.0470694 -0.350477
vn 0.684479 -0.548944 0.479738
vn -0.5237 -0.519358 0.675282
vn 0.352852 -0.7462 0.564519
vn 0.441095 -0.746481 0.498198
vn 0.984861 -0.172577 -0.0162955
vn 0.994804 -0.0744751 -0.0694183
vn 0.991769 -0.039732 0.121715
vn 0.973566 -0.224117 0.0440622
vn -0.739208 -0.665325 0.104472
vn 0.782945 -0.493293 0.379024
vn -0.262315 -0.822282 0.505017
vn 0.991445 -0.123308 0.0428011
vn 0.996429 -0.0758759 0.037037
vn 0.760847 -0.567138 0.315383
vn 0.651293 -0.667501 0.360914
vn 0.991925 -0.120944 0.0381854
vn -0.390034 -0.811796 0.434581
vn 0.367787 0.593491 -0.715892
vn 0.520235 0.410761 -0.748753
vn 0.894602 -0.360654 0.263849
vn -0.384993 -0.696211 0.605863
vn -0.0403973 -0.49847 0.865965
vn 0.995557 -0.0893971 -0.0295766
vn -0.307422 0.905813 -0.291539
vn -0.0508976 0.976733 -0.208332
vn 0.0863965 0.937043 -0.338359
vn 0.454355 0.858106 -0.2392
vn 0.735441 -0.443718 0.512095
vn 0.915597 0.401779 -0.0159761
vn 0.73796 -0.503573 0.449254
vn 0.480617 0.82734 -0.290718
vn 0.989635 0.126289 -0.0683661
vn 0.683872 0.720283 0.116238
vn 0.904764 -0.419517 -0.0735324
vn -0.21439 -0.380735 0.899488
vn 0.306395 0.385139 0.870511
vn 0.555491 0.641939 0.52853
vn 0.209411 -0.0979852 0.972906
vn 0.518634 0.320071 0.792827
vn 0.22569 0.908033 -0.352903
vn 0.371985 0.91284 -0.168377
vn 0.477054 0.852019 0.215599
vn 0.247396 0.963718 0.100216
vn 0.578003 0.81514 0.0382102
vn 0.200867 0.785991 0.584697
vn 0.664846 -0.382714 0.64149
vn 0.75628 0.297953 -0.582464
vn 0.665284 -0.358873 0.654681
vn 0.958256 -0.259347 0.120354
vn -0.606054 -0.464455 -0.64574
vn -0.566548 -0.560922 -0.603647
vn 0.826966 0.224857 -0.515331
vn -0.0195317 0.97258 -0.231749
vn 0.019918 0.667613 -0.744242
vn -0.167085 0.97226 -0.163687
vn -0.787393 0.442237 -0.429464
vn -0.926034 0.08329 -0.368136
vn -0.898496 -0.406246 0.166341
vn -0.772365 0.600029 -0.208367
vn -0.460886 -0.655216 0.598561
vn -0.61145 0.76333 -0.208463
vn -0.753294 0.622083 0.21345
vn 0.361294 -0.717942 -0.595
vn 0.842595 0.400245 -0.36033
vn 0.128538 0.947219 -0.293691
vn 0.79309 0.10072 -0.60072
vn 0.590563 0.531604 -0.607151
vn 0.76034 0.597538 -0.25462
vn -0.564591 0.784458 -0.256638
vn 0.485965 0.546846 -0.68176
vn -0.507981 0.822954 -0.254364
vn -0.51835 -0.523679 0.676072
vn -0.923599 0.383357 0.00169939
vn 0.119911 -0.811341 0.572143
vn 0.707608 -0.706502 0.0120972
vn 0.707311 -0.706205 -0.0314053
vn 0.259768 -0.775964 0.574804
vn 0.866815 -0.492406 0.0785353
vn 0.842595 0.400245 -0.36033
vn 0.630657 -0.619554 0.467359
vn 0.842595 0.400245 -0.36033
vn 0.930737 0.0117757 -0.3655
vn 0.0674741 -0.711045 0.699902
vn 0.685235 -0.44348 0.577736
vn 0.459294 -0.619896 0.636222
vn -0.871022 -0.447206 0.20329
vn -0.428267 -0.654203 0.623383
vn 0.896618 -0.309015 0.317154
vn 0.998187 -0.0558324 -0.0224627
vn -0.460886 -0.655216 0.598561
vn 0.921305 -0.354055 0.160755
vn 0.678672 -0.618243 0.39646
vn -0.111364 -0.797561 0.59287
vn -0.49273 -0.655129 0.572733
vn 0.631827 -0.654155 0.415783
vn 0.994809 0.096046 0.0336112
vn 0.747115 -0.568014 0.345224
vn 0.487052 -0.429877 0.760254
vn 0.990281 0.0065119 -0.138927
vn 0.996923 -0.050139 0.0602586
vn 0.589404 -0.698326 0.406134
vn -0.271078 0.889607 -0.36758
vn 0.672554 0.700319 -0.239218
vn 0.872261 0.4134 -0.261269
vn 0.576631 -0.709181 0.405659
vn 0.942066 -0.321968 0.0940612
vn 0.467754 -0.545859 0.695158
vn 0.684212 0.720061 -0.11561
vn 0.846653 0.53099 -0.0350304
vn 0.84733 -0.210841 0.48742
vn 0.99644 0.0665914 -0.0516981
vn 0.997995 -0.0604672 0.018723
vn 0.971211 0.235141 0.0381893
vn 0.999994 0.00219893 -0.00263787
vn 0.325544 -0.473705 0.818306
vn 0.898401 0.128361 -0.419998
vn 0.945029 0.283466 0.162995
vn 0.529921 0.0136741 0.847937
vn 0.964841 0.203445 0.166412
vn 0.819332 -0.323344 0.473439
vn 0.958829 0.192944 -0.208374
vn 0.995332 -0.0913332 0.0311793
vn 0.992535 -0.113417 -0.0448448
vn 0.7722 0.604835 -0.194631
vn 0.414109 -0.503659 -0.758183
vn 0.157454 0.493038 -0.855641
vn 0.992666 0.0769433 -0.0932369
vn 0.76034 0.597538 -0.25462
vn -0.722119 0.540863 0.43129
vn -0.892834 0.437317 0.107711
vn -0.705516 -0.0986691 0.701792
vn 0.76034 0.597538 -0.25462
g grp1
usemtl mtl1
f 1//1 17//17 5//5 
f 2//2 1//1 5//5 
f 3//3 2//2 4//4 
f 9//9 4//4 2//2 
f 2//2 6//6 9//9 
f 3//3 1//1 2//2 
f 4//4 20//20 3//3 
f 21//21 20//20 4//4 
f 2//2 5//5 6//6 
f 5//5 7//7 6//6 
f 17//17 7//7 5//5 
f 7//7 8//8 6//6 
f 6//6 8//8 9//9 
f 10//10 11//11 53//53 
f 11//11 54//54 162//162 
f 19//19 52//52 17//17 
f 52//52 10//10 53//53 
f 19//19 10//10 52//52 
f 52//52 57//57 17//17 
f 12//12 17//17 1//1 
f 3//3 14//14 149//149 
f 12//12 1//1 3//3 
f 13//13 18//18 12//12 
f 149//149 14//14 150//150 
f 11//11 13//13 15//15 
f 15//15 13//13 224//224 
f 15//15 54//54 11//11 
f 15//15 224//224 16//16 
f 15//15 16//16 54//54 
f 18//18 17//17 12//12 
f 19//19 17//17 18//18 
f 10//10 18//18 13//13 
f 18//18 10//10 19//19 
f 13//13 11//11 10//10 
f 17//17 57//57 7//7 
f 14//14 3//3 20//20 
f 16//16 224//224 22//22 
f 22//22 14//14 20//20 
f 22//22 20//20 23//23 
f 23//23 20//20 21//21 
f 24//24 16//16 22//22 
f 24//24 22//22 23//23 
f 57//57 29//29 7//7 
f 57//57 62//62 29//29 
f 29//29 62//62 38//38 
f 21//21 4//4 25//25 
f 23//23 21//21 26//26 
f 26//26 25//25 27//27 
f 26//26 21//21 25//25 
f 28//28 225//225 23//23 
f 28//28 23//23 26//26 
f 26//26 27//27 58//58 
f 24//24 151//151 59//59 
f 28//28 26//26 58//58 
f 25//25 4//4 9//9 
f 27//27 25//25 9//9 
f 31//31 27//27 9//9 
f 27//27 31//31 58//58 
f 31//31 9//9 8//8 
f 7//7 29//29 8//8 
f 29//29 31//31 8//8 
f 29//29 33//33 31//31 
f 29//29 30//30 33//33 
f 30//30 34//34 33//33 
f 30//30 37//37 34//34 
f 29//29 38//38 30//30 
f 30//30 38//38 37//37 
f 33//33 35//35 31//31 
f 31//31 35//35 32//32 
f 31//31 32//32 58//58 
f 164//164 152//152 61//61 
f 33//33 34//34 35//35 
f 34//34 37//37 35//35 
f 35//35 37//37 36//36 
f 39//39 37//37 42//42 
f 32//32 35//35 36//36 
f 39//39 36//36 37//37 
f 166//166 153//153 40//40 
f 155//155 36//36 39//39 
f 152//152 154//154 61//61 
f 37//37 41//41 42//42 
f 38//38 41//41 37//37 
f 41//41 38//38 44//44 
f 40//40 63//63 166//166 
f 42//42 41//41 43//43 
f 39//39 42//42 155//155 
f 41//41 44//44 43//43 
f 155//155 42//42 168//168 
f 43//43 168//168 42//42 
f 168//168 43//43 64//64 
f 43//43 45//45 64//64 
f 44//44 45//45 43//43 
f 46//46 108//108 48//48 
f 47//47 67//67 156//156 
f 48//48 47//47 156//156 
f 170//170 160//160 69//69 
f 108//108 68//68 48//48 
f 48//48 49//49 47//47 
f 48//48 68//68 49//49 
f 110//110 171//171 192//192 
f 161//161 50//50 160//160 
f 69//69 160//160 50//50 
f 50//50 161//161 51//51 
f 230//230 171//171 71//71 
f 51//51 161//161 228//228 
f 52//52 53//53 90//90 
f 90//90 162//162 54//54 
f 54//54 93//93 90//90 
f 93//93 54//54 56//56 
f 55//55 57//57 52//52 
f 90//90 55//55 52//52 
f 91//91 55//55 90//90 
f 55//55 96//96 57//57 
f 56//56 16//16 24//24 
f 54//54 16//16 56//56 
f 56//56 24//24 99//99 
f 57//57 96//96 62//62 
f 101//101 62//62 96//96 
f 99//99 24//24 59//59 
f 165//165 59//59 151//151 
f 59//59 165//165 60//60 
f 59//59 226//226 166//166 
f 59//59 166//166 99//99 
f 227//227 231//231 167//167 
f 38//38 62//62 44//44 
f 168//168 64//64 65//65 
f 64//64 45//45 66//66 
f 166//166 63//63 169//169 
f 45//45 44//44 66//66 
f 62//62 157//157 44//44 
f 65//65 64//64 66//66 
f 123//123 66//66 170//170 
f 44//44 158//158 66//66 
f 170//170 66//66 158//158 
f 171//171 110//110 116//116 
f 120//120 171//171 116//116 
f 70//70 69//69 50//50 
f 228//228 72//72 51//51 
f 70//70 51//51 72//72 
f 50//50 51//51 70//70 
f 125//125 69//69 70//70 
f 124//124 69//69 125//125 
f 74//74 71//71 171//171 
f 74//74 73//73 71//71 
f 228//228 229//229 72//72 
f 229//229 75//75 72//72 
f 72//72 75//75 70//70 
f 74//74 76//76 73//73 
f 70//70 75//75 77//77 
f 75//75 229//229 77//77 
f 229//229 172//172 77//77 
f 76//76 79//79 78//78 
f 172//172 78//78 77//77 
f 79//79 74//74 171//171 
f 76//76 74//74 79//79 
f 125//125 70//70 85//85 
f 77//77 85//85 70//70 
f 171//171 121//121 134//134 
f 85//85 139//139 125//125 
f 78//78 79//79 80//80 
f 171//171 81//81 79//79 
f 81//81 83//83 80//80 
f 79//79 81//81 80//80 
f 78//78 80//80 82//82 
f 80//80 83//83 82//82 
f 78//78 82//82 88//88 
f 81//81 171//171 134//134 
f 88//88 82//82 89//89 
f 89//89 82//82 83//83 
f 134//134 83//83 81//81 
f 135//135 89//89 83//83 
f 85//85 77//77 84//84 
f 77//77 78//78 84//84 
f 78//78 88//88 84//84 
f 85//85 86//86 139//139 
f 86//86 85//85 84//84 
f 86//86 84//84 87//87 
f 84//84 88//88 87//87 
f 88//88 144//144 87//87 
f 139//139 86//86 140//140 
f 140//140 86//86 142//142 
f 86//86 87//87 142//142 
f 142//142 87//87 144//144 
f 88//88 89//89 144//144 
f 135//135 144//144 89//89 
f 96//96 55//55 91//91 
f 90//90 92//92 91//91 
f 96//96 91//91 173//173 
f 93//93 56//56 95//95 
f 92//92 90//90 93//93 
f 174//174 175//175 177//177 
f 177//177 94//94 174//174 
f 176//176 96//96 173//173 
f 96//96 176//176 97//97 
f 163//163 180//180 178//178 
f 98//98 94//94 177//177 
f 177//177 99//99 98//98 
f 98//98 179//179 94//94 
f 182//182 96//96 97//97 
f 100//100 179//179 98//98 
f 98//98 99//99 181//181 
f 179//179 100//100 183//183 
f 99//99 146//146 181//181 
f 100//100 219//219 183//183 
f 99//99 166//166 146//146 
f 102//102 184//184 103//103 
f 185//185 157//157 62//62 
f 189//189 159//159 186//186 
f 187//187 104//104 190//190 
f 188//188 105//105 104//104 
f 219//219 145//145 183//183 
f 169//169 146//146 166//166 
f 111//111 105//105 188//188 
f 183//183 145//145 197//197 
f 147//147 197//197 145//145 
f 189//189 193//193 159//159 
f 190//190 104//104 107//107 
f 106//106 107//107 104//104 
f 104//104 105//105 221//221 
f 105//105 111//111 221//221 
f 106//106 104//104 221//221 
f 194//194 102//102 103//103 
f 191//191 194//194 103//103 
f 194//194 191//191 109//109 
f 194//194 109//109 196//196 
f 195//195 107//107 106//106 
f 106//106 112//112 195//195 
f 113//113 196//196 109//109 
f 169//169 118//118 146//146 
f 221//221 112//112 106//106 
f 112//112 222//222 148//148 
f 196//196 113//113 114//114 
f 196//196 114//114 200//200 
f 195//195 112//112 198//198 
f 198//198 112//112 115//115 
f 199//199 198//198 115//115 
f 115//115 122//122 199//199 
f 148//148 115//115 112//112 
f 204//204 200//200 114//114 
f 117//117 118//118 169//169 
f 123//123 201//201 66//66 
f 65//65 66//66 201//201 
f 124//124 201//201 123//123 
f 223//223 202//202 207//207 
f 202//202 223//223 203//203 
f 223//223 207//207 128//128 
f 115//115 148//148 119//119 
f 115//115 119//119 122//122 
f 148//148 129//129 119//119 
f 128//128 212//212 148//148 
f 199//199 122//122 205//205 
f 129//129 127//127 119//119 
f 121//121 171//171 120//120 
f 205//205 122//122 133//133 
f 206//206 214//214 121//121 
f 123//123 170//170 69//69 
f 69//69 124//124 123//123 
f 126//126 124//124 125//125 
f 207//207 208//208 128//128 
f 208//208 212//212 128//128 
f 209//209 127//127 129//129 
f 125//125 139//139 130//130 
f 130//130 126//126 125//125 
f 130//130 143//143 132//132 
f 136//136 132//132 143//143 
f 119//119 211//211 122//122 
f 131//131 215//215 122//122 
f 211//211 213//213 122//122 
f 122//122 213//213 131//131 
f 138//138 132//132 136//136 
f 126//126 130//130 132//132 
f 216//216 131//131 218//218 
f 211//211 210//210 213//213 
f 131//131 213//213 218//218 
f 136//136 144//144 135//135 
f 137//137 83//83 134//134 
f 83//83 137//137 135//135 
f 134//134 121//121 137//137 
f 138//138 136//136 135//135 
f 138//138 135//135 137//137 
f 137//137 121//121 214//214 
f 137//137 217//217 138//138 
f 130//130 140//140 143//143 
f 140//140 141//141 143//143 
f 141//141 144//144 136//136 
f 140//140 130//130 139//139 
f 142//142 141//141 140//140 
f 144//144 141//141 142//142 
f 136//136 143//143 141//141 
f 147//147 145//145 219//219 
f 203//203 223//223 220//220 
f 148//148 222//222 128//128 
