#
# Compatibility version : 3.0
# File ID : FJ202
# Representation ID : BP4351
# Build-up logic : FMA 3.0 part_of
# Concept ID : FMA23953
# English name : Distal phalanx of left index finger
# Bounds(mm): (300.530000,-183.011000,672.037000)-(310.658000,-165.914000,685.924000)
# Volume(cm3): 0.378400
#
v 302.09 -171.309 683.946
v 301.831 -171.402 683.7
v 301.063 -169.7 683.414
v 301.577 -169.208 683.016
v 300.602 -170.326 682.131
v 300.902 -171.05 682.839
v 301.146 -171.49 682.266
v 300.837 -169.564 681.305
v 300.81 -170.803 681.269
v 301.165 -169.881 680.881
v 300.916 -169.104 682.075
v 301.416 -168.634 681.281
v 303.697 -168.814 685.184
v 303.797 -169.32 685.458
v 304.681 -169.214 685.541
v 302.477 -171.759 683.618
v 303.121 -171.776 684.209
v 303.121 -171.854 683.92
v 303.592 -170.91 684.606
v 303.715 -171.914 684.154
v 303.928 -172.109 683.558
v 302.265 -169.368 684.328
v 302.505 -169.586 684.747
v 302.652 -169.114 684.021
v 304.361 -168.574 684.054
v 303.271 -173.211 681.521
v 302.034 -168.363 681.85
v 302.651 -167.135 680.766
v 302.619 -167.429 680.532
v 302.49 -167.915 680.377
v 302.931 -167.512 680.271
v 302.911 -168.034 680.179
v 303.294 -169.181 680.088
v 303.568 -166.727 681.256
v 303.483 -166.739 680.536
v 302.67 -172.8 680.917
v 303.524 -174.047 680.412
v 302.011 -171.597 680.459
v 306.473 -170.886 685.156
v 304.748 -168.878 685.73
v 304.656 -168.638 685.526
v 304.649 -168.543 685.333
v 305.313 -168.496 685.879
v 305.335 -168.786 685.924
v 305.202 -169.503 685.405
v 305.562 -168.324 685.361
v 306.787 -169.036 685.613
v 305.411 -167.59 682.632
v 305.325 -166.435 681.922
v 305.694 -165.914 681.54
v 304.163 -167.211 680.242
v 305.26 -168.726 679.823
v 303.84 -166.322 680.993
v 304.709 -166.268 680.851
v 304.15 -175.628 679.054
v 304.335 -175.536 679.604
v 303.944 -173.465 678.993
v 304.039 -170.987 679.284
v 304.704 -178.345 677.145
v 304.627 -175.534 677.17
v 304.759 -172.352 677.856
v 304.359 -180.029 675.9
v 304.437 -180.687 676.057
v 304.4 -180.797 675.688
v 304.766 -180.54 676.372
v 304.71 -180.989 676.04
v 304.657 -181.211 675.723
v 305.534 -180.878 676.305
v 304.564 -178.1 676.939
v 304.567 -179.378 676.628
v 304.462 -179.448 676.355
v 305.381 -176.339 675.296
v 304.972 -182.236 674.494
v 304.781 -181.841 674.465
v 305.01 -181.1 673.074
v 305.472 -182.128 675.044
v 305.237 -182.384 673.604
v 304.625 -180.151 674.411
v 305.083 -180.041 673.081
v 307.955 -170.798 684.764
v 307.576 -168.691 685.474
v 308.672 -169.019 685.189
v 308.738 -168.659 685.159
v 308.727 -168.11 684.973
v 308.803 -169.892 685.012
v 309.067 -168.999 685.05
v 309.06 -168.658 685.028
v 308.257 -167.502 684.022
v 308.954 -167.874 684.593
v 307.211 -171.483 684.067
v 307.323 -166.388 682.446
v 307.701 -166.97 681.434
v 307.585 -167.399 683.473
v 307.851 -166.593 682.002
v 308.694 -167.056 683.198
v 307.607 -174.523 681.055
v 308.725 -173.35 680.653
v 308.595 -170.873 680.752
v 306.822 -169.174 679.927
v 306.48 -166.426 681.162
v 308.491 -176.089 679.178
v 308.335 -172.965 678.966
v 306.525 -178.253 678.061
v 307.638 -177.297 678.802
v 306.191 -172.678 676.622
v 306.979 -172.816 676.958
v 306.008 -176.123 674.731
v 305.861 -182.995 673.626
v 306.596 -182.558 674.636
v 306.398 -183.011 673.246
v 307.178 -182.553 674.549
v 306.934 -182.171 675.16
v 307.054 -182.524 673.777
v 306.988 -182.538 673.353
v 307.279 -182.536 673.31
v 306.438 -179.403 672.432
v 307.622 -179.797 672.319
v 307.701 -177.22 673.831
v 305.705 -182.558 672.771
v 305.806 -180.583 672.257
v 305.819 -179.715 672.485
v 306.386 -179.948 672.145
v 306.683 -180.525 672.037
v 309.367 -169.018 684.765
v 309.617 -169.982 684.375
v 309.53 -169.04 684.321
v 309.165 -170.827 683.549
v 309.055 -171.374 682.894
v 309.17 -171.385 682.313
v 309.564 -170.505 683.879
v 309.711 -170.11 683.765
v 309.656 -170.464 683.551
v 309.004 -167.337 682.913
v 309.08 -167.814 682.098
v 308.925 -175.528 678.492
v 310.041 -179.236 676.995
v 310.041 -180.043 676.79
v 308.659 -178.811 677.554
v 309.237 -177.779 677.513
v 309.343 -177.273 677.271
v 309.462 -178.387 677.217
v 309.755 -178.813 677.12
v 309.718 -178.302 676.889
v 309.826 -178.374 676.479
v 310.07 -178.875 676.88
v 309.289 -180.517 676.639
v 310.545 -179.819 676.451
v 310.228 -180.865 676.059
v 310.18 -181.372 675.051
v 310.347 -180.822 674.81
v 310.658 -179.882 676.156
v 310.65 -180.586 675.713
v 309.37 -177.884 675.36
v 310.383 -179.243 676.317
v 309.977 -178.997 674.862
v 308.395 -182.609 674.688
v 309.136 -182.717 673.69
v 309.301 -182.206 673.009
v 309.124 -181.314 672.678
v 309.479 -180.365 673.087
v 309.76 -181.848 673.089
v 309.667 -181.254 673
v 310.066 -180.143 673.982
v 310.143 -181.636 673.898
v 310.134 -181.05 673.735
v 309.117 -179.423 673.293
v 302.09 -171.309 683.946
v 301.831 -171.402 683.7
v 301.063 -169.7 683.414
v 303.797 -169.32 685.458
v 303.121 -171.776 684.209
v 302.505 -169.586 684.747
v 302.651 -167.135 680.766
v 302.011 -171.597 680.459
v 304.748 -168.878 685.73
v 305.335 -168.786 685.924
v 305.694 -165.914 681.54
v 303.84 -166.322 680.993
v 304.15 -175.628 679.054
v 304.335 -175.536 679.604
v 304.704 -178.345 677.145
v 304.564 -178.1 676.939
v 308.727 -168.11 684.973
v 308.954 -167.874 684.593
v 307.323 -166.388 682.446
v 308.694 -167.056 683.198
v 306.191 -172.678 676.622
v 305.861 -182.995 673.626
v 306.596 -182.558 674.636
v 306.398 -183.011 673.246
v 306.398 -183.011 673.246
v 307.054 -182.524 673.777
v 306.988 -182.538 673.353
v 306.988 -182.538 673.353
v 306.988 -182.538 673.353
v 307.279 -182.536 673.31
v 309.564 -170.505 683.879
v 309.656 -170.464 683.551
v 309.656 -170.464 683.551
v 309.08 -167.814 682.098
v 310.65 -180.586 675.713
v 309.136 -182.717 673.69
v 309.136 -182.717 673.69
v 309.301 -182.206 673.009
v 309.76 -181.848 673.089
v 300.602 -170.326 682.131
v 300.902 -171.05 682.839
v 300.902 -171.05 682.839
v 300.81 -170.803 681.269
v 300.916 -169.104 682.075
v 301.416 -168.634 681.281
v 305.313 -168.496 685.879
v 305.335 -168.786 685.924
v 304.567 -179.378 676.628
v 304.462 -179.448 676.355
v 304.972 -182.236 674.494
v 308.725 -173.35 680.653
v 305.705 -182.558 672.771
v 306.683 -180.525 672.037
v 309.617 -169.982 684.375
v 309.617 -169.982 684.375
v 309.17 -171.385 682.313
v 309.462 -178.387 677.217
v 310.658 -179.882 676.156
vn -0.393002 -0.737742 0.548895
vn -0.457265 -0.790447 0.407556
vn -0.523659 0.714229 0.46439
vn -0.389755 0.845625 0.364706
vn -0.98944 0.12647 0.0708128
vn -0.839511 -0.125103 0.528744
vn -0.712379 -0.700125 0.0483784
vn -0.868346 0.268576 -0.416943
vn -0.802127 -0.582608 -0.130996
vn -0.584176 0.0556499 -0.809717
vn -0.938266 0.345432 -0.0182666
vn -0.770222 0.451814 -0.450137
vn -0.439458 0.742441 0.505626
vn -0.459085 0.351363 0.815957
vn -0.0932656 -0.494702 0.864044
vn -0.350166 -0.853304 0.386336
vn -0.196846 -0.396606 0.896636
vn -0.217084 -0.948211 0.231882
vn -0.19716 -0.365375 0.909741
vn -0.0445761 -0.889437 0.454879
vn -0.16478 -0.88811 0.429078
vn -0.510004 0.749456 0.422152
vn -0.56749 0.466059 0.678781
vn -0.340226 0.920957 0.18996
vn -0.27225 0.952062 0.139489
vn -0.57759 -0.738419 0.348034
vn -0.443918 0.724712 0.527001
vn -0.586449 0.679223 0.441287
vn -0.594308 0.479544 -0.645628
vn -0.592754 0.28995 -0.75138
vn -0.317632 0.348619 -0.881802
vn -0.252837 0.094555 -0.962877
vn -0.289014 0.128644 -0.948642
vn -0.465057 0.667618 0.581385
vn -0.286557 0.639442 -0.713442
vn -0.765833 -0.642454 -0.0274395
vn -0.888765 -0.456998 -0.0353619
vn -0.469322 0.0384149 -0.882191
vn 0.065626 -0.488846 0.869898
vn -0.407902 0.367322 0.835877
vn -0.407412 0.678536 0.611232
vn -0.29702 0.927417 0.227325
vn -0.295377 0.768236 0.567949
vn -0.328521 0.120386 0.936793
vn -0.00854928 -0.528686 0.848774
vn -0.228334 0.964584 0.132066
vn 0.0972833 -0.305252 0.947289
vn -0.294708 0.583658 0.756631
vn -0.302843 0.608202 0.733741
vn -0.272237 0.687056 0.673678
vn 0.0447083 0.372594 -0.926917
vn -0.164582 0.382561 -0.909153
vn -0.252185 0.863008 -0.437743
vn 0.026154 0.725594 -0.687626
vn -0.967066 -0.0594506 -0.247485
vn -0.731826 -0.569712 0.373978
vn -0.838947 -0.0351902 -0.543074
vn -0.551248 0.240524 -0.798921
vn -0.889831 -0.294592 0.348448
vn -0.935819 0.0266682 -0.35147
vn -0.722212 0.298245 -0.624067
vn -0.997438 0.0365544 0.0614957
vn -0.804464 -0.352494 0.478106
vn -0.967675 -0.250581 0.028547
vn -0.387114 -0.429813 0.815723
vn -0.364496 -0.632965 0.683007
vn -0.693606 -0.61501 0.375065
vn -0.0759327 -0.605348 0.792331
vn -0.915708 -0.184889 0.356783
vn -0.91792 -0.0976486 0.384561
vn -0.916437 -0.117535 0.38253
vn -0.877623 0.257627 -0.404234
vn -0.35523 -0.801902 0.480381
vn -0.941746 -0.31864 -0.107628
vn -0.8779 -0.128096 -0.461392
vn -0.216609 -0.780631 0.586256
vn -0.825254 -0.505489 -0.251865
vn -0.969359 0.0598528 -0.238246
vn -0.815365 0.204609 -0.541586
vn 0.332602 -0.696141 0.636211
vn 0.220841 0.124308 0.967356
vn 0.269596 -0.0843091 0.959276
vn 0.313038 0.167887 0.934784
vn 0.361405 0.371851 0.855052
vn 0.429593 -0.363037 0.826833
vn 0.519162 -0.0606398 0.852522
vn 0.558046 0.218513 0.800523
vn -0.108678 0.91317 0.392822
vn 0.815207 0.449446 0.365288
vn 0.222069 -0.788342 0.573761
vn -0.20334 0.631815 0.747972
vn 0.506249 0.509475 -0.695807
vn -0.253669 0.833023 0.491656
vn 0.508891 0.808899 -0.294469
vn -0.0575752 0.839051 0.540998
vn 0.459244 -0.587102 0.666638
vn 0.818918 -0.409055 0.402552
vn 0.852876 0.165861 -0.495069
vn 0.458904 0.443963 -0.769613
vn 0.300653 0.617437 -0.726897
vn 0.677022 -0.371642 0.635235
vn 0.892779 0.310048 -0.326828
vn -0.137736 -0.565483 0.813177
vn 0.212043 -0.583643 0.783836
vn -0.405559 0.466406 -0.786122
vn 0.595388 0.525221 -0.607993
vn -0.424979 0.470241 -0.773476
vn -0.573301 -0.782185 -0.243952
vn 0.104079 -0.887887 0.448135
vn 0.437329 -0.887352 0.146118
vn -0.0429723 -0.98273 0.179986
vn -0.0219102 -0.76161 0.647666
vn 0.556589 -0.827703 0.0715296
vn 0.631862 -0.771648 -0.0728682
vn -0.0598064 -0.998202 -0.00388709
vn -0.111477 0.510333 -0.852721
vn 0.264907 0.330907 -0.905718
vn 0.41028 0.559369 -0.720261
vn -0.606172 -0.511283 -0.609216
vn -0.513903 0.026043 -0.857453
vn -0.528513 0.383936 -0.757145
vn -0.166801 0.301491 -0.938766
vn -0.0166359 -0.201884 -0.979268
vn 0.806856 0.0888128 0.584034
vn 0.597239 -0.162805 0.785366
vn 0.95493 0.243845 0.169257
vn 0.481458 -0.790464 0.378635
vn 0.655795 -0.62315 0.426165
vn 0.95468 0.0314046 -0.295973
vn 0.462579 -0.771236 0.437282
vn 0.999818 0.00292416 0.0188671
vn 0.940971 0.00842031 -0.338381
vn 0.857751 0.512701 -0.037437
vn 0.632166 0.461296 -0.622553
vn 0.975623 0.0198259 0.218556
vn 0.558462 -0.028237 0.829049
vn 0.389252 -0.400034 0.829733
vn 0.27674 -0.357229 0.892077
vn 0.794488 -0.131061 0.592969
vn 0.953523 0.199472 0.225841
vn 0.42911 -0.0979929 0.897921
vn 0.547693 0.187169 0.815475
vn 0.814318 0.323629 0.481821
vn 0.875259 0.483541 0.0104451
vn 0.81164 0.359014 0.460814
vn 0.0830353 -0.607751 0.789774
vn 0.83662 -0.0834186 0.541394
vn 0.508058 -0.659117 0.554474
vn 0.799961 -0.585341 0.132054
vn 0.976386 -0.111766 -0.184877
vn 0.943456 0.309655 -0.118336
vn 0.782206 -0.458463 0.421859
vn 0.831131 0.484657 -0.272635
vn 0.895081 0.438767 0.0794586
vn 0.807592 0.492133 -0.324961
vn 0.102269 -0.856191 0.506436
vn 0.640678 -0.763989 0.0764986
vn 0.133093 -0.503612 -0.853616
vn 0.377441 -0.0328888 -0.92545
vn 0.627553 0.272538 -0.729315
vn 0.692924 -0.094062 -0.714849
vn 0.67816 0.105996 -0.72723
vn 0.88134 0.243203 -0.405083
vn 0.918346 -0.374283 -0.128658
vn 0.901003 0.0828486 -0.425827
vn 0.603319 0.451632 -0.657294
vn -0.496497 -0.235364 0.835521
vn -0.677187 -0.185936 0.711931
vn -0.817235 -0.071255 0.571883
vn -0.115507 -0.461115 0.879791
vn -0.309354 -0.889919 0.335177
vn -0.454684 -0.312593 0.833995
vn -0.581148 0.631103 -0.513786
vn -0.767765 -0.568026 -0.296451
vn -0.121369 -0.467566 0.875586
vn -0.0843868 -0.541847 0.83623
vn 0.191333 0.906814 -0.375607
vn -0.421708 0.688906 0.589551
vn -0.837162 -0.452303 0.307541
vn -0.180149 -0.685656 0.705281
vn -0.364362 -0.514194 0.776431
vn -0.947965 0.0974737 -0.303086
vn 0.0284498 0.848448 0.528514
vn 0.0345232 0.856024 0.515781
vn 0.361758 0.932272 -0.00101321
vn 0.606845 0.792851 0.0559093
vn 0.348038 0.604356 -0.716676
vn -0.0953407 -0.906418 0.411481
vn 0.0029154 -0.999274 -0.0379934
vn -0.301689 -0.870129 -0.389691
vn 0.387683 -0.438703 -0.810704
vn -0.0278911 -0.999566 -0.00949089
vn 0.0114793 -0.999447 0.0311998
vn -0.117868 -0.55584 -0.822891
vn 0.481456 -0.42734 -0.765232
vn -0.0377282 -0.644264 -0.763872
vn 0.933874 -0.285327 0.215562
vn 0.63992 -0.727028 0.248862
vn 0.932429 -0.281675 0.226353
vn 0.966199 0.0946459 -0.239794
vn 0.958865 -0.0683484 -0.27551
vn -0.0732349 -0.99704 0.0234266
vn 0.0429603 -0.804102 -0.592938
vn 0.609746 -0.697812 -0.375857
vn 0.678191 -0.679906 -0.2789
vn -0.904839 -0.425265 -0.0204083
vn -0.902034 -0.428048 -0.0557586
vn -0.582685 -0.745327 0.323985
vn -0.814854 -0.0129644 -0.579521
vn -0.476027 0.816342 0.327085
vn -0.589077 0.758404 0.278946
vn 0.192407 0.279407 0.940697
vn 0.194486 0.0520204 0.979525
vn -0.492966 -0.301691 0.816068
vn -0.957734 0.219872 -0.185476
vn -0.841879 -0.537154 -0.0520241
vn 0.973304 0.113667 -0.199399
vn 0.289649 -0.445245 -0.847266
vn 0.387683 -0.438703 -0.810704
vn 0.973001 -0.0285029 0.229032
vn 0.425653 -0.644996 0.634665
vn 0.847974 -0.49949 0.177341
vn 0.78762 0.153956 0.596617
vn 0.883314 -0.256813 0.392178
g grp1
usemtl mtl1
f 1//1 2//2 16//16 
f 22//22 4//4 3//3 
f 168//168 169//169 6//6 
f 167//167 169//169 168//168 
f 3//3 23//23 22//22 
f 169//169 167//167 172//172 
f 24//24 4//4 22//22 
f 2//2 7//7 16//16 
f 169//169 5//5 6//6 
f 169//169 11//11 5//5 
f 206//206 7//7 207//207 
f 4//4 210//210 3//3 
f 11//11 8//8 5//5 
f 206//206 9//9 7//7 
f 5//5 8//8 209//209 
f 2//2 208//208 7//7 
f 209//209 8//8 10//10 
f 209//209 10//10 38//38 
f 8//8 12//12 30//30 
f 38//38 10//10 32//32 
f 8//8 30//30 10//10 
f 7//7 9//9 174//174 
f 8//8 11//11 12//12 
f 210//210 27//27 211//211 
f 23//23 13//13 22//22 
f 13//13 23//23 14//14 
f 172//172 19//19 170//170 
f 13//13 14//14 40//40 
f 15//15 175//175 170//170 
f 15//15 170//170 45//45 
f 25//25 13//13 42//42 
f 40//40 41//41 13//13 
f 13//13 41//41 42//42 
f 46//46 25//25 42//42 
f 167//167 17//17 19//19 
f 1//1 16//16 171//171 
f 16//16 18//18 171//171 
f 17//17 20//20 39//39 
f 20//20 171//171 18//18 
f 19//19 17//17 39//39 
f 21//21 20//20 18//18 
f 18//18 16//16 21//21 
f 90//90 20//20 21//21 
f 93//93 4//4 24//24 
f 19//19 172//172 167//167 
f 24//24 22//22 13//13 
f 170//170 19//19 45//45 
f 24//24 13//13 25//25 
f 93//93 24//24 25//25 
f 93//93 48//48 27//27 
f 7//7 26//26 16//16 
f 7//7 36//36 26//26 
f 36//36 7//7 174//174 
f 26//26 56//56 21//21 
f 16//16 26//26 21//21 
f 38//38 32//32 33//33 
f 4//4 27//27 210//210 
f 32//32 10//10 30//30 
f 4//4 93//93 27//27 
f 27//27 28//28 211//211 
f 12//12 29//29 30//30 
f 12//12 173//173 29//29 
f 29//29 35//35 31//31 
f 35//35 29//29 173//173 
f 30//30 31//31 32//32 
f 31//31 30//30 29//29 
f 31//31 51//51 32//32 
f 31//31 35//35 51//51 
f 51//51 52//52 32//32 
f 49//49 27//27 48//48 
f 34//34 28//28 27//27 
f 34//34 27//27 49//49 
f 32//32 52//52 33//33 
f 53//53 35//35 173//173 
f 34//34 178//178 28//28 
f 56//56 26//26 37//37 
f 55//55 37//37 60//60 
f 37//37 57//57 60//60 
f 37//37 26//26 36//36 
f 36//36 174//174 37//37 
f 37//37 174//174 57//57 
f 57//57 38//38 58//58 
f 38//38 33//33 58//58 
f 40//40 44//44 43//43 
f 175//175 15//15 176//176 
f 41//41 40//40 43//43 
f 41//41 43//43 42//42 
f 43//43 46//46 42//42 
f 45//45 176//176 15//15 
f 81//81 212//212 213//213 
f 47//47 176//176 45//45 
f 81//81 213//213 47//47 
f 88//88 25//25 46//46 
f 46//46 43//43 88//88 
f 47//47 45//45 19//19 
f 88//88 93//93 25//25 
f 47//47 19//19 39//39 
f 180//180 90//90 21//21 
f 180//180 103//103 90//90 
f 90//90 39//39 20//20 
f 49//49 91//91 50//50 
f 58//58 33//33 52//52 
f 99//99 52//52 51//51 
f 54//54 100//100 51//51 
f 178//178 34//34 49//49 
f 35//35 54//54 51//51 
f 53//53 54//54 35//35 
f 50//50 178//178 49//49 
f 54//54 53//53 177//177 
f 179//179 56//56 37//37 
f 179//179 59//59 56//56 
f 57//57 61//61 60//60 
f 58//58 61//61 57//57 
f 61//61 58//58 52//52 
f 59//59 179//179 69//69 
f 180//180 181//181 103//103 
f 60//60 182//182 55//55 
f 72//72 60//60 61//61 
f 61//61 105//105 107//107 
f 72//72 61//61 107//107 
f 63//63 70//70 62//62 
f 64//64 63//63 62//62 
f 65//65 103//103 214//214 
f 63//63 65//65 214//214 
f 66//66 65//65 63//63 
f 67//67 66//66 63//63 
f 67//67 63//63 64//64 
f 78//78 64//64 62//62 
f 103//103 65//65 68//68 
f 66//66 67//67 76//76 
f 68//68 65//65 66//66 
f 68//68 66//66 76//76 
f 68//68 76//76 112//112 
f 70//70 59//59 69//69 
f 70//70 69//69 71//71 
f 182//182 72//72 215//215 
f 71//71 62//62 70//70 
f 215//215 72//72 62//62 
f 181//181 214//214 103//103 
f 182//182 60//60 72//72 
f 64//64 78//78 74//74 
f 67//67 73//73 76//76 
f 67//67 74//74 216//216 
f 67//67 64//64 74//74 
f 216//216 77//77 108//108 
f 74//74 77//77 216//216 
f 75//75 77//77 74//74 
f 74//74 78//78 75//75 
f 188//188 109//109 76//76 
f 76//76 73//73 188//188 
f 119//119 77//77 75//75 
f 112//112 76//76 109//109 
f 108//108 77//77 119//119 
f 62//62 72//72 78//78 
f 72//72 79//79 78//78 
f 79//79 75//75 78//78 
f 79//79 72//72 121//121 
f 120//120 75//75 79//79 
f 119//119 75//75 120//120 
f 120//120 79//79 121//121 
f 80//80 85//85 39//39 
f 84//84 212//212 81//81 
f 47//47 39//39 82//82 
f 88//88 43//43 183//183 
f 47//47 82//82 81//81 
f 39//39 85//85 82//82 
f 82//82 83//83 81//81 
f 83//83 84//84 81//81 
f 82//82 87//87 83//83 
f 87//87 89//89 84//84 
f 87//87 84//84 83//83 
f 183//183 184//184 88//88 
f 85//85 86//86 82//82 
f 82//82 86//86 87//87 
f 80//80 130//130 85//85 
f 95//95 88//88 184//184 
f 186//186 89//89 133//133 
f 90//90 80//80 39//39 
f 96//96 90//90 103//103 
f 130//130 80//80 90//90 
f 97//97 128//128 96//96 
f 127//127 130//130 90//90 
f 96//96 128//128 90//90 
f 128//128 127//127 90//90 
f 91//91 49//49 48//48 
f 91//91 48//48 93//93 
f 95//95 91//91 93//93 
f 185//185 186//186 94//94 
f 94//94 92//92 100//100 
f 88//88 95//95 93//93 
f 134//134 92//92 94//94 
f 94//94 100//100 177//177 
f 185//185 94//94 177//177 
f 100//100 54//54 177//177 
f 101//101 97//97 96//96 
f 129//129 102//102 98//98 
f 98//98 102//102 99//99 
f 134//134 98//98 99//99 
f 51//51 100//100 99//99 
f 100//100 92//92 99//99 
f 134//134 99//99 92//92 
f 96//96 103//103 104//104 
f 104//104 101//101 96//96 
f 99//99 187//187 52//52 
f 105//105 61//61 52//52 
f 99//99 106//106 187//187 
f 138//138 103//103 68//68 
f 138//138 68//68 146//146 
f 103//103 138//138 104//104 
f 104//104 138//138 101//101 
f 118//118 107//107 105//105 
f 118//118 187//187 106//106 
f 102//102 106//106 99//99 
f 106//106 102//102 118//118 
f 146//146 68//68 112//112 
f 156//156 146//146 112//112 
f 107//107 121//121 72//72 
f 107//107 118//118 116//116 
f 109//109 188//188 110//110 
f 110//110 113//113 109//109 
f 113//113 110//110 114//114 
f 111//111 112//112 109//109 
f 111//111 189//189 192//192 
f 115//115 111//111 192//192 
f 156//156 112//112 111//111 
f 158//158 196//196 123//123 
f 115//115 192//192 193//193 
f 196//196 194//194 123//123 
f 166//166 117//117 118//118 
f 121//121 107//107 116//116 
f 190//190 108//108 119//119 
f 191//191 218//218 219//219 
f 123//123 119//119 120//120 
f 219//219 195//195 191//191 
f 123//123 120//120 122//122 
f 120//120 121//121 122//122 
f 116//116 122//122 121//121 
f 123//123 122//122 117//117 
f 117//117 122//122 116//116 
f 118//118 117//117 116//116 
f 86//86 85//85 124//124 
f 87//87 86//86 124//124 
f 89//89 87//87 124//124 
f 85//85 125//125 124//124 
f 124//124 220//220 126//126 
f 124//124 126//126 89//89 
f 85//85 130//130 221//221 
f 131//131 133//133 126//126 
f 133//133 89//89 126//126 
f 126//126 220//220 131//131 
f 128//128 97//97 222//222 
f 129//129 98//98 132//132 
f 127//127 198//198 130//130 
f 128//128 198//198 127//127 
f 198//198 128//128 222//222 
f 220//220 197//197 131//131 
f 133//133 131//131 200//200 
f 197//197 199//199 131//131 
f 98//98 200//200 132//132 
f 132//132 200//200 131//131 
f 186//186 133//133 94//94 
f 94//94 133//133 134//134 
f 217//217 102//102 129//129 
f 97//97 101//101 135//135 
f 102//102 217//217 135//135 
f 101//101 139//139 135//135 
f 146//146 148//148 137//137 
f 137//137 138//138 146//146 
f 138//138 137//137 136//136 
f 138//138 136//136 142//142 
f 142//142 136//136 145//145 
f 136//136 137//137 147//147 
f 137//137 148//148 147//147 
f 136//136 147//147 145//145 
f 145//145 147//147 154//154 
f 101//101 138//138 139//139 
f 135//135 139//139 140//140 
f 102//102 135//135 140//140 
f 138//138 141//141 139//139 
f 140//140 139//139 223//223 
f 138//138 142//142 141//141 
f 223//223 142//142 143//143 
f 223//223 143//143 140//140 
f 140//140 143//143 144//144 
f 143//143 142//142 145//145 
f 144//144 143//143 145//145 
f 154//154 144//144 145//145 
f 155//155 144//144 154//154 
f 146//146 156//156 148//148 
f 152//152 147//147 148//148 
f 149//149 152//152 148//148 
f 157//157 149//149 148//148 
f 149//149 150//150 201//201 
f 163//163 151//151 201//201 
f 149//149 164//164 150//150 
f 150//150 164//164 165//165 
f 224//224 147//147 152//152 
f 147//147 151//151 154//154 
f 163//163 201//201 150//150 
f 153//153 140//140 144//144 
f 153//153 102//102 140//140 
f 153//153 118//118 102//102 
f 153//153 144//144 155//155 
f 166//166 118//118 155//155 
f 163//163 166//166 155//155 
f 154//154 151//151 155//155 
f 151//151 163//163 155//155 
f 155//155 118//118 153//153 
f 157//157 148//148 156//156 
f 202//202 156//156 111//111 
f 115//115 202//202 111//111 
f 196//196 158//158 203//203 
f 117//117 159//159 123//123 
f 159//159 158//158 123//123 
f 117//117 160//160 159//159 
f 158//158 159//159 161//161 
f 157//157 204//204 205//205 
f 149//149 157//157 164//164 
f 205//205 164//164 157//157 
f 161//161 162//162 165//165 
f 165//165 162//162 160//160 
f 159//159 162//162 161//161 
f 160//160 162//162 159//159 
f 150//150 165//165 163//163 
f 165//165 164//164 161//161 
f 160//160 163//163 165//165 
f 117//117 166//166 160//160 
f 160//160 166//166 163//163 
