#
# Compatibility version : 3.0
# File ID : FJ258
# Representation ID : BP4328
# Build-up logic : FMA 3.0 part_of
# Concept ID : FMA24440
# English name : Left triquetral
# Bounds(mm): (230.991000,-126.209000,799.112000)-(242.134000,-110.660000,812.933000)
# Volume(cm3): 1.027800
#
v 231.426 -119.7 809.251
v 231.457 -121.58 806.628
v 231.668 -120.156 805.833
v 231.933 -120.542 804.97
v 231.163 -118.062 807.039
v 231.702 -117.431 805.911
v 231.688 -123.527 804.598
v 232.077 -124.92 804.934
v 232.362 -125.499 803.252
v 231.871 -122.348 804.712
v 231.999 -121.839 803.831
v 231.895 -119.676 802.711
v 231.642 -121.11 801.763
v 233.824 -116.739 812.677
v 234.544 -118.012 812.817
v 234.114 -115.686 812.396
v 232.538 -117.387 811.821
v 232.298 -116.431 811.532
v 233.062 -116.849 812.416
v 233.023 -116.048 812.289
v 233.565 -118.685 812.098
v 232.833 -115.07 811.071
v 233.987 -114.621 811.849
v 231.999 -118.172 805.229
v 232.355 -115.241 806.55
v 233.145 -114.983 804.785
v 232.978 -125.589 803.178
v 232.658 -117.236 801.646
v 232.368 -123.824 802.037
v 233.624 -125.119 801.092
v 232.375 -121.252 800.588
v 232.765 -122.2 800.391
v 232.974 -121.417 800.221
v 233.33 -121.731 800.2
v 233.317 -121.384 800.2
v 233.737 -122.099 800.051
v 233.676 -121.364 800.157
v 234.144 -121.741 799.944
v 234.362 -121.348 799.805
v 233.024 -121.05 800.168
v 233.293 -121.048 800.094
v 233.372 -120.243 799.946
v 233.686 -120.744 799.86
v 234.058 -121.038 799.851
v 233.061 -117.927 800.578
v 233.42 -116.209 800.979
v 236.776 -118.642 812.74
v 236.004 -119.461 812.731
v 235.995 -113.723 811.234
v 236.218 -111.848 810.145
v 236.204 -111.417 808.944
v 236.979 -111.713 809.956
v 236.978 -111.064 809.274
v 236.956 -110.956 808.723
v 237.588 -124.71 809.297
v 237.272 -124.931 808.738
v 237.932 -125.14 808.655
v 236.241 -123.911 809.549
v 237.35 -124.179 809.555
v 237.646 -125.387 807.164
v 234.977 -112.251 805.196
v 236.412 -111.098 805.327
v 236.652 -111.375 803.44
v 236.85 -118.176 802.258
v 236.904 -117.786 802.102
v 237.102 -118.064 802.712
v 234.371 -113.761 802.237
v 236.768 -114.766 800.842
v 236.898 -126.19 801.763
v 235.127 -126.209 801.488
v 235.438 -126.077 800.952
v 236.773 -125.32 800.822
v 236.648 -124.423 800.184
v 237.207 -124.866 800.774
v 237.692 -125.962 802.396
v 237.548 -125.669 801.763
v 235.5 -123.416 799.849
v 236.016 -120.672 799.112
v 236.591 -118.338 799.798
v 236.281 -118.606 799.503
v 236.899 -118.521 800.538
v 236.94 -119.002 799.92
v 237.12 -119.754 799.746
v 234.459 -115.957 800.443
v 237.071 -117.683 801.073
v 239.163 -121.611 811.512
v 238.364 -120.685 812.238
v 239.579 -120.52 811.959
v 240.774 -121.102 810.61
v 237.555 -111.145 809.255
v 237.438 -110.92 808.756
v 238.253 -124.187 809.159
v 240.16 -122.367 809.042
v 238.92 -110.725 806.328
v 238.229 -125.259 807.593
v 238.47 -124.727 807.792
v 240.383 -117.278 804.832
v 239.291 -111.916 803.013
v 237.242 -110.815 805.427
v 238.958 -111.113 803.269
v 239.089 -111.532 802.88
v 239.43 -110.983 804.053
v 238.541 -125 803.337
v 238.842 -124.173 802.825
v 237.793 -118.045 802.532
v 238.85 -118.859 801.636
v 239.246 -119.082 801.654
v 239.882 -118.867 802.657
v 237.56 -116.586 801.488
v 237.668 -116.48 802.229
v 237.587 -116.186 801.183
v 238 -116.035 801.765
v 237.924 -115.697 801.667
v 238.387 -116.6 802.359
v 238.358 -116.263 802.263
v 238.688 -115.86 802.354
v 239.113 -116.887 802.422
v 239.893 -116.063 803.578
v 237.232 -112.134 802.046
v 238.214 -125.203 802.217
v 237.832 -124.772 801.322
v 238.032 -124.193 800.632
v 237.627 -123.94 800.117
v 238.258 -124.583 801.692
v 238.455 -123.634 800.598
v 237.869 -123.392 800.002
v 238.241 -121.527 800.106
v 237.392 -119.23 800.305
v 238.149 -119.148 801.327
v 238.132 -119.241 800.97
v 238.097 -119.516 800.637
v 238.781 -119.242 801.254
v 240.674 -118.719 811.201
v 241.524 -119.29 810.817
v 241.769 -118.989 810.435
v 241.58 -119.846 810.225
v 241.297 -116.593 810.076
v 240.806 -114.335 809.356
v 241.597 -119.419 809.63
v 241.574 -117.288 809.188
v 241.668 -114.217 806.495
v 242.007 -113.828 807.914
v 239.967 -111.222 807.782
v 240.652 -111.754 808.013
v 240.62 -111.202 805.46
v 241.133 -111.645 807.432
v 241.802 -112.191 807.344
v 241.765 -111.907 806.8
v 242.076 -112.7 806.593
v 241.992 -112.245 806.484
v 239.971 -111.6 803.684
v 240.66 -111.545 804.707
v 241.329 -112.928 805.336
v 239.849 -111.146 803.901
v 232.077 -124.92 804.934
v 232.362 -125.499 803.252
v 237.588 -124.71 809.297
v 237.588 -124.71 809.297
v 237.932 -125.14 808.655
v 237.35 -124.179 809.555
v 236.85 -118.176 802.258
v 236.85 -118.176 802.258
v 237.102 -118.064 802.712
v 237.102 -118.064 802.712
v 237.102 -118.064 802.712
v 236.898 -126.19 801.763
v 236.898 -126.19 801.763
v 235.127 -126.209 801.488
v 235.127 -126.209 801.488
v 235.438 -126.077 800.952
v 235.438 -126.077 800.952
v 236.591 -118.338 799.798
v 236.281 -118.606 799.503
v 236.899 -118.521 800.538
v 237.793 -118.045 802.532
v 238.85 -118.859 801.636
v 237.668 -116.48 802.229
v 237.668 -116.48 802.229
v 238 -116.035 801.765
v 238.358 -116.263 802.263
v 241.769 -118.989 810.435
v 232.362 -125.499 803.252
v 233.624 -125.119 801.092
v 233.624 -125.119 801.092
v 236.004 -119.461 812.731
v 236.218 -111.848 810.145
v 237.692 -125.962 802.396
v 238.229 -125.259 807.593
v 239.113 -116.887 802.422
v 237.392 -119.23 800.305
v 238.149 -119.148 801.327
v 238.781 -119.242 801.254
v 241.297 -116.593 810.076
v 242.007 -113.828 807.914
v 242.007 -113.828 807.914
v 242.076 -112.7 806.593
v 241.992 -112.245 806.484
vn -0.857435 -0.288106 0.42638
vn -0.991687 -0.0612377 -0.113169
vn -0.934963 0.00975792 -0.354612
vn -0.993822 0.0238673 -0.108389
vn -0.981667 0.17103 -0.0841359
vn -0.893251 0.193854 -0.405614
vn -0.986191 -0.0709996 -0.14962
vn -0.961086 -0.264694 0.079057
vn -0.918321 -0.280929 -0.278863
vn -0.97324 0.0861093 -0.213046
vn -0.994947 -0.0981174 -0.021301
vn -0.97843 0.20145 -0.0457366
vn -0.969754 -0.0207871 -0.243199
vn -0.132384 0.151396 0.979568
vn -0.209546 -0.13098 0.968986
vn 0.000644452 0.353438 0.935458
vn -0.737996 -0.19357 0.646446
vn -0.877658 0.168431 0.448718
vn -0.546272 -0.0727694 0.834441
vn -0.504205 0.348181 0.790283
vn -0.49866 -0.420696 0.757861
vn -0.753622 0.602045 0.263811
vn -0.27467 0.572483 0.772541
vn -0.946377 0.130361 -0.295595
vn -0.865085 0.479691 -0.14671
vn -0.881483 0.401998 -0.247759
vn -0.0682206 -0.953839 0.292466
vn -0.904386 0.331369 -0.26885
vn -0.929709 -0.190557 -0.315166
vn -0.769474 -0.363015 -0.525481
vn -0.668286 -0.00579199 -0.743882
vn -0.547354 -0.215203 -0.808759
vn -0.276379 -0.112374 -0.954456
vn -0.192158 -0.00631192 -0.981344
vn -0.0771747 -0.155585 -0.984803
vn -0.281539 -0.0212072 -0.959315
vn -0.287128 -0.163225 -0.943883
vn -0.324706 -0.0780982 -0.942585
vn -0.386198 -0.170414 -0.906537
vn -0.405448 -0.0749592 -0.911039
vn -0.218598 -0.237138 -0.946562
vn -0.388321 0.0530948 -0.919993
vn -0.317399 -0.26368 -0.910896
vn -0.343968 -0.300887 -0.889468
vn -0.689467 0.222245 -0.689379
vn -0.692405 0.414513 -0.590555
vn 0.218589 0.14877 0.96441
vn -0.286443 -0.51677 0.806783
vn 0.207208 0.413344 0.886686
vn -0.563935 0.756275 0.331701
vn -0.580885 0.799345 0.153687
vn 0.256441 0.554242 0.791867
vn -0.133443 0.891476 0.432971
vn -0.301117 0.948572 0.0976726
vn -0.322838 -0.805619 0.496743
vn -0.282604 -0.851768 0.441165
vn 0.756643 -0.497331 0.424446
vn -0.287751 -0.60656 0.741137
vn 0.38618 -0.257304 0.88581
vn 0.0240119 -0.988538 0.149048
vn -0.713266 0.694318 -0.095784
vn -0.482422 0.874148 -0.055982
vn -0.388124 0.859172 -0.333441
vn 0.960461 -0.207598 -0.18552
vn 0.929317 -0.35262 -0.109678
vn 0.830944 -0.352847 -0.430152
vn -0.672811 0.608519 -0.42075
vn 0.497617 0.215735 -0.84014
vn -0.00460144 -0.971589 0.23663
vn -0.0767683 -0.963615 0.256033
vn -0.444159 -0.775478 -0.448728
vn 0.399738 -0.581636 -0.708456
vn 0.186798 -0.472683 -0.861207
vn 0.464715 -0.600802 -0.650443
vn 0.156353 -0.980414 0.119761
vn 0.601199 -0.576801 -0.553047
vn -0.139209 -0.265156 -0.954103
vn -0.0516709 -0.0799269 -0.995461
vn 0.959222 -0.0393887 -0.279896
vn -0.1722 0.240206 -0.955326
vn 0.9762 -0.197484 0.0896298
vn 0.719983 0.376056 -0.583272
vn 0.56734 0.264888 -0.779718
vn -0.30041 0.374649 -0.87715
vn 0.961263 -0.263218 -0.0817838
vn 0.307114 -0.635352 0.708526
vn 0.0966154 -0.38772 0.9167
vn 0.435076 -0.189264 0.880277
vn 0.694866 -0.524319 0.492189
vn 0.265359 0.78107 0.565256
vn 0.0579073 0.977611 0.202294
vn 0.585683 -0.565333 0.580839
vn 0.865712 -0.498662 0.0433548
vn 0.138623 0.989816 0.0323838
vn 0.11968 -0.984168 0.130727
vn 0.819096 -0.532276 0.213924
vn 0.944536 -0.138348 -0.297844
vn 0.688049 -0.0183054 -0.725433
vn -0.131966 0.987582 -0.0852425
vn 0.0884208 0.893827 -0.439608
vn 0.483161 0.41735 -0.769658
vn 0.161794 0.975201 -0.151016
vn 0.851721 -0.521755 -0.0484027
vn 0.917589 -0.340706 -0.204817
vn -0.10318 0.718316 -0.688023
vn 0.16255 0.617677 -0.76945
vn 0.54146 0.315827 -0.77915
vn 0.920129 -0.00452049 -0.391588
vn 0.886617 -0.438071 -0.14834
vn 0.832846 -0.523317 -0.180297
vn 0.775644 0.00547879 -0.631146
vn 0.791244 -0.312018 -0.525906
vn 0.716013 0.0985133 -0.6911
vn 0.033556 0.0456362 -0.998394
vn 0.347018 -0.312452 -0.884281
vn 0.608894 -0.00194778 -0.793249
vn 0.144941 0.152076 -0.977684
vn 0.836446 0.05669 -0.54511
vn -0.11143 0.636742 -0.762983
vn 0.789402 -0.495832 -0.361932
vn 0.634578 -0.581341 -0.509268
vn 0.58208 -0.62929 -0.514953
vn 0.33803 -0.460007 -0.821054
vn 0.764356 -0.520607 -0.38043
vn 0.783088 -0.337861 -0.522133
vn 0.375145 -0.216166 -0.901409
vn 0.64776 0.0856243 -0.757017
vn 0.669574 0.54334 -0.506411
vn 0.274461 0.907102 -0.31912
vn 0.300605 0.843889 -0.444397
vn 0.523896 0.478218 -0.704869
vn 0.414876 0.478568 -0.773854
vn 0.417654 0.247932 0.874125
vn 0.72505 -0.0736587 0.684745
vn 0.720537 0.23945 0.650761
vn 0.923595 -0.367754 0.108305
vn 0.575692 0.307884 0.757487
vn 0.478572 0.367943 0.797237
vn 0.949281 -0.201461 -0.241412
vn 0.995489 -0.0536497 -0.0782572
vn 0.922821 -0.19656 -0.331309
vn 0.661816 0.336548 0.669877
vn 0.326585 0.892553 0.310951
vn 0.467734 0.584743 0.662797
vn 0.483317 0.871034 -0.0877717
vn 0.501149 0.800286 0.32923
vn 0.750808 0.466529 0.467588
vn 0.695479 0.712807 0.0906378
vn 0.909295 -0.140468 -0.391729
vn 0.884305 0.466242 0.0249735
vn 0.734078 0.215698 -0.643897
vn 0.773993 0.438676 -0.456616
vn 0.79762 -0.0065547 -0.603125
vn 0.526409 0.732596 -0.431506
vn -0.253736 -0.887084 0.385616
vn -0.108739 -0.959794 0.258788
vn 0.477222 -0.400385 0.782273
vn -0.119926 -0.476833 0.870775
vn -0.128957 -0.949129 0.287271
vn 0.00931151 -0.588047 0.808773
vn 0.365842 0.850616 -0.377641
vn 0.802326 0.589224 -0.0953343
vn 0.346575 0.847741 -0.401523
vn -0.199582 0.692702 -0.693059
vn -0.0191771 -0.211977 -0.977086
vn 0.0438315 -0.975662 -0.214856
vn 0.459397 -0.666561 -0.58707
vn -0.453581 -0.781249 -0.428852
vn 0.0438315 -0.975662 -0.214856
vn 0.0438315 -0.975662 -0.214856
vn 0.0575472 -0.511396 -0.857416
vn 0.563165 0.222395 -0.795856
vn 0.566488 0.213227 -0.796006
vn 0.850903 0.430382 -0.301223
vn -0.421716 0.0650945 -0.904388
vn -0.575291 0.140017 -0.805875
vn 0.151924 -0.337535 -0.928972
vn 0.274129 -0.784502 -0.556246
vn 0.274129 -0.784502 -0.556246
vn 0.274129 -0.784502 -0.556246
vn 0.99598 -0.075473 0.0482498
vn -0.462769 -0.786616 -0.408754
vn -0.453581 -0.781249 -0.428852
vn -0.288269 -0.336436 -0.8965
vn 0.0797584 -0.0860627 0.993092
vn 0.0714938 0.575548 0.814637
vn 0.717662 -0.648369 -0.254125
vn 0.837613 -0.534011 0.115056
vn 0.74811 0.234279 -0.620841
vn 0.315343 0.898407 -0.305651
vn -0.0610661 0.714669 -0.696792
vn 0.200832 0.867772 -0.454575
vn 0.969666 0.102588 0.221862
vn 0.988324 -0.151828 -0.0127959
vn 0.951353 0.211548 0.223999
vn 0.940586 0.232586 0.247389
vn 0.838677 0.088325 -0.537419
g grp1
usemtl mtl1
f 17//17 18//18 1//1 
f 18//18 5//5 1//1 
f 1//1 2//2 8//8 
f 2//2 3//3 4//4 
f 4//4 10//10 2//2 
f 1//1 5//5 2//2 
f 2//2 5//5 3//3 
f 5//5 6//6 3//3 
f 25//25 6//6 5//5 
f 24//24 3//3 6//6 
f 3//3 24//24 4//4 
f 24//24 12//12 4//4 
f 8//8 2//2 7//7 
f 7//7 2//2 10//10 
f 8//8 7//7 9//9 
f 29//29 7//7 10//10 
f 27//27 155//155 156//156 
f 9//9 29//29 30//30 
f 7//7 29//29 9//9 
f 4//4 11//11 10//10 
f 11//11 4//4 13//13 
f 10//10 11//11 29//29 
f 13//13 4//4 12//12 
f 29//29 11//11 13//13 
f 31//31 13//13 45//45 
f 13//13 32//32 29//29 
f 14//14 20//20 19//19 
f 15//15 14//14 19//19 
f 14//14 16//16 20//20 
f 14//14 15//15 47//47 
f 14//14 47//47 16//16 
f 15//15 19//19 21//21 
f 48//48 15//15 21//21 
f 58//58 48//48 21//21 
f 21//21 19//19 17//17 
f 18//18 17//17 19//19 
f 18//18 19//19 20//20 
f 20//20 22//22 18//18 
f 21//21 17//17 1//1 
f 22//22 5//5 18//18 
f 23//23 22//22 20//20 
f 22//22 23//23 50//50 
f 23//23 20//20 16//16 
f 22//22 50//50 51//51 
f 49//49 23//23 16//16 
f 49//49 186//186 23//23 
f 1//1 155//155 58//58 
f 21//21 1//1 58//58 
f 25//25 5//5 22//22 
f 22//22 61//61 25//25 
f 22//22 51//51 61//61 
f 25//25 61//61 26//26 
f 6//6 26//26 24//24 
f 26//26 6//6 25//25 
f 12//12 24//24 26//26 
f 26//26 67//67 28//28 
f 67//67 26//26 61//61 
f 26//26 28//28 12//12 
f 12//12 28//28 13//13 
f 45//45 13//13 28//28 
f 28//28 67//67 46//46 
f 46//46 67//67 84//84 
f 30//30 29//29 32//32 
f 27//27 156//156 70//70 
f 182//182 183//183 168//168 
f 168//168 183//183 71//71 
f 13//13 31//31 32//32 
f 32//32 77//77 184//184 
f 32//32 31//31 33//33 
f 31//31 40//40 33//33 
f 77//77 32//32 36//36 
f 36//36 32//32 34//34 
f 32//32 33//33 34//34 
f 34//34 33//33 35//35 
f 40//40 41//41 33//33 
f 33//33 41//41 35//35 
f 36//36 34//34 37//37 
f 34//34 35//35 37//37 
f 35//35 41//41 37//37 
f 77//77 36//36 38//38 
f 38//38 36//36 37//37 
f 37//37 39//39 38//38 
f 44//44 39//39 37//37 
f 78//78 39//39 44//44 
f 78//78 38//38 39//39 
f 40//40 31//31 42//42 
f 31//31 45//45 42//42 
f 41//41 40//40 42//42 
f 37//37 41//41 43//43 
f 41//41 42//42 43//43 
f 44//44 37//37 43//43 
f 43//43 42//42 78//78 
f 43//43 78//78 44//44 
f 42//42 80//80 78//78 
f 28//28 46//46 45//45 
f 46//46 84//84 45//45 
f 15//15 185//185 47//47 
f 49//49 16//16 47//47 
f 87//87 48//48 58//58 
f 47//47 185//185 87//87 
f 49//49 52//52 186//186 
f 138//138 52//52 49//49 
f 138//138 49//49 47//47 
f 186//186 52//52 53//53 
f 51//51 50//50 53//53 
f 51//51 54//54 62//62 
f 53//53 54//54 51//51 
f 53//53 52//52 90//90 
f 53//53 90//90 91//91 
f 54//54 53//53 91//91 
f 56//56 55//55 155//155 
f 59//59 157//157 92//92 
f 57//57 92//92 157//157 
f 159//159 55//55 56//56 
f 57//57 96//96 92//92 
f 58//58 155//155 55//55 
f 160//160 92//92 86//86 
f 160//160 86//86 58//58 
f 58//58 158//158 160//160 
f 62//62 54//54 99//99 
f 155//155 60//60 159//159 
f 56//56 155//155 159//159 
f 155//155 69//69 60//60 
f 95//95 159//159 60//60 
f 60//60 75//75 95//95 
f 75//75 60//60 69//69 
f 51//51 62//62 61//61 
f 67//67 61//61 63//63 
f 62//62 63//63 61//61 
f 99//99 63//63 62//62 
f 69//69 155//155 27//27 
f 69//69 27//27 70//70 
f 66//66 64//64 65//65 
f 64//64 81//81 65//65 
f 129//129 161//161 163//163 
f 65//65 85//85 109//109 
f 67//67 63//63 119//119 
f 166//166 169//169 170//170 
f 72//72 167//167 171//171 
f 77//77 171//171 184//184 
f 171//171 77//77 73//73 
f 171//171 73//73 72//72 
f 73//73 77//77 123//123 
f 76//76 167//167 72//72 
f 74//74 76//76 72//72 
f 73//73 74//74 72//72 
f 167//167 76//76 187//187 
f 187//187 76//76 120//120 
f 76//76 74//74 121//121 
f 74//74 73//73 123//123 
f 77//77 38//38 78//78 
f 126//126 77//77 78//78 
f 123//123 77//77 126//126 
f 42//42 45//45 84//84 
f 42//42 84//84 80//80 
f 82//82 174//174 128//128 
f 79//79 174//174 82//82 
f 82//82 173//173 172//172 
f 83//83 78//78 173//173 
f 81//81 85//85 65//65 
f 162//162 128//128 174//174 
f 79//79 85//85 174//174 
f 128//128 83//83 82//82 
f 82//82 83//83 173//173 
f 111//111 173//173 68//68 
f 84//84 68//68 80//80 
f 173//173 111//111 172//172 
f 85//85 79//79 109//109 
f 109//109 79//79 111//111 
f 87//87 86//86 88//88 
f 88//88 86//86 89//89 
f 89//89 86//86 93//93 
f 58//58 86//86 87//87 
f 87//87 88//88 47//47 
f 47//47 88//88 133//133 
f 88//88 134//134 133//133 
f 88//88 89//89 134//134 
f 133//133 138//138 47//47 
f 90//90 52//52 144//144 
f 90//90 144//144 143//143 
f 91//91 90//90 143//143 
f 144//144 52//52 138//138 
f 93//93 86//86 92//92 
f 92//92 96//96 93//93 
f 108//108 97//97 93//93 
f 91//91 99//99 54//54 
f 143//143 94//94 91//91 
f 99//99 91//91 94//94 
f 57//57 188//188 96//96 
f 188//188 187//187 103//103 
f 188//188 103//103 96//96 
f 96//96 103//103 93//93 
f 118//118 116//116 153//153 
f 116//116 68//68 153//153 
f 151//151 101//101 154//154 
f 98//98 101//101 151//151 
f 100//100 119//119 63//63 
f 100//100 63//63 99//99 
f 99//99 94//94 102//102 
f 102//102 100//100 99//99 
f 101//101 119//119 100//100 
f 154//154 101//101 100//100 
f 154//154 100//100 102//102 
f 104//104 93//93 103//103 
f 93//93 104//104 108//108 
f 108//108 125//125 127//127 
f 191//191 164//164 105//105 
f 191//191 105//105 106//106 
f 129//129 190//190 161//161 
f 175//175 165//165 114//114 
f 176//176 175//175 114//114 
f 132//132 191//191 106//106 
f 106//106 114//114 107//107 
f 127//127 132//132 107//107 
f 107//107 132//132 106//106 
f 114//114 117//117 107//107 
f 107//107 108//108 127//127 
f 118//118 97//97 108//108 
f 189//189 108//108 107//107 
f 189//189 118//118 108//108 
f 66//66 65//65 110//110 
f 65//65 109//109 110//110 
f 111//111 68//68 113//113 
f 109//109 112//112 110//110 
f 68//68 116//116 113//113 
f 112//112 109//109 111//111 
f 113//113 112//112 111//111 
f 114//114 165//165 115//115 
f 165//165 177//177 115//115 
f 179//179 180//180 178//178 
f 114//114 115//115 116//116 
f 112//112 116//116 115//115 
f 116//116 112//112 113//113 
f 116//116 117//117 114//114 
f 116//116 118//118 189//189 
f 119//119 84//84 67//67 
f 68//68 84//84 119//119 
f 98//98 153//153 68//68 
f 101//101 98//98 68//68 
f 101//101 68//68 119//119 
f 187//187 120//120 103//103 
f 120//120 76//76 121//121 
f 121//121 74//74 122//122 
f 122//122 74//74 123//123 
f 122//122 123//123 125//125 
f 103//103 120//120 104//104 
f 120//120 124//124 104//104 
f 124//124 120//120 121//121 
f 124//124 121//121 122//122 
f 122//122 125//125 124//124 
f 126//126 125//125 123//123 
f 104//104 124//124 125//125 
f 104//104 125//125 108//108 
f 78//78 127//127 126//126 
f 125//125 126//126 127//127 
f 78//78 83//83 127//127 
f 129//129 130//130 190//190 
f 130//130 131//131 128//128 
f 192//192 130//130 129//129 
f 127//127 131//131 132//132 
f 83//83 131//131 127//127 
f 192//192 131//131 130//130 
f 128//128 131//131 83//83 
f 134//134 137//137 133//133 
f 137//137 138//138 133//133 
f 134//134 89//89 136//136 
f 89//89 93//93 136//136 
f 137//137 134//134 135//135 
f 134//134 136//136 181//181 
f 181//181 136//136 139//139 
f 181//181 139//139 140//140 
f 181//181 140//140 193//193 
f 93//93 139//139 136//136 
f 139//139 97//97 140//140 
f 139//139 93//93 97//97 
f 97//97 141//141 140//140 
f 137//137 142//142 138//138 
f 194//194 193//193 140//140 
f 140//140 141//141 194//194 
f 194//194 141//141 149//149 
f 143//143 145//145 94//94 
f 94//94 145//145 102//102 
f 144//144 147//147 146//146 
f 144//144 146//146 143//143 
f 143//143 146//146 145//145 
f 147//147 144//144 138//138 
f 147//147 138//138 142//142 
f 145//145 146//146 148//148 
f 150//150 145//145 148//148 
f 149//149 141//141 153//153 
f 152//152 197//197 153//153 
f 147//147 195//195 150//150 
f 147//147 150//150 148//148 
f 146//146 147//147 148//148 
f 195//195 196//196 150//150 
f 197//197 149//149 153//153 
f 118//118 153//153 141//141 
f 141//141 97//97 118//118 
f 102//102 145//145 154//154 
f 98//98 151//151 153//153 
f 152//152 151//151 154//154 
f 145//145 152//152 154//154 
f 150//150 152//152 145//145 
f 151//151 152//152 153//153 
