#
# Compatibility version : 3.0
# File ID : FJ278
# Representation ID : BP4089
# Build-up logic : FMA 3.0 part_of
# Concept ID : FMA230986
# English name : Middle phalanx of right little toe
# Bounds(mm): (-145.376000,-182.667000,-3.699600)-(-137.054000,-175.126000,2.673700)
# Volume(cm3): 0.181700
#
v -145.351 -180.569 -1.33225
v -144.948 -181.123 -0.726047
v -144.909 -180.814 -0.174319
v -145.376 -179.193 -1.27421
v -144.339 -177.16 0.517889
v -144.802 -177.024 -0.282675
v -143.691 -176.725 0.302541
v -142.947 -178.344 2.12856
v -145.012 -180.449 -2.6213
v -144.653 -180.85 -2.07482
v -144.61 -180.309 -3.15587
v -144.884 -177.723 -2.2719
v -145.066 -179.321 -3.04503
v -144.031 -179.365 -3.69957
v -142.651 -181.133 1.46061
v -143.395 -176.123 -2.32026
v -143.66 -176.265 -3.14358
v -142.895 -176.01 -2.74619
v -142.475 -176.143 -3.09594
v -141.84 -179.345 2.54446
v -140.182 -180.212 1.94385
v -141.725 -176.755 1.81751
v -141.076 -176.973 2.2707
v -141.038 -177.391 2.53433
v -140.962 -176.728 1.86245
v -140.026 -176.708 1.97116
v -140.236 -177.444 2.65292
v -140.158 -176.926 2.49858
v -139.767 -177.226 2.53018
v -139.915 -177.696 2.58579
v -142.125 -177.993 -3.39681
v -140.314 -182.667 -0.019627
v -139.385 -181.691 0.455316
v -141.575 -175.617 -2.92383
v -141.055 -175.683 -3.35665
v -140.463 -175.177 -2.68821
v -140.758 -175.347 -1.62185
v -139.813 -175.289 -1.79079
v -139.766 -175.434 -2.90523
v -139.381 -175.297 -2.29289
v -138.066 -176.865 0.628257
v -138.879 -177.856 2.05063
v -138.731 -176.93 1.48992
v -138.478 -178.441 1.53107
v -137.884 -177.209 0.924361
v -139.566 -182.548 -2.69977
v -139.595 -181.499 -3.61265
v -138.837 -182.079 -2.83551
v -139.245 -180.893 -3.28956
v -139.099 -182.556 -1.02555
v -138.843 -178.39 -2.66132
v -138.119 -177.612 -2.93256
v -139.269 -179.259 -2.62609
v -138.362 -179.377 -2.26918
v -137.86 -179.528 -1.47841
v -137.516 -178.591 -1.50937
v -137.87 -178.618 -2.12431
v -138.184 -180.817 -0.261858
v -138.222 -175.853 -1.75434
v -138.356 -175.946 -2.58182
v -137.959 -175.973 -2.03899
v -138.14 -176.763 -3.1681
v -137.567 -176.823 -2.75248
v -137.354 -178.387 -0.418032
v -137.692 -176.239 -1.40664
v -137.054 -177.588 -1.16753
v -137.483 -176.455 -1.70635
v -137.311 -177.9 -1.98486
v -137.5 -177.633 -2.49582
v -137.257 -177.125 -2.27832
v -145.351 -180.569 -1.33225
v -144.948 -181.123 -0.726047
v -144.948 -181.123 -0.726047
v -144.909 -180.814 -0.174319
v -144.339 -177.16 0.517889
v -144.802 -177.024 -0.282675
v -145.012 -180.449 -2.6213
v -144.61 -180.309 -3.15587
v -142.651 -181.133 1.46061
v -142.651 -181.133 1.46061
v -142.475 -176.143 -3.09594
v -140.314 -182.667 -0.019627
v -140.314 -182.667 -0.019627
v -139.566 -182.548 -2.69977
v -139.595 -181.499 -3.61265
v -139.595 -181.499 -3.61265
v -138.837 -182.079 -2.83551
v -138.837 -182.079 -2.83551
v -138.837 -182.079 -2.83551
v -139.245 -180.893 -3.28956
v -139.099 -182.556 -1.02555
v -138.362 -179.377 -2.26918
v -137.567 -176.823 -2.75248
v -137.354 -178.387 -0.418032
v -145.351 -180.569 -1.33225
v -145.376 -179.193 -1.27421
v -144.031 -179.365 -3.69957
v -143.66 -176.265 -3.14358
v -137.054 -177.588 -1.16753
v -137.257 -177.125 -2.27832
vn -0.928846 -0.199067 0.312437
vn -0.894306 -0.360466 0.265104
vn -0.852329 -0.097894 0.513762
vn -0.91884 0.00304024 0.394618
vn -0.813776 0.0168909 0.580933
vn -0.659205 0.748126 0.0758711
vn -0.339581 0.887471 0.311578
vn -0.531286 0.099955 0.841275
vn -0.865063 -0.212133 -0.454606
vn -0.383005 -0.861015 -0.334606
vn -0.438005 -0.387299 -0.811265
vn -0.901937 0.358739 -0.240451
vn -0.846847 0.0268915 -0.531157
vn -0.429271 -0.121956 -0.894904
vn -0.394876 -0.821653 0.411046
vn -0.342109 0.939206 0.0292082
vn -0.565951 0.730325 -0.382523
vn -0.246428 0.914789 -0.320054
vn -0.0972918 0.141798 -0.985103
vn -0.105939 -0.177583 0.978387
vn 0.310924 -0.446518 0.839016
vn -0.2941 0.741421 0.603159
vn -0.221365 0.702072 0.676825
vn -0.264889 0.325611 0.907641
vn -0.0801769 0.905815 0.416019
vn 0.113567 0.922099 0.369913
vn 0.0402828 0.10901 0.993224
vn 0.046789 0.684795 0.727232
vn 0.397448 0.263383 0.879013
vn 0.284887 -0.135183 0.948981
vn 0.0775145 -0.0633892 -0.994974
vn -0.343811 -0.868452 0.357191
vn 0.550793 -0.549801 0.62797
vn -0.320414 0.901366 -0.291332
vn -0.0848964 0.549375 -0.831252
vn -0.0475016 0.97641 -0.210634
vn -0.121356 0.96243 0.242903
vn 0.177335 0.946015 0.271309
vn 0.270599 0.733717 -0.623246
vn 0.33148 0.934898 -0.126832
vn 0.463831 0.805065 0.369771
vn 0.589528 -0.00146779 0.807747
vn 0.415896 0.736843 0.533004
vn 0.722262 -0.272625 0.635621
vn 0.819192 0.318221 0.477137
vn 0.0707722 -0.990745 -0.115828
vn -0.0446843 -0.579206 -0.813955
vn 0.268158 -0.628191 -0.730389
vn 0.259265 0.366344 -0.89363
vn 0.717536 -0.607626 0.340489
vn 0.273335 -0.351404 -0.895435
vn 0.377678 -0.366643 -0.850255
vn 0.30802 0.0336819 -0.950784
vn 0.379086 0.151955 -0.9128
vn 0.893969 -0.263847 -0.36222
vn 0.887045 -0.396873 -0.235887
vn 0.609269 -0.392153 -0.689208
vn 0.877294 -0.411499 0.247029
vn 0.399428 0.889308 0.222684
vn 0.484356 0.713987 -0.50559
vn 0.608217 0.780388 -0.145141
vn 0.34529 0.212051 -0.914226
vn 0.704385 0.587719 -0.398031
vn 0.881888 -0.144641 0.448723
vn 0.656745 0.722364 0.21651
vn 0.939962 0.271582 0.206673
vn 0.855195 0.518295 -0.00348193
vn 0.863973 -0.353884 -0.358213
vn 0.709681 -0.30619 -0.634509
vn 0.897985 0.41878 -0.135078
vn -0.579908 -0.774647 -0.252246
vn -0.394876 -0.821653 0.411046
vn -0.444775 -0.853883 -0.270295
vn -0.442901 -0.768529 0.461738
vn -0.42248 0.717288 0.554083
vn -0.880976 0.0383539 0.471604
vn -0.427822 -0.839642 -0.334618
vn -0.281529 -0.893594 -0.349614
vn -0.561145 -0.248635 0.789491
vn 0.0562485 -0.578032 0.814073
vn -0.24361 0.806005 -0.539454
vn -0.192419 -0.955577 -0.223265
vn 0.282374 -0.663636 0.692713
vn 0.0250639 -0.655863 -0.754464
vn 0.196054 0.370567 -0.907878
vn 0.704578 -0.0292137 -0.709025
vn 0.515505 -0.84404 -0.147822
vn 0.918321 -0.393822 -0.0398896
vn 0.745214 0.000905525 -0.666825
vn 0.776076 -0.0375438 -0.629521
vn 0.302226 -0.949088 -0.0888333
vn 0.795393 -0.249161 -0.552512
vn 0.644835 -0.181978 -0.742342
vn 0.930502 -0.358119 -0.0769278
vn -0.972654 -0.0780067 -0.218769
vn -0.977664 0.157422 -0.13925
vn 0.164915 0.21007 -0.963677
vn 0.0273614 0.168703 -0.985287
vn 0.937823 -0.312776 -0.150529
vn 0.885408 -0.171889 -0.431864
g grp1
usemtl mtl1
f 1//1 2//2 3//3 
f 74//74 72//72 15//15 
f 4//4 1//1 3//3 
f 72//72 32//32 15//15 
f 12//12 96//96 6//6 
f 96//96 13//13 95//95 
f 13//13 96//96 12//12 
f 3//3 79//79 8//8 
f 79//79 20//20 8//8 
f 3//3 5//5 76//76 
f 3//3 8//8 5//5 
f 7//7 6//6 75//75 
f 3//3 76//76 4//4 
f 8//8 20//20 24//24 
f 7//7 75//75 22//22 
f 8//8 22//22 75//75 
f 24//24 22//22 8//8 
f 13//13 11//11 9//9 
f 14//14 11//11 13//13 
f 13//13 17//17 14//14 
f 77//77 10//10 71//71 
f 71//71 10//10 73//73 
f 73//73 10//10 82//82 
f 9//9 95//95 13//13 
f 77//77 78//78 10//10 
f 82//82 10//10 78//78 
f 82//82 78//78 46//46 
f 17//17 13//13 12//12 
f 80//80 83//83 21//21 
f 6//6 7//7 16//16 
f 12//12 6//6 17//17 
f 6//6 16//16 17//17 
f 31//31 98//98 19//19 
f 81//81 17//17 18//18 
f 17//17 16//16 18//18 
f 34//34 81//81 18//18 
f 34//34 18//18 16//16 
f 80//80 21//21 20//20 
f 30//30 20//20 21//21 
f 16//16 7//7 37//37 
f 34//34 16//16 37//37 
f 37//37 7//7 22//22 
f 37//37 22//22 25//25 
f 22//22 23//23 25//25 
f 23//23 22//22 24//24 
f 26//26 37//37 25//25 
f 25//25 23//23 28//28 
f 26//26 25//25 28//28 
f 28//28 23//23 24//24 
f 37//37 26//26 43//43 
f 26//26 28//28 43//43 
f 27//27 20//20 30//30 
f 24//24 20//20 27//27 
f 24//24 27//27 28//28 
f 27//27 29//29 28//28 
f 29//29 27//27 30//30 
f 29//29 30//30 42//42 
f 43//43 28//28 29//29 
f 21//21 42//42 30//30 
f 43//43 29//29 42//42 
f 14//14 47//47 11//11 
f 98//98 31//31 97//97 
f 97//97 31//31 53//53 
f 11//11 47//47 84//84 
f 21//21 83//83 33//33 
f 50//50 33//33 83//83 
f 50//50 58//58 33//33 
f 35//35 81//81 34//34 
f 35//35 31//31 19//19 
f 33//33 44//44 21//21 
f 44//44 33//33 58//58 
f 34//34 36//36 35//35 
f 36//36 39//39 35//35 
f 40//40 39//39 36//36 
f 36//36 34//34 37//37 
f 38//38 36//36 37//37 
f 37//37 43//43 38//38 
f 40//40 36//36 38//38 
f 38//38 43//43 41//41 
f 40//40 38//38 59//59 
f 38//38 41//41 59//59 
f 41//41 43//43 45//45 
f 44//44 42//42 21//21 
f 43//43 42//42 45//45 
f 44//44 45//45 42//42 
f 64//64 45//45 44//44 
f 48//48 84//84 47//47 
f 49//49 97//97 53//53 
f 97//97 49//49 85//85 
f 46//46 91//91 82//82 
f 49//49 53//53 54//54 
f 46//46 87//87 91//91 
f 88//88 58//58 50//50 
f 55//55 58//58 88//88 
f 90//90 92//92 55//55 
f 94//94 58//58 55//55 
f 86//86 90//90 89//89 
f 89//89 90//90 55//55 
f 53//53 31//31 51//51 
f 51//51 31//31 52//52 
f 57//57 53//53 51//51 
f 57//57 54//54 53//53 
f 92//92 57//57 55//55 
f 68//68 56//56 57//57 
f 56//56 55//55 57//57 
f 55//55 56//56 94//94 
f 57//57 51//51 52//52 
f 52//52 69//69 57//57 
f 57//57 69//69 68//68 
f 64//64 44//44 58//58 
f 39//39 40//40 60//60 
f 60//60 40//40 61//61 
f 40//40 59//59 61//61 
f 61//61 59//59 65//65 
f 59//59 41//41 65//65 
f 62//62 39//39 60//60 
f 62//62 60//60 63//63 
f 63//63 60//60 61//61 
f 63//63 61//61 67//67 
f 61//61 65//65 67//67 
f 62//62 31//31 35//35 
f 35//35 39//39 62//62 
f 31//31 62//62 52//52 
f 62//62 93//93 52//52 
f 63//63 67//67 70//70 
f 93//93 69//69 52//52 
f 69//69 93//93 100//100 
f 65//65 41//41 45//45 
f 66//66 45//45 64//64 
f 45//45 67//67 65//65 
f 66//66 67//67 45//45 
f 56//56 68//68 99//99 
f 94//94 56//56 99//99 
f 68//68 100//100 99//99 
f 67//67 66//66 70//70 
f 68//68 69//69 100//100 
