#
# Compatibility version : 3.0
# File ID : FJ37
# Representation ID : BP4337
# Build-up logic : FMA 3.0 part_of
# Concept ID : FMA23944
# English name : Middle phalanx of left little finger
# Bounds(mm): (218.221000,-167.816000,697.728000)-(229.644000,-151.212000,717.407000)
# Volume(cm3): 0.567900
#
v 220.063 -154.919 715.336
v 220.577 -153.89 715.072
v 219.976 -156.015 713.499
v 219.988 -155.693 713.449
v 220.23 -154.652 714.253
v 219.876 -156.847 711.237
v 220.133 -159.231 705.384
v 218.474 -165.502 699.94
v 218.93 -164.435 699.609
v 220.52 -155.615 716.159
v 220.364 -156.378 715.373
v 220.783 -156.801 715.904
v 220.766 -156.934 715.53
v 221.352 -157.356 715.58
v 220.596 -154.706 715.721
v 220.791 -154.261 715.484
v 221.031 -153.719 715.175
v 221.15 -153.537 714.805
v 221.447 -153.902 715.111
v 221.574 -154.302 715.395
v 223.599 -152.162 714.293
v 220.918 -157.268 713.581
v 221 -153.281 714.31
v 222.59 -152.035 714.03
v 223.307 -152.164 712.101
v 219.887 -157.791 710.923
v 219.704 -160.831 705.58
v 219.66 -162.376 704.869
v 219.81 -161.814 705.33
v 220.304 -161.973 705.685
v 219.653 -162.638 704.331
v 219.992 -162.797 704.569
v 219.724 -161.464 703.489
v 219.52 -162.596 703.926
v 220.296 -160.507 703.018
v 223.046 -158.452 703.929
v 218.221 -166.614 701.406
v 218.47 -166.895 701.799
v 218.406 -167.27 701.29
v 218.705 -167.352 701.303
v 219.14 -166.961 701.821
v 219.153 -163.564 701.838
v 218.506 -165.277 701.962
v 219.083 -164.035 702.558
v 219.202 -164.523 702.698
v 218.925 -165.393 702.431
v 220.065 -165.719 702.455
v 219.804 -163.239 700.535
v 218.478 -167.227 699.449
v 218.545 -167.022 699.089
v 218.786 -167.185 698.832
v 218.694 -167.659 700.494
v 218.948 -167.512 699.079
v 219.41 -167.706 700.555
v 219.873 -164.801 698.644
v 219.485 -165.641 698.418
v 220.638 -163.518 699.708
v 220.181 -166.919 698.548
v 220.306 -166.177 698.238
v 221.817 -156.972 716.894
v 222.508 -155.996 717.195
v 222.43 -157.614 716.29
v 222.931 -157.216 717.313
v 224.779 -155.225 715.478
v 225.287 -151.212 713.821
v 226.213 -151.734 711.931
v 221.933 -162.998 705.136
v 221.788 -166.937 701.337
v 220.62 -167.273 698.939
v 221.202 -167.547 699.595
v 221.87 -167.527 700.306
v 222.764 -162.926 699.75
v 222.778 -164.1 698.495
v 222.075 -167 698.487
v 223.481 -164.954 697.914
v 224.145 -157.312 717.407
v 224.428 -157.821 716.694
v 224.76 -156.616 717.306
v 224.824 -156.299 717.109
v 226.023 -157.52 716.988
v 226.93 -152.008 713.286
v 227.736 -151.867 712.669
v 227.571 -152.805 711.217
v 228.671 -153.274 711.799
v 224.991 -159.406 710.678
v 227.849 -155.424 709.977
v 226.065 -160.376 706.106
v 226.072 -160.449 704.474
v 223.957 -166.97 701.417
v 224.471 -166.071 701.819
v 225.697 -164.011 701.603
v 224.51 -167.782 699.574
v 225.05 -167.774 699.872
v 224.908 -162.973 700.348
v 224.673 -164.114 698.536
v 225.543 -164.579 699.603
v 224.873 -167.178 698.19
v 225.561 -167.661 698.641
v 224.452 -164.84 697.91
v 224.165 -165.465 697.763
v 225.087 -164.96 698.225
v 224.833 -165.634 697.818
v 224.494 -166.208 697.806
v 225.152 -165.816 698.045
v 224.922 -166.314 697.832
v 227.931 -157.844 716.168
v 226.902 -156.673 716.478
v 227.776 -157.425 716.36
v 228.165 -157.117 715.981
v 228.187 -157.604 716.08
v 228.115 -158.257 714.759
v 228.372 -158.345 713.882
v 228.316 -157.753 715.796
v 229.023 -157.248 715.131
v 229.467 -157.402 713.971
v 228.71 -154.931 713.547
v 229.495 -154.767 712.879
v 228.926 -152.954 712.714
v 228.953 -152.964 712.413
v 229.644 -156.852 712.604
v 229.62 -155.543 712.24
v 229.283 -153.897 712.352
v 228.112 -157.5 710.278
v 225.191 -167.467 700.697
v 225.842 -167.169 700.958
v 225.716 -167.461 700.424
v 226.226 -166.923 699.99
v 226.03 -167.004 699.379
v 225.531 -167.678 698.949
v 220.063 -154.919 715.336
v 220.577 -153.89 715.072
v 220.791 -154.261 715.484
v 221.031 -153.719 715.175
v 221.15 -153.537 714.805
v 221.447 -153.902 715.111
v 221.447 -153.902 715.111
v 221.447 -153.902 715.111
v 223.599 -152.162 714.293
v 221 -153.281 714.31
v 221 -153.281 714.31
v 222.59 -152.035 714.03
v 219.886 -157.541 711.259
v 219.886 -157.541 711.259
v 219.66 -162.376 704.869
v 219.81 -161.814 705.33
v 219.653 -162.638 704.331
v 218.47 -166.895 701.799
v 218.406 -167.27 701.29
v 218.506 -165.277 701.962
v 219.202 -164.523 702.698
v 219.202 -164.523 702.698
v 218.925 -165.393 702.431
v 219.804 -163.239 700.535
v 218.545 -167.022 699.089
v 218.786 -167.185 698.832
v 222.931 -157.216 717.313
v 225.287 -151.212 713.821
v 225.287 -151.212 713.821
v 225.287 -151.212 713.821
v 221.933 -162.998 705.136
v 221.933 -162.998 705.136
v 224.145 -157.312 717.407
v 226.023 -157.52 716.988
v 227.736 -151.867 712.669
v 224.991 -159.406 710.678
v 226.065 -160.376 706.106
v 225.98 -160.488 704.301
v 225.98 -160.488 704.301
v 225.697 -164.011 701.603
v 225.697 -164.011 701.603
v 225.697 -164.011 701.603
v 225.05 -167.774 699.872
v 224.903 -162.975 700.339
v 225.561 -167.661 698.641
v 225.561 -167.661 698.641
v 229.467 -157.402 713.971
v 228.926 -152.954 712.714
v 229.644 -156.852 712.604
v 229.644 -156.852 712.604
v 229.62 -155.543 712.24
v 229.283 -153.897 712.352
v 228.112 -157.5 710.278
v 225.842 -167.169 700.958
v 225.842 -167.169 700.958
v 225.716 -167.461 700.424
v 226.226 -166.923 699.99
v 226.226 -166.923 699.99
v 225.531 -167.678 698.949
v 218.93 -164.435 699.609
v 218.694 -167.659 700.494
v 218.948 -167.512 699.079
v 221.817 -156.972 716.894
v 227.736 -151.867 712.669
v 224.922 -166.314 697.832
v 228.372 -158.345 713.882
v 229.023 -157.248 715.131
v 228.953 -152.964 712.413
v 218.786 -167.185 698.832
vn -0.992521 0.0813073 0.0910512
vn -0.456091 0.629776 0.628779
vn -0.966493 -0.22405 0.125269
vn -0.98489 0.169617 -0.0349544
vn -0.907909 0.403591 -0.113206
vn -0.972042 0.217676 -0.0880432
vn -0.851754 0.456867 -0.25649
vn -0.95063 0.217487 -0.221363
vn -0.835897 0.534435 -0.12512
vn -0.710184 0.0175385 0.703797
vn -0.88746 -0.405779 0.218537
vn -0.719153 -0.549502 0.425284
vn -0.71268 -0.681671 0.165563
vn -0.487791 -0.840554 0.235644
vn -0.329406 0.534455 0.778363
vn -0.52324 0.537709 0.661127
vn -0.090517 0.819355 0.566095
vn 0.228417 0.842504 0.487865
vn 0.206237 0.595012 0.776805
vn 0.110259 0.630367 0.768427
vn -0.134165 0.586066 0.799078
vn -0.64065 -0.752784 0.151274
vn -0.782006 0.572215 -0.247056
vn -0.226591 0.625491 0.746604
vn -0.429939 0.807735 -0.403381
vn -0.995351 -0.0641447 0.0718475
vn -0.995846 0.0318438 0.0852998
vn -0.453131 -0.662899 0.596018
vn -0.924767 -0.184073 0.33305
vn -0.44675 -0.661907 0.601908
vn -0.587679 -0.57159 0.572641
vn -0.462051 -0.629829 0.624359
vn -0.951035 0.287413 -0.113692
vn -0.984498 -0.00723256 0.175245
vn -0.650634 0.602417 -0.462352
vn 0.0569952 0.723275 -0.688204
vn -0.987198 -0.075759 0.140361
vn -0.846561 -0.133801 0.515201
vn -0.921639 -0.378444 0.0857992
vn -0.112899 -0.856337 0.503925
vn 0.0179671 -0.648941 0.760626
vn -0.917914 0.391053 -0.0671643
vn -0.950275 0.309115 0.0377509
vn -0.902535 0.112834 0.41557
vn -0.878961 -0.0424685 0.474999
vn -0.74001 -0.00199197 0.672592
vn -0.162266 -0.534318 0.829562
vn -0.371007 0.695418 -0.615425
vn -0.893873 -0.395642 -0.210852
vn -0.855504 0.149857 -0.495637
vn -0.728219 -0.55554 -0.401338
vn -0.140753 -0.969344 0.201396
vn -0.652067 -0.701262 -0.288168
vn 0.0429054 -0.969262 0.242262
vn -0.30622 0.577843 -0.756523
vn -0.527263 0.202942 -0.825111
vn -0.273468 0.694231 -0.665776
vn -0.0442975 -0.5818 -0.812125
vn -0.136272 -0.21567 -0.966911
vn -0.513534 -0.0965094 0.852624
vn -0.10658 0.425573 0.898626
vn -0.296589 -0.890121 0.346005
vn -0.217557 0.0187622 0.975867
vn 0.212271 0.760243 0.61398
vn -0.0967712 0.967058 -0.235444
vn 0.0829417 0.869828 -0.486332
vn -0.215354 -0.717443 0.662493
vn 0.0619834 -0.779332 0.623538
vn 0.0307333 -0.830244 -0.556553
vn -0.00906283 -0.969245 -0.245932
vn -0.00700146 -0.953602 0.300989
vn 0.00885291 0.734757 -0.678273
vn -0.0961087 0.637594 -0.764354
vn -0.0747572 -0.721716 -0.688141
vn -0.120327 0.300574 -0.946138
vn 0.0451088 0.0591351 0.99723
vn -0.0384358 -0.909214 0.41455
vn 0.205882 0.256844 0.944269
vn 0.222633 0.668802 0.709322
vn 0.0563475 -0.834601 0.547966
vn 0.367595 0.278329 0.88736
vn 0.349988 0.836613 -0.421411
vn 0.498989 0.596926 -0.628243
vn 0.702338 0.353455 -0.617892
vn -0.18279 -0.950254 0.252202
vn 0.78146 0.212101 -0.586799
vn 0.559646 -0.772351 0.300452
vn 0.706993 0.417779 -0.570632
vn 0.0376663 -0.704862 0.708344
vn 0.280321 -0.438682 0.853802
vn 0.338299 -0.745556 0.574196
vn -0.0369061 -0.999241 -0.012486
vn 0.0530298 -0.98863 0.140706
vn 0.310085 0.72535 -0.614585
vn 0.394264 0.666137 -0.633101
vn 0.879467 0.361658 -0.309422
vn -0.014067 -0.502962 -0.864194
vn -0.032444 -0.950786 -0.308147
vn 0.169826 0.419245 -0.891848
vn -0.0156242 0.0796396 -0.996701
vn 0.719048 0.333606 -0.609654
vn 0.343604 0.126097 -0.930611
vn -0.0216375 -0.18731 -0.982063
vn 0.755698 0.0780366 -0.650254
vn 0.111376 -0.265007 -0.957793
vn 0.385225 -0.673851 0.630497
vn 0.367607 0.509634 0.777906
vn 0.460744 0.0665309 0.885036
vn 0.569024 0.412235 0.71153
vn 0.679561 -0.149721 0.718178
vn 0.397724 -0.877476 0.268052
vn 0.628746 -0.771175 -0.0998356
vn 0.671678 -0.61346 0.415349
vn 0.789978 0.24949 0.56008
vn 0.653292 -0.7457 0.130923
vn 0.386789 0.529689 0.754867
vn 0.886559 0.279021 0.368998
vn 0.488694 0.372388 0.78899
vn 0.635659 0.549392 -0.542315
vn 0.575602 -0.788667 -0.216072
vn 0.800923 0.0728271 -0.594322
vn 0.778497 0.256759 -0.572729
vn 0.863418 -0.0179299 -0.50417
vn 0.0847595 -0.883883 0.459963
vn 0.931768 -0.0311018 0.361719
vn 0.203419 -0.905865 0.371522
vn 0.942754 0.235682 -0.235942
vn 0.918259 0.0470347 -0.393178
vn 0.114358 -0.992481 -0.0436383
vn -0.606737 0.467876 0.642621
vn -0.882823 0.46591 -0.0595956
vn 0.182621 0.468961 0.864133
vn 0.297962 0.369721 0.880071
vn -0.318567 0.657639 0.682661
vn 0.411381 0.758515 0.505392
vn -0.145046 0.56078 0.815161
vn 0.26038 0.163176 0.951618
vn 0.288003 0.0278327 0.957225
vn -0.187609 0.873582 0.449063
vn -0.471387 0.716933 0.513616
vn -0.470347 0.851492 -0.231807
vn -0.746609 -0.535469 0.394776
vn -0.34937 -0.79651 0.49347
vn -0.914215 -0.249563 0.319264
vn -0.599416 -0.537862 0.592794
vn -0.926441 -0.254433 0.277436
vn -0.137327 -0.650575 0.746922
vn -0.251982 -0.842994 0.475254
vn -0.785819 -0.0199806 0.618133
vn -0.491983 -0.499824 0.712832
vn -0.0955409 -0.263934 0.959797
vn -0.09651 -0.336669 0.936664
vn -0.788744 0.559661 -0.254287
vn -0.770762 -0.481254 -0.417517
vn -0.154258 -0.379182 -0.912374
vn -0.216288 -0.843069 0.492396
vn -0.126181 0.611841 0.780851
vn 0.290822 -0.0421317 0.955849
vn 0.474967 0.488371 0.732052
vn 0.406805 -0.802536 0.436401
vn 0.613111 -0.287772 0.735719
vn -0.0327545 -0.819612 0.571982
vn 0.313753 0.0185588 0.949323
vn 0.465494 0.508622 0.724305
vn 0.533872 -0.8447 0.0382565
vn 0.997949 -0.0463724 -0.0441213
vn 0.816505 -0.577332 -0.00263023
vn 0.971677 0.0894542 -0.218726
vn 0.955153 0.222137 -0.195803
vn 0.525679 -0.226916 0.81986
vn 0.931768 -0.0311018 0.361719
vn 0.587977 -0.808304 -0.0304493
vn 0.858823 0.38961 -0.332607
vn 0.306167 -0.379205 -0.873193
vn 0.869981 -0.304133 -0.38812
vn 0.965151 0.0913692 0.245225
vn 0.877996 0.471675 0.0815254
vn 0.844283 -0.129151 -0.520102
vn 0.988993 0.0524256 0.138367
vn 0.990871 0.129893 0.0360883
vn 0.95842 0.2812 0.0485572
vn 0.637202 -0.767835 0.0663543
vn 0.240769 -0.606146 0.758035
vn 0.775616 -0.612632 0.151991
vn 0.700068 -0.711597 -0.0594536
vn 0.931768 -0.0311018 0.361719
vn 0.734818 -0.677844 -0.0238647
vn 0.641992 -0.757177 0.120538
vn -0.595557 0.467863 -0.653006
vn -0.741593 -0.660105 -0.119586
vn 0.0104536 -0.887439 -0.460806
vn -0.441205 -0.788366 0.428738
vn 0.673254 0.738541 0.0358536
vn 0.674512 0.00460096 -0.738249
vn 0.166714 -0.974994 0.146944
vn 0.712468 -0.597829 0.36741
vn 0.833122 0.550199 0.056464
vn -0.686004 0.117865 -0.717988
g grp1
usemtl mtl1
f 3//3 1//1 4//4 
f 1//1 5//5 4//4 
f 3//3 11//11 1//1 
f 130//130 16//16 2//2 
f 1//1 131//131 5//5 
f 131//131 23//23 5//5 
f 3//3 4//4 6//6 
f 26//26 3//3 6//6 
f 6//6 4//4 5//5 
f 5//5 23//23 6//6 
f 6//6 23//23 7//7 
f 27//27 26//26 6//6 
f 6//6 7//7 27//27 
f 27//27 7//7 33//33 
f 7//7 35//35 33//33 
f 37//37 43//43 8//8 
f 43//43 42//42 8//8 
f 42//42 9//9 8//8 
f 48//48 55//55 189//189 
f 8//8 189//189 56//56 
f 189//189 55//55 56//56 
f 50//50 8//8 56//56 
f 10//10 61//61 15//15 
f 1//1 11//11 10//10 
f 15//15 61//61 20//20 
f 10//10 11//11 12//12 
f 61//61 10//10 60//60 
f 12//12 11//11 13//13 
f 60//60 10//10 12//12 
f 14//14 12//12 13//13 
f 14//14 192//192 12//12 
f 192//192 14//14 62//62 
f 15//15 130//130 10//10 
f 17//17 2//2 16//16 
f 17//17 139//139 2//2 
f 18//18 139//139 17//17 
f 24//24 140//140 134//134 
f 15//15 16//16 130//130 
f 19//19 133//133 132//132 
f 135//135 18//18 17//17 
f 134//134 136//136 24//24 
f 132//132 15//15 20//20 
f 20//20 19//19 132//132 
f 64//64 20//20 61//61 
f 136//136 21//21 24//24 
f 3//3 142//142 22//22 
f 22//22 11//11 3//3 
f 11//11 22//22 13//13 
f 14//14 13//13 22//22 
f 14//14 22//22 85//85 
f 141//141 25//25 23//23 
f 25//25 141//141 65//65 
f 65//65 66//66 25//25 
f 36//36 25//25 66//66 
f 23//23 25//25 7//7 
f 32//32 28//28 31//31 
f 29//29 26//26 27//27 
f 27//27 33//33 34//34 
f 144//144 29//29 27//27 
f 27//27 34//34 144//144 
f 145//145 28//28 30//30 
f 30//30 143//143 145//145 
f 67//67 30//30 28//28 
f 67//67 28//28 32//32 
f 30//30 67//67 143//143 
f 7//7 25//25 35//35 
f 25//25 36//36 35//35 
f 34//34 146//146 144//144 
f 45//45 146//146 34//34 
f 44//44 45//45 34//34 
f 32//32 31//31 47//47 
f 47//47 31//31 150//150 
f 32//32 47//47 67//67 
f 42//42 34//34 33//33 
f 42//42 33//33 35//35 
f 57//57 35//35 36//36 
f 38//38 149//149 37//37 
f 37//37 39//39 38//38 
f 44//44 149//149 46//46 
f 149//149 38//38 46//46 
f 49//49 39//39 37//37 
f 37//37 8//8 49//49 
f 147//147 148//148 40//40 
f 40//40 148//148 52//52 
f 47//47 152//152 41//41 
f 152//152 147//147 41//41 
f 41//41 147//147 40//40 
f 54//54 41//41 40//40 
f 54//54 68//68 41//41 
f 68//68 47//47 41//41 
f 34//34 42//42 44//44 
f 44//44 42//42 43//43 
f 153//153 9//9 42//42 
f 44//44 46//46 45//45 
f 151//151 152//152 47//47 
f 153//153 42//42 35//35 
f 48//48 35//35 57//57 
f 57//57 36//36 72//72 
f 8//8 50//50 49//49 
f 49//49 154//154 51//51 
f 190//190 39//39 49//49 
f 53//53 190//190 49//49 
f 49//49 51//51 53//53 
f 40//40 52//52 54//54 
f 191//191 54//54 52//52 
f 191//191 70//70 54//54 
f 155//155 58//58 191//191 
f 69//69 70//70 191//191 
f 58//58 69//69 191//191 
f 198//198 50//50 56//56 
f 155//155 56//56 59//59 
f 59//59 56//56 75//75 
f 56//56 55//55 75//75 
f 55//55 48//48 57//57 
f 55//55 57//57 73//73 
f 61//61 60//60 63//63 
f 192//192 62//62 156//156 
f 64//64 61//61 79//79 
f 156//156 62//62 77//77 
f 76//76 61//61 63//63 
f 162//162 156//156 77//77 
f 64//64 19//19 20//20 
f 81//81 138//138 137//137 
f 24//24 21//21 157//157 
f 62//62 14//14 85//85 
f 85//85 77//77 62//62 
f 116//116 19//19 64//64 
f 81//81 158//158 138//138 
f 66//66 65//65 82//82 
f 164//164 159//159 81//81 
f 85//85 22//22 143//143 
f 85//85 143//143 67//67 
f 66//66 83//83 36//36 
f 36//36 88//88 94//94 
f 94//94 72//72 36//36 
f 74//74 69//69 58//58 
f 71//71 54//54 70//70 
f 68//68 54//54 71//71 
f 70//70 69//69 74//74 
f 57//57 72//72 73//73 
f 55//55 73//73 75//75 
f 73//73 72//72 95//95 
f 74//74 58//58 59//59 
f 58//58 155//155 59//59 
f 59//59 103//103 97//97 
f 103//103 59//59 100//100 
f 100//100 59//59 75//75 
f 76//76 78//78 61//61 
f 61//61 78//78 79//79 
f 77//77 80//80 162//162 
f 76//76 163//163 78//78 
f 77//77 106//106 80//80 
f 107//107 79//79 78//78 
f 163//163 107//107 78//78 
f 64//64 79//79 107//107 
f 64//64 107//107 116//116 
f 116//116 107//107 109//109 
f 111//111 77//77 85//85 
f 82//82 83//83 66//66 
f 119//119 83//83 82//82 
f 137//137 116//116 81//81 
f 81//81 118//118 164//164 
f 193//193 177//177 197//197 
f 116//116 118//118 81//81 
f 83//83 119//119 84//84 
f 122//122 84//84 119//119 
f 165//165 160//160 87//87 
f 88//88 86//86 123//123 
f 86//86 88//88 83//83 
f 87//87 167//167 182//182 
f 88//88 36//36 83//83 
f 87//87 160//160 91//91 
f 166//166 169//169 168//168 
f 68//68 89//89 47//47 
f 90//90 67//67 47//47 
f 47//47 89//89 90//90 
f 90//90 170//170 161//161 
f 96//96 173//173 169//169 
f 169//169 127//127 96//96 
f 186//186 171//171 125//125 
f 169//169 173//173 168//168 
f 68//68 71//71 89//89 
f 71//71 70//70 92//92 
f 98//98 70//70 74//74 
f 70//70 98//98 92//92 
f 89//89 71//71 124//124 
f 98//98 93//93 92//92 
f 93//93 124//124 71//71 
f 92//92 93//93 71//71 
f 98//98 129//129 93//93 
f 95//95 72//72 94//94 
f 99//99 75//75 73//73 
f 95//95 99//99 73//73 
f 96//96 95//95 173//173 
f 101//101 95//95 96//96 
f 95//95 101//101 99//99 
f 96//96 128//128 101//101 
f 74//74 59//59 97//97 
f 97//97 103//103 105//105 
f 97//97 98//98 74//74 
f 105//105 174//174 97//97 
f 175//175 194//194 104//104 
f 104//104 128//128 175//175 
f 99//99 100//100 75//75 
f 100//100 102//102 103//103 
f 102//102 100//100 99//99 
f 101//101 102//102 99//99 
f 102//102 104//104 194//194 
f 101//101 104//104 102//102 
f 105//105 103//103 102//102 
f 104//104 101//101 128//128 
f 108//108 107//107 163//163 
f 106//106 108//108 163//163 
f 110//110 108//108 106//106 
f 111//111 113//113 106//106 
f 110//110 106//106 113//113 
f 108//108 109//109 107//107 
f 109//109 108//108 110//110 
f 114//114 109//109 110//110 
f 196//196 110//110 113//113 
f 111//111 106//106 77//77 
f 109//109 117//117 116//116 
f 114//114 117//117 109//109 
f 113//113 111//111 196//196 
f 196//196 111//111 115//115 
f 115//115 111//111 112//112 
f 114//114 176//176 117//117 
f 117//117 118//118 116//116 
f 197//197 177//177 181//181 
f 177//177 117//117 181//181 
f 165//165 182//182 120//120 
f 121//121 178//178 123//123 
f 165//165 120//120 112//112 
f 179//179 180//180 117//117 
f 111//111 85//85 195//195 
f 179//179 117//117 176//176 
f 120//120 115//115 112//112 
f 84//84 86//86 83//83 
f 122//122 121//121 84//84 
f 121//121 86//86 84//84 
f 117//117 180//180 181//181 
f 86//86 121//121 123//123 
f 87//87 182//182 165//165 
f 89//89 183//183 90//90 
f 90//90 183//183 170//170 
f 124//124 183//183 89//89 
f 124//124 93//93 126//126 
f 128//128 96//96 127//127 
f 126//126 183//183 124//124 
f 184//184 185//185 187//187 
f 185//185 172//172 187//187 
f 188//188 187//187 172//172 
f 187//187 188//188 175//175 
f 128//128 187//187 175//175 
