#
# Compatibility version : 3.0
# File ID : FJ410
# Representation ID : BP4353
# Build-up logic : FMA 3.0 part_of
# Concept ID : FMA23942
# English name : Middle phalanx of left ring finger
# Bounds(mm): (241.997000,-176.913000,679.965000)-(253.992000,-152.957000,704.063000)
# Volume(cm3): 1.044100
#
v 245.226 -160.195 703.811
v 244.646 -161.037 702.432
v 242.989 -160.349 702.206
v 244.185 -160.268 703.441
v 243.701 -160.924 702.217
v 243.918 -159.383 703.335
v 242.24 -159.534 701.618
v 242.239 -157.81 701.184
v 242.989 -157.811 701.63
v 242.605 -157.318 700.754
v 242.78 -160.702 701.343
v 243.969 -161.114 701.477
v 242.125 -158.959 700.001
v 242.33 -157.405 700.322
v 243.452 -160.673 698.527
v 243.014 -159.796 697.766
v 244.828 -175.987 684.534
v 245.476 -176.206 684.801
v 244.859 -176.443 684.08
v 244.685 -176.164 684.037
v 244.683 -176.304 683.722
v 244.818 -176.623 683.49
v 244.635 -175.813 683.818
v 245.148 -176.706 683.8
v 245.178 -176.846 683.175
v 246.439 -159.678 704.063
v 248.734 -160.422 703.705
v 247.735 -161.251 702.011
v 243.972 -157.207 701.099
v 242.816 -156.549 700.203
v 243.693 -156.089 700.335
v 243.148 -155.273 699.543
v 242.628 -156.256 699.435
v 242.713 -156.828 698.747
v 243.238 -157.397 697.765
v 242.961 -155.563 699.024
v 243.43 -155.696 698.306
v 244.443 -160.899 698.965
v 242.923 -158.666 697.87
v 243.246 -159.635 696.718
v 243.655 -159.214 695.936
v 243.497 -161.303 696.157
v 243.685 -161.842 693.998
v 244.623 -165.772 690.205
v 245.109 -165.858 690.518
v 245.258 -167.198 689.083
v 244.683 -166.51 688.941
v 245.228 -168.551 687.824
v 245.491 -169.492 687.274
v 244.998 -169.194 686.707
v 245.657 -168.45 688.164
v 245.224 -172.133 685.695
v 245.241 -171.215 686.041
v 245.05 -171.657 685.453
v 245.586 -171.469 686.158
v 246.074 -172.842 685.745
v 244.923 -168.587 686.224
v 246.454 -175.309 685.177
v 246.896 -175.827 684.942
v 247.668 -175.092 684.99
v 244.642 -174.608 684.371
v 245.139 -173.768 685.362
v 244.847 -172.153 684.162
v 244.79 -172.787 683.29
v 244.979 -171.902 683.733
v 244.988 -171.038 684.734
v 246.361 -176.812 683.329
v 244.735 -176.016 682.979
v 244.984 -176.463 682.365
v 245.832 -176.713 682.184
v 245.687 -175.978 681.26
v 245.224 -174.906 681.146
v 245.971 -175.025 680.795
v 250.395 -158.584 703.713
v 247.866 -158.366 703.599
v 248.354 -157.834 703.095
v 247.673 -155.381 700.393
v 244.585 -154.413 700.044
v 244.413 -153.981 698.881
v 244.883 -153.591 699.32
v 244.501 -156.514 696.727
v 245.055 -154.335 697.968
v 248.673 -162.248 697.606
v 247.429 -165.436 692.179
v 248.854 -165.542 692.098
v 246.8 -168.394 688.657
v 249.137 -170.124 687.39
v 245.041 -165.992 687.577
v 249.336 -173.518 684.937
v 247.649 -172.031 686.143
v 245.142 -170.288 684.469
v 249.422 -175.818 684.044
v 247.658 -174.3 685.132
v 248.89 -174.669 684.578
v 245.508 -171.867 682.759
v 248.68 -176.315 682.393
v 247.77 -175.722 681.149
v 247.549 -175.304 680.755
v 245.69 -173.669 681.156
v 246.044 -174.168 680.806
v 246.994 -172.849 681.183
v 251.757 -159.268 702.776
v 250.709 -157.981 703.363
v 251.125 -158.176 703.424
v 251.638 -157.659 702.778
v 251.414 -157.434 702.598
v 252.101 -157.449 702.394
v 251.74 -157.033 702.175
v 250.888 -156.626 701.58
v 246.619 -153.394 700.13
v 252.325 -159.707 701.368
v 246.22 -152.957 699.038
v 246.024 -155.313 696.678
v 247.482 -163.62 687.793
v 251.838 -172.7 684.915
v 252.797 -175.94 683.535
v 251.715 -176.354 682.698
v 249.774 -175.537 680.819
v 251.69 -176.008 680.768
v 249.917 -173.055 680.675
v 250.41 -174.804 680.29
v 253.154 -158.91 701.575
v 252.949 -158.058 702.082
v 252.597 -156.894 701.889
v 253.511 -156.904 700.965
v 252.015 -156.19 701.507
v 250.69 -155.238 700.42
v 251.471 -154.838 700.41
v 252.472 -155.403 701.028
v 251.536 -154.465 700.127
v 252.832 -155.086 699.997
v 250.878 -154.544 700.177
v 250.229 -154.029 700.017
v 251.029 -154.245 700.07
v 253.465 -158.901 700.361
v 252.579 -159.452 699.028
v 253.276 -158.57 699.454
v 253.992 -157.862 700.282
v 253.902 -157.991 700.031
v 253.667 -157.86 699.659
v 253.725 -157.469 699.834
v 253.354 -157.357 698.624
v 252.15 -154.889 698.43
v 249.748 -153.1 698.889
v 248.434 -153.307 697.987
v 252.769 -159.505 696.367
v 252.879 -157.738 696.875
v 252.989 -160.598 694.16
v 252.179 -164.763 689.959
v 252.393 -164.344 689.505
v 251.59 -165.248 686.857
v 251.732 -170.724 685.682
v 252.293 -169.242 686.062
v 251.638 -169.166 686.676
v 252.771 -173.565 684.603
v 253.486 -173.271 684.159
v 252.541 -170.679 685.06
v 252.875 -171.766 684.554
v 252.542 -169.823 684.512
v 252.812 -170.975 683.91
v 252.696 -171.111 683.041
v 251.978 -168.615 684.256
v 253.45 -175.424 682.815
v 253.522 -175.549 682.193
v 253.36 -172.604 682.786
v 251.964 -172.18 681.084
v 252.465 -172.617 681.2
v 252.804 -176.26 681.697
v 251.878 -175.692 680.409
v 252.518 -175.891 680.763
v 252.636 -174.657 680.811
v 251.446 -173.927 679.965
v 245.226 -160.195 703.811
v 245.226 -160.195 703.811
v 242.239 -157.81 701.184
v 243.452 -160.673 698.527
v 248.734 -160.422 703.705
v 248.734 -160.422 703.705
v 243.497 -161.303 696.157
v 246.896 -175.827 684.942
v 245.139 -173.768 685.362
v 250.395 -158.584 703.713
v 248.673 -162.248 697.606
v 249.422 -175.818 684.044
v 251.125 -158.176 703.424
v 246.619 -153.394 700.13
v 246.22 -152.957 699.038
v 246.22 -152.957 699.038
v 252.797 -175.94 683.535
v 252.472 -155.403 701.028
v 250.229 -154.029 700.017
v 253.276 -158.57 699.454
v 253.992 -157.862 700.282
v 252.15 -154.889 698.43
v 252.15 -154.889 698.43
v 249.748 -153.1 698.889
v 249.748 -153.1 698.889
v 248.434 -153.307 697.987
v 252.769 -159.505 696.367
v 252.989 -160.598 694.16
v 252.921 -160.67 693.985
v 252.989 -160.598 694.16
v 252.179 -164.763 689.959
v 252.389 -164.347 689.496
v 251.59 -165.248 686.857
v 252.293 -169.242 686.062
v 252.541 -170.679 685.06
v 252.875 -171.766 684.554
v 253.522 -175.549 682.193
v 252.804 -176.26 681.697
v 251.878 -175.692 680.409
v 252.518 -175.891 680.763
v 244.185 -160.268 703.441
v 242.33 -157.405 700.322
v 246.439 -159.678 704.063
v 246.439 -159.678 704.063
v 248.734 -160.422 703.705
v 244.683 -166.51 688.941
v 245.224 -172.133 685.695
v 244.984 -176.463 682.365
v 245.508 -171.867 682.759
v 251.757 -159.268 702.776
v 251.964 -172.18 681.084
v 251.446 -173.927 679.965
vn -0.298323 0.0776394 0.951302
vn -0.11489 -0.912992 0.391467
vn -0.692496 -0.434382 0.575987
vn -0.536742 -0.0605768 0.841569
vn -0.377127 -0.84595 0.377019
vn -0.479141 0.23551 0.845552
vn -0.904819 -0.178657 0.386503
vn -0.563016 0.574233 0.594365
vn -0.27264 0.716274 0.642355
vn -0.513832 0.657711 0.55081
vn -0.691229 -0.715553 0.10093
vn -0.17968 -0.983461 0.0227832
vn -0.97954 -0.111565 -0.167498
vn -0.715683 0.614298 0.332319
vn -0.877822 -0.47114 -0.0863459
vn -0.965384 -0.216287 -0.145784
vn -0.757859 -0.320113 0.568487
vn -0.162851 -0.649017 0.743139
vn -0.647442 -0.654928 0.389728
vn -0.942322 -0.245096 0.22794
vn -0.952416 -0.301388 0.045486
vn -0.767247 -0.640891 0.0243131
vn -0.999154 -0.035168 -0.0213312
vn -0.21796 -0.917128 0.33372
vn -0.281776 -0.958115 -0.0511725
vn -0.22665 0.327735 0.91718
vn -0.0010439 -0.43618 0.899859
vn 0.0476848 -0.966743 0.251266
vn -0.145479 0.678012 0.720511
vn -0.605591 0.484026 0.631647
vn -0.219347 0.399842 0.889951
vn -0.74927 0.599092 0.282282
vn -0.929136 0.361521 0.0775145
vn -0.880268 0.193403 -0.433272
vn -0.797956 0.261439 -0.543061
vn -0.832772 0.461999 -0.305038
vn -0.686842 0.409573 -0.600416
vn -0.181257 -0.983273 0.0178779
vn -0.922626 0.0787753 -0.377565
vn -0.950418 0.102369 -0.293643
vn -0.867299 0.271996 -0.416906
vn -0.959091 -0.282909 0.0103121
vn -0.9785 0.0245797 -0.204775
vn -0.614625 -0.663564 0.42652
vn -0.362571 -0.738955 0.56788
vn -0.512877 -0.627549 0.585781
vn -0.992458 -0.0215614 -0.120672
vn -0.63558 -0.522739 0.56814
vn -0.521893 -0.487598 0.699911
vn -0.922774 -0.248744 0.294303
vn -0.342733 -0.595343 0.726705
vn -0.363707 -0.293303 0.884133
vn -0.742684 -0.286703 0.605163
vn -0.947203 -0.0584995 0.315252
vn -0.33397 -0.393183 0.856663
vn -0.108459 -0.293503 0.949786
vn -0.98875 0.0578556 -0.137933
vn 0.0481679 -0.255896 0.965504
vn 0.177529 -0.865079 0.469171
vn 0.288252 -0.244927 0.9257
vn -0.976588 -0.00736988 0.214991
vn -0.868167 -0.0585197 0.49281
vn -0.989517 0.144076 -0.00987277
vn -0.948038 0.194939 -0.251443
vn -0.926051 0.267356 -0.266366
vn -0.996254 0.0720758 -0.0477891
vn 0.133231 -0.966354 0.220022
vn -0.975547 -0.111854 -0.189199
vn -0.446787 -0.813867 -0.371486
vn -0.0464741 -0.915117 -0.400502
vn -0.264894 -0.585823 -0.765926
vn -0.753287 -0.0223848 -0.65731
vn -0.223025 -0.210307 -0.951856
vn 0.0172998 0.342389 0.939399
vn -0.0813059 0.538003 0.839012
vn -0.0854428 0.784053 0.614784
vn -0.0273991 0.31159 0.949822
vn -0.404191 0.500638 0.765501
vn -0.610446 0.712949 -0.34505
vn -0.511591 0.803997 0.303091
vn -0.620088 0.476602 -0.623171
vn -0.402408 0.631467 -0.662811
vn -0.225888 -0.905026 0.36042
vn -0.162894 -0.77246 0.613817
vn 0.393491 -0.714005 0.579103
vn -0.244035 -0.659217 0.711252
vn 0.18869 -0.601274 0.776444
vn -0.79833 0.359042 -0.483486
vn 0.18053 -0.374036 0.909674
vn -0.0240669 -0.507748 0.861169
vn -0.919539 0.221968 -0.324312
vn 0.108262 -0.932908 0.343455
vn 0.217059 -0.287686 0.932803
vn 0.301237 -0.284941 0.909981
vn -0.821623 0.337898 -0.459087
vn 0.0395107 -0.978951 -0.200233
vn 0.0444332 -0.788282 -0.613708
vn -0.0463855 -0.549915 -0.833932
vn -0.582191 0.399188 -0.70831
vn -0.310377 0.222542 -0.924198
vn -0.24503 0.530599 -0.811434
vn 0.498835 -0.749807 0.434689
vn 0.0678753 0.676113 0.733665
vn 0.532716 -0.182122 0.826465
vn 0.313563 0.587802 0.745766
vn 0.0577579 0.741866 0.668056
vn 0.384331 0.463243 0.798558
vn 0.0778842 0.656918 0.749928
vn -0.0972712 0.736218 0.669717
vn -0.048009 0.177401 0.982967
vn 0.496389 -0.827123 0.263564
vn -0.355467 0.783734 -0.509318
vn -0.340215 0.63655 -0.69214
vn -0.231687 0.640036 -0.732581
vn 0.298025 -0.334128 0.89417
vn 0.564561 -0.722062 0.399871
vn 0.0564017 -0.977758 0.202013
vn -0.116348 -0.703842 -0.700764
vn -0.0403997 -0.855507 -0.516213
vn -0.0936671 0.550563 -0.829522
vn -0.101762 -0.379942 -0.919396
vn 0.77238 -0.46761 0.429849
vn 0.681558 0.122162 0.721495
vn 0.386024 0.465202 0.796601
vn 0.80108 0.354297 0.482437
vn -0.102786 0.585109 0.804414
vn -0.110905 0.463282 0.879244
vn -0.124684 0.52163 0.844012
vn -0.0859664 0.569057 0.817792
vn 0.252513 0.774913 0.579437
vn 0.80687 0.5907 -0.00583013
vn -0.071071 0.356302 0.931664
vn 0.0217283 0.28039 0.95964
vn 0.10811 0.61707 0.779447
vn 0.774741 -0.628554 -0.0685293
vn 0.705977 -0.704462 -0.0730022
vn 0.859176 -0.353094 -0.370325
vn 0.923575 -0.237689 0.300855
vn 0.890388 -0.204666 -0.406598
vn 0.877558 -0.131036 -0.461218
vn 0.919944 0.193671 -0.340873
vn 0.956392 0.0462995 -0.288393
vn 0.572455 0.806512 -0.14776
vn 0.298373 0.877141 0.376295
vn 0.0360969 0.712403 -0.700842
vn 0.64814 -0.721683 0.243081
vn 0.93794 0.239473 -0.250839
vn 0.56524 -0.672185 0.478197
vn 0.531004 -0.583991 0.613994
vn 0.943302 -0.266081 0.198447
vn 0.806622 0.409311 -0.426411
vn 0.522233 -0.331844 0.78559
vn 0.575993 -0.464913 0.672375
vn 0.518623 -0.503411 0.691091
vn 0.302086 -0.23231 0.924541
vn 0.918371 -0.0168156 0.395364
vn 0.598154 -0.326597 0.73181
vn 0.505303 -0.116017 0.855108
vn 0.985647 0.163826 -0.040754
vn 0.957492 0.282644 0.0576289
vn 0.825757 0.436294 -0.357453
vn 0.791574 0.437363 -0.426761
vn 0.881156 -0.369914 0.294495
vn 0.697059 -0.695603 0.173912
vn 0.92526 0.261084 -0.275189
vn -0.0456025 0.595299 -0.802209
vn 0.701669 0.352774 -0.619041
vn 0.208794 -0.973746 -0.09069
vn -0.0948103 -0.564473 -0.819989
vn 0.116374 -0.8488 -0.515747
vn 0.727767 0.0614833 -0.683063
vn -0.119941 0.168477 -0.978381
vn -0.0579843 -0.856077 0.513585
vn -0.0010439 -0.43618 0.899859
vn -0.996667 0.0792333 0.019409
vn -0.252634 -0.966739 0.0398923
vn 0.250159 -0.887909 0.386055
vn 0.397535 -0.362921 0.842766
vn -0.439797 -0.797642 0.41273
vn 0.174612 -0.353038 0.919171
vn -0.239735 -0.234109 0.942189
vn 0.434095 -0.29951 0.84962
vn 0.547027 -0.825011 0.141841
vn 0.215218 -0.350015 0.911686
vn 0.281132 0.531698 0.798913
vn -0.120221 0.84406 0.522598
vn -0.128083 0.903742 0.408467
vn 0.0280227 0.964607 -0.262197
vn 0.122022 -0.405966 0.905705
vn 0.628592 0.596487 0.499075
vn 0.167251 0.794883 0.583256
vn 0.766686 -0.638468 0.0674619
vn 0.933199 0.308747 -0.18389
vn 0.361913 0.668036 -0.650191
vn 0.815023 0.423647 -0.395299
vn 0.0280227 0.964607 -0.262197
vn 0.357072 0.651222 -0.669634
vn 0.0280227 0.964607 -0.262197
vn 0.993755 -0.0785913 -0.0792127
vn 0.983234 -0.104225 0.149627
vn 0.817005 0.402744 -0.412675
vn 0.935375 -0.324266 0.141159
vn 0.951002 -0.231953 0.204433
vn 0.855129 0.353123 -0.379551
vn 0.18807 0.679517 -0.709145
vn 0.983996 -0.0413049 0.173336
vn 0.976099 0.140796 0.165552
vn 0.939823 0.257455 0.224611
vn 0.950941 -0.091413 -0.295559
vn 0.768037 -0.479433 -0.424573
vn 0.514676 -0.0437214 -0.85627
vn 0.72934 -0.192505 -0.656509
vn -0.301061 -0.774796 0.555925
vn -0.985546 0.147485 -0.0833566
vn -0.0010439 -0.43618 0.899859
vn 0.194391 0.131955 0.972008
vn 0.0768672 0.0834475 0.993543
vn -0.750679 -0.529687 0.394858
vn -0.887481 -0.0953736 0.450867
vn -0.88955 -0.256895 -0.377765
vn -0.379584 0.581074 -0.719909
vn 0.537336 -0.248085 0.806055
vn 0.614378 0.486188 -0.621418
vn 0.573386 0.162408 -0.803027
g grp1
usemtl mtl1
f 6//6 4//4 1//1 
f 1//1 26//26 6//6 
f 75//75 6//6 26//26 
f 2//2 12//12 28//28 
f 28//28 12//12 38//38 
f 28//28 173//173 2//2 
f 3//3 7//7 11//11 
f 3//3 6//6 7//7 
f 7//7 13//13 11//11 
f 3//3 4//4 6//6 
f 11//11 5//5 3//3 
f 5//5 213//213 3//3 
f 5//5 2//2 213//213 
f 12//12 5//5 11//11 
f 2//2 173//173 213//213 
f 2//2 5//5 12//12 
f 8//8 7//7 6//6 
f 7//7 175//175 13//13 
f 9//9 6//6 75//75 
f 6//6 9//9 8//8 
f 10//10 14//14 8//8 
f 214//214 13//13 175//175 
f 75//75 29//29 9//9 
f 8//8 9//9 10//10 
f 9//9 29//29 10//10 
f 10//10 33//33 14//14 
f 33//33 10//10 30//30 
f 15//15 11//11 13//13 
f 12//12 11//11 176//176 
f 12//12 176//176 38//38 
f 16//16 13//13 39//39 
f 15//15 13//13 16//16 
f 39//39 13//13 34//34 
f 214//214 33//33 13//13 
f 15//15 16//16 42//42 
f 62//62 61//61 17//17 
f 17//17 20//20 19//19 
f 17//17 61//61 20//20 
f 17//17 18//18 181//181 
f 19//19 24//24 18//18 
f 19//19 18//18 17//17 
f 61//61 23//23 20//20 
f 20//20 21//21 19//19 
f 23//23 21//21 20//20 
f 21//21 22//22 19//19 
f 23//23 68//68 21//21 
f 24//24 22//22 25//25 
f 19//19 22//22 24//24 
f 21//21 68//68 22//22 
f 69//69 70//70 25//25 
f 69//69 25//25 22//22 
f 215//215 174//174 27//27 
f 216//216 217//217 75//75 
f 75//75 217//217 74//74 
f 28//28 177//177 173//173 
f 10//10 31//31 30//30 
f 31//31 10//10 29//29 
f 31//31 78//78 30//30 
f 30//30 32//32 33//33 
f 78//78 32//32 30//30 
f 80//80 79//79 32//32 
f 28//28 38//38 83//83 
f 33//33 34//34 13//13 
f 39//39 34//34 35//35 
f 32//32 36//36 33//33 
f 34//34 33//33 36//36 
f 32//32 79//79 36//36 
f 37//37 34//34 36//36 
f 35//35 34//34 37//37 
f 37//37 36//36 79//79 
f 81//81 35//35 37//37 
f 37//37 82//82 81//81 
f 79//79 82//82 37//37 
f 38//38 176//176 83//83 
f 179//179 83//83 176//176 
f 16//16 39//39 40//40 
f 40//40 39//39 41//41 
f 41//41 39//39 35//35 
f 81//81 41//41 35//35 
f 16//16 43//43 42//42 
f 42//42 43//43 47//47 
f 16//16 40//40 43//43 
f 41//41 43//43 40//40 
f 88//88 43//43 41//41 
f 81//81 88//88 41//41 
f 179//179 45//45 83//83 
f 43//43 88//88 47//47 
f 45//45 179//179 44//44 
f 179//179 218//218 44//44 
f 46//46 45//45 44//44 
f 88//88 57//57 47//47 
f 46//46 44//44 218//218 
f 46//46 218//218 48//48 
f 218//218 50//50 48//48 
f 47//47 57//57 50//50 
f 51//51 46//46 48//48 
f 90//90 51//51 49//49 
f 51//51 48//48 49//49 
f 49//49 48//48 50//50 
f 50//50 57//57 66//66 
f 90//90 49//49 55//55 
f 181//181 56//56 52//52 
f 52//52 55//55 53//53 
f 53//53 54//54 219//219 
f 56//56 55//55 52//52 
f 56//56 90//90 55//55 
f 55//55 49//49 53//53 
f 49//49 50//50 53//53 
f 53//53 50//50 54//54 
f 50//50 66//66 54//54 
f 66//66 57//57 91//91 
f 92//92 59//59 67//67 
f 18//18 58//58 181//181 
f 18//18 24//24 67//67 
f 58//58 18//18 180//180 
f 59//59 18//18 67//67 
f 56//56 181//181 58//58 
f 56//56 58//58 93//93 
f 180//180 60//60 58//58 
f 60//60 93//93 58//58 
f 56//56 93//93 90//90 
f 54//54 61//61 62//62 
f 62//62 219//219 54//54 
f 63//63 61//61 54//54 
f 61//61 63//63 64//64 
f 66//66 63//63 54//54 
f 65//65 63//63 66//66 
f 63//63 65//65 64//64 
f 65//65 95//95 64//64 
f 91//91 65//65 66//66 
f 95//95 65//65 91//91 
f 22//22 68//68 220//220 
f 68//68 72//72 220//220 
f 24//24 25//25 67//67 
f 61//61 64//64 23//23 
f 68//68 23//23 64//64 
f 25//25 70//70 67//67 
f 70//70 69//69 71//71 
f 71//71 220//220 72//72 
f 97//97 70//70 71//71 
f 72//72 68//68 64//64 
f 99//99 72//72 64//64 
f 95//95 99//99 64//64 
f 100//100 72//72 99//99 
f 97//97 71//71 98//98 
f 71//71 72//72 73//73 
f 111//111 102//102 177//177 
f 74//74 103//103 75//75 
f 182//182 178//178 222//222 
f 177//177 28//28 111//111 
f 103//103 76//76 75//75 
f 182//182 222//222 104//104 
f 76//76 29//29 75//75 
f 29//29 76//76 109//109 
f 29//29 109//109 127//127 
f 111//111 28//28 183//183 
f 29//29 77//77 31//31 
f 77//77 110//110 31//31 
f 78//78 80//80 32//32 
f 80//80 112//112 79//79 
f 110//110 78//78 31//31 
f 78//78 186//186 80//80 
f 186//186 187//187 80//80 
f 112//112 82//82 79//79 
f 145//145 82//82 112//112 
f 81//81 82//82 113//113 
f 84//84 85//85 83//83 
f 83//83 45//45 84//84 
f 113//113 114//114 81//81 
f 84//84 45//45 86//86 
f 86//86 87//87 84//84 
f 84//84 87//87 85//85 
f 114//114 88//88 81//81 
f 86//86 45//45 46//46 
f 86//86 46//46 51//51 
f 90//90 87//87 86//86 
f 115//115 87//87 90//90 
f 51//51 90//90 86//86 
f 114//114 101//101 88//88 
f 115//115 90//90 89//89 
f 88//88 91//91 57//57 
f 184//184 60//60 180//180 
f 60//60 184//184 94//94 
f 94//94 184//184 89//89 
f 96//96 117//117 92//92 
f 94//94 93//93 60//60 
f 94//94 89//89 93//93 
f 89//89 90//90 93//93 
f 88//88 95//95 91//91 
f 88//88 101//101 221//221 
f 92//92 67//67 96//96 
f 96//96 67//67 70//70 
f 70//70 97//97 96//96 
f 101//101 99//99 221//221 
f 99//99 101//101 100//100 
f 100//100 73//73 72//72 
f 101//101 172//172 100//100 
f 172//172 73//73 100//100 
f 98//98 71//71 73//73 
f 123//123 104//104 222//222 
f 122//122 102//102 111//111 
f 122//122 123//123 222//222 
f 74//74 185//185 103//103 
f 103//103 109//109 76//76 
f 185//185 105//105 103//103 
f 103//103 105//105 106//106 
f 106//106 109//109 103//103 
f 108//108 109//109 106//106 
f 123//123 105//105 185//185 
f 105//105 108//108 106//106 
f 123//123 107//107 105//105 
f 107//107 108//108 105//105 
f 109//109 108//108 126//126 
f 123//123 124//124 107//107 
f 107//107 124//124 108//108 
f 124//124 126//126 108//108 
f 127//127 109//109 126//126 
f 133//133 110//110 77//77 
f 191//191 144//144 186//186 
f 127//127 133//133 77//77 
f 127//127 77//77 29//29 
f 113//113 82//82 145//145 
f 186//186 144//144 187//187 
f 188//188 196//196 198//198 
f 136//136 183//183 146//146 
f 146//146 85//85 148//148 
f 85//85 146//146 183//183 
f 85//85 87//87 154//154 
f 154//154 149//149 85//85 
f 113//113 145//145 114//114 
f 87//87 115//115 152//152 
f 87//87 152//152 154//154 
f 115//115 89//89 155//155 
f 152//152 115//115 158//158 
f 92//92 117//117 116//116 
f 116//116 117//117 168//168 
f 155//155 184//184 189//189 
f 156//156 155//155 116//116 
f 155//155 89//89 184//184 
f 101//101 166//166 120//120 
f 96//96 97//97 118//118 
f 98//98 118//118 97//97 
f 119//119 96//96 118//118 
f 96//96 168//168 117//117 
f 168//168 96//96 119//119 
f 168//168 119//119 170//170 
f 118//118 121//121 169//169 
f 98//98 121//121 118//118 
f 170//170 119//119 169//169 
f 119//119 118//118 169//169 
f 98//98 73//73 121//121 
f 121//121 73//73 172//172 
f 120//120 172//172 101//101 
f 138//138 123//123 122//122 
f 138//138 122//122 135//135 
f 138//138 125//125 123//123 
f 125//125 124//124 123//123 
f 128//128 127//127 126//126 
f 128//128 132//132 127//127 
f 132//132 128//128 134//134 
f 124//124 129//129 126//126 
f 128//128 126//126 129//129 
f 130//130 134//134 128//128 
f 129//129 130//130 128//128 
f 124//124 125//125 190//190 
f 190//190 125//125 131//131 
f 130//130 190//190 131//131 
f 131//131 125//125 193//193 
f 144//144 130//130 131//131 
f 132//132 133//133 127//127 
f 134//134 133//133 132//132 
f 134//134 144//144 191//191 
f 130//130 144//144 134//134 
f 135//135 122//122 111//111 
f 135//135 111//111 183//183 
f 136//136 135//135 183//183 
f 137//137 135//135 136//136 
f 146//146 192//192 136//136 
f 137//137 199//199 142//142 
f 135//135 137//137 139//139 
f 139//139 137//137 140//140 
f 137//137 142//142 140//140 
f 135//135 139//139 138//138 
f 193//193 139//139 141//141 
f 139//139 140//140 141//141 
f 140//140 142//142 141//141 
f 193//193 141//141 131//131 
f 131//131 141//141 142//142 
f 144//144 131//131 143//143 
f 197//197 194//194 145//145 
f 142//142 199//199 147//147 
f 142//142 147//147 131//131 
f 131//131 147//147 195//195 
f 199//199 200//200 147//147 
f 147//147 201//201 195//195 
f 201//201 151//151 195//195 
f 148//148 85//85 149//149 
f 150//150 202//202 203//203 
f 201//201 204//204 151//151 
f 145//145 194//194 205//205 
f 150//150 203//203 159//159 
f 204//204 159//159 151//151 
f 159//159 162//162 151//151 
f 151//151 162//162 223//223 
f 205//205 114//114 145//145 
f 157//157 154//154 152//152 
f 154//154 153//153 149//149 
f 153//153 154//154 157//157 
f 203//203 206//206 159//159 
f 206//206 207//207 159//159 
f 166//166 114//114 205//205 
f 156//156 158//158 155//155 
f 158//158 115//115 155//155 
f 157//157 152//152 158//158 
f 208//208 160//160 207//207 
f 207//207 160//160 159//159 
f 159//159 160//160 161//161 
f 160//160 208//208 156//156 
f 160//160 156//156 165//165 
f 160//160 165//165 161//161 
f 159//159 161//161 162//162 
f 162//162 161//161 223//223 
f 116//116 163//163 156//156 
f 164//164 116//116 168//168 
f 156//156 163//163 209//209 
f 163//163 116//116 164//164 
f 209//209 165//165 156//156 
f 161//161 165//165 167//167 
f 161//161 167//167 223//223 
f 166//166 101//101 114//114 
f 212//212 209//209 210//210 
f 209//209 212//212 171//171 
f 211//211 171//171 212//212 
f 224//224 171//171 211//211 
f 209//209 171//171 165//165 
f 171//171 167//167 165//165 
f 172//172 169//169 121//121 
f 166//166 172//172 120//120 
f 224//224 223//223 167//167 
f 167//167 171//171 224//224 
