#
# Compatibility version : 3.0
# File ID : FJ438
# Representation ID : BP4050
# Build-up logic : FMA 3.0 part_of
# Concept ID : FMA24455
# English name : Middle phalanx of right index finger
# Bounds(mm): (-309.701000,-168.418000,681.138000)-(-295.055000,-147.487000,701.773000)
# Volume(cm3): 0.842200
#
v -307.811 -162.092 688.693
v -307.566 -162.329 688.812
v -308.889 -167.3 687.069
v -308.245 -167.235 687.096
v -309.038 -165.815 687.34
v -308.606 -165.818 687.424
v -308.55 -163.564 687.454
v -307.86 -163.881 687.943
v -307.798 -160.789 687.217
v -309.312 -167.453 686.789
v -309.38 -166.86 686.46
v -309.403 -167.589 686.146
v -309.243 -168.319 685.462
v -308.888 -167.783 686.838
v -308.919 -168.386 685.109
v -308.551 -168.332 685.468
v -307.949 -167.658 686.644
v -309.624 -164.938 684.48
v -308.004 -162.488 685.152
v -309.547 -167.938 684.495
v -309.659 -166.879 683.803
v -309.336 -168.034 683.935
v -308.817 -167.517 683.313
v -308.065 -168.251 684.521
v -308.098 -168.084 684.097
v -309.385 -166.704 683.212
v -309.484 -165.94 683.247
v -309.161 -165.829 682.971
v -308.602 -164.534 683.19
v -305.606 -154.167 698.906
v -305.482 -153.635 699.993
v -305.911 -151.76 699.024
v -305.53 -150.565 698.091
v -305.244 -154.723 697.355
v -305.847 -153.919 697.087
v -305.741 -151.379 697.051
v -306.095 -154.845 694.863
v -305.411 -155.722 695.613
v -307.037 -160.023 690.648
v -306.293 -159.98 690.956
v -306.937 -166.037 686.901
v -306.282 -167.016 686.264
v -305.907 -167.933 684.614
v -307.325 -162.847 684.214
v -307.13 -166.937 682.541
v -306.362 -167.989 684.365
v -307.505 -166.342 682.467
v -306.464 -164.412 682.5
v -306.144 -164.921 682.113
v -304.646 -153.093 700.851
v -304.404 -152.523 700.601
v -304.286 -154.635 700.146
v -305.27 -150.32 698.452
v -303.033 -155.16 698.35
v -304.494 -149.536 696.692
v -304.8 -151.609 694.881
v -304.821 -161.921 689.807
v -304.389 -164.371 681.745
v -303.279 -168.048 681.476
v -304.275 -166.683 681.179
v -301.335 -153.243 701.773
v -301.323 -152.862 701.049
v -302.512 -155.172 699.578
v -302.647 -155.502 697.902
v -302.262 -155.493 698.431
v -302.869 -148.124 696.636
v -302.863 -148.7 695.426
v -301.776 -147.85 695.654
v -301.128 -148.147 695.008
v -301.189 -156.794 695.046
v -303.036 -150.979 693.604
v -300.738 -160.099 688.797
v -302.936 -156.938 687.38
v -301.57 -161.93 687.069
v -300.838 -160.486 686.636
v -300.909 -159.498 686.578
v -302.803 -167.44 684.777
v -302.15 -166.842 684.793
v -302.173 -164.478 685.474
v -301.495 -163.465 685.129
v -301.57 -164.141 684.846
v -301.372 -163.68 684.456
v -301.085 -165.51 684.22
v -301.217 -164.947 684.04
v -302.606 -162.312 683.605
v -301.343 -163.106 684.843
v -301.677 -162.443 684.492
v -302.311 -168.194 682.725
v -301.683 -167.588 684.075
v -301.382 -167.267 683.094
v -301.943 -163.607 683.209
v -302.702 -167.859 681.472
v -302.748 -167.472 681.138
v -300.208 -152.976 701.162
v -299.89 -153.234 701.248
v -298.979 -154.512 700.186
v -298.995 -148.291 697.075
v -298.43 -155.72 697.352
v -300.288 -147.487 696.09
v -300.568 -151.187 692.566
v -300.222 -159.546 688.06
v -297.223 -153.205 698.855
v -297.066 -155.256 698.535
v -298.006 -152.684 698.765
v -297.43 -155.5 698.247
v -296.435 -155.591 696.991
v -296.119 -155.425 697.544
v -296.198 -149.949 695.215
v -298.462 -148.008 696.418
v -298.581 -148.45 694.705
v -297.739 -155.76 694.68
v -296.921 -155.263 693.039
v -295.637 -153.582 697.854
v -295.055 -154.262 695.755
v -295.388 -151.974 695.297
v -295.698 -151.624 694.037
v -307.811 -162.092 688.693
v -309.038 -165.815 687.34
v -308.55 -163.564 687.454
v -307.798 -160.789 687.217
v -309.243 -168.319 685.462
v -309.547 -167.938 684.495
v -309.336 -168.034 683.935
v -308.817 -167.517 683.313
v -305.482 -153.635 699.993
v -305.482 -153.635 699.993
v -307.037 -160.023 690.648
v -307.13 -166.937 682.541
v -307.13 -166.937 682.541
v -306.362 -167.989 684.365
v -304.646 -153.093 700.851
v -304.404 -152.523 700.601
v -304.404 -152.523 700.601
v -305.27 -150.32 698.452
v -304.821 -161.921 689.807
v -303.279 -168.048 681.476
v -301.335 -153.243 701.773
v -301.335 -153.243 701.773
v -302.512 -155.172 699.578
v -302.869 -148.124 696.636
v -302.803 -167.44 684.777
v -301.343 -163.106 684.843
v -302.311 -168.194 682.725
v -301.683 -167.588 684.075
v -301.683 -167.588 684.075
v -301.382 -167.267 683.094
v -302.702 -167.859 681.472
v -302.748 -167.472 681.138
v -299.89 -153.234 701.248
v -298.995 -148.291 697.075
v -300.288 -147.487 696.09
v -297.066 -155.256 698.535
v -298.006 -152.684 698.765
v -298.006 -152.684 698.765
v -296.119 -155.425 697.544
v -296.119 -155.425 697.544
v -296.198 -149.949 695.215
v -296.198 -149.949 695.215
v -298.462 -148.008 696.418
v -298.462 -148.008 696.418
v -297.739 -155.76 694.68
v -296.921 -155.263 693.039
v -296.921 -155.263 693.039
v -295.637 -153.582 697.854
v -295.055 -154.262 695.755
v -295.388 -151.974 695.297
v -295.698 -151.624 694.037
v -309.312 -167.453 686.789
v -308.888 -167.783 686.838
v -309.624 -164.938 684.48
v -305.911 -151.76 699.024
v -306.095 -154.845 694.863
v -305.411 -155.722 695.613
v -305.27 -150.32 698.452
v -300.838 -160.486 686.636
v -301.372 -163.68 684.456
v -301.085 -165.51 684.22
v -301.085 -165.51 684.22
v -301.683 -167.588 684.075
v -302.748 -167.472 681.138
v -300.288 -147.487 696.09
v -300.222 -159.546 688.06
vn -0.950407 0.237411 0.200907
vn -0.458502 -0.434964 0.774972
vn -0.224459 -0.29898 0.927486
vn 0.22072 -0.39144 0.893341
vn -0.956739 0.123339 0.26351
vn 0.0254761 -0.22422 0.974206
vn -0.940755 0.246267 0.233094
vn -0.282173 -0.294758 0.91296
vn -0.961924 0.227236 0.151873
vn -0.914484 -0.283365 0.288831
vn -0.986348 0.0139852 0.16408
vn -0.968131 -0.198508 0.152701
vn -0.827152 -0.492847 0.270041
vn 0.00456738 -0.710556 0.703626
vn -0.0668899 -0.995464 -0.0676481
vn 0.12234 -0.967183 0.22269
vn 0.30451 -0.760579 0.573404
vn -0.983046 0.131236 0.128055
vn -0.577368 0.645289 -0.500248
vn -0.984554 -0.174565 0.0134191
vn -0.972636 -0.112017 -0.203545
vn -0.203917 -0.925216 -0.319989
vn -0.364661 -0.354816 -0.860888
vn 0.0893339 -0.979129 -0.182555
vn 0.0609752 -0.863995 -0.499795
vn -0.613971 -0.237832 -0.752645
vn -0.835985 0.167712 -0.522496
vn -0.491682 0.113738 -0.863315
vn -0.496473 0.476908 -0.725309
vn -0.834301 -0.515249 0.196113
vn -0.754985 0.156363 0.636827
vn -0.58918 0.400155 0.701957
vn -0.856544 0.516027 0.00694212
vn -0.573498 -0.780532 0.248735
vn -0.952295 -0.272672 0.137054
vn -0.939218 0.291626 -0.181175
vn -0.994731 0.0429098 0.0931078
vn -0.841257 -0.389451 0.374986
vn -0.954408 -0.0130712 0.29822
vn -0.208701 -0.641736 0.737983
vn 0.300395 -0.398549 0.866557
vn 0.341311 -0.585688 0.735171
vn 0.148525 -0.957763 0.246233
vn -0.351197 0.651504 -0.67246
vn 0.0679916 -0.822787 -0.564268
vn 0.117282 -0.967784 -0.222801
vn -0.33317 -0.0945166 -0.938117
vn -0.2909 0.546046 -0.785628
vn -0.327102 0.27472 -0.904176
vn -0.505652 0.396468 0.766243
vn -0.400872 0.500281 0.767476
vn -0.366578 -0.796825 0.480302
vn -0.491268 0.501543 0.712117
vn -0.332513 -0.903653 0.269899
vn -0.733309 0.635126 -0.242636
vn -0.761106 0.488872 -0.426288
vn -0.21613 -0.539791 0.81358
vn -0.0176494 0.467659 -0.883733
vn -0.348301 -0.867983 -0.353965
vn -0.258747 -0.0996639 -0.96079
vn -0.217334 0.467971 0.856604
vn 0.0589244 0.941084 0.332999
vn 0.0227516 -0.879353 0.475627
vn -0.300504 -0.896136 0.326555
vn -0.217213 -0.935017 0.280288
vn -0.529842 0.830913 -0.169853
vn -0.501918 0.637944 -0.584042
vn -0.317218 0.860939 -0.397689
vn -0.161 0.728944 -0.665372
vn 0.102892 -0.882652 0.458628
vn -0.442634 0.629224 -0.638868
vn 0.669428 -0.697976 0.254353
vn -0.0955323 0.659861 -0.74529
vn 0.706899 -0.587689 0.393592
vn 0.917749 -0.37452 0.132182
vn 0.781667 0.165682 -0.601287
vn 0.358863 -0.401848 0.842458
vn 0.494112 -0.317633 0.809298
vn 0.649471 -0.314986 0.692078
vn 0.898506 -0.303944 0.316711
vn 0.848925 -0.129964 0.512285
vn 0.913589 0.219208 -0.342495
vn 0.739962 -0.10907 0.663747
vn 0.91559 0.16406 -0.367122
vn 0.460227 0.483495 -0.744596
vn 0.948885 -0.247948 0.195293
vn 0.827849 0.250984 -0.501671
vn 0.112336 -0.993656 -0.00528301
vn 0.558005 -0.367403 0.744073
vn 0.872552 -0.22743 -0.432352
vn 0.721813 0.309764 -0.618896
vn 0.254219 -0.788008 -0.560728
vn 0.247394 0.310448 -0.917834
vn 0.223381 0.833672 0.505066
vn 0.460117 -0.350051 0.815939
vn 0.314358 -0.602301 0.733766
vn 0.0359058 0.683438 0.729125
vn 0.0883949 -0.977019 0.193961
vn -0.238658 0.971092 0.00476785
vn -0.0489728 0.607807 -0.792574
vn 0.829905 -0.555587 0.050805
vn 0.474855 0.717055 0.510241
vn 0.633689 -0.242086 0.734733
vn 0.148418 0.563635 0.812581
vn 0.123575 -0.931597 0.341843
vn 0.330018 -0.943972 -0.00217615
vn 0.797219 -0.296907 0.525632
vn 0.647716 0.313883 0.69422
vn 0.15523 0.855285 0.49436
vn 0.299425 0.75167 -0.587654
vn 0.25667 -0.958925 0.120759
vn 0.737679 -0.668031 0.0977986
vn 0.788252 -0.171226 0.591051
vn 0.622683 -0.77096 -0.133741
vn 0.618357 0.479748 0.622476
vn 0.360052 0.537273 -0.762693
vn -0.649613 -0.327681 0.686023
vn -0.36256 -0.129746 0.922885
vn -0.617277 -0.167053 0.768806
vn -0.579831 0.632802 -0.513184
vn -0.272582 -0.959213 0.0748896
vn -0.629674 -0.769688 -0.105314
vn -0.77295 -0.349272 -0.529677
vn 0.0279063 -0.797617 -0.602518
vn -0.975468 -0.132241 0.175997
vn -0.560548 -0.579954 0.591133
vn -0.412031 -0.553238 0.723988
vn -0.347693 -0.364636 -0.8638
vn -0.348301 -0.867983 -0.353965
vn -0.348301 -0.867983 -0.353965
vn -0.370256 -0.456367 0.809098
vn 0.207137 0.723644 0.658357
vn 0.0550878 0.941433 0.332671
vn 0.0799768 0.604108 0.792879
vn 0.445817 -0.720189 0.531578
vn -0.0181492 -0.840153 -0.542046
vn 0.0159542 -0.629462 0.776867
vn 0.11819 0.806516 0.579278
vn -0.333172 -0.933512 0.132481
vn -0.0491111 0.709309 0.703184
vn 0.117392 -0.886771 0.447053
vn 0.870864 0.200346 -0.44884
vn 0.730751 -0.652576 -0.200369
vn 0.122969 -0.918959 0.374691
vn 0.708903 -0.705182 -0.013216
vn 0.938804 -0.283793 0.195212
vn 0.761862 -0.465952 -0.44995
vn -0.00237129 -0.504487 -0.863416
vn 0.426467 0.681193 0.595064
vn 0.664727 0.339547 0.665467
vn 0.0565621 0.808535 0.585723
vn 0.202535 -0.858446 0.471222
vn 0.0801702 0.978017 0.192498
vn 0.512408 0.683951 0.519278
vn 0.215741 -0.92812 0.303396
vn 0.626554 -0.768923 -0.12723
vn 0.542961 0.711419 -0.44618
vn 0.922834 0.364036 -0.125921
vn 0.652403 0.341704 0.676468
vn 0.434489 0.864326 -0.253298
vn 0.710457 -0.688506 0.145636
vn 0.872046 -0.172316 -0.458086
vn 0.481635 -0.866504 -0.131145
vn 0.484481 0.709848 0.511267
vn 0.997876 -0.0404017 -0.0510961
vn 0.974506 0.219941 -0.0443076
vn 0.941143 0.0377636 -0.335892
vn -0.447983 -0.301292 0.841745
vn -0.586948 -0.691652 0.420843
vn -0.730204 0.540397 -0.418059
vn -0.989033 0.112788 0.0953601
vn -0.993942 0.00892832 0.109545
vn -0.240643 -0.814673 0.527636
vn -0.740051 0.662753 0.11438
vn 0.895545 0.0847774 -0.43682
vn 0.933839 -0.117997 0.33767
vn 0.95073 0.134086 -0.279522
vn 0.938804 -0.283793 0.195212
vn 0.938804 -0.283793 0.195212
vn 0.82039 -0.106847 -0.561733
vn 0.091628 0.896084 -0.434324
vn 0.903412 -0.0793458 -0.421367
g grp1
usemtl mtl1
f 57//57 2//2 8//8 
f 39//39 9//9 1//1 
f 11//11 10//10 5//5 
f 118//118 168//168 3//3 
f 3//3 168//168 14//14 
f 4//4 6//6 3//3 
f 118//118 3//3 6//6 
f 14//14 17//17 4//4 
f 4//4 3//3 14//14 
f 4//4 41//41 6//6 
f 7//7 18//18 5//5 
f 119//119 118//118 8//8 
f 6//6 8//8 118//118 
f 2//2 119//119 8//8 
f 6//6 41//41 8//8 
f 2//2 117//117 119//119 
f 1//1 9//9 7//7 
f 7//7 9//9 18//18 
f 120//120 19//19 170//170 
f 13//13 169//169 10//10 
f 13//13 10//10 12//12 
f 10//10 11//11 12//12 
f 20//20 13//13 12//12 
f 12//12 11//11 20//20 
f 22//22 121//121 122//122 
f 20//20 11//11 21//21 
f 14//14 121//121 16//16 
f 16//16 121//121 15//15 
f 15//15 121//121 22//22 
f 14//14 16//16 17//17 
f 16//16 15//15 24//24 
f 22//22 24//24 15//15 
f 43//43 16//16 24//24 
f 42//42 4//4 17//17 
f 43//43 17//17 16//16 
f 46//46 43//43 24//24 
f 5//5 18//18 11//11 
f 11//11 18//18 21//21 
f 19//19 29//29 170//170 
f 27//27 170//170 29//29 
f 44//44 29//29 19//19 
f 123//123 20//20 21//21 
f 123//123 21//21 26//26 
f 26//26 23//23 123//123 
f 22//22 25//25 24//24 
f 124//124 25//25 22//22 
f 45//45 25//25 124//124 
f 23//23 26//26 47//47 
f 25//25 45//45 46//46 
f 128//128 23//23 47//47 
f 46//46 24//24 25//25 
f 18//18 27//27 21//21 
f 26//26 21//21 27//27 
f 27//27 29//29 28//28 
f 26//26 27//27 28//28 
f 47//47 28//28 29//29 
f 47//47 26//26 28//28 
f 31//31 50//50 32//32 
f 125//125 171//171 30//30 
f 53//53 32//32 51//51 
f 33//33 171//171 174//174 
f 174//174 55//55 33//33 
f 35//35 30//30 171//171 
f 34//34 35//35 38//38 
f 35//35 34//34 30//30 
f 35//35 171//171 36//36 
f 36//36 37//37 35//35 
f 35//35 172//172 38//38 
f 171//171 33//33 36//36 
f 172//172 36//36 56//56 
f 172//172 56//56 9//9 
f 172//172 9//9 39//39 
f 173//173 127//127 40//40 
f 172//172 39//39 38//38 
f 173//173 40//40 70//70 
f 2//2 127//127 117//117 
f 40//40 127//127 2//2 
f 40//40 2//2 57//57 
f 120//120 73//73 19//19 
f 42//42 41//41 4//4 
f 8//8 41//41 57//57 
f 43//43 42//42 17//17 
f 73//73 44//44 19//19 
f 44//44 73//73 58//58 
f 59//59 130//130 129//129 
f 46//46 136//136 43//43 
f 47//47 29//29 49//49 
f 48//48 29//29 44//44 
f 49//49 29//29 48//48 
f 60//60 47//47 49//49 
f 58//58 48//48 44//44 
f 52//52 131//131 126//126 
f 61//61 51//51 50//50 
f 131//131 52//52 137//137 
f 51//51 32//32 50//50 
f 126//126 30//30 52//52 
f 52//52 30//30 34//34 
f 137//137 52//52 63//63 
f 139//139 52//52 54//54 
f 139//139 54//54 65//65 
f 104//104 134//134 132//132 
f 66//66 55//55 174//174 
f 52//52 34//34 54//54 
f 54//54 34//34 173//173 
f 65//65 54//54 64//64 
f 64//64 54//54 173//173 
f 64//64 173//173 70//70 
f 33//33 55//55 36//36 
f 55//55 56//56 36//36 
f 55//55 66//66 67//67 
f 55//55 67//67 56//56 
f 71//71 120//120 56//56 
f 56//56 67//67 71//71 
f 73//73 120//120 71//71 
f 70//70 40//40 57//57 
f 73//73 71//71 100//100 
f 74//74 135//135 41//41 
f 79//79 74//74 41//41 
f 41//41 42//42 77//77 
f 141//141 42//42 43//43 
f 43//43 136//136 88//88 
f 49//49 58//58 60//60 
f 58//58 91//91 93//93 
f 58//58 49//49 48//48 
f 91//91 58//58 85//85 
f 60//60 136//136 128//128 
f 148//148 136//136 60//60 
f 92//92 88//88 136//136 
f 92//92 136//136 148//148 
f 128//128 47//47 60//60 
f 58//58 93//93 60//60 
f 138//138 62//62 133//133 
f 138//138 94//94 62//62 
f 94//94 153//153 62//62 
f 96//96 95//95 137//137 
f 149//149 94//94 138//138 
f 62//62 153//153 133//133 
f 63//63 65//65 98//98 
f 137//137 63//63 96//96 
f 65//65 64//64 70//70 
f 65//65 70//70 98//98 
f 67//67 66//66 68//68 
f 100//100 71//71 67//67 
f 69//69 100//100 67//67 
f 68//68 69//69 67//67 
f 135//135 74//74 70//70 
f 72//72 74//74 101//101 
f 73//73 76//76 85//85 
f 74//74 79//79 80//80 
f 74//74 80//80 75//75 
f 74//74 75//75 101//101 
f 73//73 85//85 58//58 
f 76//76 182//182 175//175 
f 41//41 78//78 79//79 
f 41//41 77//77 78//78 
f 78//78 77//77 89//89 
f 144//144 141//141 43//43 
f 89//89 83//83 78//78 
f 80//80 79//79 81//81 
f 82//82 91//91 87//87 
f 80//80 81//81 176//176 
f 80//80 176//176 86//86 
f 142//142 82//82 87//87 
f 79//79 83//83 81//81 
f 81//81 83//83 176//176 
f 78//78 83//83 79//79 
f 84//84 91//91 82//82 
f 177//177 84//84 82//82 
f 177//177 90//90 84//84 
f 84//84 90//90 91//91 
f 87//87 91//91 85//85 
f 85//85 76//76 87//87 
f 80//80 86//86 75//75 
f 142//142 87//87 175//175 
f 87//87 76//76 175//175 
f 143//143 147//147 90//90 
f 91//91 90//90 180//180 
f 88//88 144//144 43//43 
f 146//146 178//178 179//179 
f 90//90 145//145 143//143 
f 90//90 147//147 180//180 
f 149//149 154//154 94//94 
f 105//105 96//96 63//63 
f 105//105 63//63 98//98 
f 96//96 113//113 95//95 
f 140//140 134//134 97//97 
f 97//97 134//134 104//104 
f 99//99 68//68 66//66 
f 140//140 97//97 151//151 
f 69//69 68//68 181//181 
f 100//100 69//69 110//110 
f 181//181 110//110 69//69 
f 97//97 109//109 151//151 
f 111//111 98//98 70//70 
f 70//70 74//74 72//72 
f 72//72 111//111 70//70 
f 161//161 72//72 112//112 
f 73//73 100//100 116//116 
f 72//72 101//101 112//112 
f 162//162 76//76 167//167 
f 182//182 76//76 162//162 
f 76//76 73//73 116//116 
f 164//164 102//102 149//149 
f 103//103 113//113 96//96 
f 152//152 96//96 105//105 
f 103//103 107//107 113//113 
f 154//154 149//149 102//102 
f 102//102 164//164 154//154 
f 105//105 98//98 106//106 
f 106//106 98//98 111//111 
f 111//111 163//163 106//106 
f 155//155 152//152 105//105 
f 155//155 105//105 106//106 
f 156//156 106//106 114//114 
f 114//114 106//106 163//163 
f 115//115 150//150 154//154 
f 159//159 150//150 108//108 
f 157//157 116//116 110//110 
f 115//115 108//108 150//150 
f 181//181 160//160 110//110 
f 110//110 160//160 157//157 
f 116//116 100//100 110//110 
f 165//165 113//113 107//107 
f 164//164 115//115 154//154 
f 165//165 166//166 113//113 
f 167//167 158//158 166//166 
f 167//167 166//166 165//165 
f 167//167 165//165 162//162 
