#
# Compatibility version : 3.0
# File ID : FJ487
# Representation ID : BP4042
# Build-up logic : FMA 3.0 part_of
# Concept ID : FMA24462
# English name : Distal phalanx of right ring finger
# Bounds(mm): (-254.269000,-190.680000,675.005000)-(-245.936000,-175.017000,684.305000)
# Volume(cm3): 0.287200
#
v -254.01 -179.016 683.123
v -253.887 -179.486 682.277
v -253.746 -179.793 682.451
v -249.465 -177.26 684.305
v -254.196 -176.938 682.334
v -254.269 -177.946 680.635
v -253.643 -177.168 680.211
v -253.162 -180.265 681.752
v -253.353 -180.252 681.419
v -252.672 -181.896 680.579
v -252.782 -180.818 679.663
v -251.09 -188.023 679.264
v -252.918 -188.176 677.826
v -252.556 -189.982 676.971
v -252.957 -189.229 677.198
v -253.086 -189.065 676.969
v -248.488 -177.911 683.855
v -248.192 -177.49 683.634
v -247.305 -177.728 683.426
v -251.653 -175.017 680.339
v -250.872 -175.535 679.714
v -249.098 -179.733 683.555
v -248.48 -182.901 680.218
v -249.597 -181.63 682.104
v -250.596 -180.162 678.586
v -250.948 -186.664 679.548
v -249.736 -185.88 679.767
v -252.211 -186.109 678.262
v -252.602 -186.764 677.27
v -252.304 -186.161 677.324
v -251.533 -186.378 676.102
v -249.545 -190.68 676.827
v -252.274 -190.38 676.149
v -252.8 -188.198 676.2
v -252.432 -188.344 675.673
v -252.418 -189.302 675.413
v -246.718 -179.315 682.726
v -245.936 -178.391 681.534
v -248.362 -176.044 679.811
v -247.923 -175.171 680.24
v -247.285 -176.516 680.181
v -249.065 -175.205 679.853
v -247.584 -180.728 680.932
v -247.287 -179.502 680.114
v -247.948 -181.612 679.828
v -248.119 -180.941 679.27
v -248.464 -184.909 678.773
v -248.208 -182.442 678.896
v -248.531 -182.939 678.167
v -248.479 -187.676 678.408
v -248.529 -187.201 678.551
v -248.29 -187.477 678.228
v -248.388 -185.139 677.749
v -249.369 -183.708 677.058
v -248.687 -189.048 677.788
v -248.458 -189.01 676.016
v -251.081 -189.618 675.01
v -251.222 -189.1 675.005
v -254.01 -179.016 683.123
v -254.01 -179.016 683.123
v -253.746 -179.793 682.451
v -249.465 -177.26 684.305
v -249.465 -177.26 684.305
v -249.465 -177.26 684.305
v -254.196 -176.938 682.334
v -254.196 -176.938 682.334
v -254.196 -176.938 682.334
v -254.269 -177.946 680.635
v -254.269 -177.946 680.635
v -253.643 -177.168 680.211
v -253.353 -180.252 681.419
v -252.669 -181.608 680.707
v -252.669 -181.608 680.707
v -252.782 -180.818 679.663
v -252.918 -188.176 677.826
v -252.918 -188.176 677.826
v -252.556 -189.982 676.971
v -252.957 -189.229 677.198
v -248.192 -177.49 683.634
v -247.305 -177.728 683.426
v -247.305 -177.728 683.426
v -247.305 -177.728 683.426
v -251.653 -175.017 680.339
v -251.653 -175.017 680.339
v -251.653 -175.017 680.339
v -248.48 -182.901 680.218
v -249.502 -181.281 682.227
v -249.502 -181.281 682.227
v -250.948 -186.664 679.548
v -252.211 -186.109 678.262
v -252.211 -186.109 678.262
v -252.602 -186.764 677.27
v -252.304 -186.161 677.324
v -252.304 -186.161 677.324
v -249.545 -190.68 676.827
v -249.545 -190.68 676.827
v -252.274 -190.38 676.149
v -252.274 -190.38 676.149
v -252.274 -190.38 676.149
v -252.418 -189.302 675.413
v -246.718 -179.315 682.726
v -245.936 -178.391 681.534
v -245.936 -178.391 681.534
v -245.936 -178.391 681.534
v -245.936 -178.391 681.534
v -247.923 -175.171 680.24
v -247.923 -175.171 680.24
v -247.923 -175.171 680.24
v -247.923 -175.171 680.24
v -247.285 -176.516 680.181
v -249.065 -175.205 679.853
v -249.065 -175.205 679.853
v -248.464 -184.909 678.773
v -248.388 -185.139 677.749
v -248.687 -189.048 677.788
v -248.458 -189.01 676.016
v -248.458 -189.01 676.016
v -248.458 -189.01 676.016
v -251.081 -189.618 675.01
v -251.081 -189.618 675.01
vn -0.178636 -0.530129 0.828886
vn -0.922359 -0.381846 -0.0587238
vn -0.36132 -0.836322 0.412326
vn -0.113564 0.90053 0.419701
vn -0.0336591 0.811249 0.583732
vn -0.955199 -0.287928 -0.0685045
vn -0.762969 0.590638 -0.262725
vn -0.479886 -0.767499 0.425034
vn -0.894593 -0.416788 -0.161219
vn -0.496182 -0.458334 0.737383
vn -0.948983 -0.297625 -0.10417
vn -0.127536 -0.458617 0.879434
vn -0.629327 -0.147246 0.763064
vn -0.283792 -0.729571 0.622245
vn -0.516773 -0.448857 0.729022
vn -0.982479 -0.175604 -0.0624383
vn 0.361772 -0.0297832 0.931791
vn 0.387585 0.199904 0.899898
vn 0.361511 -0.265805 0.893677
vn -0.702183 0.664795 -0.254925
vn -0.189513 0.410635 -0.891887
vn 0.184365 -0.40414 0.895924
vn 0.663511 -0.412093 0.624445
vn -0.306262 -0.642572 0.702356
vn -0.0629811 0.227776 -0.971674
vn -0.629394 -0.18875 0.753815
vn 0.468194 -0.321118 0.823212
vn -0.737474 -0.15534 0.657269
vn -0.956565 0.290194 0.0277623
vn -0.989161 -0.130011 0.0682497
vn -0.513532 0.394237 -0.762143
vn -0.0323147 -0.765723 0.642359
vn -0.884104 -0.42557 -0.193003
vn -0.850756 0.258763 -0.457444
vn -0.549034 0.30157 -0.779498
vn -0.359541 -0.145617 -0.921697
vn 0.546981 -0.628794 0.552657
vn 0.817273 0.0490305 0.574161
vn 0.310561 0.202327 -0.928771
vn -0.0336591 0.811249 0.583732
vn 0.863522 0.421733 -0.276533
vn 0.168821 0.24428 -0.954896
vn 0.832345 -0.541557 0.117974
vn 0.843273 -0.191742 -0.502122
vn 0.95375 -0.251844 -0.164123
vn 0.733627 0.11238 -0.670196
vn 0.72918 -0.192017 0.65683
vn 0.986114 -0.0642093 -0.153154
vn 0.803495 0.15497 -0.574786
vn 0.587183 -0.305848 0.749449
vn 0.69529 -0.117128 0.709121
vn 0.93514 -0.130836 0.329234
vn 0.999687 -0.0101506 0.0228863
vn 0.42655 0.324105 -0.8444
vn 0.283158 -0.50776 0.813635
vn 0.964344 -0.261103 0.0431857
vn 0.227392 -0.744693 -0.627476
vn -0.0575046 0.205758 -0.976912
vn -0.971732 -0.230522 0.05095
vn -0.348434 0.305302 0.886219
vn -0.903132 -0.428765 -0.0226428
vn -0.348434 0.305302 0.886219
vn 0.217665 -0.15074 0.964313
vn 0.415137 0.735499 0.535446
vn -0.348434 0.305302 0.886219
vn -0.995177 -0.0594517 0.0780312
vn -0.762969 0.590638 -0.262725
vn -0.816694 0.511015 -0.268093
vn -0.485134 0.00428788 -0.874429
vn -0.406903 0.192403 -0.892979
vn -0.596678 -0.738762 0.313379
vn -0.72212 -0.570042 0.391912
vn -0.97719 -0.211882 -0.0143215
vn -0.611787 0.21219 -0.762031
vn -0.907335 -0.190039 0.375005
vn -0.965557 0.247587 0.0800019
vn -0.86523 -0.5 0.0371063
vn -0.900867 -0.34997 0.256827
vn 0.375064 0.75128 0.543052
vn 0.289247 0.277568 0.916129
vn 0.553812 0.698515 0.453176
vn 0.817273 0.0490305 0.574161
vn -0.239851 0.578777 -0.779416
vn 0.0476344 0.688493 0.723677
vn 0.0354406 0.980994 -0.190777
vn 0.954473 -0.288133 0.0772107
vn 0.535476 -0.58735 0.606865
vn 0.148473 -0.472292 0.868847
vn 0.0511303 -0.341287 0.938567
vn -0.981802 -0.157524 0.106073
vn -0.923718 0.362107 0.124994
vn -0.72942 0.443791 -0.520573
vn -0.784998 0.291388 -0.546691
vn -0.89691 0.437459 0.0646724
vn 0.227392 -0.744693 -0.627476
vn 0.855358 -0.508366 0.0996355
vn -0.192519 -0.907494 0.373351
vn 0.0379025 -0.848441 -0.527931
vn -0.35761 -0.558665 -0.748337
vn -0.889837 -0.0797982 -0.449246
vn 0.817273 0.0490305 0.574161
vn 0.739013 0.588097 0.328635
vn 0.863522 0.421733 -0.276533
vn 0.825504 -0.539039 -0.167275
vn 0.718467 0.0151263 -0.695397
vn 0.508175 0.713298 0.482663
vn 0.863522 0.421733 -0.276533
vn 0.352666 0.263914 -0.897762
vn 0.0354406 0.980994 -0.190777
vn 0.509121 0.0988844 -0.854996
vn -0.0778136 0.717656 -0.692036
vn 0.0354406 0.980994 -0.190777
vn 0.992632 -0.0545649 0.108183
vn 0.790641 0.19106 -0.581706
vn 0.893295 -0.382116 0.236666
vn 0.772675 0.247636 -0.584508
vn 0.404015 -0.598811 -0.691518
vn 0.334466 0.160232 -0.928686
vn -0.343826 -0.336836 -0.876541
vn 0.339913 0.0834796 -0.936745
g grp1
usemtl mtl1
f 1//1 3//3 24//24 
f 2//2 61//61 59//59 
f 40//40 5//5 4//4 
f 62//62 65//65 60//60 
f 59//59 66//66 6//6 
f 1//1 22//22 63//63 
f 24//24 22//22 1//1 
f 7//7 68//68 67//67 
f 6//6 2//2 59//59 
f 7//7 67//67 20//20 
f 21//21 70//70 83//83 
f 25//25 69//69 70//70 
f 2//2 9//9 61//61 
f 2//2 6//6 9//9 
f 8//8 10//10 24//24 
f 3//3 8//8 24//24 
f 72//72 8//8 71//71 
f 8//8 3//3 71//71 
f 9//9 6//6 11//11 
f 9//9 11//11 73//73 
f 10//10 28//28 26//26 
f 26//26 28//28 13//13 
f 12//12 26//26 13//13 
f 12//12 15//15 14//14 
f 12//12 13//13 15//15 
f 75//75 16//16 78//78 
f 76//76 29//29 16//16 
f 77//77 78//78 16//16 
f 16//16 29//29 34//34 
f 19//19 22//22 37//37 
f 22//22 17//17 63//63 
f 63//63 17//17 18//18 
f 79//79 106//106 64//64 
f 80//80 18//18 17//17 
f 19//19 17//17 22//22 
f 79//79 81//81 106//106 
f 5//5 40//40 84//84 
f 87//87 23//23 43//43 
f 37//37 87//87 43//43 
f 21//21 25//25 70//70 
f 25//25 74//74 69//69 
f 24//24 10//10 26//26 
f 23//23 87//87 27//27 
f 27//27 88//88 89//89 
f 47//47 23//23 27//27 
f 48//48 86//86 113//113 
f 27//27 89//89 12//12 
f 51//51 27//27 50//50 
f 47//47 27//27 51//51 
f 90//90 73//73 30//30 
f 11//11 30//30 73//73 
f 31//31 93//93 74//74 
f 12//12 50//50 27//27 
f 55//55 50//50 12//12 
f 55//55 12//12 32//32 
f 76//76 91//91 29//29 
f 94//94 29//29 91//91 
f 31//31 92//92 93//93 
f 31//31 34//34 92//92 
f 35//35 34//34 31//31 
f 31//31 58//58 35//35 
f 31//31 54//54 58//58 
f 14//14 32//32 12//12 
f 16//16 33//33 77//77 
f 97//97 32//32 14//14 
f 57//57 95//95 98//98 
f 119//119 99//99 36//36 
f 100//100 16//16 34//34 
f 35//35 100//100 34//34 
f 100//100 33//33 16//16 
f 36//36 35//35 58//58 
f 58//58 119//119 36//36 
f 38//38 82//82 101//101 
f 81//81 102//102 106//106 
f 107//107 103//103 41//41 
f 39//39 25//25 42//42 
f 110//110 25//25 39//39 
f 108//108 110//110 39//39 
f 108//108 39//39 42//42 
f 83//83 111//111 21//21 
f 42//42 25//25 21//21 
f 109//109 112//112 85//85 
f 22//22 87//87 37//37 
f 43//43 104//104 37//37 
f 104//104 43//43 44//44 
f 110//110 105//105 44//44 
f 43//43 86//86 45//45 
f 45//45 44//44 43//43 
f 46//46 25//25 110//110 
f 45//45 48//48 46//46 
f 44//44 46//46 110//110 
f 44//44 45//45 46//46 
f 45//45 86//86 48//48 
f 53//53 48//48 113//113 
f 46//46 48//48 49//49 
f 46//46 49//49 54//54 
f 48//48 114//114 49//49 
f 114//114 54//54 49//49 
f 46//46 54//54 25//25 
f 51//51 50//50 52//52 
f 52//52 50//50 115//115 
f 52//52 47//47 51//51 
f 53//53 113//113 52//52 
f 56//56 52//52 115//115 
f 56//56 115//115 96//96 
f 52//52 56//56 53//53 
f 114//114 116//116 54//54 
f 25//25 31//31 74//74 
f 54//54 31//31 25//25 
f 57//57 117//117 95//95 
f 118//118 58//58 54//54 
f 118//118 120//120 58//58 
