#
# Compatibility version : 3.0
# File ID : FJ4
# Representation ID : BP4083
# Build-up logic : FMA 3.0 part_of
# Concept ID : FMA32642
# English name : Middle phalanx of right second toe
# Bounds(mm): (-108.306000,-220.433000,-1.684800)-(-96.362200,-203.369000,7.086100)
# Volume(cm3): 0.491200
#
v -108.105 -217.689 0.368985
v -107.666 -217.421 -0.182999
v -107.884 -217.803 0.81819
v -107.455 -215.424 -1.30428
v -107.432 -215.029 -1.30991
v -107.109 -215.13 -1.48213
v -106.424 -215.377 -1.58613
v -106.444 -216.111 -1.27198
v -107.705 -215.339 -1.09216
v -107.612 -215.067 -0.966837
v -108.294 -217.295 0.275517
v -107.899 -215.566 0.719559
v -108.306 -217.347 0.606097
v -108.098 -217.022 1.07994
v -106.387 -214.437 -1.33634
v -106.206 -214.832 -1.61944
v -105.923 -214.276 -1.21458
v -107.237 -214.499 -0.755333
v -106.167 -213.409 -0.291564
v -105.691 -211.748 0.301414
v -104.924 -208.703 -0.293394
v -104.706 -208.878 -0.491238
v -104.249 -209.199 -0.502642
v -105.038 -206.056 -0.666841
v -104.677 -207.042 -1.16436
v -104.405 -203.765 -0.325666
v -104.111 -204.087 -0.851746
v -103.398 -203.477 -0.482955
v -102.726 -204.186 -0.958721
v -105.348 -205.198 1.41801
v -105.622 -205.06 2.0742
v -105.323 -204.756 1.5979
v -105.373 -204.785 1.86664
v -105.63 -204.796 2.409
v -105.088 -204.534 2.01423
v -104.839 -204.703 2.9673
v -105.693 -205.967 3.22226
v -105.391 -205.175 4.21233
v -105.541 -206.145 4.04887
v -103.56 -203.511 0.365657
v -107.502 -217.869 0.286233
v -107.736 -217.89 0.55473
v -104.798 -217.642 -0.59795
v -107.985 -217.497 1.18989
v -106.383 -217.333 -0.472724
v -107.128 -217.921 1.81208
v -105.403 -218.099 0.0810957
v -106.763 -216.896 2.60522
v -105.517 -214.68 -1.31624
v -105.605 -213.823 -0.773849
v -103.628 -213.859 -0.475123
v -107.287 -215.36 2.03394
v -105.456 -215.247 2.80204
v -106.069 -212.248 2.08629
v -105.459 -212.939 3.1553
v -104.335 -210.791 -0.346092
v -105.34 -208.581 3.53743
v -104.191 -208.63 5.46322
v -104.328 -207.073 6.00754
v -103.613 -205.505 6.0295
v -103.364 -205.088 5.9219
v -104.685 -218.685 0.116013
v -104.094 -218.803 0.082262
v -105.232 -218.44 0.48219
v -104.976 -218.713 0.603399
v -105.036 -218.795 1.927
v -104.63 -219.283 1.44624
v -104.376 -219.364 1.58578
v -103.83 -219.394 1.19042
v -103.676 -219.334 1.60639
v -103.886 -219.179 2.17415
v -104.725 -218.128 -0.246583
v -104.995 -218.314 0.115638
v -103.667 -216.858 -0.927816
v -103.868 -218.216 -0.512843
v -103.123 -218.765 -0.0435591
v -105.646 -217.297 2.90367
v -101.983 -216.176 -0.496826
v -100.743 -213.351 0.575479
v -99.5685 -209.573 0.536773
v -102.425 -210.121 5.61168
v -103.259 -207.575 6.65043
v -102.413 -205.543 6.5061
v -102.066 -206.714 6.98822
v -103.458 -206.475 6.54399
v -97.5223 -204.561 1.16095
v -99.8332 -203.868 1.33406
v -98.1681 -204.538 2.10266
v -100.864 -220.238 1.01399
v -102.87 -219.478 1.34323
v -102.392 -220.036 2.54737
v -102.45 -220.024 2.90069
v -100.793 -217.548 -0.789324
v -100.952 -218.491 -0.633771
v -100.111 -217.801 -0.658798
v -100.312 -218.752 -0.310676
v -100.92 -219.622 0.316316
v -100.524 -219.809 0.682954
v -100.25 -219.254 0.661309
v -101.875 -219.83 3.32975
v -100.262 -217.136 -0.541064
v -100.817 -216.092 -0.031783
v -100.179 -215.563 2.41461
v -99.5301 -217.52 0.369242
v -99.7441 -216.25 1.31133
v -99.7084 -217.134 1.6899
v -102.632 -214.988 3.59803
v -102.62 -216.582 3.21692
v -101.75 -215.997 3.29012
v -100.938 -215.009 3.13774
v -100.586 -216.365 2.92328
v -100.994 -217.567 3.37689
v -100.161 -214.166 2.432
v -99.6166 -211.52 2.73092
v -101.062 -210.576 5.11127
v -98.4895 -209.37 2.98669
v -97.2666 -205.884 0.611102
v -97.3656 -207.708 0.481586
v -97.4386 -208.085 1.36748
v -96.6106 -206.781 1.13239
v -96.3622 -206.552 3.08471
v -98.4158 -207.25 6.13978
v -97.9139 -206.555 5.99779
v -101.416 -207.893 6.93307
v -99.2436 -206.202 6.2439
v -99.3735 -206.543 6.76585
v -96.5858 -205.552 1.34958
v -96.6017 -205.388 2.29806
v -100.758 -220.411 2.07717
v -101.396 -220.364 2.42829
v -100.971 -220.317 2.64276
v -100.39 -220.061 1.9308
v -100.412 -217.774 2.91121
v -97.075 -207.243 4.73635
v -108.294 -217.295 0.275517
v -108.294 -217.295 0.275517
v -106.167 -213.409 -0.291564
v -105.691 -211.748 0.301414
v -105.691 -211.748 0.301414
v -104.677 -207.042 -1.16436
v -104.677 -207.042 -1.16436
v -104.405 -203.765 -0.325666
v -104.111 -204.087 -0.851746
v -103.398 -203.477 -0.482955
v -102.726 -204.186 -0.958721
v -105.323 -204.756 1.5979
v -105.63 -204.796 2.409
v -105.63 -204.796 2.409
v -105.391 -205.175 4.21233
v -105.605 -213.823 -0.773849
v -106.069 -212.248 2.08629
v -105.459 -212.939 3.1553
v -104.335 -210.791 -0.346092
v -103.364 -205.088 5.9219
v -105.036 -218.795 1.927
v -105.036 -218.795 1.927
v -104.63 -219.283 1.44624
v -104.376 -219.364 1.58578
v -103.886 -219.179 2.17415
v -105.646 -217.297 2.90367
v -100.743 -213.351 0.575479
v -100.743 -213.351 0.575479
v -99.5685 -209.573 0.536773
v -97.5223 -204.561 1.16095
v -100.864 -220.238 1.01399
v -102.87 -219.478 1.34323
v -100.111 -217.801 -0.658798
v -100.111 -217.801 -0.658798
v -100.524 -219.809 0.682954
v -100.25 -219.254 0.661309
v -101.875 -219.83 3.32975
v -101.875 -219.83 3.32975
v -101.875 -219.83 3.32975
v -100.262 -217.136 -0.541064
v -100.817 -216.092 -0.031783
v -99.5301 -217.52 0.369242
v -99.7441 -216.25 1.31133
v -100.994 -217.567 3.37689
v -100.161 -214.166 2.432
v -100.161 -214.166 2.432
v -99.6166 -211.52 2.73092
v -97.3656 -207.708 0.481586
v -96.6106 -206.781 1.13239
v -96.3622 -206.552 3.08471
v -96.3622 -206.552 3.08471
v -97.9139 -206.555 5.99779
v -96.5858 -205.552 1.34958
v -96.6017 -205.388 2.29806
v -96.6017 -205.388 2.29806
v -100.758 -220.411 2.07717
v -100.758 -220.411 2.07717
v -100.971 -220.317 2.64276
v -107.705 -215.339 -1.09216
v -108.306 -217.347 0.606097
v -104.677 -207.042 -1.16436
v -103.398 -203.477 -0.482955
v -102.413 -205.543 6.5061
v -99.8332 -203.868 1.33406
v -102.45 -220.024 2.90069
v -100.312 -218.752 -0.310676
v -100.92 -219.622 0.316316
v -100.938 -215.009 3.13774
v -96.6106 -206.781 1.13239
v -97.9139 -206.555 5.99779
v -99.3735 -206.543 6.76585
v -96.5858 -205.552 1.34958
v -97.075 -207.243 4.73635
v -104.405 -203.765 -0.325666
v -97.5223 -204.561 1.16095
v -97.5223 -204.561 1.16095
v -96.6017 -205.388 2.29806
vn -0.616002 -0.738546 -0.274029
vn -0.371236 -0.550866 -0.747483
vn -0.582435 -0.786627 0.204906
vn -0.438557 -0.237418 -0.866776
vn -0.565328 0.429882 -0.703992
vn -0.30061 0.058752 -0.951936
vn -0.0913365 -0.24125 -0.966155
vn -0.136209 -0.45548 -0.879764
vn -0.647758 -0.206106 -0.733437
vn -0.847545 0.497026 -0.186098
vn -0.593269 -0.386634 -0.706078
vn -0.936082 0.333597 0.111637
vn -0.820717 -0.555678 0.132838
vn -0.864698 0.0563638 0.49912
vn -0.250216 0.655167 -0.712845
vn 0.013348 0.313241 -0.94958
vn 0.0965077 0.618689 -0.779686
vn -0.683216 0.660382 -0.311628
vn -0.330841 0.682176 -0.652059
vn -0.501137 0.381687 -0.776644
vn -0.934841 -0.0388092 -0.35294
vn -0.441001 -0.159031 -0.883305
vn 0.0500192 -0.211772 -0.976038
vn -0.892751 0.133518 -0.430311
vn -0.254019 -0.329382 -0.909385
vn -0.842547 0.299467 -0.447699
vn -0.664993 0.246886 -0.704863
vn -0.168755 0.646868 -0.743696
vn 0.162797 0.220123 -0.961792
vn -0.952607 0.142707 -0.268653
vn -0.940549 0.181585 -0.287045
vn -0.957794 0.186459 -0.218779
vn -0.802765 0.534264 -0.264822
vn -0.703621 0.634167 -0.320546
vn -0.462745 0.881458 0.0943389
vn -0.247358 0.940217 0.234109
vn -0.999143 -0.00864204 0.0404814
vn -0.847385 0.236254 0.475524
vn -0.937207 -0.0323507 0.347271
vn -0.185812 0.970244 0.155243
vn -0.225605 -0.862991 -0.452049
vn -0.34584 -0.930698 -0.119146
vn -0.189843 -0.531755 -0.825346
vn -0.77468 -0.35751 0.521591
vn -0.158639 -0.626918 -0.762763
vn -0.496701 -0.630556 0.596395
vn -0.241159 -0.722321 -0.648147
vn -0.55798 -0.0962921 0.824249
vn 0.297441 0.374513 -0.878219
vn -0.127756 0.547237 -0.82717
vn 0.24104 0.15701 -0.95773
vn -0.717144 0.157223 0.678959
vn -0.269466 0.00858291 0.962972
vn -0.894449 0.334307 0.296985
vn -0.818855 0.138789 0.556968
vn -0.593471 0.350783 -0.724392
vn -0.980586 -0.0362233 0.192717
vn -0.695482 -0.246153 0.675066
vn -0.739638 -0.0190909 0.672734
vn -0.511936 0.385115 0.767859
vn 0.0294871 0.93883 0.343118
vn -0.438328 -0.687293 -0.579221
vn -0.114878 -0.822895 -0.556459
vn -0.465413 -0.782032 -0.414507
vn -0.659631 -0.717523 -0.223713
vn -0.298111 -0.95367 -0.0405373
vn -0.349254 -0.875255 -0.334588
vn -0.421351 -0.773078 0.474146
vn -0.119706 -0.974194 -0.191353
vn -0.035433 -0.978218 0.204536
vn -0.487575 -0.823192 0.290906
vn -0.377136 -0.585989 -0.717207
vn -0.480781 -0.636025 -0.603591
vn 0.111711 -0.0948385 -0.989205
vn -0.15859 -0.552582 -0.818231
vn -0.147443 -0.801892 -0.57899
vn -0.418288 -0.588416 0.691955
vn 0.237337 0.294096 -0.92584
vn 0.340589 0.0991187 -0.934973
vn 0.231938 -0.101535 -0.967417
vn -0.127328 -0.432483 0.892606
vn -0.387894 -0.226944 0.893328
vn -0.213486 0.383919 0.898349
vn -0.119866 0.123285 0.985106
vn -0.415589 0.208959 0.885224
vn 0.47433 0.414498 -0.776661
vn 0.304124 0.813029 -0.49648
vn 0.317984 0.878173 0.357349
vn -0.175824 -0.886043 -0.428969
vn -0.312142 -0.895676 -0.316752
vn -0.397139 -0.905876 -0.147203
vn -0.494218 -0.819113 0.291208
vn 0.13952 0.108623 -0.984243
vn 0.0376123 -0.447319 -0.893583
vn 0.231889 -0.116752 -0.96571
vn 0.209363 -0.516038 -0.830586
vn 0.136048 -0.641644 -0.75484
vn 0.429183 -0.527958 -0.732845
vn 0.828499 -0.497829 -0.256428
vn -0.0984806 -0.878451 0.467574
vn 0.239056 0.372386 -0.896762
vn 0.320842 0.371541 -0.871216
vn 0.826972 0.0518315 0.559849
vn 0.794493 0.366576 -0.484151
vn 0.82062 0.370147 -0.435401
vn 0.951107 -0.0232004 0.30799
vn -0.02406 -0.259602 0.965416
vn -0.127378 -0.0909229 0.987678
vn 0.179678 -0.0295518 0.983282
vn 0.750635 -0.101179 0.652924
vn 0.55562 0.0766334 0.827897
vn -0.0976596 0.00777276 0.99519
vn 0.933841 -0.232595 -0.271735
vn 0.75491 -0.297538 0.584451
vn 0.500069 -0.518846 0.693347
vn 0.774626 -0.624817 0.0977693
vn 0.532934 0.207725 -0.820264
vn 0.312813 -0.104593 -0.944038
vn 0.75854 -0.644956 -0.0929984
vn 0.673684 0.0648359 -0.73617
vn 0.992668 0.0971357 -0.071941
vn 0.482306 -0.411575 0.773296
vn 0.832826 0.330608 0.443959
vn 0.0787263 -0.345178 0.935229
vn 0.254581 0.85743 0.447215
vn 0.238605 -0.0319128 0.970592
vn 0.648265 0.261447 -0.715121
vn 0.78937 0.446891 0.420931
vn 0.637538 -0.747818 -0.185237
vn -0.203817 -0.9768 0.065724
vn 0.704878 -0.35889 0.611838
vn 0.873611 -0.474283 0.108906
vn 0.731568 -0.0976703 0.674736
vn 0.718575 -0.602277 0.347726
vn -0.887092 -0.449958 -0.102985
vn -0.972063 0.231815 -0.0368116
vn -0.943775 0.310739 -0.112823
vn -0.958317 0.259238 -0.120098
vn -0.514917 -0.0595192 -0.855171
vn 0.113892 -0.0715411 -0.990914
vn -0.57066 0.193727 -0.798008
vn -0.304113 0.727379 -0.615171
vn -0.140357 0.487605 -0.861708
vn 0.37076 0.733596 -0.569538
vn 0.304124 0.813029 -0.49648
vn -0.680016 0.733163 -0.0071051
vn -0.993527 0.0958434 0.0609848
vn -0.274994 0.932248 0.235144
vn -0.260227 0.935521 0.23892
vn 0.150326 0.0760975 -0.985703
vn -0.952638 0.277698 -0.123956
vn -0.331108 -0.242502 0.911899
vn 0.0172508 -0.0374568 -0.999149
vn -0.452998 0.466039 0.76
vn -0.757759 -0.648295 -0.0742608
vn -0.377557 -0.698158 0.608298
vn -0.470706 -0.786157 0.400491
vn -0.0423237 -0.996647 0.070028
vn -0.0329595 -0.967402 0.251093
vn -0.138415 0.0355662 0.989735
vn 0.875764 -0.276312 -0.395839
vn 0.891299 0.20435 -0.404755
vn 0.82185 -0.494948 -0.282115
vn 0.232595 0.879382 -0.415435
vn 0.658116 -0.725834 -0.200121
vn -0.107186 -0.972735 0.205666
vn 0.802583 0.275885 -0.528912
vn 0.858383 -0.326322 -0.395844
vn 0.789205 -0.58 -0.20188
vn 0.563835 -0.308242 -0.766209
vn -0.412432 -0.484208 0.771649
vn 0.538599 -0.217615 0.813974
vn -0.100136 0.0182608 0.994806
vn 0.757364 0.441599 -0.48103
vn 0.749272 0.359578 -0.556143
vn 0.958766 -0.262682 -0.10847
vn 0.963713 0.0761909 0.255836
vn 0.531133 0.0208814 0.847031
vn 0.812683 -0.0888431 0.575894
vn 0.943962 0.281478 -0.172351
vn 0.922711 -0.298159 -0.244346
vn 0.726755 -0.651513 -0.21762
vn 0.830876 -0.546412 -0.105254
vn 0.810518 -0.585528 0.0147734
vn 0.832826 0.330608 0.443959
vn 0.30714 0.821248 0.48085
vn 0.732674 0.672584 -0.104014
vn 0.326683 0.858826 0.394583
vn 0.981494 0.190776 -0.0165339
vn -0.0664687 -0.997689 0.0140928
vn 0.713479 -0.59638 0.367802
vn -0.0559927 -0.946971 0.316403
vn -0.920373 0.351706 -0.170931
vn -0.961355 0.109062 0.252788
vn -0.825183 -0.161172 -0.541385
vn -0.099625 0.994818 0.020319
vn 0.216862 0.857941 0.465733
vn 0.14802 0.962904 0.225624
vn -0.0652044 -0.873544 0.482357
vn 0.79293 -0.489791 -0.362446
vn 0.590766 -0.700898 -0.399672
vn 0.246678 -0.233009 0.940668
vn 0.991965 0.00233355 -0.126487
vn 0.578175 -0.259384 0.773585
vn 0.260278 0.777231 0.572858
vn 0.992668 0.0971357 -0.071941
vn 0.863005 0.209056 0.45991
vn -0.478295 0.87595 0.0628162
vn 0.364943 0.90265 0.22812
vn 0.732674 0.672584 -0.104014
vn 0.732674 0.672584 -0.104014
g grp1
usemtl mtl1
f 11//11 2//2 1//1 
f 1//1 13//13 135//135 
f 1//1 41//41 42//42 
f 3//3 1//1 42//42 
f 1//1 2//2 41//41 
f 3//3 13//13 1//1 
f 3//3 44//44 13//13 
f 5//5 6//6 4//4 
f 4//4 9//9 5//5 
f 193//193 10//10 5//5 
f 2//2 9//9 4//4 
f 7//7 4//4 6//6 
f 2//2 8//8 45//45 
f 8//8 2//2 4//4 
f 74//74 8//8 7//7 
f 8//8 4//4 7//7 
f 74//74 7//7 16//16 
f 193//193 12//12 10//10 
f 2//2 11//11 9//9 
f 136//136 12//12 193//193 
f 12//12 136//136 194//194 
f 44//44 14//14 194//194 
f 194//194 14//14 12//12 
f 14//14 44//44 48//48 
f 12//12 14//14 52//52 
f 18//18 5//5 10//10 
f 16//16 6//6 5//5 
f 16//16 7//7 6//6 
f 15//15 16//16 5//5 
f 18//18 15//15 5//5 
f 19//19 15//15 18//18 
f 17//17 49//49 16//16 
f 15//15 17//17 16//16 
f 17//17 15//15 19//19 
f 17//17 50//50 49//49 
f 19//19 50//50 17//17 
f 12//12 18//18 10//10 
f 12//12 54//54 18//18 
f 19//19 18//18 54//54 
f 56//56 50//50 20//20 
f 19//19 20//20 50//50 
f 137//137 151//151 138//138 
f 22//22 139//139 21//21 
f 23//23 22//22 25//25 
f 153//153 139//139 22//22 
f 153//153 22//22 23//23 
f 21//21 138//138 57//57 
f 118//118 140//140 29//29 
f 195//195 22//22 21//21 
f 195//195 21//21 24//24 
f 118//118 23//23 140//140 
f 21//21 30//30 24//24 
f 21//21 57//57 37//37 
f 30//30 32//32 24//24 
f 26//26 27//27 24//24 
f 32//32 26//26 24//24 
f 24//24 27//27 141//141 
f 28//28 29//29 143//143 
f 142//142 28//28 143//143 
f 196//196 208//208 40//40 
f 140//140 143//143 29//29 
f 145//145 144//144 87//87 
f 146//146 35//35 208//208 
f 208//208 35//35 40//40 
f 21//21 31//31 30//30 
f 21//21 37//37 31//31 
f 30//30 33//33 32//32 
f 30//30 31//31 33//33 
f 31//31 34//34 33//33 
f 31//31 37//37 147//147 
f 146//146 33//33 35//35 
f 33//33 34//34 35//35 
f 148//148 36//36 35//35 
f 40//40 35//35 61//61 
f 147//147 37//37 38//38 
f 37//37 39//39 38//38 
f 148//148 149//149 36//36 
f 39//39 59//59 38//38 
f 198//198 196//196 40//40 
f 40//40 61//61 198//198 
f 41//41 66//66 42//42 
f 42//42 66//66 3//3 
f 46//46 3//3 66//66 
f 3//3 46//46 44//44 
f 45//45 8//8 43//43 
f 8//8 74//74 43//43 
f 47//47 45//45 43//43 
f 47//47 72//72 73//73 
f 64//64 47//47 73//73 
f 72//72 47//47 43//43 
f 75//75 43//43 74//74 
f 48//48 44//44 46//46 
f 47//47 2//2 45//45 
f 41//41 2//2 47//47 
f 64//64 41//41 47//47 
f 14//14 48//48 52//52 
f 53//53 52//52 48//48 
f 46//46 77//77 48//48 
f 160//160 53//53 48//48 
f 74//74 16//16 49//49 
f 74//74 49//49 51//51 
f 51//51 49//49 50//50 
f 54//54 12//12 52//52 
f 52//52 55//55 54//54 
f 53//53 152//152 52//52 
f 150//150 153//153 51//51 
f 57//57 138//138 151//151 
f 54//54 55//55 58//58 
f 51//51 153//153 80//80 
f 80//80 153//153 23//23 
f 57//57 54//54 58//58 
f 80//80 23//23 118//118 
f 37//37 57//57 39//39 
f 59//59 39//39 57//57 
f 58//58 59//59 57//57 
f 35//35 36//36 61//61 
f 60//60 38//38 59//59 
f 36//36 149//149 61//61 
f 38//38 60//60 154//154 
f 85//85 83//83 60//60 
f 83//83 154//154 60//60 
f 85//85 60//60 59//59 
f 62//62 64//64 73//73 
f 72//72 75//75 62//62 
f 75//75 63//63 62//62 
f 62//62 63//63 67//67 
f 76//76 69//69 67//67 
f 67//67 65//65 62//62 
f 65//65 64//64 62//62 
f 64//64 66//66 41//41 
f 67//67 155//155 65//65 
f 155//155 64//64 65//65 
f 68//68 156//156 157//157 
f 67//67 69//69 158//158 
f 156//156 68//68 71//71 
f 70//70 158//158 69//69 
f 76//76 90//90 69//69 
f 166//166 70//70 69//69 
f 70//70 159//159 158//158 
f 159//159 70//70 166//166 
f 74//74 78//78 93//93 
f 73//73 72//72 62//62 
f 75//75 72//72 43//43 
f 63//63 75//75 76//76 
f 63//63 76//76 67//67 
f 71//71 77//77 156//156 
f 156//156 77//77 46//46 
f 160//160 108//108 53//53 
f 74//74 51//51 78//78 
f 78//78 51//51 79//79 
f 78//78 79//79 102//102 
f 152//152 53//53 108//108 
f 152//152 108//108 107//107 
f 107//107 81//81 152//152 
f 80//80 79//79 51//51 
f 113//113 161//161 163//163 
f 81//81 58//58 152//152 
f 82//82 85//85 59//59 
f 59//59 58//58 82//82 
f 82//82 58//58 81//81 
f 81//81 124//124 82//82 
f 117//117 118//118 29//29 
f 117//117 29//29 86//86 
f 84//84 85//85 82//82 
f 84//84 83//83 85//85 
f 126//126 83//83 84//84 
f 124//124 84//84 82//82 
f 124//124 126//126 84//84 
f 117//117 86//86 127//127 
f 145//145 87//87 164//164 
f 209//209 198//198 88//88 
f 61//61 88//88 198//198 
f 97//97 76//76 94//94 
f 89//89 76//76 97//97 
f 90//90 76//76 89//89 
f 97//97 98//98 89//89 
f 165//165 132//132 129//129 
f 190//190 130//130 89//89 
f 89//89 130//130 90//90 
f 165//165 169//169 132//132 
f 71//71 90//90 91//91 
f 91//91 92//92 71//71 
f 77//77 71//71 92//92 
f 90//90 130//130 91//91 
f 91//91 130//130 92//92 
f 100//100 199//199 130//130 
f 92//92 171//171 77//77 
f 78//78 101//101 93//93 
f 101//101 78//78 102//102 
f 74//74 93//93 94//94 
f 94//94 75//75 74//74 
f 93//93 101//101 95//95 
f 93//93 95//95 94//94 
f 167//167 174//174 104//104 
f 94//94 95//95 96//96 
f 176//176 200//200 168//168 
f 99//99 200//200 176//176 
f 75//75 94//94 76//76 
f 97//97 94//94 96//96 
f 201//201 200//200 99//99 
f 170//170 98//98 97//97 
f 132//132 169//169 99//99 
f 132//132 176//176 106//106 
f 112//112 108//108 160//160 
f 133//133 172//172 131//131 
f 160//160 173//173 112//112 
f 133//133 178//178 172//172 
f 174//174 175//175 105//105 
f 104//104 174//174 105//105 
f 105//105 175//175 162//162 
f 106//106 177//177 103//103 
f 179//179 110//110 103//103 
f 176//176 177//177 106//106 
f 103//103 133//133 106//106 
f 107//107 108//108 109//109 
f 202//202 107//107 109//109 
f 109//109 108//108 112//112 
f 111//111 109//109 178//178 
f 110//110 111//111 103//103 
f 111//111 202//202 109//109 
f 133//133 111//111 178//178 
f 133//133 103//103 111//111 
f 162//162 180//180 105//105 
f 177//177 179//179 103//103 
f 202//202 81//81 107//107 
f 110//110 179//179 114//114 
f 113//113 163//163 181//181 
f 181//181 163//163 116//116 
f 114//114 115//115 110//110 
f 202//202 115//115 81//81 
f 119//119 163//163 182//182 
f 116//116 163//163 119//119 
f 114//114 116//116 115//115 
f 119//119 134//134 116//116 
f 115//115 116//116 134//134 
f 81//81 115//115 124//124 
f 120//120 118//118 117//117 
f 127//127 120//120 117//117 
f 203//203 206//206 121//121 
f 119//119 183//183 184//184 
f 182//182 183//183 119//119 
f 119//119 184//184 134//134 
f 207//207 185//185 123//123 
f 123//123 185//185 128//128 
f 125//125 188//188 61//61 
f 186//186 188//188 125//125 
f 186//186 125//125 205//205 
f 122//122 115//115 134//134 
f 122//122 134//134 204//204 
f 126//126 122//122 204//204 
f 61//61 197//197 125//125 
f 205//205 125//125 197//197 
f 115//115 122//122 124//124 
f 124//124 122//122 126//126 
f 187//187 210//210 211//211 
f 88//88 188//188 209//209 
f 121//121 206//206 189//189 
f 61//61 188//188 88//88 
f 191//191 132//132 131//131 
f 130//130 190//190 192//192 
f 130//130 192//192 100//100 
f 176//176 132//132 99//99 
f 133//133 132//132 106//106 
f 132//132 133//133 131//131 
