#
# Compatibility version : 3.0
# File ID : FJ501
# Representation ID : BP4356
# Build-up logic : FMA 3.0 part_of
# Concept ID : FMA23951
# English name : Distal phalanx of left thumb
# Bounds(mm): (309.568000,-169.572000,729.447000)-(323.315000,-154.114000,752.607000)
# Volume(cm3): 0.787400
#
v 309.568 -156.775 744.962
v 313.676 -162.826 752.075
v 312.669 -160.472 752.29
v 313.135 -160.243 752.073
v 312.027 -160.281 751.599
v 310.845 -157.285 749.295
v 311.575 -157.721 750.127
v 313.675 -163.648 749.566
v 313.724 -163.667 750.858
v 312.931 -162.717 750.766
v 312.174 -160.158 747.688
v 310.829 -157.923 748.829
v 310.406 -155.532 746.017
v 309.952 -156.217 746.069
v 310.286 -157.373 746.218
v 309.897 -155.8 744.015
v 310.084 -155.41 744.866
v 310.407 -155.291 743.619
v 310.728 -158.305 743.896
v 310.508 -157.377 742.781
v 311.702 -157.658 742.029
v 310.021 -156.237 743.52
v 311.035 -156.187 742.646
v 313.148 -159.677 741.521
v 313.584 -161.079 741.494
v 313.347 -160.271 741.092
v 312.282 -158.676 742.289
v 312.274 -158.258 741.752
v 312.382 -157.851 741.617
v 313.699 -161.828 741.073
v 313.476 -160.962 740.669
v 314.186 -162.502 752.488
v 314.386 -163.045 752.244
v 314.674 -162.055 752.607
v 315.004 -162.881 752.287
v 314.482 -163.483 751.751
v 315.061 -164.406 750.164
v 315.098 -163.504 751.799
v 315.523 -163.279 751.749
v 314.804 -164.1 748.359
v 315.196 -164.628 749.492
v 315.776 -164.538 749.848
v 315.802 -164.528 748.272
v 316.349 -164.344 748.905
v 314.852 -163.719 747.141
v 311.508 -154.114 744.87
v 316.849 -164.574 746.719
v 313.287 -160.257 743.219
v 311.709 -154.683 743.212
v 316.411 -165.147 744.965
v 314.638 -163.163 743.422
v 313.476 -159.383 740.53
v 314.588 -158.127 741.153
v 315.394 -164.473 742.06
v 314.292 -162.268 739.615
v 317.469 -166.426 739.36
v 315.57 -161.259 737.718
v 316.534 -163.802 735.79
v 316.582 -162.813 735.453
v 317.541 -160.299 751.617
v 316.357 -154.73 749.181
v 317.186 -162.891 749.796
v 318.378 -161.224 746.336
v 315.445 -154.437 744.86
v 317.261 -163.711 747.25
v 316.895 -157.874 743.005
v 318.178 -164.996 743.559
v 319.063 -166.15 741.177
v 319.011 -164.587 742.542
v 317.735 -166.418 740.698
v 318.901 -167.181 739.865
v 319.583 -167.392 739.486
v 319.876 -167.193 739.437
v 318.252 -161.235 738.027
v 320.379 -168.894 737.527
v 319.809 -168.172 738.5
v 320.071 -168.001 738.7
v 316.92 -162.375 735.652
v 317.819 -162.708 734.848
v 320.627 -169.004 735.077
v 317.288 -164.33 732.844
v 318.751 -163.409 732.938
v 317.67 -163.656 732.433
v 320.046 -168.512 732.643
v 317.647 -165.322 732.795
v 317.785 -164.012 731.947
v 318.346 -165.549 731.637
v 319.123 -164.219 731.221
v 318.274 -163.583 732.264
v 319.874 -165.729 729.888
v 320.371 -166.62 729.761
v 318.481 -158.036 750.028
v 318.399 -159.782 748.294
v 318.212 -156.886 747.368
v 318.348 -159.095 745.308
v 319.829 -162.758 740.005
v 319.471 -161.856 739.148
v 320.882 -166.71 738.249
v 321.073 -168.228 737.669
v 321.604 -169.07 735.971
v 321.793 -169.381 735.363
v 322.06 -169.247 735.348
v 322.551 -168.344 735.162
v 322.359 -166.655 734.433
v 319.616 -163.555 733.76
v 319.538 -163.771 732.639
v 321.563 -169.506 733.147
v 322.144 -169.465 733.589
v 322.466 -169.401 733.565
v 322.507 -169.572 733.003
v 322.511 -169.567 732.686
v 323.055 -168.769 733.172
v 322.994 -169.125 732.586
v 323.221 -168.101 732.974
v 319.602 -163.876 732.042
v 321.644 -165.145 732.108
v 321.484 -168.531 731.546
v 323.315 -168.443 732.063
v 323.094 -168.376 731.575
v 322.981 -168.114 731.347
v 320.91 -167.592 730.27
v 321.359 -167.856 730.423
v 321.286 -167.354 729.72
v 321.957 -167.862 730.417
v 322.125 -167.086 729.774
v 322.91 -167.927 731.193
v 323.122 -167.781 731.483
v 322.981 -167.223 731.353
v 322.6 -166.463 731.027
v 323.003 -167.596 731.074
v 322.966 -167.162 730.606
v 322.879 -167.591 730.436
v 322.8 -167.036 730.223
v 321.303 -165.387 730.061
v 321.613 -166.382 729.447
v 323.222 -167.753 732.182
v 309.568 -156.775 744.962
v 312.669 -160.472 752.29
v 311.575 -157.721 750.127
v 310.508 -157.377 742.781
v 311.702 -157.658 742.029
v 315.802 -164.528 748.272
v 316.349 -164.344 748.905
v 311.508 -154.114 744.87
v 316.849 -164.574 746.719
v 311.709 -154.683 743.212
v 316.411 -165.147 744.965
v 313.476 -159.383 740.53
v 315.539 -161.298 737.7
v 315.653 -161.343 737.635
v 317.541 -160.299 751.617
v 316.357 -154.73 749.181
v 316.357 -154.73 749.181
v 315.445 -154.437 744.86
v 317.735 -166.418 740.698
v 318.901 -167.181 739.865
v 320.379 -168.894 737.527
v 320.379 -168.894 737.527
v 319.809 -168.172 738.5
v 317.785 -164.012 731.947
v 319.874 -165.729 729.888
v 319.874 -165.729 729.888
v 320.371 -166.62 729.761
v 318.481 -158.036 750.028
v 318.481 -158.036 750.028
v 321.69 -169.07 735.867
v 321.69 -169.07 735.867
v 322.507 -169.572 733.003
v 322.511 -169.567 732.686
v 322.511 -169.567 732.686
v 323.315 -168.443 732.063
v 323.094 -168.376 731.575
v 323.094 -168.376 731.575
v 321.957 -167.862 730.417
v 321.957 -167.862 730.417
v 321.957 -167.862 730.417
v 322.125 -167.086 729.774
v 322.91 -167.927 731.193
v 322.879 -167.591 730.436
v 322.879 -167.591 730.436
v 322.8 -167.036 730.223
v 322.8 -167.036 730.223
v 321.613 -166.382 729.447
v 321.613 -166.382 729.447
v 321.613 -166.382 729.447
v 312.027 -160.281 751.599
v 310.845 -157.285 749.295
v 310.845 -157.285 749.295
v 309.952 -156.217 746.069
v 315.196 -164.628 749.492
v 311.709 -154.683 743.212
v 311.709 -154.683 743.212
vn -0.888594 -0.203764 0.410952
vn -0.577339 -0.543352 0.609465
vn -0.225566 0.16618 0.95995
vn 0.076597 0.618108 0.782353
vn -0.872858 -0.345184 0.344915
vn -0.957546 -0.153775 0.243844
vn -0.0601427 0.605279 0.793738
vn -0.705139 -0.698169 -0.123849
vn -0.559746 -0.781738 0.274901
vn -0.845936 -0.513092 0.145358
vn -0.820676 -0.560111 -0.112985
vn -0.934709 -0.349308 0.065589
vn -0.679712 0.643853 0.351348
vn -0.944106 -0.201168 0.261143
vn -0.878189 -0.449778 0.16274
vn -0.897362 0.373972 -0.23428
vn -0.811897 0.577869 0.0830082
vn -0.664628 0.597049 -0.449223
vn -0.738634 -0.6482 -0.185088
vn -0.762983 -0.469297 -0.444541
vn -0.656925 -0.514875 -0.550775
vn -0.822446 0.164222 -0.544622
vn -0.443205 0.315354 -0.839119
vn -0.889546 -0.380446 -0.252919
vn -0.948765 -0.302018 0.0928971
vn -0.978334 -0.192472 -0.0762659
vn -0.705371 -0.57446 -0.415268
vn -0.763541 -0.330576 -0.554729
vn -0.427553 0.20144 -0.881261
vn -0.92895 -0.370149 0.00651151
vn -0.949291 -0.167598 -0.266002
vn -0.188035 -0.321589 0.928021
vn -0.13149 -0.615789 0.776862
vn 0.110163 -0.060119 0.992094
vn 0.267922 -0.409731 0.871974
vn -0.24184 -0.80997 0.534286
vn -0.232232 -0.917724 0.322259
vn 0.143609 -0.754448 0.640456
vn 0.565769 -0.537377 0.625405
vn -0.483244 -0.837343 -0.255602
vn -0.498821 -0.860796 -0.101033
vn 0.360793 -0.874393 0.324447
vn -0.533837 -0.836363 -0.124557
vn 0.244084 -0.967208 0.0702282
vn -0.708961 -0.686442 -0.161775
vn -0.562558 0.809315 0.168933
vn 0.245481 -0.947912 0.202983
vn -0.848894 -0.510189 -0.138156
vn -0.312065 0.453794 -0.834677
vn 0.287285 -0.898905 0.330813
vn -0.887987 -0.459841 0.0049732
vn -0.869671 -0.11447 -0.480177
vn 0.0487479 0.634474 -0.771406
vn -0.760383 -0.64878 -0.0300376
vn -0.882196 -0.260893 -0.392
vn -0.583448 -0.805072 0.106988
vn -0.0787142 0.782888 -0.617163
vn -0.917161 -0.309101 -0.251539
vn -0.837413 0.277777 -0.470721
vn 0.118751 0.485591 0.866083
vn -0.101177 0.620346 0.777775
vn 0.84226 -0.447964 0.299877
vn 0.970467 -0.115563 0.211753
vn 0.0806793 0.987577 -0.134846
vn 0.858684 -0.438558 0.265196
vn 0.663967 0.631689 -0.400146
vn 0.59583 -0.680094 0.427152
vn 0.384739 -0.724035 0.572493
vn 0.853806 -0.295906 0.428317
vn 0.0070544 -0.880877 0.473293
vn -0.507078 -0.8437 0.17619
vn 0.312802 -0.683067 0.65998
vn 0.64093 -0.440845 0.628383
vn 0.278492 0.860784 -0.42602
vn 0.367519 -0.71786 0.591276
vn 0.0487684 -0.790334 0.610732
vn 0.305663 -0.681095 0.665342
vn -0.170573 0.882403 -0.438486
vn 0.176613 0.934117 -0.310213
vn -0.395623 -0.912818 0.101218
vn -0.923576 -0.0558053 -0.379332
vn 0.210822 0.944444 -0.252149
vn -0.624654 0.614451 -0.481931
vn -0.624132 -0.730009 -0.278471
vn -0.855489 -0.453343 -0.250237
vn -0.843235 -0.0287081 -0.536778
vn -0.784233 -0.348719 -0.513199
vn -0.064719 0.759673 -0.647077
vn -0.0615645 0.88041 -0.470201
vn -0.744042 -0.233979 -0.625824
vn -0.656502 -0.527464 -0.539246
vn 0.980202 -0.165091 0.109308
vn 0.98765 -0.134221 0.0808197
vn 0.908709 0.397347 -0.127922
vn 0.961091 0.271008 -0.0534624
vn 0.964497 0.188335 0.185134
vn 0.803367 0.589324 -0.0854317
vn 0.874428 -0.0479502 0.48278
vn 0.692727 -0.425569 0.582254
vn 0.691985 -0.479383 0.539767
vn 0.069352 -0.966266 0.248031
vn 0.685317 -0.611029 0.396212
vn 0.895714 -0.133533 0.424104
vn 0.912675 0.35701 0.198919
vn 0.346303 0.890076 -0.296378
vn 0.418471 0.894834 -0.155418
vn -0.242932 -0.963882 -0.109162
vn 0.0991095 -0.983859 0.148994
vn 0.509552 -0.832891 0.215986
vn 0.0303249 -0.988661 0.147068
vn -0.0722731 -0.997246 -0.0166554
vn 0.879564 -0.414747 0.233134
vn 0.765051 -0.636083 -0.100473
vn 0.976244 0.0811162 0.200915
vn 0.325576 0.901648 -0.28466
vn 0.638917 0.75678 -0.138092
vn -0.195335 -0.801001 -0.565899
vn 0.678778 -0.620577 -0.392613
vn 0.0873604 -0.795185 -0.600041
vn 0.712195 -0.26268 -0.650981
vn -0.452346 -0.720777 -0.525227
vn -0.164379 -0.865917 -0.472406
vn -0.107848 -0.61058 -0.784577
vn -0.456841 -0.668125 -0.587286
vn 0.210863 -0.548722 -0.808975
vn 0.816187 -0.316885 -0.483139
vn 0.933449 -0.026421 -0.357736
vn 0.944523 0.327253 -0.0279543
vn 0.823731 0.56183 -0.0762464
vn 0.971758 -0.116447 -0.205246
vn 0.967717 0.193078 -0.162001
vn 0.241122 -0.7799 -0.577596
vn 0.743977 0.578095 -0.335117
vn 0.429769 0.739671 -0.517865
vn -0.0984617 -0.176523 -0.979359
vn 0.959672 0.281118 0.00158235
vn -0.989534 -0.0988632 -0.105115
vn -0.662798 0.281862 0.693724
vn -0.648878 0.289934 0.703488
vn -0.578715 0.165781 -0.798502
vn -0.514426 0.046867 -0.856253
vn 0.236871 -0.967186 0.0918914
vn 0.775329 -0.577232 0.256257
vn 0.0806793 0.987577 -0.134846
vn 0.760381 -0.556173 0.335398
vn 0.0767998 0.94588 -0.315297
vn -0.588905 -0.805756 0.0628356
vn -0.230733 0.588637 -0.77477
vn -0.846678 0.0413939 -0.530493
vn -0.45686 0.635377 -0.622556
vn 0.70077 -0.330238 0.632348
vn 0.0817903 0.995383 0.050232
vn 0.769894 0.637483 0.0296428
vn 0.591761 0.643039 -0.486127
vn -0.493519 -0.863599 0.103129
vn 0.0537271 -0.777874 0.62612
vn -0.0883815 -0.995445 0.0357474
vn -0.585493 -0.805198 0.0940915
vn -0.504822 -0.815717 0.282419
vn -0.281514 0.674061 -0.682928
vn -0.143965 0.568415 -0.810048
vn -0.245323 0.00135235 -0.96944
vn -0.225773 -0.10012 -0.969021
vn 0.349439 0.436859 0.828883
vn 0.811055 0.562349 0.161103
vn -0.238062 -0.940687 0.241732
vn 0.401766 -0.740374 0.538916
vn 0.748822 -0.640668 0.169735
vn -0.107624 -0.782086 -0.613806
vn 0.627658 -0.740332 -0.240736
vn 0.995961 -0.0762708 -0.0473693
vn 0.613531 -0.662329 -0.429999
vn 0.784515 -0.212414 -0.582594
vn 0.0926788 -0.87315 -0.478559
vn 0.565965 -0.387111 -0.727893
vn 0.144591 -0.814945 -0.561211
vn 0.556178 -0.107907 -0.824028
vn 0.266008 -0.876997 -0.400145
vn 0.951408 -0.160195 -0.262984
vn 0.55083 -0.229478 -0.80245
vn 0.556178 -0.107907 -0.824028
vn 0.914187 -0.0250672 -0.404516
vn 0.553032 0.0153129 -0.833019
vn -0.0211599 0.520213 -0.853774
vn 0.64862 0.535691 -0.540673
vn -0.648878 0.289934 0.703488
vn -0.634728 0.297903 0.713003
vn -0.486625 0.707777 0.512102
vn -0.832722 0.483172 0.270405
vn 0.0585927 -0.986344 0.153923
vn -0.482603 0.808795 -0.336074
vn 0.270313 0.65039 -0.709876
g grp1
usemtl mtl1
f 14//14 1//1 15//15 
f 189//189 17//17 137//137 
f 15//15 137//137 19//19 
f 3//3 5//5 2//2 
f 5//5 10//10 2//2 
f 32//32 2//2 33//33 
f 32//32 3//3 2//2 
f 36//36 33//33 2//2 
f 10//10 5//5 12//12 
f 3//3 4//4 7//7 
f 3//3 60//60 4//4 
f 5//5 6//6 12//12 
f 138//138 139//139 186//186 
f 139//139 187//187 186//186 
f 188//188 7//7 61//61 
f 61//61 46//46 188//188 
f 9//9 2//2 10//10 
f 10//10 8//8 9//9 
f 9//9 36//36 2//2 
f 8//8 37//37 9//9 
f 10//10 12//12 8//8 
f 12//12 15//15 11//11 
f 12//12 6//6 14//14 
f 12//12 14//14 15//15 
f 13//13 189//189 188//188 
f 13//13 188//188 46//46 
f 45//45 40//40 8//8 
f 12//12 11//11 8//8 
f 8//8 11//11 45//45 
f 19//19 11//11 15//15 
f 48//48 11//11 19//19 
f 16//16 137//137 17//17 
f 189//189 13//13 17//17 
f 16//16 18//18 22//22 
f 23//23 22//22 18//18 
f 16//16 17//17 18//18 
f 46//46 17//17 13//13 
f 49//49 23//23 18//18 
f 18//18 17//17 46//46 
f 46//46 191//191 18//18 
f 146//146 144//144 64//64 
f 48//48 51//51 11//11 
f 11//11 51//51 45//45 
f 48//48 19//19 27//27 
f 27//27 19//19 20//20 
f 19//19 137//137 20//20 
f 16//16 22//22 137//137 
f 137//137 22//22 20//20 
f 27//27 20//20 21//21 
f 22//22 23//23 140//140 
f 141//141 140//140 23//23 
f 51//51 25//25 30//30 
f 27//27 28//28 24//24 
f 52//52 24//24 28//28 
f 48//48 24//24 26//26 
f 24//24 52//52 26//26 
f 25//25 48//48 26//26 
f 30//30 25//25 26//26 
f 26//26 31//31 30//30 
f 52//52 31//31 26//26 
f 28//28 27//27 21//21 
f 141//141 23//23 29//29 
f 29//29 52//52 28//28 
f 29//29 28//28 141//141 
f 148//148 29//29 53//53 
f 31//31 55//55 30//30 
f 32//32 34//34 3//3 
f 38//38 33//33 36//36 
f 32//32 35//35 34//34 
f 35//35 32//32 33//33 
f 33//33 38//38 35//35 
f 35//35 38//38 39//39 
f 35//35 39//39 151//151 
f 35//35 151//151 34//34 
f 62//62 151//151 39//39 
f 34//34 60//60 3//3 
f 60//60 7//7 4//4 
f 37//37 36//36 9//9 
f 41//41 37//37 8//8 
f 42//42 38//38 37//37 
f 38//38 36//36 37//37 
f 37//37 190//190 42//42 
f 39//39 38//38 42//42 
f 42//42 62//62 39//39 
f 8//8 40//40 41//41 
f 43//43 41//41 40//40 
f 42//42 190//190 142//142 
f 45//45 43//43 40//40 
f 142//142 44//44 42//42 
f 44//44 142//142 47//47 
f 143//143 62//62 42//42 
f 143//143 145//145 65//65 
f 50//50 47//47 142//142 
f 53//53 23//23 49//49 
f 154//154 53//53 192//192 
f 68//68 50//50 70//70 
f 67//67 50//50 68//68 
f 43//43 45//45 54//54 
f 45//45 51//51 54//54 
f 43//43 54//54 147//147 
f 54//54 51//51 30//30 
f 24//24 48//48 27//27 
f 48//48 25//25 51//51 
f 23//23 53//53 29//29 
f 155//155 147//147 56//56 
f 56//56 147//147 54//54 
f 55//55 54//54 30//30 
f 54//54 55//55 84//84 
f 31//31 52//52 55//55 
f 57//57 148//148 53//53 
f 74//74 57//57 53//53 
f 54//54 84//84 56//56 
f 55//55 52//52 149//149 
f 59//59 55//55 149//149 
f 78//78 59//59 150//150 
f 55//55 58//58 84//84 
f 55//55 59//59 58//58 
f 59//59 81//81 58//58 
f 59//59 83//83 81//81 
f 59//59 78//78 83//83 
f 84//84 58//58 85//85 
f 58//58 81//81 85//85 
f 60//60 61//61 7//7 
f 62//62 93//93 92//92 
f 92//92 151//151 62//62 
f 64//64 144//144 152//152 
f 65//65 62//62 143//143 
f 62//62 65//65 93//93 
f 65//65 63//63 93//93 
f 94//94 154//154 153//153 
f 94//94 66//66 154//154 
f 65//65 145//145 69//69 
f 69//69 63//63 65//65 
f 69//69 96//96 63//63 
f 47//47 50//50 67//67 
f 145//145 67//67 69//69 
f 66//66 74//74 53//53 
f 154//154 66//66 53//53 
f 68//68 69//69 67//67 
f 155//155 56//56 71//71 
f 70//70 156//156 68//68 
f 68//68 156//156 72//72 
f 77//77 72//72 156//156 
f 73//73 68//68 72//72 
f 73//73 72//72 77//77 
f 73//73 69//69 68//68 
f 74//74 78//78 57//57 
f 99//99 75//75 100//100 
f 166//166 157//157 80//80 
f 158//158 56//56 84//84 
f 77//77 156//156 76//76 
f 159//159 71//71 56//56 
f 56//56 158//158 159//159 
f 77//77 76//76 75//75 
f 77//77 99//99 73//73 
f 99//99 77//77 75//75 
f 73//73 99//99 98//98 
f 74//74 79//79 78//78 
f 74//74 105//105 79//79 
f 82//82 78//78 79//79 
f 89//89 78//78 82//82 
f 82//82 115//115 89//89 
f 106//106 79//79 105//105 
f 82//82 79//79 106//106 
f 82//82 106//106 115//115 
f 80//80 158//158 84//84 
f 84//84 107//107 80//80 
f 91//91 84//84 87//87 
f 87//87 85//85 81//81 
f 81//81 83//83 86//86 
f 87//87 81//81 86//86 
f 84//84 85//85 87//87 
f 89//89 83//83 78//78 
f 160//160 83//83 89//89 
f 90//90 87//87 86//86 
f 88//88 160//160 89//89 
f 161//161 160//160 88//88 
f 89//89 115//115 88//88 
f 134//134 88//88 115//115 
f 121//121 84//84 91//91 
f 91//91 87//87 90//90 
f 61//61 60//60 164//164 
f 165//165 94//94 153//153 
f 92//92 93//93 94//94 
f 93//93 63//63 95//95 
f 93//93 95//95 94//94 
f 95//95 66//66 94//94 
f 63//63 96//96 95//95 
f 66//66 95//95 97//97 
f 95//95 96//96 97//97 
f 97//97 74//74 66//66 
f 73//73 98//98 69//69 
f 69//69 104//104 96//96 
f 97//97 116//116 74//74 
f 96//96 104//104 97//97 
f 99//99 100//100 103//103 
f 103//103 98//98 99//99 
f 69//69 98//98 104//104 
f 116//116 105//105 74//74 
f 116//116 97//97 104//104 
f 101//101 166//166 80//80 
f 103//103 100//100 102//102 
f 102//102 167//167 101//101 
f 98//98 103//103 104//104 
f 103//103 112//112 114//114 
f 102//102 112//112 103//103 
f 103//103 114//114 104//104 
f 106//106 105//105 116//116 
f 107//107 101//101 80//80 
f 117//117 107//107 84//84 
f 108//108 101//101 107//107 
f 102//102 101//101 109//109 
f 109//109 101//101 108//108 
f 109//109 108//108 110//110 
f 110//110 108//108 107//107 
f 107//107 111//111 110//110 
f 107//107 117//117 169//169 
f 112//112 109//109 168//168 
f 117//117 119//119 169//169 
f 109//109 112//112 102//102 
f 112//112 168//168 113//113 
f 168//168 170//170 113//113 
f 172//172 113//113 170//170 
f 113//113 172//172 118//118 
f 112//112 113//113 171//171 
f 114//114 112//112 171//171 
f 104//104 129//129 116//116 
f 136//136 128//128 104//104 
f 104//104 128//128 129//129 
f 106//106 116//116 115//115 
f 116//116 134//134 115//115 
f 134//134 116//116 129//129 
f 84//84 124//124 117//117 
f 117//117 174//174 119//119 
f 175//175 120//120 173//173 
f 175//175 126//126 120//120 
f 136//136 171//171 127//127 
f 171//171 173//173 127//127 
f 120//120 127//127 173//173 
f 126//126 127//127 120//120 
f 84//84 121//121 122//122 
f 84//84 122//122 176//176 
f 123//123 121//121 91//91 
f 122//122 121//121 123//123 
f 176//176 122//122 123//123 
f 176//176 123//123 125//125 
f 123//123 135//135 125//125 
f 129//129 133//133 134//134 
f 178//178 176//176 132//132 
f 125//125 132//132 176//176 
f 181//181 177//177 183//183 
f 136//136 127//127 128//128 
f 129//129 128//128 131//131 
f 126//126 130//130 127//127 
f 127//127 130//130 128//128 
f 130//130 126//126 179//179 
f 179//179 131//131 130//130 
f 130//130 131//131 128//128 
f 129//129 131//131 133//133 
f 131//131 179//179 182//182 
f 177//177 181//181 180//180 
f 135//135 123//123 163//163 
f 88//88 134//134 161//161 
f 162//162 135//135 163//163 
f 161//161 134//134 184//184 
f 185//185 134//134 133//133 
f 136//136 114//114 171//171 
f 114//114 136//136 104//104 
