#
# Compatibility version : 3.0
# File ID : FJ571
# Representation ID : BP4088
# Build-up logic : FMA 3.0 part_of
# Concept ID : FMA32658
# English name : Distal phalanx of right little toe
# Bounds(mm): (-146.321000,-191.341000,-4.056900)-(-138.682000,-180.762000,1.383900)
# Volume(cm3): 0.132700
#
v -144.732 -188.495 -0.786555
v -145.179 -190.401 -1.54828
v -145.519 -187.351 -2.05894
v -145.956 -183.645 -1.67693
v -146.037 -183.087 -2.23796
v -145.556 -183.334 -0.699846
v -145.451 -183.863 -1.01489
v -144.673 -185.224 -0.540341
v -145.15 -184.432 -1.0315
v -145.606 -183.97 -1.68878
v -145.502 -184.061 -1.40669
v -145.119 -185.373 -1.47563
v -146.321 -182.446 -0.855921
v -146.191 -181.877 -0.717337
v -146.233 -181.784 -1.0365
v -145.91 -181.292 -1.10757
v -146.211 -182.549 -0.550503
v -145.807 -182.346 -0.430495
v -145.529 -182.991 -0.465861
v -145.336 -181.9 -0.0914253
v -144.634 -181.24 -0.500017
v -144.117 -182.913 0.710436
v -143.843 -182.152 0.913691
v -145.262 -190.711 -2.84589
v -145.132 -190.368 -3.62651
v -144.544 -190.699 -3.10876
v -144.136 -191.106 -1.48533
v -143.293 -190.921 -0.929137
v -142.888 -191.341 -1.38918
v -142.693 -191.279 -1.62799
v -142.437 -191.219 -1.31144
v -142.205 -191.161 -1.49985
v -146.135 -189.207 -2.93642
v -144.007 -189.506 -2.24458
v -144.73 -188.88 -4.05688
v -144.38 -190.682 -1.09939
v -143.639 -189.845 -0.597653
v -143.839 -189.628 -1.91343
v -143.975 -189.619 -2.20777
v -143.795 -189.721 -1.99039
v -143.939 -189.44 -2.16028
v -143.76 -189.547 -1.94431
v -142.658 -190.192 -0.610294
v -142.577 -191.044 -1.00421
v -143.728 -189.54 -2.37834
v -143.724 -189.518 -2.37232
v -143.717 -189.534 -2.36408
v -142.284 -191.058 -1.13786
v -142.087 -191.051 -1.35454
v -142.11 -190.58 -0.867038
v -142.011 -189.937 -0.742489
v -141.853 -190.575 -1.04652
v -145.296 -186.688 -2.34444
v -144.257 -186.391 -3.39595
v -143.426 -186.375 -0.00948309
v -143.06 -187.863 -0.282159
v -142.312 -186.873 -0.263819
v -141.847 -188.65 -0.983192
v -145.525 -183.86 -2.10109
v -144.693 -183.482 -2.97173
v -145.217 -184.65 -1.74091
v -145.063 -185.236 -2.03667
v -144.265 -184.526 -2.94299
v -141.807 -185.293 0.417163
v -141.479 -185.868 -0.0807722
v -145.372 -181.802 -2.82373
v -143.768 -180.833 -2.27388
v -143.084 -181.012 -1.95033
v -141.889 -183.306 1.38394
v -142.099 -182.209 0.675574
v -140.924 -182.807 1.14805
v -142.259 -191.024 -2.01977
v -143.482 -189.909 -3.97428
v -142.613 -189.699 -3.78191
v -142.741 -189.32 -3.9228
v -141.946 -190.986 -1.66551
v -141.682 -190.561 -1.31315
v -141.577 -189.954 -1.17726
v -141.765 -190.59 -2.13875
v -141.553 -190.39 -1.75745
v -141.416 -188.829 -1.92638
v -141.837 -189.337 -3.03752
v -143.022 -187.142 -3.56926
v -141.411 -187.092 -1.40768
v -141.409 -186.969 -1.87507
v -141.125 -186.289 -1.07573
v -140.959 -185.711 -2.19536
v -139.169 -184.656 -1.57994
v -140.573 -185.269 0.0944017
v -139.51 -185.267 -0.867125
v -139.076 -184.981 -0.421193
v -138.938 -184.929 -0.724544
v -138.831 -184.524 -1.0118
v -142.227 -180.762 -2.28836
v -142.269 -180.854 -2.81341
v -141.646 -181.015 -2.05836
v -141.128 -181.156 -2.54891
v -141.156 -183.141 -3.38989
v -140.267 -182.864 0.485425
v -141.382 -181.922 -1.17761
v -139.552 -182.872 -0.490571
v -140.465 -181.893 -1.4952
v -140.305 -181.78 -1.8583
v -139.068 -184.067 -1.49984
v -139.002 -183.574 -1.25055
v -139.745 -184.499 0.662857
v -138.759 -183.995 -0.855821
v -138.682 -184.118 -0.399165
v -138.805 -183.711 -0.65081
v -145.179 -190.401 -1.54828
v -145.519 -187.351 -2.05894
v -146.037 -183.087 -2.23796
v -146.191 -181.877 -0.717337
v -145.91 -181.292 -1.10757
v -145.91 -181.292 -1.10757
v -145.91 -181.292 -1.10757
v -146.211 -182.549 -0.550503
v -145.336 -181.9 -0.0914253
v -144.634 -181.24 -0.500017
v -145.262 -190.711 -2.84589
v -145.262 -190.711 -2.84589
v -145.132 -190.368 -3.62651
v -145.132 -190.368 -3.62651
v -145.132 -190.368 -3.62651
v -144.136 -191.106 -1.48533
v -146.135 -189.207 -2.93642
v -146.135 -189.207 -2.93642
v -146.135 -189.207 -2.93642
v -146.135 -189.207 -2.93642
v -144.007 -189.506 -2.24458
v -144.007 -189.506 -2.24458
v -144.007 -189.506 -2.24458
v -144.73 -188.88 -4.05688
v -143.839 -189.628 -1.91343
v -143.839 -189.628 -1.91343
v -143.839 -189.628 -1.91343
v -143.975 -189.619 -2.20777
v -143.975 -189.619 -2.20777
v -143.975 -189.619 -2.20777
v -143.795 -189.721 -1.99039
v -143.795 -189.721 -1.99039
v -143.795 -189.721 -1.99039
v -143.795 -189.721 -1.99039
v -143.939 -189.44 -2.16028
v -143.939 -189.44 -2.16028
v -143.939 -189.44 -2.16028
v -143.76 -189.547 -1.94431
v -143.76 -189.547 -1.94431
v -143.76 -189.547 -1.94431
v -143.76 -189.547 -1.94431
v -143.728 -189.54 -2.37834
v -143.728 -189.54 -2.37834
v -143.728 -189.54 -2.37834
v -143.728 -189.54 -2.37834
v -143.724 -189.518 -2.37232
v -143.724 -189.518 -2.37232
v -143.724 -189.518 -2.37232
v -143.724 -189.518 -2.37232
v -143.717 -189.534 -2.36408
v -143.717 -189.534 -2.36408
v -143.717 -189.534 -2.36408
v -144.257 -186.391 -3.39595
v -144.693 -183.482 -2.97173
v -145.217 -184.65 -1.74091
v -144.265 -184.526 -2.94299
v -144.265 -184.526 -2.94299
v -145.372 -181.802 -2.82373
v -145.372 -181.802 -2.82373
v -143.827 -180.877 -2.21681
v -143.768 -180.833 -2.27388
v -140.924 -182.807 1.14805
v -140.924 -182.807 1.14805
v -143.482 -189.909 -3.97428
v -143.022 -187.142 -3.56926
v -143.022 -187.142 -3.56926
v -141.409 -186.969 -1.87507
v -141.125 -186.289 -1.07573
v -140.959 -185.711 -2.19536
v -140.959 -185.711 -2.19536
v -139.076 -184.981 -0.421193
v -142.227 -180.762 -2.28836
v -142.269 -180.854 -2.81341
v -142.269 -180.854 -2.81341
v -141.128 -181.156 -2.54891
v -140.267 -182.864 0.485425
v -140.305 -181.78 -1.8583
v -139.745 -184.499 0.662857
v -139.745 -184.499 0.662857
v -138.682 -184.118 -0.399165
v -143.843 -182.152 0.913691
v -142.888 -191.341 -1.38918
v -141.889 -183.306 1.38394
v -142.613 -189.699 -3.78191
v -142.741 -189.32 -3.9228
v -141.125 -186.289 -1.07573
v -139.076 -184.981 -0.421193
vn -0.631337 -0.0922041 0.770008
vn -0.700353 -0.117082 0.704129
vn -0.87007 0.0196022 0.492538
vn -0.818201 -0.56824 0.0874664
vn -0.96627 0.0315688 -0.255589
vn -0.654631 -0.488189 0.577174
vn -0.785394 -0.46638 0.406996
vn -0.769429 -0.114761 0.628338
vn -0.811607 -0.352605 0.465795
vn -0.780849 -0.614693 -0.111479
vn -0.795073 -0.562274 0.227393
vn -0.9941 -0.00727413 0.108219
vn -0.994512 -0.0568819 0.0878045
vn -0.832656 0.396887 0.386219
vn -0.937128 0.325082 -0.12694
vn -0.537854 0.661665 0.522411
vn -0.580656 -0.324836 0.746539
vn -0.411975 -0.0332454 0.910589
vn -0.482818 -0.3189 0.815592
vn -0.553856 -0.0978329 0.826844
vn -0.180329 0.783166 0.59509
vn -0.553054 -0.203795 0.807836
vn -0.43985 -0.0806321 0.894444
vn -0.723282 -0.659771 0.203878
vn -0.80183 -0.486325 -0.347212
vn -0.0135291 -0.914422 -0.404536
vn -0.390792 -0.782658 0.484487
vn -0.141388 -0.587159 0.797028
vn -0.0417097 -0.809441 0.585718
vn 0.170839 -0.960393 -0.220134
vn 0.299632 -0.90736 0.29482
vn 0.411424 -0.910863 -0.0325334
vn -0.83726 -0.000982028 0.546804
vn 0.883326 -0.0490154 -0.466189
vn -0.63626 0.125603 -0.761181
vn -0.405403 -0.463248 0.788067
vn -0.17634 -0.223493 0.958621
vn 0.883326 -0.0490154 -0.466189
vn 0.902523 0.120917 -0.413318
vn 0.727967 0.60752 -0.31778
vn 0.835827 -0.217378 -0.504123
vn 0.403228 -0.641896 -0.652209
vn 0.090501 -0.273333 0.957653
vn 0.13283 -0.653243 0.745406
vn 0.436451 0.388 0.811768
vn 0.191899 -0.841938 0.504297
vn -0.668475 0.711522 0.216514
vn 0.419971 -0.688607 0.591139
vn 0.59645 -0.735209 0.322048
vn 0.365961 -0.406722 0.837048
vn 0.518883 -0.101883 0.848752
vn 0.66086 -0.420744 0.621481
vn -0.896937 0.263866 -0.354793
vn -0.694286 0.283298 -0.661595
vn -0.180791 -0.245029 0.95251
vn 0.219583 -0.126196 0.967398
vn 0.455067 -0.370283 0.809817
vn 0.731203 -0.0341228 0.681306
vn -0.66392 -0.552398 -0.504049
vn -0.371447 -0.242567 -0.896208
vn -0.947158 -0.31538 -0.0585444
vn -0.915143 -0.0151223 -0.402845
vn -0.772897 0.202049 -0.601504
vn 0.159717 -0.510794 0.844737
vn 0.426532 -0.622054 0.656597
vn -0.837582 0.364227 -0.407179
vn -0.0115493 0.942727 0.333364
vn 0.0944384 0.838493 0.536667
vn -0.0497473 -0.279923 0.958733
vn 0.233735 0.894261 0.381662
vn 0.171671 0.731555 0.659816
vn 0.330157 -0.821677 -0.464589
vn 0.0679891 -0.168376 -0.983375
vn 0.578555 -0.477221 -0.661464
vn 0.149373 -0.0274366 -0.9884
vn 0.689128 -0.719679 -0.0846485
vn 0.838793 -0.466091 0.281398
vn 0.886109 -0.0929426 0.454062
vn 0.718755 -0.536064 -0.442749
vn 0.949102 -0.301907 -0.0897604
vn 0.99835 -0.0337137 0.0464741
vn 0.831555 -0.0477712 -0.553384
vn 0.0117404 0.171308 -0.985148
vn 0.917086 -0.207886 0.3402
vn 0.964592 -0.0936657 -0.246553
vn 0.515338 -0.673045 0.530507
vn 0.612157 -0.341354 -0.713261
vn 0.721057 -0.349383 -0.598339
vn 0.30365 -0.728907 0.613588
vn 0.535281 -0.832821 -0.141009
vn 0.334094 -0.774586 0.537027
vn 0.759949 -0.636539 -0.13151
vn 0.930133 -0.188296 -0.315273
vn 0.0092836 0.792328 0.610025
vn 0.121971 0.298001 -0.946741
vn 0.266694 0.827884 0.493439
vn 0.532101 0.323917 -0.78227
vn 0.340059 0.0961196 -0.935479
vn 0.330818 0.927422 0.174493
vn 0.19993 0.79194 0.576939
vn 0.494061 0.761122 0.420235
vn 0.300739 0.788132 0.537033
vn 0.594441 0.773324 0.220476
vn 0.822548 0.0517903 -0.566333
vn 0.840998 0.311522 -0.442353
vn 0.229281 -0.527788 0.817845
vn 0.951665 0.117152 -0.283918
vn 0.973288 -0.190641 0.127934
vn 0.877727 0.478359 0.0277155
vn -0.661236 -0.689143 0.296392
vn -0.955014 0.282204 -0.0911498
vn -0.601236 -0.397646 -0.693104
vn -0.492875 0.123334 0.861315
vn -0.795233 0.466062 -0.387803
vn -0.119135 0.97883 0.166431
vn -0.366592 0.85418 -0.368764
vn -0.920512 0.119736 0.371914
vn -0.357832 0.692212 0.626737
vn 0.201527 0.942099 0.268022
vn -0.80183 -0.486325 -0.347212
vn -0.102888 -0.940403 -0.324123
vn -0.613438 -0.0619807 -0.787307
vn -0.023556 -0.854273 -0.51929
vn -0.135398 -0.241353 -0.960945
vn -0.116715 -0.969869 -0.213847
vn -0.856544 -0.486885 0.171099
vn -0.80183 -0.486325 -0.347212
vn -0.66836 0.212503 -0.712837
vn -0.948389 0.317067 -0.00507282
vn 0.436451 0.388 0.811768
vn 0.191899 -0.841938 0.504297
vn 0.380527 -0.307931 0.871997
vn 0.0140043 0.0476969 -0.998764
vn 0.727967 0.60752 -0.31778
vn 0.403228 -0.641896 -0.652209
vn -0.608034 0.315285 -0.728622
vn 0.436451 0.388 0.811768
vn 0.727967 0.60752 -0.31778
vn 0.00237438 0.906062 0.423137
vn -0.608034 0.315285 -0.728622
vn -0.668475 0.711522 0.216514
vn 0.00237438 0.906062 0.423137
vn -0.97111 0.219904 -0.0926654
vn 0.191899 -0.841938 0.504297
vn 0.403228 -0.641896 -0.652209
vn -0.422245 -0.901324 -0.0965627
vn -0.608034 0.315285 -0.728622
vn -0.889947 -0.443834 -0.104908
vn -0.422245 -0.901324 -0.0965627
vn -0.97111 0.219904 -0.0926654
vn 0.380527 -0.307931 0.871997
vn -0.668475 0.711522 0.216514
vn 0.00237438 0.906062 0.423137
vn -0.786142 -0.0261287 0.617494
vn 0.380527 -0.307931 0.871997
vn -0.889947 -0.443834 -0.104908
vn -0.422245 -0.901324 -0.0965627
vn -0.786142 -0.0261287 0.617494
vn -0.889947 -0.443834 -0.104908
vn -0.97111 0.219904 -0.0926654
vn -0.786142 -0.0261287 0.617494
vn -0.103066 0.190607 -0.976241
vn -0.784424 -0.154715 -0.600618
vn -0.498347 -0.512961 -0.698943
vn -0.176233 0.0790045 -0.981173
vn -0.607995 -0.269805 -0.746691
vn -0.236606 0.0430998 -0.970649
vn -0.303592 0.822522 -0.480926
vn -0.303592 0.822522 -0.480926
vn -0.0469468 0.984536 -0.168777
vn 0.276439 -0.0819544 0.957531
vn 0.691658 0.292612 0.660294
vn 0.18529 -0.781594 -0.595632
vn 0.692232 0.206173 -0.691598
vn 0.672908 -0.338722 -0.657618
vn 0.68384 -0.399982 -0.610227
vn 0.9436 -0.325976 -0.0579452
vn 0.937631 -0.345405 -0.0392967
vn 0.546504 -0.762547 -0.3462
vn 0.800171 -0.377213 0.466301
vn 0.206574 0.974867 -0.083436
vn -0.235262 0.776428 -0.584647
vn 0.124239 0.975622 -0.180906
vn 0.375663 0.925187 0.0539054
vn 0.677384 0.367829 0.637066
vn 0.715896 0.274709 -0.641894
vn 0.659945 0.286209 0.694663
vn 0.722378 -0.34509 0.599235
vn 0.678284 0.444986 0.584738
vn -0.0199904 0.7088 0.705126
vn 0.0140657 -0.983312 -0.18138
vn 0.0164736 0.401109 0.915882
vn 0.267355 -0.255139 -0.929207
vn 0.697846 0.0867959 -0.710969
vn 0.542622 -0.826061 -0.152267
vn 0.512998 -0.856955 0.0496097
g grp1
usemtl mtl1
f 8//8 3//3 1//1 
f 33//33 2//2 1//1 
f 33//33 1//1 3//3 
f 36//36 1//1 2//2 
f 3//3 8//8 12//12 
f 1//1 37//37 55//55 
f 1//1 55//55 8//8 
f 4//4 17//17 13//13 
f 5//5 4//4 13//13 
f 10//10 59//59 61//61 
f 4//4 59//59 10//10 
f 59//59 4//4 112//112 
f 4//4 7//7 6//6 
f 4//4 6//6 17//17 
f 17//17 6//6 19//19 
f 6//6 9//9 19//19 
f 11//11 9//9 7//7 
f 7//7 9//9 6//6 
f 11//11 61//61 9//9 
f 10//10 61//61 11//11 
f 11//11 4//4 10//10 
f 7//7 4//4 11//11 
f 61//61 12//12 9//9 
f 8//8 9//9 12//12 
f 15//15 5//5 13//13 
f 14//14 15//15 13//13 
f 13//13 117//117 14//14 
f 15//15 14//14 16//16 
f 66//66 5//5 15//15 
f 66//66 15//15 114//114 
f 17//17 19//19 18//18 
f 18//18 113//113 17//17 
f 9//9 22//22 19//19 
f 19//19 22//22 20//20 
f 18//18 20//20 113//113 
f 18//18 19//19 20//20 
f 14//14 118//118 16//16 
f 21//21 16//16 118//118 
f 22//22 9//9 8//8 
f 22//22 23//23 20//20 
f 21//21 118//118 190//190 
f 119//119 67//67 115//115 
f 8//8 55//55 22//22 
f 55//55 69//69 22//22 
f 69//69 23//23 22//22 
f 190//190 70//70 21//21 
f 110//110 126//126 24//24 
f 25//25 120//120 127//127 
f 122//122 128//128 35//35 
f 123//123 26//26 121//121 
f 133//133 73//73 124//124 
f 123//123 173//173 26//26 
f 110//110 27//27 36//36 
f 24//24 27//27 110//110 
f 28//28 36//36 27//27 
f 121//121 26//26 125//125 
f 29//29 28//28 27//27 
f 26//26 191//191 125//125 
f 28//28 29//29 44//44 
f 26//26 30//30 191//191 
f 191//191 30//30 31//31 
f 44//44 29//29 31//31 
f 44//44 31//31 48//48 
f 32//32 31//31 30//30 
f 31//31 32//32 49//49 
f 48//48 31//31 49//49 
f 26//26 173//173 72//72 
f 30//30 26//26 72//72 
f 76//76 49//49 32//32 
f 72//72 76//76 32//32 
f 72//72 32//32 30//30 
f 53//53 129//129 111//111 
f 34//34 38//38 39//39 
f 34//34 41//41 38//38 
f 137//137 45//45 130//130 
f 46//46 144//144 131//131 
f 128//128 54//54 35//35 
f 151//151 155//155 132//132 
f 162//162 83//83 133//133 
f 37//37 1//1 36//36 
f 36//36 28//28 37//37 
f 56//56 55//55 37//37 
f 28//28 43//43 37//37 
f 43//43 28//28 44//44 
f 138//138 134//134 40//40 
f 145//145 42//42 135//135 
f 136//136 147//147 140//140 
f 56//56 37//37 43//43 
f 47//47 152//152 141//141 
f 153//153 139//139 142//142 
f 44//44 50//50 43//43 
f 159//159 148//148 156//156 
f 149//149 146//146 157//157 
f 160//160 143//143 150//150 
f 50//50 51//51 43//43 
f 56//56 43//43 51//51 
f 56//56 51//51 58//58 
f 48//48 50//50 44//44 
f 154//154 161//161 158//158 
f 49//49 52//52 48//48 
f 52//52 50//50 48//48 
f 49//49 76//76 77//77 
f 49//49 77//77 52//52 
f 78//78 52//52 77//77 
f 78//78 58//58 51//51 
f 52//52 51//51 50//50 
f 78//78 51//51 52//52 
f 111//111 12//12 53//53 
f 62//62 53//53 12//12 
f 62//62 63//63 53//53 
f 54//54 128//128 53//53 
f 54//54 53//53 63//63 
f 83//83 162//162 98//98 
f 55//55 56//56 57//57 
f 64//64 55//55 57//57 
f 57//57 56//56 58//58 
f 86//86 65//65 57//57 
f 57//57 58//58 84//84 
f 59//59 60//60 164//164 
f 59//59 112//112 60//60 
f 167//167 60//60 112//112 
f 98//98 165//165 60//60 
f 60//60 167//167 98//98 
f 61//61 163//163 62//62 
f 62//62 12//12 61//61 
f 166//166 62//62 163//163 
f 162//162 165//165 98//98 
f 55//55 64//64 69//69 
f 106//106 69//69 64//64 
f 64//64 57//57 65//65 
f 89//89 64//64 65//65 
f 86//86 89//89 65//65 
f 89//89 106//106 64//64 
f 169//169 168//168 116//116 
f 67//67 119//119 68//68 
f 67//67 68//68 94//94 
f 68//68 119//119 100//100 
f 94//94 68//68 96//96 
f 192//192 71//71 190//190 
f 71//71 70//70 190//190 
f 171//171 69//69 106//106 
f 119//119 70//70 99//99 
f 70//70 71//71 99//99 
f 185//185 172//172 187//187 
f 173//173 74//74 72//72 
f 133//133 75//75 73//73 
f 133//133 83//83 75//75 
f 73//73 75//75 193//193 
f 82//82 194//194 174//174 
f 74//74 79//79 72//72 
f 79//79 76//76 72//72 
f 77//77 76//76 80//80 
f 81//81 58//58 78//78 
f 76//76 79//79 80//80 
f 80//80 81//81 78//78 
f 77//77 80//80 78//78 
f 74//74 82//82 79//79 
f 80//80 79//79 82//82 
f 80//80 82//82 81//81 
f 85//85 81//81 82//82 
f 74//74 194//194 82//82 
f 175//175 98//98 87//87 
f 175//175 87//87 176//176 
f 84//84 58//58 81//81 
f 84//84 86//86 57//57 
f 84//84 81//81 85//85 
f 177//177 84//84 85//85 
f 82//82 174//174 85//85 
f 85//85 178//178 177//177 
f 89//89 86//86 91//91 
f 179//179 90//90 195//195 
f 88//88 92//92 179//179 
f 92//92 90//90 179//179 
f 93//93 92//92 88//88 
f 87//87 98//98 88//88 
f 88//88 104//104 93//93 
f 93//93 104//104 107//107 
f 89//89 91//91 106//106 
f 196//196 195//195 90//90 
f 92//92 196//196 90//90 
f 180//180 92//92 108//108 
f 180//180 108//108 188//188 
f 108//108 92//92 93//93 
f 68//68 100//100 96//96 
f 98//98 167//167 95//95 
f 168//168 169//169 182//182 
f 100//100 102//102 96//96 
f 183//183 170//170 181//181 
f 98//98 95//95 97//97 
f 184//184 183//183 181//181 
f 184//184 181//181 96//96 
f 103//103 184//184 96//96 
f 101//101 119//119 99//99 
f 101//101 100//100 119//119 
f 100//100 101//101 102//102 
f 102//102 101//101 103//103 
f 103//103 96//96 102//102 
f 103//103 101//101 109//109 
f 103//103 109//109 105//105 
f 88//88 98//98 104//104 
f 104//104 98//98 105//105 
f 104//104 105//105 107//107 
f 109//109 107//107 105//105 
f 186//186 98//98 97//97 
f 105//105 98//98 186//186 
f 187//187 189//189 185//185 
f 189//189 101//101 185//185 
f 189//189 109//109 101//101 
f 93//93 107//107 108//108 
f 109//109 108//108 107//107 
