#
# Compatibility version : 3.0
# File ID : FJ621
# Representation ID : BP4040
# Build-up logic : FMA 3.0 part_of
# Concept ID : FMA24456
# English name : Middle phalanx of right middle finger
# Bounds(mm): (-280.940000,-177.116000,672.643000)-(-267.176000,-154.062000,698.063000)
# Volume(cm3): 1.153000
#
v -278.376 -159.538 696.736
v -277.338 -160.83 697.566
v -279.363 -160.323 695.903
v -279.511 -160.369 695.335
v -278.67 -161.21 695.152
v -279.258 -158.832 695.417
v -278.381 -156.937 694.751
v -278.49 -156.791 694.463
v -278.375 -156.638 693.808
v -278.901 -160.774 692.02
v -277.987 -161.56 692.391
v -279.517 -158.698 693.956
v -279.005 -159.538 691.773
v -278.751 -157.148 693.267
v -280.328 -176.41 677.334
v -280.537 -176.465 676.784
v -280.004 -176.272 677.621
v -280.068 -176.569 677.258
v -280.94 -174.706 677.663
v -280.505 -174.309 678.43
v -280.775 -173.47 678.128
v -280.67 -172.315 676.784
v -274.924 -161.62 698.063
v -275.391 -162.242 697.254
v -275.069 -162.411 696.849
v -274.818 -162.527 695.719
v -273.931 -162.438 697.661
v -274.141 -162.646 697.094
v -274.351 -162.495 696.267
v -275.772 -160.27 697.946
v -274.977 -162.562 695.123
v -274.77 -162.675 694.8
v -277.786 -155.806 694.193
v -276.68 -155.038 694.139
v -276.807 -155.206 693.14
v -276.159 -162.638 692.988
v -278.251 -156.583 693.229
v -277.812 -156.37 692.735
v -276.704 -163.18 689.462
v -276.004 -163.952 689.049
v -277.404 -158.242 690.081
v -278.585 -162.9 687.969
v -278.79 -162.729 687.637
v -278.873 -161.988 687.293
v -278.952 -163.76 684.753
v -279.158 -166.79 682.336
v -279.052 -173.077 678.819
v -280.021 -172.135 678.727
v -279.436 -169.916 679.777
v -278.742 -170.602 679.939
v -279.494 -169.065 678.915
v -279.599 -176.458 677.46
v -279.46 -176.802 676.533
v -278.906 -175.73 678.073
v -280.138 -176.206 674.214
v -279.646 -176.593 674.419
v -279.123 -176.039 673.901
v -280.154 -174.381 673.762
v -279.651 -174.376 673.358
v -279.344 -172.825 674.268
v -272.52 -161.809 697.876
v -272.267 -162.436 697.545
v -274.021 -162.671 696.229
v -274.151 -162.475 695.969
v -273.91 -162.738 695.854
v -272.967 -162.811 697.033
v -273.495 -163.103 695.782
v -273.43 -159.087 695.919
v -274.336 -162.411 695.34
v -273.997 -162.705 695.303
v -274.131 -162.902 694.715
v -273.758 -162.946 694.924
v -275.071 -154.325 693.38
v -274.208 -154.436 694.313
v -275.073 -156.785 690.311
v -274.431 -154.702 692.325
v -274.282 -164.15 690
v -274.974 -165.452 687.277
v -275.407 -170.385 681.006
v -276.542 -165.241 680.167
v -276.492 -175.993 677.19
v -276.089 -176.622 674.996
v -276.901 -175.412 673.828
v -278.378 -173.573 673.526
v -276.686 -173.537 673.376
v -270.432 -161.437 697.294
v -270.764 -160.629 696.841
v -269.417 -161.974 696.993
v -272.542 -154.52 694.876
v -272.738 -154.283 694.494
v -272.053 -155.105 694.915
v -272.101 -154.278 694.323
v -271.694 -154.458 694.582
v -271.233 -154.906 694.944
v -273.223 -154.099 693.764
v -272.359 -154.14 693.534
v -272.607 -154.197 692.985
v -271.48 -154.329 693.32
v -271.84 -163.499 691.872
v -273.043 -176.345 677.211
v -274.378 -174.253 677.947
v -273.938 -174.843 677.788
v -273.257 -177.016 675.786
v -274.474 -176.243 673.252
v -268.643 -160.984 696.604
v -268.879 -163.269 694.561
v -268.379 -163.108 695.33
v -268.219 -162.748 693.979
v -267.863 -162.685 694.285
v -267.552 -162.35 695.378
v -267.906 -162.447 693.817
v -267.435 -161.745 693.985
v -269.921 -155.9 694.703
v -269.243 -155.795 694.219
v -268.879 -155.841 693.633
v -270.618 -154.673 694.013
v -268.937 -162.836 692.402
v -267.963 -161.973 692.155
v -269.262 -155.882 692.529
v -271.566 -154.953 692.3
v -269.94 -155.001 693.217
v -269.257 -163.27 690.436
v -268.755 -163.071 689.787
v -270.748 -166.406 684.023
v -270.347 -166.171 683.953
v -271.816 -170.514 679.151
v -271.778 -166.222 680.233
v -272.162 -176.017 677.228
v -271.375 -174.416 676.912
v -271.876 -172.672 677.802
v -271.662 -172.095 677.372
v -271.67 -170.254 677.87
v -271.981 -176.807 676.355
v -271.541 -176.567 675.912
v -272.139 -173.764 674.138
v -271.459 -173.415 675.845
v -272.206 -172.557 674.539
v -271.73 -172.219 675.829
v -271.815 -172.811 675.06
v -272.351 -177.08 673.728
v -272.084 -176.138 673.885
v -273.904 -174.986 672.643
v -272.965 -174.157 673.157
v -274.053 -173.08 673.375
v -267.55 -159.396 694.731
v -267.234 -159.704 694.114
v -267.614 -157.928 693.696
v -267.656 -157.648 694.169
v -267.226 -160.322 692.655
v -278.376 -159.538 696.736
v -277.338 -160.83 697.566
v -279.363 -160.323 695.903
v -278.381 -156.937 694.751
v -280.537 -176.465 676.784
v -280.537 -176.465 676.784
v -280.94 -174.706 677.663
v -280.775 -173.47 678.128
v -280.67 -172.315 676.784
v -277.786 -155.806 694.193
v -278.873 -161.988 687.293
v -278.952 -163.76 684.753
v -279.158 -166.79 682.336
v -280.036 -172.055 678.768
v -280.021 -172.135 678.727
v -279.436 -169.916 679.777
v -279.494 -169.065 678.915
v -280.138 -176.206 674.214
v -280.138 -176.206 674.214
v -279.646 -176.593 674.419
v -280.154 -174.381 673.762
v -280.154 -174.381 673.762
v -279.651 -174.376 673.358
v -274.151 -162.475 695.969
v -273.758 -162.946 694.924
v -276.492 -175.993 677.19
v -276.089 -176.622 674.996
v -276.901 -175.412 673.828
v -278.378 -173.573 673.526
v -271.233 -154.906 694.944
v -274.378 -174.253 677.947
v -274.474 -176.243 673.252
v -268.379 -163.108 695.33
v -269.921 -155.9 694.703
v -270.347 -166.171 683.953
v -271.816 -170.514 679.151
v -271.778 -166.222 680.233
v -271.876 -172.672 677.802
v -271.981 -176.807 676.355
v -271.541 -176.567 675.912
v -271.541 -176.567 675.912
v -272.351 -177.08 673.728
v -272.351 -177.08 673.728
v -272.351 -177.08 673.728
v -267.55 -159.396 694.731
v -267.55 -159.396 694.731
v -279.511 -160.369 695.335
v -278.901 -160.774 692.02
v -274.924 -161.62 698.063
v -276.686 -173.537 673.376
v -270.347 -166.171 683.953
v -272.162 -176.017 677.228
v -271.876 -172.672 677.802
v -273.904 -174.986 672.643
v -273.904 -174.986 672.643
v -267.656 -157.648 694.169
v -271.816 -170.514 679.151
vn -0.588958 0.270565 0.761527
vn -0.407615 0.08312 0.909363
vn -0.810998 0.13393 0.569512
vn -0.693806 -0.714077 0.0934145
vn -0.574543 -0.803444 0.156134
vn -0.839482 0.343787 0.420809
vn -0.387676 0.387985 0.836167
vn -0.809815 0.542981 0.222195
vn -0.789581 0.611182 -0.0549286
vn -0.72494 -0.680859 0.10437
vn -0.563307 -0.812201 0.151707
vn -0.981102 0.189069 -0.0411235
vn -0.938505 0.214802 -0.270311
vn -0.81808 0.518664 -0.248458
vn -0.586567 -0.588808 0.556097
vn -0.853001 -0.376209 0.36174
vn -0.205677 -0.614303 0.761793
vn -0.213111 -0.886465 0.410809
vn -0.817621 -0.281653 0.502162
vn -0.477753 -0.25003 0.842162
vn -0.769346 -0.0177121 0.638587
vn -0.977366 0.171568 0.123776
vn -0.20239 -0.586955 0.783915
vn -0.346466 -0.852536 0.391336
vn -0.18944 -0.979119 0.0737413
vn 0.0391933 -0.999081 0.017362
vn -0.084632 -0.732365 0.675633
vn -0.249113 -0.958604 0.137919
vn -0.232777 -0.967968 -0.0940903
vn 0.0237608 0.450219 0.892602
vn -0.00248943 -0.986993 0.160741
vn -0.172272 -0.924775 0.339285
vn -0.71027 0.689483 -0.141882
vn -0.377093 0.799854 0.466942
vn -0.489812 0.776697 -0.396014
vn -0.346718 -0.922975 0.167046
vn -0.728275 0.6514 -0.212824
vn -0.663474 0.64165 -0.384821
vn -0.524635 -0.770358 0.362362
vn -0.398658 -0.795985 0.4555
vn -0.625792 0.604992 -0.492309
vn -0.67566 -0.647933 0.351663
vn -0.943981 -0.276486 0.180155
vn -0.998941 -0.0362926 0.0282725
vn -0.998572 0.0371508 0.0383818
vn -0.989599 -0.0685817 0.126457
vn -0.184334 -0.330942 0.925472
vn -0.673071 0.0490352 0.737951
vn -0.502102 -0.366061 0.783513
vn -0.406321 -0.429486 0.806502
vn -0.987039 0.0604412 0.148661
vn 0.0636426 -0.81682 0.573372
vn -0.0283852 -0.986566 0.160875
vn 0.052962 -0.501446 0.863566
vn -0.564857 -0.807679 -0.16909
vn -0.299113 -0.947256 -0.115057
vn -0.0111474 -0.540245 -0.841434
vn -0.981543 -0.042843 -0.18638
vn -0.165828 -0.236774 -0.957308
vn -0.492008 0.582692 -0.646837
vn 0.156103 -0.13156 0.97894
vn 0.145535 -0.677254 0.721212
vn -0.507392 -0.860945 -0.0364346
vn 0.105603 -0.991589 -0.0748235
vn -0.702106 -0.712001 -0.0100786
vn -0.0653416 -0.944069 0.32321
vn -0.42936 -0.89906 0.0856788
vn 0.120799 0.621457 0.77408
vn -0.183217 -0.953977 0.237403
vn -0.606958 -0.774642 0.177571
vn -0.235131 -0.933263 0.27154
vn -0.49643 -0.839644 0.220353
vn -0.245877 0.964229 -0.0990328
vn -0.188473 0.869254 0.45703
vn -0.229196 0.73196 -0.641641
vn -0.143826 0.785293 -0.602187
vn -0.136379 -0.928343 0.345803
vn -0.0112805 -0.842408 0.538722
vn -0.0165083 -0.671452 0.740864
vn -0.176778 0.708198 -0.683524
vn 0.0777531 -0.872063 0.483178
vn -0.137442 -0.985963 -0.0948019
vn -0.0652492 -0.289589 -0.954925
vn -0.135042 0.599251 -0.789089
vn -0.0855789 0.545224 -0.833911
vn 0.246643 0.31461 0.916618
vn 0.19948 0.640306 0.741765
vn 0.38726 -0.313792 0.866928
vn -0.0357527 0.612315 0.789805
vn -0.0313273 0.912971 0.40682
vn -0.00829747 -0.0833305 0.996487
vn 0.16743 0.953953 0.248879
vn 0.248008 0.853165 0.458914
vn -0.012457 -0.0914561 0.995731
vn -0.0410273 0.992803 0.112513
vn 0.126244 0.991919 -0.0125772
vn 0.0514987 0.930937 -0.36153
vn 0.284732 0.941628 -0.179622
vn 0.120963 -0.97437 0.189663
vn 0.0338274 -0.680596 0.731878
vn 0.217103 -0.510126 0.832248
vn 0.0622282 -0.269505 0.960986
vn -0.0702755 -0.968692 0.238112
vn -0.318684 -0.821087 -0.473556
vn 0.428628 0.372058 0.823317
vn 0.169851 -0.983948 -0.0547423
vn 0.222033 -0.82255 0.523558
vn 0.510513 -0.809694 -0.289432
vn 0.656515 -0.721923 -0.218667
vn 0.8728 -0.294658 0.389098
vn 0.689612 -0.665803 -0.284853
vn 0.932236 -0.33864 -0.127515
vn 0.321214 0.347502 0.880945
vn 0.567663 0.599474 0.564261
vn 0.734508 0.678499 0.0117494
vn 0.443453 0.860599 0.250437
vn 0.492023 -0.868097 -0.0657263
vn 0.816826 -0.560624 -0.135997
vn 0.594769 0.609573 -0.524091
vn 0.190905 0.748982 -0.634493
vn 0.485067 0.834503 -0.26137
vn 0.397906 -0.888549 0.228366
vn 0.703275 -0.70196 0.112505
vn 0.329434 -0.843259 0.42472
vn 0.650584 -0.70471 0.283063
vn 0.34341 -0.599197 0.723209
vn 0.196456 0.683789 -0.702736
vn 0.181325 -0.40788 0.894849
vn 0.9335 -0.080335 0.349461
vn 0.168157 -0.166199 0.971649
vn 0.99159 0.0289538 0.126139
vn 0.996891 -0.00659708 -0.0785129
vn 0.218569 -0.920448 0.324043
vn 0.78056 -0.353014 0.515857
vn 0.834714 0.139309 -0.532772
vn 0.974509 0.087372 -0.206634
vn 0.671014 0.410942 -0.617144
vn 0.951086 0.214591 -0.22223
vn 0.889079 0.226549 -0.397761
vn 0.0638101 -0.993781 -0.0912533
vn 0.864769 -0.0269412 -0.501446
vn -0.21373 -0.31392 -0.92508
vn 0.535157 0.19869 -0.821054
vn 0.134008 0.541946 -0.82966
vn 0.176967 0.697363 0.694527
vn 0.987968 0.078831 0.133062
vn 0.905025 0.355458 -0.233622
vn 0.562162 0.446382 0.696216
vn 0.972573 -0.0536621 -0.226323
vn 0.0414468 0.747168 0.663342
vn -0.46238 -0.729386 0.504183
vn -0.595831 -0.736521 0.320192
vn 0.0162543 0.505949 0.86241
vn -0.979722 -0.0838326 -0.181979
vn -0.410591 -0.911523 0.0232378
vn -0.991992 0.0140366 -0.125515
vn -0.959919 0.24521 0.135748
vn -0.694525 0.540011 -0.475419
vn -0.489619 0.579155 0.651807
vn -0.757459 0.554008 -0.345445
vn -0.634969 0.616058 -0.466141
vn -0.471393 -0.631081 0.616056
vn -0.931738 0.248322 0.264952
vn -0.287321 -0.204096 0.935837
vn -0.971941 0.112012 0.206842
vn -0.620182 0.601892 -0.503091
vn -0.986295 -0.0477546 -0.157932
vn -0.337951 -0.401711 -0.851127
vn -0.0203409 -0.672442 -0.73987
vn -0.630377 0.516461 -0.579563
vn -0.613068 -0.194973 -0.765594
vn -0.390163 0.522053 -0.758442
vn -0.665579 -0.742549 -0.0750056
vn -0.0743976 -0.990109 -0.118947
vn -0.0619538 -0.348253 0.935351
vn 0.128698 -0.682102 -0.719842
vn -0.38456 -0.761588 -0.52163
vn 0.0369511 -0.132972 -0.990431
vn 0.398311 0.680995 0.614487
vn 0.036671 -0.235356 0.971217
vn -0.147432 -0.376305 -0.91469
vn 0.577972 -0.814849 -0.0443772
vn 0.0230668 -0.199831 0.979559
vn 0.92414 0.134657 -0.357537
vn 0.503612 -0.711726 0.489716
vn 0.914901 0.208337 -0.345763
vn 0.362305 -0.50128 0.785782
vn 0.74877 -0.406783 0.523327
vn 0.970461 -0.0919413 -0.223052
vn 0.494671 -0.868836 0.0206121
vn 0.931084 -0.214761 -0.294892
vn 0.0252133 -0.445112 -0.89512
vn 0.555239 -0.0454815 -0.830446
vn 0.321191 0.225204 0.919847
vn 0.878134 0.131778 0.459908
vn -0.994552 0.0536456 0.0893822
vn -0.9908 -0.110522 -0.07811
vn -0.0661295 0.0448544 0.996802
vn -0.211909 -0.206013 -0.955329
vn 0.934484 -0.354322 0.0345851
vn 0.748177 -0.298699 0.592461
vn 0.86193 -0.11725 0.493284
vn 0.0587563 0.361613 -0.930475
vn 0.518352 -0.0576755 -0.85322
vn 0.950817 0.306721 0.043224
vn 0.973741 -0.18755 0.129045
g grp1
usemtl mtl1
f 1//1 6//6 3//3 
f 6//6 1//1 7//7 
f 2//2 30//30 1//1 
f 24//24 23//23 151//151 
f 2//2 198//198 30//30 
f 24//24 151//151 5//5 
f 151//151 152//152 5//5 
f 152//152 4//4 5//5 
f 3//3 6//6 196//196 
f 196//196 6//6 12//12 
f 4//4 10//10 5//5 
f 197//197 196//196 12//12 
f 1//1 3//3 2//2 
f 10//10 11//11 5//5 
f 24//24 5//5 36//36 
f 5//5 11//11 36//36 
f 6//6 7//7 8//8 
f 6//6 8//8 12//12 
f 8//8 14//14 12//12 
f 9//9 14//14 8//8 
f 9//9 37//37 14//14 
f 9//9 8//8 33//33 
f 9//9 33//33 37//37 
f 12//12 13//13 197//197 
f 12//12 14//14 13//13 
f 13//13 44//44 197//197 
f 48//48 21//21 20//20 
f 22//22 157//157 163//163 
f 20//20 47//47 164//164 
f 15//15 20//20 19//19 
f 16//16 15//15 19//19 
f 156//156 58//58 154//154 
f 17//17 54//54 20//20 
f 15//15 18//18 17//17 
f 15//15 17//17 20//20 
f 15//15 155//155 18//18 
f 17//17 52//52 54//54 
f 52//52 18//18 53//53 
f 52//52 17//17 18//18 
f 53//53 18//18 155//155 
f 56//56 53//53 155//155 
f 19//19 20//20 21//21 
f 157//157 22//22 156//156 
f 156//156 22//22 58//58 
f 56//56 155//155 55//55 
f 61//61 23//23 27//27 
f 24//24 36//36 25//25 
f 27//27 23//23 24//24 
f 28//28 24//24 25//25 
f 25//25 36//36 26//26 
f 27//27 24//24 28//28 
f 29//29 25//25 26//26 
f 66//66 27//27 28//28 
f 25//25 29//29 28//28 
f 29//29 26//26 64//64 
f 64//64 26//26 69//69 
f 63//63 66//66 28//28 
f 63//63 28//28 29//29 
f 63//63 29//29 173//173 
f 68//68 150//150 30//30 
f 153//153 150//150 68//68 
f 69//69 26//26 31//31 
f 31//31 26//26 36//36 
f 32//32 69//69 31//31 
f 31//31 36//36 32//32 
f 71//71 69//69 32//32 
f 71//71 32//32 36//36 
f 7//7 159//159 8//8 
f 159//159 7//7 34//34 
f 33//33 34//34 35//35 
f 34//34 73//73 35//35 
f 74//74 73//73 34//34 
f 37//37 38//38 14//14 
f 37//37 33//33 38//38 
f 35//35 38//38 33//33 
f 14//14 38//38 41//41 
f 35//35 41//41 38//38 
f 42//42 11//11 10//10 
f 39//39 11//11 42//42 
f 39//39 36//36 11//11 
f 39//39 40//40 36//36 
f 41//41 13//13 14//14 
f 10//10 43//43 42//42 
f 197//197 44//44 43//43 
f 42//42 43//43 46//46 
f 43//43 44//44 46//46 
f 162//162 39//39 42//42 
f 13//13 41//41 160//160 
f 40//40 162//162 79//79 
f 162//162 40//40 39//39 
f 45//45 46//46 44//44 
f 161//161 160//160 41//41 
f 79//79 162//162 50//50 
f 161//161 41//41 80//80 
f 50//50 162//162 49//49 
f 46//46 45//45 51//51 
f 161//161 80//80 166//166 
f 54//54 101//101 47//47 
f 22//22 163//163 165//165 
f 49//49 164//164 47//47 
f 60//60 166//166 80//80 
f 47//47 50//50 49//49 
f 165//165 46//46 51//51 
f 81//81 53//53 82//82 
f 47//47 20//20 54//54 
f 52//52 53//53 81//81 
f 54//54 52//52 81//81 
f 54//54 81//81 101//101 
f 22//22 165//165 51//51 
f 170//170 158//158 60//60 
f 158//158 166//166 60//60 
f 56//56 82//82 53//53 
f 154//154 58//58 167//167 
f 57//57 168//168 59//59 
f 57//57 169//169 168//168 
f 83//83 57//57 59//59 
f 168//168 171//171 59//59 
f 170//170 60//60 172//172 
f 61//61 30//30 198//198 
f 61//61 27//27 62//62 
f 27//27 66//66 62//62 
f 61//61 86//86 30//30 
f 30//30 86//86 87//87 
f 66//66 67//67 106//106 
f 63//63 67//67 66//66 
f 65//65 67//67 63//63 
f 173//173 65//65 63//63 
f 173//173 70//70 65//65 
f 173//173 69//69 70//70 
f 65//65 70//70 67//67 
f 67//67 70//70 72//72 
f 67//67 174//174 106//106 
f 30//30 87//87 68//68 
f 7//7 89//89 34//34 
f 34//34 89//89 74//74 
f 89//89 7//7 91//91 
f 90//90 74//74 89//89 
f 70//70 69//69 71//71 
f 70//70 71//71 72//72 
f 106//106 174//174 71//71 
f 95//95 73//73 74//74 
f 76//76 35//35 73//73 
f 73//73 97//97 76//76 
f 36//36 77//77 71//71 
f 75//75 76//76 120//120 
f 75//75 41//41 35//35 
f 76//76 75//75 35//35 
f 77//77 36//36 40//40 
f 40//40 78//78 77//77 
f 99//99 71//71 77//77 
f 77//77 124//124 99//99 
f 124//124 77//77 78//78 
f 120//120 80//80 75//75 
f 124//124 78//78 79//79 
f 41//41 75//75 80//80 
f 78//78 40//40 79//79 
f 124//124 79//79 126//126 
f 175//175 102//102 180//180 
f 79//79 50//50 47//47 
f 79//79 47//47 101//101 
f 176//176 169//169 57//57 
f 83//83 176//176 57//57 
f 177//177 104//104 82//82 
f 80//80 84//84 60//60 
f 59//59 178//178 83//83 
f 60//60 84//84 172//172 
f 84//84 80//80 85//85 
f 80//80 144//144 85//85 
f 178//178 199//199 83//83 
f 66//66 107//107 62//62 
f 62//62 107//107 88//88 
f 88//88 107//107 110//110 
f 88//88 86//86 61//61 
f 88//88 61//61 62//62 
f 87//87 86//86 105//105 
f 105//105 68//68 87//87 
f 86//86 88//88 105//105 
f 68//68 105//105 145//145 
f 113//113 68//68 194//194 
f 68//68 113//113 153//153 
f 91//91 94//94 89//89 
f 92//92 90//90 89//89 
f 90//90 92//92 95//95 
f 91//91 7//7 183//183 
f 89//89 179//179 93//93 
f 93//93 92//92 89//89 
f 91//91 183//183 94//94 
f 93//93 116//116 92//92 
f 106//106 71//71 99//99 
f 117//117 106//106 99//99 
f 97//97 73//73 95//95 
f 95//95 74//74 90//90 
f 92//92 96//96 95//95 
f 96//96 97//97 95//95 
f 97//97 120//120 76//76 
f 97//97 96//96 98//98 
f 98//98 96//96 92//92 
f 92//92 116//116 98//98 
f 97//97 98//98 120//120 
f 101//101 126//126 79//79 
f 175//175 100//100 102//102 
f 130//130 180//180 102//102 
f 130//130 102//102 128//128 
f 103//103 81//81 82//82 
f 82//82 140//140 103//103 
f 100//100 81//81 103//103 
f 140//140 82//82 104//104 
f 181//181 83//83 142//142 
f 142//142 83//83 199//199 
f 110//110 105//105 88//88 
f 110//110 195//195 105//105 
f 107//107 66//66 106//106 
f 109//109 110//110 182//182 
f 109//109 182//182 106//106 
f 106//106 108//108 109//109 
f 108//108 111//111 109//109 
f 109//109 112//112 110//110 
f 112//112 109//109 111//111 
f 148//148 113//113 194//194 
f 148//148 114//114 113//113 
f 114//114 179//179 113//113 
f 115//115 114//114 148//148 
f 114//114 115//115 116//116 
f 93//93 179//179 116//116 
f 114//114 116//116 179//179 
f 115//115 121//121 116//116 
f 108//108 106//106 117//117 
f 111//111 108//108 117//117 
f 117//117 118//118 111//111 
f 117//117 122//122 123//123 
f 123//123 118//118 117//117 
f 149//149 119//119 147//147 
f 98//98 116//116 121//121 
f 120//120 98//98 121//121 
f 115//115 119//119 121//121 
f 120//120 121//121 119//119 
f 147//147 119//119 115//115 
f 122//122 117//117 99//99 
f 122//122 99//99 124//124 
f 123//123 122//122 124//124 
f 149//149 118//118 123//123 
f 119//119 80//80 120//120 
f 119//119 127//127 80//80 
f 186//186 119//119 149//149 
f 125//125 123//123 124//124 
f 123//123 125//125 149//149 
f 125//125 124//124 185//185 
f 206//206 132//132 200//200 
f 149//149 184//184 186//186 
f 132//132 186//186 184//184 
f 102//102 100//100 128//128 
f 128//128 100//100 133//133 
f 202//202 201//201 129//129 
f 129//129 201//201 134//134 
f 129//129 189//189 136//136 
f 129//129 136//136 131//131 
f 101//101 187//187 126//126 
f 202//202 131//131 206//206 
f 202//202 129//129 131//131 
f 131//131 132//132 206//206 
f 131//131 138//138 132//132 
f 132//132 138//138 186//186 
f 127//127 144//144 80//80 
f 103//103 133//133 100//100 
f 133//133 103//103 140//140 
f 188//188 134//134 201//201 
f 133//133 140//140 190//190 
f 141//141 136//136 189//189 
f 136//136 141//141 135//135 
f 139//139 136//136 135//135 
f 127//127 137//137 144//144 
f 138//138 137//137 186//186 
f 139//139 135//135 137//137 
f 136//136 138//138 131//131 
f 136//136 139//139 138//138 
f 138//138 139//139 137//137 
f 189//189 191//191 141//141 
f 85//85 144//144 203//203 
f 142//142 192//192 181//181 
f 203//203 144//144 143//143 
f 141//141 193//193 143//143 
f 204//204 143//143 193//193 
f 143//143 135//135 141//141 
f 143//143 144//144 137//137 
f 137//137 135//135 143//143 
f 146//146 195//195 110//110 
f 111//111 118//118 112//112 
f 146//146 110//110 112//112 
f 195//195 146//146 205//205 
f 146//146 147//147 205//205 
f 147//147 146//146 149//149 
f 115//115 205//205 147//147 
f 112//112 118//118 149//149 
f 112//112 149//149 146//146 
