#
# Compatibility version : 3.0
# File ID : FJ655
# Representation ID : BP4330
# Build-up logic : FMA 3.0 part_of
# Concept ID : FMA24444
# English name : Left trapezium
# Bounds(mm): (264.064000,-130.954000,796.012000)-(281.186000,-113.945000,816.090000)
# Volume(cm3): 1.537700
#
v 264.306 -123.187 808.408
v 264.184 -123.748 807.456
v 264.064 -123.412 807.392
v 264.572 -124.131 808.948
v 264.14 -123.063 807.316
v 264.495 -123.537 806.656
v 264.833 -123.89 806.613
v 264.715 -123.01 806.525
v 266.731 -128.509 814.765
v 267.304 -128.994 814.839
v 268.4 -129.658 813.444
v 266.791 -127.214 813.972
v 267.759 -126.098 815.652
v 267.468 -126.192 813.538
v 267.316 -124.896 812.92
v 268.076 -125.255 814.384
v 267.558 -124.053 813.45
v 266.14 -129.381 812.467
v 266.928 -129.712 813.573
v 267.132 -126.918 811.914
v 266.769 -125.182 810.141
v 267.39 -126.094 812.367
v 266.587 -129.468 809.554
v 266.755 -130.174 810.08
v 266.668 -128.378 809.969
v 266.747 -129.794 808.234
v 267.561 -130.442 810.408
v 266.988 -128.108 807.992
v 267.671 -126.944 809.75
v 265.327 -124.735 808.342
v 266.293 -124.896 807.211
v 267.348 -130.338 807.716
v 267.272 -129.685 806.799
v 268.02 -130.014 806.284
v 266.887 -128.312 806.847
v 267.43 -127.604 806.588
v 267.819 -128.823 805.706
v 266.36 -124.144 805.135
v 266.347 -123.772 804.7
v 266.683 -123.852 804.19
v 266.728 -123.229 804.485
v 267.15 -124.037 803.092
v 268.598 -126.3 816.09
v 269.359 -128.794 814.129
v 268.449 -125.117 814.915
v 269.092 -124.383 814.75
v 268.401 -130.908 807.316
v 268.729 -130.88 806.938
v 269.167 -130.859 808.142
v 269.766 -130.702 806.855
v 270.243 -130.6 807.57
v 268.369 -127.564 804.651
v 267.876 -125.441 804.715
v 268.575 -125.854 804.168
v 268.765 -128.224 804.617
v 269.027 -126.902 804.168
v 269.946 -126.941 803.567
v 270.041 -127.306 803.496
v 270.138 -126.997 803.213
v 270.4 -127.808 803.701
v 270.285 -126.708 802.738
v 268.449 -125.258 803.693
v 269.186 -125.808 803.751
v 269.009 -124.305 801.52
v 269.802 -125.676 802.86
v 268.075 -123.221 801.451
v 268.254 -123.593 801.316
v 270.119 -125.344 800.841
v 268.525 -123.056 800.324
v 268.791 -122.402 800.415
v 269.604 -123.567 799.464
v 269.717 -122.221 798.668
v 272.957 -126.093 813.389
v 272.19 -119.725 813.068
v 272.585 -117.46 810.436
v 271.319 -116.082 808.419
v 271.288 -116.03 807.922
v 271.686 -116.094 808.67
v 271.662 -129.819 808.609
v 272.751 -129.079 809.236
v 272.648 -129.67 807.976
v 270.156 -116.257 806.361
v 271.93 -115.9 806.027
v 271.31 -129.301 805.644
v 271.846 -129.894 807.312
v 270.69 -127.077 802.847
v 271.677 -124.497 798.694
v 270.413 -120.363 799.129
v 271.381 -119.95 798.551
v 271.66 -118.879 798.592
v 271.394 -120.538 798.304
v 271.688 -120.764 797.936
v 271.714 -119.563 798.543
v 272.019 -119.213 798.465
v 272.337 -119.893 798.44
v 272.365 -119.233 798.306
v 272.369 -118.547 798.204
v 271.857 -123.421 797.206
v 271.437 -121.592 797.463
v 272.466 -121.259 796.859
v 273.798 -123.524 814.239
v 276.259 -127.603 810.046
v 275.403 -125.756 812.121
v 274.786 -118.276 808.729
v 274.043 -116.778 806.988
v 275.494 -118.76 807.573
v 275.621 -129.455 807.38
v 275.844 -128.222 805.518
v 274.055 -115.352 804.231
v 273.628 -114.622 802.665
v 274.985 -114.517 801.808
v 274.432 -125.303 802.804
v 272.479 -115.03 801.002
v 273.539 -113.993 800.736
v 273.436 -114.934 799.204
v 273.942 -114.004 800.829
v 274.545 -113.945 799.966
v 275.56 -122.829 798.756
v 272.721 -120.246 797.738
v 273.017 -119.594 797.84
v 273.649 -118.86 797.585
v 274.728 -118.866 797.338
v 273.476 -116.217 798.325
v 274.518 -114.847 798.733
v 272.782 -122.439 796.375
v 273.621 -123.804 796.676
v 273.533 -123.432 796.306
v 274.244 -123.422 796.223
v 274.193 -123.084 796.062
v 274.159 -122.673 796.044
v 274.645 -123.466 796.561
v 274.596 -123.069 796.107
v 274.534 -122.683 796.047
v 275.16 -122.955 796.433
v 275.283 -122.518 796.408
v 274.899 -122.617 796.155
v 275.517 -122.385 796.862
v 275.193 -121.79 796.462
v 273.727 -120.167 797.042
v 274.105 -120.913 796.323
v 274.79 -120.116 796.936
v 277.966 -121.967 812.559
v 276.132 -118.99 809.702
v 278.487 -120.147 810.73
v 278.442 -128.467 808.977
v 278.508 -121.53 807.231
v 276.96 -119.262 805.403
v 278.009 -128.674 805.969
v 278.814 -129.112 807.2
v 277.19 -127.414 805.437
v 278.044 -124.251 805.499
v 277.152 -122.314 803.907
v 276.793 -122.826 803.488
v 276.63 -118.329 804.476
v 276.945 -119.105 804.28
v 276.102 -115.776 802.706
v 276.78 -122.111 802.528
v 276.823 -116.506 801.369
v 275.989 -114.694 799.745
v 276.236 -115.169 799.071
v 275.968 -120.655 797.425
v 276.853 -119.75 799.405
v 275.234 -115.99 798.087
v 275.599 -115.011 798.709
v 279.235 -125.122 810.865
v 280.642 -124.733 809.573
v 280.158 -128.176 808.039
v 280.168 -128.219 807.356
v 280.777 -127.444 807.511
v 280.431 -127.131 809.013
v 280.306 -126.723 806.732
v 280.788 -126.371 809.106
v 280.856 -124.81 808.722
v 280.851 -127.168 808.492
v 280.547 -125.218 807.368
v 280.902 -126.706 807.332
v 281.14 -126.067 808.619
v 281.127 -126.592 807.996
v 281.101 -125.892 807.89
v 280.085 -127.666 806.585
v 264.064 -123.412 807.392
v 264.14 -123.063 807.316
v 266.731 -128.509 814.765
v 266.731 -128.509 814.765
v 267.304 -128.994 814.839
v 267.304 -128.994 814.839
v 267.759 -126.098 815.652
v 267.759 -126.098 815.652
v 267.316 -124.896 812.92
v 267.316 -124.896 812.92
v 268.076 -125.255 814.384
v 268.076 -125.255 814.384
v 267.558 -124.053 813.45
v 266.14 -129.381 812.467
v 266.769 -125.182 810.141
v 267.671 -126.944 809.75
v 267.15 -124.037 803.092
v 267.15 -124.037 803.092
v 268.598 -126.3 816.09
v 268.598 -126.3 816.09
v 268.598 -126.3 816.09
v 268.729 -130.88 806.938
v 268.369 -127.564 804.651
v 267.876 -125.441 804.715
v 267.876 -125.441 804.715
v 270.041 -127.306 803.496
v 268.075 -123.221 801.451
v 268.525 -123.056 800.324
v 271.686 -116.094 808.67
v 270.156 -116.257 806.361
v 271.677 -124.497 798.694
v 273.798 -123.524 814.239
v 275.621 -129.455 807.38
v 274.432 -125.303 802.804
v 274.432 -125.303 802.804
v 274.645 -123.466 796.561
v 274.79 -120.116 796.936
v 277.966 -121.967 812.559
v 278.009 -128.674 805.969
v 278.009 -128.674 805.969
v 278.814 -129.112 807.2
v 278.814 -129.112 807.2
v 275.989 -114.694 799.745
v 276.236 -115.169 799.071
v 264.184 -123.748 807.456
v 264.572 -124.131 808.948
v 264.495 -123.537 806.656
v 266.347 -123.772 804.7
v 266.683 -123.852 804.19
v 272.585 -117.46 810.436
v 270.69 -127.077 802.847
v 273.539 -113.993 800.736
v 274.545 -113.945 799.966
v 275.16 -122.955 796.433
v 278.487 -120.147 810.73
v 264.064 -123.412 807.392
v 264.14 -123.063 807.316
vn -0.830517 0.366375 0.419536
vn -0.938256 -0.303459 0.166099
vn -0.977022 -0.0623214 0.203825
vn -0.932062 -0.111667 0.34466
vn -0.863695 0.469019 0.184531
vn -0.722132 -0.511869 -0.465311
vn -0.582115 -0.700691 -0.412522
vn -0.738831 0.274766 -0.615331
vn -0.681549 -0.568352 0.460941
vn -0.588681 -0.615575 0.523949
vn 0.219815 -0.905494 0.36299
vn -0.912546 0.403773 0.0650237
vn -0.481306 -0.114484 0.869044
vn -0.949802 0.290308 0.116606
vn -0.937713 0.00126178 0.347409
vn -0.766876 0.614974 0.183596
vn -0.868256 -0.0603566 0.492431
vn -0.996049 0.077508 -0.0433488
vn -0.385148 -0.856164 0.344449
vn -0.895383 0.433361 -0.102405
vn -0.368835 -0.928929 0.0324213
vn -0.988661 0.142509 -0.0473326
vn -0.995206 -0.00596229 -0.0976167
vn -0.695429 -0.718523 -0.0101748
vn -0.925874 0.357503 -0.122268
vn -0.908907 -0.3638 -0.203808
vn -0.187962 -0.974274 0.124343
vn -0.894394 0.444092 -0.0533023
vn -0.913604 0.392343 -0.106746
vn -0.486962 -0.869394 -0.083795
vn -0.452989 -0.874733 -0.172173
vn -0.594556 -0.770729 -0.229083
vn -0.764931 -0.431506 -0.478208
vn -0.476537 -0.629244 -0.613975
vn -0.942292 0.121576 -0.311937
vn -0.922579 0.271475 -0.274135
vn -0.687889 -0.312587 -0.655056
vn -0.609833 -0.697329 -0.376612
vn -0.666718 -0.560367 -0.491403
vn -0.723484 -0.594411 -0.351063
vn -0.740774 0.352789 -0.571659
vn -0.566663 -0.721182 -0.398485
vn -0.410957 -0.187775 0.892107
vn 0.45058 -0.663428 0.597361
vn -0.532812 0.677867 0.506565
vn -0.557089 0.55533 0.617463
vn -0.323611 -0.931679 -0.165076
vn -0.192984 -0.744305 -0.639348
vn 0.165048 -0.979904 0.112016
vn 0.250039 -0.908004 -0.336167
vn 0.345331 -0.937154 0.0498816
vn -0.876168 0.236768 -0.419847
vn -0.892509 -0.420933 -0.161995
vn -0.646173 -0.345792 -0.680359
vn -0.470308 -0.386837 -0.793201
vn -0.517618 -0.16743 -0.83907
vn -0.758252 -0.232734 -0.609006
vn -0.469494 -0.3212 -0.822439
vn -0.726816 -0.392693 -0.563499
vn -0.168634 -0.68384 -0.709877
vn -0.724982 -0.498604 -0.475178
vn -0.544899 -0.675109 -0.497306
vn -0.557756 -0.552793 -0.619134
vn -0.600201 -0.684101 -0.414443
vn -0.762798 -0.517389 -0.387876
vn -0.848329 -0.236185 -0.473872
vn -0.710874 -0.507714 -0.486708
vn -0.648725 -0.631158 -0.425201
vn -0.752848 -0.40124 -0.521754
vn -0.845621 0.421591 -0.327391
vn -0.626436 -0.549711 -0.552627
vn -0.735454 0.0775918 -0.673117
vn 0.489247 -0.577924 0.653178
vn -0.18391 0.641821 0.744475
vn 0.476705 0.846807 0.235943
vn -0.436878 0.82079 0.368023
vn -0.144295 0.986568 0.0765677
vn 0.21029 0.963179 0.167526
vn 0.36492 -0.897475 0.247732
vn 0.328223 -0.813448 0.48018
vn 0.209765 -0.939926 0.269329
vn -0.782016 0.506333 -0.363427
vn 0.0293611 0.988547 0.148031
vn 0.208846 -0.822439 -0.52913
vn 0.283165 -0.954876 -0.089606
vn 0.277545 -0.699912 -0.658097
vn -0.425048 -0.700008 -0.573867
vn -0.703357 0.425525 -0.569402
vn -0.308856 0.209657 -0.927713
vn -0.477945 0.166001 -0.862562
vn -0.401714 0.471394 -0.785121
vn -0.464639 0.593701 -0.656985
vn -0.176415 0.0351257 -0.983689
vn -0.353797 -0.0858244 -0.931376
vn -0.407935 0.254052 -0.876953
vn -0.523814 -0.135378 -0.841006
vn -0.483166 0.036719 -0.874758
vn -0.503092 -0.496681 -0.707252
vn -0.568077 0.357537 -0.741253
vn -0.464415 0.484493 -0.74134
vn 0.446563 -0.410206 0.795181
vn 0.0916334 -0.779325 0.619884
vn 0.291141 -0.623155 0.725889
vn 0.575464 0.801534 0.162433
vn 0.506437 0.788094 0.349899
vn 0.707837 0.671304 0.219816
vn 0.114293 -0.901056 0.418371
vn 0.145826 -0.697225 -0.701863
vn 0.193969 0.904441 0.37995
vn 0.0342892 0.934597 0.354052
vn 0.36701 0.87803 0.307192
vn 0.264965 -0.858598 -0.438866
vn -0.777112 0.556043 -0.294809
vn -0.614085 0.719587 -0.324181
vn -0.566872 0.617859 -0.544892
vn 0.0881015 0.96616 0.24243
vn -0.0564434 0.846411 -0.52953
vn 0.850834 -0.499183 -0.164006
vn -0.529833 0.557129 -0.63944
vn -0.607556 0.147271 -0.780504
vn -0.374931 0.237137 -0.89621
vn 0.0198408 0.289329 -0.957024
vn -0.433207 0.370739 -0.821513
vn -0.143068 0.627517 -0.765346
vn -0.421283 0.0131673 -0.906834
vn -0.024492 -0.867784 -0.496338
vn -0.259536 -0.477736 -0.839291
vn 0.135082 -0.654851 -0.743588
vn -0.0649456 -0.211929 -0.975125
vn -0.108941 0.0499885 -0.992791
vn 0.73972 -0.662843 -0.115991
vn 0.347233 -0.385094 -0.855063
vn 0.138016 0.0178758 -0.990269
vn 0.537706 -0.377023 -0.754139
vn 0.746384 -0.0638465 -0.662446
vn 0.424268 -0.000276803 -0.905537
vn 0.920231 -0.267178 -0.28599
vn 0.484255 0.239391 -0.84154
vn -0.358137 0.467334 -0.808292
vn -0.0111402 0.340097 -0.940324
vn -0.109895 0.491442 -0.863949
vn 0.269215 0.507796 0.818332
vn 0.510973 0.857365 -0.0619045
vn 0.298069 0.667547 0.682302
vn 0.236133 -0.750211 0.617596
vn 0.817579 0.51907 -0.24926
vn 0.79399 0.576857 0.191872
vn 0.0102728 -0.882131 -0.470893
vn 0.348933 -0.895741 0.27549
vn 0.348471 -0.318983 -0.881373
vn 0.670442 -0.0102508 -0.741891
vn 0.919512 -0.0378034 -0.391241
vn 0.827373 -0.382666 -0.41112
vn 0.866384 0.437464 0.24084
vn 0.970871 0.239345 -0.0111437
vn 0.740085 0.585281 0.331242
vn 0.957256 -0.199367 -0.209554
vn 0.951471 0.302795 0.0549278
vn 0.733464 0.662699 0.151194
vn 0.845911 0.250559 -0.470801
vn 0.701415 0.136636 -0.699534
vn 0.975499 -0.094789 -0.198539
vn 0.207743 0.334386 -0.919255
vn 0.318528 0.694339 -0.645316
vn 0.499972 -0.356414 0.789301
vn 0.857991 0.08866 0.505955
vn 0.610065 -0.733983 0.298479
vn 0.681147 -0.695417 -0.228984
vn 0.870493 -0.456589 -0.183762
vn 0.535042 -0.526779 0.66048
vn 0.64172 0.0905144 -0.761579
vn 0.741411 -0.255782 0.620391
vn 0.922687 0.37835 -0.074158
vn 0.830971 -0.446721 0.331554
vn 0.758336 0.310178 -0.573338
vn 0.843115 -0.0302652 -0.536882
vn 0.970073 -0.0315766 0.24075
vn 0.97995 -0.182202 -0.0806215
vn 0.947202 0.182878 -0.263371
vn 0.597517 -0.319375 -0.735509
vn -0.826314 -0.375084 -0.42014
vn -0.809414 0.0487853 -0.585209
vn -0.410957 -0.187775 0.892107
vn -0.939805 0.208859 0.270452
vn -0.336148 -0.259028 0.905488
vn 0.230008 -0.740575 0.631384
vn -0.823655 0.501006 0.26568
vn -0.206339 0.676348 0.707091
vn -0.503625 -0.84297 0.189113
vn -0.848656 -0.482518 0.216701
vn -0.881513 0.048967 0.469614
vn -0.563872 0.341338 0.752022
vn -0.543501 0.527916 0.652618
vn -0.670714 -0.690336 0.271254
vn -0.887279 -0.460389 0.0278775
vn -0.887279 -0.460389 0.0278775
vn -0.82552 0.400642 -0.397495
vn -0.811761 -0.19018 -0.552155
vn -0.413151 0.617703 0.669141
vn 0.413429 -0.48142 0.772859
vn 0.144674 0.346888 0.926681
vn 0.119912 -0.992429 -0.0265726
vn -0.58468 -0.224732 -0.779516
vn -0.643762 -0.674031 -0.362288
vn -0.974077 0.224557 0.0273698
vn -0.879485 -0.140319 -0.454772
vn -0.864536 0.424649 -0.268795
vn -0.851582 0.394838 -0.344835
vn -0.251045 0.73213 0.633216
vn -0.335411 0.916465 0.218153
vn 0.240191 -0.909476 -0.339355
vn 0.184471 0.359991 0.914537
vn 0.0799748 -0.883842 -0.460899
vn 0.625074 -0.281107 -0.72819
vn 0.760042 -0.626878 -0.171345
vn 0.370907 -0.792046 -0.484862
vn 0.450029 0.324166 -0.8321
vn 0.688084 -0.0428346 0.724366
vn 0.243467 -0.23866 -0.940088
vn 0.490509 -0.668766 -0.558707
vn 0.077696 -0.922163 -0.378918
vn 0.498524 -0.671406 -0.548351
vn 0.403025 0.821622 -0.403124
vn 0.43166 0.8042 -0.408573
vn -0.688107 -0.664143 -0.292273
vn -0.581401 -0.809476 0.0819852
vn -0.77431 0.171475 -0.60913
vn -0.726622 0.21689 -0.651904
vn -0.823931 0.289319 -0.487271
vn 0.0956661 0.747357 0.657499
vn -0.425256 -0.704473 -0.568221
vn -0.0495854 0.970763 0.234862
vn 0.247516 0.955816 0.158591
vn 0.844616 -0.496271 -0.200844
vn 0.774312 0.630008 0.0594224
vn -0.821109 0.132485 -0.555182
vn -0.693802 0.547649 -0.467675
g grp1
usemtl mtl1
f 15//15 1//1 4//4 
f 3//3 2//2 4//4 
f 1//1 3//3 4//4 
f 1//1 5//5 3//3 
f 225//225 181//181 6//6 
f 236//236 182//182 8//8 
f 227//227 236//236 8//8 
f 225//225 30//30 226//226 
f 30//30 189//189 226//226 
f 30//30 225//225 7//7 
f 6//6 7//7 225//225 
f 21//21 189//189 30//30 
f 8//8 237//237 82//82 
f 7//7 6//6 39//39 
f 228//228 227//227 8//8 
f 38//38 7//7 39//39 
f 38//38 30//30 7//7 
f 19//19 10//10 9//9 
f 183//183 185//185 43//43 
f 186//186 11//11 44//44 
f 11//11 186//186 19//19 
f 13//13 183//183 43//43 
f 187//187 12//12 184//184 
f 187//187 16//16 12//12 
f 12//12 16//16 14//14 
f 191//191 15//15 14//14 
f 15//15 191//191 17//17 
f 188//188 199//199 45//45 
f 16//16 187//187 45//45 
f 45//45 46//46 16//16 
f 193//193 192//192 46//46 
f 17//17 1//1 15//15 
f 1//1 193//193 74//74 
f 184//184 12//12 18//18 
f 12//12 25//25 18//18 
f 194//194 19//19 9//9 
f 18//18 23//23 24//24 
f 18//18 25//25 23//23 
f 19//19 194//194 24//24 
f 24//24 27//27 19//19 
f 11//11 19//19 27//27 
f 11//11 27//27 49//49 
f 12//12 14//14 20//20 
f 14//14 22//22 20//20 
f 12//12 20//20 25//25 
f 29//29 25//25 20//20 
f 22//22 29//29 20//20 
f 14//14 15//15 22//22 
f 15//15 29//29 22//22 
f 195//195 196//196 190//190 
f 24//24 23//23 26//26 
f 23//23 35//35 26//26 
f 25//25 28//28 23//23 
f 23//23 28//28 35//35 
f 24//24 32//32 27//27 
f 28//28 25//25 29//29 
f 36//36 28//28 29//29 
f 35//35 28//28 36//36 
f 195//195 53//53 196//196 
f 30//30 38//38 31//31 
f 30//30 31//31 21//21 
f 8//8 82//82 41//41 
f 5//5 1//1 210//210 
f 1//1 76//76 210//210 
f 26//26 32//32 24//24 
f 34//34 32//32 33//33 
f 33//33 32//32 26//26 
f 35//35 33//33 26//26 
f 33//33 35//35 37//37 
f 34//34 33//33 37//37 
f 32//32 47//47 27//27 
f 32//32 34//34 47//47 
f 34//34 48//48 47//47 
f 34//34 37//37 55//55 
f 35//35 36//36 52//52 
f 204//204 54//54 36//36 
f 36//36 54//54 52//52 
f 29//29 205//205 36//36 
f 31//31 38//38 204//204 
f 38//38 39//39 40//40 
f 229//229 228//228 41//41 
f 21//21 31//31 204//204 
f 40//40 204//204 38//38 
f 42//42 204//204 40//40 
f 228//228 8//8 41//41 
f 41//41 197//197 229//229 
f 197//197 41//41 82//82 
f 186//186 44//44 200//200 
f 44//44 101//101 200//200 
f 199//199 46//46 45//45 
f 74//74 193//193 46//46 
f 79//79 11//11 49//49 
f 44//44 11//11 79//79 
f 76//76 1//1 74//74 
f 27//27 47//47 49//49 
f 47//47 202//202 49//49 
f 202//202 50//50 49//49 
f 60//60 48//48 34//34 
f 55//55 60//60 34//34 
f 79//79 49//49 51//51 
f 51//51 49//49 50//50 
f 60//60 50//50 48//48 
f 60//60 84//84 50//50 
f 84//84 85//85 50//50 
f 50//50 85//85 51//51 
f 37//37 35//35 203//203 
f 55//55 37//37 203//203 
f 203//203 54//54 56//56 
f 56//56 55//55 203//203 
f 55//55 56//56 58//58 
f 58//58 56//56 57//57 
f 60//60 58//58 59//59 
f 60//60 55//55 58//58 
f 57//57 59//59 206//206 
f 57//57 61//61 59//59 
f 60//60 59//59 61//61 
f 60//60 108//108 84//84 
f 86//86 108//108 60//60 
f 231//231 60//60 61//61 
f 204//204 42//42 62//62 
f 54//54 204//204 62//62 
f 63//63 62//62 42//42 
f 56//56 54//54 63//63 
f 63//63 54//54 62//62 
f 63//63 42//42 64//64 
f 64//64 42//42 67//67 
f 63//63 64//64 65//65 
f 64//64 68//68 65//65 
f 63//63 57//57 56//56 
f 65//65 57//57 63//63 
f 57//57 65//65 61//61 
f 65//65 68//68 61//61 
f 67//67 198//198 66//66 
f 197//197 82//82 207//207 
f 67//67 66//66 69//69 
f 82//82 70//70 207//207 
f 68//68 231//231 61//61 
f 87//87 231//231 68//68 
f 71//71 64//64 67//67 
f 69//69 71//71 67//67 
f 207//207 70//70 208//208 
f 70//70 72//72 208//208 
f 68//68 64//64 71//71 
f 71//71 69//69 72//72 
f 70//70 82//82 88//88 
f 98//98 71//71 72//72 
f 71//71 87//87 68//68 
f 98//98 87//87 71//71 
f 70//70 88//88 72//72 
f 80//80 73//73 44//44 
f 73//73 80//80 103//103 
f 73//73 101//101 44//44 
f 73//73 103//103 101//101 
f 46//46 199//199 74//74 
f 78//78 75//75 105//105 
f 210//210 76//76 77//77 
f 76//76 74//74 209//209 
f 78//78 77//77 76//76 
f 230//230 209//209 74//74 
f 80//80 44//44 79//79 
f 81//81 80//80 79//79 
f 81//81 79//79 85//85 
f 107//107 80//80 81//81 
f 107//107 81//81 85//85 
f 78//78 83//83 77//77 
f 77//77 83//83 210//210 
f 78//78 105//105 83//83 
f 83//83 105//105 109//109 
f 83//83 109//109 210//210 
f 85//85 79//79 51//51 
f 213//213 85//85 84//84 
f 213//213 84//84 108//108 
f 108//108 86//86 150//150 
f 113//113 88//88 82//82 
f 211//211 112//112 86//86 
f 125//125 98//98 72//72 
f 125//125 72//72 99//99 
f 99//99 72//72 88//88 
f 88//88 90//90 89//89 
f 88//88 89//89 91//91 
f 89//89 90//90 93//93 
f 92//92 88//88 91//91 
f 99//99 88//88 92//92 
f 89//89 95//95 91//91 
f 89//89 93//93 95//95 
f 95//95 93//93 94//94 
f 94//94 93//93 90//90 
f 95//95 92//92 91//91 
f 95//95 94//94 96//96 
f 96//96 94//94 97//97 
f 94//94 90//90 97//97 
f 119//119 92//92 95//95 
f 99//99 92//92 100//100 
f 100//100 92//92 119//119 
f 96//96 120//120 95//95 
f 97//97 120//120 96//96 
f 98//98 125//125 127//127 
f 211//211 126//126 112//112 
f 98//98 126//126 87//87 
f 127//127 126//126 98//98 
f 99//99 100//100 125//125 
f 101//101 103//103 165//165 
f 74//74 201//201 212//212 
f 74//74 144//144 230//230 
f 102//102 103//103 80//80 
f 146//146 106//106 143//143 
f 75//75 235//235 143//143 
f 75//75 143//143 104//104 
f 143//143 106//106 104//104 
f 107//107 102//102 80//80 
f 145//145 102//102 107//107 
f 104//104 106//106 105//105 
f 104//104 105//105 75//75 
f 154//154 156//156 106//106 
f 156//156 105//105 106//106 
f 148//148 213//213 108//108 
f 214//214 151//151 150//150 
f 210//210 109//109 110//110 
f 110//110 109//109 111//111 
f 150//150 86//86 112//112 
f 215//215 118//118 153//153 
f 123//123 90//90 88//88 
f 82//82 114//114 113//113 
f 113//113 114//114 115//115 
f 88//88 113//113 115//115 
f 123//123 88//88 115//115 
f 110//110 232//232 210//210 
f 117//117 115//115 114//114 
f 232//232 110//110 116//116 
f 116//116 233//233 232//232 
f 111//111 116//116 110//110 
f 117//117 124//124 115//115 
f 116//116 111//111 233//233 
f 118//118 215//215 131//131 
f 119//119 95//95 120//120 
f 120//120 139//139 119//119 
f 139//139 120//120 121//121 
f 121//121 122//122 139//139 
f 139//139 122//122 141//141 
f 122//122 161//161 217//217 
f 90//90 123//123 97//97 
f 120//120 97//97 121//121 
f 97//97 123//123 121//121 
f 122//122 121//121 123//123 
f 123//123 163//163 122//122 
f 124//124 123//123 115//115 
f 163//163 123//123 124//124 
f 127//127 125//125 129//129 
f 128//128 126//126 127//127 
f 127//127 129//129 128//128 
f 129//129 125//125 130//130 
f 140//140 130//130 125//125 
f 216//216 112//112 126//126 
f 216//216 126//126 128//128 
f 132//132 216//216 128//128 
f 132//132 128//128 129//129 
f 132//132 129//129 133//133 
f 129//129 130//130 133//133 
f 133//133 130//130 140//140 
f 216//216 132//132 134//134 
f 140//140 138//138 136//136 
f 136//136 134//134 132//132 
f 133//133 136//136 132//132 
f 136//136 133//133 140//140 
f 136//136 135//135 134//134 
f 138//138 135//135 136//136 
f 234//234 118//118 131//131 
f 118//118 234//234 137//137 
f 118//118 137//137 162//162 
f 137//137 234//234 135//135 
f 161//161 137//137 135//135 
f 138//138 161//161 135//135 
f 125//125 100//100 140//140 
f 100//100 119//119 139//139 
f 140//140 100//100 139//139 
f 141//141 140//140 139//139 
f 140//140 217//217 138//138 
f 161//161 138//138 217//217 
f 74//74 212//212 142//142 
f 142//142 144//144 74//74 
f 166//166 235//235 218//218 
f 145//145 103//103 102//102 
f 103//103 145//145 165//165 
f 165//165 218//218 101//101 
f 146//146 143//143 235//235 
f 145//145 107//107 149//149 
f 170//170 165//165 145//145 
f 149//149 167//167 145//145 
f 170//170 145//145 167//167 
f 149//149 168//168 167//167 
f 146//146 147//147 106//106 
f 147//147 154//154 106//106 
f 219//219 108//108 150//150 
f 221//221 213//213 148//148 
f 222//222 220//220 180//180 
f 219//219 150//150 180//180 
f 180//180 151//151 171//171 
f 175//175 171//171 151//151 
f 150//150 151//151 180//180 
f 214//214 153//153 151//151 
f 151//151 153//153 152//152 
f 146//146 152//152 155//155 
f 155//155 152//152 157//157 
f 151//151 152//152 146//146 
f 147//147 146//146 155//155 
f 147//147 155//155 154//154 
f 154//154 155//155 156//156 
f 156//156 109//109 105//105 
f 158//158 156//156 155//155 
f 156//156 111//111 109//109 
f 159//159 111//111 156//156 
f 153//153 118//118 157//157 
f 153//153 157//157 152//152 
f 157//157 118//118 162//162 
f 155//155 157//157 162//162 
f 155//155 162//162 158//158 
f 158//158 162//162 160//160 
f 160//160 159//159 158//158 
f 159//159 156//156 158//158 
f 159//159 233//233 111//111 
f 164//164 124//124 117//117 
f 224//224 164//164 223//223 
f 223//223 164//164 117//117 
f 162//162 161//161 160//160 
f 160//160 161//161 163//163 
f 163//163 161//161 122//122 
f 164//164 163//163 124//124 
f 164//164 160//160 163//163 
f 162//162 137//137 161//161 
f 165//165 166//166 218//218 
f 166//166 165//165 172//172 
f 173//173 235//235 166//166 
f 170//170 167//167 174//174 
f 168//168 169//169 167//167 
f 167//167 169//169 174//174 
f 172//172 165//165 170//170 
f 170//170 174//174 172//172 
f 180//180 171//171 176//176 
f 172//172 174//174 177//177 
f 174//174 178//178 177//177 
f 173//173 179//179 175//175 
f 174//174 169//169 178//178 
f 178//178 169//169 176//176 
f 178//178 176//176 179//179 
f 179//179 176//176 175//175 
f 176//176 169//169 180//180 
f 175//175 176//176 171//171 
f 166//166 172//172 177//177 
f 173//173 166//166 177//177 
f 177//177 178//178 179//179 
f 179//179 173//173 177//177 
f 173//173 146//146 235//235 
f 175//175 151//151 146//146 
f 146//146 173//173 175//175 
f 180//180 168//168 222//222 
f 180//180 169//169 168//168 
