#
# Compatibility version : 3.0
# File ID : FJ662
# Representation ID : BP4079
# Build-up logic : FMA 3.0 part_of
# Concept ID : FMA32656
# English name : Distal phalanx of right fourth toe
# Bounds(mm): (-136.804000,-209.622000,-4.074900)-(-128.299000,-198.319000,3.014900)
# Volume(cm3): 0.211500
#
v -136.738 -199.354 -1.00375
v -136.804 -199.601 -0.149905
v -136.761 -199.995 -1.21586
v -136.364 -199.337 -1.63797
v -136.452 -199.052 -1.23472
v -136.428 -198.943 -0.514398
v -135.832 -198.663 -0.852728
v -136.256 -207.013 -2.41657
v -136.375 -204.758 -2.08748
v -136.075 -205.13 -1.24357
v -136.142 -206.272 -3.1483
v -135.046 -203.211 -3.0662
v -134.784 -202.189 -3.02527
v -135.362 -202.414 -2.59855
v -135.823 -204.112 -2.97548
v -135.261 -199.995 -2.73823
v -135.076 -200.766 -2.93591
v -135.027 -201.761 -2.83197
v -133.807 -200.394 -3.31698
v -135.765 -201.249 -1.67823
v -135.806 -201.384 -0.711977
v -135.767 -202.068 -1.57432
v -135.668 -202.256 -0.857984
v -134.347 -203.155 0.749234
v -135.492 -199.1 -2.02301
v -135.169 -198.554 -0.160736
v -133.635 -198.319 -1.36534
v -133.3 -198.505 -1.0766
v -133.22 -199.492 0.149139
v -134.968 -199.278 1.67885
v -134.676 -199.831 2.28523
v -134.037 -199.827 2.55313
v -134.354 -200.748 2.06354
v -134.033 -200.19 2.58505
v -133.615 -199.558 2.33356
v -135.888 -207.938 -3.04329
v -135.535 -207.553 -3.58797
v -135.252 -208.865 -2.72294
v -135.025 -208.403 -3.25027
v -134.619 -206.927 -3.98834
v -134.671 -209.127 -2.80895
v -135.615 -208.436 -2.00419
v -135.213 -208.959 -2.15789
v -134.942 -208.608 -1.36549
v -134.889 -209.087 -1.88381
v -134.677 -209.307 -2.26858
v -134.078 -208.199 -0.87131
v -135.18 -206.266 -3.8917
v -133.691 -205.556 -4.00149
v -135.319 -207.096 -0.929732
v -133.423 -203.188 -3.44108
v -133.319 -203.953 -3.52852
v -134.01 -201.312 -3.57081
v -133.855 -202.081 -3.47092
v -132.493 -202.192 -3.87639
v -132.378 -201.743 -3.92223
v -131.723 -200.556 -3.30225
v -132.423 -204.134 0.903795
v -132.171 -198.487 -1.99017
v -131.138 -199.197 -2.2234
v -130.938 -198.677 -1.82788
v -132.507 -199.104 -0.783636
v -132.27 -200.339 -0.127591
v -131.588 -200.496 -0.201847
v -131.207 -198.647 -1.50059
v -132.851 -200.435 2.93966
v -132.673 -200.05 0.625208
v -132.483 -200.032 2.48479
v -132.49 -200.166 2.80353
v -132.029 -200.742 0.37219
v -132.605 -201.219 2.84034
v -131.937 -201.436 2.91167
v -131.884 -201.143 2.99573
v -131.464 -200.941 2.94645
v -131.716 -202.149 2.49721
v -131.382 -201.607 2.83136
v -133.798 -209.214 -2.87967
v -132.853 -209.327 -2.62182
v -132.683 -208.359 -3.17218
v -133.578 -209.569 -2.37479
v -133.505 -209.404 -1.70729
v -132.815 -209.481 -2.02393
v -132.163 -209.12 -2.2346
v -132.575 -206.076 -3.91752
v -132.566 -206.946 -3.80295
v -131.912 -206.49 -3.5331
v -131.993 -208.274 -2.93507
v -131.438 -208.063 -2.2298
v -132.111 -208.366 -1.19914
v -132.584 -204.6 -3.58438
v -132.195 -203.674 -3.43618
v -131.73 -204.983 -3.27245
v -131.329 -205.578 -2.92341
v -131.252 -204.941 -2.8334
v -131.052 -205.04 -2.49301
v -130.918 -204.202 -2.6207
v -130.991 -205.994 -1.90584
v -130.833 -205.221 -1.35299
v -130.528 -204.37 -2.03567
v -130.542 -204.658 -1.24997
v -132.384 -206.117 -0.273573
v -131.638 -205.003 0.044225
v -131.782 -206.044 -0.60477
v -130.963 -205.249 -1.00009
v -131.151 -205.91 -1.21625
v -130.503 -204.547 -0.546808
v -131.386 -202.228 -3.76508
v -129.729 -202.137 -2.98799
v -129.785 -203.427 -2.38008
v -129.667 -199.818 -1.25794
v -129.47 -200.035 -1.64248
v -130.077 -201.244 2.07447
v -129.58 -201.609 1.95388
v -129.548 -202.318 1.7824
v -128.74 -201.517 0.714164
v -130.736 -202.348 2.2954
v -130.444 -201.568 2.61446
v -129.114 -202.851 -2.52401
v -128.941 -203.206 -1.07543
v -128.299 -202.658 -0.904085
v -128.963 -203.12 0.846597
v -128.678 -201.955 -1.63822
v -128.554 -201.45 -0.296452
v -128.335 -202.474 0.72497
v -136.804 -199.601 -0.149905
v -133.22 -199.492 0.149139
v -132.171 -198.487 -1.99017
v -130.938 -198.677 -1.82788
v -130.938 -198.677 -1.82788
v -132.27 -200.339 -0.127591
v -131.207 -198.647 -1.50059
v -132.49 -200.166 2.80353
v -131.464 -200.941 2.94645
v -132.163 -209.12 -2.2346
v -131.438 -208.063 -2.2298
v -130.991 -205.994 -1.90584
v -129.667 -199.818 -1.25794
v -130.077 -201.244 2.07447
v -128.74 -201.517 0.714164
v -130.444 -201.568 2.61446
v -129.114 -202.851 -2.52401
v -129.114 -202.851 -2.52401
v -128.299 -202.658 -0.904085
v -128.963 -203.12 0.846597
v -128.335 -202.474 0.72497
v -136.804 -199.601 -0.149905
v -134.676 -199.831 2.28523
v -133.578 -209.569 -2.37479
v -132.815 -209.481 -2.02393
v -132.815 -209.481 -2.02393
v -129.729 -202.137 -2.98799
v -129.58 -201.609 1.95388
v -128.335 -202.474 0.72497
vn -0.896177 0.390025 -0.211536
vn -0.996588 0.0557959 -0.0608243
vn -0.897706 -0.199835 -0.392671
vn -0.68605 0.366999 -0.628209
vn -0.582045 0.735988 -0.345752
vn -0.595572 0.785805 0.166745
vn -0.308528 0.938351 -0.155913
vn -0.966738 -0.202972 0.155626
vn -0.99442 0.1032 -0.0218581
vn -0.850295 -0.0757207 0.520831
vn -0.839523 -0.00803697 -0.543264
vn -0.328613 0.219361 -0.918637
vn -0.488462 -0.00795756 -0.872549
vn -0.736014 0.172946 -0.654502
vn -0.712923 0.258353 -0.651916
vn -0.436583 0.326175 -0.838454
vn -0.68908 -0.0975039 -0.718096
vn -0.692915 0.00619214 -0.720993
vn -0.0899554 0.453967 -0.886466
vn -0.908669 -0.163915 -0.383995
vn -0.913062 -0.361383 0.188999
vn -0.981937 0.0984584 -0.16157
vn -0.91628 -0.0657455 0.395106
vn -0.538278 -0.337511 0.772233
vn -0.288398 0.74653 -0.5996
vn 0.0832028 0.942899 0.322519
vn -0.0155194 0.99968 -0.0199587
vn 0.205081 0.801922 0.561126
vn 0.458142 0.640065 0.616784
vn -0.373499 0.730096 0.572239
vn -0.575042 -0.2398 0.782191
vn -0.200479 0.467101 0.861177
vn -0.663405 -0.391645 0.637579
vn -0.41297 -0.183037 0.892162
vn 0.117518 0.866408 0.485311
vn -0.794279 -0.437732 -0.421322
vn -0.481672 -0.271753 -0.833152
vn -0.611627 -0.716491 -0.335489
vn -0.178533 -0.50883 -0.842151
vn -0.0530867 -0.194707 -0.979424
vn -0.271637 -0.787882 -0.55268
vn -0.802042 -0.511808 0.307867
vn -0.647442 -0.750096 0.134815
vn -0.43005 -0.55034 0.715669
vn -0.467265 -0.761403 0.449364
vn -0.383012 -0.923452 0.0231994
vn -0.0464872 -0.452033 0.890789
vn -0.38421 0.0997182 -0.917845
vn -0.00749843 0.17824 -0.983959
vn -0.583175 -0.285604 0.760485
vn -0.207741 -0.0563142 -0.976561
vn -0.020591 0.181221 -0.983227
vn -0.3786 0.0265642 -0.925179
vn -0.350748 -0.175888 -0.919804
vn -0.125886 -0.179962 -0.975585
vn 0.0171452 0.18304 -0.982956
vn 0.279127 0.439651 -0.853695
vn 0.0743935 -0.531591 0.843728
vn 0.0106829 0.629353 -0.777047
vn 0.340424 0.486494 -0.804633
vn 0.148211 0.988463 0.0312131
vn 0.309074 0.598197 0.739347
vn 0.363863 0.609449 0.704397
vn 0.193196 0.707409 0.679888
vn 0.193299 0.873028 0.447726
vn -0.114564 0.111102 0.987184
vn 0.726683 0.686724 0.018496
vn 0.512119 0.854713 0.084853
vn 0.0300467 0.483552 0.8748
vn 0.450868 0.877266 0.16469
vn -0.316378 -0.383082 0.867844
vn -0.108113 -0.402583 0.908977
vn -0.0176381 -0.144866 0.989294
vn 0.509226 0.623371 0.593378
vn -0.139911 -0.561742 0.815396
vn 0.120803 -0.351684 0.928291
vn 0.00484141 -0.637171 -0.770707
vn 0.303532 -0.74863 -0.589424
vn 0.186494 -0.445864 -0.875457
vn -0.0216139 -0.899949 -0.435459
vn -0.0778394 -0.811209 0.579553
vn 0.316942 -0.913496 -0.255094
vn 0.57551 -0.686452 -0.444491
vn 0.293942 0.0368015 -0.955114
vn 0.261115 -0.311475 -0.913675
vn 0.658243 -0.118135 -0.743478
vn 0.56536 -0.439971 -0.697706
vn 0.836541 -0.268407 -0.477658
vn 0.510887 -0.494313 0.703312
vn 0.22836 0.164816 -0.959525
vn 0.235439 -0.125338 -0.963773
vn 0.566106 0.0513899 -0.822729
vn 0.862497 -0.0831926 -0.499177
vn 0.766328 -0.0805195 -0.637383
vn 0.873706 -0.290776 -0.389983
vn 0.661686 -0.241851 -0.709704
vn 0.919349 -0.303334 0.25057
vn 0.927281 -0.374336 0.0047723
vn 0.726029 -0.566138 -0.390345
vn 0.804117 -0.583478 -0.113794
vn 0.351885 -0.398994 0.846747
vn 0.502861 -0.606664 0.615703
vn 0.532721 -0.405725 0.742695
vn 0.744491 -0.527496 0.409244
vn 0.823906 -0.349401 0.446204
vn 0.683019 -0.701894 0.202066
vn 0.30063 -0.139278 -0.943516
vn 0.596658 0.331627 -0.730769
vn 0.512146 -0.582593 -0.631103
vn 0.20511 0.611479 0.764214
vn 0.708493 0.507063 -0.490841
vn 0.530731 0.654135 0.538918
vn 0.646167 0.510686 0.567157
vn 0.510073 -0.37033 0.776326
vn 0.15714 0.904337 0.396839
vn 0.206512 -0.577765 0.789646
vn 0.535911 0.511912 0.671376
vn 0.362401 -0.376757 -0.852478
vn 0.663155 -0.736469 -0.133559
vn 0.958859 0.176356 -0.222459
vn 0.332229 -0.596578 0.73056
vn 0.866058 0.25202 -0.431776
vn 0.905296 0.424757 0.00442847
vn 0.722625 -0.68491 0.0933361
vn -0.76287 -0.493443 0.417784
vn 0.625921 0.779489 0.0248924
vn 0.14244 0.988881 0.0427147
vn 0.338293 0.483669 -0.807231
vn 0.620742 0.768642 0.154496
vn 0.715459 0.688624 0.117964
vn 0.527138 0.768433 0.362818
vn 0.422362 0.80709 0.412572
vn 0.146616 0.0466405 0.988093
vn 0.663741 -0.620354 0.417861
vn 0.859484 -0.369996 0.352691
vn 0.939869 -0.0589541 -0.336409
vn 0.707114 0.692576 0.142581
vn 0.322806 0.941945 -0.0923852
vn 0.780245 0.516056 0.353417
vn 0.360019 -0.30948 0.880118
vn 0.632403 -0.731467 -0.254994
vn 0.831518 0.129809 -0.540117
vn 0.685997 -0.726537 -0.0393954
vn 0.634414 -0.763476 0.120929
vn 0.607987 -0.28796 0.739886
vn -0.743626 0.516014 0.425147
vn -0.51553 0.495007 0.699426
vn -0.100076 -0.963248 0.249274
vn 0.00134073 -0.97077 0.240007
vn 0.398739 -0.694871 0.598466
vn 0.424759 -0.206865 -0.881355
vn 0.616373 -0.158743 0.771288
vn 0.91347 0.318268 0.253531
g grp1
usemtl mtl1
f 5//5 25//25 4//4 
f 16//16 4//4 25//25 
f 3//3 2//2 1//1 
f 4//4 16//16 3//3 
f 3//3 1//1 4//4 
f 4//4 1//1 5//5 
f 17//17 3//3 16//16 
f 125//125 3//3 21//21 
f 125//125 21//21 33//33 
f 20//20 3//3 17//17 
f 1//1 6//6 5//5 
f 146//146 6//6 1//1 
f 5//5 6//6 7//7 
f 25//25 5//5 7//7 
f 146//146 30//30 6//6 
f 27//27 25//25 7//7 
f 26//26 7//7 6//6 
f 6//6 30//30 26//26 
f 11//11 36//36 8//8 
f 8//8 42//42 50//50 
f 49//49 48//48 12//12 
f 8//8 10//10 9//9 
f 15//15 11//11 9//9 
f 9//9 11//11 8//8 
f 15//15 12//12 48//48 
f 11//11 15//15 48//48 
f 8//8 50//50 10//10 
f 12//12 15//15 14//14 
f 14//14 20//20 18//18 
f 12//12 14//14 13//13 
f 13//13 14//14 18//18 
f 15//15 9//9 22//22 
f 14//14 15//15 22//22 
f 9//9 23//23 22//22 
f 9//9 10//10 23//23 
f 24//24 10//10 50//50 
f 23//23 10//10 24//24 
f 25//25 59//59 16//16 
f 18//18 20//20 17//17 
f 18//18 17//17 53//53 
f 53//53 17//17 16//16 
f 13//13 18//18 53//53 
f 16//16 19//19 53//53 
f 19//19 16//16 59//59 
f 21//21 3//3 20//20 
f 20//20 22//22 21//21 
f 20//20 14//14 22//22 
f 22//22 23//23 21//21 
f 23//23 33//33 21//21 
f 23//23 24//24 33//33 
f 59//59 25//25 27//27 
f 27//27 7//7 26//26 
f 27//27 26//26 28//28 
f 28//28 26//26 62//62 
f 62//62 26//26 29//29 
f 65//65 27//27 28//28 
f 28//28 62//62 65//65 
f 33//33 31//31 125//125 
f 146//146 147//147 30//30 
f 26//26 30//30 35//35 
f 33//33 34//34 31//31 
f 30//30 32//32 35//35 
f 30//30 147//147 32//32 
f 31//31 34//34 32//32 
f 35//35 32//32 69//69 
f 24//24 71//71 33//33 
f 33//33 71//71 34//34 
f 126//126 26//26 68//68 
f 34//34 66//66 32//32 
f 35//35 132//132 68//68 
f 26//26 35//35 68//68 
f 69//69 32//32 66//66 
f 71//71 66//66 34//34 
f 11//11 37//37 36//36 
f 36//36 42//42 8//8 
f 36//36 38//38 42//42 
f 36//36 39//39 38//38 
f 36//36 37//37 39//39 
f 11//11 48//48 37//37 
f 37//37 40//40 39//39 
f 37//37 48//48 40//40 
f 43//43 42//42 38//38 
f 39//39 41//41 38//38 
f 38//38 46//46 43//43 
f 41//41 46//46 38//38 
f 85//85 39//39 40//40 
f 41//41 39//39 77//77 
f 77//77 80//80 41//41 
f 41//41 80//80 46//46 
f 39//39 85//85 79//79 
f 77//77 39//39 79//79 
f 44//44 50//50 42//42 
f 43//43 46//46 45//45 
f 45//45 42//42 43//43 
f 44//44 42//42 45//45 
f 50//50 44//44 47//47 
f 148//148 81//81 46//46 
f 46//46 81//81 45//45 
f 44//44 45//45 81//81 
f 47//47 44//44 81//81 
f 40//40 48//48 49//49 
f 58//58 50//50 47//47 
f 51//51 12//12 13//13 
f 51//51 13//13 54//54 
f 52//52 12//12 51//51 
f 49//49 12//12 52//52 
f 91//91 52//52 51//51 
f 90//90 52//52 91//91 
f 91//91 92//92 90//90 
f 58//58 24//24 50//50 
f 53//53 55//55 54//54 
f 13//13 53//53 54//54 
f 57//57 19//19 59//59 
f 53//53 56//56 55//55 
f 56//56 53//53 19//19 
f 56//56 19//19 57//57 
f 51//51 54//54 55//55 
f 51//51 55//55 91//91 
f 91//91 55//55 107//107 
f 107//107 55//55 56//56 
f 107//107 56//56 57//57 
f 58//58 75//75 24//24 
f 116//116 75//75 58//58 
f 127//127 27//27 65//65 
f 61//61 127//127 65//65 
f 59//59 60//60 57//57 
f 128//128 60//60 59//59 
f 57//57 60//60 111//111 
f 111//111 60//60 128//128 
f 63//63 62//62 29//29 
f 67//67 126//126 68//68 
f 67//67 130//130 126//126 
f 64//64 63//63 70//70 
f 130//130 67//67 70//70 
f 63//63 64//64 62//62 
f 62//62 110//110 65//65 
f 62//62 64//64 110//110 
f 137//137 129//129 131//131 
f 75//75 71//71 24//24 
f 112//112 68//68 132//132 
f 67//67 68//68 70//70 
f 132//132 74//74 112//112 
f 68//68 138//138 70//70 
f 70//70 138//138 115//115 
f 74//74 117//117 112//112 
f 71//71 73//73 66//66 
f 72//72 71//71 75//75 
f 72//72 73//73 71//71 
f 76//76 72//72 75//75 
f 133//133 66//66 73//73 
f 133//133 69//69 66//66 
f 76//76 73//73 72//72 
f 116//116 76//76 75//75 
f 76//76 133//133 73//73 
f 140//140 76//76 116//116 
f 140//140 133//133 76//76 
f 77//77 79//79 78//78 
f 78//78 80//80 77//77 
f 78//78 82//82 80//80 
f 82//82 78//78 83//83 
f 79//79 87//87 78//78 
f 78//78 87//87 83//83 
f 83//83 87//87 88//88 
f 89//89 47//47 81//81 
f 149//149 81//81 148//148 
f 81//81 150//150 89//89 
f 89//89 150//150 134//134 
f 135//135 89//89 134//134 
f 49//49 52//52 90//90 
f 84//84 85//85 40//40 
f 84//84 40//40 49//49 
f 84//84 49//49 90//90 
f 87//87 79//79 85//85 
f 85//85 84//84 86//86 
f 87//87 85//85 86//86 
f 87//87 86//86 88//88 
f 86//86 93//93 88//88 
f 86//86 84//84 92//92 
f 92//92 93//93 86//86 
f 89//89 101//101 47//47 
f 89//89 103//103 101//101 
f 135//135 105//105 89//89 
f 89//89 105//105 103//103 
f 135//135 97//97 105//105 
f 84//84 90//90 92//92 
f 96//96 94//94 92//92 
f 91//91 96//96 92//92 
f 94//94 93//93 92//92 
f 93//93 94//94 95//95 
f 98//98 104//104 105//105 
f 99//99 95//95 96//96 
f 95//95 94//94 96//96 
f 98//98 106//106 104//104 
f 96//96 91//91 109//109 
f 88//88 93//93 136//136 
f 136//136 93//93 98//98 
f 97//97 98//98 105//105 
f 93//93 95//95 98//98 
f 95//95 99//99 100//100 
f 95//95 100//100 98//98 
f 106//106 98//98 100//100 
f 96//96 109//109 99//99 
f 99//99 119//119 100//100 
f 106//106 100//100 119//119 
f 119//119 99//99 109//109 
f 101//101 58//58 47//47 
f 103//103 58//58 101//101 
f 103//103 102//102 58//58 
f 104//104 102//102 105//105 
f 103//103 105//105 102//102 
f 102//102 104//104 106//106 
f 57//57 108//108 107//107 
f 151//151 118//118 107//107 
f 91//91 107//107 109//109 
f 58//58 102//102 121//121 
f 144//144 102//102 106//106 
f 58//58 121//121 116//116 
f 144//144 106//106 119//119 
f 64//64 70//70 115//115 
f 129//129 137//137 111//111 
f 111//111 108//108 57//57 
f 110//110 64//64 115//115 
f 123//123 111//111 137//137 
f 108//108 111//111 122//122 
f 111//111 123//123 122//122 
f 114//114 140//140 116//116 
f 113//113 139//139 112//112 
f 117//117 113//113 112//112 
f 114//114 152//152 140//140 
f 123//123 137//137 139//139 
f 118//118 109//109 107//107 
f 109//109 141//141 119//119 
f 122//122 142//142 108//108 
f 122//122 120//120 142//142 
f 119//119 141//141 143//143 
f 144//144 143//143 124//124 
f 114//114 121//121 145//145 
f 116//116 121//121 114//114 
f 144//144 119//119 143//143 
f 120//120 122//122 123//123 
f 114//114 145//145 152//152 
f 139//139 153//153 123//123 
f 120//120 123//123 153//153 
f 153//153 139//139 113//113 
