#
# Compatibility version : 3.0
# File ID : FJ71
# Representation ID : BP4026
# Build-up logic : FMA 3.0 part_of
# Concept ID : FMA24435
# English name : Right scaphoid
# Bounds(mm): (-273.762000,-123.060000,806.505000)-(-249.987000,-107.679000,822.195000)
# Volume(cm3): 1.667100
#
v -273.522 -120.252 815.955
v -272.875 -120.351 816.756
v -272.709 -121.553 816.198
v -272.451 -121.143 816.506
v -273.268 -118.805 816.319
v -273.281 -117.693 815.695
v -272.379 -118.158 817.203
v -271.971 -116.095 816.633
v -273.605 -120.979 815.396
v -273.206 -121.465 814.665
v -272.789 -122.004 815.908
v -273.192 -121.602 815.857
v -272.8 -122.184 815.555
v -271.897 -122.46 814.285
v -273.715 -119.597 815.491
v -273.543 -118.547 815.092
v -273.541 -119.973 814.617
v -270.2 -116.627 818.383
v -270.019 -118.2 818.07
v -271.819 -120.163 817.441
v -271.322 -121.434 816.476
v -270.442 -121.159 817.102
v -270.16 -119.963 817.6
v -269.661 -120.646 817.736
v -269.734 -119.611 817.493
v -269.739 -122.134 816.497
v -269.332 -119.93 817.603
v -269.338 -119.595 817.594
v -269.38 -119.296 817.712
v -269.271 -121.713 817.137
v -271.098 -118.942 817.724
v -271.549 -114.555 814.58
v -271.752 -122.677 815.657
v -270.695 -122.739 815.623
v -270.424 -122.943 814.984
v -269.626 -122.704 815.926
v -269.342 -122.964 814.162
v -271.778 -122.287 815.962
v -270.721 -122.39 815.931
v -271.68 -115.947 811.56
v -270.441 -119.296 809.185
v -270.035 -116.474 808.653
v -267.79 -117.465 818.359
v -268.201 -114.965 818.776
v -267.136 -114.846 819.242
v -268.299 -113.447 818.514
v -268.21 -112.124 817.232
v -267.792 -111.719 816.811
v -267.376 -112.142 818.542
v -267.525 -111.736 816.552
v -267.44 -111.433 816.76
v -266.955 -113.01 819.404
v -266.947 -111.017 816.575
v -267.967 -119.819 817.613
v -267.247 -121.311 816.595
v -266.568 -119.302 817.448
v -269.533 -113.024 815.991
v -269.119 -112.91 816.713
v -269.101 -111.604 814.366
v -267.868 -111.937 816.488
v -267.884 -111.997 816.143
v -267.87 -111.945 815.774
v -267.534 -111.995 816.127
v -267.221 -111.442 815.986
v -267.675 -111.396 815.065
v -268.995 -111.339 813.91
v -268.048 -110.972 813.792
v -267.526 -122.235 815.219
v -267.898 -122.537 812.571
v -268.292 -122.029 810.786
v -269.818 -114.154 810.053
v -267.408 -113.142 809.31
v -269.192 -120.064 808.597
v -268.333 -118.429 806.952
v -267.82 -115.143 807.66
v -265.783 -114.057 820.357
v -265.643 -111.369 819.724
v -264.706 -111.959 820.396
v -263.988 -111.416 820.275
v -266.088 -116.606 819.224
v -265.263 -118.203 818.376
v -264.552 -118.031 818.707
v -264.485 -118.569 818.05
v -265.856 -109.759 817.38
v -264.625 -109.587 818.179
v -264.851 -109.186 817.217
v -265.904 -119.995 816.633
v -267.052 -110.889 814.175
v -266.707 -110.745 813.686
v -266.244 -110.544 815.743
v -264.858 -110.135 815.655
v -264.836 -110.33 814.863
v -265.621 -120.805 815.357
v -264.661 -110.304 813.147
v -264.156 -120.294 811.823
v -266.58 -121.386 809.438
v -266.866 -119.407 806.848
v -266.003 -116.9 806.505
v -264.926 -117.407 807.113
v -265.049 -114.437 807.674
v -262.323 -118.672 818.997
v -262.968 -118.008 819.662
v -262.899 -109.01 817.452
v -262.786 -119.535 816.4
v -263.154 -109.412 815.055
v -261.507 -119.24 814.432
v -261.403 -118.533 813.49
v -262.856 -112.881 810.947
v -262.306 -109.326 812.483
v -263.525 -117.959 810.451
v -264.225 -112.81 810.068
v -263.542 -113.916 810.262
v -258.715 -118.852 820.729
v -259.541 -116.692 821.718
v -260.878 -113.068 821.591
v -260.122 -110.72 819.942
v -260.035 -118.993 815.131
v -259.168 -117.44 814.529
v -261.73 -108.778 813.135
v -261.105 -112.255 811.573
v -260.917 -110.162 811.222
v -260.083 -108.546 811.541
v -257.371 -117.571 821.47
v -256.828 -118.559 820.552
v -257.465 -115.174 822.088
v -256.647 -112.405 821.381
v -255.304 -114.48 821.654
v -256.919 -109.92 819.143
v -257.651 -119.278 817.034
v -256.784 -117.283 815.138
v -258.435 -107.704 814.481
v -258.944 -108.328 811.055
v -258.94 -109.146 810.154
v -256.8 -109.713 810.042
v -256.47 -109.308 810.142
v -254.96 -116.552 821.516
v -252.596 -115.799 820.764
v -254.105 -109.975 818.655
v -254.025 -118.072 819.185
v -253.561 -117.812 819.929
v -254.911 -107.679 814.678
v -253.93 -108.298 812.937
v -253.577 -108.586 812.705
v -256.207 -110.046 810.538
v -255.828 -108.294 811.76
v -255.584 -109.59 810.48
v -254.327 -109.355 811.195
v -254.163 -110.927 811.563
v -251.675 -114.434 820.067
v -251.901 -116.925 819.314
v -250.251 -113.214 816.687
v -251.101 -109.924 816.468
v -250.323 -111.93 816.048
v -252.421 -116.2 816.56
v -250.826 -110.237 814.704
v -253.19 -108.55 812.982
v -253.24 -108.989 812.629
v -252.221 -108.464 813.653
v -251.864 -108.585 814.877
v -251.333 -109.228 814.051
v -250.946 -109.042 814.784
v -252.859 -110.471 812.278
v -249.987 -111.473 816.336
v -269.661 -120.646 817.736
v -269.661 -120.646 817.736
v -270.695 -122.739 815.623
v -267.884 -111.997 816.143
v -267.87 -111.945 815.774
v -268.048 -110.972 813.792
v -264.851 -109.186 817.217
v -265.621 -120.805 815.357
v -266.866 -119.407 806.848
v -266.866 -119.407 806.848
v -266.866 -119.407 806.848
v -266.003 -116.9 806.505
v -265.049 -114.437 807.674
v -262.856 -112.881 810.947
v -261.105 -112.255 811.573
v -260.917 -110.162 811.222
v -260.917 -110.162 811.222
v -260.083 -108.546 811.541
v -256.828 -118.559 820.552
v -258.435 -107.704 814.481
v -258.94 -109.146 810.154
v -258.94 -109.146 810.154
v -256.8 -109.713 810.042
v -252.596 -115.799 820.764
v -253.561 -117.812 819.929
v -251.675 -114.434 820.067
v -251.901 -116.925 819.314
v -250.251 -113.214 816.687
v -249.987 -111.473 816.336
v -249.987 -111.473 816.336
v -269.271 -121.713 817.137
v -271.752 -122.677 815.657
v -269.626 -122.704 815.926
v -268.995 -111.339 813.91
v -264.661 -110.304 813.147
v -261.507 -119.24 814.432
v -262.856 -112.881 810.947
v -262.306 -109.326 812.483
v -264.225 -112.81 810.068
v -256.8 -109.713 810.042
v -256.47 -109.308 810.142
v -254.327 -109.355 811.195
v -252.221 -108.464 813.653
v -250.946 -109.042 814.784
vn -0.869016 -0.110338 0.482324
vn -0.598612 -0.239308 0.764457
vn -0.296536 -0.469179 0.831828
vn -0.252298 -0.527617 0.811151
vn -0.833846 0.106728 0.541581
vn -0.908565 0.354813 0.220495
vn -0.623891 0.120511 0.772164
vn -0.716287 0.503313 0.483331
vn -0.966209 -0.256191 0.0283895
vn -0.80887 -0.49727 -0.313771
vn -0.42031 -0.623336 0.659388
vn -0.766918 -0.473361 0.43332
vn -0.636587 -0.768069 0.0694762
vn -0.432636 -0.832339 -0.346465
vn -0.989156 0.0593839 0.134331
vn -0.96334 0.208017 -0.169427
vn -0.931387 -0.0438567 -0.361379
vn -0.337575 0.0183748 0.941119
vn -0.0896867 -0.308693 0.946924
vn -0.291394 -0.32687 0.899025
vn -0.204335 -0.592546 0.77919
vn -0.283338 -0.602781 0.745905
vn 0.0167583 0.0572126 0.998221
vn -0.259932 -0.568769 0.780344
vn -0.079869 -0.0960387 0.992168
vn -0.261529 -0.676254 0.688682
vn -0.0932669 0.116103 0.988849
vn -0.140028 -0.183239 0.973045
vn -0.135818 -0.377318 0.91607
vn -0.292126 -0.640301 0.710406
vn -0.149999 -0.139034 0.978861
vn -0.802201 0.593327 0.0666117
vn -0.246835 -0.968824 0.0212759
vn -0.0482094 -0.957125 0.285634
vn -0.0924068 -0.992792 0.0763192
vn -0.215446 -0.694385 0.686595
vn 0.0536154 -0.995811 -0.0740718
vn -0.120313 -0.543057 0.831032
vn -0.124114 -0.632193 0.764806
vn -0.883478 0.29481 -0.364078
vn -0.761562 -0.261663 -0.592921
vn -0.716779 0.227767 -0.659053
vn -0.116966 -0.284095 0.951635
vn -0.34823 -0.0369083 0.936682
vn -0.456261 -0.158406 0.875633
vn -0.556422 0.291496 0.778091
vn -0.700518 0.670893 0.243263
vn -0.613472 0.733292 -0.293145
vn -0.643183 0.514042 0.567518
vn -0.550212 0.675362 -0.491074
vn -0.636814 0.645897 -0.421052
vn -0.56462 0.179948 0.805495
vn -0.731271 0.639896 -0.236169
vn 0.10032 -0.274984 0.956201
vn 0.412224 -0.637205 0.651185
vn 0.10219 -0.541971 0.834161
vn -0.585812 0.738706 0.333373
vn -0.665322 0.743631 0.0660288
vn -0.502295 0.769539 0.394347
vn -0.419972 0.848522 -0.321922
vn -0.567001 0.821821 0.0558567
vn -0.464556 0.808584 0.36108
vn -0.518469 0.855009 0.0122404
vn -0.753512 0.639625 0.151987
vn -0.46644 0.790944 0.396032
vn -0.626361 0.736933 -0.254169
vn -0.241357 0.908094 0.342218
vn 0.443268 -0.869969 0.216026
vn 0.302976 -0.945084 -0.122567
vn -0.152908 -0.883696 -0.44238
vn -0.658284 0.582969 -0.476245
vn -0.233127 0.794446 -0.56081
vn -0.458018 -0.623987 -0.633135
vn -0.483665 -0.0985558 -0.869687
vn -0.373458 0.464388 -0.80304
vn -0.43258 -0.0209363 0.901353
vn -0.46278 0.505177 0.728444
vn -0.294053 0.325757 0.898563
vn -0.148868 0.600808 0.785409
vn -0.311226 -0.45499 0.834339
vn -0.122853 -0.632925 0.764404
vn -0.269527 -0.689372 0.6724
vn -0.0982886 -0.790713 0.604246
vn -0.632673 0.767273 0.104964
vn -0.217231 0.798056 0.562065
vn -0.408261 0.819715 -0.401734
vn 0.292544 -0.704552 0.646548
vn -0.331646 0.929223 0.162958
vn -0.243547 0.961134 -0.130027
vn -0.483901 0.867353 -0.116351
vn -0.377369 0.853773 -0.358699
vn -0.348699 0.931417 -0.104269
vn 0.543205 -0.79244 0.27743
vn -0.172254 0.919419 -0.353549
vn 0.604564 -0.771342 -0.198832
vn 0.39406 -0.814095 -0.426575
vn -0.271786 -0.708529 -0.651245
vn -0.199943 0.2134 -0.956286
vn 0.749898 -0.237572 -0.617424
vn -0.0760144 0.657222 -0.749854
vn -0.243048 -0.865779 0.43744
vn -0.324019 -0.670245 0.667671
vn -0.0481883 0.896204 0.441018
vn 0.109146 -0.971117 0.212175
vn -0.426798 0.878731 -0.213716
vn 0.248326 -0.968545 0.0159534
vn 0.626977 -0.487692 -0.6075
vn 0.389909 0.740455 -0.547446
vn -0.435847 0.84041 -0.322101
vn 0.826821 -0.258263 -0.499667
vn 0.171792 0.789338 -0.589434
vn 0.761518 0.0532526 -0.645952
vn -0.0798018 -0.819208 0.567917
vn -0.208224 -0.302075 0.930265
vn -0.132805 0.277233 0.95158
vn -0.0283844 0.746429 0.664859
vn 0.325849 -0.795838 -0.510357
vn 0.465628 -0.355126 -0.810602
vn -0.405635 0.903901 -0.135736
vn 0.248359 -0.474148 -0.84469
vn -0.480254 0.428029 -0.765603
vn -0.314559 0.928059 -0.199396
vn 0.0863146 -0.438638 0.894509
vn 0.217929 -0.962894 0.159195
vn 0.0478853 -0.0163277 0.998719
vn 0.149917 0.47362 0.867876
vn 0.285276 0.145482 0.94734
vn 0.0244602 0.814299 0.57993
vn 0.26413 -0.943718 -0.199077
vn 0.293334 -0.577902 -0.761567
vn -0.0437348 0.9093 0.413837
vn -0.093507 0.883462 -0.459076
vn -0.286659 -0.225373 -0.931146
vn 0.181 0.0943293 -0.978949
vn 0.267107 0.171178 -0.948342
vn 0.264248 -0.348617 0.899244
vn 0.588015 -0.437615 0.680244
vn 0.296755 0.717527 0.630151
vn 0.389862 -0.918948 -0.0595119
vn 0.366721 -0.92549 0.0947777
vn 0.14187 0.98428 0.105193
vn 0.266486 0.854853 -0.44521
vn 0.41216 0.684094 -0.60178
vn 0.219078 -0.586791 -0.779539
vn 0.163984 0.901348 -0.400849
vn 0.391262 -0.183952 -0.901707
vn 0.455444 0.663651 -0.593413
vn 0.356145 -0.431382 -0.828897
vn 0.472088 0.392989 0.789109
vn 0.775976 -0.329791 0.537679
vn 0.755244 -0.354036 -0.551603
vn 0.561963 0.623622 0.543409
vn 0.77871 -0.23829 -0.58037
vn 0.539706 -0.654732 -0.529191
vn 0.823132 -0.0902787 -0.560628
vn 0.49359 0.58611 -0.64253
vn 0.643986 0.44813 -0.62005
vn 0.313594 0.927152 -0.205055
vn 0.359831 0.888719 0.284077
vn 0.75392 0.243346 -0.610236
vn 0.57805 0.771858 0.264753
vn 0.691219 0.000601499 -0.722645
vn 0.927891 -0.0667484 0.366828
vn -0.0425421 0.191478 0.980574
vn 0.258778 -0.3992 0.879587
vn -0.100359 -0.663224 0.741661
vn -0.00643131 0.999855 -0.0157827
vn 0.000721474 0.990212 0.139568
vn -0.278643 0.848259 -0.450349
vn -0.21618 0.904695 0.367142
vn 0.161867 -0.816492 0.554202
vn 0.652232 -0.565846 -0.504392
vn -0.130186 -0.0902809 -0.987371
vn 0.38242 -0.253228 -0.888612
vn 0.477216 -0.0390331 -0.877919
vn 0.735815 0.235764 -0.634816
vn -0.432592 0.390665 -0.812555
vn -0.286659 -0.225373 -0.931146
vn 0.389114 -0.186256 -0.902164
vn -0.427083 -0.112108 -0.897235
vn -0.492609 0.512673 -0.703209
vn 0.228087 -0.608828 0.759806
vn -0.196624 0.966656 -0.164061
vn -0.328076 0.648654 -0.686742
vn 0.0104864 0.231724 -0.972725
vn -0.136574 -0.331044 -0.93368
vn 0.351107 0.0921788 0.931787
vn 0.407439 -0.554916 0.725302
vn 0.890512 -0.165655 0.423729
vn 0.592677 -0.779616 -0.202317
vn 0.929666 -0.124836 0.346609
vn 0.724959 0.479271 0.494706
vn 0.850236 -0.113937 -0.513924
vn 0.298848 -0.550149 0.77976
vn -0.175785 -0.693021 0.699158
vn 0.199239 -0.919144 0.33982
vn -0.27802 0.857392 0.43311
vn -0.424894 0.434079 -0.794381
vn 0.523202 -0.7087 -0.473291
vn 0.527197 -0.0818693 -0.84579
vn -0.44511 0.438296 -0.78088
vn 0.665874 0.29037 -0.687239
vn 0.255008 -0.633575 -0.730447
vn 0.157619 0.775012 -0.611974
vn 0.494733 0.00847264 -0.869004
vn 0.605191 0.413627 -0.680189
vn 0.843595 0.264719 -0.467195
g grp1
usemtl mtl1
f 12//12 2//2 1//1 
f 12//12 1//1 9//9 
f 5//5 1//1 2//2 
f 12//12 3//3 2//2 
f 12//12 11//11 3//3 
f 4//4 2//2 3//3 
f 4//4 3//3 21//21 
f 2//2 4//4 20//20 
f 3//3 11//11 38//38 
f 38//38 21//21 3//3 
f 1//1 5//5 15//15 
f 5//5 6//6 15//15 
f 15//15 6//6 16//16 
f 5//5 7//7 6//6 
f 6//6 40//40 16//16 
f 7//7 5//5 2//2 
f 7//7 8//8 6//6 
f 20//20 7//7 2//2 
f 6//6 32//32 40//40 
f 1//1 15//15 9//9 
f 10//10 12//12 9//9 
f 15//15 17//17 9//9 
f 17//17 10//10 9//9 
f 11//11 12//12 13//13 
f 10//10 14//14 13//13 
f 12//12 10//10 13//13 
f 33//33 13//13 14//14 
f 195//195 11//11 13//13 
f 38//38 11//11 195//195 
f 15//15 16//16 17//17 
f 40//40 17//17 16//16 
f 17//17 40//40 41//41 
f 10//10 17//17 41//41 
f 18//18 8//8 7//7 
f 43//43 44//44 18//18 
f 18//18 19//19 43//43 
f 54//54 43//43 19//19 
f 20//20 4//4 21//21 
f 38//38 39//39 21//21 
f 22//22 20//20 21//21 
f 24//24 20//20 22//22 
f 164//164 23//23 20//20 
f 20//20 23//23 31//31 
f 25//25 31//31 23//23 
f 164//164 25//25 23//23 
f 30//30 24//24 22//22 
f 30//30 22//22 21//21 
f 26//26 30//30 21//21 
f 26//26 21//21 39//39 
f 26//26 39//39 36//36 
f 164//164 27//27 25//25 
f 28//28 25//25 27//27 
f 29//29 25//25 28//28 
f 36//36 30//30 26//26 
f 165//165 194//194 54//54 
f 164//164 54//54 27//27 
f 27//27 54//54 28//28 
f 54//54 29//29 28//28 
f 194//194 196//196 55//55 
f 20//20 31//31 7//7 
f 18//18 7//7 31//31 
f 31//31 19//19 18//18 
f 19//19 31//31 25//25 
f 19//19 25//25 29//29 
f 19//19 29//29 54//54 
f 8//8 32//32 6//6 
f 57//57 32//32 8//8 
f 32//32 57//57 59//59 
f 33//33 14//14 35//35 
f 34//34 33//33 35//35 
f 39//39 166//166 36//36 
f 196//196 34//34 35//35 
f 35//35 14//14 37//37 
f 37//37 196//196 35//35 
f 68//68 196//196 37//37 
f 39//39 38//38 195//195 
f 166//166 39//39 195//195 
f 71//71 40//40 32//32 
f 14//14 10//10 41//41 
f 14//14 41//41 73//73 
f 41//41 40//40 42//42 
f 42//42 40//40 71//71 
f 76//76 52//52 45//45 
f 45//45 44//44 43//43 
f 45//45 43//43 80//80 
f 80//80 43//43 56//56 
f 18//18 46//46 8//8 
f 44//44 46//46 18//18 
f 44//44 52//52 46//46 
f 44//44 45//45 52//52 
f 58//58 8//8 47//47 
f 58//58 47//47 48//48 
f 48//48 60//60 58//58 
f 8//8 46//46 49//49 
f 84//84 51//51 48//48 
f 47//47 84//84 48//48 
f 50//50 60//60 48//48 
f 48//48 51//51 50//50 
f 52//52 77//77 49//49 
f 49//49 46//46 52//52 
f 8//8 49//49 47//47 
f 49//49 84//84 47//47 
f 50//50 51//51 53//53 
f 77//77 52//52 76//76 
f 84//84 90//90 53//53 
f 51//51 84//84 53//53 
f 194//194 55//55 54//54 
f 196//196 68//68 55//55 
f 54//54 56//56 43//43 
f 56//56 54//54 55//55 
f 56//56 55//55 87//87 
f 57//57 8//8 58//58 
f 32//32 59//59 66//66 
f 65//65 59//59 57//57 
f 197//197 59//59 67//67 
f 32//32 66//66 71//71 
f 59//59 65//65 67//67 
f 60//60 61//61 58//58 
f 61//61 57//57 58//58 
f 61//61 62//62 57//57 
f 65//65 57//57 62//62 
f 50//50 63//63 60//60 
f 63//63 167//167 60//60 
f 168//168 167//167 63//63 
f 62//62 63//63 65//65 
f 88//88 67//67 65//65 
f 63//63 50//50 53//53 
f 53//53 64//64 63//63 
f 63//63 64//64 65//65 
f 64//64 90//90 65//65 
f 90//90 88//88 65//65 
f 53//53 90//90 64//64 
f 72//72 71//71 66//66 
f 72//72 66//66 169//169 
f 89//89 67//67 88//88 
f 89//89 72//72 169//169 
f 69//69 68//68 37//37 
f 69//69 95//95 68//68 
f 55//55 68//68 93//93 
f 95//95 93//93 68//68 
f 70//70 37//37 14//14 
f 14//14 73//73 70//70 
f 69//69 37//37 70//70 
f 75//75 42//42 71//71 
f 72//72 75//75 71//71 
f 70//70 73//73 97//97 
f 96//96 70//70 97//97 
f 70//70 96//96 69//69 
f 73//73 41//41 74//74 
f 41//41 42//42 74//74 
f 97//97 73//73 74//74 
f 42//42 75//75 74//74 
f 76//76 80//80 114//114 
f 76//76 78//78 77//77 
f 76//76 115//115 78//78 
f 78//78 79//79 77//77 
f 79//79 85//85 77//77 
f 79//79 116//116 85//85 
f 80//80 56//56 81//81 
f 82//82 80//80 81//81 
f 82//82 81//81 83//83 
f 83//83 81//81 56//56 
f 80//80 76//76 45//45 
f 77//77 84//84 49//49 
f 90//90 84//84 86//86 
f 85//85 84//84 77//77 
f 85//85 170//170 84//84 
f 170//170 85//85 103//103 
f 103//103 131//131 170//170 
f 55//55 93//93 87//87 
f 87//87 171//171 104//104 
f 83//83 56//56 87//87 
f 87//87 104//104 83//83 
f 88//88 90//90 89//89 
f 86//86 91//91 90//90 
f 92//92 89//89 90//90 
f 92//92 90//90 91//91 
f 105//105 91//91 86//86 
f 92//92 91//91 105//105 
f 104//104 93//93 95//95 
f 94//94 111//111 72//72 
f 92//92 94//94 89//89 
f 89//89 94//94 72//72 
f 95//95 69//69 96//96 
f 111//111 100//100 72//72 
f 96//96 172//172 99//99 
f 98//98 173//173 74//74 
f 175//175 99//99 174//174 
f 95//95 96//96 99//99 
f 95//95 99//99 110//110 
f 75//75 98//98 74//74 
f 176//176 99//99 175//175 
f 99//99 112//112 110//110 
f 72//72 100//100 75//75 
f 98//98 75//75 100//100 
f 112//112 99//99 176//176 
f 112//112 176//176 202//202 
f 76//76 114//114 115//115 
f 115//115 79//79 78//78 
f 79//79 115//115 116//116 
f 102//102 83//83 101//101 
f 102//102 101//101 113//113 
f 104//104 101//101 83//83 
f 101//101 104//104 113//113 
f 102//102 114//114 80//80 
f 80//80 82//82 102//102 
f 102//102 82//82 83//83 
f 103//103 85//85 116//116 
f 116//116 131//131 103//103 
f 119//119 94//94 92//92 
f 119//119 109//109 94//94 
f 92//92 105//105 119//119 
f 86//86 183//183 105//105 
f 183//183 119//119 105//105 
f 106//106 104//104 95//95 
f 95//95 107//107 199//199 
f 110//110 112//112 107//107 
f 107//107 112//112 118//118 
f 107//107 117//117 199//199 
f 201//201 121//121 198//198 
f 108//108 111//111 94//94 
f 121//121 177//177 198//198 
f 200//200 118//118 112//112 
f 120//120 200//200 179//179 
f 109//109 119//119 122//122 
f 107//107 95//95 110//110 
f 200//200 112//112 202//202 
f 113//113 114//114 102//102 
f 123//123 114//114 113//113 
f 114//114 125//125 115//115 
f 125//125 126//126 115//115 
f 116//116 115//115 126//126 
f 116//116 126//126 128//128 
f 131//131 116//116 128//128 
f 128//128 141//141 131//131 
f 104//104 129//129 113//113 
f 117//117 104//104 106//106 
f 104//104 117//117 129//129 
f 129//129 117//117 130//130 
f 118//118 130//130 117//117 
f 183//183 122//122 119//119 
f 118//118 117//117 107//107 
f 120//120 118//118 200//200 
f 178//178 180//180 133//133 
f 201//201 181//181 121//121 
f 121//121 181//181 184//184 
f 132//132 184//184 181//181 
f 113//113 129//129 124//124 
f 123//123 136//136 125//125 
f 114//114 123//123 125//125 
f 113//113 182//182 123//123 
f 139//139 124//124 129//129 
f 140//140 124//124 139//139 
f 136//136 123//123 182//182 
f 182//182 188//188 136//136 
f 136//136 127//127 125//125 
f 127//127 126//126 125//125 
f 126//126 138//138 128//128 
f 154//154 129//129 130//130 
f 129//129 154//154 139//139 
f 130//130 118//118 120//120 
f 130//130 120//120 148//148 
f 141//141 145//145 183//183 
f 132//132 122//122 183//183 
f 185//185 135//135 134//134 
f 132//132 204//204 184//184 
f 145//145 132//132 183//183 
f 133//133 186//186 178//178 
f 120//120 203//203 144//144 
f 145//145 204//204 132//132 
f 203//203 146//146 144//144 
f 135//135 146//146 134//134 
f 188//188 137//137 136//136 
f 127//127 149//149 126//126 
f 136//136 187//187 127//127 
f 127//127 187//187 149//149 
f 137//137 188//188 150//150 
f 149//149 138//138 126//126 
f 149//149 152//152 138//138 
f 128//128 138//138 141//141 
f 139//139 190//190 140//140 
f 154//154 190//190 139//139 
f 154//154 130//130 148//148 
f 142//142 145//145 141//141 
f 141//141 158//158 142//142 
f 156//156 142//142 158//158 
f 156//156 143//143 142//142 
f 156//156 157//157 143//143 
f 144//144 148//148 120//120 
f 142//142 147//147 145//145 
f 147//147 204//204 145//145 
f 148//148 144//144 146//146 
f 135//135 205//205 146//146 
f 146//146 205//205 148//148 
f 142//142 143//143 147//147 
f 143//143 157//157 147//147 
f 157//157 162//162 147//147 
f 162//162 148//148 205//205 
f 137//137 150//150 189//189 
f 151//151 190//190 154//154 
f 191//191 189//189 150//150 
f 189//189 191//191 163//163 
f 192//192 152//152 149//149 
f 151//151 153//153 193//193 
f 148//148 162//162 154//154 
f 151//151 154//154 162//162 
f 155//155 151//151 162//162 
f 151//151 155//155 153//153 
f 160//160 155//155 162//162 
f 155//155 193//193 153//153 
f 162//162 157//157 156//156 
f 141//141 138//138 159//159 
f 158//158 141//141 159//159 
f 162//162 206//206 160//160 
f 156//156 206//206 162//162 
f 161//161 158//158 159//159 
f 138//138 152//152 159//159 
f 160//160 206//206 207//207 
f 152//152 161//161 159//159 
f 152//152 192//192 161//161 
f 193//193 155//155 207//207 
f 160//160 207//207 155//155 
