#
# Compatibility version : 3.0
# File ID : FJ930
# Representation ID : BP2873
# Build-up logic : FMA 3.0 is_a
# Concept ID : FMA45098
# English name : Sesamoid bone of left foot
# Bounds(mm): (65.455100,-172.737000,-2.689700)-(82.059600,-159.491000,4.746000)
# Volume(cm3): 0.495200
#
v 67.2255 -169.702 -0.644814
v 68.5237 -169.575 -1.54896
v 65.4551 -169.204 1.57625
v 65.7349 -169.757 1.90361
v 65.8924 -170.149 1.59652
v 66.6803 -170.969 1.26184
v 66.3309 -170.72 1.87745
v 66.5193 -170.339 2.03575
v 68.2186 -168.332 -1.53731
v 65.499 -168.006 1.24918
v 65.4896 -168.224 2.2189
v 68.1936 -164.139 0.530615
v 70.0583 -165.171 -0.461741
v 66.6445 -164.151 2.25632
v 66.1273 -164.818 2.47953
v 66.5148 -163.866 3.16654
v 66.7892 -164.021 3.42099
v 69.0773 -163.462 0.654723
v 68.5193 -163.073 1.27493
v 69.4091 -162.892 1.41168
v 67.3488 -163.253 2.66306
v 68.7172 -162.534 2.51525
v 68.5489 -162.633 3.33542
v 69.8583 -162.591 2.95191
v 69.9434 -170.131 -1.30617
v 70.503 -170.383 -0.873087
v 68.3185 -171.119 -0.470988
v 68.1543 -171.576 0.70941
v 69.1203 -171.309 -0.220853
v 69.6357 -170.845 -0.809588
v 68.614 -171.633 1.36035
v 69.8468 -171.475 1.41866
v 70.587 -171.081 0.330341
v 69.528 -171.522 2.11365
v 69.6805 -171.098 2.23775
v 67.2926 -171.277 0.793832
v 67.0271 -170.988 2.04905
v 67.5235 -171.57 1.4893
v 67.3567 -171.532 1.83464
v 67.827 -171.66 1.74728
v 68.4857 -171.17 2.22599
v 70.5734 -167.831 -1.27024
v 71.1682 -169.113 -0.949408
v 72.0161 -168.804 -0.0256552
v 71.5214 -170.235 0.215188
v 69.3811 -169.627 2.35482
v 71.5556 -166.955 -0.54782
v 72.5002 -166.543 1.49401
v 70.9466 -163.605 1.24223
v 71.3508 -163.46 2.75833
v 72.2336 -164.87 1.76098
v 71.9543 -164.255 3.2189
v 72.4006 -165.463 2.72839
v 68.7901 -163.089 4.56338
v 69.441 -162.954 4.328
v 69.9605 -163.077 4.26814
v 69.6886 -163.826 4.74429
v 69.8976 -163.423 4.74596
v 71.246 -163.706 4.00279
v 71.6317 -164.312 3.86765
v 70.8012 -171.177 1.80932
v 71.3404 -170.924 1.68228
v 71.0357 -170.846 1.89703
v 72.134 -169.442 1.36649
v 72.0094 -169.645 1.69887
v 74.2966 -166.845 -0.678697
v 74.1328 -163.278 1.94791
v 75.7327 -162.223 -0.556406
v 77.4419 -161.856 -1.50379
v 75.7339 -160.662 1.19179
v 77.2951 -160.232 0.0593902
v 74.6179 -168.76 -0.858124
v 74.146 -170.929 0.691534
v 74.7598 -171.433 0.286478
v 74.3331 -171.072 1.03109
v 73.7875 -167.586 -0.097602
v 74.1171 -166.964 1.66221
v 77.4278 -165.129 -2.44219
v 78.7472 -164.184 -2.49376
v 74.0135 -163.438 3.007
v 78.883 -161.235 -1.19019
v 75.1595 -160.998 2.86809
v 74.2311 -162.792 3.16762
v 74.3732 -163.271 3.32273
v 74.5802 -162.276 3.69641
v 75.5348 -161.255 4.40119
v 75.7788 -161.39 4.61465
v 80.6197 -161.256 -0.581346
v 78.1578 -159.698 0.748465
v 78.9357 -160.064 -0.0109361
v 79.8462 -160.4 -0.195276
v 79.5419 -159.962 0.509239
v 80.3486 -160.365 0.52317
v 80.0432 -160.191 1.0385
v 76.8593 -159.669 1.91579
v 76.5829 -159.831 3.40845
v 77.8981 -159.549 2.4385
v 77.355 -159.595 3.11685
v 78.0207 -159.847 3.38607
v 77.4215 -159.969 3.94437
v 75.6962 -160.364 3.21075
v 76.1631 -160.75 4.54568
v 75.3729 -172.118 0.730046
v 76.5657 -172.582 0.724804
v 77.7192 -169.956 -2.14138
v 79.6637 -170.984 -0.976626
v 76.3462 -171.884 -0.30396
v 77.0565 -172.241 -0.187515
v 77.8402 -171.707 -0.977818
v 78.0409 -172.243 -0.310188
v 77.5319 -172.685 0.588761
v 76.2234 -172.495 1.35856
v 76.4127 -172.133 1.94018
v 77.1709 -172.704 1.17615
v 79.6758 -168.429 -2.59482
v 79.546 -169.979 -2.09397
v 80.3847 -169.372 -1.99883
v 81.0954 -167.413 -1.7897
v 80.6639 -163.986 -1.81978
v 81.821 -165.113 -0.554153
v 81.5131 -162.275 0.251616
v 80.8112 -161.079 1.62022
v 77.8606 -160.438 4.38721
v 78.4119 -172.623 0.81036
v 79.7325 -171.619 1.74097
v 77.9941 -172.313 2.22887
v 81.2489 -169.53 -0.150188
v 81.5811 -168.616 0.132115
v 80.9971 -169.547 1.36658
v 80.2408 -169.003 2.80032
v 81.6036 -167.857 -0.835572
v 81.9744 -165.599 0.262272
v 81.3205 -165.287 3.14553
v 68.5237 -169.575 -1.54896
v 65.4551 -169.204 1.57625
v 65.7349 -169.757 1.90361
v 66.3309 -170.72 1.87745
v 65.499 -168.006 1.24918
v 65.4896 -168.224 2.2189
v 66.1273 -164.818 2.47953
v 66.5148 -163.866 3.16654
v 66.7892 -164.021 3.42099
v 69.528 -171.522 2.11365
v 67.3567 -171.532 1.83464
v 67.827 -171.66 1.74728
v 72.4006 -165.463 2.72839
v 68.7901 -163.089 4.56338
v 68.7901 -163.089 4.56338
v 69.6886 -163.826 4.74429
v 69.8976 -163.423 4.74596
v 69.8976 -163.423 4.74596
v 70.8012 -171.177 1.80932
v 74.146 -170.929 0.691534
v 74.146 -170.929 0.691534
v 74.3331 -171.072 1.03109
v 74.3331 -171.072 1.03109
v 74.1171 -166.964 1.66221
v 74.0135 -163.438 3.007
v 74.2311 -162.792 3.16762
v 74.5802 -162.276 3.69641
v 75.7788 -161.39 4.61465
v 75.7788 -161.39 4.61465
v 76.1631 -160.75 4.54568
v 76.4127 -172.133 1.94018
v 77.8606 -160.438 4.38721
v 79.7325 -171.619 1.74097
v 77.9941 -172.313 2.22887
v 77.9941 -172.313 2.22887
v 80.2408 -169.003 2.80032
v 81.3205 -165.287 3.14553
v 71.246 -163.706 4.00279
v 71.6317 -164.312 3.86765
v 71.3404 -170.924 1.68228
v 72.0094 -169.645 1.69887
vn -0.684978 -0.331674 -0.648689
vn 0.131682 0.0036602 -0.991285
vn -0.783474 -0.252076 -0.568003
vn -0.889427 -0.392103 0.234893
vn -0.836917 -0.512983 -0.190836
vn -0.659197 -0.70065 -0.273038
vn -0.746786 -0.664914 0.0141347
vn -0.215926 -0.15475 0.964069
vn -0.363984 0.18609 -0.912626
vn -0.731587 0.202733 -0.650907
vn -0.94996 0.0309138 0.310838
vn -0.477657 0.473177 -0.740235
vn 0.131076 0.458283 -0.879088
vn -0.699717 0.538965 -0.468948
vn -0.969766 0.168023 0.17698
vn -0.664756 0.746975 -0.0112525
vn -0.295824 -0.279238 0.913517
vn -0.0259845 0.672189 -0.739923
vn -0.393063 0.766275 -0.508256
vn 0.117704 0.890452 -0.439593
vn -0.566131 0.805365 -0.175737
vn -0.194605 0.967672 -0.160433
vn -0.261445 0.938149 0.226986
vn 0.298266 0.95248 0.0617999
vn 0.252617 -0.33514 -0.907671
vn 0.503706 -0.5842 -0.636389
vn -0.286398 -0.73093 -0.619449
vn -0.144572 -0.960244 -0.23881
vn 0.112935 -0.937364 -0.329538
vn 0.137847 -0.723058 -0.676894
vn 0.0867699 -0.993765 -0.070013
vn 0.220498 -0.971885 -0.0825892
vn 0.415217 -0.859586 -0.297838
vn 0.15693 -0.986798 0.0400474
vn 0.187688 -0.211191 0.959256
vn -0.518882 -0.756644 -0.397808
vn -0.255821 -0.330048 0.908639
vn -0.378808 -0.912414 -0.154934
vn -0.484412 -0.871412 -0.0773696
vn -0.0965943 -0.994365 -0.0436819
vn -0.0829454 -0.324507 0.942239
vn 0.26689 0.105625 -0.957921
vn 0.617267 -0.18872 -0.763784
vn 0.89071 -0.15248 -0.428235
vn 0.761673 -0.520977 -0.385276
vn 0.0681805 -0.219467 0.973235
vn 0.689882 0.240158 -0.682926
vn 0.981437 0.0475691 -0.185791
vn 0.498027 0.697442 -0.515309
vn 0.674483 0.737658 -0.0305427
vn 0.877234 0.412233 -0.246017
vn 0.870271 0.442766 0.215837
vn 0.367937 -0.344298 0.86376
vn -0.56893 0.26874 0.777237
vn 0.120687 0.881166 0.457145
vn 0.363257 0.819043 0.444087
vn -0.307619 -0.178081 0.934696
vn 0.272066 0.734146 0.622101
vn 0.612197 0.711333 0.345283
vn 0.425984 -0.223223 0.876761
vn 0.338559 -0.939321 -0.0552728
vn 0.725817 -0.67746 -0.119323
vn 0.374755 -0.319427 0.870359
vn 0.955916 -0.293638 0.00109003
vn 0.312639 -0.15238 0.93757
vn -0.727413 0.142954 -0.671144
vn -0.909335 0.337856 -0.242821
vn -0.663793 0.402848 -0.630152
vn -0.279274 0.454532 -0.845817
vn -0.703378 0.646885 -0.294617
vn -0.320279 0.759025 -0.566836
vn -0.614848 -0.177804 -0.768341
vn -0.751864 -0.267066 -0.602807
vn -0.565578 -0.542517 -0.621126
vn -0.815278 -0.129575 0.564387
vn -0.970095 -0.00896137 -0.242561
vn -0.912162 -0.109209 0.395011
vn -0.355633 0.082862 -0.930945
vn 0.0706853 0.23957 -0.968303
vn -0.992821 0.11701 0.0248021
vn 0.111333 0.567754 -0.815635
vn -0.848081 0.52981 -0.00776038
vn -0.908196 0.418278 -0.0149601
vn -0.581609 -0.188554 0.791314
vn -0.825801 0.516628 0.22616
vn -0.672228 0.43406 0.599751
vn -0.503746 -0.0390327 0.86297
vn 0.592449 0.531766 -0.60517
vn -0.0331375 0.960359 -0.276789
vn 0.0530649 0.832772 -0.551067
vn 0.333165 0.764798 -0.55144
vn 0.298375 0.93515 -0.190963
vn 0.662919 0.732655 -0.154124
vn 0.500375 0.849364 0.167946
vn -0.344752 0.929515 -0.130947
vn -0.347867 0.888734 0.298565
vn 0.171837 0.982738 0.0685458
vn -0.0136882 0.973157 0.229735
vn 0.394906 0.83448 0.384309
vn 0.0226441 0.837738 0.545602
vn -0.683186 0.710787 0.167446
vn -0.404092 0.679855 0.61197
vn -0.549509 -0.823477 -0.141158
vn -0.256717 -0.929869 -0.263515
vn -0.257077 -0.35314 -0.899558
vn 0.53813 -0.708409 -0.456698
vn -0.340679 -0.685486 -0.643465
vn -0.172651 -0.823489 -0.540423
vn -0.00463998 -0.684551 -0.72895
vn 0.153083 -0.842483 -0.516515
vn -0.0225763 -0.960963 -0.275753
vn -0.360528 -0.870932 0.333912
vn -0.384022 -0.722726 0.574626
vn -0.050146 -0.991137 0.123015
vn 0.219587 -0.0973542 -0.970723
vn 0.240318 -0.518527 -0.820595
vn 0.660225 -0.385109 -0.644821
vn 0.718558 -0.0463114 -0.693924
vn 0.564775 0.227001 -0.79341
vn 0.911825 0.0806709 -0.402576
vn 0.9399 0.310713 -0.141582
vn 0.758349 0.554313 0.342992
vn 0.125193 -0.0369038 0.991446
vn 0.341084 -0.937395 -0.070374
vn 0.760625 -0.597128 0.254731
vn 0.0655062 -0.912978 0.402716
vn 0.864678 -0.477536 -0.155855
vn 0.970196 -0.227863 0.0824457
vn 0.873207 -0.351631 0.337439
vn 0.669731 -0.362413 0.648165
vn 0.926539 -0.182125 -0.329175
vn 0.999919 -0.00920071 0.00877992
vn 0.922727 0.0106652 0.385308
vn -0.313203 -0.442706 -0.840187
vn -0.965374 -0.208426 0.15688
vn -0.326492 -0.232149 0.916247
vn -0.346812 -0.33248 0.877028
vn -0.993906 0.109218 0.0149194
vn -0.178519 -0.202872 0.962795
vn -0.775583 0.45492 -0.437628
vn -0.758461 0.145821 0.635196
vn -0.63121 0.136069 0.763583
vn 0.0675225 -0.431392 0.899634
vn -0.202052 -0.557706 0.805071
vn -0.0819713 -0.63788 0.765761
vn 0.980438 0.07386 0.182442
vn -0.162675 0.848559 0.503472
vn -0.27057 -0.0946934 0.958032
vn 0.333754 -0.285884 0.898264
vn -0.14184 0.0694666 0.987449
vn 0.437919 -0.033378 0.898394
vn 0.340114 -0.433809 0.834345
vn -0.941635 -0.0865082 0.325331
vn -0.694962 -0.718169 -0.0354975
vn -0.630606 -0.69218 0.351031
vn -0.257254 -0.0883277 0.962299
vn -0.426702 -0.346067 0.835561
vn -0.615977 -0.138782 0.775443
vn -0.744757 -0.00491756 0.667318
vn -0.658978 -0.0690166 0.748989
vn 0.0621532 -0.135384 0.988842
vn -0.723942 -0.141786 0.675133
vn 0.082253 0.0578287 0.994932
vn -0.259772 0.0527354 0.964229
vn 0.412448 0.647022 0.641287
vn 0.426404 -0.849315 0.311198
vn 0.394422 -0.409723 0.822532
vn -0.184298 -0.0444184 0.981866
vn -0.134356 -0.0912082 0.986727
vn 0.164431 -0.134552 0.977168
vn 0.499038 0.126436 0.857307
vn 0.849394 0.280377 0.447123
vn 0.462618 -0.387808 0.797238
vn 0.935893 -0.314452 0.15882
g grp1
usemtl mtl1
f 2//2 9//9 42//42 
f 25//25 2//2 42//42 
f 134//134 30//30 27//27 
f 30//30 134//134 25//25 
f 27//27 1//1 134//134 
f 134//134 1//1 9//9 
f 1//1 27//27 36//36 
f 3//3 1//1 5//5 
f 5//5 4//4 135//135 
f 135//135 4//4 11//11 
f 5//5 1//1 6//6 
f 139//139 136//136 8//8 
f 6//6 1//1 36//36 
f 6//6 7//7 5//5 
f 4//4 5//5 7//7 
f 136//136 137//137 8//8 
f 137//137 37//37 8//8 
f 1//1 10//10 9//9 
f 9//9 10//10 12//12 
f 11//11 15//15 138//138 
f 1//1 3//3 10//10 
f 135//135 11//11 138//138 
f 17//17 139//139 46//46 
f 9//9 13//13 42//42 
f 13//13 9//9 12//12 
f 13//13 12//12 18//18 
f 18//18 49//49 13//13 
f 10//10 14//14 12//12 
f 140//140 16//16 14//14 
f 10//10 140//140 14//14 
f 11//11 141//141 15//15 
f 14//14 16//16 21//21 
f 11//11 142//142 141//141 
f 12//12 14//14 19//19 
f 14//14 21//21 19//19 
f 12//12 19//19 18//18 
f 49//49 18//18 20//20 
f 19//19 20//20 18//18 
f 22//22 20//20 19//19 
f 20//20 22//22 24//24 
f 49//49 20//20 24//24 
f 19//19 21//21 22//22 
f 24//24 22//22 23//23 
f 22//22 21//21 23//23 
f 23//23 21//21 16//16 
f 142//142 54//54 141//141 
f 23//23 16//16 147//147 
f 26//26 30//30 25//25 
f 26//26 33//33 30//30 
f 45//45 26//26 43//43 
f 26//26 45//45 33//33 
f 27//27 29//29 28//28 
f 27//27 28//28 36//36 
f 28//28 38//38 36//36 
f 29//29 27//27 30//30 
f 28//28 29//29 31//31 
f 40//40 31//31 34//34 
f 32//32 31//31 29//29 
f 41//41 145//145 143//143 
f 30//30 33//33 29//29 
f 29//29 33//33 32//32 
f 31//31 32//32 34//34 
f 41//41 143//143 35//35 
f 38//38 6//6 36//36 
f 38//38 39//39 6//6 
f 7//7 6//6 39//39 
f 137//137 144//144 37//37 
f 31//31 40//40 28//28 
f 28//28 40//40 38//38 
f 145//145 41//41 144//144 
f 40//40 39//39 38//38 
f 41//41 37//37 144//144 
f 8//8 46//46 139//139 
f 41//41 8//8 37//37 
f 41//41 46//46 8//8 
f 41//41 35//35 46//46 
f 42//42 43//43 25//25 
f 25//25 43//43 26//26 
f 43//43 42//42 47//47 
f 47//47 44//44 43//43 
f 44//44 45//45 43//43 
f 65//65 46//46 35//35 
f 53//53 46//46 65//65 
f 62//62 33//33 45//45 
f 47//47 42//42 13//13 
f 47//47 48//48 44//44 
f 44//44 48//48 64//64 
f 48//48 146//146 64//64 
f 53//53 60//60 46//46 
f 49//49 47//47 13//13 
f 49//49 24//24 50//50 
f 51//51 47//47 49//49 
f 59//59 50//50 24//24 
f 48//48 47//47 51//51 
f 50//50 59//59 52//52 
f 50//50 51//51 49//49 
f 52//52 51//51 50//50 
f 51//51 146//146 48//48 
f 146//146 52//52 172//172 
f 146//146 51//51 52//52 
f 59//59 172//172 52//52 
f 55//55 23//23 147//147 
f 55//55 24//24 23//23 
f 56//56 24//24 55//55 
f 46//46 57//57 17//17 
f 57//57 148//148 17//17 
f 56//56 55//55 58//58 
f 58//58 55//55 147//147 
f 57//57 150//150 148//148 
f 46//46 60//60 149//149 
f 60//60 151//151 149//149 
f 59//59 24//24 56//56 
f 171//171 151//151 60//60 
f 58//58 59//59 56//56 
f 32//32 61//61 34//34 
f 32//32 33//33 61//61 
f 35//35 143//143 152//152 
f 63//63 35//35 152//152 
f 61//61 33//33 62//62 
f 63//63 152//152 173//173 
f 44//44 64//64 45//45 
f 62//62 45//45 64//64 
f 65//65 63//63 173//173 
f 63//63 65//65 35//35 
f 64//64 146//146 174//174 
f 62//62 64//64 174//174 
f 66//66 76//76 67//67 
f 68//68 78//78 66//66 
f 69//69 78//78 68//68 
f 66//66 67//67 68//68 
f 68//68 70//70 71//71 
f 68//68 71//71 69//69 
f 68//68 67//67 70//70 
f 95//95 71//71 70//70 
f 89//89 90//90 71//71 
f 105//105 78//78 115//115 
f 105//105 72//72 78//78 
f 74//74 105//105 107//107 
f 66//66 72//72 76//76 
f 76//76 72//72 73//73 
f 73//73 72//72 74//74 
f 153//153 75//75 77//77 
f 105//105 74//74 72//72 
f 74//74 103//103 154//154 
f 154//154 103//103 155//155 
f 107//107 103//103 74//74 
f 78//78 72//72 66//66 
f 67//67 76//76 80//80 
f 76//76 77//77 80//80 
f 153//153 77//77 76//76 
f 69//69 79//79 78//78 
f 115//115 78//78 79//79 
f 115//115 79//79 119//119 
f 84//84 158//158 157//157 
f 157//157 87//87 84//84 
f 81//81 79//79 69//69 
f 79//79 81//81 119//119 
f 81//81 88//88 119//119 
f 69//69 71//71 81//81 
f 81//81 71//71 90//90 
f 70//70 67//67 82//82 
f 82//82 101//101 70//70 
f 80//80 83//83 67//67 
f 67//67 83//83 82//82 
f 85//85 82//82 83//83 
f 84//84 159//159 158//158 
f 84//84 160//160 159//159 
f 82//82 85//85 101//101 
f 160//160 84//84 87//87 
f 87//87 86//86 160//160 
f 86//86 101//101 85//85 
f 87//87 102//102 86//86 
f 161//161 123//123 163//163 
f 88//88 81//81 91//91 
f 93//93 121//121 88//88 
f 89//89 71//71 95//95 
f 81//81 90//90 91//91 
f 92//92 91//91 90//90 
f 90//90 89//89 92//92 
f 92//92 89//89 97//97 
f 88//88 91//91 93//93 
f 91//91 92//92 93//93 
f 94//94 93//93 92//92 
f 94//94 92//92 97//97 
f 99//99 94//94 97//97 
f 101//101 95//95 70//70 
f 95//95 101//101 96//96 
f 97//97 89//89 95//95 
f 95//95 96//96 98//98 
f 97//97 95//95 98//98 
f 98//98 96//96 100//100 
f 97//97 98//98 99//99 
f 99//99 98//98 100//100 
f 102//102 165//165 100//100 
f 165//165 99//99 100//100 
f 101//101 102//102 96//96 
f 86//86 102//102 101//101 
f 102//102 100//100 96//96 
f 104//104 108//108 111//111 
f 104//104 103//103 107//107 
f 104//104 112//112 103//103 
f 109//109 116//116 106//106 
f 109//109 105//105 116//116 
f 106//106 116//116 117//117 
f 107//107 105//105 109//109 
f 104//104 107//107 108//108 
f 107//107 109//109 108//108 
f 106//106 110//110 109//109 
f 108//108 109//109 110//110 
f 111//111 114//114 104//104 
f 106//106 124//124 110//110 
f 110//110 111//111 108//108 
f 110//110 124//124 111//111 
f 103//103 112//112 155//155 
f 112//112 113//113 155//155 
f 104//104 114//114 112//112 
f 116//116 105//105 115//115 
f 117//117 115//115 118//118 
f 116//116 115//115 117//117 
f 125//125 106//106 127//127 
f 127//127 106//106 117//117 
f 131//131 117//117 118//118 
f 162//162 77//77 75//75 
f 118//118 115//115 119//119 
f 118//118 119//119 120//120 
f 131//131 120//120 132//132 
f 118//118 120//120 131//131 
f 88//88 121//121 119//119 
f 121//121 120//120 119//119 
f 120//120 121//121 132//132 
f 132//132 121//121 133//133 
f 122//122 121//121 93//93 
f 122//122 93//93 94//94 
f 122//122 94//94 99//99 
f 122//122 99//99 165//165 
f 121//121 122//122 133//133 
f 122//122 165//165 133//133 
f 125//125 124//124 106//106 
f 114//114 111//111 124//124 
f 166//166 126//126 124//124 
f 125//125 130//130 167//167 
f 126//126 112//112 114//114 
f 126//126 114//114 124//124 
f 113//113 112//112 126//126 
f 164//164 169//169 156//156 
f 168//168 169//169 164//164 
f 131//131 127//127 117//117 
f 131//131 128//128 127//127 
f 131//131 132//132 128//128 
f 127//127 128//128 129//129 
f 129//129 128//128 133//133 
f 127//127 129//129 125//125 
f 161//161 169//169 170//170 
f 169//169 161//161 156//156 
f 129//129 130//130 125//125 
f 130//130 129//129 133//133 
f 128//128 132//132 133//133 
f 161//161 170//170 123//123 
