#
# The license for this database is specified in the Creative Commons Attribution-Share Alike 2.1 Japan. If you use data from this database, please be sure attribute this database as follows: "BodyParts3D, (c)  The Database Center for Life Science licensed under CC Attribution-Share Alike 2.1 Japan".
# http://dbarchive.biosciencedbc.jp/en/bodyparts3d/lic.html
#
#
# Compatibility version : 4.0
# File ID : FJ3143
# Representation ID : BP8530
# Build-up logic : FMA 3.0 is_a
# Concept ID : FMA19387
# English name : Right seminal vesicle
# Bounds(mm): (-35.323800,-75.052100,788.881000)-(-3.631500,-54.870600,818.284000)
# Volume(cm3): 1.942500
#
v -4.12651 -74.2573 790.042
v -5.32349 -75.0123 790.436
v -5.25053 -74.8668 789.993
v -5.78928 -74.5049 790.999
v -5.74849 -75.0521 790.436
v -5.74787 -74.5616 789.81
v -4.12059 -73.4251 791.083
v -4.95073 -73.6839 791.693
v -4.99705 -72.1593 792.827
v -5.84983 -72.379 792.977
v -3.64998 -73.1526 790.102
v -3.63146 -71.4262 790.184
v -3.92084 -71.7637 789.227
v -3.9972 -70.5761 789.841
v -4.09931 -73.7292 789.448
v -4.62609 -73.7598 789.349
v -4.5491 -72.1511 788.927
v -4.50173 -71.1212 789.023
v -5.40342 -71.27 788.881
v -3.82497 -67.9635 792.488
v -3.84339 -67.8088 793.221
v -4.09549 -67.1743 792.653
v -5.48591 -70.1441 789.333
v -4.45604 -65.7399 795.429
v -4.21113 -65.0764 794.983
v -4.70904 -66.7992 792.505
v -5.66009 -63.4961 798.149
v -5.60598 -62.3549 798.156
v -6.09048 -61.4887 800.211
v -4.97324 -63.6187 797.02
v -4.98797 -63.6267 795.505
v -6.17349 -74.8289 790.436
v -6.22191 -74.5264 790.026
v -7.86392 -70.7297 793.672
v -7.36593 -72.8162 790.529
v -6.86051 -72.2212 789.342
v -7.80901 -71.5984 790.079
v -7.48144 -70.6165 789.71
v -9.14849 -68.2887 791.595
v -6.15794 -64.3781 798.37
v -8.13974 -66.9734 797.158
v -9.1833 -64.8404 793.27
v -7.44849 -62.7637 801.669
v -6.27534 -61.0653 798.566
v -8.31064 -61.1476 796.505
v -8.29849 -58.0887 802.34
v -9.19036 -57.6756 802.159
v -10.2966 -68.1101 795.636
v -11.3547 -68.1123 794.854
v -9.7658 -69.0854 793.854
v -9.57349 -68.9889 792.136
v -10.4235 -67.4387 792.192
v -11.6985 -68.199 793.411
v -12.1444 -65.9624 792.948
v -12.0737 -58.9387 807.011
v -11.7772 -56.9667 801.966
v -15.0985 -67.3756 794.261
v -15.8995 -66.1288 794.056
v -15.8849 -64.8352 794.104
v -15.6535 -61.1931 805.361
v -13.2639 -60.9615 795.665
v -13.4915 -63.2427 793.94
v -15.8315 -56.6272 810.124
v -16.0482 -55.8786 806.137
v -18.3334 -65.7522 796.22
v -18.5371 -65.2619 795.591
v -18.3189 -64.9053 795.312
v -19.0459 -60.9338 797.353
v -16.3735 -60.0244 809.561
v -18.4769 -58.7049 801.315
v -19.3315 -58.0373 803.144
v -16.6609 -58.7487 800.758
v -18.9682 -55.4108 811.669
v -19.389 -56.4491 813.078
v -17.3177 -55.4178 809.822
v -17.6886 -56.4615 804.598
v -19.2206 -55.1403 807.463
v -21.4009 -63.9977 798.55
v -21.9363 -63.6157 800.245
v -21.8941 -63.6642 799.812
v -20.8854 -64.1687 797.562
v -20.5633 -61.236 805.721
v -21.0726 -60.7159 799.322
v -21.1672 -63.7693 800.83
v -21.6457 -63.1396 798.187
v -22.2143 -63.1929 799.713
v -21.9363 -62.2932 799.391
v -22.3227 -63.3716 800.196
v -22.4455 -60.7009 800.204
v -22.7485 -63.3381 800.636
v -22.8362 -62.7169 800.263
v -19.5573 -63.648 796.224
v -20.8189 -63.1459 797.264
v -20.8016 -58.4223 814.645
v -21.4706 -57.2337 814.705
v -22.0323 -58.1361 815.219
v -22.4079 -57.6281 805.388
v -19.8219 -58.1573 802.355
v -20.8294 -57.8977 803.694
v -21.6685 -58.1617 801.636
v -19.5766 -59.314 799.996
v -20.627 -56.002 813.287
v -21.5085 -55.2799 812.033
v -21.957 -56.6337 814.163
v -20.1301 -54.8706 810.598
v -20.2381 -56.8868 805.004
v -21.9383 -56.0291 806.544
v -26.4805 -62.7637 802.336
v -24.5564 -61.8642 800.775
v -23.0017 -59.6889 815.072
v -23.2392 -58.8726 815.266
v -23.1938 -58.1072 815.137
v -24.1838 -59.327 815.731
v -24.0061 -58.0922 815.16
v -23.8608 -57.6424 814.889
v -24.4603 -57.8098 815.078
v -24.8267 -58.0979 815.516
v -25.3613 -57.5273 814.991
v -23.5365 -56.9624 814.089
v -24.4316 -57.3686 814.56
v -23.971 -57.2243 806.742
v -26.0227 -60.1698 801.929
v -24.5313 -56.3414 811.477
v -28.9638 -64.113 817.002
v -27.3496 -63.5842 815.495
v -26.7657 -61.0637 816.361
v -27.2007 -61.6542 816.832
v -27.0144 -61.0661 816.789
v -26.6264 -60.5458 816.771
v -27.4663 -61.0782 817.134
v -29.0923 -62.204 817.838
v -29.6109 -60.7369 817.378
v -26.9985 -61.9137 814.644
v -26.9985 -61.824 812.111
v -28.4413 -62.0864 811.347
v -28.6985 -62.9795 812.961
v -27.2775 -61.8613 806.606
v -29.1035 -61.5001 807.277
v -29.6776 -60.6796 806.311
v -27.1813 -61.7746 802.461
v -28.334 -61.4621 804.239
v -26.5735 -58.5137 816.995
v -28.2735 -60.2137 817.287
v -28.9841 -57.8621 813.815
v -29.6877 -57.9461 812.001
v -28.3235 -57.3146 810.957
v -27.4793 -57.9868 805.071
v -26.9774 -57.6384 806.859
v -29.5279 -59.5026 806.002
v -32.7062 -66.6775 816.288
v -32.6937 -65.655 813.82
v -32.9915 -64.0812 811.715
v -30.4279 -63.654 818.204
v -30.9488 -62.4629 818.284
v -31.3278 -61.1068 817.408
v -31.1091 -61.6667 809.13
v -31.567 -62.8124 810.971
v -32.4977 -62.4172 810.419
v -29.8305 -59.9023 816.37
v -30.3791 -59.7529 815.417
v -32.0394 -59.6008 812.399
v -30.2047 -57.5116 809.824
v -31.59 -60.2684 808.342
v -31.6001 -58.5162 810.474
v -31.5113 -58.5987 808.996
v -32.7623 -60.4112 810.562
v -33.8045 -66.9636 816.37
v -33.2043 -66.5406 817.186
v -33.756 -66.837 815.81
v -34.0267 -65.9342 817.68
v -34.5791 -66.5582 815.818
v -34.6331 -66.5339 816.77
v -34.4522 -64.3343 817.551
v -35.0251 -65.7581 817.16
v -35.2906 -65.6258 815.811
v -35.3238 -64.7767 816.657
v -33.7768 -65.7886 813.853
v -34.232 -64.912 813.072
v -34.0816 -63.8761 812.182
v -34.713 -63.9589 812.997
v -34.3525 -62.3866 815.539
v -34.9562 -63.116 814.189
v -4.12651 -74.2573 790.042
v -4.12651 -74.2573 790.042
v -5.32349 -75.0123 790.436
v -5.32349 -75.0123 790.436
v -5.74849 -75.0521 790.436
v -4.09931 -73.7292 789.448
v -5.60598 -62.3549 798.156
v -6.09048 -61.4887 800.211
v -4.97324 -63.6187 797.02
v -6.17349 -74.8289 790.436
v -6.17349 -74.8289 790.436
v -7.86392 -70.7297 793.672
v -9.14849 -68.2887 791.595
v -6.27534 -61.0653 798.566
v -8.29849 -58.0887 802.34
v -8.29849 -58.0887 802.34
v -8.29849 -58.0887 802.34
v -9.57349 -68.9889 792.136
v -11.6985 -68.199 793.411
v -12.0737 -58.9387 807.011
v -12.0737 -58.9387 807.011
v -15.0985 -67.3756 794.261
v -15.8315 -56.6272 810.124
v -16.3735 -60.0244 809.561
v -21.4009 -63.9977 798.55
v -21.8941 -63.6642 799.812
v -20.8854 -64.1687 797.562
v -21.6457 -63.1396 798.187
v -22.2143 -63.1929 799.713
v -22.7485 -63.3381 800.636
v -22.8362 -62.7169 800.263
v -20.8189 -63.1459 797.264
v -22.0323 -58.1361 815.219
v -26.4805 -62.7637 802.336
v -27.3496 -63.5842 815.495
v -26.7657 -61.0637 816.361
v -26.6264 -60.5458 816.771
v -26.9985 -61.9137 814.644
v -26.9985 -61.9137 814.644
v -26.9985 -61.824 812.111
v -28.334 -61.4621 804.239
v -28.334 -61.4621 804.239
v -26.5735 -58.5137 816.995
v -26.5735 -58.5137 816.995
v -28.2735 -60.2137 817.287
v -28.3235 -57.3146 810.957
v -32.4977 -62.4172 810.419
v -32.4977 -62.4172 810.419
v -33.8045 -66.9636 816.37
v -34.0267 -65.9342 817.68
v -34.6331 -66.5339 816.77
v -35.0251 -65.7581 817.16
v -35.0251 -65.7581 817.16
vn 0.448516 -0.794024 -0.410316
vn 0.0816789 -0.705699 0.703788
vn 0.163149 -0.780082 -0.604032
vn -0.138787 -0.698423 0.702099
vn -0.149258 -0.714347 0.683688
vn -0.241875 -0.553185 -0.797172
vn 0.759177 -0.418278 0.498692
vn 0.337336 -0.631689 0.697978
vn 0.494544 -0.45251 0.742066
vn 0.00357456 -0.638923 0.769262
vn 0.979518 -0.195069 -0.0499226
vn 0.977826 0.110909 -0.177636
vn 0.766187 0.0753743 -0.638182
vn 0.73867 0.412005 -0.533496
vn 0.333242 -0.434246 -0.836887
vn 0.00638933 -0.380257 -0.924859
vn 0.156174 -0.122208 -0.98014
vn 0.371516 0.362814 -0.8546
vn -0.113196 0.140535 -0.983584
vn 0.947726 0.242263 -0.207663
vn 0.974182 -0.0578407 0.21823
vn 0.707335 0.503261 -0.496392
vn 0.0190223 0.505514 -0.862609
vn 0.780474 -0.287821 0.554995
vn 0.969612 0.244648 -0.000186431
vn 0.357102 0.620887 -0.697837
vn 0.871045 -0.188924 0.453418
vn 0.919774 -0.0460344 0.389739
vn 0.852613 -0.173219 0.492997
vn 0.846582 -0.16817 0.504992
vn 0.666281 0.631486 -0.396604
vn -0.369727 -0.673488 0.640091
vn -0.581352 -0.576385 -0.574291
vn -0.283843 -0.667139 0.688738
vn -0.850672 -0.489292 -0.192227
vn -0.452001 -0.253685 -0.855184
vn -0.78272 -0.243858 -0.57261
vn -0.513308 0.176646 -0.839828
vn -0.258136 0.420048 -0.870015
vn 0.723547 -0.428704 0.54101
vn 0.167959 -0.693047 0.701053
vn -0.0339732 0.517484 -0.855018
vn 0.586524 -0.439956 0.680021
vn 0.878426 0.477856 0.00462867
vn 0.266002 0.753853 -0.60079
vn 0.740608 0.130302 0.659182
vn 0.410586 0.902057 -0.133091
vn -0.273068 -0.838522 0.471502
vn -0.280917 -0.925334 0.254642
vn -0.497143 -0.85986 0.116143
vn -0.718914 -0.693041 -0.0534518
vn -0.312829 -0.0301045 -0.949332
vn -0.353034 -0.933842 0.057493
vn -0.132284 0.300599 -0.944532
vn 0.748772 0.179965 0.637929
vn 0.0657327 0.930248 -0.360996
vn -0.47606 -0.561845 -0.676533
vn -0.46285 -0.217505 -0.859338
vn -0.338948 0.228472 -0.912642
vn 0.125094 -0.859038 0.496392
vn -0.0439452 0.788216 -0.613827
vn -0.145646 0.449161 -0.8815
vn 0.631661 0.444942 0.634847
vn 0.100639 0.973499 -0.205356
vn -0.530702 -0.839124 -0.11927
vn -0.647746 -0.390888 -0.653935
vn -0.54165 -0.0477933 -0.839245
vn -0.376485 0.573512 -0.72756
vn 0.185365 -0.964617 0.187493
vn 0.027515 0.920759 -0.38916
vn -0.0877355 0.89823 -0.430681
vn -0.170351 0.857164 -0.486057
vn 0.317837 0.827701 0.462483
vn 0.495266 0.476899 0.726139
vn 0.317497 0.939316 0.129923
vn -0.148744 0.849315 -0.506498
vn 0.0104659 0.973311 -0.22925
vn -0.444081 -0.895423 0.0317741
vn -0.393292 -0.918612 -0.0383718
vn -0.37208 -0.924339 0.0845863
vn -0.603749 -0.754251 -0.258055
vn 0.0820455 -0.93649 0.340961
vn -0.542284 0.510685 -0.667179
vn -0.185552 -0.947233 0.261382
vn -0.828328 -0.315046 -0.46327
vn -0.790768 -0.52627 -0.312613
vn -0.75322 0.18485 -0.631261
vn -0.652219 -0.671332 -0.352029
vn -0.458141 0.299902 -0.836759
vn -0.257842 -0.965201 -0.0436446
vn -0.703911 0.0350677 -0.709422
vn -0.543719 0.157656 -0.824327
vn -0.692884 -0.145658 -0.706184
vn 0.560744 -0.095016 0.822519
vn 0.23912 0.513617 0.824026
vn 0.453003 0.211419 0.866077
vn -0.276445 0.809136 -0.518534
vn 0.0998299 0.968588 -0.227752
vn -0.0855619 0.953191 -0.290011
vn -0.139471 0.85681 -0.496412
vn -0.158576 0.815911 -0.556007
vn 0.176848 0.769027 0.614266
vn -0.165742 0.940709 0.295966
vn -0.0777343 0.779205 0.62193
vn -0.022796 0.997888 0.0608278
vn -0.25756 0.75511 -0.602886
vn -0.32419 0.858138 -0.39812
vn -0.554882 -0.435437 -0.708873
vn -0.450762 -0.0609619 -0.89056
vn 0.406924 -0.356522 0.841014
vn 0.214696 0.14691 0.965569
vn -0.0135734 0.317125 0.948286
vn 0.450082 0.0814393 0.889266
vn 0.174841 0.467675 0.866436
vn -0.0197488 0.619582 0.784683
vn 0.156282 0.690428 0.706319
vn 0.331043 0.578906 0.74517
vn 0.0419964 0.877666 0.477429
vn -0.206216 0.849062 0.486383
vn -0.0222007 0.849191 0.527619
vn -0.308807 0.841042 -0.44417
vn -0.502472 0.406525 -0.763059
vn -0.237213 0.955377 0.176024
vn 0.539128 -0.627423 0.561855
vn 0.812876 -0.487146 0.31925
vn 0.859778 -0.386523 0.333738
vn 0.668728 -0.286579 0.686058
vn 0.706736 -0.333236 0.624081
vn 0.560587 -0.575965 0.594985
vn 0.477377 -0.0976182 0.873259
vn 0.295807 0.0573837 0.953523
vn -0.0744736 0.544323 0.835563
vn 0.758114 -0.415315 -0.502768
vn 0.30307 -0.951248 -0.0572322
vn 0.135634 -0.953595 -0.268811
vn 0.474713 -0.776804 -0.413792
vn -0.0640198 -0.993546 0.0936328
vn -0.322213 -0.925436 -0.199367
vn -0.717303 -0.466257 -0.517766
vn -0.71779 -0.0830979 -0.691283
vn -0.370911 -0.928626 0.00894429
vn 0.421061 0.611939 0.669506
vn 0.221727 0.111265 0.96874
vn -0.392573 0.87309 0.289139
vn -0.430032 0.873507 0.228161
vn -0.4791 0.735559 -0.478974
vn -0.405999 0.79543 -0.449952
vn -0.0865701 0.977964 -0.189979
vn -0.759794 0.205528 -0.616823
vn 0.390687 -0.920512 0.00463096
vn 0.297218 -0.818727 -0.491272
vn -0.0847933 -0.687521 -0.721197
vn 0.307418 -0.306668 0.900804
vn -0.0681556 0.219031 0.973334
vn -0.401398 0.708669 0.580231
vn -0.226584 -0.824813 -0.518018
vn 0.227737 -0.7888 -0.570903
vn -0.0882656 -0.70534 -0.703352
vn -0.36053 0.736551 0.572286
vn -0.505869 0.781288 0.36563
vn -0.644663 0.736194 0.205982
vn -0.340711 0.939766 -0.0274937
vn -0.773999 -0.136739 -0.618246
vn -0.682833 0.721416 0.115319
vn -0.743788 0.553045 -0.375394
vn -0.897752 0.275884 -0.343409
vn 0.119035 -0.966373 0.227932
vn 0.166554 -0.778962 0.604548
vn 0.00486494 -0.933832 -0.357679
vn -0.155519 -0.158595 0.975019
vn -0.54255 -0.790252 -0.284852
vn -0.272445 -0.729798 0.627031
vn -0.560723 0.287228 0.776589
vn -0.455875 -0.572765 0.681262
vn -0.930725 -0.339802 -0.135223
vn -0.935253 0.199455 0.292436
vn -0.181814 -0.813392 -0.552574
vn -0.584943 -0.579385 -0.567586
vn -0.638238 -0.306776 -0.706074
vn -0.879977 -0.120591 -0.459455
vn -0.726044 0.615649 0.306327
vn -0.930192 0.356972 -0.0855194
vn 0.737924 -0.529186 0.418845
vn 0.885587 -0.366613 -0.285186
vn 0.287304 -0.923032 -0.255868
vn 0.573115 -0.64203 0.509251
vn -0.226366 -0.828046 -0.512932
vn 0.886966 -0.252496 -0.386701
vn 0.886868 0.461993 -0.00525403
vn 0.870246 0.491777 0.0287812
vn 0.883831 0.467509 -0.0166917
vn -0.398919 -0.759599 -0.513686
vn -0.860569 -0.508548 -0.0283
vn -0.743306 -0.653653 0.142248
vn -0.640016 -0.199063 -0.742128
vn 0.431092 0.793956 -0.428711
vn 0.849267 0.526441 0.0400603
vn 0.450883 0.802339 -0.391096
vn 0.378894 0.904251 0.196902
vn -0.705503 -0.0962725 -0.702138
vn -0.494213 -0.396624 -0.773591
vn 0.286245 -0.818816 0.497598
vn 0.538137 -0.220662 0.81346
vn -0.265107 -0.944225 0.19534
vn 0.712017 0.307229 0.631382
vn 0.540484 -0.495628 0.679875
vn -0.840558 -0.457301 -0.29041
vn -0.769102 -0.579579 -0.26939
vn -0.767732 -0.240117 -0.59408
vn -0.806867 0.343449 -0.480632
vn -0.831641 0.0597232 -0.552093
vn -0.527223 -0.605914 -0.595739
vn -0.539996 -0.405358 -0.737624
vn -0.577938 0.450454 -0.680499
vn 0.0765132 0.127908 0.98883
vn -0.302103 -0.952971 0.0241032
vn 0.560808 -0.703156 -0.437111
vn 0.202401 -0.965861 0.1617
vn 0.373398 -0.0585192 0.925824
vn 0.97242 -0.232642 -0.0166773
vn 0.551763 -0.833479 -0.0295157
vn 0.968815 -0.247629 -0.00876921
vn -0.690577 -0.699553 -0.183656
vn -0.839789 -0.188454 -0.509156
vn 0.357089 -0.111294 0.927416
vn -0.339201 0.759883 0.554546
vn -0.304198 0.61686 0.725911
vn -0.218575 0.975339 0.0306472
vn -0.808847 -0.0650039 -0.584414
vn -0.420233 -0.47666 -0.772139
vn -0.391547 -0.912234 -0.120502
vn -0.32519 -0.675439 0.661841
vn -0.728414 -0.684473 0.0301585
vn -0.615511 0.0315808 0.787495
vn -0.923185 -0.355189 0.146867
g grp1
usemtl mtl1
f 4//4 2//2 8//8 
f 1//1 185//185 3//3 
f 15//15 1//1 3//3 
f 186//186 7//7 8//8 
f 186//186 183//183 7//7 
f 16//16 15//15 3//3 
f 2//2 4//4 5//5 
f 185//185 187//187 3//3 
f 3//3 187//187 6//6 
f 16//16 3//3 6//6 
f 6//6 36//36 16//16 
f 4//4 32//32 5//5 
f 192//192 33//33 187//187 
f 6//6 187//187 33//33 
f 33//33 36//36 6//6 
f 9//9 8//8 7//7 
f 9//9 7//7 24//24 
f 10//10 8//8 9//9 
f 8//8 10//10 4//4 
f 32//32 4//4 34//34 
f 4//4 10//10 34//34 
f 21//21 7//7 11//11 
f 12//12 21//21 11//11 
f 7//7 183//183 11//11 
f 184//184 188//188 11//11 
f 188//188 13//13 11//11 
f 12//12 11//11 13//13 
f 12//12 14//14 20//20 
f 12//12 13//13 14//14 
f 21//21 12//12 20//20 
f 16//16 17//17 15//15 
f 17//17 13//13 15//15 
f 17//17 18//18 13//13 
f 14//14 13//13 18//18 
f 36//36 17//17 16//16 
f 36//36 19//19 17//17 
f 19//19 18//18 17//17 
f 19//19 23//23 18//18 
f 38//38 23//23 19//19 
f 38//38 42//42 23//23 
f 9//9 24//24 41//41 
f 24//24 7//7 21//21 
f 14//14 22//22 20//20 
f 21//21 20//20 25//25 
f 20//20 22//22 25//25 
f 14//14 26//26 22//22 
f 14//14 18//18 26//26 
f 23//23 26//26 18//18 
f 42//42 26//26 23//23 
f 24//24 25//25 30//30 
f 191//191 25//25 31//31 
f 41//41 24//24 40//40 
f 27//27 40//40 30//30 
f 30//30 40//40 24//24 
f 31//31 26//26 45//45 
f 21//21 25//25 24//24 
f 25//25 22//22 31//31 
f 22//22 26//26 31//31 
f 27//27 30//30 28//28 
f 40//40 27//27 29//29 
f 27//27 28//28 29//29 
f 44//44 190//190 189//189 
f 31//31 44//44 191//191 
f 196//196 31//31 45//45 
f 44//44 189//189 191//191 
f 193//193 35//35 33//33 
f 35//35 36//36 33//33 
f 193//193 194//194 35//35 
f 194//194 50//50 51//51 
f 38//38 19//19 36//36 
f 38//38 39//39 42//42 
f 35//35 37//37 36//36 
f 37//37 38//38 36//36 
f 51//51 35//35 194//194 
f 37//37 35//35 51//51 
f 200//200 38//38 37//37 
f 200//200 195//195 38//38 
f 10//10 9//9 41//41 
f 34//34 10//10 41//41 
f 34//34 41//41 48//48 
f 48//48 50//50 194//194 
f 43//43 41//41 40//40 
f 26//26 42//42 45//45 
f 29//29 46//46 43//43 
f 46//46 55//55 43//43 
f 190//190 44//44 197//197 
f 60//60 43//43 202//202 
f 29//29 43//43 40//40 
f 198//198 196//196 47//47 
f 45//45 47//47 196//196 
f 56//56 47//47 45//45 
f 48//48 49//49 50//50 
f 48//48 84//84 49//49 
f 39//39 52//52 42//42 
f 50//50 53//53 51//51 
f 200//200 201//201 195//195 
f 201//201 52//52 195//195 
f 53//53 50//50 49//49 
f 43//43 60//60 41//41 
f 84//84 48//48 41//41 
f 54//54 42//42 52//52 
f 54//54 62//62 42//42 
f 45//45 42//42 61//61 
f 63//63 47//47 75//75 
f 63//63 199//199 47//47 
f 61//61 56//56 45//45 
f 75//75 47//47 56//56 
f 64//64 75//75 56//56 
f 201//201 57//57 52//52 
f 204//204 53//53 49//49 
f 84//84 41//41 60//60 
f 82//82 84//84 60//60 
f 59//59 54//54 52//52 
f 54//54 59//59 62//62 
f 57//57 58//58 52//52 
f 52//52 58//58 59//59 
f 66//66 58//58 57//57 
f 58//58 67//67 59//59 
f 92//92 68//68 59//59 
f 69//69 60//60 202//202 
f 69//69 82//82 60//60 
f 61//61 42//42 62//62 
f 62//62 68//68 61//61 
f 101//101 61//61 68//68 
f 59//59 68//68 62//62 
f 206//206 203//203 63//63 
f 55//55 46//46 205//205 
f 56//56 72//72 76//76 
f 101//101 70//70 61//61 
f 61//61 70//70 72//72 
f 72//72 56//56 61//61 
f 64//64 56//56 76//76 
f 204//204 49//49 84//84 
f 65//65 66//66 57//57 
f 84//84 65//65 204//204 
f 67//67 58//58 66//66 
f 92//92 59//59 67//67 
f 66//66 65//65 81//81 
f 76//76 72//72 71//71 
f 71//71 72//72 70//70 
f 71//71 70//70 98//98 
f 100//100 70//70 101//101 
f 73//73 74//74 63//63 
f 105//105 75//75 77//77 
f 73//73 63//63 75//75 
f 75//75 105//105 73//73 
f 77//77 75//75 64//64 
f 77//77 64//64 76//76 
f 78//78 65//65 84//84 
f 81//81 65//65 78//78 
f 79//79 80//80 84//84 
f 80//80 78//78 84//84 
f 67//67 66//66 92//92 
f 82//82 69//69 137//137 
f 134//134 137//137 69//69 
f 82//82 137//137 84//84 
f 85//85 209//209 207//207 
f 87//87 83//83 210//210 
f 87//87 89//89 83//83 
f 91//91 89//89 87//87 
f 79//79 88//88 80//80 
f 86//86 208//208 88//88 
f 207//207 208//208 86//86 
f 207//207 86//86 85//85 
f 211//211 91//91 87//87 
f 211//211 87//87 210//210 
f 84//84 90//90 79//79 
f 212//212 213//213 88//88 
f 212//212 88//88 79//79 
f 88//88 213//213 86//86 
f 212//212 108//108 213//213 
f 66//66 93//93 92//92 
f 214//214 68//68 92//92 
f 214//214 83//83 68//68 
f 93//93 209//209 85//85 
f 209//209 93//93 66//66 
f 210//210 83//83 214//214 
f 74//74 94//94 63//63 
f 96//96 94//94 95//95 
f 206//206 94//94 110//110 
f 110//110 94//94 215//215 
f 111//111 110//110 215//215 
f 95//95 115//115 215//215 
f 115//115 95//95 104//104 
f 119//119 115//115 104//104 
f 112//112 111//111 215//215 
f 206//206 63//63 94//94 
f 94//94 74//74 95//95 
f 106//106 99//99 97//97 
f 99//99 148//148 97//97 
f 98//98 99//99 71//71 
f 71//71 106//106 76//76 
f 71//71 99//99 106//106 
f 99//99 98//98 100//100 
f 100//100 98//98 70//70 
f 99//99 100//100 148//148 
f 100//100 122//122 147//147 
f 147//147 148//148 100//100 
f 101//101 83//83 100//100 
f 101//101 68//68 83//83 
f 83//83 89//89 100//100 
f 122//122 100//100 89//89 
f 102//102 74//74 73//73 
f 102//102 95//95 74//74 
f 104//104 95//95 102//102 
f 102//102 103//103 104//104 
f 103//103 102//102 73//73 
f 104//104 103//103 119//119 
f 103//103 73//73 105//105 
f 103//103 105//105 107//107 
f 107//107 105//105 77//77 
f 107//107 123//123 103//103 
f 106//106 107//107 76//76 
f 77//77 76//76 107//107 
f 97//97 107//107 106//106 
f 121//121 107//107 97//97 
f 129//129 206//206 110//110 
f 206//206 129//129 126//126 
f 218//218 134//134 69//69 
f 135//135 137//137 134//134 
f 137//137 216//216 84//84 
f 84//84 216//216 90//90 
f 140//140 122//122 109//109 
f 109//109 213//213 108//108 
f 109//109 89//89 213//213 
f 109//109 122//122 89//89 
f 108//108 140//140 109//109 
f 111//111 113//113 110//110 
f 114//114 111//111 112//112 
f 112//112 115//115 114//114 
f 215//215 115//115 112//112 
f 117//117 113//113 111//111 
f 114//114 117//117 111//111 
f 116//116 117//117 114//114 
f 115//115 116//116 114//114 
f 116//116 115//115 120//120 
f 113//113 219//219 110//110 
f 118//118 117//117 116//116 
f 116//116 120//120 118//118 
f 142//142 117//117 118//118 
f 142//142 113//113 117//117 
f 219//219 113//113 225//225 
f 119//119 120//120 115//115 
f 123//123 119//119 103//103 
f 123//123 120//120 119//119 
f 120//120 123//123 118//118 
f 107//107 121//121 146//146 
f 148//148 121//121 97//97 
f 148//148 228//228 121//121 
f 118//118 123//123 144//144 
f 107//107 228//228 123//123 
f 150//150 125//125 124//124 
f 124//124 127//127 153//153 
f 133//133 217//217 136//136 
f 127//127 131//131 153//153 
f 126//126 127//127 125//125 
f 125//125 220//220 126//126 
f 128//128 127//127 126//126 
f 128//128 126//126 129//129 
f 127//127 128//128 130//130 
f 128//128 129//129 130//130 
f 130//130 219//219 143//143 
f 125//125 127//127 124//124 
f 130//130 143//143 131//131 
f 127//127 130//130 131//131 
f 131//131 143//143 132//132 
f 132//132 159//159 155//155 
f 227//227 159//159 132//132 
f 134//134 221//221 136//136 
f 126//126 220//220 222//222 
f 134//134 136//136 135//135 
f 135//135 136//136 157//157 
f 135//135 138//138 137//137 
f 157//157 156//156 135//135 
f 156//156 138//138 135//135 
f 141//141 137//137 138//138 
f 139//139 223//223 138//138 
f 149//149 224//224 139//139 
f 156//156 139//139 138//138 
f 149//149 139//139 163//163 
f 224//224 140//140 108//108 
f 141//141 216//216 137//137 
f 140//140 149//149 122//122 
f 149//149 140//140 224//224 
f 143//143 219//219 225//225 
f 226//226 118//118 144//144 
f 226//226 159//159 227//227 
f 159//159 226//226 144//144 
f 160//160 144//144 161//161 
f 144//144 160//160 159//159 
f 228//228 145//145 144//144 
f 162//162 145//145 228//228 
f 162//162 228//228 148//148 
f 162//162 148//148 147//147 
f 149//149 147//147 122//122 
f 144//144 123//123 228//228 
f 170//170 168//168 153//153 
f 154//154 170//170 153//153 
f 168//168 124//124 153//153 
f 168//168 150//150 124//124 
f 150//150 151//151 217//217 
f 151//151 136//136 217//217 
f 177//177 152//152 151//151 
f 131//131 154//154 153//153 
f 155//155 173//173 154//154 
f 154//154 131//131 132//132 
f 155//155 154//154 132//132 
f 155//155 160//160 161//161 
f 157//157 136//136 151//151 
f 158//158 156//156 157//157 
f 163//163 156//156 158//158 
f 157//157 151//151 152//152 
f 158//158 157//157 152//152 
f 229//229 166//166 163//163 
f 156//156 163//163 139//139 
f 160//160 155//155 159//159 
f 144//144 145//145 161//161 
f 162//162 164//164 145//145 
f 164//164 161//161 145//145 
f 164//164 166//166 161//161 
f 165//165 162//162 147//147 
f 164//164 162//162 165//165 
f 166//166 165//165 163//163 
f 166//166 164//164 165//165 
f 165//165 147//147 149//149 
f 163//163 165//165 149//149 
f 172//172 167//167 168//168 
f 168//168 167//167 150//150 
f 169//169 150//150 167//167 
f 170//170 154//154 173//173 
f 172//172 168//168 232//232 
f 177//177 169//169 171//171 
f 233//233 171//171 231//231 
f 231//231 171//171 169//169 
f 232//232 174//174 172//172 
f 178//178 177//177 171//171 
f 173//173 234//234 170//170 
f 175//175 171//171 233//233 
f 171//171 175//175 178//178 
f 233//233 235//235 175//175 
f 234//234 173//173 176//176 
f 175//175 235//235 176//176 
f 173//173 181//181 176//176 
f 169//169 151//151 150//150 
f 169//169 177//177 151//151 
f 177//177 178//178 152//152 
f 178//178 179//179 152//152 
f 175//175 180//180 178//178 
f 178//178 180//180 179//179 
f 179//179 180//180 166//166 
f 176//176 182//182 175//175 
f 175//175 182//182 180//180 
f 173//173 155//155 181//181 
f 161//161 181//181 155//155 
f 181//181 182//182 176//176 
f 179//179 230//230 152//152 
f 182//182 181//181 161//161 
f 179//179 166//166 229//229 
f 182//182 161//161 166//166 
f 180//180 182//182 166//166 
