#
# The license for this database is specified in the Creative Commons Attribution-Share Alike 2.1 Japan. If you use data from this database, please be sure attribute this database as follows: "BodyParts3D, (c)  The Database Center for Life Science licensed under CC Attribution-Share Alike 2.1 Japan".
# http://dbarchive.biosciencedbc.jp/en/bodyparts3d/lic.html
#
#
# Compatibility version : 4.0
# File ID : FJ1764
# Representation ID : BP6558
# Build-up logic : FMA 3.0 is_a
# Concept ID : FMA61975
# English name : Lamina terminalis
# Bounds(mm): (-0.656400,-109.643800,1539.530000)-(0.749300,-102.332700,1551.418300)
# Volume(cm3): 0.041600
#
v -0.639534 -109.466 1539.71
v -0.651694 -107.74 1540.46
v -0.638968 -108.102 1540.26
v -0.656408 -108.549 1540.14
v -0.651776 -106.678 1540.84
v -0.635787 -106.7 1540.7
v -0.631812 -105.874 1541.16
v -0.652182 -107.99 1541.78
v -0.603989 -108.25 1541.99
v -0.656408 -105.324 1541.69
v -0.655 -104.982 1542.19
v -0.6497 -104.826 1542.04
v -0.656408 -105.126 1542.73
v -0.6497 -105.104 1542.42
v -0.656408 -104.535 1544.44
v -0.648161 -105.646 1546.98
v -0.556934 -105.556 1547.83
v -0.654153 -105.04 1548.63
v -0.623076 -105.297 1548.42
v -0.643265 -102.946 1549.21
v -0.500265 -102.423 1550.11
v -0.603653 -104.947 1550.23
v -0.645812 -104.635 1550.42
v -0.600175 -104.705 1550.75
v -0.650859 -102.547 1550.62
v -0.64042 -102.399 1550.87
v -0.648805 -102.584 1550.99
v -0.638524 -102.517 1550.34
v -0.631374 -104.377 1550.97
v -0.62019 -103.701 1551.26
v -0.628907 -102.724 1551.25
v -0.5543 -109.629 1539.55
v -0.285327 -109.618 1539.53
v -0.324745 -109.631 1539.56
v -0.474175 -109.267 1539.75
v -0.475224 -108.547 1540.05
v -0.549406 -109.519 1539.81
v -0.371089 -109.6 1539.72
v -0.522262 -107.326 1540.45
v -0.5543 -106.366 1540.83
v -0.471067 -106.826 1540.63
v -0.382693 -108.475 1541.75
v -0.496931 -105.688 1541.28
v -0.5543 -104.685 1542.11
v -0.535841 -104.879 1542.21
v -0.341683 -104.793 1542.19
v -0.53598 -104.998 1542.39
v -0.545877 -105.023 1542.6
v -0.496076 -104.918 1543.08
v -0.143504 -104.926 1542.36
v -0.157777 -104.947 1542.5
v -0.525421 -107.162 1544.35
v -0.539179 -104.533 1544.21
v -0.187149 -104.368 1544.63
v -0.498819 -103.863 1545.88
v -0.548794 -106.324 1546.04
v -0.419675 -106.316 1546.15
v 0.11761 -103.693 1546.18
v -0.556473 -105.786 1547.21
v -0.41299 -105.825 1547.23
v -0.415389 -105.594 1547.84
v -0.400232 -105.323 1548.77
v -0.392249 -105.081 1550.08
v -0.482716 -102.609 1549.4
v -0.548669 -104.911 1550.5
v -0.414318 -104.952 1550.51
v -0.382077 -104.811 1550.75
v -0.523705 -102.352 1550.69
v -0.550931 -104.085 1551.25
v -0.546098 -103.648 1551.35
v -0.39805 -104.38 1551.14
v -0.394745 -103.948 1551.32
v -0.549438 -104.533 1551
v -0.381495 -104.653 1550.93
v -0.517499 -102.343 1551.05
v -0.530753 -102.401 1551.28
v -0.384079 -102.343 1551.21
v -0.357751 -102.468 1551.34
v -0.494321 -103.037 1551.38
v -0.381035 -103.536 1551.4
v 0.6859 -109.624 1539.55
v 0.628534 -109.084 1539.85
v 0.749252 -108.994 1539.97
v 0.710786 -109.568 1539.67
v 0.63722 -109.594 1539.67
v 0.749252 -109.466 1539.71
v 0.749252 -109.243 1540.14
v 0.6859 -109.282 1540.25
v 0.6859 -107.591 1540.36
v 0.6859 -108.241 1540.17
v 0.742292 -107.962 1540.32
v 0.521291 -106.6 1540.73
v 0.742345 -106.464 1540.83
v 0.5905 -108.678 1541.37
v 0.746268 -105.708 1541.43
v 0.6859 -105.851 1541.15
v 0.6859 -104.689 1542.11
v 0.259582 -104.785 1542.2
v 0.737575 -104.825 1542.05
v 0.749252 -104.891 1542.16
v 0.653579 -104.874 1542.24
v 0.544589 -104.933 1542.39
v 0.681307 -104.951 1542.4
v 0.749252 -105.021 1542.4
v 0.635861 -104.921 1542.83
v 0.745745 -105.181 1542.87
v 0.666443 -104.644 1543.77
v 0.741516 -104.683 1544.02
v 0.227778 -104.283 1544.62
v 0.586108 -104.264 1544.67
v 0.683654 -104.303 1544.63
v 0.513969 -106.038 1546.77
v 0.746886 -106.052 1546.55
v 0.6859 -103.272 1547.06
v 0.466927 -103.5 1546.49
v 0.746644 -103.537 1547.34
v 0.503084 -105.619 1547.78
v 0.725746 -105.458 1548.17
v 0.6859 -105.28 1548.93
v 0.749252 -105.08 1549.46
v 0.6859 -105.087 1549.96
v 0.736956 -105.002 1550.06
v 0.486004 -104.965 1550.42
v 0.506036 -104.767 1550.78
v 0.743951 -104.729 1550.44
v 0.652041 -104.868 1550.58
v 0.6859 -102.353 1550.27
v 0.744628 -102.491 1550.84
v 0.505015 -104.368 1551.13
v 0.742657 -104.397 1550.83
v 0.742369 -103.925 1551.11
v 0.626235 -104.083 1551.25
v 0.651596 -104.542 1550.98
v 0.188381 -102.364 1551.23
v 0.584977 -102.342 1551.05
v 0.692715 -102.34 1551.06
v 0.741239 -102.415 1551.17
v 0.748153 -102.628 1551.07
v 0.645167 -102.378 1551.28
v 0.729375 -102.495 1551.29
v 0.6859 -102.459 1551.34
v 0.744566 -103.153 1551.19
v 0.718308 -103.447 1551.36
v 0.620648 -103.569 1551.39
v 0.6859 -103.243 1551.42
v -0.639534 -109.466 1539.71
v -0.639534 -109.466 1539.71
v -0.638968 -108.102 1540.26
v -0.656408 -108.549 1540.14
v -0.635787 -106.7 1540.7
v -0.635787 -106.7 1540.7
v -0.631812 -105.874 1541.16
v -0.603989 -108.25 1541.99
v -0.656408 -105.324 1541.69
v -0.655 -104.982 1542.19
v -0.655 -104.982 1542.19
v -0.6497 -104.826 1542.04
v -0.6497 -104.826 1542.04
v -0.656408 -105.126 1542.73
v -0.6497 -105.104 1542.42
v -0.656408 -104.535 1544.44
v -0.623076 -105.297 1548.42
v -0.643265 -102.946 1549.21
v -0.500265 -102.423 1550.11
v -0.603653 -104.947 1550.23
v -0.600175 -104.705 1550.75
v -0.650859 -102.547 1550.62
v -0.64042 -102.399 1550.87
v -0.64042 -102.399 1550.87
v -0.64042 -102.399 1550.87
v -0.638524 -102.517 1550.34
v -0.628907 -102.724 1551.25
v -0.5543 -109.629 1539.55
v -0.5543 -109.629 1539.55
v -0.5543 -109.629 1539.55
v -0.285327 -109.618 1539.53
v -0.324745 -109.631 1539.56
v -0.522262 -107.326 1540.45
v -0.5543 -106.366 1540.83
v -0.5543 -104.685 1542.11
v -0.5543 -104.685 1542.11
v -0.53598 -104.998 1542.39
v -0.545877 -105.023 1542.6
v -0.496076 -104.918 1543.08
v -0.525421 -107.162 1544.35
v -0.539179 -104.533 1544.21
v -0.498819 -103.863 1545.88
v -0.548794 -106.324 1546.04
v -0.556473 -105.786 1547.21
v -0.482716 -102.609 1549.4
v -0.548669 -104.911 1550.5
v -0.523705 -102.352 1550.69
v -0.550931 -104.085 1551.25
v -0.546098 -103.648 1551.35
v -0.549438 -104.533 1551
v -0.517499 -102.343 1551.05
v -0.530753 -102.401 1551.28
v -0.530753 -102.401 1551.28
v -0.357751 -102.468 1551.34
v 0.6859 -109.624 1539.55
v 0.6859 -109.624 1539.55
v 0.6859 -109.624 1539.55
v 0.6859 -109.624 1539.55
v 0.628534 -109.084 1539.85
v 0.749252 -108.994 1539.97
v 0.710786 -109.568 1539.67
v 0.749252 -109.466 1539.71
v 0.749252 -109.466 1539.71
v 0.749252 -109.243 1540.14
v 0.749252 -109.243 1540.14
v 0.6859 -109.282 1540.25
v 0.6859 -107.591 1540.36
v 0.6859 -108.241 1540.17
v 0.742292 -107.962 1540.32
v 0.742345 -106.464 1540.83
v 0.742345 -106.464 1540.83
v 0.5905 -108.678 1541.37
v 0.6859 -105.851 1541.15
v 0.6859 -104.689 1542.11
v 0.6859 -104.689 1542.11
v 0.6859 -104.689 1542.11
v 0.6859 -104.689 1542.11
v 0.749252 -104.891 1542.16
v 0.653579 -104.874 1542.24
v 0.681307 -104.951 1542.4
v 0.635861 -104.921 1542.83
v 0.666443 -104.644 1543.77
v 0.683654 -104.303 1544.63
v 0.746886 -106.052 1546.55
v 0.6859 -103.272 1547.06
v 0.725746 -105.458 1548.17
v 0.749252 -105.08 1549.46
v 0.6859 -102.353 1550.27
v 0.626235 -104.083 1551.25
v 0.651596 -104.542 1550.98
v 0.692715 -102.34 1551.06
v 0.692715 -102.34 1551.06
v 0.741239 -102.415 1551.17
v 0.645167 -102.378 1551.28
v 0.729375 -102.495 1551.29
v 0.729375 -102.495 1551.29
v 0.6859 -102.459 1551.34
v 0.6859 -102.459 1551.34
v 0.6859 -102.459 1551.34
v 0.718308 -103.447 1551.36
v 0.6859 -103.243 1551.42
vn -0.996452 -0.0713269 0.0446679
vn -0.951177 0.104264 -0.290501
vn -0.900933 0.183119 -0.39343
vn -0.99571 0.0321272 -0.0867756
vn -0.981912 0.106679 -0.156422
vn -0.126687 0.359968 -0.924323
vn -0.930041 0.152787 -0.334185
vn -0.998315 -0.0507499 0.0281449
vn -0.499988 -0.764692 0.406521
vn -0.99923 0.022356 -0.0322509
vn -0.999976 0.00566977 0.00405207
vn -0.497072 0.523477 -0.69202
vn -0.999942 0.00201262 -0.0105417
vn -0.999999 0.000962665 -0.000459416
vn -0.999997 -0.00169576 0.00185753
vn -0.974195 -0.209553 0.0838596
vn -0.371921 -0.87471 0.310738
vn -0.996813 -0.0762708 0.02338
vn -0.97307 -0.22164 0.0633251
vn -0.999994 0.0035031 0.000828518
vn -0.714975 0.682446 -0.151917
vn -0.967846 -0.212436 0.134702
vn -0.993214 -0.106129 0.0475663
vn -0.939448 -0.280425 0.196976
vn -0.999808 0.0170447 -0.00962329
vn -0.395594 0.918308 -0.0146861
vn -0.983073 0.139905 0.118299
vn -0.784391 0.608766 -0.118887
vn -0.94626 -0.172876 0.273325
vn -0.892244 -0.0530104 0.448431
vn -0.980984 0.129618 0.144465
vn -0.244868 0.503032 -0.828854
vn 0.00322215 -0.883094 -0.469184
vn 0.00322215 -0.883094 -0.469184
vn -0.110569 0.468492 -0.876521
vn -0.175627 0.335262 -0.92561
vn -0.444204 -0.797837 0.407602
vn -0.0431838 -0.933433 0.356143
vn -0.735386 0.21873 -0.641377
vn -0.90026 0.262637 -0.347208
vn -0.0488343 0.360276 -0.931567
vn -0.136402 -0.87667 0.461351
vn -0.185826 0.602039 -0.776542
vn -0.192648 0.615918 -0.763893
vn -0.319893 0.629295 0.708277
vn -0.0849213 0.632417 0.769959
vn -0.63604 0.713108 0.294838
vn -0.687264 0.72637 0.00735129
vn -0.589888 0.777105 -0.219409
vn -0.0642454 0.870361 0.488205
vn -0.100123 0.994728 0.022191
vn -0.949218 -0.28166 0.140191
vn -0.57795 0.763829 -0.287296
vn -0.102399 0.931578 -0.348822
vn -0.740571 0.633006 -0.225516
vn -0.916796 -0.363781 0.164767
vn -0.149975 -0.895438 0.419164
vn -0.155535 0.921338 -0.356293
vn -0.91507 -0.379899 0.135363
vn -0.166906 -0.910636 0.378001
vn -0.14129 -0.938661 0.314568
vn -0.203527 -0.945907 0.252661
vn -0.18373 -0.957549 0.222133
vn -0.812142 0.553363 -0.184973
vn -0.334935 -0.859178 0.386823
vn -0.126085 -0.909379 0.3964
vn -0.122852 -0.825497 0.550874
vn -0.150674 0.987073 -0.0546214
vn -0.808839 -0.210431 0.549088
vn -0.773728 -0.0546446 0.631157
vn -0.0797173 -0.478215 0.874617
vn -0.0790238 -0.276003 0.957903
vn -0.81639 -0.324829 0.477486
vn -0.0949041 -0.689519 0.718023
vn -0.166415 0.985031 0.0449453
vn -0.918935 0.368393 0.140869
vn -0.0553621 0.974323 0.218243
vn -0.132436 0.0923648 0.986879
vn -0.3461 0.0597781 0.936291
vn -0.0876824 -0.0863102 0.992402
vn 0.00255069 -0.882656 -0.470012
vn 0.00871901 0.408792 -0.912586
vn 0.48936 0.35912 -0.794708
vn 0.32949 -0.858272 0.393453
vn 0.178961 -0.905491 0.384785
vn 0.49827 0.443385 -0.745075
vn 0.999985 0.00268266 -0.00473885
vn 0.0961878 -0.877244 0.47031
vn 0.0470019 0.328566 -0.943311
vn 0.0148602 0.31561 -0.948773
vn 0.738982 0.204628 -0.641898
vn 0.0734276 0.417108 -0.905886
vn 0.83352 0.177043 -0.523355
vn 0.0686295 -0.889877 0.451009
vn 0.98302 0.110348 -0.14661
vn 0.033812 0.540256 -0.840821
vn 0.0181257 0.632034 0.774729
vn 0.0133454 0.665992 0.745839
vn 0.925064 0.294148 -0.240277
vn 0.995337 0.0964302 0.00225837
vn 0.049643 0.796381 0.602755
vn 0.0414753 0.982868 0.179584
vn 0.711239 0.691934 0.12396
vn 0.873737 0.462832 0.149567
vn 0.0479027 0.986678 -0.15547
vn 0.987467 0.157825 -0.000576321
vn 0.143478 0.926625 -0.347535
vn 0.954386 0.277118 -0.111148
vn -0.0484078 0.933802 -0.354499
vn 0.103501 0.918528 -0.381567
vn 0.205185 0.904755 -0.373252
vn 0.0783747 -0.907346 0.413013
vn 0.999994 0.000746774 0.00348401
vn -0.0315479 0.935885 -0.350889
vn -0.133101 0.929651 -0.343559
vn 0.998965 0.0434815 -0.013386
vn 0.0387308 -0.945971 0.321931
vn 0.295565 -0.907195 0.299396
vn 0.312745 -0.925293 0.21453
vn 0.999648 -0.0257251 0.00649042
vn 0.463039 -0.855391 0.232167
vn 0.877463 -0.448469 0.170099
vn 0.0641694 -0.922819 0.379851
vn 0.0990366 -0.779015 0.619134
vn 0.974407 -0.178968 0.136019
vn 0.482401 -0.764487 0.427607
vn -0.0150678 0.99608 -0.0871667
vn 0.977728 0.207197 -0.0334353
vn 0.0859509 -0.532603 0.84199
vn 0.96397 -0.14959 0.219964
vn 0.939887 -0.130954 0.315379
vn 0.0852031 -0.383973 0.919405
vn 0.16715 -0.647024 0.743922
vn -0.00625009 0.931126 0.364645
vn -0.0259671 0.997342 0.0680829
vn 0.918105 0.392662 -0.0538556
vn 0.663551 0.657247 0.357388
vn 0.999353 0.00822617 0.0350093
vn -0.0165424 0.889711 0.456223
vn 0.99615 -0.000566258 0.0876646
vn -0.00165403 0.56066 0.828044
vn 0.978258 0.00102017 0.20739
vn 0.979455 0.0311482 0.199241
vn 0.352875 -0.212139 0.911305
vn 0.106626 -0.0284435 0.993892
vn -0.340254 0.424366 -0.839131
vn -0.722577 -0.618768 0.308235
vn -0.404594 0.268116 -0.87431
vn -0.409372 0.323539 -0.853075
vn -0.977205 0.165844 -0.132537
vn -0.627234 0.182909 -0.757048
vn -0.133644 0.619362 -0.773647
vn -0.989813 -0.116361 0.0820384
vn -0.446285 0.576329 -0.684598
vn -0.832193 0.393868 0.390285
vn -0.576659 0.603381 0.550813
vn -0.999676 0.0222312 -0.0124123
vn -0.832193 0.393868 0.390285
vn -0.621937 0.775225 -0.110544
vn -0.642921 0.748063 0.164481
vn -0.598751 0.754131 -0.269785
vn -0.456425 -0.857844 0.236179
vn -0.817854 0.543281 -0.189635
vn -0.0320775 0.981321 -0.189684
vn -0.420434 -0.887253 0.189782
vn -0.336393 -0.739756 0.582753
vn -0.80102 0.579453 -0.150336
vn -0.822621 0.336066 0.458645
vn -0.998575 0.0523058 0.0105522
vn -0.733931 0.60021 -0.317953
vn -0.999778 0.00262263 -0.0208848
vn -0.62058 0.0431095 0.782957
vn -0.711524 -0.640948 0.287958
vn 0.00389361 -0.883531 -0.468356
vn -0.113253 -0.949948 0.291158
vn -0.0313277 0.509903 -0.859661
vn -0.00305263 -0.981603 0.190909
vn -0.138302 0.317764 -0.938029
vn -0.0191976 0.479259 -0.877464
vn -0.832193 0.393868 0.390285
vn -0.151783 0.543464 0.825596
vn -0.149856 0.951563 0.268459
vn -0.200711 0.978955 -0.0369052
vn -0.116352 0.962959 -0.243253
vn -0.201754 -0.881012 0.427916
vn -0.0224142 0.93694 -0.348772
vn -0.0638112 0.925599 -0.373089
vn -0.286523 -0.86773 0.406141
vn -0.35023 -0.869252 0.348913
vn -0.0550858 0.956002 -0.288141
vn -0.945617 -0.290636 0.146079
vn -0.76396 0.63005 -0.139294
vn -0.220239 -0.363231 0.905295
vn -0.227387 -0.141838 0.96342
vn -0.239652 -0.614572 0.751578
vn -0.871726 0.410223 0.267975
vn -0.417226 0.106073 0.902591
vn -0.0807995 0.839042 0.538034
vn -0.00720387 0.691059 0.722762
vn 0.00981787 0.507697 -0.86148
vn 0.121249 -0.954591 0.27213
vn 0.565926 0.44509 -0.69399
vn 0.938674 -0.343122 -0.0340363
vn 0.586795 0.340519 -0.734655
vn 0.999992 0.00224416 0.00327438
vn 0.915846 -0.387032 0.106922
vn 0.883626 -0.43844 0.164239
vn 1 0 0
vn 0.817406 -0.494091 0.296178
vn 0.282109 -0.859899 0.425427
vn 0.836811 -0.470709 0.279606
vn 0.804341 0.176853 -0.567238
vn 0.770648 0.177927 -0.611918
vn 0.999917 0.00699923 -0.0108309
vn 0.16568 0.419375 -0.892566
vn 0.988224 0.0906143 -0.1233
vn 0.831378 -0.456061 0.317522
vn 0.840148 0.335849 -0.425861
vn 0.00192255 0.635238 -0.772314
vn 0.612038 0.502943 -0.610293
vn 0.943241 0.321123 0.0847134
vn 0.622669 0.390436 0.678117
vn 0.568614 0.595402 0.567604
vn 0.621998 0.636127 0.456576
vn 0.117431 0.973536 0.196053
vn 0.865446 0.4994 -0.0400363
vn 0.864045 0.46877 -0.183522
vn 0.883249 0.430579 -0.185668
vn 0.309937 -0.872916 0.376772
vn 0.962047 0.25522 -0.0965792
vn 0.999944 -0.0105777 0.000695704
vn 0.760451 -0.634832 0.136756
vn 0.971173 0.235042 -0.039734
vn 0.874762 -0.185572 0.447609
vn 0.913303 -0.2715 0.303588
vn -0.0255338 0.99702 0.0727955
vn 0.589563 0.765496 0.257741
vn 0.987557 0.157252 0.00148488
vn 0.70491 0.629798 0.326277
vn 0.734021 -0.0832043 0.674011
vn 0.753202 0.552973 0.356241
vn -0.00708163 0.0818071 0.996623
vn 0.876976 -0.0292238 0.479645
vn 0.779399 0.569296 0.26161
vn 0.542618 -0.258314 0.799274
vn 0.962837 0.0520176 0.265027
g grp1
usemtl mtl1
f 4//4 1//1 8//8 
f 36//36 35//35 146//146 
f 36//36 146//146 149//149 
f 35//35 32//32 146//146 
f 37//37 147//147 173//173 
f 37//37 9//9 147//147 
f 1//1 153//153 8//8 
f 3//3 2//2 39//39 
f 41//41 178//178 6//6 
f 2//2 3//3 4//4 
f 4//4 8//8 2//2 
f 148//148 36//36 149//149 
f 36//36 148//148 178//178 
f 150//150 5//5 40//40 
f 5//5 150//150 2//2 
f 151//151 39//39 2//2 
f 2//2 8//8 5//5 
f 41//41 6//6 179//179 
f 7//7 40//40 5//5 
f 10//10 7//7 5//5 
f 10//10 5//5 8//8 
f 152//152 154//154 43//43 
f 179//179 152//152 43//43 
f 153//153 52//52 8//8 
f 9//9 42//42 185//185 
f 43//43 154//154 12//12 
f 11//11 157//157 10//10 
f 8//8 11//11 10//10 
f 44//44 43//43 12//12 
f 155//155 180//180 158//158 
f 181//181 156//156 45//45 
f 156//156 47//47 45//45 
f 14//14 11//11 8//8 
f 14//14 8//8 13//13 
f 156//156 160//160 47//47 
f 160//160 48//48 47//47 
f 160//160 159//159 48//48 
f 159//159 49//49 48//48 
f 8//8 15//15 13//13 
f 49//49 159//159 161//161 
f 53//53 49//49 161//161 
f 55//55 53//53 161//161 
f 8//8 52//52 16//16 
f 52//52 56//56 16//16 
f 8//8 16//16 15//15 
f 16//16 56//56 59//59 
f 16//16 20//20 15//15 
f 163//163 55//55 161//161 
f 16//16 19//19 18//18 
f 16//16 59//59 19//19 
f 189//189 17//17 162//162 
f 61//61 62//62 17//17 
f 18//18 23//23 20//20 
f 16//16 18//18 20//20 
f 64//64 55//55 163//163 
f 19//19 23//23 18//18 
f 23//23 19//19 22//22 
f 162//162 63//63 165//165 
f 21//21 64//64 28//28 
f 171//171 20//20 23//23 
f 163//163 28//28 64//64 
f 23//23 29//29 27//27 
f 23//23 24//24 29//29 
f 63//63 65//65 165//165 
f 22//22 191//191 23//23 
f 23//23 191//191 24//24 
f 24//24 73//73 29//29 
f 25//25 171//171 23//23 
f 25//25 23//23 27//27 
f 68//68 26//26 75//75 
f 27//27 196//196 168//168 
f 27//27 169//169 25//25 
f 21//21 28//28 192//192 
f 28//28 167//167 192//192 
f 167//167 170//170 192//192 
f 29//29 30//30 27//27 
f 29//29 69//69 30//30 
f 69//69 70//70 30//30 
f 29//29 73//73 69//69 
f 76//76 196//196 27//27 
f 27//27 31//31 76//76 
f 30//30 31//31 27//27 
f 79//79 30//30 70//70 
f 172//172 30//30 79//79 
f 197//197 172//172 79//79 
f 174//174 33//33 34//34 
f 177//177 38//38 175//175 
f 38//38 37//37 175//175 
f 33//33 81//81 34//34 
f 35//35 200//200 176//176 
f 201//201 38//38 177//177 
f 82//82 35//35 36//36 
f 38//38 42//42 37//37 
f 42//42 9//9 37//37 
f 32//32 35//35 176//176 
f 88//88 42//42 38//38 
f 89//89 36//36 178//178 
f 92//92 41//41 179//179 
f 179//179 96//96 92//92 
f 96//96 179//179 43//43 
f 94//94 112//112 42//42 
f 97//97 181//181 98//98 
f 46//46 181//181 45//45 
f 219//219 43//43 44//44 
f 98//98 181//181 46//46 
f 46//46 45//45 50//50 
f 50//50 45//45 182//182 
f 98//98 46//46 50//50 
f 112//112 185//185 42//42 
f 182//182 51//51 50//50 
f 183//183 51//51 182//182 
f 51//51 183//183 184//184 
f 51//51 184//184 105//105 
f 102//102 50//50 51//51 
f 105//105 102//102 51//51 
f 105//105 184//184 109//109 
f 109//109 184//184 54//54 
f 54//54 184//184 186//186 
f 58//58 109//109 54//54 
f 57//57 188//188 185//185 
f 112//112 57//57 185//185 
f 186//186 187//187 54//54 
f 54//54 187//187 58//58 
f 57//57 60//60 188//188 
f 189//189 188//188 60//60 
f 112//112 60//60 57//57 
f 60//60 17//17 189//189 
f 60//60 61//61 17//17 
f 117//117 61//61 60//60 
f 58//58 187//187 114//114 
f 62//62 162//162 17//17 
f 117//117 62//62 61//61 
f 62//62 63//63 162//162 
f 114//114 187//187 190//190 
f 127//127 114//114 190//190 
f 127//127 190//190 164//164 
f 63//63 66//66 65//65 
f 166//166 65//65 67//67 
f 67//67 65//65 66//66 
f 166//166 74//74 195//195 
f 74//74 166//166 67//67 
f 67//67 124//124 74//74 
f 127//127 68//68 75//75 
f 127//127 164//164 68//68 
f 193//193 71//71 72//72 
f 193//193 72//72 194//194 
f 194//194 72//72 80//80 
f 71//71 132//132 72//72 
f 72//72 144//144 80//80 
f 132//132 144//144 72//72 
f 71//71 195//195 74//74 
f 71//71 193//193 195//195 
f 127//127 75//75 77//77 
f 77//77 75//75 198//198 
f 197//197 79//79 78//78 
f 134//134 127//127 77//77 
f 134//134 77//77 198//198 
f 134//134 198//198 199//199 
f 79//79 194//194 80//80 
f 145//145 80//80 144//144 
f 79//79 80//80 145//145 
f 82//82 200//200 35//35 
f 85//85 38//38 201//201 
f 201//201 84//84 85//85 
f 204//204 83//83 86//86 
f 85//85 88//88 38//38 
f 202//202 204//204 86//86 
f 203//203 207//207 206//206 
f 206//206 207//207 211//211 
f 85//85 84//84 88//88 
f 205//205 87//87 208//208 
f 207//207 209//209 211//211 
f 82//82 36//36 90//90 
f 36//36 89//89 90//90 
f 204//204 213//213 91//91 
f 204//204 91//91 83//83 
f 212//212 91//91 213//213 
f 212//212 93//93 91//91 
f 88//88 94//94 42//42 
f 205//205 214//214 87//87 
f 211//211 209//209 217//217 
f 41//41 92//92 89//89 
f 92//92 215//215 89//89 
f 92//92 96//96 215//215 
f 89//89 178//178 41//41 
f 216//216 87//87 214//214 
f 96//96 43//43 219//219 
f 218//218 220//220 99//99 
f 99//99 95//95 218//218 
f 95//95 99//99 100//100 
f 95//95 100//100 87//87 
f 216//216 218//218 95//95 
f 216//216 95//95 87//87 
f 210//210 112//112 94//94 
f 98//98 50//50 101//101 
f 50//50 102//102 101//101 
f 97//97 98//98 101//101 
f 99//99 221//221 100//100 
f 223//223 222//222 224//224 
f 224//224 103//103 104//104 
f 224//224 104//104 223//223 
f 100//100 104//104 87//87 
f 225//225 101//101 102//102 
f 225//225 102//102 105//105 
f 226//226 104//104 103//103 
f 226//226 106//106 104//104 
f 104//104 106//106 87//87 
f 107//107 105//105 109//109 
f 108//108 106//106 226//226 
f 227//227 108//108 226//226 
f 106//106 108//108 113//113 
f 110//110 107//107 109//109 
f 111//111 107//107 110//110 
f 108//108 227//227 228//228 
f 106//106 113//113 87//87 
f 210//210 229//229 112//112 
f 109//109 114//114 110//110 
f 115//115 114//114 109//109 
f 111//111 110//110 114//114 
f 228//228 230//230 108//108 
f 230//230 116//116 108//108 
f 109//109 58//58 115//115 
f 108//108 116//116 113//113 
f 115//115 58//58 114//114 
f 112//112 117//117 60//60 
f 118//118 117//117 112//112 
f 118//118 119//119 117//117 
f 112//112 229//229 118//118 
f 113//113 116//116 231//231 
f 119//119 62//62 117//117 
f 231//231 116//116 120//120 
f 118//118 232//232 119//119 
f 119//119 63//63 62//62 
f 121//121 63//63 119//119 
f 119//119 232//232 121//121 
f 233//233 116//116 230//230 
f 63//63 121//121 123//123 
f 232//232 122//122 121//121 
f 120//120 125//125 122//122 
f 120//120 116//116 125//125 
f 125//125 116//116 130//130 
f 123//123 66//66 63//63 
f 123//123 67//67 66//66 
f 74//74 124//124 133//133 
f 123//123 126//126 67//67 
f 126//126 124//124 67//67 
f 121//121 126//126 123//123 
f 126//126 133//133 124//124 
f 122//122 125//125 126//126 
f 122//122 126//126 121//121 
f 126//126 125//125 235//235 
f 125//125 130//130 235//235 
f 134//134 135//135 127//127 
f 116//116 233//233 128//128 
f 136//136 128//128 233//233 
f 135//135 236//236 127//127 
f 128//128 138//138 116//116 
f 116//116 142//142 131//131 
f 142//142 143//143 131//131 
f 131//131 245//245 144//144 
f 129//129 132//132 71//71 
f 71//71 74//74 129//129 
f 74//74 133//133 129//129 
f 133//133 132//132 129//129 
f 116//116 131//131 130//130 
f 234//234 130//130 131//131 
f 130//130 234//234 235//235 
f 131//131 144//144 234//234 
f 139//139 135//135 134//134 
f 139//139 134//134 199//199 
f 139//139 199//199 141//141 
f 145//145 242//242 79//79 
f 79//79 242//242 78//78 
f 236//236 135//135 139//139 
f 239//239 137//137 237//237 
f 136//136 238//238 128//128 
f 128//128 238//238 138//138 
f 116//116 138//138 142//142 
f 238//238 140//140 138//138 
f 138//138 140//140 142//142 
f 142//142 240//240 243//243 
f 246//246 142//142 243//243 
f 241//241 137//137 239//239 
f 244//244 241//241 239//239 
f 143//143 142//142 246//246 
f 144//144 245//245 145//145 
