#
# The license for this database is specified in the Creative Commons Attribution-Share Alike 2.1 Japan. If you use data from this database, please be sure attribute this database as follows: "BodyParts3D, (c)  The Database Center for Life Science licensed under CC Attribution-Share Alike 2.1 Japan".
# http://dbarchive.biosciencedbc.jp/en/bodyparts3d/lic.html
#
#
# Compatibility version : 4.0
# File ID : FJ1816
# Representation ID : BP7746
# Build-up logic : FMA 3.0 is_a
# Concept ID : FMA73309
# English name : Right medial geniculate body
# Bounds(mm): (-18.378500,-78.139500,1535.905200)-(-11.725400,-70.994600,1543.648100)
# Volume(cm3): 0.123700
#
v -16.7868 -75.2853 1536.95
v -17.9852 -76.6301 1537.89
v -17.923 -75.8586 1538.15
v -18.3172 -76.6217 1538.87
v -16.98 -77.3298 1536.65
v -17.0332 -77.6664 1536.87
v -16.3745 -77.4438 1536.2
v -16.397 -77.9485 1536.62
v -16.0057 -76.8149 1536.05
v -15.578 -77.3757 1535.94
v -16.9335 -77.9545 1537.62
v -15.43 -77.7611 1536.08
v -15.6925 -78.0731 1536.63
v -16.3374 -78.1135 1537.41
v -15.054 -77.3633 1536.02
v -15.0501 -77.7194 1536.19
v -15.1775 -77.9289 1536.41
v -15.6386 -78.0853 1537.25
v -18.0197 -77.4825 1538.81
v -18.1919 -77.248 1539.63
v -17.9666 -77.5351 1539.63
v -17.7204 -77.6894 1539.37
v -16.3118 -72.5492 1538.53
v -16.8314 -72.4451 1539.59
v -15.3475 -76.0134 1536.17
v -14.6994 -75.4487 1536.6
v -17.9398 -75.659 1539.69
v -17.6429 -75.7932 1540.51
v -17.2208 -73.2866 1540.52
v -17.1263 -74.8093 1541.44
v -17.8919 -75.2996 1539.04
v -14.8267 -77.7452 1536.7
v -15.0384 -77.8952 1537.08
v -14.4081 -77.0599 1536.68
v -17.2869 -75.9421 1541.08
v -18.1339 -76.6221 1539.97
v -17.9451 -77.3143 1540.05
v -17.7133 -77.5565 1539.88
v -17.1098 -77.8841 1539.24
v -16.7846 -77.7692 1539.63
v -17.6674 -76.8956 1540.57
v -17.3702 -77.1647 1540.54
v -16.758 -76.4431 1541.34
v -16.5599 -77.9756 1538.73
v -15.2603 -72.0955 1538.35
v -14.3477 -72.0181 1538.5
v -14.7235 -71.2983 1539.16
v -13.8837 -71.4765 1539.27
v -16.1624 -71.6645 1539.52
v -15.4528 -71.4619 1539.08
v -16.2368 -71.6138 1540.12
v -16.4644 -71.9722 1540.67
v -15.8143 -71.3344 1540.01
v -15.8244 -71.3708 1540.53
v -14.9797 -71.0669 1539.86
v -15.3707 -71.1446 1540.41
v -15.6784 -72.125 1541.78
v -15.3957 -71.3917 1541.14
v -14.2626 -71.0444 1540.06
v -14.7739 -71.0598 1540.64
v -13.3089 -72.1152 1539.29
v -16.4783 -72.9096 1541.61
v -16.3381 -74.3295 1542.3
v -15.8531 -73.484 1542.45
v -16.6198 -75.3145 1542.05
v -16.1137 -75.0324 1542.51
v -15.9623 -75.5193 1542.44
v -15.236 -75.1281 1542.99
v -15.4881 -76.1572 1542.03
v -14.8685 -76.3657 1541.8
v -14.9164 -75.6873 1542.79
v -14.5942 -77.0477 1540.41
v -14.2254 -71.2091 1541.16
v -13.4364 -71.4588 1539.8
v -13.2649 -71.4109 1540.59
v -12.8163 -71.9181 1540.33
v -12.7924 -71.8162 1540.89
v -13.0285 -71.8007 1541.84
v -12.1922 -73.8644 1540.16
v -14.8409 -74.2509 1543.28
v -14.6369 -72.8709 1543
v -14.5761 -73.4814 1543.31
v -14.2063 -72.0727 1542.58
v -14.1416 -73.8 1543.53
v -13.9503 -73.0963 1543.42
v -13.163 -72.8449 1543.33
v -12.0684 -74.4388 1542.22
v -11.8183 -73.357 1541.42
v -11.799 -73.8543 1541.93
v -12.9961 -74.4718 1543.37
v -12.1215 -72.9848 1542.38
v -12.5497 -73.1254 1543.17
v -12.1496 -73.5187 1542.82
v -13.0823 -73.5947 1543.6
v -12.5166 -73.8405 1543.31
v -12.748 -75.7995 1540.71
v -11.8744 -74.3836 1540.8
v -14.3924 -75.3642 1543.16
v -14.1959 -75.619 1542.89
v -14.1052 -74.6966 1543.46
v -13.2443 -75.4075 1542.62
vn -0.552558 0.330013 -0.765357
vn -0.868253 -0.0504177 -0.493554
vn -0.861844 0.339035 -0.377201
vn -0.995288 0.064419 -0.0724716
vn -0.703321 -0.0629322 -0.708081
vn -0.673781 -0.550139 -0.493321
vn -0.475791 -0.249615 -0.843395
vn -0.331668 -0.82817 -0.451809
vn -0.314177 0.171736 -0.933702
vn -0.0577048 -0.0931476 -0.993979
vn -0.3662 -0.925962 -0.09215
vn 0.0081225 -0.64238 -0.766343
vn 0.0577991 -0.973222 -0.222481
vn -0.124744 -0.991309 -0.041778
vn 0.438202 -0.0980623 -0.893511
vn 0.576856 -0.570371 -0.584734
vn 0.35558 -0.884436 -0.302218
vn 0.200469 -0.975195 0.0938501
vn -0.765511 -0.621278 -0.16735
vn -0.91387 -0.359638 0.18842
vn -0.599725 -0.77232 0.209406
vn -0.382211 -0.920335 0.0830487
vn -0.603493 0.55999 -0.567633
vn -0.848063 0.503044 -0.166543
vn 0.033825 0.319077 -0.947125
vn 0.530019 0.282245 -0.799636
vn -0.944533 0.249568 0.213479
vn -0.889928 0.13696 0.435052
vn -0.918739 0.305651 0.249992
vn -0.835083 0.089166 0.542849
vn -0.943997 0.325528 -0.0538581
vn 0.698269 -0.692849 -0.179948
vn 0.436275 -0.898711 0.0445323
vn 0.842058 -0.251669 -0.477075
vn -0.764985 -0.089578 0.637788
vn -0.903393 0.0450714 0.426438
vn -0.64865 -0.528609 0.547563
vn -0.264757 -0.871443 0.412906
vn -0.151454 -0.971811 0.180677
vn 0.0368725 -0.912237 0.408001
vn -0.628728 -0.305721 0.715007
vn -0.223839 -0.719505 0.657426
vn -0.459912 -0.461872 0.75839
vn 0.0358905 -0.986607 0.159115
vn -0.106938 0.592145 -0.798704
vn 0.323842 0.563614 -0.759912
vn 0.0583749 0.846223 -0.529621
vn 0.417286 0.733752 -0.536173
vn -0.610766 0.729733 -0.307336
vn -0.330622 0.81641 -0.47346
vn -0.680802 0.732468 0.000500717
vn -0.726291 0.607333 0.321943
vn -0.44336 0.889289 -0.112234
vn -0.520514 0.827945 0.208739
vn -0.162391 0.972512 -0.166882
vn -0.309843 0.943243 0.11954
vn -0.522342 0.561675 0.641623
vn -0.353046 0.820133 0.450266
vn 0.210041 0.969401 -0.127058
vn -0.0914437 0.97893 0.182576
vn 0.69973 0.400264 -0.591749
vn -0.731614 0.357522 0.580447
vn -0.670517 0.128895 0.730612
vn -0.572188 0.301543 0.762675
vn -0.680356 -0.177471 0.71107
vn -0.559364 -0.109684 0.821634
vn -0.430318 -0.469057 0.771241
vn -0.37412 -0.297571 0.878343
vn -0.194067 -0.719534 0.666789
vn 0.0325605 -0.842997 0.536932
vn -0.183308 -0.688643 0.701548
vn 0.316895 -0.894483 0.315401
vn 0.0984632 0.936954 0.335293
vn 0.584609 0.734642 -0.344289
vn 0.515734 0.856749 0.000324553
vn 0.802573 0.515023 -0.301045
vn 0.760586 0.64906 0.0151967
vn 0.45287 0.802444 0.388578
vn 0.856392 0.167816 -0.488294
vn -0.455872 0.0278853 0.889609
vn -0.434248 0.467174 0.77018
vn -0.439305 0.248215 0.863366
vn -0.149698 0.732236 0.664395
vn -0.231991 0.0706358 0.97015
vn -0.204947 0.396839 0.894715
vn 0.193392 0.593569 0.781201
vn 0.813279 -0.452827 0.365412
vn 0.946669 0.301948 -0.112452
vn 0.978413 -0.0308876 0.204336
vn 0.392597 -0.478746 0.785284
vn 0.839608 0.460954 0.287367
vn 0.610859 0.424473 0.668336
vn 0.870636 0.0593102 0.488338
vn 0.190724 0.0796722 0.978405
vn 0.674132 -0.120281 0.728751
vn 0.720752 -0.68887 0.0772998
vn 0.958987 -0.238845 -0.152635
vn -0.032688 -0.53442 0.844587
vn 0.184924 -0.767589 0.613686
vn -0.108254 -0.229963 0.96716
vn 0.506264 -0.729626 0.459721
g grp1
usemtl mtl1
f 25//25 9//9 1//1 
f 1//1 45//45 25//25 
f 3//3 1//1 2//2 
f 2//2 1//1 5//5 
f 2//2 6//6 19//19 
f 4//4 31//31 3//3 
f 2//2 4//4 3//3 
f 19//19 4//4 2//2 
f 19//19 6//6 11//11 
f 31//31 4//4 27//27 
f 19//19 11//11 22//22 
f 36//36 27//27 4//4 
f 5//5 6//6 2//2 
f 5//5 7//7 6//6 
f 6//6 7//7 8//8 
f 1//1 9//9 7//7 
f 1//1 7//7 5//5 
f 13//13 8//8 12//12 
f 12//12 8//8 7//7 
f 8//8 11//11 6//6 
f 11//11 8//8 14//14 
f 9//9 25//25 10//10 
f 9//9 10//10 7//7 
f 10//10 12//12 7//7 
f 12//12 17//17 13//13 
f 8//8 13//13 14//14 
f 25//25 15//15 10//10 
f 12//12 10//10 15//15 
f 15//15 16//16 12//12 
f 12//12 16//16 17//17 
f 33//33 13//13 17//17 
f 13//13 33//33 18//18 
f 14//14 13//13 18//18 
f 11//11 14//14 44//44 
f 14//14 18//18 44//44 
f 26//26 15//15 25//25 
f 34//34 15//15 26//26 
f 16//16 15//15 34//34 
f 32//32 17//17 16//16 
f 32//32 33//33 17//17 
f 33//33 72//72 18//18 
f 19//19 20//20 4//4 
f 22//22 11//11 39//39 
f 39//39 11//11 44//44 
f 20//20 19//19 21//21 
f 37//37 20//20 21//21 
f 21//21 19//19 22//22 
f 4//4 20//20 36//36 
f 36//36 20//20 37//37 
f 37//37 21//21 38//38 
f 21//21 22//22 38//38 
f 38//38 22//22 39//39 
f 24//24 3//3 31//31 
f 24//24 31//31 29//29 
f 23//23 1//1 3//3 
f 23//23 3//3 24//24 
f 23//23 24//24 49//49 
f 45//45 1//1 23//23 
f 45//45 26//26 25//25 
f 46//46 26//26 45//45 
f 27//27 36//36 28//28 
f 27//27 29//29 31//31 
f 27//27 28//28 29//29 
f 29//29 28//28 30//30 
f 30//30 28//28 35//35 
f 32//32 16//16 34//34 
f 96//96 33//33 32//32 
f 18//18 72//72 44//44 
f 96//96 72//72 33//33 
f 34//34 96//96 32//32 
f 65//65 35//35 43//43 
f 44//44 40//40 39//39 
f 40//40 44//44 72//72 
f 41//41 36//36 37//37 
f 42//42 37//37 38//38 
f 42//42 38//38 40//40 
f 38//38 39//39 40//40 
f 35//35 36//36 41//41 
f 42//42 41//41 37//37 
f 36//36 35//35 28//28 
f 43//43 35//35 41//41 
f 42//42 43//43 41//41 
f 42//42 40//40 70//70 
f 72//72 70//70 40//40 
f 43//43 42//42 69//69 
f 69//69 42//42 70//70 
f 55//55 59//59 47//47 
f 45//45 50//50 47//47 
f 47//47 46//46 45//45 
f 47//47 48//48 46//46 
f 59//59 48//48 47//47 
f 23//23 49//49 50//50 
f 49//49 24//24 51//51 
f 29//29 52//52 24//24 
f 51//51 24//24 52//52 
f 50//50 49//49 53//53 
f 51//51 54//54 53//53 
f 49//49 51//51 53//53 
f 54//54 51//51 52//52 
f 50//50 53//53 55//55 
f 55//55 47//47 50//50 
f 53//53 54//54 56//56 
f 53//53 56//56 55//55 
f 56//56 54//54 58//58 
f 58//58 54//54 52//52 
f 57//57 52//52 62//62 
f 55//55 56//56 60//60 
f 55//55 60//60 59//59 
f 60//60 56//56 58//58 
f 57//57 58//58 52//52 
f 83//83 58//58 57//57 
f 59//59 60//60 73//73 
f 73//73 60//60 58//58 
f 23//23 50//50 45//45 
f 46//46 61//61 26//26 
f 48//48 61//61 46//46 
f 59//59 74//74 48//48 
f 48//48 74//74 61//61 
f 76//76 61//61 74//74 
f 26//26 61//61 79//79 
f 29//29 62//62 52//52 
f 35//35 65//65 30//30 
f 62//62 29//29 30//30 
f 63//63 62//62 30//30 
f 63//63 30//30 65//65 
f 66//66 63//63 65//65 
f 64//64 62//62 63//63 
f 57//57 62//62 64//64 
f 80//80 63//63 66//66 
f 81//81 57//57 64//64 
f 80//80 64//64 63//63 
f 96//96 101//101 72//72 
f 66//66 65//65 67//67 
f 68//68 66//66 67//67 
f 67//67 71//71 68//68 
f 80//80 66//66 68//68 
f 67//67 65//65 43//43 
f 67//67 43//43 69//69 
f 67//67 69//69 71//71 
f 71//71 69//69 70//70 
f 68//68 71//71 98//98 
f 98//98 71//71 99//99 
f 71//71 70//70 99//99 
f 99//99 70//70 72//72 
f 83//83 73//73 58//58 
f 78//78 73//73 83//83 
f 59//59 75//75 74//74 
f 76//76 74//74 75//75 
f 59//59 73//73 75//75 
f 73//73 78//78 75//75 
f 75//75 77//77 76//76 
f 61//61 76//76 79//79 
f 75//75 78//78 77//77 
f 77//77 88//88 76//76 
f 88//88 79//79 76//76 
f 91//91 88//88 77//77 
f 91//91 77//77 78//78 
f 57//57 81//81 83//83 
f 64//64 82//82 81//81 
f 80//80 82//82 64//64 
f 80//80 84//84 82//82 
f 100//100 84//84 80//80 
f 85//85 83//83 81//81 
f 82//82 85//85 81//81 
f 85//85 82//82 84//84 
f 94//94 84//84 100//100 
f 86//86 78//78 83//83 
f 86//86 83//83 85//85 
f 94//94 85//85 84//84 
f 85//85 94//94 86//86 
f 87//87 101//101 96//96 
f 90//90 100//100 98//98 
f 90//90 94//94 100//100 
f 87//87 97//97 89//89 
f 89//89 88//88 91//91 
f 88//88 89//89 97//97 
f 79//79 88//88 97//97 
f 90//90 95//95 94//94 
f 87//87 95//95 90//90 
f 101//101 87//87 90//90 
f 78//78 86//86 92//92 
f 78//78 92//92 91//91 
f 91//91 92//92 93//93 
f 91//91 93//93 89//89 
f 89//89 93//93 87//87 
f 93//93 92//92 95//95 
f 93//93 95//95 87//87 
f 92//92 86//86 94//94 
f 92//92 94//94 95//95 
f 26//26 79//79 34//34 
f 97//97 96//96 34//34 
f 96//96 97//97 87//87 
f 79//79 97//97 34//34 
f 80//80 68//68 100//100 
f 100//100 68//68 98//98 
f 72//72 101//101 99//99 
f 99//99 90//90 98//98 
f 90//90 99//99 101//101 
