#
# The license for this database is specified in the Creative Commons Attribution-Share Alike 2.1 Japan. If you use data from this database, please be sure attribute this database as follows: "BodyParts3D, (c)  The Database Center for Life Science licensed under CC Attribution-Share Alike 2.1 Japan".
# http://dbarchive.biosciencedbc.jp/en/bodyparts3d/lic.html
#
#
# Compatibility version : 4.0
# File ID : FJ1736
# Representation ID : BP6570
# Build-up logic : FMA 3.0 is_a
# Concept ID : FMA73461
# English name : Brachium of right superior colliculus
# Bounds(mm): (1.978000,-74.514200,1537.002600)-(17.055200,-67.768700,1543.919400)
# Volume(cm3): 0.206000
#
v 2.00987 -70.6517 1541.05
v 2.13628 -70.499 1541.91
v 2.40763 -70.2202 1542.32
v 2.66422 -72.5922 1539.11
v 3.09054 -73.4672 1539.84
v 3.13697 -72.9517 1538.59
v 2.51389 -72.6242 1540.56
v 2.70764 -72.8417 1541.2
v 3.05138 -73.4679 1540.7
v 3.32388 -73.5775 1541.27
v 3.11123 -72.7909 1541.96
v 2.68308 -72.0246 1538.27
v 2.79118 -71.1776 1537.6
v 2.13616 -71.5617 1540.19
v 2.33109 -71.5362 1538.69
v 2.21868 -71.5883 1541.47
v 2.43098 -71.1603 1542.28
v 2.98584 -71.1838 1542.62
v 2.38035 -70.5118 1538.07
v 2.59087 -69.8603 1537.83
v 2.98502 -70.5692 1537.3
v 2.09079 -70.5037 1539.06
v 2.24547 -69.4773 1538.9
v 2.09556 -69.4744 1540.39
v 2.66854 -68.8328 1538.63
v 3.12334 -69.0967 1537.78
v 3.22178 -68.6478 1538.2
v 2.45341 -68.6645 1539.96
v 3.00338 -68.1864 1539.45
v 3.32354 -68.2789 1538.76
v 3.48135 -67.9984 1539.47
v 2.33092 -69.0879 1541.43
v 3.05004 -68.4074 1541.82
v 2.9788 -68.0773 1540.53
v 3.60265 -67.8478 1541.05
v 4.5172 -74.3535 1539.59
v 4.33262 -74.3943 1540.09
v 4.50298 -74.3399 1540.89
v 4.99868 -74.4876 1540.17
v 5.29938 -74.2521 1541.02
v 3.67207 -72.8887 1537.95
v 4.65524 -72.9417 1537.77
v 3.84063 -74.0413 1539.51
v 4.16473 -73.8435 1538.78
v 3.57451 -74.0024 1540.4
v 3.86413 -74.1426 1540.8
v 3.98261 -73.8017 1541.59
v 4.7004 -73.9751 1541.54
v 4.09344 -73.0271 1542.23
v 3.21173 -72.2255 1537.74
v 3.38667 -71.5953 1537.28
v 3.7829 -70.9719 1537.05
v 3.96365 -72.2509 1537.38
v 4.2167 -71.8558 1537.21
v 3.22956 -70.1011 1537.22
v 3.54357 -69.3568 1537.45
v 4.39942 -70.1875 1537.29
v 4.8536 -69.3905 1537.83
v 4.83017 -70.9029 1537.34
v 4.61125 -69.4038 1543.04
v 3.62388 -68.8457 1537.86
v 3.6821 -68.5017 1538.28
v 4.80431 -68.8599 1538.21
v 4.06491 -68.1806 1538.9
v 5.26381 -67.8808 1540.6
v 4.71299 -68.2753 1542.34
v 5.16906 -74.4181 1539.69
v 5.79132 -74.3045 1540.11
v 5.02878 -74.042 1538.88
v 5.82056 -74.0275 1539.25
v 5.78831 -73.3216 1538.47
v 5.33908 -72.3037 1537.73
v 7.12893 -71.3049 1543.39
v 6.67563 -69.4278 1543.25
v 6.12141 -68.4852 1539.45
v 7.59385 -72.8326 1542.49
v 7.98759 -73.3854 1541.43
v 8.8711 -68.8611 1542.24
v 8.98025 -72.0862 1539.81
v 9.36664 -72.7279 1540.64
v 9.57198 -69.7045 1540.26
v 9.6939 -70.9893 1539.92
v 10.8204 -70.5801 1543.8
v 9.49232 -69.1419 1540.9
v 10.5513 -71.6747 1540.43
v 10.9877 -72.593 1542.94
v 11.9547 -71.9325 1543.59
v 11.3068 -70.8852 1540.55
v 11.1975 -70.0135 1540.8
v 11.1623 -69.2508 1541.76
v 11.3407 -69.2736 1542.78
v 12.4698 -72.3638 1541.86
v 12.981 -71.4364 1541.09
v 13.6217 -72.185 1541.75
v 13.3084 -72.4187 1542.85
v 13.4092 -72.4207 1542.23
v 13.1798 -70.721 1540.98
v 13.8296 -69.9374 1541.37
v 14.0335 -69.5125 1541.82
v 13.7703 -69.3469 1542.33
v 15.358 -72.1067 1541.46
v 15.5171 -71.4154 1541.06
v 14.8317 -72.5158 1542.39
v 15.196 -72.4283 1541.92
v 15.4045 -72.0237 1543.05
v 15.4332 -72.4597 1542.51
v 14.7861 -69.7581 1543.03
v 15.8596 -69.9987 1542.87
v 15.5092 -69.6979 1541.64
v 15.8971 -69.6086 1542.47
v 14.908 -70.6379 1543.42
v 14.7784 -69.4284 1542
v 15.7962 -69.585 1541.83
v 15.5543 -69.5077 1541.86
v 15.5572 -69.4346 1542.07
v 15.5225 -69.4467 1542.3
v 15.8547 -69.4949 1542.03
v 15.9275 -72.2512 1541.83
v 16.0894 -72.1684 1542.6
v 16.5925 -71.5189 1541.47
v 16.844 -71.541 1541.88
v 15.7968 -70.4228 1541.22
v 16.528 -70.8799 1541.3
v 16.1547 -70.0123 1541.56
v 16.2582 -69.7313 1541.94
v 16.3536 -69.8226 1542.39
v 16.4754 -71.2896 1542.91
v 16.5508 -70.4541 1542.78
v 16.5582 -70.4135 1541.51
v 16.6829 -70.0629 1542.11
v 16.9953 -71.0927 1541.84
v 16.9457 -71.1169 1542.46
v 16.9519 -70.6646 1541.83
v 17.0168 -70.6748 1542.25
v 16.1052 -69.5805 1542.21
v 16.9953 -71.0927 1541.84
v 16.9457 -71.1169 1542.46
v 17.0168 -70.6748 1542.25
vn -0.997513 -0.00683983 0.0701455
vn -0.943295 0.00692204 0.331884
vn -0.648048 0.183389 0.73919
vn -0.865081 -0.455511 -0.210106
vn -0.756739 -0.635288 -0.154125
vn -0.656704 -0.622886 -0.425151
vn -0.89609 -0.443839 0.00539191
vn -0.818508 -0.506298 0.27149
vn -0.77337 -0.628314 0.0843785
vn -0.632096 -0.695496 0.341673
vn -0.590894 -0.495755 0.636452
vn -0.799241 -0.408905 -0.440465
vn -0.755014 -0.243898 -0.608661
vn -0.966748 -0.250834 -0.049795
vn -0.923798 -0.253137 -0.287262
vn -0.921933 -0.302525 0.241906
vn -0.743812 -0.228594 0.628083
vn -0.351143 -0.184871 0.917889
vn -0.897496 -0.0186893 -0.440626
vn -0.76761 0.270406 -0.581081
vn -0.596354 -0.0290295 -0.802196
vn -0.988905 -0.0184958 -0.147396
vn -0.930574 0.273853 -0.242974
vn -0.973268 0.22962 -0.00483291
vn -0.710878 0.592983 -0.378185
vn -0.464933 0.546496 -0.696548
vn -0.347754 0.752476 -0.559327
vn -0.834941 0.545508 -0.0727644
vn -0.554598 0.804756 -0.211634
vn -0.293971 0.86706 -0.40223
vn -0.166378 0.967131 -0.19229
vn -0.884783 0.398914 0.240887
vn -0.510562 0.652299 0.560208
vn -0.585027 0.809381 0.0514316
vn -0.196788 0.966058 0.167352
vn -0.18724 -0.933542 -0.30568
vn -0.325167 -0.945008 -0.0350091
vn -0.147559 -0.934678 0.323426
vn 0.0302339 -0.999093 0.0299745
vn 0.155208 -0.914606 0.373371
vn -0.375936 -0.635833 -0.674084
vn 0.0754142 -0.577027 -0.813236
vn -0.5205 -0.80846 -0.274721
vn -0.308053 -0.778644 -0.546642
vn -0.60847 -0.793484 0.0121188
vn -0.444459 -0.86409 0.236229
vn -0.324634 -0.738952 0.590392
vn -0.0290668 -0.765036 0.643331
vn -0.172467 -0.507494 0.844218
vn -0.580796 -0.474083 -0.661756
vn -0.390322 -0.288129 -0.874432
vn -0.0361721 -0.0187713 -0.999169
vn -0.215524 -0.474182 -0.85364
vn 0.118199 -0.255312 -0.959607
vn -0.308948 0.25856 -0.915258
vn 0.00104892 0.489814 -0.871826
vn 0.272061 0.262041 -0.925914
vn 0.348115 0.462888 -0.815199
vn 0.374011 0.0120102 -0.927346
vn -0.243785 0.260628 0.934153
vn 0.0200312 0.686347 -0.726999
vn 0.0164241 0.825975 -0.563467
vn 0.288953 0.706278 -0.646279
vn 0.117405 0.904266 -0.410512
vn 0.163073 0.984249 -0.0682773
vn -0.0431397 0.810195 0.584571
vn 0.143055 -0.949397 -0.279609
vn 0.325282 -0.944568 -0.0445341
vn 0.0861861 -0.808311 -0.582413
vn 0.364785 -0.812514 -0.454702
vn 0.397278 -0.568883 -0.720099
vn 0.413356 -0.267247 -0.870469
vn -0.116922 -0.22487 0.967348
vn -0.017067 0.502772 0.864251
vn 0.315636 0.825273 -0.468294
vn 0.0158359 -0.710126 0.703896
vn 0.233213 -0.96 0.154958
vn 0.155257 0.963226 0.219297
vn 0.466787 -0.397511 -0.789996
vn 0.401943 -0.746212 -0.530669
vn 0.399305 0.554489 -0.730135
vn 0.432816 0.0752282 -0.898338
vn 0.0147144 0.246543 0.96902
vn 0.309091 0.87024 -0.383596
vn 0.356416 -0.322811 -0.87679
vn 0.0601717 -0.946123 0.318168
vn 0.0350242 -0.522732 0.851777
vn 0.288709 0.0154195 -0.957293
vn 0.256781 0.536307 -0.804014
vn 0.149492 0.949183 -0.276954
vn 0.0709519 0.903961 0.421688
vn 0.163638 -0.904897 -0.392918
vn 0.135907 -0.457073 -0.878985
vn -0.0209657 -0.803747 -0.594602
vn 0.0437891 -0.940279 0.337578
vn 0.00014396 -0.97633 -0.216285
vn 0.123551 0.140944 -0.982278
vn 0.088046 0.542647 -0.835333
vn 0.0456992 0.839546 -0.541363
vn 0.0402071 0.995298 -0.0881258
vn 0.0936942 -0.685465 -0.722052
vn 0.146262 -0.19619 -0.969596
vn 0.00849707 -0.999928 -0.00846608
vn 0.0470469 -0.935647 -0.349787
vn 0.239038 -0.497059 0.834143
vn 0.181747 -0.935103 0.304221
vn 0.141381 0.668069 0.730545
vn 0.339932 0.531672 0.775739
vn 0.100048 0.661995 -0.7428
vn 0.306271 0.792484 0.527416
vn 0.217175 0.11866 0.968894
vn 0.0105222 0.946419 -0.32277
vn 0.26598 0.763166 -0.588925
vn 0.0920303 0.869666 -0.484986
vn 0.0961183 0.985475 -0.140003
vn 0.154022 0.956196 0.248928
vn 0.281633 0.934758 -0.216587
vn 0.399005 -0.858627 -0.321798
vn 0.567578 -0.721026 0.397463
vn 0.535047 -0.446075 -0.717456
vn 0.798919 -0.587638 -0.1281
vn 0.167627 0.36714 -0.914937
vn 0.534979 0.0833788 -0.840741
vn 0.327113 0.593593 -0.735285
vn 0.518419 0.74489 -0.419978
vn 0.562023 0.671921 0.482341
vn 0.507083 -0.203711 0.837478
vn 0.615366 0.332888 0.7145
vn 0.559078 0.477654 -0.677701
vn 0.773299 0.633629 -0.0228878
vn 0.774182 -0.122046 -0.621085
vn 0.884033 -0.394571 0.250596
vn 0.852645 0.294316 -0.431711
vn 0.986585 0.147424 -0.0701133
vn 0.465014 0.877732 0.115541
vn 0.993313 -0.115361 -0.00460384
vn 0.729649 0.114358 0.674191
vn 0.770689 0.344133 0.536294
g grp1
usemtl mtl1
f 1//1 14//14 16//16 
f 16//16 2//2 1//1 
f 2//2 32//32 1//1 
f 2//2 3//3 32//32 
f 3//3 33//33 32//32 
f 1//1 32//32 24//24 
f 6//6 12//12 50//50 
f 14//14 4//4 7//7 
f 9//9 7//7 5//5 
f 5//5 7//7 4//4 
f 4//4 12//12 6//6 
f 5//5 43//43 45//45 
f 4//4 6//6 5//5 
f 7//7 8//8 16//16 
f 9//9 8//8 7//7 
f 9//9 10//10 8//8 
f 11//11 8//8 10//10 
f 45//45 10//10 9//9 
f 5//5 45//45 9//9 
f 10//10 47//47 11//11 
f 46//46 47//47 10//10 
f 11//11 47//47 49//49 
f 15//15 12//12 4//4 
f 19//19 15//15 22//22 
f 13//13 50//50 12//12 
f 12//12 15//15 13//13 
f 51//51 50//50 13//13 
f 51//51 13//13 21//21 
f 14//14 1//1 22//22 
f 14//14 22//22 15//15 
f 15//15 4//4 14//14 
f 14//14 7//7 16//16 
f 8//8 11//11 16//16 
f 11//11 17//17 16//16 
f 16//16 17//17 2//2 
f 3//3 2//2 17//17 
f 17//17 18//18 3//3 
f 17//17 11//11 18//18 
f 11//11 49//49 18//18 
f 49//49 73//73 18//18 
f 22//22 23//23 19//19 
f 23//23 28//28 25//25 
f 19//19 13//13 15//15 
f 21//21 13//13 19//19 
f 20//20 55//55 21//21 
f 21//21 19//19 20//20 
f 19//19 23//23 20//20 
f 20//20 23//23 25//25 
f 20//20 26//26 55//55 
f 56//56 55//55 26//26 
f 22//22 1//1 24//24 
f 24//24 23//23 22//22 
f 23//23 24//24 28//28 
f 60//60 33//33 3//3 
f 18//18 60//60 3//3 
f 73//73 60//60 18//18 
f 26//26 20//20 25//25 
f 27//27 26//26 25//25 
f 27//27 25//25 30//30 
f 61//61 26//26 27//27 
f 61//61 27//27 62//62 
f 62//62 27//27 30//30 
f 32//32 28//28 24//24 
f 29//29 28//28 34//34 
f 25//25 28//28 29//29 
f 29//29 34//34 31//31 
f 35//35 31//31 34//34 
f 25//25 29//29 30//30 
f 31//31 30//30 29//29 
f 32//32 33//33 34//34 
f 32//32 34//34 28//28 
f 34//34 33//33 35//35 
f 65//65 35//35 66//66 
f 35//35 33//33 66//66 
f 43//43 36//36 37//37 
f 37//37 36//36 39//39 
f 36//36 67//67 39//39 
f 69//69 67//67 36//36 
f 37//37 38//38 46//46 
f 38//38 48//48 47//47 
f 39//39 38//38 37//37 
f 40//40 48//48 38//38 
f 39//39 40//40 38//38 
f 41//41 6//6 50//50 
f 41//41 50//50 53//53 
f 42//42 41//41 53//53 
f 53//53 54//54 42//42 
f 43//43 5//5 6//6 
f 36//36 43//43 44//44 
f 43//43 6//6 44//44 
f 41//41 42//42 44//44 
f 44//44 6//6 41//41 
f 36//36 44//44 69//69 
f 69//69 44//44 42//42 
f 37//37 45//45 43//43 
f 46//46 45//45 37//37 
f 10//10 45//45 46//46 
f 38//38 47//47 46//46 
f 40//40 76//76 48//48 
f 49//49 47//47 48//48 
f 76//76 49//49 48//48 
f 73//73 49//49 76//76 
f 53//53 50//50 51//51 
f 52//52 51//51 21//21 
f 51//51 54//54 53//53 
f 54//54 51//51 52//52 
f 59//59 54//54 52//52 
f 59//59 52//52 57//57 
f 72//72 54//54 59//59 
f 72//72 42//42 54//54 
f 72//72 59//59 82//82 
f 52//52 21//21 55//55 
f 56//56 57//57 55//55 
f 56//56 26//26 61//61 
f 57//57 52//52 55//55 
f 58//58 57//57 56//56 
f 56//56 61//61 58//58 
f 61//61 63//63 58//58 
f 63//63 61//61 62//62 
f 64//64 30//30 31//31 
f 30//30 64//64 62//62 
f 62//62 64//64 63//63 
f 64//64 75//75 63//63 
f 75//75 64//64 65//65 
f 31//31 35//35 65//65 
f 65//65 66//66 78//78 
f 64//64 31//31 65//65 
f 66//66 33//33 60//60 
f 74//74 66//66 60//60 
f 78//78 66//66 74//74 
f 67//67 69//69 70//70 
f 70//70 68//68 67//67 
f 70//70 80//80 68//68 
f 67//67 68//68 39//39 
f 39//39 68//68 40//40 
f 42//42 72//72 71//71 
f 70//70 69//69 71//71 
f 69//69 42//42 71//71 
f 80//80 70//70 71//71 
f 77//77 76//76 40//40 
f 68//68 77//77 40//40 
f 57//57 82//82 59//59 
f 82//82 57//57 58//58 
f 58//58 81//81 82//82 
f 81//81 58//58 63//63 
f 74//74 60//60 73//73 
f 83//83 74//74 73//73 
f 81//81 63//63 75//75 
f 65//65 78//78 84//84 
f 71//71 79//79 80//80 
f 68//68 80//80 77//77 
f 72//72 79//79 71//71 
f 87//87 83//83 73//73 
f 81//81 75//75 84//84 
f 83//83 91//91 74//74 
f 75//75 65//65 84//84 
f 91//91 78//78 74//74 
f 76//76 77//77 86//86 
f 82//82 79//79 72//72 
f 85//85 79//79 82//82 
f 79//79 85//85 80//80 
f 92//92 77//77 80//80 
f 76//76 87//87 73//73 
f 86//86 87//87 76//76 
f 81//81 89//89 82//82 
f 84//84 89//89 81//81 
f 89//89 84//84 90//90 
f 84//84 78//78 90//90 
f 78//78 91//91 90//90 
f 88//88 85//85 82//82 
f 80//80 93//93 92//92 
f 85//85 93//93 80//80 
f 92//92 86//86 77//77 
f 82//82 89//89 88//88 
f 90//90 99//99 89//89 
f 88//88 89//89 97//97 
f 100//100 90//90 91//91 
f 99//99 90//90 100//100 
f 92//92 93//93 94//94 
f 94//94 96//96 92//92 
f 92//92 96//96 86//86 
f 95//95 87//87 86//86 
f 96//96 95//95 86//86 
f 95//95 106//106 87//87 
f 87//87 105//105 111//111 
f 106//106 105//105 87//87 
f 103//103 95//95 96//96 
f 89//89 98//98 97//97 
f 99//99 98//98 89//89 
f 85//85 88//88 93//93 
f 97//97 93//93 88//88 
f 111//111 83//83 87//87 
f 107//107 83//83 111//111 
f 83//83 107//107 91//91 
f 116//116 91//91 107//107 
f 100//100 91//91 116//116 
f 96//96 94//94 104//104 
f 104//104 94//94 101//101 
f 101//101 94//94 93//93 
f 101//101 102//102 120//120 
f 102//102 101//101 93//93 
f 97//97 102//102 93//93 
f 118//118 101//101 120//120 
f 103//103 106//106 95//95 
f 96//96 104//104 103//103 
f 104//104 106//106 103//103 
f 118//118 106//106 104//104 
f 105//105 106//106 119//119 
f 119//119 127//127 105//105 
f 127//127 111//111 105//105 
f 118//118 119//119 106//106 
f 104//104 101//101 118//118 
f 98//98 122//122 97//97 
f 109//109 122//122 98//98 
f 99//99 109//109 98//98 
f 102//102 97//97 122//122 
f 110//110 116//116 107//107 
f 99//99 114//114 109//109 
f 112//112 114//114 99//99 
f 108//108 110//110 107//107 
f 108//108 107//107 111//111 
f 113//113 109//109 114//114 
f 126//126 110//110 108//108 
f 124//124 109//109 113//113 
f 113//113 125//125 124//124 
f 117//117 125//125 113//113 
f 99//99 100//100 112//112 
f 114//114 112//112 115//115 
f 112//112 100//100 115//115 
f 115//115 100//100 116//116 
f 117//117 113//113 114//114 
f 117//117 114//114 115//115 
f 117//117 115//115 116//116 
f 125//125 117//117 135//135 
f 117//117 116//116 135//135 
f 135//135 116//116 110//110 
f 126//126 135//135 110//110 
f 119//119 118//118 121//121 
f 121//121 118//118 120//120 
f 119//119 132//132 127//127 
f 121//121 120//120 131//131 
f 132//132 119//119 121//121 
f 121//121 136//136 132//132 
f 122//122 109//109 124//124 
f 122//122 123//123 102//102 
f 122//122 129//129 123//123 
f 124//124 129//129 122//122 
f 102//102 123//123 120//120 
f 111//111 127//127 128//128 
f 111//111 128//128 108//108 
f 128//128 126//126 108//108 
f 129//129 124//124 125//125 
f 130//130 129//129 125//125 
f 137//137 128//128 127//127 
f 130//130 126//126 128//128 
f 131//131 120//120 123//123 
f 132//132 136//136 134//134 
f 137//137 138//138 128//128 
f 123//123 133//133 131//131 
f 136//136 133//133 134//134 
f 133//133 123//123 129//129 
f 134//134 133//133 130//130 
f 130//130 128//128 138//138 
f 130//130 133//133 129//129 
f 135//135 130//130 125//125 
f 130//130 135//135 126//126 
