#
# The license for this database is specified in the Creative Commons Attribution-Share Alike 2.1 Japan. If you use data from this database, please be sure attribute this database as follows: "BodyParts3D, (c)  The Database Center for Life Science licensed under CC Attribution-Share Alike 2.1 Japan".
# http://dbarchive.biosciencedbc.jp/en/bodyparts3d/lic.html
#
#
# Compatibility version : 4.0
# File ID : FJ1288
# Representation ID : BP5704
# Build-up logic : FMA 3.0 is_a
# Concept ID : FMA53550
# English name : Left ciliary ganglion
# Bounds(mm): (22.476600,-134.047400,1523.925800)-(25.743900,-130.790600,1526.528900)
# Volume(cm3): 0.010500
#
v 23.397 -133.124 1524.68
v 24.6849 -133.648 1524.15
v 25.1484 -133.725 1524.18
v 24.7686 -134.002 1524.6
v 24.8534 -134.028 1525.09
v 25.2438 -134.003 1524.6
v 24.2442 -133.876 1524.97
v 24.3319 -133.806 1525.44
v 24.9122 -133.909 1525.37
v 24.9147 -133.4 1524
v 23.968 -133.661 1524.68
v 23.8332 -133.243 1524.29
v 23.7506 -133.491 1525.53
v 23.9264 -133.425 1525.82
v 23.6079 -132.703 1524.22
v 24.1741 -132.952 1524.01
v 23.325 -133.222 1525.18
v 22.9033 -132.679 1525.15
v 23.0245 -132.852 1525.55
v 22.7773 -132.397 1525.81
v 23.1151 -132.692 1525.98
v 22.9882 -132.232 1524.65
v 22.9278 -131.604 1524.75
v 22.6347 -132.223 1525.51
v 22.608 -132.044 1525.26
v 22.6193 -131.904 1525.97
v 22.4981 -131.57 1525.67
v 22.5847 -131.523 1525.24
v 25.2831 -133.981 1525.06
v 25.5335 -133.88 1524.74
v 25.4467 -133.751 1525.27
v 25.1792 -133.344 1524.04
v 25.4988 -133.662 1524.33
v 25.6738 -133.641 1524.57
v 25.497 -133.154 1524.24
v 25.6938 -133.306 1524.5
v 25.7193 -133.469 1525.03
v 24.5539 -133.495 1525.9
v 25.1188 -133.38 1525.8
v 24.8183 -132.948 1523.95
v 25.3008 -132.9 1524.14
v 24.9786 -132.557 1524.1
v 23.9916 -133.044 1526.19
v 24.5659 -132.873 1526.24
v 24.1415 -132.199 1524.09
v 23.923 -132.217 1526.5
v 23.2482 -132.242 1526.38
v 23.3766 -131.677 1526.51
v 23.3333 -131.738 1524.45
v 23.6458 -131.438 1524.52
v 23.075 -131.308 1524.8
v 23.5697 -131.065 1524.91
v 22.5686 -131.528 1525.99
v 22.7912 -132.016 1526.16
v 22.7038 -131.755 1526.17
v 22.9442 -131.774 1526.36
v 22.7773 -131.389 1526.23
v 23.0427 -131.416 1526.39
v 22.741 -131.277 1525.11
v 22.9658 -131.053 1525.11
v 23.2087 -131.053 1524.98
v 22.5583 -131.27 1525.48
v 22.7376 -131.067 1525.34
v 22.6559 -131.07 1525.55
v 22.6458 -131.118 1525.87
v 22.8146 -130.987 1525.97
v 23.0141 -130.893 1525.35
v 22.9017 -130.879 1525.55
v 22.8252 -130.907 1525.75
v 25.5441 -133.07 1525.52
v 25.7128 -132.94 1525.06
v 25.2218 -132.636 1525.89
v 25.5002 -132.664 1525.53
v 25.2548 -132.375 1524.42
v 25.5656 -132.657 1524.64
v 25.5467 -132.479 1525.13
v 25.0737 -131.827 1525.17
v 25.2077 -132.15 1525.66
v 24.6752 -132.179 1526.23
v 23.8776 -131.69 1526.48
v 23.9384 -131.42 1526.34
v 24.4268 -131.435 1525.99
v 24.2214 -131.456 1524.62
v 23.3992 -130.892 1525.21
v 23.8977 -130.981 1525.28
v 24.0987 -131.071 1525.73
v 23.0614 -131.045 1526.19
v 23.4286 -131.355 1526.43
v 23.5078 -131.008 1526.14
v 23.422 -130.815 1525.66
v 23.1507 -130.81 1525.54
v 23.0462 -130.844 1525.84
v 25.6738 -133.641 1524.57
v 25.6738 -133.641 1524.57
vn -0.718566 -0.519313 -0.462576
vn -0.256232 -0.608587 -0.750978
vn 0.157315 -0.62804 -0.762114
vn -0.19476 -0.915451 -0.352163
vn -0.0684018 -0.98496 0.158665
vn 0.246422 -0.928175 -0.278868
vn -0.42807 -0.903412 0.0245484
vn -0.246166 -0.876285 0.414157
vn 0.144823 -0.81265 0.564469
vn 0.00945592 -0.288537 -0.957422
vn -0.523599 -0.769193 -0.366315
vn -0.512929 -0.494049 -0.702011
vn -0.536548 -0.787481 0.303299
vn -0.33507 -0.727839 0.598312
vn -0.525836 -0.127646 -0.840954
vn -0.261225 -0.167978 -0.95055
vn -0.682108 -0.730018 -0.042457
vn -0.845651 -0.48442 -0.224079
vn -0.756178 -0.627892 0.184248
vn -0.804113 -0.482058 0.347882
vn -0.568044 -0.593934 0.56971
vn -0.759305 -0.144701 -0.634443
vn -0.66896 0.217079 -0.710893
vn -0.924628 -0.377996 0.0467149
vn -0.936977 -0.208253 -0.280543
vn -0.898404 -0.266257 0.349254
vn -0.999339 -0.00735606 0.0356045
vn -0.901071 0.0849052 -0.425279
vn 0.336248 -0.90385 0.264562
vn 0.692651 -0.720347 -0.0365438
vn 0.624311 -0.583265 0.519651
vn 0.387125 -0.127523 -0.913166
vn 0.625839 -0.43881 -0.644803
vn 0.642679 -0.651334 -0.403395
vn 0.716733 0.0891764 -0.691623
vn 0.938869 0.0270562 -0.343211
vn 0.949494 -0.244677 0.196452
vn 0.0253838 -0.66647 0.7451
vn 0.457966 -0.432367 0.776741
vn 0.139984 0.094721 -0.985613
vn 0.558402 0.266459 -0.785613
vn 0.342573 0.430167 -0.835225
vn -0.175351 -0.516587 0.838087
vn 0.286851 -0.272734 0.918331
vn -0.0588759 0.3179 -0.946294
vn 0.076999 -0.14337 0.986669
vn -0.3553 -0.343448 0.869371
vn -0.131539 0.0311537 0.990821
vn -0.40954 0.255053 -0.875914
vn -0.0827186 0.601229 -0.794784
vn -0.418986 0.529752 -0.737437
vn 0.0965565 0.822352 -0.560726
vn -0.904973 0.06242 0.420865
vn -0.67522 -0.36869 0.638862
vn -0.752428 -0.123074 0.647074
vn -0.492686 -0.104152 0.863952
vn -0.64268 0.269103 0.717318
vn -0.324104 0.257706 0.910244
vn -0.711792 0.428466 -0.556569
vn -0.457902 0.68985 -0.560744
vn -0.201146 0.768566 -0.607328
vn -0.914396 0.350141 -0.20318
vn -0.645716 0.660736 -0.382724
vn -0.752365 0.648712 -0.114544
vn -0.852365 0.454112 0.259338
vn -0.520586 0.705544 0.480831
vn -0.304769 0.8722 -0.382599
vn -0.430544 0.890517 -0.147004
vn -0.553599 0.826248 0.104126
vn 0.817681 -0.114949 0.564079
vn 0.979627 0.167505 0.110787
vn 0.666705 0.047256 0.743822
vn 0.871762 0.236434 0.429103
vn 0.620303 0.565217 -0.543833
vn 0.846737 0.406988 -0.342633
vn 0.885916 0.455588 0.0871315
vn 0.69866 0.710264 -0.0860151
vn 0.769723 0.46198 0.440568
vn 0.51653 0.21176 0.829671
vn 0.227257 0.210147 0.95089
vn 0.378969 0.505685 0.775026
vn 0.592156 0.639263 0.490606
vn 0.34663 0.709702 -0.613328
vn 0.0260871 0.936644 -0.34931
vn 0.372602 0.897125 -0.237349
vn 0.482911 0.854087 0.193216
vn -0.233059 0.659455 0.714704
vn 0.0378038 0.442808 0.895819
vn 0.222518 0.80116 0.555544
vn 0.175563 0.981565 0.0755439
vn -0.118756 0.985507 -0.121132
vn -0.163356 0.95062 0.263887
vn 0.961705 -0.273997 0.00704766
vn 0.808828 -0.168199 -0.563477
g grp1
usemtl mtl1
f 11//11 17//17 1//1 
f 6//6 29//29 5//5 
f 10//10 3//3 2//2 
f 6//6 4//4 3//3 
f 3//3 10//10 32//32 
f 33//33 6//6 3//3 
f 33//33 3//3 32//32 
f 32//32 10//10 40//40 
f 4//4 5//5 7//7 
f 2//2 4//4 11//11 
f 7//7 11//11 4//4 
f 3//3 4//4 2//2 
f 6//6 5//5 4//4 
f 9//9 5//5 29//29 
f 8//8 7//7 5//5 
f 8//8 5//5 9//9 
f 38//38 14//14 8//8 
f 38//38 43//43 14//14 
f 12//12 16//16 2//2 
f 16//16 10//10 2//2 
f 10//10 16//16 40//40 
f 7//7 17//17 11//11 
f 12//12 2//2 11//11 
f 12//12 15//15 16//16 
f 7//7 13//13 17//17 
f 17//17 13//13 19//19 
f 8//8 13//13 7//7 
f 13//13 8//8 14//14 
f 19//19 13//13 21//21 
f 13//13 14//14 21//21 
f 21//21 14//14 43//43 
f 40//40 16//16 45//45 
f 11//11 1//1 12//12 
f 12//12 1//1 15//15 
f 16//16 15//15 45//45 
f 17//17 18//18 1//1 
f 17//17 19//19 18//18 
f 18//18 19//19 24//24 
f 19//19 20//20 24//24 
f 54//54 20//20 21//21 
f 20//20 19//19 21//21 
f 54//54 21//21 47//47 
f 22//22 15//15 1//1 
f 45//45 15//15 49//49 
f 49//49 22//22 23//23 
f 49//49 15//15 22//22 
f 24//24 25//25 18//18 
f 22//22 1//1 18//18 
f 18//18 25//25 22//22 
f 22//22 25//25 28//28 
f 23//23 22//22 28//28 
f 59//59 23//23 28//28 
f 23//23 59//59 51//51 
f 27//27 25//25 24//24 
f 24//24 26//26 27//27 
f 26//26 20//20 54//54 
f 24//24 20//20 26//26 
f 25//25 27//27 28//28 
f 55//55 26//26 54//54 
f 53//53 26//26 55//55 
f 26//26 53//53 27//27 
f 59//59 28//28 62//62 
f 29//29 6//6 30//30 
f 6//6 33//33 30//30 
f 29//29 31//31 9//9 
f 33//33 34//34 30//30 
f 29//29 30//30 31//31 
f 93//93 37//37 30//30 
f 30//30 37//37 31//31 
f 35//35 33//33 32//32 
f 35//35 32//32 41//41 
f 36//36 94//94 33//33 
f 37//37 93//93 36//36 
f 33//33 35//35 36//36 
f 36//36 35//35 75//75 
f 36//36 71//71 37//37 
f 36//36 75//75 71//71 
f 8//8 9//9 38//38 
f 38//38 9//9 39//39 
f 31//31 39//39 9//9 
f 43//43 38//38 44//44 
f 44//44 38//38 39//39 
f 39//39 31//31 70//70 
f 41//41 32//32 40//40 
f 45//45 42//42 40//40 
f 41//41 40//40 42//42 
f 75//75 35//35 41//41 
f 42//42 74//74 41//41 
f 75//75 41//41 74//74 
f 42//42 83//83 74//74 
f 43//43 47//47 21//21 
f 47//47 43//43 46//46 
f 44//44 46//46 43//43 
f 83//83 42//42 45//45 
f 50//50 83//83 45//45 
f 56//56 54//54 47//47 
f 47//47 48//48 56//56 
f 46//46 48//48 47//47 
f 49//49 50//50 45//45 
f 50//50 49//49 51//51 
f 52//52 83//83 50//50 
f 49//49 23//23 51//51 
f 51//51 61//61 50//50 
f 61//61 52//52 50//50 
f 84//84 52//52 61//61 
f 27//27 53//53 65//65 
f 55//55 57//57 53//53 
f 57//57 65//65 53//53 
f 65//65 57//57 66//66 
f 58//58 87//87 57//57 
f 87//87 66//66 57//57 
f 88//88 87//87 58//58 
f 92//92 66//66 87//87 
f 69//69 66//66 92//92 
f 55//55 54//54 56//56 
f 57//57 55//55 56//56 
f 58//58 57//57 56//56 
f 58//58 56//56 48//48 
f 48//48 88//88 58//58 
f 59//59 62//62 63//63 
f 51//51 59//59 60//60 
f 60//60 59//59 63//63 
f 60//60 63//63 67//67 
f 61//61 51//51 60//60 
f 67//67 61//61 60//60 
f 67//67 84//84 61//61 
f 28//28 27//27 62//62 
f 62//62 27//27 65//65 
f 63//63 62//62 64//64 
f 62//62 65//65 64//64 
f 67//67 63//63 68//68 
f 63//63 64//64 68//68 
f 68//68 64//64 69//69 
f 69//69 64//64 65//65 
f 66//66 69//69 65//65 
f 67//67 68//68 91//91 
f 91//91 68//68 92//92 
f 92//92 68//68 69//69 
f 31//31 37//37 70//70 
f 70//70 37//37 71//71 
f 73//73 70//70 71//71 
f 73//73 71//71 76//76 
f 71//71 75//75 76//76 
f 72//72 44//44 39//39 
f 72//72 39//39 70//70 
f 70//70 73//73 72//72 
f 76//76 75//75 77//77 
f 74//74 77//77 75//75 
f 73//73 78//78 72//72 
f 78//78 79//79 72//72 
f 79//79 44//44 72//72 
f 77//77 78//78 76//76 
f 78//78 73//73 76//76 
f 44//44 79//79 46//46 
f 46//46 79//79 80//80 
f 77//77 74//74 83//83 
f 79//79 78//78 82//82 
f 78//78 77//77 82//82 
f 77//77 86//86 82//82 
f 46//46 80//80 48//48 
f 79//79 82//82 81//81 
f 79//79 81//81 80//80 
f 81//81 82//82 89//89 
f 84//84 85//85 52//52 
f 83//83 52//52 85//85 
f 84//84 90//90 85//85 
f 83//83 85//85 77//77 
f 86//86 77//77 85//85 
f 85//85 90//90 86//86 
f 88//88 48//48 80//80 
f 88//88 89//89 87//87 
f 90//90 84//84 91//91 
f 80//80 81//81 88//88 
f 81//81 89//89 88//88 
f 92//92 89//89 90//90 
f 87//87 89//89 92//92 
f 90//90 89//89 86//86 
f 82//82 86//86 89//89 
f 91//91 84//84 67//67 
f 92//92 90//90 91//91 
