#
# The license for this database is specified in the Creative Commons Attribution-Share Alike 2.1 Japan. If you use data from this database, please be sure attribute this database as follows: "BodyParts3D, (c)  The Database Center for Life Science licensed under CC Attribution-Share Alike 2.1 Japan".
# http://dbarchive.biosciencedbc.jp/en/bodyparts3d/lic.html
#
#
# Compatibility version : 4.0
# File ID : FJ1311
# Representation ID : BP5731
# Build-up logic : FMA 3.0 is_a
# Concept ID : FMA52674
# English name : Communicating branch of left nasociliary nerve with left ciliary ganglion
# Bounds(mm): (16.373400,-132.220100,1524.914900)-(24.695700,-125.912000,1529.090300)
# Volume(cm3): 0.002000
#
v 16.4239 -126.285 1528.8
v 16.4235 -126.182 1528.7
v 16.3791 -126.141 1528.83
v 16.4045 -126.141 1528.93
v 16.4002 -126.041 1528.83
v 16.4675 -126.304 1528.9
v 16.4417 -126.062 1528.71
v 16.5 -125.942 1528.82
v 17.2031 -127.622 1527.89
v 17.1398 -127.462 1528.34
v 17.2366 -127.158 1528.5
v 16.8432 -127.107 1528.39
v 16.7734 -126.951 1528.32
v 16.8582 -126.79 1528.22
v 17.0472 -126.675 1528.25
v 17.3094 -126.969 1528.42
v 16.6427 -126.078 1528.57
v 16.7592 -125.987 1528.7
v 16.7248 -125.931 1528.93
v 16.86 -126.202 1528.95
v 16.9015 -126.108 1528.79
v 16.8474 -126.071 1528.93
v 16.5178 -126.145 1529.05
v 16.5234 -126.036 1529.03
v 16.6517 -126.303 1529.02
v 16.6229 -126.138 1529.08
v 16.7441 -126.18 1529.05
v 16.7261 -126.042 1529.04
v 18.0192 -128.578 1527.29
v 17.6368 -128.368 1527.68
v 17.6022 -128.052 1528.05
v 18.0068 -128.475 1527.85
v 17.9937 -128.119 1527.48
v 17.3788 -127.402 1527.83
v 17.4893 -127.27 1528.02
v 17.639 -127.884 1527.58
v 17.8555 -127.846 1527.68
v 17.8137 -127.738 1527.89
v 17.6117 -127.66 1528.18
v 18.2358 -129.005 1527.26
v 18.7786 -129.463 1527.05
v 18.8004 -129.341 1526.91
v 18.8326 -129.173 1526.89
v 18.8119 -128.907 1527.08
v 18.5211 -129.202 1527.38
v 18.7511 -129.112 1527.47
v 18.7843 -128.859 1527.35
v 18.3045 -128.361 1527.48
v 18.3051 -128.455 1527.67
v 19.953 -130.006 1526.47
v 19.3858 -129.838 1526.96
v 19.5147 -129.907 1526.74
v 19.8098 -129.785 1526.49
v 19.1611 -129.478 1527.26
v 19.2097 -129.33 1526.77
v 19.4337 -129.502 1527.17
v 19.3822 -129.275 1526.95
v 19.4552 -129.346 1527.05
v 19.9247 -129.601 1526.61
v 20.5076 -130.345 1526.42
v 20.0748 -130.093 1526.83
v 20.1945 -130.228 1526.65
v 20.4472 -130.101 1526.8
v 20.5486 -130.338 1526.6
v 20.4043 -129.936 1526.81
v 19.9222 -129.578 1526.85
v 22.0244 -130.894 1526.03
v 22.0756 -130.793 1526.22
v 22.2749 -130.917 1525.75
v 21.8759 -130.373 1525.92
v 22.2604 -130.431 1526.02
v 23.0859 -131.355 1525.62
v 22.4482 -130.874 1525.63
v 22.7608 -130.817 1525.56
v 23.1029 -131.243 1525.44
v 23.2854 -131.193 1525.34
v 23.173 -130.845 1525.62
v 22.7279 -130.857 1526.06
v 23.0068 -131.275 1525.82
v 23.5429 -131.47 1525.27
v 23.6478 -131.669 1525.37
v 23.74 -131.726 1525.51
v 23.8475 -131.676 1525.61
v 23.9112 -131.426 1525.16
v 24.058 -131.668 1525.6
v 24.0101 -131.438 1525.59
v 23.712 -131.204 1525.32
v 23.8186 -131.192 1525.42
v 23.9791 -131.324 1525.29
v 24.0484 -131.344 1525.41
v 23.3184 -131.252 1525.86
v 23.33 -130.928 1525.71
v 24.4841 -132.205 1525.1
v 24.1517 -131.657 1525.04
v 24.1809 -131.575 1525.09
v 24.193 -131.447 1525.3
v 24.2756 -132.157 1525.21
v 24.2319 -132.043 1525.03
v 24.3122 -131.574 1525.4
v 24.3544 -132.161 1525.31
v 24.352 -131.955 1524.94
v 24.4931 -132.186 1525.3
v 24.49 -132.086 1524.96
v 24.4566 -132.066 1525.4
v 24.4923 -131.986 1524.92
v 24.4783 -131.871 1524.95
v 24.5752 -131.878 1524.99
v 24.4646 -131.864 1525.43
v 24.4717 -131.709 1525.1
v 24.5907 -132.17 1525.2
v 24.6461 -132.088 1525.1
v 24.6165 -132.084 1525.3
v 24.5921 -131.984 1524.97
v 24.6854 -131.987 1525.2
v 24.651 -131.885 1525.1
v 24.6209 -131.878 1525.3
v 24.5711 -131.756 1525.21
v 16.3791 -126.141 1528.83
v 16.4045 -126.141 1528.93
v 16.4002 -126.041 1528.83
v 16.4002 -126.041 1528.83
v 16.4417 -126.062 1528.71
v 16.5 -125.942 1528.82
v 17.1398 -127.462 1528.34
v 16.6427 -126.078 1528.57
v 16.7592 -125.987 1528.7
v 16.7248 -125.931 1528.93
v 16.7248 -125.931 1528.93
v 16.5178 -126.145 1529.05
v 17.6368 -128.368 1527.68
v 17.6022 -128.052 1528.05
v 18.0068 -128.475 1527.85
v 17.8137 -127.738 1527.89
v 18.2358 -129.005 1527.26
v 18.7786 -129.463 1527.05
v 18.8326 -129.173 1526.89
v 18.7511 -129.112 1527.47
v 18.7511 -129.112 1527.47
v 18.7843 -128.859 1527.35
v 18.3051 -128.455 1527.67
v 19.1611 -129.478 1527.26
v 19.4337 -129.502 1527.17
v 19.9247 -129.601 1526.61
v 20.4043 -129.936 1526.81
v 22.2604 -130.431 1526.02
v 23.5429 -131.47 1525.27
v 23.3184 -131.252 1525.86
v 24.4841 -132.205 1525.1
v 24.4841 -132.205 1525.1
v 24.4931 -132.186 1525.3
v 24.49 -132.086 1524.96
v 24.4923 -131.986 1524.92
v 24.4923 -131.986 1524.92
v 24.5907 -132.17 1525.2
v 24.5907 -132.17 1525.2
v 24.5907 -132.17 1525.2
v 24.6461 -132.088 1525.1
v 24.6461 -132.088 1525.1
v 24.6165 -132.084 1525.3
v 24.5921 -131.984 1524.97
v 24.6854 -131.987 1525.2
v 24.6854 -131.987 1525.2
v 24.6854 -131.987 1525.2
v 24.651 -131.885 1525.1
vn -0.924338 -0.380329 0.0308116
vn -0.887876 -0.0138335 -0.459875
vn -0.980042 -0.131323 -0.14924
vn -0.843064 -0.368054 0.392147
vn -0.915049 0.176752 -0.362552
vn -0.671637 -0.519923 0.52781
vn -0.733185 0.181268 -0.655424
vn -0.280044 0.851009 -0.444251
vn -0.784622 -0.197101 -0.587809
vn -0.581997 -0.63125 0.512644
vn 0.411734 -0.262136 0.872789
vn -0.830113 -0.543404 0.125
vn -0.886727 -0.262135 -0.380789
vn -0.498439 0.206495 -0.841973
vn 0.213329 0.562822 -0.798575
vn 0.874108 0.248525 0.417338
vn -0.115807 0.461291 -0.879659
vn 0.580233 0.669555 -0.463709
vn -0.13731 0.806549 0.575
vn 0.72471 0.0619593 0.686263
vn 0.829269 0.558485 0.0202108
vn 0.806725 0.389595 0.444309
vn -0.469134 -0.435519 0.768269
vn -0.431666 0.55357 0.712197
vn -0.1117 -0.466934 0.877209
vn -0.0164279 5.54426e-05 0.999865
vn 0.416605 -0.134571 0.899072
vn 0.406899 0.370659 0.834892
vn -0.596422 -0.103397 -0.795984
vn -0.588873 -0.693477 0.415113
vn 0.162736 -0.362301 0.917745
vn 0.400301 -0.112762 0.90942
vn 0.397171 0.655371 -0.642452
vn 0.0855272 0.519326 -0.850286
vn 0.690118 0.617958 -0.376649
vn -0.214157 0.340042 -0.915701
vn 0.670089 0.660412 -0.338875
vn 0.768777 0.622557 -0.146304
vn 0.605724 -0.0158131 0.795518
vn -0.681542 -0.374507 -0.628685
vn -0.540969 -0.830647 0.131825
vn -0.545058 -0.302845 -0.781791
vn -0.381926 0.0641182 -0.921966
vn 0.384027 0.745866 -0.544249
vn -0.385254 -0.738746 0.553022
vn 0.573882 0.21585 0.78998
vn 0.656193 0.751756 0.0653719
vn 0.717479 0.690316 -0.0932113
vn 0.571308 0.0768066 0.817134
vn -0.463553 -0.450327 -0.763102
vn -0.3452 -0.854811 0.387472
vn -0.528697 -0.776842 -0.342047
vn -0.219163 0.253672 -0.942135
vn -0.0803815 -0.619072 0.78121
vn 0.100597 0.654426 -0.749404
vn 0.312542 -0.127717 0.941279
vn 0.472115 0.866993 -0.159469
vn 0.578648 0.67251 0.461407
vn -0.0279474 0.550374 -0.83445
vn -0.411989 -0.879423 -0.238497
vn -0.0746238 -0.706383 0.703885
vn -0.324728 -0.923343 0.204913
vn 0.203142 -0.281611 0.937778
vn -0.199512 -0.897605 0.393065
vn 0.322624 -0.0201793 0.946312
vn 0.493094 0.795528 0.352126
vn -0.329278 -0.935718 0.126525
vn 0.00638398 -0.628621 0.777686
vn -0.461824 -0.67593 -0.574315
vn 0.0959701 0.76965 -0.631212
vn 0.310878 0.930356 -0.194406
vn -0.494253 -0.852697 -0.169176
vn -0.369439 -0.15338 -0.916509
vn -0.057422 0.507549 -0.859707
vn -0.499988 -0.488888 -0.714843
vn -0.325593 0.0342676 -0.944889
vn 0.305412 0.884555 -0.352542
vn 0.39527 0.2277 0.889896
vn -0.229399 -0.812804 0.535467
vn -0.5992 -0.597904 -0.53242
vn -0.606186 -0.732599 -0.309576
vn -0.445858 -0.84041 0.308095
vn -0.0962938 -0.592868 0.799522
vn 0.0471797 0.545713 -0.836643
vn 0.266345 -0.147047 0.952595
vn 0.518157 0.375796 0.768304
vn 0.218323 0.756429 -0.616563
vn 0.456412 0.869923 -0.186874
vn 0.390295 0.800821 -0.454264
vn 0.590975 0.788426 0.170684
vn -0.0107785 -0.564408 0.825425
vn 0.528401 0.761705 0.374963
vn -0.351931 -0.779464 -0.518248
vn -0.0631151 0.367966 -0.927695
vn 0.206765 0.629551 -0.748942
vn 0.588059 0.804451 -0.0839329
vn -0.484632 -0.873416 -0.0477151
vn -0.491418 -0.565069 -0.662726
vn 0.658817 0.604811 0.447396
vn -0.225082 -0.846599 0.482295
vn -0.236942 -0.0518452 -0.97014
vn 0.0391569 -0.994472 0.0974244
vn -0.270921 -0.515139 -0.813163
vn 0.203879 -0.435127 0.876982
vn -0.172704 -0.313693 -0.933686
vn 0.218313 0.421589 -0.880115
vn 0.576782 0.467672 -0.66978
vn 0.538237 0.104632 0.836274
vn 0.496457 0.72278 -0.480749
vn 0.239163 -0.967222 0.0853352
vn 0.550332 -0.657825 -0.514199
vn 0.630974 -0.296618 0.716861
vn 0.521221 -0.394379 -0.756832
vn 0.867417 -0.478423 0.136748
vn 0.839468 0.324321 -0.436014
vn 0.818909 0.326894 0.471729
vn 0.732495 0.680029 0.031826
vn -0.953596 0.19178 0.232112
vn -0.838238 0.27535 0.47068
vn -0.814374 0.445921 0.371416
vn -0.674479 0.656758 -0.337263
vn -0.514536 0.714088 -0.47469
vn -0.453196 0.78957 0.413754
vn 0.00513358 -0.478087 0.878297
vn -0.221837 0.797787 -0.560646
vn -0.0266146 0.924092 -0.381241
vn 0.0577149 0.972169 -0.227061
vn 0.713356 0.671658 0.199995
vn -0.515187 0.199955 0.833427
vn -0.813814 -0.364258 -0.452794
vn -0.465846 -0.681591 0.564288
vn -0.238651 -0.636377 0.733533
vn 0.833231 0.364527 0.415748
vn -0.613754 -0.764778 0.196012
vn -0.620028 -0.551204 -0.558337
vn 0.027572 0.539882 -0.841289
vn -0.0932893 -0.576465 0.811779
vn 0.304043 -0.192538 0.932999
vn 0.606113 0.329246 0.724033
vn 0.791421 0.511989 0.333946
vn 0.323334 -0.0830997 0.942629
vn 0.541888 0.407034 0.73531
vn 0.316057 0.913677 -0.255543
vn 0.497244 0.568603 0.655316
vn 0.457003 0.565555 0.68651
vn -0.436303 -0.165641 -0.884422
vn 0.333415 0.0107924 0.942718
vn -0.0336657 -0.994639 0.0977733
vn 0.520019 -0.734144 -0.436593
vn 0.328202 -0.657086 0.678617
vn 0.517004 -0.501373 -0.693782
vn 0.197547 0.267225 -0.943168
vn 0.44042 -0.298208 -0.846819
vn 0.560786 -0.694105 0.451372
vn 0.548077 -0.768616 -0.32991
vn 0.892499 -0.428959 0.139424
vn 0.880297 -0.453866 0.138139
vn 0.926474 -0.0224763 -0.375687
vn 0.880297 -0.453866 0.138139
vn 0.672309 0.194975 -0.714133
vn 0.939605 -0.0227949 -0.341502
vn 0.89933 0.420609 0.119555
vn 0.831693 -0.01593 0.555007
vn 0.891898 0.436607 0.117866
g grp1
usemtl mtl1
f 1//1 12//12 6//6 
f 2//2 1//1 3//3 
f 1//1 4//4 3//3 
f 5//5 2//2 3//3 
f 119//119 120//120 118//118 
f 6//6 4//4 1//1 
f 7//7 17//17 14//14 
f 2//2 7//7 14//14 
f 2//2 5//5 7//7 
f 119//119 24//24 120//120 
f 125//125 122//122 8//8 
f 121//121 8//8 122//122 
f 123//123 120//120 24//24 
f 19//19 123//123 24//24 
f 6//6 23//23 4//4 
f 119//119 129//129 24//24 
f 12//12 30//30 10//10 
f 13//13 9//9 12//12 
f 13//13 14//14 9//9 
f 15//15 34//34 14//14 
f 130//130 12//12 9//9 
f 35//35 34//34 15//15 
f 11//11 124//124 31//31 
f 39//39 16//16 11//11 
f 13//13 12//12 1//1 
f 2//2 13//13 1//1 
f 6//6 10//10 25//25 
f 6//6 12//12 10//10 
f 15//15 14//14 17//17 
f 11//11 25//25 124//124 
f 2//2 14//14 13//13 
f 20//20 11//11 16//16 
f 11//11 20//20 27//27 
f 38//38 35//35 16//16 
f 25//25 11//11 27//27 
f 18//18 15//15 17//17 
f 126//126 125//125 8//8 
f 8//8 127//127 126//126 
f 15//15 18//18 35//35 
f 18//18 21//21 35//35 
f 22//22 128//128 28//28 
f 128//128 21//21 18//18 
f 16//16 22//22 20//20 
f 16//16 35//35 21//21 
f 16//16 21//21 22//22 
f 128//128 22//22 21//21 
f 6//6 25//25 23//23 
f 23//23 25//25 26//26 
f 26//26 24//24 129//129 
f 27//27 26//26 25//25 
f 27//27 28//28 26//26 
f 28//28 24//24 26//26 
f 28//28 19//19 24//24 
f 20//20 22//22 28//28 
f 27//27 20//20 28//28 
f 40//40 29//29 42//42 
f 36//36 43//43 29//29 
f 136//136 36//36 44//44 
f 44//44 36//36 33//33 
f 48//48 44//44 33//33 
f 131//131 10//10 30//30 
f 32//32 39//39 31//31 
f 40//40 130//130 29//29 
f 130//130 9//9 29//29 
f 9//9 36//36 29//29 
f 49//49 39//39 32//32 
f 39//39 140//140 133//133 
f 48//48 33//33 37//37 
f 46//46 49//49 32//32 
f 140//140 48//48 133//133 
f 9//9 14//14 36//36 
f 36//36 14//14 34//34 
f 33//33 36//36 34//34 
f 16//16 39//39 133//133 
f 31//31 39//39 11//11 
f 35//35 33//33 34//34 
f 37//37 33//33 35//35 
f 38//38 37//37 35//35 
f 48//48 37//37 38//38 
f 134//134 41//41 45//45 
f 45//45 30//30 134//134 
f 40//40 42//42 135//135 
f 41//41 51//51 45//45 
f 53//53 42//42 43//43 
f 47//47 44//44 48//48 
f 53//53 136//136 55//55 
f 44//44 55//55 136//136 
f 131//131 30//30 45//45 
f 45//45 132//132 131//131 
f 51//51 54//54 45//45 
f 45//45 54//54 137//137 
f 45//45 137//137 132//132 
f 56//56 138//138 141//141 
f 46//46 142//142 139//139 
f 42//42 29//29 43//43 
f 140//140 47//47 48//48 
f 49//49 46//46 139//139 
f 52//52 51//51 41//41 
f 52//52 135//135 42//42 
f 50//50 52//52 42//42 
f 50//50 42//42 53//53 
f 50//50 60//60 52//52 
f 52//52 60//60 62//62 
f 52//52 62//62 51//51 
f 51//51 62//62 61//61 
f 51//51 61//61 54//54 
f 57//57 55//55 44//44 
f 47//47 57//57 44//44 
f 57//57 47//47 58//58 
f 58//58 139//139 142//142 
f 65//65 56//56 141//141 
f 144//144 58//58 142//142 
f 59//59 53//53 55//55 
f 143//143 55//55 57//57 
f 66//66 57//57 58//58 
f 66//66 58//58 144//144 
f 57//57 66//66 143//143 
f 70//70 53//53 59//59 
f 71//71 70//70 143//143 
f 63//63 54//54 61//61 
f 71//71 143//143 66//66 
f 62//62 60//60 64//64 
f 61//61 62//62 64//64 
f 68//68 61//61 64//64 
f 68//68 63//63 61//61 
f 65//65 141//141 63//63 
f 78//78 63//63 68//68 
f 78//78 65//65 63//63 
f 78//78 66//66 144//144 
f 67//67 64//64 60//60 
f 64//64 67//67 68//68 
f 69//69 67//67 60//60 
f 60//60 50//50 69//69 
f 53//53 73//73 50//50 
f 69//69 50//50 73//73 
f 74//74 73//73 53//53 
f 72//72 67//67 69//69 
f 79//79 67//67 72//72 
f 67//67 79//79 68//68 
f 68//68 79//79 91//91 
f 147//147 78//78 68//68 
f 74//74 53//53 70//70 
f 145//145 66//66 78//78 
f 77//77 74//74 70//70 
f 77//77 70//70 71//71 
f 73//73 75//75 69//69 
f 69//69 75//75 72//72 
f 75//75 73//73 76//76 
f 74//74 76//76 73//73 
f 81//81 72//72 75//75 
f 78//78 92//92 145//145 
f 71//71 92//92 77//77 
f 86//86 92//92 78//78 
f 80//80 81//81 75//75 
f 146//146 75//75 76//76 
f 81//81 82//82 72//72 
f 72//72 82//82 79//79 
f 146//146 76//76 98//98 
f 81//81 80//80 98//98 
f 82//82 83//83 79//79 
f 83//83 91//91 79//79 
f 91//91 83//83 85//85 
f 101//101 76//76 94//94 
f 101//101 98//98 76//76 
f 94//94 84//84 95//95 
f 94//94 76//76 84//84 
f 95//95 84//84 89//89 
f 108//108 86//86 85//85 
f 87//87 74//74 77//77 
f 77//77 92//92 88//88 
f 77//77 88//88 87//87 
f 90//90 88//88 92//92 
f 87//87 89//89 84//84 
f 87//87 84//84 74//74 
f 74//74 84//84 76//76 
f 89//89 87//87 88//88 
f 90//90 89//89 88//88 
f 96//96 89//89 90//90 
f 86//86 78//78 147//147 
f 147//147 85//85 86//86 
f 90//90 92//92 86//86 
f 98//98 93//93 97//97 
f 100//100 97//97 148//148 
f 81//81 98//98 97//97 
f 82//82 81//81 97//97 
f 101//101 94//94 106//106 
f 106//106 94//94 95//95 
f 109//109 106//106 95//95 
f 109//109 95//95 89//89 
f 96//96 109//109 89//89 
f 99//99 90//90 86//86 
f 99//99 86//86 108//108 
f 103//103 93//93 98//98 
f 100//100 82//82 97//97 
f 82//82 100//100 83//83 
f 103//103 98//98 101//101 
f 117//117 99//99 116//116 
f 116//116 99//99 108//108 
f 96//96 117//117 109//109 
f 99//99 117//117 96//96 
f 90//90 99//99 96//96 
f 102//102 100//100 148//148 
f 100//100 150//150 104//104 
f 83//83 100//100 104//104 
f 105//105 103//103 101//101 
f 85//85 83//83 104//104 
f 152//152 101//101 106//106 
f 104//104 108//108 85//85 
f 151//151 111//111 149//149 
f 148//148 110//110 102//102 
f 154//154 112//112 150//150 
f 104//104 150//150 112//112 
f 111//111 151//151 113//113 
f 113//113 151//151 153//153 
f 107//107 160//160 106//106 
f 106//106 160//160 152//152 
f 112//112 116//116 108//108 
f 104//104 112//112 108//108 
f 107//107 106//106 109//109 
f 107//107 109//109 115//115 
f 115//115 109//109 117//117 
f 155//155 149//149 111//111 
f 159//159 156//156 157//157 
f 157//157 114//114 159//159 
f 107//107 115//115 160//160 
f 160//160 115//115 158//158 
f 158//158 115//115 161//161 
f 162//162 164//164 116//116 
f 112//112 163//163 116//116 
f 164//164 117//117 116//116 
