#
# The license for this database is specified in the Creative Commons Attribution-Share Alike 2.1 Japan. If you use data from this database, please be sure attribute this database as follows: "BodyParts3D, (c)  The Database Center for Life Science licensed under CC Attribution-Share Alike 2.1 Japan".
# http://dbarchive.biosciencedbc.jp/en/bodyparts3d/lic.html
#
#
# Compatibility version : 4.0
# File ID : FJ1347
# Representation ID : BP5727
# Build-up logic : FMA 3.0 is_a
# Concept ID : FMA52698
# English name : Right infratrochlear nerve
# Bounds(mm): (-11.899600,-173.563000,1520.702400)-(-8.305000,-168.371800,1530.336400)
# Volume(cm3): 0.003300
#
v -11.8853 -168.701 1529.93
v -11.8802 -168.699 1530.05
v -11.7958 -168.896 1530.15
v -11.7491 -168.749 1529.7
v -11.7248 -169.038 1529.9
v -11.7802 -168.696 1530.23
v -11.6145 -169.08 1530.09
v -11.6748 -168.905 1530.25
v -11.668 -168.702 1530.3
v -11.8609 -168.589 1529.94
v -11.8115 -168.583 1530.15
v -11.7816 -168.48 1530.04
v -11.7755 -168.515 1529.84
v -11.6149 -168.639 1529.63
v -11.6771 -168.586 1530.27
v -11.6734 -168.431 1529.84
v -11.6704 -168.405 1530.04
v -11.679 -168.454 1530.15
v -10.8827 -169.583 1528.95
v -10.8437 -169.624 1529.69
v -11.5113 -169.065 1530.16
v -11.44 -168.928 1530.26
v -11.4673 -168.683 1530.32
v -11.2387 -168.825 1530.2
v -10.8904 -169.067 1529.89
v -11.5237 -168.502 1529.7
v -11.5598 -168.398 1529.84
v -11.5657 -168.416 1530.15
v -11.5693 -168.485 1530.23
v -11.5582 -168.379 1530.03
v -11.2827 -168.583 1529.67
v -11.3036 -168.474 1529.89
v -11.3692 -168.418 1530.05
v -11.3694 -168.472 1530.16
v -11.2348 -168.53 1530.03
v -11.2293 -168.625 1530.14
v -9.9191 -170.9 1528.16
v -9.94168 -170.676 1528.64
v -10.2654 -170.433 1528.86
v -10.0812 -170.391 1528.95
v -10.4381 -169.617 1528.74
v -10.6185 -170.121 1528.82
v -10.6435 -170.1 1529.12
v -10.5527 -170.072 1529.26
v -10.3131 -170.052 1529.27
v -10.3134 -169.841 1529.37
v -10.1544 -169.838 1529.22
v -10.7444 -169.512 1529.73
v -10.473 -169.309 1529.35
v -9.10562 -172.036 1526.29
v -9.12151 -171.982 1525.4
v -9.26299 -171.829 1526.27
v -9.29953 -171.552 1526.48
v -9.10954 -171.858 1526.8
v -9.09672 -171.262 1526.62
v -9.48815 -171.444 1527.2
v -9.49462 -171.237 1527.1
v -9.34772 -171.59 1527.25
v -9.34614 -171.326 1527.78
v -9.10239 -171.495 1527.46
v -9.13061 -171.241 1527.74
v -9.12228 -171.042 1527.03
v -9.88487 -170.873 1527.87
v -9.69314 -170.649 1527.68
v -9.46548 -170.583 1527.71
v -9.32859 -171.017 1527.1
v -9.24323 -170.7 1527.75
v -9.05747 -171.048 1527.69
v -9.75799 -171.019 1528.16
v -9.55978 -170.808 1528.41
v -9.34958 -170.71 1528.22
v -9.87783 -170.315 1528.9
v -9.93891 -169.892 1528.63
v -9.7265 -170.17 1528.69
v -8.87533 -173.36 1520.86
v -8.89323 -173.255 1521.13
v -8.82994 -173.151 1520.91
v -8.83806 -173.465 1520.99
v -8.73508 -173.522 1520.86
v -8.73313 -173.534 1521.02
v -8.7301 -173.357 1520.72
v -8.62555 -173.541 1520.86
v -8.63233 -173.555 1520.99
v -8.62815 -173.465 1520.75
v -8.63027 -173.161 1520.75
v -8.62465 -173.047 1520.96
v -8.5245 -173.521 1521
v -8.4837 -173.465 1520.86
v -8.45086 -173.461 1520.98
v -8.52931 -173.355 1520.74
v -8.4557 -173.145 1520.96
v -8.4118 -173.355 1520.91
v -8.79999 -173.349 1521.84
v -8.81979 -173.046 1521.88
v -8.5428 -173.441 1521.88
v -8.3769 -173.357 1521.51
v -8.33765 -173.158 1521.7
v -8.85088 -173.129 1522.22
v -8.7406 -172.853 1522.48
v -8.64825 -173.347 1522.43
v -8.65053 -172.906 1521.97
v -8.54142 -173.277 1522.77
v -8.36349 -173.247 1522.38
v -8.31282 -173.146 1522.25
v -8.32842 -172.935 1522.66
v -8.86374 -173.003 1523.15
v -8.76043 -173.14 1523.13
v -8.65351 -173.174 1523.19
v -8.57019 -173.037 1523.62
v -8.45017 -173.039 1523.44
v -8.35525 -172.944 1523.35
v -8.7742 -172.874 1524.09
v -8.43314 -172.832 1522.46
v -8.86011 -172.672 1523.35
v -8.89212 -172.784 1524.14
v -8.5524 -172.36 1523.93
v -8.36655 -172.706 1523.76
v -8.42031 -172.704 1524.1
v -8.42376 -172.487 1523.98
v -8.88209 -172.287 1525.77
v -8.66909 -172.317 1525.53
v -8.98209 -171.887 1525.26
v -8.79228 -171.76 1525.46
v -8.55336 -172.025 1525.63
v -8.89703 -171.958 1526.56
v -8.76538 -171.658 1526.79
v -8.79921 -171.389 1526.67
v -11.8853 -168.701 1529.93
v -11.8853 -168.701 1529.93
v -11.8802 -168.699 1530.05
v -11.8609 -168.589 1529.94
v -11.7755 -168.515 1529.84
v -11.6734 -168.431 1529.84
v -11.5598 -168.398 1529.84
v -11.5582 -168.379 1530.03
v -9.26299 -171.829 1526.27
v -9.09672 -171.262 1526.62
v -9.09672 -171.262 1526.62
v -9.69314 -170.649 1527.68
v -9.46548 -170.583 1527.71
v -9.32859 -171.017 1527.1
v -9.24323 -170.7 1527.75
v -9.34958 -170.71 1528.22
v -8.87533 -173.36 1520.86
v -8.87533 -173.36 1520.86
v -8.87533 -173.36 1520.86
v -8.89323 -173.255 1521.13
v -8.82994 -173.151 1520.91
v -8.83806 -173.465 1520.99
v -8.7301 -173.357 1520.72
v -8.7301 -173.357 1520.72
v -8.62815 -173.465 1520.75
v -8.62815 -173.465 1520.75
v -8.63027 -173.161 1520.75
v -8.63027 -173.161 1520.75
v -8.63027 -173.161 1520.75
v -8.62465 -173.047 1520.96
v -8.52931 -173.355 1520.74
v -8.52931 -173.355 1520.74
v -8.85088 -173.129 1522.22
v -8.7406 -172.853 1522.48
v -8.43314 -172.832 1522.46
v -8.86011 -172.672 1523.35
v -8.5524 -172.36 1523.93
v -8.98209 -171.887 1525.26
v -8.79228 -171.76 1525.46
vn -0.893933 -0.405304 -0.191342
vn -0.907189 -0.420636 0.00858308
vn -0.778461 -0.466368 0.420118
vn -0.792197 -0.00728748 -0.610222
vn -0.820606 -0.567319 -0.0689619
vn -0.71663 0.00967443 0.697387
vn -0.482692 -0.756963 0.440472
vn -0.391973 -0.455868 0.799088
vn -0.278254 -0.0446734 0.959468
vn -0.897579 0.433524 0.0800566
vn -0.782198 0.420106 0.460084
vn -0.69049 0.717412 0.0924305
vn -0.657456 0.37744 -0.652144
vn -0.442597 0.431664 -0.785986
vn -0.38276 0.406473 0.829623
vn -0.343471 0.656842 -0.671257
vn -0.357399 0.927517 0.109444
vn -0.441174 0.72691 0.526277
vn -0.648628 0.0956515 -0.755071
vn 0.0832244 -0.614709 0.784351
vn -0.157122 -0.682512 0.713786
vn 0.126692 -0.382775 0.915113
vn 0.232918 0.206768 0.950261
vn 0.550855 -0.0276634 0.834142
vn 0.729706 0.128182 0.671638
vn -0.0833727 0.71686 -0.692215
vn 0.163597 0.890669 -0.424198
vn -0.0210417 0.886937 0.46141
vn -0.02345 0.6279 0.777941
vn -0.0878156 0.981476 0.170275
vn 0.30037 0.805126 -0.511419
vn 0.497005 0.849923 -0.174978
vn 0.401273 0.897508 0.182919
vn 0.439405 0.653178 0.61667
vn 0.713622 0.660622 0.233071
vn 0.700602 0.373389 0.608061
vn -0.711723 -0.698707 0.0725109
vn -0.0399783 -0.782764 0.621033
vn -0.351443 -0.814273 0.462004
vn 0.12877 -0.665809 0.734926
vn -0.0282448 0.66957 -0.742211
vn -0.815024 -0.502373 -0.288717
vn -0.585246 -0.779214 0.224305
vn -0.193076 -0.767138 0.611736
vn 0.263139 -0.530188 0.806014
vn 0.575014 -0.193344 0.79497
vn 0.78028 0.146777 0.607964
vn 0.425902 -0.32247 0.845352
vn 0.802123 0.544791 0.244542
vn -0.578188 -0.78792 0.211851
vn -0.89508 0.361039 -0.26169
vn -0.973549 0.0714155 -0.217032
vn -0.800456 0.444749 -0.401831
vn -0.126765 -0.904887 0.406338
vn -0.60477 0.646096 -0.465632
vn -0.876676 -0.474479 -0.0794233
vn -0.867256 0.188873 -0.460645
vn -0.501795 -0.821154 0.271859
vn 0.0573521 -0.818384 0.571802
vn 0.403323 -0.738965 0.539686
vn 0.682086 -0.426078 0.59432
vn 0.265732 0.86106 -0.433546
vn -0.883927 -0.227473 -0.408569
vn -0.721645 0.250001 -0.645545
vn -0.120058 0.756436 -0.642954
vn -0.610333 0.541967 -0.577724
vn 0.501653 0.805361 -0.315812
vn 0.940159 0.152228 0.30484
vn -0.371104 -0.840262 0.395274
vn 0.44074 -0.53625 0.71985
vn 0.765987 -0.15613 0.623609
vn 0.630017 -0.232905 0.740834
vn 0.585356 0.77175 -0.248515
vn 0.85783 0.37751 0.348732
vn -0.958145 -0.282563 0.0459989
vn -0.947493 -0.312235 0.0690452
vn -0.625147 0.34768 -0.698792
vn -0.953473 -0.294362 0.0651218
vn -0.428881 -0.821359 -0.376072
vn -0.375454 -0.924376 0.0675519
vn -0.625147 0.34768 -0.698792
vn 0.181644 -0.929684 -0.320458
vn 0.00912969 -0.999941 -0.00594346
vn -0.2664 -0.711489 -0.650242
vn -0.576854 0.389181 -0.718177
vn -0.267834 0.93134 -0.24672
vn 0.491135 -0.870529 -0.0310893
vn 0.635224 -0.655066 -0.40912
vn 0.780166 -0.619407 -0.0876132
vn 0.0809203 -0.0629084 -0.994733
vn 0.765991 0.553079 -0.32766
vn 0.950722 -0.129593 -0.281662
vn -0.733213 -0.670069 0.115785
vn -0.817623 0.572319 -0.0628024
vn 0.160341 -0.977377 0.137932
vn 0.85351 -0.520748 0.0184901
vn 0.987731 0.129139 -0.0878075
vn -0.979753 -0.198285 0.0277016
vn -0.522835 0.82923 -0.197537
vn -0.274053 -0.945822 0.174113
vn -0.3534 0.925586 -0.135645
vn 0.270734 -0.936362 0.22345
vn 0.744304 -0.654548 0.132586
vn 0.987917 -0.153893 0.0183405
vn 0.949912 0.307218 -0.0573138
vn -0.942348 -0.33329 0.0299845
vn -0.591513 -0.786581 0.177211
vn -0.164932 -0.952814 0.254838
vn 0.207414 -0.925691 0.316348
vn 0.636168 -0.727118 0.25805
vn 0.944975 -0.299856 0.130796
vn -0.317723 -0.907013 0.276369
vn -0.0620079 0.979943 -0.189387
vn -0.952636 0.24803 -0.175969
vn -0.708496 -0.687365 0.159882
vn -0.225244 0.915737 -0.332702
vn 0.99738 0.0218434 0.0689564
vn 0.882685 -0.410555 0.228718
vn 0.868468 0.487496 -0.0900588
vn -0.0122935 -0.936367 0.350808
vn 0.62714 -0.700704 0.34016
vn -0.719102 0.609325 -0.334089
vn -0.15806 0.90158 -0.402704
vn 0.989518 -0.0294233 0.141381
vn 0.371341 -0.819954 0.435639
vn 0.883981 -0.298851 0.359535
vn 0.758807 0.638103 -0.130522
vn -0.977146 0.208716 0.0402997
vn -0.820314 0.220966 -0.527502
vn -0.937555 0.141137 0.317917
vn -0.824705 0.212706 -0.52404
vn -0.684367 0.714382 -0.145943
vn -0.492876 0.860768 -0.127087
vn -0.250671 0.962015 -0.108127
vn 0.261452 0.950702 -0.166761
vn -0.810793 -0.577911 0.0929175
vn -0.133556 0.896684 -0.422043
vn 0.264655 0.88062 -0.393023
vn -0.192252 0.681393 -0.706217
vn 0.445744 0.816715 -0.366454
vn -0.103901 0.824692 -0.555956
vn 0.862299 0.487461 0.137191
vn 0.877447 0.432392 0.207663
vn -0.670671 0.304638 -0.676311
vn -0.95642 0.245461 -0.158142
vn -0.674408 -0.570682 -0.468504
vn -0.934294 0.350048 -0.0675277
vn -0.693962 0.695648 -0.185717
vn -0.625973 -0.776196 -0.0753502
vn -0.50091 -0.547768 -0.670104
vn 0.0809203 -0.0629084 -0.994733
vn 0.0803778 -0.215001 -0.973301
vn 0.446169 -0.653607 -0.611335
vn -0.329009 0.83224 -0.446239
vn 0.0795537 0.0906682 -0.992699
vn 0.601706 0.599074 -0.528261
vn 0.487466 0.815525 -0.311924
vn 0.741471 0.354966 -0.569402
vn 0.654291 -0.423884 -0.626279
vn -0.905139 0.418596 -0.0741637
vn -0.567856 0.80218 -0.184518
vn 0.721548 0.675014 -0.154032
vn -0.506199 0.809721 -0.296842
vn 0.645609 0.737531 -0.198081
vn -0.169462 0.902085 -0.396894
vn 0.438362 0.859432 -0.263088
g grp1
usemtl mtl1
f 1//1 5//5 2//2 
f 10//10 128//128 130//130 
f 5//5 7//7 3//3 
f 4//4 5//5 1//1 
f 3//3 2//2 5//5 
f 3//3 6//6 130//130 
f 13//13 4//4 131//131 
f 131//131 4//4 129//129 
f 11//11 10//10 130//130 
f 130//130 6//6 11//11 
f 42//42 43//43 5//5 
f 43//43 7//7 5//5 
f 5//5 4//4 42//42 
f 7//7 8//8 3//3 
f 8//8 9//9 6//6 
f 3//3 8//8 6//6 
f 19//19 4//4 14//14 
f 4//4 13//13 14//14 
f 11//11 6//6 15//15 
f 6//6 9//9 15//15 
f 7//7 43//43 44//44 
f 21//21 7//7 44//44 
f 21//21 8//8 7//7 
f 22//22 8//8 21//21 
f 22//22 9//9 8//8 
f 23//23 15//15 9//9 
f 12//12 132//132 10//10 
f 10//10 11//11 12//12 
f 18//18 12//12 11//11 
f 16//16 14//14 13//13 
f 132//132 12//12 133//133 
f 18//18 11//11 15//15 
f 133//133 12//12 17//17 
f 12//12 18//18 17//17 
f 29//29 18//18 15//15 
f 23//23 29//29 15//15 
f 14//14 16//16 26//26 
f 26//26 16//16 27//27 
f 30//30 134//134 17//17 
f 134//134 133//133 17//17 
f 30//30 17//17 28//28 
f 17//17 18//18 28//28 
f 29//29 28//28 18//18 
f 42//42 4//4 19//19 
f 42//42 37//37 43//43 
f 19//19 63//63 42//42 
f 64//64 63//63 19//19 
f 21//21 44//44 20//20 
f 21//21 20//20 22//22 
f 20//20 48//48 22//22 
f 41//41 19//19 14//14 
f 23//23 9//9 22//22 
f 24//24 23//23 22//22 
f 24//24 36//36 23//23 
f 25//25 36//36 24//24 
f 49//49 35//35 36//36 
f 36//36 25//25 49//49 
f 14//14 26//26 41//41 
f 33//33 30//30 28//28 
f 31//31 41//41 26//26 
f 31//31 26//26 27//27 
f 32//32 31//31 27//27 
f 32//32 27//27 135//135 
f 33//33 28//28 34//34 
f 34//34 28//28 29//29 
f 23//23 34//34 29//29 
f 32//32 135//135 33//33 
f 73//73 41//41 31//31 
f 32//32 73//73 31//31 
f 32//32 33//33 35//35 
f 33//33 34//34 35//35 
f 36//36 34//34 23//23 
f 32//32 49//49 73//73 
f 35//35 49//49 32//32 
f 34//34 36//36 35//35 
f 63//63 37//37 42//42 
f 37//37 69//69 39//39 
f 69//69 38//38 39//39 
f 39//39 38//38 40//40 
f 19//19 41//41 139//139 
f 139//139 41//41 65//65 
f 43//43 37//37 39//39 
f 44//44 43//43 39//39 
f 44//44 39//39 40//40 
f 44//44 40//40 45//45 
f 20//20 44//44 45//45 
f 20//20 45//45 48//48 
f 48//48 45//45 46//46 
f 48//48 46//46 25//25 
f 45//45 72//72 46//46 
f 72//72 47//47 46//46 
f 74//74 49//49 47//47 
f 47//47 49//49 25//25 
f 46//46 47//47 25//25 
f 40//40 72//72 45//45 
f 74//74 73//73 49//49 
f 48//48 25//25 24//24 
f 48//48 24//24 22//22 
f 114//114 52//52 51//51 
f 122//122 114//114 51//51 
f 112//112 50//50 115//115 
f 112//112 120//120 50//50 
f 50//50 120//120 54//54 
f 122//122 51//51 53//53 
f 53//53 51//51 52//52 
f 122//122 53//53 55//55 
f 123//123 165//165 137//137 
f 50//50 58//58 56//56 
f 50//50 56//56 136//136 
f 56//56 57//57 52//52 
f 53//53 52//52 57//57 
f 115//115 50//50 136//136 
f 50//50 54//54 58//58 
f 57//57 56//56 63//63 
f 54//54 59//59 58//58 
f 54//54 60//60 59//59 
f 61//61 59//59 60//60 
f 125//125 60//60 54//54 
f 60//60 125//125 126//126 
f 126//126 61//61 60//60 
f 55//55 53//53 66//66 
f 62//62 138//138 141//141 
f 56//56 58//58 37//37 
f 63//63 56//56 37//37 
f 57//57 63//63 64//64 
f 57//57 64//64 66//66 
f 53//53 57//57 66//66 
f 65//65 141//141 139//139 
f 62//62 141//141 65//65 
f 67//67 62//62 140//140 
f 37//37 58//58 69//69 
f 59//59 69//69 58//58 
f 59//59 38//38 69//69 
f 59//59 70//70 38//38 
f 38//38 70//70 40//40 
f 70//70 72//72 40//40 
f 41//41 73//73 140//140 
f 47//47 72//72 74//74 
f 73//73 67//67 140//140 
f 59//59 61//61 70//70 
f 61//61 71//71 70//70 
f 72//72 70//70 71//71 
f 71//71 74//74 72//72 
f 61//61 68//68 71//71 
f 74//74 143//143 142//142 
f 73//73 74//74 142//142 
f 143//143 68//68 142//142 
f 75//75 78//78 76//76 
f 78//78 93//93 76//76 
f 77//77 81//81 144//144 
f 145//145 147//147 148//148 
f 147//147 94//94 148//148 
f 149//149 146//146 79//79 
f 149//149 79//79 80//80 
f 149//149 80//80 93//93 
f 79//79 146//146 150//150 
f 81//81 77//77 85//85 
f 148//148 94//94 101//101 
f 79//79 84//84 82//82 
f 82//82 83//83 79//79 
f 79//79 83//83 80//80 
f 83//83 95//95 80//80 
f 80//80 95//95 93//93 
f 84//84 79//79 150//150 
f 154//154 148//148 86//86 
f 101//101 86//86 148//148 
f 82//82 87//87 83//83 
f 83//83 87//87 95//95 
f 90//90 152//152 151//151 
f 90//90 151//151 155//155 
f 91//91 158//158 156//156 
f 91//91 156//156 157//157 
f 86//86 101//101 113//113 
f 82//82 153//153 88//88 
f 87//87 82//82 88//88 
f 89//89 87//87 88//88 
f 159//159 92//92 88//88 
f 153//153 159//159 88//88 
f 92//92 158//158 91//91 
f 91//91 157//157 162//162 
f 89//89 88//88 92//92 
f 76//76 93//93 98//98 
f 147//147 160//160 94//94 
f 95//95 100//100 93//93 
f 89//89 96//96 87//87 
f 87//87 96//96 95//95 
f 96//96 103//103 95//95 
f 97//97 91//91 105//105 
f 105//105 91//91 162//162 
f 96//96 89//89 92//92 
f 92//92 91//91 97//97 
f 92//92 97//97 96//96 
f 97//97 105//105 104//104 
f 104//104 96//96 97//97 
f 93//93 106//106 98//98 
f 93//93 107//107 106//106 
f 160//160 99//99 94//94 
f 107//107 93//93 100//100 
f 161//161 101//101 94//94 
f 95//95 102//102 100//100 
f 103//103 102//102 95//95 
f 103//103 96//96 104//104 
f 114//114 98//98 106//106 
f 107//107 112//112 115//115 
f 107//107 115//115 106//106 
f 163//163 99//99 160//160 
f 100//100 108//108 107//107 
f 108//108 112//112 107//107 
f 109//109 112//112 108//108 
f 100//100 102//102 108//108 
f 102//102 109//109 108//108 
f 103//103 110//110 102//102 
f 110//110 109//109 102//102 
f 110//110 121//121 109//109 
f 104//104 111//111 103//103 
f 111//111 110//110 103//103 
f 111//111 104//104 105//105 
f 118//118 110//110 111//111 
f 101//101 99//99 113//113 
f 113//113 99//99 116//116 
f 119//119 105//105 162//162 
f 106//106 52//52 114//114 
f 106//106 115//115 136//136 
f 116//116 99//99 163//163 
f 162//162 164//164 119//119 
f 111//111 105//105 117//117 
f 116//116 163//163 165//165 
f 110//110 118//118 121//121 
f 119//119 164//164 127//127 
f 111//111 117//117 118//118 
f 118//118 117//117 124//124 
f 117//117 105//105 119//119 
f 117//117 119//119 124//124 
f 127//127 124//124 119//119 
f 116//116 165//165 123//123 
f 127//127 164//164 166//166 
f 120//120 112//112 109//109 
f 109//109 121//121 120//120 
f 118//118 124//124 121//121 
f 127//127 166//166 138//138 
f 138//138 62//62 127//127 
f 125//125 54//54 120//120 
f 120//120 121//121 125//125 
f 127//127 62//62 67//67 
f 126//126 121//121 124//124 
f 126//126 125//125 121//121 
f 126//126 124//124 127//127 
f 61//61 126//126 68//68 
f 68//68 126//126 127//127 
f 127//127 142//142 68//68 
