#
# The license for this database is specified in the Creative Commons Attribution-Share Alike 2.1 Japan. If you use data from this database, please be sure attribute this database as follows: "BodyParts3D, (c)  The Database Center for Life Science licensed under CC Attribution-Share Alike 2.1 Japan".
# http://dbarchive.biosciencedbc.jp/en/bodyparts3d/lic.html
#
#
# Compatibility version : 4.0
# File ID : FJ2463
# Representation ID : BP9676
# Build-up logic : FMA 3.0 part_of
# Concept ID : FMA68223
# English name : Left apical segmental bronchial tree
# Bounds(mm): (36.603000,-94.032600,1342.680100)-(40.125300,-82.886000,1350.590000)
# Volume(cm3): 0.042500
#
v 37.3582 -91.9589 1343.23
v 37.3412 -93.2505 1343.19
v 37.6466 -92.1334 1342.68
v 37.6711 -91.6963 1342.93
v 37.3242 -92.9432 1344.17
v 38.3799 -91.6619 1342.77
v 38.1644 -93.5973 1343.51
v 38.0746 -93.9372 1343.79
v 37.1863 -90.5243 1345.18
v 37.8549 -90.0727 1345.24
v 37.1226 -88.1501 1347.34
v 37.9051 -88.3614 1347.02
v 37.8439 -87.2193 1347.74
v 36.603 -90.0315 1346.96
v 36.8304 -90.501 1347.83
v 37.5807 -85.3515 1348.92
v 37.9001 -85.743 1348.45
v 37.8175 -84.6219 1349.81
v 36.6679 -87.6766 1348.41
v 37.031 -86.3816 1349.53
v 37.281 -86.9984 1349.93
v 36.726 -88.768 1348.89
v 39.2109 -91.2761 1343.05
v 39.0361 -93.7388 1343.79
v 39.7714 -91.7938 1343.06
v 39.9265 -91.9967 1344.17
v 39.7284 -93.1313 1344.31
v 40.0371 -93.0836 1343.84
v 39.927 -92.819 1344.27
v 38.4056 -93.9277 1343.78
v 38.6464 -94.0326 1343.95
v 38.9164 -90.1825 1345.58
v 39.2382 -90.4428 1346.27
v 38.4705 -88.5182 1347.21
v 38.3923 -87.4743 1347.85
v 38.8151 -87.6172 1348.46
v 38.9996 -89.4931 1347.52
v 37.9981 -91.8096 1347.19
v 38.8174 -91.0104 1347.48
v 39.0371 -83.5073 1349.19
v 39.0036 -82.886 1349.86
v 39.4304 -83.0965 1349.34
v 39.3745 -83.5662 1349.13
v 39.0924 -83.2139 1350.55
v 37.7553 -85.2047 1350.16
v 39.0312 -84.9168 1348.86
v 38.6307 -84.4067 1350.54
v 39.2399 -85.234 1349.08
v 39.9568 -83.7768 1349.41
v 39.6279 -83.8998 1350.59
v 40.1253 -83.7048 1350.26
v 37.889 -86.9755 1350.13
v 37.9364 -85.9981 1350.32
v 38.6582 -86.1644 1348.52
v 38.3127 -87.8358 1349.7
v 38.7786 -87.399 1349.38
v 38.8577 -86.2296 1350
v 39.1453 -86.0267 1349.42
v 37.4999 -89.1993 1349.24
v 37.3412 -93.2505 1343.19
v 37.6466 -92.1334 1342.68
v 37.6466 -92.1334 1342.68
v 38.3799 -91.6619 1342.77
v 38.3799 -91.6619 1342.77
v 38.0746 -93.9372 1343.79
v 36.8304 -90.501 1347.83
v 36.6679 -87.6766 1348.41
v 36.726 -88.768 1348.89
v 39.2109 -91.2761 1343.05
v 39.0361 -93.7388 1343.79
v 39.7714 -91.7938 1343.06
v 39.7714 -91.7938 1343.06
v 40.0371 -93.0836 1343.84
v 40.0371 -93.0836 1343.84
v 39.927 -92.819 1344.27
v 38.6464 -94.0326 1343.95
v 38.6464 -94.0326 1343.95
v 38.6464 -94.0326 1343.95
v 39.2382 -90.4428 1346.27
v 38.4705 -88.5182 1347.21
v 38.3923 -87.4743 1347.85
v 38.8151 -87.6172 1348.46
v 38.9996 -89.4931 1347.52
v 37.9981 -91.8096 1347.19
v 39.0036 -82.886 1349.86
v 39.0036 -82.886 1349.86
v 39.4304 -83.0965 1349.34
v 39.4304 -83.0965 1349.34
v 39.0924 -83.2139 1350.55
v 39.0924 -83.2139 1350.55
v 39.0924 -83.2139 1350.55
v 38.6307 -84.4067 1350.54
v 39.9568 -83.7768 1349.41
v 39.6279 -83.8998 1350.59
v 40.1253 -83.7048 1350.26
v 40.1253 -83.7048 1350.26
v 38.6582 -86.1644 1348.52
vn -0.873445 0.263225 -0.409642
vn -0.963308 -0.244279 -0.111199
vn -0.845469 0.187518 -0.500019
vn -0.51502 0.610922 -0.601273
vn -0.805811 -0.543449 0.235228
vn -0.193434 0.720086 -0.666378
vn 0.114836 -0.538098 -0.835023
vn -0.580236 -0.724318 0.372409
vn -0.686786 0.536439 -0.490467
vn -0.113486 0.791341 -0.600749
vn -0.489801 0.516434 -0.702418
vn 0.204234 0.627979 -0.750953
vn 0.159856 0.460919 -0.872926
vn -0.989147 0.0380844 -0.141907
vn -0.963542 -0.237101 0.12398
vn -0.741263 0.49654 -0.451638
vn -0.0529614 0.379557 -0.923651
vn -0.862442 0.467682 0.193567
vn -0.83848 0.380688 -0.389909
vn -0.934817 0.227966 0.272303
vn -0.575178 -0.114894 0.80992
vn -0.966601 -0.0377696 0.253486
vn 0.248139 0.874413 -0.416928
vn 0.236131 -0.471209 -0.849826
vn 0.218097 0.217735 -0.951328
vn 0.980516 0.130844 0.146519
vn 0.613376 -0.664664 0.426605
vn 0.668068 -0.642745 0.374919
vn 0.766897 -0.42399 0.481769
vn 0.097839 -0.683188 -0.723659
vn 0.111467 -0.772217 -0.625505
vn 0.567469 0.722525 -0.394888
vn 0.859427 0.491493 -0.140785
vn 0.400827 0.601306 -0.691208
vn 0.375859 0.46207 -0.803257
vn 0.840057 0.184807 -0.510049
vn 0.981552 -0.0525531 0.183831
vn -0.467532 -0.717776 0.515956
vn 0.776996 -0.326807 0.538028
vn -0.357949 0.514674 -0.779092
vn -0.632977 0.60363 -0.484738
vn -0.26991 0.54876 -0.791209
vn 0.214684 0.26332 -0.940518
vn -0.712418 0.387379 0.585148
vn -0.676092 0.199238 0.709368
vn 0.459352 0.0510245 -0.886788
vn -0.497368 0.138871 0.856353
vn 0.769017 -0.185602 -0.61169
vn 0.784188 0.585658 -0.20507
vn 0.409396 0.368203 0.834759
vn 0.631035 0.771114 0.0847235
vn 0.0583733 -0.293753 0.954097
vn -0.250957 -0.0835871 0.964382
vn 0.287697 0.327062 -0.900145
vn 0.476907 -0.383026 0.791107
vn 0.917562 -0.212527 0.336023
vn 0.670798 -0.364338 0.645978
vn 0.953791 -0.272263 -0.127104
vn -0.138546 -0.483964 0.864051
vn 0.0990607 -0.544621 -0.832812
vn 0.231473 -0.403349 -0.885285
vn -0.215222 0.497268 -0.840478
vn 0.218097 0.217735 -0.951328
vn 0.238103 -0.366065 -0.899613
vn 0.0101786 -0.713723 -0.700354
vn -0.495126 -0.611909 0.61678
vn -0.986657 0.0193747 0.161657
vn -0.544828 -0.38132 0.746831
vn 0.218097 0.217735 -0.951328
vn 0.57367 -0.800759 0.172302
vn 0.24061 -0.419472 -0.8753
vn 0.858201 0.495681 -0.133385
vn 0.328564 -0.438222 -0.836664
vn 0.994699 0.082425 0.0614872
vn 0.962062 0.0317515 0.270975
vn -0.277547 -0.817406 0.504793
vn 0.621427 -0.779057 0.0830575
vn 0.405828 -0.714006 0.570525
vn 0.951727 -0.0694361 0.29899
vn 0.871784 0.406405 -0.273546
vn 0.834339 0.254486 -0.488993
vn 0.994467 -0.0864853 0.0596314
vn 0.85897 0.363111 -0.360998
vn 0.380902 -0.656492 0.651101
vn -0.778623 0.521997 0.348231
vn 0.520484 0.823426 0.225976
vn 0.688923 0.723622 -0.0418987
vn 0.49799 0.301587 -0.813051
vn 0.478904 0.8152 0.325731
vn 0.409396 0.368203 0.834759
vn -0.0566599 0.0138615 0.998297
vn -0.0154098 -0.0672259 0.997619
vn 0.726961 -0.0860647 -0.681264
vn 0.218575 -0.220114 0.950671
vn 0.409396 0.368203 0.834759
vn 0.860593 -0.419803 0.288347
vn 0.831321 -0.0186926 -0.555479
g grp1
usemtl mtl1
f 10//10 6//6 4//4 
f 10//10 4//4 9//9 
f 6//6 10//10 23//23 
f 63//63 69//69 25//25 
f 71//71 24//24 64//64 
f 3//3 1//1 4//4 
f 3//3 2//2 1//1 
f 2//2 8//8 5//5 
f 2//2 5//5 14//14 
f 7//7 60//60 61//61 
f 60//60 7//7 65//65 
f 6//6 62//62 4//4 
f 24//24 7//7 61//61 
f 64//64 24//24 61//61 
f 24//24 30//30 7//7 
f 7//7 30//30 65//65 
f 65//65 30//30 31//31 
f 10//10 9//9 11//11 
f 9//9 14//14 11//11 
f 32//32 10//10 12//12 
f 32//32 23//23 10//10 
f 4//4 1//1 9//9 
f 1//1 14//14 9//9 
f 2//2 14//14 1//1 
f 14//14 5//5 15//15 
f 38//38 5//5 8//8 
f 38//38 66//66 5//5 
f 76//76 38//38 8//8 
f 11//11 17//17 13//13 
f 12//12 11//11 13//13 
f 13//13 35//35 12//12 
f 17//17 54//54 13//13 
f 14//14 19//19 11//11 
f 22//22 14//14 15//15 
f 12//12 10//10 11//11 
f 68//68 66//66 59//59 
f 32//32 12//12 34//34 
f 59//59 66//66 38//38 
f 20//20 45//45 18//18 
f 16//16 11//11 19//19 
f 20//20 16//16 19//19 
f 16//16 17//17 11//11 
f 20//20 18//18 16//16 
f 67//67 22//22 20//20 
f 22//22 21//21 20//20 
f 59//59 21//21 68//68 
f 20//20 21//21 45//45 
f 21//21 53//53 45//45 
f 53//53 21//21 52//52 
f 52//52 21//21 59//59 
f 22//22 67//67 14//14 
f 70//70 28//28 27//27 
f 77//77 70//70 27//27 
f 72//72 33//33 26//26 
f 24//24 71//71 73//73 
f 29//29 27//27 28//28 
f 72//72 26//26 74//74 
f 26//26 75//75 74//74 
f 30//30 24//24 31//31 
f 72//72 23//23 32//32 
f 33//33 72//72 32//32 
f 32//32 80//80 33//33 
f 79//79 37//37 39//39 
f 33//33 80//80 83//83 
f 26//26 79//79 39//39 
f 26//26 39//39 75//75 
f 29//29 39//39 27//27 
f 34//34 12//12 35//35 
f 54//54 35//35 13//13 
f 81//81 83//83 80//80 
f 36//36 83//83 81//81 
f 97//97 36//36 81//81 
f 27//27 84//84 78//78 
f 39//39 59//59 84//84 
f 27//27 39//39 84//84 
f 16//16 41//41 40//40 
f 41//41 16//16 18//18 
f 85//85 18//18 44//44 
f 44//44 18//18 45//45 
f 40//40 42//42 43//43 
f 41//41 42//42 40//40 
f 51//51 86//86 89//89 
f 51//51 49//49 87//87 
f 88//88 93//93 43//43 
f 51//51 87//87 86//86 
f 90//90 50//50 95//95 
f 40//40 17//17 16//16 
f 17//17 46//46 54//54 
f 47//47 45//45 53//53 
f 48//48 46//46 93//93 
f 97//97 46//46 48//48 
f 17//17 43//43 46//46 
f 43//43 17//17 40//40 
f 94//94 92//92 53//53 
f 43//43 93//93 46//46 
f 48//48 93//93 58//58 
f 97//97 48//48 58//58 
f 53//53 52//52 94//94 
f 58//58 96//96 57//57 
f 52//52 57//57 94//94 
f 93//93 96//96 58//58 
f 96//96 94//94 57//57 
f 55//55 52//52 59//59 
f 82//82 56//56 37//37 
f 37//37 56//56 39//39 
f 39//39 56//56 55//55 
f 97//97 58//58 36//36 
f 82//82 58//58 56//56 
f 58//58 57//57 56//56 
f 56//56 57//57 55//55 
f 52//52 55//55 57//57 
f 39//39 55//55 59//59 
f 44//44 45//45 47//47 
f 94//94 91//91 92//92 
