#
# The license for this database is specified in the Creative Commons Attribution-Share Alike 2.1 Japan. If you use data from this database, please be sure attribute this database as follows: "BodyParts3D, (c)  The Database Center for Life Science licensed under CC Attribution-Share Alike 2.1 Japan".
# http://dbarchive.biosciencedbc.jp/en/bodyparts3d/lic.html
#
#
# Compatibility version : 4.0
# File ID : FJ2485
# Representation ID : BP9761
# Build-up logic : FMA 3.0 part_of
# Concept ID : FMA68228
# English name : Left superior segmental bronchial tree
# Bounds(mm): (47.736600,-38.520900,1278.360000)-(55.052000,-35.460400,1291.200000)
# Volume(cm3): 0.067300
#
v 47.7533 -36.9598 1279.09
v 47.7366 -37.1884 1278.64
v 47.8667 -37.4415 1279.14
v 48.0055 -37.5613 1278.57
v 48.421 -35.4604 1278.78
v 48.5169 -35.9195 1278.6
v 48.8193 -38.5209 1279.06
v 48.3355 -36.9097 1282.36
v 50.3546 -38.2684 1278.36
v 50.8345 -36.2445 1278.39
v 50.9508 -36.0923 1278.69
v 51.061 -37.4482 1278.73
v 51.4897 -37.3532 1282.76
v 49.7036 -38.0057 1285.25
v 51.044 -38.365 1285.62
v 49.9014 -35.7747 1285.39
v 51.1258 -35.6457 1284.58
v 50.8526 -37.0017 1287.77
v 51.8172 -37.9742 1288.23
v 52.191 -37.6511 1289.13
v 53.9469 -37.8088 1290.4
v 53.4733 -37.2696 1290.67
v 53.7491 -36.5276 1290.69
v 53.9418 -37.1008 1291.2
v 54.3167 -36.3098 1290.83
v 54.2952 -36.5268 1291.06
v 54.2796 -37.1803 1291.07
v 54.1955 -37.6597 1291.01
v 54.9387 -37.4145 1290.17
v 54.9746 -36.7446 1290.15
v 55.052 -37.2811 1290.43
v 54.4883 -37.7967 1290.65
v 47.7533 -36.9598 1279.09
v 47.7366 -37.1884 1278.64
v 47.7366 -37.1884 1278.64
v 48.0055 -37.5613 1278.57
v 48.0055 -37.5613 1278.57
v 48.421 -35.4604 1278.78
v 48.421 -35.4604 1278.78
v 48.8193 -38.5209 1279.06
v 48.8193 -38.5209 1279.06
v 48.3355 -36.9097 1282.36
v 50.3546 -38.2684 1278.36
v 50.3546 -38.2684 1278.36
v 50.3546 -38.2684 1278.36
v 50.3546 -38.2684 1278.36
v 50.8345 -36.2445 1278.39
v 50.8345 -36.2445 1278.39
v 50.8345 -36.2445 1278.39
v 50.9508 -36.0923 1278.69
v 51.061 -37.4482 1278.73
v 51.061 -37.4482 1278.73
v 51.4897 -37.3532 1282.76
v 51.4897 -37.3532 1282.76
v 49.7036 -38.0057 1285.25
v 49.7036 -38.0057 1285.25
v 51.044 -38.365 1285.62
v 49.9014 -35.7747 1285.39
v 49.9014 -35.7747 1285.39
v 51.1258 -35.6457 1284.58
v 53.9418 -37.1008 1291.2
v 54.3167 -36.3098 1290.83
v 54.3167 -36.3098 1290.83
v 54.3167 -36.3098 1290.83
v 54.2952 -36.5268 1291.06
v 54.2952 -36.5268 1291.06
v 54.1955 -37.6597 1291.01
v 54.9387 -37.4145 1290.17
v 54.9746 -36.7446 1290.15
v 54.9746 -36.7446 1290.15
v 55.052 -37.2811 1290.43
v 55.052 -37.2811 1290.43
v 55.052 -37.2811 1290.43
v 54.4883 -37.7967 1290.65
v 54.4883 -37.7967 1290.65
vn -0.913652 0.406494 -0.00173967
vn -0.307377 0.159433 -0.938136
vn -0.869866 -0.483796 0.0963031
vn -0.78437 -0.617304 -0.0608238
vn -0.244498 0.3093 -0.918996
vn -0.184972 0.183347 -0.965489
vn -0.746237 -0.663131 0.0581996
vn -0.907677 0.281321 0.311417
vn -0.0789642 0.0335064 -0.996314
vn -0.0665234 0.147302 -0.986852
vn 0.221231 0.928301 -0.298854
vn 0.568573 -0.122749 -0.813423
vn 0.665118 -0.73048 -0.154976
vn -0.789715 -0.5854 0.183457
vn -0.121242 -0.983999 0.130558
vn -0.879108 0.349739 0.323809
vn 0.845351 0.502613 -0.181004
vn -0.813247 -0.0223335 0.58149
vn -0.451831 -0.803817 0.386945
vn -0.643408 -0.507214 0.573376
vn -0.129942 -0.964079 0.231659
vn -0.676649 -0.311451 0.667192
vn -0.543761 0.587198 0.599602
vn -0.679387 0.078951 0.72952
vn -0.415616 0.750744 0.513466
vn -0.456138 0.585707 0.66999
vn 0.49162 -0.0947504 0.86564
vn -0.410885 -0.76814 0.491055
vn 0.555251 -0.821293 -0.131053
vn 0.915737 -0.0609423 -0.397129
vn 0.633753 -0.206048 0.745588
vn -0.0764593 -0.974814 0.209504
vn -0.964695 -0.210219 0.158654
vn -0.914066 0.37462 -0.15538
vn -0.914473 -0.403255 0.0335205
vn -0.108301 0.0487915 -0.99292
vn -0.248422 -0.59934 -0.760972
vn -0.884442 0.461541 0.0688598
vn 0.127648 0.975149 -0.181081
vn -0.0706022 -0.996366 0.047653
vn -0.248422 -0.59934 -0.760972
vn -0.912342 -0.361358 0.19249
vn -0.248422 -0.59934 -0.760972
vn 0.150042 -0.9883 -0.0274097
vn 0.568573 -0.122749 -0.813423
vn 0.773128 -0.62895 -0.0818266
vn 0.192646 0.842885 -0.502427
vn 0.568573 -0.122749 -0.813423
vn 0.919255 0.0632376 -0.388549
vn 0.973754 0.0727723 -0.215656
vn 0.796684 -0.599364 -0.0778297
vn 0.971096 0.15591 -0.180732
vn 0.854381 0.453158 -0.254325
vn 0.904719 -0.0610833 -0.421607
vn -0.838539 -0.252366 0.48287
vn -0.299088 -0.938045 0.174978
vn 0.651215 -0.742478 -0.15699
vn -0.0450875 0.994895 0.0902871
vn -0.532554 0.693493 0.485235
vn 0.0502172 0.998168 0.0337622
vn 0.344858 -0.0837247 0.934913
vn -0.0260136 0.992583 0.118749
vn 0.782066 0.392869 0.483763
vn 0.446373 0.884775 -0.13388
vn 0.506574 -0.00132145 0.862196
vn 0.789067 0.408413 0.458881
vn 0.531379 -0.26339 0.805147
vn 0.915737 -0.0609423 -0.397129
vn 0.604219 0.749835 -0.26957
vn 0.774354 0.376968 0.508204
vn 0.926096 -0.0607573 -0.372364
vn 0.688112 -0.722155 0.0706696
vn 0.782066 0.392869 0.483763
vn 0.593265 -0.800917 -0.0810487
vn 0.628575 -0.403568 0.664851
g grp1
usemtl mtl1
f 5//5 10//10 6//6 
f 6//6 2//2 5//5 
f 34//34 1//1 38//38 
f 1//1 8//8 38//38 
f 4//4 3//3 35//35 
f 33//33 35//35 3//3 
f 4//4 7//7 3//3 
f 7//7 14//14 3//3 
f 6//6 36//36 2//2 
f 42//42 33//33 3//3 
f 3//3 14//14 42//42 
f 10//10 36//36 6//6 
f 16//16 38//38 8//8 
f 55//55 18//18 8//8 
f 8//8 18//18 16//16 
f 15//15 56//56 40//40 
f 39//39 11//11 47//47 
f 36//36 10//10 9//9 
f 43//43 41//41 37//37 
f 44//44 15//15 40//40 
f 45//45 48//48 12//12 
f 51//51 13//13 57//57 
f 51//51 57//57 46//46 
f 50//50 52//52 49//49 
f 52//52 50//50 17//17 
f 11//11 39//39 60//60 
f 17//17 53//53 52//52 
f 39//39 58//58 60//60 
f 56//56 15//15 19//19 
f 55//55 19//19 18//18 
f 18//18 19//19 20//20 
f 15//15 21//21 19//19 
f 32//32 21//21 15//15 
f 20//20 19//19 28//28 
f 20//20 28//28 22//22 
f 20//20 22//22 18//18 
f 21//21 28//28 19//19 
f 29//29 74//74 57//57 
f 23//23 59//59 18//18 
f 29//29 57//57 13//13 
f 31//31 67//67 75//75 
f 32//32 28//28 21//21 
f 59//59 23//23 25//25 
f 24//24 22//22 28//28 
f 23//23 18//18 24//24 
f 18//18 22//22 24//24 
f 25//25 23//23 26//26 
f 23//23 24//24 26//26 
f 65//65 61//61 27//27 
f 67//67 27//27 61//61 
f 58//58 62//62 60//60 
f 65//65 27//27 31//31 
f 31//31 27//27 67//67 
f 30//30 68//68 54//54 
f 53//53 17//17 69//69 
f 68//68 30//30 71//71 
f 29//29 72//72 74//74 
f 73//73 63//63 66//66 
f 69//69 17//17 64//64 
f 70//70 63//63 73//73 
