#
# The license for this database is specified in the Creative Commons Attribution-Share Alike 2.1 Japan. If you use data from this database, please be sure attribute this database as follows: "BodyParts3D, (c)  The Database Center for Life Science licensed under CC Attribution-Share Alike 2.1 Japan".
# http://dbarchive.biosciencedbc.jp/en/bodyparts3d/lic.html
#
#
# Compatibility version : 4.0
# File ID : FJ2469
# Representation ID : BP9474
# Build-up logic : FMA 3.0 part_of
# Concept ID : FMA68222
# English name : Left anterior segmental bronchial tree
# Bounds(mm): (76.590700,-124.808000,1262.050100)-(92.260400,-110.821000,1278.939900)
# Volume(cm3): 0.354900
#
v 76.9873 -111.537 1276.27
v 76.897 -112.471 1276.03
v 76.7853 -112.468 1276.5
v 77.2481 -111.922 1275.93
v 76.5907 -113.444 1276.8
v 77.63 -111.661 1275.96
v 78.0395 -112.613 1275.3
v 77.7905 -112.862 1275.42
v 78.3423 -110.821 1277.51
v 78.2285 -110.891 1277.79
v 78.1529 -113.006 1278.94
v 79.0815 -111.379 1277.88
v 78.5815 -111.836 1278.89
v 79.0835 -112.72 1278.62
v 77.0087 -113.561 1276.36
v 77.3302 -113.973 1276.54
v 76.9316 -114.009 1277.36
v 77.1285 -113.721 1277.77
v 77.9607 -114.391 1277.1
v 77.799 -113.801 1278.63
v 78.685 -113.652 1278.48
v 80.9081 -114.683 1273.48
v 82.0443 -112.602 1275.29
v 82.9892 -113.984 1272.36
v 82.1883 -116.076 1273.37
v 83.1419 -116.566 1273.75
v 86.1736 -115.765 1270
v 86.4028 -115.256 1272.28
v 84.147 -116.445 1270.83
v 84.2545 -114.343 1274.6
v 84.8762 -117.503 1272.59
v 83.785 -115.464 1274.94
v 88.5752 -117.485 1269.41
v 86.9988 -116.751 1272.06
v 89.0237 -120.519 1268.33
v 90.8243 -124.508 1263.01
v 91.4001 -123.808 1262.05
v 91.3726 -122.822 1263.24
v 91.3778 -124.808 1262.93
v 91.3728 -124.695 1263.29
v 91.6146 -124.301 1263.62
v 92.2604 -124.179 1262.86
v 92.0716 -124.486 1263.02
v 91.8884 -123.851 1263.56
v 76.9873 -111.537 1276.27
v 76.9873 -111.537 1276.27
v 76.9873 -111.537 1276.27
v 76.9873 -111.537 1276.27
v 76.897 -112.471 1276.03
v 76.7853 -112.468 1276.5
v 76.5907 -113.444 1276.8
v 76.5907 -113.444 1276.8
v 77.63 -111.661 1275.96
v 78.3423 -110.821 1277.51
v 78.3423 -110.821 1277.51
v 78.2285 -110.891 1277.79
v 78.2285 -110.891 1277.79
v 78.1529 -113.006 1278.94
v 78.5815 -111.836 1278.89
v 76.9316 -114.009 1277.36
v 77.799 -113.801 1278.63
v 82.0443 -112.602 1275.29
v 82.9892 -113.984 1272.36
v 86.1736 -115.765 1270
v 86.4028 -115.256 1272.28
v 86.4028 -115.256 1272.28
v 84.147 -116.445 1270.83
v 84.147 -116.445 1270.83
v 84.8762 -117.503 1272.59
v 84.8762 -117.503 1272.59
v 88.5752 -117.485 1269.41
v 88.5752 -117.485 1269.41
v 89.0237 -120.519 1268.33
v 90.8243 -124.508 1263.01
v 90.8243 -124.508 1263.01
v 90.8243 -124.508 1263.01
v 91.4001 -123.808 1262.05
v 91.4001 -123.808 1262.05
v 91.4001 -123.808 1262.05
v 91.4001 -123.808 1262.05
v 91.4001 -123.808 1262.05
v 91.3726 -122.822 1263.24
v 91.3778 -124.808 1262.93
v 91.3778 -124.808 1262.93
v 91.3778 -124.808 1262.93
v 91.3728 -124.695 1263.29
v 92.2604 -124.179 1262.86
v 92.2604 -124.179 1262.86
v 92.0716 -124.486 1263.02
vn -0.463059 0.389495 -0.79616
vn -0.62717 -0.0555852 -0.776896
vn -0.962911 0.135801 -0.233154
vn -0.439343 0.356462 -0.824568
vn -0.838963 0.182406 0.512707
vn -0.00219244 0.880018 -0.474935
vn -0.493031 0.149052 -0.857149
vn -0.561971 -0.0393431 -0.826221
vn 0.0738473 0.895826 -0.438227
vn -0.483084 0.875285 0.0224787
vn -0.798169 0.26551 0.540769
vn 0.534233 0.728171 0.429374
vn -0.795917 0.310484 0.519728
vn 0.500897 -0.124174 0.856553
vn -0.65221 -0.480602 -0.586211
vn -0.597277 -0.674555 -0.433861
vn -0.462485 -0.883887 -0.0696495
vn -0.828201 0.0114257 0.560315
vn -0.305089 -0.938971 0.158917
vn -0.790572 -0.0890828 0.605855
vn 0.33538 -0.445394 0.830147
vn -0.618622 -0.261415 -0.740924
vn 0.607366 0.725744 0.323113
vn -0.445481 0.296639 -0.84472
vn -0.532642 -0.810954 -0.24217
vn -0.185321 -0.921244 0.342003
vn -0.457174 0.382554 -0.802898
vn 0.455038 0.858259 -0.237344
vn -0.676881 -0.68934 -0.258151
vn 0.695599 0.320532 0.642963
vn -0.603768 -0.790687 -0.101377
vn 0.383292 -0.502129 0.775212
vn 0.485369 0.799267 -0.354387
vn 0.760058 -0.0211286 0.649511
vn 0.269619 -0.654591 0.706269
vn -0.788974 -0.613015 -0.041621
vn -0.463722 0.45191 -0.762062
vn 0.33065 0.768347 -0.548008
vn -0.420952 -0.593938 -0.685593
vn -0.440308 -0.847468 0.296525
vn 0.528818 -0.543608 0.6518
vn 0.759386 0.579978 -0.294886
vn 0.618501 -0.576878 0.533543
vn 0.798853 -0.183869 0.572736
vn -0.960628 0.151832 -0.232681
vn -0.0512412 0.888087 -0.456811
vn -0.798314 0.306768 0.518255
vn -0.483084 0.875285 0.0224787
vn -0.962911 0.135801 -0.233154
vn -0.799255 0.309237 0.515329
vn -0.96494 0.119735 -0.233567
vn -0.678495 -0.561747 -0.473376
vn -0.299575 0.519566 -0.800191
vn -0.483084 0.875285 0.0224787
vn 0.477321 0.828106 0.293947
vn 0.404062 0.792505 0.456803
vn -0.796875 0.307589 0.51998
vn 0.328059 -0.279897 0.902239
vn 0.546848 0.356345 0.757612
vn -0.832249 -0.174472 0.526233
vn 0.0438138 -0.794399 0.605814
vn 0.285679 0.905424 -0.313998
vn 0.17473 0.899678 -0.400061
vn 0.36963 0.844049 -0.388529
vn 0.645925 0.690099 0.326412
vn 0.812333 0.246833 0.528384
vn -0.480453 0.341819 -0.807666
vn -0.811656 -0.117149 -0.572268
vn 0.144951 -0.717337 0.681481
vn -0.450417 -0.83053 0.327636
vn 0.86736 0.0484451 0.495318
vn 0.814542 0.567252 -0.12144
vn 0.800822 -0.1548 0.578551
vn -0.811656 -0.117149 -0.572268
vn -0.420952 -0.593938 -0.685593
vn -0.440308 -0.847468 0.296525
vn 0.2197 0.754294 -0.618686
vn -0.811656 -0.117149 -0.572268
vn -0.420952 -0.593938 -0.685593
vn 0.678953 0.573398 -0.458517
vn 0.384515 -0.610174 -0.692702
vn 0.759386 0.579978 -0.294886
vn -0.429602 -0.863256 0.265011
vn 0.373439 -0.883581 0.282539
vn 0.375959 -0.616875 -0.691463
vn 0.301098 -0.773785 0.557312
vn 0.393025 -0.603399 -0.693859
vn 0.860977 -0.0877607 0.501016
vn 0.384515 -0.610174 -0.692702
g grp1
usemtl mtl1
f 4//4 7//7 2//2 
f 1//1 4//4 2//2 
f 3//3 45//45 49//49 
f 4//4 24//24 7//7 
f 46//46 9//9 6//6 
f 4//4 53//53 24//24 
f 4//4 1//1 53//53 
f 47//47 50//50 11//11 
f 50//50 5//5 11//11 
f 49//49 51//51 3//3 
f 15//15 16//16 52//52 
f 2//2 15//15 52//52 
f 63//63 6//6 9//9 
f 54//54 48//48 10//10 
f 8//8 2//2 7//7 
f 2//2 8//8 22//22 
f 8//8 7//7 22//22 
f 15//15 2//2 22//22 
f 12//12 55//55 56//56 
f 13//13 57//57 47//47 
f 12//12 56//56 59//59 
f 11//11 13//13 47//47 
f 30//30 23//23 12//12 
f 12//12 59//59 30//30 
f 58//58 14//14 59//59 
f 21//21 14//14 58//58 
f 30//30 59//59 14//14 
f 16//16 15//15 22//22 
f 16//16 17//17 52//52 
f 18//18 5//5 60//60 
f 22//22 25//25 16//16 
f 25//25 17//17 16//16 
f 18//18 11//11 5//5 
f 19//19 17//17 25//25 
f 18//18 60//60 20//20 
f 11//11 18//18 20//20 
f 61//61 17//17 19//19 
f 21//21 58//58 61//61 
f 32//32 21//21 61//61 
f 9//9 62//62 63//63 
f 7//7 24//24 22//22 
f 29//29 25//25 22//22 
f 12//12 23//23 55//55 
f 26//26 19//19 25//25 
f 61//61 19//19 26//26 
f 32//32 14//14 21//21 
f 32//32 30//30 14//14 
f 24//24 67//67 22//22 
f 25//25 31//31 26//26 
f 31//31 25//25 29//29 
f 26//26 32//32 61//61 
f 26//26 69//69 32//32 
f 67//67 27//27 37//37 
f 63//63 62//62 64//64 
f 62//62 28//28 64//64 
f 67//67 24//24 27//27 
f 34//34 30//30 32//32 
f 30//30 65//65 23//23 
f 35//35 32//32 69//69 
f 64//64 33//33 38//38 
f 66//66 30//30 34//34 
f 71//71 66//66 34//34 
f 64//64 28//28 33//33 
f 32//32 35//35 34//34 
f 71//71 34//34 73//73 
f 82//82 72//72 42//42 
f 44//44 71//71 73//73 
f 64//64 38//38 77//77 
f 29//29 36//36 31//31 
f 68//68 78//78 74//74 
f 39//39 75//75 79//79 
f 70//70 76//76 40//40 
f 69//69 86//86 35//35 
f 83//83 40//40 76//76 
f 82//82 42//42 80//80 
f 84//84 43//43 86//86 
f 43//43 41//41 86//86 
f 86//86 41//41 35//35 
f 89//89 81//81 87//87 
f 85//85 81//81 89//89 
f 44//44 41//41 43//43 
f 71//71 44//44 88//88 
f 43//43 88//88 44//44 
f 44//44 73//73 41//41 
