#
# The license for this database is specified in the Creative Commons Attribution-Share Alike 2.1 Japan. If you use data from this database, please be sure attribute this database as follows: "BodyParts3D, (c)  The Database Center for Life Science licensed under CC Attribution-Share Alike 2.1 Japan".
# http://dbarchive.biosciencedbc.jp/en/bodyparts3d/lic.html
#
#
# Compatibility version : 4.0
# File ID : FJ2464
# Representation ID : BP9676
# Build-up logic : FMA 3.0 part_of
# Concept ID : FMA68223
# English name : Left apical segmental bronchial tree
# Bounds(mm): (51.121600,-74.347500,1337.510000)-(54.573100,-66.359700,1341.540000)
# Volume(cm3): 0.020300
#
v 52.0215 -71.4621 1339.2
v 51.1602 -73.1212 1338.87
v 51.1216 -73.4914 1338.97
v 51.904 -72.7502 1337.83
v 51.5192 -73.0776 1337.76
v 51.6426 -72.6481 1338.11
v 51.2733 -73.3341 1339.32
v 52.1042 -73.4814 1337.65
v 51.3539 -73.7839 1339.39
v 51.5772 -73.4767 1339.7
v 53.3036 -70.5299 1338.73
v 53.7488 -69.9862 1338.94
v 54.0612 -72.0303 1339.23
v 54.2985 -69.9632 1339.25
v 52.7257 -73.5893 1337.51
v 53.274 -73.6978 1338.09
v 53.1661 -74.1969 1338.11
v 53.376 -73.8417 1338.4
v 53.0008 -74.3475 1339.26
v 53.3235 -66.6401 1340.36
v 53.4975 -67.1862 1340.01
v 53.8067 -66.4318 1340.14
v 53.493 -66.3633 1340.34
v 53.313 -66.473 1340.96
v 54.138 -66.6437 1340.09
v 54.1505 -66.3597 1340.22
v 53.7364 -66.873 1341.54
v 54.4616 -66.5089 1340.32
v 54.5731 -67.4088 1340.93
v 54.4649 -66.6086 1341.27
v 54.4151 -67.2022 1341.28
v 53.1557 -67.4874 1340.96
v 52.6151 -71.1134 1340.36
v 53.9071 -71.6142 1340.32
v 52.0215 -71.4621 1339.2
v 51.1602 -73.1212 1338.87
v 51.1216 -73.4914 1338.97
v 51.1216 -73.4914 1338.97
v 51.904 -72.7502 1337.83
v 51.5192 -73.0776 1337.76
v 51.5192 -73.0776 1337.76
v 51.5192 -73.0776 1337.76
v 52.1042 -73.4814 1337.65
v 51.3539 -73.7839 1339.39
v 51.3539 -73.7839 1339.39
v 51.5772 -73.4767 1339.7
v 53.3036 -70.5299 1338.73
v 52.7257 -73.5893 1337.51
v 53.1661 -74.1969 1338.11
v 53.1661 -74.1969 1338.11
v 53.376 -73.8417 1338.4
v 53.0008 -74.3475 1339.26
v 53.0008 -74.3475 1339.26
v 53.3235 -66.6401 1340.36
v 53.8067 -66.4318 1340.14
v 53.493 -66.3633 1340.34
v 53.493 -66.3633 1340.34
v 53.493 -66.3633 1340.34
v 53.313 -66.473 1340.96
v 54.1505 -66.3597 1340.22
v 54.1505 -66.3597 1340.22
v 53.7364 -66.873 1341.54
v 53.7364 -66.873 1341.54
v 54.4616 -66.5089 1340.32
v 54.4616 -66.5089 1340.32
v 54.4649 -66.6086 1341.27
v 54.4649 -66.6086 1341.27
v 54.4151 -67.2022 1341.28
v 52.6151 -71.1134 1340.36
v 53.9071 -71.6142 1340.32
vn -0.695777 0.501292 -0.514394
vn -0.904776 0.327448 -0.27232
vn -0.924304 0.0429234 0.379235
vn -0.0308107 0.330348 -0.943356
vn -0.155253 0.113393 -0.981345
vn -0.671183 0.576196 -0.466381
vn -0.869305 0.156571 0.468821
vn -0.23079 -0.0700185 -0.970481
vn -0.84773 -0.0722782 0.525481
vn -0.769509 0.0485449 0.636789
vn -0.55488 0.473722 -0.683882
vn 0.172433 0.304111 -0.936901
vn 0.969969 -0.240658 -0.0352807
vn 0.83108 0.047088 -0.554156
vn 0.254288 0.158389 -0.954071
vn 0.836238 -0.130581 -0.532592
vn -0.346887 -0.862795 -0.36777
vn 0.902566 -0.189613 -0.386551
vn -0.0534299 -0.5185 0.853407
vn -0.908836 0.397476 -0.126609
vn -0.39423 0.332681 -0.856683
vn -0.167393 0.354252 -0.920046
vn -0.847337 0.507566 -0.156194
vn -0.942429 0.282864 0.17837
vn 0.286183 0.339748 -0.895919
vn -0.0851703 0.893994 -0.43991
vn -0.732393 0.0522643 0.678873
vn 0.471865 0.278448 -0.836547
vn 0.981876 -0.075589 0.173796
vn 0.113531 0.951107 0.287238
vn 0.86906 -0.138532 0.474914
vn -0.844567 0.0797938 0.529471
vn -0.822943 0.143547 0.54969
vn 0.0448378 -0.278563 0.959371
vn -0.927812 0.25094 0.276032
vn -0.893791 0.273818 0.355193
vn -0.951773 0.0191629 -0.306203
vn -0.506771 -0.772279 -0.383104
vn -0.45815 0.607981 -0.648427
vn -0.925846 0.243415 -0.289064
vn -0.429883 0.642288 -0.634561
vn -0.566653 -0.704579 -0.427169
vn -0.429989 -0.796955 -0.424232
vn -0.401342 -0.872248 -0.279477
vn -0.160102 -0.640985 0.75067
vn -0.0575486 -0.429609 0.901179
vn 0.0088124 0.364732 -0.931071
vn -0.264731 -0.767888 -0.583323
vn 0.809651 -0.197718 -0.552606
vn 0.841378 -0.538086 0.0504689
vn 0.873755 -0.47573 0.10116
vn -0.331048 -0.928329 -0.169155
vn 0.877869 -0.451325 0.160164
vn -0.548913 0.320634 -0.771938
vn -0.0851703 0.893994 -0.43991
vn -0.0851703 0.893994 -0.43991
vn -0.519422 0.316578 -0.793713
vn 0.0493089 0.977262 0.206224
vn -0.00192044 0.913575 0.406666
vn 0.284462 0.396742 -0.872741
vn 0.224847 0.961087 0.160485
vn -0.0674028 0.797706 0.599268
vn 0.184194 -0.172058 0.967713
vn 0.4058 0.909117 0.0939863
vn 0.994346 0.0685233 -0.0811145
vn 0.971532 0.0303092 0.23496
vn 0.354295 -0.0214296 0.934888
vn 0.306005 -0.127846 0.943407
vn -0.0656278 -0.246617 0.966888
vn 0.90512 -0.265201 0.332305
g grp1
usemtl mtl1
f 1//1 11//11 6//6 
f 1//1 6//6 2//2 
f 36//36 3//3 7//7 
f 3//3 9//9 7//7 
f 4//4 15//15 5//5 
f 15//15 8//8 5//5 
f 2//2 6//6 40//40 
f 6//6 39//39 41//41 
f 40//40 37//37 2//2 
f 42//42 43//43 38//38 
f 43//43 44//44 38//38 
f 7//7 35//35 36//36 
f 33//33 35//35 7//7 
f 33//33 7//7 10//10 
f 7//7 9//9 10//10 
f 46//46 19//19 34//34 
f 46//46 45//45 19//19 
f 69//69 46//46 34//34 
f 4//4 47//47 15//15 
f 11//11 39//39 6//6 
f 47//47 12//12 15//15 
f 14//14 29//29 13//13 
f 13//13 29//29 70//70 
f 17//17 44//44 43//43 
f 48//48 17//17 43//43 
f 17//17 52//52 44//44 
f 16//16 49//49 15//15 
f 12//12 14//14 15//15 
f 15//15 14//14 16//16 
f 49//49 16//16 18//18 
f 16//16 13//13 18//18 
f 16//16 14//14 13//13 
f 51//51 13//13 53//53 
f 50//50 51//51 53//53 
f 70//70 53//53 13//13 
f 24//24 23//23 20//20 
f 20//20 35//35 24//24 
f 35//35 32//32 24//24 
f 22//22 12//12 21//21 
f 55//55 56//56 26//26 
f 21//21 57//57 22//22 
f 54//54 57//57 21//21 
f 24//24 32//32 27//27 
f 12//12 22//22 25//25 
f 22//22 60//60 25//25 
f 30//30 59//59 62//62 
f 25//25 60//60 28//28 
f 64//64 61//61 30//30 
f 30//30 61//61 58//58 
f 59//59 30//30 58//58 
f 65//65 66//66 29//29 
f 29//29 66//66 31//31 
f 63//63 68//68 67//67 
f 11//11 1//1 54//54 
f 21//21 11//11 54//54 
f 47//47 21//21 12//12 
f 32//32 35//35 33//33 
f 32//32 33//33 27//27 
f 69//69 34//34 63//63 
f 25//25 28//28 12//12 
f 12//12 28//28 14//14 
f 14//14 65//65 29//29 
f 63//63 34//34 68//68 
f 29//29 31//31 70//70 
