#
# The license for this database is specified in the Creative Commons Attribution-Share Alike 2.1 Japan. If you use data from this database, please be sure attribute this database as follows: "BodyParts3D, (c)  The Database Center for Life Science licensed under CC Attribution-Share Alike 2.1 Japan".
# http://dbarchive.biosciencedbc.jp/en/bodyparts3d/lic.html
#
#
# Compatibility version : 4.0
# File ID : FJ2462
# Representation ID : BP9676
# Build-up logic : FMA 3.0 part_of
# Concept ID : FMA68223
# English name : Left apical segmental bronchial tree
# Bounds(mm): (57.850100,-86.233500,1323.830000)-(64.831500,-74.221100,1336.130000)
# Volume(cm3): 0.129100
#
v 58.519 -83.555 1324.48
v 58.7324 -83.0889 1325.06
v 59.1481 -83.0768 1324.79
v 57.9161 -83.6055 1325.94
v 57.8501 -83.8978 1325.97
v 58.2712 -84.7322 1327.23
v 58.5058 -85.3706 1327.29
v 59.8751 -84.1349 1323.83
v 60.5983 -85.4003 1324.38
v 60.9913 -85.7153 1324.8
v 60.7853 -86.2335 1325.35
v 61.1588 -85.7717 1325.62
v 61.0205 -85.9048 1326.01
v 58.9329 -84.9394 1327.55
v 59.1374 -85.3369 1327.51
v 59.4218 -85.904 1326.81
v 59.4358 -85.818 1327.3
v 60.1618 -86.1054 1326.86
v 60.1823 -85.6719 1327.29
v 60.5155 -81.5042 1328.1
v 60.8418 -82.5341 1328.71
v 62.5304 -79.5783 1327.97
v 63.0057 -80.3533 1327.27
v 63.6435 -81.2189 1327.48
v 63.663 -82.0211 1328.22
v 62.8536 -82.9778 1328.34
v 62.3939 -78.9108 1329.84
v 62.4454 -79.2068 1330.5
v 63.1064 -78.3769 1329.42
v 61.5788 -80.0886 1328.16
v 61.6852 -80.2089 1329.17
v 62.0874 -81.1422 1329.73
v 61.131 -83.4369 1328.55
v 63.427 -76.1313 1332.63
v 62.8133 -77.8305 1331.14
v 62.7479 -78.1979 1331.35
v 63.0958 -77.462 1330.94
v 62.8702 -79.6765 1330.96
v 63.1834 -76.1705 1333.16
v 63.071 -76.8123 1333.11
v 64.3248 -79.3636 1328.97
v 64.0931 -77.2695 1330.8
v 64.8315 -78.1229 1331.07
v 63.4406 -81.0069 1330.06
v 64.3692 -80.4743 1329.03
v 64.3098 -79.8378 1330.72
v 63.2178 -77.7594 1332.79
v 63.6525 -79.2901 1331.67
v 63.9775 -77.9035 1333.14
v 64.2328 -74.3351 1335.01
v 64.5293 -74.6004 1334.96
v 63.4486 -74.6486 1334.87
v 63.7238 -74.6359 1334.58
v 64.4709 -74.2566 1335.54
v 63.3634 -74.562 1335.23
v 63.2616 -74.8614 1335.47
v 63.2999 -75.2251 1335.49
v 63.588 -74.2211 1335.35
v 63.491 -74.4095 1335.63
v 63.6292 -75.5505 1335.67
v 63.5946 -75.049 1336.13
v 64.5118 -75.1992 1336.01
v 64.181 -75.6703 1335.67
v 64.7162 -75.1797 1335.42
v 64.5718 -74.8978 1336.05
v 58.519 -83.555 1324.48
v 58.519 -83.555 1324.48
v 57.9161 -83.6055 1325.94
v 57.9161 -83.6055 1325.94
v 57.8501 -83.8978 1325.97
v 57.8501 -83.8978 1325.97
v 57.8501 -83.8978 1325.97
v 58.2712 -84.7322 1327.23
v 58.5058 -85.3706 1327.29
v 58.5058 -85.3706 1327.29
v 58.5058 -85.3706 1327.29
v 59.8751 -84.1349 1323.83
v 59.8751 -84.1349 1323.83
v 60.5983 -85.4003 1324.38
v 60.5983 -85.4003 1324.38
v 60.9913 -85.7153 1324.8
v 60.7853 -86.2335 1325.35
v 60.7853 -86.2335 1325.35
v 60.7853 -86.2335 1325.35
v 59.4218 -85.904 1326.81
v 59.4358 -85.818 1327.3
v 60.1618 -86.1054 1326.86
v 63.1064 -78.3769 1329.42
v 62.0874 -81.1422 1329.73
v 62.8702 -79.6765 1330.96
v 64.8315 -78.1229 1331.07
v 64.8315 -78.1229 1331.07
v 63.4406 -81.0069 1330.06
v 64.3692 -80.4743 1329.03
v 63.6525 -79.2901 1331.67
v 64.2328 -74.3351 1335.01
v 64.4709 -74.2566 1335.54
v 64.4709 -74.2566 1335.54
v 64.4709 -74.2566 1335.54
v 63.588 -74.2211 1335.35
v 63.491 -74.4095 1335.63
v 63.5946 -75.049 1336.13
v 63.5946 -75.049 1336.13
v 64.5118 -75.1992 1336.01
v 64.5718 -74.8978 1336.05
v 64.5718 -74.8978 1336.05
vn -0.410045 0.730927 -0.545535
vn -0.519649 0.776443 -0.356513
vn -0.164267 0.727044 -0.66665
vn -0.673876 0.708807 -0.208528
vn -0.913183 0.168043 -0.371293
vn -0.661893 0.148246 0.734793
vn -0.937485 -0.335965 0.0908257
vn -0.0495755 0.650225 -0.758123
vn -0.594251 -0.632354 -0.496985
vn 0.859763 -0.339582 -0.381433
vn -0.623711 -0.648318 -0.436656
vn 0.82426 -0.561665 -0.0716077
vn 0.688262 -0.696425 0.203195
vn -0.351383 -0.175694 0.919599
vn -0.227486 -0.36112 0.904346
vn -0.615488 -0.658625 -0.432883
vn -0.351162 -0.920611 0.170765
vn -0.267093 -0.96082 0.0740719
vn 0.230682 -0.612267 0.75625
vn -0.765062 0.395431 0.508247
vn -0.554873 -0.0178927 0.831743
vn -0.19455 0.789278 -0.582401
vn 0.317262 0.570024 -0.757903
vn 0.800148 0.00567411 -0.599776
vn 0.869653 -0.493544 -0.010854
vn 0.5108 -0.664031 0.546028
vn -0.887174 0.461177 -0.0154248
vn -0.916894 0.0200844 0.398624
vn -0.619151 0.700254 -0.355383
vn -0.714636 0.696476 -0.0649423
vn -0.862155 0.278791 0.423041
vn -0.784741 -0.0123566 0.619701
vn -0.0692306 -0.435865 0.897346
vn -0.585914 0.684794 -0.433315
vn -0.921337 0.377272 -0.0938262
vn -0.977273 0.0738011 0.198724
vn -0.748349 0.589604 -0.303876
vn -0.813209 -0.199574 0.546682
vn -0.910762 0.368408 -0.186517
vn -0.991076 -0.00805192 0.133052
vn 0.782932 0.314885 -0.53653
vn 0.272427 0.745779 -0.607946
vn 0.968127 0.0261733 -0.24909
vn -0.220145 -0.541137 0.811608
vn 0.940127 -0.0733555 -0.332836
vn 0.651667 -0.598981 0.465351
vn -0.789575 -0.383889 0.478748
vn -0.31451 -0.641701 0.699502
vn -0.127819 -0.723433 0.678459
vn -0.00891547 0.907318 -0.420351
vn 0.802591 0.510543 -0.308535
vn -0.69143 0.611295 -0.385024
vn -0.285751 0.800104 -0.527428
vn 0.582774 0.724547 -0.367977
vn -0.875924 0.46933 -0.111741
vn -0.970094 0.161001 0.181647
vn -0.886458 -0.280016 0.368488
vn -0.478079 0.821647 -0.310381
vn -0.882022 0.408191 0.23541
vn -0.456601 -0.644275 0.613535
vn -0.864464 -0.105418 0.491517
vn 0.905333 -0.298731 0.301881
vn 0.0733203 -0.706276 0.704129
vn 0.989836 -0.0356323 0.137675
vn 0.975766 0.00827651 0.218659
vn -0.913183 0.168043 -0.371293
vn -0.591648 -0.636842 -0.494352
vn -0.913183 0.168043 -0.371293
vn -0.797448 0.393736 0.457218
vn -0.861524 0.240464 0.447162
vn -0.614161 -0.661195 -0.430846
vn -0.937485 -0.335965 0.0908257
vn -0.937485 -0.335965 0.0908257
vn -0.612707 -0.661026 -0.433167
vn -0.350181 -0.289632 0.890779
vn -0.428984 -0.887699 0.167226
vn -0.540343 -0.57561 -0.613761
vn 0.627606 0.146947 -0.764538
vn 0.698094 0.0228249 -0.715642
vn 0.10917 -0.743528 -0.659733
vn 0.10917 -0.743528 -0.659733
vn 0.10917 -0.743528 -0.659733
vn -0.260684 -0.965083 -0.0256817
vn 0.706775 -0.706483 0.0367502
vn -0.322685 -0.940586 0.105701
vn -0.0122737 -0.554784 0.831904
vn 0.410568 -0.746166 0.52409
vn -0.0395985 0.792618 -0.608431
vn -0.242607 -0.429185 0.870024
vn -0.300135 -0.618849 0.72591
vn 0.840747 0.419397 -0.342418
vn 0.925548 -0.322102 0.199026
vn 0.361569 -0.667854 0.650569
vn 0.89379 -0.408646 0.184791
vn 0.338218 -0.692421 0.637308
vn 0.556561 0.708412 -0.434042
vn 0.966995 0.253377 0.026834
vn 0.0781138 0.980614 -0.179705
vn -0.0461337 0.699847 0.712801
vn -0.0817671 0.839809 0.536689
vn -0.0533005 0.737633 0.673094
vn -0.0274222 0.616296 0.787037
vn -0.0115633 -0.489068 0.872169
vn 0.175797 -0.507532 0.843508
vn -0.0316011 0.619137 0.784647
vn 0.103837 -0.151255 0.983026
g grp1
usemtl mtl1
f 1//1 4//4 2//2 
f 3//3 2//2 22//22 
f 3//3 1//1 2//2 
f 8//8 1//1 3//3 
f 3//3 23//23 8//8 
f 68//68 66//66 5//5 
f 6//6 69//69 70//70 
f 20//20 69//69 6//6 
f 30//30 2//2 4//4 
f 21//21 20//20 6//6 
f 69//69 20//20 30//30 
f 67//67 16//16 71//71 
f 73//73 72//72 7//7 
f 71//71 16//16 74//74 
f 21//21 6//6 14//14 
f 75//75 14//14 6//6 
f 9//9 67//67 77//77 
f 78//78 24//24 79//79 
f 23//23 24//24 78//78 
f 9//9 16//16 67//67 
f 10//10 79//79 24//24 
f 9//9 11//11 16//16 
f 80//80 81//81 82//82 
f 85//85 83//83 18//18 
f 84//84 13//13 87//87 
f 12//12 84//84 10//10 
f 13//13 84//84 12//12 
f 25//25 12//12 10//10 
f 12//12 25//25 13//13 
f 25//25 10//10 24//24 
f 2//2 30//30 22//22 
f 23//23 3//3 22//22 
f 15//15 33//33 14//14 
f 33//33 21//21 14//14 
f 85//85 17//17 76//76 
f 15//15 14//14 75//75 
f 75//75 86//86 15//15 
f 18//18 17//17 85//85 
f 86//86 33//33 15//15 
f 19//19 86//86 87//87 
f 19//19 33//33 86//86 
f 19//19 87//87 26//26 
f 13//13 26//26 87//87 
f 26//26 13//13 25//25 
f 26//26 33//33 19//19 
f 31//31 30//30 20//20 
f 31//31 27//27 30//30 
f 31//31 20//20 21//21 
f 23//23 41//41 24//24 
f 29//29 22//22 30//30 
f 29//29 30//30 27//27 
f 27//27 36//36 35//35 
f 28//28 36//36 27//27 
f 37//37 29//29 27//27 
f 27//27 35//35 37//37 
f 22//22 88//88 42//42 
f 23//23 22//22 42//42 
f 41//41 23//23 42//42 
f 31//31 21//21 32//32 
f 28//28 31//31 32//32 
f 28//28 27//27 31//31 
f 32//32 38//38 28//28 
f 44//44 90//90 89//89 
f 44//44 48//48 90//90 
f 89//89 21//21 33//33 
f 33//33 44//44 89//89 
f 26//26 93//93 33//33 
f 34//34 35//35 39//39 
f 39//39 35//35 40//40 
f 28//28 47//47 36//36 
f 28//28 38//38 47//47 
f 29//29 37//37 34//34 
f 35//35 34//34 37//37 
f 36//36 47//47 40//40 
f 36//36 40//40 35//35 
f 47//47 90//90 49//49 
f 39//39 52//52 34//34 
f 45//45 24//24 41//41 
f 45//45 25//25 24//24 
f 25//25 94//94 46//46 
f 41//41 43//43 45//45 
f 42//42 91//91 41//41 
f 92//92 46//46 94//94 
f 25//25 46//46 26//26 
f 26//26 46//46 93//93 
f 88//88 34//34 42//42 
f 34//34 53//53 42//42 
f 50//50 42//42 53//53 
f 91//91 42//42 51//51 
f 48//48 49//49 90//90 
f 46//46 95//95 93//93 
f 46//46 49//49 95//95 
f 46//46 63//63 49//49 
f 51//51 96//96 54//54 
f 64//64 91//91 51//51 
f 97//97 64//64 51//51 
f 34//34 52//52 53//53 
f 58//58 53//53 52//52 
f 58//58 52//52 55//55 
f 52//52 39//39 55//55 
f 39//39 56//56 55//55 
f 40//40 56//56 39//39 
f 50//50 53//53 58//58 
f 49//49 60//60 47//47 
f 51//51 42//42 96//96 
f 63//63 60//60 49//49 
f 92//92 64//64 46//46 
f 62//62 46//46 64//64 
f 63//63 46//46 104//104 
f 98//98 50//50 58//58 
f 64//64 97//97 65//65 
f 59//59 58//58 55//55 
f 55//55 56//56 59//59 
f 40//40 57//57 56//56 
f 47//47 57//57 40//40 
f 59//59 56//56 61//61 
f 61//61 56//56 57//57 
f 101//101 99//99 100//100 
f 99//99 101//101 102//102 
f 57//57 60//60 61//61 
f 57//57 47//47 60//60 
f 105//105 99//99 102//102 
f 63//63 103//103 60//60 
f 104//104 106//106 103//103 
f 104//104 103//103 63//63 
f 65//65 62//62 64//64 
