# Blender v2.77 (sub 0) OBJ File: 'BLANKOblend.blend'
# www.blender.org
mtllib left lobe of thymus.mtl
o grp1
v 7.364624 -155.698135 1259.093628
v 9.236328 -155.551254 1257.625977
v 6.081430 -147.671204 1261.349976
v 7.833130 -154.278198 1258.290039
v 6.799805 -155.111526 1260.327148
v 8.964722 -156.009476 1263.095215
v 10.368896 -158.241653 1257.850952
v 10.216200 -157.666199 1257.609985
v 12.856689 -158.482010 1257.830322
v 9.289710 -155.558197 1257.680054
v 12.592773 -157.651993 1257.644287
v 12.164800 -158.889206 1258.339966
v 14.117188 -159.335159 1261.089844
v 12.164800 -158.889206 1258.339966
v 7.833130 -154.278198 1258.290039
v 8.125000 -149.609573 1260.000000
v 6.095540 -152.727203 1262.949951
v 6.095540 -152.727203 1262.949951
v 8.859131 -153.847870 1265.314453
v 6.140625 -143.836136 1261.757812
v 4.317570 -147.017212 1266.239990
v 6.754578 -149.550995 1269.328125
v 2.502930 -139.341522 1265.396484
v 5.935425 -141.116898 1261.855469
v 3.516400 -137.756210 1265.229980
v 1.149902 -139.007690 1268.813232
v 2.098541 -136.765762 1269.244141
v 0.871873 -138.911209 1273.500000
v 1.357060 -141.407211 1272.800049
v 14.416400 -158.547195 1258.609985
v 14.416400 -158.547195 1258.609985
v 16.140137 -153.219925 1263.602539
v 7.888672 -148.668167 1260.371094
v 13.898000 -154.957214 1267.790039
v 7.951440 -144.496201 1261.939941
v 12.242188 -148.742386 1264.160156
v 8.151367 -140.123978 1264.041016
v 10.430664 -150.945526 1270.089844
v 6.106770 -139.086197 1263.189941
v 5.741200 -137.391220 1265.650024
v 2.169189 -137.401718 1276.507812
v 3.320898 -142.217743 1276.108887
v 1.659546 -138.556976 1278.185791
v 2.153625 -137.345184 1277.174316
v 15.291809 -158.171173 1258.828613
v 15.120800 -158.194199 1258.939941
v 15.634000 -158.877197 1260.079956
v 14.416400 -158.547195 1258.609985
v 16.516600 -158.218201 1260.520020
v 15.976562 -158.806839 1260.500000
v 17.428711 -156.983368 1266.168457
v 15.617676 -153.214081 1272.648438
v 5.741200 -137.391220 1265.650024
v 8.781250 -138.019745 1269.656250
v 10.074463 -137.555634 1274.241699
v 6.230011 -137.033554 1276.835571
v 8.169922 -143.784393 1278.310547
v 3.302063 -141.803192 1278.077148
v 2.490010 -136.809219 1281.410034
v 2.212307 -139.473907 1280.157593
v 4.948547 -141.141525 1280.668213
v 1.705688 -136.686981 1283.720703
v 4.065613 -140.821503 1282.777344
v 1.205414 -137.778473 1286.206299
v 0.761345 -137.338470 1288.259033
v 17.964844 -155.724808 1262.587891
v 16.516600 -158.218201 1260.520020
v 18.019775 -156.966019 1264.319092
v 14.403076 -149.502167 1264.806641
v 12.272500 -141.671219 1269.040039
v 6.292236 -136.385773 1283.558594
v 8.516357 -141.774628 1283.291016
v 6.726196 -140.394257 1284.906250
v 3.533960 -139.358215 1286.630005
v 5.488650 -138.966217 1289.109985
v 1.739685 -134.925873 1291.409668
v 2.112915 -137.890839 1289.344238
v 1.078125 -135.808807 1292.171875
v 1.552856 -136.444061 1293.087891
v 18.468750 -156.328323 1263.187500
v 18.396240 -153.617386 1264.197754
v 19.903320 -154.727264 1264.853516
v 20.170799 -152.431213 1268.439941
v 18.179688 -156.609589 1267.453125
v 17.284668 -149.790253 1268.259766
v 19.911140 -154.499710 1271.169434
v 11.876343 -135.497284 1280.363281
v 14.571411 -145.984589 1279.609375
v 13.212402 -141.885956 1283.753906
v 6.914307 -135.747284 1288.008301
v 4.517334 -137.592010 1294.113281
v 2.765869 -135.815155 1298.175781
v 1.363660 -134.853210 1295.060059
v 1.363660 -134.853210 1295.060059
v 2.230957 -133.646942 1294.867676
v 3.751709 -132.593964 1295.863281
v 1.560500 -135.117218 1298.099976
v 0.899545 -133.290207 1297.510010
v -2.253760 -128.879211 1302.739990
v 0.581413 -128.482208 1301.459961
v -3.156677 -130.787354 1304.285034
v 0.165039 -133.933319 1300.629639
v -2.815491 -132.131561 1304.529541
v 0.337891 -134.207245 1299.830078
v 0.302334 -134.259216 1299.760010
v -0.374390 -133.909821 1304.192261
v -3.142517 -128.096893 1305.774780
v -2.829102 -126.507172 1304.909302
v 0.088715 -133.279877 1306.328369
v -2.934143 -130.645721 1308.039795
v -1.250336 -132.274628 1309.784668
v 19.905199 -154.479218 1271.119995
v 16.529114 -147.367889 1270.047852
v 16.546875 -141.806854 1275.039062
v 17.989599 -151.213211 1275.910034
v 9.372803 -135.453445 1282.278564
v 13.723877 -133.523163 1283.908691
v 7.421021 -131.532440 1298.162109
v 7.840820 -137.359100 1295.242676
v 6.710938 -135.134003 1299.964844
v 2.402588 -134.114044 1302.034912
v -1.260132 -123.884003 1305.409180
v -1.737793 -123.240936 1307.176270
v -3.485413 -127.130371 1308.282715
v -2.048340 -129.995819 1311.445801
v 1.727539 -131.556854 1311.870117
v -1.796387 -123.727753 1311.472168
v 0.551270 -123.661835 1315.093750
v 21.206499 -153.606216 1270.569946
v 21.433105 -153.238495 1271.948242
v 19.174316 -147.531464 1271.976562
v 21.258789 -147.390839 1274.824219
v 19.783899 -148.845215 1277.410034
v 21.119801 -147.531219 1276.589966
v 16.458740 -143.488495 1282.433594
v 14.163300 -135.758209 1280.089966
v 10.840576 -137.364532 1290.696777
v 11.106201 -131.065155 1295.947266
v 9.477051 -135.409393 1298.652344
v 4.311523 -130.242401 1300.572266
v 6.926025 -133.956268 1297.830078
v 6.841030 -133.997208 1297.839966
v 6.933838 -134.011932 1297.853516
v 6.841030 -133.997208 1297.839966
v 6.892578 -134.013885 1297.883789
v 6.819930 -133.888214 1298.130005
v 6.878906 -133.949432 1297.845703
v 6.810190 -133.866211 1298.140015
v 6.841030 -133.997208 1297.839966
v 6.812500 -133.884491 1298.130859
v 5.684840 -132.447220 1305.150024
v 3.855255 -131.019257 1311.233398
v -0.007812 -121.058807 1309.187500
v 21.286200 -152.917221 1272.079956
v 21.119801 -147.531219 1276.589966
v 19.622700 -136.291214 1282.959961
v 16.731800 -134.346207 1282.819946
v 15.005300 -139.371216 1286.609985
v 12.162900 -135.627213 1295.479980
v 6.964844 -133.957245 1297.847656
v 6.920680 -133.910217 1297.839966
v 6.964844 -133.978729 1297.855469
v 6.942560 -134.033218 1297.900024
v 6.957031 -133.987518 1297.892578
v 6.791016 -133.870819 1298.128906
v 6.949707 -133.928925 1297.867432
v 6.810190 -133.866211 1298.140015
v 3.750000 -119.609589 1311.140625
v 8.102051 -126.910858 1311.839844
v 0.338379 -121.094986 1312.011719
v 2.779530 -128.109207 1315.280029
v 2.526855 -120.967255 1314.438477
v 20.304300 -144.046219 1276.670044
v 20.304300 -144.046219 1276.670044
v 19.622700 -136.291214 1282.959961
v 18.426117 -140.146698 1284.888672
v 8.992820 -128.197220 1302.760010
v 4.328060 -119.742210 1311.619995
v 5.456818 -126.526093 1316.500000
v 3.796143 -122.534393 1316.401245
v 20.640625 -137.375214 1284.757812
v 19.622700 -136.291214 1282.959961
v 20.687500 -134.781464 1286.437500
v 19.908501 -138.686218 1283.609985
v 19.908501 -138.686218 1283.609985
v 19.908501 -138.686218 1283.609985
v 19.534668 -136.300995 1287.500000
v 18.276367 -128.254120 1288.416016
v 16.253901 -128.906219 1289.599976
v 21.262695 -131.625214 1289.488281
v 12.451172 -127.876190 1302.087891
v 12.217773 -126.347870 1308.898438
v 14.348633 -130.307831 1301.591797
v 13.816895 -125.164276 1306.964844
v 6.319420 -120.223213 1313.260010
v 6.319420 -120.223213 1313.260010
v 6.627930 -124.885956 1316.103516
v 20.322300 -130.566208 1287.310059
v 18.851562 -124.586151 1294.769531
v 16.345154 -127.177032 1295.903564
v 15.628906 -127.718597 1299.449219
v 13.754800 -127.779213 1301.969971
v 14.591600 -127.802216 1301.709961
v 13.422500 -127.346214 1303.420044
v 13.672500 -128.627213 1304.150024
v 14.201172 -127.989471 1303.095703
v 14.222600 -127.102211 1305.089966
v 14.192400 -125.989212 1305.359985
v 10.320312 -121.386932 1311.330078
v 7.869141 -121.955780 1314.186523
v 8.814620 -120.767212 1312.489990
v 8.814620 -120.767212 1312.489990
v 11.997070 -122.715546 1310.520020
v 21.148500 -131.522217 1289.459961
v 21.142090 -125.592987 1290.625977
v 21.721436 -125.919159 1291.024170
v 21.902344 -127.375214 1292.015625
v 19.291138 -124.859100 1292.470703
v 20.361328 -127.828705 1294.414062
v 16.742676 -127.476288 1298.013672
v 16.347656 -128.462860 1299.651367
v 14.568115 -127.804413 1301.715820
v 15.166200 -127.990211 1301.209961
v 14.197200 -127.983215 1303.130005
v 14.509216 -127.830414 1301.715576
v 13.422500 -127.346214 1303.420044
v 14.197200 -127.983215 1303.130005
v 13.754800 -127.779213 1301.969971
v 13.947800 -127.721214 1303.819946
v 13.947800 -127.721214 1303.819946
v 14.430923 -126.649628 1305.394531
v 13.422500 -127.346214 1303.420044
v 14.192400 -125.989212 1305.359985
v 14.494141 -126.631073 1305.695312
v 13.793945 -125.323456 1307.007812
v 13.203125 -124.234589 1308.187500
v 13.348200 -124.711212 1308.560059
v 12.594600 -123.741211 1309.650024
v 10.312800 -121.442215 1311.329956
v 20.787901 -124.822212 1292.550049
v 20.511000 -124.673210 1293.189941
v 20.605957 -124.706268 1293.050781
v 20.992310 -125.029694 1293.565918
vn -0.7966 0.0904 -0.5976
vn -0.7270 -0.1573 -0.6684
vn -0.7711 -0.5139 -0.3760
vn -0.8896 -0.4560 -0.0266
vn -0.6327 -0.2868 -0.7194
vn -0.4805 -0.7501 -0.4544
vn -0.4689 -0.2920 -0.8336
vn 0.2661 -0.5229 -0.8098
vn 0.0682 0.2737 -0.9594
vn 0.2998 0.1173 -0.9468
vn -0.5078 -0.7544 0.4160
vn -0.3723 -0.9269 0.0477
vn -0.0200 -0.9800 0.1979
vn 0.0543 -0.8426 -0.5358
vn -0.1536 0.3583 -0.9209
vn 0.2068 0.4195 -0.8839
vn -0.6959 -0.5921 0.4065
vn -0.9608 -0.0862 -0.2635
vn -0.5122 -0.6698 0.5376
vn -0.9399 -0.3120 -0.1384
vn -0.5825 -0.6848 0.4379
vn -0.8450 0.0927 -0.5267
vn -0.4716 0.0258 -0.8814
vn -0.1329 0.3279 -0.9353
vn -0.4264 0.7270 -0.5382
vn -0.9674 0.0695 -0.2436
vn -0.4677 0.8762 -0.1167
vn -0.9738 0.2109 0.0847
vn -0.8924 -0.4416 0.0925
vn 0.1809 -0.9235 -0.3383
vn 0.3514 -0.2509 -0.9020
vn 0.4259 0.4901 -0.7605
vn 0.5521 0.4020 -0.7305
vn -0.3597 -0.7692 0.5281
vn 0.4780 0.2552 -0.8405
vn 0.5649 0.4267 -0.7062
vn 0.6277 0.5570 -0.5438
vn 0.1603 0.6616 -0.7326
vn 0.0381 0.9717 -0.2331
vn -0.6650 -0.6839 0.3001
vn -0.9956 -0.0278 0.0900
vn -0.8730 0.4785 0.0949
vn 0.5804 0.8144 -0.0007
vn 0.5085 0.3244 -0.7976
vn 0.6110 -0.5257 -0.5919
vn 0.6321 -0.5551 -0.5407
vn 0.5681 -0.5665 -0.5970
vn 0.7291 -0.6375 -0.2491
vn 0.5077 -0.8389 -0.1962
vn 0.2326 -0.9386 0.2548
vn -0.4198 -0.7112 0.5639
vn -0.3176 -0.7745 0.5471
vn 0.5750 0.7268 -0.3758
vn 0.4923 0.8430 -0.2168
vn 0.3249 0.9078 -0.2651
vn -0.0761 0.9916 -0.1041
vn -0.6463 -0.7164 0.2628
vn -0.3513 -0.8151 0.4606
vn -0.7654 -0.6314 0.1243
vn -0.8765 -0.4813 -0.0103
vn -0.3732 0.9176 -0.1370
vn -0.6680 0.7234 -0.1745
vn -0.3173 -0.9415 0.1134
vn -0.9471 -0.3121 0.0749
vn 0.6419 0.3758 -0.6684
vn 0.8225 -0.0056 -0.5687
vn 0.6548 -0.7526 0.0693
vn 0.4955 0.5246 -0.6923
vn 0.6868 0.5654 -0.4567
vn -0.1666 -0.8548 0.4915
vn -0.1495 0.9802 -0.1300
vn -0.4094 -0.8614 0.3005
vn -0.1064 -0.9019 0.4186
vn -0.4439 -0.8337 0.3284
vn -0.0795 -0.9604 0.2670
vn -0.5527 0.8064 -0.2104
vn -0.4762 -0.8672 0.1452
vn -1.0000 -0.0026 0.0087
vn -0.7799 -0.5898 0.2097
vn 0.8615 -0.3493 -0.3685
vn 0.5130 0.5745 -0.6378
vn 0.9375 -0.0416 -0.3454
vn 0.7244 0.4995 -0.4751
vn 0.5941 0.5983 -0.5377
vn 0.2604 -0.9399 0.2206
vn 0.2456 -0.9077 0.3403
vn -0.0911 0.9428 -0.3206
vn -0.2643 -0.7219 0.6395
vn -0.0939 -0.7631 0.6394
vn -0.2090 -0.9265 0.3128
vn -0.2937 -0.9063 0.3040
vn -0.6248 0.7012 -0.3435
vn -0.8091 0.5177 -0.2781
vn -0.0461 0.8662 -0.4975
vn -0.9741 -0.2043 0.0967
vn -0.7449 -0.6654 0.0483
vn -0.9056 -0.2654 -0.3309
vn -0.7923 0.2559 -0.5539
vn -0.0011 0.7287 -0.6849
vn -0.9726 -0.1060 -0.2067
vn -0.4505 -0.8833 0.1296
vn -0.8134 -0.5585 -0.1627
vn -0.8464 -0.4471 -0.2895
vn -0.3989 -0.8867 0.2338
vn -0.2240 -0.9599 0.1684
vn -0.9893 0.0411 -0.1403
vn -0.8653 0.3426 -0.3658
vn -0.0806 -0.9676 0.2391
vn -0.9134 -0.3541 0.2010
vn -0.9859 0.1400 0.0922
vn 0.6293 0.5748 -0.5231
vn 0.5816 0.6093 -0.5389
vn 0.0428 -0.7175 0.6952
vn -0.4192 0.8363 -0.3532
vn -0.2077 0.9586 -0.1948
vn -0.1725 0.8659 -0.4695
vn 0.1241 -0.9354 0.3312
vn 0.0989 -0.8879 0.4493
vn -0.0247 -0.9574 0.2879
vn -0.3503 0.6849 -0.6389
vn -0.7748 0.5990 -0.2024
vn -0.4915 -0.7675 0.4117
vn -0.7380 -0.3321 0.5875
vn 0.0670 -0.8839 0.4628
vn -0.8861 0.3313 0.3242
vn -0.6217 0.2104 0.7545
vn 0.9570 0.1927 -0.2169
vn 0.5001 -0.7111 0.4942
vn 0.6117 -0.7905 0.0301
vn 0.5728 0.5822 -0.5770
vn 0.9181 0.3379 -0.2074
vn 0.5400 -0.5192 0.6625
vn 0.7294 -0.3859 0.5648
vn 0.2319 0.8078 -0.5419
vn -0.0020 -0.6951 0.7189
vn -0.2476 0.8814 -0.4022
vn 0.2757 -0.8775 0.3924
vn -0.4582 0.8367 -0.2999
vn 0.3573 -0.8164 0.4537
vn 0.0897 0.8100 -0.5795
vn 0.3139 -0.8514 0.4201
vn 0.4565 -0.8033 0.3824
vn -0.4579 0.8514 -0.2560
vn 0.9995 0.0271 -0.0161
vn 0.9946 0.1012 0.0228
vn 0.1659 0.7079 -0.6866
vn 0.1037 -0.7214 0.6847
vn 0.4871 -0.8104 0.3257
vn 0.1999 0.8157 -0.5428
vn 0.6742 -0.5478 0.4953
vn -0.2162 -0.4942 0.8421
vn -0.5652 0.7855 0.2521
vn -0.2697 0.8054 0.5277
vn 0.9725 0.2286 -0.0434
vn 0.5849 0.5289 -0.6149
vn 0.4681 0.5854 -0.6619
vn 0.9809 0.1767 -0.0811
vn 0.4654 -0.5328 0.7068
vn -0.2473 0.8750 -0.4162
vn -0.2346 0.9471 0.2188
vn 0.2608 -0.4416 0.8585
vn -0.0484 0.4132 0.9093
vn 0.9816 -0.1860 0.0441
vn 0.8916 0.1399 -0.4308
vn 0.9911 -0.1184 -0.0611
vn 0.7540 -0.5263 0.3931
vn 0.9923 0.1229 0.0164
vn 0.8601 -0.0348 -0.5089
vn 0.5753 -0.4891 0.6556
vn -0.1406 0.7325 -0.6660
vn -0.5882 0.7316 -0.3445
vn 0.6351 -0.5841 0.5054
vn -0.1156 0.9269 -0.3570
vn 0.6344 -0.4793 0.6064
vn 0.7080 -0.5340 0.4621
vn 0.0187 0.7967 -0.6041
vn 0.1574 0.7940 0.5871
vn 0.6012 -0.0687 0.7961
vn 0.5396 0.4200 -0.7297
vn -0.1091 0.9339 0.3404
vn -0.6469 0.7618 -0.0347
vn -0.4069 0.9004 -0.1540
vn -0.0565 0.9953 -0.0785
vn 0.0361 0.9950 0.0927
vn 0.3864 0.7479 -0.5397
vn 0.9332 -0.2153 0.2878
vn 0.9075 -0.1317 0.3988
vn 0.6309 -0.6242 0.4608
vn 0.0496 0.8674 -0.4951
vn 0.3256 0.8282 -0.4562
vn 0.5761 0.3635 0.7321
vn 0.2520 0.9677 0.0063
vn 0.2391 0.9655 -0.1027
vn 0.5576 0.5678 0.6056
vn 0.8505 0.3749 0.3690
vn 0.2930 0.7786 -0.5548
vn 0.8598 0.4576 -0.2267
vn 0.9767 -0.0635 0.2052
vn 0.9512 -0.2637 0.1602
vn -0.3224 0.8809 -0.3464
vn 0.2712 0.8401 0.4698
vn 0.7714 0.1574 0.6166
vn 0.7867 -0.2129 0.5795
vn 0.5744 0.7615 0.3004
vn 0.2105 0.9625 -0.1709
vn 0.0730 0.9866 0.1460
vn 0.4515 0.8597 0.2387
vn 0.6140 0.7848 -0.0849
vn 0.6140 0.7847 -0.0849
vn 0.6110 0.7859 -0.0950
vn 0.6164 0.7838 -0.0748
vn 0.9963 -0.0053 -0.0860
vn 0.9654 0.2014 -0.1658
vn 0.7196 0.4019 -0.5663
vn 0.8664 0.3933 -0.3078
vn 0.5622 -0.7006 0.4395
vn 0.9284 0.3452 0.1375
vn 0.8954 0.4218 0.1430
vn 0.8181 0.5751 0.0043
vn 0.7514 -0.1867 0.6329
vn 0.6586 0.5222 0.5418
vn 0.0022 0.9585 -0.2852
vn -0.0457 0.9849 -0.1671
vn 0.5263 0.8483 0.0585
vn 0.7207 0.5549 0.4156
usemtl mtl1
s 1
f 3//1 4//2 1//3
f 1//3 5//4 3//1
f 2//5 1//3 4//2
f 7//6 1//3 2//5
f 7//6 2//5 8//7
f 8//7 9//8 7//6
f 8//7 10//9 11//10
f 11//10 9//8 8//7
f 7//6 6//11 1//3
f 12//12 13//13 7//6
f 6//11 7//6 13//13
f 14//14 7//6 9//8
f 10//9 15//15 16//16
f 16//16 15//15 3//1
f 6//11 5//4 1//3
f 6//11 17//17 5//4
f 18//18 3//1 5//4
f 6//11 19//19 17//17
f 3//1 18//18 21//20
f 17//17 22//21 21//20
f 19//19 22//21 17//17
f 23//22 20//23 21//20
f 20//23 23//22 24//24
f 21//20 20//23 3//1
f 23//22 25//25 24//24
f 26//26 27//27 23//22
f 21//20 26//26 23//22
f 28//28 27//27 26//26
f 21//20 29//29 26//26
f 28//28 26//26 29//29
f 14//14 9//8 30//30
f 31//31 9//8 11//10
f 11//10 10//9 16//16
f 13//13 14//14 30//30
f 32//32 16//16 33//33
f 34//34 19//19 6//11
f 35//35 36//36 33//33
f 37//37 36//36 35//35
f 20//23 24//24 35//35
f 37//37 35//35 24//24
f 3//1 20//23 16//16
f 33//33 20//23 35//35
f 24//24 25//25 39//38
f 24//24 39//38 37//37
f 25//25 27//27 40//39
f 39//38 25//25 40//39
f 23//22 27//27 25//25
f 21//20 22//21 29//29
f 29//29 42//40 43//41
f 27//27 28//28 44//42
f 43//41 44//42 28//28
f 41//43 27//27 44//42
f 29//29 43//41 28//28
f 11//10 45//44 31//31
f 46//45 47//46 48//47
f 49//48 47//46 46//45
f 45//44 16//16 32//32
f 16//16 45//44 11//10
f 30//30 50//49 13//13
f 49//48 50//49 47//46
f 51//50 13//13 50//49
f 32//32 33//33 36//36
f 34//34 6//11 13//13
f 51//50 34//34 13//13
f 34//34 38//51 19//19
f 38//51 34//34 52//52
f 38//51 22//21 19//19
f 53//53 37//37 39//38
f 53//53 54//54 37//37
f 40//39 27//27 54//54
f 55//55 27//27 56//56
f 42//40 29//29 22//21
f 56//56 27//27 41//43
f 42//40 58//57 43//41
f 58//57 42//40 57//58
f 43//41 58//57 60//59
f 64//60 43//41 60//59
f 59//61 44//42 43//41
f 59//61 43//41 62//62
f 43//41 64//60 62//62
f 63//63 64//60 60//59
f 65//64 62//62 64//60
f 66//65 67//66 45//44
f 51//50 50//49 68//67
f 32//32 66//65 45//44
f 32//32 36//36 69//68
f 36//36 37//37 70//69
f 37//37 54//54 70//69
f 57//58 42//40 22//21
f 55//55 54//54 27//27
f 22//21 38//51 57//58
f 72//70 58//57 57//58
f 59//61 71//71 41//43
f 62//62 71//71 59//61
f 41//43 71//71 56//56
f 61//72 60//59 58//57
f 72//70 61//72 58//57
f 73//73 61//72 72//70
f 61//72 63//63 60//59
f 63//63 61//72 73//73
f 74//74 64//60 63//63
f 63//63 73//73 74//74
f 73//73 75//75 74//74
f 71//71 62//62 76//76
f 64//60 74//74 65//64
f 65//64 75//75 77//77
f 74//74 75//75 65//64
f 76//76 62//62 65//64
f 76//76 65//64 78//78
f 65//64 77//77 78//78
f 77//77 79//79 78//78
f 67//66 66//65 80//80
f 80//80 68//67 50//49
f 80//80 50//49 49//48
f 66//65 32//32 81//81
f 81//81 82//82 66//65
f 82//82 80//80 66//65
f 69//68 81//81 32//32
f 83//83 81//81 69//68
f 85//84 83//83 69//68
f 84//85 34//34 51//50
f 36//36 70//69 69//68
f 34//34 84//85 52//52
f 86//86 52//52 84//85
f 55//55 70//69 54//54
f 87//87 55//55 56//56
f 57//58 38//51 88//88
f 89//89 72//70 57//58
f 91//90 77//77 75//75
f 91//90 92//91 77//77
f 95//92 76//76 78//78
f 78//78 93//93 95//92
f 76//76 95//92 96//94
f 77//77 92//91 79//79
f 79//79 94//95 78//78
f 92//91 97//96 79//79
f 97//96 94//95 79//79
f 98//97 95//92 93//93
f 98//97 94//95 97//96
f 95//92 99//98 100//99
f 95//92 98//97 99//98
f 101//100 102//101 103//102
f 98//97 97//96 104//103
f 97//96 92//91 105//104
f 102//101 105//104 92//91
f 98//97 104//103 101//100
f 104//103 102//101 101//100
f 98//97 101//100 99//98
f 103//102 102//101 106//105
f 101//100 107//106 99//98
f 99//98 107//106 108//107
f 109//108 103//102 106//105
f 107//106 101//100 110//109
f 110//109 124//110 107//106
f 103//102 110//109 101//100
f 124//110 108//107 107//106
f 82//82 68//67 80//80
f 68//67 82//82 51//50
f 82//82 84//85 51//50
f 81//81 83//83 82//82
f 69//68 70//69 85//84
f 70//69 113//111 85//84
f 70//69 114//112 113//111
f 88//88 52//52 115//113
f 86//86 115//113 52//52
f 55//55 114//112 70//69
f 52//52 88//88 38//51
f 88//88 89//89 57//58
f 56//56 71//71 87//87
f 87//87 71//71 116//114
f 73//73 72//70 89//89
f 116//114 71//71 90//115
f 71//71 76//76 90//115
f 76//76 96//94 118//116
f 90//115 76//76 118//116
f 119//117 91//90 75//75
f 119//117 120//118 91//90
f 91//90 120//118 92//91
f 100//99 96//94 95//92
f 106//105 102//101 121//119
f 121//119 102//101 92//91
f 100//99 99//98 122//120
f 122//120 108//107 123//121
f 122//120 99//98 108//107
f 103//102 111//122 110//109
f 111//122 103//102 109//108
f 124//110 123//121 108//107
f 124//110 110//109 125//123
f 111//122 126//124 125//123
f 124//110 125//123 127//125
f 128//126 127//125 125//123
f 110//109 111//122 125//123
f 129//127 82//82 83//83
f 82//82 130//128 84//85
f 84//85 130//128 112//129
f 85//84 113//111 131//130
f 129//127 83//83 132//131
f 112//129 130//128 86//86
f 130//128 133//132 86//86
f 133//132 130//128 134//133
f 133//132 115//113 86//86
f 114//112 131//130 113//111
f 55//55 136//134 114//112
f 136//134 55//55 87//87
f 135//135 89//89 88//88
f 117//136 116//114 90//115
f 87//87 116//114 117//136
f 137//137 75//75 73//73
f 138//138 117//136 90//115
f 138//138 90//115 118//116
f 119//117 75//75 137//137
f 139//139 120//118 119//117
f 140//140 118//116 96//94
f 140//140 96//94 100//99
f 120//118 121//119 92//91
f 151//141 121//119 120//118
f 106//105 121//119 151//141
f 109//108 106//105 151//141
f 151//141 152//142 109//108
f 152//142 126//124 109//108
f 111//122 109//108 126//124
f 123//121 124//110 127//125
f 123//121 127//125 153//143
f 122//120 123//121 153//143
f 129//127 132//131 154//144
f 155//145 154//144 132//131
f 131//130 83//83 85//84
f 83//83 131//130 132//131
f 131//130 114//112 132//131
f 88//88 115//113 135//135
f 87//87 117//136 136//134
f 157//146 136//134 117//136
f 158//147 89//89 135//135
f 73//73 89//89 158//147
f 119//117 137//137 159//148
f 159//148 139//139 119//117
f 151//141 120//118 139//139
f 168//149 140//140 100//99
f 168//149 100//99 122//120
f 151//141 169//150 152//142
f 122//120 153//143 168//149
f 125//123 126//124 171//151
f 170//152 153//143 127//125
f 128//126 170//152 127//125
f 172//153 170//152 128//126
f 125//123 171//151 128//126
f 155//145 132//131 173//154
f 114//112 174//155 132//131
f 114//112 156//156 174//155
f 175//157 155//145 173//154
f 115//113 133//132 135//135
f 133//132 176//158 135//135
f 176//158 158//147 135//135
f 158//147 137//137 73//73
f 118//116 177//159 138//138
f 177//159 118//116 140//140
f 178//160 153//143 170//152
f 179//161 171//151 126//124
f 128//126 179//161 180//162
f 128//126 171//151 179//161
f 172//153 128//126 180//162
f 156//156 114//112 136//134
f 136//134 157//146 156//156
f 181//163 182//164 183//165
f 134//133 184//166 133//132
f 133//132 184//166 176//158
f 155//145 175//157 185//167
f 176//158 184//166 181//163
f 182//164 181//163 186//168
f 176//158 181//163 187//169
f 188//170 157//146 117//136
f 176//158 187//169 158//147
f 188//170 117//136 189//171
f 137//137 158//147 187//169
f 190//172 137//137 187//169
f 189//171 117//136 138//138
f 177//159 191//173 138//138
f 192//174 151//141 139//139
f 193//175 192//174 139//139
f 139//139 159//148 193//175
f 194//176 191//173 177//159
f 177//159 140//140 194//176
f 140//140 168//149 194//176
f 126//124 152//142 179//161
f 179//161 152//142 169//150
f 172//153 178//160 170//152
f 196//177 178//160 172//153
f 196//177 172//153 180//162
f 197//178 180//162 179//161
f 156//156 157//146 198//179
f 183//165 182//164 198//179
f 181//163 183//165 187//169
f 198//179 157//146 188//170
f 199//180 189//171 200//181
f 189//171 138//138 200//181
f 190//172 159//148 137//137
f 201//182 191//173 202//183
f 201//182 200//181 138//138
f 201//182 138//138 191//173
f 202//183 203//184 201//182
f 159//148 190//172 193//175
f 191//173 204//185 202//183
f 205//186 192//174 193//175
f 205//186 193//175 206//187
f 207//188 192//174 205//186
f 208//189 191//173 194//176
f 192//174 169//150 151//141
f 209//190 194//176 168//149
f 210//191 169//150 192//174
f 168//149 195//192 211//193
f 212//194 196//177 210//191
f 212//194 210//191 213//195
f 169//150 210//191 197//178
f 179//161 169//150 197//178
f 196//177 180//162 210//191
f 197//178 210//191 180//162
f 215//196 198//179 188//170
f 198//179 216//197 183//165
f 217//198 214//199 183//165
f 190//172 187//169 183//165
f 218//200 188//170 189//171
f 215//196 188//170 218//200
f 218//200 189//171 199//180
f 220//201 200//181 201//182
f 199//180 200//181 220//201
f 220//201 221//202 219//203
f 219//203 193//175 190//172
f 219//203 221//202 193//175
f 222//204 221//202 220//201
f 222//204 223//205 221//202
f 203//184 202//183 224//206
f 193//175 221//202 206//187
f 221//202 225//207 206//187
f 226//208 227//209 228//210
f 227//209 226//208 229//211
f 205//186 206//187 230//212
f 208//189 204//185 191//173
f 231//213 205//186 230//212
f 230//212 232//214 233//215
f 192//174 207//188 234//216
f 231//213 230//212 233//215
f 235//217 231//213 233//215
f 235//217 213//195 237//218
f 213//195 235//217 236//219
f 192//174 234//216 238//220
f 235//217 237//218 231//213
f 236//219 194//176 209//190
f 213//195 236//219 209//190
f 213//195 238//220 237//218
f 238//220 213//195 192//174
f 192//174 213//195 210//191
f 211//193 209//190 168//149
f 213//195 239//221 212//194
f 215//196 216//197 198//179
f 217//198 183//165 216//197
f 190//172 217//198 219//203
f 215//196 218//200 240//222
f 199//180 241//223 218//200
f 242//224 216//197 215//196
f 218//200 241//223 240//222
f 216//197 242//224 243//225
f 216//197 243//225 217//198
f 219//203 217//198 243//225
f 199//180 243//225 242//224
f 243//225 220//201 219//203
f 220//201 243//225 199//180
l 164 165
l 149 150
l 166 167
l 145 146
l 143 144
l 160 161
l 162 163
l 141 142
l 147 148
