#
# The license for this database is specified in the Creative Commons Attribution-Share Alike 2.1 Japan. If you use data from this database, please be sure attribute this database as follows: "BodyParts3D, (c)  The Database Center for Life Science licensed under CC Attribution-Share Alike 2.1 Japan".
# http://dbarchive.biosciencedbc.jp/en/bodyparts3d/lic.html
#
#
# Compatibility version : 4.0
# File ID : FJ2471
# Representation ID : BP9474
# Build-up logic : FMA 3.0 part_of
# Concept ID : FMA68222
# English name : Left anterior segmental bronchial tree
# Bounds(mm): (80.158800,-127.303000,1279.130000)-(85.345300,-116.573000,1282.590000)
# Volume(cm3): 0.027700
#
v 80.1588 -117.286 1280.59
v 80.3832 -117.993 1280.64
v 80.3623 -117.097 1280.96
v 80.3853 -117.545 1280.94
v 80.8805 -116.96 1280.76
v 81.5207 -116.573 1281.22
v 82.1749 -116.999 1279.69
v 82.187 -116.586 1280.69
v 82.1717 -116.791 1281.02
v 82.0783 -117.073 1281.28
v 82.5207 -116.783 1280.09
v 82.4966 -117.131 1280.78
v 80.4349 -117.77 1279.61
v 80.9292 -117.509 1279.46
v 81.1604 -118.018 1279.3
v 81.8241 -117.362 1279.13
v 81.7845 -117.858 1279.23
v 82.1375 -117.584 1279.36
v 81.0426 -117.167 1281.4
v 81.4208 -117.286 1281.54
v 81.9772 -117.46 1281.51
v 80.8408 -117.566 1281.4
v 81.7312 -120.643 1282.18
v 82.3712 -119.947 1280.12
v 82.2712 -120.928 1280.44
v 83.1568 -120.126 1280.73
v 82.8144 -121.343 1280.59
v 81.8761 -121.747 1281.11
v 82.3564 -120.772 1282.49
v 82.7128 -122.05 1280.75
v 83.0802 -120.257 1282.15
v 83.2562 -121.835 1280.83
v 83.3239 -121.893 1282.52
v 83.8051 -121.878 1281.95
v 82.3922 -123.371 1281.87
v 82.7353 -124.174 1281.5
v 82.9289 -123.238 1282.59
v 83.0858 -124.028 1281.02
v 83.7153 -123.783 1280.91
v 83.6813 -124.581 1280.84
v 84.1945 -124.587 1280.9
v 84.4233 -123.95 1281.44
v 83.7416 -125.659 1280.8
v 83.5796 -125.983 1281.01
v 83.7218 -126.587 1281.24
v 83.915 -126.87 1280.92
v 84.2247 -127.031 1280.55
v 84.0998 -127.303 1281.16
v 84.0945 -127.203 1281.5
v 84.36 -126.853 1281.85
v 85.0216 -126.296 1280.66
v 84.6567 -126.517 1281.93
v 84.7171 -127.094 1281.78
v 85.3095 -126.712 1280.82
v 85.2152 -126.178 1281.22
v 85.3453 -126.848 1281.42
v 80.1588 -117.286 1280.59
v 80.3623 -117.097 1280.96
v 81.5207 -116.573 1281.22
v 82.1749 -116.999 1279.69
v 82.187 -116.586 1280.69
v 82.5207 -116.783 1280.09
v 82.5207 -116.783 1280.09
v 80.4349 -117.77 1279.61
v 80.4349 -117.77 1279.61
v 80.4349 -117.77 1279.61
v 80.9292 -117.509 1279.46
v 81.8241 -117.362 1279.13
v 81.8241 -117.362 1279.13
v 81.8241 -117.362 1279.13
v 81.8761 -121.747 1281.11
v 83.8051 -121.878 1281.95
v 84.1945 -124.587 1280.9
v 84.2247 -127.031 1280.55
v 84.0998 -127.303 1281.16
v 84.0945 -127.203 1281.5
v 85.0216 -126.296 1280.66
v 84.7171 -127.094 1281.78
v 84.7171 -127.094 1281.78
v 85.3095 -126.712 1280.82
v 85.3095 -126.712 1280.82
v 85.3453 -126.848 1281.42
vn -0.936486 -0.22084 0.27244
vn -0.942063 -0.316269 0.111766
vn -0.677093 0.136644 0.7231
vn -0.860924 -0.162229 0.482174
vn -0.307786 0.885278 -0.34864
vn -0.309447 0.893972 -0.324125
vn -0.251702 0.891775 -0.37601
vn -0.242496 0.885952 -0.395329
vn 0.628346 0.532847 0.566794
vn 0.456707 0.436857 0.774967
vn 0.821587 0.184374 -0.539445
vn 0.844029 0.407916 0.348166
vn -0.930947 -0.344366 -0.121449
vn -0.356997 0.134996 -0.924299
vn -0.293708 -0.211389 -0.932228
vn -0.28777 0.875809 -0.387488
vn 0.235141 -0.268807 -0.934051
vn 0.64888 0.0208518 -0.760605
vn -0.352893 0.320065 0.879219
vn -0.049222 0.327999 0.943395
vn 0.254863 0.35822 0.898178
vn -0.492421 0.130421 0.86053
vn -0.730936 -0.120202 0.671777
vn 0.378922 -0.223299 -0.898084
vn -0.0968669 -0.365946 -0.925581
vn 0.802801 -0.00122856 -0.596245
vn 0.154853 -0.258055 -0.953639
vn -0.5094 -0.380222 -0.771973
vn -0.11307 0.165965 0.979628
vn -0.0985324 -0.219889 -0.970536
vn 0.595937 0.338215 0.728333
vn 0.567506 -0.000712115 -0.823369
vn 0.47349 0.13199 0.870853
vn 0.861768 0.268995 0.430113
vn -0.905479 -0.362895 0.220035
vn -0.874305 -0.32931 -0.356574
vn -0.34143 -0.200445 0.918285
vn -0.474858 -0.14157 -0.868601
vn 0.209794 0.0913726 -0.973467
vn -0.118271 0.0883267 -0.989045
vn 0.60346 0.381668 -0.700118
vn 0.771099 0.336154 -0.540747
vn -0.525731 -0.0618123 -0.848402
vn -0.801584 -0.22959 -0.552043
vn -0.913355 -0.40241 -0.0620446
vn -0.85089 -0.395247 -0.346071
vn -0.457404 -0.17917 -0.871022
vn -0.854671 -0.500969 -0.136262
vn -0.692278 -0.475764 0.542586
vn -0.196934 -0.36682 0.909208
vn 0.703924 0.379586 -0.600337
vn 0.305527 -0.118242 0.944813
vn 0.199636 -0.971384 0.128683
vn 0.916591 0.306427 -0.256833
vn 0.951637 0.293487 -0.0908457
vn 0.831195 0.116177 0.543707
vn -0.344488 0.850295 -0.397902
vn -0.341865 0.898322 -0.275945
vn 0.116733 0.554724 0.823805
vn 0.651764 0.337471 -0.679203
vn 0.690673 0.611953 0.385336
vn -0.136486 0.916207 -0.376744
vn 0.881015 0.408583 0.238479
vn -0.349921 0.138891 -0.926426
vn -0.516841 0.700779 -0.491716
vn -0.478245 -0.457014 -0.749947
vn -0.369525 0.827802 -0.422132
vn -0.221543 -0.0265293 -0.97479
vn 0.699932 0.313484 -0.641734
vn 0.488482 -0.202036 -0.848862
vn -0.916361 -0.371062 -0.150321
vn 0.89753 0.210994 -0.387198
vn 0.108074 0.135701 -0.984838
vn 0.3402 -0.882778 -0.323987
vn 0.28701 -0.954775 -0.0776559
vn 0.0407107 -0.958392 0.282539
vn 0.140866 0.049047 -0.988813
vn -0.107225 -0.430469 0.896214
vn 0.536217 -0.155166 0.829696
vn 0.283901 -0.166507 -0.944286
vn 0.358371 -0.892026 -0.275425
vn 0.36398 -0.922368 -0.129444
g grp1
usemtl mtl1
f 1//1 13//13 2//2 
f 3//3 1//1 4//4 
f 2//2 4//4 1//1 
f 6//6 5//5 58//58 
f 3//3 19//19 59//59 
f 8//8 7//7 57//57 
f 8//8 5//5 6//6 
f 59//59 21//21 10//10 
f 61//61 59//59 9//9 
f 9//9 59//59 10//10 
f 11//11 18//18 60//60 
f 8//8 62//62 7//7 
f 63//63 61//61 12//12 
f 9//9 31//31 12//12 
f 9//9 12//12 61//61 
f 9//9 10//10 31//31 
f 10//10 21//21 31//31 
f 63//63 12//12 34//34 
f 14//14 15//15 64//64 
f 67//67 65//65 57//57 
f 5//5 57//57 58//58 
f 66//66 15//15 28//28 
f 23//23 4//4 2//2 
f 28//28 15//15 25//25 
f 71//71 2//2 13//13 
f 7//7 16//16 67//67 
f 14//14 68//68 15//15 
f 15//15 68//68 17//17 
f 7//7 67//67 57//57 
f 57//57 5//5 8//8 
f 60//60 18//18 69//69 
f 18//18 17//17 70//70 
f 15//15 17//17 25//25 
f 18//18 24//24 17//17 
f 25//25 17//17 24//24 
f 26//26 18//18 11//11 
f 11//11 72//72 26//26 
f 26//26 24//24 18//18 
f 19//19 3//3 22//22 
f 19//19 22//22 29//29 
f 20//20 59//59 19//19 
f 19//19 29//29 20//20 
f 21//21 59//59 20//20 
f 3//3 4//4 23//23 
f 22//22 3//3 23//23 
f 22//22 23//23 29//29 
f 29//29 21//21 20//20 
f 29//29 31//31 21//21 
f 2//2 35//35 23//23 
f 31//31 34//34 12//12 
f 26//26 32//32 24//24 
f 27//27 25//25 24//24 
f 24//24 32//32 27//27 
f 25//25 27//27 30//30 
f 27//27 32//32 30//30 
f 32//32 26//26 72//72 
f 35//35 2//2 71//71 
f 71//71 36//36 35//35 
f 37//37 23//23 35//35 
f 28//28 25//25 30//30 
f 23//23 37//37 29//29 
f 30//30 38//38 28//28 
f 31//31 29//29 33//33 
f 32//32 39//39 30//30 
f 30//30 39//39 38//38 
f 29//29 37//37 33//33 
f 72//72 42//42 32//32 
f 32//32 42//42 39//39 
f 34//34 31//31 33//33 
f 28//28 38//38 36//36 
f 36//36 45//45 35//35 
f 39//39 40//40 38//38 
f 45//45 49//49 35//35 
f 37//37 35//35 49//49 
f 38//38 43//43 44//44 
f 36//36 38//38 44//44 
f 36//36 44//44 45//45 
f 42//42 41//41 39//39 
f 39//39 73//73 40//40 
f 43//43 38//38 40//40 
f 37//37 49//49 50//50 
f 33//33 37//37 52//52 
f 50//50 52//52 37//37 
f 41//41 42//42 51//51 
f 34//34 33//33 56//56 
f 43//43 47//47 44//44 
f 43//43 40//40 47//47 
f 44//44 46//46 45//45 
f 73//73 77//77 40//40 
f 77//77 47//47 40//40 
f 44//44 47//47 46//46 
f 47//47 48//48 46//46 
f 46//46 48//48 45//45 
f 48//48 49//49 45//45 
f 75//75 53//53 76//76 
f 50//50 49//49 78//78 
f 33//33 52//52 56//56 
f 50//50 78//78 52//52 
f 42//42 54//54 51//51 
f 77//77 80//80 47//47 
f 42//42 72//72 55//55 
f 42//42 55//55 54//54 
f 74//74 81//81 75//75 
f 34//34 56//56 55//55 
f 55//55 56//56 54//54 
f 81//81 82//82 75//75 
f 75//75 82//82 53//53 
f 56//56 52//52 79//79 
