#
# The license for this database is specified in the Creative Commons Attribution-Share Alike 2.1 Japan. If you use data from this database, please be sure attribute this database as follows: "BodyParts3D, (c)  The Database Center for Life Science licensed under CC Attribution-Share Alike 2.1 Japan".
# http://dbarchive.biosciencedbc.jp/en/bodyparts3d/lic.html
#
#
# Compatibility version : 4.0
# File ID : FJ2526
# Representation ID : BP9592
# Build-up logic : FMA 3.0 part_of
# Concept ID : FMA68211
# English name : Right apical segmental bronchial tree
# Bounds(mm): (-36.785700,-81.961300,1338.760000)-(-32.088900,-75.842500,1347.850000)
# Volume(cm3): 0.019500
#
v -36.7606 -77.1101 1339.8
v -36.7857 -77.0343 1339.27
v -36.5868 -77.2477 1339.14
v -36.7043 -76.4981 1340.07
v -36.6762 -76.2758 1339.92
v -36.4352 -76.3032 1340.3
v -36.4515 -76.0402 1340.08
v -36.7696 -76.6655 1339.98
v -36.0551 -78.4262 1341.99
v -36.3161 -77.2396 1338.94
v -36.3125 -77.339 1338.95
v -36.0292 -77.3391 1338.82
v -36.3374 -76.0137 1340.16
v -36.2538 -76.0167 1340.05
v -36.1052 -76.053 1340.3
v -36.1421 -75.9004 1340.12
v -35.8267 -75.967 1340.24
v -35.6494 -75.8425 1340.04
v -35.8809 -78.4288 1340.26
v -35.8806 -78.8218 1340.91
v -36.0057 -77.9001 1341.83
v -35.859 -79.1887 1341.83
v -35.3125 -79.6559 1341.9
v -35.6655 -77.5997 1341.85
v -35.9856 -78.9054 1342.08
v -35.6889 -79.3368 1342.9
v -35.2951 -78.8629 1343.23
v -35.18 -80.2558 1343.18
v -35.3266 -79.2917 1343.57
v -34.9444 -79.3527 1344.02
v -35.1785 -80.3137 1343.71
v -34.8366 -80.1703 1344.89
v -34.7298 -80.6585 1345.05
v -35.636 -77.2342 1338.76
v -35.1924 -77.4199 1339.29
v -35.2566 -76.8789 1338.99
v -35.2089 -77.0103 1338.91
v -34.9397 -76.5987 1339.25
v -35.7052 -77.4228 1338.94
v -35.495 -76.1909 1340.38
v -35.257 -76.0667 1340.02
v -35.1843 -75.9999 1339.77
v -35.1209 -76.2398 1340.05
v -34.9855 -76.3486 1339.81
v -34.8998 -76.5516 1339.72
v -34.9401 -76.3945 1339.35
v -35.2134 -78.8789 1340.78
v -34.879 -78.8106 1340.91
v -34.6603 -78.2179 1342.34
v -34.5242 -78.2645 1342.08
v -34.7994 -80.086 1342.51
v -34.6317 -79.8783 1342.29
v -34.968 -78.3699 1342.77
v -34.7419 -80.5526 1343.38
v -34.7243 -78.9576 1343.55
v -34.3426 -79.1026 1343.58
v -34.2297 -79.3834 1344.19
v -34.6877 -80.8488 1344.31
v -34.2925 -80.6857 1343.62
v -34.455 -79.5083 1344.53
v -34.4625 -79.9211 1345.2
v -33.7732 -80.1421 1346.17
v -33.9891 -81.3651 1346.17
v -33.6048 -81.1595 1347.48
v -34.2759 -79.0906 1342.2
v -34.1895 -79.1124 1343.08
v -33.8294 -79.887 1343.52
v -34.0684 -80.1918 1343.22
v -33.8029 -79.6666 1344.31
v -33.6931 -79.8709 1345.33
v -33.8388 -81.3472 1345.22
v -33.2696 -81.3994 1345.6
v -33.3075 -80.8044 1347.8
v -32.9186 -80.5946 1347.85
v -32.839 -80.4511 1347.44
v -33.4207 -81.5095 1347.75
v -33.3136 -81.4031 1347.85
v -32.9585 -81.9613 1347.5
v -32.1696 -81.5114 1347.15
v -32.7561 -81.896 1347.13
v -32.5326 -81.8396 1347.15
v -32.3859 -80.5975 1347.55
v -32.3667 -80.7233 1347.54
v -32.3636 -80.6915 1347
v -32.2281 -81.1928 1347.35
v -32.0889 -80.9718 1347.31
v -32.5799 -81.9336 1347.33
v -36.7857 -77.0343 1339.27
v -36.7857 -77.0343 1339.27
v -36.5868 -77.2477 1339.14
v -36.6762 -76.2758 1339.92
v -36.4515 -76.0402 1340.08
v -36.4515 -76.0402 1340.08
v -36.3161 -77.2396 1338.94
v -36.3125 -77.339 1338.95
v -36.0292 -77.3391 1338.82
v -36.0292 -77.3391 1338.82
v -36.3374 -76.0137 1340.16
v -36.3374 -76.0137 1340.16
v -36.2538 -76.0167 1340.05
v -36.1421 -75.9004 1340.12
v -35.6494 -75.8425 1340.04
v -35.636 -77.2342 1338.76
v -35.2089 -77.0103 1338.91
v -34.9397 -76.5987 1339.25
v -35.1843 -75.9999 1339.77
v -34.9401 -76.3945 1339.35
v -34.9401 -76.3945 1339.35
v -34.1895 -79.1124 1343.08
v -33.8294 -79.887 1343.52
v -33.8029 -79.6666 1344.31
v -33.3075 -80.8044 1347.8
v -32.9186 -80.5946 1347.85
v -32.9186 -80.5946 1347.85
v -33.4207 -81.5095 1347.75
v -33.3136 -81.4031 1347.85
v -33.3136 -81.4031 1347.85
v -33.3136 -81.4031 1347.85
v -32.9585 -81.9613 1347.5
v -32.9585 -81.9613 1347.5
v -32.1696 -81.5114 1347.15
v -32.3859 -80.5975 1347.55
v -32.0889 -80.9718 1347.31
v -32.0889 -80.9718 1347.31
v -32.5799 -81.9336 1347.33
vn -0.967022 -0.245997 0.0659789
vn -0.97304 -0.218074 -0.0750788
vn -0.662667 -0.671399 -0.331807
vn -0.835508 0.301404 0.459437
vn -0.929757 0.309356 0.199625
vn -0.622097 0.463328 0.631127
vn -0.702694 0.447686 0.552991
vn -0.981254 0.0599527 0.183158
vn -0.903316 0.0895937 0.419516
vn -0.53458 -0.0905613 -0.840251
vn -0.504616 -0.104586 -0.856986
vn -0.41476 -0.106038 -0.903731
vn -0.425863 0.593767 0.682701
vn -0.282885 0.696892 -0.659028
vn -0.193248 0.697531 0.690004
vn -0.367609 0.705003 -0.606494
vn 0.0433591 0.756913 0.652075
vn -0.202557 0.66362 -0.720124
vn -0.309643 -0.791932 -0.526275
vn -0.568681 -0.736029 -0.367238
vn -0.675291 0.41541 0.60944
vn -0.804155 -0.579564 -0.132065
vn -0.329565 -0.83289 -0.444615
vn -0.275864 0.641678 0.715645
vn -0.952263 -0.253722 0.169769
vn -0.937624 -0.0863321 0.33676
vn -0.374972 0.651949 0.659059
vn -0.608153 -0.765972 -0.208415
vn -0.735419 0.393102 0.551932
vn -0.355037 0.73715 0.574943
vn -0.856138 -0.512047 0.0695309
vn -0.857468 0.204949 0.471958
vn -0.898109 -0.341075 0.27761
vn -0.150672 0.564489 -0.811572
vn 0.61831 -0.528246 -0.581935
vn 0.038478 0.576545 -0.816159
vn 0.116903 0.528846 -0.840628
vn 0.269148 0.481364 -0.834175
vn 0.127332 -0.74151 -0.658749
vn 0.225016 0.737736 0.636485
vn 0.559839 0.699702 0.443844
vn 0.738791 0.621618 0.260345
vn 0.768277 0.5568 0.315791
vn 0.898833 0.419697 0.126305
vn 0.947856 0.314076 0.0540893
vn -0.192878 0.661132 -0.725053
vn 0.134958 -0.775838 -0.616329
vn 0.526838 -0.607289 -0.594678
vn 0.611444 0.675997 0.411295
vn 0.873557 0.457503 0.166101
vn 0.0492843 -0.84297 -0.535698
vn 0.393686 -0.716 -0.576503
vn 0.0881915 0.794115 0.601334
vn -0.235149 -0.899462 -0.368338
vn 0.0770166 0.857392 0.508868
vn 0.464969 0.810818 0.355496
vn 0.31472 0.892772 0.322351
vn -0.591067 -0.802708 -0.079372
vn 0.248309 -0.832768 -0.494814
vn -0.107625 0.884626 0.453711
vn -0.519128 0.683639 0.512975
vn -0.225397 0.892569 0.390534
vn -0.647286 -0.758299 0.0774876
vn -0.848798 0.0397627 0.52722
vn 0.979637 0.16303 -0.117184
vn 0.705874 0.671563 0.225265
vn 0.865376 0.476746 -0.154394
vn 0.754092 -0.43091 -0.495643
vn 0.497551 0.848399 0.180726
vn 0.280829 0.940497 0.191311
vn -0.136346 -0.953693 -0.268104
vn 0.414504 -0.78759 -0.455949
vn -0.673391 0.510422 0.534802
vn -0.171134 0.0836087 0.981694
vn 0.0714911 0.956222 0.283777
vn -0.850172 -0.344561 0.398103
vn -0.171134 0.0836087 0.981694
vn -0.306497 -0.948208 -0.0834343
vn 0.774498 -0.455544 -0.4389
vn 0.114824 -0.944655 -0.307316
vn 0.455578 -0.810218 -0.368777
vn 0.487516 0.869008 0.0845732
vn 0.525551 -0.104653 0.844301
vn 0.6885 0.719313 -0.0925064
vn 0.546121 -0.250932 0.79924
vn 0.782468 0.605345 -0.145947
vn 0.487174 -0.265237 0.832052
vn -0.223511 0.652665 -0.723928
vn -0.592015 -0.0622858 -0.803517
vn -0.590772 -0.0821895 -0.802641
vn -0.198689 0.666249 -0.718773
vn -0.179687 0.664007 -0.725815
vn -0.135 0.981939 -0.132554
vn -0.222202 0.573503 -0.788493
vn -0.40379 -0.76457 -0.502381
vn -0.238809 0.385999 -0.891053
vn -0.0532829 -0.776383 -0.628005
vn -0.135 0.981939 -0.132554
vn -0.518 0.743222 -0.423433
vn -0.135 0.981939 -0.132554
vn -0.131892 0.778471 0.613667
vn 0.290253 0.799961 0.525182
vn 0.353194 -0.668765 -0.654222
vn 0.719777 -0.438264 -0.538374
vn 0.95243 -0.0879055 -0.291804
vn -0.194959 0.659412 -0.726063
vn 0.337472 0.414459 -0.845184
vn 0.954195 0.298614 -0.018478
vn 0.935556 0.338993 -0.0990868
vn 0.878945 -0.156758 -0.450426
vn 0.861738 0.480638 -0.162462
vn -0.171134 0.0836087 0.981694
vn -0.128387 0.9132 0.386759
vn 0.457495 -0.173376 0.872146
vn -0.150665 -0.592158 0.791611
vn 0.431611 -0.252077 0.866123
vn -0.75456 0.093425 0.649547
vn -0.150665 -0.592158 0.791611
vn -0.150665 -0.592158 0.791611
vn 0.410132 -0.282736 0.867094
vn 0.653132 -0.311156 0.690363
vn 0.563325 -0.0118825 0.82615
vn 0.907567 -0.0112398 -0.419758
vn 0.613661 -0.16053 0.773079
vn 0.319214 -0.909227 -0.267223
g grp1
usemtl mtl1
f 5//5 2//2 8//8 
f 8//8 2//2 1//1 
f 22//22 2//2 3//3 
f 5//5 8//8 4//4 
f 9//9 4//4 8//8 
f 4//4 9//9 21//21 
f 7//7 5//5 4//4 
f 7//7 4//4 6//6 
f 91//91 92//92 14//14 
f 7//7 6//6 13//13 
f 93//93 98//98 100//100 
f 1//1 25//25 8//8 
f 2//2 22//22 1//1 
f 1//1 22//22 25//25 
f 25//25 9//9 8//8 
f 21//21 6//6 4//4 
f 9//9 25//25 26//26 
f 21//21 9//9 29//29 
f 9//9 26//26 29//29 
f 90//90 10//10 11//11 
f 88//88 91//91 94//94 
f 10//10 90//90 89//89 
f 10//10 12//12 11//11 
f 34//34 96//96 94//94 
f 34//34 94//94 91//91 
f 97//97 103//103 39//39 
f 19//19 95//95 97//97 
f 3//3 95//95 19//19 
f 19//19 97//97 47//47 
f 47//47 97//97 39//39 
f 99//99 16//16 14//14 
f 24//24 15//15 13//13 
f 13//13 15//15 101//101 
f 16//16 18//18 14//14 
f 102//102 101//101 17//17 
f 17//17 101//101 15//15 
f 91//91 14//14 18//18 
f 40//40 102//102 17//17 
f 102//102 41//41 42//42 
f 91//91 18//18 106//106 
f 41//41 102//102 40//40 
f 22//22 3//3 20//20 
f 19//19 20//20 3//3 
f 17//17 15//15 24//24 
f 40//40 17//17 24//24 
f 23//23 20//20 19//19 
f 23//23 19//19 47//47 
f 6//6 21//21 24//24 
f 24//24 13//13 6//6 
f 23//23 22//22 20//20 
f 24//24 27//27 40//40 
f 53//53 40//40 27//27 
f 25//25 31//31 26//26 
f 31//31 25//25 22//22 
f 23//23 28//28 22//22 
f 27//27 24//24 21//21 
f 27//27 21//21 29//29 
f 26//26 31//31 33//33 
f 22//22 28//28 31//31 
f 30//30 27//27 29//29 
f 26//26 33//33 32//32 
f 31//31 58//58 33//33 
f 58//58 31//31 28//28 
f 26//26 32//32 29//29 
f 58//58 63//63 33//33 
f 36//36 34//34 91//91 
f 34//34 36//36 37//37 
f 104//104 35//35 103//103 
f 36//36 91//91 46//46 
f 37//37 36//36 38//38 
f 36//36 107//107 38//38 
f 35//35 104//104 68//68 
f 68//68 104//104 105//105 
f 103//103 47//47 39//39 
f 41//41 40//40 49//49 
f 91//91 106//106 46//46 
f 44//44 108//108 42//42 
f 43//43 44//44 42//42 
f 41//41 43//43 42//42 
f 44//44 45//45 108//108 
f 44//44 65//65 45//45 
f 45//45 65//65 108//108 
f 35//35 68//68 48//48 
f 103//103 35//35 48//48 
f 41//41 49//49 43//43 
f 43//43 50//50 44//44 
f 44//44 50//50 65//65 
f 105//105 108//108 65//65 
f 103//103 48//48 47//47 
f 50//50 43//43 49//49 
f 53//53 49//49 40//40 
f 56//56 49//49 53//53 
f 50//50 49//49 66//66 
f 65//65 50//50 109//109 
f 52//52 48//48 68//68 
f 54//54 23//23 51//51 
f 51//51 23//23 47//47 
f 47//47 52//52 51//51 
f 52//52 47//47 48//48 
f 53//53 27//27 30//30 
f 49//49 56//56 66//66 
f 55//55 53//53 30//30 
f 56//56 69//69 66//66 
f 54//54 28//28 23//23 
f 51//51 59//59 54//54 
f 51//51 52//52 59//59 
f 55//55 30//30 60//60 
f 55//55 56//56 53//53 
f 57//57 55//55 60//60 
f 57//57 56//56 55//55 
f 69//69 56//56 57//57 
f 28//28 54//54 58//58 
f 58//58 54//54 71//71 
f 54//54 59//59 71//71 
f 59//59 72//72 71//71 
f 52//52 68//68 59//59 
f 29//29 32//32 61//61 
f 30//30 29//29 61//61 
f 30//30 61//61 60//60 
f 57//57 60//60 70//70 
f 73//73 61//61 32//32 
f 63//63 76//76 33//33 
f 76//76 64//64 33//33 
f 58//58 71//71 63//63 
f 61//61 73//73 62//62 
f 61//61 62//62 60//60 
f 70//70 60//60 62//62 
f 32//32 33//33 64//64 
f 64//64 73//73 32//32 
f 63//63 78//78 76//76 
f 68//68 105//105 65//65 
f 67//67 65//65 109//109 
f 65//65 110//110 68//68 
f 109//109 111//111 67//67 
f 69//69 57//57 70//70 
f 84//84 67//67 111//111 
f 70//70 84//84 69//69 
f 68//68 72//72 59//59 
f 82//82 84//84 70//70 
f 72//72 80//80 71//71 
f 63//63 71//71 78//78 
f 80//80 78//78 71//71 
f 74//74 112//112 77//77 
f 73//73 113//113 62//62 
f 116//116 87//87 114//114 
f 70//70 62//62 75//75 
f 113//113 75//75 62//62 
f 82//82 70//70 75//75 
f 64//64 76//76 117//117 
f 73//73 64//64 117//117 
f 119//119 118//118 115//115 
f 87//87 116//116 120//120 
f 80//80 125//125 78//78 
f 79//79 68//68 110//110 
f 79//79 72//72 68//68 
f 67//67 84//84 86//86 
f 110//110 123//123 79//79 
f 80//80 72//72 81//81 
f 81//81 125//125 80//80 
f 79//79 125//125 81//81 
f 72//72 79//79 81//81 
f 82//82 75//75 113//113 
f 114//114 87//87 85//85 
f 114//114 85//85 83//83 
f 83//83 122//122 114//114 
f 86//86 84//84 82//82 
f 124//124 122//122 83//83 
f 85//85 124//124 83//83 
f 85//85 87//87 121//121 
f 121//121 124//124 85//85 
