#
# The license for this database is specified in the Creative Commons Attribution-Share Alike 2.1 Japan. If you use data from this database, please be sure attribute this database as follows: "BodyParts3D, (c)  The Database Center for Life Science licensed under CC Attribution-Share Alike 2.1 Japan".
# http://dbarchive.biosciencedbc.jp/en/bodyparts3d/lic.html
#
#
# Compatibility version : 4.0
# File ID : FJ2511
# Representation ID : BP9525
# Build-up logic : FMA 3.0 part_of
# Concept ID : FMA68212
# English name : Right anterior segmental bronchial tree
# Bounds(mm): (-82.208200,-106.126000,1271.140000)-(-75.937400,-98.436900,1280.620000)
# Volume(cm3): 0.050300
#
v -81.8182 -104.417 1271.59
v -81.625 -104.499 1271.22
v -81.5589 -104.312 1271.46
v -82.0566 -104.684 1271.55
v -82.2082 -104.961 1271.74
v -82.1624 -104.886 1272.07
v -82.0674 -104.909 1271.64
v -82.1777 -105.204 1272.12
v -82.108 -105.307 1272.3
v -82.0506 -105.453 1272.34
v -82.1056 -105.586 1272.12
v -82.0279 -105.664 1272.22
v -81.412 -103.31 1273.17
v -81.8777 -104.24 1273.21
v -81.7021 -103.676 1273.5
v -81.3643 -102.964 1274.02
v -81.2599 -102.705 1274.65
v -81.4769 -103.25 1274.45
v -81.5486 -103.594 1274.37
v -81.6477 -104.09 1274.01
v -80.9949 -102.251 1275.6
v -80.7695 -101.906 1275.22
v -81.2131 -103.048 1275.34
v -80.7146 -101.805 1276.26
v -80.9487 -102.353 1275.95
v -81.4017 -104.464 1271.14
v -80.8955 -104.526 1271.14
v -81.7944 -105.656 1272.07
v -81.8763 -105.843 1272.22
v -81.8368 -105.744 1272.4
v -81.6934 -105.927 1272.22
v -81.6713 -105.893 1272.38
v -81.3049 -105.791 1272.72
v -80.898 -102.801 1273.46
v -80.1132 -101.952 1274.42
v -81.3108 -104.682 1274.11
v -80.6025 -101.86 1274.91
v -80.1204 -101.328 1275.41
v -81.2814 -103.928 1274.82
v -80.8422 -103.834 1275.47
v -80.7328 -104.129 1275.24
v -80.2953 -101.125 1276.38
v -80.0275 -100.926 1276.17
v -80.6691 -101.663 1275.85
v -80.5569 -101.495 1276.33
v -80.8171 -102.55 1276.31
v -80.7249 -102.797 1276.4
v -80.5808 -103.063 1276.41
v -79.6496 -100.321 1277.21
v -80.2597 -101.167 1277.16
v -80.0191 -100.755 1277.24
v -80.5823 -101.737 1276.71
v -80.4415 -101.802 1277.09
v -80.3444 -102.201 1277.21
v -79.711 -100.438 1278.01
v -80.0513 -101.023 1277.68
v -79.9479 -101.487 1277.99
v -79.6384 -100.73 1278.48
v -80.5122 -104.865 1271.18
v -80.5159 -104.969 1271.18
v -80.3303 -104.902 1271.44
v -80.398 -105.213 1271.32
v -80.331 -105.354 1271.41
v -80.1878 -105.243 1271.78
v -80.2772 -105.458 1271.63
v -80.4491 -105.578 1271.59
v -80.3923 -105.746 1271.76
v -80.531 -105.935 1271.85
v -80.3432 -105.676 1271.99
v -80.2767 -105.552 1271.84
v -81.2327 -106.126 1272.23
v -81.1382 -106.053 1272.14
v -81.0101 -106.09 1272.24
v -80.6629 -106.005 1272.05
v -79.4075 -102.701 1273.98
v -79.1702 -101.183 1275.42
v -80.3337 -103.902 1275.73
v -79.2931 -100.068 1277.14
v -79.0529 -100.06 1276.92
v -79.578 -102.881 1277.33
v -80.1016 -103.099 1276.81
v -79.8355 -101.924 1277.99
v -79.6224 -102.162 1278.04
v -79.3312 -100.149 1278.84
v -78.1174 -98.563 1279.32
v -78.3844 -98.8007 1279.6
v -79.1448 -100.693 1279.29
v -79.0711 -101.246 1279.15
v -78.5821 -99.1729 1279.78
v -78.3551 -99.0481 1279.89
v -78.569 -99.4745 1280.08
v -78.5726 -99.8008 1280.19
v -79.6337 -104.349 1273.23
v -79.2568 -103.378 1273.93
v -79.7453 -104.637 1273.2
v -79.1655 -103.604 1274.27
v -79.6048 -104.395 1274.23
v -78.5119 -101.378 1275.64
v -78.4364 -101.616 1275.6
v -78.4884 -102.351 1275.38
v -79.6834 -104.086 1275.34
v -78.6051 -103.075 1276.32
v -79.4639 -103.188 1276.92
v -78.7145 -102.985 1276.99
v -78.0241 -98.6567 1278.85
v -77.6476 -98.4369 1278.93
v -77.454 -98.4989 1278.73
v -77.2636 -98.5602 1278.74
v -79.0623 -101.895 1278.66
v -78.34 -99.78 1280.4
v -78.3036 -100.019 1280.53
v -78.0839 -100.305 1280.62
v -78.022 -100.659 1280.42
v -78.1522 -102.487 1276.26
v -77.4025 -100.77 1276.96
v -77.2062 -101.218 1277.27
v -77.5825 -102.038 1277.46
v -77.7726 -102.223 1277.7
v -77.2983 -98.7833 1278.35
v -77.1509 -98.543 1278.64
v -77.1754 -98.7526 1278.39
v -76.8807 -98.6865 1278.54
v -77.7547 -100.78 1280.46
v -77.6889 -101.033 1280.2
v -77.3624 -101.09 1280.19
v -77.223 -100.898 1280.41
v -77.1392 -101.474 1277.63
v -76.4292 -99.1454 1278.54
v -76.5735 -99.3468 1278.21
v -76.3193 -99.451 1278.37
v -76.261 -99.4973 1278.68
v -76.1721 -99.4107 1278.54
v -76.1635 -99.6212 1278.49
v -76.0022 -99.8425 1278.74
v -75.9795 -99.9857 1278.73
v -76.3512 -100.846 1279.73
v -76.3514 -100.95 1279.7
v -77.1439 -101.178 1279.99
v -76.8867 -101.238 1279.7
v -75.9912 -100.118 1278.93
v -76.09 -100.301 1278.71
v -75.9374 -100.326 1279.03
v -76.1857 -100.706 1278.99
v -76.2461 -100.55 1279.44
v -76.156 -100.797 1279.51
v -81.625 -104.499 1271.22
v -82.0566 -104.684 1271.55
v -82.2082 -104.961 1271.74
v -82.1056 -105.586 1272.12
v -82.0279 -105.664 1272.22
v -82.0279 -105.664 1272.22
v -81.4017 -104.464 1271.14
v -80.8955 -104.526 1271.14
v -80.8955 -104.526 1271.14
v -81.8763 -105.843 1272.22
v -81.6934 -105.927 1272.22
v -80.5122 -104.865 1271.18
v -80.5159 -104.969 1271.18
v -80.398 -105.213 1271.32
v -80.331 -105.354 1271.41
v -80.331 -105.354 1271.41
v -80.2772 -105.458 1271.63
v -80.4491 -105.578 1271.59
v -80.3923 -105.746 1271.76
v -80.531 -105.935 1271.85
v -80.531 -105.935 1271.85
v -80.531 -105.935 1271.85
v -81.2327 -106.126 1272.23
v -81.2327 -106.126 1272.23
v -81.1382 -106.053 1272.14
v -81.0101 -106.09 1272.24
v -80.6629 -106.005 1272.05
v -78.1174 -98.563 1279.32
v -78.3844 -98.8007 1279.6
v -78.3551 -99.0481 1279.89
v -77.6476 -98.4369 1278.93
v -77.6476 -98.4369 1278.93
v -77.454 -98.4989 1278.73
v -77.2636 -98.5602 1278.74
v -78.34 -99.78 1280.4
v -78.3036 -100.019 1280.53
v -78.0839 -100.305 1280.62
v -77.1509 -98.543 1278.64
v -77.1509 -98.543 1278.64
v -76.8807 -98.6865 1278.54
v -77.223 -100.898 1280.41
v -76.4292 -99.1454 1278.54
v -76.1721 -99.4107 1278.54
v -76.0022 -99.8425 1278.74
v -76.0022 -99.8425 1278.74
v -75.9795 -99.9857 1278.73
v -76.3512 -100.846 1279.73
v -76.3512 -100.846 1279.73
v -76.3514 -100.95 1279.7
v -77.1439 -101.178 1279.99
v -75.9374 -100.326 1279.03
v -76.156 -100.797 1279.51
v -76.156 -100.797 1279.51
vn -0.578251 0.711183 -0.399806
vn -0.491099 0.72382 -0.484672
vn -0.406082 0.778996 -0.477769
vn -0.78829 0.572366 -0.225823
vn -0.403476 -0.426811 -0.809345
vn -0.977406 0.172035 0.122806
vn -0.390193 -0.431281 -0.813478
vn -0.979704 -0.053508 0.193174
vn -0.907137 -0.211078 0.364072
vn -0.86028 -0.293527 0.416846
vn -0.282774 -0.631657 -0.721837
vn -0.755796 -0.445712 0.479702
vn -0.658992 0.692466 -0.293633
vn -0.973595 0.118339 0.195217
vn -0.933149 0.358724 0.0234307
vn -0.820759 0.55593 -0.131514
vn -0.886838 0.462027 -0.006999
vn -0.958606 0.229476 0.16857
vn -0.960988 0.053347 0.271395
vn -0.927736 -0.114049 0.355385
vn -0.924906 0.361597 0.11746
vn -0.732899 0.656331 -0.179133
vn -0.932979 -0.0253306 0.359037
vn -0.915012 0.372043 0.156002
vn -0.944092 0.164511 0.285702
vn -0.180936 0.806757 -0.562499
vn 0.0579556 0.778608 -0.624828
vn -0.283902 -0.575095 -0.767245
vn -0.323931 -0.49294 -0.807514
vn -0.608846 -0.602722 0.515784
vn -0.245706 -0.571069 -0.783268
vn -0.415978 -0.788757 0.452575
vn -0.242165 -0.791048 0.561782
vn -0.396677 0.794834 -0.459224
vn -0.0915214 0.80431 -0.587119
vn -0.565886 -0.605033 0.560097
vn -0.561325 0.756322 -0.335992
vn -0.3823 0.814591 -0.43622
vn -0.813103 -0.322765 0.484445
vn -0.593048 -0.556204 0.582177
vn -0.402531 -0.701304 0.588338
vn -0.754126 0.650594 -0.0895649
vn -0.595059 0.758933 -0.264435
vn -0.845668 0.533452 -0.0166028
vn -0.861751 0.503029 0.0659317
vn -0.894683 -0.0800808 0.439466
vn -0.811591 -0.262652 0.521856
vn -0.672152 -0.439295 0.596012
vn -0.686842 0.716176 -0.123855
vn -0.89483 0.400014 0.198162
vn -0.819848 0.569793 0.056439
vn -0.925225 0.239064 0.294631
vn -0.903643 0.0630488 0.42362
vn -0.811227 -0.200683 0.549215
vn -0.86654 0.457578 0.199328
vn -0.905315 0.267685 0.329772
vn -0.838544 -0.0811492 0.538757
vn -0.881929 0.122534 0.455178
vn 0.100756 -0.0035847 -0.994905
vn -0.136797 -0.351686 -0.926069
vn 0.846342 0.0984031 -0.523471
vn -0.200648 -0.569999 -0.796769
vn 0.914985 -0.0466817 -0.400779
vn 0.946137 -0.21247 -0.244298
vn 0.563379 -0.5959 -0.572283
vn -0.203115 -0.561146 -0.802408
vn 0.443759 -0.558816 -0.700573
vn -0.26008 -0.547556 -0.795325
vn 0.8413 -0.54046 0.0108018
vn 0.892413 -0.43971 -0.101267
vn -0.250749 -0.617992 -0.745124
vn -0.249009 -0.560849 -0.789584
vn 0.093797 -0.893767 -0.438615
vn 0.0334287 -0.940922 -0.33697
vn 0.68059 0.392439 -0.618699
vn 0.248409 0.676999 -0.692795
vn -0.220422 -0.780138 0.58549
vn -0.497791 0.807221 -0.317171
vn -0.312167 0.830245 -0.461784
vn -0.227123 -0.756789 0.612932
vn -0.432989 -0.647775 0.626823
vn -0.716074 -0.318435 0.621158
vn -0.558421 -0.512587 0.652242
vn -0.886786 0.314014 0.339126
vn -0.575148 0.792052 -0.204593
vn -0.765583 0.625507 0.150411
vn -0.798656 -0.126867 0.588263
vn -0.629294 -0.399799 0.666446
vn -0.773061 0.49759 0.393422
vn 0.349288 0.614428 0.707443
vn -0.739781 0.349381 0.575028
vn -0.788205 0.122141 0.60317
vn 0.94159 -0.249309 -0.226391
vn 0.90695 -0.00282513 -0.42123
vn 0.914441 -0.392828 -0.0973904
vn 0.92316 -0.298083 -0.242738
vn 0.749328 -0.655323 0.0951786
vn 0.581763 0.408686 -0.703226
vn 0.746145 0.224563 -0.626769
vn 0.871742 -0.0795356 -0.483466
vn 0.395419 -0.842036 0.366904
vn 0.691919 -0.719797 0.0560397
vn 0.0379151 -0.851619 0.522788
vn 0.418735 -0.858919 0.294822
vn -0.443312 0.833609 -0.329501
vn -0.366143 0.846769 -0.385904
vn -0.167917 0.819432 -0.548028
vn 0.287951 0.930988 0.224377
vn -0.396423 -0.634971 0.663069
vn -0.578329 0.349973 0.736922
vn -0.743043 -0.0967509 0.662214
vn 0.484761 0.50507 0.714081
vn -0.460145 -0.538157 0.706154
vn 0.858714 -0.454434 -0.236854
vn 0.735668 0.129941 -0.664762
vn 0.846972 -0.234949 -0.476903
vn 0.744709 -0.659861 -0.09996
vn 0.626503 -0.775857 0.0744286
vn 0.0376511 0.761858 -0.646649
vn 0.0547041 0.763023 -0.644052
vn 0.116717 0.738346 -0.664246
vn 0.33533 0.650171 -0.681786
vn -0.227583 -0.594534 0.771191
vn -0.153235 -0.75373 0.639069
vn 0.0256267 -0.808863 0.587438
vn 0.105198 -0.683574 0.72226
vn 0.831046 -0.450977 -0.32555
vn 0.574106 0.560556 -0.596807
vn 0.559808 0.463155 -0.687097
vn 0.660223 0.286056 -0.694463
vn 0.515827 0.511328 0.687362
vn 0.71374 0.350038 -0.60667
vn 0.804743 0.13111 -0.578963
vn 0.515314 0.511959 0.687277
vn 0.847799 -0.0910094 -0.522449
vn 0.553414 0.477524 0.682425
vn 0.566 -0.804376 0.180619
vn 0.271974 -0.822453 0.499601
vn 0.374085 -0.8391 0.394932
vn 0.729179 0.424445 0.536791
vn 0.842247 -0.314721 -0.437688
vn 0.697022 0.433724 0.571002
vn 0.806468 -0.552903 -0.209543
vn 0.543261 0.482804 0.686853
vn 0.753487 -0.651442 -0.0887755
vn -0.299367 -0.490138 -0.818624
vn -0.473732 -0.314863 -0.822459
vn -0.987219 0.157829 0.0220997
vn -0.936511 -0.240701 0.254971
vn -0.262789 -0.84909 -0.458246
vn -0.481162 -0.407518 -0.776152
vn -0.124749 -0.293949 -0.947645
vn 0.0443483 -0.0521679 -0.997653
vn 0.56234 0.529096 -0.635477
vn -0.55156 -0.723542 0.415052
vn -0.396322 -0.883423 0.249986
vn 0.755489 0.267771 -0.597942
vn 0.816571 0.0193046 -0.576923
vn 0.82674 0.0539932 -0.559988
vn -0.0980176 -0.588784 -0.802326
vn 0.585684 -0.671597 -0.453798
vn 0.929265 -0.302059 -0.212667
vn 0.49644 -0.602865 -0.624581
vn 0.854337 -0.513838 -0.0779635
vn 0.353244 -0.60369 -0.714687
vn 0.759005 -0.643301 0.100371
vn 0.0401349 -0.951089 -0.306298
vn -0.161025 -0.869562 0.466832
vn 0.159887 -0.848075 -0.505179
vn 0.0760452 -0.915359 -0.395392
vn 0.254897 -0.859628 0.442794
vn 0.572641 -0.772436 0.274635
vn 0.211493 0.698064 0.684088
vn 0.00631967 0.759388 0.650607
vn -0.516131 0.565117 0.643624
vn 0.472496 0.543572 0.693741
vn 0.306402 0.951901 0.00148198
vn 0.287951 0.930988 0.224377
vn 0.521661 0.499774 0.691445
vn 0.372361 0.504164 0.779208
vn 0.29229 0.483982 0.82482
vn -0.411709 -0.426572 0.805315
vn 0.25497 0.863098 0.435951
vn 0.528583 0.495024 0.689603
vn 0.516889 0.505197 0.691087
vn 0.514116 0.499497 0.697272
vn 0.516293 0.511392 0.686964
vn 0.530278 0.517231 0.671772
vn 0.886529 0.155619 -0.435718
vn 0.977697 0.144296 0.152604
vn 0.938648 0.259866 0.226738
vn 0.467765 -0.694613 0.546542
vn 0.589023 -0.225264 0.776085
vn 0.589023 -0.225264 0.776085
vn 0.392839 -0.255835 0.883304
vn 0.847394 -0.420107 -0.324704
vn 0.611708 0.42299 0.6685
vn 0.755216 -0.183222 0.629348
g grp1
usemtl mtl1
f 1//1 2//2 4//4 
f 3//3 2//2 1//1 
f 3//3 26//26 2//2 
f 146//146 152//152 60//60 
f 146//146 7//7 147//147 
f 1//1 34//34 3//3 
f 13//13 1//1 4//4 
f 7//7 5//5 147//147 
f 5//5 7//7 11//11 
f 149//149 8//8 148//148 
f 148//148 8//8 6//6 
f 146//146 11//11 7//7 
f 8//8 149//149 9//9 
f 11//11 146//146 28//28 
f 9//9 149//149 10//10 
f 10//10 149//149 12//12 
f 10//10 12//12 39//39 
f 150//150 11//11 28//28 
f 39//39 12//12 36//36 
f 12//12 30//30 36//36 
f 13//13 34//34 1//1 
f 4//4 148//148 15//15 
f 148//148 6//6 15//15 
f 6//6 14//14 15//15 
f 8//8 14//14 6//6 
f 8//8 20//20 14//14 
f 9//9 20//20 8//8 
f 10//10 39//39 9//9 
f 15//15 16//16 4//4 
f 4//4 16//16 13//13 
f 9//9 39//39 20//20 
f 22//22 13//13 16//16 
f 16//16 15//15 17//17 
f 18//18 17//17 15//15 
f 23//23 18//18 19//19 
f 15//15 14//14 18//18 
f 14//14 20//20 19//19 
f 14//14 19//19 18//18 
f 19//19 20//20 23//23 
f 20//20 39//39 23//23 
f 16//16 17//17 22//22 
f 22//22 17//17 44//44 
f 17//17 18//18 21//21 
f 17//17 21//21 44//44 
f 24//24 45//45 44//44 
f 25//25 21//21 18//18 
f 44//44 21//21 24//24 
f 21//21 25//25 24//24 
f 18//18 23//23 25//25 
f 26//26 3//3 34//34 
f 26//26 35//35 27//27 
f 60//60 152//152 153//153 
f 153//153 59//59 60//60 
f 146//146 60//60 28//28 
f 151//151 28//28 29//29 
f 155//155 30//30 12//12 
f 72//72 29//29 28//28 
f 72//72 31//31 29//29 
f 155//155 32//32 30//30 
f 32//32 155//155 156//156 
f 31//31 72//72 71//71 
f 168//168 32//32 156//156 
f 33//33 32//32 168//168 
f 35//35 26//26 34//34 
f 32//32 33//33 36//36 
f 103//103 33//33 168//168 
f 35//35 34//34 38//38 
f 36//36 30//30 32//32 
f 76//76 27//27 35//35 
f 13//13 37//37 34//34 
f 22//22 37//37 13//13 
f 34//34 37//37 38//38 
f 41//41 40//40 36//36 
f 36//36 33//33 41//41 
f 35//35 38//38 79//79 
f 107//107 35//35 79//79 
f 48//48 39//39 40//40 
f 39//39 36//36 40//40 
f 79//79 38//38 78//78 
f 42//42 22//22 44//44 
f 42//42 45//45 51//51 
f 37//37 22//22 43//43 
f 43//43 22//22 42//42 
f 43//43 38//38 37//37 
f 45//45 24//24 50//50 
f 44//44 45//45 42//42 
f 50//50 51//51 45//45 
f 46//46 53//53 25//25 
f 39//39 46//46 23//23 
f 25//25 23//23 46//46 
f 47//47 46//46 39//39 
f 39//39 48//48 47//47 
f 41//41 81//81 40//40 
f 40//40 81//81 48//48 
f 78//78 43//43 49//49 
f 78//78 38//38 43//43 
f 85//85 105//105 78//78 
f 49//49 43//43 42//42 
f 51//51 49//49 42//42 
f 52//52 50//50 24//24 
f 25//25 52//52 24//24 
f 52//52 25//25 53//53 
f 56//56 50//50 52//52 
f 53//53 56//56 52//52 
f 53//53 46//46 54//54 
f 46//46 47//47 54//54 
f 54//54 47//47 48//48 
f 48//48 81//81 83//83 
f 85//85 78//78 49//49 
f 51//51 50//50 55//55 
f 50//50 56//56 55//55 
f 55//55 56//56 84//84 
f 58//58 56//56 53//53 
f 58//58 84//84 56//56 
f 54//54 57//57 53//53 
f 54//54 82//82 57//57 
f 82//82 54//54 48//48 
f 55//55 86//86 51//51 
f 58//58 53//53 57//57 
f 157//157 61//61 158//158 
f 62//62 28//28 60//60 
f 157//157 75//75 61//61 
f 61//61 159//159 158//158 
f 61//61 94//94 63//63 
f 61//61 63//63 159//159 
f 66//66 28//28 62//62 
f 66//66 62//62 160//160 
f 68//68 28//28 66//66 
f 65//65 163//163 161//161 
f 63//63 64//64 162//162 
f 65//65 67//67 163//163 
f 163//163 67//67 165//165 
f 162//162 64//64 95//95 
f 70//70 162//162 95//95 
f 75//75 94//94 61//61 
f 63//63 94//94 64//64 
f 28//28 68//68 72//72 
f 70//70 164//164 162//162 
f 69//69 164//164 70//70 
f 166//166 164//164 69//69 
f 97//97 166//166 69//69 
f 97//97 69//69 95//95 
f 70//70 95//95 69//69 
f 170//170 73//73 169//169 
f 170//170 74//74 73//73 
f 170//170 167//167 74//74 
f 166//166 97//97 172//172 
f 157//157 154//154 75//75 
f 101//101 172//172 97//97 
f 171//171 103//103 168//168 
f 172//172 101//101 171//171 
f 154//154 76//76 75//75 
f 101//101 103//103 171//171 
f 41//41 33//33 77//77 
f 77//77 33//33 103//103 
f 105//105 79//79 78//78 
f 80//80 81//81 77//77 
f 103//103 80//80 77//77 
f 41//41 77//77 81//81 
f 49//49 51//51 86//86 
f 85//85 49//49 86//86 
f 107//107 79//79 106//106 
f 48//48 83//83 82//82 
f 81//81 109//109 83//83 
f 80//80 109//109 81//81 
f 57//57 87//87 58//58 
f 57//57 82//82 87//87 
f 82//82 83//83 88//88 
f 83//83 109//109 88//88 
f 106//106 105//105 85//85 
f 55//55 89//89 86//86 
f 174//174 90//90 173//173 
f 89//89 175//175 86//86 
f 173//173 90//90 176//176 
f 84//84 89//89 55//55 
f 87//87 82//82 88//88 
f 87//87 88//88 111//111 
f 175//175 89//89 91//91 
f 89//89 84//84 91//91 
f 91//91 84//84 58//58 
f 87//87 92//92 58//58 
f 92//92 91//91 58//58 
f 175//175 91//91 110//110 
f 92//92 110//110 91//91 
f 64//64 94//94 93//93 
f 64//64 93//93 95//95 
f 93//93 94//94 96//96 
f 93//93 96//96 95//95 
f 99//99 94//94 75//75 
f 95//95 96//96 97//97 
f 94//94 99//99 100//100 
f 100//100 96//96 94//94 
f 104//104 101//101 97//97 
f 75//75 98//98 99//99 
f 99//99 115//115 100//100 
f 96//96 114//114 97//97 
f 96//96 100//100 114//114 
f 101//101 104//104 103//103 
f 102//102 104//104 97//97 
f 75//75 76//76 98//98 
f 102//102 97//97 114//114 
f 35//35 107//107 120//120 
f 120//120 76//76 35//35 
f 104//104 138//138 103//103 
f 124//124 80//80 103//103 
f 183//183 178//178 108//108 
f 108//108 178//178 177//177 
f 179//179 176//176 112//112 
f 76//76 120//120 119//119 
f 112//112 184//184 179//179 
f 106//106 79//79 105//105 
f 124//124 109//109 80//80 
f 124//124 103//103 125//125 
f 138//138 125//125 103//103 
f 176//176 90//90 112//112 
f 87//87 111//111 92//92 
f 92//92 111//111 110//110 
f 112//112 90//90 180//180 
f 112//112 180//180 181//181 
f 111//111 88//88 182//182 
f 88//88 113//113 182//182 
f 109//109 124//124 123//123 
f 113//113 88//88 109//109 
f 100//100 115//115 116//116 
f 100//100 116//116 114//114 
f 98//98 115//115 99//99 
f 114//114 117//117 102//102 
f 129//129 98//98 76//76 
f 117//117 114//114 127//127 
f 114//114 116//116 127//127 
f 117//117 118//118 102//102 
f 122//122 129//129 76//76 
f 127//127 143//143 117//117 
f 104//104 139//139 138//138 
f 104//104 102//102 118//118 
f 119//119 121//121 76//76 
f 121//121 119//119 120//120 
f 76//76 121//121 122//122 
f 120//120 122//122 121//121 
f 112//112 185//185 184//184 
f 185//185 112//112 144//144 
f 129//129 122//122 128//128 
f 185//185 144//144 187//187 
f 123//123 126//126 182//182 
f 136//136 112//112 186//186 
f 123//123 113//113 109//109 
f 123//123 182//182 113//113 
f 126//126 123//123 124//124 
f 125//125 126//126 124//124 
f 115//115 98//98 129//129 
f 115//115 135//135 116//116 
f 135//135 141//141 116//116 
f 141//141 127//127 116//116 
f 131//131 187//187 144//144 
f 115//115 129//129 130//130 
f 130//130 129//129 132//132 
f 132//132 129//129 128//128 
f 188//188 187//187 131//131 
f 130//130 133//133 115//115 
f 188//188 131//131 134//134 
f 130//130 132//132 133//133 
f 189//189 133//133 132//132 
f 133//133 135//135 115//115 
f 189//189 135//135 133//133 
f 140//140 134//134 131//131 
f 140//140 131//131 144//144 
f 140//140 144//144 142//142 
f 118//118 117//117 137//137 
f 137//137 104//104 118//118 
f 144//144 112//112 136//136 
f 145//145 137//137 117//117 
f 104//104 137//137 139//139 
f 138//138 126//126 125//125 
f 192//192 126//126 138//138 
f 137//137 138//138 139//139 
f 194//194 193//193 195//195 
f 191//191 190//190 140//140 
f 140//140 142//142 191//191 
f 135//135 196//196 141//141 
f 141//141 196//196 127//127 
f 196//196 143//143 127//127 
f 117//117 143//143 145//145 
f 197//197 144//144 136//136 
f 193//193 194//194 198//198 
f 196//196 145//145 143//143 
f 197//197 142//142 144//144 
