#
# The license for this database is specified in the Creative Commons Attribution-Share Alike 2.1 Japan. If you use data from this database, please be sure attribute this database as follows: "BodyParts3D, (c)  The Database Center for Life Science licensed under CC Attribution-Share Alike 2.1 Japan".
# http://dbarchive.biosciencedbc.jp/en/bodyparts3d/lic.html
#
#
# Compatibility version : 4.0
# File ID : FJ2523
# Representation ID : BP9592
# Build-up logic : FMA 3.0 part_of
# Concept ID : FMA68211
# English name : Right apical segmental bronchial tree
# Bounds(mm): (-47.667400,-109.710000,1320.439900)-(-39.492000,-105.597000,1328.290000)
# Volume(cm3): 0.029300
#
v -47.4655 -105.963 1327.2
v -47.2227 -106.107 1326.91
v -47.179 -105.962 1326.99
v -47.5295 -106.344 1327.15
v -47.4882 -106.505 1327.11
v -47.3196 -106.219 1326.94
v -47.1587 -105.684 1327.24
v -47.6674 -106.389 1327.36
v -47.6555 -106.584 1327.47
v -47.5693 -106.573 1327.28
v -47.5723 -106.594 1327.59
v -47.5676 -106.774 1327.66
v -47.4057 -106.903 1327.33
v -47.2565 -107.028 1327.65
v -47.3274 -106.855 1327.99
v -47.1514 -106.971 1327.94
v -46.9986 -106.653 1328.12
v -46.9 -106.925 1328.06
v -46.4745 -107.785 1326.15
v -46.6249 -105.687 1327.34
v -46.7019 -105.597 1327.57
v -46.4677 -105.745 1327.42
v -46.5775 -105.661 1327.66
v -46.5695 -105.697 1327.76
v -46.3398 -105.847 1327.61
v -46.5308 -106.056 1328.07
v -46.436 -105.856 1327.95
v -46.7826 -106.734 1328.24
v -46.5759 -106.428 1328.29
v -46.4207 -106.23 1328.16
v -46.2431 -107.856 1325.67
v -45.9847 -108.229 1326.05
v -45.812 -108.105 1326.6
v -45.2281 -108.572 1324.51
v -45.4891 -107.614 1324.69
v -45.7956 -107.852 1324.98
v -45.6174 -108.515 1325.31
v -45.2595 -108.772 1325.34
v -44.8841 -108.391 1326.16
v -45.0186 -108.736 1325.71
v -45.0574 -107.326 1324.59
v -44.3529 -109.182 1323.9
v -44.4759 -107.139 1324.86
v -44.7186 -109.095 1324.59
v -44.202 -109.273 1324.71
v -44.4283 -107.158 1325.62
v -44.2343 -107.597 1325.89
v -43.8358 -107.706 1323.41
v -44.2428 -108.465 1323.29
v -43.9827 -107.992 1323.22
v -43.9137 -109.081 1323.15
v -43.898 -109.455 1324.07
v -43.8969 -107.381 1324.95
v -43.6674 -109.141 1324.92
v -43.9872 -108.38 1325.66
v -43.0934 -107.991 1322.46
v -42.8467 -109.301 1322.31
v -42.8253 -108.971 1322.06
v -43.4439 -109.393 1322.99
v -43.2976 -107.51 1323.76
v -43.4189 -109.578 1323.56
v -43.2807 -109.548 1324.06
v -42.6013 -109.455 1324
v -43.2099 -107.97 1324.91
v -42.5181 -109.009 1324.38
v -42.3511 -107.56 1322.51
v -42.5781 -109.633 1322.64
v -42.2808 -109.71 1323.08
v -42.3951 -107.593 1323.49
v -42.5509 -107.804 1324.08
v -41.9144 -108.293 1324.01
v -41.803 -108.681 1323.98
v -41.6377 -109.512 1321.68
v -41.632 -109.701 1322.23
v -41.4834 -107.628 1323.12
v -41.4757 -107.432 1322.65
v -41.4085 -109.614 1322.9
v -41.3362 -107.823 1323.29
v -41.2739 -108.489 1320.69
v -41.021 -108.258 1320.48
v -40.8863 -108.197 1320.58
v -40.9207 -108.658 1320.44
v -40.8069 -108.594 1320.57
v -41.0454 -108.868 1320.64
v -40.7733 -108.826 1320.58
v -40.8556 -109.165 1320.74
v -40.8563 -107.408 1320.94
v -41.1816 -107.848 1320.77
v -40.7817 -109.346 1322.87
v -40.6152 -107.2 1321.2
v -40.3671 -109.354 1321.02
v -40.5002 -109.53 1321.13
v -40.1578 -109.605 1321.34
v -40.5516 -107.176 1321.65
v -40.2291 -107.189 1321.71
v -40.2791 -107.268 1322.03
v -39.6817 -109.233 1321.98
v -40.2983 -109.611 1321.67
v -39.9592 -109.429 1322.06
v -39.7844 -109.48 1321.78
v -39.7676 -109.34 1322.02
v -39.8111 -107.56 1322.2
v -39.8265 -107.556 1322.3
v -39.6833 -108.044 1322.52
v -39.8712 -109.05 1322.45
v -39.492 -108.654 1322.4
v -47.4655 -105.963 1327.2
v -47.1587 -105.684 1327.24
v -47.6674 -106.389 1327.36
v -47.6555 -106.584 1327.47
v -47.5676 -106.774 1327.66
v -47.3274 -106.855 1327.99
v -46.9986 -106.653 1328.12
v -46.7019 -105.597 1327.57
v -46.5695 -105.697 1327.76
v -46.436 -105.856 1327.95
v -46.7826 -106.734 1328.24
v -46.7826 -106.734 1328.24
v -46.5759 -106.428 1328.29
v -46.5759 -106.428 1328.29
v -46.4207 -106.23 1328.16
v -42.5509 -107.804 1324.08
v -41.021 -108.258 1320.48
v -40.9207 -108.658 1320.44
v -40.9207 -108.658 1320.44
v -40.7733 -108.826 1320.58
v -40.8563 -107.408 1320.94
v -40.8563 -107.408 1320.94
v -41.1816 -107.848 1320.77
v -40.6152 -107.2 1321.2
v -40.3671 -109.354 1321.02
v -40.5002 -109.53 1321.13
v -40.1578 -109.605 1321.34
v -40.1578 -109.605 1321.34
v -40.2291 -107.189 1321.71
v -39.6817 -109.233 1321.98
v -39.7844 -109.48 1321.78
v -39.8111 -107.56 1322.2
v -39.8111 -107.56 1322.2
v -39.8265 -107.556 1322.3
v -39.8265 -107.556 1322.3
v -39.6833 -108.044 1322.52
v -39.492 -108.654 1322.4
v -39.492 -108.654 1322.4
vn -0.658974 0.387415 -0.644719
vn -0.55358 0.438917 -0.707744
vn -0.452452 0.579365 -0.677956
vn -0.797295 0.0814705 -0.598066
vn -0.827725 -0.159506 -0.537986
vn -0.698597 0.223884 -0.679587
vn -0.558893 0.505401 0.657425
vn -0.860943 -0.0961236 -0.499537
vn -0.839638 -0.443103 -0.314113
vn -0.847876 -0.278803 -0.450971
vn -0.705875 0.336493 0.623308
vn -0.781833 0.206392 0.588336
vn -0.760623 -0.637791 -0.121138
vn -0.506433 -0.821592 0.26175
vn -0.674305 0.356542 0.646677
vn -0.309385 -0.808287 0.500953
vn -0.549347 0.462757 0.695754
vn -0.156099 -0.629596 0.76108
vn -0.764259 -0.619744 -0.178398
vn 0.254477 0.920499 -0.296519
vn -0.566044 0.500771 0.654846
vn 0.521307 0.850522 -0.0696429
vn 0.511328 0.851122 0.118896
vn -0.492185 0.535441 0.686337
vn 0.664877 0.725935 0.175945
vn -0.273023 0.53713 0.798091
vn 0.728692 0.599752 0.330614
vn -0.552328 -0.37247 0.745788
vn -0.494007 0.320362 0.808285
vn 0.74285 0.102668 0.661539
vn -0.820836 -0.387172 -0.419911
vn -0.562896 -0.817578 0.121302
vn -0.201919 -0.854483 0.47863
vn -0.75235 -0.471143 -0.460427
vn -0.611084 0.355501 -0.707245
vn -0.777761 -0.0572944 -0.625944
vn -0.68573 -0.708388 -0.167214
vn -0.437124 -0.888204 0.141477
vn 0.201389 -0.697059 0.68815
vn -0.141396 -0.885869 0.441864
vn -0.339078 0.679501 -0.650618
vn -0.569345 -0.763142 -0.305714
vn 0.229951 0.949956 -0.211441
vn -0.528832 -0.844322 -0.0863558
vn -0.177438 -0.942174 0.284295
vn 0.619149 0.761187 0.193
vn 0.7606 0.378929 0.527164
vn -0.333278 0.793963 -0.508476
vn -0.700849 0.026405 -0.71282
vn -0.568442 0.459275 -0.682598
vn -0.665349 -0.455032 -0.591825
vn -0.317172 -0.948283 0.0126789
vn 0.506213 0.826611 0.24589
vn 0.227797 -0.759731 0.609029
vn 0.588264 -0.199784 0.783602
vn -0.566289 0.539598 -0.623017
vn -0.497536 -0.624179 -0.602377
vn -0.633211 -0.236546 -0.736946
vn -0.488022 -0.770019 -0.41098
vn 0.0728765 0.996937 -0.0283913
vn -0.278907 -0.954242 -0.107854
vn 0.000355343 -0.960487 0.278325
vn 0.284713 -0.818253 0.4994
vn 0.64589 0.490462 0.585041
vn 0.488252 -0.473671 0.732971
vn -0.248236 0.954962 -0.162561
vn -0.274382 -0.917019 -0.289466
vn 0.0314216 -0.993879 0.105912
vn 0.150609 0.937553 0.313546
vn 0.296395 0.92573 0.23489
vn 0.546844 0.376007 0.74805
vn 0.57591 -0.0519845 0.815858
vn -0.295934 -0.839509 -0.455684
vn -0.0669762 -0.98636 -0.150358
vn 0.213739 0.840575 0.497744
vn -0.0122574 0.972936 0.230748
vn 0.262073 -0.908073 0.326683
vn 0.345292 0.693983 0.631792
vn -0.63431 -0.059431 -0.770791
vn -0.650589 0.108041 -0.751706
vn 0.538886 0.315041 -0.781249
vn -0.601545 -0.20254 -0.772736
vn 0.76554 0.123359 -0.631451
vn -0.36687 -0.511063 -0.777316
vn 0.787917 0.100243 -0.607567
vn -0.15005 -0.624621 -0.766377
vn -0.475057 0.77675 -0.413499
vn -0.610719 0.445733 -0.654481
vn 0.433154 -0.699926 0.567874
vn -0.197363 0.97111 -0.134139
vn 0.25637 -0.585061 -0.769401
vn -0.171413 -0.916878 -0.360489
vn 0.0774534 -0.995991 -0.0447457
vn -0.0683542 0.992434 0.101994
vn 0.16606 0.973403 0.157832
vn 0.226467 0.911724 0.342742
vn 0.812391 0.136136 -0.566999
vn 0.146905 -0.984964 0.0909155
vn 0.400723 -0.801445 0.443968
vn 0.418761 -0.86611 0.272935
vn 0.616547 -0.643766 0.453249
vn 0.803332 0.132068 -0.580703
vn 0.32327 0.666712 0.671559
vn 0.501149 0.300642 0.811458
vn 0.543623 -0.549591 0.634369
vn 0.645072 -0.350948 0.678761
vn -0.550606 0.5098 0.661012
vn -0.143575 0.8217 -0.551539
vn -0.641028 0.427369 0.637525
vn -0.791397 0.233605 0.564907
vn -0.706065 -0.707919 0.0179694
vn -0.401769 -0.681304 0.611888
vn -0.38223 -0.337403 0.860267
vn 0.324665 0.942265 -0.0820271
vn 0.509942 0.824153 0.246438
vn -0.145375 0.554011 0.819718
vn -0.434648 0.14831 0.888305
vn 0.343995 -0.553517 0.758476
vn 0.0787551 0.503285 0.860524
vn 0.587011 -0.256064 0.768017
vn 0.0649769 0.497051 0.865285
vn 0.529037 0.582844 0.616776
vn 0.401923 0.431412 -0.807677
vn 0.658097 0.148672 -0.738109
vn -0.0537053 -0.671249 -0.739284
vn 0.0357494 -0.525935 -0.849773
vn -0.0909585 0.416567 -0.904543
vn 0.545058 0.331068 -0.770263
vn 0.0878011 0.533331 -0.841338
vn 0.722402 0.195485 -0.663265
vn 0.798375 0.0437603 -0.600569
vn 0.237793 -0.640048 -0.730611
vn 0.286842 -0.656442 -0.697715
vn 0.774384 -0.14517 -0.615836
vn 0.792464 0.0977279 -0.602038
vn 0.789431 -0.530137 0.309441
vn 0.800755 0.0440094 -0.597373
vn 0.478597 0.862575 0.164041
vn 0.945805 0.311167 0.0928907
vn 0.51731 0.85459 0.0454562
vn 0.933928 0.33283 0.130391
vn 0.945805 0.311167 0.0928907
vn 0.816758 0.135672 -0.560802
vn 0.955774 0.288877 0.055203
g grp1
usemtl mtl1
f 6//6 1//1 2//2 
f 107//107 17//17 7//7 
f 2//2 1//1 3//3 
f 1//1 108//108 3//3 
f 108//108 41//41 3//3 
f 4//4 36//36 5//5 
f 36//36 31//31 5//5 
f 5//5 31//31 10//10 
f 8//8 4//4 5//5 
f 10//10 8//8 5//5 
f 4//4 6//6 36//36 
f 6//6 4//4 1//1 
f 31//31 9//9 10//10 
f 4//4 8//8 1//1 
f 10//10 9//9 8//8 
f 109//109 110//110 11//11 
f 17//17 109//109 11//11 
f 11//11 110//110 12//12 
f 13//13 32//32 111//111 
f 9//9 13//13 111//111 
f 12//12 15//15 11//11 
f 11//11 15//15 17//17 
f 107//107 109//109 17//17 
f 32//32 14//14 111//111 
f 111//111 14//14 112//112 
f 14//14 33//33 16//16 
f 112//112 14//14 16//16 
f 18//18 16//16 33//33 
f 113//113 112//112 18//18 
f 113//113 18//18 28//28 
f 112//112 16//16 18//18 
f 35//35 6//6 2//2 
f 13//13 19//19 32//32 
f 13//13 9//9 19//19 
f 3//3 41//41 2//2 
f 43//43 108//108 20//20 
f 20//20 22//22 43//43 
f 43//43 22//22 46//46 
f 33//33 14//14 32//32 
f 17//17 21//21 7//7 
f 24//24 21//21 17//17 
f 20//20 108//108 114//114 
f 22//22 20//20 114//114 
f 114//114 23//23 22//22 
f 23//23 114//114 115//115 
f 22//22 23//23 25//25 
f 23//23 115//115 25//25 
f 27//27 25//25 115//115 
f 25//25 27//27 47//47 
f 25//25 47//47 46//46 
f 25//25 46//46 22//22 
f 26//26 24//24 17//17 
f 27//27 30//30 47//47 
f 116//116 24//24 26//26 
f 26//26 17//17 29//29 
f 29//29 17//17 117//117 
f 26//26 119//119 121//121 
f 116//116 26//26 121//121 
f 2//2 41//41 35//35 
f 6//6 35//35 36//36 
f 41//41 108//108 43//43 
f 9//9 31//31 19//19 
f 19//19 37//37 32//32 
f 31//31 37//37 19//19 
f 37//37 38//38 32//32 
f 39//39 118//118 18//18 
f 39//39 18//18 33//33 
f 120//120 55//55 30//30 
f 55//55 47//47 30//30 
f 55//55 120//120 118//118 
f 35//35 49//49 36//36 
f 36//36 34//34 31//31 
f 31//31 34//34 37//37 
f 44//44 45//45 38//38 
f 32//32 38//38 40//40 
f 33//33 32//32 40//40 
f 45//45 40//40 38//38 
f 40//40 39//39 33//33 
f 54//54 40//40 45//45 
f 40//40 54//54 39//39 
f 55//55 118//118 39//39 
f 49//49 34//34 36//36 
f 50//50 49//49 35//35 
f 50//50 35//35 48//48 
f 48//48 35//35 41//41 
f 38//38 37//37 44//44 
f 44//44 37//37 34//34 
f 44//44 34//34 42//42 
f 42//42 52//52 44//44 
f 44//44 52//52 45//45 
f 62//62 54//54 45//45 
f 46//46 47//47 64//64 
f 64//64 47//47 55//55 
f 55//55 39//39 54//54 
f 50//50 48//48 56//56 
f 48//48 66//66 56//56 
f 34//34 49//49 51//51 
f 34//34 51//51 42//42 
f 51//51 49//49 58//58 
f 51//51 59//59 42//42 
f 42//42 59//59 61//61 
f 43//43 48//48 41//41 
f 70//70 60//60 43//43 
f 60//60 48//48 43//43 
f 52//52 62//62 45//45 
f 42//42 61//61 52//52 
f 52//52 61//61 62//62 
f 68//68 62//62 61//61 
f 53//53 70//70 43//43 
f 46//46 53//53 43//43 
f 46//46 64//64 53//53 
f 122//122 53//53 64//64 
f 55//55 71//71 64//64 
f 80//80 58//58 49//49 
f 58//58 57//57 51//51 
f 51//51 57//57 59//59 
f 59//59 57//57 67//67 
f 48//48 60//60 66//66 
f 87//87 56//56 66//66 
f 69//69 66//66 60//60 
f 56//56 49//49 50//50 
f 59//59 67//67 61//61 
f 61//61 67//67 68//68 
f 69//69 60//60 70//70 
f 63//63 62//62 68//68 
f 122//122 64//64 71//71 
f 54//54 65//65 55//55 
f 65//65 72//72 55//55 
f 63//63 65//65 54//54 
f 72//72 71//71 55//55 
f 63//63 54//54 62//62 
f 80//80 49//49 56//56 
f 67//67 73//73 74//74 
f 78//78 69//69 70//70 
f 69//69 78//78 75//75 
f 63//63 68//68 77//77 
f 71//71 78//78 122//122 
f 56//56 88//88 80//80 
f 80//80 79//79 58//58 
f 58//58 79//79 82//82 
f 57//57 58//58 84//84 
f 84//84 58//58 82//82 
f 90//90 87//87 66//66 
f 67//67 57//57 73//73 
f 68//68 67//67 74//74 
f 92//92 74//74 73//73 
f 75//75 76//76 69//69 
f 66//66 69//69 76//76 
f 98//98 77//77 68//68 
f 98//98 68//68 74//74 
f 89//89 63//63 77//77 
f 71//71 72//72 104//104 
f 89//89 105//105 65//65 
f 65//65 105//105 106//106 
f 63//63 89//89 65//65 
f 79//79 80//80 82//82 
f 81//81 124//124 123//123 
f 124//124 81//81 83//83 
f 83//83 81//81 102//102 
f 85//85 124//124 83//83 
f 125//125 126//126 84//84 
f 102//102 85//85 83//83 
f 84//84 126//126 86//86 
f 88//88 56//56 87//87 
f 123//123 129//129 81//81 
f 81//81 129//129 127//127 
f 81//81 128//128 130//130 
f 57//57 84//84 86//86 
f 73//73 57//57 86//86 
f 92//92 73//73 86//86 
f 94//94 66//66 76//76 
f 93//93 74//74 92//92 
f 98//98 74//74 93//93 
f 100//100 77//77 98//98 
f 96//96 76//76 75//75 
f 75//75 78//78 96//96 
f 78//78 103//103 96//96 
f 104//104 103//103 78//78 
f 104//104 78//78 71//71 
f 65//65 106//106 72//72 
f 130//130 102//102 81//81 
f 86//86 126//126 91//91 
f 131//131 85//85 102//102 
f 132//132 86//86 91//91 
f 91//91 133//133 132//132 
f 90//90 66//66 94//94 
f 94//94 76//76 96//96 
f 95//95 90//90 94//94 
f 95//95 94//94 96//96 
f 135//135 102//102 130//130 
f 138//138 95//95 96//96 
f 101//101 89//89 99//99 
f 102//102 97//97 137//137 
f 100//100 136//136 101//101 
f 97//97 102//102 143//143 
f 99//99 77//77 100//100 
f 77//77 99//99 89//89 
f 131//131 102//102 137//137 
f 131//131 137//137 134//134 
f 93//93 100//100 98//98 
f 100//100 101//101 99//99 
f 140//140 138//138 96//96 
f 139//139 141//141 142//142 
f 139//139 142//142 144//144 
f 101//101 105//105 89//89 
f 106//106 105//105 101//101 
f 136//136 106//106 101//101 
f 72//72 106//106 104//104 
