# Blender v2.77 (sub 0) OBJ File: 'BLANKOblend.blend'
# www.blender.org
mtllib right posterior segmental bronchial tree2.mtl
o grp1
v -79.191406 -52.584194 1283.134766
v -79.326302 -52.233212 1283.520020
v -79.001602 -52.393711 1283.180054
v -81.577904 -55.596611 1283.329956
v -79.479492 -52.113613 1283.999512
v -79.433899 -51.995693 1284.419922
v -79.430298 -51.998909 1284.420044
v -79.326302 -52.233212 1283.520020
v -79.475700 -52.116508 1284.000000
v -79.001602 -52.393711 1283.180054
v -79.360703 -52.028610 1284.920044
v -79.315918 -52.026699 1285.130371
v -79.217773 -52.129848 1285.187988
v -82.459961 -55.991421 1284.261719
v -81.456200 -54.734711 1284.819946
v -79.319092 -52.095058 1285.110107
v -79.213699 -52.126209 1285.189941
v -79.042969 -52.229946 1285.568359
v -79.052803 -52.228111 1285.560059
v -78.933800 -52.312210 1285.630005
v -78.800697 -52.403809 1285.800049
v -78.244995 -52.848843 1286.151001
v -78.699219 -52.482632 1285.878906
v -78.210175 -52.860226 1286.174194
v -77.691162 -53.344692 1282.829834
v -78.008301 -53.118710 1282.709961
v -78.701172 -53.012051 1282.753906
v -78.008301 -53.118710 1282.709961
v -77.815659 -53.301991 1282.688721
v -78.008301 -53.118710 1282.709961
v -82.006104 -57.759609 1282.795410
v -77.239258 -53.573818 1285.702026
v -77.337044 -53.822964 1285.850586
v -77.221680 -53.565639 1285.718750
v -77.989258 -53.492397 1286.152588
v -81.583702 -55.765308 1285.810059
v -77.752296 -53.320808 1282.739990
v -77.853027 -53.224819 1282.669556
v -77.814201 -53.673908 1282.760010
v -83.281250 -60.730679 1282.976074
v -77.691399 -53.345211 1282.829956
v -77.219406 -53.720242 1283.026489
v -77.691399 -53.345211 1282.829956
v -77.185516 -53.695766 1282.979858
v -77.171387 -53.741177 1283.109375
v -76.949097 -53.864811 1283.459961
v -76.985199 -53.846809 1283.260010
v -77.155403 -53.730911 1283.099976
v -76.964569 -53.885082 1283.210938
v -76.947701 -53.967709 1283.390015
v -76.985199 -53.846809 1283.260010
v -76.949097 -53.864811 1283.459961
v -82.503845 -56.332241 1283.776367
v -76.751503 -54.006310 1283.709961
v -76.688599 -54.017109 1284.420044
v -76.751503 -54.006310 1283.709961
v -76.644501 -54.078911 1284.199951
v -76.732399 -53.972012 1284.739990
v -76.691299 -54.010586 1284.932251
v -76.640602 -54.045712 1284.609985
v -76.640602 -54.045712 1284.609985
v -76.732399 -53.972012 1284.739990
v -76.698196 -54.084309 1284.819946
v -76.697449 -54.084972 1284.820190
v -76.684601 -54.000511 1284.930054
v -76.684601 -54.000511 1284.930054
v -76.698196 -54.084309 1284.819946
v -76.732399 -53.972012 1284.739990
v -76.749695 -53.949703 1285.164917
v -76.644501 -54.078911 1284.199951
v -76.688599 -54.017109 1284.420044
v -76.673103 -54.131310 1284.500000
v -76.640602 -54.045712 1284.609985
v -76.640602 -54.045712 1284.609985
v -76.669006 -54.134670 1284.500000
v -82.921875 -57.062710 1285.558594
v -76.887703 -53.890308 1285.400024
v -76.850586 -53.916836 1285.417358
v -77.159599 -53.666611 1285.770020
v -77.159599 -53.666611 1285.770020
v -77.240799 -53.572910 1285.699951
v -77.354401 -53.812908 1285.819946
v -77.150391 -53.672085 1285.786621
v -80.572754 -57.351772 1286.208984
v -81.882812 -57.925991 1286.301514
v -76.943848 -53.970852 1283.386230
v -79.044876 -57.017433 1283.807495
v -76.737488 -54.016335 1283.706665
v -76.644501 -54.078911 1284.199951
v -83.974800 -57.938210 1285.280029
v -79.935059 -58.379604 1284.879883
v -84.839355 -58.608120 1284.404541
v -78.972977 -57.171062 1284.375000
v -83.968750 -59.086147 1286.088867
v -79.773895 -57.139385 1283.175049
v -80.072449 -58.032959 1283.530029
v -83.345505 -57.736408 1283.334961
v -85.989990 -59.821011 1285.107910
v -80.108849 -57.760258 1285.775024
v -80.566452 -58.814110 1285.354980
v -83.750977 -58.406460 1283.162109
v -84.493164 -58.505093 1283.723633
v -83.841400 -58.035011 1283.530029
v -81.123398 -59.187061 1285.625000
v -84.609375 -59.847866 1282.882812
v -82.364426 -60.259586 1283.280029
v -81.458496 -60.074429 1284.164551
v -85.410500 -59.804909 1285.699951
v -81.470703 -58.957241 1286.017578
v -83.492188 -60.168179 1286.271484
v -85.781250 -62.269741 1282.675781
v -85.824219 -60.081264 1283.367188
v -86.084473 -59.917694 1283.867188
v -82.071945 -60.298061 1283.530029
v -81.951904 -60.601223 1285.023438
v -86.300674 -61.059059 1282.890015
v -86.665901 -60.996109 1283.069946
v -82.535156 -61.074276 1283.888184
v -87.018738 -60.539150 1284.250000
v -82.152344 -60.175991 1285.789062
v -83.152603 -61.244213 1285.630005
v -84.191895 -61.442112 1286.040039
v -89.203125 -64.242393 1282.401367
v -89.718750 -63.140835 1282.976562
v -89.969727 -62.723354 1284.399902
v -90.648438 -63.718960 1285.089844
v -83.564209 -61.939663 1285.252930
v -87.375000 -62.687710 1286.042969
v -84.441399 -62.039310 1285.829956
v -86.410156 -62.937710 1286.006836
v -90.171875 -64.000206 1282.486328
v -84.566406 -62.597866 1283.363281
v -90.359375 -63.254116 1283.222656
v -91.317383 -63.720913 1283.440430
v -83.971436 -62.573452 1284.550781
v -84.475304 -62.484810 1285.500000
v -91.583603 -64.866158 1285.234985
v -85.414902 -62.809811 1285.770020
v -93.915039 -65.197227 1283.557129
v -91.429001 -63.820011 1284.479980
v -86.367188 -64.090050 1285.226562
v -90.248322 -65.646049 1282.467529
v -86.534203 -63.369110 1282.760010
v -86.332031 -63.886929 1283.198242
v -86.098511 -64.178062 1283.851074
v -92.652100 -64.755959 1284.590088
v -86.346924 -64.371544 1284.567139
v -87.007812 -64.090050 1285.568359
v -89.625000 -65.297081 1285.492188
v -89.130325 -65.613533 1282.967529
v -88.156647 -65.258003 1283.314941
v -94.821106 -65.790207 1283.869995
v -88.751465 -65.824059 1283.768799
v -87.746094 -65.146690 1284.708984
v -93.000000 -66.500206 1285.070312
v -93.435699 -65.635208 1282.339966
v -98.831520 -69.504204 1281.446533
v -94.218750 -65.617393 1282.716797
v -99.603241 -68.527672 1283.355225
v -89.791992 -66.407433 1284.191895
v -89.529198 -65.816910 1285.040039
v -89.680000 -66.112358 1284.734985
v -92.781250 -67.172081 1284.835938
v -99.064301 -69.337685 1283.918823
v -93.848053 -66.408104 1282.050049
v -99.087402 -68.896202 1281.515625
v -91.313599 -66.544563 1282.520020
v -99.299202 -68.150406 1282.989990
v -99.617554 -68.399376 1283.171265
v -91.889374 -67.346809 1283.012451
v -99.311768 -69.276329 1283.835938
v -91.516350 -66.876457 1284.734985
v -99.188202 -68.697105 1281.609985
v -99.449799 -68.274010 1282.229980
v -91.603516 -67.390831 1283.715088
v -93.412598 -67.869331 1282.517578
v -92.314529 -67.550652 1284.209961
v -94.671600 -68.452629 1284.157471
v -99.387695 -68.480675 1281.853516
v -99.536201 -68.495209 1282.859985
v -99.449799 -68.274010 1282.229980
v -99.378899 -68.473602 1281.859985
v -99.330002 -68.131607 1282.699951
v -99.547363 -68.267784 1282.860840
v -99.536201 -68.495209 1282.859985
v -99.330002 -68.131607 1282.699951
v -99.449799 -68.274010 1282.229980
v -99.544296 -68.271606 1282.859985
v -99.330002 -68.131607 1282.699951
v -99.536201 -68.495209 1282.859985
v -99.544296 -68.271606 1282.859985
v -99.536201 -68.495209 1282.859985
v -99.299202 -68.150406 1282.989990
v -98.534943 -70.052452 1281.709961
v -94.636719 -68.830284 1283.125977
v -99.385597 -68.914406 1283.760010
v -99.536201 -68.495209 1282.859985
v -99.615402 -68.403008 1283.170044
v -99.299202 -68.150406 1282.989990
v -99.645996 -68.414665 1283.162598
v -98.710503 -70.285805 1283.010010
v -99.314453 -69.269737 1283.805664
v -99.545700 -68.638008 1283.520020
v -99.385597 -68.914406 1283.760010
v -98.630005 -70.488487 1283.115356
v -99.141113 -68.707237 1281.612305
v -98.735352 -69.722862 1281.479492
v -98.845215 -69.274071 1281.426758
v -98.463593 -70.341354 1282.073730
v -98.528839 -70.419258 1282.234863
v -98.496696 -70.494003 1282.459961
v -99.227501 -69.443207 1283.750000
v -98.184097 -70.366302 1282.719971
v -99.023438 -69.887901 1283.773438
v -99.215401 -69.503403 1283.849976
v -99.358002 -69.103607 1283.829956
v -99.227501 -69.443207 1283.750000
v -99.064499 -69.338303 1283.910034
v -99.295502 -69.285805 1283.800049
v -98.855698 -69.275307 1281.410034
v -98.703499 -69.699707 1281.489990
v -98.678192 -69.858185 1281.559326
v -98.626900 -70.096207 1281.920044
v -98.378403 -70.401306 1283.000000
v -98.816597 -70.224007 1283.469971
v -99.025902 -69.880905 1283.760010
v -98.816406 -70.254112 1283.484375
v -99.215401 -69.503403 1283.849976
v -99.227501 -69.443207 1283.750000
v -99.215401 -69.503403 1283.849976
v -99.064499 -69.338303 1283.910034
v -98.538101 -70.048004 1281.719971
v -98.444580 -70.305016 1282.058350
v -98.534203 -70.406006 1282.239990
v -98.534203 -70.406006 1282.239990
v -98.506592 -70.502281 1282.459229
v -98.497238 -70.482994 1282.456299
v -98.637398 -70.454407 1283.099976
v -98.710503 -70.285805 1283.010010
v -98.378403 -70.401306 1283.000000
v -98.637398 -70.454407 1283.099976
v -98.710503 -70.285805 1283.010010
vn -0.4598 0.4279 -0.7782
vn -0.6293 0.5311 -0.5674
vn -0.2309 0.5391 -0.8100
vn 0.4152 0.9009 -0.1268
vn 0.0792 0.9669 -0.2425
vn -0.0844 0.9619 -0.2601
vn 0.4759 0.8738 -0.0999
vn 0.7584 0.6501 -0.0475
vn 0.6322 0.7728 -0.0559
vn -0.8054 0.5910 0.0458
vn -0.7830 0.5849 -0.2117
vn -0.7710 0.6215 -0.1386
vn -0.7659 0.5917 0.2514
vn -0.7740 0.5827 0.2479
vn -0.6758 0.5797 0.4553
vn -0.5680 0.4526 0.6874
vn -0.0566 0.9679 0.2448
vn 0.6531 0.7492 -0.1105
vn 0.5968 0.8006 -0.0532
vn 0.6398 0.7672 -0.0450
vn 0.6039 0.7963 -0.0347
vn 0.6043 0.7962 -0.0293
vn 0.0347 0.5796 -0.8142
vn -0.1713 0.3463 -0.9223
vn -0.0509 0.0531 -0.9973
vn 0.2490 -0.0697 -0.9660
vn 0.5921 0.8037 -0.0590
vn -0.6190 0.4523 -0.6420
vn 0.6462 0.7630 0.0163
vn 0.4809 0.2009 0.8534
vn -0.0642 0.1851 0.9806
vn 0.2925 0.0276 0.9559
vn 0.5497 -0.2959 0.7812
vn -0.5542 0.4685 0.6880
vn -0.4226 0.3225 0.8470
vn 0.7495 0.5024 -0.4311
vn 0.6229 0.7804 -0.0549
vn 0.7195 -0.1153 -0.6848
vn 0.4766 -0.1694 -0.8626
vn 0.3409 -0.3300 -0.8803
vn 0.4638 -0.2038 -0.8622
vn 0.4165 0.0492 -0.9078
vn -0.0838 0.0304 -0.9960
vn 0.5847 0.8104 -0.0374
vn 0.4930 0.8677 -0.0636
vn 0.5947 0.8027 -0.0447
vn 0.6906 0.4820 -0.5392
vn 0.5975 -0.4819 -0.6409
vn 0.9184 0.2310 -0.3214
vn 0.9782 0.1256 -0.1652
vn 0.5511 0.7959 0.2507
vn -0.6957 0.5849 -0.4171
vn 0.6266 0.7791 -0.0207
vn 0.6280 0.7772 -0.0393
vn 0.8226 0.3273 -0.4649
vn 0.7148 0.6974 -0.0527
vn 0.6008 0.7992 -0.0171
vn 0.6703 0.7390 0.0680
vn 0.5988 0.8003 -0.0308
vn 0.8235 0.4733 0.3127
vn 0.9654 0.1357 -0.2227
vn 0.7852 -0.5667 0.2495
vn 0.7745 -0.5462 0.3191
vn 0.7466 -0.5611 0.3576
vn 0.9659 0.2232 0.1312
vn 0.9939 0.0916 -0.0617
vn 0.9670 -0.0446 -0.2510
vn 0.8731 -0.4648 0.1468
vn 0.8057 -0.5858 0.0877
vn -0.6015 0.5090 0.6157
vn 0.7243 0.6772 0.1297
vn -0.1671 0.5155 0.8404
vn 0.7319 0.6706 0.1211
vn -0.0391 0.0249 0.9989
vn 0.7120 -0.5861 -0.3867
vn 0.6769 -0.5762 -0.4580
vn 0.7273 -0.5814 -0.3648
vn -0.6651 0.6378 0.3884
vn 0.7610 -0.6244 0.1761
vn 0.2841 -0.2116 0.9351
vn 0.5558 -0.4234 0.7154
vn -0.7195 0.6850 -0.1142
vn 0.7862 -0.6051 -0.1255
vn 0.7818 -0.6157 -0.0983
vn 0.6691 -0.4976 0.5521
vn -0.3065 0.2845 0.9084
vn 0.4806 -0.4031 -0.7788
vn 0.6193 -0.5407 -0.5693
vn -0.5888 0.5191 -0.6196
vn -0.6420 0.6994 0.3140
vn 0.5649 -0.4350 0.7012
vn 0.6722 -0.5636 0.4800
vn -0.4572 0.4422 -0.7717
vn -0.6317 0.6268 -0.4562
vn -0.5707 0.5353 -0.6227
vn -0.2945 0.3119 -0.9033
vn 0.7210 -0.6586 -0.2155
vn 0.5864 -0.5064 0.6322
vn -0.5247 0.5505 0.6493
vn 0.3944 -0.3723 0.8401
vn 0.0858 -0.1227 0.9887
vn 0.1394 -0.1036 -0.9848
vn -0.4784 0.5914 -0.6492
vn -0.6050 0.6486 -0.4618
vn 0.5016 -0.5023 -0.7044
vn 0.5893 -0.5672 -0.5753
vn 0.6835 -0.6843 0.2542
vn -0.3074 0.4632 -0.8312
vn -0.3476 0.5556 -0.7553
vn 0.6474 -0.6697 -0.3638
vn -0.6340 0.7721 -0.0435
vn 0.4906 -0.4996 0.7139
vn -0.3808 0.6042 -0.6999
vn -0.6002 0.7686 0.2214
vn -0.4729 0.5858 0.6582
vn 0.5811 -0.6873 0.4358
vn 0.5095 -0.5788 0.6367
vn 0.2720 -0.3521 0.8956
vn 0.3763 -0.5005 0.7797
vn 0.1234 -0.2929 0.9482
vn -0.1719 0.0497 0.9839
vn 0.0519 -0.0079 -0.9986
vn -0.1661 0.3921 -0.9048
vn 0.5539 -0.6164 -0.5596
vn -0.4226 0.7245 -0.5445
vn -0.4775 0.8362 -0.2698
vn 0.6370 -0.7702 0.0328
vn 0.4882 -0.6475 0.5851
vn -0.3204 0.2816 0.9044
vn 0.3293 -0.5049 0.7979
vn -0.4992 0.8659 -0.0325
vn -0.5184 0.7458 0.4183
vn 0.4530 -0.7145 0.5331
vn 0.2786 -0.3579 -0.8912
vn 0.3114 -0.3691 -0.8757
vn 0.4691 -0.6088 -0.6397
vn -0.4977 0.7722 0.3950
vn 0.5719 -0.7808 -0.2518
vn 0.5382 -0.8272 0.1615
vn 0.2671 -0.5634 0.7818
vn 0.0958 -0.4061 0.9088
vn 0.4214 -0.6230 -0.6590
vn 0.4791 -0.7514 -0.4537
vn -0.5090 0.8251 0.2451
vn 0.4413 -0.8257 0.3514
vn -0.1254 -0.1282 0.9838
vn -0.2575 0.5779 -0.7744
vn 0.1762 -0.1073 -0.9785
vn -0.3857 0.7687 -0.5102
vn 0.4966 -0.8512 -0.1698
vn -0.4408 0.6232 0.6460
vn 0.4516 -0.8749 0.1746
vn 0.2978 -0.6923 0.6572
vn 0.3692 -0.8014 0.4705
vn 0.1037 -0.5258 0.8443
vn -0.1634 -0.0391 0.9858
vn -0.1057 0.3080 -0.9455
vn -0.0385 0.3547 -0.9342
vn 0.3555 -0.5298 -0.7700
vn -0.4870 0.8539 0.1835
vn -0.4550 0.7501 0.4800
vn 0.4532 -0.7848 -0.4228
vn -0.2610 0.1911 0.9462
vn 0.2680 -0.7096 0.6517
vn -0.1313 0.5186 -0.8449
vn -0.4231 0.8607 -0.2832
vn 0.4487 -0.8934 0.0219
vn 0.3931 -0.6836 -0.6150
vn 0.2238 -0.7454 0.6280
vn 0.3423 -0.8456 0.4096
vn -0.9171 -0.3455 -0.1990
vn -0.9086 -0.3797 -0.1738
vn -0.9888 -0.0313 -0.1459
vn -0.3094 0.7424 -0.5942
vn -0.4770 0.8789 -0.0023
vn -0.4809 0.8703 0.1063
vn -0.8560 0.5133 0.0625
vn -0.5799 -0.0335 -0.8140
vn -0.4702 -0.0036 0.8825
vn 0.3516 -0.5499 -0.7576
vn -0.6984 0.6154 -0.3654
vn -0.8911 -0.4301 -0.1450
vn -0.9156 -0.3843 -0.1179
vn -0.9155 -0.3900 -0.0988
vn -0.9407 -0.2491 0.2303
vn -0.9329 -0.1097 0.3429
vn 0.4169 -0.9065 -0.0675
vn -0.3583 0.3640 0.8597
vn 0.2828 -0.8193 0.4988
vn -0.8587 -0.4677 -0.2093
vn -0.7515 -0.1501 -0.6425
vn -0.7079 -0.1811 -0.6828
vn 0.4193 -0.7999 -0.4294
vn 0.4344 -0.8519 -0.2926
vn 0.4413 -0.8723 -0.2104
vn -0.9043 -0.3992 -0.1516
vn 0.3394 -0.9400 0.0349
vn -0.9543 -0.2087 -0.2137
vn -0.4776 -0.4459 0.7571
vn 0.0301 -0.3963 0.9176
vn 0.0916 0.0704 -0.9933
vn 0.2414 -0.2746 -0.9308
vn 0.2903 -0.3902 -0.8738
vn -0.6991 -0.6301 -0.3380
vn 0.2216 -0.9599 0.1716
vn -0.8903 -0.4303 -0.1487
vn -0.8969 -0.4177 -0.1453
vn 0.1844 -0.6847 0.7051
vn -0.8980 -0.4179 -0.1378
vn -0.1466 -0.2513 0.9567
vn -0.7455 0.5355 0.3969
vn -0.6065 -0.6667 -0.4333
vn -0.3819 -0.7549 -0.5332
vn -0.3753 -0.7189 -0.5852
vn -0.8800 -0.4632 -0.1048
vn -0.8761 -0.4631 -0.1337
vn -0.8789 -0.4554 -0.1421
vn -0.3164 -0.9265 0.2037
vn 0.0272 -0.9903 0.1366
vn -0.2063 -0.5220 -0.8276
usemtl mtl1
s 1
f 1//1 2//2 3//3
f 7//4 8//5 9//6
f 8//5 7//4 10//7
f 12//8 13//9 7//4
f 6//10 5//11 14//12
f 6//10 15//13 11//14
f 16//15 11//14 15//13
f 6//10 14//12 15//13
f 16//15 18//16 17//17
f 20//18 13//9 19//19
f 21//20 13//9 20//18
f 24//21 13//9 21//20
f 25//22 10//7 7//4
f 3//3 26//23 27//24
f 27//24 28//25 29//26
f 10//7 25//22 30//27
f 3//3 27//24 1//1
f 1//1 4//28 2//2
f 13//9 25//22 7//4
f 24//21 32//29 13//9
f 34//30 22//31 35//32
f 34//30 35//32 33//33
f 13//9 32//29 25//22
f 18//16 36//34 23//35
f 37//36 38//37 25//22
f 25//22 38//37 30//27
f 29//26 41//38 39//39
f 39//39 40//40 29//26
f 42//41 39//39 43//42
f 29//26 31//43 27//24
f 46//44 47//45 45//46
f 42//41 48//47 49//48
f 50//49 51//50 52//49
f 46//44 45//46 25//22
f 45//46 44//51 25//22
f 2//2 53//52 5//11
f 53//52 14//12 5//11
f 54//53 46//44 25//22
f 55//54 54//53 25//22
f 50//49 52//49 56//55
f 57//56 54//53 55//54
f 32//29 58//57 25//22
f 32//29 59//58 58//57
f 58//57 55//54 25//22
f 60//59 55//54 58//57
f 61//60 62//60 63//60
f 66//61 67//61 68//61
f 64//62 65//63 69//64
f 70//65 71//66 72//66
f 73//67 72//66 71//66
f 74//68 64//62 75//69
f 36//34 18//16 16//15
f 16//15 15//13 76//70
f 77//71 59//58 32//29
f 80//72 81//72 82//72
f 32//29 79//73 77//71
f 35//32 22//31 85//74
f 39//39 42//41 40//40
f 40//40 31//43 29//26
f 27//24 4//28 1//1
f 2//2 4//28 53//52
f 87//75 86//76 88//77
f 90//78 15//13 14//12
f 64//62 69//64 91//79
f 76//70 15//13 90//78
f 33//33 84//80 83//81
f 84//80 33//33 35//32
f 14//12 53//52 92//82
f 89//83 93//84 88//77
f 93//84 89//83 75//69
f 91//79 75//69 64//62
f 36//34 16//15 76//70
f 91//79 69//64 78//85
f 85//74 22//31 94//86
f 49//48 95//87 42//41
f 49//48 86//76 95//87
f 86//76 96//88 95//87
f 87//75 96//88 86//76
f 97//89 53//52 4//28
f 97//89 4//28 27//24
f 14//12 98//90 90//78
f 78//85 83//81 99//91
f 78//85 100//92 91//79
f 100//92 78//85 99//91
f 99//91 83//81 84//80
f 23//35 36//34 94//86
f 84//80 35//32 85//74
f 31//43 101//93 27//24
f 101//93 97//89 27//24
f 53//52 102//94 92//82
f 103//95 53//52 97//89
f 102//94 53//52 103//95
f 88//77 93//84 87//75
f 98//90 14//12 92//82
f 91//79 93//84 75//69
f 94//86 22//31 23//35
f 76//70 94//86 36//34
f 105//96 101//93 31//43
f 97//89 102//94 103//95
f 87//75 93//84 107//97
f 91//79 107//97 93//84
f 104//98 100//92 99//91
f 90//78 108//99 76//70
f 99//91 84//80 109//100
f 104//98 99//91 109//100
f 84//80 85//74 110//101
f 31//43 111//102 105//96
f 40//40 42//41 95//87
f 40//40 111//102 31//43
f 101//93 102//94 97//89
f 112//103 102//94 101//93
f 102//94 112//103 113//104
f 96//88 106//105 95//87
f 87//75 107//97 96//88
f 96//88 107//97 114//106
f 90//78 98//90 108//99
f 91//79 100//92 115//107
f 76//70 108//99 94//86
f 109//100 84//80 110//101
f 85//74 94//86 110//101
f 95//87 106//105 40//40
f 105//96 112//103 101//93
f 112//103 105//96 116//108
f 116//108 117//109 112//103
f 114//106 106//105 96//88
f 107//97 118//110 114//106
f 102//94 119//111 92//82
f 102//94 113//104 119//111
f 119//111 98//90 92//82
f 120//112 100//92 104//98
f 115//107 100//92 120//112
f 120//112 104//98 109//100
f 120//112 109//100 110//101
f 124//113 113//104 112//103
f 119//111 125//114 98//90
f 91//79 115//107 107//97
f 108//99 126//115 94//86
f 125//114 126//115 98//90
f 98//90 126//115 108//99
f 127//116 115//107 120//112
f 120//112 121//117 127//116
f 110//101 122//118 120//112
f 129//119 120//112 122//118
f 130//120 110//101 128//121
f 110//101 94//86 128//121
f 123//122 116//108 105//96
f 131//123 117//109 116//108
f 106//105 132//124 40//40
f 117//109 124//113 112//103
f 131//123 124//113 117//109
f 113//104 133//125 119//111
f 124//113 133//125 113//104
f 134//126 119//111 133//125
f 119//111 134//126 125//114
f 106//105 114//106 118//110
f 132//124 106//105 118//110
f 107//97 135//127 118//110
f 115//107 135//127 107//97
f 135//127 115//107 127//116
f 129//119 136//128 121//117
f 94//86 137//129 128//121
f 121//117 120//112 129//119
f 122//118 110//101 130//120
f 122//118 130//120 138//130
f 105//96 111//102 123//122
f 134//126 139//131 125//114
f 140//132 126//115 125//114
f 135//127 132//124 118//110
f 126//115 137//129 94//86
f 136//128 127//116 121//117
f 129//119 122//118 138//130
f 127//116 136//128 141//133
f 136//128 138//130 141//133
f 129//119 138//130 136//128
f 111//102 142//134 123//122
f 123//122 131//123 116//108
f 111//102 40//40 143//135
f 40//40 132//124 143//135
f 132//124 144//136 143//135
f 140//132 125//114 139//131
f 140//132 146//137 126//115
f 132//124 135//127 145//138
f 135//127 147//139 145//138
f 147//139 135//127 141//133
f 127//116 141//133 135//127
f 148//140 141//133 138//130
f 138//130 130//120 148//140
f 149//141 148//140 130//120
f 149//141 130//120 128//121
f 111//102 143//135 142//134
f 143//135 144//136 142//134
f 144//136 150//142 142//134
f 144//136 151//143 150//142
f 132//124 145//138 144//136
f 144//136 145//138 151//143
f 152//144 140//132 139//131
f 152//144 146//137 140//132
f 147//139 141//133 154//145
f 128//121 137//129 155//146
f 156//147 124//113 131//123
f 124//113 156//147 133//125
f 123//122 142//134 157//148
f 133//125 158//149 134//126
f 134//126 158//149 139//131
f 145//138 147//139 153//150
f 146//137 159//151 126//115
f 147//139 154//145 160//152
f 141//133 161//153 162//154
f 154//145 141//133 162//154
f 161//153 148//140 149//141
f 155//146 163//155 149//141
f 137//129 164//156 155//146
f 148//140 161//153 141//133
f 149//141 128//121 155//146
f 165//157 156//147 131//123
f 123//122 165//157 131//123
f 156//147 158//149 133//125
f 165//157 166//158 156//147
f 158//149 156//147 166//158
f 142//134 150//142 167//159
f 139//131 168//160 152//144
f 168//160 169//161 152//144
f 150//142 151//143 170//162
f 151//143 153//150 170//162
f 152//144 169//161 146//137
f 147//139 160//152 153//150
f 151//143 145//138 153//150
f 164//156 137//129 171//163
f 159//151 146//137 169//161
f 149//141 172//164 161//153
f 154//145 162//154 160//152
f 172//164 162//154 161//153
f 172//164 149//141 163//155
f 123//122 157//148 165//157
f 166//158 173//165 158//149
f 158//149 174//166 139//131
f 170//162 153//150 175//167
f 176//168 150//142 170//162
f 160//152 175//167 153//150
f 172//164 163//155 178//169
f 160//152 162//154 177//170
f 160//152 177//170 175//167
f 162//154 172//164 177//170
f 179//171 180//172 181//173
f 182//174 174//166 158//149
f 174//166 183//175 139//131
f 183//175 184//176 139//131
f 184//176 168//160 139//131
f 185//177 186//177 187//177
f 188//178 189//178 190//178
f 191//179 192//179 193//179
f 167//159 150//142 176//168
f 142//134 167//159 194//180
f 194//180 167//159 176//168
f 197//181 198//181 199//181
f 201//182 200//183 180//172
f 202//184 200//183 201//182
f 200//183 202//184 203//185
f 203//185 202//184 204//186
f 195//187 170//162 175//167
f 126//115 159//151 196//188
f 196//188 137//129 126//115
f 137//129 196//188 171//163
f 178//169 177//170 172//164
f 178//169 205//189 177//170
f 175//167 177//170 195//187
f 177//170 205//189 195//187
f 182//174 158//149 173//165
f 207//190 180//172 179//171
f 208//191 179//171 206//192
f 176//168 170//162 209//193
f 195//187 209//193 170//162
f 209//193 195//187 210//194
f 195//187 211//195 210//194
f 212//196 202//184 201//182
f 211//195 195//187 213//197
f 204//186 202//184 216//198
f 217//199 218//199 219//199
f 214//200 155//146 164//156
f 157//148 220//201 165//157
f 221//202 142//134 222//203
f 194//180 222//203 142//134
f 220//201 166//158 165//157
f 208//191 207//190 179//171
f 221//202 157//148 142//134
f 223//204 180//172 207//190
f 213//197 195//187 224//205
f 225//206 212//196 201//182
f 212//196 225//206 226//207
f 224//205 195//187 205//189
f 163//155 214//200 227//208
f 227//208 178//169 163//155
f 227//208 205//189 178//169
f 212//196 226//207 228//209
f 214//200 164//156 215//210
f 155//146 214//200 163//155
f 229//211 230//211 231//211
f 207//190 232//212 223//204
f 209//193 194//180 176//168
f 223//204 232//212 233//213
f 233//213 234//214 223//204
f 223//204 235//215 180//172
f 180//172 235//215 236//216
f 180//172 236//216 201//182
f 238//217 225//206 201//182
f 239//218 237//219 224//205
f 240//220 241//220 242//220
f 237//219 213//197 224//205
