#
# The license for this database is specified in the Creative Commons Attribution-Share Alike 2.1 Japan. If you use data from this database, please be sure attribute this database as follows: "BodyParts3D, (c)  The Database Center for Life Science licensed under CC Attribution-Share Alike 2.1 Japan".
# http://dbarchive.biosciencedbc.jp/en/bodyparts3d/lic.html
#
#
# Compatibility version : 4.0
# File ID : FJ2478
# Representation ID : BP9981
# Build-up logic : FMA 3.0 part_of
# Concept ID : FMA68226
# English name : Superior lingular bronchial tree
# Bounds(mm): (102.152000,-88.316000,1245.320000)-(111.562000,-80.761800,1252.200000)
# Volume(cm3): 0.015500
#
v 102.214 -85.3053 1250.74
v 102.564 -85.3172 1249.99
v 102.152 -85.5943 1250.17
v 102.783 -85.3487 1251.55
v 103.073 -86.2654 1251.98
v 106.034 -83.8357 1250.18
v 106.186 -83.4707 1249.3
v 104.635 -84.9713 1248.72
v 102.633 -86.5576 1249
v 102.688 -87.0931 1249.06
v 103.233 -87.0276 1248.94
v 103.431 -87.7902 1249.28
v 103.463 -88.0322 1249.93
v 103.763 -88.316 1250.16
v 106.881 -84.7938 1250.76
v 103.804 -86.3845 1252.2
v 103.735 -87.5066 1251.88
v 104.046 -87.5899 1251.86
v 103.754 -88.0514 1250.91
v 103.988 -88.0323 1251.41
v 104.616 -87.7957 1250.58
v 110.49 -80.9601 1246.45
v 110.731 -80.7618 1245.98
v 110.179 -81.0617 1246.16
v 110.425 -81.0349 1245.58
v 110.074 -81.4493 1245.72
v 108.105 -82.4946 1247.48
v 107.912 -83.6844 1247.23
v 108.452 -84.105 1247.3
v 108.552 -82.1711 1248.07
v 108.778 -82.5865 1248.77
v 109.493 -82.9449 1248.63
v 107.628 -85.2191 1249.95
v 108.278 -84.9639 1248.51
v 109.089 -83.8512 1248.97
v 106.658 -85.2937 1248.14
v 111.139 -80.9615 1246.48
v 111.562 -81.3727 1246.31
v 110.729 -81.2223 1245.6
v 110.475 -81.4106 1245.32
v 110.067 -82.0895 1245.7
v 110.877 -81.5454 1247.02
v 110.587 -81.8391 1245.36
v 110.979 -81.9663 1247.04
v 111.204 -82.1877 1246.41
v 111.372 -81.9948 1245.62
v 102.214 -85.3053 1250.74
v 102.214 -85.3053 1250.74
v 102.214 -85.3053 1250.74
v 102.152 -85.5943 1250.17
v 102.152 -85.5943 1250.17
v 102.783 -85.3487 1251.55
v 102.783 -85.3487 1251.55
v 103.073 -86.2654 1251.98
v 103.073 -86.2654 1251.98
v 103.073 -86.2654 1251.98
v 104.635 -84.9713 1248.72
v 104.635 -84.9713 1248.72
v 102.633 -86.5576 1249
v 102.633 -86.5576 1249
v 102.688 -87.0931 1249.06
v 102.688 -87.0931 1249.06
v 102.688 -87.0931 1249.06
v 103.431 -87.7902 1249.28
v 103.463 -88.0322 1249.93
v 103.763 -88.316 1250.16
v 103.763 -88.316 1250.16
v 103.804 -86.3845 1252.2
v 103.735 -87.5066 1251.88
v 103.988 -88.0323 1251.41
v 103.988 -88.0323 1251.41
v 110.731 -80.7618 1245.98
v 110.425 -81.0349 1245.58
v 107.912 -83.6844 1247.23
v 108.452 -84.105 1247.3
v 106.658 -85.2937 1248.14
v 111.139 -80.9615 1246.48
v 111.562 -81.3727 1246.31
v 111.562 -81.3727 1246.31
v 110.475 -81.4106 1245.32
v 110.475 -81.4106 1245.32
v 110.475 -81.4106 1245.32
v 110.587 -81.8391 1245.36
v 110.587 -81.8391 1245.36
v 111.372 -81.9948 1245.62
v 111.372 -81.9948 1245.62
v 111.372 -81.9948 1245.62
vn -0.320059 0.907086 0.273418
vn -0.548618 0.671046 -0.498714
vn -0.846986 -0.454394 0.275937
vn -0.301923 0.905146 0.299256
vn -0.817975 0.0109755 0.575149
vn -0.0740101 0.771178 0.632303
vn -0.456637 0.889012 -0.0337651
vn -0.5415 0.665976 -0.513083
vn -0.950048 -0.12943 -0.284002
vn -0.950048 -0.12943 -0.284002
vn -0.150904 -0.189483 -0.970219
vn 0.125698 -0.592902 -0.795403
vn -0.587517 -0.767946 -0.255114
vn -0.549567 -0.792009 -0.265889
vn 0.469002 0.147749 0.870751
vn -0.0187752 0.510375 0.859747
vn -0.82088 -0.500592 0.274888
vn 0.34741 -0.445901 0.824911
vn -0.744632 -0.610896 0.268943
vn 0.606903 -0.732924 0.307396
vn 0.598907 -0.792494 0.115169
vn -0.204856 0.906875 0.368254
vn -0.337941 0.932896 0.124503
vn -0.530808 0.847049 -0.0274009
vn -0.670434 0.608514 -0.424535
vn -0.706762 0.313217 -0.634336
vn -0.66177 0.628335 -0.408969
vn -0.639133 0.247115 -0.728315
vn -0.268614 -0.409857 -0.871701
vn -0.357062 0.899977 0.250094
vn 0.157383 0.682675 0.713572
vn 0.583965 0.214841 0.782833
vn 0.695176 -0.552901 0.459381
vn 0.555853 -0.79959 -0.22734
vn 0.773496 -0.339761 0.535038
vn 0.1961 -0.65392 -0.730707
vn 0.633037 0.742162 -0.220136
vn 0.633788 0.59358 -0.495959
vn 0.515503 0.512831 -0.686485
vn -0.692427 0.289496 -0.660861
vn -0.391754 -0.315907 -0.864136
vn 0.556558 0.363916 0.746866
vn 0.313186 -0.00687772 -0.949667
vn 0.785639 -0.0847674 0.612851
vn 0.829011 -0.509226 0.231149
vn 0.568665 0.460122 -0.681841
vn -0.851968 -0.450384 0.267029
vn -0.550943 0.78998 -0.269061
vn -0.817975 0.0109755 0.575149
vn -0.625134 0.614709 -0.480978
vn -0.950048 -0.12943 -0.284002
vn -0.817975 0.0109755 0.575149
vn -0.0732332 0.477265 0.875703
vn -0.852213 -0.472613 0.224432
vn -0.215068 0.358086 0.908582
vn -0.315544 -0.242199 0.917481
vn -0.232259 -0.0772849 -0.969579
vn -0.482316 0.256378 -0.83764
vn -0.555941 0.49904 -0.664747
vn -0.161903 -0.0763751 -0.983847
vn -0.84597 -0.47411 0.244038
vn -0.176838 -0.286847 -0.941513
vn -0.624213 -0.742242 -0.243793
vn -0.587517 -0.767946 -0.255114
vn -0.802575 -0.550946 0.228761
vn -0.647695 -0.720652 0.247288
vn 0.48259 -0.851341 -0.205732
vn 0.0544003 -0.234549 0.970581
vn -0.161955 -0.419371 0.893252
vn -0.141343 -0.696733 0.703268
vn -0.613255 -0.725188 0.313082
vn 0.570861 0.625533 -0.531814
vn 0.407652 0.565382 -0.717052
vn -0.301889 -0.337527 -0.891593
vn 0.219584 -0.773637 -0.594365
vn -0.252646 -0.199468 -0.946775
vn 0.256739 0.718287 0.646644
vn 0.658389 0.27906 0.699035
vn 0.895496 -0.359674 0.262148
vn 0.464341 0.490272 -0.737577
vn -0.462606 -0.203414 -0.862913
vn 0.313186 -0.00687772 -0.949667
vn -0.420397 -0.290035 -0.859736
vn 0.0966051 -0.697954 -0.709596
vn 0.313186 -0.00687772 -0.949667
vn 0.187629 -0.757174 -0.625686
vn 0.815258 -0.578213 0.0320085
g grp1
usemtl mtl1
f 4//4 7//7 1//1 
f 7//7 4//4 6//6 
f 3//3 17//17 47//47 
f 2//2 50//50 48//48 
f 49//49 5//5 52//52 
f 47//47 17//17 54//54 
f 48//48 7//7 2//2 
f 9//9 10//10 51//51 
f 2//2 59//59 50//50 
f 3//3 61//61 17//17 
f 2//2 8//8 59//59 
f 6//6 53//53 16//16 
f 6//6 16//16 15//15 
f 55//55 16//16 53//53 
f 56//56 69//69 68//68 
f 7//7 27//27 8//8 
f 6//6 30//30 7//7 
f 30//30 6//6 31//31 
f 6//6 15//15 31//31 
f 8//8 2//2 7//7 
f 60//60 11//11 62//62 
f 57//57 11//11 60//60 
f 11//11 12//12 62//62 
f 11//11 36//36 12//12 
f 64//64 13//13 63//63 
f 19//19 61//61 65//65 
f 17//17 61//61 19//19 
f 76//76 11//11 57//57 
f 34//34 12//12 36//36 
f 64//64 14//14 13//13 
f 66//66 19//19 65//65 
f 34//34 21//21 67//67 
f 67//67 12//12 34//34 
f 33//33 18//18 20//20 
f 18//18 33//33 15//15 
f 15//15 68//68 18//18 
f 68//68 69//69 18//18 
f 70//70 18//18 69//69 
f 71//71 17//17 19//19 
f 66//66 71//71 19//19 
f 67//67 21//21 20//20 
f 30//30 22//22 24//24 
f 23//23 25//25 24//24 
f 22//22 23//23 24//24 
f 22//22 30//30 31//31 
f 73//73 72//72 39//39 
f 38//38 39//39 72//72 
f 38//38 72//72 37//37 
f 77//77 23//23 22//22 
f 77//77 22//22 31//31 
f 42//42 77//77 31//31 
f 7//7 30//30 27//27 
f 26//26 28//28 27//27 
f 30//30 24//24 27//27 
f 25//25 26//26 27//27 
f 40//40 28//28 26//26 
f 24//24 25//25 27//27 
f 39//39 80//80 73//73 
f 25//25 40//40 26//26 
f 74//74 81//81 41//41 
f 29//29 74//74 41//41 
f 58//58 27//27 28//28 
f 29//29 76//76 74//74 
f 74//74 76//76 57//57 
f 32//32 42//42 31//31 
f 44//44 42//42 32//32 
f 35//35 44//44 32//32 
f 32//32 31//31 15//15 
f 75//75 34//34 36//36 
f 15//15 35//35 32//32 
f 33//33 35//35 15//15 
f 33//33 34//34 35//35 
f 35//35 34//34 45//45 
f 34//34 33//33 21//21 
f 20//20 21//21 33//33 
f 38//38 46//46 39//39 
f 78//78 77//77 42//42 
f 44//44 78//78 42//42 
f 44//44 45//45 79//79 
f 39//39 46//46 80//80 
f 85//85 43//43 82//82 
f 41//41 81//81 83//83 
f 29//29 41//41 83//83 
f 86//86 34//34 75//75 
f 86//86 75//75 84//84 
f 45//45 87//87 79//79 
f 87//87 45//45 34//34 
f 44//44 35//35 45//45 
