#
# The license for this database is specified in the Creative Commons Attribution-Share Alike 2.1 Japan. If you use data from this database, please be sure attribute this database as follows: "BodyParts3D, (c)  The Database Center for Life Science licensed under CC Attribution-Share Alike 2.1 Japan".
# http://dbarchive.biosciencedbc.jp/en/bodyparts3d/lic.html
#
#
# Compatibility version : 4.0
# File ID : FJ2477
# Representation ID : BP9981
# Build-up logic : FMA 3.0 part_of
# Concept ID : FMA68226
# English name : Superior lingular bronchial tree
# Bounds(mm): (103.303000,-117.100000,1227.120000)-(113.366000,-109.811000,1232.770000)
# Volume(cm3): 0.057900
#
v 106.108 -111.995 1228.62
v 105.202 -113.533 1228.53
v 104.073 -115.452 1229.72
v 104.053 -116.105 1229.91
v 103.303 -115.315 1230.91
v 104.039 -114.403 1231.85
v 104.562 -114.762 1232.4
v 105.046 -114.727 1232.68
v 105.667 -114.337 1232.22
v 103.9 -116.376 1230.27
v 105.591 -115.078 1232.77
v 107.154 -111.894 1227.12
v 106.892 -113.454 1227.45
v 108.006 -110.952 1228.77
v 108.335 -112.062 1229.76
v 109.939 -111.173 1229.25
v 108.567 -113.599 1229.14
v 104.875 -116.62 1229.86
v 106.363 -115.354 1232.25
v 106.101 -116.488 1231.68
v 106.657 -115.804 1231.77
v 106.063 -116.833 1230.51
v 105.929 -117.1 1230.94
v 106.582 -116.448 1231.01
v 106.453 -116.636 1231.54
v 106.155 -115.778 1232.46
v 109.926 -110.451 1227.25
v 110.749 -111.335 1227.21
v 113.064 -109.811 1228.87
v 111.054 -111.768 1228.97
v 112.664 -110.169 1229.44
v 112.897 -110.255 1228.09
v 109.451 -112.722 1228.8
v 109.55 -112.547 1227.37
v 110.978 -112.113 1228.27
v 108.333 -113.812 1228.12
v 112.599 -111.478 1228.84
v 113.366 -110.918 1228.28
v 113.121 -111.168 1229.37
v 106.108 -111.995 1228.62
v 105.202 -113.533 1228.53
v 103.303 -115.315 1230.91
v 103.303 -115.315 1230.91
v 104.039 -114.403 1231.85
v 104.562 -114.762 1232.4
v 104.562 -114.762 1232.4
v 105.046 -114.727 1232.68
v 103.9 -116.376 1230.27
v 103.9 -116.376 1230.27
v 103.9 -116.376 1230.27
v 105.591 -115.078 1232.77
v 107.154 -111.894 1227.12
v 107.154 -111.894 1227.12
v 107.154 -111.894 1227.12
v 106.892 -113.454 1227.45
v 108.006 -110.952 1228.77
v 108.335 -112.062 1229.76
v 109.939 -111.173 1229.25
v 104.875 -116.62 1229.86
v 104.875 -116.62 1229.86
v 106.063 -116.833 1230.51
v 105.929 -117.1 1230.94
v 105.929 -117.1 1230.94
v 105.929 -117.1 1230.94
v 106.453 -116.636 1231.54
v 106.155 -115.778 1232.46
v 109.926 -110.451 1227.25
v 109.926 -110.451 1227.25
v 113.064 -109.811 1228.87
v 113.064 -109.811 1228.87
v 113.064 -109.811 1228.87
v 111.054 -111.768 1228.97
v 111.054 -111.768 1228.97
v 112.664 -110.169 1229.44
v 112.664 -110.169 1229.44
v 112.897 -110.255 1228.09
v 112.897 -110.255 1228.09
v 109.451 -112.722 1228.8
v 110.978 -112.113 1228.27
v 108.333 -113.812 1228.12
v 108.333 -113.812 1228.12
v 112.599 -111.478 1228.84
v 113.366 -110.918 1228.28
v 113.366 -110.918 1228.28
v 113.366 -110.918 1228.28
v 113.366 -110.918 1228.28
v 113.121 -111.168 1229.37
v 113.121 -111.168 1229.37
v 113.121 -111.168 1229.37
vn -0.750401 0.648693 -0.126866
vn -0.811105 0.377126 -0.447084
vn -0.696885 -0.109326 -0.708801
vn -0.622327 -0.337496 -0.706261
vn -0.889652 0.211097 -0.404916
vn -0.523756 0.730944 0.437493
vn -0.467745 0.46769 0.749987
vn -0.0852905 0.651455 0.753878
vn 0.179249 0.618521 0.76505
vn -0.850125 -0.179791 -0.494937
vn -0.466181 -0.615896 0.635097
vn -0.442429 0.857773 -0.261692
vn -0.475614 -0.243097 -0.845396
vn -0.137293 0.691168 0.709534
vn 0.495603 0.165903 0.852558
vn -0.104475 0.119229 0.987355
vn 0.835955 -0.461123 0.297564
vn -0.379019 -0.536859 -0.753742
vn 0.716489 0.0459568 0.696083
vn -0.25089 -0.711498 0.656373
vn 0.827282 -0.183177 0.531084
vn 0.180858 -0.788867 -0.587349
vn -0.293072 -0.946476 -0.135246
vn 0.75041 -0.651704 -0.110307
vn -0.0580619 -0.749158 0.659842
vn -0.313366 -0.688717 0.653812
vn -0.334413 0.935458 -0.114393
vn 0.228925 -0.072177 -0.970765
vn 0.793156 0.440503 -0.420549
vn 0.319365 -0.810391 0.491194
vn -0.208425 0.887424 0.411142
vn 0.793156 0.440503 -0.420549
vn 0.416243 -0.546567 0.726641
vn 0.324435 -0.629095 -0.706386
vn 0.470854 -0.805468 -0.359886
vn 0.73815 -0.668439 -0.0912361
vn 0.477416 -0.854589 -0.204334
vn 0.793156 0.440503 -0.420549
vn 0.201061 -0.918471 0.340568
vn -0.449671 0.855524 -0.256661
vn -0.526766 -0.148783 -0.836888
vn -0.747231 -0.0772523 0.660059
vn -0.458699 -0.633795 0.622816
vn -0.747231 -0.0772523 0.660059
vn -0.747231 -0.0772523 0.660059
vn -0.388306 -0.672381 0.630176
vn -0.403999 -0.653998 0.639587
vn -0.429871 -0.645363 0.63144
vn -0.429 -0.626107 -0.651114
vn -0.293072 -0.946476 -0.135246
vn 0.432624 0.380616 0.817293
vn -0.740132 0.464839 -0.485931
vn -0.532731 -0.0874604 -0.841753
vn 0.037712 -0.112502 -0.992936
vn 0.140499 -0.517563 -0.844031
vn -0.344699 0.938534 -0.0183222
vn 0.271135 0.0528347 0.96109
vn 0.271135 0.0528347 0.96109
vn -0.293072 -0.946476 -0.135246
vn 0.178655 -0.750059 -0.636784
vn 0.700805 -0.683582 -0.20393
vn 0.120421 -0.857743 -0.499775
vn -0.257258 -0.713088 0.652169
vn 0.706812 -0.693036 -0.141838
vn 0.830752 -0.509678 0.223783
vn 0.733822 -0.110431 0.670306
vn 0.132042 0.167833 -0.976932
vn 0.0866929 0.857708 -0.506776
vn -0.218482 0.948118 0.230948
vn 0.0866929 0.857708 -0.506776
vn 0.857901 0.208988 0.469394
vn 0.271135 0.0528347 0.96109
vn -0.0311259 -0.474894 0.879492
vn -0.116716 0.135288 0.983908
vn 0.698307 0.27312 0.661644
vn 0.315362 0.13824 -0.938849
vn 0.0866929 0.857708 -0.506776
vn 0.701886 -0.712186 -0.0121252
vn 0.352533 -0.854844 0.380739
vn 0.281429 -0.698366 -0.65809
vn 0.440734 -0.775744 0.451637
vn 0.201465 -0.903964 0.377175
vn 0.37832 0.0022527 -0.925672
vn 0.960407 0.130948 0.245909
vn 0.395469 -0.49384 -0.77442
vn 0.498249 -0.850566 -0.16818
vn 0.857901 0.208988 0.469394
vn -0.034239 -0.286478 0.957475
vn 0.557387 -0.827738 -0.0645684
g grp1
usemtl mtl1
f 1//1 6//6 14//14 
f 1//1 5//5 6//6 
f 2//2 5//5 1//1 
f 5//5 2//2 3//3 
f 4//4 5//5 3//3 
f 41//41 13//13 3//3 
f 4//4 3//3 13//13 
f 4//4 13//13 18//18 
f 5//5 4//4 10//10 
f 14//14 6//6 8//8 
f 6//6 7//7 8//8 
f 42//42 45//45 44//44 
f 48//48 46//46 43//43 
f 14//14 8//8 9//9 
f 47//47 48//48 11//11 
f 47//47 46//46 48//48 
f 48//48 26//26 11//11 
f 51//51 15//15 9//9 
f 9//9 8//8 51//51 
f 56//56 12//12 40//40 
f 12//12 56//56 27//27 
f 52//52 2//2 1//1 
f 53//53 13//13 41//41 
f 16//16 14//14 15//15 
f 17//17 33//33 15//15 
f 17//17 24//24 36//36 
f 4//4 18//18 49//49 
f 59//59 23//23 50//50 
f 9//9 15//15 14//14 
f 21//21 17//17 15//15 
f 51//51 19//19 15//15 
f 15//15 19//19 21//21 
f 66//66 21//21 19//19 
f 26//26 20//20 25//25 
f 20//20 26//26 48//48 
f 65//65 21//21 66//66 
f 60//60 22//22 62//62 
f 63//63 20//20 48//48 
f 17//17 21//21 65//65 
f 63//63 25//25 20//20 
f 55//55 80//80 60//60 
f 36//36 24//24 61//61 
f 60//60 80//80 22//22 
f 61//61 24//24 64//64 
f 65//65 24//24 17//17 
f 64//64 24//24 65//65 
f 19//19 51//51 66//66 
f 54//54 67//67 28//28 
f 55//55 54//54 34//34 
f 28//28 34//34 54//54 
f 29//29 38//38 32//32 
f 69//69 27//27 56//56 
f 31//31 69//69 56//56 
f 14//14 16//16 74//74 
f 67//67 76//76 28//28 
f 68//68 70//70 77//77 
f 28//28 76//76 83//83 
f 35//35 80//80 34//34 
f 37//37 35//35 34//34 
f 79//79 82//82 30//30 
f 82//82 39//39 30//30 
f 34//34 80//80 55//55 
f 78//78 17//17 36//36 
f 33//33 30//30 15//15 
f 33//33 81//81 30//30 
f 72//72 58//58 57//57 
f 79//79 30//30 81//81 
f 71//71 75//75 87//87 
f 74//74 16//16 88//88 
f 88//88 16//16 73//73 
f 84//84 71//71 87//87 
f 34//34 28//28 85//85 
f 34//34 86//86 37//37 
f 86//86 89//89 37//37 
