#
# The license for this database is specified in the Creative Commons Attribution-Share Alike 2.1 Japan. If you use data from this database, please be sure attribute this database as follows: "BodyParts3D, (c)  The Database Center for Life Science licensed under CC Attribution-Share Alike 2.1 Japan".
# http://dbarchive.biosciencedbc.jp/en/bodyparts3d/lic.html
#
#
# Compatibility version : 4.0
# File ID : FJ2465
# Representation ID : BP9913
# Build-up logic : FMA 3.0 part_of
# Concept ID : FMA68225
# English name : Left posterior segmental bronchial tree
# Bounds(mm): (70.382200,-82.391600,1290.310100)-(84.056500,-63.354200,1301.900000)
# Volume(cm3): 0.179400
#
v 70.3822 -80.0567 1298.36
v 70.5555 -81.0695 1298.68
v 72.7836 -82.0901 1297.52
v 73.5047 -75.513 1295.87
v 70.7144 -81.3365 1297.69
v 71.8346 -81.2711 1297.24
v 71.5777 -81.9807 1297.48
v 73.7533 -73.8661 1296.34
v 73.1759 -75.214 1298.73
v 70.4949 -79.4849 1300.28
v 70.7345 -80.1428 1301.18
v 70.9811 -79.9499 1301.58
v 72.1462 -79.9608 1301.9
v 76.1938 -72.6991 1294.37
v 74.8524 -77.6797 1296.3
v 75.5087 -78.3306 1297.64
v 73.2412 -82.3916 1298.29
v 73.9098 -81.9296 1298.24
v 74.291 -81.9848 1298.99
v 74.0189 -82.3713 1299.09
v 75.5639 -73.0079 1297.96
v 73.0399 -80.7973 1301.88
v 73.4506 -80.1892 1301.59
v 74.1869 -80.3666 1301.03
v 73.7807 -80.4738 1301.43
v 74.0268 -81.5634 1301.06
v 74.4422 -81.5689 1300.43
v 79.1665 -68.0961 1292.44
v 77.4538 -69.4468 1293.62
v 77.0464 -74.6715 1295.87
v 77.5705 -68.8073 1294.33
v 77.7087 -69.1085 1295.37
v 76.6642 -73.0174 1297.72
v 77.512 -73.6011 1296.97
v 82.0957 -64.4529 1290.82
v 82.0379 -64.2118 1291.07
v 82.3482 -64.827 1290.62
v 82.7332 -63.7744 1290.5
v 82.7042 -65.6146 1290.89
v 83.3311 -64.5245 1290.31
v 83.9643 -64.7053 1290.85
v 84.0565 -64.6857 1291.55
v 82.8589 -63.3542 1291.67
v 82.1938 -64.446 1292.56
v 83.1493 -63.4015 1291.73
v 82.7279 -64.1104 1292.35
v 83.0088 -65.0668 1292.65
v 83.9926 -64.1065 1291.9
v 70.3822 -80.0567 1298.36
v 70.5555 -81.0695 1298.68
v 72.7836 -82.0901 1297.52
v 70.7144 -81.3365 1297.69
v 70.7144 -81.3365 1297.69
v 71.5777 -81.9807 1297.48
v 71.5777 -81.9807 1297.48
v 70.4949 -79.4849 1300.28
v 70.7345 -80.1428 1301.18
v 70.7345 -80.1428 1301.18
v 70.9811 -79.9499 1301.58
v 70.9811 -79.9499 1301.58
v 72.1462 -79.9608 1301.9
v 73.2412 -82.3916 1298.29
v 73.2412 -82.3916 1298.29
v 74.0189 -82.3713 1299.09
v 73.0399 -80.7973 1301.88
v 73.0399 -80.7973 1301.88
v 74.0268 -81.5634 1301.06
v 74.0268 -81.5634 1301.06
v 74.4422 -81.5689 1300.43
v 82.7332 -63.7744 1290.5
v 82.7332 -63.7744 1290.5
v 83.3311 -64.5245 1290.31
v 83.9643 -64.7053 1290.85
v 83.9643 -64.7053 1290.85
v 83.9643 -64.7053 1290.85
v 84.0565 -64.6857 1291.55
v 82.8589 -63.3542 1291.67
v 83.1493 -63.4015 1291.73
v 83.1493 -63.4015 1291.73
v 83.9926 -64.1065 1291.9
v 83.9926 -64.1065 1291.9
vn -0.985581 -0.169191 -0.00189508
vn -0.984393 -0.170501 0.0435895
vn 0.298055 -0.466508 -0.832787
vn -0.664657 0.123763 -0.736827
vn -0.974533 -0.199515 -0.102369
vn -0.181713 -0.239528 -0.953733
vn -0.179759 -0.25195 -0.950898
vn -0.854185 0.474475 -0.212701
vn -0.633771 0.645248 0.426602
vn -0.8442 0.481292 0.235975
vn -0.873253 0.2528 0.416559
vn -0.549675 0.530364 0.645423
vn 0.134602 0.408488 0.902784
vn -0.128942 -0.281819 -0.950764
vn 0.554595 -0.45503 -0.696686
vn 0.816898 -0.445656 -0.366153
vn -0.370522 -0.858127 0.355432
vn 0.626866 -0.570484 -0.530648
vn 0.846996 -0.493112 -0.198592
vn -0.364897 -0.856418 0.365237
vn -0.0923092 0.550387 0.829791
vn -0.369963 -0.822028 0.432894
vn 0.405545 0.224017 0.8862
vn 0.757115 -0.0155415 0.653097
vn 0.608774 0.0275506 0.792865
vn 0.488773 -0.807863 0.329329
vn 0.848636 -0.527926 0.0333243
vn -0.551539 0.0446715 -0.832952
vn -0.723515 0.285892 -0.628325
vn 0.706596 -0.570197 -0.419044
vn -0.758797 0.651089 0.0176215
vn -0.454153 0.701647 0.549033
vn 0.45665 0.243382 0.855708
vn 0.822419 -0.175615 0.541098
vn -0.651667 0.237591 -0.720334
vn -0.74531 0.571767 -0.342923
vn -0.398685 -0.0542599 -0.915482
vn -0.605238 0.34771 -0.71609
vn 0.281932 -0.58253 -0.762347
vn 3.72227e-05 -0.37769 -0.925932
vn 0.608837 0.668677 -0.426835
vn 0.850951 -0.478517 0.216574
vn -0.466483 0.788636 0.400559
vn -0.15494 0.637644 0.754589
vn 0.625561 0.655836 -0.422554
vn 0.129784 0.517298 0.845907
vn 0.466416 0.1889 0.86416
vn 0.634706 0.663791 -0.395638
vn -0.84566 0.303806 -0.438818
vn -0.402736 -0.858123 0.318478
vn -0.0747573 -0.942844 -0.324741
vn -0.482555 -0.0597891 -0.873822
vn -0.573419 -0.809515 0.126002
vn -0.48005 -0.845772 0.232857
vn -0.0747573 -0.942844 -0.324741
vn -0.981122 -0.154568 0.116229
vn -0.975961 -0.172055 0.133784
vn -0.370085 -0.801809 0.46919
vn -0.380675 -0.718949 0.581549
vn -0.255663 -0.295177 0.920601
vn -0.255663 -0.295177 0.920601
vn -0.0747573 -0.942844 -0.324741
vn 0.466517 -0.730806 -0.498282
vn 0.671775 -0.731007 -0.119781
vn -0.255663 -0.295177 0.920601
vn 0.452288 0.0659418 0.889431
vn -0.366552 -0.859333 0.356633
vn 0.708469 -0.108247 0.697391
vn 0.834589 -0.0938236 0.542825
vn 0.658114 0.629265 -0.413415
vn 0.220614 0.910179 -0.350576
vn 0.620779 0.651639 -0.43589
vn 0.421118 -0.614283 -0.667319
vn 0.97307 0.187976 -0.133418
vn 0.796907 -0.597626 -0.0882227
vn 0.97307 0.187976 -0.133418
vn 0.220614 0.910179 -0.350576
vn 0.220614 0.910179 -0.350576
vn 0.121204 0.610585 0.782621
vn 0.53441 0.185783 0.824555
vn 0.97307 0.187976 -0.133418
g grp1
usemtl mtl1
f 5//5 2//2 1//1 
f 49//49 10//10 8//8 
f 2//2 56//56 1//1 
f 49//49 4//4 52//52 
f 10//10 11//11 12//12 
f 14//14 15//15 3//3 
f 15//15 18//18 3//3 
f 8//8 4//4 49//49 
f 6//6 52//52 14//14 
f 52//52 4//4 14//14 
f 7//7 52//52 6//6 
f 53//53 54//54 50//50 
f 6//6 14//14 3//3 
f 3//3 7//7 6//6 
f 54//54 17//17 50//50 
f 17//17 20//20 50//50 
f 8//8 29//29 4//4 
f 10//10 9//9 8//8 
f 9//9 12//12 21//21 
f 2//2 57//57 56//56 
f 9//9 10//10 12//12 
f 59//59 58//58 22//22 
f 22//22 58//58 50//50 
f 21//21 12//12 13//13 
f 61//61 60//60 65//65 
f 4//4 29//29 14//14 
f 14//14 30//30 15//15 
f 30//30 16//16 15//15 
f 30//30 27//27 16//16 
f 62//62 55//55 51//51 
f 15//15 16//16 18//18 
f 18//18 63//63 3//3 
f 19//19 18//18 16//16 
f 16//16 27//27 19//19 
f 18//18 64//64 63//63 
f 18//18 19//19 64//64 
f 64//64 19//19 27//27 
f 64//64 27//27 26//26 
f 31//31 8//8 9//9 
f 31//31 29//29 8//8 
f 25//25 33//33 23//23 
f 13//13 33//33 21//21 
f 23//23 33//33 13//13 
f 25//25 24//24 33//33 
f 50//50 67//67 22//22 
f 67//67 50//50 20//20 
f 66//66 23//23 13//13 
f 25//25 23//23 66//66 
f 25//25 66//66 68//68 
f 25//25 68//68 24//24 
f 69//69 24//24 68//68 
f 37//37 14//14 28//28 
f 35//35 37//37 28//28 
f 29//29 35//35 28//28 
f 36//36 29//29 31//31 
f 28//28 14//14 29//29 
f 30//30 34//34 27//27 
f 44//44 32//32 21//21 
f 32//32 31//31 9//9 
f 32//32 9//9 21//21 
f 24//24 34//34 33//33 
f 24//24 69//69 34//34 
f 37//37 35//35 38//38 
f 35//35 36//36 38//38 
f 43//43 38//38 36//36 
f 35//35 29//29 36//36 
f 34//34 30//30 42//42 
f 43//43 32//32 44//44 
f 31//31 43//43 36//36 
f 43//43 31//31 32//32 
f 40//40 39//39 14//14 
f 39//39 30//30 14//14 
f 70//70 45//45 72//72 
f 38//38 40//40 37//37 
f 14//14 37//37 40//40 
f 45//45 41//41 72//72 
f 39//39 40//40 73//73 
f 39//39 73//73 30//30 
f 48//48 41//41 45//45 
f 34//34 42//42 80//80 
f 81//81 76//76 74//74 
f 42//42 30//30 75//75 
f 78//78 71//71 77//77 
f 46//46 79//79 43//43 
f 43//43 44//44 46//46 
f 46//46 44//44 21//21 
f 79//79 46//46 80//80 
f 46//46 21//21 33//33 
f 46//46 33//33 47//47 
f 34//34 80//80 47//47 
f 33//33 34//34 47//47 
f 47//47 80//80 46//46 
