#
# The license for this database is specified in the Creative Commons Attribution-Share Alike 2.1 Japan. If you use data from this database, please be sure attribute this database as follows: "BodyParts3D, (c)  The Database Center for Life Science licensed under CC Attribution-Share Alike 2.1 Japan".
# http://dbarchive.biosciencedbc.jp/en/bodyparts3d/lic.html
#
#
# Compatibility version : 4.0
# File ID : FJ2533
# Representation ID : BP10117
# Build-up logic : FMA 3.0 part_of
# Concept ID : FMA68232
# English name : Left lateral basal segmental bronchial tree
# Bounds(mm): (106.474000,-77.413300,1124.850000)-(115.587000,-64.635100,1158.890000)
# Volume(cm3): 0.260300
#
v 106.518 -73.0974 1157.3
v 106.474 -73.9501 1157.28
v 106.739 -73.3501 1156.47
v 107.047 -72.2129 1156.54
v 106.969 -71.8847 1157.1
v 108.577 -75.4508 1158.4
v 107.399 -71.8789 1156.47
v 108.243 -71.207 1157.4
v 108.417 -71.3061 1156.84
v 109.242 -71.3794 1156.68
v 109.291 -71.2758 1157.38
v 109.154 -74.6435 1158.73
v 109.66 -75.1276 1158.33
v 110.15 -73.7995 1158.89
v 110.112 -74.6623 1158.52
v 110.064 -71.6713 1157.54
v 110.19 -72.0214 1158.37
v 110.508 -74.311 1158.24
v 110.832 -72.76 1157.64
v 110.598 -72.3296 1157.78
v 110.583 -72.9701 1158.74
v 109.97 -73.9115 1149.52
v 112.111 -74.9 1154.09
v 110.993 -77.2969 1149.03
v 110.939 -73.309 1149.83
v 112.239 -73.5058 1151.89
v 111.569 -75.0429 1143
v 111.41 -77.1076 1145.38
v 112.542 -77.4133 1146.82
v 113.343 -74.0047 1146
v 113.469 -74.7927 1149.52
v 114.028 -74.5368 1146.41
v 112.766 -76.5924 1150.11
v 112.212 -76.0021 1140.28
v 112.507 -74.0243 1140.07
v 112.021 -74.8769 1140.77
v 114.92 -75.5562 1143.61
v 112.914 -71.8287 1133.85
v 113.217 -74.0923 1134.62
v 112.693 -74.331 1136.52
v 114.05 -75.4845 1136.56
v 113.884 -76.803 1140.26
v 112.846 -73.201 1137.02
v 113.528 -72.6286 1137.14
v 114.294 -72.5288 1137.28
v 113.943 -71.5167 1135.02
v 113.367 -73.2885 1139.24
v 114.611 -73.4069 1139.74
v 115.587 -74.9141 1138.74
v 114.886 -76.438 1140.72
v 113.218 -70.4144 1129.32
v 112.003 -65.6036 1126.39
v 111.91 -65.62 1126.02
v 112.134 -65.2133 1126.34
v 112.389 -64.9678 1126.4
v 111.946 -65.9392 1125.65
v 111.881 -65.4809 1125.33
v 112.405 -64.6351 1126.01
v 113 -65.1946 1126.78
v 112.686 -67.2475 1128.72
v 112.461 -68.3622 1129.2
v 114.384 -68.2906 1130.02
v 112.95 -69.7124 1131.38
v 112.672 -70.1497 1129.99
v 114.165 -71.9421 1130.95
v 115.079 -75.6959 1137.96
v 114.957 -71.0078 1133.73
v 115.24 -72.7266 1136.66
v 115.482 -73.8509 1138.46
v 112.286 -66.0178 1124.98
v 112.958 -67.2218 1125.97
v 113.434 -64.9408 1125.5
v 113.664 -65.1809 1126.14
v 113.332 -65.5766 1124.85
v 113.501 -65.7135 1124.88
v 113.829 -66.134 1125.66
v 113.796 -65.5307 1125.46
v 114.198 -68.6879 1127.75
v 115.325 -71.7394 1132.43
v 106.518 -73.0974 1157.3
v 106.474 -73.9501 1157.28
v 106.474 -73.9501 1157.28
v 106.969 -71.8847 1157.1
v 108.577 -75.4508 1158.4
v 108.577 -75.4508 1158.4
v 108.577 -75.4508 1158.4
v 108.243 -71.207 1157.4
v 108.243 -71.207 1157.4
v 109.154 -74.6435 1158.73
v 109.66 -75.1276 1158.33
v 110.15 -73.7995 1158.89
v 110.15 -73.7995 1158.89
v 110.112 -74.6623 1158.52
v 110.19 -72.0214 1158.37
v 110.583 -72.9701 1158.74
v 110.993 -77.2969 1149.03
v 111.569 -75.0429 1143
v 111.569 -75.0429 1143
v 111.41 -77.1076 1145.38
v 111.41 -77.1076 1145.38
v 112.542 -77.4133 1146.82
v 113.343 -74.0047 1146
v 112.212 -76.0021 1140.28
v 112.914 -71.8287 1133.85
v 113.217 -74.0923 1134.62
v 114.05 -75.4845 1136.56
v 113.367 -73.2885 1139.24
v 114.886 -76.438 1140.72
v 111.881 -65.4809 1125.33
v 111.881 -65.4809 1125.33
v 112.405 -64.6351 1126.01
v 112.405 -64.6351 1126.01
v 112.405 -64.6351 1126.01
v 113 -65.1946 1126.78
v 114.384 -68.2906 1130.02
v 114.384 -68.2906 1130.02
v 114.384 -68.2906 1130.02
v 112.95 -69.7124 1131.38
v 112.672 -70.1497 1129.99
v 114.165 -71.9421 1130.95
v 115.079 -75.6959 1137.96
v 114.957 -71.0078 1133.73
v 112.286 -66.0178 1124.98
v 112.286 -66.0178 1124.98
v 113.434 -64.9408 1125.5
v 113.434 -64.9408 1125.5
v 113.664 -65.1809 1126.14
v 113.332 -65.5766 1124.85
v 113.332 -65.5766 1124.85
v 113.501 -65.7135 1124.88
v 113.501 -65.7135 1124.88
v 114.198 -68.6879 1127.75
v 115.325 -71.7394 1132.43
vn -0.407056 0.13949 0.902689
vn -0.476332 -0.00541522 0.879249
vn -0.921728 0.157833 -0.354267
vn -0.798106 0.445651 -0.405489
vn -0.703736 0.6218 -0.343686
vn -0.584117 -0.811617 0.00929603
vn -0.530544 0.753643 -0.388001
vn -0.174176 0.959334 -0.222126
vn -0.204208 0.939465 -0.275146
vn 0.22164 0.95724 -0.185922
vn 0.252582 0.966066 0.0540267
vn -0.394883 0.175707 0.901773
vn 0.185352 -0.495179 0.848789
vn -0.291809 0.274525 0.916233
vn 0.181426 -0.450539 0.874128
vn 0.605056 0.787552 0.116917
vn -0.308691 0.269212 0.912269
vn 0.785403 -0.38795 0.482324
vn 0.909219 0.341366 0.238306
vn 0.825022 0.531211 0.192754
vn 0.919645 0.117271 0.374834
vn -0.784501 0.485174 -0.386218
vn 0.908635 -0.250073 0.334434
vn -0.656718 -0.752157 -0.0545932
vn -0.0590634 0.96903 -0.239777
vn 0.589846 0.807504 -0.00430795
vn -0.293058 0.91991 -0.260542
vn -0.9423 -0.0386096 -0.332537
vn 0.0768848 -0.997031 0.00429896
vn 0.267479 0.96353 0.008064
vn 0.953443 0.194508 0.230464
vn 0.78581 0.593705 0.173253
vn 0.644998 -0.704632 0.295756
vn -0.964098 -0.144526 -0.222773
vn -0.753251 0.656761 0.0357425
vn -0.97291 0.193666 -0.126256
vn 0.963852 -0.189483 0.18731
vn -0.9995 -0.01386 -0.0284253
vn -0.946658 -0.257403 -0.193864
vn -0.981094 -0.0848151 -0.17396
vn -0.36155 -0.83808 -0.408539
vn 0.0100819 -0.975237 -0.220934
vn -0.827965 0.551102 0.103733
vn -0.459995 0.834112 0.304404
vn 0.0759196 0.92593 0.369986
vn -0.259893 0.845021 0.467327
vn -0.600942 0.789005 0.127826
vn 0.402283 0.882981 0.241893
vn 0.980501 -0.196305 -0.00908949
vn 0.385968 -0.915619 -0.112562
vn -0.440867 -0.699374 -0.562595
vn -0.915913 0.255055 0.309921
vn -0.982597 0.144178 0.117118
vn -0.805326 0.444278 0.392513
vn -0.415543 0.661388 0.624412
vn -0.937466 -0.298988 -0.178225
vn -0.945258 -0.265724 -0.189416
vn -0.833893 0.504756 0.223257
vn -0.174692 0.712455 0.679626
vn -0.584912 0.546512 0.599335
vn -0.926451 0.179519 0.330851
vn 0.468492 0.729866 0.497806
vn -0.952257 0.169432 0.253969
vn -0.994396 -0.0377812 0.098734
vn -0.066828 -0.773782 -0.629917
vn 0.397221 -0.851445 -0.342428
vn 0.263131 0.847414 0.461141
vn 0.729763 0.635964 0.250988
vn 0.906615 0.389834 0.161487
vn -0.0808181 -0.538022 -0.839047
vn 0.0616814 -0.684505 -0.726394
vn -0.125964 0.718619 -0.6839
vn 0.397317 0.843601 0.361215
vn -0.197808 0.603383 -0.772529
vn 0.123068 -0.506051 -0.853678
vn 0.919566 -0.131872 -0.370145
vn 0.891357 0.31855 -0.322503
vn 0.845077 -0.303644 -0.440051
vn 0.987014 -0.0321525 -0.157383
vn -0.937734 0.169911 -0.30296
vn -0.9473 -0.0115533 -0.320138
vn -0.656718 -0.752157 -0.0545932
vn -0.339321 0.26394 0.902883
vn -0.478135 -0.0146467 0.878164
vn 0.19648 -0.485874 0.851658
vn 0.258246 -0.930793 0.258716
vn -0.345274 0.257158 0.902583
vn 0.0642214 0.824004 0.562933
vn 0.186491 -0.462434 0.866819
vn 0.451655 -0.833208 0.319018
vn 0.724965 -0.28788 0.62574
vn 0.187986 -0.395009 0.899238
vn 0.704066 -0.539846 0.461365
vn 0.538446 0.758559 0.366966
vn -0.209329 0.278816 0.937253
vn 0.10053 -0.985763 0.134778
vn -0.970811 0.123101 -0.205846
vn -0.60072 0.795074 0.0836236
vn -0.720856 -0.683004 -0.117779
vn -0.241329 -0.958902 -0.149225
vn 0.729672 -0.665931 0.155288
vn -0.603018 0.793522 0.0818009
vn -0.44411 -0.840016 -0.311672
vn -0.639981 0.682705 0.352616
vn -0.445006 -0.764065 -0.467092
vn 0.471719 -0.77998 -0.411234
vn -0.05792 0.967646 0.245572
vn 0.867837 -0.492151 0.0681662
vn -0.885715 0.446467 0.127186
vn -0.232356 0.538695 -0.809826
vn -0.157185 0.70159 -0.695028
vn -0.12535 0.755696 0.642815
vn 0.356128 0.889045 0.2877
vn 0.406103 0.803574 0.435144
vn -0.190772 0.772411 0.605794
vn 0.283587 0.793995 0.537727
vn 0.946149 0.313809 0.0795403
vn -0.365452 0.711806 0.599814
vn -0.76181 -0.52971 -0.372899
vn 0.677352 -0.580446 -0.45197
vn 0.890358 -0.430856 -0.147056
vn 0.944604 0.31564 0.0899649
vn -0.796424 -0.475186 -0.374041
vn -0.268649 0.375545 -0.887014
vn 0.37141 0.905179 0.206654
vn 0.789722 0.508418 -0.343293
vn 0.926728 0.375727 0.00206489
vn -0.0202849 -0.238038 -0.971044
vn 0.645195 0.546354 -0.53406
vn 0.596307 0.625838 -0.502737
vn 0.862897 -0.194471 -0.466466
vn 0.240701 -0.660116 -0.711555
vn 0.904254 -0.36523 -0.221205
g grp1
usemtl mtl1
f 2//2 12//12 1//1 
f 81//81 80//80 3//3 
f 28//28 81//81 3//3 
f 82//82 24//24 6//6 
f 84//84 12//12 2//2 
f 4//4 3//3 5//5 
f 3//3 80//80 5//5 
f 5//5 7//7 4//4 
f 3//3 4//4 22//22 
f 4//4 7//7 22//22 
f 82//82 99//99 24//24 
f 12//12 83//83 1//1 
f 5//5 9//9 7//7 
f 9//9 5//5 8//8 
f 87//87 83//83 12//12 
f 22//22 7//7 9//9 
f 9//9 8//8 11//11 
f 10//10 25//25 9//9 
f 17//17 87//87 12//12 
f 10//10 9//9 11//11 
f 26//26 10//10 11//11 
f 26//26 25//25 10//10 
f 26//26 11//11 16//16 
f 13//13 89//89 85//85 
f 15//15 89//89 13//13 
f 12//12 14//14 17//17 
f 93//93 18//18 91//91 
f 15//15 92//92 89//89 
f 11//11 88//88 94//94 
f 16//16 11//11 94//94 
f 20//20 16//16 94//94 
f 94//94 21//21 20//20 
f 17//17 14//14 95//95 
f 91//91 18//18 21//21 
f 28//28 3//3 22//22 
f 22//22 9//9 25//25 
f 90//90 86//86 33//33 
f 90//90 33//33 93//93 
f 20//20 26//26 16//16 
f 20//20 21//21 19//19 
f 93//93 33//33 18//18 
f 23//23 18//18 33//33 
f 23//23 21//21 18//18 
f 33//33 86//86 96//96 
f 20//20 31//31 26//26 
f 19//19 31//31 20//20 
f 19//19 21//21 31//31 
f 22//22 25//25 27//27 
f 21//21 23//23 31//31 
f 34//34 22//22 97//97 
f 28//28 22//22 34//34 
f 97//97 36//36 34//34 
f 30//30 25//25 26//26 
f 96//96 29//29 33//33 
f 29//29 96//96 100//100 
f 30//30 26//26 32//32 
f 33//33 31//31 23//23 
f 26//26 31//31 32//32 
f 40//40 34//34 36//36 
f 97//97 35//35 36//36 
f 47//47 43//43 35//35 
f 36//36 35//35 43//43 
f 98//98 102//102 47//47 
f 35//35 98//98 47//47 
f 29//29 100//100 42//42 
f 42//42 50//50 29//29 
f 27//27 25//25 30//30 
f 48//48 107//107 30//30 
f 48//48 30//30 32//32 
f 31//31 37//37 32//32 
f 69//69 32//32 37//37 
f 101//101 37//37 33//33 
f 37//37 31//31 33//33 
f 63//63 64//64 38//38 
f 38//38 64//64 39//39 
f 38//38 40//40 43//43 
f 39//39 40//40 38//38 
f 43//43 40//40 36//36 
f 39//39 34//34 40//40 
f 103//103 41//41 42//42 
f 105//105 41//41 103//103 
f 100//100 103//103 42//42 
f 106//106 66//66 42//42 
f 79//79 66//66 106//106 
f 46//46 118//118 104//104 
f 104//104 43//43 44//44 
f 46//46 104//104 44//44 
f 45//45 46//46 44//44 
f 67//67 46//46 45//45 
f 67//67 45//45 68//68 
f 48//48 68//68 45//45 
f 44//44 43//43 47//47 
f 44//44 107//107 45//45 
f 45//45 107//107 48//48 
f 69//69 68//68 48//48 
f 79//79 68//68 69//69 
f 66//66 50//50 42//42 
f 121//121 49//49 108//108 
f 37//37 49//49 69//69 
f 108//108 37//37 101//101 
f 108//108 49//49 37//37 
f 32//32 69//69 48//48 
f 70//70 71//71 51//51 
f 123//123 51//51 119//119 
f 119//119 51//51 105//105 
f 51//51 71//71 65//65 
f 57//57 56//56 53//53 
f 56//56 123//123 119//119 
f 64//64 53//53 56//56 
f 109//109 53//53 58//58 
f 58//58 53//53 54//54 
f 53//53 52//52 54//54 
f 54//54 55//55 58//58 
f 123//123 56//56 57//57 
f 124//124 110//110 74//74 
f 74//74 110//110 111//111 
f 59//59 112//112 55//55 
f 113//113 114//114 73//73 
f 54//54 52//52 61//61 
f 64//64 61//61 53//53 
f 52//52 53//53 61//61 
f 54//54 60//60 55//55 
f 55//55 60//60 59//59 
f 73//73 114//114 62//62 
f 60//60 54//54 61//61 
f 61//61 63//63 60//60 
f 60//60 118//118 59//59 
f 115//115 59//59 118//118 
f 63//63 61//61 64//64 
f 105//105 51//51 65//65 
f 78//78 79//79 120//120 
f 105//105 65//65 41//41 
f 79//79 106//106 120//120 
f 121//121 133//133 49//49 
f 46//46 115//115 118//118 
f 116//116 46//46 67//67 
f 117//117 122//122 79//79 
f 79//79 122//122 68//68 
f 79//79 69//69 49//49 
f 70//70 128//128 75//75 
f 75//75 71//71 70//70 
f 72//72 74//74 111//111 
f 73//73 125//125 113//113 
f 77//77 130//130 129//129 
f 126//126 77//77 129//129 
f 131//131 77//77 76//76 
f 127//127 77//77 126//126 
f 79//79 127//127 117//117 
f 79//79 77//77 127//127 
f 75//75 132//132 71//71 
f 131//131 76//76 78//78 
f 76//76 77//77 79//79 
f 76//76 79//79 78//78 
f 71//71 132//132 65//65 
