#
# The license for this database is specified in the Creative Commons Attribution-Share Alike 2.1 Japan. If you use data from this database, please be sure attribute this database as follows: "BodyParts3D, (c)  The Database Center for Life Science licensed under CC Attribution-Share Alike 2.1 Japan".
# http://dbarchive.biosciencedbc.jp/en/bodyparts3d/lic.html
#
#
# Compatibility version : 4.0
# File ID : FJ2474
# Representation ID : BP9474
# Build-up logic : FMA 3.0 part_of
# Concept ID : FMA68222
# English name : Left anterior segmental bronchial tree
# Bounds(mm): (58.628100,-134.781000,1278.600000)-(71.450900,-109.764000,1287.470000)
# Volume(cm3): 0.056700
#
v 58.6927 -110.836 1280.43
v 58.6931 -110.243 1281.02
v 58.6281 -110.822 1281.1
v 58.7059 -110.548 1281.49
v 58.9342 -110.597 1279.75
v 59.0127 -111.343 1279.89
v 59.0825 -110.051 1281.38
v 59.2619 -110.268 1282.47
v 60.7037 -111.391 1278.6
v 61.1718 -111.159 1278.93
v 60.0183 -109.764 1282.49
v 60.6518 -110.199 1283.27
v 61.552 -110.338 1283.34
v 58.7378 -115.302 1281.93
v 58.6319 -115.003 1282.56
v 59.8838 -118.168 1281.77
v 59.6248 -114.348 1284.06
v 58.9092 -115.055 1283.49
v 59.2786 -118.941 1282.94
v 59.1043 -118.579 1283.56
v 59.461 -118.569 1284.53
v 62.372 -111.891 1279.3
v 63.1433 -110.231 1282.3
v 63.1663 -110.777 1282.27
v 62.8481 -110.569 1281.03
v 63.4633 -110.857 1280.46
v 63.3341 -111.532 1280.48
v 63.5431 -110.748 1281.33
v 61.0052 -116.949 1280.98
v 62.1709 -109.901 1282.8
v 62.453 -110.276 1282.93
v 62.6855 -110.87 1282.85
v 62.7648 -115.476 1283.02
v 62.0262 -117.393 1281.61
v 61.9452 -120.506 1282.4
v 61.243 -115.924 1284.75
v 60.2104 -121.761 1283.8
v 60.9773 -121.321 1282.68
v 60.5822 -121.836 1283.24
v 60.3868 -122.12 1284.99
v 62.7218 -119.138 1284.56
v 62.91 -120.634 1283.26
v 63.3541 -122.492 1283.5
v 63.5574 -121.81 1284.81
v 63.2138 -124.107 1283.42
v 61.7605 -121.139 1285.82
v 63.3019 -121.799 1285.39
v 62.9077 -126.274 1284.66
v 63.8806 -126.597 1284.07
v 64.265 -124.278 1286.01
v 64.5393 -123.957 1285.14
v 63.9752 -127.635 1286.28
v 66.5606 -128.027 1286.59
v 67.7328 -129.79 1284.92
v 67.6775 -128.83 1285.97
v 69.4717 -133.997 1285.8
v 70.106 -133.976 1285.48
v 70.2837 -134.754 1285.93
v 69.8935 -134.781 1286.77
v 70.1767 -134.762 1287.12
v 70.9867 -133.056 1286.24
v 71.4509 -133.721 1286.26
v 70.8059 -134.09 1285.5
v 71.0706 -133.503 1285.83
v 71.3074 -133.974 1285.88
v 71.3528 -133.832 1286.47
v 71.2005 -133.425 1286.82
v 70.8064 -133.189 1287.09
v 70.6845 -133.853 1287.47
v 71.1425 -133.888 1287.09
v 58.6931 -110.243 1281.02
v 58.6931 -110.243 1281.02
v 58.7059 -110.548 1281.49
v 58.9342 -110.597 1279.75
v 59.0825 -110.051 1281.38
v 60.7037 -111.391 1278.6
v 60.7037 -111.391 1278.6
v 61.1718 -111.159 1278.93
v 60.0183 -109.764 1282.49
v 62.372 -111.891 1279.3
v 62.372 -111.891 1279.3
v 63.1433 -110.231 1282.3
v 63.4633 -110.857 1280.46
v 63.4633 -110.857 1280.46
v 63.4633 -110.857 1280.46
v 63.5431 -110.748 1281.33
v 62.1709 -109.901 1282.8
v 62.7648 -115.476 1283.02
v 61.243 -115.924 1284.75
v 60.3868 -122.12 1284.99
v 62.7218 -119.138 1284.56
v 61.7605 -121.139 1285.82
v 63.3019 -121.799 1285.39
v 63.9752 -127.635 1286.28
v 63.9752 -127.635 1286.28
v 66.5606 -128.027 1286.59
v 66.5606 -128.027 1286.59
v 67.7328 -129.79 1284.92
v 67.6775 -128.83 1285.97
v 70.2837 -134.754 1285.93
v 70.2837 -134.754 1285.93
v 70.2837 -134.754 1285.93
v 70.2837 -134.754 1285.93
v 69.8935 -134.781 1286.77
v 69.8935 -134.781 1286.77
v 70.1767 -134.762 1287.12
v 70.1767 -134.762 1287.12
v 70.1767 -134.762 1287.12
v 70.1767 -134.762 1287.12
v 71.4509 -133.721 1286.26
v 71.4509 -133.721 1286.26
v 70.8059 -134.09 1285.5
v 71.3074 -133.974 1285.88
v 71.3074 -133.974 1285.88
v 71.3528 -133.832 1286.47
v 70.6845 -133.853 1287.47
v 70.6845 -133.853 1287.47
v 71.1425 -133.888 1287.09
v 71.1425 -133.888 1287.09
vn -0.968542 -0.00149651 -0.248847
vn -0.984263 0.1578 -0.0795351
vn -0.999203 0.0373042 -0.0142149
vn -0.715889 0.614234 0.331994
vn -0.866808 -0.0448252 -0.496623
vn -0.769122 -0.217986 -0.600778
vn -0.663077 0.682891 0.306577
vn -0.679081 0.475961 0.558847
vn -0.301764 -0.335831 -0.892276
vn 0.0728264 0.902012 -0.425524
vn -0.342811 0.794866 0.500668
vn -0.194836 0.529501 0.825632
vn 0.195302 0.443694 0.874638
vn -0.937229 -0.164946 -0.307236
vn -0.994679 -0.0235027 0.100302
vn -0.55972 -0.345627 -0.753164
vn -0.461773 0.189092 0.866608
vn -0.877988 0.0781631 0.472257
vn -0.860495 -0.32601 -0.391492
vn -0.976731 -0.189477 0.100474
vn -0.731902 -0.00772973 0.681366
vn 0.460922 0.349078 -0.815902
vn 0.266886 0.913891 -0.305901
vn 0.858189 0.0101448 0.513234
vn 0.170867 0.937132 -0.304283
vn 0.475516 0.385635 -0.790677
vn 0.928041 -0.221103 -0.299756
vn 0.334768 0.913037 -0.23301
vn 0.11225 -0.361441 -0.925614
vn 0.137422 0.942964 -0.303207
vn 0.514017 0.328766 0.792275
vn 0.709284 0.0742436 0.701002
vn 0.963253 -0.0158189 0.268129
vn 0.721893 -0.238558 -0.649585
vn 0.394215 -0.180004 -0.901218
vn 0.382261 0.226952 0.895751
vn -0.87994 -0.433023 -0.19544
vn -0.261331 -0.381145 -0.886811
vn -0.642683 -0.451467 -0.61898
vn -0.909479 -0.39804 0.120051
vn 0.790753 0.309096 0.528364
vn 0.909 0.110313 -0.401934
vn 0.748131 0.208382 -0.629982
vn 0.920914 0.369302 0.124631
vn 0.315496 -0.1071 -0.942864
vn -0.347464 0.0416022 0.93677
vn 0.828506 0.374761 0.416091
vn -0.759901 -0.588624 -0.275814
vn -0.176815 -0.341213 -0.923206
vn 0.624107 0.455349 0.63494
vn 0.893564 0.440621 0.0860029
vn -0.258201 -0.0427341 0.965145
vn -0.111529 0.0518324 0.992409
vn 0.283191 0.0166924 -0.958918
vn 0.80565 0.498854 -0.319488
vn -0.555145 -0.613609 -0.561515
vn -0.206197 -0.437314 -0.875351
vn -0.213547 -0.52654 -0.822893
vn -0.713163 -0.676293 -0.184465
vn 0.0674564 -0.997722 -0.000383451
vn 0.784413 0.57504 -0.232434
vn 0.817223 0.49325 -0.29808
vn 0.274111 -0.0448228 -0.960653
vn 0.68719 0.377506 -0.620693
vn 0.687893 0.268648 -0.674264
vn 0.927569 0.0287707 0.372543
vn 0.85002 0.383662 0.360927
vn 0.620665 0.452865 0.640069
vn -0.220684 -0.0517319 0.973972
vn 0.768644 0.236185 0.594478
vn -0.190055 0.935946 -0.296452
vn -0.679326 0.604718 0.415732
vn -0.961303 0.107308 0.253735
vn 0.0041154 0.920823 -0.38996
vn 0.00301393 0.947919 -0.318496
vn -0.000626384 0.822468 -0.568811
vn 0.445321 0.311758 -0.839343
vn 0.460922 0.349078 -0.815902
vn 0.102436 0.941681 -0.320537
vn 0.314938 -0.374247 -0.872212
vn 0.78701 -0.224437 -0.574669
vn 0.755837 0.204329 0.622061
vn 0.209461 0.945244 -0.250279
vn 0.787813 -0.165831 -0.593169
vn 0.979703 -0.189224 -0.0661548
vn 0.983025 -0.0964072 0.156103
vn 0.231904 0.701992 0.67337
vn 0.993815 0.032731 0.106112
vn 0.349926 0.22261 0.909943
vn -0.486668 -0.0589294 0.871597
vn 0.986668 0.158014 -0.0389537
vn 0.387036 0.323828 0.86333
vn 0.372376 0.294458 0.880131
vn -0.810953 -0.583439 0.0441976
vn -0.656975 -0.505769 0.559091
vn 0.599828 0.502992 0.622258
vn 0.386487 0.399034 0.831505
vn 0.758631 0.502692 -0.414464
vn 0.7128 0.576481 0.399482
vn -0.620668 -0.719966 -0.310514
vn 0.0674564 -0.997722 -0.000383451
vn 0.606929 -0.793222 0.0493584
vn 0.520955 -0.712521 -0.47002
vn 0.0674564 -0.997722 -0.000383451
vn -0.656975 -0.505769 0.559091
vn -0.656975 -0.505769 0.559091
vn -0.326873 -0.174968 0.928731
vn 0.644526 -0.756274 0.112412
vn 0.511026 -0.542261 0.666937
vn 0.908395 -0.0170666 0.417765
vn 0.813423 -0.576589 0.0767347
vn 0.520955 -0.712521 -0.47002
vn 0.698907 -0.710063 0.0856737
vn 0.520955 -0.712521 -0.47002
vn 0.716497 -0.686827 0.122068
vn 0.509729 0.350521 0.785692
vn 0.511026 -0.542261 0.666937
vn 0.665093 -0.729727 0.158587
vn 0.511026 -0.542261 0.666937
g grp1
usemtl mtl1
f 5//5 9//9 6//6 
f 25//25 10//10 74//74 
f 7//7 8//8 11//11 
f 75//75 79//79 25//25 
f 1//1 14//14 3//3 
f 5//5 1//1 2//2 
f 2//2 1//1 3//3 
f 75//75 74//74 71//71 
f 7//7 72//72 4//4 
f 2//2 3//3 73//73 
f 7//7 4//4 8//8 
f 1//1 5//5 6//6 
f 6//6 14//14 1//1 
f 75//75 25//25 74//74 
f 9//9 16//16 6//6 
f 11//11 8//8 12//12 
f 8//8 73//73 18//18 
f 17//17 12//12 8//8 
f 73//73 3//3 15//15 
f 74//74 10//10 76//76 
f 78//78 22//22 77//77 
f 29//29 9//9 80//80 
f 78//78 26//26 22//22 
f 83//83 10//10 25//25 
f 16//16 14//14 6//6 
f 29//29 16//16 9//9 
f 25//25 79//79 30//30 
f 11//11 12//12 87//87 
f 13//13 87//87 12//12 
f 13//13 12//12 36//36 
f 8//8 18//18 17//17 
f 12//12 17//17 36//36 
f 73//73 15//15 18//18 
f 14//14 15//15 3//3 
f 14//14 20//20 15//15 
f 16//16 19//19 14//14 
f 14//14 19//19 20//20 
f 19//19 16//16 39//39 
f 17//17 18//18 21//21 
f 15//15 20//20 18//18 
f 20//20 21//21 18//18 
f 17//17 21//21 46//46 
f 36//36 17//17 46//46 
f 81//81 84//84 27//27 
f 23//23 25//25 30//30 
f 32//32 82//82 31//31 
f 31//31 82//82 87//87 
f 25//25 23//23 28//28 
f 86//86 82//82 24//24 
f 86//86 24//24 33//33 
f 24//24 82//82 32//32 
f 28//28 83//83 25//25 
f 85//85 86//86 27//27 
f 27//27 86//86 33//33 
f 27//27 33//33 34//34 
f 80//80 34//34 29//29 
f 34//34 81//81 27//27 
f 13//13 36//36 31//31 
f 13//13 31//31 87//87 
f 36//36 32//32 31//31 
f 32//32 33//33 24//24 
f 16//16 29//29 38//38 
f 16//16 38//38 39//39 
f 34//34 35//35 29//29 
f 34//34 42//42 35//35 
f 35//35 38//38 29//29 
f 35//35 49//49 38//38 
f 32//32 36//36 33//33 
f 41//41 33//33 36//36 
f 20//20 19//19 37//37 
f 20//20 40//40 21//21 
f 20//20 37//37 40//40 
f 21//21 90//90 46//46 
f 39//39 37//37 19//19 
f 37//37 39//39 48//48 
f 40//40 37//37 48//48 
f 46//46 90//90 52//52 
f 53//53 46//46 52//52 
f 40//40 48//48 94//94 
f 33//33 42//42 34//34 
f 43//43 35//35 42//42 
f 91//91 42//42 88//88 
f 42//42 91//91 44//44 
f 41//41 36//36 47//47 
f 47//47 44//44 41//41 
f 93//93 89//89 92//92 
f 42//42 44//44 51//51 
f 45//45 49//49 35//35 
f 43//43 45//45 35//35 
f 43//43 42//42 51//51 
f 39//39 38//38 49//49 
f 92//92 96//96 50//50 
f 93//93 92//92 50//50 
f 47//47 51//51 44//44 
f 43//43 54//54 45//45 
f 48//48 39//39 49//49 
f 51//51 47//47 50//50 
f 94//94 48//48 59//59 
f 48//48 56//56 59//59 
f 48//48 49//49 56//56 
f 43//43 51//51 55//55 
f 50//50 99//99 51//51 
f 50//50 96//96 99//99 
f 49//49 57//57 56//56 
f 55//55 98//98 43//43 
f 45//45 54//54 49//49 
f 99//99 96//96 68//68 
f 53//53 52//52 69//69 
f 55//55 61//61 98//98 
f 61//61 64//64 98//98 
f 58//58 56//56 57//57 
f 59//59 56//56 100//100 
f 101//101 60//60 104//104 
f 54//54 63//63 49//49 
f 63//63 57//57 49//49 
f 58//58 57//57 63//63 
f 97//97 116//116 68//68 
f 106//106 95//95 105//105 
f 107//107 69//69 52//52 
f 61//61 62//62 64//64 
f 67//67 62//62 61//61 
f 99//99 67//67 61//61 
f 110//110 67//67 66//66 
f 66//66 67//67 70//70 
f 64//64 62//62 65//65 
f 113//113 111//111 115//115 
f 65//65 63//63 64//64 
f 64//64 63//63 54//54 
f 113//113 108//108 102//102 
f 112//112 114//114 103//103 
f 115//115 108//108 113//113 
f 115//115 118//118 108//108 
f 68//68 67//67 99//99 
f 67//67 68//68 70//70 
f 116//116 70//70 68//68 
f 109//109 119//119 117//117 
