#
# The license for this database is specified in the Creative Commons Attribution-Share Alike 2.1 Japan. If you use data from this database, please be sure attribute this database as follows: "BodyParts3D, (c)  The Database Center for Life Science licensed under CC Attribution-Share Alike 2.1 Japan".
# http://dbarchive.biosciencedbc.jp/en/bodyparts3d/lic.html
#
#
# Compatibility version : 4.0
# File ID : FJ2497
# Representation ID : BP9539
# Build-up logic : FMA 3.0 part_of
# Concept ID : FMA68216
# English name : Right superior segmental bronchial tree
# Bounds(mm): (-63.433000,-38.582300,1280.610000)-(-52.927800,-34.008100,1284.340000)
# Volume(cm3): 0.065400
#
v -63.328 -36.9682 1282.21
v -63.433 -36.8024 1282.77
v -63.3329 -36.8159 1282.25
v -63.3764 -36.7524 1282.54
v -63.0571 -37.6889 1281.67
v -63.0094 -37.8172 1281.62
v -62.5905 -37.7061 1281.61
v -62.8997 -38.1973 1281.8
v -62.9097 -38.2244 1281.9
v -62.8585 -38.411 1282
v -62.6139 -38.1186 1281.75
v -62.8078 -38.4342 1281.96
v -62.6159 -38.5363 1282.2
v -62.8835 -37.352 1281.65
v -63.1268 -37.359 1281.68
v -62.7088 -37.1104 1281.7
v -62.9376 -36.8933 1281.93
v -62.8616 -38.4443 1282.12
v -62.8334 -38.5552 1282.19
v -62.8835 -38.5612 1282.71
v -62.4254 -38.5823 1282.68
v -62.9789 -36.6723 1282.25
v -63.1422 -36.6559 1282.66
v -63.1447 -36.7425 1283.02
v -63.0172 -38.2824 1283.26
v -63.1132 -38.0263 1283.37
v -63.018 -38.2609 1283.44
v -63.0459 -38.0277 1283.55
v -62.6129 -38.4204 1283.23
v -62.5294 -38.2578 1283.42
v -63.2281 -36.9166 1283.21
v -63.2851 -37.4601 1283.41
v -63.05 -37.1137 1283.47
v -62.9922 -37.4935 1283.61
v -61.7336 -36.0893 1282.55
v -61.3501 -35.943 1283.04
v -61.1648 -35.9692 1283.33
v -61.6881 -36.3744 1283.54
v -60.1408 -37.6328 1281.8
v -60.7888 -38.0526 1282.11
v -60.1801 -38.0622 1282.36
v -60.3702 -35.6026 1282.43
v -60.4662 -36.0766 1283.83
v -60.4633 -36.5362 1284.05
v -60.8999 -37.065 1284.02
v -59.3447 -36.8696 1281.5
v -59.967 -35.3857 1282.94
v -59.8253 -35.5414 1283.56
v -60.3011 -37.2964 1284.03
v -59.985 -37.5291 1283.92
v -59.2598 -35.3325 1282.17
v -59.0567 -37.9633 1283.01
v -59.1045 -35.0948 1282.76
v -59.3779 -35.2188 1283.19
v -58.8871 -35.4471 1283.87
v -59.1092 -35.9505 1284.15
v -58.929 -36.772 1284.26
v -58.1515 -35.803 1281.44
v -58.1179 -35.1747 1281.89
v -58.4404 -34.9488 1282.46
v -58.2567 -37.7288 1283.48
v -58.0632 -37.2618 1284.03
v -58.5374 -35.0057 1283.36
v -58.2411 -34.8619 1283.11
v -58.3274 -35.1409 1283.7
v -58.3522 -35.6989 1284.18
v -58.7666 -36.419 1284.3
v -58.2573 -35.9927 1284.29
v -58.1122 -36.6032 1284.32
v -58.168 -36.2906 1284.34
v -58.0704 -36.9491 1284.21
v -56.9286 -37.1407 1281.57
v -56.9401 -37.6037 1282.2
v -57.5523 -34.6819 1282.8
v -57.1836 -34.6854 1282.29
v -57.5975 -37.3809 1283.84
v -57.251 -34.7206 1283.34
v -57.5359 -35.2478 1283.98
v -57.1544 -36.095 1284.34
v -56.4461 -36.374 1281.16
v -56.555 -37.6742 1282.65
v -56.5307 -34.7163 1281.87
v -56.2275 -34.4678 1283.04
v -56.9557 -34.8016 1283.59
v -56.8973 -35.5983 1284.23
v -55.8635 -37.5715 1283.04
v -55.6833 -37.4603 1283.31
v -55.8098 -34.3527 1282.61
v -55.9565 -36.8373 1284.05
v -55.9574 -34.551 1283.37
v -55.8229 -34.8113 1283.76
v -55.7747 -35.1309 1284.02
v -56.0389 -35.8667 1284.27
v -56.1147 -36.4347 1284.24
v -54.9879 -35.4161 1284.14
v -53.7754 -36.0322 1280.65
v -53.6763 -36.3868 1280.73
v -53.6944 -35.7815 1280.61
v -53.4412 -36.3125 1280.67
v -53.4515 -35.9737 1280.62
v -53.6098 -36.6043 1280.84
v -53.5612 -34.6558 1280.94
v -53.5148 -35.3513 1280.68
v -53.6055 -35.1148 1280.69
v -53.9669 -34.833 1280.93
v -53.509 -35.0903 1280.79
v -53.533 -34.8464 1280.8
v -53.5472 -34.7768 1280.88
v -53.4901 -34.8481 1281.05
v -53.4495 -35.7061 1280.79
v -53.618 -34.3655 1281.24
v -54.3028 -34.5022 1283.51
v -53.3622 -36.5143 1280.87
v -53.2961 -36.8815 1281.14
v -53.4862 -37.2014 1281.43
v -53.1852 -37.1555 1281.61
v -53.505 -37.4232 1281.93
v -53.151 -37.3935 1281.9
v -53.1102 -37.2921 1281.98
v -53.7774 -34.1847 1281.63
v -53.467 -34.304 1281.62
v -53.5 -34.1106 1281.73
v -53.1108 -37.4517 1282.37
v -53.2618 -37.4339 1282.61
v -53.0263 -37.4162 1282.48
v -53.3186 -37.3192 1282.99
v -52.9708 -37.2266 1282.93
v -53.7058 -34.0696 1281.94
v -53.587 -34.0081 1282.33
v -53.3799 -34.1127 1282.3
v -53.3207 -34.2229 1282.57
v -53.2539 -37.158 1283.28
v -52.9436 -37.1109 1283.24
v -52.9278 -36.9327 1283.39
v -53.0149 -36.7913 1283.64
v -53.4852 -34.0839 1282.79
v -53.5568 -34.2056 1283.1
v -53.4168 -34.5965 1283.62
v -53.127 -34.7276 1283.58
v -53.0387 -35.1762 1283.83
v -53.2575 -34.95 1283.85
v -53.3569 -35.3918 1284.01
v -53.3581 -36.1911 1283.99
v -52.9657 -35.8695 1283.81
v -52.9518 -35.9194 1283.95
v -53.2083 -35.8747 1284.03
v -53.1369 -35.4952 1284.01
v -52.9316 -36.2144 1283.83
v -52.9719 -36.3346 1283.9
v -63.328 -36.9682 1282.21
v -63.433 -36.8024 1282.77
v -63.433 -36.8024 1282.77
v -63.3329 -36.8159 1282.25
v -63.3329 -36.8159 1282.25
v -63.3764 -36.7524 1282.54
v -63.0571 -37.6889 1281.67
v -63.0094 -37.8172 1281.62
v -62.8997 -38.1973 1281.8
v -62.8585 -38.411 1282
v -62.8078 -38.4342 1281.96
v -63.1268 -37.359 1281.68
v -62.8334 -38.5552 1282.19
v -62.8835 -38.5612 1282.71
v -63.0172 -38.2824 1283.26
v -63.018 -38.2609 1283.44
v -63.018 -38.2609 1283.44
v -63.0459 -38.0277 1283.55
v -63.2851 -37.4601 1283.41
v -53.6944 -35.7815 1280.61
v -53.6944 -35.7815 1280.61
v -53.4412 -36.3125 1280.67
v -53.4515 -35.9737 1280.62
v -53.4515 -35.9737 1280.62
v -53.5612 -34.6558 1280.94
v -53.5148 -35.3513 1280.68
v -53.5148 -35.3513 1280.68
v -53.5148 -35.3513 1280.68
v -53.6055 -35.1148 1280.69
v -53.509 -35.0903 1280.79
v -53.533 -34.8464 1280.8
v -53.533 -34.8464 1280.8
v -53.5472 -34.7768 1280.88
v -53.4495 -35.7061 1280.79
v -53.4495 -35.7061 1280.79
v -53.618 -34.3655 1281.24
v -53.618 -34.3655 1281.24
v -53.3622 -36.5143 1280.87
v -53.2961 -36.8815 1281.14
v -53.1852 -37.1555 1281.61
v -53.151 -37.3935 1281.9
v -53.151 -37.3935 1281.9
v -53.1102 -37.2921 1281.98
v -53.7774 -34.1847 1281.63
v -53.7774 -34.1847 1281.63
v -53.467 -34.304 1281.62
v -53.467 -34.304 1281.62
v -53.5 -34.1106 1281.73
v -53.5 -34.1106 1281.73
v -53.1108 -37.4517 1282.37
v -53.1108 -37.4517 1282.37
v -53.0263 -37.4162 1282.48
v -53.0263 -37.4162 1282.48
v -52.9708 -37.2266 1282.93
v -53.587 -34.0081 1282.33
v -53.3799 -34.1127 1282.3
v -53.3207 -34.2229 1282.57
v -52.9436 -37.1109 1283.24
v -52.9436 -37.1109 1283.24
v -53.0149 -36.7913 1283.64
v -53.4852 -34.0839 1282.79
v -53.127 -34.7276 1283.58
v -53.0387 -35.1762 1283.83
v -52.9518 -35.9194 1283.95
v -52.9719 -36.3346 1283.9
vn -0.592495 0.367852 -0.716683
vn -0.982699 -0.0994557 -0.156239
vn -0.600995 0.160668 -0.782937
vn -0.981671 0.0547116 -0.182562
vn -0.951922 -0.286348 -0.108855
vn -0.124017 -0.13885 -0.982517
vn -0.00349008 -0.116118 -0.993229
vn -0.00183327 -0.495833 -0.868416
vn -0.899031 -0.380479 -0.216745
vn -0.627468 -0.659816 -0.413434
vn 0.0597495 -0.456488 -0.887721
vn 0.143023 -0.759537 -0.634545
vn 0.14971 -0.934928 -0.321709
vn -0.169863 0.163681 -0.971779
vn -0.956426 -0.195497 -0.216863
vn -0.200548 0.478341 -0.854968
vn -0.370626 0.606239 -0.703641
vn -0.893073 -0.419344 -0.163008
vn -0.909334 -0.361455 -0.206061
vn -0.950185 -0.297944 -0.0915311
vn 0.102288 -0.993704 0.0457108
vn -0.332811 0.852363 -0.403378
vn -0.391556 0.917881 0.0646377
vn -0.425644 0.817607 0.387744
vn -0.94496 -0.3239 -0.0462591
vn -0.943676 -0.311742 0.110876
vn -0.926546 -0.322366 0.19389
vn -0.896215 -0.282218 0.342275
vn -0.0415412 -0.899435 0.435075
vn 0.0528852 -0.727435 0.684135
vn -0.54757 0.602128 0.581041
vn -0.95424 -0.298391 0.0197403
vn -0.41049 0.403924 0.817523
vn -0.359394 0.105174 0.92724
vn -0.36103 0.925721 -0.112686
vn -0.377723 0.906673 0.187801
vn -0.364803 0.819986 0.44107
vn -0.346587 0.671151 0.655312
vn 0.100781 -0.614778 -0.782235
vn 0.203205 -0.788101 -0.581037
vn 0.160135 -0.903599 -0.397322
vn -0.32288 0.899367 -0.294768
vn -0.28606 0.552447 0.782925
vn -0.223354 0.25755 0.940096
vn -0.143771 -0.0610042 0.987729
vn -0.0104846 -0.213556 -0.976874
vn -0.345076 0.937515 0.0445936
vn -0.305399 0.790411 0.53102
vn -0.0497342 -0.35432 0.933801
vn 0.0261396 -0.591962 0.805542
vn -0.280511 0.817705 -0.502665
vn 0.141314 -0.987784 0.0656776
vn -0.302034 0.951359 -0.0607562
vn -0.318198 0.917513 0.238578
vn -0.222337 0.649519 0.727112
vn -0.194448 0.378134 0.905099
vn -0.0581606 -0.199208 0.97823
vn -0.168733 0.24173 -0.95556
vn -0.235848 0.711186 -0.662262
vn -0.262764 0.916458 -0.301762
vn 0.123848 -0.913538 0.387441
vn 0.0773238 -0.613689 0.785753
vn -0.24831 0.894135 0.372644
vn -0.234265 0.959521 0.156333
vn -0.199441 0.803333 0.561141
vn -0.128258 0.469866 0.87337
vn -0.114529 0.0584927 0.991696
vn -0.0843431 0.236197 0.968038
vn 0.0033466 -0.160905 0.986964
vn -0.0414742 0.0398692 0.998344
vn 0.0340259 -0.400389 0.915713
vn -0.00750027 -0.680334 -0.732864
vn 0.0453487 -0.909178 -0.413932
vn -0.217254 0.975669 -0.0294935
vn -0.217435 0.927032 -0.305506
vn 0.104079 -0.764805 0.6358
vn -0.168795 0.914105 0.368674
vn -0.104196 0.632418 0.767587
vn 0.019988 0.0546167 0.998307
vn -0.114601 -0.277858 -0.953762
vn 0.0874208 -0.993598 -0.0715538
vn -0.223737 0.844821 -0.486024
vn -0.143276 0.962995 0.228281
vn -0.123566 0.814396 0.567002
vn -0.0214803 0.346588 0.937771
vn 0.100704 -0.970904 0.217263
vn 0.117496 -0.88691 0.446749
vn -0.16542 0.986216 -0.00369291
vn 0.110641 -0.486637 0.86657
vn -0.0970108 0.88252 0.46016
vn -0.0554827 0.720481 0.691252
vn -0.0110469 0.529074 0.848504
vn 0.0626911 0.0806657 0.994768
vn 0.0848062 -0.216366 0.972622
vn 0.0404928 0.308017 0.950519
vn -0.134406 -0.155229 -0.978693
vn -0.130389 -0.372982 -0.918631
vn -0.0651138 0.00547671 -0.997863
vn 0.00565443 -0.388197 -0.921559
vn -0.0650939 -0.134788 -0.988734
vn 0.0426904 -0.570139 -0.820438
vn -0.206775 0.562113 -0.800796
vn 0.176055 0.0897943 -0.980276
vn -0.0740825 0.221284 -0.972391
vn -0.206123 0.570827 -0.794776
vn 0.683492 0.184512 -0.706254
vn -0.206456 0.57017 -0.795162
vn -0.172688 0.585401 -0.792139
vn 0.968472 0.172462 -0.179774
vn 0.606917 -0.122565 -0.785258
vn -0.219207 0.766182 -0.60408
vn -0.0355713 0.794721 0.605931
vn 0.972264 0.0429644 -0.229905
vn 0.272468 -0.663887 -0.69643
vn 0.140908 -0.799883 -0.583379
vn 0.981302 0.0287904 -0.190309
vn 0.0447881 -0.967435 -0.249124
vn 0.469955 -0.649927 -0.597274
vn 0.984806 -0.0389304 -0.16924
vn -0.187182 0.908798 -0.372892
vn 0.940211 0.252678 -0.228378
vn 0.159357 0.511199 -0.84456
vn 0.0895779 -0.995259 0.0378976
vn 0.14498 -0.962772 0.228147
vn 0.660807 -0.695002 -0.283383
vn 0.181243 -0.90345 0.388495
vn 0.990899 0.0453568 -0.126736
vn -0.0194489 0.977734 -0.208943
vn -0.147754 0.988116 0.0423638
vn 0.972101 0.153455 -0.177399
vn 0.743257 0.65338 0.143748
vn 0.15122 -0.814718 0.559792
vn 0.996532 -0.0204558 -0.0806566
vn 0.999666 -0.00455206 -0.0254537
vn 0.140062 -0.665413 0.733218
vn -0.117195 0.967247 0.225162
vn 0.109716 0.880907 0.460397
vn 0.133161 0.696165 0.705424
vn 0.982483 0.104347 -0.154399
vn 0.988509 0.107608 -0.106165
vn 0.237253 0.456141 0.857698
vn 0.0970933 0.219743 0.970714
vn 0.116399 -0.262391 0.957916
vn 0.98806 0.100123 -0.117106
vn 0.995035 0.0370388 0.0923764
vn 0.163522 -0.0909232 0.982341
vn 0.292257 0.169329 0.94123
vn 0.992274 -0.0200102 0.122445
vn 0.161366 -0.28457 0.944977
vn -0.978402 -0.138188 -0.153735
vn -0.439134 0.86627 0.238194
vn -0.848048 0.260943 0.46122
vn -0.33989 0.844217 -0.414455
vn -0.988866 0.00222715 -0.148794
vn -0.384029 0.917141 -0.106647
vn -0.304819 0.0869624 -0.948432
vn -0.933012 -0.329072 -0.145605
vn -0.890102 -0.412558 -0.193685
vn -0.941472 -0.317751 -0.112533
vn -0.755198 -0.559713 -0.34117
vn -0.293892 0.376852 -0.878413
vn 0.0502464 -0.977537 -0.204688
vn -0.119161 -0.968528 0.218527
vn -0.297183 -0.921932 0.248442
vn -0.314196 -0.942971 0.109936
vn -0.00389011 -0.583911 0.811808
vn -0.229369 -0.20646 0.951191
vn -0.666043 0.197614 0.719261
vn 0.606917 -0.122565 -0.785258
vn 0.408796 0.488061 -0.771156
vn 0.921667 -0.0291334 -0.386887
vn 0.961576 0.0309748 -0.272787
vn 0.408796 0.488061 -0.771156
vn 0.896835 0.333321 -0.290835
vn 0.606917 -0.122565 -0.785258
vn 0.658658 0.268617 -0.702862
vn 0.955385 0.0920655 -0.280648
vn 0.683492 0.184512 -0.706254
vn 0.974194 0.0969244 -0.203843
vn 0.703061 0.0989861 -0.704207
vn 0.957502 0.237195 -0.164099
vn 0.935679 0.29557 -0.192724
vn 0.408796 0.488061 -0.771156
vn 0.979913 0.0921056 -0.176881
vn 0.333841 0.900228 -0.279534
vn 0.744914 0.544385 -0.385678
vn 0.304134 -0.56818 -0.76464
vn 0.976096 0.0192774 -0.216483
vn 0.454008 -0.691992 -0.561271
vn 0.0574754 -0.961759 -0.267798
vn 0.953526 -0.234137 -0.189651
vn 0.660807 -0.695002 -0.283383
vn 0.333841 0.900228 -0.279534
vn 0.159357 0.511199 -0.84456
vn 0.333841 0.900228 -0.279534
vn 0.159357 0.511199 -0.84456
vn 0.0140247 0.983544 -0.180125
vn 0.942017 0.272615 -0.195665
vn 0.949878 -0.289844 -0.11714
vn 0.660807 -0.695002 -0.283383
vn 0.233923 -0.931986 0.276914
vn 0.986569 0.0672623 -0.148853
vn 0.29414 -0.898357 0.326246
vn 0.438183 0.89217 -0.109676
vn 0.456567 0.889052 -0.0336761
vn 0.982599 0.094021 -0.160187
vn 0.223745 -0.85199 0.473341
vn 0.688324 -0.501936 0.523709
vn 0.751201 -0.427089 0.503282
vn 0.619582 0.761238 0.191403
vn 0.530634 0.682045 0.503231
vn 0.550908 0.344105 0.760324
vn 0.419269 0.0206456 0.907627
vn 0.898703 -0.204571 0.387922
g grp1
usemtl mtl1
f 3//3 17//17 1//1 
f 15//15 5//5 150//150 
f 17//17 161//161 1//1 
f 22//22 51//51 17//17 
f 153//153 22//22 17//17 
f 5//5 32//32 150//150 
f 2//2 4//4 150//150 
f 150//150 4//4 154//154 
f 155//155 151//151 23//23 
f 2//2 150//150 32//32 
f 24//24 151//151 31//31 
f 152//152 168//168 31//31 
f 31//31 168//168 33//33 
f 14//14 6//6 156//156 
f 161//161 14//14 156//156 
f 11//11 6//6 7//7 
f 7//7 6//6 14//14 
f 7//7 14//14 58//58 
f 11//11 8//8 6//6 
f 157//157 9//9 5//5 
f 157//157 158//158 9//9 
f 9//9 18//18 5//5 
f 12//12 8//8 11//11 
f 9//9 158//158 160//160 
f 160//160 10//10 9//9 
f 9//9 159//159 18//18 
f 160//160 18//18 10//10 
f 160//160 19//19 18//18 
f 162//162 12//12 13//13 
f 51//51 59//59 17//17 
f 14//14 161//161 16//16 
f 16//16 161//161 17//17 
f 58//58 14//14 16//16 
f 19//19 20//20 18//18 
f 18//18 20//20 5//5 
f 13//13 21//21 162//162 
f 163//163 162//162 21//21 
f 29//29 163//163 21//21 
f 22//22 153//153 155//155 
f 35//35 155//155 23//23 
f 151//151 36//36 23//23 
f 151//151 24//24 36//36 
f 5//5 26//26 32//32 
f 26//26 28//28 32//32 
f 20//20 25//25 5//5 
f 163//163 29//29 164//164 
f 25//25 26//26 5//5 
f 27//27 26//26 25//25 
f 164//164 29//29 165//165 
f 27//27 28//28 26//26 
f 166//166 30//30 50//50 
f 30//30 166//166 29//29 
f 166//166 49//49 167//167 
f 50//50 49//49 166//166 
f 36//36 24//24 37//37 
f 37//37 24//24 31//31 
f 38//38 31//31 33//33 
f 37//37 31//31 38//38 
f 168//168 34//34 33//33 
f 34//34 168//168 167//167 
f 45//45 34//34 167//167 
f 45//45 167//167 49//49 
f 39//39 12//12 11//11 
f 16//16 17//17 59//59 
f 16//16 59//59 58//58 
f 41//41 13//13 12//12 
f 41//41 21//21 13//13 
f 35//35 22//22 155//155 
f 23//23 36//36 35//35 
f 41//41 12//12 40//40 
f 51//51 22//22 42//42 
f 29//29 21//21 61//61 
f 61//61 21//21 52//52 
f 29//29 76//76 30//30 
f 61//61 76//76 29//29 
f 44//44 33//33 34//34 
f 48//48 37//37 38//38 
f 34//34 45//45 44//44 
f 46//46 7//7 58//58 
f 39//39 40//40 12//12 
f 22//22 35//35 42//42 
f 36//36 37//37 54//54 
f 48//48 38//38 43//43 
f 54//54 37//37 48//48 
f 48//48 43//43 55//55 
f 47//47 36//36 54//54 
f 47//47 35//35 36//36 
f 43//43 38//38 33//33 
f 43//43 33//33 44//44 
f 43//43 44//44 56//56 
f 11//11 7//7 46//46 
f 39//39 11//11 46//46 
f 39//39 41//41 40//40 
f 53//53 42//42 35//35 
f 60//60 42//42 53//53 
f 35//35 47//47 53//53 
f 60//60 51//51 42//42 
f 53//53 47//47 54//54 
f 55//55 43//43 56//56 
f 67//67 56//56 44//44 
f 67//67 44//44 45//45 
f 57//57 45//45 49//49 
f 67//67 45//45 57//57 
f 71//71 49//49 50//50 
f 49//49 71//71 57//57 
f 46//46 80//80 39//39 
f 41//41 52//52 21//21 
f 41//41 81//81 52//52 
f 52//52 81//81 86//86 
f 86//86 61//61 52//52 
f 30//30 76//76 50//50 
f 54//54 48//48 63//63 
f 65//65 63//63 48//48 
f 65//65 48//48 55//55 
f 56//56 67//67 68//68 
f 70//70 68//68 67//67 
f 58//58 80//80 46//46 
f 72//72 41//41 39//39 
f 80//80 72//72 39//39 
f 73//73 41//41 72//72 
f 75//75 82//82 59//59 
f 59//59 51//51 60//60 
f 59//59 60//60 75//75 
f 75//75 60//60 74//74 
f 74//74 60//60 53//53 
f 54//54 64//64 53//53 
f 53//53 64//64 74//74 
f 71//71 50//50 62//62 
f 76//76 62//62 50//50 
f 54//54 63//63 64//64 
f 78//78 65//65 55//55 
f 56//56 68//68 66//66 
f 55//55 56//56 66//66 
f 78//78 55//55 66//66 
f 78//78 66//66 85//85 
f 79//79 85//85 68//68 
f 85//85 66//66 68//68 
f 69//69 57//57 71//71 
f 70//70 67//67 69//69 
f 57//57 69//69 67//67 
f 79//79 68//68 70//70 
f 62//62 89//89 71//71 
f 81//81 41//41 73//73 
f 102//102 59//59 111//111 
f 111//111 59//59 82//82 
f 86//86 87//87 61//61 
f 77//77 64//64 63//63 
f 77//77 63//63 65//65 
f 84//84 65//65 78//78 
f 84//84 77//77 65//65 
f 91//91 84//84 78//78 
f 78//78 92//92 91//91 
f 85//85 92//92 78//78 
f 79//79 70//70 69//69 
f 94//94 79//79 69//69 
f 76//76 89//89 62//62 
f 101//101 72//72 80//80 
f 105//105 58//58 59//59 
f 123//123 86//86 81//81 
f 64//64 83//83 74//74 
f 83//83 64//64 77//77 
f 74//74 88//88 75//75 
f 61//61 87//87 76//76 
f 89//89 76//76 135//135 
f 83//83 77//77 90//90 
f 84//84 90//90 77//77 
f 91//91 90//90 84//84 
f 95//95 85//85 93//93 
f 95//95 92//92 85//85 
f 69//69 71//71 94//94 
f 93//93 85//85 79//79 
f 89//89 94//94 71//71 
f 94//94 93//93 79//79 
f 115//115 73//73 72//72 
f 107//107 58//58 105//105 
f 59//59 102//102 105//105 
f 120//120 111//111 82//82 
f 75//75 120//120 82//82 
f 126//126 87//87 86//86 
f 83//83 88//88 74//74 
f 95//95 141//141 92//92 
f 93//93 94//94 146//146 
f 97//97 101//101 80//80 
f 58//58 107//107 104//104 
f 58//58 96//96 80//80 
f 115//115 72//72 101//101 
f 128//128 75//75 88//88 
f 129//129 128//128 88//88 
f 126//126 76//76 87//87 
f 88//88 136//136 129//129 
f 136//136 88//88 83//83 
f 89//89 143//143 94//94 
f 94//94 143//143 146//146 
f 112//112 90//90 91//91 
f 91//91 92//92 138//138 
f 92//92 141//141 138//138 
f 98//98 58//58 104//104 
f 104//104 103//103 98//98 
f 169//169 175//175 110//110 
f 97//97 80//80 96//96 
f 96//96 58//58 98//98 
f 96//96 98//98 100//100 
f 100//100 99//99 96//96 
f 96//96 99//99 97//97 
f 99//99 101//101 97//97 
f 113//113 171//171 172//172 
f 101//101 99//99 187//187 
f 173//173 170//170 183//183 
f 172//172 184//184 113//113 
f 178//178 106//106 176//176 
f 178//178 180//180 106//106 
f 107//107 105//105 108//108 
f 108//108 105//105 102//102 
f 109//109 179//179 181//181 
f 182//182 109//109 181//181 
f 182//182 174//174 109//109 
f 174//174 121//121 109//109 
f 109//109 121//121 134//134 
f 117//117 123//123 81//81 
f 81//81 73//73 117//117 
f 195//195 185//185 193//193 
f 121//121 174//174 186//186 
f 124//124 86//86 123//123 
f 91//91 138//138 112//112 
f 135//135 149//149 89//89 
f 116//116 113//113 184//184 
f 114//114 101//101 187//187 
f 115//115 101//101 114//114 
f 113//113 116//116 188//188 
f 177//177 179//179 184//184 
f 109//109 134//134 184//184 
f 109//109 184//184 179//179 
f 115//115 114//114 189//189 
f 117//117 73//73 115//115 
f 115//115 189//189 118//118 
f 115//115 190//190 117//117 
f 117//117 190//190 123//123 
f 191//191 116//116 119//119 
f 199//199 191//191 119//119 
f 196//196 194//194 122//122 
f 197//197 120//120 128//128 
f 128//128 120//120 75//75 
f 198//198 130//130 121//121 
f 121//121 130//130 134//134 
f 128//128 205//205 197//197 
f 116//116 184//184 134//134 
f 116//116 134//134 119//119 
f 200//200 192//192 125//125 
f 124//124 123//123 201//201 
f 201//201 126//126 124//124 
f 126//126 86//86 124//124 
f 119//119 127//127 202//202 
f 201//201 203//203 126//126 
f 128//128 204//204 205//205 
f 205//205 204//204 210//210 
f 210//210 131//131 205//205 
f 130//130 206//206 134//134 
f 139//139 134//134 206//206 
f 132//132 76//76 126//126 
f 134//134 127//127 119//119 
f 127//127 134//134 133//133 
f 203//203 207//207 126//126 
f 126//126 207//207 132//132 
f 207//207 135//135 132//132 
f 135//135 76//76 132//132 
f 208//208 134//134 209//209 
f 134//134 214//214 209//209 
f 137//137 136//136 83//83 
f 137//137 83//83 90//90 
f 90//90 112//112 137//137 
f 210//210 211//211 131//131 
f 211//211 210//210 137//137 
f 137//137 112//112 138//138 
f 137//137 138//138 211//211 
f 211//211 138//138 141//141 
f 134//134 139//139 144//144 
f 139//139 140//140 144//144 
f 141//141 212//212 211//211 
f 141//141 95//95 142//142 
f 93//93 142//142 95//95 
f 93//93 146//146 147//147 
f 134//134 144//144 148//148 
f 141//141 142//142 147//147 
f 142//142 93//93 147//147 
f 89//89 149//149 143//143 
f 148//148 144//144 145//145 
f 144//144 140//140 145//145 
f 213//213 212//212 147//147 
f 146//146 213//213 147//147 
f 147//147 212//212 141//141 
f 134//134 148//148 214//214 
f 148//148 145//145 214//214 
f 149//149 213//213 146//146 
f 143//143 149//149 146//146 
