#
# The license for this database is specified in the Creative Commons Attribution-Share Alike 2.1 Japan. If you use data from this database, please be sure attribute this database as follows: "BodyParts3D, (c)  The Database Center for Life Science licensed under CC Attribution-Share Alike 2.1 Japan".
# http://dbarchive.biosciencedbc.jp/en/bodyparts3d/lic.html
#
#
# Compatibility version : 4.0
# File ID : FJ2453
# Representation ID : BP9525
# Build-up logic : FMA 3.0 part_of
# Concept ID : FMA68212
# English name : Right anterior segmental bronchial tree
# Bounds(mm): (-91.466300,-100.605000,1274.340000)-(-29.116300,-81.536700,1295.980000)
# Volume(cm3): 1.475500
#
v -90.9052 -88.718 1293.3
v -90.4111 -88.057 1294.15
v -90.3156 -87.8652 1293.79
v -89.8295 -88.2045 1295.59
v -90.4917 -89.1235 1295.44
v -89.6871 -87.8279 1294.71
v -89.2856 -88.8265 1295.52
v -91.2721 -89.1876 1293.81
v -91.0149 -89.7132 1293.52
v -91.4663 -89.8321 1294.31
v -90.8684 -90.3051 1294.09
v -91.1336 -89.9734 1295.21
v -90.6326 -90.3357 1295.1
v -90.5882 -89.5411 1295.78
v -90.6812 -89.8247 1295.73
v -90.1201 -89.0704 1295.98
v -89.9761 -89.7854 1295.72
v -88.0507 -92.1225 1293.61
v -88.1501 -91.7059 1294.33
v -86.4515 -91.6739 1290.76
v -86.0417 -90.6094 1291.09
v -86.5214 -92.0344 1294.09
v -85.9957 -91.2934 1294.15
v -82.9278 -92.0678 1288.84
v -83.5164 -92.5801 1288.85
v -84.3107 -94.2304 1290.57
v -84.8526 -90.3389 1292
v -83.5443 -91.1087 1292.2
v -84.8579 -91.0348 1293.4
v -85.2108 -93.3348 1292.87
v -83.1443 -92.5409 1292.65
v -83.2618 -93.4116 1292.46
v -84.0613 -94.3227 1291.31
v -80.3845 -92.0237 1288.31
v -81.5142 -94.673 1287.54
v -80.5831 -91.9165 1289.89
v -80.4277 -92.3928 1290.56
v -83.8056 -94.105 1289.46
v -81.7566 -94.8032 1290.86
v -79.6571 -94.6453 1286.01
v -80.9603 -95.568 1288.07
v -79.8928 -95.5847 1286.7
v -81.1814 -95.5882 1289.05
v -80.1224 -95.8571 1288.97
v -77.6913 -95.9156 1284.96
v -76.5131 -94.4896 1288.73
v -77.8665 -96.7121 1286.92
v -75.7545 -94.367 1283.81
v -75.6477 -95.6111 1283.42
v -74.6732 -96.5709 1283.09
v -75.9623 -97.0418 1284.71
v -74.5728 -93.8662 1287.16
v -75.44 -95.7895 1288.01
v -75.2396 -96.4942 1287.49
v -72.2156 -94.2696 1282.58
v -73.2053 -95.4233 1282.15
v -73.0541 -96.3912 1282.04
v -73.3947 -93.4651 1285.28
v -71.74 -96.6046 1286.25
v -73.4559 -97.9545 1284.28
v -73.0474 -97.9257 1285.11
v -72.0833 -97.4836 1285.8
v -69.1118 -95.1129 1280.86
v -68.9335 -94.4001 1281.78
v -69.507 -96.2873 1280.41
v -69.3836 -94.1656 1283.66
v -70.8447 -98.0421 1281.76
v -70.6261 -94.8698 1285.52
v -67.0555 -97.686 1279.55
v -66.2536 -95.0432 1283.51
v -68.2877 -98.738 1283.86
v -67.2564 -98.3196 1284.21
v -65.1656 -96.918 1278.87
v -65.5575 -99.0568 1279.74
v -66.7898 -99.4815 1281.63
v -65.8882 -99.4734 1280.57
v -66.3813 -97.3641 1284.46
v -62.4408 -98.1613 1278.06
v -64.3635 -96.5541 1283.87
v -64.2406 -99.8482 1281.89
v -59.4425 -95.3814 1278.65
v -61.5513 -99.0906 1278.2
v -60.0244 -94.9604 1280.34
v -61.1811 -100.372 1280.17
v -60.7068 -96.0117 1282.61
v -60.7609 -97.0123 1283.12
v -60.7683 -99.568 1282.4
v -59.6722 -98.7568 1282.78
v -58.5849 -97.6914 1277.11
v -58.4592 -98.5204 1277.16
v -60.0119 -100.164 1278.93
v -55.7127 -96.3319 1276.9
v -55.9904 -99.3225 1277.08
v -55.7669 -100.605 1279.09
v -53.402 -94.6863 1279.89
v -57.8327 -100.549 1280.5
v -57.705 -100.297 1281.14
v -55.605 -97.5801 1282.36
v -52.3141 -94.772 1277.35
v -53.2191 -97.7691 1276.14
v -53.6359 -99.9096 1277.41
v -53.6184 -95.9789 1281.66
v -54.2145 -99.5413 1281.5
v -54.7692 -100.455 1280.29
v -50.5179 -95.2085 1276.15
v -49.3261 -95.9267 1275.58
v -51.209 -98.7042 1276.27
v -50.0593 -93.6936 1278.27
v -49.8776 -93.7079 1279.37
v -52.169 -100.361 1279.45
v -51.8314 -100.299 1278.51
v -50.2692 -94.6461 1280.78
v -49.8767 -95.6183 1281.51
v -51.6576 -98.652 1281.62
v -50.5818 -97.2896 1281.82
v -50.5469 -99.0824 1281.12
v -51.4419 -99.7563 1280.64
v -50.0376 -99.8672 1279.79
v -44.5498 -91.0271 1276.91
v -46.8234 -93.0255 1276.24
v -47.9478 -97.1643 1275.53
v -48.7788 -99.3139 1277.2
v -47.0946 -92.3341 1278.23
v -46.3872 -92.2546 1279.53
v -48.7056 -99.6931 1278.62
v -47.1371 -93.5827 1280.73
v -47.4855 -95.1253 1281.45
v -47.6384 -97.0359 1281.46
v -47.0003 -97.788 1281
v -49.2822 -99.3133 1280.43
v -42.8094 -92.1849 1274.97
v -45.0672 -95.2444 1275.05
v -43.6066 -95.5126 1275.21
v -41.1651 -88.2597 1277.07
v -41.8832 -89.7974 1275.72
v -44.5716 -98.0104 1277.28
v -46.5574 -97.9096 1276.11
v -40.4002 -87.5583 1278.46
v -43.471 -90.0251 1278.19
v -46.458 -98.8193 1279.39
v -42.2915 -90.2692 1280.22
v -43.8601 -97.2591 1279.97
v -41.6058 -93.2378 1274.85
v -42.4875 -96.1122 1275.92
v -41.0768 -96.1677 1277.14
v -44.1275 -97.9966 1278.26
v -41.8295 -91.862 1281.14
v -42.1022 -94.9696 1280.9
v -34.042 -82.2486 1275.63
v -39.349 -93.017 1275.16
v -34.4449 -81.8157 1277.18
v -33.9489 -81.7764 1276.19
v -33.8959 -81.5709 1276.51
v -33.9002 -81.5367 1277.41
v -35.0177 -82.4406 1276.8
v -34.4602 -82.1791 1276.18
v -38.8249 -93.6771 1275.79
v -34.1356 -81.6561 1278.6
v -40.2044 -95.7519 1278.45
v -39.2663 -91.9068 1281.12
v -38.7786 -93.6777 1280.17
v -34.032 -82.9592 1275.12
v -33.3939 -82.2415 1275.29
v -33.5561 -83.5632 1274.63
v -32.5371 -83.3036 1274.45
v -33.1179 -83.9709 1274.43
v -32.3435 -83.6797 1274.34
v -32.2336 -83.3813 1274.8
v -31.8052 -83.9432 1274.46
v -33.6269 -81.9003 1276.11
v -36.5266 -92.7922 1276.73
v -33.2251 -82.2207 1280.11
v -36.0504 -92.7829 1277.94
v -35.55 -91.938 1279.36
v -32.303 -84.5906 1274.35
v -30.9231 -85.1054 1274.59
v -30.3106 -85.3614 1275.59
v -31.7809 -83.6658 1280.43
v -32.8112 -84.6935 1281.08
v -31.446 -84.232 1281.06
v -31.8605 -84.8789 1281.14
v -31.1997 -85.2889 1280.99
v -30.3994 -85.1125 1280.71
v -31.3867 -86.207 1280.79
v -29.9933 -86.0732 1275.41
v -30.3852 -86.9613 1275.9
v -29.4689 -86.2947 1276.26
v -29.6793 -86.8782 1276.54
v -29.6655 -85.978 1276.76
v -29.8608 -87.4156 1277.4
v -29.1163 -86.7582 1277.7
v -29.3607 -86.284 1277.9
v -29.6582 -86.031 1280.1
v -30.1768 -87.1473 1279.48
v -29.8074 -87.4089 1278.27
v -29.1486 -86.7789 1278.6
v -29.2295 -86.4471 1278.91
v -90.9052 -88.718 1293.3
v -90.9052 -88.718 1293.3
v -90.3156 -87.8652 1293.79
v -90.3156 -87.8652 1293.79
v -89.8295 -88.2045 1295.59
v -89.6871 -87.8279 1294.71
v -91.2721 -89.1876 1293.81
v -91.4663 -89.8321 1294.31
v -91.4663 -89.8321 1294.31
v -91.1336 -89.9734 1295.21
v -90.5882 -89.5411 1295.78
v -90.6812 -89.8247 1295.73
v -90.1201 -89.0704 1295.98
v -41.8295 -91.862 1281.14
v -33.9489 -81.7764 1276.19
v -33.8959 -81.5709 1276.51
v -33.8959 -81.5709 1276.51
v -33.9002 -81.5367 1277.41
v -34.1356 -81.6561 1278.6
v -33.3939 -82.2415 1275.29
v -32.5371 -83.3036 1274.45
v -32.3435 -83.6797 1274.34
v -31.8052 -83.9432 1274.46
v -33.6269 -81.9003 1276.11
v -33.2251 -82.2207 1280.11
v -33.2251 -82.2207 1280.11
v -30.9231 -85.1054 1274.59
v -31.446 -84.232 1281.06
v -30.3994 -85.1125 1280.71
v -29.9933 -86.0732 1275.41
v -29.4689 -86.2947 1276.26
v -29.1163 -86.7582 1277.7
v -29.6582 -86.031 1280.1
v -29.1486 -86.7789 1278.6
v -29.2295 -86.4471 1278.91
vn -0.205425 0.473353 -0.856585
vn -0.719689 0.65338 0.234824
vn -0.147646 0.567492 -0.810033
vn -0.688201 0.616487 0.382521
vn -0.772462 0.498626 0.393287
vn -0.487765 0.822721 0.291918
vn 0.484041 0.246954 0.839475
vn -0.802557 0.547224 0.237589
vn -0.705487 -0.298287 -0.642895
vn -0.78555 0.502285 0.361416
vn -0.614191 -0.772329 -0.162105
vn -0.796476 0.382216 0.468548
vn -0.425961 -0.823993 0.373622
vn -0.77415 0.393857 0.495549
vn -0.121218 -0.591404 0.797212
vn -0.735858 0.496295 0.460657
vn 0.110167 -0.329124 0.937838
vn -0.412934 -0.883512 0.221114
vn -0.172744 -0.768516 0.61607
vn -0.523271 0.0235024 -0.851842
vn -0.165782 0.648412 -0.743019
vn 0.126384 -0.513107 0.848969
vn 0.39633 -0.0872118 0.913957
vn -0.271416 0.647615 -0.711989
vn -0.4926 0.24252 -0.835781
vn -0.51227 -0.846358 -0.145803
vn 0.329827 0.934021 -0.13718
vn 0.538146 0.74166 0.400424
vn 0.556383 0.386929 0.735339
vn -0.0664685 -0.792641 0.606055
vn 0.477671 -0.0379252 0.87772
vn 0.279388 -0.468487 0.83813
vn -0.266467 -0.926226 0.266649
vn 0.0646123 0.948057 -0.311471
vn -0.618781 -0.306131 -0.723459
vn 0.414074 0.871577 0.262482
vn 0.539859 0.603482 0.586824
vn -0.620242 -0.571551 -0.537242
vn 0.0454999 -0.809243 0.58571
vn -0.571571 -0.0421798 -0.819468
vn -0.479062 -0.836302 -0.266644
vn -0.561517 -0.646414 -0.516573
vn -0.338641 -0.940191 0.0369323
vn -0.142011 -0.940118 0.309856
vn -0.566279 -0.439303 -0.697382
vn 0.511299 0.198361 0.836197
vn -0.295733 -0.955271 4.93465e-05
vn -0.392211 0.425333 -0.815636
vn -0.519784 -0.0461301 -0.853051
vn -0.504482 -0.471114 -0.723567
vn -0.45157 -0.794409 -0.406201
vn 0.447601 0.682839 0.577394
vn 0.381932 -0.314757 0.86894
vn 0.199076 -0.655174 0.728777
vn -0.173174 0.768784 -0.615615
vn -0.397761 0.256759 -0.88083
vn -0.454888 -0.21083 -0.865232
vn 0.264714 0.953926 0.14125
vn 0.318051 -0.25723 0.912511
vn -0.294534 -0.947992 -0.120673
vn -0.0697977 -0.929204 0.362916
vn 0.114127 -0.712466 0.692363
vn -0.215683 0.603907 -0.767318
vn 0.0144001 0.950339 -0.310884
vn -0.353436 0.146743 -0.923877
vn 0.245407 0.90252 0.353883
vn -0.402392 -0.719091 -0.566558
vn 0.395427 0.517354 0.758935
vn -0.366643 -0.306588 -0.878395
vn 0.270166 0.669719 0.691728
vn 0.0184408 -0.826334 0.562878
vn 0.141257 -0.565968 0.812236
vn -0.266628 0.208908 -0.940886
vn -0.3145 -0.684146 -0.658053
vn -0.226941 -0.970898 -0.07652
vn -0.268057 -0.887501 -0.374815
vn 0.234853 -0.157231 0.95923
vn -0.273798 -0.174479 -0.945829
vn 0.281388 0.308676 0.908592
vn -0.0642239 -0.94801 0.311693
vn -0.114099 0.842288 -0.526813
vn -0.249846 -0.545891 -0.799737
vn 0.0207299 0.999165 0.0352164
vn -0.128865 -0.986648 -0.0995941
vn 0.165375 0.686641 0.707937
vn 0.189056 0.18633 0.964126
vn 0.0650311 -0.732833 0.677293
vn 0.145882 -0.305974 0.940797
vn -0.212269 0.10128 -0.971949
vn -0.196977 -0.276296 -0.94067
vn -0.163856 -0.84843 -0.503307
vn -0.207217 0.516989 -0.830532
vn -0.130201 -0.567589 -0.812952
vn -0.0039396 -0.989732 -0.142883
vn -0.140769 0.946409 0.290677
vn -0.0102709 -0.980635 0.195577
vn 0.0483932 -0.868038 0.494134
vn 0.101554 0.131153 0.986147
vn -0.275772 0.873512 -0.401156
vn -0.132494 -0.181568 -0.974412
vn -0.0112403 -0.826454 -0.562893
vn 0.0274492 0.567088 0.8232
vn 0.128708 -0.679288 0.722497
vn 0.0912479 -0.933994 0.345439
vn -0.287516 0.534026 -0.795079
vn -0.175542 0.140686 -0.974368
vn -0.00270142 -0.560464 -0.828175
vn -0.365816 0.930408 -0.0227694
vn -0.323611 0.910948 0.255832
vn 0.141957 -0.978613 0.148878
vn 0.114567 -0.966922 -0.227897
vn -0.19101 0.737383 0.647906
vn -0.0304439 0.392301 0.919333
vn 0.162077 -0.407756 0.898591
vn 0.10065 -0.0324438 0.994393
vn 0.200827 -0.632326 0.748219
vn 0.170592 -0.833357 0.525751
vn 0.238053 -0.91968 0.31228
vn -0.564202 0.765821 -0.308535
vn -0.428476 0.689691 -0.583724
vn -0.0122871 -0.299608 -0.953983
vn 0.169111 -0.856113 -0.488335
vn -0.467025 0.88163 -0.0679362
vn -0.408306 0.818809 0.403531
vn 0.270512 -0.961574 -0.0468929
vn -0.231836 0.59103 0.772616
vn -0.056721 0.260883 0.963703
vn 0.135022 -0.174081 0.975431
vn 0.275749 -0.574446 0.770698
vn 0.270185 -0.77703 0.568529
vn -0.252743 0.265859 -0.93029
vn -0.0429156 -0.0996363 -0.994098
vn 0.145704 -0.389982 -0.909222
vn -0.63785 0.741652 -0.207605
vn -0.544815 0.602976 -0.582749
vn 0.346214 -0.862187 -0.369824
vn 0.178556 -0.652518 -0.736436
vn -0.66977 0.732937 0.11921
vn -0.575696 0.808965 0.118957
vn 0.349941 -0.864768 0.360164
vn -0.431984 0.601855 0.671685
vn 0.418193 -0.737159 0.530764
vn 0.0410228 -0.12467 -0.99135
vn 0.330635 -0.64494 -0.689008
vn 0.497807 -0.809177 -0.312124
vn 0.432835 -0.900581 0.0400928
vn -0.261227 0.422605 0.867851
vn 0.29542 -0.41943 0.858374
vn -0.371825 0.688467 -0.622703
vn 0.269502 -0.404609 -0.873877
vn -0.593079 0.802531 -0.0648237
vn -0.557675 0.708982 -0.431674
vn -0.578439 0.78194 -0.232334
vn -0.449731 0.892973 -0.0184835
vn -0.667077 0.710621 -0.223665
vn -0.605651 0.68965 -0.396951
vn 0.434415 -0.60486 -0.667404
vn -0.604342 0.755449 0.253116
vn 0.535083 -0.815103 0.222022
vn 0.11179 -0.122418 0.986163
vn 0.446734 -0.585167 0.676763
vn -0.37813 0.459166 -0.803856
vn -0.319877 0.637348 -0.701047
vn -0.283412 0.329216 -0.900719
vn 0.650867 0.630096 -0.423499
vn -0.200137 0.189608 -0.961246
vn -0.0488084 0.0655178 -0.996657
vn 0.656025 0.700439 -0.281099
vn 0.673324 0.647653 -0.356624
vn 0.0303305 0.830099 -0.55679
vn 0.563311 -0.715585 -0.41306
vn 0.572125 0.805247 0.155722
vn 0.616824 -0.786763 -0.023051
vn 0.581967 -0.719532 0.37893
vn 0.116702 -0.0380504 -0.992438
vn 0.196678 -0.200194 -0.959813
vn 0.77513 0.598232 -0.203204
vn 0.70186 0.704584 0.104656
vn -0.128809 0.213956 0.968314
vn 0.656755 0.699883 0.280777
vn 0.0633046 0.012149 0.99792
vn 0.256541 -0.13397 0.957204
vn 0.72461 0.68678 0.0572123
vn 0.328129 -0.33003 0.885105
vn 0.806695 0.453862 -0.378486
vn 0.551157 -0.585985 -0.594009
vn 0.82563 0.544008 -0.149634
vn 0.668852 -0.612911 -0.420688
vn 0.757019 0.651605 -0.0483061
vn 0.656909 -0.731649 -0.182097
vn 0.731885 -0.66118 -0.16488
vn 0.840364 0.541515 -0.023439
vn 0.736128 0.676229 -0.0288138
vn 0.594305 -0.566231 0.571125
vn 0.658485 -0.749441 0.0688144
vn 0.673346 -0.668182 0.316445
vn 0.81552 0.578569 -0.0136217
vn -0.817346 0.575478 0.0277744
vn -0.679042 -0.0864572 -0.728991
vn 0.269644 0.87938 -0.392406
vn -0.688515 0.699296 0.192179
vn 0.541223 0.500172 0.675948
vn 0.480388 0.873506 0.0788275
vn -0.822162 -0.0933047 -0.561555
vn -0.775028 -0.385198 -0.500953
vn -0.596134 -0.797218 0.0952228
vn -0.537918 -0.801468 0.261329
vn -0.0127079 -0.266383 0.963783
vn -0.766524 0.140769 0.626599
vn 0.283673 -0.0686014 0.956464
vn 0.0218116 0.0198393 0.999565
vn 0.16354 0.780827 -0.602962
vn 0.18957 0.815419 -0.54695
vn 0.71409 0.698739 -0.0428949
vn 0.59997 0.798652 0.0467968
vn 0.319268 0.934579 0.156936
vn 0.632043 0.740525 -0.228349
vn -0.242369 0.337463 -0.909602
vn 0.58955 0.606572 -0.533386
vn 0.200169 0.0156509 -0.979636
vn 0.636908 0.751504 -0.172016
vn -0.545363 0.622307 0.561527
vn -0.184735 0.33198 0.92502
vn 0.788987 0.500753 -0.356013
vn 0.103315 0.129397 0.986196
vn 0.365756 -0.18073 0.912995
vn 0.455526 -0.515811 -0.725559
vn 0.691521 -0.520357 -0.501027
vn 0.887235 0.461222 -0.00937046
vn 0.499082 -0.481769 0.720289
vn 0.927168 0.374291 -0.0163112
vn 0.686793 -0.492475 0.534588
g grp1
usemtl mtl1
f 1//1 21//21 20//20 
f 1//1 3//3 21//21 
f 27//27 21//21 200//200 
f 198//198 8//8 2//2 
f 5//5 2//2 8//8 
f 198//198 2//2 201//201 
f 4//4 2//2 5//5 
f 6//6 201//201 2//2 
f 2//2 4//4 6//6 
f 16//16 4//4 5//5 
f 14//14 16//16 5//5 
f 200//200 203//203 27//27 
f 203//203 202//202 28//28 
f 210//210 7//7 202//202 
f 29//29 28//28 202//202 
f 29//29 202//202 7//7 
f 29//29 7//7 23//23 
f 23//23 7//7 210//210 
f 20//20 9//9 199//199 
f 199//199 9//9 204//204 
f 8//8 10//10 5//5 
f 204//204 9//9 205//205 
f 9//9 11//11 205//205 
f 10//10 12//12 5//5 
f 207//207 206//206 11//11 
f 20//20 38//38 9//9 
f 13//13 207//207 11//11 
f 13//13 15//15 207//207 
f 5//5 12//12 14//14 
f 14//14 12//12 209//209 
f 208//208 15//15 17//17 
f 19//19 15//15 13//13 
f 22//22 15//15 19//19 
f 208//208 17//17 210//210 
f 11//11 9//9 38//38 
f 38//38 26//26 11//11 
f 18//18 11//11 26//26 
f 17//17 15//15 22//22 
f 13//13 11//11 18//18 
f 19//19 13//13 18//18 
f 23//23 210//210 17//17 
f 34//34 21//21 27//27 
f 203//203 28//28 27//27 
f 25//25 20//20 21//21 
f 30//30 19//19 18//18 
f 19//19 30//30 22//22 
f 23//23 17//17 22//22 
f 36//36 34//34 27//27 
f 25//25 21//21 24//24 
f 24//24 21//21 34//34 
f 25//25 35//35 20//20 
f 20//20 35//35 38//38 
f 43//43 33//33 26//26 
f 42//42 41//41 38//38 
f 38//38 41//41 26//26 
f 41//41 43//43 26//26 
f 36//36 27//27 28//28 
f 22//22 30//30 32//32 
f 31//31 23//23 32//32 
f 23//23 22//22 32//32 
f 31//31 29//29 23//23 
f 32//32 53//53 31//31 
f 29//29 31//31 46//46 
f 33//33 18//18 26//26 
f 33//33 30//30 18//18 
f 40//40 25//25 48//48 
f 35//35 25//25 40//40 
f 45//45 35//35 40//40 
f 38//38 35//35 42//42 
f 42//42 35//35 45//45 
f 37//37 36//36 28//28 
f 33//33 39//39 30//30 
f 44//44 33//33 43//43 
f 37//37 28//28 29//29 
f 46//46 31//31 53//53 
f 39//39 32//32 30//30 
f 25//25 24//24 48//48 
f 29//29 46//46 37//37 
f 39//39 33//33 44//44 
f 61//61 39//39 44//44 
f 54//54 32//32 39//39 
f 49//49 40//40 48//48 
f 45//45 40//40 49//49 
f 55//55 34//34 64//64 
f 55//55 24//24 34//34 
f 48//48 24//24 55//55 
f 42//42 45//45 51//51 
f 41//41 42//42 51//51 
f 51//51 47//47 41//41 
f 36//36 58//58 34//34 
f 37//37 52//52 36//36 
f 47//47 43//43 41//41 
f 44//44 43//43 47//47 
f 61//61 44//44 47//47 
f 32//32 54//54 53//53 
f 50//50 45//45 49//49 
f 56//56 57//57 49//49 
f 49//49 48//48 56//56 
f 64//64 34//34 58//58 
f 52//52 58//58 36//36 
f 51//51 45//45 50//50 
f 60//60 47//47 51//51 
f 60//60 61//61 47//47 
f 46//46 52//52 37//37 
f 46//46 68//68 52//52 
f 54//54 59//59 53//53 
f 53//53 59//59 46//46 
f 59//59 68//68 46//46 
f 54//54 39//39 61//61 
f 49//49 57//57 50//50 
f 57//57 67//67 50//50 
f 48//48 55//55 63//63 
f 56//56 63//63 65//65 
f 56//56 48//48 63//63 
f 65//65 57//57 56//56 
f 57//57 65//65 69//69 
f 67//67 51//51 50//50 
f 60//60 51//51 67//67 
f 75//75 61//61 60//60 
f 54//54 62//62 59//59 
f 62//62 54//54 61//61 
f 55//55 64//64 63//63 
f 67//67 57//57 69//69 
f 63//63 73//73 65//65 
f 69//69 74//74 67//67 
f 66//66 64//64 58//58 
f 52//52 66//66 58//58 
f 52//52 68//68 66//66 
f 70//70 66//66 68//68 
f 75//75 60//60 67//67 
f 79//79 68//68 59//59 
f 59//59 62//62 72//72 
f 71//71 72//72 62//62 
f 79//79 59//59 77//77 
f 59//59 72//72 77//77 
f 61//61 71//71 62//62 
f 63//63 64//64 81//81 
f 63//63 81//81 92//92 
f 92//92 73//73 63//63 
f 64//64 66//66 83//83 
f 73//73 69//69 65//65 
f 76//76 67//67 74//74 
f 70//70 79//79 85//85 
f 68//68 79//79 70//70 
f 77//77 72//72 88//88 
f 78//78 69//69 73//73 
f 69//69 82//82 74//74 
f 67//67 76//76 75//75 
f 85//85 66//66 70//70 
f 83//83 66//66 85//85 
f 61//61 80//80 71//71 
f 87//87 72//72 71//71 
f 88//88 72//72 87//87 
f 80//80 61//61 75//75 
f 73//73 89//89 78//78 
f 92//92 89//89 73//73 
f 82//82 69//69 78//78 
f 91//91 74//74 82//82 
f 91//91 76//76 74//74 
f 81//81 64//64 83//83 
f 91//91 84//84 76//76 
f 76//76 84//84 75//75 
f 84//84 80//80 75//75 
f 83//83 85//85 95//95 
f 77//77 86//86 79//79 
f 77//77 88//88 86//86 
f 85//85 79//79 86//86 
f 81//81 83//83 99//99 
f 95//95 99//99 83//83 
f 89//89 90//90 78//78 
f 90//90 82//82 78//78 
f 95//95 85//85 102//102 
f 80//80 87//87 71//71 
f 85//85 86//86 102//102 
f 82//82 90//90 93//93 
f 97//97 87//87 80//80 
f 84//84 96//96 80//80 
f 97//97 80//80 96//96 
f 102//102 86//86 98//98 
f 98//98 86//86 88//88 
f 93//93 90//90 100//100 
f 95//95 108//108 99//99 
f 93//93 91//91 82//82 
f 91//91 94//94 84//84 
f 91//91 101//101 94//94 
f 103//103 97//97 104//104 
f 87//87 103//103 88//88 
f 96//96 84//84 94//94 
f 104//104 96//96 94//94 
f 104//104 97//97 96//96 
f 99//99 92//92 81//81 
f 92//92 105//105 106//106 
f 106//106 89//89 92//92 
f 89//89 100//100 90//90 
f 100//100 107//107 93//93 
f 107//107 101//101 93//93 
f 107//107 122//122 101//101 
f 95//95 109//109 108//108 
f 93//93 101//101 91//91 
f 111//111 94//94 101//101 
f 122//122 111//111 101//101 
f 110//110 94//94 111//111 
f 94//94 110//110 104//104 
f 109//109 95//95 112//112 
f 95//95 102//102 112//112 
f 113//113 112//112 102//102 
f 98//98 113//113 102//102 
f 115//115 113//113 98//98 
f 88//88 115//115 98//98 
f 103//103 87//87 97//97 
f 88//88 103//103 114//114 
f 117//117 103//103 104//104 
f 117//117 104//104 110//110 
f 105//105 92//92 99//99 
f 105//105 99//99 120//120 
f 123//123 99//99 108//108 
f 105//105 120//120 131//131 
f 131//131 106//106 105//105 
f 121//121 100//100 106//106 
f 106//106 100//100 89//89 
f 107//107 100//100 121//121 
f 109//109 123//123 108//108 
f 124//124 123//123 109//109 
f 125//125 111//111 122//122 
f 111//111 125//125 110//110 
f 117//117 110//110 118//118 
f 125//125 118//118 110//110 
f 124//124 109//109 112//112 
f 112//112 126//126 124//124 
f 126//126 112//112 113//113 
f 113//113 127//127 126//126 
f 127//127 113//113 115//115 
f 114//114 103//103 116//116 
f 117//117 116//116 103//103 
f 115//115 88//88 114//114 
f 115//115 114//114 128//128 
f 130//130 117//117 118//118 
f 130//130 116//116 117//117 
f 129//129 114//114 116//116 
f 131//131 132//132 106//106 
f 132//132 121//121 106//106 
f 132//132 133//133 121//121 
f 120//120 123//123 119//119 
f 120//120 135//135 131//131 
f 120//120 99//99 123//123 
f 137//137 107//107 121//121 
f 122//122 107//107 137//137 
f 137//137 136//136 122//122 
f 125//125 122//122 136//136 
f 124//124 139//139 123//123 
f 124//124 126//126 141//141 
f 141//141 139//139 124//124 
f 130//130 118//118 140//140 
f 118//118 125//125 140//140 
f 147//147 141//141 127//127 
f 141//141 126//126 127//127 
f 127//127 115//115 128//128 
f 129//129 116//116 130//130 
f 114//114 129//129 128//128 
f 140//140 129//129 130//130 
f 131//131 143//143 132//132 
f 143//143 133//133 132//132 
f 143//143 150//150 133//133 
f 135//135 119//119 134//134 
f 139//139 119//119 123//123 
f 139//139 134//134 119//119 
f 119//119 135//135 120//120 
f 133//133 137//137 121//121 
f 144//144 137//137 133//133 
f 144//144 136//136 137//137 
f 139//139 138//138 134//134 
f 138//138 139//139 141//141 
f 140//140 142//142 129//129 
f 125//125 136//136 146//146 
f 140//140 125//125 146//146 
f 127//127 128//128 211//211 
f 148//148 128//128 129//129 
f 129//129 142//142 148//148 
f 131//131 167//167 143//143 
f 150//150 144//144 133//133 
f 134//134 138//138 155//155 
f 135//135 134//134 155//155 
f 145//145 144//144 157//157 
f 145//145 136//136 144//144 
f 145//145 146//146 136//136 
f 142//142 146//146 159//159 
f 146//146 145//145 159//159 
f 146//146 142//142 140//140 
f 211//211 128//128 160//160 
f 148//148 142//142 161//161 
f 128//128 148//148 160//160 
f 162//162 135//135 149//149 
f 149//149 135//135 156//156 
f 162//162 131//131 135//135 
f 131//131 166//166 167//167 
f 151//151 155//155 138//138 
f 158//158 151//151 138//138 
f 152//152 156//156 153//153 
f 156//156 155//155 153//153 
f 153//153 151//151 154//154 
f 153//153 155//155 151//151 
f 154//154 151//151 158//158 
f 149//149 156//156 152//152 
f 149//149 212//212 170//170 
f 170//170 212//212 213//213 
f 155//155 156//156 135//135 
f 157//157 144//144 150//150 
f 171//171 145//145 157//157 
f 141//141 158//158 138//138 
f 159//159 161//161 142//142 
f 145//145 173//173 159//159 
f 174//174 159//159 173//173 
f 159//159 174//174 161//161 
f 141//141 147//147 179//179 
f 179//179 211//211 160//160 
f 160//160 184//184 182//182 
f 160//160 148//148 184//184 
f 148//148 161//161 184//184 
f 149//149 170//170 163//163 
f 163//163 162//162 149//149 
f 221//221 168//168 217//217 
f 221//221 214//214 168//168 
f 164//164 166//166 131//131 
f 168//168 165//165 217//217 
f 163//163 218//218 162//162 
f 164//164 162//162 218//218 
f 131//131 162//162 164//164 
f 218//218 166//166 164//164 
f 166//166 218//218 167//167 
f 168//168 219//219 165//165 
f 219//219 168//168 169//169 
f 220//220 176//176 175//175 
f 220//220 175//175 167//167 
f 143//143 167//167 175//175 
f 177//177 169//169 168//168 
f 169//169 177//177 224//224 
f 177//177 168//168 214//214 
f 145//145 171//171 173//173 
f 178//178 214//214 215//215 
f 216//216 172//172 215//215 
f 222//222 158//158 141//141 
f 215//215 172//172 178//178 
f 173//173 195//195 174//174 
f 223//223 141//141 179//179 
f 176//176 143//143 175//175 
f 177//177 185//185 224//224 
f 176//176 150//150 143//143 
f 227//227 150//150 176//176 
f 227//227 157//157 150//150 
f 227//227 186//186 157//157 
f 189//189 177//177 214//214 
f 186//186 171//171 157//157 
f 171//171 188//188 190//190 
f 173//173 171//171 190//190 
f 178//178 183//183 214//214 
f 214//214 183//183 193//193 
f 161//161 194//194 230//230 
f 194//194 161//161 174//174 
f 174//174 195//195 196//196 
f 180//180 178//178 172//172 
f 225//225 223//223 179//179 
f 225//225 179//179 181//181 
f 179//179 160//160 181//181 
f 178//178 180//180 183//183 
f 226//226 225//225 182//182 
f 182//182 225//225 181//181 
f 182//182 181//181 160//160 
f 226//226 182//182 184//184 
f 184//184 230//230 226//226 
f 161//161 230//230 184//184 
f 177//177 187//187 185//185 
f 228//228 186//186 227//227 
f 188//188 186//186 228//228 
f 189//189 187//187 177//177 
f 171//171 186//186 188//188 
f 173//173 190//190 195//195 
f 188//188 228//228 191//191 
f 191//191 190//190 188//188 
f 192//192 187//187 189//189 
f 187//187 192//192 229//229 
f 192//192 189//189 214//214 
f 190//190 191//191 195//195 
f 229//229 192//192 231//231 
f 191//191 196//196 195//195 
f 193//193 197//197 214//214 
f 194//194 174//174 196//196 
f 230//230 194//194 232//232 
f 196//196 232//232 194//194 
f 197//197 192//192 214//214 
f 192//192 197//197 231//231 
