#
# The license for this database is specified in the Creative Commons Attribution-Share Alike 2.1 Japan. If you use data from this database, please be sure attribute this database as follows: "BodyParts3D, (c)  The Database Center for Life Science licensed under CC Attribution-Share Alike 2.1 Japan".
# http://dbarchive.biosciencedbc.jp/en/bodyparts3d/lic.html
#
#
# Compatibility version : 4.0
# File ID : FJ2500
# Representation ID : BP9539
# Build-up logic : FMA 3.0 part_of
# Concept ID : FMA68216
# English name : Right superior segmental bronchial tree
# Bounds(mm): (-84.269100,-41.118800,1251.220000)-(-74.181900,-37.132900,1255.040000)
# Volume(cm3): 0.056300
#
v -84.2409 -39.1249 1252.5
v -84.0973 -39.0855 1252.07
v -84.2691 -39.4532 1253.02
v -84.2251 -39.9724 1253.07
v -83.6603 -39.8486 1251.38
v -83.4882 -39.7391 1251.26
v -83.4751 -40.3015 1251.22
v -83.3672 -39.866 1251.24
v -83.4061 -40.9695 1251.7
v -83.8793 -39.1877 1251.7
v -83.724 -39.5692 1251.39
v -83.6702 -39.1086 1251.73
v -83.5144 -39.3656 1251.45
v -83.5889 -40.9864 1252
v -83.2732 -41.0836 1252.08
v -83.841 -40.9548 1252.69
v -83.4001 -41.1188 1252.51
v -83.9673 -38.9934 1252.3
v -83.6076 -38.9428 1252.05
v -83.804 -38.9534 1252.57
v -84.0998 -40.5165 1253.07
v -84.1419 -40.4606 1253.2
v -83.915 -40.4023 1253.33
v -83.9979 -40.8543 1253.03
v -83.507 -41.0011 1252.9
v -83.9632 -39.2126 1252.98
v -84.0672 -39.9922 1253.33
v -84.0493 -39.7535 1253.3
v -82.0035 -38.4437 1253.46
v -82.5458 -39.5042 1253.98
v -82.3583 -39.9021 1254.04
v -82.0856 -39.0488 1254.06
v -81.5737 -39.0436 1251.8
v -81.3401 -39.4769 1251.72
v -80.7653 -40.6106 1252.55
v -81.1687 -40.8048 1253.02
v -81.1522 -38.465 1252.24
v -81.7444 -40.2428 1254.07
v -81.3129 -40.5525 1253.85
v -81.8221 -38.6699 1253.94
v -81.2288 -38.1085 1253.17
v -80.4374 -40.2399 1254.32
v -80.7491 -38.2567 1254.16
v -81.0551 -39.0532 1254.52
v -80.7173 -38.5637 1254.46
v -80.8775 -39.8314 1254.5
v -80.7043 -39.3423 1254.66
v -79.9511 -38.7815 1252.03
v -79.7255 -39.1522 1251.99
v -79.9756 -40.0412 1252.19
v -79.7388 -38.1885 1254.6
v -80.0977 -38.5809 1254.72
v -80.1187 -38.9537 1254.82
v -79.7186 -39.1166 1254.94
v -79.3381 -38.129 1252.38
v -79.3941 -37.766 1252.86
v -78.7664 -40.4937 1253.39
v -79.0638 -40.5228 1253.74
v -79.4946 -37.6353 1253.37
v -79.1788 -40.0314 1254.64
v -79.4325 -40.4421 1254.07
v -79.5996 -37.7708 1254.09
v -78.8665 -38.0225 1254.7
v -79.5432 -38.7885 1254.95
v -79.3708 -38.4032 1254.85
v -79.1397 -38.9933 1255.02
v -79.5119 -39.7774 1254.8
v -79.5416 -39.4443 1254.93
v -78.9454 -39.5503 1254.94
v -78.0936 -38.9079 1252.09
v -78.2574 -39.5578 1252.22
v -78.5601 -37.4749 1253.8
v -77.961 -37.4079 1253.43
v -78.2128 -40.0898 1254.47
v -78.721 -38.5692 1255.01
v -76.8049 -39.0274 1251.99
v -77.5992 -38.3413 1252.15
v -77.2882 -37.8444 1252.4
v -77.7244 -39.979 1252.62
v -77.1531 -40.2084 1253.22
v -76.8647 -40.058 1252.88
v -77.8503 -39.6813 1254.81
v -77.8924 -37.5604 1254.33
v -77.399 -37.7671 1254.65
v -77.9571 -38.2559 1254.95
v -77.461 -38.6664 1255.04
v -77.8364 -39.2057 1255.02
v -76.199 -39.5323 1252.15
v -76.9604 -37.5171 1252.74
v -76.8859 -40.1569 1253.84
v -76.6046 -37.3166 1253.88
v -76.4321 -39.7723 1254.43
v -76.6718 -37.5251 1254.36
v -76.7385 -38.1127 1254.85
v -76.4519 -38.6784 1254.93
v -76.872 -39.2479 1254.9
v -75.5753 -39.1785 1254.63
v -76.2698 -37.7719 1254.6
v -75.743 -38.0711 1254.68
v -75.1092 -39.1071 1251.68
v -75.2578 -37.8721 1251.81
v -75.2423 -38.4651 1251.61
v -74.9666 -38.4584 1251.61
v -74.966 -37.8427 1251.79
v -75.0751 -38.9081 1251.6
v -74.9189 -38.9922 1251.68
v -74.9553 -39.3584 1251.81
v -74.9784 -39.6787 1252.16
v -74.7414 -39.4438 1252.11
v -74.8727 -39.8382 1252.47
v -74.6017 -39.7953 1252.57
v -74.7609 -39.9179 1252.87
v -75.1563 -37.5776 1252.04
v -75.1713 -37.341 1252.4
v -74.8884 -37.3226 1252.36
v -75.0441 -37.2162 1252.66
v -75.0413 -37.1637 1252.9
v -74.7626 -37.1477 1252.85
v -74.8553 -37.1329 1253.09
v -74.6727 -37.2243 1253.07
v -75.3351 -38.5864 1254.7
v -74.4145 -39.74 1253.17
v -74.4319 -39.8456 1253.24
v -74.5743 -39.8654 1253.36
v -74.3655 -39.804 1253.35
v -74.312 -39.494 1253.63
v -74.3137 -39.3914 1254.09
v -74.2518 -39.1001 1254.28
v -74.3514 -39.6844 1253.74
v -74.7674 -37.2048 1253.56
v -74.4888 -37.42 1253.66
v -74.4067 -37.5535 1254.09
v -74.2369 -38.1136 1254.31
v -74.402 -38.1873 1254.41
v -74.1819 -38.7425 1254.36
v -84.2409 -39.1249 1252.5
v -84.0973 -39.0855 1252.07
v -84.2691 -39.4532 1253.02
v -84.2691 -39.4532 1253.02
v -84.2251 -39.9724 1253.07
v -83.6603 -39.8486 1251.38
v -83.4882 -39.7391 1251.26
v -83.4751 -40.3015 1251.22
v -83.4751 -40.3015 1251.22
v -83.4061 -40.9695 1251.7
v -83.8793 -39.1877 1251.7
v -83.724 -39.5692 1251.39
v -83.724 -39.5692 1251.39
v -83.5889 -40.9864 1252
v -83.841 -40.9548 1252.69
v -84.1419 -40.4606 1253.2
v -84.1419 -40.4606 1253.2
v -83.9979 -40.8543 1253.03
v -84.0672 -39.9922 1253.33
v -84.0493 -39.7535 1253.3
v -74.9666 -38.4584 1251.61
v -74.966 -37.8427 1251.79
v -74.9189 -38.9922 1251.68
v -74.9553 -39.3584 1251.81
v -74.6017 -39.7953 1252.57
v -74.8884 -37.3226 1252.36
v -74.7626 -37.1477 1252.85
v -74.7626 -37.1477 1252.85
v -74.6727 -37.2243 1253.07
v -74.4319 -39.8456 1253.24
v -74.3655 -39.804 1253.35
v -74.3137 -39.3914 1254.09
v -74.2518 -39.1001 1254.28
v -74.3514 -39.6844 1253.74
v -74.4888 -37.42 1253.66
v -74.4067 -37.5535 1254.09
v -74.4067 -37.5535 1254.09
v -74.2369 -38.1136 1254.31
v -74.1819 -38.7425 1254.36
vn -0.94805 -0.18781 -0.256766
vn -0.35025 0.905972 -0.237782
vn -0.989038 -0.0946175 -0.113365
vn -0.937971 -0.2039 -0.28042
vn -0.913629 -0.228997 -0.335919
vn -0.563363 -0.0309813 -0.825628
vn -0.594523 0.0431787 -0.802919
vn 0.114677 0.117979 -0.986372
vn 0.14586 -0.844255 -0.515712
vn -0.260266 0.760123 -0.595378
vn -0.528268 -0.104925 -0.84257
vn -0.162852 0.803362 -0.572791
vn -0.0882425 0.577302 -0.811749
vn -0.881428 -0.287275 -0.37491
vn 0.0221451 -0.980223 -0.196655
vn -0.909583 -0.224758 -0.34949
vn -0.105707 -0.991925 0.0700832
vn -0.346622 0.935719 -0.0654513
vn -0.226049 0.912052 -0.342144
vn -0.358126 0.922065 0.146774
vn -0.9314 -0.232708 -0.279894
vn -0.950147 -0.2421 -0.196489
vn -0.339878 -0.340274 0.876753
vn -0.220158 -0.724046 0.653673
vn -0.110174 -0.933169 0.342138
vn -0.451423 0.747744 0.486925
vn -0.847246 0.0625505 0.527505
vn -0.815486 0.0612239 0.57553
vn -0.378104 0.856305 0.351822
vn -0.393163 0.109811 0.912888
vn -0.323972 -0.20231 0.924182
vn -0.420251 0.39289 0.81794
vn 0.069934 0.435873 -0.897287
vn 0.175605 0.052102 -0.983081
vn 0.21191 -0.868526 -0.448059
vn 0.135412 -0.990335 -0.0300185
vn -0.0664709 0.74475 -0.664025
vn -0.204721 -0.540746 0.815894
vn -0.0752809 -0.793707 0.603624
vn -0.41761 0.647328 0.637627
vn -0.29492 0.954967 0.0325534
vn -0.0973287 -0.678329 0.728283
vn -0.354914 0.740049 0.571282
vn -0.354607 0.229763 0.906346
vn -0.365236 0.505832 0.781496
vn -0.216395 -0.377889 0.900207
vn -0.293388 -0.0634427 0.953886
vn 0.0515264 0.263823 -0.963194
vn 0.105606 0.0240461 -0.994117
vn 0.220904 -0.526528 -0.820956
vn -0.275925 0.640038 0.717089
vn -0.300556 0.378675 0.875369
vn -0.289749 0.152081 0.944943
vn -0.207008 -0.0155065 0.978216
vn -0.0527757 0.614542 -0.787117
vn -0.126867 0.868346 -0.479458
vn 0.154713 -0.987688 -0.0231635
vn 0.115816 -0.975415 0.187489
vn -0.207994 0.974035 -0.0894136
vn 0.0122066 -0.677784 0.73516
vn 0.0532033 -0.908925 0.413551
vn -0.25653 0.891174 0.374168
vn -0.150487 0.677493 0.71997
vn -0.201177 0.205254 0.957809
vn -0.183307 0.448971 0.874542
vn -0.0703947 -0.0321064 0.997002
vn -0.102133 -0.485764 0.868103
vn -0.151314 -0.228927 0.961611
vn -0.0103057 -0.364608 0.931104
vn 0.0050683 -0.0103282 -0.999934
vn 0.0624498 -0.352876 -0.933584
vn -0.144106 0.97739 0.154734
vn -0.124704 0.973823 -0.190045
vn 0.118122 -0.812341 0.571095
vn -0.0828078 0.234363 0.968616
vn -0.14478 -0.185648 -0.971892
vn -0.1151 0.298573 -0.947421
vn -0.151788 0.680381 -0.716967
vn 0.103858 -0.771553 -0.62763
vn 0.108101 -0.958795 -0.262727
vn 0.019905 -0.875681 -0.482481
vn 0.100034 -0.559712 0.822627
vn -0.104286 0.874368 0.473924
vn -0.0240937 0.666446 0.745164
vn -0.0437429 0.426293 0.903527
vn 0.0492124 0.0642918 0.996717
vn 0.0480535 -0.227004 0.972708
vn -0.0682701 -0.643823 -0.762123
vn -0.154167 0.855279 -0.494703
vn 0.159131 -0.957305 0.241339
vn -0.0621858 0.981169 0.182866
vn 0.194391 -0.722016 0.664007
vn 0.0221425 0.83772 0.545652
vn 0.0819199 0.379698 0.921476
vn 0.167349 0.00787088 0.985866
vn 0.155914 -0.341002 0.927043
vn 0.233979 -0.379717 0.895025
vn 0.0920862 0.616255 0.782144
vn 0.178094 0.345902 0.921214
vn -0.0176314 -0.421142 -0.906823
vn -0.170443 0.50217 -0.847806
vn -0.123559 0.138482 -0.982627
vn 0.137505 0.0745076 -0.987695
vn -0.0276609 0.507868 -0.860991
vn 0.046138 -0.171102 -0.984172
vn 0.28078 -0.271587 -0.920545
vn -0.00701842 -0.558158 -0.829705
vn 0.177563 -0.802551 -0.569547
vn 0.88248 -0.171934 -0.437798
vn 0.161855 -0.915004 -0.369555
vn 0.36464 -0.839769 -0.402276
vn 0.192981 -0.977419 -0.0860798
vn -0.120777 0.750122 -0.650177
vn -0.147993 0.881203 -0.448976
vn -0.0321147 0.866835 -0.497559
vn -0.0962781 0.948884 -0.300581
vn -0.0983385 0.989759 -0.103476
vn -0.0570723 0.975424 -0.212814
vn 0.140711 0.9892 0.0410236
vn 0.940081 0.167901 -0.296744
vn 0.233035 -0.00407053 0.97246
vn 0.94938 -0.115488 -0.292131
vn 0.284018 -0.95861 0.019997
vn 0.214101 -0.960441 0.178084
vn 0.962707 -0.180944 -0.201132
vn 0.991604 -0.0620804 -0.113435
vn 0.235884 -0.643691 0.728025
vn 0.254375 -0.418333 0.871947
vn 0.223258 -0.88085 0.417443
vn 0.294824 0.925717 0.23691
vn 0.965279 0.149268 -0.214374
vn 0.179329 0.6216 0.762532
vn 0.966748 0.137263 -0.215769
vn 0.313735 0.246555 0.916941
vn 0.985111 -0.0160378 -0.171172
vn -0.445646 0.865479 0.228793
vn -0.905004 -0.114311 -0.409757
vn -0.472486 0.592508 0.652451
vn -0.785449 -0.0076322 0.618879
vn -0.828191 0.0391952 0.559073
vn -0.563363 -0.0309813 -0.825628
vn 0.0421391 0.308316 -0.95035
vn -0.839588 -0.341028 -0.422839
vn 0.183639 -0.158006 -0.970212
vn -0.758802 -0.429931 -0.489264
vn -0.844418 0.0934757 -0.527466
vn -0.220929 0.493271 -0.841352
vn -0.892083 -0.0548108 -0.448536
vn -0.292774 -0.94418 -0.151024
vn -0.298397 -0.949539 0.0966128
vn -0.851241 -0.00480365 0.524753
vn -0.395865 -0.323459 0.859456
vn -0.930341 -0.252944 -0.26549
vn -0.411831 -0.0512946 0.909815
vn -0.442439 0.280986 0.851642
vn 0.949661 0.0604356 -0.307395
vn 0.956152 0.101157 -0.274846
vn 0.864006 -0.129515 -0.486539
vn 0.645191 -0.482697 -0.592227
vn 0.945142 -0.168188 -0.280035
vn 0.928768 0.202163 -0.310677
vn 0.928688 0.202495 -0.310699
vn 0.454129 0.882489 0.122397
vn 0.50077 0.861342 0.085554
vn 0.881113 -0.356644 -0.310557
vn 0.284403 -0.931203 0.227982
vn 0.976145 -0.211105 0.0507444
vn 0.974323 -0.220884 0.0436519
vn 0.982319 -0.184256 0.0331427
vn 0.584126 0.804125 0.110364
vn 0.575852 0.80571 0.138657
vn 0.962406 0.250535 -0.104917
vn 0.42067 0.275642 0.864325
vn 0.327835 -0.087185 0.940703
g grp1
usemtl mtl1
f 18//18 19//19 2//2 
f 5//5 1//1 137//137 
f 2//2 136//136 18//18 
f 4//4 3//3 1//1 
f 5//5 4//4 1//1 
f 4//4 16//16 21//21 
f 21//21 22//22 4//4 
f 151//151 27//27 140//140 
f 136//136 138//138 26//26 
f 28//28 139//139 140//140 
f 27//27 28//28 140//140 
f 6//6 141//141 11//11 
f 6//6 7//7 141//141 
f 143//143 14//14 5//5 
f 144//144 142//142 8//8 
f 142//142 34//34 8//8 
f 5//5 14//14 4//4 
f 144//144 50//50 9//9 
f 145//145 14//14 143//143 
f 15//15 149//149 9//9 
f 10//10 13//13 147//147 
f 137//137 146//146 148//148 
f 148//148 5//5 137//137 
f 19//19 10//10 2//2 
f 12//12 13//13 10//10 
f 12//12 10//10 19//19 
f 147//147 13//13 142//142 
f 33//33 13//13 37//37 
f 37//37 13//13 12//12 
f 37//37 12//12 19//19 
f 4//4 14//14 16//16 
f 149//149 17//17 150//150 
f 17//17 25//25 150//150 
f 25//25 24//24 150//150 
f 149//149 15//15 17//17 
f 36//36 17//17 15//15 
f 20//20 18//18 136//136 
f 136//136 29//29 20//20 
f 16//16 153//153 21//21 
f 21//21 153//153 22//22 
f 24//24 23//23 152//152 
f 152//152 23//23 154//154 
f 24//24 25//25 39//39 
f 29//29 136//136 26//26 
f 32//32 138//138 155//155 
f 23//23 31//31 154//154 
f 144//144 8//8 34//34 
f 35//35 15//15 9//9 
f 15//15 35//35 36//36 
f 35//35 9//9 50//50 
f 142//142 33//33 34//34 
f 33//33 142//142 13//13 
f 19//19 18//18 41//41 
f 41//41 18//18 20//20 
f 38//38 23//23 24//24 
f 39//39 38//38 24//24 
f 29//29 26//26 40//40 
f 30//30 32//32 155//155 
f 155//155 154//154 30//30 
f 31//31 23//23 38//38 
f 154//154 31//31 30//30 
f 19//19 41//41 59//59 
f 61//61 25//25 17//17 
f 17//17 36//36 61//61 
f 41//41 20//20 29//29 
f 26//26 138//138 40//40 
f 40//40 138//138 32//32 
f 47//47 30//30 31//31 
f 34//34 50//50 144//144 
f 55//55 33//33 37//37 
f 36//36 58//58 61//61 
f 46//46 38//38 42//42 
f 46//46 31//31 38//38 
f 29//29 40//40 43//43 
f 40//40 32//32 45//45 
f 43//43 40//40 45//45 
f 30//30 47//47 44//44 
f 44//44 32//32 30//30 
f 33//33 55//55 48//48 
f 48//48 34//34 33//33 
f 49//49 71//71 34//34 
f 35//35 80//80 36//36 
f 56//56 55//55 37//37 
f 56//56 37//37 19//19 
f 61//61 39//39 25//25 
f 59//59 41//41 62//62 
f 42//42 38//38 39//39 
f 45//45 32//32 44//44 
f 45//45 44//44 52//52 
f 52//52 44//44 53//53 
f 44//44 47//47 53//53 
f 31//31 46//46 47//47 
f 53//53 47//47 54//54 
f 48//48 55//55 77//77 
f 48//48 77//77 70//70 
f 34//34 48//48 49//49 
f 49//49 48//48 70//70 
f 71//71 50//50 34//34 
f 79//79 35//35 50//50 
f 41//41 29//29 62//62 
f 42//42 67//67 46//46 
f 60//60 67//67 42//42 
f 61//61 60//60 42//42 
f 61//61 42//42 39//39 
f 62//62 29//29 43//43 
f 51//51 62//62 43//43 
f 51//51 43//43 45//45 
f 51//51 45//45 52//52 
f 51//51 52//52 65//65 
f 65//65 52//52 64//64 
f 64//64 52//52 53//53 
f 64//64 53//53 54//54 
f 47//47 46//46 68//68 
f 47//47 68//68 54//54 
f 78//78 77//77 55//55 
f 70//70 71//71 49//49 
f 71//71 79//79 50//50 
f 79//79 80//80 35//35 
f 36//36 80//80 57//57 
f 78//78 55//55 56//56 
f 57//57 58//58 36//36 
f 58//58 90//90 61//61 
f 56//56 19//19 59//59 
f 73//73 56//56 59//59 
f 72//72 62//62 83//83 
f 63//63 62//62 51//51 
f 63//63 83//83 62//62 
f 63//63 51//51 65//65 
f 63//63 65//65 85//85 
f 64//64 54//54 66//66 
f 65//65 64//64 75//75 
f 75//75 64//64 66//66 
f 85//85 65//65 75//75 
f 68//68 46//46 67//67 
f 54//54 68//68 66//66 
f 67//67 69//69 68//68 
f 69//69 66//66 68//68 
f 60//60 69//69 67//67 
f 60//60 82//82 69//69 
f 69//69 82//82 87//87 
f 87//87 66//66 69//69 
f 76//76 71//71 70//70 
f 79//79 81//81 80//80 
f 71//71 88//88 79//79 
f 57//57 80//80 90//90 
f 57//57 90//90 58//58 
f 62//62 72//72 59//59 
f 73//73 59//59 72//72 
f 72//72 83//83 91//91 
f 74//74 60//60 61//61 
f 74//74 82//82 60//60 
f 74//74 61//61 90//90 
f 84//84 83//83 63//63 
f 63//63 85//85 84//84 
f 86//86 85//85 75//75 
f 86//86 75//75 66//66 
f 66//66 87//87 86//86 
f 70//70 77//77 76//76 
f 88//88 81//81 79//79 
f 88//88 71//71 76//76 
f 56//56 89//89 78//78 
f 73//73 72//72 91//91 
f 92//92 74//74 90//90 
f 92//92 82//82 74//74 
f 92//92 96//96 82//82 
f 84//84 85//85 94//94 
f 93//93 83//83 84//84 
f 86//86 87//87 96//96 
f 94//94 85//85 86//86 
f 82//82 96//96 87//87 
f 80//80 81//81 108//108 
f 73//73 89//89 56//56 
f 97//97 96//96 92//92 
f 92//92 127//127 97//97 
f 93//93 91//91 83//83 
f 130//130 91//91 93//93 
f 93//93 132//132 130//130 
f 93//93 84//84 98//98 
f 94//94 98//98 84//84 
f 99//99 98//98 94//94 
f 93//93 98//98 132//132 
f 94//94 95//95 99//99 
f 94//94 86//86 95//95 
f 95//95 86//86 96//96 
f 95//95 96//96 97//97 
f 76//76 77//77 102//102 
f 88//88 76//76 100//100 
f 105//105 100//100 76//76 
f 107//107 88//88 100//100 
f 102//102 105//105 76//76 
f 88//88 108//108 81//81 
f 101//101 78//78 113//113 
f 73//73 114//114 89//89 
f 101//101 77//77 78//78 
f 112//112 90//90 80//80 
f 129//129 127//127 92//92 
f 97//97 121//121 95//95 
f 99//99 95//95 121//121 
f 105//105 106//106 100//100 
f 107//107 100//100 106//106 
f 101//101 113//113 104//104 
f 77//77 101//101 102//102 
f 103//103 105//105 102//102 
f 103//103 102//102 104//104 
f 102//102 101//101 104//104 
f 105//105 103//103 106//106 
f 108//108 88//88 107//107 
f 156//156 109//109 158//158 
f 109//109 159//159 158//158 
f 108//108 159//159 109//109 
f 156//156 157//157 109//109 
f 80//80 108//108 110//110 
f 108//108 109//109 111//111 
f 110//110 108//108 111//111 
f 110//110 111//111 112//112 
f 80//80 110//110 112//112 
f 113//113 78//78 89//89 
f 113//113 89//89 114//114 
f 104//104 113//113 115//115 
f 115//115 113//113 114//114 
f 115//115 114//114 116//116 
f 116//116 114//114 73//73 
f 112//112 124//124 90//90 
f 112//112 123//123 124//124 
f 124//124 129//129 90//90 
f 73//73 91//91 117//117 
f 116//116 73//73 117//117 
f 115//115 116//116 118//118 
f 118//118 116//116 117//117 
f 118//118 117//117 119//119 
f 119//119 117//117 91//91 
f 120//120 157//157 161//161 
f 161//161 162//162 120//120 
f 164//164 163//163 119//119 
f 130//130 119//119 91//91 
f 130//130 164//164 119//119 
f 131//131 157//157 120//120 
f 90//90 129//129 92//92 
f 134//134 99//99 121//121 
f 127//127 128//128 97//97 
f 122//122 160//160 109//109 
f 160//160 122//122 165//165 
f 112//112 111//111 123//123 
f 125//125 165//165 122//122 
f 109//109 126//126 122//122 
f 122//122 126//126 125//125 
f 169//169 125//125 126//126 
f 123//123 166//166 124//124 
f 166//166 129//129 124//124 
f 164//164 130//130 170//170 
f 109//109 157//157 126//126 
f 169//169 126//126 167//167 
f 167//167 126//126 168//168 
f 157//157 135//135 126//126 
f 126//126 135//135 168//168 
f 97//97 128//128 174//174 
f 170//170 130//130 171//171 
f 172//172 133//133 131//131 
f 132//132 98//98 99//99 
f 132//132 99//99 134//134 
f 135//135 157//157 133//133 
f 157//157 131//131 133//133 
f 134//134 173//173 132//132 
f 174//174 173//173 134//134 
f 97//97 174//174 121//121 
f 121//121 174//174 134//134 
