#
# The license for this database is specified in the Creative Commons Attribution-Share Alike 2.1 Japan. If you use data from this database, please be sure attribute this database as follows: "BodyParts3D, (c)  The Database Center for Life Science licensed under CC Attribution-Share Alike 2.1 Japan".
# http://dbarchive.biosciencedbc.jp/en/bodyparts3d/lic.html
#
#
# Compatibility version : 4.0
# File ID : FJ2456
# Representation ID : BP9489
# Build-up logic : FMA 3.0 part_of
# Concept ID : FMA68218
# English name : Right medial basal segmental bronchial tree
# Bounds(mm): (-38.078000,-97.820800,1212.439900)-(-8.744500,-72.810700,1245.670000)
# Volume(cm3): 0.368900
#
v -8.74452 -97.0813 1213.69
v -8.97535 -96.676 1214.14
v -9.18715 -96.2951 1212.76
v -9.35369 -96.0524 1212.62
v -9.5024 -96.305 1212.51
v -9.95866 -96.506 1212.44
v -10.3846 -95.6536 1213.3
v -10.9718 -96.2702 1213.37
v -9.50343 -95.6896 1214.33
v -8.80898 -96.099 1213.01
v -9.43751 -95.6405 1213.91
v -9.64514 -95.5198 1213.8
v -8.85323 -97.3984 1213.86
v -9.13509 -97.5055 1213.59
v -10.0852 -96.2654 1215.38
v -9.24614 -97.6399 1213.84
v -9.47129 -97.4737 1213.21
v -9.75011 -97.8208 1213.32
v -10.0436 -97.5442 1212.77
v -16.0045 -93.7754 1218.4
v -17.1307 -93.1389 1221.89
v -17.9089 -92.973 1220.84
v -18.3624 -90.2149 1224.85
v -17.7677 -90.0438 1223.89
v -19.6121 -91.9342 1223.45
v -18.0652 -91.1527 1220.52
v -18.5396 -91.775 1220.79
v -18.4991 -89.1952 1223.18
v -18.7422 -89.9455 1221.76
v -21.6765 -90.1922 1226.75
v -22.5128 -89.9958 1225.82
v -21.6181 -89.5093 1227.68
v -22.2566 -86.9889 1229.52
v -23.1499 -87.3258 1230.28
v -24.4859 -87.9098 1230.21
v -22.7629 -89.5629 1225.53
v -24.2733 -85.4349 1227.82
v -24.7027 -85.7384 1227.7
v -24.4859 -84.4335 1229.26
v -24.2991 -88.6631 1228.48
v -25.1691 -87.9774 1228.68
v -25.2226 -86.5944 1227.76
v -25.9596 -86.8834 1228.76
v -24.2067 -84.5117 1231.51
v -23.9753 -84.4429 1230.25
v -27.3831 -86.0221 1232.21
v -29.4986 -83.3565 1232.73
v -27.7226 -81.7107 1236.23
v -28.458 -80.1182 1236.01
v -30.6039 -82.5638 1237.22
v -30.1097 -83.6168 1234.51
v -29.8088 -82.5676 1237.31
v -28.8931 -80.1357 1234.69
v -30.1155 -79.5584 1235.21
v -30.7016 -82.8505 1234.65
v -32.8365 -80.9222 1238.55
v -32.9619 -80.8469 1238.02
v -32.586 -79.8098 1236.42
v -32.4278 -78.8392 1236.64
v -34.9398 -73.1479 1244.44
v -34.5975 -76.0921 1244.75
v -35.3549 -76.4239 1244.94
v -36.3366 -75.9843 1245.62
v -36.1471 -75.662 1245.67
v -37.4938 -76.133 1244.67
v -34.8744 -74.5231 1245.59
v -34.1051 -74.482 1244.25
v -34.8942 -74.042 1245.28
v -36.5561 -76.5939 1244.67
v -37.4333 -75.907 1244.86
v -37.3094 -76.0947 1245.09
v -36.3789 -73.6694 1242.33
v -34.5908 -73.712 1242.83
v -35.7129 -73.1712 1243.92
v -35.7497 -72.8107 1243.46
v -37.1774 -76.5614 1243.45
v -37.4325 -76.1907 1243.16
v -38.0458 -75.6209 1244.14
v -37.3358 -75.3189 1242.29
v -38.078 -75.1057 1243.39
v -37.9313 -74.9013 1243.62
v -36.9243 -73.3747 1243.12
v -37.0602 -74.5156 1242.13
v -37.495 -73.7601 1242.79
v -37.7341 -74.1057 1242.86
v -37.6915 -74.2483 1243.27
v -38.0631 -74.6395 1243.24
v -8.74452 -97.0813 1213.69
v -9.35369 -96.0524 1212.62
v -9.5024 -96.305 1212.51
v -9.95866 -96.506 1212.44
v -8.80898 -96.099 1213.01
v -8.85323 -97.3984 1213.86
v -9.24614 -97.6399 1213.84
v -9.75011 -97.8208 1213.32
v -10.0436 -97.5442 1212.77
v -17.7677 -90.0438 1223.89
v -34.9398 -73.1479 1244.44
v -36.3366 -75.9843 1245.62
v -36.1471 -75.662 1245.67
v -37.4938 -76.133 1244.67
v -34.8744 -74.5231 1245.59
v -34.8942 -74.042 1245.28
v -37.4333 -75.907 1244.86
v -37.3094 -76.0947 1245.09
v -37.3094 -76.0947 1245.09
v -35.7497 -72.8107 1243.46
v -38.0458 -75.6209 1244.14
v -38.0458 -75.6209 1244.14
v -38.0458 -75.6209 1244.14
v -38.078 -75.1057 1243.39
v -36.9243 -73.3747 1243.12
v -37.495 -73.7601 1242.79
v -37.7341 -74.1057 1242.86
v -38.0631 -74.6395 1243.24
vn 0.664796 -0.455704 -0.591929
vn 0.85155 0.136792 0.506113
vn 0.611383 -0.269549 -0.744012
vn 0.601496 -0.0581136 -0.796759
vn 0.509497 -0.255248 -0.821743
vn 0.276879 -0.311643 -0.908965
vn -0.2486 0.655827 -0.712804
vn -0.702548 -0.0508122 -0.70982
vn 0.771591 0.571617 0.279107
vn 0.741495 0.665508 0.0853474
vn 0.632157 0.772394 0.061518
vn 0.419675 0.884892 -0.202087
vn 0.621646 -0.686921 -0.376424
vn 0.605577 -0.667691 -0.432971
vn 0.739212 -0.0459823 0.671901
vn 0.51897 -0.827492 -0.214309
vn 0.605949 -0.487162 -0.628887
vn 0.54508 -0.702237 -0.457986
vn 0.503137 -0.442501 -0.742325
vn -0.761097 -0.369668 -0.532989
vn -0.0562157 -0.885026 0.462136
vn -0.6631 -0.717592 -0.212981
vn 0.774498 0.0484836 0.630716
vn 0.802538 0.201057 0.561702
vn -0.417978 -0.895509 0.152833
vn -0.515993 0.375624 -0.769843
vn -0.733493 -0.0712304 -0.675954
vn 0.445065 0.871534 -0.205781
vn -0.162815 0.728408 -0.665517
vn -0.144847 -0.888256 0.435914
vn -0.649346 -0.75209 -0.112746
vn 0.248405 -0.701555 0.667919
vn 0.791505 0.0640992 0.607792
vn 0.609 -0.316814 0.72715
vn -0.115881 -0.852353 0.509967
vn -0.780469 -0.435772 -0.448297
vn -0.0702713 0.757643 -0.648875
vn -0.432243 0.487634 -0.758537
vn 0.351976 0.860129 -0.369177
vn -0.460075 -0.868513 0.184433
vn -0.727965 -0.667908 -0.154805
vn -0.706386 0.0796805 -0.703328
vn -0.814249 -0.354167 -0.459961
vn 0.825749 0.444825 0.346799
vn 0.664099 0.747617 -0.00640399
vn -0.497358 -0.840759 0.213914
vn -0.818236 -0.16838 -0.549671
vn 0.840338 0.20691 0.501019
vn 0.736807 0.674972 0.0390977
vn -0.251895 -0.850427 0.461869
vn -0.712438 -0.699866 -0.0511833
vn 0.192281 -0.699654 0.688122
vn 0.352017 0.842151 -0.408491
vn -0.0299682 0.760401 -0.648762
vn -0.823758 -0.475381 -0.308925
vn -0.56773 -0.803083 0.180945
vn -0.755251 -0.649562 -0.0875485
vn -0.71021 0.128866 -0.692095
vn -0.455479 0.46692 -0.757974
vn 0.745786 0.659065 0.0971404
vn 0.439464 -0.425797 0.790929
vn 0.326262 -0.559886 0.76163
vn 0.093155 -0.691274 0.716563
vn 0.395272 -0.372131 0.839809
vn -0.619397 -0.770678 0.149677
vn 0.745592 -0.0192422 0.666125
vn 0.837905 0.384632 0.387264
vn 0.804475 0.388575 0.449255
vn -0.224764 -0.827514 0.514492
vn -0.523712 0.521072 0.673951
vn -0.364314 -0.839127 0.403907
vn -0.228225 0.738893 -0.633996
vn 0.564963 0.798791 -0.20676
vn -0.479134 0.616676 0.624613
vn 0.199261 0.865384 -0.459788
vn -0.721646 -0.692253 -0.00360252
vn -0.817831 -0.533511 -0.215682
vn -0.791022 -0.601495 -0.111751
vn -0.807415 -0.0707487 -0.585727
vn -0.850899 -0.304671 -0.427956
vn -0.715761 0.445176 0.538057
vn -0.549299 0.611905 0.569072
vn -0.620721 0.274859 -0.734274
vn -0.478955 0.516109 -0.710094
vn -0.707145 0.154643 -0.689951
vn -0.638679 0.596787 0.48573
vn -0.810644 -0.0550407 -0.582947
vn 0.918987 0.101716 0.380943
vn 0.0486758 0.792765 -0.60758
vn -0.046751 0.421783 -0.905491
vn -0.42343 0.384099 -0.820472
vn 0.629832 -0.302107 -0.715572
vn 0.631503 -0.346836 0.693476
vn 0.171284 -0.781287 0.60021
vn -0.378544 -0.9128 0.153301
vn -0.729336 -0.487254 -0.480263
vn 0.716175 0.683415 0.141556
vn -0.434575 0.65209 0.621227
vn -0.486133 0.152205 0.860528
vn -0.505283 0.498747 0.70423
vn -0.852856 -0.18276 0.489116
vn -0.386808 0.487297 0.782893
vn -0.452912 0.547396 0.703725
vn -0.852856 -0.18276 0.489116
vn -0.51704 0.330122 0.78974
vn -0.907672 -0.0996433 0.407679
vn -0.4477 0.688326 0.570765
vn -0.78393 -0.262852 0.562461
vn -0.516719 0.550145 0.656004
vn -0.900294 0.339783 0.272063
vn -0.901942 0.25376 0.349438
vn -0.264251 0.828487 -0.493741
vn -0.711858 0.616665 0.336128
vn -0.732909 0.61522 0.29043
vn -0.762345 0.465371 0.449734
g grp1
usemtl mtl1
f 14//14 1//1 13//13 
f 88//88 2//2 93//93 
f 93//93 2//2 15//15 
f 88//88 10//10 2//2 
f 17//17 1//1 14//14 
f 1//1 17//17 92//92 
f 92//92 17//17 3//3 
f 92//92 3//3 4//4 
f 17//17 19//19 3//3 
f 3//3 5//5 4//4 
f 5//5 3//3 19//19 
f 19//19 6//6 5//5 
f 91//91 89//89 90//90 
f 8//8 91//91 96//96 
f 7//7 89//89 91//91 
f 89//89 7//7 29//29 
f 29//29 7//7 91//91 
f 2//2 10//10 9//9 
f 24//24 2//2 9//9 
f 10//10 11//11 9//9 
f 11//11 28//28 9//9 
f 97//97 9//9 28//28 
f 11//11 10//10 12//12 
f 28//28 11//11 12//12 
f 89//89 12//12 10//10 
f 18//18 17//17 14//14 
f 18//18 14//14 16//16 
f 13//13 16//16 14//14 
f 21//21 95//95 94//94 
f 17//17 18//18 19//19 
f 8//8 96//96 20//20 
f 2//2 24//24 15//15 
f 24//24 23//23 15//15 
f 29//29 28//28 89//89 
f 89//89 28//28 12//12 
f 96//96 22//22 20//20 
f 29//29 91//91 26//26 
f 29//29 37//37 28//28 
f 95//95 22//22 96//96 
f 23//23 34//34 15//15 
f 34//34 93//93 15//15 
f 93//93 32//32 94//94 
f 21//21 94//94 32//32 
f 95//95 21//21 25//25 
f 22//22 95//95 25//25 
f 22//22 36//36 20//20 
f 26//26 91//91 8//8 
f 27//27 8//8 20//20 
f 36//36 27//27 20//20 
f 26//26 8//8 27//27 
f 23//23 24//24 33//33 
f 97//97 28//28 45//45 
f 25//25 21//21 30//30 
f 93//93 34//34 32//32 
f 42//42 26//26 27//27 
f 37//37 29//29 26//26 
f 45//45 28//28 39//39 
f 36//36 22//22 31//31 
f 25//25 31//31 22//22 
f 45//45 44//44 97//97 
f 28//28 37//37 39//39 
f 40//40 25//25 30//30 
f 31//31 25//25 40//40 
f 21//21 32//32 30//30 
f 30//30 32//32 35//35 
f 52//52 32//32 34//34 
f 23//23 33//33 34//34 
f 44//44 33//33 24//24 
f 35//35 32//32 52//52 
f 36//36 42//42 27//27 
f 37//37 26//26 38//38 
f 26//26 42//42 38//38 
f 40//40 30//30 35//35 
f 41//41 31//31 40//40 
f 36//36 31//31 41//41 
f 41//41 40//40 46//46 
f 43//43 36//36 41//41 
f 43//43 42//42 36//36 
f 58//58 42//42 47//47 
f 43//43 47//47 42//42 
f 34//34 33//33 48//48 
f 33//33 44//44 48//48 
f 44//44 45//45 49//49 
f 45//45 39//39 49//49 
f 46//46 40//40 35//35 
f 50//50 35//35 52//52 
f 46//46 35//35 50//50 
f 38//38 42//42 59//59 
f 38//38 59//59 37//37 
f 59//59 42//42 58//58 
f 43//43 41//41 55//55 
f 47//47 43//43 55//55 
f 37//37 53//53 39//39 
f 49//49 39//39 53//53 
f 51//51 46//46 56//56 
f 51//51 41//41 46//46 
f 51//51 55//55 41//41 
f 44//44 49//49 48//48 
f 49//49 53//53 73//73 
f 49//49 73//73 60//60 
f 50//50 56//56 46//46 
f 67//67 49//49 60//60 
f 49//49 67//67 48//48 
f 73//73 53//53 75//75 
f 59//59 54//54 37//37 
f 54//54 53//53 37//37 
f 54//54 75//75 53//53 
f 51//51 57//57 55//55 
f 55//55 57//57 77//77 
f 56//56 50//50 71//71 
f 51//51 56//56 57//57 
f 76//76 57//57 56//56 
f 61//61 52//52 34//34 
f 52//52 61//61 62//62 
f 59//59 58//58 83//83 
f 55//55 80//80 47//47 
f 55//55 77//77 80//80 
f 47//47 80//80 79//79 
f 47//47 79//79 58//58 
f 59//59 83//83 84//84 
f 76//76 77//77 57//57 
f 65//65 76//76 56//56 
f 65//65 56//56 71//71 
f 48//48 67//67 66//66 
f 67//67 60//60 68//68 
f 73//73 75//75 60//60 
f 50//50 52//52 63//63 
f 71//71 50//50 69//69 
f 63//63 69//69 50//50 
f 34//34 66//66 61//61 
f 52//52 62//62 63//63 
f 34//34 48//48 66//66 
f 64//64 61//61 66//66 
f 62//62 61//61 63//63 
f 61//61 64//64 63//63 
f 105//105 99//99 100//100 
f 100//100 70//70 105//105 
f 104//104 101//101 106//106 
f 65//65 78//78 76//76 
f 108//108 101//101 104//104 
f 102//102 103//103 100//100 
f 67//67 68//68 66//66 
f 69//69 63//63 71//71 
f 59//59 72//72 54//54 
f 72//72 59//59 84//84 
f 74//74 98//98 107//107 
f 103//103 74//74 100//100 
f 74//74 103//103 98//98 
f 82//82 74//74 107//107 
f 82//82 100//100 74//74 
f 54//54 72//72 75//75 
f 72//72 112//112 75//75 
f 76//76 78//78 77//77 
f 100//100 109//109 70//70 
f 81//81 109//109 100//100 
f 81//81 111//111 110//110 
f 80//80 77//77 78//78 
f 85//85 83//83 58//58 
f 86//86 100//100 82//82 
f 79//79 80//80 87//87 
f 81//81 86//86 115//115 
f 86//86 81//81 100//100 
f 115//115 111//111 81//81 
f 72//72 84//84 112//112 
f 83//83 85//85 84//84 
f 113//113 114//114 86//86 
f 86//86 82//82 113//113 
f 79//79 85//85 58//58 
f 87//87 85//85 79//79 
f 115//115 86//86 114//114 
