#
# The license for this database is specified in the Creative Commons Attribution-Share Alike 2.1 Japan. If you use data from this database, please be sure attribute this database as follows: "BodyParts3D, (c)  The Database Center for Life Science licensed under CC Attribution-Share Alike 2.1 Japan".
# http://dbarchive.biosciencedbc.jp/en/bodyparts3d/lic.html
#
#
# Compatibility version : 4.0
# File ID : FJ2525
# Representation ID : BP9592
# Build-up logic : FMA 3.0 part_of
# Concept ID : FMA68211
# English name : Right apical segmental bronchial tree
# Bounds(mm): (-33.015200,-71.842100,1334.980000)-(-29.659600,-67.131200,1343.750000)
# Volume(cm3): 0.026400
#
v -32.7143 -69.835 1335.74
v -32.6033 -69.6691 1335.52
v -32.523 -69.6599 1335.78
v -33.0152 -70.8105 1335.64
v -32.9967 -70.4063 1335.72
v -32.9875 -70.311 1335.6
v -32.9207 -70.2514 1335.81
v -32.8266 -70.9697 1335.55
v -32.7278 -71.4064 1335.62
v -32.3204 -71.6693 1335.74
v -32.0926 -69.9733 1337.96
v -31.6973 -69.9016 1339.66
v -31.804 -70.3216 1339.48
v -31.5963 -69.7846 1340.23
v -31.4466 -69.8035 1340.97
v -31.1697 -67.5506 1343.1
v -31.1953 -67.8456 1343.21
v -31.1567 -67.7369 1343.42
v -31.0761 -68.1354 1343.36
v -31.6419 -69.4004 1335.22
v -32.1003 -71.8071 1335.33
v -31.803 -71.8421 1335.29
v -32.115 -69.3873 1335.43
v -31.6888 -69.3735 1335.41
v -32.0258 -69.6498 1335.33
v -32.0597 -71.7814 1335.66
v -31.9608 -71.8218 1335.49
v -31.8216 -71.4895 1337.58
v -31.4482 -71.7222 1336.99
v -31.6661 -69.5406 1337.74
v -31.3773 -69.4161 1339.39
v -31.5951 -70.7648 1339.56
v -31.1091 -71.1437 1339.61
v -30.9059 -68.8118 1340.48
v -30.962 -70.3109 1341.21
v -30.6144 -70.2163 1341.51
v -31.0452 -69.486 1342.1
v -30.7188 -69.6154 1342.23
v -30.8649 -67.3014 1342.94
v -30.8463 -67.3126 1342.69
v -30.6596 -67.2039 1342.72
v -30.443 -67.1312 1342.86
v -30.795 -68.1161 1343.75
v -30.4992 -68.4462 1343.53
v -30.9964 -69.9231 1335.05
v -31.5205 -71.7029 1335.17
v -31.2007 -71.6593 1335.33
v -31.0386 -71.4992 1335.03
v -30.8503 -70.9972 1334.98
v -31.1113 -69.5922 1335.18
v -30.7242 -69.9905 1335.39
v -30.9628 -71.487 1335.37
v -31.3149 -69.4359 1336.72
v -30.6983 -71.5191 1337.13
v -30.8411 -71.5804 1337.69
v -30.4296 -71.3431 1338.26
v -30.9753 -69.3622 1338.59
v -30.29 -69.6246 1338.41
v -30.9353 -71.4463 1338.73
v -30.5336 -69.1262 1339.67
v -30.2477 -71.0806 1339.42
v -30.1329 -68.8432 1340.48
v -30.6732 -70.8082 1340.56
v -30.4628 -71.0247 1339.98
v -30.2999 -70.5334 1340.92
v -29.8186 -70.0855 1340.98
v -29.9451 -69.4849 1342.11
v -29.7474 -69.2271 1342.06
v -30.2921 -67.2873 1342.58
v -30.031 -67.1867 1342.9
v -29.8886 -67.4869 1342.68
v -30.272 -69.3184 1342.57
v -29.9436 -67.4114 1343.1
v -29.8886 -67.8684 1343.49
v -29.8301 -68.1239 1343.41
v -29.7603 -67.4244 1343.07
v -29.7054 -67.7574 1342.92
v -29.7434 -67.7457 1343.39
v -29.7171 -67.9124 1343.27
v -30.1141 -68.2679 1343.59
v -30.6175 -70.6978 1335.24
v -30.1188 -70.6784 1337.4
v -30.3621 -71.1021 1336.88
v -29.8967 -70.1797 1338.71
v -29.9302 -70.7148 1338.86
v -29.9895 -69.5537 1339.4
v -29.9129 -70.564 1340.16
v -29.7235 -70.1663 1340.11
v -29.7596 -69.1316 1340.72
v -29.6596 -69.5457 1340.9
v -32.6033 -69.6691 1335.52
v -33.0152 -70.8105 1335.64
v -32.9875 -70.311 1335.6
v -32.7278 -71.4064 1335.62
v -31.1697 -67.5506 1343.1
v -31.1697 -67.5506 1343.1
v -31.1567 -67.7369 1343.42
v -31.1567 -67.7369 1343.42
v -31.6419 -69.4004 1335.22
v -31.6419 -69.4004 1335.22
v -32.1003 -71.8071 1335.33
v -31.803 -71.8421 1335.29
v -32.115 -69.3873 1335.43
v -30.9059 -68.8118 1340.48
v -30.9059 -68.8118 1340.48
v -30.8649 -67.3014 1342.94
v -30.8649 -67.3014 1342.94
v -30.8649 -67.3014 1342.94
v -30.8649 -67.3014 1342.94
v -30.8463 -67.3126 1342.69
v -30.443 -67.1312 1342.86
v -30.443 -67.1312 1342.86
v -30.795 -68.1161 1343.75
v -30.795 -68.1161 1343.75
v -30.9964 -69.9231 1335.05
v -30.9964 -69.9231 1335.05
v -31.5205 -71.7029 1335.17
v -31.0386 -71.4992 1335.03
v -30.8503 -70.9972 1334.98
v -30.8503 -70.9972 1334.98
v -31.1113 -69.5922 1335.18
v -31.1113 -69.5922 1335.18
v -30.031 -67.1867 1342.9
v -29.8886 -67.8684 1343.49
v -29.7603 -67.4244 1343.07
v -29.7434 -67.7457 1343.39
v -29.7434 -67.7457 1343.39
vn -0.802902 0.574447 0.159243
vn -0.695053 0.713678 0.0869764
vn -0.593787 0.78296 0.18545
vn -0.527091 -0.151865 -0.836129
vn -0.963117 0.122279 0.239697
vn -0.935271 0.347678 0.0662493
vn -0.893372 0.383963 0.233366
vn -0.43445 -0.109131 -0.89406
vn -0.558635 -0.252936 -0.789905
vn -0.460977 -0.877489 0.132335
vn -0.821023 0.524305 0.22589
vn -0.911305 0.38787 0.138134
vn -0.967653 0.0286192 0.250658
vn -0.936839 0.34729 0.0415104
vn -0.940221 -0.19734 0.277562
vn -0.992115 0.0537395 0.113226
vn -0.980531 -0.0589485 0.187306
vn -0.932906 -0.119675 0.339653
vn -0.843853 -0.325831 0.426318
vn 0.151128 0.983141 -0.102927
vn -0.312215 -0.135999 -0.940226
vn 0.130535 -0.990193 -0.0497935
vn -0.351659 0.226795 -0.90824
vn 0.153878 0.98681 -0.0502813
vn -0.297457 0.0705381 -0.952126
vn -0.283001 -0.948583 0.141779
vn -0.136774 -0.987481 0.0785765
vn -0.450998 -0.856339 0.251562
vn -0.0815812 -0.988145 0.130055
vn -0.45093 0.886261 0.105849
vn -0.546173 0.837044 -0.032435
vn -0.796897 -0.482899 0.362994
vn -0.325684 -0.870639 0.36867
vn -0.757758 0.608761 -0.234974
vn -0.460555 -0.728328 0.507372
vn -0.0200843 -0.813297 0.581503
vn -0.677357 -0.543389 0.495898
vn -0.266438 -0.724385 0.635828
vn -0.399053 0.785319 0.473319
vn -0.447816 0.841635 -0.301846
vn -0.265525 0.904774 -0.332988
vn 0.0900702 0.89253 -0.441903
vn 0.052942 0.704838 0.70739
vn 0.00726283 -0.669701 0.742595
vn -0.260453 0.00649502 -0.965465
vn -0.244368 -0.143675 -0.958979
vn 0.406934 -0.900232 -0.154879
vn 0.702811 -0.66183 -0.260841
vn -0.269467 0.0100541 -0.962957
vn 0.316403 0.947077 -0.0541708
vn 0.840508 0.417625 -0.34516
vn 0.755934 -0.636136 -0.154583
vn 0.0547771 0.998389 -0.0147677
vn 0.589914 -0.805175 -0.0607871
vn 0.286247 -0.956783 0.0512691
vn 0.601017 -0.798366 0.0372877
vn 0.039731 0.990536 -0.131375
vn 0.582805 0.786764 -0.203324
vn 0.0726548 -0.974119 0.214043
vn 0.134875 0.935553 -0.326418
vn 0.572721 -0.805535 0.152002
vn 0.428584 0.769466 -0.473537
vn -0.0512846 -0.883207 0.466171
vn 0.277244 -0.904055 0.325301
vn 0.404728 -0.791695 0.457617
vn 0.828064 -0.492829 0.267265
vn 0.612781 -0.618311 0.492129
vn 0.898252 -0.342353 0.27557
vn 0.111877 0.843064 -0.526048
vn 0.487646 0.747913 -0.450364
vn 0.721827 0.569452 -0.393306
vn 0.235122 -0.742647 0.627052
vn 0.0493683 0.661692 0.748149
vn -0.0119677 0.685472 0.728001
vn 0.76567 -0.31053 0.563312
vn 0.907439 0.3702 -0.198763
vn 0.99167 0.126625 -0.0235862
vn 0.0288563 0.668781 0.742899
vn 0.946443 -0.117439 0.300756
vn 0.406982 -0.437416 0.801893
vn 0.923418 -0.100041 -0.370529
vn 0.972448 -0.150957 -0.177645
vn 0.85188 -0.503881 -0.142844
vn 0.959077 0.201756 -0.198661
vn 0.909061 -0.413938 -0.0475726
vn 0.685454 0.649388 -0.329315
vn 0.743599 -0.637174 0.202657
vn 0.972271 -0.233558 0.0118106
vn 0.877992 0.395311 -0.269924
vn 0.999315 -0.037005 7.28755e-06
vn -0.313442 0.157967 -0.936376
vn -0.96712 -0.136238 0.214751
vn -0.35145 0.0102026 -0.936151
vn -0.692949 -0.68718 0.218188
vn -0.399053 0.785319 0.473319
vn -0.704502 0.609149 -0.364164
vn -0.399053 0.785319 0.473319
vn 0.0970606 0.704407 0.703129
vn -0.331961 0.0971926 -0.938273
vn 0.0698817 0.384853 -0.920329
vn -0.315255 -0.947378 0.0555788
vn -0.169347 -0.423479 -0.889936
vn -0.22169 0.973763 0.0513768
vn -0.102896 0.859405 -0.500836
vn -0.98462 0.155765 -0.0791228
vn -0.694471 0.618499 -0.367654
vn -0.429559 0.903038 -0.000787703
vn -0.0120678 0.65868 0.752326
vn -0.98462 0.155765 -0.0791228
vn -0.98462 0.155765 -0.0791228
vn -0.360687 0.929839 0.0728316
vn -0.0266088 0.629525 0.776524
vn -0.461438 -0.549443 0.696554
vn 0.25031 0.0833029 0.964575
vn 0.0698817 0.384853 -0.920329
vn 0.734183 0.281788 -0.617715
vn 0.289732 -0.896499 -0.335179
vn -0.283117 0.0105837 -0.959027
vn 0.65015 0.137431 -0.747274
vn 0.860823 -0.358871 -0.360826
vn 0.0698817 0.384853 -0.920329
vn 0.757515 0.551941 -0.348614
vn 0.0997555 0.690221 0.71669
vn 0.612272 -0.104454 0.783717
vn 0.179201 0.699015 0.69229
vn 0.718619 -0.338993 0.607182
vn 0.990482 0.11354 0.0778058
g grp1
usemtl mtl1
f 9//9 8//8 21//21 
f 101//101 10//10 94//94 
f 1//1 2//2 6//6 
f 1//1 3//3 2//2 
f 1//1 11//11 3//3 
f 23//23 25//25 91//91 
f 91//91 25//25 93//93 
f 2//2 3//3 103//103 
f 93//93 8//8 4//4 
f 7//7 6//6 5//5 
f 6//6 92//92 5//5 
f 6//6 7//7 1//1 
f 1//1 7//7 11//11 
f 5//5 11//11 7//7 
f 93//93 25//25 8//8 
f 9//9 4//4 8//8 
f 28//28 94//94 10//10 
f 92//92 94//94 32//32 
f 28//28 32//32 94//94 
f 32//32 5//5 92//92 
f 5//5 32//32 13//13 
f 11//11 5//5 13//13 
f 12//12 11//11 13//13 
f 12//12 13//13 14//14 
f 13//13 32//32 15//15 
f 13//13 15//15 14//14 
f 14//14 15//15 16//16 
f 16//16 15//15 17//17 
f 16//16 17//17 18//18 
f 95//95 97//97 39//39 
f 15//15 19//19 17//17 
f 18//18 17//17 19//19 
f 20//20 24//24 50//50 
f 45//45 49//49 25//25 
f 99//99 45//45 25//25 
f 25//25 21//21 8//8 
f 49//49 46//46 21//21 
f 21//21 25//25 49//49 
f 22//22 27//27 101//101 
f 21//21 46//46 102//102 
f 22//22 117//117 47//47 
f 53//53 24//24 103//103 
f 103//103 24//24 20//20 
f 99//99 25//25 23//23 
f 26//26 28//28 10//10 
f 10//10 101//101 26//26 
f 29//29 26//26 27//27 
f 101//101 27//27 26//26 
f 22//22 29//29 27//27 
f 22//22 55//55 29//29 
f 47//47 55//55 22//22 
f 3//3 11//11 30//30 
f 53//53 103//103 30//30 
f 30//30 103//103 3//3 
f 26//26 29//29 28//28 
f 30//30 11//11 31//31 
f 53//53 30//30 31//31 
f 53//53 31//31 57//57 
f 29//29 59//59 28//28 
f 55//55 59//59 29//29 
f 33//33 32//32 28//28 
f 59//59 33//33 28//28 
f 11//11 12//12 31//31 
f 12//12 14//14 31//31 
f 31//31 14//14 34//34 
f 96//96 34//34 14//14 
f 15//15 32//32 37//37 
f 35//35 32//32 33//33 
f 35//35 37//37 32//32 
f 35//35 38//38 37//37 
f 35//35 63//63 36//36 
f 33//33 63//63 35//35 
f 65//65 36//36 63//63 
f 106//106 34//34 96//96 
f 41//41 69//69 104//104 
f 36//36 72//72 38//38 
f 36//36 65//65 72//72 
f 36//36 38//38 35//35 
f 104//104 40//40 41//41 
f 41//41 40//40 107//107 
f 69//69 41//41 42//42 
f 111//111 41//41 107//107 
f 73//73 112//112 108//108 
f 110//110 105//105 109//109 
f 38//38 72//72 44//44 
f 108//108 98//98 43//43 
f 113//113 18//18 19//19 
f 15//15 37//37 19//19 
f 113//113 19//19 37//37 
f 37//37 38//38 113//113 
f 74//74 108//108 43//43 
f 114//114 80//80 124//124 
f 38//38 44//44 113//113 
f 44//44 80//80 113//113 
f 44//44 72//72 80//80 
f 121//121 115//115 100//100 
f 122//122 51//51 116//116 
f 51//51 81//81 116//116 
f 81//81 119//119 116//116 
f 117//117 48//48 47//47 
f 49//49 118//118 46//46 
f 47//47 48//48 52//52 
f 81//81 48//48 120//120 
f 81//81 52//52 48//48 
f 24//24 53//53 50//50 
f 51//51 122//122 58//58 
f 51//51 58//58 84//84 
f 54//54 55//55 47//47 
f 54//54 47//47 52//52 
f 81//81 83//83 52//52 
f 83//83 54//54 52//52 
f 56//56 55//55 54//54 
f 54//54 83//83 56//56 
f 53//53 57//57 58//58 
f 58//58 50//50 53//53 
f 56//56 59//59 55//55 
f 57//57 60//60 58//58 
f 60//60 57//57 31//31 
f 86//86 58//58 60//60 
f 64//64 33//33 59//59 
f 61//61 64//64 59//59 
f 56//56 61//61 59//59 
f 61//61 87//87 64//64 
f 85//85 61//61 56//56 
f 85//85 87//87 61//61 
f 60//60 31//31 104//104 
f 62//62 60//60 104//104 
f 62//62 86//86 60//60 
f 89//89 86//86 62//62 
f 64//64 63//63 33//33 
f 65//65 63//63 64//64 
f 87//87 65//65 64//64 
f 87//87 66//66 65//65 
f 62//62 104//104 69//69 
f 62//62 71//71 89//89 
f 72//72 65//65 67//67 
f 67//67 65//65 66//66 
f 68//68 67//67 66//66 
f 70//70 69//69 42//42 
f 123//123 112//112 73//73 
f 69//69 70//70 62//62 
f 70//70 71//71 62//62 
f 76//76 71//71 70//70 
f 73//73 125//125 123//123 
f 71//71 76//76 89//89 
f 89//89 76//76 77//77 
f 75//75 80//80 67//67 
f 68//68 90//90 79//79 
f 90//90 77//77 79//79 
f 72//72 67//67 80//80 
f 67//67 68//68 75//75 
f 78//78 125//125 73//73 
f 75//75 124//124 80//80 
f 78//78 73//73 108//108 
f 108//108 74//74 78//78 
f 79//79 126//126 124//124 
f 75//75 79//79 124//124 
f 127//127 77//77 76//76 
f 127//127 79//79 77//77 
f 68//68 79//79 75//75 
f 81//81 51//51 84//84 
f 84//84 82//82 81//81 
f 81//81 82//82 83//83 
f 82//82 85//85 83//83 
f 82//82 84//84 85//85 
f 58//58 86//86 84//84 
f 85//85 56//56 83//83 
f 86//86 89//89 84//84 
f 85//85 88//88 87//87 
f 89//89 90//90 84//84 
f 88//88 66//66 87//87 
f 85//85 84//84 88//88 
f 84//84 90//90 88//88 
f 90//90 66//66 88//88 
f 89//89 77//77 90//90 
f 66//66 90//90 68//68 
