# Blender v2.77 (sub 0) OBJ File: 'BLANKOblend.blend'
# www.blender.org
mtllib segment of tracheobronchial tree.mtl
o grp1
v -63.129395 -151.773636 1204.914062
v -63.333199 -152.122192 1205.339966
v -63.336700 -152.166199 1205.599976
v -63.394199 -152.263199 1205.619995
v -63.394199 -152.263199 1205.619995
v -63.333199 -152.122192 1205.339966
v -61.039650 -158.361191 1202.397461
v -63.413601 -152.277191 1205.709961
v -63.400902 -152.417206 1205.900024
v -63.334301 -152.334198 1205.930054
v -63.413601 -152.277191 1205.709961
v -62.184200 -151.110199 1204.359985
v -62.442490 -151.300064 1204.386475
v -61.988647 -151.064285 1204.299316
v -62.690613 -151.381180 1204.527344
v -62.985699 -151.670197 1204.750000
v -62.897400 -151.601196 1204.819946
v -62.686798 -151.381195 1204.530029
v -62.985699 -151.670197 1204.750000
v -62.448700 -151.272202 1204.500000
v -62.439800 -151.301193 1204.390015
v -62.686798 -151.381195 1204.530029
v -62.686798 -151.381195 1204.530029
v -63.151199 -152.123199 1205.670044
v -62.448700 -151.272202 1204.500000
v -62.888672 -151.640640 1204.802612
v -62.184200 -151.110199 1204.359985
v -62.184200 -151.110199 1204.359985
v -63.138672 -151.786331 1204.925781
v -63.044201 -151.681198 1204.849976
v -63.044201 -151.681198 1204.849976
v -63.233200 -151.888199 1205.079956
v -63.413601 -152.277191 1205.709961
v -63.397499 -152.454193 1206.099976
v -63.397499 -152.454193 1206.099976
v -63.330299 -152.601196 1206.270020
v -62.780273 -152.781204 1207.261230
v -63.399963 -152.448196 1206.103271
v -63.202400 -152.696198 1206.650024
v -60.833099 -159.197952 1203.099976
v -63.202400 -152.696198 1206.650024
v -63.330299 -152.601196 1206.270020
v -62.777344 -152.808792 1207.253906
v -60.973400 -157.957703 1204.419922
v -61.513401 -150.919205 1204.310059
v -61.730591 -151.004837 1204.266357
v -61.592800 -150.936203 1204.290039
v -61.740234 -150.986526 1204.259277
v -61.868774 -150.991394 1204.330078
v -61.513401 -150.919205 1204.310059
v -61.183350 -150.811234 1204.367188
v -60.057751 -154.500824 1202.588745
v -61.397900 -150.876205 1204.319946
v -61.187000 -150.818192 1204.380005
v -61.084499 -150.808197 1204.500000
v -61.990723 -151.047073 1204.303101
v -61.869301 -150.991196 1204.329956
v -60.036449 -155.853958 1201.962524
v -61.405399 -152.645203 1207.880005
v -62.242615 -152.819412 1207.602539
v -62.350464 -152.835892 1207.586426
v -62.169434 -152.865921 1207.693604
v -62.217896 -152.823563 1207.574219
v -62.041500 -152.812195 1207.719971
v -61.740234 -152.778610 1207.799805
v -60.822601 -155.098694 1202.435059
v -61.170250 -156.519211 1202.359985
v -61.048500 -150.949203 1204.339966
v -61.048500 -150.949203 1204.339966
v -61.187000 -150.818192 1204.380005
v -61.084499 -150.808197 1204.500000
v -59.986328 -150.827103 1205.310547
v -60.789062 -150.728714 1204.550781
v -61.084499 -150.808197 1204.500000
v -60.779999 -150.734192 1204.560059
v -60.315399 -150.775192 1204.859985
v -60.302734 -150.766617 1204.852051
v -63.397499 -152.454193 1206.099976
v -63.400902 -152.417206 1205.900024
v -60.312500 -157.812698 1205.062500
v -61.738602 -152.786194 1207.810059
v -61.405399 -152.645203 1207.880005
v -62.041500 -152.812195 1207.719971
v -61.404297 -152.648972 1207.881592
v -59.531250 -158.312698 1200.875000
v -60.404274 -157.178940 1201.637573
v -59.280651 -155.127457 1202.462402
v -59.453125 -161.093948 1200.234375
v -60.765701 -158.573700 1201.867432
v -59.066406 -163.953323 1200.195312
v -60.083984 -150.761917 1205.113281
v -60.143600 -150.775192 1205.089966
v -59.710938 -151.004105 1205.828125
v -59.694336 -151.038284 1205.844238
v -59.688702 -151.201202 1206.239990
v -60.808594 -152.394485 1207.812012
v -60.326401 -152.170197 1207.630005
v -60.353516 -152.193558 1207.658203
v -61.000000 -152.494339 1207.856445
v -58.907951 -158.297958 1204.802490
v -58.094852 -156.848709 1202.197510
v -59.606499 -162.314194 1201.969971
v -57.884926 -156.868942 1202.600098
v -56.213867 -161.736526 1200.850586
v -59.452148 -151.675980 1206.064453
v -59.875301 -160.569199 1203.319946
v -59.639599 -151.107193 1206.060059
v -59.841099 -151.689194 1207.050049
v -59.639599 -151.107193 1206.060059
v -59.688702 -151.201202 1206.239990
v -59.458500 -151.687195 1206.060059
v -59.688702 -151.201202 1206.239990
v -59.613602 -151.255203 1206.349976
v -59.613602 -151.255203 1206.349976
v -59.545410 -151.913834 1206.646484
v -59.613602 -151.255203 1206.349976
v -59.841099 -151.689194 1207.050049
v -59.892441 -151.852371 1207.230469
v -59.884796 -151.844437 1207.261719
v -59.841099 -151.689194 1207.050049
v -60.026402 -151.836197 1207.239990
v -60.033691 -151.940384 1207.421875
v -58.321648 -159.079453 1200.570068
v -59.383026 -159.443192 1200.525024
v -57.921875 -161.312698 1199.609375
v -58.750000 -161.406448 1199.734375
v -58.914062 -163.125198 1199.671875
v -58.535900 -157.944199 1201.094971
v -56.380299 -161.327194 1201.650024
v -58.500000 -160.000198 1204.000000
v -58.218750 -163.375198 1199.140625
v -57.909798 -158.309464 1201.227539
v -57.988281 -166.906448 1199.851562
v -57.893826 -166.556946 1200.562500
v -58.664600 -163.487198 1202.170044
v -58.918400 -161.920197 1203.030029
v -57.590725 -158.213699 1203.679932
v -57.649799 -159.183197 1203.739990
v -57.306198 -160.633194 1200.145020
v -57.341499 -166.002197 1201.380005
v -58.264000 -161.803192 1203.229980
v -56.956299 -161.991699 1199.590088
v -57.375000 -163.437698 1198.875000
v -56.937500 -167.687698 1198.031250
v -56.429688 -161.250198 1200.773438
v -57.770199 -160.568192 1203.550049
v -56.766052 -163.654205 1198.907471
v -56.712273 -161.578445 1200.025024
v -55.798027 -165.561188 1198.537476
v -56.796875 -166.625198 1198.062500
v -56.978863 -168.832581 1198.250000
v -56.240963 -162.513321 1199.956177
v -55.457977 -173.644730 1197.527588
v -56.125000 -164.062698 1201.718750
v -56.773438 -165.843948 1201.515625
v -57.329453 -166.834702 1200.945068
v -56.187500 -167.187698 1197.843750
v -56.007401 -166.454697 1198.089966
v -55.919449 -164.194443 1199.170044
v -55.468700 -173.677200 1197.750000
v -56.858002 -169.333191 1199.699951
v -54.937500 -166.797073 1200.125000
v -56.682549 -169.306686 1199.945068
v -56.500000 -164.750198 1201.781250
v -54.855515 -167.020950 1198.747559
v -55.231201 -173.527817 1197.060303
v -53.051155 -173.035355 1197.859131
v -54.912720 -173.802078 1198.724487
v -55.406250 -167.562698 1200.656250
v -55.375000 -170.000198 1200.125000
v -56.085251 -169.373199 1200.265015
v -54.967377 -169.032700 1197.555054
v -55.043201 -166.941193 1198.469971
v -53.598877 -172.848343 1196.834961
v -54.129456 -172.962723 1196.594971
v -55.025391 -172.908890 1196.794922
v -54.540161 -173.129990 1196.579224
v -53.975098 -173.007034 1196.592773
v -53.337273 -172.847687 1197.095581
v -55.388500 -173.451202 1197.270020
v -55.407902 -173.637192 1197.449951
v -55.300781 -173.597855 1198.539062
v -53.445312 -172.976761 1198.722656
v -54.549702 -173.136200 1196.599976
v -54.553600 -173.179199 1196.630005
v -54.694500 -173.218201 1196.670044
v -54.210327 -173.053268 1196.578247
v -54.284401 -173.117203 1196.670044
v -54.283447 -173.115433 1196.671387
v -54.694500 -173.218201 1196.670044
v -54.553600 -173.179199 1196.630005
v -54.327801 -173.082199 1196.579956
v -55.229198 -173.527191 1197.069946
v -53.415710 -172.916000 1196.987305
v -55.292801 -173.619202 1197.349976
v -55.407902 -173.637192 1197.449951
v -55.443237 -173.665176 1197.485840
v -55.292801 -173.619202 1197.349976
v -55.292599 -173.764206 1198.000000
v -55.468700 -173.677200 1197.750000
v -55.292599 -173.764206 1198.000000
v -53.077133 -173.053589 1197.950439
v -54.930176 -173.762405 1198.708008
v -54.734131 -173.739090 1198.874268
v -54.970501 -173.810196 1198.569946
v -54.918201 -173.805191 1198.729980
v -54.664799 -173.764206 1198.760010
v -53.619141 -173.458694 1198.852539
v -54.627426 -173.781204 1198.904785
v -53.788452 -172.897903 1196.719482
v -54.219299 -173.044205 1196.609985
v -54.219299 -173.044205 1196.609985
v -54.136101 -172.954193 1196.619995
v -54.284401 -173.117203 1196.670044
v -54.009602 -172.987198 1196.650024
v -54.136101 -172.954193 1196.619995
v -53.777344 -172.908401 1196.710938
v -53.832100 -173.017197 1196.829956
v -53.785156 -172.898636 1196.710938
v -53.623100 -172.951202 1196.829956
v -53.524902 -172.964554 1196.939453
v -53.523300 -172.946198 1196.949951
v -53.377701 -172.963196 1197.199951
v -53.222656 -172.902298 1197.256836
v -54.167480 -173.648392 1198.989746
v -54.626202 -173.774200 1198.890015
v -54.167702 -173.647202 1198.989990
v -53.858215 -173.509720 1198.992432
v -53.814453 -173.561722 1198.998047
v -54.732899 -173.737198 1198.869995
v -54.626202 -173.774200 1198.890015
v -54.732899 -173.737198 1198.869995
v -54.664799 -173.764206 1198.760010
v -53.601700 -172.855194 1196.849976
v -53.418499 -172.917206 1196.989990
v -53.523300 -172.946198 1196.949951
v -53.418499 -172.917206 1196.989990
v -53.418499 -172.917206 1196.989990
v -53.342201 -172.850204 1197.099976
v -53.244598 -172.893204 1197.229980
v -53.168999 -172.942200 1197.430054
v -53.099976 -173.105301 1198.271484
v -53.108887 -173.103226 1198.232422
v -53.242802 -173.227203 1198.500000
vn -0.4411 0.8488 0.2914
vn -0.7968 0.5973 0.0906
vn -0.6858 0.6956 0.2142
vn -0.8617 0.5072 -0.0167
vn -0.9373 -0.2187 -0.2713
vn -0.9000 -0.1539 -0.4077
vn -0.9263 -0.1847 -0.3283
vn -0.8654 0.4888 -0.1104
vn -0.8014 0.5365 0.2643
vn -0.5859 0.7330 0.3455
vn -0.5445 0.7138 0.4405
vn -0.4363 0.2536 -0.8633
vn -0.3524 0.3529 -0.8668
vn -0.2745 0.3852 -0.8811
vn -0.5862 0.8080 -0.0599
vn -0.6591 0.7472 0.0861
vn -0.5862 0.8080 -0.0598
vn -0.5161 0.8171 -0.2568
vn -0.5161 0.8171 -0.2569
vn -0.4288 0.8645 -0.2620
vn -0.3376 0.8453 0.4141
vn -0.3279 0.8454 0.4217
vn -0.3085 0.8473 0.4324
vn -0.5824 0.7676 0.2676
vn -0.1144 0.8372 0.5347
vn -0.5983 0.7616 -0.2491
vn -0.8087 -0.0029 -0.5882
vn -0.8072 0.3881 -0.4448
vn -0.7441 0.1161 -0.6579
vn -0.4955 0.8443 -0.2039
vn -0.5402 -0.5142 -0.6662
vn -0.9450 -0.2634 -0.1940
vn -0.7985 0.5893 0.1227
vn -0.8418 0.1968 0.5026
vn -0.7870 0.4023 0.4677
vn -0.6442 0.6699 0.3691
vn -0.3059 0.8448 0.4389
vn -0.3272 0.8973 0.2962
vn -0.8860 -0.4266 0.1816
vn -0.8061 -0.4835 0.3413
vn -0.9059 -0.4043 0.1261
vn -0.6636 -0.5399 0.5178
vn -0.6581 -0.5164 0.5479
vn 0.0498 0.3519 -0.9347
vn -0.0951 0.4185 -0.9032
vn 0.2682 -0.2650 -0.9262
vn -0.2472 0.9170 -0.3130
vn -0.3274 0.8974 0.2958
vn -0.1486 0.7372 -0.6592
vn 0.0983 0.4481 -0.8886
vn 0.1070 0.4499 -0.8867
vn -0.2575 0.9319 -0.2556
vn -0.2550 0.9664 0.0322
vn -0.2843 0.9002 0.3299
vn -0.2565 0.6861 -0.6808
vn -0.0675 0.3929 -0.9171
vn -0.4109 0.8346 0.3668
vn -0.3100 0.8474 0.4310
vn -0.3525 0.7570 0.5502
vn -0.2232 0.8963 0.3831
vn -0.2508 -0.5288 0.8109
vn -0.2351 0.7576 0.6089
vn -0.3528 0.2956 -0.8878
vn -0.5274 0.1727 -0.8319
vn -0.6043 0.1524 -0.7820
vn -0.7218 0.0609 -0.6894
vn 0.5182 0.7067 -0.4817
vn -0.2943 0.8545 0.4280
vn 0.2056 0.5644 -0.7995
vn 0.3084 0.5743 -0.7584
vn -0.1009 0.7513 -0.6522
vn -0.2015 0.9147 0.3504
vn 0.0036 0.9932 0.1164
vn -0.9350 -0.3546 -0.0019
vn -0.9437 -0.3220 -0.0760
vn -0.3612 0.7611 0.5388
vn -0.3061 -0.5268 0.7930
vn -0.0990 -0.4987 0.8611
vn -0.1966 -0.5071 0.8392
vn -0.2952 0.2399 0.9248
vn -0.2215 0.3134 -0.9234
vn -0.6849 0.0542 -0.7266
vn -0.8516 -0.0871 -0.5169
vn -0.9239 -0.2637 -0.2774
vn -0.8126 0.1761 0.5556
vn -0.2556 0.8603 0.4411
vn -0.2593 0.8780 0.4023
vn 0.3090 -0.3560 0.8819
vn 0.3241 -0.3418 0.8821
vn 0.5729 -0.2408 0.7834
vn 0.1151 -0.4463 0.8875
vn 0.4055 0.4926 -0.7700
vn 0.5859 0.4916 -0.6442
vn 0.7740 0.4609 -0.4342
vn 0.7102 0.4715 -0.5228
vn 0.9089 0.3585 -0.2131
vn 0.8683 0.4045 -0.2870
vn 0.9428 0.3104 -0.1211
vn 0.9551 0.2648 0.1332
vn -0.7966 -0.4616 0.3904
vn -0.6095 -0.5019 0.6137
vn -0.3360 0.8693 0.3626
vn -0.2536 0.8682 0.4264
vn 0.9511 0.3047 0.0514
vn 0.8732 0.2914 0.3906
vn 0.8102 0.4982 -0.3088
vn -0.1113 0.8599 0.4982
vn 0.8965 0.1547 0.4153
vn 0.8988 0.2527 0.3583
vn 0.8352 0.2850 0.4703
vn 0.0213 0.8020 0.5970
vn -0.0337 0.8118 0.5829
vn -0.1809 0.8249 0.5355
vn 0.8368 0.0408 0.5460
vn -0.3206 0.8528 0.4122
vn -0.2104 0.8486 0.4854
vn 0.1630 0.4274 -0.8892
vn -0.5020 0.1757 -0.8469
vn 0.0540 0.3580 -0.9321
vn -0.3725 0.2015 -0.9059
vn -0.7475 -0.0501 -0.6624
vn 0.2768 0.4599 -0.8437
vn 0.1715 -0.3898 0.9048
vn -0.4569 0.1049 -0.8833
vn 0.5885 0.4638 -0.6623
vn -0.8998 -0.4086 0.1531
vn -0.7439 -0.4591 0.4857
vn -0.5212 -0.4792 0.7062
vn -0.3768 -0.4848 0.7893
vn 0.9579 0.2099 0.1957
vn 0.8814 0.0505 0.4696
vn 0.7341 -0.1193 0.6685
vn 0.7288 -0.0809 0.6799
vn 0.4586 0.4494 -0.7666
vn -0.2286 -0.4305 0.8732
vn -0.0617 -0.4278 0.9017
vn -0.0447 0.2826 -0.9582
vn -0.5769 -0.0128 -0.8167
vn 0.4259 0.4070 -0.8081
vn 0.8494 0.4007 -0.3435
vn 0.4407 -0.2416 0.8645
vn 0.2945 0.3503 -0.8891
vn 0.6708 0.4223 -0.6096
vn 0.4926 0.3605 -0.7921
vn -0.3138 0.1590 -0.9361
vn -0.8204 -0.1634 -0.5479
vn 0.7947 0.3930 -0.4626
vn -0.9126 -0.2972 -0.2809
vn 0.6650 -0.1060 0.7393
vn 0.0564 -0.3295 0.9425
vn -0.5163 -0.4557 0.7251
vn -0.0070 0.2112 -0.9774
vn 0.2489 0.3210 -0.9138
vn 0.6825 0.3874 -0.6198
vn -0.7936 -0.4159 0.4440
vn 0.8465 0.0349 0.5313
vn -0.6852 -0.4194 0.5955
vn 0.3681 -0.2403 0.8982
vn 0.8830 0.3329 -0.3311
vn -0.7219 -0.2420 -0.6484
vn 0.9574 0.2878 -0.0241
vn -0.9159 -0.3954 0.0691
vn -0.5286 -0.4001 0.7486
vn 0.5773 -0.0928 0.8113
vn 0.1234 -0.2797 0.9521
vn -0.2075 -0.3849 0.8993
vn 0.3997 0.3092 -0.8629
vn 0.6946 0.3581 -0.6240
vn 0.6139 0.1682 -0.7713
vn 0.0104 0.2398 -0.9708
vn -0.5073 -0.0478 -0.8605
vn -0.2523 0.0698 -0.9651
vn -0.6576 -0.6028 0.4519
vn 0.7383 0.3440 -0.5802
vn -0.7976 -0.3347 -0.5018
vn -0.7459 -0.4226 -0.5148
vn 0.7480 -0.0334 0.6628
vn 0.2436 0.3154 -0.9171
vn 0.1336 -0.7198 -0.6812
vn 0.1053 -0.6054 -0.7890
vn -0.0440 -0.5995 -0.7992
vn 0.2855 -0.7733 -0.5661
vn 0.3107 -0.8859 -0.3444
vn 0.2392 -0.9397 -0.2443
vn 0.2440 -0.9653 -0.0932
vn -0.0543 0.2486 -0.9671
vn 0.2948 -0.8416 -0.4526
vn 0.3055 -0.9168 -0.2573
vn 0.6731 0.3056 -0.6735
vn -0.6223 -0.5869 -0.5180
vn -0.4754 -0.5712 -0.6692
vn 0.0286 -0.9734 -0.2275
vn 0.2332 -0.9497 -0.2088
vn 0.0923 -0.9810 -0.1705
vn -0.3482 -0.9343 -0.0762
vn -0.6156 -0.7639 0.1936
vn 0.3134 -0.9207 -0.2324
vn 0.1918 -0.9717 -0.1381
vn -0.4309 -0.3832 0.8170
vn -0.5388 -0.8116 0.2257
vn -0.5430 -0.8136 0.2080
vn 0.1276 -0.9602 -0.2485
vn 0.6192 -0.0540 0.7834
vn -0.1911 -0.2989 0.9349
vn 0.4206 0.2616 -0.8687
vn 0.4053 -0.7779 -0.4802
vn 0.7366 -0.6761 -0.0168
vn 0.3186 -0.8126 -0.4881
vn 0.0787 -0.4208 -0.9037
vn 0.3503 -0.7640 -0.5418
vn 0.3358 -0.8394 -0.4274
vn 0.6598 -0.1206 -0.7417
vn 0.3354 -0.7380 -0.5856
vn 0.3256 -0.9207 -0.2149
vn 0.7631 -0.1492 -0.6288
vn 0.4431 -0.8419 -0.3079
vn 0.8871 0.3316 -0.3211
vn 0.3094 -0.9223 -0.2315
vn 0.2967 -0.9448 -0.1393
vn 0.2889 -0.1431 0.9466
vn -0.3461 0.7133 0.6094
vn -0.0394 -0.9793 0.1986
vn -0.3323 -0.9429 0.0221
vn 0.4260 -0.4776 -0.7684
vn 0.4984 -0.8204 -0.2802
vn 0.8260 -0.4934 -0.2726
vn 0.6823 -0.5878 -0.4347
vn 0.5086 -0.7102 -0.4868
vn 0.4412 -0.8363 -0.3255
vn 0.9100 0.1499 0.3865
vn 0.6130 -0.7899 -0.0145
vn 0.4070 -0.8977 -0.1685
vn 0.2464 -0.9519 -0.1819
usemtl mtl1
s 1
f 1//1 2//2 3//3
f 3//3 2//2 4//4
f 5//5 6//6 7//7
f 8//8 3//3 4//4
f 9//9 10//10 11//11
f 13//12 12//13 14//14
f 17//15 18//16 19//17
f 20//18 21//19 22//20
f 23//21 24//22 25//23
f 23//21 26//24 24//22
f 27//25 25//23 24//22
f 28//26 21//19 20//18
f 29//27 30//28 16//29
f 31//30 17//15 19//17
f 3//3 26//24 1//1
f 29//27 6//6 32//31
f 5//5 7//7 33//32
f 3//3 24//22 26//24
f 11//11 24//22 3//3
f 11//11 10//10 24//22
f 34//33 10//10 9//9
f 35//34 36//35 37//36
f 10//10 38//37 24//22
f 39//38 37//36 36//35
f 40//39 41//40 42//41
f 41//40 40//39 43//42
f 43//42 40//39 44//43
f 45//44 46//45 47//46
f 48//47 49//48 50//49
f 45//44 51//50 46//45
f 46//45 51//50 52//51
f 50//49 49//48 53//52
f 54//53 53//52 49//48
f 49//48 55//54 54//53
f 14//14 57//55 46//45
f 58//56 14//14 46//45
f 29//27 7//7 6//6
f 27//25 24//22 56//57
f 56//57 24//22 49//48
f 59//58 49//48 24//22
f 24//22 38//37 59//58
f 59//58 38//37 60//59
f 60//59 38//37 37//60
f 43//42 44//43 61//61
f 62//62 60//59 37//60
f 52//51 58//56 46//45
f 13//12 14//14 66//63
f 86//64 15//65 13//12
f 13//12 66//63 86//64
f 15//65 86//64 67//66
f 69//67 70//67 71//67
f 55//54 49//48 72//68
f 68//69 52//51 51//50
f 68//69 73//70 52//51
f 68//69 74//71 73//70
f 15//65 67//66 16//29
f 67//66 29//27 16//29
f 55//54 72//68 75//72
f 76//73 75//72 72//68
f 40//39 78//74 79//75
f 72//68 49//48 59//58
f 78//74 40//39 42//41
f 60//59 64//76 59//58
f 61//61 80//77 63//78
f 65//79 63//78 80//77
f 81//80 82//80 83//80
f 58//56 85//81 66//63
f 66//63 85//81 86//64
f 58//56 66//63 14//14
f 86//64 88//82 67//66
f 67//66 89//83 29//27
f 7//7 29//27 89//83
f 7//7 79//75 33//32
f 40//39 79//75 90//84
f 92//85 76//73 72//68
f 59//58 94//86 72//68
f 94//86 59//58 95//87
f 99//88 100//89 98//90
f 100//89 99//88 84//91
f 67//66 88//82 89//83
f 73//70 87//92 52//51
f 77//93 87//92 73//70
f 91//94 101//95 77//93
f 91//94 93//96 103//97
f 104//98 93//96 105//99
f 40//39 102//100 44//43
f 44//43 102//100 106//101
f 103//97 93//96 104//98
f 107//102 94//86 95//87
f 59//58 108//103 95//87
f 105//99 93//96 109//104
f 105//99 109//104 110//105
f 111//106 112//106 113//106
f 114//107 95//87 108//103
f 115//108 105//99 116//109
f 115//108 116//109 117//110
f 61//61 44//43 80//77
f 119//111 120//112 121//113
f 115//108 117//110 118//114
f 59//58 121//113 108//103
f 59//58 96//115 121//113
f 119//111 96//115 97//116
f 121//113 96//115 119//111
f 123//117 58//56 52//51
f 85//81 124//118 86//64
f 85//81 58//56 125//119
f 126//120 86//64 124//118
f 88//82 86//64 126//120
f 88//82 127//121 89//83
f 52//51 87//92 128//122
f 128//122 123//117 52//51
f 7//7 90//84 79//75
f 91//94 103//97 101//95
f 65//79 80//77 130//123
f 65//79 130//123 84//91
f 85//81 126//120 124//118
f 125//119 126//120 85//81
f 126//120 131//124 88//82
f 58//56 123//117 125//119
f 127//121 90//84 89//83
f 90//84 7//7 89//83
f 87//92 77//93 132//125
f 77//93 101//95 132//125
f 133//126 134//127 102//100
f 102//100 134//127 106//101
f 106//101 134//127 135//128
f 40//39 133//126 102//100
f 80//77 106//101 136//129
f 129//130 105//99 115//108
f 137//131 115//108 118//114
f 137//131 129//130 115//108
f 80//77 44//43 106//101
f 122//132 98//90 100//89
f 118//114 122//132 138//133
f 100//89 84//91 130//123
f 128//122 139//134 123//117
f 128//122 132//125 139//134
f 131//124 127//121 88//82
f 87//92 132//125 128//122
f 90//84 133//126 40//39
f 106//101 135//128 136//129
f 136//129 135//128 140//135
f 80//77 141//136 130//123
f 136//129 141//136 80//77
f 125//119 143//137 126//120
f 126//120 143//137 131//124
f 131//124 144//138 127//121
f 139//134 142//139 123//117
f 123//117 142//139 125//119
f 103//97 145//140 101//95
f 145//140 132//125 101//95
f 145//140 103//97 104//98
f 104//98 105//99 129//130
f 137//131 118//114 138//133
f 136//129 140//135 141//136
f 146//141 122//132 100//89
f 130//123 146//141 100//89
f 125//119 147//142 143//137
f 142//139 147//142 125//119
f 139//134 148//143 142//139
f 147//142 142//139 149//144
f 144//138 131//124 150//145
f 131//124 143//137 150//145
f 144//138 151//146 127//121
f 145//140 148//143 132//125
f 139//134 132//125 148//143
f 152//147 148//143 145//140
f 127//121 151//146 90//84
f 151//146 153//148 90//84
f 133//126 90//84 153//148
f 154//149 138//133 146//141
f 155//150 146//141 130//123
f 140//135 155//150 141//136
f 135//128 156//151 140//135
f 135//128 134//127 156//151
f 122//132 146//141 138//133
f 155//150 130//123 141//136
f 143//137 157//152 150//145
f 143//137 158//153 157//152
f 143//137 147//142 158//153
f 142//139 148//143 159//154
f 159//154 149//144 142//139
f 159//154 148//143 152//147
f 133//126 161//155 134//127
f 154//149 162//156 137//131
f 134//127 163//157 156//151
f 137//131 138//133 154//149
f 164//158 146//141 155//150
f 164//158 154//149 146//141
f 147//142 149//144 158//153
f 165//159 152//147 145//140
f 144//138 166//160 151//146
f 104//98 129//130 167//161
f 165//159 145//140 104//98
f 133//126 153//148 160//162
f 129//130 137//131 162//156
f 134//127 161//155 163//157
f 163//157 168//163 156//151
f 169//164 162//156 154//149
f 155//150 170//165 164//158
f 155//150 140//135 171//166
f 171//166 140//135 156//151
f 149//144 172//167 158//153
f 149//144 173//168 174//169
f 149//144 174//169 172//167
f 158//153 175//170 157//152
f 175//170 158//153 172//167
f 144//138 150//145 176//171
f 157//152 177//172 150//145
f 176//171 166//160 144//138
f 165//159 159//154 152//147
f 149//144 159//154 173//168
f 159//154 165//159 173//168
f 167//161 165//159 104//98
f 129//130 162//156 167//161
f 171//166 156//151 168//163
f 161//155 182//173 163//157
f 154//149 164//158 169//164
f 164//158 170//165 169//164
f 157//152 175//170 177//172
f 174//169 173//168 179//174
f 173//168 165//159 179//174
f 176//171 150//145 177//172
f 166//160 180//175 151//146
f 180//175 153//148 151//146
f 180//175 181//176 153//148
f 133//126 160//162 182//173
f 182//173 161//155 133//126
f 169//164 183//177 162//156
f 170//165 155//150 171//166
f 175//170 172//167 178//178
f 176//171 177//172 166//160
f 184//179 185//180 186//181
f 185//180 184//179 188//182
f 189//183 190//184 191//185
f 175//170 187//186 177//172
f 192//187 188//182 184//179
f 193//188 190//184 189//183
f 179//174 194//189 174//169
f 166//160 195//190 180//175
f 180//175 195//190 196//191
f 197//192 198//193 199//194
f 199//194 200//195 197//192
f 198//193 193//188 199//194
f 182//173 160//162 201//196
f 202//197 199//194 193//188
f 202//197 203//198 199//194
f 168//163 204//199 171//166
f 201//196 205//200 182//173
f 205//200 206//201 182//173
f 163//157 182//173 168//163
f 202//197 207//202 203//198
f 183//177 169//164 208//203
f 171//166 209//204 170//165
f 172//167 210//205 178//178
f 174//169 210//205 172//167
f 211//206 188//182 192//187
f 212//207 213//207 214//207
f 215//208 189//183 216//209
f 215//208 217//210 189//183
f 193//188 189//183 218//211
f 217//210 218//211 189//183
f 220//212 210//205 174//169
f 219//213 221//214 218//211
f 174//169 222//215 220//212
f 223//216 218//211 221//214
f 165//159 224//217 179//174
f 167//161 224//217 165//159
f 193//188 218//211 202//197
f 223//216 202//197 218//211
f 169//164 170//165 208//203
f 171//166 204//199 209//204
f 202//197 225//218 207//202
f 225//218 226//219 207//202
f 170//165 209//204 228//220
f 228//220 208//203 170//165
f 209//204 227//221 228//220
f 207//202 230//222 203//198
f 231//223 232//223 233//223
f 234//224 235//224 236//224
f 221//214 237//225 223//216
f 223//216 238//226 239//227
f 240//228 223//216 239//227
f 240//228 241//229 223//216
f 241//229 202//197 223//216
f 167//161 162//156 242//230
f 162//156 183//177 242//230
f 202//197 243//231 244//232
f 202//197 244//232 229//233
f 242//230 183//177 208//203
f 229//233 225//218 202//197
