#
# The license for this database is specified in the Creative Commons Attribution-Share Alike 2.1 Japan. If you use data from this database, please be sure attribute this database as follows: "BodyParts3D, (c)  The Database Center for Life Science licensed under CC Attribution-Share Alike 2.1 Japan".
# http://dbarchive.biosciencedbc.jp/en/bodyparts3d/lic.html
#
#
# Compatibility version : 4.0
# File ID : FJ1385M
# Representation ID : BP8179
# Build-up logic : FMA 3.0 is_a
# Concept ID : FMA37720
# English name : Second lumbrical of left foot
# Bounds(mm): (88.527400,-184.402000,-67.591000)-(129.189000,-121.780000,-53.426000)
# Volume(cm3): 0.612800
#
v 129.016 -183.785 -63.7646
v 128.989 -184.241 -63.3858
v 129.189 -184.245 -63.1853
v 129.016 -184.385 -63.1214
v 128.965 -184.402 -62.5161
v 128.401 -184.141 -62.9966
v 128.905 -184.209 -62.6037
v 128.851 -184.237 -62.4224
v 128.732 -184.259 -62.4712
v 128.805 -184.215 -62.3801
v 128.678 -184.068 -62.448
v 127.904 -182.715 -64.4276
v 127.981 -182.523 -64.2688
v 126.736 -181.493 -64.8071
v 126.104 -181.04 -65.0317
v 126.109 -180.758 -64.6841
v 125.813 -182.016 -64.7249
v 126.928 -181.673 -64.4105
v 125.096 -179.956 -65.2492
v 125.097 -180.353 -65.3029
v 122.744 -178.115 -65.9772
v 122.739 -177.728 -65.9749
v 121.916 -176.283 -66.1121
v 121.837 -176.652 -66.3167
v 122.688 -177.046 -65.5751
v 119.082 -172.044 -67.1853
v 118.26 -169.709 -66.9211
v 117.059 -168.132 -67.3153
v 126.877 -183.211 -62.8451
v 127.293 -183.171 -62.4146
v 124.67 -181.636 -63.5239
v 125.961 -181.473 -62.9582
v 123.298 -180.419 -63.8343
v 123.026 -179.823 -63.6628
v 124.964 -179.589 -63.7931
v 125.139 -180.218 -63.5722
v 121.28 -176.936 -64.1561
v 119.948 -176.636 -65.5978
v 121.562 -175.475 -64.9705
v 118.254 -172.361 -67.2938
v 116.541 -169.601 -67.591
v 118.259 -169.58 -66.0439
v 116.48 -165.7 -66.4069
v 122.003 -178.973 -64.191
v 120.847 -177.387 -64.4083
v 118.067 -174.207 -65.0442
v 118.24 -171.942 -64.5188
v 117.852 -172.261 -64.5161
v 117.099 -172.244 -64.7225
v 115.49 -169.767 -67.0661
v 115.82 -170.865 -65.0322
v 117.904 -170.651 -64.7014
v 117.016 -170.352 -64.4326
v 114.329 -168.77 -65.8401
v 112.742 -164.05 -66.5728
v 115.51 -165.282 -64.5039
v 110.719 -154.909 -64.6435
v 111.487 -154.33 -63.0488
v 110.494 -153.081 -63.6399
v 109.665 -151.277 -63.1588
v 114.562 -166.475 -63.9878
v 111.823 -161.277 -62.6557
v 111.585 -156.207 -62.5115
v 108.848 -150.294 -63.0207
v 109.156 -151.378 -61.7748
v 107.551 -149.88 -63.2734
v 107.422 -149.354 -62.8902
v 106.974 -149.045 -63.7327
v 108.266 -148.793 -62.2777
v 107.503 -148.44 -62.4557
v 107.757 -148.312 -62.4009
v 107.262 -147.589 -62.2739
v 106.788 -146.749 -61.9719
v 111.966 -164.523 -63.7584
v 109.677 -161.53 -63.3462
v 109.75 -161.465 -62.8467
v 106.687 -147.138 -62.0584
v 106.836 -146.979 -61.515
v 103.907 -143.778 -62.7371
v 104.522 -143.066 -60.894
v 104.714 -143.14 -60.7419
v 104.225 -142.341 -60.6749
v 108.072 -159.355 -62.0776
v 108.452 -159.174 -61.8048
v 103.981 -142.275 -60.2415
v 102.682 -140.197 -60.0853
v 101.711 -139.757 -60.8632
v 102.489 -139.003 -59.4386
v 101.872 -138.022 -59.3687
v 107.072 -154.92 -60.1531
v 104.658 -154.615 -61.0766
v 107.07 -153.537 -59.8754
v 105.331 -152.676 -59.501
v 100.972 -136.233 -58.6688
v 101.031 -137.506 -58.3404
v 98.934 -133.263 -57.8196
v 98.8961 -133.121 -57.4386
v 98.4812 -132.398 -57.4691
v 103.767 -153.171 -60.0911
v 102.178 -146.154 -58.5486
v 98.1775 -132.245 -57.4903
v 97.7967 -131.435 -56.9946
v 97.0164 -141.394 -58.7512
v 95.5769 -139.366 -58.8742
v 96.6699 -139.471 -57.4824
v 94.0755 -127.459 -56.4693
v 94.4502 -128.407 -57.1339
v 94.3384 -126.448 -55.0643
v 95.6137 -136.526 -56.039
v 92.6059 -131.799 -57.3392
v 92.9674 -132.971 -57.14
v 93.8969 -132.604 -56.5359
v 94.1966 -132.688 -56.3906
v 92.2457 -131.336 -56.8653
v 92.3718 -131.285 -56.6637
v 92.5848 -124.017 -53.6898
v 92.474 -124.035 -53.7506
v 91.3408 -123.839 -55.5668
v 90.8789 -123.565 -54.8723
v 92.0247 -123.572 -53.426
v 90.6854 -127.491 -55.5977
v 92.4062 -128.924 -54.0254
v 92.3323 -128.468 -53.6151
v 89.7891 -125.541 -55.402
v 90.9246 -124.597 -53.9908
v 90.2027 -124.511 -54.4552
v 89.4195 -124.232 -54.5107
v 89.0392 -123.747 -54.4828
v 89.2566 -123.702 -54.4175
v 90.6568 -123.913 -54.3511
v 91.003 -124.032 -53.4602
v 89.2213 -122.135 -55.0799
v 89.3445 -122.194 -54.8134
v 88.6628 -122.175 -54.4782
v 88.678 -121.78 -54.3039
v 88.5274 -121.836 -54.183
v 88.5436 -121.835 -54.1661
v 128.851 -184.237 -62.4224
v 128.732 -184.259 -62.4712
v 128.805 -184.215 -62.3801
v 129.016 -183.785 -63.7646
v 129.016 -183.785 -63.7646
v 129.016 -183.785 -63.7646
v 128.989 -184.241 -63.3858
v 129.189 -184.245 -63.1853
v 129.189 -184.245 -63.1853
v 129.016 -184.385 -63.1214
v 129.016 -184.385 -63.1214
v 128.965 -184.402 -62.5161
v 128.965 -184.402 -62.5161
v 128.965 -184.402 -62.5161
v 128.678 -184.068 -62.448
v 127.904 -182.715 -64.4276
v 127.981 -182.523 -64.2688
v 126.736 -181.493 -64.8071
v 126.104 -181.04 -65.0317
v 126.104 -181.04 -65.0317
v 126.104 -181.04 -65.0317
v 125.096 -179.956 -65.2492
v 125.097 -180.353 -65.3029
v 118.26 -169.709 -66.9211
v 127.293 -183.171 -62.4146
v 127.293 -183.171 -62.4146
v 127.293 -183.171 -62.4146
v 124.67 -181.636 -63.5239
v 124.67 -181.636 -63.5239
v 125.961 -181.473 -62.9582
v 123.298 -180.419 -63.8343
v 124.964 -179.589 -63.7931
v 121.562 -175.475 -64.9705
v 116.541 -169.601 -67.591
v 116.48 -165.7 -66.4069
v 116.48 -165.7 -66.4069
v 116.48 -165.7 -66.4069
v 118.067 -174.207 -65.0442
v 115.82 -170.865 -65.0322
v 112.742 -164.05 -66.5728
v 112.742 -164.05 -66.5728
v 115.51 -165.282 -64.5039
v 110.719 -154.909 -64.6435
v 110.719 -154.909 -64.6435
v 111.487 -154.33 -63.0488
v 107.422 -149.354 -62.8902
v 106.974 -149.045 -63.7327
v 108.266 -148.793 -62.2777
v 107.262 -147.589 -62.2739
v 106.788 -146.749 -61.9719
v 106.788 -146.749 -61.9719
v 106.788 -146.749 -61.9719
v 111.966 -164.523 -63.7584
v 109.75 -161.465 -62.8467
v 103.907 -143.778 -62.7371
v 103.907 -143.778 -62.7371
v 104.522 -143.066 -60.894
v 104.714 -143.14 -60.7419
v 104.225 -142.341 -60.6749
v 104.225 -142.341 -60.6749
v 104.225 -142.341 -60.6749
v 108.072 -159.355 -62.0776
v 102.489 -139.003 -59.4386
v 101.872 -138.022 -59.3687
v 100.972 -136.233 -58.6688
v 100.972 -136.233 -58.6688
v 100.972 -136.233 -58.6688
v 98.934 -133.263 -57.8196
v 98.8961 -133.121 -57.4386
v 98.4812 -132.398 -57.4691
v 103.767 -153.171 -60.0911
v 103.767 -153.171 -60.0911
v 97.7967 -131.435 -56.9946
v 95.5769 -139.366 -58.8742
v 95.5769 -139.366 -58.8742
v 95.5769 -139.366 -58.8742
v 94.0755 -127.459 -56.4693
v 94.3384 -126.448 -55.0643
v 95.6137 -136.526 -56.039
v 92.6059 -131.799 -57.3392
v 92.9674 -132.971 -57.14
v 94.1966 -132.688 -56.3906
v 94.1966 -132.688 -56.3906
v 92.2457 -131.336 -56.8653
v 92.5848 -124.017 -53.6898
v 92.5848 -124.017 -53.6898
v 92.5848 -124.017 -53.6898
v 92.474 -124.035 -53.7506
v 92.474 -124.035 -53.7506
v 91.3408 -123.839 -55.5668
v 90.8789 -123.565 -54.8723
v 90.8789 -123.565 -54.8723
v 90.8789 -123.565 -54.8723
v 90.8789 -123.565 -54.8723
v 90.8789 -123.565 -54.8723
v 92.0247 -123.572 -53.426
v 92.0247 -123.572 -53.426
v 92.0247 -123.572 -53.426
v 92.3323 -128.468 -53.6151
v 92.3323 -128.468 -53.6151
v 92.3323 -128.468 -53.6151
v 92.3323 -128.468 -53.6151
v 89.7891 -125.541 -55.402
v 90.9246 -124.597 -53.9908
v 90.9246 -124.597 -53.9908
v 90.9246 -124.597 -53.9908
v 90.2027 -124.511 -54.4552
v 89.0392 -123.747 -54.4828
v 89.0392 -123.747 -54.4828
v 89.2566 -123.702 -54.4175
v 89.2566 -123.702 -54.4175
v 90.6568 -123.913 -54.3511
v 90.6568 -123.913 -54.3511
v 90.6568 -123.913 -54.3511
v 90.6568 -123.913 -54.3511
v 91.003 -124.032 -53.4602
v 91.003 -124.032 -53.4602
v 89.2213 -122.135 -55.0799
v 89.2213 -122.135 -55.0799
v 88.678 -121.78 -54.3039
v 88.678 -121.78 -54.3039
v 88.678 -121.78 -54.3039
v 88.5274 -121.836 -54.183
v 88.5274 -121.836 -54.183
v 88.5274 -121.836 -54.183
v 88.5436 -121.835 -54.1661
v 88.5436 -121.835 -54.1661
v 88.5436 -121.835 -54.1661
v 88.5436 -121.835 -54.1661
vn 0.679113 0.287209 -0.675512
vn 0.526682 -0.657762 -0.538475
vn 0.526682 -0.657762 -0.538475
vn 0.44829 -0.764987 -0.462418
vn -0.472704 -0.855964 0.209467
vn -0.455103 -0.868549 -0.196225
vn 0.726096 0.552005 0.40997
vn 0.0175703 0.894719 -0.446284
vn 0.0175703 0.894719 -0.446284
vn 0.0175703 0.894719 -0.446284
vn 0.62187 0.644393 0.445011
vn 0.567128 0.246244 -0.785958
vn 0.641307 0.320263 -0.69725
vn 0.504229 0.222842 -0.834323
vn 0.386689 0.0844032 -0.91834
vn 0.767844 0.637579 -0.06252
vn -0.320625 -0.665686 -0.673841
vn 0.662551 0.733111 0.153542
vn 0.34113 0.0871117 -0.935971
vn -0.0129609 -0.333185 -0.942772
vn 0.0337215 -0.226048 -0.973532
vn 0.552761 0.231711 -0.800478
vn 0.761645 0.407068 -0.504175
vn 0.378291 0.0469848 -0.924494
vn 0.726743 0.525912 -0.441884
vn 0.449728 0.153092 -0.879947
vn 0.887417 0.45628 -0.0655757
vn 0.380403 0.287037 -0.879149
vn -0.562669 -0.807762 0.175853
vn -0.531621 -0.624871 0.571765
vn -0.576576 -0.545938 0.607874
vn 0.569913 0.671383 0.473756
vn -0.64816 -0.717638 -0.254724
vn -0.504668 -0.285832 0.814622
vn 0.786534 0.535283 0.307955
vn 0.554482 0.529593 0.641935
vn 0.0266902 0.17734 0.983788
vn -0.698659 -0.633337 -0.332805
vn 0.810159 0.578219 -0.0964641
vn -0.170918 -0.286935 -0.942579
vn -0.405464 -0.229578 -0.884812
vn 0.856906 0.444095 0.261711
vn 0.705287 0.389088 -0.592605
vn -0.751825 -0.543774 0.37292
vn -0.648807 -0.409582 0.641321
vn -0.804212 -0.593804 0.0252792
vn 0.136118 0.108387 0.984746
vn -0.13492 -0.065033 0.98872
vn -0.426953 -0.248994 0.869317
vn -0.615106 -0.392207 -0.683973
vn -0.829793 -0.545963 0.115622
vn 0.499238 0.293889 0.815101
vn 0.015395 -0.0483965 0.99871
vn -0.846912 -0.50222 -0.174685
vn 0.0108628 0.207396 -0.978197
vn 0.844463 0.352757 0.403044
vn 0.137627 0.23361 -0.962541
vn 0.756129 0.268237 0.596923
vn 0.712464 0.461214 -0.528844
vn 0.654984 0.50805 -0.559358
vn 0.17344 -0.0788177 0.981685
vn 0.184535 -0.212663 0.959542
vn 0.672106 0.153017 0.724472
vn 0.263231 0.41466 -0.871072
vn 0.650064 0.267077 0.711398
vn 0.777732 0.547559 -0.308727
vn 0.243449 0.404679 -0.881458
vn 0.0651248 0.209689 -0.975597
vn 0.787817 0.43685 0.434173
vn 0.0736685 0.317533 -0.945381
vn 0.400896 0.452848 -0.796374
vn -0.108885 0.208647 -0.971911
vn -0.118574 0.244614 -0.962343
vn -0.1283 -0.281978 0.950804
vn -0.805144 -0.588019 -0.0773096
vn -0.750046 -0.633 0.191683
vn 0.0185409 0.302328 -0.953024
vn 0.757542 0.357763 0.546019
vn -0.300063 0.0749051 -0.950974
vn 0.140916 0.345604 -0.92774
vn 0.647369 0.501733 -0.57374
vn 0.65421 0.451401 -0.606833
vn -0.781618 -0.614234 0.108579
vn -0.178547 -0.451962 0.873986
vn 0.729558 0.230533 0.643895
vn 0.274646 0.426196 -0.861932
vn 0.73821 0.55393 -0.384977
vn 0.797176 0.522886 -0.301829
vn 0.201119 0.403819 -0.892458
vn -0.00683864 -0.320962 0.947067
vn -0.836423 -0.523643 -0.161848
vn 0.369627 -0.0125692 0.929095
vn -0.0442859 -0.239086 0.969988
vn 0.793959 0.521612 -0.31233
vn 0.587147 0.0887546 0.8046
vn 0.196229 0.419068 -0.886497
vn 0.592766 0.0983858 0.799343
vn 0.331104 0.549084 -0.767383
vn -0.827293 -0.557503 0.0691139
vn 0.351323 0.0181278 0.936079
vn 0.323829 0.510434 -0.796613
vn 0.840093 0.482785 0.247311
vn -0.659604 -0.422945 0.621321
vn -0.418778 0.00438559 -0.908078
vn -0.864675 -0.426801 0.264912
vn 0.571071 0.59158 -0.569131
vn 0.580083 0.57513 -0.576826
vn 0.486086 0.648436 -0.585876
vn 0.287984 -0.0986575 0.95254
vn -0.456262 0.0327562 -0.889242
vn -0.558779 -0.403303 0.724647
vn -0.438289 -0.393361 0.808189
vn -0.871363 -0.369684 0.322585
vn -0.877581 -0.299861 -0.374078
vn -0.571485 -0.425641 0.701594
vn 0.840568 0.519477 0.153585
vn 0.455939 0.703769 -0.54482
vn 0.352205 0.511899 -0.783525
vn 0.707274 0.661677 0.248891
vn 0.589553 0.00584318 0.807709
vn -0.612717 -0.447967 0.651079
vn -0.924464 -0.358328 0.130257
vn 0.475951 -0.0141482 0.879358
vn -0.875133 -0.269481 -0.401899
vn -0.481711 -0.40517 0.777041
vn -0.241647 -0.280463 0.92895
vn -0.277892 -0.324867 0.904012
vn -0.944936 -0.29634 -0.138844
vn -0.171365 -0.198985 0.964904
vn -0.521459 0.795409 0.308877
vn -0.914663 -0.258565 0.310702
vn -0.613741 0.0834664 -0.785083
vn 0.61466 0.785801 0.068629
vn -0.847117 0.0268365 -0.530729
vn -0.685338 0.315894 -0.656143
vn -0.662586 0.323557 -0.675493
vn -0.238925 -0.218641 0.946103
vn -0.0175703 -0.894719 0.446284
vn -0.0175703 -0.894719 0.446284
vn -0.0175703 -0.894719 0.446284
vn 0.592736 -0.535127 -0.601917
vn 0.676148 0.66528 0.316584
vn -0.0992305 -0.607564 -0.788048
vn -0.319002 -0.778848 -0.540031
vn 0.722479 0.611439 0.322749
vn 0.635872 -0.771134 0.0319313
vn -0.398766 -0.886402 -0.23511
vn 0.635872 -0.771134 0.0319313
vn 0.635872 -0.771134 0.0319313
vn 0.756405 0.450538 0.474201
vn -0.219462 -0.372438 0.901735
vn -0.219462 -0.372438 0.901735
vn -0.0243807 -0.452308 -0.891529
vn 0.624403 0.7378 0.256459
vn 0.686615 0.704844 -0.1782
vn 0.655812 0.582162 -0.480623
vn 0.0378434 -0.309709 -0.950078
vn 0.337578 0.126505 -0.932758
vn 0.670304 0.503826 -0.544841
vn 0.359331 0.125454 -0.924739
vn 0.686443 0.33911 -0.643274
vn -0.219462 -0.372438 0.901735
vn 0.361231 0.529168 0.767785
vn -0.399167 -0.0196654 0.916667
vn -0.553024 -0.785604 -0.277472
vn -0.451164 -0.250507 0.856561
vn -0.328069 -0.0808422 0.941188
vn -0.623293 -0.465469 0.628367
vn 0.203936 0.405067 0.891253
vn 0.484787 0.432305 0.760325
vn 0.130084 0.0862856 -0.987741
vn 0.887574 0.340793 0.309957
vn 0.178937 0.311558 -0.933227
vn 0.720637 0.456337 -0.521957
vn -0.61804 -0.414422 0.668042
vn -0.438641 -0.314239 0.841931
vn -0.426755 -0.127847 -0.895285
vn -0.816093 -0.420178 -0.39679
vn 0.397085 0.0599216 0.915824
vn 0.396382 0.432309 -0.809932
vn 0.763575 0.565782 -0.311198
vn 0.830762 0.484812 -0.27348
vn 0.67125 0.527793 -0.52044
vn 0.844692 0.526045 -0.0988548
vn 0.719938 0.550924 -0.422105
vn 0.652481 0.545512 -0.526009
vn 0.663875 0.554933 -0.501318
vn 0.845264 0.507455 0.167389
vn 0.638148 0.550221 -0.538539
vn -0.84528 -0.529704 -0.0701088
vn -0.138827 -0.436025 0.889162
vn 0.776346 0.559323 -0.290593
vn 0.192672 0.43732 -0.878424
vn 0.647369 0.501733 -0.57374
vn 0.828724 0.413542 0.377093
vn 0.832097 0.372537 0.41089
vn 0.114064 0.338867 -0.933894
vn 0.800295 0.524097 -0.29129
vn -0.324414 -0.513459 0.794428
vn 0.758923 0.209612 0.616522
vn 0.797176 0.522886 -0.301829
vn 0.711987 0.206167 0.671244
vn 0.429338 0.5081 -0.746662
vn 0.797426 0.587073 -0.139487
vn 0.832754 0.540765 -0.118715
vn 0.84956 0.520845 0.0834816
vn 0.864616 0.498861 0.0598025
vn -0.187651 -0.362223 0.913007
vn -0.73146 -0.471576 0.492527
vn 0.504258 0.612034 -0.609211
vn -0.845939 -0.466424 -0.258524
vn -0.682549 -0.449462 0.57629
vn -0.924001 -0.320465 -0.208625
vn 0.792212 0.518069 0.322496
vn 0.84034 0.496883 0.216646
vn -0.827521 -0.452011 0.33301
vn -0.896051 -0.307759 -0.319963
vn -0.903634 -0.325952 -0.27785
vn -0.487819 -0.398029 0.77692
vn -0.927515 -0.309384 -0.209756
vn -0.778937 -0.441224 0.445621
vn 0.496094 -0.013573 0.868163
vn 0.296078 0.622948 -0.724068
vn -0.485889 0.0422154 0.873
vn -0.485889 0.0422154 0.873
vn 0.589553 0.00584318 0.807709
vn 0.705425 0.697561 0.125632
vn 0.521379 0.703133 -0.483495
vn -0.46081 0.829752 0.314905
vn 0.0943762 0.808905 0.580315
vn 0.271859 -0.025715 0.961993
vn 0.545148 0.446156 0.709759
vn 0.504535 0.767224 -0.395995
vn -0.397906 0.860035 0.319392
vn -0.0156299 -0.0395708 0.999095
vn -0.485889 0.0422154 0.873
vn 0.589553 0.00584318 0.807709
vn -0.896299 -0.367947 0.247513
vn -0.0156299 -0.0395708 0.999095
vn -0.90541 -0.25821 -0.336988
vn -0.927593 -0.31602 -0.199255
vn -0.88969 -0.240817 0.38789
vn -0.504915 0.239191 0.829366
vn -0.504915 0.239191 0.829366
vn -0.33503 -0.305924 0.891159
vn -0.682589 -0.28817 0.671588
vn 0.0943762 0.808905 0.580315
vn 0.271859 -0.025715 0.961993
vn 0.0943762 0.808905 0.580315
vn -0.504915 0.239191 0.829366
vn -0.0654545 -0.122731 0.990279
vn -0.924006 -0.185692 0.334262
vn -0.46081 0.829752 0.314905
vn -0.0156299 -0.0395708 0.999095
vn 0.10971 0.396857 -0.9113
vn 0.557972 0.826599 -0.0734932
vn 0.586418 0.801826 0.114843
vn 0.545148 0.446156 0.709759
vn -0.227522 0.960308 0.16138
vn -0.957363 -0.228713 -0.176485
vn -0.227522 0.960308 0.16138
vn -0.682589 -0.28817 0.671588
vn 0.271859 -0.025715 0.961993
vn 0.545148 0.446156 0.709759
vn -0.227522 0.960308 0.16138
vn -0.682589 -0.28817 0.671588
g grp1
usemtl mtl1
f 12//12 13//13 1//1 
f 3//3 2//2 141//141 
f 11//11 142//142 154//154 
f 17//17 143//143 144//144 
f 142//142 11//11 145//145 
f 3//3 4//4 2//2 
f 147//147 6//6 144//144 
f 144//144 6//6 17//17 
f 5//5 6//6 147//147 
f 7//7 145//145 11//11 
f 148//148 146//146 149//149 
f 150//150 145//145 7//7 
f 7//7 11//11 150//150 
f 8//8 9//9 10//10 
f 139//139 138//138 140//140 
f 17//17 153//153 143//143 
f 13//13 12//12 14//14 
f 155//155 18//18 154//154 
f 11//11 154//154 32//32 
f 14//14 12//12 15//15 
f 16//16 18//18 155//155 
f 156//156 16//16 155//155 
f 157//157 153//153 17//17 
f 154//154 18//18 32//32 
f 18//18 16//16 32//32 
f 17//17 20//20 157//157 
f 17//17 21//21 20//20 
f 160//160 21//21 19//19 
f 38//38 21//21 17//17 
f 19//19 158//158 160//160 
f 156//156 159//159 16//16 
f 39//39 16//16 25//25 
f 16//16 159//159 25//25 
f 39//39 35//35 16//16 
f 35//35 36//36 16//16 
f 19//19 21//21 22//22 
f 24//24 23//23 22//22 
f 21//21 24//24 22//22 
f 24//24 21//21 40//40 
f 159//159 22//22 25//25 
f 22//22 23//23 25//25 
f 39//39 23//23 27//27 
f 25//25 23//23 39//39 
f 24//24 26//26 23//23 
f 23//23 26//26 161//161 
f 24//24 40//40 26//26 
f 27//27 42//42 39//39 
f 26//26 28//28 161//161 
f 161//161 28//28 43//43 
f 29//29 17//17 6//6 
f 29//29 30//30 31//31 
f 29//29 165//165 17//17 
f 6//6 5//5 29//29 
f 30//30 29//29 5//5 
f 151//151 152//152 162//162 
f 32//32 163//163 11//11 
f 166//166 164//164 167//167 
f 38//38 17//17 33//33 
f 44//44 168//168 34//34 
f 38//38 33//33 44//44 
f 36//36 32//32 16//16 
f 36//36 169//169 37//37 
f 32//32 36//36 37//37 
f 165//165 33//33 17//17 
f 168//168 166//166 34//34 
f 34//34 166//166 167//167 
f 34//34 167//167 37//37 
f 38//38 44//44 45//45 
f 37//37 169//169 170//170 
f 21//21 38//38 40//40 
f 37//37 170//170 52//52 
f 38//38 50//50 40//40 
f 170//170 42//42 52//52 
f 50//50 41//41 40//40 
f 171//171 26//26 40//40 
f 171//171 28//28 26//26 
f 52//52 42//42 56//56 
f 172//172 56//56 42//42 
f 42//42 27//27 172//172 
f 55//55 28//28 171//171 
f 28//28 55//55 173//173 
f 44//44 34//34 45//45 
f 34//34 37//37 45//45 
f 49//49 45//45 37//37 
f 38//38 45//45 46//46 
f 45//45 49//49 175//175 
f 38//38 46//46 54//54 
f 37//37 52//52 47//47 
f 49//49 37//37 48//48 
f 37//37 47//47 48//48 
f 51//51 54//54 46//46 
f 175//175 49//49 176//176 
f 54//54 50//50 38//38 
f 176//176 49//49 53//53 
f 47//47 52//52 53//53 
f 53//53 48//48 47//47 
f 49//49 48//48 53//53 
f 50//50 177//177 41//41 
f 178//178 50//50 54//54 
f 179//179 53//53 52//52 
f 53//53 179//179 61//61 
f 63//63 56//56 172//172 
f 173//173 55//55 57//57 
f 58//58 63//63 172//172 
f 59//59 174//174 180//180 
f 182//182 174//174 59//59 
f 182//182 59//59 60//60 
f 59//59 180//180 60//60 
f 60//60 180//180 64//64 
f 53//53 61//61 74//74 
f 54//54 51//51 190//190 
f 53//53 74//74 176//176 
f 178//178 54//54 190//190 
f 179//179 62//62 61//61 
f 61//61 62//62 74//74 
f 62//62 179//179 63//63 
f 62//62 63//63 92//92 
f 63//63 58//58 65//65 
f 92//92 63//63 65//65 
f 65//65 58//58 69//69 
f 57//57 55//55 68//68 
f 180//180 67//67 70//70 
f 181//181 66//66 183//183 
f 181//181 184//184 66//66 
f 182//182 60//60 185//185 
f 70//70 64//64 180//180 
f 87//87 66//66 184//184 
f 64//64 71//71 60//60 
f 71//71 185//185 60//60 
f 70//70 71//71 64//64 
f 65//65 69//69 78//78 
f 68//68 55//55 79//79 
f 72//72 71//71 70//70 
f 77//77 70//70 67//67 
f 72//72 70//70 77//77 
f 71//71 186//186 185//185 
f 87//87 184//184 192//192 
f 77//77 73//73 72//72 
f 80//80 73//73 77//77 
f 185//185 186//186 187//187 
f 75//75 178//178 190//190 
f 76//76 75//75 190//190 
f 62//62 191//191 74//74 
f 76//76 83//83 75//75 
f 191//191 84//84 199//199 
f 84//84 191//191 62//62 
f 104//104 79//79 55//55 
f 183//183 66//66 87//87 
f 67//67 80//80 77//77 
f 188//188 78//78 69//69 
f 78//78 100//100 65//65 
f 194//194 81//81 189//189 
f 188//188 195//195 78//78 
f 195//195 85//85 78//78 
f 81//81 194//194 82//82 
f 196//196 85//85 195//195 
f 183//183 87//87 86//86 
f 67//67 86//86 80//80 
f 80//80 86//86 197//197 
f 83//83 91//91 75//75 
f 90//90 84//84 62//62 
f 178//178 75//75 91//91 
f 90//90 62//62 92//92 
f 100//100 78//78 85//85 
f 89//89 197//197 86//86 
f 198//198 201//201 88//88 
f 196//196 200//200 85//85 
f 100//100 85//85 95//95 
f 85//85 200//200 95//95 
f 88//88 201//201 94//94 
f 99//99 91//91 83//83 
f 208//208 199//199 84//84 
f 84//84 90//90 208//208 
f 90//90 92//92 93//93 
f 90//90 93//93 208//208 
f 211//211 178//178 91//91 
f 100//100 92//92 65//65 
f 100//100 208//208 93//93 
f 92//92 100//100 93//93 
f 95//95 200//200 202//202 
f 96//96 89//89 86//86 
f 95//95 202//202 97//97 
f 203//203 89//89 96//96 
f 101//101 96//96 86//86 
f 96//96 101//101 98//98 
f 205//205 206//206 204//204 
f 206//206 205//205 207//207 
f 206//206 207//207 102//102 
f 211//211 91//91 99//99 
f 100//100 95//95 109//109 
f 98//98 101//101 210//210 
f 106//106 101//101 86//86 
f 101//101 106//106 210//210 
f 87//87 106//106 86//86 
f 212//212 209//209 103//103 
f 208//208 100//100 109//109 
f 216//216 105//105 209//209 
f 103//103 209//209 105//105 
f 103//103 111//111 212//212 
f 105//105 113//113 103//103 
f 104//104 110//110 79//79 
f 107//107 87//87 192//192 
f 123//123 95//95 97//97 
f 87//87 107//107 106//106 
f 106//106 108//108 210//210 
f 193//193 118//118 107//107 
f 107//107 118//118 106//106 
f 206//206 102//102 215//215 
f 116//116 206//206 215//215 
f 216//216 122//122 105//105 
f 123//123 109//109 95//95 
f 218//218 217//217 213//213 
f 103//103 219//219 112//112 
f 103//103 112//112 111//111 
f 218//218 114//114 217//217 
f 124//124 217//217 114//114 
f 221//221 111//111 115//115 
f 112//112 115//115 111//111 
f 105//105 122//122 220//220 
f 219//219 125//125 112//112 
f 220//220 122//122 241//241 
f 121//121 240//240 221//221 
f 221//221 115//115 121//121 
f 110//110 132//132 79//79 
f 240//240 132//132 110//110 
f 227//227 119//119 214//214 
f 228//228 108//108 106//106 
f 222//222 123//123 97//97 
f 223//223 108//108 117//117 
f 224//224 225//225 236//236 
f 117//117 108//108 228//228 
f 237//237 226//226 120//120 
f 233//233 117//117 228//228 
f 118//118 193//193 255//255 
f 238//238 122//122 216//216 
f 112//112 121//121 115//115 
f 125//125 121//121 112//112 
f 121//121 128//128 240//240 
f 245//245 121//121 127//127 
f 121//121 125//125 126//126 
f 242//242 122//122 131//131 
f 122//122 238//238 131//131 
f 129//129 127//127 126//126 
f 121//121 126//126 127//127 
f 127//127 129//129 245//245 
f 129//129 137//137 245//245 
f 130//130 253//253 229//229 
f 249//249 230//230 247//247 
f 244//244 243//243 250//250 
f 126//126 251//251 129//129 
f 131//131 252//252 242//242 
f 253//253 234//234 229//229 
f 239//239 235//235 254//254 
f 256//256 133//133 227//227 
f 119//119 227//227 133//133 
f 135//135 132//132 134//134 
f 132//132 240//240 134//134 
f 257//257 133//133 256//256 
f 257//257 119//119 133//133 
f 263//263 248//248 231//231 
f 240//240 128//128 134//134 
f 264//264 232//232 258//258 
f 134//134 136//136 135//135 
f 128//128 260//260 134//134 
f 265//265 259//259 261//261 
f 262//262 246//246 266//266 
