# Blender v2.77 (sub 0) OBJ File: 'BLANKOblend.blend'
# www.blender.org
mtllib septal papillary muscle of right ventricle.mtl
o grp1
v 12.925140 -132.283157 1219.134766
v 13.857178 -131.974808 1218.108887
v 13.859619 -130.428177 1218.220947
v 12.849762 -130.464859 1219.092041
v 13.664062 -132.037308 1220.525879
v 13.852295 -130.060989 1219.821045
v 13.499512 -129.987015 1218.973633
v 17.037109 -134.836380 1218.217041
v 14.926025 -134.487747 1220.262207
v 18.952200 -136.392197 1218.660034
v 17.783028 -135.815567 1222.125122
v 13.870117 -130.433914 1218.231445
v 16.771973 -131.827835 1218.702759
v 16.420288 -131.406448 1218.918945
v 17.001953 -133.228714 1221.778320
v 17.074219 -132.400589 1221.332031
v 17.192505 -131.728226 1220.697021
v 16.803772 -131.467484 1218.963379
v 16.619507 -136.839279 1223.898682
v 16.145386 -136.124100 1224.791870
v 16.170898 -135.844833 1223.819824
v 16.099228 -135.362930 1224.337280
v 17.773926 -135.892288 1222.549805
v 18.367188 -137.210159 1225.524414
v 18.314453 -135.346756 1225.135132
v 16.736328 -136.749710 1230.799316
v 18.050501 -137.711197 1230.819946
v 18.050501 -137.711197 1230.819946
v 17.341801 -137.063202 1232.290039
v 16.786400 -136.689194 1230.869995
v 18.175049 -134.357620 1229.134766
v 16.786400 -136.689194 1230.869995
v 16.463400 -136.126205 1231.949951
v 16.501301 -135.504196 1230.839966
v 16.463400 -136.126205 1231.949951
v 17.341801 -137.063202 1232.290039
v 17.056900 -135.767197 1232.689941
v 16.463400 -136.126205 1231.949951
v 21.562300 -136.563202 1235.420044
v 21.046801 -138.661194 1231.959961
v 19.349609 -133.818314 1215.052734
v 17.583200 -133.278198 1217.949951
v 16.383499 -134.804199 1221.430054
v 17.494801 -135.580200 1222.939941
v 17.809082 -135.284622 1222.554199
v 17.770142 -135.870804 1222.836060
v 17.457500 -135.514206 1222.089966
v 17.457500 -135.514206 1222.089966
v 17.680599 -135.572205 1222.439941
v 17.680599 -135.572205 1222.439941
v 17.779301 -135.882202 1222.560059
v 17.719801 -135.585205 1222.739990
v 17.779301 -135.882202 1222.560059
v 17.719801 -135.585205 1222.739990
v 17.719801 -135.585205 1222.739990
v 17.810801 -135.282196 1222.550049
v 17.680599 -135.572205 1222.439941
v 17.680599 -135.572205 1222.439941
v 17.635254 -132.862991 1222.011719
v 18.589399 -136.302200 1222.400024
v 17.779301 -135.882202 1222.560059
v 17.771500 -135.832199 1222.130005
v 17.544922 -135.458206 1222.916992
v 20.214233 -135.025833 1225.167236
v 16.501301 -135.504196 1230.839966
v 17.958008 -134.285355 1229.651367
v 18.021484 -134.087112 1229.472656
v 16.501301 -135.504196 1230.839966
v 16.638800 -135.187195 1231.500000
v 18.201200 -133.566193 1233.050049
v 18.208200 -134.056198 1228.760010
v 18.086300 -133.560196 1228.890015
v 16.501301 -135.504196 1230.839966
v 16.463400 -136.126205 1231.949951
v 16.638800 -135.187195 1231.500000
v 17.056900 -135.767197 1232.689941
v 18.201200 -133.566193 1233.050049
v 18.267599 -134.345200 1233.359985
v 17.056900 -135.767197 1232.689941
v 18.105957 -133.720901 1233.019531
v 18.033400 -133.856201 1233.000000
v 18.067505 -133.619644 1233.338257
v 18.033400 -133.856201 1233.000000
v 17.580078 -131.423538 1216.207520
v 16.808300 -131.481201 1218.979980
v 17.118099 -131.814194 1218.339966
v 16.771299 -131.825195 1218.709961
v 16.808300 -131.481201 1218.979980
v 17.118099 -131.814194 1218.339966
v 17.119101 -131.284195 1218.680054
v 17.241699 -131.388870 1218.623779
v 17.636200 -132.855194 1222.000000
v 17.712219 -132.536087 1222.269897
v 17.832932 -130.358292 1221.188354
v 18.802567 -133.528763 1222.471191
v 18.213379 -134.042191 1228.733398
v 17.830000 -132.597198 1226.500000
v 18.241089 -130.533890 1226.731934
v 18.086300 -133.560196 1228.890015
v 18.033400 -133.856201 1233.000000
v 18.134644 -133.576752 1233.333740
v 18.258209 -133.640884 1235.129150
v 18.140381 -133.638290 1234.468750
v 19.488281 -131.789261 1235.101562
v 19.714844 -129.984573 1216.523438
v 17.979675 -129.736038 1218.183350
v 18.271805 -128.028946 1219.859009
v 18.677401 -129.043198 1221.939941
v 19.036011 -128.972183 1225.969482
v 20.821838 -137.100906 1222.343994
v 23.335892 -139.138809 1222.882812
v 22.475700 -139.252197 1225.160034
v 19.382601 -137.735199 1230.170044
v 18.050501 -137.711197 1230.819946
v 19.382601 -137.735199 1230.170044
v 22.572388 -136.940628 1228.070557
v 21.716888 -134.490311 1213.547485
v 22.588074 -135.974899 1213.457397
v 20.089844 -135.006302 1223.535889
v 19.930500 -134.220200 1223.390015
v 18.804001 -133.528198 1222.469971
v 19.654699 -134.491196 1222.939941
v 20.001499 -134.835205 1223.670044
v 20.001499 -134.835205 1223.670044
v 19.432617 -134.914749 1226.046875
v 19.922363 -134.624710 1225.479126
v 19.408203 -134.587845 1226.155273
v 19.542969 -134.917557 1226.923096
v 19.236000 -135.168198 1225.760010
v 19.933701 -134.899200 1225.609985
v 19.236000 -135.168198 1225.760010
v 19.490499 -134.892197 1226.069946
v 20.224001 -135.094193 1225.160034
v 19.949699 -134.595200 1225.489990
v 19.933701 -134.899200 1225.609985
v 20.538401 -134.825195 1225.469971
v 20.001499 -134.835205 1223.670044
v 20.224001 -135.094193 1225.160034
v 20.538401 -134.825195 1225.469971
v 20.538401 -134.825195 1225.469971
v 19.930500 -134.220200 1223.390015
v 20.538401 -134.825195 1225.469971
v 20.538401 -134.825195 1225.469971
v 19.933701 -134.899200 1225.609985
v 19.949699 -134.595200 1225.489990
v 19.546875 -134.911819 1226.935425
v 20.089844 -135.414261 1227.375000
v 18.709473 -134.082230 1236.714844
v 20.714844 -135.007034 1236.746094
v 20.754700 -134.983200 1236.760010
v 19.912109 -134.481155 1238.478516
v 21.614901 -134.565201 1239.489990
v 20.462891 -131.606644 1214.758789
v 19.478500 -132.528198 1230.729980
v 18.663574 -133.997513 1236.554688
v 19.797119 -134.346268 1238.726807
v 18.429688 -128.271561 1219.936279
v 19.153374 -128.753372 1221.391602
v 21.152832 -129.217972 1217.567871
v 19.005800 -128.921204 1223.050049
v 19.154499 -128.737198 1221.380005
v 19.005800 -128.921204 1223.050049
v 19.042400 -128.978195 1225.969971
v 20.414276 -129.995590 1231.347046
v 20.483337 -129.820511 1231.961426
v 20.440369 -129.967606 1231.315430
v 20.535152 -129.907791 1232.583008
v 20.529200 -130.025192 1232.650024
v 24.078125 -131.422318 1237.630859
v 18.434200 -128.291199 1219.390015
v 18.677401 -129.043198 1221.939941
v 19.154499 -128.737198 1221.380005
v 18.482599 -128.195206 1219.989990
v 26.814453 -140.931839 1217.484375
v 22.796875 -139.250198 1229.421875
v 26.558250 -140.217194 1229.130615
v 24.815674 -139.019241 1214.707031
v 21.719727 -136.261917 1227.503906
v 23.494728 -138.471573 1227.969116
v 22.475700 -139.252197 1225.160034
v 21.753599 -134.506195 1213.569946
v 23.946289 -134.713089 1213.692139
v 21.865234 -133.520218 1239.216797
v 27.176001 -136.059204 1239.349976
v 24.054199 -134.794266 1240.149902
v 23.979000 -134.766205 1240.020020
v 23.898438 -131.644730 1215.539062
v 21.383699 -130.282196 1216.150024
v 21.057100 -129.344193 1217.599976
v 21.383699 -130.282196 1216.150024
v 29.516357 -134.376663 1237.880005
v 24.576172 -137.939651 1213.898438
v 25.504089 -139.019119 1214.658447
v 27.654785 -142.256302 1219.810547
v 25.254395 -139.199539 1228.270264
v 28.359375 -142.773636 1226.332031
v 26.556122 -139.636154 1231.461182
v 25.222656 -139.013077 1234.355469
v 25.626953 -137.980667 1235.562012
v 25.699219 -137.955765 1235.558594
v 25.924000 -135.140198 1240.170044
v 25.947388 -135.151825 1240.245239
v 26.568701 -133.793198 1216.099976
v 26.178268 -133.023148 1239.209473
v 27.161621 -139.397659 1216.247070
v 27.659500 -142.253204 1219.819946
v 26.831800 -140.849197 1217.469971
v 28.534100 -142.759201 1224.010010
v 25.980469 -140.180862 1216.038086
v 25.459299 -138.921204 1214.650024
v 27.452148 -136.925247 1215.686523
v 30.372803 -141.673782 1232.842773
v 27.053801 -139.219193 1236.089966
v 27.167969 -139.281448 1236.183594
v 29.702148 -137.880936 1238.691895
v 30.422127 -139.521683 1236.856445
v 30.407801 -136.386200 1224.219971
v 29.392090 -136.376663 1239.419189
v 29.150101 -142.478195 1223.839966
v 28.534100 -142.759201 1224.010010
v 27.659500 -142.253204 1219.819946
v 29.686701 -140.012192 1221.380005
v 29.255997 -142.546799 1223.776245
v 29.997101 -143.505203 1226.390015
v 29.997101 -143.505203 1226.390015
v 30.303711 -143.676285 1227.733398
v 30.650299 -142.660843 1231.457275
v 28.963867 -139.184280 1237.607910
v 30.183901 -138.821198 1237.839966
v 30.891846 -135.670853 1236.804321
v 30.033295 -143.548416 1226.783447
v 31.420500 -141.795197 1227.270020
v 30.775879 -143.145706 1230.498047
v 30.600000 -143.249191 1229.699951
v 30.784901 -141.328201 1232.810059
v 31.197266 -138.805710 1224.892578
v 32.174099 -138.795197 1229.050049
v 31.826385 -139.011368 1232.885254
v 30.401699 -141.546204 1232.890015
v 31.044300 -139.406204 1236.479980
v 31.044300 -139.406204 1236.479980
v 31.235399 -136.580200 1230.979980
vn -0.1852 0.1194 -0.9754
vn -0.3271 -0.1645 -0.9306
vn -0.9108 -0.3796 -0.1625
vn -0.9303 0.3643 -0.0422
vn -0.6102 0.0152 0.7921
vn -0.0962 0.8493 0.5190
vn -0.2099 0.9633 -0.1673
vn -0.5551 -0.5067 -0.6597
vn -0.6915 -0.6995 0.1801
vn -0.5249 -0.8006 -0.2888
vn 0.5731 0.4373 -0.6931
vn -0.0197 0.2503 -0.9680
vn 0.3455 0.7226 -0.5987
vn -0.3924 0.2099 0.8955
vn -0.3347 0.5354 0.7754
vn -0.4561 0.7131 0.5324
vn -0.3459 0.9352 -0.0764
vn -0.5115 -0.8583 0.0412
vn -0.6217 -0.7430 -0.2478
vn -0.7717 -0.1790 0.6103
vn -0.8648 0.0331 -0.5011
vn -0.6919 0.7068 0.1475
vn -0.3985 -0.6245 -0.6717
vn -0.5237 -0.5867 0.6177
vn -0.3862 0.6732 0.6306
vn -0.5057 -0.8525 0.1326
vn -0.5301 -0.8144 0.2360
vn -0.6896 -0.7197 0.0804
vn -0.9581 -0.2347 -0.1642
vn -0.7458 -0.6554 0.1193
vn -0.5866 -0.3527 0.7290
vn -0.6073 -0.1177 0.7857
vn -0.6407 -0.3505 0.6831
vn -0.4882 -0.6371 0.5965
vn -0.2772 -0.9512 0.1355
vn -0.7342 0.1138 -0.6693
vn -0.6654 -0.1712 -0.7266
vn -0.6078 -0.1933 0.7702
vn -0.1982 0.8947 -0.4003
vn -0.4837 0.4144 0.7709
vn 0.0989 0.9948 -0.0242
vn -0.6977 -0.2722 0.6626
vn -0.6528 -0.6763 0.3411
vn -0.6651 -0.6788 0.3111
vn -0.9570 -0.2863 0.0475
vn -0.9586 -0.2611 0.1140
vn -0.5957 0.3489 -0.7235
vn -0.6284 0.3071 -0.7147
vn -0.9221 0.3623 0.1362
vn -0.8121 0.1531 0.5631
vn -0.6577 0.0927 0.7475
vn -0.4776 -0.8676 -0.1384
vn -0.3939 -0.9150 0.0875
vn -0.9505 -0.3101 -0.0192
vn -0.2985 0.9544 0.0092
vn -0.5939 -0.0967 -0.7987
vn -0.8900 0.1140 -0.4416
vn -0.4480 -0.2580 -0.8560
vn -0.7483 0.6374 -0.1837
vn -0.7116 0.6943 -0.1078
vn -0.8008 0.5809 0.1457
vn -0.7615 0.6365 -0.1226
vn -0.7635 -0.3700 -0.5293
vn -0.9328 -0.1798 -0.3123
vn -0.9619 -0.2475 -0.1165
vn -0.9696 0.2260 0.0935
vn -0.9082 0.3061 0.2856
vn -0.8814 0.3223 0.3455
vn -0.8108 0.3608 0.4610
vn -0.8173 0.3500 0.4578
vn -0.6579 -0.0197 0.7529
vn -0.6589 0.2192 0.7196
vn -0.7711 -0.5241 0.3616
vn -0.9315 -0.2486 0.2655
vn -0.8280 0.1457 -0.5414
vn -0.8304 0.0830 -0.5510
vn 0.2384 0.5917 -0.7701
vn -0.6322 0.5198 -0.5746
vn -0.6978 0.4402 -0.5651
vn -0.7559 0.3560 -0.5495
vn -0.7114 -0.0459 -0.7013
vn -0.7357 0.6015 -0.3114
vn -0.5584 0.6161 0.5555
vn -0.8953 -0.2075 0.3942
vn -0.9425 0.3076 0.1309
vn -0.5941 -0.2084 0.7769
vn -0.8728 -0.4050 -0.2724
vn -0.9977 0.0175 0.0649
vn -0.9139 0.3414 0.2199
vn -0.9916 -0.0423 -0.1223
vn -0.8381 0.5158 -0.1775
vn -0.7860 0.6139 -0.0730
vn -0.8080 0.5491 0.2137
vn -0.6520 0.6858 0.3232
vn -0.1982 0.7884 -0.5823
vn -0.9390 0.3290 -0.1006
vn -0.8193 0.5228 0.2353
vn -0.8689 0.4833 0.1067
vn -0.4226 -0.8176 -0.3912
vn -0.5009 -0.8484 -0.1711
vn -0.3915 -0.9015 0.1846
vn -0.3874 -0.4376 -0.8114
vn -0.4008 -0.5376 -0.7419
vn -0.1737 -0.9311 -0.3207
vn -0.3429 -0.9242 -0.1682
vn -0.7597 -0.6238 -0.1839
vn -0.1580 0.0869 -0.9836
vn -0.3111 -0.3744 -0.8735
vn -0.2417 0.9299 0.2773
vn -0.4004 0.4033 0.8228
vn -0.8768 -0.0650 0.4765
vn -0.7095 -0.3204 0.6277
vn -0.8177 -0.1072 0.5656
vn -0.4591 0.8687 0.1861
vn -0.9227 0.0664 0.3797
vn -0.4823 -0.8201 -0.3078
vn -0.8431 0.3632 -0.3966
vn -0.8636 0.3059 0.4008
vn -0.1691 0.9849 -0.0369
vn -0.8662 0.4525 -0.2119
vn -0.3431 0.7983 -0.4950
vn -0.4034 0.7743 -0.4875
vn -0.4035 0.8224 -0.4011
vn -0.3111 0.7822 -0.5397
vn -0.7022 -0.0931 -0.7059
vn -0.6305 -0.2560 -0.7327
vn -0.9581 0.0195 0.2857
vn -0.7504 0.6232 0.2204
vn -0.2189 0.8359 -0.5034
vn -0.6070 -0.7932 0.0483
vn -0.4462 -0.8653 -0.2284
vn -0.1696 -0.3541 -0.9197
vn -0.8086 -0.5634 -0.1694
vn -0.6051 -0.6812 0.4120
vn -0.3150 -0.8733 0.3716
vn -0.4565 -0.8896 -0.0150
vn -0.4054 -0.9130 -0.0461
vn -0.1327 -0.6793 0.7217
vn -0.1388 0.4986 -0.8556
vn -0.8672 0.4866 0.1056
vn -0.7196 0.5548 0.4176
vn -0.5066 0.5474 0.6661
vn 0.4311 0.8971 0.0964
vn 0.3135 0.9442 0.1006
vn 0.5003 0.8634 -0.0654
vn -0.6880 0.7228 0.0657
vn -0.4958 0.8669 0.0514
vn -0.6269 0.7787 0.0229
vn 0.2719 0.9594 0.0750
vn -0.9529 0.2593 0.1576
vn -0.9062 0.4229 0.0075
vn -0.5975 0.7563 0.2665
vn 0.7742 0.6283 -0.0759
vn 0.4513 0.8452 -0.2861
vn -0.1079 0.9074 0.4062
vn -0.5852 -0.8028 -0.1142
vn -0.3437 -0.7708 -0.5363
vn -0.5404 -0.8103 0.2267
vn -0.6172 -0.7809 -0.0962
vn -0.2977 -0.8887 -0.3488
vn -0.5760 -0.6897 0.4389
vn -0.3171 -0.9378 0.1411
vn 0.2151 0.3653 -0.9057
vn 0.3428 0.2663 -0.9009
vn -0.3050 -0.9453 0.1158
vn -0.2733 -0.7576 0.5927
vn -0.2738 -0.8736 0.4024
vn -0.0991 0.5188 0.8492
vn -0.2795 0.5507 0.7865
vn -0.1977 -0.7899 0.5805
vn 0.5328 0.6635 -0.5252
vn 0.1318 0.9048 0.4050
vn 0.0523 0.7532 -0.6557
vn -0.0179 0.8670 -0.4979
vn 0.3266 0.7650 -0.5550
vn 0.4514 0.8923 -0.0033
vn 0.3143 0.9441 0.0991
vn 0.6410 0.6745 0.3663
vn 0.0888 -0.3143 -0.9452
vn 0.4095 -0.3938 -0.8229
vn -0.6424 -0.7640 -0.0607
vn -0.4459 -0.8929 -0.0618
vn -0.5420 -0.8307 0.1272
vn -0.5283 -0.8421 0.1087
vn -0.3584 -0.8370 0.4135
vn -0.3478 -0.2256 0.9100
vn -0.3000 -0.6553 0.6932
vn -0.1646 -0.7733 0.6123
vn 0.6983 0.5321 -0.4788
vn 0.2983 0.6899 0.6596
vn 0.6738 -0.4377 -0.5953
vn 0.7508 -0.4782 -0.4556
vn 0.4748 -0.6579 -0.5847
vn -0.4906 -0.8704 -0.0415
vn -0.0871 -0.9196 -0.3831
vn 0.6271 -0.0605 -0.7766
vn 0.7973 0.1133 -0.5928
vn -0.5280 -0.7731 0.3516
vn -0.6028 -0.4127 0.6829
vn -0.2419 -0.7254 0.6444
vn -0.4312 -0.7186 0.5456
vn 0.2367 -0.4832 0.8429
vn 0.8794 0.4034 -0.2526
vn 0.4289 -0.0135 0.9032
vn 0.2287 0.4333 0.8717
vn 0.3217 -0.8932 -0.3142
vn 0.3652 -0.9121 -0.1864
vn 0.8926 -0.2304 -0.3875
vn 0.8560 -0.3844 -0.3457
vn -0.4081 -0.9122 -0.0357
vn 0.2722 -0.8577 -0.4362
vn -0.5528 -0.8105 0.1936
vn -0.6857 -0.6759 0.2701
vn 0.1412 -0.7920 0.5940
vn 0.3915 -0.5614 0.7291
vn 0.8953 0.3759 0.2391
vn 0.8952 -0.3920 -0.2121
vn 0.7741 -0.5781 -0.2580
vn 0.9229 -0.3764 0.0811
vn -0.5755 -0.7734 0.2656
vn 0.9508 -0.0545 -0.3050
vn 0.9976 0.0354 -0.0601
vn 0.7610 -0.5501 0.3438
vn 0.4719 -0.7654 0.4376
vn 0.9875 -0.0495 0.1496
vn 0.4577 -0.7657 0.4519
vn 0.9337 -0.0875 0.3471
vn 0.8656 0.5007 -0.0015
usemtl mtl1
s 1
f 3//1 2//2 1//3
f 4//4 3//1 1//3
f 4//4 1//3 5//5
f 4//4 5//5 6//6
f 4//4 6//6 7//7
f 8//8 1//3 2//2
f 1//3 8//8 9//9
f 9//9 8//8 10//10
f 5//5 1//3 9//9
f 12//11 2//2 3//1
f 13//12 2//2 12//11
f 12//11 14//13 13//12
f 8//8 2//2 13//12
f 15//14 6//6 5//5
f 6//6 15//14 16//15
f 6//6 16//15 17//16
f 3//1 4//4 7//7
f 14//13 12//11 7//7
f 14//13 7//7 6//6
f 18//17 14//13 6//6
f 6//6 17//16 18//17
f 10//10 11//18 9//9
f 19//19 20//20 21//21
f 20//20 22//22 21//21
f 21//21 23//23 19//19
f 24//24 25//25 20//20
f 20//20 19//19 24//24
f 28//26 29//27 30//28
f 32//29 33//29 34//29
f 30//28 29//27 35//30
f 36//31 37//32 38//33
f 36//31 39//34 37//32
f 40//35 39//34 29//27
f 8//8 42//36 41//37
f 11//18 43//38 9//9
f 43//38 5//5 9//9
f 5//5 43//38 15//14
f 22//22 44//39 21//21
f 43//38 45//40 15//14
f 46//41 44//39 22//22
f 43//38 47//42 45//40
f 11//18 48//43 43//38
f 48//43 11//18 49//44
f 50//45 51//45 52//46
f 53//47 44//39 54//48
f 21//21 44//39 53//47
f 55//49 56//49 57//49
f 45//40 47//42 58//50
f 45//40 59//51 15//14
f 61//52 11//18 60//53
f 50//45 62//54 51//45
f 46//41 22//22 64//55
f 25//25 22//22 20//20
f 22//22 25//25 64//55
f 65//56 66//57 26//58
f 68//59 69//60 67//61
f 70//62 67//61 69//60
f 31//63 26//58 66//57
f 71//64 31//63 66//57
f 71//64 66//57 72//65
f 73//66 74//67 75//68
f 74//67 76//69 75//68
f 77//70 75//68 76//69
f 37//32 39//34 78//71
f 37//32 78//71 81//72
f 78//71 82//73 83//74
f 84//75 41//37 91//76
f 14//13 85//77 13//12
f 87//78 88//79 89//79
f 89//79 88//79 90//80
f 8//8 13//12 42//36
f 13//12 86//81 42//36
f 18//17 106//82 91//76
f 91//76 41//37 42//36
f 15//14 92//83 16//15
f 16//15 59//51 93//84
f 17//16 16//15 93//84
f 17//16 106//82 18//17
f 94//85 106//82 17//16
f 93//84 94//85 17//16
f 92//83 15//14 59//51
f 59//51 95//86 93//84
f 96//87 97//88 93//84
f 97//88 94//85 93//84
f 97//88 98//89 94//85
f 97//88 99//90 98//89
f 71//64 72//65 96//87
f 72//65 97//88 96//87
f 67//61 98//89 99//90
f 70//62 100//91 101//92
f 101//92 102//93 104//94
f 105//95 84//75 106//82
f 91//76 106//82 84//75
f 106//82 94//85 107//96
f 94//85 108//97 107//96
f 98//89 109//98 94//85
f 11//18 10//10 110//99
f 11//18 110//99 60//53
f 110//99 23//23 60//53
f 111//100 19//19 110//99
f 110//99 19//19 23//23
f 112//101 24//24 19//19
f 113//102 27//103 26//58
f 40//35 114//104 115//105
f 113//102 26//58 31//63
f 113//102 31//63 116//106
f 28//26 40//35 29//27
f 41//37 117//107 118//108
f 118//108 8//8 41//37
f 45//40 63//109 119//110
f 95//86 59//51 45//40
f 119//110 95//86 45//40
f 120//111 121//112 122//113
f 46//41 64//55 123//114
f 124//115 120//111 122//113
f 126//116 127//117 96//87
f 96//87 93//84 126//116
f 25//25 24//24 128//118
f 129//119 64//55 25//25
f 128//118 125//120 25//25
f 130//121 131//122 132//123
f 130//121 133//124 131//122
f 134//125 135//126 125//120
f 127//117 134//125 125//120
f 120//111 124//115 136//127
f 137//128 138//128 139//128
f 133//124 130//121 140//129
f 141//130 142//131 93//84
f 93//84 142//131 126//116
f 143//132 144//132 145//132
f 127//117 146//133 96//87
f 96//87 146//133 31//63
f 24//24 147//134 128//118
f 128//118 146//133 125//120
f 146//133 127//117 125//120
f 147//134 31//63 146//133
f 82//73 78//71 39//34
f 39//34 149//135 82//73
f 149//135 103//136 82//73
f 149//135 148//137 103//136
f 150//138 149//135 39//34
f 153//139 117//107 84//75
f 153//139 84//75 105//95
f 117//107 41//37 84//75
f 141//130 93//84 95//86
f 98//89 67//61 154//140
f 154//140 70//62 101//92
f 154//140 101//92 104//94
f 67//61 70//62 154//140
f 155//141 104//94 102//93
f 156//142 104//94 155//141
f 157//143 158//144 159//145
f 108//97 94//85 160//146
f 109//98 160//146 94//85
f 108//97 160//146 161//147
f 162//148 163//149 158//144
f 158//144 163//149 159//145
f 154//140 164//150 98//89
f 164//150 109//98 98//89
f 154//140 104//94 165//151
f 154//140 165//151 164//150
f 165//151 104//94 168//152
f 105//95 106//82 107//96
f 170//153 157//154 105//95
f 171//155 172//155 173//155
f 110//99 10//10 174//156
f 112//101 19//19 111//100
f 10//10 8//8 118//108
f 118//108 177//157 10//10
f 24//24 112//101 178//158
f 178//158 147//134 24//24
f 116//106 147//134 178//158
f 116//106 31//63 147//134
f 179//159 116//106 178//158
f 179//159 175//160 116//106
f 178//158 180//161 179//159
f 175//160 113//102 116//106
f 175//160 40//35 115//105
f 175//160 197//162 40//35
f 117//107 153//139 181//163
f 182//164 118//108 181//163
f 149//135 151//165 148//137
f 149//135 184//166 151//165
f 152//167 151//165 184//166
f 185//168 183//169 156//142
f 152//167 184//166 186//170
f 181//163 153//139 182//164
f 182//164 153//139 187//171
f 183//169 104//94 156//142
f 104//94 183//169 169//172
f 188//173 153//139 105//95
f 187//171 153//139 188//173
f 105//95 189//174 188//173
f 159//145 187//171 190//175
f 157//154 189//174 105//95
f 166//176 159//145 163//149
f 167//177 191//178 166//176
f 166//176 191//178 159//145
f 104//94 169//172 167//177
f 192//179 193//180 177//157
f 174//156 10//10 177//157
f 174//156 111//100 110//99
f 111//100 174//156 194//181
f 195//182 180//161 196//183
f 180//161 195//182 179//159
f 176//184 175//160 179//159
f 195//182 176//184 179//159
f 197//162 175//160 176//184
f 198//185 39//34 40//35
f 197//162 198//185 40//35
f 192//179 177//157 118//108
f 118//108 182//164 192//179
f 199//186 39//34 198//185
f 199//186 200//187 39//34
f 200//187 184//166 39//34
f 150//138 39//34 184//166
f 186//170 184//166 201//188
f 203//189 182//164 187//171
f 187//171 159//145 203//189
f 204//190 169//172 183//169
f 204//190 183//169 185//168
f 205//191 206//192 207//193
f 208//194 111//100 194//181
f 196//183 112//101 111//100
f 177//157 193//180 209//195
f 174//156 177//157 209//195
f 210//196 192//179 211//197
f 210//196 205//191 193//180
f 205//191 210//196 211//197
f 193//180 207//193 209//195
f 193//180 205//191 207//193
f 176//184 195//182 196//183
f 196//183 212//198 176//184
f 212//198 197//162 176//184
f 199//186 198//185 213//199
f 228//200 213//199 214//201
f 192//179 182//164 211//197
f 199//186 213//199 228//200
f 199//186 228//200 215//202
f 200//187 215//202 184//166
f 211//197 182//164 203//189
f 217//203 203//189 159//145
f 218//204 204//190 202//205
f 201//188 184//166 218//204
f 191//178 167//177 169//172
f 191//178 169//172 204//190
f 202//205 204//190 185//168
f 219//206 220//206 221//207
f 222//208 223//209 206//192
f 196//183 111//100 208//194
f 196//183 208//194 224//210
f 220//206 219//206 225//211
f 196//183 226//212 227//213
f 212//198 196//183 227//213
f 222//208 206//192 205//191
f 197//162 212//198 198//185
f 212//198 216//214 198//185
f 198//185 216//214 214//201
f 205//191 211//197 222//208
f 229//215 215//202 228//200
f 228//200 214//201 216//214
f 211//197 203//189 217//203
f 222//208 211//197 217//203
f 230//216 159//145 191//178
f 184//166 215//202 218//204
f 191//178 204//190 218//204
f 232//217 231//218 223//209
f 226//212 196//183 224//210
f 233//219 231//218 232//217
f 226//212 234//220 227//213
f 223//209 222//208 236//221
f 223//209 236//221 232//217
f 232//217 236//221 237//222
f 232//217 237//222 233//219
f 235//223 239//224 233//219
f 235//223 233//219 238//225
f 239//224 235//223 240//226
f 216//214 239//224 240//226
f 235//223 238//225 241//227
f 217//203 236//221 222//208
f 217//203 237//222 236//221
f 237//222 217//203 242//228
f 217//203 159//145 242//228
f 237//222 242//228 238//225
f 241//227 238//225 230//216
f 229//215 228//200 216//214
f 229//215 218//204 215//202
f 216//214 240//226 229//215
f 218//204 229//215 241//227
f 241//227 230//216 218//204
f 230//216 242//228 159//145
f 242//228 230//216 238//225
f 191//178 218//204 230//216
f 233//219 237//222 238//225
l 79 80
