#
# The license for this database is specified in the Creative Commons Attribution-Share Alike 2.1 Japan. If you use data from this database, please be sure attribute this database as follows: "BodyParts3D, (c)  The Database Center for Life Science licensed under CC Attribution-Share Alike 2.1 Japan".
# http://dbarchive.biosciencedbc.jp/en/bodyparts3d/lic.html
#
#
# Compatibility version : 4.0
# File ID : FJ1380
# Representation ID : BP5095
# Build-up logic : FMA 3.0 is_a
# Concept ID : FMA49067
# English name : Trochlea of right superior oblique
# Bounds(mm): (-16.726300,-165.341400,1532.426300)-(-12.455600,-162.320800,1536.064500)
# Volume(cm3): 0.009800
#
v -16.4922 -164.582 1533.83
v -16.6323 -164.346 1534.03
v -16.5013 -164.638 1534.23
v -16.5846 -164.375 1534.37
v -16.1519 -164.145 1532.88
v -15.9087 -164.586 1533.13
v -16.4403 -164.345 1533.34
v -16.1587 -164.604 1533.31
v -15.9675 -164.819 1533.66
v -15.8555 -165.01 1534.23
v -16.5088 -163.96 1533.23
v -16.6058 -163.636 1533.37
v -16.3971 -163.686 1533.04
v -16.6235 -164.091 1533.55
v -16.1899 -164.931 1534.23
v -15.9554 -165.028 1534.75
v -16.7115 -163.721 1533.72
v -16.6959 -163.441 1533.76
v -16.6505 -163.408 1533.54
v -16.3703 -164.543 1534.74
v -16.7126 -163.641 1534.01
v -16.6769 -163.463 1534.06
v -16.5776 -163.751 1534.53
v -16.0603 -164.661 1535.09
v -15.4057 -164.469 1532.97
v -15.7123 -164.215 1532.67
v -15.7201 -164.674 1533.4
v -15.6785 -164.59 1533.14
v -15.4946 -164.528 1533.18
v -15.9691 -163.594 1532.67
v -15.5452 -164.511 1533.53
v -15.6837 -164.757 1533.83
v -15.5809 -164.579 1533.83
v -15.5355 -164.85 1534.23
v -15.2856 -165.076 1534.65
v -16.3343 -163.196 1533.06
v -15.4716 -165.148 1534.71
v -16.5484 -163.328 1533.33
v -16.4647 -163.08 1533.45
v -16.6205 -163.271 1533.61
v -16.3841 -163.053 1533.69
v -16.6615 -163.34 1533.83
v -16.5653 -163.179 1533.72
v -16.5471 -163.262 1534.04
v -16.2896 -163.374 1534.52
v -16.4678 -163.501 1534.56
v -16.1284 -163.86 1535.18
v -15.2941 -163.957 1532.47
v -15.2938 -164.36 1532.77
v -15.0465 -164.369 1533.01
v -15.5546 -163.629 1532.48
v -15.6769 -163.891 1532.54
v -15.3125 -164.347 1533.35
v -15.5197 -164.26 1533.67
v -15.2166 -164.097 1533.43
v -15.1471 -164.86 1534.58
v -15.9767 -162.917 1532.9
v -16.1412 -162.89 1533.1
v -15.5868 -164.259 1534.02
v -15.3322 -164.506 1534.41
v -16.3064 -162.955 1533.4
v -16.0568 -162.923 1533.48
v -16.0898 -163.071 1533.69
v -15.939 -163.021 1533.56
v -15.9653 -163.389 1533.98
v -15.7621 -163.72 1534.35
v -15.2627 -165.1 1535.37
v -16.2053 -163.237 1534.1
v -16.0461 -163.397 1534.39
v -15.7904 -163.549 1534.77
v -15.5147 -164.547 1535.56
v -16.0209 -163.617 1535.12
v -15.8743 -163.52 1534.92
v -15.8083 -164.075 1535.48
v -15.8625 -163.775 1535.38
v -14.8539 -163.701 1532.47
v -14.7476 -164.278 1532.86
v -14.8438 -164.102 1532.6
v -14.7515 -164.271 1533.13
v -15.1717 -163.446 1532.44
v -15.0155 -164.319 1533.16
v -14.669 -163.897 1533.49
v -15.5934 -163.023 1532.63
v -15.5435 -162.644 1532.92
v -15.6737 -162.825 1533.33
v -15.5974 -162.649 1533.1
v -15.6706 -163.172 1533.52
v -14.4644 -165.23 1535.76
v -14.3977 -165.317 1535.58
v -15.2597 -164.067 1534.72
v -14.8069 -164.884 1535.81
v -15.4924 -163.594 1535.04
v -15.663 -163.606 1535.34
v -14.2853 -164.246 1533.2
v -14.7953 -163.169 1532.52
v -14.3478 -164.156 1533.38
v -15.4456 -162.694 1532.78
v -15.202 -162.815 1532.63
v -14.1304 -165.193 1535.4
v -15.1996 -162.619 1533.21
v -14.8144 -163.066 1533.54
v -14.0863 -165.317 1535.67
v -14.1706 -165.308 1535.76
v -14.2057 -165.244 1535.84
v -14.1456 -165.278 1535.51
v -14.0544 -165.278 1535.8
v -14.0366 -165.226 1535.85
v -13.8941 -165.206 1535.6
v -13.8967 -165.239 1535.72
v -13.9173 -165.203 1535.83
v -13.9919 -165.082 1535.92
v -13.9349 -165.08 1535.46
v -14.5985 -164.716 1535.95
v -14.3844 -165.073 1535.9
v -14.1646 -165.128 1535.91
v -14.2282 -164.892 1535.97
v -14.5729 -164.177 1536.04
v -14.8347 -163.72 1535.92
v -15.0654 -164.016 1535.89
v -13.9239 -164.009 1532.94
v -14.2632 -163.198 1532.7
v -14.6094 -162.732 1532.73
v -15.036 -162.554 1532.85
v -15.0456 -162.508 1533.03
v -14.1803 -164.503 1535.23
v -13.9109 -164.819 1535.41
v -13.7543 -164.642 1535.62
v -13.805 -165.157 1535.7
v -13.8144 -165.153 1535.78
v -13.7874 -165.062 1535.61
v -13.798 -164.94 1535.88
v -13.726 -164.948 1535.77
v -14.2789 -163.811 1535.49
v -14.3702 -163.585 1535.68
v -14.218 -163.988 1536.05
v -14.6152 -163.547 1535.78
v -14.6646 -163.835 1536.03
v -14.4195 -163.839 1536.06
v -14.4413 -163.671 1536
v -14.283 -163.735 1536.03
v -13.4121 -164.176 1533.67
v -14.235 -162.714 1532.88
v -14.4931 -162.441 1533.06
v -14.3682 -162.591 1533.58
v -14.2564 -162.386 1533.33
v -13.8996 -163.969 1535.7
v -13.8224 -164.186 1535.91
v -14.1856 -163.636 1535.91
v -14.0302 -163.823 1535.98
v -13.9679 -163.794 1535.8
v -13.9863 -164.19 1536.01
v -12.8945 -164.09 1533.63
v -12.8731 -164.133 1533.76
v -12.9297 -164.054 1534.01
v -12.7771 -164.11 1533.91
v -12.8835 -163.279 1533.53
v -12.8038 -163.791 1533.55
v -12.7593 -163.942 1533.6
v -12.6669 -164.066 1533.79
v -12.6609 -164.082 1533.88
v -12.6323 -164.003 1533.75
v -12.6241 -163.892 1533.7
v -12.5736 -164.016 1533.87
v -12.5213 -163.91 1533.87
v -12.6138 -163.69 1533.71
v -12.5318 -163.801 1533.82
v -12.5034 -163.927 1534
v -12.4829 -163.816 1533.94
v -12.6344 -163.992 1534.11
v -12.5654 -163.985 1534.06
v -12.559 -163.912 1534.17
v -12.5158 -163.874 1534.16
v -12.8985 -163.826 1534.22
v -12.6745 -163.93 1534.18
v -12.5867 -163.785 1534.27
v -13.2241 -162.605 1533.54
v -13.4345 -162.362 1533.63
v -13.0761 -163.241 1534.36
v -12.7213 -163.507 1534.41
v -13.5203 -162.341 1533.86
v -12.532 -163.508 1533.89
v -12.4643 -163.603 1534.05
v -12.6879 -163.16 1533.78
v -12.5463 -163.059 1534.12
v -12.473 -163.738 1534.17
v -12.5707 -163.513 1534.38
v -12.4982 -163.22 1534.26
v -12.8143 -162.763 1533.83
v -12.9211 -162.447 1534.02
v -12.7909 -162.902 1534.46
v -12.6718 -162.762 1534.07
v -12.5596 -162.977 1534.35
v -12.7041 -162.803 1534.42
v -12.6139 -162.787 1534.26
v -12.7319 -163.273 1534.46
v -12.5922 -163.105 1534.43
v -13.2856 -162.467 1534.15
v -13.0699 -162.38 1534.12
v -12.9195 -162.554 1534.33
v -12.8045 -162.524 1534.23
v -13.0736 -162.821 1534.37
v -15.8555 -165.01 1534.23
v -15.5452 -164.511 1533.53
v -15.5809 -164.579 1533.83
v -15.5355 -164.85 1534.23
v -15.5355 -164.85 1534.23
v -15.5197 -164.26 1533.67
v -15.5197 -164.26 1533.67
v -15.2166 -164.097 1533.43
v -15.2166 -164.097 1533.43
v -15.3322 -164.506 1534.41
v -15.9653 -163.389 1533.98
v -15.6706 -163.172 1533.52
v -15.6706 -163.172 1533.52
v -15.1996 -162.619 1533.21
v -14.4931 -162.441 1533.06
v -13.8996 -163.969 1535.7
v -13.8224 -164.186 1535.91
v -14.1856 -163.636 1535.91
v -14.0302 -163.823 1535.98
v -13.9679 -163.794 1535.8
v -13.5203 -162.341 1533.86
v -12.5707 -163.513 1534.38
v -12.5596 -162.977 1534.35
v -12.6139 -162.787 1534.26
v -12.7319 -163.273 1534.46
v -12.8045 -162.524 1534.23
vn -0.777477 -0.582109 -0.238072
vn -0.963685 -0.265741 -0.0263231
vn -0.816804 -0.565374 0.114822
vn -0.944733 -0.211828 0.250218
vn -0.584571 -0.354277 -0.729907
vn -0.198921 -0.796283 -0.571283
vn -0.761583 -0.448817 -0.467498
vn -0.478498 -0.747797 -0.460261
vn 0.0250859 -0.942172 -0.334188
vn -0.231775 -0.962176 -0.143173
vn -0.833768 -0.174311 -0.523877
vn -0.912675 0.00120627 -0.408684
vn -0.762881 0.0156504 -0.64635
vn -0.927803 -0.237633 -0.287599
vn -0.469303 -0.868676 -0.158608
vn -0.480933 -0.851602 0.208513
vn -0.988209 -0.0360441 -0.148805
vn -0.97743 0.206697 -0.0436684
vn -0.948877 0.169402 -0.266337
vn -0.820471 -0.33572 0.462731
vn -0.992255 0.0137272 0.123454
vn -0.909432 0.337223 0.24334
vn -0.90002 0.0855651 0.427366
vn -0.662214 -0.386679 0.641835
vn 0.231144 -0.932538 -0.277389
vn -0.24354 -0.541459 -0.80468
vn 0.479441 -0.863313 -0.157567
vn 0.187164 -0.923273 -0.335466
vn 0.44324 -0.890879 0.0993617
vn -0.538763 0.0939088 -0.837207
vn 0.806314 -0.590699 0.0305468
vn 0.620963 -0.737684 -0.265004
vn 0.941289 -0.322754 -0.0990226
vn 0.837711 -0.401539 -0.370144
vn 0.34488 -0.735224 -0.583526
vn -0.72328 0.338906 -0.601671
vn -0.00233026 -0.97112 -0.23858
vn -0.862562 0.265115 -0.43093
vn -0.739642 0.648682 -0.179282
vn -0.892143 0.425058 -0.152994
vn -0.292599 0.900966 0.320385
vn -0.879931 0.465603 0.0945299
vn -0.722177 0.685523 0.092293
vn -0.543326 0.769767 0.335047
vn -0.110718 0.920825 0.373928
vn -0.680836 0.538616 0.496341
vn -0.736746 0.142515 0.66098
vn -0.0403795 -0.302855 -0.952181
vn 0.0676095 -0.78614 -0.614339
vn 0.33789 -0.914367 0.223076
vn -0.259069 0.0570495 -0.964172
vn -0.361687 -0.177794 -0.915189
vn 0.619828 -0.590795 0.516502
vn 0.98644 0.0542145 0.154908
vn 0.413578 -0.581533 0.700551
vn 0.563918 -0.259184 -0.784104
vn -0.511972 0.517047 -0.685964
vn -0.577366 0.755924 -0.308588
vn 0.950751 0.293775 -0.0988373
vn 0.87839 -0.341836 -0.334035
vn -0.436619 0.893712 0.103163
vn 0.00282856 0.843846 0.536578
vn 0.314915 0.764163 0.562925
vn 0.297585 0.631337 0.71614
vn 0.68693 0.168517 0.706915
vn 0.759048 0.590184 -0.274826
vn -0.448983 -0.697311 0.558723
vn 0.222596 0.904282 0.364314
vn 0.512628 0.850923 0.11464
vn 0.460731 0.876373 -0.14035
vn -0.507159 -0.314999 0.802225
vn -0.424864 0.72342 0.5442
vn 0.117131 0.978033 0.172428
vn -0.597814 -0.0362316 0.800816
vn -0.517289 0.397228 0.758038
vn 0.241486 -0.102767 -0.964947
vn 0.238073 -0.94588 -0.220526
vn 0.220235 -0.558261 -0.799901
vn 0.0977641 -0.889628 0.4461
vn -0.0534095 0.128441 -0.990278
vn 0.356369 -0.787093 0.503473
vn -0.228118 -0.507907 0.830658
vn -0.319803 0.334973 -0.886295
vn -0.335221 0.884646 -0.324082
vn 0.0669873 0.668456 0.740729
vn -0.24949 0.932544 0.26099
vn 0.735436 0.297017 0.609029
vn -0.316575 -0.727824 0.60832
vn -0.139402 -0.987121 0.078476
vn 0.575074 0.520446 -0.63121
vn -0.413721 -0.379854 0.827373
vn 0.301707 0.909624 -0.285582
vn -0.216615 0.885797 0.410415
vn -0.00481075 -0.975975 0.217829
vn 0.169773 0.228106 -0.958721
vn -0.176117 -0.781421 0.598635
vn -0.285284 0.666936 -0.688339
vn -0.0717606 0.469817 -0.879842
vn 0.440007 -0.606665 -0.662082
vn -0.233652 0.856403 0.460413
vn -0.308347 0.152337 0.938997
vn 0.204509 -0.978791 -0.0120145
vn -0.0653735 -0.918146 0.390813
vn -0.113314 -0.662036 0.740856
vn 0.267218 -0.88232 -0.387436
vn 0.197076 -0.859879 0.470923
vn 0.121937 -0.592545 0.796255
vn 0.573465 -0.680905 -0.455529
vn 0.499861 -0.865503 0.0322921
vn 0.419194 -0.622369 0.661009
vn 0.210318 -0.279474 0.936835
vn 0.596511 -0.36849 -0.713015
vn -0.274853 -0.211892 0.937847
vn -0.244199 -0.404116 0.881508
vn -0.0369981 -0.401853 0.914956
vn -0.0163163 -0.171005 0.985135
vn -0.149519 -0.0827682 0.985289
vn -0.338825 0.541518 0.769387
vn -0.414965 -0.00596065 0.909818
vn 0.425145 -0.399333 -0.812272
vn 0.436705 0.141126 -0.888466
vn 0.196331 0.523519 -0.829085
vn -0.0843102 0.832304 -0.54787
vn -0.194664 0.980688 0.0188688
vn 0.615447 0.178766 -0.767637
vn 0.677899 -0.0542892 -0.733148
vn 0.90267 0.112799 -0.415287
vn 0.81521 -0.56838 -0.111256
vn 0.736383 -0.546753 0.3985
vn 0.83306 -0.280585 -0.476742
vn 0.588154 -0.196701 0.784464
vn 0.975214 -0.169214 0.142567
vn 0.489474 0.54244 -0.68277
vn 0.345278 0.884221 -0.314542
vn 0.128102 0.025401 0.991436
vn -0.0412982 0.961485 0.271736
vn -0.237504 0.189944 0.952635
vn -0.0375765 0.144742 0.988756
vn -0.0710515 0.604493 0.793436
vn 0.170941 0.388838 0.905309
vn -0.0720899 -0.935122 0.346915
vn 0.363861 0.530631 -0.76553
vn 0.216538 0.710939 -0.669087
vn -0.398964 0.60872 0.685775
vn -0.175351 0.970413 0.165982
vn 0.615678 0.390853 -0.684233
vn 0.643517 0.0413969 0.764312
vn 0.269471 0.878694 0.394059
vn 0.35819 0.244421 0.901087
vn 0.835656 0.49156 0.245048
vn 0.31798 -0.0110963 0.948032
vn 0.392247 -0.731986 -0.557081
vn 0.217482 -0.966944 -0.133119
vn -0.137888 -0.775806 0.615721
vn 0.1468 -0.946838 0.286266
vn 0.621831 0.202903 -0.75641
vn 0.569118 -0.0362326 -0.821457
vn 0.543156 -0.354803 -0.760984
vn 0.499085 -0.790457 -0.355093
vn 0.425807 -0.90475 0.0107638
vn 0.663843 -0.48692 -0.567645
vn 0.732831 -0.151443 -0.663342
vn 0.74179 -0.648625 -0.170391
vn 0.884404 -0.27648 -0.376016
vn 0.752577 0.096903 -0.651335
vn 0.874048 -0.00169083 -0.485836
vn 0.906008 -0.42188 0.0341637
vn 0.974337 -0.068316 -0.214479
vn 0.184266 -0.82564 0.533258
vn 0.55562 -0.777902 0.29352
vn 0.415251 -0.660095 0.625972
vn 0.752289 -0.475919 0.45559
vn -0.237786 -0.489053 0.839217
vn 0.021104 -0.664707 0.746806
vn 0.331522 -0.455098 0.826425
vn 0.540619 0.455899 -0.707027
vn 0.257624 0.89051 -0.374996
vn -0.361628 -0.158729 0.918711
vn -0.0801844 -0.32826 0.941178
vn -0.352156 0.754112 0.554347
vn 0.893409 0.155121 -0.421614
vn 0.986626 0.0798647 -0.142092
vn 0.797437 0.254373 -0.547164
vn 0.939001 0.251297 -0.234792
vn 0.93694 -0.170603 0.305023
vn 0.254941 -0.218171 0.942022
vn 0.969163 0.0805748 0.232874
vn 0.701984 0.408415 -0.583452
vn 0.598867 0.72941 -0.330634
vn -0.0494417 0.124434 0.990995
vn 0.830036 0.444049 -0.337432
vn 0.965567 0.257579 -0.0365195
vn 0.518719 0.42044 0.74442
vn 0.906475 0.395384 -0.14824
vn -0.305741 -0.127656 0.943518
vn 0.587044 0.0695336 0.806563
vn -0.365195 0.542177 0.756754
vn 0.121729 0.947299 0.296323
vn -0.0134243 0.553701 0.832607
vn 0.792215 0.578264 -0.194951
vn -0.357587 0.165476 0.919102
vn 0.345761 -0.830197 -0.43729
vn 0.723636 -0.387973 0.570813
vn 0.876392 0.255246 -0.408395
vn 0.445135 -0.718914 -0.533871
vn 0.671079 -0.00328789 -0.741379
vn 0.710513 -0.4136 0.569304
vn 0.618883 0.0352244 0.784693
vn 0.68693 0.168517 0.706915
vn -0.0445505 -0.095718 0.994411
vn 0.704531 0.263927 -0.65877
vn 0.737178 0.632651 0.237319
vn 0.233262 0.572669 0.7859
vn -0.0101473 -0.109083 0.993981
vn -0.155143 0.45584 0.876436
vn -0.0536177 0.978685 -0.198243
vn 0.955573 0.290099 -0.0521769
vn 0.95615 0.282382 0.0777076
vn 0.660909 0.670857 0.336378
vn 0.760061 0.54692 0.350978
vn 0.533938 0.707319 -0.46326
vn 0.0598352 0.995676 -0.0710516
vn 0.833999 -0.114666 0.539719
vn 0.790916 0.260154 0.553869
vn 0.737471 0.498418 0.455759
vn 0.260906 -0.082026 0.961873
vn 0.478524 0.755438 0.447581
g grp1
usemtl mtl1
f 7//7 1//1 14//14 
f 7//7 8//8 1//1 
f 1//1 2//2 14//14 
f 3//3 2//2 1//1 
f 15//15 3//3 1//1 
f 2//2 3//3 4//4 
f 3//3 20//20 4//4 
f 8//8 7//7 5//5 
f 8//8 5//5 6//6 
f 9//9 8//8 6//6 
f 28//28 27//27 9//9 
f 11//11 5//5 7//7 
f 11//11 13//13 5//5 
f 30//30 5//5 13//13 
f 1//1 8//8 15//15 
f 8//8 9//9 15//15 
f 15//15 9//9 10//10 
f 32//32 9//9 27//27 
f 202//202 9//9 32//32 
f 38//38 13//13 12//12 
f 12//12 13//13 11//11 
f 7//7 14//14 11//11 
f 11//11 14//14 12//12 
f 16//16 20//20 3//3 
f 16//16 15//15 10//10 
f 3//3 15//15 16//16 
f 10//10 37//37 16//16 
f 37//37 89//89 16//16 
f 12//12 17//17 19//19 
f 12//12 14//14 17//17 
f 18//18 19//19 17//17 
f 18//18 17//17 21//21 
f 12//12 19//19 38//38 
f 18//18 40//40 19//19 
f 18//18 42//42 40//40 
f 2//2 17//17 14//14 
f 21//21 2//2 4//4 
f 2//2 21//21 17//17 
f 20//20 23//23 4//4 
f 24//24 47//47 20//20 
f 16//16 24//24 20//20 
f 22//22 42//42 18//18 
f 42//42 22//22 44//44 
f 21//21 4//4 23//23 
f 18//18 21//21 22//22 
f 22//22 21//21 23//23 
f 23//23 20//20 47//47 
f 26//26 5//5 52//52 
f 26//26 49//49 6//6 
f 5//5 26//26 6//6 
f 28//28 9//9 6//6 
f 49//49 28//28 6//6 
f 25//25 28//28 49//49 
f 28//28 29//29 27//27 
f 29//29 31//31 27//27 
f 28//28 25//25 29//29 
f 52//52 5//5 30//30 
f 31//31 32//32 27//27 
f 31//31 33//33 32//32 
f 34//34 32//32 33//33 
f 31//31 54//54 33//33 
f 60//60 34//34 33//33 
f 205//205 202//202 32//32 
f 35//35 37//37 202//202 
f 202//202 205//205 35//35 
f 211//211 56//56 206//206 
f 38//38 36//36 13//13 
f 30//30 13//13 36//36 
f 57//57 30//30 36//36 
f 36//36 39//39 58//58 
f 36//36 58//58 57//57 
f 89//89 67//67 16//16 
f 38//38 19//19 40//40 
f 38//38 40//40 39//39 
f 43//43 39//39 40//40 
f 41//41 39//39 43//43 
f 38//38 39//39 36//36 
f 61//61 58//58 39//39 
f 39//39 41//41 61//61 
f 24//24 16//16 67//67 
f 67//67 71//71 24//24 
f 42//42 44//44 43//43 
f 40//40 42//42 43//43 
f 44//44 41//41 43//43 
f 46//46 22//22 23//23 
f 44//44 22//22 46//46 
f 44//44 46//46 45//45 
f 47//47 24//24 74//74 
f 24//24 71//71 74//74 
f 47//47 46//46 23//23 
f 46//46 47//47 72//72 
f 45//45 46//46 72//72 
f 48//48 52//52 51//51 
f 26//26 52//52 48//48 
f 49//49 26//26 48//48 
f 48//48 78//78 49//49 
f 25//25 49//49 77//77 
f 77//77 29//29 25//25 
f 50//50 29//29 77//77 
f 51//51 52//52 30//30 
f 51//51 30//30 83//83 
f 29//29 53//53 31//31 
f 53//53 55//55 207//207 
f 81//81 53//53 29//29 
f 57//57 83//83 30//30 
f 203//203 53//53 207//207 
f 205//205 56//56 35//35 
f 209//209 65//65 208//208 
f 87//87 65//65 209//209 
f 54//54 212//212 59//59 
f 54//54 59//59 33//33 
f 59//59 211//211 204//204 
f 211//211 59//59 66//66 
f 211//211 66//66 90//90 
f 62//62 61//61 41//41 
f 63//63 62//62 41//41 
f 63//63 64//64 62//62 
f 86//86 61//61 62//62 
f 68//68 212//212 63//63 
f 63//63 41//41 68//68 
f 212//212 213//213 63//63 
f 213//213 64//64 63//63 
f 85//85 64//64 213//213 
f 68//68 69//69 212//212 
f 59//59 212//212 66//66 
f 68//68 41//41 44//44 
f 68//68 44//44 45//45 
f 69//69 68//68 45//45 
f 45//45 73//73 69//69 
f 72//72 73//73 45//45 
f 212//212 69//69 66//66 
f 69//69 73//73 70//70 
f 69//69 70//70 66//66 
f 71//71 67//67 91//91 
f 71//71 91//91 119//119 
f 72//72 47//47 75//75 
f 47//47 74//74 75//75 
f 93//93 73//73 72//72 
f 93//93 72//72 75//75 
f 48//48 80//80 76//76 
f 76//76 78//78 48//48 
f 78//78 76//76 120//120 
f 78//78 77//77 49//49 
f 78//78 120//120 77//77 
f 81//81 29//29 50//50 
f 81//81 50//50 79//79 
f 50//50 77//77 79//79 
f 79//79 77//77 94//94 
f 83//83 80//80 51//51 
f 80//80 83//83 98//98 
f 80//80 48//48 51//51 
f 81//81 55//55 53//53 
f 79//79 55//55 81//81 
f 79//79 82//82 55//55 
f 97//97 98//98 83//83 
f 82//82 101//101 210//210 
f 58//58 84//84 57//57 
f 97//97 83//83 57//57 
f 97//97 57//57 84//84 
f 86//86 84//84 58//58 
f 86//86 58//58 61//61 
f 85//85 100//100 86//86 
f 85//85 213//213 215//215 
f 211//211 125//125 56//56 
f 35//35 105//105 37//37 
f 105//105 89//89 37//37 
f 89//89 88//88 67//67 
f 88//88 89//89 103//103 
f 103//103 104//104 88//88 
f 62//62 85//85 86//86 
f 64//64 85//85 62//62 
f 90//90 66//66 92//92 
f 92//92 133//133 90//90 
f 90//90 133//133 211//211 
f 88//88 91//91 67//67 
f 88//88 114//114 91//91 
f 91//91 114//114 113//113 
f 116//116 113//113 114//114 
f 104//104 114//114 88//88 
f 70//70 73//73 92//92 
f 66//66 70//70 92//92 
f 119//119 74//74 71//71 
f 119//119 91//91 113//113 
f 92//92 73//73 93//93 
f 93//93 136//136 92//92 
f 93//93 75//75 118//118 
f 74//74 119//119 75//75 
f 76//76 80//80 95//95 
f 120//120 76//76 121//121 
f 76//76 95//95 121//121 
f 120//120 121//121 157//157 
f 79//79 94//94 96//96 
f 98//98 95//95 80//80 
f 98//98 122//122 95//95 
f 123//123 98//98 97//97 
f 84//84 123//123 97//97 
f 126//126 112//112 56//56 
f 56//56 112//112 99//99 
f 108//108 99//99 112//112 
f 215//215 213//213 101//101 
f 86//86 100//100 124//124 
f 86//86 124//124 84//84 
f 101//101 214//214 210//210 
f 56//56 125//125 126//126 
f 99//99 35//35 56//56 
f 105//105 35//35 99//99 
f 105//105 102//102 89//89 
f 102//102 103//103 89//89 
f 103//103 102//102 106//106 
f 104//104 103//103 106//106 
f 106//106 107//107 104//104 
f 104//104 115//115 114//114 
f 108//108 105//105 99//99 
f 108//108 109//109 105//105 
f 105//105 109//109 102//102 
f 106//106 102//102 109//109 
f 110//110 107//107 106//106 
f 107//107 115//115 104//104 
f 106//106 109//109 110//110 
f 111//111 115//115 107//107 
f 110//110 111//111 107//107 
f 128//128 109//109 108//108 
f 109//109 128//128 129//129 
f 110//110 109//109 129//129 
f 129//129 131//131 110//110 
f 131//131 111//111 110//110 
f 131//131 151//151 111//111 
f 114//114 115//115 116//116 
f 111//111 116//116 115//115 
f 111//111 151//151 116//116 
f 116//116 151//151 135//135 
f 119//119 113//113 117//117 
f 117//117 113//113 116//116 
f 135//135 117//117 116//116 
f 118//118 75//75 119//119 
f 93//93 118//118 136//136 
f 137//137 119//119 117//117 
f 118//118 119//119 137//137 
f 118//118 137//137 139//139 
f 95//95 122//122 121//121 
f 141//141 94//94 77//77 
f 96//96 94//94 141//141 
f 122//122 98//98 123//123 
f 143//143 122//122 123//123 
f 142//142 121//121 122//122 
f 79//79 96//96 82//82 
f 84//84 124//124 123//123 
f 216//216 123//123 124//124 
f 142//142 122//122 143//143 
f 145//145 124//124 100//100 
f 145//145 100//100 144//144 
f 144//144 215//215 101//101 
f 133//133 125//125 211//211 
f 126//126 127//127 130//130 
f 125//125 127//127 126//126 
f 130//130 112//112 126//126 
f 108//108 112//112 130//130 
f 108//108 130//130 128//128 
f 130//130 132//132 128//128 
f 132//132 129//129 128//128 
f 127//127 132//132 130//130 
f 129//129 132//132 131//131 
f 147//147 151//151 131//131 
f 134//134 133//133 92//92 
f 138//138 117//117 135//135 
f 135//135 140//140 138//138 
f 136//136 134//134 92//92 
f 136//136 139//139 148//148 
f 134//134 136//136 148//148 
f 137//137 138//138 139//139 
f 117//117 138//138 137//137 
f 139//139 136//136 118//118 
f 139//139 138//138 140//140 
f 140//140 148//148 139//139 
f 157//157 158//158 120//120 
f 120//120 152//152 77//77 
f 157//157 121//121 156//156 
f 82//82 96//96 141//141 
f 176//176 121//121 142//142 
f 178//178 101//101 82//82 
f 216//216 124//124 145//145 
f 143//143 177//177 142//142 
f 144//144 101//101 197//197 
f 133//133 146//146 125//125 
f 127//127 125//125 146//146 
f 127//127 217//217 218//218 
f 218//218 217//217 150//150 
f 132//132 127//127 218//218 
f 147//147 131//131 132//132 
f 134//134 221//221 133//133 
f 146//146 133//133 221//221 
f 221//221 134//134 148//148 
f 149//149 135//135 151//151 
f 149//149 140//140 135//135 
f 147//147 149//149 151//151 
f 218//218 150//150 220//220 
f 150//150 219//219 220//220 
f 149//149 148//148 140//140 
f 141//141 154//154 82//82 
f 77//77 153//153 141//141 
f 153//153 155//155 141//141 
f 154//154 141//141 155//155 
f 152//152 153//153 77//77 
f 158//158 152//152 120//120 
f 159//159 153//153 152//152 
f 159//159 160//160 153//153 
f 160//160 155//155 153//153 
f 82//82 173//173 178//178 
f 173//173 82//82 154//154 
f 142//142 177//177 176//176 
f 216//216 145//145 177//177 
f 144//144 180//180 145//145 
f 201//201 197//197 101//101 
f 156//156 165//165 157//157 
f 165//165 156//156 183//183 
f 158//158 161//161 152//152 
f 152//152 161//161 159//159 
f 161//161 163//163 159//159 
f 160//160 159//159 163//163 
f 160//160 163//163 170//170 
f 155//155 160//160 170//170 
f 158//158 162//162 161//161 
f 157//157 162//162 158//158 
f 157//157 165//165 162//162 
f 163//163 167//167 170//170 
f 166//166 162//162 165//165 
f 164//164 162//162 166//166 
f 161//161 162//162 164//164 
f 164//164 163//163 161//161 
f 164//164 167//167 163//163 
f 170//170 167//167 172//172 
f 168//168 164//164 166//166 
f 168//168 167//167 164//164 
f 167//167 185//185 172//172 
f 181//181 166//166 165//165 
f 168//168 166//166 181//181 
f 181//181 182//182 168//168 
f 185//185 167//167 168//168 
f 185//185 168//168 182//182 
f 155//155 169//169 154//154 
f 169//169 174//174 154//154 
f 169//169 155//155 170//170 
f 172//172 171//171 170//170 
f 170//170 171//171 169//169 
f 171//171 174//174 169//169 
f 171//171 175//175 174//174 
f 172//172 175//175 171//171 
f 172//172 185//185 175//175 
f 121//121 176//176 156//156 
f 156//156 176//176 188//188 
f 188//188 183//183 156//156 
f 178//178 173//173 179//179 
f 173//173 175//175 179//179 
f 186//186 179//179 175//175 
f 173//173 154//154 174//174 
f 175//175 173//173 174//174 
f 223//223 175//175 185//185 
f 201//201 101//101 178//178 
f 179//179 195//195 178//178 
f 180//180 144//144 197//197 
f 181//181 165//165 183//183 
f 182//182 181//181 184//184 
f 184//184 181//181 183//183 
f 183//183 188//188 191//191 
f 184//184 183//183 191//191 
f 185//185 187//187 223//223 
f 187//187 185//185 182//182 
f 184//184 187//187 182//182 
f 188//188 176//176 189//189 
f 191//191 188//188 189//189 
f 191//191 189//189 200//200 
f 190//190 201//201 178//178 
f 190//190 196//196 193//193 
f 193//193 199//199 190//190 
f 184//184 192//192 187//187 
f 196//196 224//224 193//193 
f 184//184 191//191 194//194 
f 192//192 184//184 194//194 
f 191//191 200//200 194//194 
f 225//225 227//227 193//193 
f 225//225 193//193 224//224 
f 186//186 226//226 179//179 
f 195//195 190//190 178//178 
f 196//196 223//223 187//187 
f 186//186 196//196 226//226 
f 196//196 190//190 226//226 
f 187//187 224//224 196//196 
f 177//177 145//145 222//222 
f 177//177 222//222 198//198 
f 189//189 176//176 177//177 
f 197//197 198//198 180//180 
f 198//198 197//197 199//199 
f 177//177 198//198 189//189 
f 189//189 198//198 227//227 
f 198//198 199//199 227//227 
f 227//227 199//199 193//193 
f 201//201 199//199 197//197 
f 199//199 201//201 190//190 
