#
# The license for this database is specified in the Creative Commons Attribution-Share Alike 2.1 Japan. If you use data from this database, please be sure attribute this database as follows: "BodyParts3D, (c)  The Database Center for Life Science licensed under CC Attribution-Share Alike 2.1 Japan".
# http://dbarchive.biosciencedbc.jp/en/bodyparts3d/lic.html
#
#
# Compatibility version : 4.0
# File ID : FJ2976
# Representation ID : BP9743
# Build-up logic : FMA 3.0 part_of
# Concept ID : FMA68683
# English name : Anterior branch of right anterior segmental artery
# Bounds(mm): (-33.648800,-141.006000,1267.570000)-(-20.907400,-138.424000,1272.189900)
# Volume(cm3): 0.041800
#
v -33.6488 -139.797 1270.38
v -33.4119 -138.829 1270.62
v -33.4805 -139.017 1270.61
v -33.0359 -138.937 1270.35
v -33.0352 -138.554 1271.23
v -32.8255 -138.624 1270.57
v -33.1284 -140.08 1270.13
v -33.4064 -140.612 1270.57
v -33.2949 -140.777 1270.97
v -32.9031 -140.98 1270.97
v -32.5448 -138.424 1271.16
v -32.5264 -138.528 1271.72
v -32.2269 -138.564 1271.6
v -32.6778 -138.914 1271.76
v -32.4599 -139.036 1272.04
v -32.4062 -138.787 1271.98
v -31.9795 -139.496 1272.04
v -32.4087 -140.058 1272.19
v -29.9908 -139.067 1269.04
v -30.4922 -139.745 1268.87
v -30.3074 -140.813 1269.28
v -29.6245 -140.265 1268.57
v -29.7136 -138.863 1270.49
v -29.4771 -139.3 1270.79
v -27.0899 -139.64 1267.83
v -27.659 -140.602 1268.15
v -26.2802 -138.899 1268.47
v -27.9762 -141.006 1269.1
v -27.685 -140.535 1270.12
v -25.9272 -140.318 1267.68
v -25.2036 -139.536 1267.57
v -26.3424 -139.236 1269.71
v -25.6573 -140.118 1269.78
v -24.3209 -140.678 1267.79
v -23.5925 -138.97 1268.91
v -23.615 -139.272 1269.35
v -25.0981 -140.613 1269.48
v -24.1825 -139.885 1269.61
v -20.9161 -139.284 1268.11
v -21.101 -140.485 1268.03
v -21.0542 -139.022 1268.93
v -21.4887 -139.1 1269.13
v -21.3698 -139.452 1269.49
v -21.4543 -139.829 1269.62
v -20.9273 -139.35 1268.35
v -21.0682 -139.671 1269.51
v -21.4646 -140.251 1269.56
v -20.9817 -140.519 1268.92
v -21.1368 -140.521 1269.41
v -21.095 -140.39 1269.49
v -20.9074 -140.558 1268.29
v -21.567 -140.803 1268.63
v -21.0045 -140.785 1268.89
v -33.6488 -139.797 1270.38
v -33.4119 -138.829 1270.62
v -33.4119 -138.829 1270.62
v -33.4805 -139.017 1270.61
v -33.0352 -138.554 1271.23
v -32.8255 -138.624 1270.57
v -33.4064 -140.612 1270.57
v -33.2949 -140.777 1270.97
v -33.2949 -140.777 1270.97
v -32.9031 -140.98 1270.97
v -32.9031 -140.98 1270.97
v -32.5264 -138.528 1271.72
v -32.4599 -139.036 1272.04
v -32.4062 -138.787 1271.98
v -32.4087 -140.058 1272.19
v -32.4087 -140.058 1272.19
v -32.4087 -140.058 1272.19
v -29.9908 -139.067 1269.04
v -27.685 -140.535 1270.12
v -25.9272 -140.318 1267.68
v -25.2036 -139.536 1267.57
v -26.3424 -139.236 1269.71
v -25.6573 -140.118 1269.78
v -24.3209 -140.678 1267.79
v -20.9161 -139.284 1268.11
v -20.9161 -139.284 1268.11
v -20.9161 -139.284 1268.11
v -21.101 -140.485 1268.03
v -21.101 -140.485 1268.03
v -21.0542 -139.022 1268.93
v -21.0682 -139.671 1269.51
v -21.1368 -140.521 1269.41
v -21.095 -140.39 1269.49
v -21.095 -140.39 1269.49
v -20.9074 -140.558 1268.29
v -20.9074 -140.558 1268.29
v -21.0045 -140.785 1268.89
vn -0.571034 0.117617 -0.812457
vn -0.557783 0.46076 -0.690347
vn -0.806054 0.320604 -0.497484
vn -0.370632 0.488277 -0.790074
vn -0.260523 0.964989 -0.0304054
vn -0.281705 0.674776 -0.682144
vn -0.450355 -0.248353 -0.857614
vn -0.417923 -0.645071 -0.639706
vn -0.892403 -0.062491 0.446892
vn -0.269952 -0.907982 -0.320459
vn -0.0559629 0.997142 -0.0507474
vn 0.10259 0.93767 0.332039
vn 0.272243 0.87913 0.39117
vn -0.771442 0.140599 0.620572
vn -0.734702 0.178411 0.654509
vn 0.33953 0.550044 0.763001
vn 0.311419 0.1511 0.938183
vn -0.795406 0.041108 0.604682
vn -0.257836 0.576323 -0.775482
vn -0.371278 0.175286 -0.911826
vn -0.223432 -0.806458 -0.547451
vn -0.335125 -0.327917 -0.883268
vn 0.213526 0.919388 0.330352
vn 0.347075 0.325441 0.87956
vn -0.224362 0.243956 -0.943476
vn -0.180201 -0.619589 -0.763961
vn -0.0131258 0.970474 -0.240847
vn 0.00742409 -0.9975 0.0702778
vn 0.124665 -0.885612 0.447382
vn -0.113285 -0.119527 -0.986347
vn -0.0565963 0.780457 -0.622643
vn 0.195667 0.352471 0.915139
vn 0.198471 0.227057 0.953444
vn -0.0148822 -0.889425 -0.456839
vn 0.0201069 0.925801 0.377476
vn 0.0409807 0.636496 0.770191
vn 0.0894176 -0.538114 0.838115
vn 0.0503747 0.0732373 0.996042
vn 0.0358375 0.900348 -0.433693
vn 0.102124 -0.040384 -0.993952
vn 0.144531 0.933383 0.328492
vn 0.0483111 0.807562 0.5878
vn 0.120481 0.53628 0.835397
vn 0.123133 0.0878128 0.988497
vn 0.98989 0.0734643 0.121332
vn 0.280779 0.191822 0.940408
vn 0.0850225 -0.252768 0.963784
vn 0.984655 -0.0566086 0.165074
vn 0.0172511 -0.686396 0.727023
vn -0.0292207 -0.513955 0.857319
vn 0.99299 -2.9439e-05 0.118197
vn 0.0933451 -0.959894 -0.264368
vn 0.930801 -0.2455 0.270812
vn -0.892995 -0.068569 0.444813
vn -0.310492 0.929494 -0.199084
vn -0.866719 0.294832 0.402333
vn -0.845948 0.110289 0.521736
vn -0.799216 0.219629 0.55948
vn -0.182072 0.954445 -0.236399
vn -0.955221 -0.245669 0.164923
vn -0.447545 -0.863771 -0.231524
vn -0.349236 -0.674033 0.650933
vn -0.349236 -0.674033 0.650933
vn 0.150697 -0.869841 0.469752
vn -0.674442 0.330284 0.660334
vn 0.14859 0.168897 0.974369
vn -0.684068 0.31542 0.657694
vn 0.26881 0.0467384 0.962059
vn -0.349236 -0.674033 0.650933
vn 0.159826 -0.817612 0.553142
vn 0.0101108 0.97958 -0.200799
vn 0.32062 -0.113551 0.940377
vn -0.0951189 -0.652098 -0.752144
vn 0.0239688 -0.065639 -0.997555
vn 0.0800108 0.924227 0.373368
vn 0.196739 -0.301828 0.932841
vn 0.0554657 -0.147448 -0.987513
vn 0.122098 0.0472038 -0.991395
vn 0.991344 0.107231 0.0757504
vn 0.788459 -0.0807927 -0.609758
vn 0.117316 -0.912841 -0.391098
vn 0.788459 -0.0807927 -0.609758
vn 0.987048 0.0881162 0.134061
vn 0.990575 0.0120069 0.136445
vn 0.73789 -0.507225 0.445243
vn 0.175698 -0.0339434 0.983859
vn 0.927218 -0.226229 0.298473
vn 0.788459 -0.0807927 -0.609758
vn 0.163527 -0.923873 -0.346001
vn 0.0887815 -0.994855 0.0488037
g grp1
usemtl mtl1
f 7//7 8//8 1//1 
f 6//6 4//4 2//2 
f 4//4 20//20 1//1 
f 4//4 1//1 2//2 
f 2//2 1//1 3//3 
f 11//11 59//59 55//55 
f 5//5 11//11 55//55 
f 56//56 57//57 58//58 
f 4//4 19//19 20//20 
f 4//4 6//6 19//19 
f 54//54 14//14 57//57 
f 14//14 58//58 57//57 
f 20//20 7//7 1//1 
f 22//22 7//7 20//20 
f 54//54 60//60 9//9 
f 8//8 7//7 22//22 
f 21//21 8//8 22//22 
f 10//10 8//8 21//21 
f 10//10 61//61 8//8 
f 28//28 10//10 21//21 
f 5//5 12//12 11//11 
f 65//65 58//58 14//14 
f 13//13 11//11 12//12 
f 16//16 13//13 12//12 
f 23//23 11//11 13//13 
f 16//16 23//23 13//13 
f 65//65 14//14 67//67 
f 9//9 14//14 54//54 
f 14//14 15//15 67//67 
f 18//18 15//15 14//14 
f 16//16 66//66 17//17 
f 17//17 66//66 68//68 
f 9//9 18//18 14//14 
f 69//69 62//62 63//63 
f 17//17 24//24 16//16 
f 70//70 64//64 29//29 
f 72//72 17//17 68//68 
f 28//28 29//29 64//64 
f 71//71 59//59 11//11 
f 23//23 71//71 11//11 
f 23//23 16//16 24//24 
f 22//22 25//25 26//26 
f 25//25 20//20 19//19 
f 20//20 25//25 22//22 
f 22//22 26//26 21//21 
f 23//23 24//24 32//32 
f 72//72 24//24 17//17 
f 24//24 33//33 32//32 
f 76//76 24//24 72//72 
f 31//31 25//25 27//27 
f 27//27 25//25 19//19 
f 23//23 27//27 71//71 
f 75//75 27//27 23//23 
f 26//26 28//28 21//21 
f 30//30 25//25 74//74 
f 30//30 26//26 25//25 
f 26//26 73//73 34//34 
f 28//28 26//26 34//34 
f 36//36 32//32 38//38 
f 75//75 35//35 27//27 
f 35//35 75//75 36//36 
f 38//38 32//32 33//33 
f 72//72 37//37 76//76 
f 37//37 29//29 28//28 
f 77//77 30//30 74//74 
f 74//74 40//40 77//77 
f 34//34 81//81 52//52 
f 27//27 35//35 41//41 
f 52//52 28//28 34//34 
f 38//38 76//76 37//37 
f 39//39 31//31 27//27 
f 36//36 38//38 43//43 
f 43//43 38//38 44//44 
f 41//41 35//35 42//42 
f 35//35 36//36 42//42 
f 43//43 42//42 36//36 
f 37//37 47//47 38//38 
f 49//49 37//37 28//28 
f 49//49 47//47 37//37 
f 27//27 41//41 39//39 
f 40//40 74//74 78//78 
f 45//45 51//51 79//79 
f 83//83 45//45 79//79 
f 80//80 88//88 82//82 
f 81//81 89//89 52//52 
f 42//42 43//43 41//41 
f 47//47 44//44 38//38 
f 41//41 43//43 46//46 
f 43//43 44//44 46//46 
f 46//46 44//44 47//47 
f 83//83 51//51 45//45 
f 51//51 83//83 84//84 
f 51//51 84//84 48//48 
f 47//47 49//49 50//50 
f 86//86 46//46 47//47 
f 84//84 87//87 48//48 
f 48//48 87//87 53//53 
f 85//85 53//53 87//87 
f 48//48 53//53 51//51 
f 90//90 49//49 28//28 
f 90//90 28//28 52//52 
f 89//89 90//90 52//52 
