#
# The license for this database is specified in the Creative Commons Attribution-Share Alike 2.1 Japan. If you use data from this database, please be sure attribute this database as follows: "BodyParts3D, (c)  The Database Center for Life Science licensed under CC Attribution-Share Alike 2.1 Japan".
# http://dbarchive.biosciencedbc.jp/en/bodyparts3d/lic.html
#
#
# Compatibility version : 4.0
# File ID : FJ2967
# Representation ID : BP9687
# Build-up logic : FMA 3.0 part_of
# Concept ID : FMA68662
# English name : Apical part of right apical segmental artery
# Bounds(mm): (-44.153300,-102.746000,1281.490000)-(-21.530600,-85.067000,1337.910000)
# Volume(cm3): 1.340500
#
v -44.041 -101.773 1336.43
v -43.7455 -101.748 1336.03
v -44.0716 -102.221 1336.52
v -43.2285 -102.353 1336.05
v -43.1917 -102.746 1336.41
v -42.7852 -102.472 1336.23
v -43.4802 -100.954 1337.31
v -42.839 -101.255 1337.65
v -44.1533 -101.596 1337.12
v -43.5886 -101.555 1337.81
v -42.9614 -101.839 1337.91
v -42.6496 -101.838 1337.8
v -42.2133 -102.193 1336.66
v -42.1926 -102.059 1337.08
v -42.5007 -102.518 1337.17
v -41.2396 -95.6764 1331.63
v -41.0566 -95.3547 1332.51
v -40.8754 -95.7189 1333.41
v -42.6905 -98.8487 1334.33
v -41.4859 -97.2568 1332.24
v -40.8358 -98.058 1332.39
v -40.6614 -99.0981 1333.68
v -41.9181 -99.4261 1333.81
v -42.2556 -97.7605 1334.77
v -41.2388 -97.43 1335.08
v -40.7672 -98.3881 1335.43
v -40.8485 -99.6723 1335.44
v -40.7077 -99.585 1334.67
v -39.6509 -92.6884 1327.86
v -39.5128 -94.1064 1327.48
v -39.0156 -92.2215 1328.82
v -40.1028 -93.7915 1328.68
v -39.9448 -93.5135 1330.49
v -39.1571 -93.1349 1330.48
v -38.8053 -93.3598 1330.78
v -40.8369 -95.5205 1330.61
v -40.5132 -96.3745 1330.69
v -40.1809 -94.963 1329.21
v -39.6272 -95.2661 1328.84
v -39.3418 -96.5383 1330.5
v -40.0552 -95.7181 1333.52
v -38.8554 -96.479 1332.47
v -38.6887 -96.436 1331.17
v -39.8528 -98.1883 1333.31
v -39.4497 -96.7689 1333.6
v -37.8363 -89.6048 1319.39
v -38.2456 -90.9699 1320.63
v -38.1422 -90.1669 1322.88
v -38.9741 -91.7812 1324.75
v -38.9063 -92.704 1324.83
v -38.266 -93.386 1324.64
v -38.7849 -91.3917 1326.65
v -37.7707 -90.6376 1325.95
v -37.032 -90.8651 1326.36
v -38.7862 -94.4957 1327.11
v -37.3351 -93.9486 1325.59
v -38.3084 -94.8436 1327.56
v -37.771 -94.7775 1327.7
v -38.3626 -92.1948 1329.06
v -37.6185 -94.0121 1330.21
v -37.2881 -92.526 1328.82
v -38.3867 -94.2656 1331.38
v -37.2734 -89.1282 1313.51
v -37.1246 -90.6796 1313.97
v -36.3784 -91.4377 1313.9
v -36.8204 -88.2716 1315.99
v -36.1253 -88.3895 1318.64
v -37.5205 -92.0585 1319.9
v -35.9623 -89.0493 1321.21
v -36.7165 -92.764 1321.19
v -37.2494 -89.6313 1323.12
v -36.8082 -89.8879 1324.15
v -35.9479 -90.1397 1323.96
v -35.2275 -91.6398 1323.61
v -35.3336 -90.585 1323.42
v -36.3828 -91.3671 1326.45
v -36.339 -93.2835 1326.62
v -36.0159 -92.2833 1326.32
v -35.9753 -87.2062 1308.1
v -34.4567 -91.4801 1311.22
v -35.0379 -92.0509 1319.77
v -34.9105 -89.1924 1319.98
v -34.9158 -91.848 1321.37
v -34.0424 -89.9397 1295.2
v -34.9606 -87.7663 1298.42
v -34.5664 -86.5761 1298.59
v -34.8298 -89.766 1299.87
v -34.1153 -85.6572 1301.4
v -35.7699 -88.412 1303.02
v -35.3362 -87.1462 1301.49
v -34.7473 -86.178 1301.55
v -33.9711 -85.6493 1304.01
v -35.0184 -86.274 1305.62
v -33.5484 -85.8597 1306.2
v -34.9869 -86.4342 1308.04
v -33.056 -86.2685 1307.68
v -32.7963 -88.5896 1312.4
v -32.7135 -89.9023 1312.37
v -33.2824 -90.9539 1311.69
v -32.9431 -91.1184 1291.07
v -33.7085 -88.3147 1293.58
v -33.2773 -85.6559 1297.36
v -32.2788 -85.1801 1297.65
v -33.9435 -86.7432 1296.08
v -32.6364 -91.4932 1297.8
v -32.842 -85.1771 1300.2
v -31.7913 -85.067 1299.07
v -32.2326 -85.2998 1302.25
v -31.2704 -85.5586 1302.09
v -33.4893 -91.0824 1302.57
v -31.9668 -91.143 1301.67
v -31.7716 -86.1176 1305.14
v -31.1846 -93.5148 1286.39
v -31.5868 -88.4907 1289.62
v -32.6693 -89.056 1290.73
v -31.9613 -91.282 1288.31
v -32.4624 -87.2574 1292.27
v -30.744 -86.6147 1291.65
v -31.817 -86.1333 1293.53
v -31.5773 -85.5466 1294.98
v -31.6208 -93.1199 1293.71
v -31.2025 -85.221 1296.55
v -30.6964 -85.2666 1298.37
v -29.9436 -91.2908 1298.32
v -29.219 -87.7384 1300.88
v -30.3953 -90.3432 1301.89
v -29.3588 -89.0764 1301.09
v -30.48 -86.4285 1302.77
v -29.8214 -96.0208 1283.36
v -29.4539 -95.8535 1282.49
v -29.5636 -94.9823 1282.91
v -29.344 -95.524 1282.46
v -29.7088 -97.3031 1283.82
v -29.509 -97.8753 1285.47
v -29.0313 -98.4456 1284.88
v -30.8232 -91.013 1286.6
v -30.2917 -88.0552 1288.99
v -29.0674 -87.5475 1289.33
v -28.8332 -86.8955 1290.86
v -30.015 -85.9078 1293.42
v -29.1737 -85.9112 1294.84
v -28.6865 -86.3363 1293.08
v -28.6829 -94.3927 1293
v -28.8827 -86.2623 1297.03
v -27.2634 -88.5847 1295.9
v -28.4844 -89.8598 1298.17
v -28.232 -93.2501 1282.25
v -27.5114 -93.4566 1281.49
v -29.1544 -95.6651 1282.44
v -28.9411 -94.4614 1282.21
v -28.9352 -94.9653 1281.96
v -28.8128 -90.4932 1285.21
v -27.9836 -89.2197 1286.5
v -28.5661 -99.0077 1285.84
v -27.5402 -98.6948 1287.7
v -26.1995 -99.382 1287.31
v -26.4318 -98.8294 1288.02
v -27.6182 -88.1465 1288.48
v -26.7091 -87.9654 1290.61
v -26.9959 -87.6222 1292.95
v -26.6511 -92.82 1293.59
v -26.2522 -92.5165 1281.83
v -24.6429 -92.1597 1282.42
v -26.1007 -90.4401 1284.78
v -25.711 -89.5326 1286.92
v -24.2904 -98.7964 1287.89
v -24.0771 -91.9424 1283.18
v -23.767 -92.4731 1282.86
v -23.2001 -92.1224 1284.06
v -22.1926 -92.9351 1284.24
v -21.818 -93.5057 1284.77
v -22.2645 -92.979 1285.84
v -22.2506 -96.1174 1286.76
v -21.9471 -93.7924 1286.44
v -21.5306 -95.52 1286.69
v -21.7481 -95.8145 1286.92
v -21.7251 -95.8079 1287.06
v -23.4246 -97.3346 1288.4
v -22.3156 -97.0023 1287.49
v -22.0693 -96.4129 1287.12
v -21.7326 -96.1089 1287.05
v -21.9703 -96.2154 1287.4
v -44.0716 -102.221 1336.52
v -43.2285 -102.353 1336.05
v -43.1917 -102.746 1336.41
v -43.1917 -102.746 1336.41
v -43.1917 -102.746 1336.41
v -42.7852 -102.472 1336.23
v -44.1533 -101.596 1337.12
v -44.1533 -101.596 1337.12
v -43.5886 -101.555 1337.81
v -42.9614 -101.839 1337.91
v -42.9614 -101.839 1337.91
v -42.6496 -101.838 1337.8
v -42.6496 -101.838 1337.8
v -42.5007 -102.518 1337.17
v -42.5007 -102.518 1337.17
v -42.5007 -102.518 1337.17
v -40.6614 -99.0981 1333.68
v -41.9181 -99.4261 1333.81
v -40.7672 -98.3881 1335.43
v -37.3351 -93.9486 1325.59
v -36.7165 -92.764 1321.19
v -34.4567 -91.4801 1311.22
v -33.2824 -90.9539 1311.69
v -29.4539 -95.8535 1282.49
v -29.4539 -95.8535 1282.49
v -29.344 -95.524 1282.46
v -29.7088 -97.3031 1283.82
v -29.0313 -98.4456 1284.88
v -27.5114 -93.4566 1281.49
v -29.1544 -95.6651 1282.44
v -28.9352 -94.9653 1281.96
v -28.9352 -94.9653 1281.96
v -28.5661 -99.0077 1285.84
v -26.1995 -99.382 1287.31
v -26.2522 -92.5165 1281.83
v -24.6429 -92.1597 1282.42
v -24.2904 -98.7964 1287.89
v -23.767 -92.4731 1282.86
v -22.1926 -92.9351 1284.24
v -21.818 -93.5057 1284.77
v -21.5306 -95.52 1286.69
v -21.7481 -95.8145 1286.92
v -21.7481 -95.8145 1286.92
v -21.7251 -95.8079 1287.06
v -21.7251 -95.8079 1287.06
v -22.3156 -97.0023 1287.49
v -22.3156 -97.0023 1287.49
v -22.0693 -96.4129 1287.12
v -21.7326 -96.1089 1287.05
v -21.7326 -96.1089 1287.05
v -21.7326 -96.1089 1287.05
v -21.9703 -96.2154 1287.4
vn -0.909789 0.0441791 -0.412713
vn -0.653244 -0.241899 -0.717466
vn -0.747344 -0.302071 -0.591803
vn -0.46891 -0.493051 -0.732819
vn -0.45321 -0.626797 -0.633819
vn 0.116417 -0.647261 -0.753326
vn -0.52703 0.623095 0.577921
vn 0.203377 0.430515 0.879372
vn -0.954813 0.12678 -0.268812
vn -0.260935 0.57085 0.778488
vn -0.375612 -0.761977 0.527547
vn 0.363074 0.343781 0.866021
vn 0.785837 -0.611756 -0.0906327
vn 0.85725 -0.37363 0.354293
vn -0.318913 -0.788569 0.525788
vn -0.946688 0.208214 -0.245824
vn -0.766052 0.613564 0.191581
vn -0.315242 0.758912 0.569803
vn -0.834371 -0.0575325 -0.548192
vn -0.715013 -0.3064 -0.628391
vn -0.21087 -0.676567 -0.705543
vn 0.0759698 -0.730398 -0.678784
vn -0.555988 -0.359649 -0.749353
vn -0.68988 0.62311 0.36851
vn -0.0915789 0.629988 0.771186
vn 0.409547 0.416269 0.811783
vn 0.904129 -0.305812 0.298377
vn 0.817442 -0.568325 -0.0937815
vn -0.886973 0.46114 -0.0250592
vn -0.744138 -0.477366 -0.467311
vn -0.381773 0.850294 0.362284
vn -0.942697 -0.0244223 -0.332756
vn -0.602441 0.741633 0.295035
vn -0.200635 0.828752 0.522413
vn 0.185112 0.743893 0.642151
vn -0.861835 -0.170694 -0.477602
vn -0.539691 -0.549665 -0.637654
vn -0.791678 -0.334556 -0.511193
vn -0.509513 -0.647922 -0.566209
vn 0.0375293 -0.841219 -0.53939
vn 0.29546 0.587731 0.753177
vn 0.918107 -0.277565 0.282908
vn 0.725429 -0.676622 -0.126235
vn 0.789633 -0.606294 -0.0942724
vn 0.790036 0.120592 0.601083
vn -0.89729 0.439727 -0.0388759
vn -0.976722 -0.124417 -0.174744
vn -0.763331 0.643925 0.0518278
vn -0.970569 0.189468 -0.148653
vn -0.879617 -0.34634 -0.32607
vn -0.452023 -0.791532 -0.41128
vn -0.626866 0.758796 0.176829
vn -0.206501 0.912561 0.352973
vn 0.299791 0.826359 0.476714
vn -0.387608 -0.769871 -0.507009
vn -0.118593 -0.930526 -0.346492
vn 0.000869649 -0.897822 -0.440358
vn 0.441073 -0.851031 -0.284956
vn 0.0670617 0.851917 0.519364
vn 0.889734 0.0556453 0.453076
vn 0.613588 0.553103 0.563549
vn 0.608474 0.447689 0.655236
vn -0.964133 0.246885 -0.0974403
vn -0.858141 -0.481157 -0.179115
vn -0.478922 -0.862714 -0.16235
vn -0.589386 0.803999 0.0788098
vn -0.119653 0.973126 0.196744
vn -0.637167 -0.726087 -0.258488
vn 0.224889 0.930878 0.287908
vn -0.359973 -0.907091 -0.218185
vn -0.328762 0.919261 0.216506
vn 0.104617 0.92951 0.353648
vn 0.535143 0.752181 0.384508
vn 0.969789 -0.0929943 0.225526
vn 0.870363 0.365159 0.330344
vn 0.715033 0.527973 0.458228
vn 0.84885 -0.522199 0.082231
vn 0.927479 0.0878594 0.363404
vn -0.818853 0.572838 -0.0365407
vn 0.404444 -0.914386 0.017952
vn 0.580886 -0.813622 -0.0243242
vn 0.671138 0.678243 0.299267
vn 0.855301 -0.509151 0.0960464
vn -0.92808 -0.360021 -0.0951378
vn -0.962844 0.159285 -0.218081
vn -0.824884 0.533904 -0.185777
vn -0.758702 -0.64564 -0.0867249
vn -0.513165 0.857272 -0.0417837
vn -0.982374 -0.096322 -0.160199
vn -0.927324 0.352622 -0.125413
vn -0.738143 0.66869 -0.0894326
vn -0.281812 0.956561 0.0746562
vn -0.590674 0.806633 0.0211417
vn -0.0326887 0.985196 0.168289
vn -0.352834 0.92894 0.112153
vn 0.370242 0.894255 0.251453
vn 0.869653 0.396744 0.293765
vn 0.919652 -0.33885 0.198546
vn 0.40467 -0.914376 0.0126327
vn -0.955454 -0.0755197 -0.285314
vn -0.923439 0.202893 -0.325722
vn -0.537269 0.822148 -0.188189
vn -0.219134 0.968564 -0.117744
vn -0.773922 0.556749 -0.301787
vn -0.245463 -0.949013 0.197793
vn -0.244565 0.969615 -0.00584648
vn 0.042092 0.999059 0.0104706
vn 0.112499 0.984958 0.131157
vn 0.460287 0.866487 0.193226
vn -0.27584 -0.959999 -0.0481118
vn 0.174329 -0.979694 0.0990414
vn 0.571513 0.77066 0.281879
vn -0.930744 -0.0450138 -0.362889
vn -0.616329 0.566205 -0.547312
vn -0.846443 0.297158 -0.44185
vn -0.894207 0.121159 -0.430947
vn -0.632475 0.636941 -0.440774
vn -0.21999 0.877343 -0.426466
vn -0.404139 0.845003 -0.350202
vn -0.216114 0.944113 -0.248889
vn -0.493688 -0.806265 0.325898
vn 0.0875017 0.990125 -0.10953
vn 0.345763 0.936287 0.0617626
vn 0.379852 -0.834311 0.399547
vn 0.936162 0.166115 0.309848
vn 0.648916 -0.729283 0.216921
vn 0.907142 -0.273944 0.31945
vn 0.770286 0.580563 0.263828
vn -0.920475 -0.144992 -0.362908
vn -0.878075 0.0133107 -0.478338
vn -0.834108 0.172472 -0.523944
vn -0.797214 0.156965 -0.582934
vn -0.920388 -0.327147 -0.214152
vn -0.8196 -0.572913 -0.00510375
vn 0.304347 -0.648579 -0.697652
vn -0.72631 0.386583 -0.568354
vn -0.352883 0.762411 -0.542405
vn -0.0421483 0.881629 -0.470057
vn 0.196967 0.925062 -0.324752
vn 0.0663608 0.963582 -0.259048
vn 0.430432 0.901559 -0.0438174
vn 0.433222 0.889044 -0.148052
vn 0.0325959 -0.810687 0.584572
vn 0.691725 0.704154 0.160262
vn 0.905777 0.172326 0.387132
vn 0.809534 -0.418878 0.411335
vn -0.593891 0.48317 -0.643304
vn -0.522381 0.504816 -0.687226
vn -0.2781 -0.245294 -0.928704
vn -0.70765 0.330788 -0.624348
vn -0.756395 0.239908 -0.608532
vn -0.425386 0.652844 -0.626772
vn -0.0767809 0.826051 -0.558341
vn -0.642418 -0.733925 0.220575
vn -0.33862 -0.819409 0.462499
vn -0.188129 -0.838312 0.511704
vn -0.120447 -0.785287 0.607303
vn 0.244838 0.888035 -0.389163
vn 0.588625 0.797163 -0.134357
vn 0.733038 0.676344 0.072202
vn 0.599304 -0.460092 0.655096
vn -0.12827 0.778478 -0.614426
vn 0.376481 -0.203238 -0.903856
vn 0.171486 0.853259 -0.492486
vn 0.428007 0.846279 -0.317209
vn 0.295362 -0.662453 0.688416
vn 0.443914 0.774645 -0.450407
vn 0.441026 -0.323586 -0.837131
vn 0.59643 0.737675 -0.316397
vn 0.567483 -0.328699 -0.75493
vn 0.429756 -0.556227 -0.711281
vn 0.826626 0.551009 0.114356
vn 0.434053 -0.588606 -0.682012
vn 0.906269 0.367269 0.209261
vn 0.924068 0.193792 0.329459
vn 0.459255 -0.338489 -0.821286
vn 0.844506 -0.00779395 0.535489
vn 0.612332 -0.399266 0.682376
vn 0.396708 -0.599524 -0.695122
vn 0.392729 -0.599489 -0.697407
vn 0.43187 -0.473415 -0.767702
vn 0.74752 -0.16888 0.642412
vn -0.474891 -0.700242 0.533048
vn 0.13077 -0.653242 -0.745771
vn -0.35417 -0.775189 0.523111
vn 0.12294 -0.666433 -0.735359
vn 0.489729 -0.851135 -0.189035
vn 0.558949 -0.78697 -0.261257
vn -0.772691 0.5468 0.322427
vn -0.607265 -0.590085 0.532005
vn -0.516167 -0.666822 0.537513
vn 0.176413 0.37191 0.911351
vn 0.261824 -0.623619 0.736579
vn 0.261824 -0.623619 0.736579
vn 0.799382 -0.170733 0.576054
vn 0.520414 -0.830803 -0.19732
vn 0.261824 -0.623619 0.736579
vn 0.804801 -0.46822 0.36478
vn 0.644854 -0.69687 -0.313902
vn 0.12096 -0.682225 -0.721067
vn 0.822004 -0.0469356 0.567544
vn 0.495404 -0.856837 -0.142847
vn 0.290363 -0.947688 -0.13258
vn -0.1513 -0.983514 -0.0990348
vn 0.823084 -0.545941 0.156465
vn -0.136295 -0.0462184 -0.98959
vn 0.142759 -0.658244 -0.739144
vn -0.2781 -0.245294 -0.928704
vn 0.00993193 -0.676958 -0.735954
vn -0.79146 -0.609001 -0.0520532
vn 0.404327 -0.454275 -0.793822
vn 0.356446 -0.609012 -0.708556
vn -0.40226 -0.428807 -0.808895
vn 0.397556 -0.596965 -0.696837
vn 0.23131 -0.786508 -0.572626
vn 0.316358 -0.701249 -0.63888
vn 0.377267 -0.190496 -0.9063
vn 0.280589 0.790905 -0.543819
vn 0.398939 -0.599034 -0.694267
vn 0.574217 0.645921 -0.503052
vn 0.726863 0.674296 -0.130365
vn 0.895388 0.432413 0.106299
vn 0.607284 -0.680535 -0.409974
vn 0.674362 -0.694344 -0.251243
vn 0.986736 -0.019225 -0.161189
vn 0.763682 -0.638512 -0.0953572
vn 0.986736 -0.019225 -0.161189
vn 0.650753 -0.389606 0.651711
vn 0.913508 -0.405114 -0.03723
vn 0.818135 -0.564606 0.108976
vn 0.986736 -0.019225 -0.161189
vn 0.832097 -0.0391304 0.553248
vn 0.67702 -0.692531 0.249088
vn 0.818135 -0.564606 0.108976
g grp1
usemtl mtl1
f 24//24 7//7 25//25 
f 1//1 9//9 19//19 
f 19//19 2//2 1//1 
f 23//23 4//4 2//2 
f 23//23 2//2 19//19 
f 9//9 1//1 3//3 
f 2//2 3//3 1//1 
f 2//2 4//4 3//3 
f 4//4 5//5 3//3 
f 185//185 11//11 183//183 
f 11//11 185//185 15//15 
f 186//186 184//184 6//6 
f 188//188 196//196 187//187 
f 184//184 200//200 6//6 
f 24//24 189//189 7//7 
f 7//7 189//189 10//10 
f 25//25 7//7 10//10 
f 10//10 8//8 25//25 
f 192//192 8//8 10//10 
f 12//12 8//8 192//192 
f 26//26 8//8 12//12 
f 190//190 183//183 191//191 
f 191//191 183//183 11//11 
f 194//194 193//193 197//197 
f 13//13 14//14 198//198 
f 188//188 13//13 196//196 
f 14//14 195//195 198//198 
f 16//16 36//36 20//20 
f 32//32 36//36 16//16 
f 16//16 29//29 32//32 
f 16//16 24//24 17//17 
f 24//24 18//18 17//17 
f 19//19 16//16 20//20 
f 16//16 19//19 9//9 
f 36//36 37//37 20//20 
f 17//17 29//29 16//16 
f 19//19 20//20 23//23 
f 16//16 189//189 24//24 
f 23//23 20//20 21//21 
f 21//21 22//22 200//200 
f 37//37 21//21 20//20 
f 40//40 21//21 37//37 
f 6//6 200//200 22//22 
f 41//41 18//18 25//25 
f 26//26 41//41 25//25 
f 25//25 18//18 24//24 
f 25//25 8//8 26//26 
f 27//27 45//45 201//201 
f 28//28 199//199 44//44 
f 44//44 27//27 28//28 
f 28//28 27//27 13//13 
f 199//199 28//28 13//13 
f 188//188 199//199 13//13 
f 195//195 27//27 201//201 
f 27//27 14//14 13//13 
f 14//14 27//27 195//195 
f 33//33 31//31 52//52 
f 29//29 52//52 48//48 
f 30//30 38//38 32//32 
f 30//30 32//32 50//50 
f 40//40 39//39 55//55 
f 29//29 17//17 33//33 
f 29//29 33//33 52//52 
f 31//31 33//33 34//34 
f 32//32 38//38 36//36 
f 37//37 36//36 38//38 
f 39//39 37//37 38//38 
f 37//37 39//39 40//40 
f 30//30 39//39 38//38 
f 40//40 43//43 199//199 
f 40//40 58//58 43//43 
f 17//17 18//18 33//33 
f 33//33 18//18 34//34 
f 35//35 34//34 18//18 
f 35//35 18//18 41//41 
f 35//35 41//41 62//62 
f 43//43 27//27 44//44 
f 41//41 45//45 62//62 
f 62//62 45//45 60//60 
f 42//42 27//27 43//43 
f 60//60 45//45 42//42 
f 40//40 22//22 21//21 
f 44//44 199//199 43//43 
f 45//45 27//27 42//42 
f 26//26 45//45 41//41 
f 49//49 46//46 47//47 
f 68//68 56//56 51//51 
f 49//49 29//29 48//48 
f 49//49 32//32 29//29 
f 48//48 46//46 49//49 
f 71//71 48//48 52//52 
f 71//71 53//53 72//72 
f 49//49 50//50 32//32 
f 47//47 50//50 49//49 
f 47//47 68//68 50//50 
f 68//68 51//51 50//50 
f 57//57 51//51 56//56 
f 52//52 31//31 53//53 
f 71//71 52//52 53//53 
f 61//61 54//54 59//59 
f 59//59 54//54 53//53 
f 54//54 72//72 53//53 
f 61//61 76//76 54//54 
f 73//73 72//72 54//54 
f 76//76 61//61 78//78 
f 50//50 51//51 30//30 
f 30//30 55//55 39//39 
f 51//51 55//55 30//30 
f 57//57 55//55 51//51 
f 57//57 56//56 58//58 
f 58//58 202//202 77//77 
f 57//57 40//40 55//55 
f 53//53 31//31 59//59 
f 31//31 34//34 59//59 
f 35//35 59//59 34//34 
f 61//61 59//59 35//35 
f 62//62 61//61 35//35 
f 61//61 62//62 60//60 
f 78//78 61//61 60//60 
f 60//60 77//77 78//78 
f 57//57 58//58 40//40 
f 77//77 42//42 43//43 
f 58//58 77//77 43//43 
f 77//77 60//60 42//42 
f 63//63 89//89 47//47 
f 90//90 89//89 63//63 
f 63//63 79//79 90//90 
f 46//46 63//63 47//47 
f 46//46 79//79 63//63 
f 89//89 64//64 47//47 
f 46//46 66//66 79//79 
f 47//47 64//64 68//68 
f 64//64 65//65 68//68 
f 68//68 65//65 70//70 
f 80//80 81//81 203//203 
f 46//46 48//48 66//66 
f 66//66 48//48 71//71 
f 95//95 66//66 67//67 
f 66//66 71//71 67//67 
f 202//202 203//203 81//81 
f 67//67 71//71 69//69 
f 69//69 71//71 72//72 
f 73//73 69//69 72//72 
f 96//96 67//67 69//69 
f 82//82 69//69 73//73 
f 69//69 82//82 96//96 
f 56//56 68//68 70//70 
f 81//81 83//83 77//77 
f 202//202 81//81 77//77 
f 73//73 76//76 75//75 
f 75//75 76//76 78//78 
f 82//82 73//73 75//75 
f 74//74 77//77 83//83 
f 73//73 54//54 76//76 
f 78//78 77//77 74//74 
f 79//79 91//91 90//90 
f 79//79 66//66 93//93 
f 93//93 66//66 95//95 
f 87//87 110//110 65//65 
f 110//110 204//204 65//65 
f 87//87 64//64 89//89 
f 87//87 65//65 64//64 
f 204//204 70//70 65//65 
f 94//94 95//95 67//67 
f 67//67 96//96 94//94 
f 99//99 81//81 80//80 
f 98//98 81//81 205//205 
f 98//98 83//83 81//81 
f 74//74 83//83 98//98 
f 98//98 97//97 74//74 
f 97//97 82//82 75//75 
f 74//74 75//75 78//78 
f 97//97 75//75 74//74 
f 86//86 104//104 85//85 
f 89//89 85//85 84//84 
f 101//101 84//84 85//85 
f 87//87 89//89 84//84 
f 102//102 91//91 88//88 
f 90//90 85//85 89//89 
f 90//90 86//86 85//85 
f 91//91 86//86 90//90 
f 102//102 86//86 91//91 
f 92//92 106//106 88//88 
f 88//88 106//106 102//102 
f 88//88 93//93 92//92 
f 106//106 92//92 108//108 
f 108//108 92//92 94//94 
f 91//91 79//79 93//93 
f 88//88 91//91 93//93 
f 93//93 95//95 92//92 
f 95//95 94//94 92//92 
f 99//99 80//80 126//126 
f 98//98 205//205 126//126 
f 82//82 97//97 96//96 
f 117//117 115//115 101//101 
f 101//101 115//115 100//100 
f 119//119 104//104 102//102 
f 119//119 102//102 120//120 
f 104//104 101//101 85//85 
f 117//117 101//101 104//104 
f 104//104 119//119 117//117 
f 101//101 100//100 84//84 
f 87//87 84//84 121//121 
f 105//105 87//87 121//121 
f 86//86 102//102 104//104 
f 103//103 120//120 102//102 
f 122//122 120//120 103//103 
f 105//105 110//110 87//87 
f 103//103 102//102 106//106 
f 107//107 103//103 106//106 
f 107//107 106//106 108//108 
f 122//122 103//103 107//107 
f 123//123 107//107 108//108 
f 123//123 122//122 107//107 
f 123//123 108//108 109//109 
f 96//96 109//109 108//108 
f 96//96 112//112 109//109 
f 144//144 123//123 109//109 
f 96//96 108//108 94//94 
f 112//112 128//128 109//109 
f 204//204 110//110 111//111 
f 111//111 126//126 80//80 
f 96//96 97//97 112//112 
f 112//112 97//97 128//128 
f 128//128 97//97 125//125 
f 97//97 98//98 125//125 
f 136//136 131//131 116//116 
f 131//131 113//113 116//116 
f 115//115 114//114 136//136 
f 136//136 114//114 152//152 
f 137//137 152//152 114//114 
f 115//115 116//116 100//100 
f 136//136 116//116 115//115 
f 100//100 133//133 84//84 
f 113//113 133//133 100//100 
f 113//113 100//100 116//116 
f 117//117 114//114 115//115 
f 118//118 117//117 119//119 
f 137//137 114//114 117//117 
f 117//117 118//118 137//137 
f 121//121 84//84 154//154 
f 140//140 119//119 120//120 
f 140//140 120//120 122//122 
f 119//119 140//140 118//118 
f 140//140 122//122 141//141 
f 105//105 121//121 143//143 
f 123//123 141//141 122//122 
f 141//141 123//123 144//144 
f 143//143 124//124 105//105 
f 145//145 144//144 128//128 
f 146//146 126//126 124//124 
f 127//127 145//145 125//125 
f 105//105 111//111 110//110 
f 124//124 126//126 111//111 
f 124//124 111//111 105//105 
f 128//128 144//144 109//109 
f 125//125 98//98 127//127 
f 125//125 145//145 128//128 
f 127//127 126//126 146//146 
f 127//127 98//98 126//126 
f 131//131 132//132 130//130 
f 131//131 150//150 151//151 
f 149//149 208//208 213//213 
f 132//132 131//131 151//151 
f 149//149 206//206 208//208 
f 212//212 135//135 207//207 
f 129//129 130//130 133//133 
f 135//135 209//209 207//207 
f 136//136 152//152 147//147 
f 113//113 131//131 130//130 
f 130//130 129//129 113//113 
f 113//113 129//129 133//133 
f 84//84 134//134 154//154 
f 210//210 134//134 133//133 
f 134//134 84//84 133//133 
f 210//210 154//154 134//134 
f 138//138 139//139 158//158 
f 121//121 154//154 155//155 
f 138//138 137//137 118//118 
f 139//139 138//138 118//118 
f 159//159 139//139 142//142 
f 159//159 158//158 139//139 
f 159//159 142//142 160//160 
f 118//118 140//140 139//139 
f 139//139 140//140 142//142 
f 142//142 140//140 141//141 
f 141//141 160//160 142//142 
f 160//160 141//141 144//144 
f 161//161 124//124 143//143 
f 160//160 144//144 145//145 
f 161//161 146//146 124//124 
f 127//127 146//146 145//145 
f 147//147 150//150 136//136 
f 150//150 147//147 148//148 
f 131//131 136//136 150//150 
f 171//171 212//212 214//214 
f 148//148 151//151 150//150 
f 211//211 171//171 214//214 
f 152//152 137//137 153//153 
f 162//162 152//152 153//153 
f 148//148 147//147 152//152 
f 162//162 148//148 152//152 
f 171//171 135//135 212//212 
f 138//138 153//153 137//137 
f 155//155 157//157 121//121 
f 154//154 156//156 155//155 
f 157//157 155//155 156//156 
f 153//153 138//138 158//158 
f 158//158 164//164 153//153 
f 159//159 165//165 158//158 
f 158//158 165//165 164//164 
f 143//143 157//157 166//166 
f 157//157 143//143 121//121 
f 166//166 161//161 143//143 
f 145//145 146//146 161//161 
f 168//168 211//211 217//217 
f 168//168 171//171 211//211 
f 217//217 163//163 168//168 
f 162//162 164//164 218//218 
f 153//153 164//164 162//162 
f 218//218 164//164 167//167 
f 165//165 167//167 164//164 
f 135//135 216//216 215//215 
f 135//135 219//219 216//216 
f 157//157 156//156 166//166 
f 159//159 160//160 172//172 
f 161//161 178//178 182//182 
f 178//178 161//161 166//166 
f 145//145 172//172 160//160 
f 161//161 182//182 145//145 
f 165//165 169//169 167//167 
f 218//218 167//167 220//220 
f 220//220 167//167 169//169 
f 170//170 171//171 168//168 
f 220//220 169//169 221//221 
f 221//221 169//169 159//159 
f 165//165 159//159 169//169 
f 221//221 159//159 172//172 
f 222//222 221//221 172//172 
f 171//171 173//173 135//135 
f 176//176 181//181 173//173 
f 174//174 175//175 222//222 
f 171//171 223//223 173//173 
f 224//224 173//173 223//223 
f 174//174 222//222 172//172 
f 173//173 181//181 180//180 
f 172//172 145//145 174//174 
f 174//174 145//145 175//175 
f 145//145 177//177 175//175 
f 177//177 145//145 182//182 
f 226//226 224//224 223//223 
f 225//225 227//227 231//231 
f 173//173 219//219 135//135 
f 180//180 179//179 173//173 
f 173//173 179//179 219//219 
f 228//228 182//182 178//178 
f 228//228 178//178 166//166 
f 230//230 234//234 229//229 
f 232//232 177//177 182//182 
f 230//230 233//233 234//234 
