#
# The license for this database is specified in the Creative Commons Attribution-Share Alike 2.1 Japan. If you use data from this database, please be sure attribute this database as follows: "BodyParts3D, (c)  The Database Center for Life Science licensed under CC Attribution-Share Alike 2.1 Japan".
# http://dbarchive.biosciencedbc.jp/en/bodyparts3d/lic.html
#
#
# Compatibility version : 4.0
# File ID : FJ2053
# Representation ID : BP7678
# Build-up logic : FMA 3.0 is_a
# Concept ID : FMA86349
# English name : Posterior segmental branch of left renal artery
# Bounds(mm): (54.188100,-78.277500,1039.853800)-(67.952200,-53.751700,1071.554600)
# Volume(cm3): 0.158200
#
v 54.8865 -72.9568 1051.65
v 55.5486 -74.1246 1050.31
v 55.3622 -73.7386 1048.71
v 54.5578 -71.9536 1052.21
v 54.9431 -72.4249 1053.3
v 54.4579 -71.4922 1053.88
v 54.2281 -70.3278 1054.6
v 55.1068 -71.1342 1055.56
v 54.3991 -70.4175 1055.82
v 54.2465 -69.7626 1056.26
v 57.5807 -77.8438 1041.42
v 57.1858 -77.4328 1042.88
v 57.0429 -76.9163 1041.87
v 57.7536 -78.0389 1042.2
v 58.2852 -78.0567 1042.66
v 58.2918 -78.2412 1041.59
v 57.1591 -76.0033 1041.8
v 58.8272 -78.1742 1042.01
v 58.783 -77.9769 1042.64
v 58.7896 -78.1856 1041.44
v 58.5583 -77.9881 1040.84
v 58.3489 -77.6501 1040.48
v 57.9193 -76.9198 1040.34
v 59.1792 -77.8085 1042.46
v 59.5017 -77.7662 1041.48
v 59.3198 -77.6298 1040.67
v 59.0965 -77.3324 1040.22
v 58.6952 -76.6573 1039.9
v 58.4801 -76.223 1039.94
v 59.7777 -77.17 1041.77
v 59.7507 -77.2864 1040.85
v 59.5281 -77.0481 1040.29
v 59.1077 -76.4499 1039.9
v 58.8779 -75.9873 1039.94
v 58.0776 -76.8296 1045.45
v 58.557 -76.7067 1045.16
v 59.4431 -77.2136 1042.82
v 59.4942 -75.6119 1043.49
v 59.0749 -74.7095 1043.66
v 56.8442 -75.8587 1047.53
v 57.7173 -75.3002 1048.11
v 58.8094 -75.1752 1046.07
v 58.7119 -74.2454 1045.69
v 55.9246 -73.8405 1051.44
v 56.7635 -74.9956 1049.35
v 56.2708 -73.2826 1052.3
v 58.2052 -75.6314 1040.42
v 58.6063 -75.2255 1040.77
v 57.5189 -74.1915 1043.9
v 58.4695 -74.4489 1043
v 56.3943 -73.2696 1046.75
v 56.7943 -72.6366 1047.52
v 57.7684 -72.8986 1048.41
v 57.5208 -72.765 1047.71
v 55.8503 -70.931 1051
v 57.7224 -73.0985 1049.64
v 56.9277 -71.3303 1051.59
v 54.7202 -71.2224 1052.03
v 56.1443 -71.0848 1055.19
v 56.6028 -71.4069 1053.96
v 56.144 -69.3256 1054.26
v 54.4754 -69.3344 1057.3
v 55.5573 -70.7633 1056.09
v 55.1443 -69.5047 1057.66
v 56.4746 -69.8597 1055.6
v 56.609 -67.882 1058.04
v 54.9863 -67.9976 1059
v 55.6044 -67.3989 1059.73
v 56.0026 -67.9298 1059.2
v 56.5986 -66.5216 1060.47
v 54.8158 -68.8928 1054.65
v 54.2562 -68.47 1057.21
v 54.3789 -68.3569 1056.29
v 55.4557 -66.363 1057.57
v 54.7001 -67.6343 1058.85
v 55.2202 -67.0108 1059.8
v 54.7975 -66.5635 1058.9
v 55.1486 -66.0474 1059.85
v 55.3554 -65.6006 1058.83
v 55.357 -65.3812 1059.8
v 56.5177 -65.3398 1061.37
v 56.2731 -64.9131 1061.38
v 56.1838 -64.4547 1061.21
v 59.9603 -76.5653 1041.16
v 59.844 -76.3041 1040.54
v 59.8585 -75.9709 1041.46
v 59.4639 -76.1387 1040.12
v 59.7059 -75.7174 1040.9
v 59.3447 -75.6341 1040.32
v 59.3518 -75.3778 1040.89
v 57.3229 -65.9525 1060.34
v 56.6745 -64.1217 1059.71
v 57.4738 -64.786 1059.54
v 56.9209 -63.4159 1060.47
v 57.1712 -63.5811 1062.31
v 57.6949 -64.3623 1062.17
v 57.4592 -63.88 1062.43
v 56.8749 -63.1777 1061.26
v 58.1379 -64.5857 1061.71
v 57.6024 -62.7014 1062.56
v 58.0642 -62.7924 1063.02
v 57.8363 -62.7048 1060.9
v 58.9691 -63.2054 1062.9
v 59.1841 -63.3694 1062.32
v 58.62 -62.6119 1061.07
v 58.6076 -61.2314 1062.52
v 58.6947 -61.1756 1063.04
v 59.5908 -62.3396 1061.81
v 59.5498 -61.6981 1063.97
v 60.5265 -61.5272 1062.7
v 60.256 -60.6643 1062.51
v 60.5614 -61.0467 1062.57
v 59.9256 -60.3365 1064.26
v 60.3701 -59.6273 1063.43
v 61.7822 -60.0716 1065.09
v 61.9902 -59.3151 1063.68
v 61.4024 -58.5535 1064.53
v 62.8486 -59.5141 1064.93
v 62.4253 -59.528 1064.07
v 62.6471 -58.1534 1066.23
v 63.5438 -58.652 1066.25
v 62.9086 -57.5152 1065.07
v 64.1962 -57.5374 1065.45
v 64.1619 -56.9587 1065.68
v 65.468 -56.8795 1066.88
v 65.7422 -56.0286 1069.08
v 65.7035 -55.4457 1069.34
v 64.8503 -55.7302 1067.42
v 66.148 -56.3524 1068.68
v 66.144 -55.758 1067.54
v 65.9558 -55.2836 1067.79
v 67.2199 -55.1444 1069.23
v 66.8687 -55.4129 1070.24
v 67.1248 -54.4826 1071.55
v 66.6905 -54.1042 1070.65
v 67.6161 -54.8246 1070.91
v 67.5176 -54.2564 1071.55
v 67.5205 -54.229 1069.92
v 67.0496 -53.8864 1070.52
v 67.3046 -53.9031 1071.36
v 67.9522 -54.2241 1070.87
v 67.7383 -53.8483 1070.75
v 58.4801 -76.223 1039.94
v 55.8503 -70.931 1051
v 57.7224 -73.0985 1049.64
v 56.9277 -71.3303 1051.59
v 56.144 -69.3256 1054.26
v 56.4746 -69.8597 1055.6
v 56.609 -67.882 1058.04
v 56.609 -67.882 1058.04
v 56.609 -67.882 1058.04
v 54.8158 -68.8928 1054.65
v 55.4557 -66.363 1057.57
v 55.4557 -66.363 1057.57
v 55.4557 -66.363 1057.57
v 57.3229 -65.9525 1060.34
v 57.4738 -64.786 1059.54
v 59.1841 -63.3694 1062.32
v 61.7822 -60.0716 1065.09
v 62.6471 -58.1534 1066.23
v 62.6471 -58.1534 1066.23
v 63.5438 -58.652 1066.25
v 65.7422 -56.0286 1069.08
v 64.8503 -55.7302 1067.42
v 66.148 -56.3524 1068.68
v 66.148 -56.3524 1068.68
v 65.9558 -55.2836 1067.79
v 67.2199 -55.1444 1069.23
v 67.1248 -54.4826 1071.55
v 67.1248 -54.4826 1071.55
v 66.6905 -54.1042 1070.65
v 67.6161 -54.8246 1070.91
v 67.6161 -54.8246 1070.91
v 67.5176 -54.2564 1071.55
v 67.5176 -54.2564 1071.55
v 67.5176 -54.2564 1071.55
v 67.5205 -54.229 1069.92
v 67.3046 -53.9031 1071.36
v 67.3046 -53.9031 1071.36
v 67.3046 -53.9031 1071.36
v 67.9522 -54.2241 1070.87
v 67.9522 -54.2241 1070.87
v 67.9522 -54.2241 1070.87
v 67.7383 -53.8483 1070.75
v 67.7383 -53.8483 1070.75
vn -0.878821 -0.470712 0.0781261
vn -0.682082 -0.702944 0.20158
vn -0.976818 -0.0842938 -0.196777
vn -0.987599 -0.101304 -0.119942
vn -0.611233 -0.709971 0.349766
vn -0.910864 -0.390799 0.132679
vn -0.99814 -0.0168487 -0.0585828
vn -0.27264 -0.7904 0.548576
vn -0.793325 -0.515993 0.32309
vn -0.950229 -0.240466 0.198093
vn -0.661391 -0.668326 -0.340444
vn -0.792545 -0.608001 0.0469748
vn -0.9355 -0.191424 -0.29698
vn -0.467981 -0.875444 0.120795
vn -0.0357586 -0.953252 0.300052
vn -0.156768 -0.983829 -0.0866223
vn -0.830575 0.347967 -0.434815
vn 0.323463 -0.932428 0.16109
vn 0.3647 -0.850577 0.378831
vn 0.299941 -0.932319 -0.202031
vn -0.0320943 -0.856417 -0.515287
vn -0.302319 -0.594772 -0.744882
vn -0.711095 -0.118661 -0.69301
vn 0.642253 -0.700419 0.311326
vn 0.72295 -0.690544 0.0221885
vn 0.491249 -0.738497 -0.46184
vn 0.206795 -0.555463 -0.805417
vn -0.146054 -0.21022 -0.966683
vn -0.431734 0.0459405 -0.900831
vn 0.941871 -0.294113 0.162407
vn 0.876162 -0.412039 -0.250129
vn 0.647532 -0.32664 -0.688483
vn 0.303849 -0.0954106 -0.947931
vn 0.0320136 0.423785 -0.905197
vn 0.253125 -0.854311 0.453962
vn 0.659252 -0.611667 0.437321
vn 0.867969 -0.383506 0.315521
vn 0.974658 0.106384 0.196782
vn 0.76775 0.639463 -0.0405824
vn -0.305342 -0.887146 0.346031
vn 0.694274 -0.546129 0.468751
vn 0.930707 -0.14543 0.335612
vn 0.895357 0.438055 0.0802758
vn -0.209905 -0.864534 0.45664
vn 0.153172 -0.859786 0.487141
vn 0.273785 -0.791299 0.546706
vn -0.557476 0.54107 -0.629654
vn -0.023895 0.86998 -0.492508
vn -0.417088 0.806212 -0.419595
vn 0.233459 0.928289 -0.289441
vn -0.640552 0.627095 -0.443221
vn -0.089167 0.905343 -0.415214
vn 0.838249 0.545107 -0.0140603
vn 0.547476 0.813379 -0.196681
vn -0.519012 0.702507 -0.486939
vn 0.884276 -0.268078 0.382349
vn 0.848971 0.522188 -0.0810439
vn -0.843638 0.386946 -0.372219
vn 0.726086 -0.522319 0.447194
vn 0.942702 -0.156678 0.294558
vn 0.245438 0.816502 -0.522575
vn -0.733486 -0.479128 0.482114
vn 0.224533 -0.767833 0.600014
vn -0.17937 -0.723259 0.666875
vn 0.93393 -0.251765 0.253752
vn 0.814106 -0.486481 0.317123
vn -0.532978 -0.515592 0.670895
vn -0.157902 -0.622021 0.766914
vn 0.427281 -0.694259 0.579168
vn 0.270351 -0.697948 0.663158
vn -0.714556 0.557526 -0.42258
vn -0.992577 0.0315982 0.117443
vn -0.857052 0.438251 -0.270919
vn 0.465436 0.396182 -0.79146
vn -0.887425 -0.144303 0.437782
vn -0.627532 -0.315934 0.71161
vn -0.950716 0.304701 0.0574139
vn -0.894863 0.0937003 0.436394
vn -0.703669 0.639024 -0.310641
vn -0.888858 0.448311 0.0945977
vn -0.272429 -0.485631 0.830629
vn -0.671891 -0.132008 0.728791
vn -0.856141 0.269209 0.441076
vn 0.998911 -0.0454639 0.0104782
vn 0.911919 0.134013 -0.387872
vn 0.950357 0.311045 0.00855521
vn 0.589532 0.184024 -0.786503
vn 0.81247 0.548065 -0.198788
vn 0.509869 0.640097 -0.574725
vn 0.487065 0.832353 -0.264492
vn 0.903739 -0.348974 -0.247936
vn -0.111398 0.68644 -0.718603
vn 0.425565 0.391193 -0.816004
vn -0.497988 0.747134 -0.440225
vn -0.686042 0.0172317 0.727357
vn 0.0745487 -0.620561 0.780607
vn -0.366888 -0.337139 0.867024
vn -0.796929 0.603275 0.0310412
vn 0.50039 -0.718825 0.482597
vn -0.789603 0.319091 0.524126
vn -0.567246 -0.0428437 0.822433
vn -0.162437 0.703199 -0.692189
vn 0.339309 -0.713996 0.612438
vn 0.574534 -0.723984 0.381783
vn 0.355849 0.369891 -0.858226
vn -0.607601 0.759034 -0.233857
vn -0.778602 0.572535 0.256871
vn 0.789359 -0.222742 -0.5721
vn -0.232106 -0.381959 0.894558
vn 0.777561 -0.365447 -0.51171
vn 0.17067 0.500584 -0.848697
vn 0.624748 -0.0076987 -0.780789
vn -0.716956 0.300946 0.628812
vn -0.337324 0.772809 -0.537567
vn 0.471724 -0.792766 0.386002
vn 0.419866 0.282094 -0.862633
vn -0.657438 0.753407 -0.0123991
vn 0.652875 -0.750855 0.0998529
vn 0.76049 -0.315094 -0.567777
vn -0.737448 0.3328 0.587719
vn 0.463276 -0.833752 0.300388
vn -0.14864 0.761001 -0.631494
vn 0.653882 0.0553233 -0.754571
vn 0.207334 0.617575 -0.758692
vn 0.817875 -0.426913 -0.385779
vn -0.108686 -0.800983 0.588739
vn -0.828182 0.0789923 0.554864
vn -0.318711 0.874207 -0.366312
vn 0.696633 -0.717201 0.0180144
vn 0.686845 0.229544 -0.689603
vn 0.448361 0.550045 -0.704573
vn 0.799672 -0.593646 -0.0900525
vn 0.0535849 -0.847008 0.528873
vn 0.114311 -0.778981 0.61654
vn -0.839183 0.294019 0.45752
vn 0.815325 -0.573007 -0.08312
vn 0.370023 -0.66699 0.64669
vn 0.799908 0.285327 -0.527955
vn -0.209727 0.954917 -0.210112
vn -0.22426 0.355163 0.907506
vn 0.863628 -0.492 -0.10992
vn 0.847083 0.360187 -0.390788
vn -0.309573 0.50743 -0.804164
vn 0.34889 0.858686 -0.375411
vn 0.944314 0.301992 0.130656
vn 0.903701 0.424785 -0.0536812
vn 0.910503 0.372484 -0.179555
vn 0.94889 0.292946 -0.117429
vn 0.907437 0.34307 -0.242615
vn 0.595933 0.209002 -0.775359
vn 0.969615 -0.210527 -0.124604
vn 0.105275 0.822226 -0.55934
vn 0.0518683 0.748823 -0.660737
vn -0.613506 0.659917 -0.433727
vn 0.803222 0.516844 -0.296154
vn 0.633861 -0.682297 0.364266
vn 0.919586 -0.295623 -0.258782
vn 0.80751 -0.484056 -0.337072
vn -0.10321 -0.498658 0.860632
vn -0.166553 -0.56247 0.809869
vn -0.470176 -0.381828 0.795702
vn -0.272318 -0.46498 0.842399
vn -0.607706 -0.353681 0.711057
vn -0.795497 0.465551 0.387874
vn -0.150265 -0.725053 0.6721
vn 0.362069 -0.862724 0.353007
vn -0.119346 0.880849 -0.458106
vn 0.871658 -0.0206854 -0.489677
vn -0.818864 0.0856159 0.567566
vn -0.22426 0.355163 0.907506
vn -0.51183 0.858719 0.0251316
vn 0.297651 -0.796054 0.526974
vn 0.783232 -0.401226 0.474937
vn -0.22426 0.355163 0.907506
vn 0.654819 0.586918 0.476171
vn 0.783232 -0.401226 0.474937
vn 0.0720594 0.887808 -0.454537
vn -0.748627 0.398939 0.529533
vn -0.276004 0.955708 0.102193
vn 0.608327 0.628612 0.484547
vn 0.891515 0.191943 -0.410317
vn 0.783232 -0.401226 0.474937
vn 0.698712 0.542894 0.465905
vn 0.654819 0.586918 0.476171
vn 0.0142629 0.978414 -0.206164
g grp1
usemtl mtl1
f 40//40 2//2 12//12 
f 40//40 45//45 44//44 
f 40//40 44//44 2//2 
f 2//2 44//44 5//5 
f 12//12 2//2 3//3 
f 2//2 5//5 1//1 
f 44//44 8//8 5//5 
f 2//2 1//1 3//3 
f 4//4 3//3 1//1 
f 58//58 3//3 4//4 
f 5//5 8//8 9//9 
f 1//1 6//6 4//4 
f 1//1 5//5 6//6 
f 5//5 9//9 6//6 
f 4//4 7//7 58//58 
f 4//4 6//6 7//7 
f 6//6 9//9 7//7 
f 8//8 62//62 9//9 
f 9//9 10//10 7//7 
f 9//9 62//62 10//10 
f 10//10 72//72 7//7 
f 10//10 62//62 72//72 
f 58//58 7//7 73//73 
f 7//7 72//72 73//73 
f 11//11 14//14 12//12 
f 11//11 12//12 13//13 
f 12//12 3//3 13//13 
f 16//16 15//15 14//14 
f 21//21 16//16 11//11 
f 16//16 14//14 11//11 
f 13//13 23//23 11//11 
f 17//17 23//23 13//13 
f 13//13 3//3 17//17 
f 20//20 18//18 16//16 
f 16//16 18//18 15//15 
f 18//18 19//19 15//15 
f 20//20 16//16 21//21 
f 21//21 11//11 22//22 
f 28//28 22//22 23//23 
f 22//22 11//11 23//23 
f 23//23 17//17 47//47 
f 18//18 20//20 25//25 
f 25//25 24//24 18//18 
f 18//18 24//24 19//19 
f 20//20 21//21 26//26 
f 25//25 20//20 26//26 
f 28//28 23//23 29//29 
f 23//23 47//47 29//29 
f 27//27 21//21 22//22 
f 26//26 21//21 27//27 
f 27//27 22//22 28//28 
f 24//24 25//25 37//37 
f 31//31 25//25 26//26 
f 25//25 30//30 37//37 
f 37//37 30//30 38//38 
f 32//32 26//26 27//27 
f 31//31 26//26 32//32 
f 32//32 27//27 33//33 
f 33//33 27//27 28//28 
f 33//33 28//28 34//34 
f 34//34 28//28 29//29 
f 34//34 143//143 47//47 
f 47//47 48//48 34//34 
f 30//30 25//25 31//31 
f 31//31 84//84 30//30 
f 84//84 38//38 30//30 
f 31//31 32//32 85//85 
f 87//87 85//85 32//32 
f 33//33 87//87 32//32 
f 34//34 87//87 33//33 
f 34//34 48//48 89//89 
f 87//87 34//34 89//89 
f 15//15 35//35 40//40 
f 14//14 15//15 40//40 
f 14//14 40//40 12//12 
f 35//35 36//36 41//41 
f 24//24 36//36 19//19 
f 19//19 35//35 15//15 
f 19//19 36//36 35//35 
f 37//37 36//36 24//24 
f 37//37 42//42 36//36 
f 38//38 42//42 37//37 
f 38//38 43//43 42//42 
f 50//50 54//54 39//39 
f 39//39 54//54 43//43 
f 43//43 38//38 39//39 
f 39//39 90//90 50//50 
f 45//45 40//40 35//35 
f 35//35 41//41 45//45 
f 41//41 36//36 42//42 
f 42//42 56//56 41//41 
f 145//145 42//42 43//43 
f 45//45 46//46 44//44 
f 45//45 41//41 46//46 
f 46//46 41//41 59//59 
f 47//47 17//17 49//49 
f 47//47 49//49 48//48 
f 48//48 49//49 50//50 
f 50//50 90//90 48//48 
f 17//17 3//3 51//51 
f 17//17 51//51 49//49 
f 49//49 51//51 52//52 
f 49//49 52//52 50//50 
f 52//52 54//54 50//50 
f 51//51 3//3 58//58 
f 53//53 145//145 43//43 
f 54//54 53//53 43//43 
f 46//46 8//8 44//44 
f 51//51 58//58 55//55 
f 56//56 60//60 41//41 
f 55//55 52//52 51//51 
f 57//57 60//60 145//145 
f 53//53 57//57 145//145 
f 144//144 54//54 52//52 
f 57//57 54//54 144//144 
f 61//61 57//57 144//144 
f 53//53 54//54 57//57 
f 63//63 8//8 46//46 
f 63//63 46//46 59//59 
f 41//41 60//60 59//59 
f 71//71 55//55 58//58 
f 152//152 61//61 144//144 
f 63//63 64//64 8//8 
f 64//64 62//62 8//8 
f 59//59 69//69 63//63 
f 63//63 69//69 64//64 
f 57//57 65//65 60//60 
f 59//59 60//60 65//65 
f 66//66 59//59 65//65 
f 66//66 69//69 59//59 
f 148//148 146//146 147//147 
f 148//148 147//147 149//149 
f 93//93 150//150 74//74 
f 64//64 67//67 62//62 
f 62//62 75//75 72//72 
f 62//62 67//67 75//75 
f 68//68 64//64 69//69 
f 68//68 67//67 64//64 
f 67//67 76//76 75//75 
f 68//68 76//76 67//67 
f 69//69 70//70 68//68 
f 81//81 68//68 70//70 
f 151//151 157//157 91//91 
f 69//69 66//66 156//156 
f 69//69 156//156 70//70 
f 71//71 58//58 73//73 
f 61//61 152//152 153//153 
f 73//73 154//154 71//71 
f 73//73 79//79 154//154 
f 155//155 149//149 147//147 
f 75//75 77//77 72//72 
f 72//72 77//77 73//73 
f 75//75 78//78 77//77 
f 75//75 76//76 78//78 
f 77//77 79//79 73//73 
f 77//77 78//78 80//80 
f 79//79 77//77 80//80 
f 68//68 81//81 76//76 
f 154//154 79//79 92//92 
f 78//78 83//83 80//80 
f 76//76 82//82 78//78 
f 79//79 80//80 98//98 
f 80//80 83//83 98//98 
f 81//81 70//70 96//96 
f 81//81 82//82 76//76 
f 92//92 79//79 94//94 
f 98//98 94//94 79//79 
f 83//83 100//100 98//98 
f 78//78 82//82 83//83 
f 83//83 82//82 95//95 
f 86//86 38//38 84//84 
f 31//31 85//85 84//84 
f 84//84 85//85 86//86 
f 85//85 88//88 86//86 
f 86//86 88//88 39//39 
f 86//86 39//39 38//38 
f 89//89 85//85 87//87 
f 85//85 89//89 88//88 
f 88//88 89//89 90//90 
f 88//88 90//90 39//39 
f 48//48 90//90 89//89 
f 156//156 99//99 70//70 
f 70//70 99//99 96//96 
f 93//93 74//74 92//92 
f 92//92 105//105 93//93 
f 102//102 92//92 94//94 
f 105//105 92//92 102//102 
f 81//81 97//97 82//82 
f 96//96 97//97 81//81 
f 82//82 97//97 95//95 
f 95//95 100//100 83//83 
f 97//97 101//101 95//95 
f 100//100 95//95 101//101 
f 99//99 103//103 96//96 
f 96//96 109//109 97//97 
f 103//103 109//109 96//96 
f 101//101 97//97 109//109 
f 104//104 103//103 99//99 
f 156//156 104//104 99//99 
f 157//157 108//108 91//91 
f 100//100 101//101 113//113 
f 101//101 109//109 113//113 
f 91//91 108//108 158//158 
f 113//113 107//107 100//100 
f 94//94 98//98 106//106 
f 100//100 107//107 98//98 
f 98//98 107//107 106//106 
f 105//105 108//108 93//93 
f 102//102 94//94 106//106 
f 112//112 110//110 108//108 
f 105//105 112//112 108//108 
f 111//111 112//112 105//105 
f 102//102 111//111 105//105 
f 108//108 110//110 158//158 
f 111//111 102//102 114//114 
f 114//114 102//102 106//106 
f 114//114 106//106 117//117 
f 110//110 119//119 158//158 
f 110//110 112//112 119//119 
f 116//116 119//119 112//112 
f 111//111 116//116 112//112 
f 106//106 107//107 117//117 
f 120//120 113//113 109//109 
f 107//107 113//113 117//117 
f 119//119 118//118 158//158 
f 104//104 118//118 103//103 
f 118//118 115//115 103//103 
f 103//103 159//159 109//109 
f 121//121 115//115 118//118 
f 159//159 160//160 109//109 
f 111//111 122//122 116//116 
f 122//122 111//111 114//114 
f 114//114 117//117 122//122 
f 122//122 117//117 128//128 
f 117//117 113//113 164//164 
f 160//160 159//159 162//162 
f 118//118 129//129 121//121 
f 116//116 122//122 124//124 
f 120//120 164//164 113//113 
f 162//162 165//165 160//160 
f 116//116 123//123 119//119 
f 123//123 116//116 124//124 
f 119//119 125//125 118//118 
f 119//119 123//123 125//125 
f 124//124 122//122 128//128 
f 125//125 129//129 118//118 
f 164//164 120//120 127//127 
f 126//126 160//160 165//165 
f 127//127 161//161 163//163 
f 130//130 125//125 123//123 
f 130//130 123//123 124//124 
f 130//130 124//124 131//131 
f 167//167 124//124 128//128 
f 129//129 125//125 132//132 
f 129//129 132//132 136//136 
f 172//172 133//133 166//166 
f 165//165 133//133 126//126 
f 125//125 130//130 168//168 
f 168//168 130//130 138//138 
f 130//130 131//131 138//138 
f 167//167 128//128 139//139 
f 164//164 127//127 135//135 
f 128//128 171//171 139//139 
f 177//177 167//167 139//139 
f 126//126 133//133 134//134 
f 127//127 163//163 169//169 
f 127//127 169//169 135//135 
f 133//133 172//172 134//134 
f 134//134 172//172 137//137 
f 174//174 140//140 170//170 
f 178//178 135//135 169//169 
f 179//179 139//139 171//171 
f 141//141 136//136 132//132 
f 168//168 138//138 181//181 
f 181//181 138//138 142//142 
f 175//175 184//184 180//180 
f 185//185 177//177 139//139 
f 185//185 139//139 179//179 
f 173//173 182//182 176//176 
f 175//175 183//183 184//184 
