#
# The license for this database is specified in the Creative Commons Attribution-Share Alike 2.1 Japan. If you use data from this database, please be sure attribute this database as follows: "BodyParts3D, (c)  The Database Center for Life Science licensed under CC Attribution-Share Alike 2.1 Japan".
# http://dbarchive.biosciencedbc.jp/en/bodyparts3d/lic.html
#
#
# Compatibility version : 4.0
# File ID : FJ3003
# Representation ID : BP9767
# Build-up logic : FMA 3.0 part_of
# Concept ID : FMA68723
# English name : Basal branch of right anterior basal segmental artery
# Bounds(mm): (-108.928000,-94.552300,1185.890000)-(-103.982000,-82.570200,1197.170000)
# Volume(cm3): 0.044000
#
v -108.389 -94.4596 1187.23
v -108.522 -94.1493 1187.42
v -108.274 -94.0787 1187.64
v -108.871 -93.9254 1186.69
v -108.912 -94.0332 1186.86
v -108.928 -93.8028 1186.8
v -108.798 -94.0954 1186.87
v -108.828 -94.1205 1187.04
v -108.701 -94.2918 1187.13
v -108.916 -93.6361 1186.7
v -108.817 -93.547 1186.32
v -108.644 -93.4352 1186.11
v -108.523 -93.4927 1186.12
v -108.873 -93.4736 1186.59
v -108.433 -93.3199 1186.01
v -108.77 -93.2303 1186.56
v -108.081 -94.5407 1187.3
v -107.973 -94.5184 1187.3
v -107.979 -94.3914 1187.09
v -108.012 -94.3004 1187.53
v -107.782 -94.5523 1187.28
v -108.084 -93.4549 1186.01
v -107.767 -93.4714 1186
v -107.635 -93.4276 1185.96
v -107.565 -93.5431 1186.05
v -107.583 -93.0804 1186.19
v -107.534 -93.3829 1185.98
v -108.258 -93.3256 1185.92
v -108.15 -93.3442 1185.92
v -107.968 -93.3689 1185.89
v -108.105 -93.1099 1186.07
v -107.87 -92.9825 1186.17
v -107.724 -93.1801 1186.05
v -107.735 -92.8964 1186.27
v -107.405 -94.3921 1187.02
v -107.323 -94.3069 1186.92
v -107.397 -93.5049 1186.02
v -107.149 -93.7873 1186.27
v -107.38 -93.237 1186.22
v -107.319 -93.4792 1186.12
v -107.218 -93.4978 1186.26
v -107.394 -93.9939 1187.55
v -107.262 -94.1867 1187.17
v -107.084 -94.126 1186.74
v -107.231 -93.1902 1186.43
v -107.068 -93.4224 1186.65
v -108.463 -92.2885 1187.05
v -108.693 -91.9914 1188.38
v -108.666 -91.8094 1188.06
v -108.085 -91.3868 1187.62
v -108.482 -91.5861 1189.23
v -108.386 -90.7362 1188.61
v -108.322 -91.6149 1189.47
v -108.454 -90.3906 1189.35
v -108.079 -91.648 1189.67
v -107.966 -89.5682 1189.35
v -107.491 -89.8596 1188.88
v -106.725 -90.6486 1188.91
v -108.123 -90.1382 1190.67
v -108.243 -89.9834 1190.53
v -107.97 -90.1554 1190.85
v -108.342 -89.8152 1190.2
v -108.252 -89.4732 1190
v -108.153 -89.4057 1189.79
v -107.563 -89.042 1189.64
v -106.613 -90.6333 1189.92
v -106.52 -90.1364 1189.73
v -108.162 -89.0634 1190.96
v -108.155 -88.9226 1190.81
v -108.031 -88.7126 1190.52
v -107.87 -88.6205 1190.32
v -106.683 -89.9763 1190.98
v -106.762 -88.9702 1189.89
v -107.221 -89.671 1191.58
v -107.301 -88.9172 1192.24
v -106.286 -88.7798 1190.7
v -107.513 -88.651 1192.31
v -106.922 -87.5764 1190.93
v -106.774 -89.0231 1192.14
v -106.509 -88.992 1192
v -106.291 -88.8958 1191.8
v -106.14 -88.7229 1191.42
v -105.944 -87.8328 1191.68
v -106.722 -87.9808 1190.65
v -106.351 -88.0842 1190.89
v -106.456 -87.7839 1190.96
v -107.692 -87.575 1192.61
v -107.616 -87.7356 1192.73
v -107.663 -87.1048 1192.38
v -107.657 -87.1369 1192.65
v -107.437 -87.0213 1191.76
v -107.259 -86.882 1191.74
v -107.499 -86.8705 1192.11
v -107.162 -86.1459 1192.57
v -106.847 -86.5876 1191.83
v -107.295 -85.9491 1193.56
v -107.17 -85.7535 1193.25
v -107.077 -86.9548 1193.9
v -106.364 -87.3549 1193.89
v -105.984 -87.2028 1193.94
v -106.276 -85.6734 1192.64
v -105.803 -86.3123 1192.41
v -106.973 -86.0374 1194.55
v -107.212 -86.018 1194.06
v -106.635 -85.1364 1193.32
v -106.33 -85.1783 1193.12
v -105.419 -86.5873 1194.22
v -106.953 -85.1017 1194.69
v -106.714 -84.7273 1194
v -105.128 -86.2133 1194.09
v -104.931 -85.2782 1193.98
v -106.741 -84.466 1194.68
v -106.573 -84.6066 1195.75
v -106.252 -83.3105 1196.51
v -106.116 -83.794 1196.81
v -106.033 -83.8523 1196.91
v -105.927 -84.0897 1196.9
v -105.824 -84.4533 1196.73
v -106.025 -83.6152 1197.02
v -105.823 -83.8593 1197.14
v -105.688 -83.9926 1197.16
v -105.731 -83.8512 1197.15
v -105.53 -83.9698 1197.17
v -106.231 -83.5798 1196.63
v -106.213 -83.0932 1196.47
v -106.182 -83.0251 1196.52
v -105.887 -83.4733 1196.84
v -106.173 -82.9859 1196.18
v -106.118 -82.8996 1196.12
v -106.032 -82.8628 1195.89
v -105.854 -82.8254 1195.63
v -106.11 -82.983 1196.44
v -106.097 -82.8404 1196.29
v -106.033 -82.8027 1196.22
v -105.996 -82.9974 1196.42
v -105.998 -82.8568 1196.28
v -106.003 -82.7284 1196.16
v -105.787 -82.6032 1195.87
v -105.672 -82.6461 1195.92
v -105.562 -82.5702 1195.78
v -105.606 -82.6876 1195.58
v -104.857 -84.3462 1197.05
v -105.255 -84.3732 1197.02
v -105.041 -84.1249 1197.11
v -105.34 -82.6603 1195.78
v -105.209 -82.786 1195.33
v -105.034 -83.0684 1195.09
v -105.164 -82.5946 1195.62
v -104.445 -84.2675 1196.88
v -104.514 -84.1306 1196.87
v -104.21 -84.1668 1196.64
v -104.18 -83.8159 1196.42
v -104.369 -82.9472 1195.64
v -104.382 -82.9352 1195.52
v -104.205 -83.4501 1195.51
v -104.752 -82.6752 1195.48
v -104.134 -84.152 1196
v -104.023 -83.7481 1195.92
v -103.982 -83.8558 1196.34
v -103.991 -83.3806 1195.87
v -108.389 -94.4596 1187.23
v -108.871 -93.9254 1186.69
v -108.912 -94.0332 1186.86
v -108.828 -94.1205 1187.04
v -108.701 -94.2918 1187.13
v -108.701 -94.2918 1187.13
v -108.817 -93.547 1186.32
v -108.644 -93.4352 1186.11
v -108.433 -93.3199 1186.01
v -108.081 -94.5407 1187.3
v -107.973 -94.5184 1187.3
v -107.782 -94.5523 1187.28
v -107.767 -93.4714 1186
v -107.767 -93.4714 1186
v -107.635 -93.4276 1185.96
v -107.635 -93.4276 1185.96
v -107.635 -93.4276 1185.96
v -107.583 -93.0804 1186.19
v -107.534 -93.3829 1185.98
v -107.534 -93.3829 1185.98
v -108.258 -93.3256 1185.92
v -108.15 -93.3442 1185.92
v -107.968 -93.3689 1185.89
v -107.968 -93.3689 1185.89
v -107.724 -93.1801 1186.05
v -107.724 -93.1801 1186.05
v -107.405 -94.3921 1187.02
v -107.405 -94.3921 1187.02
v -107.323 -94.3069 1186.92
v -107.397 -93.5049 1186.02
v -107.149 -93.7873 1186.27
v -107.084 -94.126 1186.74
v -107.084 -94.126 1186.74
v -106.025 -83.6152 1197.02
v -105.823 -83.8593 1197.14
v -105.53 -83.9698 1197.17
v -106.213 -83.0932 1196.47
v -106.213 -83.0932 1196.47
v -106.182 -83.0251 1196.52
v -106.182 -83.0251 1196.52
v -106.11 -82.983 1196.44
v -106.11 -82.983 1196.44
v -106.097 -82.8404 1196.29
v -106.097 -82.8404 1196.29
v -106.033 -82.8027 1196.22
v -106.003 -82.7284 1196.16
v -106.003 -82.7284 1196.16
v -105.787 -82.6032 1195.87
v -105.562 -82.5702 1195.78
v -105.562 -82.5702 1195.78
v -105.606 -82.6876 1195.58
v -105.606 -82.6876 1195.58
v -104.857 -84.3462 1197.05
v -104.857 -84.3462 1197.05
v -105.255 -84.3732 1197.02
v -105.041 -84.1249 1197.11
v -105.34 -82.6603 1195.78
v -105.34 -82.6603 1195.78
v -105.164 -82.5946 1195.62
v -105.164 -82.5946 1195.62
v -104.445 -84.2675 1196.88
v -104.514 -84.1306 1196.87
v -104.514 -84.1306 1196.87
v -104.21 -84.1668 1196.64
v -104.369 -82.9472 1195.64
v -104.369 -82.9472 1195.64
v -104.382 -82.9352 1195.52
v -104.382 -82.9352 1195.52
v -104.752 -82.6752 1195.48
v -104.752 -82.6752 1195.48
v -103.982 -83.8558 1196.34
v -103.991 -83.3806 1195.87
vn -0.424006 -0.618107 0.661938
vn -0.531494 -0.537725 0.654496
vn -0.298989 -0.618349 0.726808
vn -0.943561 -0.137667 -0.301231
vn -0.984183 -0.118242 0.13192
vn -0.993154 -0.053214 -0.103987
vn -0.397175 -0.799479 -0.45065
vn -0.600543 -0.76992 -0.215803
vn -0.704781 -0.429204 0.564861
vn -0.987731 0.0447481 -0.149619
vn -0.929893 0.190794 -0.314479
vn -0.28377 -0.59542 -0.751631
vn -0.199478 -0.628344 -0.751926
vn -0.943201 0.249886 -0.218926
vn -0.297541 -0.405713 -0.864214
vn -0.836162 0.413097 -0.36081
vn -0.136796 -0.674767 0.725243
vn -0.0148056 -0.851762 -0.523719
vn -0.075951 -0.776875 -0.625058
vn -0.0536168 -0.678067 0.733042
vn 0.276062 -0.693357 0.665616
vn -0.13357 -0.716402 -0.684783
vn -0.0505553 -0.711884 -0.700475
vn -0.316361 0.224539 -0.921682
vn 0.0166006 -0.613338 -0.789646
vn 0.382218 0.537101 -0.751952
vn 0.141522 -0.413718 -0.899338
vn -0.240148 -0.575145 -0.782008
vn -0.166596 -0.692131 -0.702282
vn -0.120078 -0.740753 -0.660958
vn -0.0555691 0.614335 -0.787086
vn 0.102195 0.618189 -0.779358
vn -0.316361 0.224539 -0.921682
vn 0.222513 0.61435 -0.757009
vn -0.0830326 -0.764034 -0.639811
vn 9.93341e-05 -0.76912 -0.639105
vn -0.0264811 -0.524983 -0.850701
vn 0.00252672 -0.747513 -0.664243
vn 0.645821 0.437233 -0.625894
vn 0.747972 0.287406 -0.598277
vn 0.842391 0.19442 -0.502572
vn 0.588818 -0.606504 0.534272
vn 0.719023 -0.609751 0.333482
vn 0.787149 -0.565701 0.245721
vn 0.768163 0.350782 -0.53561
vn 0.971929 0.0489783 -0.230122
vn -0.636099 0.553646 -0.537452
vn -0.989995 0.026636 0.138565
vn -0.951262 0.267046 -0.154228
vn -0.326327 0.64783 -0.688351
vn -0.880822 -0.226137 0.415949
vn -0.811289 0.452558 -0.370137
vn -0.703678 -0.401157 0.586438
vn -0.964633 0.248225 -0.0887002
vn -0.499924 -0.523157 0.690204
vn -0.543487 0.612941 -0.573519
vn -0.0106054 0.66214 -0.749305
vn 0.876787 0.2216 -0.426777
vn -0.775294 -0.32065 0.544153
vn -0.926387 -0.124623 0.355354
vn -0.647759 -0.428305 0.63005
vn -0.988327 0.0765581 0.131713
vn -0.908556 0.366884 -0.199803
vn -0.774679 0.502025 -0.384505
vn -0.272321 0.673889 -0.686815
vn 0.914067 -0.350259 0.204453
vn 0.985209 -0.0506312 -0.163704
vn -0.97703 0.0506433 0.206997
vn -0.968861 0.247276 -0.0127492
vn -0.862505 0.443091 -0.244451
vn -0.671903 0.582036 -0.458018
vn 0.575296 -0.626058 0.526389
vn 0.650024 0.428968 -0.62726
vn 0.129274 -0.686625 0.715426
vn -0.266796 -0.629318 0.729917
vn 0.947477 0.0473743 -0.316297
vn -0.562981 -0.482545 0.670971
vn 0.071782 0.654651 -0.752516
vn 0.314318 -0.723782 0.614284
vn 0.540383 -0.668134 0.511452
vn 0.744184 -0.568169 0.351247
vn 0.958142 -0.285706 -0.0183335
vn 0.949284 -0.0859307 -0.30245
vn 0.350148 0.569449 -0.743723
vn 0.774542 0.278824 -0.567751
vn 0.565353 0.452294 -0.689787
vn -0.936317 -0.0549545 0.34683
vn -0.845853 -0.220164 0.485861
vn -0.93269 0.351097 -0.0825829
vn -0.976612 0.150778 0.153284
vn -0.657319 0.603829 -0.450912
vn -0.466256 0.665834 -0.582469
vn -0.801406 0.515501 -0.303327
vn -0.655673 0.620403 -0.43034
vn -0.185811 0.691202 -0.698365
vn -0.949104 0.314761 0.0113182
vn -0.842245 0.49294 -0.218251
vn -0.675269 -0.396577 0.621883
vn 0.0827911 -0.730471 0.677907
vn 0.429593 -0.728316 0.533859
vn 0.0488588 0.664047 -0.746092
vn 0.692072 0.318531 -0.647745
vn -0.826827 -0.222199 0.516706
vn -0.94402 0.00677988 0.329819
vn -0.460061 0.689788 -0.559049
vn -0.205453 0.706625 -0.677105
vn 0.72045 -0.626034 0.298385
vn -0.966972 0.181961 0.178483
vn -0.710408 0.606081 -0.357751
vn 0.893662 -0.446713 0.0426186
vn 0.896267 0.0148817 -0.443265
vn -0.891284 0.440474 -0.107681
vn -0.896554 -0.0921113 0.433252
vn -0.930074 0.167679 0.326874
vn -0.846813 -0.168985 0.504334
vn -0.751789 -0.284937 0.594663
vn -0.642292 -0.406116 0.650024
vn -0.451888 -0.545118 0.706147
vn -0.83389 -0.107061 0.541448
vn -0.663613 -0.358175 0.656756
vn -0.280346 -0.305524 0.909979
vn 0.0655306 0.404345 0.912256
vn -0.0204863 -0.200629 0.979453
vn -0.909799 0.0467763 0.412406
vn -0.944853 0.309332 0.107545
vn -0.881229 0.190081 0.432787
vn 0.286345 0.66929 0.685607
vn -0.894839 0.444489 -0.0411372
vn -0.817401 0.567153 -0.100956
vn -0.755054 0.593532 -0.278591
vn -0.589114 0.667046 -0.456064
vn -0.730403 0.587942 -0.347613
vn -0.520881 0.640586 0.56421
vn -0.759902 0.649783 0.0182016
vn 0.266276 0.694758 0.668138
vn 0.172642 0.704954 0.687921
vn -0.799315 0.595486 -0.0805728
vn -0.559023 0.723882 -0.404336
vn 0.250146 0.74071 0.623518
vn 0.185494 0.7976 0.573957
vn -0.33014 0.762878 -0.5559
vn 0.201197 -0.752809 0.626736
vn -0.035507 -0.580989 0.813136
vn 0.304862 0.669719 0.677152
vn 0.302154 0.694041 0.65346
vn -0.0516909 0.747245 -0.662535
vn 0.133324 0.647141 -0.750622
vn -0.216548 0.963716 0.156075
vn 0.5364 -0.718768 0.442321
vn -0.0960994 0.723189 0.683931
vn 0.798463 -0.575835 0.175698
vn 0.384044 0.603682 0.698626
vn 0.878552 0.364114 -0.309138
vn 0.624669 0.373602 -0.685719
vn 0.845916 0.248317 -0.471979
vn 0.175493 0.678668 -0.71317
vn 0.928266 -0.359598 -0.0949247
vn 0.956194 -0.205492 -0.208487
vn 0.946142 -0.316271 -0.0691931
vn 0.378993 0.657573 0.651124
vn -0.126933 -0.779314 -0.613643
vn -0.224247 -0.721462 -0.655138
vn -0.423423 -0.820149 -0.384796
vn -0.867344 -0.251848 0.429287
vn -0.724629 -0.652967 -0.220332
vn -0.276167 -0.816021 -0.507782
vn -0.438264 -0.592019 -0.676342
vn -0.720253 0.497105 -0.483861
vn -0.480886 0.607132 -0.632565
vn 0.0517109 -0.821131 -0.568392
vn 0.0442526 -0.716482 0.6962
vn -0.140541 -0.817994 -0.557793
vn -0.316361 0.224539 -0.921682
vn 0.498835 0.0912548 -0.86188
vn 0.174153 -0.528191 -0.831075
vn 0.435707 0.442977 -0.783537
vn -0.0852632 0.550896 -0.830207
vn -0.0852632 0.550896 -0.830207
vn -0.0852632 0.550896 -0.830207
vn 0.54504 0.495971 -0.675976
vn -0.156434 0.623067 -0.766366
vn 0.0121397 0.550752 -0.83458
vn 0.498835 0.0912548 -0.86188
vn 0.024452 0.573049 -0.819157
vn 0.498835 0.0912548 -0.86188
vn 0.269468 0.568056 -0.777624
vn 0.536641 -0.680186 0.499363
vn 0.776818 -0.620309 0.108495
vn 0.728164 -0.670151 0.14379
vn 0.729221 0.255471 -0.6348
vn 0.913422 0.106757 -0.392765
vn 0.160286 -0.790134 -0.591605
vn 0.989664 -0.0401082 -0.137685
vn 0.125236 0.583676 0.80227
vn -0.0775338 0.241872 0.967206
vn 0.303211 0.6668 0.680765
vn -0.730403 0.587942 -0.347613
vn -0.520881 0.640586 0.56421
vn -0.730403 0.587942 -0.347613
vn 0.239794 0.705517 0.666892
vn 0.207343 0.720236 0.662019
vn -0.520881 0.640586 0.56421
vn -0.8153 0.574428 -0.0729326
vn 0.184027 0.7459 0.640131
vn -0.0140408 0.742028 0.670222
vn -0.213226 0.664156 0.716541
vn 0.222967 0.780841 0.583586
vn 0.0949349 0.865799 0.491303
vn -0.294661 0.849562 -0.437514
vn 0.321092 0.782715 -0.533157
vn 0.321092 0.782715 -0.533157
vn -0.216548 0.963716 0.156075
vn -0.0960994 0.723189 0.683931
vn 0.333122 0.231158 0.914109
vn -0.0960994 0.723189 0.683931
vn 0.180558 -0.454484 0.872263
vn 0.321092 0.782715 -0.533157
vn -0.216548 0.963716 0.156075
vn -0.077705 0.838945 -0.53864
vn 0.320279 0.752506 0.575462
vn 0.469807 0.293826 0.832435
vn 0.337313 -0.551632 0.762838
vn 0.437307 0.475464 0.763346
vn 0.531838 0.403027 0.744794
vn 0.327015 0.712057 0.621318
vn 0.573411 0.81903 0.0197369
vn 0.943302 0.324522 -0.0697633
vn 0.573411 0.81903 0.0197369
vn 0.333953 0.780865 0.527945
vn 0.573411 0.81903 0.0197369
vn 0.403973 0.559023 0.724085
vn 0.91673 0.0671958 -0.393817
g grp1
usemtl mtl1
f 6//6 48//48 10//10 
f 1//1 2//2 9//9 
f 3//3 2//2 1//1 
f 55//55 2//2 3//3 
f 53//53 9//9 2//2 
f 53//53 2//2 55//55 
f 5//5 6//6 4//4 
f 6//6 10//10 4//4 
f 163//163 162//162 7//7 
f 48//48 6//6 5//5 
f 8//8 163//163 7//7 
f 165//165 8//8 7//7 
f 166//166 7//7 161//161 
f 161//161 7//7 162//162 
f 162//162 13//13 19//19 
f 161//161 162//162 19//19 
f 164//164 9//9 51//51 
f 53//53 51//51 9//9 
f 10//10 14//14 11//11 
f 4//4 10//10 11//11 
f 162//162 167//167 12//12 
f 11//11 14//14 16//16 
f 16//16 168//168 11//11 
f 13//13 162//162 12//12 
f 12//12 15//15 13//13 
f 15//15 28//28 13//13 
f 13//13 28//28 22//22 
f 47//47 169//169 168//168 
f 16//16 47//47 168//168 
f 50//50 169//169 47//47 
f 169//169 50//50 181//181 
f 3//3 1//1 17//17 
f 161//161 19//19 170//170 
f 18//18 170//170 19//19 
f 20//20 3//3 17//17 
f 171//171 20//20 17//17 
f 21//21 20//20 171//171 
f 18//18 19//19 172//172 
f 19//19 35//35 172//172 
f 3//3 20//20 74//74 
f 21//21 74//74 20//20 
f 42//42 21//21 187//187 
f 19//19 36//36 35//35 
f 19//19 13//13 22//22 
f 22//22 28//28 29//29 
f 22//22 29//29 30//30 
f 22//22 30//30 19//19 
f 19//19 30//30 23//23 
f 19//19 23//23 25//25 
f 33//33 24//24 173//173 
f 185//185 174//174 183//183 
f 25//25 23//23 175//175 
f 176//176 186//186 26//26 
f 27//27 25//25 175//175 
f 179//179 177//177 178//178 
f 19//19 25//25 38//38 
f 37//37 25//25 27//27 
f 186//186 84//84 26//26 
f 190//190 180//180 39//39 
f 26//26 84//84 180//180 
f 182//182 181//181 31//31 
f 31//31 181//181 50//50 
f 182//182 31//31 184//184 
f 32//32 184//184 31//31 
f 32//32 186//186 184//184 
f 57//57 32//32 31//31 
f 34//34 186//186 32//32 
f 57//57 31//31 50//50 
f 84//84 186//186 34//34 
f 84//84 34//34 32//32 
f 43//43 42//42 187//187 
f 19//19 38//38 36//36 
f 43//43 188//188 189//189 
f 43//43 189//189 44//44 
f 38//38 192//192 36//36 
f 193//193 191//191 46//46 
f 38//38 25//25 37//37 
f 39//39 40//40 190//190 
f 191//191 190//190 41//41 
f 40//40 41//41 190//190 
f 45//45 40//40 39//39 
f 41//41 45//45 58//58 
f 45//45 41//41 40//40 
f 41//41 58//58 46//46 
f 41//41 46//46 191//191 
f 21//21 42//42 74//74 
f 73//73 45//45 39//39 
f 73//73 58//58 45//45 
f 66//66 43//43 44//44 
f 46//46 66//66 193//193 
f 51//51 48//48 5//5 
f 5//5 164//164 51//51 
f 10//10 49//49 14//14 
f 48//48 49//49 10//10 
f 180//180 73//73 39//39 
f 51//51 60//60 48//48 
f 16//16 14//14 49//49 
f 42//42 43//43 66//66 
f 52//52 47//47 16//16 
f 56//56 47//47 52//52 
f 56//56 50//50 47//47 
f 53//53 55//55 61//61 
f 59//59 60//60 51//51 
f 59//59 51//51 53//53 
f 49//49 52//52 16//16 
f 60//60 62//62 48//48 
f 62//62 54//54 48//48 
f 48//48 54//54 49//49 
f 49//49 54//54 52//52 
f 75//75 55//55 3//3 
f 52//52 64//64 56//56 
f 65//65 50//50 56//56 
f 50//50 65//65 57//57 
f 61//61 59//59 53//53 
f 69//69 54//54 62//62 
f 54//54 63//63 52//52 
f 64//64 52//52 63//63 
f 54//54 69//69 63//63 
f 65//65 56//56 92//92 
f 72//72 74//74 42//42 
f 72//72 42//42 66//66 
f 67//67 66//66 46//46 
f 58//58 67//67 46//46 
f 84//84 73//73 180//180 
f 60//60 68//68 62//62 
f 68//68 69//69 62//62 
f 75//75 77//77 55//55 
f 61//61 55//55 77//77 
f 71//71 56//56 64//64 
f 56//56 71//71 92//92 
f 71//71 64//64 70//70 
f 84//84 32//32 57//57 
f 66//66 81//81 72//72 
f 82//82 81//81 66//66 
f 63//63 70//70 64//64 
f 70//70 63//63 69//69 
f 70//70 69//69 89//89 
f 61//61 77//77 59//59 
f 71//71 70//70 93//93 
f 65//65 95//95 57//57 
f 95//95 78//78 57//57 
f 92//92 95//95 65//65 
f 72//72 79//79 74//74 
f 80//80 79//79 72//72 
f 80//80 72//72 81//81 
f 84//84 57//57 78//78 
f 58//58 76//76 67//67 
f 67//67 82//82 66//66 
f 85//85 58//58 73//73 
f 89//89 93//93 70//70 
f 75//75 3//3 74//74 
f 82//82 76//76 83//83 
f 85//85 83//83 76//76 
f 86//86 73//73 84//84 
f 73//73 86//86 85//85 
f 85//85 76//76 58//58 
f 82//82 67//67 76//76 
f 88//88 60//60 59//59 
f 88//88 87//87 60//60 
f 88//88 59//59 98//98 
f 98//98 59//59 77//77 
f 87//87 68//68 60//60 
f 90//90 68//68 87//87 
f 69//69 68//68 90//90 
f 91//91 71//71 93//93 
f 92//92 71//71 91//91 
f 99//99 74//74 79//79 
f 101//101 78//78 95//95 
f 84//84 78//78 101//101 
f 79//79 80//80 100//100 
f 111//111 83//83 85//85 
f 88//88 98//98 103//103 
f 87//87 88//88 103//103 
f 90//90 89//89 69//69 
f 91//91 93//93 94//94 
f 99//99 75//75 74//74 
f 81//81 100//100 80//80 
f 86//86 84//84 102//102 
f 102//102 85//85 86//86 
f 89//89 90//90 96//96 
f 104//104 90//90 87//87 
f 77//77 75//75 118//118 
f 94//94 92//92 91//91 
f 96//96 97//97 89//89 
f 100//100 99//99 79//79 
f 106//106 101//101 95//95 
f 107//107 100//100 81//81 
f 81//81 82//82 107//107 
f 111//111 85//85 102//102 
f 103//103 104//104 87//87 
f 89//89 97//97 93//93 
f 94//94 97//97 109//109 
f 77//77 118//118 98//98 
f 105//105 106//106 95//95 
f 105//105 92//92 94//94 
f 105//105 95//95 92//92 
f 97//97 94//94 93//93 
f 146//146 101//101 106//106 
f 82//82 83//83 110//110 
f 155//155 111//111 102//102 
f 97//97 112//112 109//109 
f 103//103 98//98 117//117 
f 106//106 105//105 141//141 
f 109//109 105//105 94//94 
f 141//141 146//146 106//106 
f 142//142 99//99 100//100 
f 82//82 110//110 107//107 
f 110//110 83//83 157//157 
f 104//104 108//108 90//90 
f 108//108 96//96 90//90 
f 96//96 108//108 112//112 
f 112//112 97//97 96//96 
f 113//113 104//104 103//103 
f 109//109 130//130 131//131 
f 131//131 105//105 109//109 
f 141//141 105//105 131//131 
f 149//149 100//100 107//107 
f 149//149 142//142 100//100 
f 147//147 84//84 101//101 
f 157//157 83//83 111//111 
f 117//117 98//98 118//118 
f 112//112 130//130 109//109 
f 129//129 130//130 112//112 
f 75//75 143//143 118//118 
f 147//147 101//101 146//146 
f 157//157 111//111 158//158 
f 113//113 103//103 115//115 
f 103//103 117//117 116//116 
f 112//112 108//108 125//125 
f 113//113 124//124 104//104 
f 124//124 108//108 104//104 
f 124//124 114//114 108//108 
f 114//114 125//125 108//108 
f 143//143 75//75 99//99 
f 154//154 155//155 102//102 
f 102//102 84//84 154//154 
f 116//116 115//115 103//103 
f 124//124 113//113 115//115 
f 142//142 143//143 99//99 
f 151//151 107//107 110//110 
f 114//114 124//124 126//126 
f 115//115 116//116 119//119 
f 120//120 116//116 117//117 
f 119//119 116//116 120//120 
f 117//117 121//121 120//120 
f 117//117 118//118 121//121 
f 121//121 118//118 143//143 
f 194//194 122//122 127//127 
f 194//194 195//195 122//122 
f 195//195 121//121 122//122 
f 143//143 123//123 121//121 
f 121//121 123//123 122//122 
f 122//122 196//196 127//127 
f 115//115 119//119 124//124 
f 119//119 126//126 124//124 
f 126//126 125//125 114//114 
f 199//199 132//132 197//197 
f 200//200 194//194 127//127 
f 201//201 200//200 135//135 
f 200//200 127//127 135//135 
f 135//135 127//127 139//139 
f 112//112 125//125 128//128 
f 129//129 112//112 128//128 
f 138//138 141//141 131//131 
f 202//202 133//133 198//198 
f 125//125 203//203 128//128 
f 129//129 128//128 203//203 
f 134//134 129//129 203//203 
f 137//137 130//130 129//129 
f 138//138 130//130 137//137 
f 131//131 130//130 138//138 
f 136//136 204//204 201//201 
f 201//201 135//135 136//136 
f 205//205 204//204 136//136 
f 205//205 136//136 206//206 
f 129//129 134//134 137//137 
f 135//135 139//139 136//136 
f 136//136 139//139 207//207 
f 208//208 207//207 139//139 
f 139//139 145//145 140//140 
f 139//139 140//140 208//208 
f 138//138 209//209 141//141 
f 211//211 210//210 217//217 
f 144//144 127//127 196//196 
f 123//123 143//143 216//216 
f 213//213 150//150 215//215 
f 143//143 222//222 216//216 
f 144//144 223//223 127//127 
f 139//139 127//127 145//145 
f 212//212 218//218 148//148 
f 219//219 146//146 141//141 
f 146//146 156//156 147//147 
f 146//146 219//219 156//156 
f 151//151 149//149 107//107 
f 221//221 223//223 214//214 
f 127//127 223//223 152//152 
f 223//223 221//221 224//224 
f 223//223 224//224 152//152 
f 127//127 152//152 145//145 
f 156//156 154//154 84//84 
f 155//155 227//227 153//153 
f 145//145 225//225 220//220 
f 160//160 225//225 152//152 
f 232//232 155//155 153//153 
f 152//152 225//225 145//145 
f 147//147 156//156 84//84 
f 220//220 225//225 229//229 
f 226//226 228//228 230//230 
f 151//151 110//110 157//157 
f 158//158 111//111 232//232 
f 159//159 151//151 157//157 
f 157//157 158//158 159//159 
f 158//158 232//232 159//159 
f 152//152 224//224 231//231 
f 232//232 111//111 155//155 
f 160//160 152//152 231//231 
