#
# The license for this database is specified in the Creative Commons Attribution-Share Alike 2.1 Japan. If you use data from this database, please be sure attribute this database as follows: "BodyParts3D, (c)  The Database Center for Life Science licensed under CC Attribution-Share Alike 2.1 Japan".
# http://dbarchive.biosciencedbc.jp/en/bodyparts3d/lic.html
#
#
# Compatibility version : 4.0
# File ID : FJ3002
# Representation ID : BP9767
# Build-up logic : FMA 3.0 part_of
# Concept ID : FMA68723
# English name : Basal branch of right anterior basal segmental artery
# Bounds(mm): (-114.302000,-88.635700,1191.600000)-(-77.257700,-75.076000,1212.210000)
# Volume(cm3): 0.333900
#
v -113.233 -88.0596 1191.69
v -113.953 -88 1193.41
v -114.16 -86.9541 1192.09
v -114.302 -87.5788 1193.2
v -113.588 -86.5734 1192.5
v -113.567 -86.8632 1193.42
v -113.753 -87.2574 1193.52
v -113.615 -88.5962 1192.92
v -113.024 -88.4489 1192.88
v -112.923 -88.1486 1193.4
v -112.88 -88.3074 1193.16
v -113.703 -87.612 1191.83
v -113.425 -88.6357 1192.41
v -112.374 -88.1712 1192.8
v -113.422 -87.3116 1191.6
v -113.881 -86.9072 1191.9
v -108.896 -84.1969 1195.15
v -107.299 -83.4188 1194.95
v -105.746 -85.1494 1196.06
v -105.808 -84.2501 1197.06
v -106.86 -83.9134 1196.67
v -104.02 -83.1514 1195.35
v -103.561 -82.002 1198.08
v -101.29 -83.3768 1198.12
v -103.784 -82.3573 1195.76
v -101.066 -83.1012 1197.03
v -101.813 -82.196 1199.18
v -100.808 -82.8306 1199.13
v -102.431 -81.131 1198.06
v -97.6473 -81.1088 1198.27
v -99.2039 -80.2215 1200.31
v -97.2975 -81.9673 1200.52
v -98.4677 -80.6154 1197.97
v -99.8422 -80.0649 1198.76
v -96.748 -81.664 1199.15
v -97.5287 -80.331 1201.55
v -96.4893 -80.9566 1201.89
v -95.987 -79.156 1199.69
v -94.3225 -79.3619 1200.02
v -95.4412 -78.625 1201.92
v -90.5137 -80.4651 1203.69
v -93.2749 -77.8821 1202.02
v -90.1883 -80.0576 1204.98
v -91.3919 -77.3935 1203.94
v -88.3911 -79.433 1203.31
v -88.4238 -78.8246 1203.02
v -87.5682 -77.763 1203.59
v -90.4867 -77.6254 1202.57
v -90.2274 -78.4678 1205.78
v -89.6564 -77.6284 1205.85
v -88.1624 -76.6811 1204.69
v -86.335 -76.3649 1206.91
v -84.9508 -76.322 1205.9
v -77.6228 -78.4983 1209.54
v -77.4405 -77.725 1209.04
v -80.1089 -76.6522 1211.82
v -79.5392 -78.6747 1211.35
v -79.7258 -78.3821 1211.62
v -78.886 -78.4465 1211.85
v -78.8128 -79.03 1210.41
v -78.2066 -78.7623 1211.03
v -78.7338 -77.9515 1211.82
v -79.8483 -77.7627 1211.9
v -79.072 -76.5859 1212.21
v -78.5274 -75.2961 1209.66
v -77.8269 -75.415 1209.82
v -78.6826 -75.076 1210.39
v -77.6834 -78.4853 1210.07
v -77.2577 -76.8392 1209.1
v -78.2944 -76.6704 1208.53
v -77.6127 -75.8547 1209.24
v -79.8153 -75.8516 1211.55
v -78.9794 -75.665 1211.87
v -78.9909 -75.4344 1211.68
v -113.233 -88.0596 1191.69
v -113.233 -88.0596 1191.69
v -113.953 -88 1193.41
v -113.953 -88 1193.41
v -114.16 -86.9541 1192.09
v -114.16 -86.9541 1192.09
v -114.16 -86.9541 1192.09
v -114.302 -87.5788 1193.2
v -113.615 -88.5962 1192.92
v -113.425 -88.6357 1192.41
v -113.425 -88.6357 1192.41
v -112.374 -88.1712 1192.8
v -113.422 -87.3116 1191.6
v -113.881 -86.9072 1191.9
v -101.29 -83.3768 1198.12
v -101.066 -83.1012 1197.03
v -101.066 -83.1012 1197.03
v -97.2975 -81.9673 1200.52
v -96.748 -81.664 1199.15
v -77.6228 -78.4983 1209.54
v -77.4405 -77.725 1209.04
v -78.886 -78.4465 1211.85
v -78.886 -78.4465 1211.85
v -78.8128 -79.03 1210.41
v -78.2066 -78.7623 1211.03
v -78.2066 -78.7623 1211.03
v -78.7338 -77.9515 1211.82
v -79.072 -76.5859 1212.21
v -77.8269 -75.415 1209.82
v -78.6826 -75.076 1210.39
v -77.6834 -78.4853 1210.07
v -77.2577 -76.8392 1209.1
v -77.6127 -75.8547 1209.24
v -78.9794 -75.665 1211.87
v -78.9909 -75.4344 1211.68
vn -0.576283 -0.369034 -0.729185
vn -0.428802 -0.0345166 0.902739
vn -0.828662 -0.430329 -0.35796
vn -0.84332 -0.513515 -0.158474
vn -0.484179 0.874158 -0.0376628
vn -0.61856 0.593822 0.514548
vn -0.539613 0.227841 0.810497
vn -0.834708 -0.547596 -0.0583128
vn 0.315043 -0.931586 0.181371
vn 0.0329794 -0.737001 0.675086
vn 0.199156 -0.870816 0.449462
vn -0.659925 -0.323505 -0.678118
vn -0.79242 -0.4658 -0.393827
vn 0.394081 -0.918057 0.043268
vn -0.540949 -0.111607 -0.833617
vn -0.183057 0.807367 -0.560935
vn -0.522789 0.811329 0.261604
vn -0.304101 0.907815 -0.288781
vn 0.236556 -0.908858 0.343539
vn -0.189571 -0.492573 0.849373
vn -0.470086 0.123725 0.873906
vn 0.37451 0.0517634 -0.925777
vn -0.55036 0.458029 0.698079
vn 0.102942 -0.894818 0.434401
vn 0.0311239 0.676389 -0.735887
vn 0.500865 -0.732534 -0.461007
vn -0.408059 -0.167347 0.897487
vn -0.0743175 -0.744786 0.663152
vn -0.477689 0.845169 0.239799
vn 0.474006 -0.177279 -0.862491
vn -0.541391 0.530845 0.651997
vn -0.0795271 -0.806791 0.58546
vn 0.274792 0.396312 -0.876029
vn -0.250558 0.940644 -0.22893
vn 0.347567 -0.925199 -0.15233
vn -0.507415 0.086176 0.857382
vn -0.303333 -0.50335 0.809091
vn 0.0552184 0.777748 -0.626146
vn 0.356008 0.337185 -0.87153
vn -0.442035 0.840965 0.312063
vn 0.217233 -0.972577 -0.0830874
vn -0.169142 0.963781 -0.206199
vn -0.236715 -0.749557 0.618167
vn -0.349235 0.909 0.227497
vn 0.458021 -0.5937 -0.661617
vn 0.477831 -0.0830087 -0.874521
vn 0.373413 0.408819 -0.832724
vn 0.156723 0.760297 -0.630386
vn -0.504433 -0.0291656 0.862958
vn -0.499232 0.578298 0.645244
vn -0.090689 0.976537 -0.195325
vn -0.318083 0.909673 0.267055
vn 0.149279 0.839169 -0.522983
vn 0.392014 -0.853272 -0.343877
vn 0.484501 -0.252564 -0.837538
vn -0.451801 0.245491 0.857677
vn -0.137729 -0.854267 0.501258
vn -0.308036 -0.597594 0.740267
vn -0.116308 -0.795789 0.5943
vn -0.0160751 -0.938038 0.346159
vn 0.805478 -0.0544396 0.590119
vn 0.8381 0.00850438 0.545451
vn -0.284003 -0.241973 0.927788
vn -0.236359 0.0239772 0.97137
vn 0.177828 0.89244 -0.414642
vn 0.820489 0.430386 0.376254
vn -0.0412047 0.991967 -0.119597
vn 0.439935 -0.897738 0.0228799
vn 0.924612 0.0773171 0.372981
vn 0.469058 0.144395 -0.871283
vn 0.341712 0.604641 -0.719474
vn -0.445777 0.542416 0.712087
vn 0.841027 0.211066 0.49812
vn -0.397916 0.756541 0.518949
vn 0.498512 -0.735115 -0.459447
vn 0.432566 -0.149844 -0.889063
vn -0.0854916 -0.631373 0.770753
vn -0.79763 -0.582078 0.158026
vn -0.361409 0.877903 -0.314117
vn -0.681776 0.684721 0.257562
vn -0.570795 -0.0555051 -0.819215
vn -0.66225 0.399538 0.633873
vn 0.141281 -0.870846 0.470814
vn 0.323398 -0.941244 0.0973295
vn 0.496152 -0.737686 -0.457879
vn 0.498512 -0.735115 -0.459447
vn 0.201161 0.353632 -0.913498
vn -0.560163 -0.021371 -0.828106
vn 0.38856 -0.913866 -0.117768
vn 0.398642 -0.913758 -0.0783019
vn 0.488383 -0.326923 -0.809076
vn 0.240895 -0.969762 0.0391366
vn 0.499837 -0.406222 -0.764949
vn 0.980878 -0.155979 0.1164
vn 0.978613 -0.181351 0.0970955
vn 0.721079 -0.185265 0.667625
vn 0.0744341 0.0314493 0.99673
vn 0.380649 -0.922565 -0.0630908
vn 0.0269092 -0.925377 0.378091
vn 0.427206 -0.903723 -0.0279394
vn 0.048402 -0.120101 0.991581
vn 0.863664 0.0841953 0.496986
vn 0.238114 0.891121 -0.386272
vn 0.534288 0.77285 0.342403
vn 0.950472 -0.0556313 0.305792
vn 0.491157 0.130026 -0.861312
vn 0.94039 0.324713 0.101131
vn -0.38737 0.453317 0.802775
vn 0.663497 0.618051 0.421644
g grp1
usemtl mtl1
f 12//12 1//1 13//13 
f 7//7 2//2 21//21 
f 21//21 2//2 20//20 
f 4//4 3//3 13//13 
f 79//79 5//5 16//16 
f 7//7 6//6 82//82 
f 82//82 6//6 80//80 
f 5//5 80//80 6//6 
f 82//82 2//2 7//7 
f 8//8 4//4 13//13 
f 83//83 84//84 9//9 
f 84//84 14//14 9//9 
f 77//77 83//83 10//10 
f 4//4 8//8 78//78 
f 83//83 11//11 10//10 
f 9//9 11//11 83//83 
f 11//11 9//9 19//19 
f 19//19 9//9 14//14 
f 20//20 77//77 10//10 
f 11//11 19//19 10//10 
f 12//12 13//13 3//3 
f 81//81 15//15 12//12 
f 85//85 75//75 86//86 
f 12//12 15//15 1//1 
f 81//81 88//88 15//15 
f 22//22 76//76 87//87 
f 86//86 75//75 26//26 
f 16//16 25//25 87//87 
f 22//22 87//87 25//25 
f 25//25 16//16 18//18 
f 16//16 5//5 18//18 
f 7//7 21//21 6//6 
f 20//20 10//10 19//19 
f 19//19 14//14 90//90 
f 17//17 18//18 5//5 
f 6//6 17//17 5//5 
f 91//91 76//76 22//22 
f 20//20 27//27 21//21 
f 20//20 28//28 27//27 
f 20//20 19//19 28//28 
f 28//28 19//19 24//24 
f 89//89 19//19 90//90 
f 29//29 18//18 17//17 
f 22//22 25//25 33//33 
f 23//23 6//6 21//21 
f 17//17 6//6 23//23 
f 29//29 17//17 23//23 
f 89//89 90//90 35//35 
f 91//91 22//22 30//30 
f 30//30 22//22 33//33 
f 18//18 29//29 34//34 
f 25//25 18//18 34//34 
f 37//37 27//27 28//28 
f 21//21 27//27 23//23 
f 37//37 36//36 27//27 
f 36//36 23//23 27//27 
f 31//31 29//29 23//23 
f 28//28 24//24 32//32 
f 89//89 35//35 92//92 
f 32//32 37//37 28//28 
f 34//34 29//29 40//40 
f 40//40 29//29 31//31 
f 38//38 25//25 34//34 
f 45//45 93//93 30//30 
f 30//30 93//93 91//91 
f 38//38 33//33 25//25 
f 39//39 30//30 33//33 
f 38//38 39//39 33//33 
f 43//43 37//37 32//32 
f 41//41 92//92 35//35 
f 37//37 49//49 36//36 
f 49//49 37//37 43//43 
f 43//43 92//92 41//41 
f 45//45 41//41 35//35 
f 36//36 31//31 23//23 
f 36//36 49//49 31//31 
f 40//40 42//42 34//34 
f 46//46 45//45 30//30 
f 30//30 39//39 46//46 
f 39//39 47//47 46//46 
f 42//42 38//38 34//34 
f 48//48 47//47 39//39 
f 38//38 48//48 39//39 
f 50//50 31//31 49//49 
f 50//50 40//40 31//31 
f 44//44 42//42 40//40 
f 42//42 48//48 38//38 
f 43//43 63//63 49//49 
f 46//46 55//55 45//45 
f 51//51 48//48 42//42 
f 44//44 40//40 50//50 
f 58//58 63//63 43//43 
f 50//50 49//49 56//56 
f 52//52 44//44 50//50 
f 44//44 52//52 51//51 
f 44//44 51//51 42//42 
f 51//51 52//52 67//67 
f 51//51 53//53 48//48 
f 60//60 43//43 41//41 
f 53//53 47//47 48//48 
f 57//57 58//58 43//43 
f 60//60 57//57 43//43 
f 49//49 63//63 56//56 
f 51//51 67//67 53//53 
f 65//65 53//53 67//67 
f 98//98 41//41 54//54 
f 55//55 46//46 70//70 
f 46//46 47//47 70//70 
f 45//45 54//54 41//41 
f 68//68 98//98 54//54 
f 95//95 105//105 94//94 
f 54//54 45//45 55//55 
f 50//50 56//56 72//72 
f 72//72 74//74 50//50 
f 57//57 60//60 59//59 
f 62//62 96//96 61//61 
f 99//99 59//59 60//60 
f 58//58 57//57 59//59 
f 59//59 63//63 58//58 
f 97//97 101//101 63//63 
f 101//101 64//64 63//63 
f 100//100 98//98 68//68 
f 61//61 105//105 62//62 
f 62//62 105//105 69//69 
f 64//64 56//56 63//63 
f 102//102 62//62 69//69 
f 102//102 69//69 73//73 
f 73//73 69//69 66//66 
f 71//71 70//70 47//47 
f 53//53 71//71 47//47 
f 103//103 71//71 65//65 
f 65//65 71//71 53//53 
f 107//107 66//66 69//69 
f 74//74 52//52 50//50 
f 74//74 67//67 52//52 
f 67//67 103//103 65//65 
f 95//95 69//69 105//105 
f 55//55 70//70 106//106 
f 106//106 70//70 71//71 
f 108//108 72//72 56//56 
f 64//64 108//108 56//56 
f 74//74 72//72 108//108 
f 73//73 66//66 109//109 
f 104//104 109//109 66//66 
