# Blender v2.77 (sub 0) OBJ File: 'BLANKOblend.blend'
# www.blender.org
mtllib diagonal branch of anterior descending branch of left coronary artery.mtl
o grp1
v 50.233604 -145.762894 1242.031250
v 50.542542 -146.189178 1242.835449
v 52.423340 -146.501297 1241.685547
v 52.841309 -147.199539 1241.921631
v 50.579590 -145.410599 1243.385986
v 51.937500 -145.715286 1243.706787
v 50.208618 -144.953506 1241.819336
v 50.040253 -145.114105 1242.605225
v 50.451492 -144.340073 1242.630615
v 50.509277 -144.706497 1243.177734
v 50.723083 -144.254105 1242.158813
v 50.578857 -145.026321 1241.637939
v 51.267578 -144.268509 1242.922607
v 52.525818 -145.105057 1242.242554
v 51.258545 -144.843948 1243.543823
v 52.602478 -147.234329 1242.522217
v 53.392334 -145.472366 1241.975586
v 53.599609 -145.439667 1242.819702
v 54.545898 -147.232620 1242.693848
v 54.557251 -147.485489 1241.765137
v 55.160156 -146.878128 1240.794922
v 54.175781 -146.097610 1241.259766
v 53.459961 -146.856644 1243.318359
v 54.517578 -145.534073 1241.686035
v 56.777344 -145.189651 1239.927734
v 56.452148 -146.907913 1240.923828
v 55.171875 -146.479691 1242.812500
v 56.820312 -145.711136 1241.995117
v 58.585938 -145.570511 1241.094238
v 56.023438 -145.074905 1240.785156
v 56.450073 -144.817337 1241.213379
v 55.495605 -145.409622 1242.024414
v 57.303711 -145.793167 1239.765625
v 58.116455 -146.037064 1240.304443
v 60.638672 -142.846878 1238.921875
v 57.583984 -144.582230 1241.491211
v 60.800781 -142.146683 1239.052734
v 61.208008 -143.842972 1239.745117
v 60.381500 -143.652191 1239.150024
v 60.204102 -142.568558 1240.798828
v 61.343750 -143.273636 1240.625000
v 60.560547 -143.103714 1241.018555
v 60.664902 -141.915192 1239.709961
v 62.881901 -142.828201 1239.150024
v 62.278500 -142.982193 1238.780029
v 62.226562 -142.517776 1238.328125
v 63.265625 -142.129105 1239.714844
v 63.937500 -140.697464 1237.023438
v 65.410156 -139.755081 1236.128906
v 64.464844 -140.121292 1238.128906
v 62.125000 -141.402542 1239.892578
v 65.208298 -140.852203 1236.000000
v 65.613281 -140.350784 1237.943359
v 65.894897 -141.340195 1237.060059
v 65.894897 -141.340195 1237.060059
v 66.447266 -141.032303 1235.558594
v 66.078125 -140.679886 1237.562500
v 66.759766 -140.049393 1234.417969
v 67.058701 -140.867203 1236.180054
v 68.105469 -140.870804 1234.958008
v 67.369202 -140.625198 1233.869995
v 67.373047 -139.151169 1235.088379
v 67.933594 -139.484085 1233.675781
v 67.583191 -140.961105 1234.468750
v 66.922852 -139.462601 1236.275391
v 68.427734 -139.829300 1235.125000
v 69.698730 -141.951981 1231.183594
v 69.694336 -141.905472 1232.369141
v 69.446098 -141.466202 1230.959961
v 69.792969 -140.675125 1230.740234
v 69.513672 -140.355667 1231.548828
v 70.867188 -141.614700 1231.613281
v 70.604492 -140.807693 1231.892578
v 68.975586 -139.677444 1233.716797
v 70.241699 -142.115463 1231.234375
v 71.236328 -141.667435 1228.921875
v 70.256592 -140.428452 1231.426514
v 72.341797 -140.993851 1226.671875
v 72.304199 -141.452103 1227.002930
v 73.069336 -141.623978 1227.777344
v 73.875000 -141.213089 1227.000000
v 73.268555 -140.600052 1228.064453
v 72.746094 -140.385941 1226.539062
v 72.205566 -140.158371 1228.589844
v 73.894531 -140.838089 1224.148438
v 74.355469 -141.853714 1222.312500
v 72.823730 -141.765518 1227.197266
v 73.673096 -140.424393 1226.414062
v 75.015625 -140.979691 1223.265625
v 74.967285 -142.292191 1221.806641
v 74.676399 -141.279205 1221.589966
v 74.894653 -140.959549 1222.115967
v 76.466736 -140.709747 1217.033203
v 74.676399 -141.279205 1221.589966
v 76.218750 -140.134964 1217.515625
v 76.602600 -139.778992 1216.983643
v 75.529175 -142.266129 1222.058350
v 74.043503 -141.530197 1223.000000
v 74.043503 -141.530197 1223.000000
v 74.526855 -142.387558 1223.628418
v 75.062500 -140.912308 1223.359375
v 74.880859 -142.084671 1224.273438
v 75.819336 -141.762894 1222.476562
v 75.749802 -140.868195 1221.579956
v 77.089539 -141.163406 1216.349609
v 76.873535 -141.027328 1217.431152
v 77.476074 -140.762665 1217.165527
v 76.946198 -141.316193 1213.839966
v 77.293518 -140.921036 1212.719482
v 77.283997 -140.711197 1213.930054
v 76.952942 -139.728287 1217.653931
v 77.418213 -140.106766 1217.903320
v 76.752441 -133.565140 1194.972168
v 77.060059 -133.798904 1194.774414
v 76.808296 -133.758194 1194.979980
v 76.855904 -133.379196 1194.989990
v 77.091797 -133.600296 1194.812988
v 76.761597 -133.566193 1194.979980
v 76.808296 -133.758194 1194.979980
v 76.931641 -133.917679 1195.285156
v 76.766899 -133.585205 1195.250000
v 76.761597 -133.566193 1194.979980
v 76.761597 -133.566193 1194.979980
v 76.855904 -133.379196 1194.989990
v 76.917397 -133.396194 1195.479980
v 76.888298 -133.303192 1195.189941
v 77.233398 -141.308197 1212.479980
v 77.795097 -140.595200 1210.239990
v 77.229614 -141.856766 1213.256958
v 78.103256 -140.550552 1209.307495
v 77.976562 -141.758743 1212.225098
v 78.497528 -140.853653 1209.949219
v 77.233398 -141.308197 1212.479980
v 77.483498 -140.781204 1213.209961
v 77.521484 -141.989975 1213.858032
v 78.194092 -141.707748 1213.628418
v 78.188843 -141.123169 1213.457153
v 78.355453 -139.448196 1205.244385
v 78.335602 -139.550201 1206.800049
v 78.022697 -139.980194 1208.770020
v 78.485298 -140.300201 1206.810059
v 78.261963 -139.700027 1210.109131
v 78.099503 -140.552200 1209.290039
v 78.858498 -139.332199 1206.900024
v 77.795097 -140.595200 1210.239990
v 77.865898 -140.042206 1210.109985
v 78.022697 -139.980194 1208.770020
v 77.865898 -140.042206 1210.109985
v 77.515625 -140.758987 1213.078125
v 77.883072 -140.856750 1213.405518
v 77.281898 -139.930191 1215.949951
v 77.691833 -140.079666 1216.378662
v 78.470215 -137.000198 1201.421875
v 78.478500 -137.002197 1202.180054
v 78.306099 -136.138199 1200.770020
v 78.478500 -137.002197 1202.180054
v 78.149452 -135.166702 1199.788574
v 78.306099 -136.138199 1200.770020
v 77.651299 -134.354202 1196.689941
v 77.851562 -134.734573 1198.328125
v 78.447266 -135.683792 1199.359375
v 78.050537 -133.941360 1196.388672
v 78.921875 -134.914261 1199.023438
v 77.687500 -134.218948 1197.875000
v 78.161400 -135.550201 1199.729980
v 78.161400 -135.550201 1199.729980
v 78.174103 -135.188202 1199.780029
v 78.478500 -135.765198 1199.479980
v 78.764648 -135.108597 1200.103516
v 77.994141 -133.722855 1197.497070
v 77.078598 -133.565201 1194.770020
v 77.080231 -133.292679 1194.935059
v 77.039429 -133.836807 1194.931274
v 77.473358 -133.579025 1195.031128
v 77.101562 -133.563797 1194.712891
v 77.081299 -133.581741 1194.775391
v 76.876129 -133.271744 1195.175415
v 78.110352 -133.959183 1196.562500
v 79.067505 -140.217239 1209.561523
v 78.669296 -139.779205 1205.010010
v 78.884804 -139.349197 1204.079956
v 78.972290 -140.264175 1206.156006
v 79.377670 -139.721268 1205.474854
v 79.348900 -139.365204 1205.780029
v 78.765625 -139.888260 1210.169922
v 79.348900 -139.365204 1205.780029
v 78.672302 -137.017197 1201.170044
v 78.883453 -139.348221 1204.067383
v 78.747070 -135.707230 1199.488281
v 79.376678 -138.520706 1203.208008
v 78.528503 -138.365204 1203.979980
v 78.679001 -138.950195 1205.400024
v 78.531418 -138.387527 1204.009766
v 79.078278 -138.363480 1204.308594
v 79.075203 -137.637192 1203.300049
v 79.078598 -138.365204 1204.310059
v 79.388199 -138.622192 1204.209961
v 79.078598 -139.085205 1205.780029
v 79.078598 -139.085205 1205.780029
v 78.858498 -139.332199 1206.900024
v 79.237793 -136.375198 1201.421875
vn -0.3013 -0.7953 -0.5260
vn -0.6159 -0.7215 0.3164
vn -0.7326 -0.4661 -0.4961
vn -0.5937 -0.1759 0.7852
vn 0.0562 -0.0770 0.9954
vn -0.7487 0.2749 -0.6033
vn -0.9786 0.0407 0.2018
vn -0.5753 0.8022 0.1600
vn -0.5863 0.4439 0.6777
vn -0.0960 0.8897 -0.4464
vn -0.1234 0.1685 -0.9779
vn -0.1764 -0.1008 -0.9791
vn 0.2085 0.9335 0.2916
vn 0.3074 0.7358 -0.6034
vn 0.0125 0.4836 0.8752
vn -0.2845 -0.9349 0.2123
vn 0.0955 -0.5037 0.8586
vn -0.0679 0.8230 -0.5640
vn 0.2369 0.8887 0.3925
vn 0.2790 -0.7666 0.5783
vn 0.0636 -0.9842 -0.1655
vn -0.1893 -0.5014 -0.8442
vn -0.3677 0.4321 -0.8235
vn -0.2297 0.8882 -0.3980
vn -0.4591 0.2939 -0.8384
vn 0.4801 -0.1968 0.8548
vn 0.3482 0.0719 0.9347
vn 0.3243 -0.9273 -0.1868
vn 0.5683 -0.6391 0.5182
vn -0.5008 0.7953 -0.3416
vn -0.3805 0.9063 0.1839
vn 0.0088 0.8789 0.4768
vn -0.0636 -0.4009 -0.9139
vn 0.4476 -0.8374 -0.3136
vn -0.3524 0.0330 -0.9353
vn -0.5939 0.5756 -0.5621
vn -0.2001 0.5858 0.7854
vn 0.5220 -0.8456 -0.1117
vn 0.1268 -0.5274 -0.8401
vn 0.5815 -0.4086 0.7035
vn 0.2538 0.1326 0.9581
vn -0.1813 0.6774 0.7129
vn -0.4660 0.8847 -0.0155
vn 0.0867 -0.8202 -0.5655
vn -0.1989 -0.5349 -0.8212
vn 0.5423 -0.8312 0.1230
vn 0.6067 -0.1781 0.7747
vn -0.5872 0.1273 -0.7994
vn -0.5339 0.7700 -0.3494
vn -0.0914 0.8956 0.4355
vn -0.0016 0.7269 0.6868
vn -0.4712 -0.4584 -0.7535
vn 0.4891 0.4119 0.7688
vn 0.3713 -0.9281 -0.0264
vn 0.6348 -0.6214 0.4593
vn -0.0604 -0.9127 -0.4040
vn 0.7164 -0.2127 0.6645
vn -0.7496 0.0733 -0.6579
vn 0.4554 -0.8353 0.3080
vn 0.4095 -0.7800 0.4732
vn -0.6715 -0.6523 -0.3516
vn -0.2382 0.8708 -0.4300
vn 0.0127 0.9998 0.0148
vn -0.2444 -0.9631 -0.1130
vn 0.3199 0.7803 0.5374
vn 0.7566 0.3536 0.5500
vn -0.4851 -0.8373 -0.2522
vn 0.1209 -0.9400 0.3191
vn -0.8013 -0.2076 -0.5610
vn -0.5658 0.6599 -0.4944
vn 0.7369 -0.4482 0.5061
vn 0.7669 0.4858 0.4195
vn 0.5121 0.8545 0.0872
vn 0.0546 0.9346 -0.3515
vn -0.3914 -0.8295 -0.3983
vn 0.0761 -0.9962 0.0423
vn 0.2067 0.9784 -0.0062
vn -0.8743 0.1164 -0.4713
vn -0.7006 -0.6020 -0.3831
vn 0.4477 -0.8503 0.2766
vn 0.7878 0.4491 0.4215
vn -0.4451 0.8369 -0.3186
vn 0.0745 0.9914 0.1075
vn -0.8655 -0.3532 -0.3553
vn -0.3292 -0.8953 -0.3001
vn -0.1521 -0.9883 0.0083
vn 0.9014 -0.1275 0.4137
vn -0.4408 0.8299 -0.3420
vn 0.4360 0.8968 0.0751
vn -0.0821 0.9919 -0.0971
vn -0.7984 -0.5707 -0.1921
vn -0.9373 0.1077 -0.3314
vn -0.8967 0.3279 -0.2974
vn -0.7556 0.6494 -0.0857
vn -0.4454 0.8853 -0.1340
vn -0.9038 0.0806 -0.4202
vn -0.7482 0.5603 -0.3554
vn -0.4157 0.9049 -0.0919
vn -0.1052 -0.9944 0.0118
vn 0.4462 -0.8942 0.0349
vn 0.6509 -0.6728 0.3516
vn 0.9459 -0.1342 0.2953
vn 0.4430 0.8920 0.0900
vn 0.4850 0.7869 0.3816
vn -0.0458 -0.9739 0.2222
vn 0.0379 -0.9847 -0.1698
vn 0.7501 -0.6141 0.2454
vn -0.9810 -0.1139 -0.1574
vn -0.8696 0.4913 -0.0497
vn 0.2288 0.9354 -0.2697
vn 0.1832 0.9692 0.1646
vn 0.8747 0.3545 0.3305
vn -0.6104 -0.0977 -0.7860
vn -0.4773 -0.5285 -0.7020
vn -0.5729 -0.5757 -0.5834
vn -0.4202 0.5022 -0.7558
vn -0.3589 0.2916 -0.8867
vn -0.4255 0.2335 -0.8743
vn -0.9394 -0.3356 0.0702
vn -0.5824 -0.8082 -0.0871
vn -0.9841 0.0301 0.1749
vn -0.9717 -0.2361 0.0017
vn -0.8919 0.4494 0.0504
vn -0.9060 0.4226 0.0251
vn -0.8520 0.3665 0.3740
vn -0.7151 0.5894 0.3758
vn -0.9026 0.4157 0.1115
vn -0.8498 -0.4271 -0.3089
vn -0.9094 -0.2934 -0.2949
vn -0.6113 -0.7702 -0.1821
vn -0.8294 -0.5376 -0.1519
vn 0.1938 -0.9379 -0.2877
vn 0.3607 -0.8957 -0.2600
vn -0.9641 0.1925 -0.1829
vn -0.0477 -0.9800 0.1930
vn 0.8204 -0.5483 0.1624
vn -0.9870 -0.0878 -0.1346
vn -0.9737 0.1913 -0.1235
vn -0.6032 0.7924 0.0903
vn -0.5514 -0.8059 -0.2154
vn -0.2144 0.9627 0.1651
vn -0.4742 -0.8693 -0.1395
vn 0.1534 0.9720 0.1780
vn -0.9823 0.0870 -0.1660
vn -0.9786 0.1324 -0.1573
vn -0.9887 0.1005 -0.1110
vn -0.6833 0.7297 0.0261
vn -0.4193 0.8951 -0.1518
vn -0.2855 0.9571 0.0487
vn 0.3722 0.9208 0.1167
vn 0.1138 0.9628 -0.2451
vn 0.8399 0.5393 0.0610
vn 0.9136 0.3623 0.1844
vn -0.9957 0.0521 0.0765
vn -0.8708 -0.4097 -0.2718
vn -0.9923 -0.1003 0.0733
vn -0.6060 0.6081 0.5129
vn -0.3446 0.7617 0.5487
vn -0.9892 -0.0821 0.1213
vn 0.0943 -0.9082 -0.4078
vn -0.9137 -0.4062 0.0082
vn 0.4744 -0.7683 -0.4297
vn -0.3246 -0.8365 -0.4415
vn 0.5598 -0.6034 -0.5679
vn 0.9744 0.2114 -0.0763
vn -0.9863 -0.0608 0.1531
vn -0.7225 -0.6287 -0.2878
vn -0.9804 0.0058 0.1969
vn 0.2013 -0.7953 -0.5719
vn 0.2727 0.8156 0.5103
vn 0.1843 0.9477 0.2606
vn -0.5258 0.0370 -0.8498
vn 0.2968 0.7210 -0.6262
vn 0.4782 -0.5860 -0.6542
vn 0.5264 -0.7213 -0.4502
vn 0.4195 -0.7298 -0.5398
vn -0.0428 0.9990 0.0085
vn 0.8601 0.2317 -0.4544
vn 0.7215 0.6680 -0.1822
vn 0.9944 -0.0940 0.0474
vn -0.4866 -0.7926 -0.3676
vn 0.4559 -0.8190 -0.3485
vn 0.3141 -0.9281 -0.1998
vn 0.8805 -0.4387 -0.1799
vn 0.6259 0.7284 0.2788
vn 0.6696 0.6852 0.2867
vn 0.9930 0.0354 0.1125
vn -0.3873 -0.7475 -0.5397
vn -0.0004 -0.8622 -0.5066
vn 0.7833 -0.4589 -0.4194
vn -0.7862 0.5889 0.1872
vn -0.4041 0.7285 0.5531
vn -0.2618 0.8068 0.5297
vn -0.2851 0.8517 0.4397
vn 0.6685 0.6479 0.3650
vn 0.9085 0.3500 0.2284
vn 0.5798 0.6615 0.4758
vn 0.2097 0.9183 0.3359
vn 0.6858 0.6620 0.3023
vn 0.3141 0.9123 0.2628
vn 0.9167 0.3506 0.1916
usemtl mtl1
s 1
f 4//1 2//2 1//3
f 5//4 2//2 6//5
f 7//6 1//3 8//7
f 1//3 2//2 8//7
f 2//2 5//4 8//7
f 9//8 7//6 8//7
f 10//9 9//8 8//7
f 7//6 9//8 11//10
f 1//3 7//6 12//11
f 11//10 12//11 7//6
f 3//12 1//3 12//11
f 11//10 9//8 13//13
f 12//11 14//14 3//12
f 11//10 14//14 12//11
f 8//7 5//4 10//9
f 5//4 15//15 10//9
f 15//15 13//13 10//9
f 10//9 13//13 9//8
f 6//5 15//15 5//4
f 4//1 1//3 3//12
f 2//2 4//1 16//16
f 23//17 2//2 16//16
f 17//18 3//12 14//14
f 23//17 6//5 2//2
f 13//13 14//14 11//10
f 18//19 14//14 13//13
f 13//13 15//15 18//19
f 19//20 16//16 20//21
f 4//1 3//12 21//22
f 21//22 3//12 22//23
f 17//18 22//23 3//12
f 20//21 16//16 4//1
f 20//21 4//1 21//22
f 23//17 16//16 19//20
f 14//14 18//19 17//18
f 22//23 17//18 24//24
f 18//19 15//15 6//5
f 22//23 25//25 21//22
f 19//20 27//26 23//17
f 18//19 6//5 28//27
f 27//26 28//27 6//5
f 26//28 19//20 20//21
f 29//29 19//20 26//28
f 27//26 19//20 28//27
f 29//29 28//27 19//20
f 27//26 6//5 23//17
f 22//23 30//30 25//25
f 24//24 31//31 30//30
f 24//24 17//18 32//32
f 32//32 17//18 18//19
f 28//27 32//32 18//19
f 22//23 24//24 30//30
f 31//31 24//24 32//32
f 26//28 20//21 21//22
f 33//33 34//34 26//28
f 21//22 33//33 26//28
f 34//34 29//29 26//28
f 33//33 25//25 35//35
f 33//33 21//22 25//25
f 25//25 37//36 35//35
f 32//32 28//27 36//37
f 36//37 31//31 32//32
f 29//29 34//34 38//38
f 39//39 33//33 35//35
f 34//34 33//33 39//39
f 39//39 38//38 34//34
f 29//29 41//40 28//27
f 42//41 36//37 28//27
f 37//36 25//25 30//30
f 42//41 40//42 36//37
f 38//38 41//40 29//29
f 40//42 31//31 36//37
f 28//27 41//40 42//41
f 37//36 30//30 43//43
f 43//43 30//30 31//31
f 31//31 40//42 43//43
f 39//39 45//44 38//38
f 39//39 35//35 46//45
f 45//44 39//39 46//45
f 38//38 45//44 44//46
f 41//40 38//38 44//46
f 44//46 47//47 41//40
f 46//45 35//35 48//48
f 48//48 35//35 37//36
f 37//36 43//43 49//49
f 50//50 49//49 43//43
f 51//51 50//50 43//43
f 51//51 40//42 42//41
f 43//43 40//42 51//51
f 47//47 42//41 41//40
f 48//48 52//52 46//45
f 51//51 53//53 50//50
f 47//47 53//53 51//51
f 45//44 54//54 44//46
f 55//55 47//47 44//46
f 47//47 51//51 42//41
f 49//49 48//48 37//36
f 46//45 52//52 45//44
f 52//52 56//56 45//44
f 54//54 45//44 56//56
f 47//47 55//55 57//57
f 53//53 47//47 57//57
f 48//48 58//58 52//52
f 49//49 58//58 48//48
f 56//56 59//59 54//54
f 60//60 59//59 56//56
f 59//59 57//57 55//55
f 56//56 58//58 61//61
f 63//62 49//49 62//63
f 56//56 61//61 64//64
f 49//49 50//50 62//63
f 52//52 58//58 56//56
f 65//65 62//63 50//50
f 60//60 57//57 59//59
f 53//53 57//57 66//66
f 53//53 66//66 65//65
f 65//65 50//50 53//53
f 67//67 68//68 64//64
f 61//61 67//67 64//64
f 60//60 64//64 68//68
f 58//58 69//69 61//61
f 70//70 69//69 58//58
f 49//49 63//62 58//58
f 63//62 70//70 58//58
f 66//66 60//60 72//71
f 73//72 66//66 72//71
f 56//56 64//64 60//60
f 57//57 60//60 66//66
f 74//73 71//74 63//62
f 74//73 63//62 62//63
f 62//63 66//66 74//73
f 66//66 62//63 65//65
f 69//69 67//67 61//61
f 69//69 76//75 67//67
f 75//76 68//68 67//67
f 68//68 72//71 60//60
f 71//74 70//70 63//62
f 70//70 71//74 77//77
f 77//77 71//74 74//73
f 77//77 74//73 73//72
f 74//73 66//66 73//72
f 69//69 78//78 76//75
f 79//79 76//75 78//78
f 67//67 76//75 75//76
f 70//70 78//78 69//69
f 76//75 80//80 75//76
f 75//76 72//71 68//68
f 72//71 75//76 80//80
f 73//72 72//71 82//81
f 83//82 78//78 70//70
f 70//70 84//83 83//82
f 77//77 84//83 70//70
f 73//72 84//83 77//77
f 86//84 90//85 79//79
f 86//84 79//79 78//78
f 79//79 87//86 76//75
f 87//86 80//80 76//75
f 81//87 72//71 80//80
f 72//71 81//87 82//81
f 83//82 85//88 78//78
f 83//82 84//83 88//89
f 83//82 88//89 85//88
f 89//90 85//88 88//89
f 84//83 82//81 88//89
f 82//81 84//83 73//72
f 93//91 90//85 86//84
f 94//92 95//93 86//84
f 95//93 91//94 96//95
f 98//96 86//84 78//78
f 99//97 78//78 85//88
f 85//88 92//98 99//97
f 79//79 90//85 100//99
f 92//98 91//94 99//97
f 86//84 98//96 94//92
f 100//99 90//85 97//100
f 100//99 87//86 79//79
f 102//101 80//80 100//99
f 102//101 81//87 80//80
f 97//100 102//101 100//99
f 81//87 102//101 103//102
f 102//101 97//100 103//102
f 103//102 101//103 81//87
f 87//86 100//99 80//80
f 96//95 91//94 92//98
f 89//90 92//98 85//88
f 89//90 104//104 92//98
f 81//87 101//103 82//81
f 89//90 88//89 101//103
f 82//81 101//103 88//89
f 105//105 106//106 93//91
f 90//85 106//106 97//100
f 97//100 106//106 107//107
f 103//102 97//100 107//107
f 103//102 104//104 101//103
f 93//91 95//93 108//108
f 95//93 109//109 108//108
f 110//110 109//109 96//95
f 95//93 96//95 109//109
f 93//91 86//84 95//93
f 106//106 90//85 93//91
f 96//95 92//98 111//111
f 111//111 92//98 104//104
f 111//111 104//104 112//112
f 113//113 114//114 115//115
f 116//116 117//117 118//118
f 119//119 120//120 121//121
f 119//119 121//121 122//122
f 123//123 121//121 124//124
f 164//125 125//126 121//121
f 124//124 121//121 126//127
f 126//127 121//121 125//126
f 127//128 128//129 129//130
f 128//129 130//131 129//130
f 129//130 130//131 131//132
f 132//133 131//132 130//131
f 129//130 108//108 127//128
f 133//134 108//108 109//109
f 129//130 131//132 135//135
f 131//132 136//136 135//135
f 135//135 105//105 129//130
f 108//108 129//130 93//91
f 105//105 93//91 129//130
f 135//135 136//136 105//105
f 105//105 136//136 107//107
f 103//102 107//107 112//112
f 138//137 140//138 139//139
f 138//137 141//140 130//131
f 140//138 138//137 130//131
f 139//139 140//138 142//141
f 141//140 132//133 143//142
f 139//139 142//141 144//143
f 140//138 130//131 128//129
f 145//144 146//145 147//146
f 145//144 133//134 146//145
f 133//134 109//109 146//145
f 148//147 109//109 142//141
f 148//147 142//141 140//138
f 143//142 132//133 130//131
f 109//109 134//148 149//149
f 109//109 149//149 142//141
f 149//149 150//150 142//141
f 109//109 110//110 134//148
f 149//149 110//110 150//150
f 110//110 96//95 151//151
f 150//150 110//110 151//151
f 150//150 152//152 137//153
f 137//153 152//152 136//136
f 152//152 150//150 151//151
f 152//152 151//151 111//111
f 111//111 151//151 96//95
f 112//112 152//152 111//111
f 136//136 112//112 107//107
f 152//152 112//112 136//136
f 105//105 107//107 106//106
f 104//104 103//102 112//112
f 138//137 154//154 153//155
f 153//155 154//154 155//156
f 156//157 157//158 158//159
f 159//160 160//161 120//120
f 162//162 161//163 159//160
f 161//163 160//161 159//160
f 161//163 162//162 189//164
f 162//162 163//165 189//164
f 160//161 165//166 164//125
f 166//167 160//161 161//163
f 165//166 167//168 164//125
f 189//164 168//169 161//163
f 169//170 170//171 157//158
f 153//155 155//156 165//166
f 165//166 155//156 167//168
f 153//155 166//167 161//163
f 114//114 113//113 171//172
f 172//173 117//117 116//116
f 175//174 174//175 173//176
f 120//120 115//115 114//114
f 120//120 164//125 121//121
f 116//116 177//177 172//173
f 125//126 164//125 170//171
f 125//126 170//171 177//177
f 159//160 120//120 114//114
f 174//175 162//162 173//176
f 172//173 177//177 170//171
f 176//178 172//173 178//179
f 170//171 178//179 172//173
f 173//176 162//162 159//160
f 120//120 160//161 164//125
f 170//171 164//125 157//158
f 136//136 131//132 179//180
f 131//132 132//133 179//180
f 138//137 180//181 141//140
f 180//181 181//182 182//183
f 180//181 182//183 141//140
f 182//183 181//182 183//184
f 182//183 132//133 141//140
f 182//183 183//184 179//180
f 186//185 144//143 185//186
f 184//187 185//186 183//184
f 185//186 144//143 142//141
f 185//186 179//180 183//184
f 179//180 132//133 182//183
f 179//180 185//186 137//153
f 150//150 185//186 142//141
f 179//180 137//153 136//136
f 150//150 137//153 185//186
f 153//155 187//188 188//189
f 188//189 187//188 189//164
f 188//189 189//164 190//190
f 153//155 180//181 138//137
f 192//191 191//192 138//137
f 156//157 193//193 194//194
f 154//154 138//137 191//192
f 188//189 180//181 153//155
f 181//182 190//190 183//184
f 188//189 190//190 181//182
f 196//195 186//185 197//196
f 197//196 195//197 196//195
f 139//139 192//191 138//137
f 194//194 193//193 198//198
f 199//199 186//185 196//195
f 193//193 200//200 198//198
f 144//143 186//185 199//199
f 190//190 197//196 183//184
f 183//184 197//196 184//187
f 192//191 139//139 144//143
f 187//188 153//155 161//163
f 189//164 187//188 168//169
f 201//201 190//190 163//165
f 201//201 197//196 190//190
f 156//157 194//194 157//158
f 169//170 157//158 194//194
f 195//197 169//170 194//194
f 195//197 201//201 169//170
f 197//196 201//201 195//197
f 189//164 163//165 190//190
f 163//165 169//170 201//201
f 169//170 163//165 170//171
f 163//165 178//179 170//171
