#
# The license for this database is specified in the Creative Commons Attribution-Share Alike 2.1 Japan. If you use data from this database, please be sure attribute this database as follows: "BodyParts3D, (c)  The Database Center for Life Science licensed under CC Attribution-Share Alike 2.1 Japan".
# http://dbarchive.biosciencedbc.jp/en/bodyparts3d/lic.html
#
#
# Compatibility version : 4.0
# File ID : FJ2638
# Representation ID : BP9547
# Build-up logic : FMA 3.0 part_of
# Concept ID : FMA3860
# English name : Diagonal branch of anterior descending branch of left coronary artery
# Bounds(mm): (70.929700,-161.783000,1192.400000)-(76.010800,-151.165000,1198.990000)
# Volume(cm3): 0.001100
#
v 71.2764 -161.759 1198.36
v 71.4788 -161.783 1198.19
v 71.0443 -161.139 1198
v 71.0978 -161.37 1197.9
v 71.2855 -161.685 1197.99
v 71.3198 -161.106 1197.82
v 71.4889 -161.697 1197.99
v 71.5065 -161.32 1197.8
v 71.7683 -161.487 1198
v 71.0152 -161.558 1198.38
v 70.9297 -161.367 1198.18
v 70.9327 -161.357 1198.37
v 71.0567 -161.35 1198.57
v 70.9386 -161.171 1198.19
v 70.9619 -161.156 1198.38
v 71.0769 -160.927 1198.2
v 71.0853 -161.647 1198.18
v 71.3009 -160.731 1198.58
v 71.2765 -161.633 1198.57
v 71.3073 -161.344 1198.72
v 71.3208 -161.114 1198.73
v 71.4724 -161.75 1198.41
v 71.5286 -161.499 1198.66
v 71.6735 -161.702 1198.17
v 71.6982 -161.649 1198.38
v 71.8751 -161.48 1198.21
v 71.6674 -160.191 1198.38
v 71.8714 -160.379 1198.9
v 71.8333 -160.176 1198.17
v 71.8863 -159.898 1198.58
v 72.018 -159.764 1198.37
v 72.034 -160.606 1198.92
v 72.657 -160.383 1198.36
v 72.042 -160.229 1198.04
v 72.2832 -159.778 1198.11
v 72.44 -160.206 1198.07
v 72.6796 -159.756 1198.06
v 72.6757 -159.424 1197.99
v 72.8916 -159.101 1197.76
v 73.074 -159.414 1197.95
v 73.4785 -159.162 1197.98
v 72.303 -160.132 1198.99
v 72.2553 -159.62 1198.85
v 72.3985 -159.365 1198.18
v 72.3732 -159.202 1198.57
v 72.5905 -158.918 1198.12
v 72.6863 -160.248 1198.75
v 72.6685 -159.559 1198.96
v 72.6759 -159.169 1198.82
v 72.7149 -158.833 1198.51
v 72.929 -159.762 1198.18
v 72.8712 -159.578 1198.9
v 72.8859 -159.179 1198.84
v 73.1564 -159.591 1198.56
v 73.0998 -158.738 1198.52
v 73.2785 -159.165 1198.62
v 73.0786 -157.948 1197.38
v 73.3221 -157.765 1196.78
v 73.4785 -157.765 1197.56
v 73.5181 -157.365 1197.18
v 73.6586 -158.195 1196.87
v 73.6915 -157.159 1197.19
v 73.9676 -158.165 1197.18
v 73.8785 -157.365 1197.31
v 73.8785 -156.968 1196.58
v 74.1532 -157.565 1197.18
v 74.3161 -157.488 1197.04
v 74.3621 -157.347 1196.83
v 74.2747 -157.354 1197.25
v 73.6967 -156.974 1197.04
v 73.9492 -156.796 1197.41
v 74.336 -156.028 1197.52
v 74.4785 -156.165 1197.27
v 74.5957 -155.565 1197.58
v 74.6999 -156.765 1197.78
v 74.8401 -156.607 1197.35
v 74.9318 -156.165 1197.38
v 74.8765 -155.767 1198.04
v 75.0561 -156.279 1197.56
v 75.15 -155.965 1197.98
v 75.1272 -154.191 1195.66
v 75.091 -153.952 1195.67
v 74.6895 -155.365 1197.78
v 74.8785 -154.985 1197.58
v 74.9692 -154.965 1197.17
v 75.0515 -154.54 1196.9
v 75.0832 -154.747 1196.82
v 75.2426 -153.165 1194.78
v 75.2294 -153.785 1195.82
v 75.1381 -153.594 1195.2
v 75.2078 -153.381 1195.2
v 75.158 -151.584 1192.82
v 75.1239 -151.365 1192.78
v 75.2785 -155.565 1197.3
v 75.4597 -155.52 1197.56
v 75.3007 -153.913 1195.08
v 75.4705 -154.398 1195.66
v 75.6786 -153.965 1195.14
v 75.7767 -153.974 1195.63
v 75.2785 -154.965 1196.81
v 75.2785 -154.765 1197.7
v 75.2785 -154.365 1197.21
v 75.5239 -155.342 1197.35
v 75.4785 -155.101 1196.98
v 75.4785 -154.845 1196.58
v 75.4581 -155.005 1197.7
v 75.7396 -154.756 1196.91
v 75.6518 -154.315 1196.92
v 75.4082 -152.565 1194.18
v 75.3899 -152.548 1194.54
v 75.4751 -153.162 1194.51
v 75.6786 -153.309 1194.58
v 75.6786 -152.765 1194.14
v 75.6786 -152.565 1194.81
v 75.9502 -152.745 1194.34
v 75.9748 -152.814 1194.61
v 76.0108 -152.552 1194.37
v 75.954 -152.589 1194.6
v 75.9793 -152.351 1194.35
v 75.8706 -152.357 1194.52
v 75.2911 -153.451 1195.39
v 75.2874 -153.078 1194.97
v 75.4785 -153.545 1195.58
v 75.4785 -153.165 1195.24
v 75.7972 -153.696 1195.14
v 75.6763 -153.779 1195.72
v 75.7395 -153.514 1195.34
v 75.6631 -153.335 1195.29
v 75.2973 -151.679 1192.64
v 75.2785 -151.365 1192.4
v 75.4785 -151.565 1192.45
v 75.6608 -151.365 1192.58
v 75.4785 -151.365 1193.16
v 75.4833 -151.165 1192.58
v 75.7778 -151.582 1193.03
v 75.6671 -151.371 1192.87
v 75.855 -151.953 1193.34
v 75.3339 -152.004 1193.43
v 75.3283 -151.939 1193.72
v 75.4787 -151.651 1193.6
v 75.6786 -152.165 1193.39
v 75.6756 -152.13 1194.35
v 75.6853 -151.727 1193.78
v 75.6752 -151.534 1193.37
v 75.9361 -151.996 1193.63
v 75.8711 -151.981 1194.03
v 75.8624 -151.759 1193.58
v 71.2855 -161.685 1197.99
v 71.2855 -161.685 1197.99
v 72.042 -160.229 1198.04
v 72.2832 -159.778 1198.11
v 72.44 -160.206 1198.07
v 72.6796 -159.756 1198.06
v 72.6757 -159.424 1197.99
v 72.8916 -159.101 1197.76
v 73.074 -159.414 1197.95
v 73.4785 -159.162 1197.98
v 73.4785 -159.162 1197.98
v 72.303 -160.132 1198.99
v 72.3732 -159.202 1198.57
v 72.5905 -158.918 1198.12
v 73.1564 -159.591 1198.56
v 73.2785 -159.165 1198.62
v 73.0786 -157.948 1197.38
v 73.3221 -157.765 1196.78
v 73.4785 -157.765 1197.56
v 73.5181 -157.365 1197.18
v 73.5181 -157.365 1197.18
v 73.6586 -158.195 1196.87
v 73.6915 -157.159 1197.19
v 73.9676 -158.165 1197.18
v 73.8785 -157.365 1197.31
v 73.8785 -157.365 1197.31
v 73.8785 -156.968 1196.58
v 73.8785 -156.968 1196.58
v 74.1532 -157.565 1197.18
v 74.1532 -157.565 1197.18
v 74.1532 -157.565 1197.18
v 74.3161 -157.488 1197.04
v 74.3621 -157.347 1196.83
v 73.6967 -156.974 1197.04
v 73.9492 -156.796 1197.41
v 74.336 -156.028 1197.52
v 74.4785 -156.165 1197.27
v 74.4785 -156.165 1197.27
v 74.5957 -155.565 1197.58
v 74.5957 -155.565 1197.58
v 74.5957 -155.565 1197.58
v 74.6999 -156.765 1197.78
v 74.6999 -156.765 1197.78
v 74.8401 -156.607 1197.35
v 74.9318 -156.165 1197.38
v 75.0561 -156.279 1197.56
v 75.15 -155.965 1197.98
v 75.1272 -154.191 1195.66
v 75.091 -153.952 1195.67
v 74.6895 -155.365 1197.78
v 74.8785 -154.985 1197.58
v 74.9692 -154.965 1197.17
v 74.9692 -154.965 1197.17
v 75.0515 -154.54 1196.9
v 75.0832 -154.747 1196.82
v 75.2426 -153.165 1194.78
v 75.1381 -153.594 1195.2
v 75.1239 -151.365 1192.78
v 75.1239 -151.365 1192.78
v 75.2785 -155.565 1197.3
v 75.2785 -155.565 1197.3
v 75.4597 -155.52 1197.56
v 75.3007 -153.913 1195.08
v 75.4705 -154.398 1195.66
v 75.6786 -153.965 1195.14
v 75.7767 -153.974 1195.63
v 75.2785 -154.965 1196.81
v 75.2785 -154.965 1196.81
v 75.2785 -154.765 1197.7
v 75.2785 -154.765 1197.7
v 75.2785 -154.365 1197.21
v 75.5239 -155.342 1197.35
v 75.4785 -154.845 1196.58
v 75.4581 -155.005 1197.7
v 75.7396 -154.756 1196.91
v 75.4082 -152.565 1194.18
v 75.3899 -152.548 1194.54
v 75.6786 -153.309 1194.58
v 75.6786 -152.765 1194.14
v 75.6786 -152.565 1194.81
v 75.9502 -152.745 1194.34
v 75.2874 -153.078 1194.97
v 75.4785 -153.545 1195.58
v 75.4785 -153.165 1195.24
v 75.7972 -153.696 1195.14
v 75.7395 -153.514 1195.34
v 75.2785 -151.365 1192.4
v 75.2785 -151.365 1192.4
v 75.2785 -151.365 1192.4
v 75.4785 -151.565 1192.45
v 75.4785 -151.565 1192.45
v 75.6608 -151.365 1192.58
v 75.6608 -151.365 1192.58
v 75.4785 -151.365 1193.16
v 75.4833 -151.165 1192.58
v 75.4833 -151.165 1192.58
v 75.4833 -151.165 1192.58
v 75.3283 -151.939 1193.72
v 75.6786 -152.165 1193.39
vn -0.330987 -0.931047 0.153622
vn 0.145004 -0.985718 -0.0856432
vn -0.736839 0.332191 -0.588827
vn -0.588725 -0.227402 -0.775687
vn -0.236688 -0.934524 -0.265788
vn -0.332958 0.278186 -0.900972
vn 0.238566 -0.719954 -0.651731
vn 0.0880693 -0.190666 -0.977696
vn 0.618609 -0.474113 -0.626529
vn -0.770641 -0.563023 0.298524
vn -0.941426 -0.207253 -0.266015
vn -0.964164 -0.0857411 0.251068
vn -0.700968 -0.0810041 0.708577
vn -0.956965 0.25559 -0.137451
vn -0.888644 0.329168 0.319312
vn -0.793827 0.585669 -0.1638
vn -0.690224 -0.678267 -0.252082
vn -0.754352 0.446903 0.480865
vn -0.295949 -0.640902 0.708279
vn -0.263939 -0.244886 0.932935
vn -0.459849 0.088554 0.883571
vn 0.179913 -0.876137 0.447231
vn 0.260382 -0.558319 0.787706
vn 0.576354 -0.790417 -0.207502
vn 0.569888 -0.755097 0.324124
vn 0.78696 -0.613944 -0.0613757
vn -0.7678 0.617314 -0.171486
vn -0.396935 0.154668 0.904721
vn -0.551377 0.540432 -0.635545
vn -0.799923 0.581016 0.150143
vn -0.733872 0.5475 -0.402089
vn 0.0521569 -0.224072 0.973176
vn 0.798403 -0.511843 -0.317127
vn -0.39939 0.434418 -0.807322
vn -0.0593355 -0.016512 -0.998102
vn 0.00388038 0.117456 -0.993071
vn 0.375026 -0.436001 -0.818082
vn -0.0930985 -0.332174 -0.938612
vn -0.215674 -0.540506 -0.813227
vn -0.121742 -0.461235 -0.878886
vn 0.492585 -0.663908 -0.56266
vn -0.256192 0.134255 0.957257
vn -0.527217 0.409966 0.744292
vn -0.732713 0.275918 -0.622094
vn -0.815888 0.559487 -0.145948
vn -0.836573 0.0996709 -0.538713
vn 0.662439 -0.501525 0.55646
vn -0.00534404 0.188721 0.982016
vn -0.295331 0.543706 0.785598
vn -0.539557 0.705396 0.459667
vn 0.585583 -0.547277 -0.59798
vn 0.514699 -0.143697 0.845243
vn 0.236342 0.326392 0.915211
vn 0.809717 -0.578982 -0.0955994
vn 0.131032 0.60003 0.789173
vn 0.887162 -0.281007 0.36603
vn -0.884516 0.402241 -0.236292
vn -0.202933 -0.356842 -0.911856
vn -0.272611 0.713267 0.645704
vn -0.866618 0.494114 -0.0694616
vn -0.0851414 -0.406649 -0.909609
vn -0.746926 0.436092 0.501922
vn 0.873978 -0.248501 0.417625
vn 0.471825 0.0771197 0.878313
vn -0.644476 0.645973 -0.409108
vn 0.382033 0.526236 0.759688
vn 0.60684 -0.53035 0.592008
vn 0.566271 -0.0922937 -0.819035
vn 0.344036 -0.636525 0.690272
vn -0.829253 0.523699 -0.195136
vn -0.868553 0.388474 0.307739
vn -0.588851 0.628311 -0.508409
vn -0.450077 0.571975 -0.685766
vn -0.504579 0.472003 -0.72292
vn 0.248856 -0.738602 0.626528
vn 0.871872 -0.464901 -0.153972
vn 0.19689 0.550224 -0.811473
vn -0.146765 0.0994909 0.984155
vn 0.860446 -0.504182 0.0737109
vn 0.181622 -0.0477463 0.982209
vn -0.963616 -0.175883 -0.201268
vn -0.977722 -0.143917 -0.152801
vn -0.889171 0.457571 0.0018627
vn -0.939332 0.31352 -0.13914
vn -0.957458 0.158352 -0.241245
vn -0.981537 -0.0572539 -0.182501
vn -0.976372 -0.0665558 -0.20559
vn -0.960106 0.27496 0.0509266
vn -0.636886 0.666812 0.386961
vn -0.902789 -0.231834 -0.362251
vn -0.805353 0.495472 0.325445
vn -0.920069 -0.349679 -0.17663
vn -0.977399 -0.173337 -0.121018
vn 0.552327 -0.526567 -0.646268
vn 0.73121 -0.543009 -0.412883
vn -0.816605 -0.28551 -0.501637
vn -0.225413 -0.822406 -0.522338
vn 0.0192428 -0.712108 -0.701806
vn 0.907738 -0.375483 -0.187146
vn -0.301674 -0.776829 -0.552747
vn -0.455455 0.563883 0.68891
vn -0.643983 0.68005 0.350454
vn 0.656636 -0.618724 -0.431288
vn 0.450377 -0.695094 -0.560362
vn -0.0396213 -0.871448 -0.488885
vn 0.294952 0.188661 0.936702
vn 0.723736 -0.595449 -0.348779
vn 0.72364 0.54969 0.417356
vn -0.585073 -0.530079 -0.613764
vn -0.99876 0.0497751 0.000656024
vn -0.456523 -0.494887 -0.739374
vn -0.0946806 -0.617706 -0.780689
vn -0.411731 -0.636867 -0.651826
vn -0.524493 0.611344 0.592592
vn 0.560522 -0.598266 -0.572619
vn 0.988188 -0.0742792 0.134041
vn 0.99961 -0.0189974 0.020462
vn 0.821469 0.29386 0.488708
vn 0.888884 0.35967 0.283765
vn 0.536484 0.599092 0.594368
vn -0.4267 0.701326 0.571025
vn -0.952915 0.289162 0.0913169
vn -0.345644 0.755815 0.556123
vn -0.523566 0.611884 0.592855
vn 0.808792 -0.44425 -0.385354
vn 0.74378 0.549862 0.380056
vn 0.943198 0.141364 0.300655
vn 0.44241 0.50763 0.739314
vn -0.515939 -0.705859 -0.485356
vn -0.867617 -0.29153 -0.402803
vn -0.210847 -0.72987 -0.650256
vn 0.409344 0.275733 -0.869718
vn -0.42102 0.817554 0.392872
vn -0.327467 0.894086 0.305574
vn 0.938644 0.339929 -0.0582721
vn 0.699834 0.698456 0.149638
vn 0.842109 -0.338986 -0.419452
vn -0.797582 -0.550066 -0.247567
vn -0.98098 -0.183266 0.0639599
vn -0.386397 0.755221 0.52947
vn 0.549229 -0.638692 -0.538907
vn -0.0665989 0.772532 0.631473
vn 0.244242 0.845336 0.475134
vn 0.464466 0.820413 0.333458
vn 0.991571 0.0900519 -0.0931487
vn 0.666282 0.634019 0.392541
vn 0.779522 0.596631 0.190726
vn -0.118877 -0.414845 -0.902093
vn -0.620544 -0.540797 -0.567859
vn 0.0811037 0.1577 -0.984151
vn -0.548234 0.374556 -0.747762
vn 0.54246 -0.310197 -0.780715
vn -0.11433 -0.130346 -0.984855
vn -0.558192 0.046861 -0.828387
vn -0.711876 -0.0410158 -0.701107
vn 0.416019 -0.646339 -0.639667
vn 0.921354 -0.262525 0.286685
vn 0.713464 -0.691177 -0.115082
vn 0.380283 -0.267417 0.885366
vn -0.617262 0.566141 0.546325
vn -0.841254 0.54058 0.00802775
vn 0.796604 -0.314127 0.516475
vn 0.484283 0.296088 0.823287
vn -0.652068 0.647454 0.394475
vn -0.902133 0.325818 -0.28284
vn 0.471825 0.0771197 0.878313
vn -0.387175 0.52668 0.756772
vn -0.631808 0.504484 0.588486
vn 0.553284 -0.639006 -0.534367
vn -0.469671 0.0870529 0.878539
vn 0.703194 -0.580008 -0.411229
vn -0.428733 0.200614 0.880876
vn 0.129906 -0.56312 0.816101
vn 0.27266 -0.128438 -0.953499
vn 0.19689 0.550224 -0.811473
vn 0.471825 0.0771197 0.878313
vn 0.793585 -0.366105 0.485994
vn 0.137936 -0.399631 0.906239
vn 0.865912 -0.493426 -0.0820193
vn 0.810388 -0.511741 -0.285295
vn -0.781066 0.412903 0.468452
vn -0.541045 -0.0405026 0.840018
vn -0.886182 0.440585 0.143409
vn 0.19689 0.550224 -0.811473
vn 0.227881 -0.256841 -0.939203
vn -0.884768 0.456288 -0.0948002
vn -0.761806 0.0370559 -0.646745
vn -0.302627 -0.602864 -0.738222
vn -0.289906 -0.174578 0.940998
vn 0.828727 -0.536711 0.158599
vn 0.797587 -0.119814 -0.591185
vn 0.621538 -0.168443 -0.76506
vn 0.733336 -0.32752 -0.595776
vn 0.877226 -0.381755 0.291097
vn -0.546079 -0.720034 -0.428192
vn -0.882971 0.414261 0.220793
vn -0.511161 0.398058 0.761751
vn -0.612481 0.635132 0.470611
vn -0.637868 -0.547726 -0.541406
vn -0.761806 0.0370559 -0.646745
vn -0.795913 0.560566 0.228664
vn -0.679505 -0.58951 -0.43675
vn -0.75649 -0.323453 -0.56842
vn -0.945121 0.307811 0.109536
vn -0.515737 0.740243 0.431342
vn -0.568202 0.789752 -0.231169
vn -0.332065 0.483303 -0.810032
vn -0.302627 -0.602864 -0.738222
vn 0.932404 -0.267279 0.24328
vn -0.141212 -0.7064 -0.693583
vn 0.640748 -0.690551 -0.335531
vn 0.834583 -0.466946 -0.292289
vn 0.941834 0.262977 0.209265
vn -0.761806 0.0370559 -0.646745
vn -0.302627 -0.602864 -0.738222
vn 0.511918 0.615986 0.59875
vn 0.265703 0.212563 0.940329
vn 0.306457 0.792392 0.527446
vn 0.934366 -0.35596 -0.0158991
vn 0.67846 -0.63996 -0.360753
vn 0.877942 0.118069 0.463979
vn 0.976858 -0.0181218 0.213118
vn -0.998582 0.0119302 -0.0518803
vn -0.573681 0.599918 0.557664
vn 0.679653 -0.489736 -0.546104
vn 0.491464 -0.618867 -0.612754
vn 0.444501 0.512974 0.734354
vn 0.937428 -0.267913 -0.222378
vn -0.554889 0.588558 0.58796
vn 0.464721 0.683856 0.562473
vn 0.315508 0.566179 0.761509
vn 0.994599 -0.0486045 0.0917115
vn 0.53849 0.505795 0.673943
vn -0.388212 -0.569153 -0.724814
vn -0.568202 0.789752 -0.231169
vn 0.409344 0.275733 -0.869718
vn 0.417584 0.1961 -0.887225
vn 0.695941 -0.503963 -0.511554
vn 0.824434 0.565932 -0.00541104
vn 0.894563 -0.214437 -0.39214
vn 0.354795 0.856106 0.37577
vn -0.568202 0.789752 -0.231169
vn 0.398355 0.353514 -0.846369
vn 0.623685 0.767448 0.148464
vn -0.687388 0.550862 0.473337
vn -0.288233 -0.822128 -0.490946
g grp1
usemtl mtl1
f 5//5 7//7 2//2 
f 2//2 7//7 24//24 
f 17//17 5//5 1//1 
f 5//5 2//2 1//1 
f 1//1 2//2 22//22 
f 25//25 2//2 24//24 
f 2//2 25//25 22//22 
f 4//4 17//17 11//11 
f 3//3 4//4 11//11 
f 11//11 14//14 3//3 
f 29//29 3//3 16//16 
f 16//16 3//3 14//14 
f 4//4 8//8 148//148 
f 17//17 4//4 149//149 
f 8//8 4//4 6//6 
f 4//4 3//3 6//6 
f 3//3 29//29 6//6 
f 148//148 8//8 7//7 
f 6//6 29//29 34//34 
f 7//7 8//8 9//9 
f 7//7 9//9 24//24 
f 8//8 6//6 150//150 
f 26//26 24//24 9//9 
f 8//8 150//150 36//36 
f 26//26 9//9 33//33 
f 152//152 9//9 8//8 
f 17//17 1//1 10//10 
f 17//17 10//10 11//11 
f 10//10 12//12 11//11 
f 10//10 13//13 12//12 
f 11//11 12//12 14//14 
f 12//12 15//15 14//14 
f 12//12 13//13 15//15 
f 14//14 15//15 16//16 
f 15//15 18//18 16//16 
f 13//13 18//18 15//15 
f 1//1 19//19 10//10 
f 13//13 10//10 19//19 
f 13//13 19//19 20//20 
f 20//20 21//21 13//13 
f 13//13 21//21 18//18 
f 16//16 18//18 27//27 
f 22//22 19//19 1//1 
f 19//19 22//22 23//23 
f 23//23 20//20 19//19 
f 20//20 32//32 21//21 
f 29//29 16//16 27//27 
f 22//22 25//25 23//23 
f 32//32 20//20 23//23 
f 27//27 18//18 30//30 
f 25//25 24//24 26//26 
f 47//47 25//25 26//26 
f 23//23 25//25 47//47 
f 32//32 28//28 21//21 
f 28//28 18//18 21//21 
f 47//47 26//26 33//33 
f 32//32 42//42 28//28 
f 18//18 43//43 30//30 
f 31//31 27//27 30//30 
f 43//43 18//18 28//28 
f 43//43 28//28 42//42 
f 29//29 27//27 31//31 
f 9//9 152//152 33//33 
f 152//152 51//51 33//33 
f 47//47 32//32 23//23 
f 36//36 150//150 35//35 
f 151//151 34//34 29//29 
f 51//51 152//152 37//37 
f 153//153 36//36 35//35 
f 153//153 35//35 38//38 
f 154//154 151//151 44//44 
f 39//39 40//40 38//38 
f 154//154 44//44 155//155 
f 46//46 155//155 44//44 
f 51//51 37//37 156//156 
f 40//40 153//153 38//38 
f 41//41 51//51 156//156 
f 40//40 39//39 61//61 
f 156//156 169//169 41//41 
f 157//157 63//63 56//56 
f 169//169 171//171 41//41 
f 29//29 31//31 151//151 
f 44//44 151//151 31//31 
f 30//30 45//45 31//31 
f 43//43 160//160 30//30 
f 45//45 44//44 31//31 
f 160//160 43//43 49//49 
f 161//161 44//44 45//45 
f 159//159 32//32 47//47 
f 47//47 52//52 159//159 
f 42//42 48//48 43//43 
f 49//49 43//43 48//48 
f 160//160 49//49 50//50 
f 161//161 45//45 50//50 
f 159//159 52//52 48//48 
f 52//52 53//53 48//48 
f 53//53 49//49 48//48 
f 55//55 50//50 49//49 
f 53//53 55//55 49//49 
f 33//33 51//51 54//54 
f 47//47 33//33 54//54 
f 158//158 54//54 51//51 
f 52//52 47//47 162//162 
f 52//52 163//163 53//53 
f 163//163 55//55 53//53 
f 56//56 162//162 157//157 
f 52//52 162//162 56//56 
f 66//66 55//55 163//163 
f 61//61 39//39 58//58 
f 155//155 46//46 165//165 
f 57//57 165//165 46//46 
f 164//164 161//161 50//50 
f 59//59 164//164 50//50 
f 55//55 59//59 50//50 
f 60//60 70//70 165//165 
f 60//60 165//165 57//57 
f 65//65 165//165 70//70 
f 66//66 59//59 55//55 
f 64//64 166//166 176//176 
f 167//167 59//59 172//172 
f 167//167 164//164 59//59 
f 168//168 62//62 181//181 
f 167//167 172//172 170//170 
f 174//174 61//61 58//58 
f 68//68 61//61 174//174 
f 177//177 56//56 63//63 
f 62//62 71//71 181//181 
f 63//63 67//67 177//177 
f 169//169 180//180 171//171 
f 172//172 182//182 170//170 
f 67//67 69//69 177//177 
f 178//178 69//69 173//173 
f 69//69 75//75 173//173 
f 179//179 171//171 180//180 
f 75//75 69//69 67//67 
f 180//180 76//76 179//179 
f 70//70 72//72 65//65 
f 73//73 65//65 72//72 
f 183//183 181//181 71//71 
f 77//77 175//175 184//184 
f 192//192 68//68 174//174 
f 182//182 172//172 189//189 
f 83//83 183//183 71//71 
f 73//73 72//72 74//74 
f 83//83 186//186 183//183 
f 191//191 68//68 192//192 
f 80//80 78//78 189//189 
f 78//78 182//182 189//189 
f 182//182 78//78 197//197 
f 76//76 79//79 179//179 
f 179//179 79//79 190//190 
f 192//192 193//193 191//191 
f 94//94 192//192 185//185 
f 192//192 94//94 193//193 
f 207//207 73//73 74//74 
f 190//190 79//79 194//194 
f 94//94 95//95 193//193 
f 106//106 78//78 80//80 
f 81//81 87//87 86//86 
f 195//195 100//100 202//202 
f 86//86 82//82 81//81 
f 201//201 89//89 196//196 
f 89//89 201//201 102//102 
f 84//84 85//85 186//186 
f 186//186 83//83 84//84 
f 202//202 100//100 199//199 
f 214//214 187//187 200//200 
f 101//101 198//198 197//197 
f 86//86 87//87 85//85 
f 86//86 85//85 84//84 
f 208//208 188//188 215//215 
f 78//78 101//101 197//197 
f 198//198 101//101 102//102 
f 198//198 102//102 201//201 
f 88//88 122//122 110//110 
f 81//81 90//90 96//96 
f 81//81 82//82 90//90 
f 196//196 91//91 204//204 
f 89//89 91//91 196//196 
f 96//96 90//90 203//203 
f 204//204 91//91 88//88 
f 91//91 89//89 121//121 
f 130//130 129//129 92//92 
f 139//139 93//93 92//92 
f 92//92 93//93 130//130 
f 194//194 79//79 209//209 
f 221//221 194//194 209//209 
f 95//95 94//94 103//103 
f 105//105 100//100 97//97 
f 100//100 195//195 97//97 
f 195//195 210//210 97//97 
f 89//89 102//102 123//123 
f 220//220 211//211 107//107 
f 210//210 98//98 97//97 
f 230//230 108//108 126//126 
f 107//107 211//211 212//212 
f 107//107 212//212 99//99 
f 212//212 125//125 99//99 
f 213//213 126//126 108//108 
f 232//232 127//127 213//213 
f 213//213 127//127 126//126 
f 104//104 103//103 94//94 
f 104//104 94//94 100//100 
f 100//100 105//105 104//104 
f 221//221 108//108 216//216 
f 106//106 217//217 78//78 
f 108//108 218//218 216//216 
f 103//103 104//104 107//107 
f 219//219 222//222 209//209 
f 104//104 220//220 107//107 
f 222//222 221//221 209//209 
f 221//221 222//222 108//108 
f 218//218 108//108 230//230 
f 213//213 108//108 222//222 
f 111//111 96//96 203//203 
f 109//109 111//111 203//203 
f 88//88 110//110 223//223 
f 138//138 113//113 109//109 
f 138//138 223//223 110//110 
f 142//142 140//140 224//224 
f 210//210 111//111 112//112 
f 98//98 210//210 112//112 
f 113//113 111//111 109//109 
f 113//113 112//112 111//111 
f 142//142 224//224 114//114 
f 212//212 225//225 125//125 
f 225//225 115//115 125//125 
f 226//226 115//115 225//225 
f 233//233 118//118 227//227 
f 118//118 120//120 227//227 
f 226//226 141//141 115//115 
f 120//120 142//142 227//227 
f 120//120 146//146 142//142 
f 232//232 228//228 116//116 
f 232//232 116//116 127//127 
f 127//127 116//116 118//118 
f 228//228 117//117 116//116 
f 116//116 117//117 118//118 
f 120//120 118//118 119//119 
f 119//119 118//118 117//117 
f 117//117 145//145 119//119 
f 119//119 146//146 120//120 
f 121//121 123//123 124//124 
f 121//121 89//89 123//123 
f 91//91 122//122 88//88 
f 91//91 124//124 229//229 
f 91//91 121//121 124//124 
f 229//229 124//124 224//224 
f 230//230 128//128 231//231 
f 128//128 227//227 231//231 
f 114//114 224//224 124//124 
f 230//230 126//126 233//233 
f 233//233 128//128 230//230 
f 233//233 227//227 128//128 
f 138//138 92//92 129//129 
f 139//139 92//92 138//138 
f 129//129 234//234 131//131 
f 205//205 140//140 133//133 
f 134//134 205//205 133//133 
f 242//242 235//235 206//206 
f 131//131 246//246 129//129 
f 129//129 246//246 138//138 
f 236//236 132//132 237//237 
f 136//136 241//241 144//144 
f 241//241 140//140 144//144 
f 243//243 132//132 236//236 
f 136//136 239//239 244//244 
f 241//241 136//136 244//244 
f 238//238 137//137 141//141 
f 238//238 240//240 137//137 
f 136//136 135//135 239//239 
f 144//144 135//135 136//136 
f 135//135 145//145 137//137 
f 240//240 135//135 137//137 
f 138//138 110//110 139//139 
f 140//140 245//245 224//224 
f 245//245 140//140 205//205 
f 246//246 113//113 138//138 
f 144//144 140//140 143//143 
f 142//142 143//143 140//140 
f 115//115 141//141 137//137 
f 144//144 147//147 135//135 
f 146//146 147//147 143//143 
f 143//143 147//147 144//144 
f 146//146 143//143 142//142 
f 228//228 137//137 145//145 
f 228//228 145//145 117//117 
f 146//146 119//119 145//145 
f 145//145 135//135 147//147 
f 146//146 145//145 147//147 
