#
# The license for this database is specified in the Creative Commons Attribution-Share Alike 2.1 Japan. If you use data from this database, please be sure attribute this database as follows: "BodyParts3D, (c)  The Database Center for Life Science licensed under CC Attribution-Share Alike 2.1 Japan".
# http://dbarchive.biosciencedbc.jp/en/bodyparts3d/lic.html
#
#
# Compatibility version : 4.0
# File ID : FJ2648
# Representation ID : BP9547
# Build-up logic : FMA 3.0 part_of
# Concept ID : FMA3860
# English name : Diagonal branch of anterior descending branch of left coronary artery
# Bounds(mm): (74.363200,-148.184000,1210.090000)-(77.092600,-140.968000,1223.070000)
# Volume(cm3): 0.011800
#
v 75.2544 -145.355 1217.99
v 75.2062 -144.901 1218.19
v 75.212 -144.921 1218.6
v 75.0639 -143.799 1219.36
v 74.8802 -142.945 1220.46
v 75.1531 -143.975 1219.58
v 75.0759 -142.946 1219.7
v 74.4362 -141.831 1221.85
v 74.5292 -141.598 1221.71
v 74.6794 -141.161 1221.98
v 74.8922 -141.482 1221.35
v 74.9007 -141.06 1221.95
v 74.3632 -141.782 1222.33
v 74.4547 -141.566 1222.76
v 74.4181 -141.385 1222.17
v 74.3929 -141.38 1222.4
v 74.5729 -142.201 1222.31
v 74.4962 -141.773 1222.78
v 74.6614 -141.571 1222.97
v 74.5308 -141.366 1222.77
v 74.5289 -141.171 1222.38
v 74.6923 -141.173 1222.77
v 74.8686 -141.943 1222.99
v 74.8989 -141.573 1223.07
v 74.8736 -141.366 1223.01
v 75.0986 -142.224 1222.75
v 75.0781 -141.166 1222.9
v 74.8858 -140.968 1222.2
v 74.88 -140.987 1222.59
v 76.2785 -147.565 1210.78
v 76.4788 -147.577 1210.38
v 76.6726 -147.564 1210.2
v 76.0444 -147.75 1212.4
v 76.2337 -147.557 1211.7
v 76.2785 -147.992 1211.58
v 76.2793 -147.489 1212.19
v 76.4909 -148.014 1211.34
v 76.4785 -147.429 1212.38
v 76.6611 -148.142 1212.02
v 76.8374 -147.939 1211.55
v 76.809 -147.942 1212.43
v 75.8513 -147.501 1213.62
v 75.9797 -147.953 1212.93
v 75.9864 -147.565 1212.78
v 76.0878 -147.996 1213.37
v 76.2862 -148.184 1212.57
v 76.2864 -148.069 1213.36
v 76.4839 -148.151 1212.94
v 76.4887 -147.998 1213.37
v 76.4785 -147.407 1212.78
v 76.6258 -147.554 1213.96
v 76.7017 -147.736 1213.22
v 76.67 -147.547 1212.71
v 76.2759 -147.666 1214.11
v 76.3367 -147.374 1210.62
v 76.4851 -147.369 1210.21
v 76.4789 -147.176 1210.45
v 76.6854 -147.357 1210.09
v 76.6713 -147.14 1210.19
v 76.6783 -147.059 1210.41
v 76.496 -147.33 1211.41
v 75.852 -147.165 1213.78
v 76.2785 -147.145 1213.38
v 76.2785 -146.765 1213.83
v 76.611 -147.388 1213.32
v 76.6588 -147.115 1213.87
v 76.0637 -147.121 1214.57
v 75.8785 -145.965 1215
v 76.2775 -146.167 1215.33
v 76.2569 -145.952 1215.56
v 76.4734 -147.272 1214.49
v 76.4898 -146.184 1215.3
v 76.4739 -145.97 1215.55
v 76.7158 -147.097 1214.24
v 76.7051 -146.165 1215.18
v 75.6984 -145.899 1216.96
v 76.0933 -145.998 1216.9
v 76.2405 -145.926 1215.86
v 76.4589 -145.926 1215.8
v 75.701 -145.923 1217.56
v 75.6867 -145.791 1217.99
v 76.0845 -145.91 1217.53
v 75.8938 -145.698 1214.97
v 75.9207 -145.765 1215.38
v 76.2559 -145.635 1214.56
v 76.2672 -145.076 1215.24
v 76.483 -145.631 1214.58
v 76.8298 -145.812 1214.97
v 76.7676 -145.765 1215.58
v 76.6779 -145.191 1215.21
v 75.3927 -145.544 1217.2
v 75.4239 -145.165 1217.18
v 75.8358 -145.579 1215.84
v 75.8364 -145.165 1215.98
v 75.8902 -144.895 1217.09
v 76.4785 -145.165 1217.11
v 76.4594 -144.929 1216.02
v 76.7588 -145.195 1216.03
v 75.4723 -145.745 1217.76
v 75.3559 -145.361 1218.37
v 75.2958 -144.909 1218.83
v 75.4785 -144.86 1217.58
v 75.4785 -144.269 1218.18
v 75.6812 -145.232 1218.8
v 75.8831 -144.721 1217.6
v 76.0614 -145.722 1218.04
v 76.1039 -145.058 1218.84
v 76.2463 -144.969 1217.32
v 76.0604 -144.237 1218.22
v 76.3697 -145.506 1217.74
v 76.402 -145.165 1217.58
v 76.2663 -144.858 1217.8
v 76.3798 -144.931 1218.18
v 76.2878 -144.158 1218.59
v 75.2663 -143.482 1220.49
v 75.4805 -144.005 1219.94
v 75.8681 -143.832 1220.13
v 75.8421 -143.012 1219.23
v 76.0887 -143.22 1219.16
v 76.2196 -142.77 1220.2
v 76.3355 -144.156 1219.16
v 76.2652 -143.337 1219.39
v 75.6577 -143.322 1220.84
v 76.1461 -142.983 1220.63
v 75.2927 -141.998 1220.44
v 76.07 -142.582 1219.95
v 76.0435 -142.282 1220.47
v 75.2791 -141.388 1221.34
v 75.6833 -141.938 1220.55
v 75.6627 -141.554 1221.29
v 75.267 -141.778 1223.05
v 75.2663 -141.384 1223.01
v 75.4962 -142.173 1222.64
v 75.4688 -141.196 1222.76
v 75.481 -141.059 1222.35
v 75.6686 -141.774 1222.71
v 75.7777 -141.47 1222.22
v 75.2724 -140.991 1222.14
v 75.2602 -140.977 1222.57
v 76.8631 -147.665 1210.44
v 76.9082 -147.765 1211.98
v 76.8712 -147.376 1210.13
v 76.8665 -147.177 1210.18
v 76.8656 -147.144 1210.63
v 77.0926 -147.365 1210.38
v 76.6726 -147.564 1210.2
v 76.2785 -147.992 1211.58
v 76.4785 -147.429 1212.38
v 76.6611 -148.142 1212.02
v 76.8374 -147.939 1211.55
v 76.809 -147.942 1212.43
v 75.9797 -147.953 1212.93
v 75.9864 -147.565 1212.78
v 76.4839 -148.151 1212.94
v 76.4785 -147.407 1212.78
v 76.6258 -147.554 1213.96
v 76.7017 -147.736 1213.22
v 76.67 -147.547 1212.71
v 76.2759 -147.666 1214.11
v 76.2759 -147.666 1214.11
v 76.6854 -147.357 1210.09
v 76.6854 -147.357 1210.09
v 76.6854 -147.357 1210.09
v 76.6713 -147.14 1210.19
v 76.6713 -147.14 1210.19
v 76.6783 -147.059 1210.41
v 76.496 -147.33 1211.41
v 75.852 -147.165 1213.78
v 76.2785 -147.145 1213.38
v 76.611 -147.388 1213.32
v 76.6588 -147.115 1213.87
v 76.0637 -147.121 1214.57
v 76.2775 -146.167 1215.33
v 76.2569 -145.952 1215.56
v 76.2569 -145.952 1215.56
v 76.4739 -145.97 1215.55
v 76.4589 -145.926 1215.8
v 75.8938 -145.698 1214.97
v 75.9207 -145.765 1215.38
v 76.7676 -145.765 1215.58
v 76.6779 -145.191 1215.21
v 75.4239 -145.165 1217.18
v 75.8358 -145.579 1215.84
v 75.8364 -145.165 1215.98
v 76.4785 -145.165 1217.11
v 76.7588 -145.195 1216.03
v 75.4785 -144.269 1218.18
v 75.8831 -144.721 1217.6
v 76.0614 -145.722 1218.04
v 76.2463 -144.969 1217.32
v 76.402 -145.165 1217.58
v 76.2663 -144.858 1217.8
v 75.2663 -141.384 1223.01
v 76.8631 -147.665 1210.44
v 76.9082 -147.765 1211.98
v 76.9082 -147.765 1211.98
v 76.9082 -147.765 1211.98
v 76.8712 -147.376 1210.13
v 76.8712 -147.376 1210.13
v 76.8665 -147.177 1210.18
v 76.8665 -147.177 1210.18
v 77.0926 -147.365 1210.38
v 77.0926 -147.365 1210.38
vn -0.94312 -0.328982 0.0479129
vn -0.96164 0.148535 -0.230619
vn -0.935769 -0.299036 0.186852
vn -0.993729 -0.107099 -0.0321193
vn -0.949307 -0.31435 -0.000311987
vn -0.809815 -0.474303 0.345306
vn -0.796025 0.361143 -0.485717
vn -0.969568 0.0229748 -0.24374
vn -0.813444 0.388189 -0.433149
vn -0.608247 0.697366 -0.3791
vn -0.473706 0.683688 -0.555133
vn -0.201817 0.868637 -0.452481
vn -0.985345 -0.160909 0.0566031
vn -0.885236 0.0748222 0.459084
vn -0.905579 0.352491 -0.23596
vn -0.940132 0.318949 0.120097
vn -0.693521 -0.648517 0.313774
vn -0.77326 -0.337731 0.536663
vn -0.567087 0.0544691 0.821855
vn -0.72325 0.433806 0.537329
vn -0.697896 0.714659 0.0469429
vn -0.479265 0.688277 0.544591
vn -0.343944 -0.479868 0.807112
vn -0.149736 0.0393067 0.987944
vn -0.290034 0.413835 0.862914
vn -0.0443852 -0.787921 0.614175
vn 0.0254816 0.723346 0.690016
vn -0.251216 0.957306 -0.143021
vn -0.267667 0.918039 0.292504
vn -0.909368 -0.297833 -0.290424
vn -0.62832 -0.626193 -0.461624
vn -0.371058 -0.720977 -0.585242
vn -0.968104 0.146458 -0.203284
vn -0.887959 0.458145 -0.0404064
vn -0.51682 -0.820565 -0.244071
vn -0.555796 0.8283 -0.0707819
vn -0.16744 -0.937021 -0.306521
vn -0.303458 0.952685 0.0174347
vn 0.125352 -0.982609 -0.136991
vn 0.339964 -0.909387 -0.239664
vn 0.790709 -0.598691 0.127862
vn -0.970101 -0.219767 0.102982
vn -0.973486 -0.147898 -0.174505
vn -0.95334 0.194996 -0.230475
vn -0.583208 -0.769864 0.259188
vn -0.295633 -0.955136 -0.0177882
vn -0.0339466 -0.948624 0.314579
vn 0.113449 -0.980472 0.160633
vn 0.592643 -0.732919 0.334071
vn -0.27884 0.942405 -0.184717
vn 0.647218 -0.631683 0.426716
vn 0.816839 -0.528603 0.230981
vn 0.563615 0.825762 -0.0213429
vn -0.58513 -0.684492 0.434849
vn -0.933209 0.311158 -0.179726
vn -0.795617 0.00154296 -0.605798
vn -0.697501 0.704219 -0.132544
vn -0.472132 -0.39333 -0.788913
vn -0.608415 0.588376 -0.532583
vn -0.511488 0.856547 -0.0686028
vn -0.524539 0.847081 0.0855127
vn -0.998861 0.022717 -0.0419654
vn -0.409143 0.782812 -0.468837
vn 0.0541516 0.618774 -0.783701
vn 0.533889 0.806641 -0.253562
vn 0.993429 0.0392386 -0.107512
vn -0.787756 -0.413263 0.456787
vn -0.885884 -0.316901 0.338798
vn -0.688336 -0.46802 0.554213
vn -0.635273 -0.716153 0.289056
vn 0.362894 -0.621894 0.693942
vn 0.270996 -0.66668 0.694333
vn 0.24965 -0.792081 0.55703
vn 0.952496 -0.25074 0.172862
vn 0.765141 -0.45828 0.45226
vn -0.585634 -0.798112 -0.141598
vn 0.103237 -0.99418 0.0307895
vn -0.321922 -0.943995 -0.0723773
vn -0.0211922 -0.997771 0.0632706
vn -0.258846 -0.957246 0.129147
vn -0.199403 -0.88957 0.41098
vn 0.391667 -0.886472 0.246503
vn -0.998123 -0.0605932 0.008938
vn -0.588489 -0.741547 0.322163
vn -0.341557 0.618103 -0.708017
vn -0.250757 0.873133 -0.418042
vn 0.417339 0.583053 -0.697049
vn 0.989055 0.0701987 -0.129778
vn 0.548216 -0.772796 0.31976
vn 0.386144 0.865992 -0.317727
vn -0.944911 -0.263994 -0.193519
vn -0.954755 0.0768525 -0.287293
vn -0.683669 -0.725902 -0.0752584
vn -0.977919 0.0664671 -0.198135
vn -0.225694 0.945635 -0.234174
vn 0.708474 0.691502 0.141033
vn 0.331432 0.941992 -0.0529456
vn 0.991782 0.0528447 0.116512
vn -0.708764 -0.696605 0.111331
vn -0.682519 -0.620915 0.385529
vn -0.677656 -0.548978 0.48929
vn -0.561318 0.689227 -0.458136
vn -0.829052 0.352691 -0.433914
vn -0.130186 -0.751811 0.646399
vn 0.454591 0.803542 -0.384274
vn 0.150432 -0.843675 0.515347
vn 0.616922 -0.569341 0.543376
vn 0.328253 0.931909 -0.154262
vn 0.391869 0.64487 -0.656187
vn 0.931147 -0.275557 0.238816
vn 0.992871 -0.0417515 0.111639
vn 0.549598 0.696209 -0.461773
vn 0.987728 0.145507 -0.0567534
vn 0.881854 0.341669 -0.324955
vn -0.502098 -0.74863 0.432955
vn -0.330894 -0.715642 0.615115
vn 0.29665 -0.681343 0.669157
vn 0.0771624 0.720975 -0.688651
vn 0.635571 0.560412 -0.531026
vn 0.97553 0.218976 -0.019761
vn 0.98849 -0.076644 0.130432
vn 0.923728 0.308975 -0.226409
vn 0.222778 -0.783497 0.580088
vn 0.852095 -0.33155 0.40498
vn -0.213898 0.751941 -0.623565
vn 0.688202 0.604631 -0.400999
vn 0.783519 0.576932 -0.230755
vn 0.0553891 0.860222 -0.506903
vn 0.339607 0.795825 -0.501328
vn 0.57456 0.758125 -0.308426
vn 0.305234 -0.295412 0.905298
vn 0.117087 0.371561 0.920996
vn 0.532662 -0.595235 0.601636
vn 0.642924 0.571137 0.510345
vn 0.638713 0.769424 0.00558099
vn 0.820767 -0.0473926 0.569293
vn 0.92746 0.360861 0.0979652
vn 0.225604 0.936976 -0.266794
vn 0.212136 0.948218 0.23639
vn 0.15646 -0.941263 -0.299238
vn 0.952298 0.145707 0.268139
vn 0.405734 -0.598644 -0.690655
vn 0.133834 0.360144 -0.923247
vn 0.510929 0.844104 0.162601
vn 0.802493 -0.552939 -0.224195
vn 0.282094 -0.588535 -0.75766
vn -0.977683 -0.116671 -0.17471
vn 0.489197 0.871725 0.0279656
vn 0.724288 -0.685749 0.0717937
vn 0.851865 -0.523403 -0.0193641
vn 0.96448 0.237249 0.116148
vn -0.720381 -0.692956 0.0293813
vn -0.33301 0.894627 -0.297905
vn 0.704632 -0.689507 0.167555
vn 0.561842 0.817828 -0.124467
vn 0.996791 -0.0783507 -0.0163886
vn 0.98568 0.167727 -0.0174071
vn 0.960775 0.24022 0.138584
vn 0.395791 -0.780784 0.483452
vn -0.103975 -0.659467 0.744508
vn 0.132669 -0.474277 -0.870322
vn -0.514954 0.347004 -0.783843
vn 0.133834 0.360144 -0.923247
vn 0.042682 0.438384 -0.897774
vn 0.160567 0.924112 -0.34675
vn 0.25741 0.965153 -0.0471222
vn 0.410025 0.889305 0.202526
vn -0.518252 0.627059 -0.581559
vn 0.559992 0.73906 -0.374431
vn 0.954748 0.292555 -0.053553
vn 0.600731 0.553498 -0.576856
vn -0.0905887 -0.634747 0.767392
vn -0.0172524 -0.681436 0.731674
vn -0.0300765 -0.743427 0.66814
vn -0.0233735 -0.99126 0.129837
vn -0.0726112 -0.982641 0.170718
vn 0.538911 -0.829064 0.14909
vn -0.69359 0.552011 -0.462836
vn -0.984227 -0.173219 0.0359544
vn 0.976886 -0.160547 0.141136
vn 0.889378 0.33643 -0.309549
vn -0.614081 0.716851 -0.330196
vn -0.981569 -0.0549587 -0.183034
vn -0.58897 0.77126 -0.241397
vn 0.976792 0.0651893 0.20403
vn 0.683791 0.725333 0.0795113
vn -0.133304 0.706016 -0.695536
vn -0.167512 0.817009 -0.551757
vn 0.737464 -0.586493 0.334921
vn 0.744668 0.664012 0.0675116
vn 0.817257 0.5725 -0.0658446
vn 0.893153 0.410622 -0.183487
vn 0.668909 0.128346 0.73218
vn 0.625657 -0.647208 -0.435518
vn 0.559832 0.802204 0.207502
vn 0.910176 -0.413846 0.0176439
vn 0.798622 0.555745 0.230976
vn 0.222968 0.276474 -0.934798
vn 0.732226 0.205806 -0.649222
vn 0.44801 0.879364 -0.161265
vn 0.732226 0.205806 -0.649222
vn 0.732226 0.205806 -0.649222
vn 0.744669 0.661403 0.0895242
g grp1
usemtl mtl1
f 100//100 3//3 1//1 
f 1//1 3//3 2//2 
f 100//100 101//101 3//3 
f 101//101 6//6 3//3 
f 2//2 3//3 4//4 
f 3//3 6//6 4//4 
f 7//7 2//2 4//4 
f 6//6 5//5 4//4 
f 6//6 115//115 5//5 
f 7//7 4//4 5//5 
f 6//6 116//116 115//115 
f 7//7 103//103 2//2 
f 5//5 8//8 7//7 
f 8//8 9//9 7//7 
f 11//11 7//7 9//9 
f 8//8 15//15 9//9 
f 10//10 11//11 9//9 
f 15//15 10//10 9//9 
f 11//11 10//10 12//12 
f 12//12 10//10 28//28 
f 125//125 7//7 11//11 
f 125//125 11//11 128//128 
f 128//128 11//11 12//12 
f 12//12 138//138 128//128 
f 28//28 138//138 12//12 
f 5//5 13//13 8//8 
f 5//5 17//17 13//13 
f 17//17 18//18 13//13 
f 13//13 18//18 14//14 
f 8//8 13//13 15//15 
f 13//13 16//16 15//15 
f 13//13 14//14 16//16 
f 14//14 20//20 16//16 
f 15//15 16//16 21//21 
f 21//21 16//16 20//20 
f 115//115 17//17 5//5 
f 17//17 23//23 18//18 
f 14//14 18//18 19//19 
f 23//23 24//24 19//19 
f 18//18 23//23 19//19 
f 14//14 19//19 20//20 
f 21//21 10//10 15//15 
f 22//22 21//21 20//20 
f 28//28 10//10 21//21 
f 26//26 17//17 115//115 
f 26//26 23//23 17//17 
f 19//19 25//25 20//20 
f 25//25 19//19 24//24 
f 22//22 20//20 25//25 
f 27//27 22//22 25//25 
f 27//27 29//29 22//22 
f 26//26 133//133 131//131 
f 23//23 26//26 131//131 
f 131//131 24//24 23//23 
f 131//131 132//132 24//24 
f 132//132 25//25 24//24 
f 27//27 132//132 134//134 
f 132//132 27//27 25//25 
f 21//21 22//22 29//29 
f 28//28 21//21 29//29 
f 138//138 28//28 139//139 
f 28//28 29//29 139//139 
f 27//27 139//139 29//29 
f 134//134 139//139 27//27 
f 31//31 30//30 56//56 
f 30//30 55//55 56//56 
f 30//30 34//34 55//55 
f 31//31 32//32 37//37 
f 56//56 58//58 32//32 
f 31//31 56//56 32//32 
f 37//37 32//32 140//140 
f 37//37 140//140 40//40 
f 194//194 146//146 142//142 
f 142//142 146//146 161//161 
f 43//43 42//42 33//33 
f 44//44 33//33 42//42 
f 35//35 46//46 152//152 
f 43//43 33//33 147//147 
f 30//30 147//147 34//34 
f 147//147 33//33 34//34 
f 33//33 36//36 34//34 
f 33//33 44//44 36//36 
f 36//36 153//153 50//50 
f 35//35 37//37 46//46 
f 37//37 30//30 31//31 
f 35//35 30//30 37//37 
f 34//34 36//36 61//61 
f 61//61 36//36 38//38 
f 38//38 36//36 50//50 
f 37//37 39//39 46//46 
f 167//167 148//148 53//53 
f 148//148 155//155 53//53 
f 46//46 39//39 48//48 
f 39//39 37//37 40//40 
f 41//41 149//149 150//150 
f 149//149 41//41 154//154 
f 141//141 158//158 151//151 
f 144//144 167//167 195//195 
f 53//53 195//195 167//167 
f 46//46 45//45 152//152 
f 42//42 152//152 45//45 
f 42//42 62//62 44//44 
f 45//45 54//54 42//42 
f 63//63 153//153 168//168 
f 47//47 45//45 46//46 
f 47//47 54//54 45//45 
f 50//50 153//153 63//63 
f 48//48 47//47 46//46 
f 48//48 49//49 47//47 
f 47//47 49//49 159//159 
f 49//49 51//51 159//159 
f 41//41 49//49 154//154 
f 52//52 51//51 49//49 
f 65//65 53//53 155//155 
f 52//52 49//49 41//41 
f 66//66 156//156 157//157 
f 157//157 151//151 170//170 
f 157//157 170//170 66//66 
f 170//170 151//151 158//158 
f 156//156 66//66 74//74 
f 54//54 67//67 42//42 
f 172//172 160//160 71//71 
f 159//159 51//51 71//71 
f 56//56 55//55 57//57 
f 57//57 55//55 34//34 
f 57//57 34//34 61//61 
f 59//59 162//162 56//56 
f 57//57 61//61 60//60 
f 56//56 57//57 59//59 
f 59//59 57//57 60//60 
f 198//198 163//163 143//143 
f 143//143 163//163 164//164 
f 165//165 166//166 200//200 
f 200//200 166//166 144//144 
f 167//167 144//144 166//166 
f 83//83 62//62 42//42 
f 64//64 63//63 168//168 
f 171//171 169//169 64//64 
f 87//87 171//171 64//64 
f 169//169 65//65 155//155 
f 169//169 171//171 65//65 
f 42//42 68//68 83//83 
f 42//42 67//67 68//68 
f 67//67 69//69 68//68 
f 69//69 70//70 68//68 
f 68//68 70//70 84//84 
f 70//70 93//93 84//84 
f 172//172 71//71 173//173 
f 70//70 78//78 93//93 
f 173//173 71//71 72//72 
f 173//173 72//72 73//73 
f 174//174 173//173 73//73 
f 176//176 79//79 175//175 
f 175//175 79//79 78//78 
f 74//74 71//71 51//51 
f 75//75 72//72 71//71 
f 89//89 72//72 75//75 
f 73//73 72//72 89//89 
f 73//73 89//89 177//177 
f 75//75 71//71 74//74 
f 75//75 74//74 88//88 
f 74//74 66//66 88//88 
f 180//180 75//75 88//88 
f 76//76 99//99 91//91 
f 78//78 77//77 76//76 
f 76//76 77//77 80//80 
f 89//89 77//77 177//177 
f 79//79 77//77 78//78 
f 93//93 78//78 76//76 
f 76//76 80//80 99//99 
f 80//80 81//81 99//99 
f 81//81 100//100 99//99 
f 77//77 82//82 80//80 
f 80//80 82//82 81//81 
f 82//82 106//106 81//81 
f 89//89 82//82 77//77 
f 89//89 110//110 82//82 
f 110//110 189//189 82//82 
f 68//68 179//179 83//83 
f 83//83 179//179 183//183 
f 183//183 94//94 83//83 
f 64//64 168//168 85//85 
f 85//85 178//178 86//86 
f 85//85 168//168 178//178 
f 86//86 178//178 184//184 
f 87//87 64//64 85//85 
f 85//85 86//86 87//87 
f 87//87 88//88 171//171 
f 90//90 87//87 86//86 
f 90//90 86//86 97//97 
f 180//180 88//88 98//98 
f 87//87 181//181 88//88 
f 181//181 98//98 88//88 
f 97//97 186//186 90//90 
f 93//93 76//76 91//91 
f 99//99 1//1 91//91 
f 183//183 91//91 92//92 
f 91//91 2//2 92//92 
f 91//91 1//1 2//2 
f 183//183 92//92 94//94 
f 184//184 182//182 95//95 
f 108//108 95//95 105//105 
f 184//184 95//95 86//86 
f 97//97 86//86 95//95 
f 180//180 98//98 110//110 
f 96//96 186//186 190//190 
f 95//95 108//108 97//97 
f 190//190 186//186 97//97 
f 100//100 1//1 99//99 
f 102//102 182//182 2//2 
f 102//102 2//2 103//103 
f 100//100 81//81 104//104 
f 104//104 101//101 100//100 
f 101//101 104//104 116//116 
f 95//95 102//102 188//188 
f 95//95 182//182 102//102 
f 102//102 187//187 188//188 
f 106//106 104//104 81//81 
f 117//117 116//116 104//104 
f 104//104 106//106 107//107 
f 107//107 117//117 104//104 
f 109//109 188//188 187//187 
f 110//110 107//107 189//189 
f 121//121 107//107 110//110 
f 124//124 107//107 121//121 
f 112//112 108//108 105//105 
f 98//98 185//185 110//110 
f 185//185 111//111 110//110 
f 96//96 190//190 191//191 
f 110//110 111//111 113//113 
f 121//121 110//110 113//113 
f 192//192 191//191 190//190 
f 192//192 113//113 191//191 
f 112//112 105//105 109//109 
f 109//109 114//114 112//112 
f 192//192 114//114 113//113 
f 101//101 116//116 6//6 
f 124//124 117//117 107//107 
f 118//118 109//109 187//187 
f 119//119 109//109 118//118 
f 114//114 109//109 119//119 
f 114//114 119//119 122//122 
f 118//118 187//187 7//7 
f 122//122 119//119 126//126 
f 118//118 126//126 119//119 
f 122//122 126//126 120//120 
f 121//121 120//120 124//124 
f 113//113 114//114 121//121 
f 114//114 122//122 121//121 
f 121//121 122//122 120//120 
f 115//115 123//123 26//26 
f 117//117 123//123 116//116 
f 116//116 123//123 115//115 
f 117//117 124//124 123//123 
f 118//118 7//7 125//125 
f 125//125 129//129 118//118 
f 129//129 125//125 128//128 
f 126//126 118//118 129//129 
f 127//127 126//126 129//129 
f 126//126 127//127 120//120 
f 123//123 133//133 26//26 
f 130//130 128//128 138//138 
f 123//123 124//124 133//133 
f 130//130 129//129 128//128 
f 127//127 129//129 130//130 
f 137//137 127//127 130//130 
f 120//120 127//127 137//137 
f 133//133 136//136 131//131 
f 136//136 193//193 131//131 
f 136//136 134//134 193//193 
f 124//124 136//136 133//133 
f 137//137 134//134 136//136 
f 135//135 137//137 130//130 
f 134//134 137//137 135//135 
f 139//139 134//134 135//135 
f 124//124 120//120 137//137 
f 136//136 124//124 137//137 
f 135//135 130//130 138//138 
f 139//139 135//135 138//138 
f 150//150 194//194 145//145 
f 142//142 145//145 194//194 
f 150//150 145//145 196//196 
f 196//196 41//41 150//150 
f 201//201 202//202 199//199 
f 144//144 197//197 203//203 
f 144//144 203//203 200//200 
