#
# The license for this database is specified in the Creative Commons Attribution-Share Alike 2.1 Japan. If you use data from this database, please be sure attribute this database as follows: "BodyParts3D, (c)  The Database Center for Life Science licensed under CC Attribution-Share Alike 2.1 Japan".
# http://dbarchive.biosciencedbc.jp/en/bodyparts3d/lic.html
#
#
# Compatibility version : 4.0
# File ID : FJ2722
# Representation ID : BP9298
# Build-up logic : FMA 3.0 part_of
# Concept ID : FMA3837
# English name : First posterior ventricular branch of right coronary artery
# Bounds(mm): (60.989600,-134.395000,1175.570000)-(63.524400,-116.931000,1179.070000)
# Volume(cm3): 0.024500
#
v 61.8785 -133.598 1176.38
v 61.8873 -133.454 1176.58
v 62.2095 -133.738 1176.78
v 62.0801 -133.54 1176.13
v 62.0933 -133.17 1176
v 62.341 -134.126 1176.77
v 62.2965 -133.169 1176.11
v 62.4427 -133.172 1176.4
v 61.552 -132.765 1176.18
v 61.623 -131.565 1176.38
v 61.698 -132.555 1176.53
v 61.695 -132.293 1175.93
v 61.8751 -132.941 1175.95
v 61.9074 -132.99 1176.65
v 61.8911 -132.535 1176.6
v 61.9062 -132.343 1175.88
v 61.872 -131.734 1176.54
v 62.0785 -132.765 1176.59
v 62.2126 -132.503 1176.17
v 62.1966 -132.466 1176.38
v 62.0749 -132.38 1176.49
v 62.0683 -131.984 1176.49
v 61.4785 -129.965 1175.74
v 61.4676 -130.565 1176.18
v 61.6516 -131.165 1175.98
v 61.4743 -129.94 1176.41
v 61.6759 -130.943 1176.44
v 61.8631 -130.672 1175.81
v 61.8731 -130.424 1176.53
v 61.8399 -130.107 1175.77
v 61.8388 -129.9 1176.42
v 62.0759 -131.195 1176.5
v 62.1729 -130.957 1175.98
v 62.2303 -131 1176.37
v 62.2081 -130.509 1176.17
v 62.1156 -130.359 1176.37
v 62.2856 -131.227 1176.19
v 61.2929 -129.299 1175.6
v 61.3163 -128.731 1175.57
v 61.4883 -129.17 1175.59
v 61.5628 -128.686 1175.62
v 61.7238 -128.711 1175.8
v 61.0746 -129.406 1175.79
v 60.9896 -129.202 1175.99
v 60.991 -128.957 1175.78
v 61.0645 -128.789 1176.18
v 61.0185 -128.587 1175.98
v 61.2337 -128.316 1175.81
v 61.309 -128.999 1176.31
v 61.3261 -128.513 1176.36
v 61.5036 -128.985 1176.26
v 61.5233 -128.712 1176.31
v 61.7029 -129.122 1175.79
v 61.6957 -128.965 1175.98
v 61.7332 -128.765 1175.98
v 61.282 -128.137 1176.18
v 61.8705 -127.452 1176.57
v 61.8757 -127.248 1176.37
v 61.9884 -127.165 1176.18
v 62.0405 -126.892 1176.56
v 62.1553 -126.765 1176.18
v 62.2472 -128.012 1176.36
v 62.2404 -127.574 1176.7
v 62.2603 -126.932 1176.78
v 62.1661 -126.03 1176.61
v 62.2819 -125.977 1176.79
v 62.2836 -124.958 1176.39
v 62.0984 -120.495 1177.58
v 62.1194 -120.034 1177.21
v 62.0822 -119.328 1177.26
v 61.8244 -119.545 1177.58
v 61.9068 -119.399 1178
v 61.8449 -118.748 1177.61
v 61.7486 -118.717 1177.99
v 62.1154 -118.739 1178.42
v 61.8597 -117.446 1178.34
v 61.8608 -117.443 1178.73
v 61.9001 -117.162 1178.58
v 62.0766 -118.297 1177.62
v 62.0848 -117.295 1178.16
v 62.0795 -117.057 1178.38
v 62.0794 -117.044 1178.78
v 62.2789 -118.588 1177.47
v 62.2785 -117.613 1177.92
v 62.2785 -117.157 1178.19
v 62.0842 -117.636 1178.95
v 62.0848 -117.235 1178.97
v 62.2782 -117.362 1179.07
v 62.2713 -117.162 1179
v 62.1248 -116.975 1178.58
v 62.2797 -116.974 1178.42
v 62.2803 -116.931 1178.58
v 62.2795 -116.978 1178.78
v 62.4658 -134.279 1176.58
v 62.4559 -134.116 1176.38
v 62.5364 -133.965 1176.98
v 62.4785 -133.518 1176.78
v 62.6786 -134.395 1176.78
v 62.6786 -134.365 1176.56
v 62.6786 -134.165 1177.02
v 62.6474 -133.932 1176.3
v 62.9864 -134.165 1176.58
v 63.0051 -134.165 1176.78
v 62.9412 -133.928 1176.57
v 62.8785 -133.965 1176.94
v 62.4049 -127.005 1176
v 62.4812 -126.637 1176.84
v 62.6145 -127.291 1176.17
v 62.7814 -126.867 1176.59
v 62.6885 -126.679 1176.12
v 62.8713 -126.643 1176.38
v 62.4739 -125.388 1176.13
v 62.6821 -125.541 1176.11
v 62.9564 -125.356 1176.78
v 63.0372 -125.261 1176.58
v 62.4952 -124.358 1176.33
v 62.4971 -124.41 1177.04
v 62.679 -124.409 1176.24
v 63.0264 -124.951 1176.41
v 62.8794 -124.614 1177.06
v 62.8837 -124.195 1176.31
v 62.8785 -123.565 1176.47
v 63.13 -124.532 1176.8
v 62.5392 -123.449 1176.95
v 62.6855 -122.545 1177.19
v 62.7549 -121.956 1177.19
v 62.8785 -121.965 1177.06
v 63.2613 -123.208 1176.71
v 63.2506 -122.352 1176.92
v 63.4899 -123.05 1177.15
v 63.5244 -122.342 1177.19
v 62.6801 -122.765 1177.38
v 62.6957 -122.165 1177.58
v 63.0418 -122.789 1177.67
v 63.0253 -121.835 1177.91
v 63.2698 -123.188 1177.48
v 63.2734 -122.45 1177.76
v 63.5158 -122.351 1177.57
v 62.8562 -121.503 1177.1
v 62.4892 -121.356 1177.38
v 62.6586 -121.689 1177.76
v 63.4184 -121.371 1177.57
v 63.3187 -121.348 1177.77
v 63.29 -121.139 1177.36
v 62.4969 -119.773 1177.15
v 62.5028 -119.805 1178.03
v 62.6448 -119.361 1177.4
v 62.4915 -118.753 1178.33
v 62.8207 -119.765 1177.58
v 62.6786 -118.694 1177.78
v 62.8672 -120.023 1177.38
v 62.4827 -118.446 1177.61
v 62.471 -117.223 1178.18
v 62.4777 -117.024 1178.38
v 62.7255 -117.637 1178.73
v 62.7809 -117.407 1178.56
v 62.6695 -117.366 1178.87
v 62.6635 -117.252 1178.34
v 62.6631 -117.121 1178.59
v 62.465 -117.608 1178.99
v 62.4725 -117.168 1178.96
v 62.4661 -116.965 1178.59
v 61.8785 -133.598 1176.38
v 62.2095 -133.738 1176.78
v 62.0801 -133.54 1176.13
v 62.4427 -133.172 1176.4
v 61.552 -132.765 1176.18
v 61.623 -131.565 1176.38
v 61.9074 -132.99 1176.65
v 61.8911 -132.535 1176.6
v 61.872 -131.734 1176.54
v 62.1966 -132.466 1176.38
v 61.4785 -129.965 1175.74
v 61.4676 -130.565 1176.18
v 61.4676 -130.565 1176.18
v 61.6516 -131.165 1175.98
v 61.8731 -130.424 1176.53
v 61.8388 -129.9 1176.42
v 62.2303 -131 1176.37
v 62.2856 -131.227 1176.19
v 61.2929 -129.299 1175.6
v 61.3163 -128.731 1175.57
v 61.4883 -129.17 1175.59
v 61.7238 -128.711 1175.8
v 61.0746 -129.406 1175.79
v 60.991 -128.957 1175.78
v 61.0185 -128.587 1175.98
v 61.5036 -128.985 1176.26
v 61.5036 -128.985 1176.26
v 61.5233 -128.712 1176.31
v 61.5233 -128.712 1176.31
v 61.6957 -128.965 1175.98
v 61.7332 -128.765 1175.98
v 61.7332 -128.765 1175.98
v 61.282 -128.137 1176.18
v 61.9884 -127.165 1176.18
v 62.1553 -126.765 1176.18
v 62.2472 -128.012 1176.36
v 62.2404 -127.574 1176.7
v 62.1194 -120.034 1177.21
v 61.8244 -119.545 1177.58
v 61.9068 -119.399 1178
v 61.7486 -118.717 1177.99
v 61.8608 -117.443 1178.73
v 61.9001 -117.162 1178.58
v 61.9001 -117.162 1178.58
v 62.0794 -117.044 1178.78
v 62.0842 -117.636 1178.95
v 62.2782 -117.362 1179.07
v 62.4559 -134.116 1176.38
v 62.5364 -133.965 1176.98
v 62.4785 -133.518 1176.78
v 62.6786 -134.395 1176.78
v 62.6786 -134.395 1176.78
v 62.6786 -134.365 1176.56
v 62.6786 -134.365 1176.56
v 62.6786 -134.165 1177.02
v 62.6786 -134.165 1177.02
v 62.9864 -134.165 1176.58
v 62.9864 -134.165 1176.58
v 62.9864 -134.165 1176.58
v 63.0051 -134.165 1176.78
v 63.0051 -134.165 1176.78
v 62.9412 -133.928 1176.57
v 62.8785 -133.965 1176.94
v 62.8785 -133.965 1176.94
v 62.4812 -126.637 1176.84
v 62.6145 -127.291 1176.17
v 62.8794 -124.614 1177.06
v 62.7549 -121.956 1177.19
v 62.8785 -121.965 1177.06
v 62.6801 -122.765 1177.38
v 62.6957 -122.165 1177.58
v 63.2698 -123.188 1177.48
v 63.2734 -122.45 1177.76
v 62.8562 -121.503 1177.1
v 62.8562 -121.503 1177.1
v 62.8562 -121.503 1177.1
v 62.4892 -121.356 1177.38
v 62.5028 -119.805 1178.03
v 62.5028 -119.805 1178.03
v 62.8207 -119.765 1177.58
v 62.6786 -118.694 1177.78
v 62.8672 -120.023 1177.38
vn -0.85159 -0.474636 0.222518
vn -0.776625 -0.230614 0.586235
vn -0.622689 -0.184751 0.760346
vn -0.628655 -0.479196 -0.612507
vn 0.211407 -0.159705 -0.964262
vn -0.698222 -0.488069 0.523711
vn 0.698686 0.14614 -0.700343
vn 0.708231 0.514091 0.483859
vn -0.953372 -0.10483 0.283008
vn -0.994856 -0.0898085 -0.0468615
vn -0.637023 -0.00383062 0.770835
vn -0.541388 -0.0747679 -0.837442
vn -0.325999 -0.244684 -0.913156
vn -0.528759 -0.0361392 0.848002
vn -0.341377 0.0754511 0.936893
vn 0.305371 -0.0378209 -0.951482
vn -0.457278 0.0311536 0.888778
vn 0.477883 0.277924 0.833299
vn 0.908868 0.0818324 -0.408978
vn 0.986366 0.0863075 0.14012
vn 0.568603 0.109992 0.815225
vn 0.477001 0.00984434 0.878848
vn -0.0476131 -0.164398 -0.985244
vn -0.82097 -0.118842 0.558467
vn -0.609104 -0.0779072 -0.789255
vn -0.519237 -0.0364187 0.853854
vn -0.620389 -0.0456674 0.782964
vn -0.0225527 -0.0719701 -0.997152
vn -0.279585 0.0622868 0.958098
vn 0.34437 -0.0461883 -0.937697
vn 0.0512305 0.187849 0.980861
vn 0.47216 0.0299318 0.881004
vn 0.721357 0.0245662 -0.692128
vn 0.60864 0.0457168 0.792129
vn 0.976006 0.201348 -0.0828982
vn 0.741927 0.230007 0.629795
vn 0.892225 0.0227695 -0.451016
vn 0.024876 -0.13741 -0.990202
vn -0.51393 0.231232 -0.82608
vn 0.083176 -0.0621549 -0.994595
vn 0.526439 -0.046112 -0.848961
vn 0.723001 -0.143747 -0.675727
vn -0.615406 -0.296057 -0.730497
vn -0.965297 -0.138128 0.221634
vn -0.669777 0.115625 -0.733505
vn -0.741246 0.0630154 0.668269
vn -0.954939 0.129016 0.267295
vn -0.689537 0.478127 -0.543997
vn -0.0637302 -0.00145408 0.997966
vn -0.393331 0.00363155 0.91939
vn 0.270779 0.0212023 0.962408
vn 0.108166 -0.194898 0.974841
vn 0.843535 0.0795649 -0.531148
vn 0.959575 0.204187 0.193711
vn 0.819891 -0.162123 0.549086
vn -0.802395 0.568149 -0.182674
vn -0.677187 0.184256 0.712367
vn -0.894966 0.446073 0.00745947
vn -0.824409 0.508515 -0.248521
vn -0.935159 0.228395 0.270766
vn -0.917957 0.313712 -0.242775
vn 0.593336 -0.545195 0.592212
vn -0.223027 -0.130714 0.966009
vn -0.514615 0.00835826 0.857381
vn -0.903013 0.0762666 0.422789
vn -0.633479 -0.0104712 0.773689
vn -0.930848 0.168104 -0.324441
vn -0.942853 -0.333182 -0.0041178
vn -0.167129 0.0301074 -0.985475
vn -0.445087 0.173623 -0.878495
vn -0.88141 -0.0457679 -0.47013
vn -0.877299 -0.248673 0.410498
vn -0.825114 0.182682 -0.534617
vn -0.908621 -0.205099 0.36379
vn -0.0657339 -0.420006 0.905138
vn -0.877227 0.304439 -0.371199
vn -0.993592 0.113009 0.00176218
vn -0.990239 0.13937 0.00151355
vn -0.436494 0.377351 -0.816749
vn -0.479513 0.493077 -0.725908
vn -0.524989 0.701069 -0.482586
vn -0.803574 0.386196 0.452903
vn 0.0949042 0.351737 -0.931276
vn 0.0309177 0.462434 -0.886115
vn -0.0659868 0.664929 -0.743986
vn -0.161821 -0.405712 0.899562
vn -0.572718 0.280208 0.770375
vn -0.0221813 0.184891 0.982509
vn -0.109201 0.592286 0.798294
vn -0.420838 0.906893 -0.0209762
vn -0.0570012 0.915859 -0.397433
vn -0.0466436 0.99885 -0.011114
vn -0.0153666 0.906133 0.422714
vn -0.573753 -0.791935 -0.208916
vn -0.4943 -0.66702 -0.557451
vn -0.0302297 0.35562 0.934142
vn -0.0788953 0.290816 0.953521
vn -0.532389 -0.811573 0.240648
vn -0.377442 -0.850352 -0.36666
vn -0.563602 -0.453816 0.690221
vn 0.363527 -0.223868 -0.904285
vn 0.349801 -0.456954 -0.817821
vn 0.575082 -0.816328 -0.0537495
vn 0.730227 0.223249 -0.6457
vn 0.759678 0.564365 0.32308
vn -0.0271505 0.15457 -0.987609
vn -0.233626 -0.0741057 0.969499
vn 0.649969 -0.157204 -0.743523
vn 0.831592 -0.289559 0.473931
vn 0.65232 -0.0714792 -0.754566
vn 0.957167 -0.173704 -0.231643
vn -0.399405 0.133591 -0.906989
vn 0.322617 0.0569657 -0.944814
vn 0.853281 -0.178599 0.489913
vn 0.986067 -0.136526 0.0950408
vn -0.622921 0.289241 -0.726848
vn -0.653459 -0.0612136 0.754482
vn -0.088416 0.202341 -0.975316
vn 0.871002 -0.0580288 -0.487841
vn 0.687846 -0.22984 0.688507
vn 0.402711 0.133798 -0.905495
vn -0.160574 0.323911 -0.932361
vn 0.916674 -0.242139 0.317928
vn -0.967374 0.212695 -0.137652
vn -0.971238 0.125192 -0.202541
vn -0.699086 0.0272482 -0.714518
vn -0.80279 0.143972 -0.57862
vn 0.673362 0.108818 -0.73126
vn 0.305465 0.247163 -0.919566
vn 0.985116 -0.171892 9.86262e-05
vn 0.916986 0.119482 -0.380605
vn -0.990922 0.0725296 0.113195
vn -0.989497 -0.0550935 -0.133639
vn -0.304084 -0.279611 0.910687
vn -0.0313043 -0.140327 0.98961
vn 0.776993 -0.313423 0.545938
vn 0.068743 -0.30184 0.950877
vn 0.902332 -0.0815481 0.423258
vn -0.147277 0.000680852 -0.989095
vn -0.894836 -0.26862 -0.356527
vn -0.770508 -0.302408 0.56113
vn 0.971443 0.227276 0.0681484
vn 0.707958 0.123437 0.695384
vn 0.735272 0.283121 -0.615807
vn 0.309758 0.200593 -0.929415
vn -0.0221606 -0.168178 0.985507
vn 0.784408 0.268192 -0.559265
vn 0.688362 -0.277331 0.670258
vn 0.870725 0.140075 0.471399
vn 0.850151 0.214233 -0.480986
vn 0.918418 0.333236 -0.213218
vn 0.565476 0.32385 -0.758524
vn 0.392054 0.517483 -0.760595
vn 0.418985 0.773942 -0.474833
vn 0.870284 -0.213564 0.443843
vn 0.986182 0.162886 0.0302034
vn 0.802082 0.160734 0.575177
vn 0.782118 0.398149 -0.479342
vn 0.791571 0.607285 0.0679748
vn 0.354058 -0.268444 0.895869
vn 0.469094 0.511274 0.720104
vn 0.380267 0.922651 0.0641206
vn -0.60105 -0.559822 -0.570384
vn -0.213758 0.240702 0.946768
vn -0.00370377 -0.341293 -0.93995
vn 0.904142 0.317428 -0.285948
vn -0.721493 -0.264284 -0.640001
vn -0.619821 0.0207614 0.784468
vn 0.0260849 0.162069 0.986435
vn 0.350003 0.109634 0.930311
vn 0.244046 0.0235931 0.969477
vn 0.659811 0.0830581 0.746827
vn -0.808064 -0.296502 -0.509037
vn -0.823696 -0.325547 -0.464267
vn -0.93977 -0.337263 -0.0555563
vn -0.988704 -0.064574 -0.135257
vn 0.411856 0.111214 0.904437
vn 0.670936 0.328562 0.664749
vn 0.961984 0.0866026 0.25901
vn 0.982334 0.0111856 0.1868
vn -0.563149 -0.157739 -0.811161
vn 0.116864 0.0389231 -0.992385
vn 0.672374 0.0210488 -0.739912
vn 0.944911 -0.309966 -0.105185
vn -0.954913 -0.262648 -0.138411
vn -0.993778 -0.0695737 -0.0869762
vn -0.828552 0.449126 -0.334347
vn 0.819891 -0.162123 0.549086
vn 0.751118 0.370584 0.546342
vn 0.821722 -0.170862 0.543672
vn 0.540265 -0.59568 0.594372
vn 0.81797 -0.153366 0.55444
vn 0.928377 -0.339388 -0.151432
vn 0.59598 -0.645931 0.477054
vn -0.763471 0.295829 0.574105
vn -0.478229 0.371137 -0.795961
vn -0.555195 0.135907 -0.820541
vn 0.875294 -0.472958 -0.100855
vn 0.564045 -0.414917 0.713931
vn -0.81679 -0.211495 -0.536772
vn -0.93329 -0.240971 0.266274
vn -0.317061 -0.296869 0.900745
vn -0.981651 0.0915746 -0.167256
vn -0.829486 0.0669312 0.554503
vn -0.703064 0.690805 -0.168787
vn -0.791675 0.376315 0.481287
vn -0.408332 0.803946 0.432361
vn -0.672838 -0.098517 0.733201
vn -0.0644125 -0.353221 0.93332
vn 0.0716044 -0.449558 -0.890376
vn -0.608418 -0.245285 0.75476
vn 0.648924 0.590009 0.480403
vn 0.561114 -0.823516 -0.0835026
vn 0.453336 -0.643509 0.616751
vn 0.241369 -0.479885 -0.843475
vn 0.54651 -0.829772 -0.113161
vn 0.111896 0.270962 0.956064
vn 0.52503 -0.462748 0.714288
vn 0.561114 -0.823516 -0.0835026
vn 0.664335 0.0908432 -0.741894
vn 0.978955 0.182416 -0.091497
vn 0.52503 -0.462748 0.714288
vn 0.951896 0.302195 0.0507261
vn 0.91231 0.397247 0.0994259
vn 0.109097 0.345243 0.932151
vn 0.571875 -0.260086 0.77802
vn 0.520474 -0.22412 0.82394
vn 0.900511 -0.433426 -0.0349552
vn -0.0267239 -0.244301 0.969331
vn -0.974698 -0.0961242 -0.201801
vn -0.140588 0.208928 -0.967773
vn -0.626497 -0.161777 0.76245
vn -0.785118 -0.245044 0.568809
vn 0.180378 -0.342381 0.922084
vn 0.60181 -0.11089 0.790903
vn -0.679702 -0.096922 -0.727057
vn -0.287983 0.0628339 -0.955572
vn 0.362255 0.219747 -0.905805
vn -0.903092 -0.303835 -0.303494
vn 0.230366 -0.258207 0.938222
vn 0.812183 0.0836096 0.577381
vn 0.916314 0.30379 -0.260921
vn 0.960446 -0.128706 0.246938
vn 0.618648 0.240311 -0.748014
g grp1
usemtl mtl1
f 9//9 1//1 2//2 
f 167//167 4//4 163//163 
f 4//4 167//167 13//13 
f 1//1 6//6 2//2 
f 2//2 6//6 3//3 
f 2//2 3//3 14//14 
f 169//169 164//164 97//97 
f 5//5 165//165 13//13 
f 1//1 94//94 6//6 
f 101//101 165//165 5//5 
f 96//96 97//97 164//164 
f 101//101 5//5 7//7 
f 16//16 5//5 13//13 
f 16//16 7//7 5//5 
f 163//163 4//4 95//95 
f 94//94 163//163 95//95 
f 3//3 6//6 211//211 
f 101//101 210//210 165//165 
f 12//12 13//13 167//167 
f 2//2 11//11 9//9 
f 12//12 167//167 25//25 
f 176//176 9//9 10//10 
f 11//11 10//10 9//9 
f 12//12 16//16 13//13 
f 14//14 15//15 11//11 
f 2//2 14//14 11//11 
f 16//16 12//12 28//28 
f 15//15 17//17 11//11 
f 28//28 12//12 25//25 
f 17//17 168//168 11//11 
f 97//97 18//18 169//169 
f 18//18 170//170 169//169 
f 18//18 21//21 170//170 
f 33//33 16//16 28//28 
f 21//21 22//22 170//170 
f 22//22 171//171 170//170 
f 22//22 32//32 171//171 
f 7//7 16//16 19//19 
f 212//212 8//8 18//18 
f 166//166 19//19 20//20 
f 18//18 8//8 172//172 
f 18//18 172//172 21//21 
f 16//16 33//33 19//19 
f 19//19 33//33 37//37 
f 19//19 180//180 20//20 
f 21//21 172//172 22//22 
f 22//22 172//172 32//32 
f 166//166 7//7 19//19 
f 30//30 23//23 38//38 
f 38//38 40//40 30//30 
f 24//24 27//27 26//26 
f 23//23 28//28 25//25 
f 176//176 10//10 173//173 
f 173//173 10//10 174//174 
f 24//24 168//168 27//27 
f 29//29 26//26 27//27 
f 29//29 31//31 26//26 
f 17//17 27//27 168//168 
f 17//17 29//29 27//27 
f 30//30 28//28 23//23 
f 30//30 183//183 53//53 
f 32//32 177//177 171//171 
f 32//32 36//36 177//177 
f 33//33 28//28 30//30 
f 54//54 36//36 35//35 
f 54//54 178//178 36//36 
f 177//177 36//36 178//178 
f 172//172 34//34 32//32 
f 35//35 36//36 179//179 
f 32//32 34//34 36//36 
f 33//33 53//53 35//35 
f 30//30 53//53 33//33 
f 54//54 35//35 53//53 
f 20//20 180//180 179//179 
f 37//37 33//33 35//35 
f 180//180 35//35 179//179 
f 45//45 181//181 43//43 
f 173//173 43//43 181//181 
f 181//181 45//45 39//39 
f 45//45 48//48 39//39 
f 182//182 40//40 38//38 
f 41//41 182//182 106//106 
f 106//106 39//39 48//48 
f 53//53 183//183 41//41 
f 53//53 41//41 42//42 
f 182//182 41//41 40//40 
f 24//24 26//26 44//44 
f 185//185 175//175 44//44 
f 185//185 44//44 186//186 
f 26//26 46//46 44//44 
f 44//44 47//47 186//186 
f 44//44 46//46 47//47 
f 45//45 187//187 48//48 
f 48//48 187//187 56//56 
f 195//195 47//47 46//46 
f 173//173 174//174 43//43 
f 49//49 46//46 26//26 
f 49//49 50//50 46//46 
f 195//195 46//46 50//50 
f 31//31 49//49 26//26 
f 31//31 51//51 49//49 
f 51//51 52//52 49//49 
f 63//63 50//50 52//52 
f 50//50 49//49 52//52 
f 57//57 195//195 50//50 
f 50//50 63//63 57//57 
f 53//53 184//184 54//54 
f 55//55 188//188 192//192 
f 188//188 55//55 190//190 
f 178//178 54//54 189//189 
f 54//54 184//184 193//193 
f 194//194 62//62 191//191 
f 48//48 56//56 59//59 
f 59//59 56//56 58//58 
f 58//58 195//195 57//57 
f 196//196 106//106 48//48 
f 63//63 64//64 57//57 
f 62//62 199//199 191//191 
f 60//60 57//57 64//64 
f 57//57 60//60 58//58 
f 58//58 61//61 59//59 
f 58//58 60//60 61//61 
f 67//67 61//61 60//60 
f 184//184 198//198 193//193 
f 106//106 196//196 197//197 
f 41//41 106//106 108//108 
f 107//107 64//64 63//63 
f 60//60 65//65 67//67 
f 60//60 64//64 65//65 
f 64//64 66//66 65//65 
f 106//106 197//197 112//112 
f 112//112 197//197 67//67 
f 107//107 66//66 64//64 
f 107//107 117//117 66//66 
f 117//117 65//65 66//66 
f 112//112 67//67 116//116 
f 124//124 116//116 67//67 
f 65//65 124//124 67//67 
f 65//65 117//117 124//124 
f 139//139 69//69 145//145 
f 200//200 68//68 71//71 
f 68//68 72//72 201//201 
f 68//68 141//141 72//72 
f 200//200 140//140 68//68 
f 140//140 141//141 68//68 
f 70//70 200//200 71//71 
f 145//145 69//69 70//70 
f 83//83 145//145 70//70 
f 72//72 74//74 201//201 
f 71//71 203//203 73//73 
f 71//71 73//73 70//70 
f 146//146 75//75 202//202 
f 75//75 240//240 148//148 
f 203//203 77//77 76//76 
f 74//74 72//72 204//204 
f 76//76 77//77 78//78 
f 79//79 70//70 73//73 
f 73//73 76//76 79//79 
f 203//203 76//76 73//73 
f 202//202 75//75 86//86 
f 76//76 80//80 79//79 
f 204//204 72//72 208//208 
f 204//204 208//208 87//87 
f 80//80 76//76 81//81 
f 76//76 205//205 81//81 
f 81//81 205//205 90//90 
f 206//206 204//204 82//82 
f 205//205 207//207 90//90 
f 204//204 87//87 82//82 
f 83//83 70//70 79//79 
f 75//75 160//160 86//86 
f 79//79 84//84 83//83 
f 79//79 80//80 84//84 
f 84//84 80//80 85//85 
f 85//85 80//80 81//81 
f 85//85 81//81 91//91 
f 91//91 81//81 90//90 
f 93//93 90//90 207//207 
f 207//207 89//89 93//93 
f 207//207 87//87 89//89 
f 152//152 145//145 83//83 
f 160//160 75//75 148//148 
f 153//153 152//152 84//84 
f 84//84 152//152 83//83 
f 84//84 85//85 153//153 
f 153//153 85//85 154//154 
f 154//154 85//85 91//91 
f 91//91 162//162 154//154 
f 93//93 161//161 162//162 
f 208//208 88//88 87//87 
f 160//160 209//209 86//86 
f 89//89 87//87 88//88 
f 161//161 88//88 160//160 
f 161//161 89//89 88//88 
f 161//161 93//93 89//89 
f 91//91 90//90 92//92 
f 90//90 93//93 92//92 
f 162//162 91//91 92//92 
f 162//162 92//92 93//93 
f 99//99 98//98 94//94 
f 99//99 94//94 95//95 
f 215//215 210//210 101//101 
f 6//6 94//94 98//98 
f 98//98 100//100 6//6 
f 6//6 100//100 211//211 
f 101//101 7//7 104//104 
f 104//104 7//7 166//166 
f 105//105 224//224 8//8 
f 212//212 105//105 8//8 
f 101//101 102//102 215//215 
f 219//219 213//213 216//216 
f 217//217 225//225 96//96 
f 225//225 97//97 96//96 
f 103//103 213//213 219//219 
f 214//214 222//222 218//218 
f 101//101 104//104 220//220 
f 221//221 224//224 223//223 
f 218//218 222//222 226//226 
f 224//224 105//105 223//223 
f 42//42 41//41 108//108 
f 198//198 184//184 228//228 
f 109//109 199//199 62//62 
f 228//228 109//109 198//198 
f 227//227 199//199 109//109 
f 108//108 106//106 110//110 
f 110//110 106//106 113//113 
f 110//110 111//111 108//108 
f 228//228 111//111 109//109 
f 113//113 106//106 112//112 
f 109//109 120//120 227//227 
f 229//229 117//117 107//107 
f 113//113 112//112 118//118 
f 119//119 110//110 113//113 
f 110//110 119//119 111//111 
f 121//121 119//119 113//113 
f 118//118 121//121 113//113 
f 109//109 111//111 115//115 
f 109//109 115//115 114//114 
f 120//120 109//109 114//114 
f 111//111 119//119 115//115 
f 114//114 115//115 123//123 
f 114//114 123//123 120//120 
f 112//112 116//116 118//118 
f 116//116 124//124 122//122 
f 116//116 122//122 118//118 
f 121//121 118//118 122//122 
f 124//124 127//127 122//122 
f 122//122 128//128 121//121 
f 115//115 119//119 123//123 
f 128//128 119//119 121//121 
f 119//119 128//128 130//130 
f 123//123 119//119 130//130 
f 229//229 134//134 117//117 
f 117//117 132//132 124//124 
f 124//124 132//132 125//125 
f 124//124 125//125 127//127 
f 132//132 133//133 125//125 
f 126//126 127//127 125//125 
f 125//125 133//133 230//230 
f 236//236 127//127 126//126 
f 126//126 140//140 236//236 
f 133//133 239//239 230//230 
f 128//128 122//122 129//129 
f 129//129 122//122 231//231 
f 129//129 231//231 237//237 
f 129//129 238//238 144//144 
f 131//131 130//130 128//128 
f 129//129 131//131 128//128 
f 131//131 129//129 144//144 
f 117//117 134//134 232//232 
f 134//134 233//233 232//232 
f 134//134 141//141 233//233 
f 134//134 135//135 141//141 
f 135//135 202//202 141//141 
f 123//123 136//136 120//120 
f 234//234 134//134 229//229 
f 234//234 137//137 134//134 
f 137//137 135//135 134//134 
f 235//235 143//143 135//135 
f 123//123 130//130 136//136 
f 130//130 138//138 136//136 
f 136//136 138//138 235//235 
f 235//235 138//138 143//143 
f 130//130 131//131 138//138 
f 140//140 200//200 236//236 
f 233//233 141//141 140//140 
f 202//202 135//135 146//146 
f 149//149 241//241 143//143 
f 135//135 143//143 146//146 
f 144//144 151//151 242//242 
f 131//131 144//144 142//142 
f 144//144 242//242 142//142 
f 142//142 149//149 143//143 
f 142//142 138//138 131//131 
f 138//138 142//142 143//143 
f 238//238 145//145 144//144 
f 144//144 145//145 244//244 
f 145//145 147//147 244//244 
f 152//152 147//147 145//145 
f 147//147 152//152 150//150 
f 151//151 147//147 242//242 
f 242//242 147//147 150//150 
f 149//149 243//243 148//148 
f 241//241 149//149 148//148 
f 152//152 158//158 150//150 
f 161//161 157//157 159//159 
f 158//158 153//153 154//154 
f 154//154 162//162 159//159 
f 158//158 154//154 159//159 
f 161//161 159//159 162//162 
f 148//148 243//243 155//155 
f 160//160 148//148 155//155 
f 153//153 158//158 152//152 
f 155//155 243//243 156//156 
f 158//158 156//156 150//150 
f 155//155 156//156 157//157 
f 160//160 155//155 157//157 
f 157//157 156//156 159//159 
f 156//156 158//158 159//159 
f 160//160 157//157 161//161 
