#
# The license for this database is specified in the Creative Commons Attribution-Share Alike 2.1 Japan. If you use data from this database, please be sure attribute this database as follows: "BodyParts3D, (c)  The Database Center for Life Science licensed under CC Attribution-Share Alike 2.1 Japan".
# http://dbarchive.biosciencedbc.jp/en/bodyparts3d/lic.html
#
#
# Compatibility version : 4.0
# File ID : FJ3446
# Representation ID : BP10646
# Build-up logic : FMA 3.0 part_of
# Concept ID : FMA14805
# English name : Inferior pancreaticoduodenal artery
# Bounds(mm): (-16.132400,-144.166000,1024.590000)-(-0.822000,-134.257000,1029.260000)
# Volume(cm3): 0.075300
#
v -15.5835 -139.562 1024.71
v -15.3132 -139.885 1024.66
v -15.2961 -139.55 1026.38
v -15.1908 -139.99 1026.94
v -16.1016 -140.577 1025.4
v -16.1324 -140.933 1025.29
v -15.9909 -140.461 1024.69
v -15.7917 -140.867 1024.77
v -15.883 -141.295 1025.21
v -15.8351 -141.403 1025.52
v -16.0302 -140.819 1025.95
v -15.906 -141.171 1025.89
v -15.6298 -140.405 1024.59
v -15.7461 -140.371 1026.42
v -15.431 -141.43 1026.35
v -15.5671 -140.833 1026.64
v -15.2321 -140.633 1026.96
v -14.8324 -139.379 1026.48
v -14.8689 -139.529 1026.79
v -14.2753 -139.778 1025.83
v -14.5323 -139.452 1026.19
v -14.5311 -139.475 1026.52
v -14.548 -139.632 1026.78
v -14.6 -139.956 1027.01
v -14.2303 -139.715 1026.5
v -14.9672 -142.137 1025.1
v -15.0316 -142.211 1025.4
v -14.6462 -141.777 1024.75
v -13.5761 -140.734 1026.92
v -13.4093 -141.219 1025.46
v -13.4612 -140.65 1026.3
v -14.1894 -142.852 1026.19
v -13.8351 -143.1 1025.63
v -13.2668 -143.098 1025.34
v -13.0672 -142.318 1025.13
v -14.1141 -141.13 1027.28
v -13.7723 -142.311 1027.26
v -13.2413 -143.234 1027.03
v -12.3175 -141.553 1026.2
v -11.152 -141.905 1026.27
v -10.5523 -141.757 1026.72
v -11.8111 -142.838 1025.5
v -11.7758 -144.009 1026.2
v -10.5359 -143.037 1025.71
v -10.7749 -143.579 1025.85
v -12.702 -141.497 1027.13
v -12.3745 -142.491 1027.65
v -11.5359 -141.865 1027.17
v -11.6803 -142.652 1027.79
v -10.7361 -142.815 1028.04
v -12.6624 -143.769 1026.76
v -12.1128 -143.806 1027.39
v -12.157 -143.528 1027.61
v -11.8433 -143.25 1027.83
v -11.4982 -144.166 1027.11
v -11.5046 -143.889 1027.61
v -10.8324 -143.451 1027.99
v -8.6556 -140.83 1027.51
v -10.288 -142.039 1026.07
v -9.8896 -141.634 1026.51
v -9.6445 -141.416 1027.22
v -9.02521 -141.623 1026.06
v -8.84145 -140.938 1026.84
v -10.4446 -144.03 1026.41
v -8.60096 -143.151 1026.2
v -10.3941 -141.921 1027.6
v -8.78196 -141.324 1027.96
v -8.34007 -142.617 1028.04
v -10.2789 -143.949 1027.54
v -5.48577 -138.778 1026.24
v -6.15085 -138.723 1028.11
v -5.96663 -138.617 1026.97
v -8.10895 -143.24 1026.91
v -6.67976 -142.198 1027.3
v -6.14411 -141.821 1026.33
v -5.88766 -140.849 1025.74
v -6.24653 -139.447 1028.54
v -6.19216 -140.371 1028.48
v -2.71724 -135.935 1026.74
v -2.64342 -136.566 1026.56
v -4.85493 -139.261 1025.78
v -4.0483 -138.936 1025.88
v -3.82827 -136.092 1028.22
v -3.16084 -136.622 1029.17
v -2.3174 -134.581 1027.93
v -2.63399 -134.86 1028.42
v -4.5935 -138.076 1028.96
v -3.92616 -136.418 1027.22
v -4.14826 -137.112 1028.96
v -3.43841 -137.427 1029.02
v -2.8965 -138.148 1027.69
v -4.86116 -139.95 1028.16
v -4.63353 -140.338 1026.03
v -4.73471 -140.714 1026.53
v -3.90134 -139.754 1026.54
v -4.04336 -139.849 1027.18
v -2.37016 -135.073 1027.15
v -1.9259 -134.938 1027.07
v -1.97784 -135.484 1026.82
v -1.90796 -134.642 1027.34
v -1.59935 -134.686 1027.28
v -1.63047 -135.196 1026.97
v -1.72299 -135.812 1026.85
v -1.60856 -134.358 1027.77
v -1.32002 -134.974 1027.21
v -1.35027 -135.292 1027.1
v -1.29697 -134.516 1027.64
v -1.30029 -136.009 1027.36
v -1.04637 -134.826 1027.63
v -0.978216 -135.166 1027.6
v -2.47303 -137.04 1026.69
v -2.0215 -134.419 1028.61
v -1.65735 -134.257 1028.41
v -1.74512 -134.502 1028.94
v -1.39263 -134.376 1028.74
v -2.4203 -134.858 1028.79
v -1.92203 -135.03 1029.2
v -1.50369 -134.931 1029.19
v -1.61488 -135.318 1029.26
v -1.78302 -136.01 1029.1
v -0.949476 -134.658 1028.06
v -0.856108 -134.961 1027.99
v -1.09511 -134.45 1028.4
v -0.881658 -134.766 1028.37
v -0.935804 -135.665 1028.41
v -1.22264 -136.135 1028.27
v -1.06168 -134.882 1028.9
v -0.97198 -135.202 1028.81
v -1.19332 -135.872 1028.67
v -1.23122 -135.267 1029.1
v -0.821965 -135.077 1028.3
v -0.899715 -135.607 1028.09
v -15.5835 -139.562 1024.71
v -15.5835 -139.562 1024.71
v -15.3132 -139.885 1024.66
v -15.1908 -139.99 1026.94
v -15.9909 -140.461 1024.69
v -15.9909 -140.461 1024.69
v -14.8689 -139.529 1026.79
v -13.0672 -142.318 1025.13
v -12.3175 -141.553 1026.2
v -11.8111 -142.838 1025.5
v -10.5359 -143.037 1025.71
v -12.702 -141.497 1027.13
v -11.5359 -141.865 1027.17
v -9.02521 -141.623 1026.06
v -10.3941 -141.921 1027.6
v -8.78196 -141.324 1027.96
v -8.78196 -141.324 1027.96
v -8.10895 -143.24 1026.91
v -4.0483 -138.936 1025.88
v -1.65735 -134.257 1028.41
v -1.39263 -134.376 1028.74
v -1.39263 -134.376 1028.74
vn -0.152918 0.150987 -0.976637
vn 0.144414 0.0701146 -0.98703
vn -0.665443 0.673671 0.321487
vn -0.699727 0.376623 0.607073
vn -0.941491 0.324148 0.0923162
vn -0.939288 -0.321624 -0.119563
vn -0.264105 -0.0667005 -0.962185
vn -0.498606 -0.416527 -0.760196
vn -0.729113 -0.590951 -0.345213
vn -0.772349 -0.630349 0.0783444
vn -0.931953 -0.0880218 0.351733
vn -0.797606 -0.496119 0.343061
vn -0.118045 -0.0502437 -0.991736
vn -0.832169 0.225372 0.506657
vn -0.663255 -0.533974 0.524371
vn -0.721166 -0.268956 0.638421
vn -0.524249 -0.054238 0.849836
vn 0.0204888 0.972074 0.233777
vn -0.487327 0.731836 0.47637
vn 0.670534 0.648345 -0.360601
vn 0.460442 0.880611 -0.111879
vn 0.441824 0.851075 0.283659
vn 0.392936 0.688847 0.609172
vn 0.146214 0.39883 0.905293
vn 0.703533 0.689093 0.173759
vn -0.461029 -0.650336 -0.603751
vn -0.650355 -0.74957 -0.123225
vn -0.0439985 -0.271317 -0.961484
vn 0.516191 0.609627 0.601582
vn 0.593743 0.533211 -0.602623
vn 0.723701 0.683776 -0.0933115
vn -0.640782 -0.733317 0.227257
vn -0.443547 -0.854014 -0.271894
vn -0.0471217 -0.551447 -0.832878
vn 0.178987 -0.184133 -0.966467
vn -0.0832032 0.153447 0.984648
vn -0.482807 -0.328506 0.811777
vn -0.568334 -0.630926 0.528136
vn 0.462822 0.874395 0.145704
vn 0.0712911 0.89699 -0.436265
vn -0.197883 0.971258 -0.132291
vn 0.274205 0.5036 -0.819267
vn -0.136546 -0.903714 -0.405779
vn 0.0380961 0.332282 -0.94241
vn 0.142551 -0.51251 -0.846766
vn 0.465419 0.873982 0.139788
vn 0.0259886 0.355761 0.934215
vn 0.10297 0.993093 0.0562508
vn -0.125032 0.409406 0.903744
vn -0.158908 0.177459 0.971214
vn -0.455664 -0.880026 0.133879
vn -0.41384 -0.754702 0.509079
vn -0.400645 -0.483051 0.778553
vn -0.23404 -0.113912 0.965531
vn -0.144184 -0.972328 0.183819
vn -0.187501 -0.665792 0.722194
vn -0.0433343 -0.375244 0.925912
vn -0.604402 0.744251 0.284234
vn -0.0921434 0.697409 -0.710726
vn -0.342676 0.859088 -0.380185
vn -0.466307 0.871794 0.150111
vn -0.27139 0.477264 -0.835803
vn -0.551338 0.811824 -0.192273
vn 0.210731 -0.923753 -0.319802
vn 0.281491 -0.525805 -0.802678
vn -0.296907 0.917305 0.265325
vn -0.529982 0.658851 0.533885
vn 0.177549 -0.40698 0.896015
vn 0.185589 -0.86147 0.472679
vn -0.451815 0.558747 -0.69546
vn -0.67533 0.651297 0.346038
vn -0.642782 0.705006 -0.299663
vn 0.443001 -0.876385 -0.188946
vn 0.574076 -0.750403 0.327614
vn 0.531598 -0.745449 -0.40213
vn 0.172855 -0.246846 -0.953514
vn -0.364026 0.16974 0.915791
vn 0.101485 -0.289258 0.951856
vn -0.178459 0.394473 -0.901412
vn 0.218144 0.101008 -0.970675
vn -0.116429 0.241913 -0.963287
vn 0.113491 0.068146 -0.991199
vn -0.734089 0.664711 0.138825
vn -0.0527946 -0.0484689 0.997428
vn -0.547502 0.813832 -0.194728
vn -0.669694 0.717422 0.191875
vn -0.136452 -0.0515975 0.989302
vn -0.647952 0.666063 -0.369483
vn -0.510678 0.378845 0.771806
vn 0.213058 -0.338558 0.916507
vn 0.792872 -0.607625 0.0463257
vn 0.534942 -0.591948 0.602856
vn 0.57556 -0.518219 -0.632598
vn 0.690746 -0.719395 -0.0730806
vn 0.807223 -0.529165 -0.261487
vn 0.708264 -0.650157 0.275059
vn -0.461849 0.632159 -0.62215
vn -0.11095 0.54206 -0.832983
vn 0.0696189 0.271715 -0.959856
vn -0.25713 0.78311 -0.566236
vn 0.1816 0.67437 -0.715714
vn 0.294923 0.322663 -0.899394
vn 0.475067 -0.0512089 -0.878458
vn 0.0369951 0.940474 -0.337846
vn 0.59224 0.380951 -0.71002
vn 0.671631 0.0311916 -0.740229
vn 0.513106 0.730281 -0.451013
vn 0.808479 -0.396216 -0.435172
vn 0.796186 0.382319 -0.468957
vn 0.880132 0.0142366 -0.474515
vn 0.697043 -0.337098 -0.632848
vn -0.480178 0.830163 0.283299
vn -0.268886 0.950839 0.153643
vn -0.188805 0.718985 0.668889
vn 0.324244 0.942491 0.0810905
vn -0.577199 0.591594 0.562902
vn -0.253083 0.323105 0.911895
vn 0.252291 0.349863 0.902189
vn 0.166582 -0.0566379 0.9844
vn 0.385222 -0.39416 0.834411
vn 0.818731 0.532529 -0.214691
vn 0.965198 0.150414 -0.213938
vn 0.598336 0.798881 0.0615163
vn 0.935581 0.316438 0.156699
vn 0.902028 -0.364227 0.231698
vn 0.784605 -0.60841 0.119304
vn 0.7189 0.345927 0.602924
vn 0.884122 -0.0998847 0.456455
vn 0.698936 -0.500269 0.511096
vn 0.589561 -0.148253 0.794002
vn 0.995482 -0.0197396 0.0928723
vn 0.946849 -0.288928 -0.141415
vn 0.223856 0.928555 -0.296097
vn -0.880786 0.47232 0.0336158
vn 0.594946 0.49998 -0.629332
vn -0.168285 0.207482 0.963655
vn -0.956483 0.272412 -0.104559
vn -0.721022 -0.452047 -0.525148
vn 0.11975 0.628822 0.768273
vn 0.491522 0.388391 -0.77946
vn 0.450095 0.619761 -0.642893
vn 0.137006 -0.279863 -0.950214
vn 0.191564 -0.215443 -0.957543
vn 0.112735 0.524321 0.844025
vn -0.045512 0.625247 0.779099
vn -0.125913 0.36569 -0.92218
vn -0.255268 0.547189 0.797134
vn -0.363582 0.519429 0.773306
vn -0.110236 0.0261093 0.993562
vn 0.406551 -0.762747 0.502925
vn 0.661496 -0.259539 -0.703607
vn 0.323916 0.945835 -0.0217827
vn -0.0961337 0.908882 0.405823
vn 0.452744 0.581102 0.676272
g grp1
usemtl mtl1
f 1//1 13//13 7//7 
f 1//1 2//2 13//13 
f 3//3 18//18 133//133 
f 14//14 4//4 3//3 
f 21//21 133//133 18//18 
f 19//19 18//18 3//3 
f 19//19 3//3 4//4 
f 24//24 139//139 136//136 
f 24//24 136//136 36//36 
f 5//5 137//137 6//6 
f 138//138 8//8 6//6 
f 134//134 137//137 5//5 
f 8//8 7//7 13//13 
f 9//9 6//6 8//8 
f 6//6 11//11 5//5 
f 12//12 11//11 6//6 
f 6//6 10//10 12//12 
f 6//6 9//9 10//10 
f 11//11 14//14 5//5 
f 13//13 28//28 8//8 
f 5//5 3//3 134//134 
f 9//9 27//27 10//10 
f 10//10 32//32 12//12 
f 3//3 5//5 14//14 
f 11//11 16//16 14//14 
f 12//12 16//16 11//11 
f 16//16 12//12 15//15 
f 12//12 32//32 15//15 
f 17//17 14//14 16//16 
f 2//2 28//28 13//13 
f 8//8 26//26 9//9 
f 10//10 27//27 32//32 
f 14//14 17//17 4//4 
f 16//16 37//37 17//17 
f 37//37 16//16 15//15 
f 8//8 28//28 26//26 
f 27//27 9//9 26//26 
f 27//27 33//33 32//32 
f 36//36 136//136 17//17 
f 22//22 21//21 18//18 
f 22//22 18//18 23//23 
f 23//23 18//18 139//139 
f 24//24 23//23 139//139 
f 135//135 133//133 20//20 
f 135//135 20//20 30//30 
f 133//133 21//21 20//20 
f 25//25 20//20 21//21 
f 22//22 25//25 21//21 
f 23//23 25//25 22//22 
f 24//24 29//29 23//23 
f 29//29 24//24 36//36 
f 25//25 31//31 20//20 
f 29//29 25//25 23//23 
f 27//27 26//26 33//33 
f 35//35 28//28 2//2 
f 30//30 140//140 135//135 
f 20//20 31//31 30//30 
f 25//25 29//29 31//31 
f 39//39 31//31 29//29 
f 46//46 39//39 29//29 
f 141//141 30//30 31//31 
f 26//26 28//28 34//34 
f 34//34 33//33 26//26 
f 28//28 35//35 34//34 
f 36//36 17//17 37//37 
f 36//36 37//37 54//54 
f 29//29 47//47 144//144 
f 47//47 29//29 36//36 
f 47//47 36//36 54//54 
f 38//38 37//37 15//15 
f 38//38 32//32 51//51 
f 38//38 15//15 32//32 
f 51//51 32//32 33//33 
f 42//42 140//140 30//30 
f 141//141 42//42 30//30 
f 48//48 39//39 46//46 
f 141//141 40//40 42//42 
f 40//40 39//39 48//48 
f 40//40 48//48 41//41 
f 41//41 48//48 66//66 
f 59//59 42//42 40//40 
f 41//41 60//60 59//59 
f 41//41 59//59 40//40 
f 142//142 34//34 35//35 
f 45//45 43//43 34//34 
f 142//142 45//45 34//34 
f 43//43 33//33 34//34 
f 59//59 44//44 42//42 
f 45//45 142//142 143//143 
f 43//43 45//45 64//64 
f 143//143 65//65 45//45 
f 45//45 65//65 64//64 
f 54//54 37//37 53//53 
f 145//145 144//144 49//49 
f 49//49 144//144 47//47 
f 49//49 47//47 54//54 
f 145//145 49//49 147//147 
f 50//50 49//49 54//54 
f 50//50 54//54 57//57 
f 38//38 52//52 53//53 
f 52//52 38//38 51//51 
f 53//53 37//37 38//38 
f 43//43 51//51 33//33 
f 64//64 55//55 43//43 
f 55//55 51//51 43//43 
f 52//52 51//51 55//55 
f 52//52 56//56 53//53 
f 52//52 55//55 56//56 
f 57//57 54//54 56//56 
f 54//54 53//53 56//56 
f 69//69 56//56 55//55 
f 64//64 69//69 55//55 
f 61//61 58//58 63//63 
f 58//58 71//71 63//63 
f 71//71 58//58 67//67 
f 62//62 59//59 60//60 
f 41//41 66//66 61//61 
f 60//60 41//41 61//61 
f 146//146 44//44 59//59 
f 60//60 61//61 63//63 
f 67//67 61//61 66//66 
f 62//62 60//60 63//63 
f 143//143 62//62 65//65 
f 61//61 67//67 58//58 
f 62//62 63//63 72//72 
f 73//73 64//64 65//65 
f 49//49 50//50 147//147 
f 148//148 147//147 50//50 
f 68//68 149//149 50//50 
f 68//68 50//50 57//57 
f 57//57 69//69 68//68 
f 92//92 68//68 74//74 
f 69//69 64//64 73//73 
f 57//57 56//56 69//69 
f 150//150 68//68 69//69 
f 150//150 74//74 68//68 
f 70//70 81//81 62//62 
f 79//79 81//81 70//70 
f 67//67 77//77 71//71 
f 89//89 71//71 77//77 
f 88//88 70//70 72//72 
f 72//72 63//63 71//71 
f 62//62 72//72 70//70 
f 76//76 65//65 62//62 
f 76//76 75//75 65//65 
f 76//76 93//93 75//75 
f 75//75 93//93 94//94 
f 75//75 73//73 65//65 
f 94//94 74//74 75//75 
f 75//75 74//74 73//73 
f 77//77 149//149 68//68 
f 68//68 78//78 77//77 
f 78//78 68//68 92//92 
f 87//87 77//77 78//78 
f 97//97 88//88 85//85 
f 97//97 79//79 70//70 
f 88//88 97//97 70//70 
f 82//82 79//79 80//80 
f 111//111 95//95 151//151 
f 111//111 151//151 80//80 
f 111//111 91//91 95//95 
f 81//81 76//76 62//62 
f 82//82 81//81 79//79 
f 82//82 93//93 76//76 
f 82//82 76//76 81//81 
f 93//93 151//151 95//95 
f 83//83 85//85 88//88 
f 83//83 71//71 89//89 
f 116//116 83//83 89//89 
f 83//83 86//86 85//85 
f 116//116 86//86 83//83 
f 89//89 87//87 84//84 
f 117//117 116//116 89//89 
f 112//112 113//113 85//85 
f 85//85 86//86 112//112 
f 116//116 112//112 86//86 
f 84//84 90//90 120//120 
f 72//72 71//71 83//83 
f 89//89 77//77 87//87 
f 72//72 83//83 88//88 
f 87//87 78//78 90//90 
f 84//84 87//87 90//90 
f 92//92 120//120 90//90 
f 78//78 92//92 90//90 
f 96//96 94//94 95//95 
f 96//96 74//74 94//94 
f 92//92 96//96 91//91 
f 92//92 74//74 96//96 
f 93//93 95//95 94//94 
f 91//91 96//96 95//95 
f 97//97 100//100 98//98 
f 97//97 98//98 79//79 
f 98//98 99//99 79//79 
f 99//99 80//80 79//79 
f 100//100 85//85 104//104 
f 100//100 97//97 85//85 
f 104//104 85//85 113//113 
f 98//98 100//100 101//101 
f 101//101 102//102 98//98 
f 98//98 102//102 99//99 
f 102//102 103//103 99//99 
f 99//99 103//103 80//80 
f 103//103 111//111 80//80 
f 101//101 100//100 104//104 
f 104//104 152//152 123//123 
f 101//101 105//105 102//102 
f 105//105 106//106 102//102 
f 108//108 103//103 106//106 
f 106//106 103//103 102//102 
f 103//103 108//108 111//111 
f 107//107 101//101 104//104 
f 105//105 101//101 107//107 
f 107//107 104//104 123//123 
f 107//107 121//121 109//109 
f 107//107 109//109 105//105 
f 123//123 121//121 107//107 
f 91//91 108//108 126//126 
f 91//91 111//111 108//108 
f 110//110 105//105 109//109 
f 106//106 105//105 110//110 
f 108//108 106//106 110//110 
f 109//109 121//121 122//122 
f 109//109 122//122 110//110 
f 110//110 122//122 132//132 
f 110//110 132//132 108//108 
f 126//126 108//108 132//132 
f 114//114 113//113 112//112 
f 115//115 123//123 152//152 
f 153//153 113//113 114//114 
f 154//154 114//114 118//118 
f 123//123 154//154 127//127 
f 118//118 127//127 154//154 
f 112//112 116//116 114//114 
f 114//114 116//116 117//117 
f 84//84 117//117 89//89 
f 117//117 84//84 119//119 
f 120//120 119//119 84//84 
f 118//118 114//114 117//117 
f 118//118 117//117 119//119 
f 130//130 118//118 119//119 
f 130//130 119//119 120//120 
f 129//129 120//120 92//92 
f 121//121 123//123 124//124 
f 122//122 121//121 124//124 
f 123//123 127//127 124//124 
f 125//125 126//126 132//132 
f 124//124 128//128 131//131 
f 124//124 127//127 128//128 
f 128//128 129//129 125//125 
f 125//125 129//129 126//126 
f 92//92 91//91 126//126 
f 92//92 126//126 129//129 
f 118//118 130//130 127//127 
f 127//127 130//130 128//128 
f 128//128 130//130 129//129 
f 120//120 129//129 130//130 
f 122//122 124//124 131//131 
f 132//132 122//122 131//131 
f 132//132 131//131 125//125 
f 128//128 125//125 131//131 
