#
# The license for this database is specified in the Creative Commons Attribution-Share Alike 2.1 Japan. If you use data from this database, please be sure attribute this database as follows: "BodyParts3D, (c)  The Database Center for Life Science licensed under CC Attribution-Share Alike 2.1 Japan".
# http://dbarchive.biosciencedbc.jp/en/bodyparts3d/lic.html
#
#
# Compatibility version : 4.0
# File ID : FJ3007
# Representation ID : BP9607
# Build-up logic : FMA 3.0 part_of
# Concept ID : FMA68728
# English name : Lateral branch of right lateral basal segmental artery
# Bounds(mm): (-92.043500,-60.661600,1178.680100)-(-79.962900,-51.998100,1185.880000)
# Volume(cm3): 0.066200
#
v -90.9021 -60.3967 1179.08
v -90.8584 -60.276 1178.93
v -90.602 -60.2892 1179.18
v -90.9792 -59.9693 1178.74
v -90.974 -60.4412 1179.2
v -90.8487 -60.5786 1179.33
v -90.897 -60.6564 1179.54
v -91.0619 -59.7995 1178.68
v -91.2309 -59.5171 1178.73
v -91.4052 -59.4398 1178.94
v -91.4432 -59.2789 1178.83
v -90.3219 -59.0094 1179.05
v -91.2317 -59.2172 1178.82
v -91.0699 -59.9113 1178.78
v -91.0068 -60.6616 1179.55
v -91.1909 -60.5759 1179.86
v -90.8707 -60.5925 1179.96
v -91.2302 -60.6163 1180.16
v -91.7324 -59.0691 1179.19
v -91.9037 -58.968 1179.45
v -91.747 -58.9729 1179.23
v -91.8315 -58.9368 1179.31
v -91.317 -58.9544 1179.03
v -91.5532 -58.829 1179.3
v -91.5481 -58.7299 1179.59
v -91.767 -59.9417 1180.37
v -91.2884 -59.8948 1180.71
v -91.4798 -59.6307 1180.69
v -91.4759 -60.4236 1180.39
v -91.9777 -59.1402 1179.81
v -91.9973 -59.367 1180.13
v -91.9928 -58.9844 1179.71
v -92.0131 -59.0871 1179.89
v -92.0435 -59.1209 1180
v -91.8627 -58.9618 1179.98
v -91.7607 -59.0655 1180.29
v -91.9219 -59.3518 1180.34
v -91.3321 -59.1576 1180.73
v -89.6996 -59.9375 1180.71
v -87.9304 -58.484 1180.05
v -88.3049 -59.1819 1180.27
v -88.1069 -59.2159 1180.72
v -88.6141 -59.4895 1180.81
v -88.264 -57.2791 1180.17
v -89.6236 -57.5584 1181.07
v -89.5984 -57.8486 1181.5
v -87.4616 -57.9584 1180.17
v -88.0382 -59.1353 1181.32
v -88.2216 -59.0717 1181.59
v -88.277 -58.8655 1181.86
v -88.6601 -57.1007 1180.47
v -86.8508 -58.2031 1180.7
v -86.4022 -58.1842 1181.19
v -86.401 -58.2657 1181.41
v -87.0369 -58.6556 1181.4
v -86.7989 -58.3568 1182.14
v -88.0021 -56.4877 1181.16
v -86.2518 -58.1762 1182.05
v -87.1998 -58.0174 1182.6
v -86.6185 -57.9542 1182.66
v -87.0701 -57.5772 1182.89
v -86.8191 -57.1108 1183.12
v -84.9736 -57.4729 1182.31
v -86.4873 -56.427 1183.34
v -83.525 -56.4545 1182.37
v -84.3719 -54.2655 1182.35
v -84.355 -56.1761 1184.13
v -83.4868 -55.2657 1181.84
v -83.4158 -56.4686 1183.54
v -83.0881 -56.3475 1183.41
v -84.039 -56.2855 1184.06
v -83.7767 -56.4552 1183.81
v -84.3142 -55.5203 1184.41
v -84.0094 -55.7054 1184.43
v -84.6801 -54.8861 1184.19
v -82.7818 -55.3258 1182.2
v -82.4111 -55.3339 1182.45
v -82.2814 -55.7995 1183.98
v -82.0188 -55.6977 1183.81
v -82.3695 -55.683 1184.31
v -82.6635 -55.5692 1184.57
v -82.1704 -55.75 1183.23
v -81.7008 -55.2684 1183.08
v -82.025 -55.7098 1183.55
v -83.6391 -53.4287 1183.81
v -83.9324 -53.8656 1184.23
v -80.2562 -54.1388 1183.52
v -80.0719 -53.6442 1183.4
v -80.3578 -53.4465 1183.22
v -80.1036 -53.488 1183.42
v -80.0928 -54.2418 1183.81
v -80.1608 -54.4293 1184.05
v -79.9706 -54.0225 1183.72
v -79.9629 -54.2128 1184.08
v -79.999 -54.3525 1184.24
v -80.0239 -53.7867 1183.81
v -80.2726 -54.5715 1184.33
v -80.2572 -54.5634 1184.49
v -80.0693 -54.4322 1184.49
v -80.7956 -53.3022 1183.04
v -81.1231 -52.9804 1183.06
v -81.078 -52.639 1183.24
v -80.3159 -53.0624 1183.29
v -80.5057 -52.7687 1183.33
v -80.5938 -52.6767 1183.34
v -80.6668 -52.5851 1183.34
v -80.6125 -52.6331 1183.45
v -80.6873 -52.5146 1183.42
v -80.2761 -53.1229 1183.42
v -80.3498 -53.4528 1184.17
v -80.3677 -54.6006 1184.67
v -80.4899 -54.5878 1184.9
v -80.627 -54.508 1185.17
v -80.1487 -54.2809 1184.67
v -80.2327 -54.4603 1184.84
v -80.4556 -54.3862 1185.2
v -80.4931 -54.1843 1185.24
v -81.5052 -52.7426 1183.17
v -81.2879 -52.2516 1183.58
v -80.8239 -52.411 1183.56
v -80.9116 -52.2948 1183.49
v -81.1331 -52.1797 1183.83
v -80.7639 -52.736 1184.02
v -80.802 -53.4377 1185.04
v -80.7787 -54.4535 1185.31
v -80.8884 -54.3463 1185.46
v -81.2464 -54.2233 1185.59
v -80.5655 -54.2299 1185.38
v -80.7323 -54.22 1185.51
v -80.8519 -53.9608 1185.62
v -81.0463 -53.9353 1185.77
v -82.1104 -52.3561 1183.99
v -81.3643 -52.0387 1183.95
v -81.5735 -52.0991 1183.95
v -81.5137 -51.9981 1184.17
v -81.7157 -52.0228 1184.43
v -81.3918 -52.0352 1184.11
v -81.4519 -52.0487 1184.26
v -81.8921 -52.1214 1184.49
v -81.6819 -52.0534 1184.65
v -81.2879 -52.5152 1184.72
v -81.3677 -54.0488 1185.69
v -81.5269 -53.9052 1185.73
v -81.5599 -53.6587 1185.81
v -81.8903 -53.4223 1185.71
v -81.2538 -53.7164 1185.86
v -81.2395 -53.5306 1185.81
v -81.4265 -53.4693 1185.88
v -81.5288 -53.0521 1185.73
v -82.1056 -52.3378 1184.87
v -81.8744 -52.1353 1184.74
v -81.7476 -52.3292 1185.19
v -81.9524 -52.3732 1185.22
v -81.9774 -52.978 1185.62
v -82.0599 -52.7451 1185.44
v -81.7157 -52.7167 1185.6
v -81.7765 -52.8483 1185.71
v -90.9021 -60.3967 1179.08
v -90.8584 -60.276 1178.93
v -90.9792 -59.9693 1178.74
v -90.8487 -60.5786 1179.33
v -90.897 -60.6564 1179.54
v -91.0619 -59.7995 1178.68
v -91.2309 -59.5171 1178.73
v -91.2309 -59.5171 1178.73
v -91.4052 -59.4398 1178.94
v -91.4052 -59.4398 1178.94
v -91.4432 -59.2789 1178.83
v -91.4432 -59.2789 1178.83
v -91.2317 -59.2172 1178.82
v -91.2317 -59.2172 1178.82
v -91.0068 -60.6616 1179.55
v -91.0068 -60.6616 1179.55
v -91.1909 -60.5759 1179.86
v -91.2302 -60.6163 1180.16
v -91.2302 -60.6163 1180.16
v -91.7324 -59.0691 1179.19
v -91.9037 -58.968 1179.45
v -91.8315 -58.9368 1179.31
v -91.8315 -58.9368 1179.31
v -91.767 -59.9417 1180.37
v -91.4759 -60.4236 1180.39
v -91.9973 -59.367 1180.13
v -91.9928 -58.9844 1179.71
v -92.0131 -59.0871 1179.89
v -92.0435 -59.1209 1180
v -92.0435 -59.1209 1180
v -80.0719 -53.6442 1183.4
v -80.3578 -53.4465 1183.22
v -80.1036 -53.488 1183.42
v -79.9706 -54.0225 1183.72
v -79.9629 -54.2128 1184.08
v -79.999 -54.3525 1184.24
v -80.0693 -54.4322 1184.49
v -80.3159 -53.0624 1183.29
v -80.3159 -53.0624 1183.29
v -80.5057 -52.7687 1183.33
v -80.5057 -52.7687 1183.33
v -80.5938 -52.6767 1183.34
v -80.6668 -52.5851 1183.34
v -80.6125 -52.6331 1183.45
v -80.6873 -52.5146 1183.42
v -80.6873 -52.5146 1183.42
v -80.2761 -53.1229 1183.42
v -80.2761 -53.1229 1183.42
v -80.2327 -54.4603 1184.84
v -80.4556 -54.3862 1185.2
v -81.2879 -52.2516 1183.58
v -80.9116 -52.2948 1183.49
v -80.9116 -52.2948 1183.49
v -81.1331 -52.1797 1183.83
v -81.0463 -53.9353 1185.77
v -81.3643 -52.0387 1183.95
v -81.3643 -52.0387 1183.95
v -81.5137 -51.9981 1184.17
v -81.3918 -52.0352 1184.11
v -81.2538 -53.7164 1185.86
v -81.4265 -53.4693 1185.88
v -81.5288 -53.0521 1185.73
v -81.7476 -52.3292 1185.19
v -81.7157 -52.7167 1185.6
v -81.7765 -52.8483 1185.71
vn 0.435659 -0.721188 -0.5386
vn 0.519942 -0.528672 -0.670944
vn 0.511863 -0.657766 -0.552576
vn -0.60914 -0.546724 -0.574492
vn -0.587199 -0.65812 -0.471248
vn 0.518066 -0.763984 -0.384624
vn -0.239561 -0.844019 -0.479836
vn -0.705532 -0.455973 -0.542507
vn -0.781843 -0.381784 -0.492913
vn -0.806207 -0.448066 -0.386352
vn 0.103492 -0.539569 -0.835556
vn 0.191331 0.30279 -0.933654
vn 0.0083804 0.48596 -0.873941
vn -0.685427 -0.494109 -0.534832
vn -0.00856347 -0.845877 -0.533309
vn -0.799449 -0.511788 -0.31457
vn 0.191532 -0.96607 0.173277
vn -0.00756117 -0.991161 -0.132446
vn -0.489303 0.384539 -0.78276
vn -0.849205 -0.361211 -0.385199
vn -0.425898 0.505541 -0.750359
vn -0.60956 0.231719 -0.758118
vn -0.264898 0.633069 -0.72736
vn -0.303465 0.766439 -0.566109
vn -0.487763 0.862419 -0.135352
vn -0.811223 -0.474944 -0.341094
vn -0.394894 -0.317462 0.862135
vn -0.526501 -0.0887899 0.845525
vn -0.76497 -0.598817 -0.237149
vn -0.888085 -0.327077 -0.322996
vn -0.840873 -0.419321 -0.342204
vn -0.593457 0.799793 0.0902205
vn -0.936632 -0.210135 -0.280292
vn -0.922716 -0.24573 -0.297004
vn -0.646379 0.731054 0.218528
vn -0.635059 0.547584 0.544842
vn -0.757481 0.16188 0.632469
vn -0.579227 0.246152 0.777113
vn 0.2692 -0.882472 0.385714
vn 0.518182 -0.328636 -0.789611
vn 0.563414 -0.701492 -0.436432
vn 0.521512 -0.834059 -0.179921
vn 0.426498 -0.900194 0.0880323
vn -0.0223592 0.586531 -0.809618
vn -0.604728 0.763511 0.226615
vn -0.62584 0.497579 0.600616
vn 0.445475 -0.131682 -0.885558
vn 0.350416 -0.895666 0.273844
vn 0.195966 -0.830208 0.521873
vn 0.047503 -0.720423 0.691906
vn -0.294275 0.813954 -0.50088
vn 0.572355 -0.541432 -0.615842
vn 0.575578 -0.731522 -0.365493
vn 0.547801 -0.81511 -0.188441
vn 0.472684 -0.880757 0.028931
vn 0.276764 -0.854365 0.439844
vn -0.448869 0.854501 -0.261429
vn 0.410732 -0.887946 0.207007
vn -0.0610316 -0.594553 0.801737
vn 0.109017 -0.746869 0.655973
vn -0.213536 -0.409421 0.887005
vn -0.359339 -0.193803 0.912861
vn 0.515354 -0.856345 -0.0329184
vn -0.479638 0.0354008 0.876752
vn 0.595056 -0.668826 -0.445624
vn -0.305737 0.790884 -0.53012
vn -0.0849206 -0.530614 0.843349
vn 0.370742 0.0417699 -0.927796
vn 0.355779 -0.866307 0.350618
vn 0.465654 -0.874987 0.132527
vn 0.0465373 -0.664615 0.745735
vn 0.214951 -0.798991 0.561613
vn -0.322739 -0.224846 0.919393
vn -0.196648 -0.393648 0.897981
vn -0.595876 0.305505 0.742697
vn 0.49011 -0.202409 -0.847834
vn 0.56517 -0.416553 -0.712086
vn 0.41705 -0.862569 0.286432
vn 0.504522 -0.85812 0.0953288
vn 0.294779 -0.818962 0.492348
vn 0.142715 -0.720161 0.678971
vn 0.58392 -0.774962 -0.241807
vn 0.606551 -0.616216 -0.502369
vn 0.543098 -0.837968 -0.0534233
vn -0.620596 0.776898 0.106256
vn -0.662089 0.592051 0.459471
vn 0.606903 -0.488364 -0.627032
vn 0.586627 -0.208073 -0.782671
vn 0.500563 0.0813924 -0.861865
vn 0.629307 0.260717 -0.732119
vn 0.674461 -0.6075 -0.419578
vn 0.643243 -0.710351 -0.285726
vn 0.682271 -0.512904 -0.520995
vn 0.737251 -0.595952 -0.31828
vn 0.640273 -0.740155 -0.205477
vn 0.928711 0.332813 0.163498
vn 0.57546 -0.813602 -0.0830483
vn 0.547962 -0.833308 0.0730473
vn 0.583754 -0.808624 0.0732002
vn 0.312444 0.217378 -0.92473
vn 0.202209 0.375732 -0.904399
vn 0.0811327 0.561615 -0.823411
vn 0.952109 -0.0481469 -0.301945
vn 0.292089 0.320996 -0.900914
vn 0.308619 0.288945 -0.906237
vn 0.178282 0.51489 -0.838513
vn 0.816019 0.490606 0.305646
vn 0.141066 0.643114 -0.752665
vn 0.625874 0.300462 -0.719726
vn 0.803956 0.478768 0.352756
vn 0.505371 -0.835028 0.21755
vn 0.43117 -0.813328 0.390628
vn 0.358291 -0.765529 0.534409
vn 0.886358 0.228548 0.40266
vn 0.516295 -0.793211 0.322885
vn 0.45668 -0.657182 0.59963
vn 0.828895 0.27561 0.486799
vn -0.11342 0.662923 -0.740046
vn -0.202835 0.739405 -0.64198
vn 0.728957 0.629112 0.269889
vn 0.0333429 0.593257 -0.804322
vn 0.168668 0.912095 -0.373677
vn 0.771035 0.545361 0.328766
vn 0.758995 0.484953 0.434451
vn 0.276978 -0.715164 0.641735
vn 0.159019 -0.648066 0.744798
vn 0.0398284 -0.580346 0.813395
vn 0.754726 0.00127156 0.656039
vn 0.410716 -0.437178 0.800117
vn 0.715198 0.247266 0.653721
vn 0.0221438 -0.514606 0.857141
vn -0.48589 0.84515 -0.222786
vn 0.29931 0.848011 -0.437367
vn -0.276995 0.8798 -0.386297
vn -0.278552 0.899643 -0.336232
vn -0.352404 0.935448 -0.0273626
vn -0.114404 0.958539 -0.260986
vn 0.555479 0.772607 0.307445
vn -0.505451 0.862813 0.00850447
vn 0.128493 0.944613 0.301985
vn 0.707081 0.581451 0.402432
vn -0.0869786 -0.467476 0.879717
vn -0.202528 -0.35418 0.912984
vn -0.279692 -0.220808 0.934353
vn -0.388963 0.0371773 0.920503
vn -0.147195 -0.34577 0.926702
vn 0.603725 0.339271 0.721395
vn -0.30002 -0.0259818 0.953579
vn 0.597599 0.513416 0.615856
vn -0.627302 0.734556 0.258689
vn -0.418144 0.873873 0.247995
vn 0.680211 0.59069 0.434048
vn -0.426878 0.726326 0.538726
vn -0.540547 0.218248 0.812512
vn -0.552057 0.492066 0.67313
vn 0.586525 0.549848 0.594689
vn -0.38849 0.304867 0.869558
vn -0.510441 -0.645257 -0.568413
vn -0.57961 -0.56904 -0.583306
vn 0.468748 -0.215852 -0.856553
vn -0.405831 -0.795626 -0.449757
vn 0.371184 -0.928522 0.00836178
vn 0.322323 0.0877855 -0.94255
vn 0.172696 0.270356 -0.947145
vn -0.712448 0.182927 -0.677463
vn -0.712448 0.182927 -0.677463
vn 0.103492 -0.539569 -0.835556
vn -0.322835 0.589891 -0.74014
vn -0.805698 -0.450265 -0.384854
vn -0.712448 0.182927 -0.677463
vn 0.103492 -0.539569 -0.835556
vn -0.81314 -0.455211 -0.362749
vn -0.0290086 -0.984175 0.174811
vn -0.0636934 -0.997341 0.0354215
vn -0.70656 -0.683899 -0.18181
vn 0.154466 -0.821577 0.548772
vn -0.830272 -0.383007 -0.404911
vn -0.524868 0.844679 -0.105033
vn -0.854148 -0.206446 -0.477296
vn -0.416239 0.841956 -0.343302
vn -0.686007 -0.249907 0.683331
vn -0.187358 -0.539863 0.820637
vn -0.928867 -0.103144 0.355764
vn -0.915844 -0.277779 -0.289948
vn -0.688634 0.704833 0.170272
vn -0.936714 0.0152094 0.349764
vn -0.656734 0.66227 0.360691
vn 0.975176 0.218043 -0.0385918
vn 0.952109 -0.0481469 -0.301945
vn 0.947318 0.316504 0.0491321
vn 0.976971 0.212013 0.0240265
vn 0.946985 0.215372 0.2384
vn 0.942589 0.127601 0.308616
vn 0.928878 0.0579974 0.365816
vn 0.344706 0.228951 -0.910362
vn 0.839603 0.543185 -0.00402942
vn 0.834851 0.516389 0.190697
vn 0.713288 0.68576 -0.144754
vn 0.745313 0.654407 -0.127517
vn 0.816037 0.556066 -0.157714
vn 0.7841 0.601261 -0.153854
vn 0.849765 0.486027 -0.204149
vn 0.748859 0.602799 0.275398
vn 0.833642 0.513311 0.203847
vn 0.952109 -0.0481469 -0.301945
vn 0.882504 0.0396459 0.468631
vn 0.862016 0.0729968 0.501598
vn 0.168668 0.912095 -0.373677
vn 0.710866 0.668039 0.219986
vn 0.0337703 0.953165 -0.300559
vn 0.692526 0.668781 0.270442
vn 0.596058 0.123483 0.793389
vn -0.275019 0.910567 -0.308598
vn 0.54615 0.834355 0.0746442
vn 0.273298 0.941074 0.199219
vn 0.611084 0.749735 0.253916
vn 0.49173 0.195996 0.848403
vn 0.443547 0.307251 0.84194
vn -0.205945 0.135614 0.969121
vn -0.1162 0.845667 0.520908
vn -0.273835 0.661552 0.698114
vn 0.326177 0.489373 0.808779
g grp1
usemtl mtl1
f 2//2 3//3 1//1 
f 1//1 3//3 6//6 
f 4//4 159//159 14//14 
f 159//159 158//158 14//14 
f 158//158 5//5 14//14 
f 158//158 161//161 5//5 
f 8//8 4//4 14//14 
f 14//14 5//5 10//10 
f 5//5 161//161 7//7 
f 7//7 15//15 5//5 
f 9//9 8//8 14//14 
f 9//9 14//14 10//10 
f 164//164 12//12 163//163 
f 13//13 12//12 164//164 
f 170//170 165//165 166//166 
f 171//171 167//167 11//11 
f 23//23 13//13 168//168 
f 44//44 13//13 23//23 
f 51//51 44//44 23//23 
f 5//5 16//16 10//10 
f 5//5 172//172 16//16 
f 162//162 17//17 173//173 
f 173//173 17//17 174//174 
f 17//17 18//18 174//174 
f 19//19 23//23 168//168 
f 169//169 10//10 177//177 
f 21//21 23//23 19//19 
f 22//22 21//21 19//19 
f 20//20 179//179 177//177 
f 177//177 10//10 20//20 
f 180//180 178//178 25//25 
f 25//25 178//178 32//32 
f 21//21 24//24 23//23 
f 24//24 21//21 180//180 
f 24//24 51//51 23//23 
f 51//51 24//24 180//180 
f 20//20 30//30 184//184 
f 20//20 10//10 30//30 
f 10//10 16//16 26//26 
f 16//16 29//29 26//26 
f 182//182 27//27 181//181 
f 181//181 27//27 28//28 
f 10//10 26//26 31//31 
f 62//62 28//28 27//27 
f 16//16 175//175 29//29 
f 50//50 182//182 176//176 
f 184//184 30//30 33//33 
f 34//34 33//33 30//30 
f 34//34 30//30 31//31 
f 31//31 30//30 10//10 
f 186//186 183//183 37//37 
f 32//32 185//185 35//35 
f 187//187 35//35 185//185 
f 187//187 37//37 36//36 
f 187//187 36//36 45//45 
f 187//187 45//45 35//35 
f 45//45 36//36 46//46 
f 46//46 36//36 37//37 
f 181//181 37//37 183//183 
f 37//37 181//181 28//28 
f 38//38 37//37 28//28 
f 2//2 52//52 3//3 
f 41//41 6//6 3//3 
f 52//52 41//41 3//3 
f 50//50 176//176 49//49 
f 25//25 51//51 180//180 
f 32//32 35//35 45//45 
f 40//40 52//52 2//2 
f 40//40 2//2 160//160 
f 12//12 13//13 44//44 
f 39//39 176//176 17//17 
f 49//49 176//176 39//39 
f 32//32 45//45 25//25 
f 47//47 40//40 160//160 
f 47//47 160//160 163//163 
f 59//59 182//182 50//50 
f 48//48 39//39 17//17 
f 49//49 39//39 48//48 
f 57//57 51//51 25//25 
f 62//62 64//64 28//28 
f 61//61 182//182 59//59 
f 61//61 27//27 182//182 
f 46//46 37//37 38//38 
f 41//41 42//42 6//6 
f 43//43 17//17 162//162 
f 42//42 162//162 6//6 
f 162//162 42//42 43//43 
f 48//48 17//17 43//43 
f 28//28 64//64 38//38 
f 163//163 12//12 68//68 
f 43//43 42//42 55//55 
f 43//43 55//55 48//48 
f 56//56 49//49 48//48 
f 60//60 50//50 49//49 
f 60//60 59//59 50//50 
f 57//57 25//25 45//45 
f 52//52 40//40 77//77 
f 77//77 83//83 52//52 
f 47//47 163//163 68//68 
f 53//53 54//54 42//42 
f 41//41 53//53 42//42 
f 52//52 53//53 41//41 
f 42//42 54//54 55//55 
f 48//48 55//55 58//58 
f 58//58 56//56 48//48 
f 118//118 44//44 51//51 
f 56//56 60//60 49//49 
f 86//86 45//45 46//46 
f 58//58 55//55 63//63 
f 62//62 27//27 61//61 
f 75//75 46//46 38//38 
f 63//63 55//55 54//54 
f 72//72 60//60 56//56 
f 71//71 59//59 60//60 
f 57//57 66//66 51//51 
f 73//73 64//64 62//62 
f 65//65 53//53 52//52 
f 83//83 65//65 52//52 
f 58//58 63//63 70//70 
f 69//69 58//58 70//70 
f 69//69 56//56 58//58 
f 57//57 45//45 132//132 
f 85//85 132//132 45//45 
f 75//75 38//38 64//64 
f 145//145 64//64 73//73 
f 86//86 46//46 75//75 
f 63//63 54//54 82//82 
f 82//82 84//84 63//63 
f 59//59 71//71 67//67 
f 132//132 66//66 57//57 
f 73//73 62//62 61//61 
f 67//67 61//61 59//59 
f 74//74 61//61 67//67 
f 76//76 77//77 40//40 
f 54//54 53//53 82//82 
f 65//65 82//82 53//53 
f 83//83 82//82 65//65 
f 69//69 72//72 56//56 
f 63//63 84//84 70//70 
f 118//118 102//102 44//44 
f 51//51 66//66 118//118 
f 72//72 71//71 60//60 
f 73//73 61//61 74//74 
f 47//47 76//76 40//40 
f 101//101 12//12 44//44 
f 69//69 70//70 78//78 
f 80//80 72//72 69//69 
f 142//142 74//74 67//67 
f 127//127 67//67 71//71 
f 81//81 72//72 80//80 
f 81//81 71//71 72//72 
f 127//127 142//142 67//67 
f 81//81 127//127 71//71 
f 86//86 85//85 45//45 
f 75//75 64//64 145//145 
f 79//79 70//70 84//84 
f 78//78 70//70 79//79 
f 80//80 69//69 78//78 
f 66//66 119//119 118//118 
f 143//143 73//73 74//74 
f 144//144 145//145 73//73 
f 142//142 143//143 74//74 
f 76//76 88//88 77//77 
f 83//83 77//77 87//87 
f 84//84 82//82 97//97 
f 97//97 79//79 84//84 
f 98//98 79//79 97//97 
f 79//79 98//98 111//111 
f 68//68 12//12 100//100 
f 76//76 47//47 68//68 
f 111//111 78//78 79//79 
f 125//125 81//81 80//80 
f 139//139 132//132 85//85 
f 75//75 155//155 86//86 
f 68//68 89//89 76//76 
f 89//89 88//88 76//76 
f 87//87 91//91 83//83 
f 12//12 101//101 100//100 
f 68//68 100//100 89//89 
f 126//126 127//127 81//81 
f 155//155 75//75 154//154 
f 154//154 75//75 145//145 
f 77//77 88//88 87//87 
f 88//88 93//93 87//87 
f 87//87 93//93 91//91 
f 92//92 82//82 83//83 
f 97//97 82//82 92//92 
f 102//102 101//101 44//44 
f 112//112 80//80 78//78 
f 113//113 125//125 80//80 
f 113//113 80//80 112//112 
f 112//112 78//78 111//111 
f 139//139 85//85 151//151 
f 143//143 144//144 73//73 
f 85//85 86//86 150//150 
f 150//150 86//86 153//153 
f 86//86 155//155 153//153 
f 90//90 88//88 89//89 
f 109//109 90//90 89//89 
f 188//188 190//190 96//96 
f 190//190 204//204 96//96 
f 189//189 103//103 205//205 
f 93//93 94//94 91//91 
f 94//94 92//92 91//91 
f 91//91 92//92 83//83 
f 99//99 97//97 95//95 
f 95//95 97//97 92//92 
f 188//188 96//96 191//191 
f 96//96 192//192 191//191 
f 92//92 94//94 95//95 
f 96//96 114//114 192//192 
f 193//193 192//192 114//114 
f 193//193 114//114 194//194 
f 96//96 110//110 114//114 
f 98//98 97//97 99//99 
f 89//89 100//100 195//195 
f 104//104 195//195 100//100 
f 101//101 104//104 100//100 
f 105//105 101//101 106//106 
f 106//106 101//101 102//102 
f 108//108 106//106 102//102 
f 197//197 204//204 196//196 
f 204//204 197//197 123//123 
f 105//105 104//104 101//101 
f 197//197 107//107 123//123 
f 199//199 200//200 201//201 
f 199//199 201//201 198//198 
f 202//202 201//201 200//200 
f 107//107 203//203 123//123 
f 96//96 204//204 110//110 
f 204//204 123//123 110//110 
f 110//110 123//123 124//124 
f 110//110 124//124 114//114 
f 98//98 99//99 111//111 
f 115//115 112//112 111//111 
f 115//115 116//116 112//112 
f 116//116 113//113 112//112 
f 116//116 125//125 113//113 
f 206//206 194//194 114//114 
f 99//99 115//115 111//111 
f 206//206 114//114 207//207 
f 114//114 124//124 117//117 
f 114//114 117//117 207//207 
f 117//117 128//128 207//207 
f 121//121 102//102 118//118 
f 102//102 121//121 108//108 
f 121//121 118//118 119//119 
f 203//203 209//209 120//120 
f 203//203 120//120 123//123 
f 208//208 122//122 210//210 
f 209//209 211//211 120//120 
f 120//120 211//211 123//123 
f 211//211 141//141 123//123 
f 123//123 141//141 124//124 
f 129//129 125//125 116//116 
f 126//126 125//125 129//129 
f 81//81 125//125 126//126 
f 129//129 131//131 127//127 
f 126//126 129//129 127//127 
f 131//131 142//142 127//127 
f 128//128 117//117 130//130 
f 128//128 130//130 129//129 
f 116//116 128//128 129//129 
f 129//129 130//130 212//212 
f 130//130 147//147 212//212 
f 124//124 147//147 130//130 
f 124//124 130//130 117//117 
f 66//66 134//134 119//119 
f 134//134 66//66 132//132 
f 136//136 135//135 132//132 
f 136//136 132//132 139//139 
f 133//133 122//122 208//208 
f 213//213 119//119 134//134 
f 135//135 137//137 134//134 
f 135//135 134//134 132//132 
f 216//216 215//215 138//138 
f 215//215 140//140 138//138 
f 140//140 215//215 136//136 
f 140//140 136//136 139//139 
f 211//211 214//214 216//216 
f 211//211 216//216 141//141 
f 141//141 216//216 138//138 
f 134//134 137//137 213//213 
f 139//139 151//151 140//140 
f 140//140 152//152 141//141 
f 141//141 138//138 140//140 
f 141//141 156//156 149//149 
f 146//146 142//142 131//131 
f 142//142 146//146 143//143 
f 146//146 144//144 143//143 
f 148//148 145//145 144//144 
f 146//146 148//148 144//144 
f 217//217 212//212 147//147 
f 141//141 149//149 124//124 
f 147//147 218//218 217//217 
f 124//124 149//149 147//147 
f 218//218 147//147 149//149 
f 148//148 219//219 145//145 
f 85//85 150//150 151//151 
f 151//151 150//150 153//153 
f 140//140 151//151 220//220 
f 220//220 151//151 153//153 
f 141//141 152//152 156//156 
f 155//155 154//154 157//157 
f 145//145 157//157 154//154 
f 149//149 156//156 222//222 
f 145//145 219//219 157//157 
f 221//221 220//220 153//153 
f 155//155 221//221 153//153 
f 157//157 221//221 155//155 
