#
# The license for this database is specified in the Creative Commons Attribution-Share Alike 2.1 Japan. If you use data from this database, please be sure attribute this database as follows: "BodyParts3D, (c)  The Database Center for Life Science licensed under CC Attribution-Share Alike 2.1 Japan".
# http://dbarchive.biosciencedbc.jp/en/bodyparts3d/lic.html
#
#
# Compatibility version : 4.0
# File ID : FJ2993
# Representation ID : BP9584
# Build-up logic : FMA 3.0 part_of
# Concept ID : FMA68712
# English name : Lateral branch of right superior segmental artery
# Bounds(mm): (-82.691900,-44.012500,1251.490000)-(-71.069200,-40.267400,1254.590000)
# Volume(cm3): 0.036900
#
v -82.1262 -43.7598 1251.49
v -82.4213 -42.4111 1251.62
v -82.4226 -42.6426 1251.71
v -82.6013 -42.3759 1252.23
v -82.2173 -42.1602 1252.42
v -82.3786 -43.9982 1252.49
v -82.5391 -43.7731 1253.04
v -81.5482 -44.0125 1252.4
v -81.7685 -43.8495 1252.95
v -81.3317 -43.9028 1251.96
v -82.361 -42.3494 1252.85
v -82.6281 -43.3344 1253.06
v -82.6919 -42.8914 1253.08
v -82.2992 -42.7954 1253.22
v -82.1731 -43.2068 1253.3
v -79.2188 -41.7028 1253.29
v -78.8252 -41.9362 1253.78
v -78.3502 -43.0777 1253.8
v -78.1807 -42.2873 1254.05
v -71.6364 -40.2674 1253.31
v -71.4655 -42.2129 1252.78
v -71.2792 -41.0465 1252.46
v -71.1755 -40.9952 1252.59
v -71.0692 -42.1942 1252.83
v -71.3921 -42.4815 1253.82
v -72.2053 -40.974 1254.5
v -71.7884 -41.6865 1254.59
v -71.3608 -40.496 1254.34
v -71.1581 -41.9516 1254.23
v -71.6205 -42.1965 1254.32
v -82.1262 -43.7598 1251.49
v -82.1262 -43.7598 1251.49
v -82.4213 -42.4111 1251.62
v -82.4213 -42.4111 1251.62
v -82.4213 -42.4111 1251.62
v -82.6013 -42.3759 1252.23
v -82.3786 -43.9982 1252.49
v -82.3786 -43.9982 1252.49
v -82.5391 -43.7731 1253.04
v -81.5482 -44.0125 1252.4
v -82.6281 -43.3344 1253.06
v -82.6919 -42.8914 1253.08
v -82.6919 -42.8914 1253.08
v -82.6919 -42.8914 1253.08
v -71.6364 -40.2674 1253.31
v -71.6364 -40.2674 1253.31
v -71.4655 -42.2129 1252.78
v -71.2792 -41.0465 1252.46
v -71.2792 -41.0465 1252.46
v -71.1755 -40.9952 1252.59
v -71.1755 -40.9952 1252.59
v -71.0692 -42.1942 1252.83
v -71.0692 -42.1942 1252.83
v -71.0692 -42.1942 1252.83
v -71.0692 -42.1942 1252.83
v -71.3921 -42.4815 1253.82
v -71.3921 -42.4815 1253.82
v -71.3608 -40.496 1254.34
v -71.1581 -41.9516 1254.23
v -71.1581 -41.9516 1254.23
vn -0.933616 -0.180473 -0.3095
vn -0.927126 -0.126265 -0.352838
vn -0.938479 -0.154909 -0.308644
vn -0.958432 -0.160785 -0.235703
vn -0.331848 0.943256 0.0120642
vn -0.954023 -0.170476 -0.246532
vn -0.958131 -0.174342 -0.227135
vn 0.0729983 -0.970881 -0.228168
vn 0.0291597 -0.90201 0.430729
vn 0.115684 -0.936821 -0.330126
vn -0.432626 0.751199 0.498533
vn -0.964354 -0.157314 -0.212775
vn -0.763973 0.584595 0.273117
vn -0.300774 0.340858 0.890702
vn -0.283348 -0.115861 0.951993
vn -0.194417 0.951282 0.239299
vn -0.216095 0.597875 0.771912
vn -0.0206742 -0.581862 0.813025
vn -0.147806 0.0616603 0.987092
vn -0.185359 0.977512 0.100559
vn 0.157611 -0.937106 -0.311433
vn 0.118904 -0.155291 -0.980687
vn 0.326189 0.761176 -0.560546
vn 0.133008 -0.281975 -0.950157
vn 0.181823 -0.851289 0.492186
vn -0.0867495 0.316007 0.944783
vn 0.138863 -0.149457 0.978969
vn 0.00757327 0.585768 0.810443
vn 0.991751 0.114973 0.0566608
vn 0.234498 -0.61301 0.754472
vn 0.0396187 -0.932536 -0.358896
vn 0.110914 -0.0895653 -0.989786
vn -0.225192 0.958317 -0.175831
vn 0.0614347 0.109077 -0.992133
vn -0.0377074 0.728754 -0.683737
vn -0.598405 0.79542 0.0960123
vn -0.0160206 -0.944157 0.329105
vn -0.0432662 -0.96931 -0.242004
vn -0.161243 -0.596938 0.785917
vn 0.056502 -0.95048 0.305607
vn -0.434424 -0.115689 0.893248
vn -0.974035 -0.132041 -0.183904
vn -0.397385 -0.0198078 0.917438
vn -0.399496 0.558628 0.726869
vn 0.146998 0.759205 -0.634034
vn 0.802436 0.590857 -0.0835793
vn 0.144386 -0.283233 -0.94812
vn 0.146998 0.759205 -0.634034
vn 0.790611 -0.0520242 -0.610104
vn 0.790611 -0.0520242 -0.610104
vn 0.959177 0.282622 0.0102333
vn 0.790611 -0.0520242 -0.610104
vn 0.994162 0.0974221 0.046373
vn 0.0775424 -0.96397 -0.254457
vn 0.861852 -0.487566 0.13961
vn 0.128544 -0.957957 -0.256504
vn 0.861852 -0.487566 0.13961
vn 0.927226 0.374404 -0.00862056
vn 0.861852 -0.487566 0.13961
vn 0.463443 -0.350337 0.813932
g grp1
usemtl mtl1
f 3//3 4//4 2//2 
f 5//5 33//33 36//36 
f 2//2 1//1 3//3 
f 4//4 6//6 7//7 
f 12//12 4//4 7//7 
f 37//37 9//9 39//39 
f 39//39 15//15 41//41 
f 3//3 1//1 4//4 
f 1//1 6//6 4//4 
f 31//31 8//8 38//38 
f 40//40 9//9 37//37 
f 31//31 10//10 8//8 
f 18//18 39//39 9//9 
f 18//18 15//15 39//39 
f 25//25 9//9 40//40 
f 25//25 18//18 9//9 
f 5//5 36//36 11//11 
f 16//16 5//5 11//11 
f 17//17 16//16 11//11 
f 36//36 13//13 11//11 
f 4//4 12//12 42//42 
f 15//15 43//43 41//41 
f 11//11 44//44 14//14 
f 43//43 15//15 14//14 
f 19//19 14//14 15//15 
f 17//17 11//11 14//14 
f 21//21 10//10 31//31 
f 19//19 15//15 18//18 
f 17//17 14//14 19//19 
f 22//22 32//32 34//34 
f 22//22 47//47 32//32 
f 10//10 21//21 8//8 
f 8//8 21//21 56//56 
f 5//5 16//16 33//33 
f 20//20 33//33 16//16 
f 26//26 17//17 19//19 
f 28//28 17//17 26//26 
f 30//30 18//18 25//25 
f 27//27 19//19 18//18 
f 45//45 48//48 35//35 
f 27//27 26//26 19//19 
f 23//23 48//48 45//45 
f 22//22 24//24 47//47 
f 52//52 49//49 50//50 
f 53//53 51//51 29//29 
f 21//21 54//54 56//56 
f 57//57 55//55 59//59 
f 25//25 60//60 30//30 
f 16//16 28//28 20//20 
f 28//28 16//16 17//17 
f 18//18 30//30 27//27 
f 28//28 26//26 27//27 
f 46//46 58//58 51//51 
f 30//30 60//60 27//27 
f 51//51 58//58 29//29 
f 27//27 60//60 28//28 
