#
# The license for this database is specified in the Creative Commons Attribution-Share Alike 2.1 Japan. If you use data from this database, please be sure attribute this database as follows: "BodyParts3D, (c)  The Database Center for Life Science licensed under CC Attribution-Share Alike 2.1 Japan".
# http://dbarchive.biosciencedbc.jp/en/bodyparts3d/lic.html
#
#
# Compatibility version : 4.0
# File ID : FJ1708M
# Representation ID : BP9322
# Build-up logic : FMA 3.0 part_of
# Concept ID : FMA50520
# English name : Left posterior inferior cerebellar artery
# Bounds(mm): (27.535100,-61.847000,1495.950000)-(30.592900,-56.556400,1498.920000)
# Volume(cm3): 0.001500
#
v 30.532 -60.2017 1497.75
v 30.4086 -59.8017 1497.36
v 30.5929 -59.6017 1497.62
v 30.5929 -59.2017 1497.11
v 29.7929 -60.9924 1498.15
v 28.9361 -61.2017 1498.19
v 30.3929 -60.0017 1497.89
v 30.2976 -59.6017 1497.35
v 30.2882 -59.6017 1497.55
v 30.1929 -60.4017 1497.66
v 30.1929 -60.4017 1498.1
v 29.9929 -60.3126 1497.95
v 29.6247 -60.8017 1497.95
v 29.5929 -60.7906 1498.35
v 30.2226 -59.0017 1497.15
v 30.3929 -58.5435 1497.15
v 30.3929 -58.2017 1496.8
v 30.2111 -58.218 1496.58
v 30.135 -58.2017 1496.95
v 29.9929 -58.0517 1496.55
v 29.9938 -57.7338 1496.35
v 29.9876 -57.6677 1496.75
v 29.7929 -57.5825 1496.35
v 29.7929 -57.693 1496.55
v 29.9929 -57.2017 1496.33
v 29.8288 -56.8017 1496.15
v 29.7929 -57.303 1496.16
v 29.7929 -57.0017 1496.06
v 29.5929 -57.0017 1496.04
v 29.5929 -56.7645 1495.95
v 29.3945 -56.8017 1496.15
v 29.5929 -56.5564 1496.15
v 30.1846 -57.6017 1496.55
v 30.0757 -57.4017 1496.35
v 29.9955 -57.3406 1496.54
v 29.7919 -57.221 1496.55
v 29.7941 -56.9071 1496.35
v 29.593 -57.2372 1496.35
v 29.5847 -56.8017 1496.35
v 28.7929 -61.4017 1498.62
v 28.4167 -61.2017 1498.55
v 27.7929 -61.847 1498.75
v 27.7376 -61.6017 1498.55
v 27.7929 -61.6017 1498.92
v 27.5351 -61.6017 1498.75
v 30.532 -60.2017 1497.75
v 30.532 -60.2017 1497.75
v 30.532 -60.2017 1497.75
v 30.4086 -59.8017 1497.36
v 30.5929 -59.6017 1497.62
v 30.5929 -59.6017 1497.62
v 30.5929 -59.2017 1497.11
v 30.5929 -59.2017 1497.11
v 30.5929 -59.2017 1497.11
v 29.7929 -60.9924 1498.15
v 29.7929 -60.9924 1498.15
v 29.7929 -60.9924 1498.15
v 28.9361 -61.2017 1498.19
v 30.3929 -60.0017 1497.89
v 30.2976 -59.6017 1497.35
v 30.2882 -59.6017 1497.55
v 30.2882 -59.6017 1497.55
v 30.1929 -60.4017 1497.66
v 30.1929 -60.4017 1497.66
v 30.1929 -60.4017 1498.1
v 30.1929 -60.4017 1498.1
v 29.9929 -60.3126 1497.95
v 29.9929 -60.3126 1497.95
v 29.9929 -60.3126 1497.95
v 29.6247 -60.8017 1497.95
v 29.6247 -60.8017 1497.95
v 29.6247 -60.8017 1497.95
v 29.6247 -60.8017 1497.95
v 29.5929 -60.7906 1498.35
v 29.5929 -60.7906 1498.35
v 29.5929 -60.7906 1498.35
v 29.5929 -60.7906 1498.35
v 30.2226 -59.0017 1497.15
v 30.2226 -59.0017 1497.15
v 30.2226 -59.0017 1497.15
v 30.3929 -58.5435 1497.15
v 30.3929 -58.5435 1497.15
v 30.3929 -58.5435 1497.15
v 30.3929 -58.2017 1496.8
v 30.3929 -58.2017 1496.8
v 30.2111 -58.218 1496.58
v 30.135 -58.2017 1496.95
v 30.135 -58.2017 1496.95
v 30.135 -58.2017 1496.95
v 29.9929 -58.0517 1496.55
v 29.9938 -57.7338 1496.35
v 29.9876 -57.6677 1496.75
v 29.7929 -57.693 1496.55
v 29.7929 -57.693 1496.55
v 29.9929 -57.2017 1496.33
v 29.9929 -57.2017 1496.33
v 29.8288 -56.8017 1496.15
v 29.7929 -57.303 1496.16
v 29.7929 -57.303 1496.16
v 29.7929 -57.0017 1496.06
v 29.5929 -57.0017 1496.04
v 29.5929 -56.7645 1495.95
v 29.5929 -56.7645 1495.95
v 29.5929 -56.7645 1495.95
v 29.3945 -56.8017 1496.15
v 29.3945 -56.8017 1496.15
v 29.3945 -56.8017 1496.15
v 29.5929 -56.5564 1496.15
v 29.5929 -56.5564 1496.15
v 29.5929 -56.5564 1496.15
v 30.1846 -57.6017 1496.55
v 30.1846 -57.6017 1496.55
v 30.0757 -57.4017 1496.35
v 29.9955 -57.3406 1496.54
v 29.7919 -57.221 1496.55
v 29.593 -57.2372 1496.35
v 29.5847 -56.8017 1496.35
v 29.5847 -56.8017 1496.35
v 28.7929 -61.4017 1498.62
v 28.7929 -61.4017 1498.62
v 28.7929 -61.4017 1498.62
v 28.4167 -61.2017 1498.55
v 28.4167 -61.2017 1498.55
v 28.4167 -61.2017 1498.55
v 27.7929 -61.847 1498.75
v 27.7929 -61.847 1498.75
v 27.7929 -61.847 1498.75
v 27.7929 -61.847 1498.75
v 27.7376 -61.6017 1498.55
v 27.7376 -61.6017 1498.55
v 27.7929 -61.6017 1498.92
v 27.7929 -61.6017 1498.92
v 27.7929 -61.6017 1498.92
v 27.5351 -61.6017 1498.75
v 27.5351 -61.6017 1498.75
v 27.5351 -61.6017 1498.75
vn 0.555188 -0.576384 -0.599623
vn 0.552034 -0.492029 -0.673176
vn 0.995056 0.0781481 0.0612917
vn 0.607 -0.454289 -0.652052
vn 0.606461 -0.360714 0.708583
vn 0.0914742 -0.70425 -0.704034
vn 0.728465 0.0447506 0.68362
vn -0.569129 -0.340082 -0.748623
vn -0.234962 0.514315 0.824787
vn 0.524616 -0.633804 -0.568393
vn 0.653445 -0.387385 0.650341
vn -0.737231 0.0494025 -0.673832
vn 0.114087 -0.669474 -0.734023
vn 0.511834 -0.292929 0.8076
vn -0.378348 -0.439369 -0.814744
vn 0.933509 0.26925 0.236783
vn 0.928185 0.26622 0.260001
vn 0.75292 -0.0170538 -0.657892
vn 0.420643 0.547103 0.723697
vn -0.43191 -0.49629 -0.753094
vn -0.487918 -0.555666 -0.67318
vn -0.718032 0.0296324 0.695379
vn -0.642065 -0.557714 -0.526031
vn -0.715188 0.0192458 0.698667
vn 0.725397 0.0141793 -0.688184
vn 0.709851 0.298293 -0.63807
vn -0.588616 -0.522724 -0.616677
vn 0.744327 0.0292534 -0.667174
vn 0.0939975 -0.330648 -0.939061
vn 0.629847 0.393983 -0.66938
vn -0.72038 -0.404955 -0.563085
vn 0.58467 0.562267 -0.584822
vn 0.756005 -0.0668459 -0.651144
vn 0.643032 -0.0547295 -0.763881
vn 0.460352 0.573205 0.677873
vn 0.438011 0.558047 0.704791
vn 0.546142 0.574974 0.609208
vn -0.741178 -0.511666 -0.434572
vn 0.408285 0.621935 0.668207
vn 0.503966 -0.302232 0.809119
vn 0.0829051 0.464327 0.881775
vn 0.415288 -0.904631 0.0958024
vn -0.0187406 -0.634243 -0.772907
vn 0.137945 0.548007 0.825021
vn -0.287825 0.852492 0.436364
vn 0.988139 -0.12083 -0.0947669
vn 0.728465 0.0447506 0.68362
vn 0.752697 -0.470695 0.460319
vn -0.577478 -0.252304 -0.776442
vn 0.744075 0.0684741 0.664578
vn -0.195218 0.488569 0.850406
vn 0.981058 0.143489 0.130136
vn 0.7679 -0.0444777 -0.639024
vn -0.322368 -0.42782 -0.844422
vn 0.415288 -0.904631 0.0958024
vn 0.131801 -0.714939 -0.686652
vn 0.540554 -0.722956 -0.430274
vn -0.466145 0.568743 -0.677673
vn -0.269789 0.578628 0.769678
vn -0.992243 0.115241 -0.0466154
vn -0.992243 0.115241 -0.0466154
vn -0.776469 0.288589 0.560189
vn -0.75778 0.254314 -0.600911
vn 0.102871 -0.675399 -0.730242
vn 0.712003 0.0209747 0.701863
vn -0.252644 0.645901 0.720405
vn -0.272793 0.618344 0.737045
vn -0.93109 0.362158 -0.0437425
vn -0.796364 0.599511 -0.0799461
vn -0.511821 0.429407 -0.744076
vn -0.643443 0.48439 -0.592745
vn -0.796364 0.599511 -0.0799461
vn -0.337488 0.939842 -0.0529105
vn 0.0267668 0.374493 0.926843
vn -0.796364 0.599511 -0.0799461
vn -0.18472 0.717044 0.672106
vn -0.337488 0.939842 -0.0529105
vn -0.989183 -0.139133 -0.0464717
vn -0.632899 0.235229 0.737635
vn -0.94458 -0.0215085 0.327575
vn -0.208407 0.363812 0.907859
vn -0.632899 0.235229 0.737635
vn 0.376269 0.662837 0.647355
vn 0.76766 -0.0227585 -0.640453
vn 0.462592 0.524647 0.71467
vn -0.318343 -0.539691 -0.779353
vn -0.936362 -0.260892 0.234865
vn -0.454553 0.168943 0.874551
vn -0.71898 0.0607758 0.692368
vn -0.936362 -0.260892 0.234865
vn 0.680477 -0.11241 -0.724096
vn 0.475593 0.460144 0.749719
vn -0.866374 -0.483066 0.126662
vn -0.709686 -0.548415 -0.442252
vn 0.645637 0.561503 0.517558
vn 0.886792 0.391686 0.245319
vn 0.58556 0.616333 0.526549
vn 0.616637 -0.0641148 -0.784633
vn 0.0947707 -0.307595 -0.946786
vn 0.0939975 -0.330648 -0.939061
vn -0.699262 -0.47697 -0.532478
vn 0.0931687 -0.353506 -0.930781
vn -0.659 -0.267048 -0.703138
vn -0.65069 0.526277 -0.547389
vn -0.724486 -0.0138868 0.68915
vn -0.65069 0.526277 -0.547389
vn -0.625124 0.505599 0.594634
vn 0.541119 0.520384 0.660599
vn -0.65069 0.526277 -0.547389
vn -0.625124 0.505599 0.594634
vn 0.555018 0.454191 0.696898
vn 0.798919 0.582969 0.147905
vn 0.848582 0.490638 0.197948
vn 0.848582 0.490638 0.197948
vn -0.71145 -0.00554963 0.702715
vn -0.714183 -0.00966576 0.699893
vn -0.716627 -0.0137361 0.697321
vn -0.625124 0.505599 0.594634
vn 0.415288 -0.904631 0.0958024
vn 0.0829051 0.464327 0.881775
vn 0.339166 -0.535941 0.773132
vn -0.465774 0.641505 -0.609529
vn -0.337488 0.939842 -0.0529105
vn -0.287825 0.852492 0.436364
vn 0.0742254 -0.723853 -0.68595
vn 0.339166 -0.535941 0.773132
vn -0.47657 -0.500853 0.722515
vn -0.56522 -0.594019 -0.572423
vn -0.431283 0.732208 -0.52713
vn -0.56522 -0.594019 -0.572423
vn 0.339166 -0.535941 0.773132
vn -0.287825 0.852492 0.436364
vn -0.47657 -0.500853 0.722515
vn -0.451386 0.766338 -0.457139
vn -0.47657 -0.500853 0.722515
vn -0.56522 -0.594019 -0.572423
g grp1
usemtl mtl1
f 2//2 4//4 1//1 
f 46//46 52//52 3//3 
f 7//7 47//47 50//50 
f 59//59 51//51 9//9 
f 52//52 17//17 16//16 
f 16//16 3//3 52//52 
f 81//81 9//9 51//51 
f 18//18 84//84 53//53 
f 11//11 14//14 5//5 
f 40//40 5//5 14//14 
f 55//55 119//119 42//42 
f 41//41 120//120 74//74 
f 56//56 125//125 6//6 
f 56//56 6//6 13//13 
f 58//58 122//122 70//70 
f 41//41 44//44 120//120 
f 1//1 10//10 2//2 
f 12//12 49//49 63//63 
f 67//67 59//59 9//9 
f 8//8 49//49 12//12 
f 68//68 61//61 60//60 
f 49//49 15//15 54//54 
f 49//49 8//8 15//15 
f 60//60 61//61 78//78 
f 11//11 5//5 48//48 
f 57//57 10//10 1//1 
f 13//13 64//64 56//56 
f 71//71 12//12 63//63 
f 47//47 7//7 65//65 
f 59//59 67//67 66//66 
f 75//75 69//69 72//72 
f 76//76 66//66 67//67 
f 123//123 77//77 73//73 
f 62//62 82//82 79//79 
f 15//15 86//86 54//54 
f 85//85 19//19 83//83 
f 18//18 33//33 84//84 
f 86//86 15//15 20//20 
f 87//87 90//90 80//80 
f 79//79 82//82 88//88 
f 20//20 21//21 86//86 
f 24//24 89//89 22//22 
f 92//92 19//19 85//85 
f 91//91 33//33 18//18 
f 111//111 92//92 85//85 
f 90//90 87//87 93//93 
f 21//21 20//20 94//94 
f 21//21 94//94 23//23 
f 23//23 27//27 21//21 
f 98//98 34//34 91//91 
f 98//98 28//28 25//25 
f 98//98 25//25 34//34 
f 26//26 28//28 30//30 
f 37//37 95//95 97//97 
f 25//25 28//28 26//26 
f 27//27 23//23 38//38 
f 99//99 29//29 100//100 
f 29//29 102//102 100//100 
f 30//30 32//32 26//26 
f 97//97 39//39 37//37 
f 97//97 108//108 39//39 
f 27//27 38//38 101//101 
f 101//101 31//31 103//103 
f 101//101 38//38 31//31 
f 116//116 117//117 105//105 
f 104//104 106//106 109//109 
f 107//107 118//118 110//110 
f 91//91 34//34 33//33 
f 92//92 111//111 35//35 
f 114//114 112//112 113//113 
f 113//113 96//96 114//114 
f 92//92 35//35 36//36 
f 95//95 36//36 35//35 
f 95//95 37//37 36//36 
f 116//116 24//24 115//115 
f 38//38 23//23 94//94 
f 24//24 22//22 115//115 
f 39//39 36//36 37//37 
f 115//115 117//117 116//116 
f 125//125 43//43 6//6 
f 121//121 131//131 126//126 
f 129//129 122//122 58//58 
f 132//132 124//124 45//45 
f 122//122 129//129 134//134 
f 133//133 135//135 127//127 
f 130//130 128//128 136//136 
