# Blender v2.77 (sub 0) OBJ File: 'BLANKOblend.blend'
# www.blender.org
mtllib left posterior circumflex humeral artery.mtl
o grp1
v 190.954590 -71.636444 1296.094482
v 191.195694 -70.956635 1296.515381
v 191.044434 -71.063446 1296.061523
v 191.247849 -71.495422 1296.417236
v 191.252075 -71.232025 1296.749268
v 190.991211 -71.442596 1297.034912
v 191.085571 -71.720581 1296.617798
v 190.865845 -71.733612 1296.884766
v 190.651123 -71.890869 1296.477295
v 190.940063 -70.933563 1296.968994
v 185.507812 -67.363495 1293.283203
v 185.773438 -67.496307 1293.757812
v 190.732422 -71.125702 1297.106934
v 190.459473 -71.495331 1297.035156
v 183.125000 -66.875214 1291.812500
v 190.468445 -71.790375 1296.782593
v 182.968750 -67.187714 1291.992188
v 185.242188 -68.679901 1293.492188
v 184.687500 -67.031464 1293.562500
v 184.962997 -68.429115 1293.910034
v 184.871994 -68.176910 1294.040039
v 182.500000 -66.609589 1292.890625
v 183.296875 -66.218964 1292.039062
v 185.550995 -67.747017 1293.040039
v 182.019531 -66.972870 1291.966797
v 181.359375 -65.640839 1290.906250
v 182.375000 -66.125214 1292.750000
v 182.433594 -65.691620 1292.044922
v 181.781250 -66.824432 1292.199219
v 181.656250 -66.531464 1292.437500
v 180.322006 -65.059814 1290.560059
v 180.281250 -64.840057 1291.492188
v 179.365234 -64.405487 1290.495117
v 176.917969 -63.827358 1290.330078
v 178.621094 -65.571991 1290.380371
v 178.891006 -65.402916 1291.239990
v 178.593750 -65.265839 1289.890625
v 179.436005 -65.882912 1290.969971
v 177.289993 -64.283211 1290.680054
v 177.601562 -64.144745 1289.492188
v 177.835938 -63.912807 1290.243652
v 176.878906 -65.037323 1290.233398
v 177.906250 -64.836151 1290.937500
v 175.664062 -64.103729 1288.707031
v 176.140625 -64.694550 1290.228516
v 176.199219 -63.717007 1289.066406
v 175.301758 -63.384548 1289.342529
v 173.671875 -63.902554 1289.676758
v 174.755859 -64.614227 1288.762695
v 174.437500 -64.327362 1288.449219
v 175.736816 -64.887177 1289.374268
v 172.859375 -63.650112 1289.408203
v 173.810547 -63.338589 1288.623535
v 174.282227 -64.673630 1289.461426
v 173.230469 -64.374237 1289.478516
v 172.548828 -63.312283 1288.967773
v 172.609375 -63.561733 1288.105469
v 173.057617 -64.720184 1289.010254
v 170.357910 -63.482876 1288.198242
v 171.042969 -64.883514 1288.234375
v 172.406250 -64.189667 1287.906250
v 170.664062 -64.774872 1287.865234
v 168.884003 -64.251511 1288.880005
v 169.671875 -63.712124 1288.658203
v 171.007812 -63.993374 1287.681641
v 170.990005 -64.855911 1288.750000
v 169.361328 -63.960171 1287.612305
v 170.210007 -64.598015 1289.020020
v 168.679688 -64.754120 1288.930176
v 166.099609 -65.805382 1287.295410
v 168.998993 -65.341713 1288.209961
v 167.934937 -65.601562 1287.825439
v 168.304688 -64.605675 1287.340332
v 168.143997 -65.358116 1288.640015
v 166.377563 -64.483063 1288.035522
v 167.145508 -64.328819 1287.761230
v 167.617188 -64.188202 1288.499512
v 166.455994 -65.684814 1288.729980
v 166.300781 -64.909386 1287.330078
v 165.902344 -66.279015 1287.632324
v 166.507004 -66.063515 1288.349976
v 165.887939 -65.369110 1288.800049
v 160.968750 -68.148643 1287.349609
v 164.197266 -66.789474 1288.676758
v 164.353516 -66.087120 1287.200317
v 164.416077 -65.292084 1287.795166
v 164.430176 -66.987762 1288.263184
v 164.052002 -65.542717 1288.380005
v 161.371094 -67.783417 1288.991211
v 163.664062 -65.968468 1287.360840
v 160.851562 -67.258026 1288.685547
v 162.731934 -67.912323 1288.052856
v 162.171875 -68.095909 1287.730957
v 159.140625 -68.656464 1289.125000
v 162.750000 -66.031464 1287.941895
v 161.617188 -66.949425 1287.481445
v 161.410156 -68.478729 1288.762695
v 159.453125 -69.586151 1287.822266
v 159.851562 -69.624725 1288.506592
v 159.625000 -69.654510 1288.818359
v 159.753906 -67.871300 1287.774414
v 158.842285 -68.276825 1288.241943
v 157.132812 -70.968964 1289.466797
v 158.208984 -70.733612 1288.359375
v 156.562500 -69.875214 1288.937012
v 157.750000 -69.468964 1287.808594
v 156.609375 -69.859589 1288.242188
v 152.175781 -73.519745 1290.170898
v 155.718750 -71.234589 1288.015625
v 155.117188 -70.925995 1288.735352
v 157.312500 -70.406464 1289.523438
v 152.312500 -74.672089 1288.769531
v 156.528000 -71.904617 1289.229980
v 152.507812 -73.226776 1288.771484
v 153.716797 -74.119354 1288.923828
v 150.718750 -75.390839 1289.019531
v 151.902344 -73.482635 1289.930664
v 151.417969 -73.961151 1289.300781
v 153.531998 -74.289711 1289.829956
v 153.164993 -74.165215 1290.250000
v 152.718750 -73.718964 1290.414062
v 152.098633 -75.704315 1290.064941
v 150.875000 -76.468964 1290.843750
v 151.182007 -76.256912 1289.250000
v 151.717285 -76.041229 1289.536133
v 149.079498 -77.521461 1291.305054
v 150.531998 -74.945312 1290.359985
v 150.131836 -75.145721 1289.925781
v 147.375000 -79.625214 1289.937500
v 147.875000 -77.945526 1290.070312
v 149.381500 -76.261063 1290.689941
v 146.673004 -79.531967 1291.554932
v 146.718750 -79.082245 1290.970703
v 148.393005 -80.061913 1290.979980
v 146.425995 -79.876717 1290.349976
v 148.591995 -79.393013 1291.359985
v 145.567505 -82.632362 1290.642578
v 147.309006 -80.152115 1291.890015
v 143.195312 -84.086151 1292.835938
v 143.119995 -83.559914 1292.089966
v 143.518997 -83.256012 1291.400024
v 142.781006 -84.774513 1291.310059
v 141.003906 -86.957245 1291.786621
v 143.851562 -85.015839 1291.308594
v 144.175781 -85.318573 1292.434570
v 143.406250 -86.047089 1292.888672
v 143.464844 -85.867401 1291.757812
v 142.937500 -85.812714 1293.265625
v 141.275879 -87.010956 1293.768311
v 142.359375 -84.836151 1291.550781
v 142.033630 -87.526947 1292.505859
v 141.167969 -87.370331 1291.889648
v 141.375488 -87.684296 1292.167480
v 141.894043 -87.645294 1292.983643
v 141.414062 -85.549042 1292.977539
v 141.358994 -85.452217 1292.400024
v 141.607422 -87.562958 1293.506348
v 140.354980 -86.688446 1292.170410
v 140.290604 -86.422188 1292.689087
v 141.340332 -87.968285 1292.899902
v 141.143005 -87.657440 1293.538086
v 140.576416 -86.494598 1293.385254
v 140.670898 -87.154747 1293.644043
v 140.923767 -87.811493 1292.344971
v 140.639648 -87.434784 1292.077148
v 140.306396 -87.093750 1292.185547
v 140.462463 -87.685883 1292.599365
v 140.693237 -87.753265 1293.207764
v 140.834839 -87.909538 1292.796509
v 140.184601 -87.323448 1292.910889
v 140.248779 -86.880371 1293.241943
v 140.135895 -86.812210 1292.663086
vn 0.9217 0.0636 0.3825
vn 0.6568 -0.7369 0.1599
vn 0.9235 -0.3067 -0.2305
vn 0.7091 0.2376 -0.6638
vn 0.4233 -0.6249 -0.6560
vn 0.5168 -0.2567 0.8167
vn 0.2641 -0.7601 0.5937
vn -0.0401 -0.9907 -0.1301
vn 0.8182 0.5728 -0.0508
vn 0.4220 0.6036 0.6765
vn 0.6007 0.6673 -0.4402
vn 0.4294 0.8834 0.1878
vn 0.0015 0.1942 0.9810
vn -0.3576 -0.3542 0.8641
vn -0.0546 -0.6680 -0.7421
vn -0.3790 -0.9020 -0.2068
vn -0.3612 -0.8101 0.4617
vn -0.5984 -0.7002 0.3894
vn 0.2847 -0.2958 -0.9119
vn -0.6142 -0.5004 0.6103
vn -0.4313 0.0645 0.8999
vn 0.1569 0.8203 0.5500
vn 0.5592 0.6464 -0.5191
vn 0.5808 0.2849 -0.7625
vn 0.4570 0.1991 -0.8669
vn -0.3579 -0.9156 -0.1830
vn -0.1679 0.5185 0.8384
vn 0.3944 0.9170 0.0593
vn -0.5378 -0.7906 0.2929
vn -0.5085 -0.4668 0.7235
vn 0.4942 0.5202 -0.6965
vn 0.1369 0.8771 0.4604
vn 0.3869 0.8816 -0.2704
vn -0.0489 0.8131 0.5801
vn -0.2403 -0.9203 -0.3087
vn -0.4767 -0.6197 0.6234
vn 0.1487 -0.5677 -0.8097
vn -0.4146 -0.8727 0.2581
vn -0.2250 0.3416 0.9125
vn 0.4125 0.4703 -0.7802
vn 0.2282 0.9722 0.0521
vn -0.3493 -0.8555 0.3824
vn -0.3510 -0.0573 0.9346
vn 0.2709 0.0846 -0.9589
vn -0.3110 -0.6196 0.7206
vn 0.3075 0.7044 -0.6398
vn 0.0908 0.9956 0.0226
vn -0.2483 -0.0080 0.9686
vn 0.2032 -0.4192 -0.8848
vn 0.0609 -0.8387 -0.5411
vn -0.1450 -0.9876 -0.0610
vn -0.1756 0.4760 0.8617
vn 0.1317 0.8948 -0.4266
vn -0.1987 -0.8607 0.4688
vn -0.1490 -0.5637 0.8124
vn -0.1043 0.9558 0.2748
vn 0.1152 0.6433 -0.7569
vn -0.0234 -0.9532 0.3014
vn -0.1166 0.9694 -0.2161
vn 0.1333 -0.9733 -0.1871
vn 0.2184 -0.7536 -0.6200
vn 0.2030 -0.1643 -0.9653
vn -0.1573 0.3530 0.9223
vn -0.2042 0.8515 0.4830
vn 0.0961 -0.9255 0.3663
vn 0.1145 0.2916 -0.9497
vn -0.0598 0.6563 -0.7521
vn -0.0296 -0.4532 0.8909
vn -0.0477 -0.2088 0.9768
vn 0.1564 -0.4008 -0.9027
vn 0.2429 -0.9581 0.1517
vn 0.2799 -0.9077 -0.3126
vn 0.0497 0.1402 -0.9889
vn 0.1385 -0.6764 0.7234
vn -0.2868 0.8215 0.4929
vn -0.3561 0.9341 -0.0246
vn -0.2215 0.8908 -0.3967
vn 0.1074 -0.4260 0.8983
vn -0.1774 0.5207 -0.8351
vn 0.3433 -0.7912 -0.5061
vn 0.3134 -0.8316 0.4585
vn -0.1278 0.2034 0.9707
vn 0.2884 -0.5405 0.7904
vn -0.0498 0.0662 -0.9966
vn -0.3952 0.8832 -0.2525
vn 0.3955 -0.8608 0.3202
vn -0.3433 0.8008 0.4908
vn 0.1464 -0.2081 0.9671
vn -0.2857 0.5390 -0.7924
vn -0.3950 0.7348 0.5514
vn 0.0410 -0.2067 -0.9776
vn 0.4321 -0.8998 -0.0605
vn 0.3838 -0.7479 -0.5416
vn -0.1811 0.4181 0.8902
vn -0.4719 0.8733 -0.1211
vn -0.3361 0.5212 -0.7845
vn 0.3814 -0.6148 0.6904
vn 0.3576 -0.6429 -0.6773
vn -0.5703 0.8204 -0.0406
vn 0.5487 -0.8178 0.1734
vn -0.4640 0.6532 -0.5984
vn 0.4849 -0.7714 0.4121
vn 0.3599 -0.3368 0.8701
vn 0.4920 -0.8245 -0.2794
vn -0.5195 0.8018 0.2955
vn -0.3356 0.3484 -0.8752
vn -0.5710 0.6836 -0.4546
vn -0.3509 0.5518 0.7566
vn -0.2651 0.1173 -0.9571
vn -0.6385 0.7600 -0.1217
vn 0.1977 -0.0454 0.9792
vn 0.0693 -0.3191 -0.9452
vn 0.5979 -0.6565 0.4599
vn -0.5361 0.4846 -0.6912
vn 0.5182 -0.7060 -0.4827
vn -0.5948 0.7522 0.2835
vn -0.6909 0.6206 -0.3707
vn 0.6698 -0.6747 0.3099
vn 0.4562 -0.3181 0.8311
vn 0.0262 0.2194 0.9753
vn -0.4090 0.1583 -0.8987
vn 0.7029 -0.6809 0.2058
vn 0.5019 -0.2701 0.8216
vn 0.5043 -0.5882 -0.6322
vn 0.6145 -0.7489 -0.2482
vn -0.7340 0.6766 -0.0591
vn -0.5292 0.6281 0.5704
vn -0.0901 0.2788 0.9561
vn -0.6928 0.4834 -0.5351
vn -0.5435 0.6155 0.5707
vn -0.4954 0.5635 0.6610
vn -0.2345 -0.0329 -0.9716
vn -0.7631 0.6404 0.0867
vn 0.7725 -0.5509 0.3159
vn -0.5916 0.3382 -0.7319
vn 0.6100 -0.3250 0.7227
vn 0.1003 -0.3493 -0.9316
vn 0.3320 -0.0405 0.9424
vn -0.7255 0.6634 0.1833
vn -0.7617 0.5433 -0.3529
vn -0.5319 0.2585 -0.8064
vn -0.2862 -0.1142 -0.9513
vn 0.2947 -0.4792 -0.8268
vn 0.7771 -0.6048 0.1744
vn 0.6854 -0.5173 0.5125
vn 0.5495 -0.6739 -0.4940
vn -0.4385 0.5916 0.6765
vn 0.4028 -0.1301 0.9060
vn 0.0255 -0.0086 0.9996
vn -0.6439 0.3845 -0.6615
vn 0.5533 -0.7781 -0.2973
vn -0.0109 -0.4827 -0.8757
vn 0.2098 -0.7774 -0.5930
vn 0.6114 -0.7612 0.2163
vn -0.6090 0.7026 0.3680
vn -0.7228 0.6797 -0.1250
vn 0.3812 -0.5846 0.7162
vn -0.7339 0.2945 -0.6121
vn 0.1810 -0.9786 0.0982
vn -0.8166 0.5771 0.0097
vn -0.5331 0.5215 0.6662
vn -0.0702 -0.6716 0.7376
vn -0.4886 -0.1355 0.8619
vn -0.1932 -0.8711 -0.4515
vn -0.4790 -0.4902 -0.7282
vn -0.7786 -0.1627 -0.6061
vn -0.6672 -0.7207 -0.1882
vn -0.4804 -0.7476 0.4586
vn -0.3010 -0.9536 -0.0051
vn -0.9117 -0.3711 0.1762
vn -0.8554 0.0951 0.5092
vn -0.9877 0.1265 -0.0923
usemtl mtl1
s 1
f 5//1 7//2 4//3
f 3//4 4//3 1//5
f 5//1 6//6 7//2
f 7//2 6//6 8//7
f 7//2 1//5 4//3
f 1//5 7//2 9//8
f 5//1 4//3 2//9
f 2//9 10//10 5//1
f 6//6 5//1 10//10
f 4//3 3//4 2//9
f 3//4 11//11 2//9
f 2//9 12//12 10//10
f 11//11 12//12 2//9
f 6//6 10//10 13//13
f 6//6 13//13 14//14
f 9//8 7//2 8//7
f 17//15 1//5 9//8
f 9//8 18//16 17//15
f 9//8 16//17 18//16
f 8//7 6//6 14//14
f 16//17 9//8 8//7
f 8//7 14//14 16//17
f 18//16 16//17 20//18
f 20//18 16//17 14//14
f 1//5 17//15 15//19
f 20//18 14//14 21//20
f 13//13 22//21 14//14
f 21//20 14//14 22//21
f 12//12 19//22 10//10
f 13//13 10//10 19//22
f 15//19 3//4 1//5
f 11//11 3//4 23//23
f 15//19 24//24 3//4
f 24//24 23//23 3//4
f 24//24 15//19 26//25
f 23//23 24//24 26//25
f 18//16 25//26 17//15
f 27//27 13//13 19//22
f 28//28 11//11 23//23
f 28//28 19//22 12//12
f 11//11 28//28 12//12
f 18//16 20//18 25//26
f 29//29 21//20 30//30
f 13//13 27//27 22//21
f 21//20 22//21 30//30
f 29//29 20//18 21//20
f 20//18 29//29 25//26
f 23//23 26//25 31//31
f 32//32 19//22 28//28
f 33//33 28//28 23//23
f 27//27 19//22 32//32
f 27//27 32//32 34//34
f 23//23 31//31 33//33
f 33//33 32//32 28//28
f 17//15 25//26 35//35
f 36//36 29//29 30//30
f 35//35 37//37 17//15
f 29//29 35//35 25//26
f 35//35 29//29 38//38
f 22//21 36//36 30//30
f 34//34 39//39 27//27
f 40//40 31//31 26//25
f 15//19 17//15 37//37
f 37//37 26//25 15//19
f 32//32 33//33 41//41
f 29//29 36//36 38//38
f 36//36 42//42 38//38
f 22//21 27//27 43//43
f 36//36 22//21 43//43
f 37//37 44//44 26//25
f 44//44 40//40 26//25
f 38//38 42//42 35//35
f 41//41 34//34 32//32
f 45//45 42//42 36//36
f 27//27 39//39 43//43
f 40//40 33//33 31//31
f 33//33 40//40 46//46
f 33//33 46//46 41//41
f 47//47 41//41 46//46
f 45//45 36//36 43//43
f 43//43 39//39 48//48
f 44//44 37//37 50//49
f 49//50 37//37 35//35
f 35//35 51//51 49//50
f 52//52 39//39 34//34
f 45//45 43//43 48//48
f 37//37 49//50 50//49
f 46//46 40//40 44//44
f 35//35 42//42 51//51
f 41//41 47//47 34//34
f 53//53 47//47 46//46
f 51//51 42//42 54//54
f 45//45 48//48 55//55
f 42//42 45//45 54//54
f 52//52 34//34 56//56
f 48//48 39//39 52//52
f 47//47 56//56 34//34
f 44//44 57//57 46//46
f 46//46 57//57 53//53
f 51//51 54//54 58//58
f 49//50 51//51 58//58
f 56//56 53//53 59//59
f 55//55 54//54 45//45
f 53//53 56//56 47//47
f 60//60 49//50 58//58
f 62//61 50//49 49//50
f 62//61 49//50 60//60
f 44//44 61//62 57//57
f 44//44 50//49 61//62
f 54//54 55//55 58//58
f 63//63 52//52 64//64
f 52//52 56//56 64//64
f 59//59 53//53 57//57
f 55//55 66//65 58//58
f 66//65 60//60 58//58
f 50//49 62//61 61//62
f 61//62 65//66 57//57
f 57//57 65//66 67//67
f 59//59 64//64 56//56
f 66//65 55//55 68//68
f 68//68 55//55 48//48
f 68//68 48//48 52//52
f 68//68 52//52 69//69
f 62//61 70//70 61//62
f 59//59 57//57 67//67
f 71//71 60//60 66//65
f 72//72 60//60 71//71
f 61//62 73//73 65//66
f 61//62 70//70 73//73
f 65//66 73//73 67//67
f 60//60 72//72 62//61
f 74//74 68//68 69//69
f 74//74 66//65 68//68
f 59//59 77//75 64//64
f 77//75 59//59 75//76
f 66//65 74//74 71//71
f 69//69 52//52 63//63
f 70//70 62//61 72//72
f 59//59 76//77 75//76
f 76//77 59//59 67//67
f 77//75 63//63 64//64
f 78//78 74//74 69//69
f 76//77 67//67 79//79
f 70//70 72//72 80//80
f 74//74 78//78 81//81
f 71//71 74//74 81//81
f 69//69 63//63 82//82
f 69//69 82//82 78//78
f 67//67 73//73 79//79
f 71//71 81//81 72//72
f 63//63 77//75 82//82
f 84//83 78//78 82//82
f 73//73 70//70 85//84
f 73//73 85//84 79//79
f 76//77 86//85 75//76
f 76//77 79//79 86//85
f 84//83 81//81 78//78
f 87//86 81//81 84//83
f 87//86 72//72 81//81
f 80//80 72//72 87//86
f 75//76 88//87 77//75
f 89//88 84//83 82//82
f 85//84 90//89 79//79
f 86//85 79//79 90//89
f 91//90 82//82 77//75
f 70//70 83//91 85//84
f 87//86 92//92 80//80
f 93//93 70//70 80//80
f 89//88 82//82 94//94
f 82//82 91//90 94//94
f 93//93 80//80 92//92
f 95//95 75//76 86//85
f 75//76 95//95 88//87
f 88//87 91//90 77//75
f 91//90 88//87 95//95
f 83//91 70//70 93//93
f 85//84 96//96 90//89
f 96//96 95//95 90//89
f 95//95 86//85 90//89
f 97//97 87//86 84//83
f 98//98 83//91 93//93
f 85//84 83//91 96//96
f 102//99 91//90 95//95
f 87//86 97//97 92//92
f 92//92 97//97 99//100
f 89//88 97//97 84//83
f 96//96 101//101 95//95
f 101//101 102//99 95//95
f 97//97 100//102 99//100
f 99//100 93//93 92//92
f 97//97 89//88 103//103
f 104//104 98//98 93//93
f 104//104 93//93 99//100
f 102//99 105//105 91//90
f 106//106 101//101 96//96
f 106//106 96//96 83//91
f 102//99 101//101 107//107
f 105//105 108//108 91//90
f 108//108 94//94 91//90
f 106//106 83//91 109//109
f 106//106 107//107 101//101
f 107//107 110//110 102//99
f 103//103 100//102 97//97
f 103//103 89//88 111//111
f 89//88 94//94 111//111
f 98//98 112//112 83//91
f 109//109 107//107 106//106
f 99//100 100//102 113//113
f 99//100 113//113 104//104
f 98//98 104//104 112//112
f 105//105 102//99 110//110
f 109//109 114//114 107//107
f 114//114 110//110 107//107
f 115//115 112//112 104//104
f 83//91 112//112 109//109
f 105//105 117//116 108//108
f 114//114 118//117 110//110
f 117//116 105//105 110//110
f 113//113 119//118 104//104
f 113//113 100//102 103//103
f 113//113 103//103 120//119
f 119//118 113//113 120//119
f 94//94 121//120 111//111
f 114//114 109//109 116//121
f 110//110 118//117 117//116
f 115//115 104//104 119//118
f 119//118 122//122 115//115
f 123//123 119//118 120//119
f 120//119 103//103 121//120
f 121//120 103//103 111//111
f 121//120 123//123 120//119
f 115//115 124//124 112//112
f 109//109 112//112 116//121
f 122//122 125//125 115//115
f 124//124 115//115 125//125
f 122//122 119//118 123//123
f 94//94 108//108 121//120
f 128//126 127//127 117//116
f 118//117 128//126 117//116
f 123//123 121//120 126//128
f 127//127 108//108 117//116
f 116//121 118//117 114//114
f 130//129 118//117 116//121
f 131//130 127//127 128//126
f 108//108 127//127 131//130
f 121//120 108//108 126//128
f 132//131 108//108 131//130
f 108//108 132//131 126//128
f 112//112 129//132 116//121
f 130//129 128//126 118//117
f 133//133 131//130 128//126
f 125//125 122//122 134//134
f 130//129 133//133 128//126
f 135//135 130//129 116//121
f 122//122 123//123 136//136
f 136//136 134//134 122//122
f 112//112 124//124 137//137
f 129//132 135//135 116//121
f 131//130 133//133 132//131
f 138//138 123//123 126//128
f 136//136 123//123 138//138
f 140//139 133//133 141//140
f 133//133 130//129 141//140
f 140//139 132//131 133//133
f 135//135 129//132 142//141
f 141//140 130//129 135//135
f 112//112 137//137 129//132
f 143//142 129//132 137//137
f 124//124 125//125 144//143
f 134//134 136//136 145//144
f 145//144 136//136 146//145
f 125//125 134//134 145//144
f 144//143 125//125 147//146
f 137//137 124//124 144//143
f 140//139 139//147 132//131
f 148//148 146//145 136//136
f 138//138 148//148 136//136
f 138//138 126//128 149//149
f 148//148 138//138 149//149
f 129//132 143//142 142//141
f 135//135 142//141 150//150
f 141//140 135//135 150//150
f 147//146 125//125 145//144
f 147//146 145//144 151//151
f 149//149 126//128 139//147
f 126//128 132//131 139//147
f 137//137 152//152 143//142
f 144//143 152//152 137//137
f 144//143 147//146 153//153
f 144//143 153//153 152//152
f 145//144 154//154 151//151
f 154//154 145//144 146//145
f 140//139 155//155 139//147
f 141//140 150//150 156//156
f 140//139 141//140 156//156
f 140//139 156//156 155//155
f 146//145 148//148 157//157
f 149//149 157//157 148//148
f 158//158 150//150 142//141
f 153//153 147//146 151//151
f 153//153 151//151 160//159
f 159//160 155//155 156//156
f 160//159 154//154 157//157
f 151//151 154//154 160//159
f 154//154 146//145 157//157
f 149//149 139//147 162//161
f 155//155 162//161 139//147
f 161//162 157//157 149//149
f 163//163 161//162 149//149
f 161//162 160//159 157//157
f 163//163 149//149 162//161
f 164//164 153//153 160//159
f 153//153 164//164 152//152
f 165//165 143//142 152//152
f 165//165 166//166 143//142
f 164//164 165//165 152//152
f 165//165 164//164 167//167
f 150//150 159//160 156//156
f 143//142 158//158 142//141
f 166//166 158//158 143//142
f 159//160 150//150 158//158
f 168//168 160//159 161//162
f 168//168 169//169 160//159
f 169//169 164//164 160//159
f 167//167 169//169 168//168
f 167//167 168//168 170//170
f 169//169 167//167 164//164
f 159//160 171//171 162//161
f 170//170 163//163 171//171
f 159//160 172//172 171//171
f 159//160 162//161 155//155
f 161//162 163//163 168//168
f 163//163 170//170 168//168
f 162//161 171//171 163//163
f 165//165 167//167 166//166
f 166//166 167//167 170//170
f 172//172 158//158 166//166
f 158//158 172//172 159//160
f 172//172 170//170 171//171
f 166//166 170//170 172//172
