#
# The license for this database is specified in the Creative Commons Attribution-Share Alike 2.1 Japan. If you use data from this database, please be sure attribute this database as follows: "BodyParts3D, (c)  The Database Center for Life Science licensed under CC Attribution-Share Alike 2.1 Japan".
# http://dbarchive.biosciencedbc.jp/en/bodyparts3d/lic.html
#
#
# Compatibility version : 4.0
# File ID : FJ1704M
# Representation ID : BP9322
# Build-up logic : FMA 3.0 part_of
# Concept ID : FMA50520
# English name : Left posterior inferior cerebellar artery
# Bounds(mm): (22.041000,-58.078300,1490.780000)-(35.553900,-49.960500,1498.500000)
# Volume(cm3): 0.063200
#
v 35.5539 -57.8017 1498.35
v 35.3929 -57.9549 1498.35
v 35.3929 -57.8017 1498.11
v 35.3929 -57.8017 1498.5
v 35.3929 -57.6017 1498.29
v 35.3929 -57.6017 1498.39
v 34.9755 -57.8017 1497.93
v 34.4102 -57.8017 1497.71
v 34.1929 -58.0017 1497.72
v 34.1888 -57.6498 1497.75
v 33.8262 -58.0017 1497.55
v 33.9932 -57.8017 1497.54
v 33.7929 -58.0626 1497.75
v 33.7929 -57.6157 1497.75
v 33.8102 -57.8017 1497.95
v 35.1556 -57.8017 1498.44
v 34.9747 -57.9968 1498.15
v 34.6556 -57.9849 1497.95
v 34.5737 -57.8017 1498.23
v 34.3929 -58.0376 1497.95
v 34.1079 -58.0017 1497.95
v 35.1929 -57.6017 1498.14
v 35.1739 -57.6004 1498.34
v 34.7893 -57.6016 1498.15
v 34.4929 -57.6017 1497.95
v 33.5921 -58.0521 1497.55
v 33.5929 -58.0017 1497.79
v 33.5793 -57.8017 1497.37
v 33.5929 -57.6194 1497.55
v 33.3929 -58.0783 1497.55
v 33.339 -57.9946 1497.36
v 33.042 -57.8 1497.15
v 33.1929 -57.8017 1497.72
v 32.9929 -58.0751 1497.35
v 32.9929 -58.0017 1497.58
v 32.7929 -58.0158 1497.15
v 32.5929 -58.0439 1497.35
v 32.434 -57.7652 1496.91
v 32.3929 -58.0501 1497.15
v 32.1637 -57.8017 1497.35
v 32.6793 -57.6017 1497.15
v 31.3747 -57.8467 1496.93
v 30.8747 -57.6088 1496.38
v 30.7929 -57.4017 1496.26
v 31.9929 -57.522 1497.15
v 31.1929 -57.3126 1496.55
v 30.9929 -57.2477 1496.75
v 30.8631 -57.4199 1496.89
v 30.1619 -56.9683 1496.05
v 30.024 -57.1976 1496.04
v 29.3927 -56.9077 1495.97
v 29.3929 -56.6017 1495.72
v 29.3705 -56.3159 1495.75
v 29.3991 -56.1817 1495.96
v 29.2299 -56.1563 1496.16
v 30.3875 -57.5393 1496.35
v 30.1929 -57.4439 1496.55
v 30.1929 -57.2017 1496.66
v 29.9929 -56.7064 1496.35
v 29.3929 -56.8329 1496.35
v 28.9929 -55.7487 1495.75
v 28.8243 -55.635 1495.95
v 28.5929 -55.6017 1496.05
v 28.5929 -55.2617 1495.75
v 28.3929 -56.0017 1495.94
v 28.3929 -55.4017 1495.3
v 28.3322 -54.9789 1495.73
v 28.1929 -54.6896 1495.35
v 27.9938 -55.3758 1495.36
v 27.7236 -53.9122 1495.32
v 27.519 -53.6467 1494.9
v 27.0036 -53.4241 1494.64
v 27.1929 -54.0017 1495.54
v 26.5645 -53.2241 1494.94
v 26.4826 -51.7954 1494.12
v 26.4513 -51.5224 1494.2
v 26.4013 -51.5258 1494.55
v 26.0766 -51.7365 1493.87
v 25.7773 -51.9388 1494.32
v 25.7839 -51.8572 1494.53
v 25.8297 -51.8169 1493.98
v 26.6062 -52.4259 1495.08
v 26.1861 -52.2055 1494.9
v 25.9688 -50.9803 1493.7
v 25.8002 -51.0532 1494.41
v 25.1815 -51.2267 1493.92
v 25.1723 -50.4144 1492.95
v 25.0558 -50.2088 1492.96
v 25.0044 -50.6223 1492.81
v 24.7938 -50.799 1492.83
v 24.7016 -50.0181 1492.9
v 24.5611 -50.4171 1492.38
v 24.5678 -50.2119 1492.44
v 24.4095 -50.8585 1492.78
v 24.3868 -50.6655 1492.36
v 25.6274 -50.5103 1493.78
v 25.4684 -50.4106 1493.35
v 25.4068 -51.0409 1493.3
v 25.2155 -51.2306 1493.57
v 25.1821 -50.3161 1493.74
v 25.1835 -50.1799 1493.35
v 25.0317 -50.8423 1493.97
v 24.7766 -50.0661 1493.33
v 24.591 -50.8052 1493.47
v 24.4864 -50.5882 1493.51
v 24.4207 -50.2018 1493.35
v 22.8538 -51.2131 1491.21
v 22.5887 -51.2375 1490.97
v 22.606 -51.2993 1491.36
v 23.5777 -50.4214 1491.53
v 22.8242 -50.9803 1490.91
v 22.6236 -50.7887 1490.79
v 22.6403 -50.4486 1491
v 24.0152 -49.9608 1492.76
v 23.7637 -50.6326 1491.71
v 23.8157 -50.614 1492.86
v 23.7674 -50.2275 1492.87
v 23.6224 -50.916 1491.96
v 23.6099 -50.1096 1491.78
v 23.6203 -49.9605 1492.17
v 23.3655 -50.9371 1492.12
v 23.3701 -50.0589 1492.31
v 22.8621 -50.6209 1492.14
v 23.0007 -50.1437 1491.57
v 22.602 -51.0034 1491.8
v 22.6129 -50.2742 1491.57
v 22.6336 -50.4055 1491.86
v 22.3863 -51.2198 1490.96
v 22.3935 -51.3067 1491.15
v 22.2032 -51.2009 1491.14
v 22.2124 -51.1904 1491.35
v 22.4121 -51.003 1490.8
v 22.3924 -50.7931 1490.78
v 22.3811 -50.4919 1490.96
v 22.4074 -50.3788 1491.17
v 22.2055 -51.0024 1490.92
v 22.0718 -51.0017 1491.15
v 22.071 -50.9941 1491.34
v 22.1311 -50.7981 1490.96
v 22.041 -50.8089 1491.16
v 22.0516 -50.801 1491.35
v 22.1137 -50.6092 1491.15
v 22.1435 -50.5907 1491.37
v 22.1945 -50.9833 1491.56
v 22.1794 -50.7797 1491.57
v 35.5539 -57.8017 1498.35
v 35.5539 -57.8017 1498.35
v 35.5539 -57.8017 1498.35
v 35.5539 -57.8017 1498.35
v 35.3929 -57.9549 1498.35
v 35.3929 -57.9549 1498.35
v 35.3929 -57.8017 1498.11
v 35.3929 -57.8017 1498.5
v 35.3929 -57.8017 1498.5
v 35.3929 -57.8017 1498.5
v 35.3929 -57.6017 1498.29
v 35.3929 -57.6017 1498.29
v 35.3929 -57.6017 1498.39
v 35.3929 -57.6017 1498.39
v 35.3929 -57.6017 1498.39
v 34.9755 -57.8017 1497.93
v 34.4102 -57.8017 1497.71
v 34.1929 -58.0017 1497.72
v 33.8262 -58.0017 1497.55
v 33.9932 -57.8017 1497.54
v 33.7929 -58.0626 1497.75
v 33.7929 -58.0626 1497.75
v 33.7929 -57.6157 1497.75
v 33.8102 -57.8017 1497.95
v 35.1556 -57.8017 1498.44
v 34.9747 -57.9968 1498.15
v 34.5737 -57.8017 1498.23
v 34.3929 -58.0376 1497.95
v 34.3929 -58.0376 1497.95
v 34.1079 -58.0017 1497.95
v 35.1929 -57.6017 1498.14
v 35.1739 -57.6004 1498.34
v 34.7893 -57.6016 1498.15
v 34.7893 -57.6016 1498.15
v 34.4929 -57.6017 1497.95
v 33.5921 -58.0521 1497.55
v 33.5921 -58.0521 1497.55
v 33.5921 -58.0521 1497.55
v 33.5929 -58.0017 1497.79
v 33.5793 -57.8017 1497.37
v 33.5929 -57.6194 1497.55
v 33.5929 -57.6194 1497.55
v 33.3929 -58.0783 1497.55
v 33.042 -57.8 1497.15
v 33.1929 -57.8017 1497.72
v 32.9929 -58.0751 1497.35
v 32.9929 -58.0017 1497.58
v 32.7929 -58.0158 1497.15
v 32.5929 -58.0439 1497.35
v 32.434 -57.7652 1496.91
v 32.3929 -58.0501 1497.15
v 32.3929 -58.0501 1497.15
v 32.3929 -58.0501 1497.15
v 32.1637 -57.8017 1497.35
v 32.6793 -57.6017 1497.15
v 32.6793 -57.6017 1497.15
v 31.3747 -57.8467 1496.93
v 30.7929 -57.4017 1496.26
v 31.9929 -57.522 1497.15
v 31.1929 -57.3126 1496.55
v 31.1929 -57.3126 1496.55
v 30.8631 -57.4199 1496.89
v 30.1619 -56.9683 1496.05
v 30.1619 -56.9683 1496.05
v 29.3929 -56.6017 1495.72
v 29.3991 -56.1817 1495.96
v 29.2299 -56.1563 1496.16
v 30.1929 -57.4439 1496.55
v 30.1929 -57.2017 1496.66
v 30.1929 -57.2017 1496.66
v 29.9929 -56.7064 1496.35
v 29.9929 -56.7064 1496.35
v 29.9929 -56.7064 1496.35
v 29.3929 -56.8329 1496.35
v 29.3929 -56.8329 1496.35
v 29.3929 -56.8329 1496.35
v 28.9929 -55.7487 1495.75
v 28.5929 -55.6017 1496.05
v 28.5929 -55.2617 1495.75
v 28.5929 -55.2617 1495.75
v 28.3929 -56.0017 1495.94
v 28.3929 -55.4017 1495.3
v 28.1929 -54.6896 1495.35
v 27.9938 -55.3758 1495.36
v 27.7236 -53.9122 1495.32
v 27.519 -53.6467 1494.9
v 27.0036 -53.4241 1494.64
v 27.0036 -53.4241 1494.64
v 27.0036 -53.4241 1494.64
v 27.1929 -54.0017 1495.54
v 27.1929 -54.0017 1495.54
v 27.1929 -54.0017 1495.54
v 26.5645 -53.2241 1494.94
v 26.0766 -51.7365 1493.87
v 26.6062 -52.4259 1495.08
v 26.1861 -52.2055 1494.9
v 25.8002 -51.0532 1494.41
v 24.4095 -50.8585 1492.78
v 24.4095 -50.8585 1492.78
v 25.1821 -50.3161 1493.74
v 25.0317 -50.8423 1493.97
v 24.7766 -50.0661 1493.33
v 22.8538 -51.2131 1491.21
v 22.606 -51.2993 1491.36
v 22.8242 -50.9803 1490.91
v 22.6236 -50.7887 1490.79
v 23.8157 -50.614 1492.86
v 23.6224 -50.916 1491.96
v 23.3655 -50.9371 1492.12
v 22.3924 -50.7931 1490.78
v 22.3924 -50.7931 1490.78
v 22.3811 -50.4919 1490.96
v 22.3811 -50.4919 1490.96
vn 0.625665 -0.657541 -0.419742
vn 0.481769 -0.738633 -0.471508
vn 0.414538 -0.736732 -0.534213
vn 0.554172 -0.582405 0.594726
vn 0.622974 0.523378 -0.581359
vn 0.632454 0.373254 0.678737
vn 0.315699 -0.665654 -0.676194
vn 0.336288 -0.598277 -0.727306
vn 0.430551 -0.4794 -0.764724
vn 0.197756 0.770245 -0.606313
vn 0.163212 -0.951037 -0.262471
vn 0.360167 -0.375704 -0.853889
vn 0.162165 -0.974077 -0.157721
vn 0.17538 0.869354 -0.462022
vn -0.262301 -0.492089 0.830088
vn -0.208872 -0.723784 0.657655
vn 0.290555 -0.792234 -0.536604
vn 0.253786 -0.746158 -0.615501
vn -0.209235 -0.662733 0.719031
vn 0.296555 -0.780693 -0.550067
vn 0.0149703 -0.999873 0.00553317
vn 0.28027 0.611091 -0.740281
vn -0.268301 0.472077 0.839737
vn -0.358167 0.590265 0.723398
vn 0.25637 0.795721 -0.548727
vn 0.201091 -0.945908 -0.254601
vn -0.0900533 -0.956865 0.276223
vn 0.322652 -0.452906 -0.831127
vn 0.324009 0.698763 -0.637769
vn 0.168305 -0.885383 -0.433324
vn 0.272713 -0.680152 -0.680456
vn 0.316978 0.618934 -0.718641
vn -0.320237 -0.319655 0.891779
vn 0.296779 -0.700836 -0.648654
vn -0.124998 -0.933018 0.337422
vn 0.299919 -0.547778 -0.781017
vn -0.0221857 -0.999679 0.012271
vn 0.207726 -0.533112 -0.820147
vn 0.0853042 -0.994864 -0.0544826
vn -0.369955 -0.586141 0.720813
vn 0.368024 0.569302 -0.735155
vn -0.20312 -0.964614 -0.168114
vn 0.0465363 -0.736861 -0.67444
vn 0.440084 0.473756 -0.762811
vn -0.117979 0.692881 0.711335
vn 0.454742 0.453563 -0.766479
vn 0.146001 0.892989 0.425741
vn -0.0954304 0.573479 0.813643
vn 0.343567 -0.0422096 -0.938179
vn 0.0253283 -0.51386 -0.8575
vn -0.511059 -0.792427 -0.332983
vn 0.431809 0.0361632 -0.90124
vn 0.639929 0.378041 -0.669011
vn 0.71804 0.594206 -0.362405
vn 0.299489 0.576647 0.760121
vn -0.287449 -0.903528 -0.317822
vn -0.501504 -0.863336 0.0560822
vn -0.428465 -0.381777 0.818941
vn 0.599912 0.73925 -0.305964
vn -0.645366 -0.749658 0.146683
vn 0.709114 0.50745 -0.489543
vn 0.585489 0.660554 0.46997
vn 0.382703 0.529634 0.756985
vn 0.773624 0.419921 -0.474524
vn -0.772661 -0.634368 0.0239285
vn 0.689632 0.295994 -0.660904
vn 0.689895 0.595882 0.411059
vn 0.814832 0.265003 -0.51558
vn -0.473422 -0.605775 -0.63946
vn 0.873088 0.487141 -0.0202948
vn 0.552648 0.00248839 -0.833411
vn -0.166169 -0.415977 -0.894064
vn -0.396006 -0.0543203 0.91664
vn -0.853713 -0.409278 0.321971
vn 0.670189 0.0297007 -0.741596
vn 0.864513 0.461603 -0.198846
vn 0.609452 0.633569 0.476612
vn 0.460759 -0.166278 -0.87181
vn -0.770023 -0.634843 -0.0635517
vn -0.824707 -0.37917 0.419629
vn -0.417787 -0.686574 -0.595038
vn 0.364937 0.479163 0.798263
vn -0.339313 0.225461 0.913254
vn 0.786423 0.208194 -0.581544
vn -0.34493 0.330973 0.878339
vn -0.736332 -0.629873 0.247135
vn 0.71239 0.20569 -0.670964
vn 0.613694 0.660983 -0.431835
vn 0.574939 -0.33901 -0.744659
vn 0.319756 -0.717469 -0.618866
vn 0.307897 0.929252 -0.204182
vn 0.662399 -0.095351 -0.743058
vn 0.588827 0.492053 -0.641222
vn 0.24576 -0.83117 -0.498757
vn 0.49467 -0.653929 -0.572432
vn 0.620382 0.763768 0.178286
vn 0.730808 0.599972 -0.325506
vn 0.274391 -0.55996 -0.781763
vn -0.384729 -0.851516 -0.356235
vn -0.308791 0.553249 0.773669
vn 0.450613 0.89229 0.0277024
vn -0.753567 -0.35704 0.551959
vn 0.191143 0.96798 0.162725
vn -0.647132 -0.599011 0.471599
vn -0.663914 -0.11184 0.739398
vn -0.430961 0.537082 0.725132
vn 0.61339 -0.629935 -0.476378
vn 0.213138 -0.819351 -0.532199
vn 0.268522 -0.959729 -0.0825569
vn 0.575937 0.248157 -0.778919
vn 0.446577 -0.505242 -0.738444
vn 0.357327 0.380612 -0.852908
vn 0.135079 0.697991 -0.703251
vn -0.239857 0.910534 0.336744
vn 0.653695 -0.435909 -0.6186
vn -0.645183 -0.206997 0.735453
vn -0.620785 0.316177 0.717397
vn 0.534817 -0.72627 -0.43186
vn 0.312331 0.783344 -0.537421
vn -0.0327453 0.993153 -0.11214
vn -0.294127 -0.724805 0.623015
vn -0.453247 0.833998 0.314665
vn -0.5761 -0.204387 0.791413
vn -0.14306 0.962785 -0.229302
vn -0.328499 -0.651654 0.683693
vn -0.497193 0.852772 0.159937
vn -0.661849 0.490409 0.56697
vn -0.328778 -0.725575 -0.604521
vn -0.226767 -0.966379 -0.121197
vn -0.662052 -0.70483 -0.254756
vn -0.57904 -0.751273 0.316705
vn -0.0732652 -0.352586 -0.932907
vn 0.0390309 -0.0572576 -0.997596
vn 0.0446425 0.503707 -0.862721
vn -0.392096 0.894396 -0.215214
vn -0.650735 -0.334553 -0.681629
vn -0.901844 -0.370389 -0.222462
vn -0.926366 -0.307723 0.217148
vn -0.7729 0.155408 -0.615203
vn -0.987291 0.0552128 -0.149022
vn -0.947456 0.134298 0.29033
vn -0.809503 0.55063 -0.203744
vn -0.749505 0.604141 0.270659
vn -0.697342 -0.320526 0.641075
vn -0.764372 0.169637 0.62206
vn 0.554172 -0.582405 0.594726
vn 0.742302 0.448323 -0.49799
vn 0.632454 0.373254 0.678737
vn 0.778961 0.627073 0
vn 0.554172 -0.582405 0.594726
vn -0.198561 -0.715701 0.669586
vn 0.537282 0.51196 -0.670242
vn 0.632454 0.373254 0.678737
vn -0.168118 -0.689709 0.7043
vn -0.207345 0.473949 0.855792
vn 0.778961 0.627073 0
vn 0 1 0
vn -0.210601 0.471061 0.856592
vn 0.778961 0.627073 0
vn 0.00375273 0.999988 -0.00300214
vn 0.235462 0.69464 -0.67973
vn 0.29888 0.662312 -0.687032
vn 0.0524797 -0.994749 -0.0878661
vn 0.289536 -0.431991 -0.854138
vn 0.257622 0.738045 -0.623635
vn -0.201121 -0.581776 0.788091
vn -0.248072 -0.947467 0.201905
vn -0.257561 0.788055 0.559134
vn -0.228156 0.720468 0.654882
vn -0.289175 0.517428 0.805386
vn -0.216695 -0.723542 0.655385
vn -0.303424 0.69003 0.657109
vn -0.124845 -0.991103 -0.0461437
vn -0.142384 -0.713298 0.686246
vn -0.263503 -0.586594 0.765815
vn 0.00255927 0.999988 -0.0042405
vn 0.00383888 0.999972 -0.00636073
vn 0.156483 0.787574 -0.59602
vn 0.000172349 0.999977 -0.00671717
vn -0.28169 0.721376 0.632666
vn -0.0626254 -0.976248 0.207409
vn 0.287748 -0.546704 -0.78633
vn 0.123031 -0.896566 -0.425479
vn -0.224906 -0.426605 0.876028
vn 0.28683 0.655106 -0.698974
vn -0.204122 0.868649 0.451424
vn 0.112658 0.970235 -0.214365
vn -0.0590824 -0.949564 0.307956
vn 0.33851 -0.486812 -0.805249
vn -0.249343 0.735486 0.62999
vn -0.105852 -0.985269 0.134315
vn -0.331651 -0.41591 0.846774
vn 0.0046915 -0.990895 -0.134557
vn -0.395506 -0.700873 0.593593
vn 0.369923 0.557266 -0.743379
vn 0.118735 -0.65669 -0.744755
vn -0.359616 -0.763555 0.53634
vn -0.126058 -0.94725 -0.294663
vn -0.22971 0.469269 0.852655
vn 0.112658 0.970235 -0.214365
vn 0.171011 0.974999 0.141885
vn -0.380624 -0.491422 0.783345
vn 0.215688 -0.329667 -0.919129
vn 0.112658 0.970235 -0.214365
vn 0.464164 0.780815 -0.418186
vn 0.330666 0.943429 0.0245302
vn -0.408981 -0.403403 0.818536
vn 0.50083 0.34111 -0.795495
vn 0.62407 0.692267 -0.362357
vn -0.233218 -0.555294 -0.798284
vn 0.605004 0.733966 0.30865
vn 0.226692 0.580921 0.781755
vn -0.438639 -0.37157 0.818249
vn 0.0475876 0.543746 0.8379
vn -0.275168 0.194639 0.941487
vn 0.428094 0.893086 0.138321
vn 0.037042 0.567797 0.822335
vn 0.501807 0.804426 0.317943
vn -0.100074 0.243272 0.964782
vn -0.410918 -0.0451883 0.910552
vn -0.477529 -0.363282 0.799995
vn 0.712015 0.664986 0.225452
vn -0.403479 -0.0497564 0.913635
vn 0.741204 0.608795 0.282818
vn 0.562365 0.62742 0.538599
vn -0.403479 -0.0497564 0.913635
vn -0.166034 -0.431044 -0.886924
vn 0.814624 0.574153 0.082073
vn -0.631864 -0.530297 -0.565272
vn 0.424116 0.491424 0.760676
vn 0.878893 0.388868 -0.276275
vn 0.420738 -0.0900535 -0.902701
vn -0.6239 -0.586203 -0.516832
vn -0.202726 -0.495553 -0.844588
vn 0.28392 0.432438 0.855796
vn -0.838256 -0.366639 0.403611
vn -0.330053 0.148496 0.932209
vn -0.662359 -0.595035 -0.455209
vn -0.148295 -0.592647 -0.791693
vn -0.287572 0.227846 0.930263
vn -0.785032 -0.260581 0.56198
vn 0.332377 0.690136 0.642835
vn -0.439693 -0.867925 0.231032
vn 0.0785883 -0.996891 -0.00560469
vn 0.297693 0.864031 0.405992
vn -0.431536 0.342372 0.8346
vn -0.24903 0.76833 0.589621
vn 0.269396 -0.962468 0.0328705
vn -0.224989 -0.854436 0.468314
vn 0.622367 0.030935 -0.782114
vn 0.151053 -0.167336 -0.97426
vn -0.357351 -0.830295 0.42768
vn 0.137001 -0.986537 0.0893074
vn 0.215607 -0.972792 0.0847934
vn 0.0336776 0.50971 -0.859687
vn -0.543932 0.0970527 -0.833498
vn -0.0778493 0.881678 -0.465386
vn -0.589378 0.575884 -0.566561
g grp1
usemtl mtl1
f 3//3 1//1 2//2 
f 150//150 146//146 4//4 
f 5//5 147//147 152//152 
f 153//153 148//148 6//6 
f 154//154 16//16 151//151 
f 152//152 22//22 5//5 
f 170//170 155//155 23//23 
f 23//23 155//155 158//158 
f 156//156 159//159 149//149 
f 157//157 176//176 160//160 
f 176//176 177//177 160//160 
f 7//7 18//18 8//8 
f 25//25 161//161 162//162 
f 18//18 20//20 8//8 
f 10//10 25//25 162//162 
f 8//8 20//20 9//9 
f 173//173 21//21 163//163 
f 9//9 12//12 8//8 
f 165//165 10//10 162//162 
f 163//163 13//13 11//11 
f 15//15 166//166 175//175 
f 13//13 163//163 21//21 
f 164//164 12//12 9//9 
f 11//11 13//13 26//26 
f 165//165 14//14 10//10 
f 169//169 180//180 168//168 
f 25//25 10//10 14//14 
f 181//181 167//167 27//27 
f 15//15 184//184 166//166 
f 182//182 28//28 164//164 
f 28//28 12//12 164//164 
f 29//29 165//165 185//185 
f 29//29 14//14 165//165 
f 3//3 17//17 7//7 
f 3//3 2//2 17//17 
f 151//151 16//16 171//171 
f 152//152 161//161 22//22 
f 170//170 23//23 24//24 
f 18//18 7//7 17//17 
f 161//161 25//25 178//178 
f 20//20 18//18 17//17 
f 171//171 19//19 174//174 
f 16//16 19//19 171//171 
f 24//24 172//172 170//170 
f 180//180 172//172 24//24 
f 19//19 175//175 174//174 
f 175//175 19//19 15//15 
f 169//169 172//172 180//180 
f 179//179 177//177 176//176 
f 178//178 22//22 161//161 
f 183//183 30//30 31//31 
f 188//188 181//181 27//27 
f 31//31 28//28 182//182 
f 184//184 15//15 33//33 
f 32//32 29//29 185//185 
f 186//186 190//190 168//168 
f 190//190 169//169 168//168 
f 189//189 31//31 34//34 
f 31//31 30//30 34//34 
f 188//188 35//35 191//191 
f 188//188 27//27 35//35 
f 31//31 189//189 28//28 
f 192//192 184//184 33//33 
f 189//189 34//34 36//36 
f 191//191 37//37 193//193 
f 37//37 191//191 35//35 
f 39//39 193//193 37//37 
f 196//196 38//38 36//36 
f 38//38 189//189 36//36 
f 192//192 40//40 194//194 
f 192//192 33//33 40//40 
f 32//32 195//195 41//41 
f 32//32 41//41 29//29 
f 199//199 190//190 45//45 
f 197//197 194//194 40//40 
f 43//43 38//38 196//196 
f 45//45 190//190 186//186 
f 200//200 204//204 187//187 
f 43//43 56//56 50//50 
f 42//42 56//56 43//43 
f 195//195 44//44 41//41 
f 38//38 43//43 203//203 
f 40//40 202//202 197//197 
f 198//198 42//42 43//43 
f 50//50 203//203 43//43 
f 50//50 49//49 203//203 
f 208//208 46//46 44//44 
f 59//59 205//205 209//209 
f 201//201 47//47 45//45 
f 44//44 46//46 41//41 
f 48//48 199//199 45//45 
f 206//206 47//47 201//201 
f 48//48 45//45 47//47 
f 202//202 40//40 207//207 
f 216//216 47//47 206//206 
f 48//48 47//47 217//217 
f 56//56 42//42 57//57 
f 56//56 51//51 50//50 
f 50//50 52//52 49//49 
f 50//50 51//51 210//210 
f 51//51 57//57 60//60 
f 53//53 54//54 209//209 
f 53//53 49//49 52//52 
f 209//209 54//54 59//59 
f 53//53 52//52 66//66 
f 66//66 61//61 53//53 
f 61//61 54//54 53//53 
f 211//211 55//55 218//218 
f 51//51 60//60 65//65 
f 51//51 69//69 210//210 
f 69//69 227//227 210//210 
f 219//219 55//55 63//63 
f 51//51 65//65 69//69 
f 226//226 220//220 223//223 
f 58//58 202//202 207//207 
f 214//214 48//48 217//217 
f 57//57 51//51 56//56 
f 213//213 202//202 58//58 
f 214//214 217//217 212//212 
f 213//213 58//58 221//221 
f 219//219 215//215 55//55 
f 222//222 62//62 211//211 
f 211//211 62//62 55//55 
f 62//62 63//63 55//55 
f 226//226 223//223 73//73 
f 66//66 64//64 61//61 
f 222//222 224//224 62//62 
f 225//225 63//63 62//62 
f 64//64 66//66 68//68 
f 225//225 228//228 67//67 
f 67//67 63//63 225//225 
f 228//228 70//70 67//67 
f 68//68 66//66 71//71 
f 230//230 63//63 67//67 
f 231//231 70//70 228//228 
f 74//74 69//69 65//65 
f 69//69 72//72 227//227 
f 232//232 71//71 66//66 
f 235//235 63//63 230//230 
f 230//230 82//82 235//235 
f 232//232 78//78 71//71 
f 238//238 233//233 229//229 
f 81//81 233//233 238//238 
f 65//65 236//236 74//74 
f 83//83 237//237 240//240 
f 236//236 241//241 74//74 
f 76//76 70//70 231//231 
f 76//76 77//77 70//70 
f 75//75 71//71 78//78 
f 76//76 231//231 75//75 
f 81//81 239//239 234//234 
f 77//77 76//76 96//96 
f 238//238 79//79 81//81 
f 74//74 80//80 79//79 
f 80//80 241//241 102//102 
f 81//81 98//98 239//239 
f 98//98 75//75 78//78 
f 230//230 77//77 82//82 
f 74//74 241//241 80//80 
f 84//84 76//76 75//75 
f 96//96 76//76 84//84 
f 84//84 75//75 98//98 
f 83//83 240//240 85//85 
f 242//242 82//82 77//77 
f 96//96 242//242 77//77 
f 246//246 83//83 85//85 
f 246//246 85//85 100//100 
f 96//96 84//84 97//97 
f 80//80 86//86 79//79 
f 81//81 79//79 99//99 
f 102//102 86//86 80//80 
f 81//81 99//99 98//98 
f 79//79 86//86 99//99 
f 87//87 84//84 89//89 
f 98//98 89//89 84//84 
f 98//98 94//94 90//90 
f 90//90 89//89 98//98 
f 87//87 89//89 92//92 
f 93//93 87//87 92//92 
f 87//87 93//93 88//88 
f 103//103 101//101 91//91 
f 91//91 101//101 88//88 
f 90//90 95//95 89//89 
f 92//92 89//89 95//95 
f 93//93 91//91 88//88 
f 94//94 95//95 90//90 
f 103//103 91//91 114//114 
f 106//106 247//247 114//114 
f 95//95 115//115 92//92 
f 117//117 106//106 114//114 
f 120//120 114//114 91//91 
f 84//84 87//87 97//97 
f 96//96 245//245 242//242 
f 98//98 99//99 94//94 
f 88//88 101//101 97//97 
f 88//88 97//97 87//87 
f 96//96 97//97 101//101 
f 96//96 101//101 245//245 
f 106//106 246//246 100//100 
f 103//103 245//245 101//101 
f 86//86 243//243 99//99 
f 104//104 243//243 86//86 
f 86//86 102//102 104//104 
f 105//105 246//246 106//106 
f 105//105 104//104 102//102 
f 106//106 100//100 247//247 
f 116//116 104//104 105//105 
f 106//106 117//117 105//105 
f 252//252 243//243 104//104 
f 105//105 117//117 116//116 
f 111//111 115//115 107//107 
f 132//132 111//111 108//108 
f 111//111 107//107 108//108 
f 108//108 248//248 109//109 
f 108//108 128//128 132//132 
f 128//128 108//108 129//129 
f 129//129 108//108 109//109 
f 121//121 125//125 249//249 
f 110//110 115//115 250//250 
f 110//110 250//250 112//112 
f 113//113 110//110 112//112 
f 113//113 119//119 110//110 
f 113//113 124//124 119//119 
f 132//132 251//251 111//111 
f 113//113 135//135 124//124 
f 126//126 124//124 135//135 
f 133//133 251//251 132//132 
f 112//112 255//255 113//113 
f 113//113 255//255 134//134 
f 257//257 135//135 113//113 
f 118//118 95//95 94//94 
f 95//95 118//118 115//115 
f 252//252 121//121 243//243 
f 92//92 115//115 110//110 
f 92//92 110//110 93//93 
f 91//91 93//93 119//119 
f 119//119 120//120 91//91 
f 118//118 107//107 115//115 
f 248//248 253//253 254//254 
f 253//253 244//244 254//254 
f 252//252 123//123 121//121 
f 110//110 119//119 93//93 
f 124//124 120//120 119//119 
f 117//117 114//114 122//122 
f 122//122 114//114 120//120 
f 123//123 125//125 121//121 
f 116//116 117//117 123//123 
f 124//124 122//122 120//120 
f 254//254 109//109 248//248 
f 123//123 117//117 127//127 
f 127//127 117//117 122//122 
f 122//122 124//124 126//126 
f 127//127 122//122 126//126 
f 128//128 129//129 130//130 
f 130//130 129//129 131//131 
f 129//129 249//249 131//131 
f 125//125 131//131 249//249 
f 136//136 132//132 128//128 
f 136//136 256//256 132//132 
f 128//128 130//130 136//136 
f 130//130 137//137 136//136 
f 130//130 131//131 137//137 
f 131//131 138//138 137//137 
f 125//125 144//144 131//131 
f 144//144 138//138 131//131 
f 256//256 136//136 139//139 
f 136//136 137//137 139//139 
f 137//137 140//140 139//139 
f 137//137 138//138 140//140 
f 138//138 141//141 140//140 
f 138//138 144//144 141//141 
f 144//144 145//145 141//141 
f 139//139 258//258 256//256 
f 258//258 139//139 142//142 
f 139//139 140//140 142//142 
f 140//140 141//141 142//142 
f 141//141 143//143 142//142 
f 127//127 143//143 145//145 
f 143//143 141//141 145//145 
f 142//142 135//135 258//258 
f 143//143 135//135 142//142 
f 126//126 135//135 143//143 
f 143//143 127//127 126//126 
f 144//144 123//123 145//145 
f 125//125 123//123 144//144 
f 145//145 123//123 127//127 
