#
# The license for this database is specified in the Creative Commons Attribution-Share Alike 2.1 Japan. If you use data from this database, please be sure attribute this database as follows: "BodyParts3D, (c)  The Database Center for Life Science licensed under CC Attribution-Share Alike 2.1 Japan".
# http://dbarchive.biosciencedbc.jp/en/bodyparts3d/lic.html
#
#
# Compatibility version : 4.0
# File ID : FJ2914
# Representation ID : BP9511
# Build-up logic : FMA 3.0 part_of
# Concept ID : FMA8647
# English name : Left posterior basal segmental artery
# Bounds(mm): (47.804300,-37.043100,1145.390000)-(57.821600,-30.208800,1159.720000)
# Volume(cm3): 0.066300
#
v 56.5184 -37.0431 1158.75
v 55.857 -36.8141 1158.6
v 50.0569 -33.7428 1149.26
v 50.5359 -33.3988 1148.33
v 53.1345 -34.1393 1151.58
v 50.2859 -33.8407 1150.95
v 52.5503 -35.0255 1152.04
v 51.7917 -34.8915 1153.26
v 52.9128 -35.5441 1153.68
v 56.9414 -36.5028 1157.78
v 57.4866 -36.4813 1158.32
v 57.3507 -36.1596 1157.8
v 51.4504 -33.7737 1153.28
v 56.4665 -36.8303 1158.03
v 56.2565 -36.8646 1159.07
v 55.2924 -36.2762 1158.92
v 55.7364 -36.4712 1159.53
v 55.4909 -35.7394 1159.72
v 55.2393 -34.9794 1159.09
v 49.278 -31.6657 1145.39
v 48.8438 -32.1797 1145.93
v 48.0916 -31.8751 1146.15
v 48.1964 -31.9942 1146.67
v 48.6548 -31.8603 1145.56
v 48.0585 -31.5603 1146.02
v 47.8043 -31.331 1146.29
v 47.949 -31.121 1146.3
v 47.9457 -30.744 1146.53
v 49.098 -32.2656 1149.04
v 50.3803 -31.7665 1149.85
v 50.8985 -32.6578 1151.72
v 52.0522 -32.4019 1150.92
v 57.4043 -35.348 1157.67
v 57.8216 -35.5389 1158.31
v 57.6513 -34.8351 1158.44
v 57.5872 -35.0065 1158.57
v 57.1436 -34.5911 1157.87
v 56.143 -34.1915 1158.64
v 56.64 -34.6294 1159.3
v 57.208 -34.3918 1158.77
v 55.8819 -35.0813 1159.7
v 55.8069 -34.5823 1159.29
v 49.3936 -30.9284 1145.67
v 49.7251 -30.9235 1146.08
v 49.0122 -30.2876 1146.18
v 48.6056 -30.6452 1147.09
v 49.5137 -30.5322 1146.48
v 48.9117 -30.2088 1146.34
v 56.5184 -37.0431 1158.75
v 53.1345 -34.1393 1151.58
v 52.5503 -35.0255 1152.04
v 51.7917 -34.8915 1153.26
v 57.4866 -36.4813 1158.32
v 56.2565 -36.8646 1159.07
v 55.7364 -36.4712 1159.53
v 55.4909 -35.7394 1159.72
v 55.4909 -35.7394 1159.72
v 49.278 -31.6657 1145.39
v 49.278 -31.6657 1145.39
v 48.0916 -31.8751 1146.15
v 48.6548 -31.8603 1145.56
v 48.6548 -31.8603 1145.56
v 48.6548 -31.8603 1145.56
v 48.0585 -31.5603 1146.02
v 47.8043 -31.331 1146.29
v 47.8043 -31.331 1146.29
v 47.9457 -30.744 1146.53
v 52.0522 -32.4019 1150.92
v 57.8216 -35.5389 1158.31
v 57.6513 -34.8351 1158.44
v 56.64 -34.6294 1159.3
v 57.208 -34.3918 1158.77
v 57.208 -34.3918 1158.77
v 55.8819 -35.0813 1159.7
v 55.8819 -35.0813 1159.7
v 49.3936 -30.9284 1145.67
v 49.3936 -30.9284 1145.67
v 49.0122 -30.2876 1146.18
v 48.9117 -30.2088 1146.34
vn 0.0260409 -0.986527 -0.161511
vn -0.483391 -0.861639 0.154636
vn -0.429324 -0.887932 -0.165101
vn 0.245344 -0.815214 -0.524625
vn 0.537851 -0.620525 -0.570671
vn -0.852956 -0.442325 0.277153
vn 0.521291 -0.640455 -0.56398
vn -0.564833 -0.821895 0.0738356
vn -0.172362 -0.963557 -0.20457
vn 0.414306 -0.788969 -0.453739
vn 0.557239 -0.266839 0.786309
vn 0.738685 -0.382914 -0.554726
vn -0.848437 0.0502059 0.526909
vn 0.252305 -0.897706 -0.361201
vn -0.392365 -0.88847 0.238056
vn -0.772831 -0.521742 0.361273
vn 0.470469 -0.163631 0.867112
vn -0.821994 -0.358425 0.442558
vn -0.667757 0.418653 0.615492
vn 0.290388 -0.725962 -0.623421
vn -0.14533 -0.860544 -0.488203
vn -0.744802 -0.318183 -0.586541
vn -0.805267 -0.58569 0.0922633
vn 0.0495472 -0.742446 -0.668071
vn -0.744802 -0.318183 -0.586541
vn -0.804434 -0.295346 -0.51542
vn -0.480749 0.418419 -0.770588
vn -0.500547 0.511779 -0.698237
vn -0.892504 -0.0173984 0.450705
vn -0.0290352 0.904486 0.425513
vn -0.399029 0.768428 0.500294
vn 0.789505 0.513161 -0.336671
vn 0.82586 0.190262 -0.530807
vn 0.864732 -0.0566726 -0.499025
vn 0.761888 0.501887 -0.409435
vn 0.705635 0.0870019 0.703214
vn 0.716384 0.597983 -0.359458
vn 0.000791427 0.929525 0.368759
vn 0.572561 -0.118004 0.811326
vn 0.61162 0.761806 -0.213475
vn 0.415726 -0.152822 0.896559
vn -0.291709 0.728272 0.620102
vn -0.376118 0.396893 -0.837264
vn 0.777504 0.451305 -0.437963
vn -0.433821 0.470188 -0.768585
vn -0.327352 0.825988 0.458895
vn 0.591916 0.792302 -0.147964
vn 0.110183 0.961951 0.250021
vn 0.562532 -0.427958 0.707396
vn 0.85666 0.150143 -0.493549
vn -0.0528906 -0.946084 -0.319575
vn -0.852567 -0.269742 0.447626
vn 0.624379 -0.63868 -0.449709
vn 0.566738 -0.266125 0.779734
vn -0.637232 -0.700991 0.320231
vn -0.710087 0.296094 0.63883
vn 0.295262 -0.146015 0.944193
vn -0.352042 0.379944 -0.8554
vn 0.812159 0.0513276 -0.581174
vn -0.630517 -0.755958 -0.175999
vn -0.391143 0.402694 -0.827553
vn -0.678365 -0.338114 -0.652303
vn -0.446965 -0.776831 -0.443571
vn -0.44036 0.398542 -0.804516
vn -0.916893 -0.280001 0.28444
vn -0.529407 0.399735 -0.748291
vn -0.710454 0.480841 0.513855
vn 0.158099 0.952564 0.260053
vn 0.666199 -0.0792998 0.741546
vn 0.782276 0.169186 0.599517
vn 0.0564702 0.793259 0.60626
vn 0.682766 0.194253 0.704341
vn 0.136588 0.937048 0.32138
vn -0.587802 0.424665 0.688584
vn 0.0249399 0.634898 0.772193
vn 0.771958 0.116263 -0.624951
vn 0.555617 0.694515 -0.457099
vn 0.551178 0.768338 -0.325361
vn -0.472404 0.635938 -0.610259
g grp1
usemtl mtl1
f 2//2 9//9 1//1 
f 1//1 15//15 2//2 
f 49//49 11//11 54//54 
f 6//6 23//23 3//3 
f 3//3 21//21 4//4 
f 21//21 20//20 4//4 
f 20//20 5//5 4//4 
f 4//4 5//5 7//7 
f 4//4 51//51 3//3 
f 6//6 3//3 8//8 
f 6//6 52//52 13//13 
f 13//13 29//29 6//6 
f 3//3 9//9 8//8 
f 13//13 52//52 16//16 
f 51//51 9//9 3//3 
f 9//9 2//2 8//8 
f 9//9 14//14 1//1 
f 14//14 9//9 10//10 
f 9//9 51//51 10//10 
f 12//12 10//10 5//5 
f 10//10 7//7 5//5 
f 10//10 12//12 53//53 
f 53//53 12//12 34//34 
f 50//50 33//33 12//12 
f 12//12 33//33 34//34 
f 39//39 11//11 69//69 
f 8//8 2//2 16//16 
f 31//31 13//13 19//19 
f 16//16 18//18 13//13 
f 13//13 56//56 19//19 
f 31//31 19//19 42//42 
f 14//14 10//10 1//1 
f 10//10 53//53 1//1 
f 39//39 54//54 11//11 
f 39//39 17//17 54//54 
f 55//55 2//2 15//15 
f 55//55 16//16 2//2 
f 39//39 41//41 17//17 
f 16//16 55//55 18//18 
f 17//17 41//41 57//57 
f 19//19 56//56 74//74 
f 19//19 74//74 42//42 
f 21//21 24//24 20//20 
f 58//58 61//61 43//43 
f 44//44 50//50 59//59 
f 76//76 44//44 59//59 
f 22//22 25//25 62//62 
f 63//63 21//21 60//60 
f 60//60 21//21 3//3 
f 60//60 3//3 23//23 
f 45//45 61//61 64//64 
f 22//22 26//26 25//25 
f 23//23 65//65 60//60 
f 6//6 65//65 23//23 
f 45//45 43//43 61//61 
f 45//45 64//64 27//27 
f 64//64 66//66 27//27 
f 66//66 28//28 27//27 
f 67//67 65//65 29//29 
f 67//67 29//29 13//13 
f 28//28 45//45 27//27 
f 29//29 65//65 6//6 
f 32//32 50//50 44//44 
f 31//31 30//30 46//46 
f 46//46 67//67 31//31 
f 68//68 30//30 31//31 
f 13//13 31//31 67//67 
f 32//32 33//33 50//50 
f 32//32 37//37 33//33 
f 32//32 40//40 37//37 
f 33//33 35//35 34//34 
f 70//70 36//36 69//69 
f 36//36 39//39 69//69 
f 37//37 35//35 33//33 
f 40//40 35//35 37//37 
f 31//31 38//38 68//68 
f 38//38 31//31 42//42 
f 42//42 71//71 38//38 
f 70//70 72//72 36//36 
f 73//73 38//38 71//71 
f 73//73 68//68 38//38 
f 72//72 39//39 36//36 
f 42//42 75//75 71//71 
f 44//44 77//77 78//78 
f 46//46 48//48 67//67 
f 47//47 78//78 48//48 
f 28//28 79//79 45//45 
f 30//30 48//48 46//46 
f 47//47 44//44 78//78 
f 32//32 44//44 47//47 
f 68//68 48//48 30//30 
f 47//47 48//48 68//68 
