#
# The license for this database is specified in the Creative Commons Attribution-Share Alike 2.1 Japan. If you use data from this database, please be sure attribute this database as follows: "BodyParts3D, (c)  The Database Center for Life Science licensed under CC Attribution-Share Alike 2.1 Japan".
# http://dbarchive.biosciencedbc.jp/en/bodyparts3d/lic.html
#
#
# Compatibility version : 4.0
# File ID : FJ2905
# Representation ID : BP9625
# Build-up logic : FMA 3.0 part_of
# Concept ID : FMA13279
# English name : Left anterior segmental artery
# Bounds(mm): (79.074000,-126.661000,1280.380000)-(82.964300,-112.894000,1283.780000)
# Volume(cm3): 0.027800
#
v 79.6224 -113.835 1281.15
v 79.4084 -114.751 1281.42
v 79.5365 -113.976 1281.73
v 79.931 -113.421 1280.86
v 79.7679 -113.448 1281.26
v 80.2361 -113.298 1280.71
v 80.2608 -113.006 1281.18
v 80.216 -113.039 1281.58
v 80.4687 -113.116 1280.84
v 80.5996 -113.446 1280.55
v 80.696 -113.18 1280.82
v 80.6825 -112.908 1281.26
v 80.6361 -112.894 1281.66
v 80.8584 -112.911 1281.68
v 80.8055 -113.002 1281.89
v 80.9639 -113.612 1280.63
v 81.05 -113.06 1281.29
v 81.1372 -113.05 1281.69
v 81.0072 -113.046 1281.88
v 81.3461 -113.261 1281.48
v 79.8407 -113.793 1280.77
v 79.7096 -114.271 1280.91
v 80.1513 -113.61 1280.56
v 80.3697 -113.642 1280.45
v 80.2326 -114.082 1280.48
v 80.5826 -113.692 1280.42
v 80.4829 -114.067 1280.38
v 80.3455 -114.567 1280.54
v 80.8621 -114.134 1280.44
v 80.7438 -114.571 1280.52
v 80.4405 -115.617 1281.03
v 79.8062 -113.576 1281.84
v 80.5425 -113.131 1282
v 80.3802 -113.683 1282.39
v 80.9413 -113.2 1282.06
v 80.7874 -113.752 1282.45
v 79.6532 -114.29 1282.32
v 79.6593 -115.544 1283
v 80.023 -114.885 1282.92
v 80.555 -114.448 1282.77
v 79.2344 -115.521 1282.41
v 79.5892 -116.503 1281.53
v 80.3797 -116.616 1281.45
v 79.1646 -117.083 1282.12
v 79.074 -117.525 1282.54
v 79.9706 -118.174 1281.8
v 80.0309 -115.652 1283.19
v 79.6702 -116.997 1283.44
v 80.3271 -116.05 1283.25
v 80.0289 -117.157 1283.53
v 79.3382 -117.476 1283.27
v 79.5817 -118.13 1283.57
v 79.4106 -118.936 1283.44
v 79.8176 -118.013 1283.65
v 79.3603 -119.848 1282.64
v 79.3173 -119.986 1283.04
v 81.3265 -113.549 1281.04
v 81.3805 -113.287 1281.69
v 81.3271 -113.319 1281.88
v 81.5919 -113.728 1281.43
v 81.4915 -113.583 1281.86
v 81.6142 -114.038 1281.81
v 81.2067 -114.309 1280.66
v 81.2937 -113.924 1280.77
v 81.0678 -114.782 1280.8
v 81.402 -114.64 1281.06
v 81.0138 -115.612 1281.42
v 81.5617 -114.257 1281.11
v 81.6303 -114.326 1281.35
v 81.4977 -114.764 1281.46
v 81.5921 -114.453 1281.74
v 81.2709 -113.506 1282.08
v 81.3434 -114.034 1282.2
v 81.0221 -114.347 1282.53
v 81.2142 -114.95 1282.4
v 81.3171 -115.315 1281.96
v 80.9193 -117.026 1282.15
v 80.7189 -118.073 1282.16
v 80.9343 -118.06 1282.62
v 79.8982 -119.202 1282.02
v 80.5724 -119.471 1282.19
v 80.535 -120.827 1282.21
v 80.4212 -117.339 1283.41
v 80.9066 -117.457 1282.89
v 80.1314 -119.015 1283.76
v 80.9178 -119.082 1282.61
v 79.5645 -120.583 1283.39
v 79.9387 -119.859 1283.78
v 80.648 -120.445 1283.71
v 81.0143 -120.574 1282.58
v 81.0368 -119.9 1283.1
v 79.5475 -120.966 1282.9
v 79.5986 -121.148 1283.1
v 79.9426 -121.726 1282.62
v 79.891 -120.885 1283.67
v 80.2757 -120.979 1282.22
v 79.9451 -122.125 1282.97
v 80.0897 -122.184 1283.37
v 80.4335 -122.658 1282.48
v 81.3193 -122.176 1283.5
v 81.693 -122.671 1282.9
v 80.9825 -122.978 1282.28
v 81.2073 -122.585 1282.33
v 81.3669 -123.132 1282.3
v 81.4744 -122.754 1282.44
v 81.1838 -124.835 1282.62
v 81.0652 -124.57 1283.06
v 80.6568 -122.009 1283.75
v 81.8133 -125.506 1282.21
v 81.6834 -125.909 1282.73
v 81.6576 -125.61 1283.1
v 82.3063 -125.396 1282.12
v 82.8236 -125.643 1282.51
v 82.5556 -126.013 1283.18
v 82.5165 -126.241 1283.14
v 82.8136 -126.108 1282.29
v 82.9305 -126.176 1282.44
v 82.9643 -126.222 1282.64
v 82.799 -125.706 1282.92
v 82.914 -126.264 1282.82
v 82.7681 -126.263 1283
v 81.9919 -126.193 1282.33
v 81.9344 -126.238 1282.88
v 82.088 -126.478 1282.67
v 82.4206 -126.181 1282.13
v 82.2853 -126.597 1282.47
v 82.287 -126.62 1282.67
v 82.2608 -126.522 1282.9
v 82.5117 -126.551 1282.32
v 82.4839 -126.661 1282.5
v 82.4759 -126.422 1283.05
v 82.4677 -126.567 1282.91
v 82.858 -126.369 1282.4
v 82.9106 -126.422 1282.61
v 82.7622 -126.581 1282.55
v 82.848 -126.454 1282.79
v 82.659 -126.622 1282.73
v 82.6879 -126.454 1282.97
v 81.5441 -124.922 1283.35
v 82.0681 -124.759 1283.37
v 82.173 -125.915 1283.24
v 82.1241 -126.134 1283.14
v 80.3797 -116.616 1281.45
v 81.0368 -119.9 1283.1
v 81.693 -122.671 1282.9
v 82.4206 -126.181 1282.13
v 82.5117 -126.551 1282.32
vn -0.914399 0.248925 -0.319235
vn -0.939133 0.0485769 -0.340102
vn -0.929316 0.347161 0.125902
vn -0.704022 0.517591 -0.486263
vn -0.809534 0.585426 -0.0439508
vn -0.337593 0.641923 -0.688451
vn -0.433662 0.869784 -0.235401
vn -0.547488 0.796229 0.257443
vn -0.0625051 0.802254 -0.593702
vn 0.109842 0.571568 -0.81317
vn 0.371035 0.698813 -0.61155
vn 0.115967 0.951876 -0.283696
vn -0.172311 0.956852 0.233971
vn 0.276891 0.951159 0.136481
vn 0.0489207 0.820869 0.569017
vn 0.500311 0.411018 -0.762072
vn 0.52665 0.784981 -0.326259
vn 0.594256 0.796371 0.112486
vn 0.395125 0.772141 0.49767
vn 0.755975 0.619608 -0.21116
vn -0.735811 0.149246 -0.660536
vn -0.771983 -0.0402769 -0.634365
vn -0.521002 0.296375 -0.800449
vn -0.239114 0.312904 -0.919193
vn -0.502106 -0.0670751 -0.862201
vn 0.171763 0.273715 -0.946349
vn -0.0991986 -0.0741334 -0.992302
vn -0.205272 -0.321501 -0.924392
vn 0.386258 0.0138299 -0.922287
vn 0.220487 -0.357513 -0.907508
vn 0.193482 -0.458664 -0.86729
vn -0.675272 0.587223 0.446293
vn -0.278608 0.711958 0.644588
vn -0.252274 0.536688 0.805186
vn 0.219855 0.606428 0.76414
vn 0.245054 0.422481 0.872616
vn -0.685745 0.426156 0.590037
vn -0.600308 0.289574 0.745505
vn -0.308599 0.398753 0.863576
vn 0.138883 0.330459 0.933546
vn -0.954817 0.188497 0.22977
vn -0.450949 -0.239993 -0.859679
vn -0.131087 -0.284593 -0.949644
vn -0.876062 -0.0878383 -0.47413
vn -0.997935 -0.0222821 0.0602459
vn 0.161167 -0.200786 -0.966287
vn -0.104347 0.271679 0.956714
vn -0.396337 0.194533 0.897259
vn 0.314413 0.195288 0.928982
vn 0.0867433 0.172787 0.981132
vn -0.79948 0.119185 0.58875
vn -0.524192 0.073807 0.848395
vn -0.792245 -0.0370709 0.609075
vn -0.196037 0.112248 0.974151
vn -0.867642 -0.189328 -0.45973
vn -0.97859 -0.155596 0.134726
vn 0.699017 0.499022 -0.512204
vn 0.817331 0.564111 0.117258
vn 0.647 0.580255 0.494667
vn 0.941196 0.28701 -0.178258
vn 0.85587 0.331508 0.396974
vn 0.951222 0.0506074 0.304328
vn 0.632837 -0.206251 -0.746309
vn 0.731643 0.196975 -0.652609
vn 0.526315 -0.45799 -0.716406
vn 0.793896 -0.374836 -0.478777
vn 0.715453 -0.439765 -0.542893
vn 0.882612 -0.0511211 -0.467315
vn 0.978146 -0.14724 -0.146801
vn 0.908594 -0.379764 -0.173887
vn 0.963438 -0.19701 0.181587
vn 0.569264 0.377605 0.73031
vn 0.730968 0.14996 0.665731
vn 0.540136 0.190515 0.81973
vn 0.834415 -0.0276661 0.550441
vn 0.964143 -0.265283 -0.00725706
vn 0.896364 -0.207997 -0.391496
vn 0.735009 -0.139062 -0.663644
vn 0.974342 -0.0246813 -0.223716
vn -0.316322 -0.177792 -0.931842
vn 0.525499 -0.0624424 -0.8485
vn 0.307607 0.0160634 -0.951378
vn 0.547715 0.113866 0.828881
vn 0.947128 0.00491101 0.320817
vn 0.14707 0.0917656 0.98486
vn 0.905822 0.00118316 -0.423657
vn -0.834819 -0.189692 0.516812
vn -0.252306 -0.00451084 0.967637
vn 0.499832 0.0946951 0.86093
vn 0.818033 0.125717 -0.561264
vn 0.977479 0.0870625 -0.192238
vn -0.938574 -0.273783 -0.210053
vn -0.935807 -0.286662 0.20516
vn -0.770237 -0.271969 -0.57686
vn -0.574699 -0.157125 0.803139
vn -0.204028 -0.128102 -0.970547
vn -0.927019 -0.372513 -0.0432489
vn -0.743913 -0.321945 0.585615
vn -0.551353 -0.211151 -0.807109
vn 0.778736 0.206954 0.592233
vn 0.863542 0.273607 -0.423597
vn -0.0949262 -0.0217297 -0.995247
vn 0.316453 0.0997486 -0.943349
vn 0.274181 0.156609 -0.948841
vn 0.626737 0.233139 -0.743536
vn -0.845946 -0.36919 -0.384803
vn -0.843765 -0.418496 0.336038
vn -0.141417 -0.125655 0.981943
vn -0.450387 -0.177242 -0.875064
vn -0.864509 -0.501936 0.0261649
vn -0.698575 -0.439411 0.564722
vn 0.286742 0.145249 -0.946933
vn 0.887959 0.307538 -0.341978
vn 0.423579 -0.0655817 0.903482
vn 0.179555 -0.350159 0.91932
vn 0.639738 0.03552 -0.767772
vn 0.919 0.00587136 -0.394213
vn 0.999489 -0.0301484 -0.0106608
vn 0.856952 0.195375 0.476929
vn 0.898112 -0.16731 0.406698
vn 0.646486 -0.209166 0.733693
vn -0.637003 -0.487008 -0.597538
vn -0.699332 -0.582504 0.414275
vn -0.708988 -0.70519 0.00664635
vn -0.310053 -0.272101 -0.910949
vn -0.457069 -0.80165 -0.385287
vn -0.301108 -0.940684 0.156359
vn -0.417976 -0.734083 0.53518
vn -0.313894 -0.635189 -0.705695
vn 0.0179439 -0.977392 -0.210674
vn -0.026429 -0.587215 0.809
vn 0.000776099 -0.845099 0.53461
vn 0.710266 -0.388934 -0.58673
vn 0.893336 -0.449248 -0.0112821
vn 0.562897 -0.800691 -0.205036
vn 0.72077 -0.576554 0.384808
vn 0.284824 -0.917723 0.276875
vn 0.407745 -0.597122 0.690789
vn -0.398104 -0.286875 0.87133
vn 0.34777 0.0127245 0.937494
vn -0.0495367 -0.229241 0.972108
vn -0.363141 -0.459743 0.81041
vn 0.584782 -0.307435 -0.750676
vn 0.819603 0.162074 0.54953
vn 0.919182 0.28765 0.269002
vn 0.380959 -0.208021 -0.900887
vn 0.396345 -0.634014 -0.66403
g grp1
usemtl mtl1
f 5//5 1//1 3//3 
f 1//1 2//2 3//3 
f 37//37 3//3 41//41 
f 4//4 23//23 21//21 
f 21//21 1//1 4//4 
f 5//5 4//4 1//1 
f 3//3 32//32 5//5 
f 4//4 6//6 23//23 
f 4//4 7//7 6//6 
f 7//7 4//4 5//5 
f 5//5 32//32 8//8 
f 6//6 10//10 24//24 
f 23//23 6//6 24//24 
f 7//7 12//12 9//9 
f 10//10 6//6 9//9 
f 6//6 7//7 9//9 
f 12//12 7//7 13//13 
f 7//7 8//8 13//13 
f 7//7 5//5 8//8 
f 10//10 26//26 24//24 
f 9//9 12//12 11//11 
f 11//11 10//10 9//9 
f 14//14 12//12 13//13 
f 32//32 33//33 8//8 
f 8//8 33//33 13//13 
f 10//10 11//11 16//16 
f 10//10 16//16 26//26 
f 13//13 15//15 14//14 
f 15//15 13//13 33//33 
f 11//11 12//12 17//17 
f 14//14 17//17 12//12 
f 19//19 14//14 15//15 
f 35//35 19//19 15//15 
f 33//33 35//35 15//15 
f 26//26 16//16 29//29 
f 18//18 17//17 14//14 
f 19//19 18//18 14//14 
f 18//18 19//19 59//59 
f 35//35 59//59 19//19 
f 35//35 72//72 59//59 
f 11//11 57//57 16//16 
f 16//16 64//64 29//29 
f 57//57 64//64 16//16 
f 20//20 17//17 18//18 
f 58//58 20//20 18//18 
f 58//58 18//18 59//59 
f 23//23 25//25 21//21 
f 21//21 25//25 22//22 
f 21//21 22//22 1//1 
f 1//1 22//22 2//2 
f 22//22 25//25 42//42 
f 24//24 27//27 25//25 
f 23//23 24//24 25//25 
f 26//26 27//27 24//24 
f 27//27 28//28 25//25 
f 28//28 42//42 25//25 
f 30//30 28//28 27//27 
f 26//26 29//29 27//27 
f 30//30 27//27 29//29 
f 30//30 31//31 28//28 
f 63//63 65//65 30//30 
f 63//63 30//30 29//29 
f 65//65 31//31 30//30 
f 67//67 31//31 65//65 
f 64//64 63//63 29//29 
f 42//42 28//28 31//31 
f 43//43 42//42 31//31 
f 67//67 143//143 31//31 
f 37//37 32//32 3//3 
f 34//34 32//32 37//37 
f 34//34 33//33 32//32 
f 35//35 33//33 34//34 
f 36//36 35//35 34//34 
f 36//36 34//34 40//40 
f 72//72 35//35 36//36 
f 74//74 72//72 36//36 
f 74//74 36//36 40//40 
f 3//3 2//2 41//41 
f 38//38 37//37 41//41 
f 39//39 40//40 34//34 
f 39//39 37//37 38//38 
f 39//39 34//34 37//37 
f 40//40 39//39 47//47 
f 47//47 39//39 38//38 
f 49//49 40//40 47//47 
f 49//49 74//74 40//40 
f 41//41 44//44 45//45 
f 41//41 45//45 51//51 
f 38//38 41//41 51//51 
f 2//2 22//22 42//42 
f 41//41 2//2 44//44 
f 2//2 42//42 44//44 
f 44//44 55//55 45//45 
f 80//80 44//44 42//42 
f 42//42 43//43 46//46 
f 80//80 42//42 46//46 
f 44//44 80//80 55//55 
f 38//38 51//51 48//48 
f 53//53 51//51 45//45 
f 38//38 48//48 47//47 
f 50//50 47//47 48//48 
f 49//49 47//47 50//50 
f 54//54 50//50 48//48 
f 83//83 74//74 49//49 
f 50//50 83//83 49//49 
f 52//52 48//48 51//51 
f 52//52 51//51 53//53 
f 48//48 52//52 54//54 
f 52//52 53//53 88//88 
f 54//54 52//52 88//88 
f 50//50 54//54 85//85 
f 88//88 85//85 54//54 
f 45//45 55//55 56//56 
f 45//45 56//56 53//53 
f 80//80 94//94 55//55 
f 55//55 92//92 56//56 
f 53//53 56//56 87//87 
f 57//57 60//60 64//64 
f 57//57 11//11 17//17 
f 60//60 57//57 20//20 
f 57//57 17//17 20//20 
f 20//20 58//58 60//60 
f 61//61 60//60 58//58 
f 59//59 61//61 58//58 
f 60//60 61//61 62//62 
f 61//61 59//59 72//72 
f 72//72 73//73 61//61 
f 61//61 73//73 62//62 
f 62//62 73//73 75//75 
f 60//60 62//62 69//69 
f 62//62 75//75 71//71 
f 63//63 64//64 68//68 
f 64//64 60//60 68//68 
f 68//68 66//66 63//63 
f 66//66 65//65 63//63 
f 66//66 67//67 65//65 
f 68//68 60//60 69//69 
f 66//66 68//68 69//69 
f 70//70 66//66 69//69 
f 67//67 66//66 70//70 
f 67//67 70//70 76//76 
f 62//62 71//71 69//69 
f 69//69 71//71 70//70 
f 70//70 71//71 76//76 
f 71//71 75//75 76//76 
f 77//77 67//67 76//76 
f 72//72 74//74 73//73 
f 73//73 74//74 75//75 
f 83//83 75//75 74//74 
f 77//77 143//143 67//67 
f 78//78 143//143 77//77 
f 76//76 75//75 84//84 
f 76//76 84//84 77//77 
f 77//77 84//84 79//79 
f 78//78 46//46 143//143 
f 77//77 79//79 78//78 
f 78//78 79//79 86//86 
f 81//81 78//78 86//86 
f 90//90 81//81 86//86 
f 46//46 78//78 81//81 
f 46//46 81//81 80//80 
f 80//80 81//81 82//82 
f 96//96 80//80 82//82 
f 50//50 85//85 83//83 
f 75//75 83//83 84//84 
f 86//86 79//79 91//91 
f 79//79 84//84 91//91 
f 89//89 84//84 83//83 
f 144//144 84//84 89//89 
f 88//88 53//53 95//95 
f 53//53 87//87 95//95 
f 56//56 93//93 87//87 
f 87//87 98//98 95//95 
f 88//88 95//95 108//108 
f 85//85 88//88 89//89 
f 88//88 108//108 89//89 
f 81//81 90//90 82//82 
f 89//89 83//83 85//85 
f 90//90 86//86 91//91 
f 82//82 90//90 105//105 
f 144//144 89//89 100//100 
f 94//94 92//92 55//55 
f 92//92 93//93 56//56 
f 96//96 99//99 80//80 
f 99//99 94//94 80//80 
f 92//92 97//97 93//93 
f 92//92 94//94 97//97 
f 97//97 98//98 93//93 
f 93//93 98//98 87//87 
f 95//95 98//98 108//108 
f 94//94 106//106 97//97 
f 139//139 98//98 107//107 
f 99//99 106//106 94//94 
f 96//96 82//82 102//102 
f 96//96 102//102 99//99 
f 108//108 98//98 139//139 
f 105//105 103//103 82//82 
f 82//82 103//103 102//102 
f 101//101 90//90 91//91 
f 90//90 101//101 105//105 
f 145//145 144//144 100//100 
f 140//140 100//100 89//89 
f 98//98 97//97 107//107 
f 103//103 104//104 102//102 
f 104//104 103//103 105//105 
f 145//145 100//100 119//119 
f 97//97 106//106 107//107 
f 106//106 110//110 107//107 
f 99//99 102//102 109//109 
f 99//99 109//109 106//106 
f 139//139 107//107 111//111 
f 140//140 89//89 108//108 
f 140//140 108//108 139//139 
f 105//105 112//112 104//104 
f 140//140 119//119 100//100 
f 107//107 110//110 111//111 
f 104//104 112//112 102//102 
f 109//109 122//122 106//106 
f 122//122 124//124 110//110 
f 106//106 122//122 110//110 
f 111//111 123//123 142//142 
f 111//111 110//110 123//123 
f 123//123 110//110 124//124 
f 102//102 112//112 109//109 
f 113//113 112//112 105//105 
f 112//112 125//125 109//109 
f 105//105 101//101 113//113 
f 114//114 119//119 140//140 
f 114//114 141//141 115//115 
f 142//142 115//115 141//141 
f 142//142 131//131 115//115 
f 116//116 112//112 113//113 
f 146//146 112//112 116//116 
f 116//116 133//133 146//146 
f 118//118 113//113 119//119 
f 113//113 145//145 119//119 
f 121//121 119//119 114//114 
f 114//114 115//115 121//121 
f 121//121 115//115 138//138 
f 115//115 131//131 138//138 
f 117//117 116//116 113//113 
f 133//133 116//116 117//117 
f 113//113 118//118 117//117 
f 117//117 118//118 133//133 
f 133//133 118//118 134//134 
f 118//118 119//119 120//120 
f 118//118 120//120 134//134 
f 134//134 120//120 136//136 
f 119//119 121//121 120//120 
f 120//120 121//121 136//136 
f 136//136 121//121 138//138 
f 122//122 126//126 124//124 
f 125//125 122//122 109//109 
f 122//122 125//125 129//129 
f 129//129 126//126 122//122 
f 127//127 124//124 126//126 
f 128//128 123//123 124//124 
f 127//127 128//128 124//124 
f 128//128 142//142 123//123 
f 130//130 126//126 129//129 
f 130//130 127//127 126//126 
f 128//128 127//127 132//132 
f 131//131 142//142 128//128 
f 132//132 131//131 128//128 
f 133//133 147//147 146//146 
f 147//147 135//135 130//130 
f 135//135 137//137 130//130 
f 137//137 127//127 130//130 
f 137//137 132//132 127//127 
f 138//138 131//131 132//132 
f 147//147 133//133 135//135 
f 135//135 133//133 134//134 
f 134//134 136//136 135//135 
f 135//135 136//136 137//137 
f 132//132 137//137 138//138 
f 138//138 137//137 136//136 
f 111//111 142//142 139//139 
f 140//140 139//139 141//141 
f 139//139 142//142 141//141 
f 141//141 114//114 140//140 
