#
# The license for this database is specified in the Creative Commons Attribution-Share Alike 2.1 Japan. If you use data from this database, please be sure attribute this database as follows: "BodyParts3D, (c)  The Database Center for Life Science licensed under CC Attribution-Share Alike 2.1 Japan".
# http://dbarchive.biosciencedbc.jp/en/bodyparts3d/lic.html
#
#
# Compatibility version : 4.0
# File ID : FJ1709M
# Representation ID : BP9322
# Build-up logic : FMA 3.0 part_of
# Concept ID : FMA50520
# English name : Left posterior inferior cerebellar artery
# Bounds(mm): (46.941300,-56.847000,1502.110000)-(51.372600,-50.485800,1511.500000)
# Volume(cm3): 0.022700
#
v 50.6757 -55.4017 1510.55
v 51.1929 -53.8282 1507.75
v 50.7977 -53.7235 1507.4
v 51.3195 -54.4017 1509.15
v 51.3726 -54.0017 1508.75
v 51.1205 -54.8199 1509.77
v 51.1929 -54.6217 1509.75
v 51.1684 -54.2092 1508.51
v 50.9929 -54.6939 1509.35
v 50.7976 -54.4017 1509.35
v 50.9977 -54.3784 1509.67
v 50.9163 -54.0017 1508.35
v 50.9929 -53.7525 1508.55
v 50.7929 -55.2017 1510.1
v 50.6537 -55.0017 1509.95
v 50.7929 -55.0017 1510.46
v 50.7929 -54.6017 1509.99
v 50.5242 -53.6045 1506.61
v 51.1929 -53.5345 1508.15
v 50.9929 -53.4017 1507.87
v 50.8199 -53.2017 1506.75
v 50.7226 -53.6017 1507.55
v 50.5929 -53.147 1506.95
v 50.3929 -55.6017 1510.56
v 50.1288 -55.4017 1510.55
v 49.9941 -55.8976 1510.93
v 49.9838 -55.7893 1511.07
v 49.7929 -55.8069 1510.75
v 49.5432 -56.0946 1510.96
v 49.5688 -56.1102 1511.15
v 49.6157 -55.653 1510.93
v 49.6475 -55.7649 1511.21
v 49.3929 -56.0017 1511.33
v 49.3077 -55.8017 1511.15
v 49.1604 -56.0204 1510.94
v 49.1929 -56.0017 1511.35
v 48.9929 -56.3931 1511.15
v 48.8243 -56.3898 1511.35
v 50.3929 -55.197 1510.75
v 49.643 -53.1835 1505.11
v 49.2804 -53.4094 1504.91
v 49.066 -53.3804 1505
v 48.9163 -53.0017 1504.15
v 49.3929 -52.9001 1505.35
v 49.0623 -53.0373 1505.27
v 50.299 -53.3853 1506.82
v 47.7929 -56.847 1511.35
v 48.7929 -56.0448 1511.15
v 48.3929 -56.4017 1511.06
v 48.4226 -56.3921 1511.46
v 48.2237 -56.3924 1511.46
v 48.0075 -56.6533 1511.16
v 47.9929 -56.6017 1511.5
v 47.852 -56.4017 1511.35
v 47.5929 -56.8017 1511.25
v 47.5312 -56.8017 1511.35
v 47.5929 -56.8017 1511.42
v 47.5929 -56.6017 1511.15
v 47.5929 -56.6017 1511.47
v 48.2976 -52.2017 1503.15
v 47.7195 -52.2017 1503.15
v 48.7929 -53.2845 1504.35
v 48.4038 -53.0017 1504.35
v 48.5929 -52.5658 1504.15
v 48.3261 -52.9537 1503.92
v 48.3929 -52.7996 1503.55
v 47.8882 -52.4017 1503.55
v 48.1319 -51.7916 1503.16
v 47.7929 -51.8017 1502.63
v 47.6611 -51.6017 1503.15
v 47.8062 -51.4415 1502.54
v 47.78 -51.214 1502.56
v 47.5929 -51.8434 1503.15
v 47.4257 -51.6017 1502.95
v 47.5869 -51.2692 1502.36
v 47.5841 -50.8368 1502.57
v 47.3929 -51.5458 1502.55
v 47.3998 -50.8176 1502.21
v 47.4113 -50.8475 1502.75
v 47.3982 -50.5823 1502.36
v 47.3783 -50.5872 1502.54
v 47.0192 -51.0017 1502.35
v 47.2096 -50.9354 1502.76
v 47.1929 -50.8017 1502.11
v 47.1929 -50.6017 1502.16
v 47.1912 -50.4858 1502.36
v 46.9929 -50.8017 1502.23
v 46.9413 -50.8017 1502.55
v 46.9507 -50.6017 1502.35
v 46.9929 -50.6017 1502.56
v 50.6757 -55.4017 1510.55
v 50.6757 -55.4017 1510.55
v 50.6757 -55.4017 1510.55
v 51.1929 -53.8282 1507.75
v 51.1929 -53.8282 1507.75
v 51.1929 -53.8282 1507.75
v 50.7977 -53.7235 1507.4
v 51.3195 -54.4017 1509.15
v 51.3195 -54.4017 1509.15
v 51.3726 -54.0017 1508.75
v 51.3726 -54.0017 1508.75
v 51.3726 -54.0017 1508.75
v 51.1205 -54.8199 1509.77
v 51.1929 -54.6217 1509.75
v 51.1684 -54.2092 1508.51
v 50.9929 -54.6939 1509.35
v 50.9929 -54.6939 1509.35
v 50.7976 -54.4017 1509.35
v 50.7976 -54.4017 1509.35
v 50.7976 -54.4017 1509.35
v 50.9977 -54.3784 1509.67
v 50.9163 -54.0017 1508.35
v 50.9163 -54.0017 1508.35
v 50.9929 -53.7525 1508.55
v 50.9929 -53.7525 1508.55
v 50.9929 -53.7525 1508.55
v 50.7929 -55.2017 1510.1
v 50.6537 -55.0017 1509.95
v 50.6537 -55.0017 1509.95
v 50.7929 -55.0017 1510.46
v 50.7929 -55.0017 1510.46
v 50.7929 -54.6017 1509.99
v 50.7929 -54.6017 1509.99
v 50.7929 -54.6017 1509.99
v 50.7929 -54.6017 1509.99
v 50.5242 -53.6045 1506.61
v 50.5242 -53.6045 1506.61
v 50.5242 -53.6045 1506.61
v 51.1929 -53.5345 1508.15
v 51.1929 -53.5345 1508.15
v 50.9929 -53.4017 1507.87
v 50.9929 -53.4017 1507.87
v 50.8199 -53.2017 1506.75
v 50.8199 -53.2017 1506.75
v 50.7226 -53.6017 1507.55
v 50.7226 -53.6017 1507.55
v 50.5929 -53.147 1506.95
v 50.3929 -55.6017 1510.56
v 50.3929 -55.6017 1510.56
v 50.1288 -55.4017 1510.55
v 50.1288 -55.4017 1510.55
v 50.1288 -55.4017 1510.55
v 49.9941 -55.8976 1510.93
v 49.9941 -55.8976 1510.93
v 49.9941 -55.8976 1510.93
v 49.9838 -55.7893 1511.07
v 49.7929 -55.8069 1510.75
v 49.7929 -55.8069 1510.75
v 49.5432 -56.0946 1510.96
v 49.6157 -55.653 1510.93
v 49.6157 -55.653 1510.93
v 49.6157 -55.653 1510.93
v 49.6475 -55.7649 1511.21
v 49.3929 -56.0017 1511.33
v 49.3929 -56.0017 1511.33
v 49.3929 -56.0017 1511.33
v 49.3077 -55.8017 1511.15
v 49.1604 -56.0204 1510.94
v 49.1604 -56.0204 1510.94
v 49.1929 -56.0017 1511.35
v 49.1929 -56.0017 1511.35
v 48.9929 -56.3931 1511.15
v 50.3929 -55.197 1510.75
v 50.3929 -55.197 1510.75
v 50.3929 -55.197 1510.75
v 49.643 -53.1835 1505.11
v 49.2804 -53.4094 1504.91
v 49.066 -53.3804 1505
v 48.9163 -53.0017 1504.15
v 48.9163 -53.0017 1504.15
v 49.3929 -52.9001 1505.35
v 49.0623 -53.0373 1505.27
v 50.299 -53.3853 1506.82
v 47.7929 -56.847 1511.35
v 47.7929 -56.847 1511.35
v 48.7929 -56.0448 1511.15
v 48.7929 -56.0448 1511.15
v 48.3929 -56.4017 1511.06
v 48.4226 -56.3921 1511.46
v 47.9929 -56.6017 1511.5
v 47.852 -56.4017 1511.35
v 47.5929 -56.8017 1511.25
v 47.5929 -56.8017 1511.25
v 47.5312 -56.8017 1511.35
v 47.5312 -56.8017 1511.35
v 47.5312 -56.8017 1511.35
v 47.5929 -56.8017 1511.42
v 47.5929 -56.8017 1511.42
v 47.5929 -56.6017 1511.15
v 47.5929 -56.6017 1511.15
v 47.5929 -56.6017 1511.15
v 47.5929 -56.6017 1511.15
v 47.5929 -56.6017 1511.47
v 47.5929 -56.6017 1511.47
v 47.5929 -56.6017 1511.47
v 47.5929 -56.6017 1511.47
v 47.7195 -52.2017 1503.15
v 48.7929 -53.2845 1504.35
v 48.7929 -53.2845 1504.35
v 48.4038 -53.0017 1504.35
v 48.4038 -53.0017 1504.35
v 48.4038 -53.0017 1504.35
v 48.5929 -52.5658 1504.15
v 48.5929 -52.5658 1504.15
v 48.5929 -52.5658 1504.15
v 48.3261 -52.9537 1503.92
v 48.3929 -52.7996 1503.55
v 47.8882 -52.4017 1503.55
v 48.1319 -51.7916 1503.16
v 47.7929 -51.8017 1502.63
v 47.6611 -51.6017 1503.15
v 47.6611 -51.6017 1503.15
v 47.5929 -51.8434 1503.15
v 47.4257 -51.6017 1502.95
v 47.5869 -51.2692 1502.36
v 47.5841 -50.8368 1502.57
v 47.3929 -51.5458 1502.55
v 47.3783 -50.5872 1502.54
v 47.3783 -50.5872 1502.54
v 47.0192 -51.0017 1502.35
v 47.2096 -50.9354 1502.76
v 47.1929 -50.8017 1502.11
v 47.1929 -50.8017 1502.11
v 47.1929 -50.6017 1502.16
v 47.1929 -50.6017 1502.16
v 47.1912 -50.4858 1502.36
v 47.1912 -50.4858 1502.36
v 47.1912 -50.4858 1502.36
v 47.1912 -50.4858 1502.36
v 46.9929 -50.8017 1502.23
v 46.9929 -50.8017 1502.23
v 46.9413 -50.8017 1502.55
v 46.9507 -50.6017 1502.35
v 46.9507 -50.6017 1502.35
v 46.9507 -50.6017 1502.35
v 46.9929 -50.6017 1502.56
v 46.9929 -50.6017 1502.56
v 46.9929 -50.6017 1502.56
vn 0.612081 -0.780557 -0.126837
vn 0.763241 -0.379847 -0.522665
vn -0.0153111 -0.96305 -0.268886
vn 0.533715 -0.765846 -0.358649
vn 0.961816 0.11887 0.246536
vn 0.54455 -0.775924 -0.318445
vn 0.957629 -0.175217 0.228574
vn 0.421457 -0.819268 -0.38881
vn -0.310653 -0.792523 -0.524788
vn -0.737952 -0.49323 -0.460598
vn 0.350718 0.750759 0.559785
vn -0.616965 -0.743478 -0.258058
vn -0.972419 0.18722 0.139103
vn 0.590887 -0.768101 -0.246725
vn -0.415557 -0.609418 -0.67522
vn 0.900618 -0.237112 0.364233
vn -0.943222 0.318953 0.0927446
vn 0.722087 -0.43824 -0.535291
vn 0.959853 0.226105 -0.166008
vn -0.766583 0.470536 0.436973
vn 0.759039 -0.372977 -0.533617
vn -0.797224 -0.597713 0.0846881
vn 0.275982 0.959822 0.0507474
vn 0.570239 -0.812414 -0.121701
vn -0.301632 -0.440618 -0.845502
vn 0.628637 -0.596238 0.499315
vn 0.459278 0.0991508 0.882742
vn 0.105756 -0.711589 -0.694591
vn 0.078519 -0.569375 -0.818319
vn 0.494055 -0.781039 0.381953
vn -0.52698 0.834927 -0.158714
vn 0.388087 0.132843 0.911999
vn 0.446618 -0.510719 0.734642
vn -0.482252 0.752134 -0.449142
vn -0.397993 0.471297 -0.787071
vn 0.184352 -0.187237 0.964861
vn 0.154335 -0.676812 -0.719796
vn 0.326117 -0.561836 0.760255
vn 0.525775 0.0880366 0.846056
vn 0.632901 0.692568 -0.346101
vn 0.594309 -0.571669 -0.565679
vn -0.304664 -0.952366 0.0133745
vn 0.567467 -0.540269 -0.621362
vn 0.473037 0.856962 -0.20458
vn -0.556817 0.64267 0.526241
vn -0.664695 -0.685821 0.296362
vn 0.171368 -0.783566 -0.597209
vn -0.334607 0.627205 -0.703314
vn 0.0551293 -0.462607 -0.884848
vn 0.263269 -0.313294 0.912434
vn -0.124301 0.423249 0.897446
vn 0.0851672 -0.593409 -0.800382
vn 0.161106 -0.480604 0.862012
vn -0.514214 0.839877 -0.173754
vn 0.049798 -0.625214 -0.778863
vn -0.170519 -0.985107 0.0220982
vn 0.0351399 -0.430788 0.901769
vn -0.0320233 -0.388314 -0.92097
vn -0.0726453 -0.24156 0.967663
vn 0.810013 -0.0234016 -0.585945
vn -0.88943 -0.428196 0.159882
vn 0.484797 -0.63603 -0.600365
vn -0.748534 -0.41449 0.517586
vn 0.685187 0.647066 -0.334402
vn -0.354065 -0.839361 -0.412445
vn 0.523125 -0.485839 -0.700215
vn -0.850691 -0.513303 0.113334
vn 0.884235 0.454834 -0.106088
vn 0.521032 -0.29951 -0.799262
vn -0.695623 0.107021 0.710391
vn 0.684142 -0.037344 -0.728393
vn 0.853133 0.293278 -0.431454
vn -0.901454 -0.318522 0.293128
vn -0.882979 -0.452869 0.123522
vn 0.590943 -0.0388811 -0.805776
vn 0.848394 0.525569 -0.0632842
vn -0.240271 -0.578701 -0.779342
vn 0.623007 0.185807 -0.759828
vn 0.178193 0.561872 0.807804
vn 0.69878 0.646195 -0.30682
vn 0.581221 0.547814 0.601733
vn -0.904218 -0.426839 -0.014061
vn -0.149155 0.42737 0.891688
vn -0.30802 -0.531093 -0.789344
vn 0.500264 0.505618 -0.702913
vn 0.376065 0.800771 -0.466198
vn -0.444629 -0.503094 -0.741081
vn -0.989056 -0.147535 0.00103803
vn -0.9978 0.0640379 0.0171382
vn -0.0525886 0.663216 0.746578
vn 0.906494 -0.179534 0.382147
vn 0.587283 0.0210205 0.809109
vn 0.67522 -0.562555 0.477085
vn 0.184504 -0.931727 -0.312799
vn 0.911695 -0.344676 -0.223632
vn 0.959853 0.226105 -0.166008
vn -0.709551 -0.704119 0.0274576
vn 0.979805 -0.111893 0.165715
vn 0.911695 -0.344676 -0.223632
vn 0.911695 -0.344676 -0.223632
vn 0.495066 0.713246 0.496175
vn 0.97114 0.192256 -0.141156
vn 0.923189 -0.272988 0.270552
vn 0.542351 0.628602 0.557418
vn -0.4456 -0.821979 -0.354671
vn 0.473631 -0.792874 -0.383437
vn -0.634116 -0.578393 -0.513185
vn -0.95655 0.291552 0.00307574
vn -0.584365 0.747741 0.315279
vn -0.943222 0.318953 0.0927446
vn -0.584365 0.747741 0.315279
vn -0.972419 0.18722 0.139103
vn -0.791618 -0.529099 -0.305605
vn -0.768279 0.568886 0.293455
vn -0.0119269 0.880508 0.473881
vn -0.659636 0.654247 0.369921
vn -0.283412 -0.693848 -0.662006
vn -0.943222 0.318953 0.0927446
vn -0.808514 0.330122 -0.487159
vn 0.268332 0.718609 0.64156
vn 0.583095 0.0121039 0.812314
vn -0.498931 0.82823 0.255153
vn 0.145392 0.753426 0.641256
vn -0.808514 0.330122 -0.487159
vn -0.68678 0.70202 0.188417
vn -0.184607 -0.97922 -0.0839527
vn -0.569313 -0.791976 0.220583
vn -0.139049 -0.990214 -0.0118981
vn 0.128912 0.863625 0.487374
vn 0.465352 0.880992 0.0854405
vn 0.398097 0.911731 0.101318
vn -0.0516967 0.887537 0.457828
vn 0.946752 0.259526 -0.190546
vn 0.395157 0.917476 -0.0457017
vn -0.959465 0.0773379 0.271008
vn -0.806702 0.411055 0.424577
vn -0.594728 0.617184 0.515153
vn -0.260057 -0.521081 -0.812924
vn 0.11202 -0.831374 -0.544306
vn -0.808514 0.330122 -0.487159
vn -0.619693 0.784698 0.0151651
vn -0.637732 0.156495 -0.754193
vn 0.576361 -0.816574 -0.0318683
vn 0.190754 -0.774179 -0.60354
vn 0.390156 -0.911774 -0.128246
vn 0.588328 -0.555967 0.587172
vn -0.52838 0.320271 -0.786283
vn -0.192658 -0.301144 -0.933914
vn 0.413486 -0.901107 -0.130521
vn -0.286553 0.878031 0.383339
vn -0.52838 0.320271 -0.786283
vn -0.594428 0.727137 -0.343406
vn -0.266298 0.807471 0.52638
vn 0.385664 0.0451484 0.921534
vn 0.0990348 -0.106511 0.989367
vn -0.0671053 0.651365 0.755791
vn -0.169455 0.761204 0.625982
vn -0.0407636 -0.415183 -0.908824
vn -0.462566 0.716029 -0.522815
vn -0.197037 0.785791 0.586267
vn -0.000376073 0.272429 0.962176
vn 0.421402 -0.884714 0.199253
vn -0.619693 0.784698 0.0151651
vn 0.0976914 0.757876 0.645043
vn -0.400829 0.834175 0.378798
vn 0.678174 -0.483032 -0.553859
vn -0.152491 -0.98735 -0.0434377
vn -0.683486 -0.561243 0.466748
vn 0.719193 0.533581 -0.445032
vn 0.866553 0.491692 -0.0855853
vn -0.428632 0.771777 0.469717
vn -0.751515 -0.412422 0.514912
vn -0.721192 0.427846 0.544821
vn 0.28164 -0.727518 0.625617
vn -0.170519 -0.985107 0.0220982
vn -0.315341 0.835041 0.45085
vn -0.395847 0.852965 -0.340228
vn -0.317057 0.550095 -0.772574
vn -0.000317429 0.229946 0.973203
vn -0.111004 0.412641 0.904105
vn -0.210159 0.687022 0.695582
vn -0.169624 -0.979933 -0.104682
vn -0.8231 -0.253921 -0.507968
vn -0.8231 -0.253921 -0.507968
vn -0.955564 0.294785 0
vn -0.740499 -0.162773 0.652048
vn -0.168669 -0.974419 0.148522
vn -0.740499 -0.162773 0.652048
vn -0.210961 0.454577 -0.865364
vn -0.514214 0.839877 -0.173754
vn -0.8231 -0.253921 -0.507968
vn -0.955564 0.294785 0
vn -0.0614657 0.570855 0.818747
vn -0.955564 0.294785 0
vn -0.740499 -0.162773 0.652048
vn -0.611037 0.791602 0
vn -0.366316 -0.754616 -0.544396
vn -0.4579 -0.88871 0.0228627
vn -0.246405 -0.878492 -0.409312
vn -0.667115 -0.741178 0.0749209
vn -0.519082 0.532035 0.66895
vn -0.821767 0.0505271 0.567579
vn -0.493064 0.614017 0.616337
vn 0.799727 0.593331 0.0916254
vn 0.317376 0.813031 0.488112
vn -0.736708 -0.674874 0.0425042
vn -0.335653 -0.809967 -0.480927
vn -0.743336 0.118201 0.658392
vn 0.354376 0.675289 0.64684
vn -0.261664 -0.65941 -0.704777
vn 0.125037 0.613489 0.779742
vn -0.328925 0.507891 0.79615
vn -0.643964 0.181704 0.743165
vn -0.630022 0.075869 0.772862
vn -0.103019 -0.503014 -0.858117
vn 0.555156 0.596931 0.579202
vn -0.863561 -0.504244 0.000348877
vn 0.606058 0.790756 0.0860158
vn -0.00123047 0.760965 0.648792
vn -0.420469 -0.523791 -0.740843
vn -0.607808 0.051578 0.792407
vn 0.442172 0.0463902 -0.89573
vn -0.503028 0.209808 -0.838417
vn -0.545401 0.267608 -0.794307
vn -0.370365 0.79987 -0.472268
vn 0.421188 0.904331 0.0691817
vn -0.0122121 0.872872 0.487797
vn -0.370365 0.79987 -0.472268
vn -0.434739 0.896312 0.0873314
vn -0.545401 0.267608 -0.794307
vn -0.973521 -0.166205 -0.156951
vn -0.586942 0.072161 0.806407
vn -0.583912 0.323512 -0.744572
vn -0.370365 0.79987 -0.472268
vn -0.434739 0.896312 0.0873314
vn -0.952669 0.236216 0.191374
vn -0.573707 0.107381 0.811991
vn -0.434739 0.896312 0.0873314
g grp1
usemtl mtl1
f 14//14 1//1 24//24 
f 117//117 138//138 15//15 
f 15//15 138//138 25//25 
f 18//18 21//21 2//2 
f 94//94 3//3 126//126 
f 94//94 8//8 3//3 
f 97//97 12//12 22//22 
f 112//112 13//13 135//135 
f 20//20 136//136 114//114 
f 8//8 4//4 6//6 
f 103//103 98//98 7//7 
f 94//94 4//4 8//8 
f 98//98 5//5 7//7 
f 95//95 100//100 99//99 
f 101//101 11//11 104//104 
f 19//19 102//102 96//96 
f 101//101 129//129 11//11 
f 7//7 16//16 103//103 
f 12//12 105//105 9//9 
f 8//8 6//6 106//106 
f 104//104 11//11 120//120 
f 105//105 12//12 97//97 
f 115//115 11//11 129//129 
f 107//107 10//10 113//113 
f 112//112 108//108 13//13 
f 111//111 116//116 109//109 
f 107//107 15//15 10//10 
f 118//118 17//17 110//110 
f 122//122 111//111 109//109 
f 6//6 1//1 14//14 
f 103//103 16//16 91//91 
f 14//14 106//106 6//6 
f 123//123 120//120 11//11 
f 15//15 107//107 117//117 
f 92//92 121//121 39//39 
f 92//92 39//39 27//27 
f 140//140 124//124 119//119 
f 163//163 125//125 141//141 
f 120//120 123//123 164//164 
f 127//127 97//97 46//46 
f 133//133 19//19 96//96 
f 134//134 131//131 130//130 
f 115//115 129//129 132//132 
f 97//97 22//22 46//46 
f 20//20 173//173 136//136 
f 131//131 134//134 23//23 
f 20//20 137//137 173//173 
f 146//146 26//26 93//93 
f 143//143 24//24 1//1 
f 39//39 32//32 27//27 
f 163//163 141//141 31//31 
f 150//150 153//153 165//165 
f 28//28 144//144 29//29 
f 142//142 147//147 151//151 
f 138//138 148//148 25//25 
f 144//144 28//28 139//139 
f 30//30 149//149 145//145 
f 30//30 26//26 146//146 
f 146//146 33//33 30//30 
f 27//27 32//32 154//154 
f 147//147 35//35 151//151 
f 28//28 29//29 158//158 
f 33//33 38//38 30//30 
f 38//38 155//155 36//36 
f 34//34 152//152 159//159 
f 157//157 160//160 156//156 
f 157//157 153//153 150//150 
f 157//157 156//156 153//153 
f 29//29 37//37 49//49 
f 30//30 162//162 149//149 
f 38//38 162//162 30//30 
f 158//158 29//29 49//49 
f 38//38 36//36 50//50 
f 178//178 48//48 159//159 
f 48//48 34//34 159//159 
f 176//176 160//160 157//157 
f 64//64 44//44 40//40 
f 43//43 166//166 41//41 
f 41//41 166//166 18//18 
f 64//64 40//40 169//169 
f 62//62 43//43 41//41 
f 203//203 45//45 171//171 
f 198//198 167//167 42//42 
f 134//134 44//44 23//23 
f 127//127 46//46 168//168 
f 21//21 18//18 166//166 
f 40//40 44//44 134//134 
f 168//168 46//46 172//172 
f 173//173 137//137 45//45 
f 167//167 128//128 42//42 
f 63//63 168//168 172//172 
f 137//137 171//171 45//45 
f 52//52 47//47 55//55 
f 53//53 57//57 174//174 
f 175//175 56//56 182//182 
f 175//175 187//187 56//56 
f 38//38 174//174 162//162 
f 38//38 53//53 174//174 
f 50//50 53//53 38//38 
f 180//180 179//179 51//51 
f 51//51 179//179 161//161 
f 52//52 37//37 47//47 
f 58//58 49//49 52//52 
f 49//49 37//37 52//52 
f 189//189 48//48 178//178 
f 54//54 177//177 190//190 
f 181//181 160//160 176//176 
f 181//181 51//51 160//160 
f 180//180 51//51 181//181 
f 55//55 58//58 52//52 
f 57//57 53//53 59//59 
f 193//193 180//180 181//181 
f 183//183 184//184 191//191 
f 185//185 194//194 192//192 
f 188//188 195//195 186//186 
f 190//190 196//196 54//54 
f 66//66 60//60 43//43 
f 60//60 68//68 170//170 
f 67//67 73//73 61//61 
f 208//208 70//70 213//213 
f 200//200 198//198 42//42 
f 170//170 68//68 204//204 
f 62//62 66//66 43//43 
f 45//45 203//203 201//201 
f 209//209 211//211 205//205 
f 212//212 201//201 203//203 
f 199//199 65//65 207//207 
f 200//200 206//206 198//198 
f 207//207 65//65 197//197 
f 202//202 70//70 208//208 
f 61//61 206//206 67//67 
f 206//206 200//200 67//67 
f 69//69 60//60 66//66 
f 71//71 60//60 69//69 
f 72//72 60//60 71//71 
f 72//72 68//68 60//60 
f 207//207 197//197 210//210 
f 211//211 209//209 79//79 
f 75//75 72//72 71//71 
f 75//75 71//71 69//69 
f 68//68 72//72 76//76 
f 216//216 79//79 209//209 
f 210//210 197//197 77//77 
f 74//74 217//217 61//61 
f 70//70 214//214 213//213 
f 74//74 61//61 73//73 
f 77//77 215//215 210//210 
f 78//78 72//72 75//75 
f 80//80 72//72 78//78 
f 72//72 80//80 76//76 
f 79//79 216//216 81//81 
f 80//80 218//218 76//76 
f 217//217 74//74 82//82 
f 77//77 84//84 215//215 
f 222//222 78//78 75//75 
f 83//83 211//211 79//79 
f 214//214 70//70 221//221 
f 222//222 85//85 78//78 
f 78//78 85//85 80//80 
f 83//83 79//79 90//90 
f 90//90 79//79 219//219 
f 86//86 80//80 85//85 
f 80//80 226//226 218//218 
f 90//90 219//219 227//227 
f 77//77 220//220 84//84 
f 74//74 88//88 82//82 
f 84//84 220//220 87//87 
f 232//232 214//214 221//221 
f 230//230 224//224 223//223 
f 82//82 88//88 231//231 
f 89//89 231//231 88//88 
f 224//224 230//230 233//233 
f 88//88 236//236 89//89 
f 221//221 237//237 232//232 
f 234//234 228//228 225//225 
f 238//238 229//229 235//235 
