#
# The license for this database is specified in the Creative Commons Attribution-Share Alike 2.1 Japan. If you use data from this database, please be sure attribute this database as follows: "BodyParts3D, (c)  The Database Center for Life Science licensed under CC Attribution-Share Alike 2.1 Japan".
# http://dbarchive.biosciencedbc.jp/en/bodyparts3d/lic.html
#
#
# Compatibility version : 4.0
# File ID : FJ2920
# Representation ID : BP9511
# Build-up logic : FMA 3.0 part_of
# Concept ID : FMA8647
# English name : Left posterior basal segmental artery
# Bounds(mm): (55.731900,-45.687400,1160.180100)-(67.971300,-28.667100,1201.180100)
# Volume(cm3): 0.196200
#
v 65.3139 -44.9096 1198.74
v 65.8344 -45.3389 1199.2
v 66.4909 -45.6874 1199.54
v 66.1826 -45.5808 1199.84
v 65.1968 -44.9009 1199.76
v 67.0204 -45.5128 1199.36
v 67.9713 -44.5706 1199.64
v 66.9089 -45.3428 1199.69
v 65.5176 -44.9138 1200.51
v 65.0264 -44.3185 1200.16
v 65.0162 -43.8504 1200.22
v 65.6452 -43.723 1201.18
v 63.6218 -41.9015 1192.95
v 67.8492 -44.3109 1199.87
v 67.5262 -43.4633 1198.75
v 67.619 -43.2623 1199.54
v 67.9345 -43.7217 1200.15
v 67.6338 -43.6191 1200.35
v 67.1215 -42.6477 1199.12
v 67.7254 -43.4308 1200.42
v 66.8567 -42.6745 1199.94
v 65.9557 -43.2795 1201.03
v 67.0098 -43.1647 1200.88
v 66.315 -42.6885 1200.24
v 61.956 -39.573 1188.56
v 62.4456 -39.5234 1188.58
v 63.1728 -39.5138 1189.17
v 61.4719 -39.8351 1190.06
v 61.9819 -40.3549 1190.5
v 60.8081 -38.436 1189.63
v 61.7223 -40.1073 1191.82
v 62.0726 -39.9004 1193.04
v 63.338 -39.9541 1194.84
v 63.3146 -40.9445 1195.84
v 59.5837 -36.8904 1183.76
v 59.9863 -36.4547 1181.91
v 60.0111 -37.2482 1184.03
v 60.9833 -37.6132 1184.58
v 61.3997 -37.3362 1184.43
v 59.1133 -36.0995 1183.75
v 59.718 -37.2283 1185.47
v 59.628 -36.4792 1185.81
v 59.8457 -37.2945 1186.44
v 63.632 -38.8423 1189.53
v 63.4835 -38.1372 1189.43
v 60.6404 -37.5946 1188.93
v 61.884 -37.1136 1189.59
v 62.9907 -37.6285 1190.21
v 61.5741 -37.5192 1190.11
v 61.4471 -38.3251 1190.91
v 63.1832 -38.2752 1191.86
v 63.5162 -39.3317 1193.99
v 58.6824 -34.2803 1176.27
v 59.166 -35.4535 1179.54
v 58.0932 -34.0936 1178.64
v 59.7234 -35.5428 1179.71
v 60.4413 -35.1224 1179.73
v 60.6198 -36.4258 1182.15
v 61.0768 -35.8339 1181.97
v 61.0486 -35.2528 1181.34
v 58.5135 -35.0726 1180.52
v 58.8138 -35.4892 1180.4
v 58.5284 -34.6177 1181.21
v 61.6738 -36.4628 1183.88
v 61.7111 -35.6689 1184.22
v 61.305 -35.0423 1183.98
v 59.1471 -35.0171 1183.46
v 59.8942 -35.5375 1185.45
v 60.1659 -34.9051 1184.6
v 61.346 -35.312 1185.12
v 61.5236 -35.9165 1186.9
v 60.2967 -36.4235 1187.2
v 60.5384 -36.0416 1186.97
v 57.4389 -32.0562 1168.59
v 57.8254 -32.1134 1168.6
v 59.2324 -33.1217 1173.55
v 57.7702 -32.942 1172.39
v 57.2103 -32.0522 1172.44
v 58.4182 -33.2715 1173.02
v 57.5195 -32.8913 1173.77
v 59.9524 -33.8344 1176.62
v 58.0324 -33.7089 1175.23
v 59.3695 -34.2437 1176.38
v 57.9686 -32.8898 1177.33
v 58.4078 -32.6483 1177.98
v 58.7315 -32.3676 1177.65
v 59.531 -32.8888 1179.33
v 60.5504 -33.7515 1179.95
v 60.1853 -33.5176 1180.76
v 60.9371 -34.6653 1180.82
v 58.5379 -33.7523 1180.35
v 59.1558 -33.9833 1181.87
v 59.6806 -33.9615 1182.31
v 60.4738 -34.4449 1183.51
v 56.2743 -30.3972 1161.14
v 56.6308 -30.4247 1160.68
v 56.124 -30.1623 1160.4
v 55.969 -30.0892 1160.58
v 56.801 -30.2584 1160.18
v 56.1442 -29.9467 1160.34
v 55.7319 -29.6461 1160.47
v 57.0201 -30.3975 1160.86
v 56.0671 -30.2693 1162.37
v 56.779 -31.3915 1167.01
v 56.874 -30.2868 1168.09
v 58.5438 -31.9589 1169.09
v 57.1865 -30.1729 1168.58
v 59.0434 -31.2172 1170.82
v 59.2693 -32.2289 1171.97
v 57.1831 -31.2809 1171.55
v 57.4503 -30.974 1171.76
v 57.9562 -30.9278 1172.49
v 58.5421 -30.908 1172.41
v 59.9038 -32.8663 1175.54
v 57.7943 -31.9412 1175.08
v 58.0199 -31.6365 1174.81
v 58.8672 -31.6794 1175.46
v 59.6858 -32.4636 1177.26
v 55.7731 -29.235 1160.64
v 56.0374 -29.1148 1160.52
v 56.0993 -29.0115 1161.45
v 56.4266 -28.745 1161.14
v 56.795 -28.6916 1160.56
v 57.0354 -28.772 1161.2
v 56.7273 -28.6671 1160.99
v 57.2272 -29.8733 1160.19
v 57.4334 -30.1687 1161.11
v 57.5952 -29.6149 1161.06
v 57.2965 -29.22 1160.34
v 57.5496 -29.3256 1160.97
v 57.3782 -29.02 1161.08
v 57.7225 -29.8209 1167.45
v 58.4793 -30.3796 1168.68
v 66.4909 -45.6874 1199.54
v 66.1826 -45.5808 1199.84
v 67.0204 -45.5128 1199.36
v 67.0204 -45.5128 1199.36
v 67.9713 -44.5706 1199.64
v 67.9713 -44.5706 1199.64
v 65.5176 -44.9138 1200.51
v 65.6452 -43.723 1201.18
v 65.6452 -43.723 1201.18
v 67.9345 -43.7217 1200.15
v 67.7254 -43.4308 1200.42
v 65.9557 -43.2795 1201.03
v 67.0098 -43.1647 1200.88
v 67.0098 -43.1647 1200.88
v 63.1728 -39.5138 1189.17
v 56.124 -30.1623 1160.4
v 56.124 -30.1623 1160.4
v 55.969 -30.0892 1160.58
v 56.801 -30.2584 1160.18
v 56.801 -30.2584 1160.18
v 56.1442 -29.9467 1160.34
v 55.7319 -29.6461 1160.47
v 55.7319 -29.6461 1160.47
v 55.7731 -29.235 1160.64
v 55.7731 -29.235 1160.64
v 56.0374 -29.1148 1160.52
v 56.795 -28.6916 1160.56
v 56.795 -28.6916 1160.56
v 57.2272 -29.8733 1160.19
v 57.2965 -29.22 1160.34
v 57.2965 -29.22 1160.34
vn -0.606668 -0.780579 -0.150501
vn -0.431271 -0.87614 -0.21537
vn -0.204739 -0.911318 -0.357186
vn -0.524862 -0.850309 0.0386647
vn -0.741352 -0.664633 0.0930631
vn 0.470748 -0.710761 0.522699
vn 0.664191 -0.507065 -0.549304
vn 0.388325 -0.573683 0.721174
vn -0.740175 -0.532565 0.410506
vn -0.885131 -0.244088 0.396187
vn -0.878687 0.0737493 0.471668
vn -0.765945 0.234489 0.598618
vn -0.00471625 -0.87786 -0.478895
vn 0.399691 -0.458558 0.793707
vn 0.937865 0.139713 -0.317632
vn 0.850797 0.520607 -0.0715064
vn 0.911823 0.383542 -0.146543
vn 0.370144 -0.457277 0.808635
vn 0.697106 0.711083 0.0916698
vn 0.366621 -0.463693 0.806584
vn 0.411272 0.854744 0.316651
vn -0.261666 0.777141 0.572348
vn 0.355638 -0.459998 0.813587
vn 0.068245 0.872922 0.483063
vn -0.0873076 -0.900854 -0.425253
vn 0.27123 -0.819568 -0.50472
vn 0.625108 -0.574184 -0.528727
vn -0.752685 -0.65506 -0.0660343
vn -0.439378 -0.851562 -0.285988
vn -0.951923 -0.0389874 0.303846
vn -0.9221 -0.351326 0.162178
vn -0.914216 0.0827354 0.396691
vn -0.495981 0.670678 0.551538
vn -0.762429 0.389418 0.516775
vn -0.698567 -0.70362 -0.130087
vn 0.0177871 -0.920918 -0.389351
vn -0.32304 -0.892882 -0.3137
vn 0.180078 -0.869029 -0.460826
vn 0.57572 -0.666016 -0.47431
vn -0.968071 -0.200905 0.149918
vn -0.871136 -0.490407 0.0249752
vn -0.93055 0.162735 0.328017
vn -0.954781 -0.238043 0.178125
vn 0.928243 -0.0484207 -0.368811
vn 0.881265 0.460704 -0.105466
vn -0.867461 0.271142 0.417126
vn -0.089365 0.887875 0.451322
vn 0.467595 0.849109 0.2457
vn -0.437286 0.736378 0.516265
vn -0.715767 0.483877 0.503529
vn 0.20582 0.901994 0.379532
vn -0.138501 0.854496 0.500653
vn -0.147768 -0.943179 -0.297621
vn -0.263156 -0.915628 -0.30393
vn -0.985348 -0.128872 0.111716
vn 0.198111 -0.898832 -0.390964
vn 0.664485 -0.638707 -0.38796
vn 0.433942 -0.783977 -0.44393
vn 0.763467 -0.502884 -0.405248
vn 0.91283 -0.264887 -0.310769
vn -0.909674 -0.414788 0.0210537
vn -0.659382 -0.735499 -0.155746
vn -0.971401 0.0788664 0.223964
vn 0.895145 -0.248492 -0.370092
vn 0.94661 0.282771 -0.154822
vn 0.732947 0.675075 0.0840383
vn -0.827859 0.424349 0.366847
vn -0.651461 0.620006 0.437254
vn -0.212236 0.878755 0.427487
vn 0.5776 0.798139 0.171328
vn 0.22492 0.912825 0.340824
vn -0.712163 0.52866 0.46189
vn -0.416542 0.774095 0.476729
vn -0.336392 -0.925025 -0.17655
vn 0.105065 -0.964878 -0.240772
vn 0.573744 -0.757813 -0.310706
vn -0.485604 -0.856541 -0.174717
vn -0.985977 -0.135314 0.0976656
vn 0.0352536 -0.958054 -0.28441
vn -0.849406 -0.526069 -0.0419543
vn 0.802003 -0.506723 -0.316265
vn -0.559762 -0.807218 -0.187256
vn 0.400748 -0.843257 -0.358214
vn -0.92067 0.310706 0.23628
vn -0.603083 0.72496 0.332751
vn -0.228701 0.916554 0.328062
vn 0.170214 0.942749 0.286796
vn 0.892556 0.449905 -0.03048
vn 0.466044 0.858757 0.212931
vn 0.976506 0.126313 -0.174585
vn -0.80557 0.494397 0.32654
vn -0.513885 0.760829 0.396309
vn -0.158581 0.913227 0.375326
vn 0.191444 0.926573 0.323745
vn -0.489826 -0.861911 -0.131071
vn -0.108387 -0.960545 -0.256137
vn -0.39101 -0.885293 -0.25173
vn -0.720022 -0.691141 -0.0623854
vn -0.0344073 -0.94481 -0.325807
vn -0.186049 0.120245 -0.975155
vn -0.958766 -0.27823 0.0579368
vn 0.433937 -0.85349 -0.288537
vn -0.823497 -0.567237 -0.00977228
vn -0.739605 -0.670475 -0.0587181
vn -0.775668 0.592733 0.216812
vn 0.596495 -0.757948 -0.264025
vn -0.435155 0.870816 0.228734
vn 0.935576 0.346725 -0.0669284
vn 0.923177 -0.309068 -0.228518
vn -0.909627 0.361039 0.205499
vn -0.645738 0.719444 0.255781
vn -0.207643 0.943411 0.258572
vn 0.321125 0.930452 0.176459
vn 0.984243 0.0255972 -0.174959
vn -0.75709 0.593142 0.273858
vn -0.474579 0.828224 0.298027
vn 0.142194 0.957484 0.25101
vn 0.616093 0.777547 0.125895
vn -0.947308 0.27155 0.169908
vn -0.232946 0.265836 -0.935451
vn -0.624191 0.774109 0.105552
vn -0.389549 0.919932 0.0444695
vn -0.384555 0.909426 -0.158309
vn 0.447956 0.89334 0.0357497
vn 0.029143 0.997756 0.0602839
vn 0.813412 -0.448975 -0.36984
vn 0.779676 -0.557929 -0.284288
vn 0.963179 -0.0643081 -0.261058
vn 0.924632 0.0120083 -0.380673
vn 0.930607 0.306276 -0.200414
vn 0.743077 0.66049 -0.107653
vn 0.0989264 0.979475 0.175621
vn 0.650576 0.756802 0.0632577
vn 0.389515 -0.723242 0.570262
vn 0.343805 -0.601112 0.721431
vn 0.119491 -0.836745 -0.534396
vn 0.664191 -0.507065 -0.549304
vn 0.477662 -0.541871 0.691531
vn 0.939394 0.120317 -0.321035
vn 0.323128 -0.489584 0.809874
vn 0.343844 -0.475728 0.809601
vn 0.109892 0.248601 0.962352
vn 0.425199 -0.447111 0.786955
vn 0.681452 0.716398 0.149653
vn 0.109892 0.248601 0.962352
vn 0.246222 0.84971 0.466227
vn 0.109892 0.248601 0.962352
vn 0.664191 -0.507065 -0.549304
vn -0.330443 -0.233619 -0.914456
vn -0.772276 -0.108834 -0.625895
vn -0.681452 -0.294741 -0.669889
vn -0.244443 -0.0246378 -0.969351
vn 0.633479 -0.692212 -0.345755
vn -0.681452 -0.294741 -0.669889
vn -0.560135 -0.467459 -0.683908
vn -0.348061 0.289647 -0.891604
vn -0.511241 0.371754 -0.774876
vn -0.43879 0.895785 -0.0709481
vn -0.525159 0.843824 -0.110316
vn 0.51802 0.845763 -0.127831
vn -0.112496 0.275442 -0.954713
vn -0.146331 0.214238 -0.965758
vn -0.127063 0.239915 -0.962443
vn 0.731508 0.632338 -0.25504
g grp1
usemtl mtl1
f 1//1 2//2 5//5 
f 5//5 2//2 4//4 
f 5//5 28//28 1//1 
f 2//2 3//3 4//4 
f 6//6 8//8 134//134 
f 13//13 3//3 2//2 
f 27//27 136//136 13//13 
f 13//13 136//136 3//3 
f 137//137 148//148 7//7 
f 6//6 138//138 8//8 
f 8//8 138//138 14//14 
f 29//29 2//2 1//1 
f 28//28 29//29 1//1 
f 8//8 135//135 134//134 
f 14//14 23//23 8//8 
f 11//11 32//32 10//10 
f 5//5 4//4 9//9 
f 5//5 9//9 10//10 
f 9//9 12//12 10//10 
f 10//10 12//12 11//11 
f 11//11 12//12 34//34 
f 33//33 34//34 12//12 
f 135//135 8//8 140//140 
f 141//141 140//140 8//8 
f 141//141 8//8 23//23 
f 13//13 29//29 25//25 
f 13//13 25//25 26//26 
f 26//26 27//27 13//13 
f 10//10 31//31 5//5 
f 5//5 31//31 28//28 
f 29//29 13//13 2//2 
f 15//15 139//139 27//27 
f 16//16 15//15 45//45 
f 16//16 45//45 19//19 
f 31//31 10//10 32//32 
f 52//52 33//33 22//22 
f 22//22 24//24 52//52 
f 18//18 23//23 14//14 
f 139//139 15//15 17//17 
f 138//138 143//143 14//14 
f 18//18 14//14 143//143 
f 20//20 23//23 18//18 
f 15//15 16//16 17//17 
f 16//16 144//144 17//17 
f 20//20 18//18 143//143 
f 144//144 16//16 19//19 
f 21//21 144//144 19//19 
f 21//21 146//146 144//144 
f 19//19 48//48 21//21 
f 48//48 51//51 21//21 
f 32//32 11//11 34//34 
f 145//145 142//142 147//147 
f 12//12 22//22 33//33 
f 51//51 24//24 21//21 
f 24//24 146//146 21//21 
f 24//24 22//22 146//146 
f 38//38 26//26 25//25 
f 27//27 38//38 39//39 
f 27//27 26//26 38//38 
f 41//41 28//28 31//31 
f 41//41 31//31 43//43 
f 44//44 15//15 27//27 
f 45//45 15//15 44//44 
f 43//43 31//31 30//30 
f 50//50 32//32 34//34 
f 30//30 31//31 32//32 
f 50//50 33//33 49//49 
f 52//52 49//49 33//33 
f 33//33 50//50 34//34 
f 51//51 52//52 24//24 
f 37//37 35//35 62//62 
f 41//41 61//61 35//35 
f 37//37 36//36 38//38 
f 58//58 39//39 38//38 
f 38//38 36//36 58//58 
f 64//64 27//27 39//39 
f 40//40 61//61 41//41 
f 28//28 41//41 35//35 
f 43//43 40//40 41//41 
f 42//42 40//40 43//43 
f 43//43 30//30 42//42 
f 40//40 42//42 63//63 
f 42//42 67//67 63//63 
f 37//37 25//25 29//29 
f 29//29 35//35 37//37 
f 37//37 38//38 25//25 
f 35//35 29//29 28//28 
f 45//45 44//44 65//65 
f 42//42 30//30 46//46 
f 30//30 32//32 46//46 
f 46//46 32//32 50//50 
f 72//72 46//46 50//50 
f 73//73 72//72 49//49 
f 47//47 73//73 49//49 
f 71//71 47//47 51//51 
f 70//70 48//48 19//19 
f 47//47 52//52 51//51 
f 49//49 72//72 50//50 
f 49//49 52//52 47//47 
f 76//76 81//81 83//83 
f 83//83 57//57 56//56 
f 53//53 83//83 56//56 
f 55//55 80//80 61//61 
f 61//61 80//80 62//62 
f 82//82 54//54 62//62 
f 53//53 54//54 82//82 
f 55//55 61//61 63//63 
f 54//54 36//36 37//37 
f 54//54 37//37 62//62 
f 54//54 56//56 36//36 
f 56//56 58//58 36//36 
f 56//56 54//54 53//53 
f 56//56 57//57 58//58 
f 58//58 59//59 39//39 
f 58//58 57//57 59//59 
f 59//59 57//57 60//60 
f 84//84 55//55 63//63 
f 35//35 61//61 62//62 
f 63//63 61//61 40//40 
f 67//67 91//91 63//63 
f 92//92 67//67 68//68 
f 68//68 69//69 92//92 
f 64//64 39//39 59//59 
f 59//59 60//60 64//64 
f 64//64 60//60 90//90 
f 64//64 90//90 65//65 
f 64//64 44//44 27//27 
f 64//64 65//65 44//44 
f 46//46 72//72 42//42 
f 72//72 68//68 42//42 
f 42//42 68//68 67//67 
f 71//71 70//70 94//94 
f 71//71 69//69 47//47 
f 71//71 94//94 69//69 
f 45//45 65//65 66//66 
f 70//70 45//45 66//66 
f 45//45 70//70 19//19 
f 73//73 68//68 72//72 
f 69//69 68//68 73//73 
f 69//69 73//73 47//47 
f 70//70 71//71 48//48 
f 51//51 48//48 71//71 
f 75//75 74//74 95//95 
f 95//95 74//74 104//104 
f 80//80 78//78 104//104 
f 77//77 104//104 74//74 
f 77//77 80//80 104//104 
f 74//74 79//79 77//77 
f 106//106 76//76 75//75 
f 74//74 75//75 79//79 
f 75//75 76//76 79//79 
f 84//84 110//110 78//78 
f 77//77 79//79 53//53 
f 53//53 82//82 77//77 
f 77//77 82//82 80//80 
f 80//80 55//55 78//78 
f 76//76 83//83 79//79 
f 83//83 53//53 79//79 
f 81//81 76//76 109//109 
f 114//114 81//81 109//109 
f 82//82 62//62 80//80 
f 81//81 57//57 83//83 
f 57//57 81//81 60//60 
f 60//60 81//81 114//114 
f 84//84 78//78 55//55 
f 84//84 85//85 115//115 
f 116//116 115//115 85//85 
f 116//116 85//85 86//86 
f 86//86 87//87 117//117 
f 114//114 90//90 60//60 
f 88//88 90//90 114//114 
f 88//88 118//118 66//66 
f 66//66 118//118 89//89 
f 89//89 87//87 94//94 
f 90//90 88//88 65//65 
f 65//65 88//88 66//66 
f 91//91 84//84 63//63 
f 85//85 84//84 91//91 
f 92//92 85//85 91//91 
f 92//92 86//86 85//85 
f 92//92 91//91 67//67 
f 86//86 93//93 87//87 
f 92//92 93//93 86//86 
f 87//87 93//93 94//94 
f 93//93 92//92 69//69 
f 69//69 94//94 93//93 
f 94//94 70//70 89//89 
f 89//89 70//70 66//66 
f 97//97 96//96 95//95 
f 98//98 97//97 95//95 
f 99//99 102//102 96//96 
f 149//149 100//100 152//152 
f 96//96 97//97 99//99 
f 154//154 150//150 151//151 
f 98//98 95//95 103//103 
f 101//101 98//98 103//103 
f 155//155 154//154 151//151 
f 96//96 102//102 75//75 
f 102//102 106//106 75//75 
f 95//95 104//104 103//103 
f 127//127 106//106 102//102 
f 109//109 106//106 127//127 
f 127//127 128//128 109//109 
f 119//119 101//101 78//78 
f 78//78 103//103 104//104 
f 78//78 101//101 103//103 
f 95//95 96//96 75//75 
f 121//121 119//119 105//105 
f 119//119 78//78 110//110 
f 105//105 119//119 110//110 
f 121//121 105//105 107//107 
f 108//108 114//114 109//109 
f 133//133 118//118 108//108 
f 111//111 105//105 110//110 
f 105//105 111//111 107//107 
f 112//112 107//107 111//111 
f 112//112 113//113 132//132 
f 132//132 113//113 133//133 
f 113//113 118//118 133//133 
f 109//109 76//76 106//106 
f 115//115 110//110 84//84 
f 111//111 110//110 115//115 
f 115//115 116//116 111//111 
f 116//116 112//112 111//111 
f 112//112 117//117 113//113 
f 113//113 117//117 118//118 
f 108//108 118//118 88//88 
f 108//108 88//88 114//114 
f 112//112 86//86 117//117 
f 117//117 87//87 118//118 
f 118//118 87//87 89//89 
f 86//86 112//112 116//116 
f 102//102 153//153 126//126 
f 126//126 127//127 102//102 
f 126//126 129//129 128//128 
f 162//162 152//152 100//100 
f 120//120 100//100 156//156 
f 120//120 156//156 157//157 
f 162//162 100//100 163//163 
f 163//163 100//100 120//120 
f 159//159 158//158 121//121 
f 122//122 123//123 159//159 
f 122//122 159//159 121//121 
f 164//164 160//160 131//131 
f 131//131 160//160 124//124 
f 163//163 120//120 161//161 
f 160//160 125//125 124//124 
f 123//123 122//122 125//125 
f 125//125 132//132 124//124 
f 125//125 122//122 132//132 
f 128//128 127//127 126//126 
f 129//129 130//130 128//128 
f 108//108 128//128 130//130 
f 130//130 164//164 131//131 
f 108//108 130//130 131//131 
f 121//121 107//107 122//122 
f 107//107 132//132 122//122 
f 108//108 109//109 128//128 
f 133//133 108//108 131//131 
f 133//133 131//131 124//124 
f 124//124 132//132 133//133 
f 132//132 107//107 112//112 
