#
# The license for this database is specified in the Creative Commons Attribution-Share Alike 2.1 Japan. If you use data from this database, please be sure attribute this database as follows: "BodyParts3D, (c)  The Database Center for Life Science licensed under CC Attribution-Share Alike 2.1 Japan".
# http://dbarchive.biosciencedbc.jp/en/bodyparts3d/lic.html
#
#
# Compatibility version : 4.0
# File ID : FJ2892
# Representation ID : BP9511
# Build-up logic : FMA 3.0 part_of
# Concept ID : FMA8647
# English name : Left posterior basal segmental artery
# Bounds(mm): (73.372500,-37.707600,1137.750000)-(83.507300,-28.640400,1156.000000)
# Volume(cm3): 0.123000
#
v 82.8024 -28.6404 1139.14
v 82.2263 -28.938 1139.48
v 82.0291 -28.8152 1138.31
v 81.739 -28.9888 1138.77
v 83.3061 -29.1534 1139.08
v 83.3721 -29.2652 1139.24
v 83.5073 -29.9182 1138.83
v 83.1715 -30.0462 1138.15
v 83.2451 -30.231 1138.28
v 82.1353 -29.8445 1137.78
v 82.5648 -30.0591 1137.75
v 81.8892 -29.0986 1137.99
v 82.1381 -29.2667 1138
v 80.2635 -31.3277 1142.77
v 78.9503 -32.6409 1145.2
v 79.8916 -33.8931 1144.81
v 77.6006 -34.2898 1149.64
v 78.0115 -35.2211 1149.62
v 74.467 -34.8038 1155.33
v 75.8134 -35.2269 1156
v 75.9514 -35.9081 1156
v 76.2776 -36.265 1155.68
v 76.3132 -36.6375 1155.23
v 75.348 -34.8829 1155.88
v 75.0362 -35.1412 1155.86
v 76.0337 -36.5973 1155.92
v 79.6753 -31.8554 1140.35
v 79.3314 -31.5912 1140.81
v 80.3387 -33.1154 1141.01
v 79.6604 -32.7129 1140.73
v 78.7543 -31.7202 1143.09
v 78.3433 -32.0489 1142.69
v 79.3689 -34.7993 1143.78
v 79.2209 -35.0716 1145.59
v 78.3716 -35.9139 1146.23
v 77.0917 -33.4428 1147.99
v 76.0193 -33.7929 1148.39
v 78.0822 -35.9108 1148.77
v 77.8387 -36.3189 1148.08
v 76.5128 -37.0497 1150.39
v 76.9874 -36.7541 1151.39
v 73.9743 -35.0552 1154.62
v 73.6519 -35.5847 1154.42
v 74.2103 -37.4904 1154.89
v 73.7493 -37.2792 1155.26
v 73.5505 -35.4035 1155.48
v 73.6017 -35.4826 1154.89
v 73.3725 -35.8145 1155.39
v 73.4686 -36.2715 1154.73
v 73.5103 -36.6267 1154.8
v 73.3725 -36.4908 1155.28
v 75.5201 -37.5058 1155.19
v 75.069 -37.6661 1155.04
v 74.8733 -37.7076 1155.55
v 74.6683 -37.6718 1155.07
v 74.4547 -37.6414 1155.15
v 74.2636 -37.5735 1155.42
v 78.8803 -34.3707 1142.62
v 78.2478 -33.7004 1142.34
v 77.5032 -33.4444 1143.21
v 77.3678 -35.2033 1144.32
v 76.9979 -34.7615 1144.27
v 76.2539 -34.593 1145.39
v 76.4606 -35.3251 1145.45
v 76.1516 -33.8522 1146.34
v 77.884 -35.7824 1145.11
v 77.0478 -36.2902 1146.59
v 76.8535 -35.7354 1145.49
v 75.2767 -34.9106 1148.16
v 77.5662 -36.4032 1147.25
v 76.3374 -36.2534 1147.1
v 75.4712 -35.9261 1148.03
v 76.2859 -36.9315 1149.36
v 75.1443 -36.72 1150.19
v 74.487 -35.9756 1150.77
v 74.5395 -36.5407 1151.25
v 75.3969 -37.266 1151.7
v 82.8024 -28.6404 1139.14
v 82.8024 -28.6404 1139.14
v 82.8024 -28.6404 1139.14
v 82.0291 -28.8152 1138.31
v 82.0291 -28.8152 1138.31
v 83.3061 -29.1534 1139.08
v 83.3721 -29.2652 1139.24
v 83.3721 -29.2652 1139.24
v 83.3721 -29.2652 1139.24
v 83.5073 -29.9182 1138.83
v 83.5073 -29.9182 1138.83
v 83.1715 -30.0462 1138.15
v 83.2451 -30.231 1138.28
v 83.2451 -30.231 1138.28
v 82.1353 -29.8445 1137.78
v 82.5648 -30.0591 1137.75
v 82.5648 -30.0591 1137.75
v 81.8892 -29.0986 1137.99
v 80.2635 -31.3277 1142.77
v 78.9503 -32.6409 1145.2
v 79.8916 -33.8931 1144.81
v 77.6006 -34.2898 1149.64
v 74.467 -34.8038 1155.33
v 75.8134 -35.2269 1156
v 75.8134 -35.2269 1156
v 75.9514 -35.9081 1156
v 75.348 -34.8829 1155.88
v 75.348 -34.8829 1155.88
v 76.0337 -36.5973 1155.92
v 76.0337 -36.5973 1155.92
v 73.7493 -37.2792 1155.26
v 73.5505 -35.4035 1155.48
v 73.5505 -35.4035 1155.48
v 73.3725 -35.8145 1155.39
v 73.3725 -36.4908 1155.28
v 74.8733 -37.7076 1155.55
v 74.8733 -37.7076 1155.55
v 74.2636 -37.5735 1155.42
vn 0.531998 0.572086 -0.624256
vn -0.25951 0.884221 0.388339
vn 0.483154 0.571962 -0.662889
vn -0.580021 0.814296 0.0223066
vn 0.727343 0.47658 -0.493805
vn 0.936762 0.303438 -0.174362
vn 0.896917 0.240966 -0.370778
vn 0.705666 0.383566 -0.595745
vn 0.892877 0.0400832 -0.448514
vn 0.189791 0.348489 -0.917897
vn 0.522402 -0.341573 -0.781296
vn -0.814196 0.370358 -0.447124
vn 0.418621 0.509369 -0.751864
vn -0.117976 0.857967 0.499975
vn 0.0807403 0.913173 0.399495
vn 0.909893 -0.311294 0.27421
vn 0.833464 0.401246 0.379921
vn 0.946929 0.0684664 0.314068
vn -0.350174 0.933021 0.0827608
vn 0.527314 0.80659 0.267118
vn 0.735219 0.0755436 0.673607
vn 0.8788 -0.0222434 0.476671
vn 0.855254 -0.452053 0.253356
vn 0.519116 0.812671 0.264736
vn -0.264158 0.093443 0.959942
vn 0.693 -0.0049466 0.72092
vn -0.713132 -0.114307 -0.691647
vn -0.83654 0.250524 -0.487277
vn 0.159061 -0.80669 -0.569167
vn -0.355193 -0.552062 -0.754365
vn -0.301132 0.910787 0.282467
vn -0.775548 0.603549 -0.185079
vn 0.478083 -0.838398 -0.261775
vn 0.81656 -0.562002 0.131847
vn 0.515496 -0.8495 -0.112308
vn 0.0877921 0.95078 0.297171
vn -0.437085 0.897446 0.05956
vn 0.880189 -0.430397 0.200062
vn 0.587607 -0.808966 0.0170656
vn 0.295649 -0.953399 -0.0601799
vn 0.678931 -0.728902 0.0880572
vn -0.611691 0.79091 -0.0171763
vn -0.914561 0.35525 -0.193325
vn -0.461651 -0.870263 -0.171818
vn -0.39963 -0.213631 0.891436
vn -0.772715 0.629904 -0.0783122
vn -0.884628 0.437875 -0.160309
vn -0.953562 0.23472 -0.18875
vn -0.973926 -0.00536488 -0.226802
vn -0.920688 -0.313321 -0.232732
vn -0.365509 -0.182801 0.912681
vn 0.533813 -0.826394 0.179212
vn 0.149504 -0.987111 -0.0571068
vn -0.217905 -0.102871 0.970533
vn -0.0830708 -0.992235 -0.0925705
vn -0.279634 -0.957001 -0.0771612
vn -0.287044 -0.135537 0.94828
vn -0.0932932 -0.797308 -0.596319
vn -0.594513 -0.416282 -0.687941
vn -0.857453 0.107194 -0.503272
vn -0.423317 -0.693386 -0.583111
vn -0.735081 -0.345514 -0.583332
vn -0.907831 -0.0396889 -0.417453
vn -0.713804 -0.512356 -0.477468
vn -0.839212 0.508138 -0.193697
vn 0.0635422 -0.921762 -0.382515
vn -0.119352 -0.941348 -0.315626
vn -0.400953 -0.793718 -0.457436
vn -0.954063 0.127042 -0.271337
vn 0.253421 -0.953806 -0.161346
vn -0.491625 -0.793339 -0.359052
vn -0.836705 -0.405795 -0.36777
vn -0.122402 -0.967039 -0.223279
vn -0.603655 -0.738931 -0.299301
vn -0.921148 -0.237964 -0.307994
vn -0.819575 -0.487935 -0.30036
vn -0.185474 -0.966624 -0.176742
vn -0.279741 0.914511 0.292257
vn 0.712336 0.678337 0.180099
vn 0.457413 0.531192 0.713167
vn -0.348837 0.928188 0.129535
vn -0.743513 0.627647 -0.230755
vn 0.712336 0.678337 0.180099
vn 0.712336 0.678337 0.180099
vn 0.470316 0.516207 0.715774
vn 0.895619 -0.213139 0.390433
vn 0.767773 -0.64072 -0.00162072
vn 0.875933 -0.113127 0.468982
vn 0.522402 -0.341573 -0.781296
vn 0.594684 -0.766179 -0.243558
vn 0.522402 -0.341573 -0.781296
vn -0.538971 -0.312612 -0.782166
vn 0.299649 0.430012 -0.851646
vn -0.065441 -0.693107 -0.717858
vn 0.348798 0.468311 -0.811803
vn 0.561588 0.470228 0.680812
vn 0.759303 0.414615 0.501551
vn 0.720095 0.429071 0.545308
vn 0.420748 0.851682 0.312423
vn -0.367608 0.547223 0.751939
vn 0.86263 0.285554 0.417526
vn -0.174508 0.0402016 0.983835
vn -0.227137 -0.0933045 0.969383
vn -0.135979 0.982046 0.130747
vn -0.309836 0.299346 0.902438
vn 0.699221 -0.583492 0.413071
vn -0.238773 -0.126036 0.962861
vn -0.706918 -0.67757 -0.202893
vn -0.294574 0.625152 0.72278
vn -0.235472 -0.10407 0.966293
vn -0.286703 -0.129037 0.94929
vn -0.965344 -0.189107 -0.179858
vn 0.501718 -0.69421 0.516092
vn -0.0116603 -0.999884 0.00983666
vn -0.388064 -0.920976 -0.0347665
g grp1
usemtl mtl1
f 13//13 1//1 5//5 
f 78//78 2//2 14//14 
f 4//4 31//31 2//2 
f 2//2 78//78 4//4 
f 14//14 2//2 31//31 
f 3//3 1//1 13//13 
f 81//81 4//4 78//78 
f 12//12 4//4 82//82 
f 3//3 13//13 95//95 
f 7//7 5//5 6//6 
f 7//7 8//8 5//5 
f 5//5 8//8 13//13 
f 8//8 7//7 9//9 
f 90//90 87//87 34//34 
f 83//83 79//79 84//84 
f 85//85 80//80 96//96 
f 91//91 11//11 89//89 
f 8//8 93//93 13//13 
f 93//93 10//10 13//13 
f 13//13 10//10 95//95 
f 4//4 32//32 31//31 
f 27//27 12//12 92//92 
f 28//28 12//12 27//27 
f 4//4 12//12 32//32 
f 33//33 90//90 34//34 
f 33//33 29//29 90//90 
f 34//34 88//88 86//86 
f 34//34 86//86 16//16 
f 85//85 96//96 98//98 
f 31//31 15//15 14//14 
f 98//98 96//96 97//97 
f 98//98 97//97 17//17 
f 99//99 15//15 36//36 
f 38//38 16//16 18//18 
f 18//18 98//98 17//17 
f 99//99 36//36 24//24 
f 20//20 99//99 24//24 
f 17//17 101//101 18//18 
f 36//36 37//37 104//104 
f 37//37 19//19 104//104 
f 22//22 18//18 101//101 
f 100//100 25//25 105//105 
f 23//23 38//38 18//18 
f 21//21 22//22 101//101 
f 102//102 25//25 103//103 
f 25//25 102//102 105//105 
f 26//26 22//22 21//21 
f 23//23 22//22 106//106 
f 23//23 18//18 22//22 
f 103//103 25//25 107//107 
f 52//52 23//23 106//106 
f 29//29 94//94 90//90 
f 30//30 92//92 94//94 
f 92//92 30//30 27//27 
f 12//12 28//28 32//32 
f 33//33 58//58 29//29 
f 30//30 94//94 29//29 
f 59//59 27//27 30//30 
f 28//28 60//60 32//32 
f 58//58 33//33 66//66 
f 58//58 66//66 61//61 
f 15//15 31//31 36//36 
f 32//32 60//60 65//65 
f 34//34 16//16 38//38 
f 37//37 32//32 65//65 
f 35//35 33//33 34//34 
f 39//39 35//35 34//34 
f 35//35 66//66 33//33 
f 31//31 32//32 37//37 
f 31//31 37//37 36//36 
f 38//38 41//41 34//34 
f 39//39 34//34 41//41 
f 40//40 39//39 41//41 
f 23//23 41//41 38//38 
f 52//52 41//41 23//23 
f 40//40 41//41 52//52 
f 47//47 46//46 65//65 
f 69//69 75//75 49//49 
f 19//19 37//37 42//42 
f 42//42 46//46 19//19 
f 109//109 25//25 100//100 
f 42//42 37//37 65//65 
f 46//46 42//42 65//65 
f 47//47 65//65 43//43 
f 69//69 43//43 65//65 
f 53//53 40//40 52//52 
f 77//77 40//40 53//53 
f 53//53 55//55 77//77 
f 77//77 55//55 56//56 
f 77//77 56//56 44//44 
f 25//25 54//54 107//107 
f 25//25 57//57 54//54 
f 57//57 51//51 45//45 
f 44//44 56//56 115//115 
f 115//115 108//108 44//44 
f 50//50 49//49 75//75 
f 47//47 48//48 46//46 
f 43//43 69//69 48//48 
f 47//47 43//43 48//48 
f 110//110 57//57 25//25 
f 69//69 49//49 48//48 
f 110//110 111//111 57//57 
f 49//49 50//50 112//112 
f 49//49 112//112 48//48 
f 51//51 57//57 111//111 
f 50//50 108//108 112//112 
f 106//106 113//113 52//52 
f 53//53 52//52 114//114 
f 114//114 55//55 53//53 
f 56//56 55//55 114//114 
f 115//115 56//56 114//114 
f 58//58 30//30 29//29 
f 30//30 58//58 59//59 
f 59//59 60//60 27//27 
f 27//27 60//60 28//28 
f 61//61 59//59 58//58 
f 60//60 62//62 63//63 
f 60//60 59//59 62//62 
f 59//59 61//61 62//62 
f 63//63 65//65 60//60 
f 63//63 62//62 64//64 
f 62//62 61//61 64//64 
f 72//72 63//63 64//64 
f 61//61 68//68 64//64 
f 65//65 63//63 69//69 
f 68//68 61//61 66//66 
f 68//68 66//66 67//67 
f 66//66 35//35 70//70 
f 67//67 66//66 70//70 
f 68//68 67//67 71//71 
f 68//68 71//71 64//64 
f 69//69 63//63 72//72 
f 64//64 71//71 72//72 
f 70//70 35//35 39//39 
f 40//40 70//70 39//39 
f 40//40 73//73 70//70 
f 70//70 73//73 67//67 
f 73//73 71//71 67//67 
f 73//73 74//74 71//71 
f 69//69 72//72 75//75 
f 71//71 74//74 72//72 
f 72//72 74//74 75//75 
f 73//73 77//77 74//74 
f 75//75 74//74 76//76 
f 73//73 40//40 77//77 
f 75//75 76//76 50//50 
f 74//74 108//108 76//76 
f 77//77 44//44 74//74 
f 74//74 44//44 108//108 
f 76//76 108//108 50//50 
