# Blender v2.77 (sub 0) OBJ File: 'BLANKOblend.blend'
# www.blender.org
mtllib left inferior phrenic artery2.mtl
o grp1
v 4.398438 -197.259094 1167.515015
v 4.400000 -197.595184 1168.000000
v 4.000000 -196.000183 1168.829956
v 3.915630 -197.200180 1167.599976
v 4.400000 -197.200180 1167.170044
v 4.400000 -197.595184 1168.000000
v 3.915630 -197.200180 1167.599976
v 4.400000 -197.200180 1167.170044
v 4.915630 -197.200180 1167.599976
v 4.400000 -197.595184 1168.000000
v 4.580566 -197.211609 1167.580322
v 4.400000 -197.595184 1168.000000
v 4.017070 -195.074188 1168.729980
v 3.778320 -195.488464 1169.343750
v 4.015625 -195.056824 1168.732422
v 5.075195 -191.066605 1171.018555
v 4.263016 -195.692566 1168.243164
v 4.804688 -193.044128 1170.456543
v 4.565918 -197.040710 1166.883789
v 4.908203 -197.197937 1167.581055
v 4.749023 -192.903503 1169.337891
v 5.523193 -190.989212 1171.595825
v 8.579102 -184.633011 1172.531738
v 5.200000 -194.028183 1169.530029
v 4.862305 -193.019714 1169.359375
v 5.467041 -192.996277 1170.025391
v 6.091187 -191.078323 1170.770508
v 5.656738 -190.764847 1171.297852
v 7.031250 -189.375198 1171.656250
v 6.956543 -190.029480 1170.706543
v 9.565308 -183.072586 1173.195068
v 5.943787 -190.381363 1170.928223
v 9.522461 -183.344437 1173.541016
v 7.581210 -188.196198 1171.619995
v 8.664551 -183.812698 1172.560547
v 7.581210 -188.196198 1171.619995
v 10.000000 -183.297195 1173.199951
v 10.000000 -183.297195 1173.199951
v 11.341919 -181.232620 1173.601318
v 6.805130 -187.600204 1171.599976
v 9.437988 -181.916214 1172.940918
v 9.582031 -183.435745 1172.560547
v 9.225460 -181.803192 1173.339966
v 7.777344 -186.858597 1172.395508
v 9.600000 -183.053192 1173.599976
v 11.713867 -174.142654 1174.196289
v 11.200000 -176.000198 1174.900024
v 12.175781 -172.584183 1175.089844
v 11.834229 -172.744339 1175.231934
v 11.200684 -176.784378 1173.460205
v 13.459473 -169.097855 1175.110107
v 10.777954 -114.493370 1087.947266
v 9.685303 -113.800163 1089.693237
v 9.543579 -113.587151 1088.700684
v 9.810030 -113.584175 1089.589966
v 9.403780 -112.791176 1088.839966
v 9.403780 -112.791176 1088.839966
v 9.809570 -112.627007 1090.248901
v 9.794914 -111.997978 1088.055176
v 11.294922 -112.134209 1087.054932
v 21.168701 -108.025520 1090.990967
v 9.899800 -112.760178 1089.979980
v 17.128906 -109.922050 1091.478516
v 12.047852 -174.335159 1175.107178
v 12.000000 -172.800201 1175.209961
v 11.200000 -176.000198 1174.900024
v 11.759400 -176.800201 1174.400024
v 12.413900 -174.738205 1174.420044
v 13.236900 -172.317200 1175.170044
v 13.866699 -169.450394 1175.728638
v 13.447266 -167.984085 1175.708984
v 12.000000 -172.800201 1175.209961
v 13.366699 -173.150589 1174.213867
v 12.980469 -171.717972 1174.395020
v 12.968506 -174.760941 1174.569580
v 17.690186 -165.141068 1176.257812
v 16.426514 -166.583450 1174.808228
v 17.875000 -113.035332 1089.541992
v 16.636719 -113.577324 1090.941650
v 17.200001 -110.400177 1088.550049
v 16.142599 -112.087173 1087.969971
v 21.336426 -161.458694 1175.918457
v 22.181641 -160.959412 1176.371948
v 18.684448 -163.891312 1175.281738
v 15.867188 -166.109573 1175.699219
v 20.751953 -160.767776 1175.905029
v 26.632080 -155.659622 1174.538940
v 20.370605 -160.683060 1175.912354
v 23.423157 -159.055984 1175.703491
v 21.201300 -160.850204 1176.550049
v 17.916300 -112.993172 1089.569946
v 17.200001 -110.400177 1088.550049
v 19.232178 -109.579277 1093.491699
v 21.066700 -161.027191 1175.119995
v 21.625000 -160.868057 1175.415039
v 21.201300 -160.850204 1176.550049
v 19.445000 -111.200172 1089.199951
v 22.123047 -110.498222 1091.099609
v 21.200001 -108.000175 1091.010010
v 21.890625 -111.277519 1092.078125
v 19.617188 -107.836113 1092.800781
v 19.600000 -107.854172 1092.790039
v 22.000000 -107.600174 1096.300049
v 26.415955 -95.942078 1105.263672
v 23.200001 -159.600204 1174.959961
v 24.799999 -158.867203 1176.000000
v 20.400000 -162.922195 1175.599976
v 27.217651 -154.622787 1175.960693
v 24.284500 -157.335205 1175.209961
v 22.000000 -107.600174 1096.300049
v 28.389648 -101.011414 1101.023926
v 25.478516 -104.250175 1099.781250
v 26.975159 -99.404289 1099.365967
v 24.284500 -157.335205 1175.209961
v 27.077103 -154.886917 1175.827148
v 25.740400 -155.740204 1175.530029
v 26.450623 -154.221878 1175.855469
v 27.527344 -155.531448 1174.424805
v 26.584400 -157.096191 1175.189941
v 27.082092 -157.209183 1175.338867
v 24.834717 -158.858597 1176.009033
v 28.009800 -152.804199 1174.420044
v 27.903601 -100.176186 1104.079956
v 25.428200 -104.426178 1099.619995
v 27.903601 -100.176186 1104.079956
v 26.024500 -100.028183 1104.089966
v 25.953300 -94.830780 1109.719971
v 25.953300 -94.830780 1109.719971
v 26.024500 -100.028183 1104.089966
v 28.156380 -95.698669 1110.749634
v 26.978516 -90.172058 1121.093750
v 26.510254 -88.998230 1116.103516
v 26.028931 -91.149597 1117.382812
v 25.703899 -90.389984 1116.150024
v 25.963200 -91.376183 1117.170044
v 25.250000 -87.875183 1120.625000
v 23.984375 -84.765808 1129.000000
v 26.402832 -86.994324 1127.429688
v 26.964111 -84.905457 1130.339844
v 26.658508 -89.467468 1115.187012
v 26.892670 -79.992188 1138.256836
v 29.250046 -94.406433 1107.875000
v 24.344727 -81.808777 1136.175781
v 26.976807 -83.462646 1137.461914
v 26.654297 -82.564331 1138.994629
v 26.027832 -82.611450 1141.831055
v 26.799999 -82.701782 1143.599976
v 25.600000 -80.800186 1141.479980
v 26.296875 -80.829773 1143.000000
v 26.852203 -156.052933 1175.349121
v 28.025391 -152.773636 1174.413086
v 26.020508 -155.892776 1175.466553
v 29.261801 -153.800201 1174.739990
v 30.400000 -148.845200 1174.400024
v 32.805664 -145.666214 1175.025391
v 33.371201 -145.469193 1175.100708
v 29.056641 -93.515808 1113.500000
v 31.522461 -89.515816 1158.500000
v 32.914062 -89.406441 1160.875000
v 27.973389 -82.785095 1147.191895
v 29.260498 -84.275581 1149.505859
v 29.201660 -83.292175 1145.626953
v 29.226624 -83.406799 1145.644287
v 31.157288 -82.048531 1148.760254
v 33.202942 -146.028641 1172.649292
v 32.118500 -149.089203 1173.609985
v 33.608765 -146.473831 1173.611328
v 32.044922 -149.061966 1173.678711
v 34.394199 -143.962204 1172.819946
v 34.948242 -137.560745 1171.783203
v 33.633789 -140.957230 1172.840576
v 30.615601 -88.400192 1156.400024
v 35.141602 -97.843941 1166.699219
v 31.358900 -89.732491 1159.089966
v 33.785500 -94.508789 1163.140015
v 30.615601 -88.400192 1156.400024
v 34.145264 -93.187691 1163.351562
v 34.672058 -95.645210 1166.777832
v 33.374298 -87.807793 1156.920044
v 32.067200 -83.811493 1151.089966
v 32.332031 -85.437691 1155.296875
v 33.374298 -87.807793 1156.920044
v 33.194199 -87.940788 1158.319946
v 36.288101 -137.234192 1171.819946
v 35.383972 -140.414261 1173.152344
v 35.345215 -141.973831 1173.596191
v 35.174316 -137.200882 1171.850220
v 35.159500 -137.266205 1171.869995
v 38.163940 -129.169022 1170.865112
v 36.000599 -138.436203 1173.520020
v 36.746429 -126.633003 1172.401733
v 36.406250 -125.636909 1171.161621
v 37.285156 -127.734566 1172.464844
v 35.912109 -131.070511 1171.635986
v 35.997192 -120.373726 1170.246338
v 36.087299 -126.652191 1171.239990
v 35.697144 -120.074898 1171.901123
v 36.391602 -115.256050 1172.273438
v 37.844727 -107.886909 1169.203125
v 37.200001 -118.800194 1170.270020
v 37.195312 -118.414375 1172.175293
v 36.454967 -118.032967 1172.069824
v 39.200001 -111.600189 1171.479980
v 38.032776 -107.970306 1171.074707
v 37.253101 -108.000191 1170.000000
v 37.955200 -107.798775 1171.375732
v 35.862793 -102.896675 1169.662109
v 34.968750 -98.806831 1167.009766
v 37.318604 -108.158882 1170.028931
v 35.940601 -102.800194 1169.599976
v 35.548019 -95.156685 1167.156738
v 36.799999 -98.000191 1166.260010
v 36.538399 -102.607193 1168.339966
v 34.658203 -97.962593 1165.802734
v 36.538399 -102.607193 1168.339966
v 36.799999 -98.000191 1166.260010
v 38.309299 -102.430191 1169.079956
v 32.799999 -89.200188 1156.300049
v 35.599998 -93.600189 1162.869995
v 35.648438 -93.646675 1162.921875
v 36.402344 -95.253120 1167.151367
v 35.560799 -95.117691 1167.060059
v 38.054688 -129.515823 1172.197266
v 38.072937 -125.533394 1171.233643
v 37.189453 -119.509956 1171.363770
v 37.521900 -121.200188 1170.800049
v 37.521900 -121.200188 1170.800049
v 38.800720 -111.999947 1169.391602
v 37.840599 -118.000191 1171.199951
v 39.447266 -110.453316 1169.979492
v 39.338867 -112.438042 1170.668945
v 39.035801 -108.538193 1169.219971
v 38.799999 -112.000191 1169.400024
v 39.200001 -111.600189 1171.479980
v 38.035900 -102.676193 1170.310059
v 38.309299 -102.430191 1169.079956
v 37.478100 -111.600189 1171.199951
v 39.200001 -111.600189 1171.479980
v 39.035801 -108.538193 1169.219971
v 36.538399 -102.607193 1168.339966
v 37.779297 -101.648628 1168.876953
vn -0.7574 -0.4406 0.4818
vn -0.3566 -0.8436 -0.4015
vn 0.3375 -0.8500 -0.4045
vn 0.9206 -0.1685 0.3524
vn 0.5571 -0.4876 0.6723
vn 0.9306 -0.2271 0.2871
vn -0.9698 -0.1387 -0.2006
vn -0.9794 0.1578 -0.1263
vn -0.9441 0.2109 -0.2534
vn -0.9234 0.3619 0.1279
vn -0.9582 0.2235 -0.1786
vn -0.7432 -0.0263 0.6686
vn -0.4467 0.3359 -0.8293
vn -0.7754 0.0956 0.6242
vn -0.0470 0.2919 -0.9553
vn 0.5714 -0.5033 0.6482
vn 0.8918 0.1294 -0.4335
vn 0.8625 0.1932 -0.4677
vn 0.7281 0.1767 -0.6623
vn 0.7474 -0.0915 -0.6580
vn 0.7660 -0.5649 0.3068
vn 0.6603 -0.5178 0.5439
vn 0.0930 -0.3775 0.9213
vn 0.7130 -0.2404 -0.6587
vn -0.5768 0.2741 -0.7695
vn 0.4977 -0.3157 0.8079
vn 0.5686 0.0323 -0.8220
vn 0.8980 -0.3842 -0.2144
vn 0.6296 -0.3407 0.6983
vn 0.1633 0.1713 -0.9716
vn 0.1279 0.1553 -0.9796
vn 0.3470 -0.0397 -0.9370
vn -0.0239 0.2397 -0.9706
vn -0.0195 0.2292 -0.9732
vn -0.8160 0.3818 -0.4340
vn 0.9697 -0.1943 0.1478
vn 0.9709 -0.2278 0.0737
vn -0.6235 0.0290 0.7813
vn -0.6348 0.0179 0.7725
vn -0.5895 0.0834 0.8034
vn -0.8071 0.3543 -0.4722
vn -0.3646 0.1565 -0.9179
vn -0.3745 0.2751 -0.8855
vn -0.8618 -0.4083 -0.3011
vn -0.2164 -0.8538 -0.4735
vn -0.2422 -0.8071 0.5384
vn -0.9273 -0.1494 0.3433
vn -0.9870 -0.1368 -0.0849
vn -0.7081 0.5778 -0.4059
vn -0.8096 0.5607 0.1736
vn -0.4212 0.3466 0.8381
vn -0.2093 0.3284 -0.9211
vn -0.4501 0.7974 -0.4019
vn -0.9129 -0.0906 0.3981
vn 0.3168 -0.3019 0.8991
vn -0.1395 -0.0435 0.9893
vn -0.1089 -0.0689 0.9917
vn 0.7841 -0.2544 0.5661
vn 0.7356 -0.3367 0.5879
vn 0.8351 -0.4836 -0.2621
vn 0.0249 -0.1413 0.9897
vn -0.1666 -0.0115 0.9860
vn -0.1182 0.0398 0.9922
vn -0.1961 -0.0427 0.9797
vn 0.6938 -0.2461 -0.6768
vn 0.8019 -0.5878 0.1071
vn -0.3237 0.2059 -0.9235
vn 0.7275 -0.6547 -0.2051
vn 0.2268 -0.0375 -0.9732
vn 0.1395 -0.0281 -0.9898
vn 0.3335 -0.1437 -0.9317
vn 0.0987 -0.8339 0.5430
vn -0.1029 0.7893 -0.6053
vn -0.5512 0.5250 0.6485
vn 0.5284 -0.5600 0.6381
vn 0.3446 -0.0658 -0.9364
vn 0.6336 -0.5958 -0.4935
vn -0.6505 0.6144 -0.4466
vn -0.6876 0.6576 -0.3079
vn -0.6821 0.6477 0.3395
vn -0.4829 0.5604 -0.6729
vn -0.3863 0.2076 -0.8987
vn 0.6029 -0.6065 -0.5183
vn 0.4674 -0.4475 0.7624
vn 0.5532 -0.7042 -0.4451
vn 0.3523 -0.2364 -0.9055
vn 0.5528 -0.4385 -0.7086
vn 0.3934 0.1053 -0.9133
vn -0.5531 -0.2437 0.7966
vn 0.6954 -0.5314 -0.4838
vn 0.7345 -0.6463 0.2070
vn -0.6141 0.6035 0.5086
vn 0.5324 -0.6006 -0.5965
vn 0.7081 -0.3127 -0.6331
vn 0.5679 0.2330 -0.7894
vn 0.5590 -0.7993 0.2207
vn -0.7499 0.6485 -0.1305
vn -0.6732 0.4648 0.5751
vn -0.4943 -0.4109 0.7660
vn -0.4261 0.7754 -0.4660
vn 0.5626 -0.6589 -0.4994
vn 0.5929 -0.6783 -0.4341
vn 0.6088 -0.6108 -0.5063
vn 0.3555 -0.4853 -0.7988
vn 0.7073 -0.3738 0.5999
vn -0.5808 0.5572 -0.5935
vn -0.0807 -0.7070 0.7026
vn 0.9590 -0.2594 -0.1143
vn -0.4973 0.7143 -0.4925
vn 0.8022 0.2306 -0.5508
vn 0.1399 -0.7084 0.6918
vn -0.9880 0.1369 -0.0717
vn -0.6617 0.7082 0.2462
vn 0.0191 0.1474 0.9889
vn -0.6546 0.5330 -0.5361
vn 0.0594 -0.0651 0.9961
vn 0.5894 -0.6579 -0.4688
vn 0.0234 0.0380 0.9990
vn -0.7170 0.3196 -0.6194
vn 0.7471 -0.5905 0.3053
vn -0.0518 -0.7085 0.7038
vn 0.0222 -0.7902 0.6124
vn -0.0571 -0.7719 0.6331
vn -0.9962 0.0660 -0.0569
vn -0.4832 -0.7144 0.5061
vn -0.5188 -0.6313 0.5764
vn -0.5047 -0.7206 0.4755
vn -0.5572 -0.7569 0.3416
vn 0.3441 -0.7920 0.5043
vn -0.2142 0.8674 -0.4491
vn -0.5752 -0.7443 0.3393
vn -0.9965 -0.0702 -0.0452
vn -0.9748 -0.2206 0.0346
vn -0.7666 0.5672 -0.3010
vn -0.9483 0.2681 -0.1700
vn 0.6991 -0.6589 0.2777
vn 0.3435 0.9250 -0.1627
vn 0.5289 0.7704 -0.3562
vn 0.8164 0.4651 -0.3423
vn -0.9212 0.3886 0.0206
vn -0.6529 -0.7344 0.1852
vn 0.8732 -0.4120 0.2601
vn 0.9891 -0.0933 -0.1137
vn 0.6902 -0.7093 0.1432
vn -0.9529 -0.0809 0.2924
vn -0.6355 0.7019 0.3216
vn 0.6509 -0.5275 -0.5460
vn -0.7845 0.5293 0.3230
vn -0.6702 0.4675 0.5765
vn 0.9042 -0.3191 0.2838
vn -0.8887 0.2169 0.4041
vn -0.2456 0.7212 0.6477
vn -0.9132 0.1684 0.3712
vn -0.5423 -0.8364 0.0791
vn -0.5737 -0.7854 -0.2323
vn -0.1199 -0.9648 -0.2341
vn -0.7010 -0.6729 0.2361
vn 0.1648 -0.8800 -0.4456
vn 0.2377 0.8564 0.4584
vn 0.7070 0.6861 0.1718
vn 0.7755 -0.4234 -0.4683
vn -0.2773 -0.0515 -0.9594
vn -0.0031 -0.2739 -0.9618
vn -0.3474 -0.0513 -0.9363
vn 0.4363 -0.1828 0.8810
vn 0.8513 -0.4850 0.2003
vn 0.8220 -0.3674 0.4352
vn 0.6537 -0.4691 -0.5938
vn 0.8088 -0.2709 0.5219
vn 0.8235 -0.3847 -0.4169
vn -0.3254 0.1079 -0.9394
vn -0.6292 0.2431 -0.7383
vn -0.9610 0.2504 0.1175
vn -0.9297 -0.3597 0.0788
vn -0.9592 -0.2758 -0.0622
vn -0.9371 -0.3281 0.1196
vn -0.8744 0.1370 0.4655
vn 0.8387 -0.1443 -0.5252
vn -0.5747 -0.7630 -0.2959
vn 0.7779 -0.2248 -0.5869
vn -0.2692 0.5832 0.7664
vn 0.6193 -0.5591 -0.5513
vn 0.7827 0.5946 0.1839
vn 0.9261 0.3770 -0.0167
vn 0.6494 0.5675 0.5062
vn 0.5031 0.7285 0.4650
vn 0.1443 -0.1374 -0.9799
vn 0.8680 -0.1552 0.4718
vn 0.8957 -0.3095 -0.3191
vn -0.0547 -0.0716 -0.9959
vn 0.8107 -0.0283 0.5848
vn -0.5294 0.1794 0.8292
vn -0.9901 -0.0264 0.1380
vn -0.5796 0.0240 -0.8146
vn 0.2204 0.0510 0.9741
vn -0.6395 0.1860 0.7460
vn -0.4072 -0.0900 -0.9089
vn -0.9128 -0.0695 0.4025
vn -0.9843 -0.0412 -0.1714
vn -0.9731 0.1526 0.1726
vn 0.3765 -0.0661 0.9240
vn 0.0399 0.1044 0.9937
vn -0.1558 0.1163 0.9809
vn -0.8695 -0.0518 -0.4912
vn -0.4082 -0.2218 -0.8856
vn -0.0279 0.0923 0.9953
vn -0.8857 -0.0444 0.4621
vn -0.2499 0.0292 0.9678
vn -0.2035 0.1953 0.9594
vn -0.9598 -0.2383 -0.1481
vn -0.9628 -0.2694 -0.0224
vn 0.2649 -0.4854 -0.8332
vn 0.1832 -0.4125 -0.8923
vn 0.1639 -0.5141 -0.8419
vn 0.3961 -0.1907 -0.8982
vn 0.3887 -0.3967 -0.8316
vn 0.5864 -0.5350 -0.6082
vn 0.5304 -0.5404 -0.6532
vn 0.0266 0.8182 0.5743
vn 0.9448 0.3224 -0.0589
vn 0.9261 -0.1561 0.3435
vn 0.9587 -0.2580 0.1197
vn -0.0613 -0.0821 -0.9947
vn 0.9930 0.0939 -0.0717
vn 0.8299 -0.3323 -0.4481
vn 0.8911 0.0682 -0.4487
vn 0.9952 0.0815 0.0535
vn 0.4241 -0.2213 -0.8782
vn 0.7454 -0.3905 -0.5403
vn 0.8825 -0.0815 0.4631
vn 0.9895 0.0600 0.1312
vn 0.9271 -0.1908 -0.3225
vn 0.6649 -0.0544 -0.7449
vn 0.9043 -0.1952 -0.3797
vn 0.9813 -0.1724 0.0850
vn 0.4274 0.4153 0.8030
vn 0.9861 0.1197 0.1150
vn -0.8923 0.0916 0.4420
vn 0.4567 0.1735 0.8725
vn 0.3850 0.0243 -0.9226
vn -0.0821 -0.1809 -0.9801
vn 0.9607 0.1262 -0.2471
usemtl mtl1
s 1
f 2//1 3//1 4//1
f 5//2 6//2 7//2
f 8//3 9//3 10//3
f 11//4 18//5 12//6
f 1//7 14//8 13//9
f 16//10 13//9 14//8
f 16//10 15//11 13//9
f 21//12 1//13 15//11
f 22//14 16//10 14//8
f 15//11 16//10 23//15
f 23//15 21//12 15//11
f 18//5 11//4 24//16
f 20//17 19//18 25//19
f 25//19 26//20 20//17
f 18//5 24//16 27//21
f 18//5 27//21 29//22
f 18//5 29//22 28//23
f 25//19 30//24 26//20
f 16//10 22//14 41//25
f 29//22 33//26 28//23
f 34//27 21//12 23//15
f 37//28 29//22 27//21
f 29//22 38//29 33//26
f 36//30 35//31 39//32
f 40//33 41//25 42//34
f 22//14 43//35 41//25
f 46//36 47//37 33//26
f 44//38 45//39 48//40
f 38//29 46//36 33//26
f 43//35 49//41 41//25
f 39//32 35//31 50//42
f 50//42 42//34 41//25
f 51//43 41//25 49//41
f 41//25 51//43 50//42
f 54//44 52//45 53//46
f 54//44 55//47 56//48
f 54//44 56//48 59//49
f 57//50 58//51 59//49
f 60//52 52//45 54//44
f 54//44 59//49 60//52
f 59//49 58//51 61//53
f 56//48 55//47 62//54
f 64//55 65//56 66//57
f 64//55 67//58 68//59
f 69//60 64//55 68//59
f 64//55 70//61 65//56
f 70//62 71//63 72//64
f 73//65 39//32 50//42
f 69//60 76//66 64//55
f 76//66 70//61 64//55
f 77//67 50//42 51//43
f 50//42 77//67 73//65
f 84//68 76//66 69//60
f 75//69 74//70 77//71
f 52//45 79//72 53//46
f 80//73 59//49 61//53
f 80//73 60//52 59//49
f 79//72 58//51 53//46
f 61//53 58//51 63//74
f 79//72 63//74 58//51
f 82//75 71//63 70//62
f 75//69 77//71 84//76
f 83//77 76//66 84//68
f 51//78 85//79 86//80
f 88//81 87//82 51//43
f 89//83 83//77 84//68
f 87//82 77//67 51//43
f 90//84 71//63 82//75
f 78//85 79//72 52//45
f 81//86 52//45 60//52
f 78//85 52//45 81//86
f 78//85 81//86 91//87
f 60//52 92//88 81//86
f 79//72 93//89 63//74
f 89//83 84//68 94//90
f 95//91 77//67 87//82
f 86//80 85//79 96//92
f 91//87 81//86 97//93
f 98//94 81//86 92//88
f 98//94 92//88 99//95
f 78//85 100//96 79//72
f 97//93 100//96 91//87
f 98//94 100//96 97//93
f 63//74 101//97 61//53
f 63//74 93//89 102//98
f 100//96 93//89 79//72
f 103//99 104//100 93//89
f 102//98 93//89 101//97
f 105//101 106//102 107//103
f 118//104 95//91 87//82
f 108//105 90//84 82//75
f 109//106 87//82 88//81
f 110//107 93//89 100//96
f 100//96 98//94 111//108
f 113//109 61//53 101//97
f 98//94 99//95 113//110
f 110//107 112//111 104//112
f 100//96 112//111 110//107
f 114//113 86//80 115//114
f 87//82 109//106 116//115
f 114//113 115//114 117//116
f 118//104 119//117 105//101
f 106//102 105//101 119//117
f 86//80 96//92 115//114
f 121//118 108//105 82//75
f 87//82 116//115 122//119
f 100//96 111//108 112//111
f 112//111 111//108 123//120
f 98//94 113//110 111//108
f 124//121 125//122 126//123
f 93//89 104//100 101//97
f 113//109 101//97 104//100
f 104//112 112//111 127//124
f 128//125 129//126 130//127
f 128//125 130//127 131//128
f 125//122 130//129 126//123
f 104//100 132//130 113//109
f 131//128 133//131 128//125
f 104//112 127//124 134//132
f 135//133 134//132 127//124
f 104//100 136//134 132//130
f 135//133 137//135 134//132
f 134//132 137//135 136//134
f 131//128 138//136 133//131
f 141//137 140//138 132//130
f 142//139 140//138 141//137
f 137//135 143//140 136//134
f 132//130 136//134 143//140
f 132//130 143//140 141//137
f 133//131 138//136 146//141
f 139//142 146//141 138//136
f 141//137 144//143 139//142
f 139//142 145//144 146//141
f 143//140 137//135 146//141
f 146//141 137//135 133//131
f 146//141 148//145 143//140
f 149//146 141//137 143//140
f 119//117 118//104 153//147
f 115//114 154//148 117//116
f 154//148 115//114 155//149
f 111//108 113//110 142//139
f 111//108 157//150 123//120
f 125//122 157//150 130//129
f 140//138 142//139 113//110
f 111//108 142//139 157//150
f 130//129 139//142 138//136
f 130//129 157//150 139//142
f 142//139 141//137 139//142
f 139//142 157//150 142//139
f 158//151 159//152 160//153
f 146//141 145//144 147//154
f 145//144 161//155 147//154
f 145//144 162//156 161//155
f 146//141 160//153 148//145
f 148//145 160//153 149//146
f 160//153 147//154 161//155
f 145//157 144//143 163//158
f 160//153 181//159 149//146
f 161//155 162//156 163//158
f 159//152 181//159 160//153
f 164//160 149//146 181//159
f 144//143 141//137 164//160
f 163//158 144//143 164//160
f 141//137 149//146 164//160
f 118//104 87//82 165//161
f 165//162 150//163 151//164
f 120//165 166//166 167//167
f 121//118 120//165 167//167
f 153//147 118//104 168//168
f 121//118 167//167 108//105
f 167//167 156//169 108//105
f 165//161 168//168 118//104
f 168//168 165//161 169//170
f 170//171 151//164 152//172
f 154//148 155//149 171//173
f 151//164 170//171 165//162
f 172//174 173//175 174//176
f 174//176 173//175 178//177
f 175//178 176//179 177//180
f 178//177 211//181 159//152
f 161//155 158//151 160//153
f 158//151 178//177 159//152
f 163//158 176//179 161//155
f 163//158 177//180 176//179
f 177//180 163//158 164//160
f 179//182 177//180 164//160
f 180//183 181//159 182//184
f 221//185 183//186 159//152
f 183//186 181//159 159//152
f 180//183 164//160 181//159
f 184//187 169//170 165//161
f 167//167 185//188 156//169
f 168//168 169//170 186//189
f 184//187 165//161 187//190
f 186//189 169//170 189//191
f 171//173 191//192 192//193
f 155//149 191//192 171//173
f 171//173 192//193 188//194
f 185//188 193//195 156//169
f 191//192 155//149 193//195
f 194//196 195//197 187//190
f 197//198 195//197 196//199
f 192//193 191//192 197//198
f 198//200 197//198 191//192
f 201//201 203//202 202//203
f 209//204 199//205 195//197
f 195//197 197//198 209//204
f 197//198 198//200 209//204
f 204//206 202//203 203//202
f 205//207 206//208 207//209
f 208//210 209//204 210//211
f 207//209 211//181 178//177
f 206//208 211//181 207//209
f 207//209 178//177 173//175
f 212//212 213//213 214//214
f 215//215 216//216 217//215
f 221//185 211//181 206//208
f 214//214 218//217 219//218
f 219//218 212//212 214//214
f 211//181 221//185 222//219
f 182//184 181//159 221//185
f 220//220 182//184 221//185
f 222//219 221//185 159//152
f 190//221 186//189 223//222
f 184//187 187//190 189//223
f 189//191 224//224 186//189
f 186//189 224//224 223//222
f 185//188 223//222 193//195
f 189//223 187//190 195//197
f 193//195 202//203 191//192
f 193//195 201//201 202//203
f 223//222 201//201 193//195
f 195//197 225//225 189//223
f 189//191 226//226 224//224
f 223//222 224//224 201//201
f 224//224 227//227 201//201
f 228//228 200//229 195//197
f 200//229 225//225 195//197
f 227//227 229//230 201//201
f 228//228 195//197 199//205
f 230//231 201//201 229//230
f 200//229 231//232 225//225
f 232//233 231//232 233//234
f 201//201 230//231 234//235
f 231//232 200//229 233//234
f 234//235 230//231 235//236
f 232//233 233//234 228//228
f 236//237 231//232 232//233
f 237//238 206//208 205//207
f 238//239 235//236 206//208
f 208//210 199//205 209//204
f 215//215 217//215 239//240
f 232//233 199//205 240//241
f 228//228 199//205 232//233
f 241//242 235//236 230//231
f 241//242 220//220 221//185
f 221//185 235//236 241//242
f 235//236 221//185 206//208
l 31 32
l 17 18
