#
# The license for this database is specified in the Creative Commons Attribution-Share Alike 2.1 Japan. If you use data from this database, please be sure attribute this database as follows: "BodyParts3D, (c)  The Database Center for Life Science licensed under CC Attribution-Share Alike 2.1 Japan".
# http://dbarchive.biosciencedbc.jp/en/bodyparts3d/lic.html
#
#
# Compatibility version : 4.0
# File ID : FJ2910
# Representation ID : BP9625
# Build-up logic : FMA 3.0 part_of
# Concept ID : FMA13279
# English name : Left anterior segmental artery
# Bounds(mm): (55.726100,-136.243000,1275.830000)-(70.202200,-109.200000,1285.430100)
# Volume(cm3): 0.164800
#
v 55.9843 -110.095 1276.59
v 56.0719 -109.619 1276.41
v 56.1542 -110.251 1276.42
v 55.7644 -109.953 1277.19
v 55.7261 -109.558 1277.4
v 55.8198 -109.659 1276.79
v 55.9842 -109.543 1277.06
v 55.8046 -109.648 1276.98
v 55.9386 -109.541 1278.07
v 56.9291 -109.714 1275.83
v 57.326 -109.624 1275.96
v 57.6373 -109.2 1278.54
v 56.4748 -109.334 1278.18
v 57.3588 -109.395 1278.79
v 56.4909 -109.803 1278.62
v 56.732 -109.444 1278.71
v 56.2103 -114.118 1278.68
v 56.1676 -114.949 1278.2
v 58.5707 -109.425 1276.79
v 58.1674 -110.201 1276.25
v 58.0755 -109.535 1276.39
v 58.6322 -110.086 1276.84
v 57.9734 -109.961 1278.68
v 58.5286 -109.307 1277.58
v 58.5075 -109.292 1278.03
v 58.7196 -109.802 1277.42
v 56.9206 -115.554 1277.08
v 56.4758 -115.276 1277.42
v 57.0814 -118.108 1277.89
v 56.7308 -114.767 1279.36
v 57.6277 -115.005 1279.75
v 56.5776 -117.572 1278.67
v 56.608 -117.446 1279.16
v 57.073 -117.8 1279.88
v 58.9108 -115.592 1277.45
v 58.74 -114.524 1279.15
v 59.144 -114.943 1278.44
v 58.0067 -117.491 1277.31
v 58.0848 -114.52 1279.59
v 58.5886 -117.907 1280.37
v 57.0479 -119.503 1279.44
v 57.2015 -119.657 1278.69
v 57.4919 -120.902 1279.48
v 57.9817 -118.408 1280.5
v 57.2934 -119.811 1280
v 57.5292 -120.877 1279.95
v 57.8794 -120.883 1280.63
v 59.0979 -120.178 1278.08
v 59.4848 -117.812 1279.62
v 60.0515 -119.341 1279.05
v 57.9831 -121.849 1279.37
v 58.5646 -121.671 1278.66
v 59.0093 -120.65 1281.24
v 59.6253 -119.367 1280.48
v 59.2814 -119.851 1280.93
v 58.4769 -121.215 1281.17
v 58.3628 -122.896 1280.07
v 60.0147 -120.921 1278.62
v 60.2584 -119.967 1280.01
v 60.9654 -121.623 1279.86
v 60.1031 -121.436 1281.44
v 60.7215 -121.284 1280.74
v 59.508 -124.996 1280.88
v 59.7346 -124.813 1280.1
v 60.3361 -124.89 1279.8
v 59.2418 -123.604 1281.72
v 60.2432 -124.396 1282.38
v 58.9665 -123.946 1281.1
v 60.0113 -125.535 1281.85
v 60.4656 -126.209 1280.91
v 61.1896 -127.404 1281.95
v 62.6414 -124.635 1281.22
v 62.3869 -125.039 1280.46
v 62.0921 -126.093 1280.34
v 62.9562 -125.639 1282.68
v 62.6448 -128.681 1281.56
v 63.1949 -128.775 1281.4
v 63.7255 -128.397 1281.28
v 63.0882 -128.626 1283.78
v 63.4192 -127.137 1283.52
v 63.4163 -127.889 1283.79
v 62.3211 -128.502 1283.16
v 65.2051 -128.741 1282.27
v 65.1741 -128.401 1282.92
v 64.2142 -131.065 1282.84
v 65.1169 -129.748 1284.3
v 64.756 -131.636 1283.84
v 65.3962 -131.476 1282.33
v 66.5153 -130.915 1284.39
v 65.8259 -131.854 1284.65
v 66.8109 -132.116 1282.57
v 67.4277 -131.999 1282.94
v 68.6774 -136.175 1284.81
v 69.3864 -135.247 1283.38
v 69.1511 -135.671 1283.44
v 69.3494 -135.421 1283.39
v 69.5509 -135.898 1283.55
v 70.0236 -135.402 1283.66
v 69.4385 -135.434 1285.43
v 69.8189 -134.583 1284.1
v 70.2022 -135.179 1284.38
v 70.0408 -134.909 1284.82
v 68.7151 -135.76 1283.59
v 68.5019 -135.754 1283.76
v 68.9843 -136.243 1283.82
v 68.9208 -135.906 1285.26
v 69.1641 -135.904 1285.02
v 56.0719 -109.619 1276.41
v 55.7261 -109.558 1277.4
v 55.8198 -109.659 1276.79
v 55.8046 -109.648 1276.98
v 55.9386 -109.541 1278.07
v 55.9386 -109.541 1278.07
v 56.9291 -109.714 1275.83
v 57.326 -109.624 1275.96
v 57.6373 -109.2 1278.54
v 56.4748 -109.334 1278.18
v 57.3588 -109.395 1278.79
v 56.4909 -109.803 1278.62
v 56.732 -109.444 1278.71
v 56.732 -109.444 1278.71
v 58.5707 -109.425 1276.79
v 58.0755 -109.535 1276.39
v 58.5286 -109.307 1277.58
v 58.5075 -109.292 1278.03
v 60.0515 -119.341 1279.05
v 60.0147 -120.921 1278.62
v 60.9654 -121.623 1279.86
v 62.3869 -125.039 1280.46
v 63.7255 -128.397 1281.28
v 62.3211 -128.502 1283.16
v 65.2051 -128.741 1282.27
v 64.756 -131.636 1283.84
v 65.8259 -131.854 1284.65
v 68.6774 -136.175 1284.81
v 68.6774 -136.175 1284.81
v 69.5509 -135.898 1283.55
v 70.0236 -135.402 1283.66
v 69.4385 -135.434 1285.43
v 70.2022 -135.179 1284.38
v 70.0408 -134.909 1284.82
v 68.5019 -135.754 1283.76
v 68.9843 -136.243 1283.82
v 68.9843 -136.243 1283.82
v 68.9208 -135.906 1285.26
v 68.9208 -135.906 1285.26
vn -0.814237 -0.123226 -0.567304
vn -0.720388 -0.0867431 -0.688125
vn -0.655255 -0.14938 -0.740491
vn -0.99111 -0.0338904 -0.128656
vn -0.996758 -0.03938 0.0701596
vn -0.943225 -0.081565 -0.321984
vn -0.317745 0.936183 -0.150329
vn -0.990311 0.0363899 -0.134014
vn -0.376294 0.921516 0.0959774
vn -0.144933 -0.139409 -0.979571
vn 0.394359 0.109845 -0.912368
vn -0.0724522 0.992602 0.0974301
vn -0.140359 0.988283 -0.0599667
vn -0.131939 0.847528 0.514091
vn -0.603739 0.530351 0.59517
vn -0.165941 0.898574 0.406238
vn -0.905179 -0.020757 0.424524
vn -0.991441 -0.120643 -0.0498983
vn -0.0601592 0.984887 -0.162413
vn 0.541035 0.0117247 -0.840919
vn 0.520361 0.240787 -0.819296
vn 0.925075 0.0291089 -0.378667
vn 0.450367 0.247181 0.857946
vn 0.0233622 0.995682 -0.0898396
vn 0.0876796 0.995696 -0.0300152
vn 0.980329 0.196275 -0.0207462
vn -0.490343 -0.232172 -0.840036
vn -0.841663 -0.199494 -0.501802
vn -0.656021 -0.317247 -0.684828
vn -0.581167 0.0882006 0.808991
vn -0.0429082 0.18612 0.98159
vn -0.958689 -0.228133 -0.169915
vn -0.94511 -0.111771 0.30704
vn -0.719948 0.013861 0.69389
vn 0.821233 0.00932253 -0.570517
vn 0.711447 0.216495 0.668561
vn 0.985628 0.144451 0.0875902
vn -0.0682633 -0.250652 -0.965667
vn 0.338402 0.225306 0.913631
vn 0.309145 0.314409 0.897539
vn -0.964564 -0.247275 0.09204
vn -0.844219 -0.361206 -0.396011
vn -0.924671 -0.369736 -0.0909899
vn -0.292471 0.179261 0.939322
vn -0.88373 -0.141936 0.445954
vn -0.922072 -0.289862 0.256443
vn -0.795654 -0.129382 0.591773
vn 0.25992 -0.21679 -0.94098
vn 0.817735 0.330322 0.471377
vn 0.891618 0.125377 -0.435084
vn -0.762442 -0.473724 -0.440758
vn -0.412841 -0.422051 -0.807115
vn -0.0604161 0.290971 0.954822
vn 0.603793 0.442261 0.663204
vn 0.276615 0.384876 0.880542
vn -0.508744 0.0771742 0.857452
vn -0.87629 -0.469313 -0.108908
vn 0.468608 -0.0982096 -0.87793
vn 0.883498 0.406104 0.233475
vn 0.839251 0.224437 -0.495263
vn 0.389574 0.472444 0.790587
vn 0.792896 0.50145 0.346213
vn -0.830185 -0.550897 -0.0854673
vn -0.61569 -0.566592 -0.54763
vn -0.188429 -0.459376 -0.868025
vn -0.717385 -0.150891 0.68014
vn -0.483182 -0.00395678 0.875511
vn -0.882459 -0.352359 0.311624
vn -0.805357 -0.380905 0.454215
vn -0.678258 -0.63306 -0.373095
vn -0.803377 -0.592773 0.0566145
vn 0.867949 0.483962 -0.111557
vn 0.830079 0.306611 -0.465788
vn 0.272169 -0.216808 -0.937506
vn 0.655674 0.586424 0.475604
vn -0.44488 -0.59987 -0.66501
vn -0.108465 -0.429578 -0.896492
vn 0.538261 0.0654474 -0.840233
vn -0.498432 -0.134396 0.856448
vn 0.261235 0.449495 0.854231
vn -0.127402 0.204932 0.970449
vn -0.803048 -0.531217 0.270041
vn 0.832726 0.461569 -0.305812
vn 0.816546 0.572165 -0.0766792
vn -0.677093 -0.669071 -0.306414
vn 0.0867956 0.291026 0.95277
vn -0.779722 -0.616086 0.111675
vn -0.217747 -0.443385 -0.86948
vn 0.414457 0.487023 0.768787
vn -0.186529 0.0647421 0.980314
vn 0.338779 0.0121675 -0.940787
vn 0.688436 0.372967 -0.622054
vn -0.725794 -0.681559 -0.0932758
vn 0.338794 -0.0255865 -0.940513
vn -0.0704842 -0.402222 -0.912825
vn 0.200376 -0.172321 -0.964445
vn 0.141278 -0.333755 -0.932013
vn 0.582476 0.158436 -0.797258
vn 0.0848115 0.238649 0.967395
vn 0.819013 0.50449 -0.273328
vn 0.863619 0.471306 -0.178978
vn 0.727427 0.597917 0.336667
vn -0.366236 -0.534595 -0.76163
vn -0.499407 -0.577815 -0.64554
vn -0.264528 -0.553898 -0.789444
vn -0.633966 -0.39745 0.663416
vn 0.526894 -0.802025 0.281315
vn -0.166852 0.967248 -0.191287
vn -0.32826 0.940286 -0.0900408
vn -0.431112 0.893675 -0.12445
vn -0.441377 0.879747 -0.176725
vn -0.823401 0.0333092 0.566481
vn -0.384218 0.620127 0.683973
vn -0.109898 0.942142 -0.316686
vn -0.0650295 0.976986 -0.20315
vn 0.486925 0.359171 0.796179
vn -0.603739 0.530351 0.59517
vn 0.231937 0.240086 0.942637
vn -0.590958 0.0913336 0.801515
vn -0.784539 0.40656 0.468195
vn -0.336625 0.127904 0.932911
vn 0.882359 0.189661 -0.430664
vn -0.0553078 0.985558 -0.16005
vn 0.934447 0.355827 0.0140078
vn 0.845299 0.247392 0.473569
vn 0.938023 0.323475 0.124404
vn 0.855428 0.162431 -0.491792
vn 0.902651 0.424735 0.0694405
vn 0.525733 -0.0222485 -0.850359
vn 0.0188921 -0.331336 -0.943324
vn -0.641618 -0.235722 0.729905
vn 0.543065 0.127033 -0.830026
vn -0.62642 -0.363028 0.689789
vn -0.610192 -0.341141 0.715044
vn 0.377338 -0.88705 0.266004
vn -0.656722 -0.435549 0.61564
vn 0.641082 -0.758797 0.11507
vn 0.719391 -0.693653 0.0363804
vn 0.669707 -0.589495 0.45165
vn 0.726782 -0.634307 0.263521
vn 0.79864 -0.336055 0.499241
vn -0.702799 -0.693081 -0.160351
vn -0.691662 -0.702856 -0.166124
vn 0.490399 -0.855229 0.167608
vn -0.264634 -0.0565646 0.962689
vn 0.41819 -0.803945 0.422836
g grp1
usemtl mtl1
f 2//2 1//1 6//6 
f 7//7 108//108 110//110 
f 3//3 1//1 2//2 
f 1//1 3//3 28//28 
f 13//13 108//108 7//7 
f 28//28 6//6 1//1 
f 8//8 6//6 4//4 
f 5//5 8//8 4//4 
f 13//13 109//109 9//9 
f 7//7 110//110 111//111 
f 7//7 109//109 13//13 
f 7//7 111//111 109//109 
f 17//17 112//112 5//5 
f 2//2 10//10 3//3 
f 10//10 11//11 20//20 
f 115//115 114//114 108//108 
f 115//115 108//108 13//13 
f 20//20 11//11 21//21 
f 123//123 115//115 13//13 
f 20//20 38//38 10//10 
f 19//19 13//13 12//12 
f 19//19 123//123 13//13 
f 6//6 28//28 18//18 
f 18//18 4//4 6//6 
f 5//5 4//4 18//18 
f 3//3 27//27 28//28 
f 27//27 3//3 10//10 
f 38//38 27//27 10//10 
f 12//12 13//13 16//16 
f 12//12 16//16 14//14 
f 23//23 116//116 118//118 
f 117//117 113//113 15//15 
f 120//120 117//117 15//15 
f 119//119 112//112 30//30 
f 30//30 121//121 119//119 
f 121//121 31//31 118//118 
f 17//17 30//30 112//112 
f 18//18 17//17 5//5 
f 33//33 17//17 18//18 
f 21//21 122//122 20//20 
f 22//22 20//20 122//122 
f 122//122 26//26 22//22 
f 22//22 26//26 37//37 
f 24//24 12//12 25//25 
f 24//24 19//19 12//12 
f 124//124 26//26 122//122 
f 125//125 26//26 124//124 
f 125//125 116//116 23//23 
f 125//125 23//23 36//36 
f 125//125 37//37 26//26 
f 36//36 37//37 125//125 
f 38//38 20//20 48//48 
f 29//29 27//27 38//38 
f 118//118 31//31 23//23 
f 36//36 23//23 39//39 
f 23//23 31//31 39//39 
f 34//34 17//17 33//33 
f 28//28 32//32 18//18 
f 28//28 29//29 32//32 
f 18//18 32//32 33//33 
f 27//27 29//29 28//28 
f 30//30 17//17 34//34 
f 121//121 30//30 31//31 
f 31//31 30//30 44//44 
f 33//33 45//45 34//34 
f 33//33 41//41 45//45 
f 33//33 32//32 41//41 
f 32//32 29//29 42//42 
f 41//41 32//32 42//42 
f 37//37 35//35 22//22 
f 20//20 35//35 48//48 
f 20//20 22//22 35//35 
f 48//48 35//35 58//58 
f 37//37 50//50 35//35 
f 127//127 35//35 50//50 
f 49//49 126//126 37//37 
f 36//36 49//49 37//37 
f 29//29 38//38 52//52 
f 38//38 48//48 52//52 
f 31//31 40//40 39//39 
f 36//36 39//39 40//40 
f 49//49 36//36 40//40 
f 30//30 34//34 44//44 
f 31//31 44//44 40//40 
f 34//34 45//45 47//47 
f 29//29 52//52 42//42 
f 41//41 42//42 43//43 
f 41//41 46//46 45//45 
f 43//43 46//46 41//41 
f 52//52 51//51 42//42 
f 42//42 51//51 43//43 
f 34//34 47//47 56//56 
f 45//45 46//46 47//47 
f 126//126 49//49 59//59 
f 40//40 55//55 54//54 
f 49//49 40//40 54//54 
f 59//59 49//49 54//54 
f 48//48 65//65 52//52 
f 48//48 74//74 65//65 
f 51//51 52//52 64//64 
f 52//52 65//65 64//64 
f 53//53 55//55 40//40 
f 40//40 44//44 53//53 
f 53//53 44//44 56//56 
f 54//54 55//55 61//61 
f 55//55 53//53 61//61 
f 44//44 34//34 56//56 
f 56//56 47//47 66//66 
f 43//43 57//57 46//46 
f 57//57 43//43 51//51 
f 57//57 51//51 64//64 
f 46//46 68//68 47//47 
f 47//47 68//68 66//66 
f 46//46 57//57 68//68 
f 60//60 127//127 50//50 
f 128//128 126//126 59//59 
f 58//58 74//74 48//48 
f 60//60 73//73 127//127 
f 54//54 62//62 59//59 
f 61//61 62//62 54//54 
f 62//62 128//128 59//59 
f 62//62 61//61 75//75 
f 64//64 63//63 57//57 
f 57//57 63//63 68//68 
f 63//63 69//69 68//68 
f 63//63 64//64 70//70 
f 56//56 66//66 67//67 
f 53//53 56//56 67//67 
f 68//68 69//69 66//66 
f 60//60 72//72 73//73 
f 72//72 128//128 62//62 
f 75//75 72//72 62//62 
f 64//64 65//65 76//76 
f 70//70 64//64 76//76 
f 58//58 129//129 74//74 
f 80//80 75//75 61//61 
f 53//53 80//80 61//61 
f 66//66 69//69 67//67 
f 67//67 81//81 53//53 
f 63//63 71//71 69//69 
f 63//63 70//70 71//71 
f 82//82 69//69 71//71 
f 67//67 79//79 81//81 
f 74//74 77//77 65//65 
f 129//129 78//78 74//74 
f 74//74 130//130 77//77 
f 75//75 84//84 72//72 
f 85//85 70//70 76//76 
f 80//80 53//53 81//81 
f 69//69 131//131 67//67 
f 83//83 73//73 72//72 
f 65//65 77//77 76//76 
f 85//85 76//76 88//88 
f 88//88 76//76 77//77 
f 81//81 79//79 90//90 
f 81//81 86//86 80//80 
f 79//79 67//67 131//131 
f 70//70 85//85 71//71 
f 85//85 87//87 71//71 
f 71//71 87//87 82//82 
f 134//134 79//79 133//133 
f 133//133 79//79 131//131 
f 132//132 78//78 129//129 
f 72//72 84//84 83//83 
f 88//88 77//77 130//130 
f 75//75 80//80 89//89 
f 80//80 86//86 89//89 
f 99//99 89//89 86//86 
f 85//85 88//88 104//104 
f 93//93 87//87 85//85 
f 86//86 81//81 90//90 
f 132//132 91//91 78//78 
f 91//91 88//88 130//130 
f 86//86 90//90 99//99 
f 133//133 106//106 134//134 
f 132//132 92//92 91//91 
f 84//84 92//92 83//83 
f 99//99 90//90 145//145 
f 102//102 89//89 99//99 
f 89//89 102//102 75//75 
f 88//88 91//91 96//96 
f 96//96 95//95 88//88 
f 95//95 103//103 88//88 
f 103//103 104//104 88//88 
f 93//93 85//85 142//142 
f 100//100 92//92 84//84 
f 100//100 98//98 92//92 
f 92//92 98//98 91//91 
f 98//98 94//94 91//91 
f 91//91 94//94 96//96 
f 98//98 100//100 101//101 
f 95//95 105//105 103//103 
f 105//105 95//95 97//97 
f 98//98 96//96 94//94 
f 95//95 96//96 97//97 
f 96//96 98//98 97//97 
f 137//137 138//138 140//140 
f 102//102 84//84 75//75 
f 102//102 100//100 84//84 
f 139//139 140//140 141//141 
f 107//107 140//140 139//139 
f 100//100 102//102 101//101 
f 103//103 105//105 104//104 
f 93//93 142//142 143//143 
f 135//135 144//144 107//107 
f 136//136 106//106 133//133 
f 135//135 107//107 146//146 
f 144//144 137//137 107//107 
f 139//139 146//146 107//107 
f 107//107 137//137 140//140 
