#
# The license for this database is specified in the Creative Commons Attribution-Share Alike 2.1 Japan. If you use data from this database, please be sure attribute this database as follows: "BodyParts3D, (c)  The Database Center for Life Science licensed under CC Attribution-Share Alike 2.1 Japan".
# http://dbarchive.biosciencedbc.jp/en/bodyparts3d/lic.html
#
#
# Compatibility version : 4.0
# File ID : FJ2887
# Representation ID : BP9878
# Build-up logic : FMA 3.0 part_of
# Concept ID : FMA8645
# English name : Left anterior basal segmental artery
# Bounds(mm): (110.328000,-113.966000,1164.500000)-(123.213000,-95.302800,1175.030000)
# Volume(cm3): 0.116100
#
v 111.261 -97.0661 1171.64
v 110.328 -97.4377 1172.83
v 110.681 -97.8556 1172.39
v 110.619 -98.0506 1172.96
v 111.418 -95.9625 1172.17
v 112.337 -95.3028 1172.99
v 111.743 -95.7282 1171.91
v 110.558 -97.6503 1173.83
v 110.962 -97.5193 1174.47
v 110.71 -97.947 1173.86
v 111.503 -98.1387 1174.3
v 112.577 -95.5189 1173.99
v 113.071 -95.7181 1173.13
v 112.948 -95.6896 1174.16
v 112.116 -96.5703 1175.03
v 112.391 -97.2674 1174.8
v 112.53 -96.3582 1174.92
v 112.858 -100.605 1171.34
v 112.245 -95.5351 1172.18
v 113.744 -101.498 1172.14
v 114.684 -98.2307 1173.18
v 114.352 -101.678 1169.78
v 115.6 -98.9474 1171.56
v 116.449 -103.376 1168.4
v 117.878 -102.489 1170.26
v 117.066 -102.683 1171.53
v 117.064 -103.98 1171.25
v 117.371 -102.169 1169.23
v 118.621 -108.553 1167.34
v 120.646 -107.542 1168.13
v 120.804 -107.878 1167.11
v 122.269 -113.297 1164.5
v 122.115 -112.578 1164.73
v 122.139 -112.06 1164.96
v 121.289 -112.984 1165.76
v 121.273 -112.847 1165.44
v 121.674 -112.762 1166.51
v 121.84 -113.82 1165.14
v 122.099 -113.966 1165.72
v 122.289 -113.113 1166.34
v 122.168 -113.75 1165.07
v 122.235 -113.873 1165.39
v 122.438 -113.909 1165.77
v 122.537 -113.781 1165.96
v 122.602 -113.789 1165.49
v 122.772 -113.759 1165.75
v 122.877 -113.564 1165.92
v 122.309 -112.289 1166.58
v 122.615 -113.279 1164.53
v 123.049 -112.682 1165.46
v 123.075 -113.125 1164.77
v 122.912 -113.489 1165.11
v 123.213 -113.285 1165.42
v 123.07 -112.93 1165.74
v 110.328 -97.4377 1172.83
v 110.328 -97.4377 1172.83
v 111.418 -95.9625 1172.17
v 112.337 -95.3028 1172.99
v 111.743 -95.7282 1171.91
v 111.743 -95.7282 1171.91
v 110.558 -97.6503 1173.83
v 110.962 -97.5193 1174.47
v 112.577 -95.5189 1173.99
v 112.577 -95.5189 1173.99
v 112.948 -95.6896 1174.16
v 112.116 -96.5703 1175.03
v 112.116 -96.5703 1175.03
v 112.116 -96.5703 1175.03
v 112.53 -96.3582 1174.92
v 112.245 -95.5351 1172.18
v 112.245 -95.5351 1172.18
v 117.371 -102.169 1169.23
v 118.621 -108.553 1167.34
v 120.646 -107.542 1168.13
v 120.804 -107.878 1167.11
v 122.269 -113.297 1164.5
v 121.273 -112.847 1165.44
v 121.84 -113.82 1165.14
v 121.84 -113.82 1165.14
v 122.099 -113.966 1165.72
v 122.099 -113.966 1165.72
v 122.877 -113.564 1165.92
v 122.615 -113.279 1164.53
v 123.075 -113.125 1164.77
v 123.075 -113.125 1164.77
v 123.213 -113.285 1165.42
v 123.213 -113.285 1165.42
v 123.07 -112.93 1165.74
vn -0.672147 0.134299 -0.728136
vn -0.703624 0.646687 0.294464
vn -0.81271 -0.339053 -0.473862
vn -0.823742 -0.56588 -0.0350577
vn -0.679577 0.705033 0.202739
vn -0.542658 0.83964 0.022974
vn -0.731596 0.379552 -0.566311
vn -0.850303 -0.401666 0.340073
vn -0.410132 -0.443456 0.796956
vn -0.744976 -0.551841 0.374809
vn -0.297622 -0.576051 0.761306
vn -0.703956 0.639221 0.309584
vn 0.586291 0.789067 -0.183404
vn 0.751307 0.602407 0.269524
vn -0.690252 0.638806 0.339823
vn 0.146122 -0.305903 0.940782
vn -0.0848934 0.741849 0.665171
vn -0.817183 -0.519048 -0.250603
vn 0.571505 0.740588 -0.353427
vn -0.666958 -0.666812 0.332459
vn 0.804026 0.30546 0.510134
vn -0.696133 -0.198163 -0.690022
vn 0.809988 0.58605 -0.0215631
vn -0.178725 0.280679 -0.943015
vn 0.878247 0.44826 0.166569
vn 0.633865 -0.00450898 0.77343
vn 0.1062 -0.426151 0.898397
vn 0.236493 0.503222 -0.831167
vn -0.788608 -0.278305 -0.54831
vn 0.759882 0.0919689 0.643523
vn 0.411202 0.516741 -0.750927
vn -0.593746 -0.0736014 -0.80128
vn 0.0352046 0.346774 -0.937288
vn 0.266273 0.457987 -0.848143
vn -0.827895 -0.560281 0.0259707
vn -0.869926 -0.452574 -0.195974
vn -0.161144 -0.548275 0.820626
vn -0.72057 -0.215452 -0.659059
vn -0.750295 -0.626787 0.210228
vn 0.210536 -0.3914 0.895813
vn 0.202026 -0.850929 -0.484877
vn 0.187384 -0.936675 -0.295849
vn 0.284262 -0.956726 0.0622188
vn 0.19178 -0.690652 0.697295
vn 0.366725 -0.883581 -0.2912
vn 0.575822 -0.812993 0.0864361
vn 0.61145 -0.200688 0.76541
vn 0.590741 -0.115953 0.798486
vn 0.308949 -0.786702 -0.534463
vn 0.934064 0.356981 -0.00942089
vn 0.374395 0.471275 -0.798579
vn 0.518754 -0.777427 -0.35567
vn 0.743851 -0.661941 -0.0923034
vn 0.786096 -0.0277044 0.617484
vn -0.897237 -0.441549 7.09407e-05
vn -0.801471 0.175391 -0.571736
vn -0.759852 0.368578 -0.535514
vn 0.505597 0.855714 -0.110117
vn -0.418348 0.89974 -0.124311
vn 0.0459855 0.446882 -0.89341
vn -0.702682 0.642709 0.305227
vn -0.695919 0.639999 0.325727
vn 0.445175 0.894123 0.0486115
vn -0.0848934 0.741849 0.665171
vn 0.0336769 0.741131 0.670516
vn -0.146807 -0.364225 0.919667
vn -0.202268 0.732116 0.650456
vn 0.335865 -0.175726 0.925373
vn 0.558788 -0.00493582 0.829296
vn -0.231111 0.941863 -0.243888
vn 0.229579 0.537649 -0.811312
vn 0.695301 0.629606 -0.346631
vn -0.840448 -0.538243 -0.0627797
vn 0.908069 0.413906 0.0639691
vn 0.859593 0.493687 -0.131807
vn 0.0653807 -0.78709 -0.613363
vn -0.717147 -0.175792 -0.674387
vn -0.83084 -0.556385 0.0118348
vn 0.0634072 -0.903403 -0.424078
vn -0.151059 -0.694146 0.703806
vn 0.111959 -0.967517 -0.226664
vn 0.660523 -0.661742 0.354694
vn 0.191594 0.378272 -0.90565
vn 0.622204 -0.66635 -0.4109
vn 0.901096 0.379874 -0.209095
vn 0.964777 0.262947 0.0079751
vn 0.850343 -0.111312 0.514321
vn 0.9405 0.285864 0.183689
g grp1
usemtl mtl1
f 5//5 2//2 12//12 
f 3//3 4//4 55//55 
f 4//4 10//10 55//55 
f 55//55 10//10 8//8 
f 57//57 1//1 56//56 
f 56//56 1//1 3//3 
f 4//4 3//3 18//18 
f 2//2 61//61 12//12 
f 1//1 22//22 3//3 
f 18//18 3//3 22//22 
f 4//4 18//18 20//20 
f 4//4 20//20 10//10 
f 7//7 1//1 57//57 
f 5//5 12//12 6//6 
f 6//6 59//59 5//5 
f 19//19 58//58 13//13 
f 59//59 6//6 70//70 
f 8//8 10//10 9//9 
f 11//11 9//9 10//10 
f 61//61 62//62 12//12 
f 11//11 16//16 9//9 
f 12//12 62//62 15//15 
f 16//16 11//11 27//27 
f 13//13 58//58 63//63 
f 13//13 63//63 14//14 
f 23//23 13//13 14//14 
f 16//16 66//66 9//9 
f 67//67 17//17 64//64 
f 69//69 68//68 16//16 
f 26//26 69//69 16//16 
f 65//65 64//64 17//17 
f 27//27 26//26 16//16 
f 21//21 23//23 14//14 
f 69//69 21//21 14//14 
f 20//20 11//11 10//10 
f 60//60 24//24 1//1 
f 28//28 60//60 71//71 
f 19//19 13//13 72//72 
f 60//60 28//28 24//24 
f 13//13 23//23 72//72 
f 20//20 27//27 11//11 
f 25//25 23//23 21//21 
f 21//21 69//69 26//26 
f 1//1 24//24 22//22 
f 22//22 24//24 32//32 
f 32//32 18//18 22//22 
f 23//23 25//25 72//72 
f 34//34 24//24 28//28 
f 26//26 25//25 21//21 
f 28//28 31//31 34//34 
f 25//25 75//75 72//72 
f 32//32 29//29 18//18 
f 20//20 18//18 73//73 
f 48//48 26//26 27//27 
f 26//26 30//30 25//25 
f 36//36 20//20 73//73 
f 25//25 74//74 75//75 
f 26//26 48//48 30//30 
f 35//35 20//20 36//36 
f 34//34 33//33 24//24 
f 20//20 37//37 27//27 
f 40//40 27//27 37//37 
f 48//48 27//27 40//40 
f 33//33 32//32 24//24 
f 32//32 77//77 29//29 
f 41//41 76//76 49//49 
f 33//33 83//83 32//32 
f 34//34 83//83 33//33 
f 52//52 41//41 49//49 
f 51//51 34//34 31//31 
f 20//20 35//35 39//39 
f 80//80 37//37 20//20 
f 38//38 77//77 32//32 
f 35//35 36//36 78//78 
f 35//35 78//78 39//39 
f 44//44 37//37 80//80 
f 44//44 40//40 37//37 
f 41//41 79//79 76//76 
f 42//42 81//81 79//79 
f 42//42 79//79 41//41 
f 81//81 42//42 43//43 
f 44//44 80//80 43//43 
f 47//47 40//40 44//44 
f 47//47 48//48 40//40 
f 45//45 43//43 42//42 
f 46//46 43//43 45//45 
f 43//43 46//46 44//44 
f 46//46 82//82 44//44 
f 45//45 41//41 52//52 
f 41//41 45//45 42//42 
f 46//46 45//45 52//52 
f 48//48 54//54 30//30 
f 50//50 75//75 74//74 
f 88//88 50//50 74//74 
f 51//51 83//83 34//34 
f 52//52 49//49 84//84 
f 53//53 52//52 84//84 
f 85//85 75//75 50//50 
f 88//88 86//86 50//50 
f 85//85 50//50 86//86 
f 46//46 52//52 53//53 
f 46//46 53//53 82//82 
f 47//47 87//87 54//54 
f 48//48 47//47 54//54 
