#
# The license for this database is specified in the Creative Commons Attribution-Share Alike 2.1 Japan. If you use data from this database, please be sure attribute this database as follows: "BodyParts3D, (c)  The Database Center for Life Science licensed under CC Attribution-Share Alike 2.1 Japan".
# http://dbarchive.biosciencedbc.jp/en/bodyparts3d/lic.html
#
#
# Compatibility version : 4.0
# File ID : FJ1726M
# Representation ID : BP10235
# Build-up logic : FMA 3.0 part_of
# Concept ID : FMA50575
# English name : Left superior cerebellar artery
# Bounds(mm): (-0.732000,-97.693900,1520.810100)-(21.416500,-74.385600,1527.710000)
# Volume(cm3): 0.165700
#
v 20.8467 -81.1629 1525.16
v 21.2391 -79.2574 1525.76
v 21.0522 -79.0301 1526.33
v 20.9665 -77.5613 1525.1
v 21.3021 -78.3123 1525.54
v 21.279 -77.3807 1526.3
v 20.977 -77.8414 1526.61
v 21.4165 -76.3902 1525.76
v 21.3876 -75.6686 1525.96
v 21.2403 -76.5129 1525.31
v 20.9753 -76.7544 1526.64
v 20.9948 -75.249 1525.01
v 20.968 -74.8167 1525.12
v 21.3056 -75.3612 1525.37
v 21.2615 -74.9945 1525.36
v 21.3555 -75.0675 1525.74
v 21.2381 -75.113 1526.15
v 21.2671 -74.8019 1525.75
v 21.0081 -74.6161 1525.37
v 20.9693 -75.054 1526.43
v 20.9804 -74.629 1526.14
v 20.9887 -74.4984 1525.75
v 19.4317 -85.2236 1525.51
v 19.5997 -83.9545 1524.15
v 19.4545 -82.9869 1524.18
v 20.2624 -83.4633 1525.14
v 19.9532 -82.8773 1525.91
v 19.6131 -82.8882 1526
v 20.6711 -81.5964 1525.75
v 20.7348 -79.4687 1524.92
v 19.742 -80.1968 1524.81
v 20.5488 -80.1616 1526.41
v 20.5935 -78.835 1526.67
v 20.1634 -80.1253 1526.5
v 20.1746 -78.826 1526.65
v 19.6817 -79.254 1526.31
v 19.4936 -79.8121 1525.19
v 19.4013 -79.676 1525.73
v 20.5603 -77.4502 1524.99
v 19.9761 -77.2044 1525.17
v 19.6739 -77.8709 1525.54
v 20.5993 -78.0672 1526.74
v 20.7828 -76.2011 1524.98
v 20.2215 -75.5495 1524.92
v 20.7826 -75.6561 1526.63
v 19.9849 -76.8428 1526.56
v 19.7943 -76.4382 1525.37
v 19.6875 -76.9295 1526.1
v 19.6542 -76.0637 1525.73
v 20.3969 -76.7345 1526.74
v 20.4191 -75.0323 1524.9
v 20.0049 -75.2389 1525.03
v 20.7752 -74.4238 1525.55
v 20.7849 -74.4287 1525.94
v 20.5805 -75.0585 1526.57
v 20.5993 -74.5813 1525.17
v 20.5928 -74.4669 1526.14
v 20.5925 -74.6283 1526.34
v 20.3931 -74.4654 1525.36
v 20.3931 -74.3856 1525.76
v 20.2004 -75.0691 1526.53
v 20.1958 -74.6871 1525.16
v 20.2017 -74.8084 1526.43
v 20.208 -74.5422 1526.15
v 20.0054 -75.3056 1526.46
v 19.9945 -75.0065 1526.4
v 19.8627 -74.8202 1525.35
v 19.8895 -74.806 1526.15
v 20.012 -74.5649 1525.55
v 20.0026 -74.57 1525.94
v 19.7154 -75.2884 1525.37
v 19.6327 -75.2816 1525.76
v 19.7453 -75.2644 1526.15
v 19.7599 -74.824 1525.75
v 17.7062 -90.49 1525.34
v 17.8388 -88.9286 1524.22
v 18.4234 -88.1685 1525.56
v 17.7149 -88.5 1525.93
v 18.8085 -87.5812 1524.42
v 18.3875 -86.9782 1523.96
v 17.6965 -86.8709 1524.17
v 17.8023 -87.1266 1525.73
v 18.1598 -84.9017 1524.4
v 17.782 -85.5598 1524.82
v 18.5939 -86.1165 1525.72
v 18.0183 -85.7437 1525.51
v 18.8021 -84.5484 1524.04
v 18.9307 -82.0108 1524.98
v 19.2167 -82.6824 1525.96
v 18.9926 -82.094 1525.71
v 16.0282 -92.9734 1526.53
v 17.0439 -91.3455 1526.11
v 16.6965 -92.3297 1525.75
v 16.4013 -91.3728 1526.56
v 17.5369 -90.4297 1524.77
v 16.6525 -91.192 1524.69
v 16.1982 -90.7414 1526.45
v 17.3827 -89.3882 1524.27
v 17.1981 -88.209 1525.8
v 16.9976 -87.6131 1524.99
v 17.5758 -87.0346 1525.58
v 14.9825 -94.4679 1526.14
v 15.9458 -93.3961 1526.15
v 15.8635 -93.2553 1525.56
v 15.1174 -93.8232 1525.51
v 15.0877 -94.237 1526.73
v 15.8008 -91.6552 1524.86
v 15.3482 -91.2708 1525.18
v 15.1412 -91.685 1526.53
v 14.9935 -91.4453 1525.96
v 15.178 -92.5771 1526.97
v 15.7837 -90.1501 1525.38
v 15.6774 -90.4857 1525.95
v 13.7707 -95.4083 1526.14
v 13.7304 -95.5891 1526.56
v 12.917 -95.5737 1525.91
v 13.5522 -95.5583 1527.15
v 13.1068 -95.2391 1527.57
v 14.4011 -93.5839 1525.37
v 13.4911 -93.7451 1525.73
v 13.4993 -93.2871 1526.14
v 14.447 -94.2809 1527.24
v 13.3612 -94.1784 1527.41
v 14.0123 -92.8771 1526.73
v 11.5548 -96.7151 1526.37
v 11.9583 -96.3743 1527.48
v 11.801 -96.7072 1527.11
v 12.5529 -94.9832 1525.82
v 12.0883 -94.451 1526.51
v 12.5287 -94.2348 1527.11
v 10.6727 -96.3201 1525.91
v 9.99291 -97.1919 1526.15
v 10.2236 -97.1607 1527.33
v 10.3158 -96.4903 1527.71
v 9.94647 -97.4035 1526.74
v 10.744 -95.5899 1526.08
v 10.9253 -95.211 1527.32
v 10.7446 -95.1262 1526.73
v 8.84588 -96.4016 1525.75
v 8.21097 -97.1729 1527.36
v 8.15621 -96.5423 1527.41
v 8.30368 -95.8775 1526.15
v 8.59291 -95.7595 1526.75
v 7.06683 -97.6939 1526.16
v 6.67038 -96.1861 1525.4
v 7.91296 -97.5618 1526.95
v 6.76839 -97.3862 1526.87
v 7.16761 -95.8575 1526.11
v 5.19291 -97.2017 1524.83
v 5.26923 -96.3896 1526.56
v 6.41379 -96.9843 1526.98
v 6.19291 -95.8595 1526.35
v 5.59291 -95.9095 1525.15
v 4.55612 -97.3951 1525.66
v 4.06726 -96.9699 1525.98
v 2.27961 -96.2231 1523.2
v 2.03846 -96.6862 1523.59
v 2.07808 -96.2097 1525.13
v 1.37836 -96.1481 1522.72
v 0.661801 -96.3657 1523.19
v 0.423777 -96.1218 1522.51
v 0.201125 -96.1144 1523.12
v 1.33274 -96.5439 1524.19
v 1.049 -94.8133 1521.37
v 1.0029 -95.3903 1521.81
v 0.868102 -95.187 1521.34
v 0.930107 -94.5832 1521.16
v 0.783187 -94.8076 1521.02
v 0.622668 -95.784 1521.89
v 0.610746 -95.4011 1521.29
v 0.577138 -95.1895 1521.05
v 0.382309 -95.4269 1521.2
v 0.38658 -94.8015 1520.82
v 1.59291 -95.2017 1522.52
v 1.59291 -94.7032 1523.35
v 1.21742 -94.8012 1521.99
v 1.49946 -95.3886 1524.59
v 0.279328 -95.7972 1523.73
v 1.07511 -94.4051 1521.57
v 0.590738 -94.4259 1520.93
v 0.588631 -94.0878 1521.18
v 0.371538 -93.8405 1521.57
v 0.19914 -94.4048 1520.85
v 0.000636427 -94.0379 1521.18
v 1.01183 -94.2968 1522.34
v 0.807322 -94.2771 1522.78
v 0.777537 -93.984 1521.95
v 0.379415 -93.9126 1522.16
v -0.000824759 -95.1837 1520.95
v -0.00661458 -94.7871 1520.81
v -0.180455 -95.5128 1521.39
v -0.501705 -95.4306 1521.81
v -0.552455 -95.1874 1521.35
v -0.395572 -94.8013 1521
v -0.730241 -95.0131 1521.76
v -0.682844 -94.802 1521.37
v -0.731976 -94.6105 1521.77
v -0.337213 -95.0185 1523
v -0.573903 -94.6051 1522.36
v -0.553445 -95.373 1522.4
v -0.6666 -94.9868 1522.33
v -0.198646 -94.4169 1520.94
v -0.573892 -94.4114 1521.35
v 0.0335167 -94.4157 1522.92
v -0.36267 -94.1046 1521.94
v 20.2624 -83.4633 1525.14
v 18.4234 -88.1685 1525.56
v 18.3875 -86.9782 1523.96
v 17.0439 -91.3455 1526.11
v 16.6965 -92.3297 1525.75
v 15.3482 -91.2708 1525.18
v 12.0883 -94.451 1526.51
v 12.5287 -94.2348 1527.11
v 10.7446 -95.1262 1526.73
v 5.19291 -97.2017 1524.83
v 6.19291 -95.8595 1526.35
v 5.59291 -95.9095 1525.15
v 5.59291 -95.9095 1525.15
v 4.55612 -97.3951 1525.66
v 2.07808 -96.2097 1525.13
v 1.59291 -95.2017 1522.52
v 1.59291 -95.2017 1522.52
v 1.59291 -94.7032 1523.35
v 1.59291 -94.7032 1523.35
v 0.279328 -95.7972 1523.73
v 0.371538 -93.8405 1521.57
vn 0.93128 -0.162118 -0.326245
vn 0.977855 -0.153158 0.142625
vn 0.749932 -0.17829 0.637035
vn 0.441341 0.00529885 -0.897324
vn 0.949114 -0.0566462 -0.309796
vn 0.909488 -0.0335985 0.41437
vn 0.556959 -0.0775785 0.826909
vn 0.9993 -0.00449007 -0.0371434
vn 0.964832 0.0592095 0.256112
vn 0.706107 -0.0289104 -0.707514
vn 0.519522 0.040709 0.853487
vn 0.558066 0.0706265 -0.826785
vn 0.466862 0.439612 -0.767321
vn 0.905968 0.0283018 -0.422399
vn 0.847707 0.301969 -0.436128
vn 0.986177 0.165655 0.00354238
vn 0.839463 0.215865 0.498703
vn 0.857507 0.511315 0.0569105
vn 0.591542 0.702825 -0.395114
vn 0.525265 0.299587 0.796457
vn 0.570271 0.652089 0.49957
vn 0.583596 0.811628 0.0260159
vn 0.650845 -0.251526 0.716335
vn 0.548792 -0.0824025 -0.831887
vn -0.00783435 0.155761 -0.987764
vn 0.857742 -0.217501 -0.465804
vn 0.464463 -0.241311 0.852081
vn 0.0828374 -0.161296 0.983423
vn 0.842834 -0.270584 0.465204
vn 0.465064 0.0353115 -0.884573
vn -0.461209 0.21413 -0.861066
vn 0.428882 -0.22923 0.873793
vn 0.261011 -0.14197 0.954839
vn -0.0160124 -0.155782 0.987662
vn -0.294246 -0.0533766 0.954238
vn -0.776613 0.0424252 0.628547
vn -0.896744 0.180438 -0.404095
vn -0.983729 0.1557 0.0896385
vn 0.0232393 0.0122575 -0.999655
vn -0.668967 0.0229444 -0.742938
vn -0.942201 0.0588224 -0.329844
vn 0.13166 -0.0405605 0.990465
vn 0.292982 -0.0365683 -0.955418
vn -0.208838 -0.0261065 -0.977602
vn 0.275983 0.114694 0.954295
vn -0.657019 0.0276336 0.753367
vn -0.880949 -0.027042 -0.472437
vn -0.980572 0.0435422 0.191264
vn -0.985744 -0.0198764 -0.167073
vn -0.145245 0.0487426 0.988194
vn -0.0308925 0.24381 -0.969331
vn -0.577002 0.164917 -0.799919
vn 0.230855 0.946366 -0.226047
vn 0.273263 0.940255 0.203093
vn 0.0658058 0.291758 0.954226
vn 0.108393 0.728964 -0.675916
vn 0.0739591 0.888515 0.452848
vn 0.117005 0.6394 0.759919
vn -0.177283 0.902912 -0.391562
vn -0.172149 0.983801 0.0500053
vn -0.313902 0.215977 0.924564
vn -0.39779 0.607705 -0.687356
vn -0.319597 0.524322 0.789268
vn -0.331439 0.806155 0.490166
vn -0.575404 0.0952115 0.812309
vn -0.626348 0.28544 0.725405
vn -0.752939 0.457228 -0.473313
vn -0.716752 0.510386 0.475156
vn -0.558661 0.797582 -0.22751
vn -0.58897 0.786481 0.185908
vn -0.910456 0.0862307 -0.404518
vn -0.994153 0.103485 0.0308445
vn -0.871376 0.148827 0.467499
vn -0.895501 0.444653 0.0190188
vn 0.910639 -0.409613 0.0543453
vn 0.391745 -0.300515 -0.869613
vn 0.897941 -0.311713 0.310703
vn 0.170248 0.0991344 0.980402
vn 0.840449 -0.33213 -0.428176
vn -0.108726 -0.0116322 -0.994004
vn -0.563648 0.154317 -0.811472
vn -0.343983 0.2242 0.911817
vn -0.785701 0.286921 -0.548042
vn -0.947472 0.316369 0.0469746
vn 0.0585914 -0.0184196 0.998112
vn -0.644736 0.214379 0.733729
vn -0.278655 0.152413 -0.94822
vn -0.922185 0.279315 -0.267501
vn -0.406267 -0.0250908 0.91341
vn -0.888784 0.171867 0.424881
vn 0.712325 -0.348817 0.609032
vn 0.854931 -0.381482 0.351517
vn 0.84085 -0.43195 0.326176
vn 0.384744 -0.00127262 0.923022
vn 0.631512 -0.462695 -0.622178
vn 0.208363 -0.357759 -0.910271
vn -0.199833 0.352412 0.914261
vn -0.00635188 -0.1868 -0.982377
vn -0.446078 0.327152 0.833058
vn -0.915469 0.397173 0.064574
vn -0.659441 0.302847 0.688056
vn 0.659966 -0.713815 -0.234334
vn 0.793158 -0.604477 0.0742109
vn 0.62192 -0.590475 -0.514348
vn 0.333924 -0.522141 -0.78477
vn 0.701717 -0.585117 0.406487
vn -0.327001 -0.0179039 -0.944854
vn -0.832113 0.443728 -0.332706
vn -0.481368 0.548306 0.683846
vn -0.795697 0.59231 0.126632
vn 0.0271148 0.238258 0.970823
vn -0.885092 0.460312 -0.0687352
vn -0.712636 0.520748 0.470077
vn 0.451586 -0.71556 -0.532959
vn 0.586824 -0.809433 -0.0213498
vn 0.157079 -0.420412 -0.893633
vn 0.548932 -0.626376 0.553468
vn 0.248477 -0.173867 0.952906
vn -0.137884 -0.135791 -0.981096
vn -0.551498 0.314202 -0.77274
vn -0.739984 0.633992 -0.224673
vn 0.415919 -0.163011 0.894672
vn -0.154005 0.387838 0.908771
vn -0.604437 0.691398 0.395758
vn 0.384177 -0.835138 -0.393639
vn 0.311951 -0.57019 0.75998
vn 0.425582 -0.879512 0.21293
vn -0.280713 0.212416 -0.935991
vn -0.497545 0.586751 -0.638883
vn -0.300902 0.596702 0.743912
vn 0.023467 -0.0728436 -0.997067
vn 0.217269 -0.641853 -0.735404
vn 0.156796 -0.766326 0.623024
vn -0.0241058 -0.0691169 0.997317
vn 0.231563 -0.972704 -0.015021
vn -0.194166 0.559469 -0.805788
vn -0.302793 0.687951 0.659576
vn -0.375498 0.920123 0.111242
vn 0.12922 0.232684 -0.96393
vn -0.121114 -0.438408 0.890578
vn -0.216834 0.357176 0.90852
vn -0.0443992 0.868951 -0.492903
vn -0.186831 0.957577 0.21941
vn -0.00251669 -0.997796 -0.0663125
vn 0.209245 0.599854 -0.772264
vn -0.0224862 -0.891664 0.452139
vn -0.238031 -0.739411 0.629772
vn 0.0702423 0.958366 -0.276768
vn 0.321195 -0.116414 -0.939831
vn -0.325789 0.278277 0.903562
vn -0.300669 -0.20678 0.931042
vn -0.161467 0.717901 0.677161
vn 0.323892 0.75543 -0.569579
vn -0.117398 -0.97369 -0.19531
vn -0.419755 -0.508133 0.752068
vn 0.326028 -0.511269 -0.795179
vn -0.0126567 -0.920039 -0.391623
vn -0.468194 0.119035 0.875571
vn 0.379291 -0.632645 -0.675203
vn -0.334423 -0.939237 -0.0774288
vn -0.180182 -0.913005 -0.366
vn -0.62752 -0.771085 0.10792
vn -0.473553 -0.813101 0.338547
vn 0.892417 -0.15587 -0.423435
vn 0.74387 -0.435153 -0.507247
vn 0.699723 -0.469522 -0.538457
vn 0.7681 0.222654 -0.600372
vn 0.632065 -0.18081 -0.753526
vn 0.306294 -0.790747 -0.530003
vn 0.497596 -0.68447 -0.532822
vn 0.39421 -0.519281 -0.758251
vn 0.121936 -0.792136 -0.59804
vn 0.221287 -0.144473 -0.964448
vn 0.601768 -0.19786 -0.773775
vn 0.410304 0.843583 -0.346437
vn 0.938733 0.18309 -0.29199
vn -0.323464 0.590077 0.739717
vn -0.742184 -0.471448 0.476339
vn 0.878524 0.412947 -0.240147
vn 0.437278 0.277829 -0.855336
vn 0.437144 0.710838 -0.551012
vn 0.288247 0.932214 -0.21884
vn 0.0101281 0.406872 -0.913429
vn -0.287573 0.809066 -0.512556
vn 0.748236 0.662788 0.0292514
vn 0.231541 0.890407 0.391874
vn 0.553108 0.832667 0.0271318
vn -0.0229254 0.94972 0.312261
vn -0.180168 -0.532527 -0.827015
vn -0.213379 -0.0537721 -0.975488
vn -0.350757 -0.808068 -0.473282
vn -0.692191 -0.705673 -0.151321
vn -0.727668 -0.493043 -0.476874
vn -0.639415 -0.079306 -0.764761
vn -0.962456 -0.264654 -0.0603102
vn -0.923381 -0.0201477 -0.383356
vn -0.960629 0.275586 0.0352792
vn -0.787402 0.157298 0.596033
vn -0.814539 0.423394 0.396565
vn -0.882034 -0.41107 0.2303
vn -0.960546 -0.0112822 0.277891
vn -0.454217 0.379931 -0.805816
vn -0.778261 0.484907 -0.398968
vn -0.400555 0.720278 0.566352
vn -0.58272 0.801922 0.131755
vn 0.906002 -0.301693 0.296886
vn 0.473912 -0.085678 0.876394
vn 0.555621 -0.220802 -0.801581
vn 0.566819 -0.124937 0.814314
vn 0.758615 -0.560169 -0.332738
vn -0.502439 0.126807 -0.855263
vn -0.577646 0.813056 0.0725677
vn -0.525154 0.836308 0.157486
vn -0.286272 0.782847 -0.552448
vn 0.0098313 -0.935251 -0.35385
vn 0.114464 0.985985 -0.121372
vn 0.411587 0.0970497 -0.906188
vn 0.278394 0.92714 -0.250817
vn -0.301179 -0.841447 0.448618
vn -0.554356 -0.542008 0.631599
vn 0.440185 0.769735 -0.462326
vn 0.854378 0.445473 -0.267565
vn 0.142127 0.913494 0.38122
vn 0.835342 0.481685 -0.264923
vn -0.603992 0.164671 0.779793
vn -0.334341 0.942406 0.00930195
g grp1
usemtl mtl1
f 26//26 24//24 1//1 
f 29//29 1//1 2//2 
f 206//206 1//1 29//29 
f 1//1 5//5 2//2 
f 30//30 1//1 24//24 
f 1//1 30//30 5//5 
f 2//2 5//5 6//6 
f 29//29 2//2 3//3 
f 6//6 3//3 2//2 
f 29//29 3//3 32//32 
f 33//33 32//32 3//3 
f 8//8 6//6 5//5 
f 14//14 8//8 5//5 
f 6//6 8//8 9//9 
f 30//30 10//10 5//5 
f 5//5 10//10 14//14 
f 33//33 3//3 7//7 
f 30//30 4//4 10//10 
f 7//7 6//6 11//11 
f 3//3 6//6 7//7 
f 6//6 17//17 11//11 
f 33//33 7//7 42//42 
f 42//42 7//7 11//11 
f 4//4 43//43 10//10 
f 10//10 43//43 12//12 
f 43//43 51//51 12//12 
f 6//6 9//9 17//17 
f 14//14 10//10 12//12 
f 9//9 8//8 16//16 
f 17//17 9//9 16//16 
f 17//17 20//20 11//11 
f 8//8 14//14 16//16 
f 20//20 45//45 11//11 
f 12//12 51//51 13//13 
f 15//15 14//14 12//12 
f 14//14 15//15 16//16 
f 15//15 18//18 16//16 
f 16//16 18//18 17//17 
f 12//12 13//13 15//15 
f 13//13 19//19 15//15 
f 18//18 15//15 19//19 
f 19//19 22//22 18//18 
f 18//18 21//21 17//17 
f 22//22 21//21 18//18 
f 13//13 51//51 56//56 
f 19//19 13//13 56//56 
f 21//21 20//20 17//17 
f 56//56 53//53 19//19 
f 53//53 22//22 19//19 
f 53//53 54//54 22//22 
f 22//22 54//54 21//21 
f 53//53 60//60 54//54 
f 77//77 79//79 206//206 
f 77//77 206//206 23//23 
f 23//23 85//85 207//207 
f 27//27 85//85 23//23 
f 25//25 24//24 87//87 
f 87//87 31//31 25//25 
f 206//206 29//29 23//23 
f 85//85 27//27 28//28 
f 85//85 28//28 89//89 
f 29//29 27//27 23//23 
f 32//32 28//28 27//27 
f 28//28 32//32 34//34 
f 89//89 28//28 34//34 
f 24//24 25//25 30//30 
f 29//29 32//32 27//27 
f 36//36 90//90 89//89 
f 38//38 90//90 36//36 
f 38//38 88//88 90//90 
f 88//88 38//38 37//37 
f 25//25 31//31 30//30 
f 39//39 31//31 40//40 
f 31//31 88//88 37//37 
f 40//40 31//31 37//37 
f 34//34 32//32 33//33 
f 34//34 33//33 35//35 
f 35//35 33//33 42//42 
f 35//35 89//89 34//34 
f 36//36 89//89 35//35 
f 41//41 40//40 37//37 
f 37//37 38//38 48//48 
f 38//38 36//36 48//48 
f 31//31 39//39 30//30 
f 39//39 4//4 30//30 
f 11//11 50//50 42//42 
f 46//46 35//35 50//50 
f 46//46 36//36 35//35 
f 41//41 47//47 40//40 
f 37//37 48//48 41//41 
f 36//36 46//46 48//48 
f 42//42 50//50 35//35 
f 43//43 39//39 44//44 
f 4//4 39//39 43//43 
f 44//44 51//51 43//43 
f 40//40 44//44 39//39 
f 52//52 44//44 40//40 
f 51//51 44//44 52//52 
f 71//71 40//40 47//47 
f 52//52 40//40 71//71 
f 50//50 11//11 45//45 
f 50//50 45//45 55//55 
f 55//55 45//45 20//20 
f 61//61 50//50 55//55 
f 46//46 50//50 65//65 
f 50//50 61//61 65//65 
f 73//73 48//48 46//46 
f 46//46 65//65 73//73 
f 41//41 49//49 47//47 
f 41//41 48//48 49//49 
f 47//47 49//49 71//71 
f 49//49 48//48 72//72 
f 49//49 72//72 71//71 
f 48//48 73//73 72//72 
f 62//62 56//56 51//51 
f 59//59 56//56 62//62 
f 52//52 62//62 51//51 
f 20//20 21//21 58//58 
f 55//55 20//20 58//58 
f 56//56 59//59 53//53 
f 60//60 53//53 59//59 
f 54//54 57//57 21//21 
f 58//58 21//21 57//57 
f 54//54 60//60 57//57 
f 61//61 55//55 63//63 
f 58//58 64//64 63//63 
f 55//55 58//58 63//63 
f 69//69 59//59 62//62 
f 60//60 59//59 69//69 
f 64//64 58//58 57//57 
f 57//57 60//60 64//64 
f 65//65 61//61 66//66 
f 68//68 66//66 63//63 
f 66//66 61//61 63//63 
f 62//62 67//67 69//69 
f 52//52 67//67 62//62 
f 68//68 63//63 64//64 
f 68//68 64//64 70//70 
f 69//69 70//70 60//60 
f 60//60 70//70 64//64 
f 65//65 66//66 73//73 
f 71//71 67//67 52//52 
f 73//73 66//66 68//68 
f 74//74 69//69 67//67 
f 70//70 69//69 74//74 
f 72//72 74//74 71//71 
f 72//72 73//73 74//74 
f 68//68 74//74 73//73 
f 74//74 67//67 71//71 
f 70//70 74//74 68//68 
f 75//75 95//95 79//79 
f 79//79 77//77 75//75 
f 95//95 76//76 79//79 
f 98//98 80//80 76//76 
f 94//94 207//207 78//78 
f 26//26 79//79 24//24 
f 79//79 208//208 24//24 
f 76//76 208//208 79//79 
f 81//81 87//87 80//80 
f 81//81 83//83 87//87 
f 78//78 207//207 85//85 
f 86//86 101//101 82//82 
f 100//100 101//101 86//86 
f 87//87 83//83 31//31 
f 83//83 84//84 88//88 
f 86//86 82//82 85//85 
f 84//84 100//100 86//86 
f 80//80 87//87 24//24 
f 31//31 83//83 88//88 
f 84//84 90//90 88//88 
f 86//86 85//85 89//89 
f 86//86 89//89 90//90 
f 86//86 90//90 84//84 
f 93//93 91//91 103//103 
f 95//95 210//210 104//104 
f 103//103 104//104 210//210 
f 95//95 75//75 210//210 
f 93//93 75//75 92//92 
f 207//207 94//94 209//209 
f 92//92 91//91 93//93 
f 209//209 94//94 91//91 
f 95//95 98//98 76//76 
f 96//96 98//98 95//95 
f 92//92 75//75 77//77 
f 97//97 94//94 78//78 
f 111//111 94//94 97//97 
f 109//109 111//111 97//97 
f 109//109 97//97 113//113 
f 113//113 97//97 99//99 
f 98//98 81//81 80//80 
f 81//81 108//108 100//100 
f 99//99 78//78 85//85 
f 97//97 78//78 99//99 
f 99//99 100//100 113//113 
f 83//83 100//100 84//84 
f 81//81 100//100 83//83 
f 101//101 99//99 82//82 
f 99//99 85//85 82//82 
f 99//99 101//101 100//100 
f 102//102 106//106 115//115 
f 102//102 115//115 114//114 
f 106//106 122//122 117//117 
f 103//103 91//91 106//106 
f 95//95 104//104 96//96 
f 103//103 106//106 102//102 
f 102//102 105//105 104//104 
f 105//105 96//96 104//104 
f 103//103 102//102 104//104 
f 119//119 96//96 105//105 
f 105//105 116//116 119//119 
f 119//119 120//120 107//107 
f 106//106 91//91 122//122 
f 122//122 94//94 111//111 
f 107//107 96//96 119//119 
f 81//81 107//107 211//211 
f 113//113 110//110 109//109 
f 110//110 108//108 121//121 
f 109//109 110//110 124//124 
f 122//122 91//91 94//94 
f 123//123 109//109 124//124 
f 123//123 111//111 109//109 
f 98//98 96//96 107//107 
f 81//81 98//98 107//107 
f 108//108 112//112 100//100 
f 112//112 113//113 100//100 
f 112//112 108//108 110//110 
f 113//113 112//112 110//110 
f 114//114 125//125 116//116 
f 105//105 102//102 114//114 
f 115//115 125//125 114//114 
f 127//127 125//125 115//115 
f 116//116 105//105 114//114 
f 128//128 119//119 116//116 
f 119//119 128//128 120//120 
f 106//106 117//117 115//115 
f 115//115 117//117 127//127 
f 117//117 122//122 118//118 
f 118//118 122//122 123//123 
f 211//211 107//107 120//120 
f 120//120 121//121 108//108 
f 121//121 120//120 129//129 
f 212//212 124//124 121//121 
f 111//111 123//123 122//122 
f 130//130 123//123 124//124 
f 124//124 110//110 121//121 
f 116//116 125//125 132//132 
f 126//126 127//127 117//117 
f 126//126 117//117 118//118 
f 126//126 118//118 134//134 
f 131//131 128//128 116//116 
f 128//128 136//136 129//129 
f 128//128 131//131 136//136 
f 123//123 134//134 118//118 
f 213//213 212//212 138//138 
f 213//213 138//138 137//137 
f 128//128 129//129 120//120 
f 123//123 130//130 137//137 
f 213//213 124//124 212//212 
f 127//127 135//135 125//125 
f 132//132 131//131 116//116 
f 132//132 125//125 135//135 
f 127//127 133//133 135//135 
f 126//126 133//133 127//127 
f 134//134 133//133 126//126 
f 214//214 129//129 136//136 
f 142//142 214//214 136//136 
f 136//136 131//131 139//139 
f 137//137 134//134 123//123 
f 138//138 143//143 137//137 
f 144//144 135//135 146//146 
f 132//132 139//139 131//131 
f 135//135 144//144 132//132 
f 149//149 139//139 132//132 
f 215//215 132//132 144//144 
f 146//146 135//135 133//133 
f 133//133 134//134 140//140 
f 133//133 140//140 146//146 
f 140//140 141//141 151//151 
f 140//140 134//134 141//141 
f 134//134 137//137 141//141 
f 141//141 137//137 143//143 
f 142//142 143//143 138//138 
f 139//139 142//142 136//136 
f 146//146 147//147 144//144 
f 149//149 145//145 139//139 
f 146//146 140//140 147//147 
f 147//147 140//140 151//151 
f 145//145 142//142 139//139 
f 148//148 142//142 145//145 
f 148//148 143//143 142//142 
f 152//152 141//141 143//143 
f 145//145 153//153 148//148 
f 145//145 149//149 217//217 
f 150//150 151//151 141//141 
f 216//216 143//143 148//148 
f 152//152 150//150 141//141 
f 148//148 218//218 216//216 
f 215//215 154//154 157//157 
f 149//149 174//174 217//217 
f 174//174 149//149 156//156 
f 219//219 144//144 147//147 
f 155//155 219//219 147//147 
f 147//147 151//151 155//155 
f 215//215 144//144 154//154 
f 155//155 151//151 150//150 
f 175//175 216//216 218//218 
f 157//157 159//159 156//156 
f 157//157 156//156 149//149 
f 157//157 154//154 163//163 
f 163//163 219//219 155//155 
f 155//155 150//150 158//158 
f 175//175 218//218 221//221 
f 152//152 223//223 177//177 
f 177//177 150//150 152//152 
f 157//157 163//163 160//160 
f 157//157 161//161 159//159 
f 160//160 163//163 162//162 
f 157//157 160//160 161//161 
f 161//161 160//160 162//162 
f 161//161 162//162 192//192 
f 178//178 162//162 163//163 
f 163//163 220//220 178//178 
f 155//155 220//220 163//163 
f 176//176 165//165 164//164 
f 164//164 179//179 176//176 
f 164//164 167//167 179//179 
f 164//164 165//165 166//166 
f 166//166 168//168 164//164 
f 167//167 164//164 168//168 
f 180//180 167//167 168//168 
f 165//165 170//170 166//166 
f 165//165 169//169 170//170 
f 170//170 171//171 166//166 
f 171//171 173//173 168//168 
f 171//171 168//168 166//166 
f 168//168 173//173 180//180 
f 169//169 161//161 172//172 
f 169//169 172//172 170//170 
f 172//172 189//189 171//171 
f 172//172 171//171 170//170 
f 189//189 173//173 171//171 
f 172//172 191//191 189//189 
f 191//191 172//172 161//161 
f 183//183 180//180 173//173 
f 189//189 190//190 173//173 
f 190//190 183//183 173//173 
f 174//174 156//156 159//159 
f 224//224 222//222 176//176 
f 165//165 174//174 159//159 
f 165//165 176//176 174//174 
f 185//185 224//224 176//176 
f 186//186 223//223 185//185 
f 186//186 177//177 223//223 
f 169//169 165//165 159//159 
f 185//185 176//176 179//179 
f 159//159 161//161 169//169 
f 158//158 150//150 177//177 
f 158//158 177//177 225//225 
f 181//181 179//179 167//167 
f 181//181 187//187 179//179 
f 180//180 181//181 167//167 
f 181//181 182//182 187//187 
f 182//182 188//188 187//187 
f 183//183 181//181 180//180 
f 184//184 181//181 183//183 
f 184//184 182//182 181//181 
f 188//188 226//226 205//205 
f 205//205 226//226 184//184 
f 179//179 187//187 185//185 
f 187//187 186//186 185//185 
f 204//204 177//177 186//186 
f 186//186 188//188 204//204 
f 187//187 188//188 186//186 
f 205//205 204//204 188//188 
f 161//161 192//192 191//191 
f 189//189 191//191 193//193 
f 202//202 183//183 190//190 
f 189//189 193//193 194//194 
f 190//190 189//189 194//194 
f 194//194 203//203 202//202 
f 190//190 194//194 202//202 
f 191//191 192//192 193//193 
f 196//196 194//194 193//193 
f 203//203 194//194 196//196 
f 195//195 193//193 192//192 
f 200//200 195//195 192//192 
f 193//193 195//195 196//196 
f 195//195 197//197 196//196 
f 196//196 197//197 203//203 
f 192//192 162//162 200//200 
f 200//200 162//162 178//178 
f 200//200 178//178 198//198 
f 225//225 177//177 198//198 
f 204//204 198//198 177//177 
f 200//200 198//198 201//201 
f 201//201 198//198 199//199 
f 198//198 204//204 199//199 
f 205//205 197//197 199//199 
f 205//205 199//199 204//204 
f 200//200 201//201 195//195 
f 197//197 201//201 199//199 
f 197//197 195//195 201//201 
f 203//203 184//184 202//202 
f 184//184 183//183 202//202 
f 184//184 203//203 205//205 
f 203//203 197//197 205//205 
