#
# The license for this database is specified in the Creative Commons Attribution-Share Alike 2.1 Japan. If you use data from this database, please be sure attribute this database as follows: "BodyParts3D, (c)  The Database Center for Life Science licensed under CC Attribution-Share Alike 2.1 Japan".
# http://dbarchive.biosciencedbc.jp/en/bodyparts3d/lic.html
#
#
# Compatibility version : 4.0
# File ID : FJ2918
# Representation ID : BP9657
# Build-up logic : FMA 3.0 part_of
# Concept ID : FMA8634
# English name : Left apical segmental artery
# Bounds(mm): (47.554800,-86.754500,1313.770000)-(56.775000,-78.578800,1330.230000)
# Volume(cm3): 0.065700
#
v 48.4943 -84.2875 1314.29
v 48.8916 -84.7095 1313.91
v 48.8963 -84.0111 1314.56
v 47.8531 -85.4894 1314.32
v 48.2527 -84.9599 1314.02
v 48.5072 -85.8496 1313.96
v 48.3786 -86.3694 1314.47
v 48.8911 -85.3492 1313.77
v 48.8439 -85.8969 1313.89
v 48.7979 -86.1764 1314.07
v 48.8749 -86.6913 1314.79
v 47.8378 -84.5146 1314.84
v 48.5243 -83.9381 1314.83
v 47.5548 -85.3767 1314.86
v 47.7243 -84.571 1315.67
v 47.7 -85.9562 1314.92
v 47.7261 -85.7574 1315.69
v 48.2105 -86.5343 1315.17
v 48.1726 -85.9258 1316.31
v 48.7833 -86.7545 1315.32
v 48.7306 -86.392 1316.13
v 49.4836 -84.379 1314.28
v 50.067 -84.2384 1314.93
v 49.4762 -85.3263 1313.88
v 49.4041 -85.9306 1314
v 49.2853 -86.4666 1314.43
v 50.0035 -85.0458 1314.25
v 49.9622 -85.6472 1314.23
v 49.9037 -86.178 1314.56
v 49.806 -86.4453 1314.92
v 50.2463 -85.5368 1314.69
v 50.3275 -84.8078 1314.93
v 49.4035 -86.691 1315.14
v 49.3194 -86.5368 1315.87
v 49.968 -86.2017 1315.79
v 50.2404 -85.9482 1315.47
v 50.0001 -81.7072 1318.51
v 50.459 -81.997 1318.1
v 49.1872 -82.1541 1318.59
v 49.9208 -81.6293 1321.32
v 50.0675 -83.0976 1320.57
v 51.4415 -82.8655 1319.16
v 50.4454 -80.6256 1321.03
v 51.5945 -81.4925 1319.98
v 51.206 -80.2868 1321.32
v 51.9766 -80.0381 1322.17
v 50.6276 -83.2368 1320.51
v 51.3818 -83.0189 1319.94
v 50.9078 -80.1269 1322.72
v 50.8926 -81.2725 1323.11
v 51.2604 -80.0839 1323.91
v 51.5985 -79.7311 1322.73
v 51.8976 -80.7388 1324.64
v 51.2126 -81.7127 1322.9
v 51.8851 -81.8363 1322.5
v 52.1577 -79.2703 1324.34
v 52.5663 -79.2494 1324.18
v 52.9187 -80.2374 1323.33
v 52.8276 -80.665 1323.17
v 53.2201 -80.108 1324.02
v 53.0393 -79.4968 1324.13
v 53.3129 -80.4075 1324.53
v 53.2917 -78.8485 1326.1
v 52.2175 -79.3513 1325.25
v 52.3553 -79.8754 1325.82
v 53.1175 -80.6118 1325.1
v 52.8775 -79.2166 1326.44
v 53.1755 -79.7999 1326.89
v 53.3271 -79.4578 1327.23
v 54.1984 -78.9608 1326.37
v 54.3828 -78.6507 1327.37
v 54.2205 -79.6771 1326.03
v 54.3629 -79.9132 1326.74
v 55.0497 -79.2697 1327.31
v 55.1186 -79.5513 1327.59
v 54.2465 -78.6786 1327.62
v 53.9546 -79.1075 1327.94
v 54.4006 -79.9002 1327.7
v 54.5316 -79.3782 1328.6
v 54.7882 -79.6926 1328.49
v 56.0686 -78.5788 1329.45
v 56.3469 -78.6273 1329.48
v 56.4084 -78.6577 1329.93
v 56.0628 -79.5565 1329.62
v 55.9812 -78.7379 1329.86
v 55.9176 -79.0182 1330
v 55.9807 -79.3186 1329.96
v 56.4523 -78.8514 1329.23
v 56.5938 -79.1424 1329.37
v 56.534 -79.4215 1329.47
v 56.684 -78.8146 1329.72
v 56.6454 -79.389 1329.8
v 56.6727 -79.0548 1330.07
v 56.3307 -79.0099 1330.23
v 56.3538 -79.4071 1330.03
v 56.775 -79.0978 1329.78
v 47.8531 -85.4894 1314.32
v 47.5548 -85.3767 1314.86
v 47.7 -85.9562 1314.92
v 48.2105 -86.5343 1315.17
v 50.4454 -80.6256 1321.03
v 53.1175 -80.6118 1325.1
v 54.1984 -78.9608 1326.37
v 54.2205 -79.6771 1326.03
v 54.4006 -79.9002 1327.7
v 54.4006 -79.9002 1327.7
v 56.4084 -78.6577 1329.93
v 56.0628 -79.5565 1329.62
v 56.4523 -78.8514 1329.23
v 56.534 -79.4215 1329.47
v 56.684 -78.8146 1329.72
v 56.684 -78.8146 1329.72
v 56.6454 -79.389 1329.8
v 56.6454 -79.389 1329.8
v 56.6727 -79.0548 1330.07
v 56.3307 -79.0099 1330.23
v 56.3307 -79.0099 1330.23
v 56.3307 -79.0099 1330.23
v 56.3538 -79.4071 1330.03
v 56.3538 -79.4071 1330.03
v 56.775 -79.0978 1329.78
v 56.775 -79.0978 1329.78
v 56.775 -79.0978 1329.78
vn -0.372243 0.659338 -0.65323
vn 0.00915312 0.452355 -0.891791
vn 0.00483086 0.800932 -0.598735
vn -0.687951 -0.341811 -0.640225
vn -0.513132 0.221272 -0.829298
vn -0.415555 -0.323496 -0.850096
vn -0.438401 -0.713521 -0.546528
vn -0.0596902 -0.046708 -0.997124
vn -0.0441757 -0.37144 -0.927405
vn -0.0954701 -0.644036 -0.759014
vn -0.108477 -0.943059 -0.314441
vn -0.783061 0.498652 -0.371701
vn -0.427834 0.811954 -0.3971
vn -0.992342 0.0891171 -0.0855308
vn -0.959275 0.256338 0.118667
vn -0.744154 -0.499283 -0.443791
vn -0.905317 -0.306438 0.294103
vn -0.451078 -0.852501 -0.264142
vn -0.651457 -0.567558 0.503469
vn -0.115184 -0.982029 0.149503
vn -0.245031 -0.825579 0.50831
vn 0.3653 0.585796 -0.723463
vn 0.655791 0.523278 -0.544168
vn 0.372333 0.0832091 -0.924362
vn 0.309408 -0.438703 -0.843686
vn 0.20944 -0.81161 -0.545366
vn 0.720958 0.214341 -0.658998
vn 0.682008 -0.23603 -0.692211
vn 0.691323 -0.559145 -0.457635
vn 0.612688 -0.773126 -0.163979
vn 0.924567 -0.178234 -0.336761
vn 0.903911 0.167235 -0.393672
vn 0.319911 -0.946871 -0.0330426
vn 0.22449 -0.895289 0.384788
vn 0.596873 -0.7643 0.244109
vn 0.872453 -0.486711 -0.0440277
vn -0.210828 0.887274 -0.410239
vn 0.337899 0.774986 -0.534061
vn -0.736547 0.668885 -0.100457
vn -0.92502 0.0772591 0.371979
vn -0.466878 -0.637815 0.61255
vn 0.969869 -0.161504 -0.182401
vn -0.865847 0.486631 0.116185
vn 0.816652 0.355867 -0.454354
vn -0.00564026 0.910517 -0.413434
vn 0.369092 0.801141 -0.471109
vn 0.203515 -0.84024 0.502572
vn 0.743266 -0.644782 0.178359
vn -0.725261 0.683662 0.081258
vn -0.728751 -0.383247 0.567489
vn -0.887196 0.23266 0.398438
vn -0.197341 0.944889 -0.261229
vn -0.430742 -0.720096 0.543987
vn -0.177993 -0.817613 0.547566
vn 0.529773 -0.820807 0.213583
vn -0.392235 0.918415 -0.0516331
vn 0.146872 0.934445 -0.32441
vn 0.898414 0.144442 -0.414716
vn 0.92992 -0.292897 -0.222395
vn 0.904598 0.0512773 -0.423171
vn 0.671725 0.569315 -0.473989
vn 0.823154 -0.525137 -0.215982
vn -0.225128 0.973899 -0.0289586
vn -0.730517 0.627148 0.270243
vn -0.828763 -0.0768806 0.554294
vn -0.0126663 -0.917916 0.396573
vn -0.734145 0.537582 0.414774
vn -0.598675 -0.557885 0.574763
vn -0.791087 -0.0251341 0.611187
vn 0.336225 0.871288 -0.357505
vn 0.0926125 0.982488 -0.161681
vn 0.803416 0.272513 -0.529396
vn 0.636168 -0.75487 -0.159569
vn 0.812739 0.00581738 -0.582599
vn 0.698463 -0.60218 -0.386689
vn -0.400447 0.883003 0.244844
vn -0.710108 0.401006 0.578741
vn 0.00106761 -0.964752 0.263157
vn -0.678586 -0.296739 0.671913
vn -0.391603 -0.783741 0.482076
vn -0.0651751 0.992262 0.105679
vn 0.407158 0.886292 -0.220701
vn 0.0514092 0.95449 0.293778
vn -0.280046 -0.851263 0.443764
vn -0.425493 0.723532 0.54356
vn -0.624316 0.133466 0.769686
vn -0.447658 -0.554088 0.701846
vn 0.815988 0.178861 -0.549702
vn 0.872277 -0.132617 -0.470687
vn 0.84793 -0.325328 -0.41854
vn 0.575861 0.796559 -0.184059
vn 0.886098 -0.346423 -0.307931
vn 0.692278 0.518376 0.502033
vn -0.339727 0.580772 0.73979
vn -0.288156 -0.651672 0.701634
vn 0.888957 0.193747 -0.414991
vn -0.8035 0.269793 -0.530659
vn -0.866556 -0.262195 -0.424657
vn -0.89239 -0.428578 0.141287
vn -0.609163 -0.726504 0.317983
vn -0.389398 0.885208 -0.254511
vn 0.599798 -0.799334 -0.0361644
vn 0.794346 0.276224 -0.541032
vn 0.827624 -0.415113 -0.377784
vn -0.323583 -0.842624 0.430439
vn 0.400162 -0.913333 -0.0754491
vn 0.553904 0.58029 0.597038
vn 0.251574 -0.966627 0.0483975
vn 0.581443 0.710171 -0.396964
vn 0.311981 -0.945256 -0.0956999
vn 0.883155 0.20345 -0.422665
vn 0.798963 0.483143 0.358093
vn 0.246542 -0.964082 0.0988101
vn 0.718522 -0.47156 0.511232
vn 0.609309 -0.461783 0.644592
vn -0.372563 -0.332631 0.866345
vn 0.414442 0.536419 0.735182
vn 0.34403 -0.402745 0.848198
vn 0.447299 -0.485732 0.750991
vn 0.214684 -0.957008 0.195055
vn 0.853635 -0.399214 -0.334568
vn 0.898147 0.348172 0.268529
vn 0.859445 -0.361851 0.361133
g grp1
usemtl mtl1
f 1//1 5//5 12//12 
f 12//12 13//13 1//1 
f 5//5 1//1 2//2 
f 8//8 5//5 2//2 
f 3//3 2//2 1//1 
f 3//3 13//13 37//37 
f 3//3 1//1 13//13 
f 8//8 2//2 24//24 
f 3//3 22//22 2//2 
f 24//24 2//2 22//22 
f 5//5 6//6 4//4 
f 12//12 5//5 97//97 
f 6//6 7//7 4//4 
f 12//12 97//97 14//14 
f 98//98 4//4 16//16 
f 4//4 7//7 16//16 
f 6//6 5//5 8//8 
f 9//9 6//6 8//8 
f 9//9 10//10 6//6 
f 6//6 10//10 7//7 
f 24//24 25//25 8//8 
f 8//8 25//25 9//9 
f 10//10 9//9 25//25 
f 25//25 26//26 10//10 
f 7//7 10//10 26//26 
f 26//26 11//11 7//7 
f 15//15 12//12 14//14 
f 13//13 12//12 39//39 
f 12//12 15//15 39//39 
f 13//13 39//39 37//37 
f 99//99 17//17 14//14 
f 16//16 7//7 18//18 
f 100//100 17//17 99//99 
f 17//17 15//15 14//14 
f 40//40 17//17 19//19 
f 100//100 19//19 17//17 
f 11//11 20//20 18//18 
f 7//7 11//11 18//18 
f 17//17 40//40 15//15 
f 40//40 19//19 41//41 
f 21//21 100//100 20//20 
f 21//21 19//19 100//100 
f 21//21 41//41 19//19 
f 23//23 27//27 22//22 
f 27//27 24//24 22//22 
f 38//38 23//23 22//22 
f 38//38 22//22 3//3 
f 23//23 32//32 27//27 
f 23//23 44//44 32//32 
f 26//26 33//33 11//11 
f 20//20 11//11 33//33 
f 28//28 25//25 24//24 
f 29//29 25//25 28//28 
f 27//27 28//28 24//24 
f 29//29 26//26 25//25 
f 30//30 26//26 29//29 
f 26//26 30//30 33//33 
f 27//27 31//31 28//28 
f 31//31 29//29 28//28 
f 27//27 32//32 31//31 
f 31//31 36//36 29//29 
f 42//42 36//36 31//31 
f 36//36 30//30 29//29 
f 33//33 30//30 35//35 
f 31//31 32//32 42//42 
f 42//42 48//48 36//36 
f 38//38 3//3 37//37 
f 32//32 44//44 42//42 
f 33//33 34//34 20//20 
f 34//34 21//21 20//20 
f 34//34 33//33 35//35 
f 47//47 21//21 34//34 
f 47//47 41//41 21//21 
f 34//34 35//35 47//47 
f 35//35 36//36 48//48 
f 30//30 36//36 35//35 
f 15//15 40//40 39//39 
f 43//43 39//39 40//40 
f 49//49 43//43 40//40 
f 50//50 40//40 41//41 
f 23//23 38//38 44//44 
f 59//59 42//42 44//44 
f 37//37 39//39 101//101 
f 38//38 46//46 44//44 
f 45//45 38//38 37//37 
f 37//37 101//101 45//45 
f 46//46 38//38 45//45 
f 46//46 45//45 52//52 
f 52//52 45//45 101//101 
f 59//59 44//44 58//58 
f 46//46 61//61 44//44 
f 44//44 61//61 58//58 
f 48//48 47//47 35//35 
f 48//48 42//42 59//59 
f 48//48 55//55 47//47 
f 47//47 55//55 54//54 
f 47//47 54//54 41//41 
f 51//51 40//40 50//50 
f 101//101 49//49 52//52 
f 51//51 49//49 40//40 
f 64//64 49//49 51//51 
f 64//64 51//51 65//65 
f 64//64 56//56 49//49 
f 65//65 51//51 50//50 
f 49//49 56//56 52//52 
f 54//54 50//50 41//41 
f 50//50 54//54 53//53 
f 67//67 64//64 65//65 
f 65//65 50//50 53//53 
f 56//56 63//63 57//57 
f 70//70 57//57 63//63 
f 55//55 48//48 59//59 
f 55//55 66//66 54//54 
f 46//46 52//52 57//57 
f 57//57 52//52 56//56 
f 61//61 46//46 57//57 
f 66//66 53//53 54//54 
f 59//59 58//58 60//60 
f 58//58 61//61 60//60 
f 62//62 55//55 59//59 
f 57//57 70//70 61//61 
f 62//62 59//59 60//60 
f 55//55 62//62 102//102 
f 60//60 61//61 103//103 
f 103//103 72//72 60//60 
f 104//104 62//62 60//60 
f 82//82 70//70 71//71 
f 71//71 70//70 63//63 
f 71//71 63//63 76//76 
f 64//64 63//63 56//56 
f 53//53 68//68 65//65 
f 63//63 64//64 67//67 
f 69//69 67//67 65//65 
f 63//63 67//67 76//76 
f 69//69 65//65 68//68 
f 77//77 67//67 69//69 
f 76//76 67//67 77//77 
f 69//69 68//68 79//79 
f 104//104 73//73 62//62 
f 73//73 102//102 62//62 
f 66//66 78//78 53//53 
f 77//77 69//69 79//79 
f 74//74 103//103 88//88 
f 109//109 70//70 82//82 
f 72//72 103//103 74//74 
f 105//105 68//68 53//53 
f 73//73 106//106 102//102 
f 75//75 104//104 74//74 
f 75//75 73//73 104//104 
f 82//82 71//71 81//81 
f 81//81 71//71 76//76 
f 81//81 76//76 85//85 
f 77//77 85//85 76//76 
f 80//80 68//68 105//105 
f 79//79 68//68 80//80 
f 73//73 75//75 106//106 
f 89//89 74//74 88//88 
f 75//75 74//74 89//89 
f 85//85 77//77 86//86 
f 77//77 79//79 86//86 
f 84//84 80//80 105//105 
f 82//82 81//81 83//83 
f 83//83 81//81 85//85 
f 94//94 83//83 85//85 
f 82//82 91//91 109//109 
f 83//83 91//91 82//82 
f 89//89 90//90 75//75 
f 75//75 110//110 106//106 
f 79//79 80//80 87//87 
f 87//87 80//80 84//84 
f 79//79 87//87 86//86 
f 110//110 108//108 106//106 
f 95//95 87//87 84//84 
f 85//85 86//86 94//94 
f 86//86 87//87 116//116 
f 95//95 116//116 87//87 
f 96//96 89//89 111//111 
f 89//89 88//88 111//111 
f 92//92 89//89 121//121 
f 92//92 90//90 89//89 
f 110//110 113//113 108//108 
f 112//112 107//107 93//93 
f 114//114 115//115 119//119 
f 108//108 113//113 120//120 
f 93//93 107//107 117//117 
f 115//115 118//118 119//119 
f 122//122 112//112 93//93 
f 123//123 115//115 114//114 
