#
# The license for this database is specified in the Creative Commons Attribution-Share Alike 2.1 Japan. If you use data from this database, please be sure attribute this database as follows: "BodyParts3D, (c)  The Database Center for Life Science licensed under CC Attribution-Share Alike 2.1 Japan".
# http://dbarchive.biosciencedbc.jp/en/bodyparts3d/lic.html
#
#
# Compatibility version : 4.0
# File ID : FJ3623
# Representation ID : BP10381
# Build-up logic : FMA 3.0 part_of
# Concept ID : FMA14746
# English name : Right inferior phrenic artery
# Bounds(mm): (-37.991400,-198.022000,1168.800100)-(-6.996900,-154.812000,1186.520000)
# Volume(cm3): 0.500200
#
v -37.4876 -156.158 1185.14
v -37.8472 -155.605 1185.22
v -37.4197 -155.706 1184.93
v -37.9914 -155.591 1185.99
v -37.9501 -155.969 1185.6
v -37.8617 -156.01 1186
v -37.3383 -156.547 1185.54
v -37.5804 -155.594 1186.44
v -36.9306 -156.71 1185.93
v -37.023 -156.128 1186.41
v -37.0896 -155.663 1186.52
v -37.5834 -155.216 1185.13
v -36.8662 -155.475 1184.91
v -37.0802 -155.066 1185.2
v -37.9171 -155.231 1185.6
v -37.5713 -154.896 1185.6
v -37.5972 -154.975 1186
v -37.1937 -154.849 1185.97
v -37.1794 -155.171 1186.36
v -37.1914 -154.812 1185.6
v -35.7774 -156.587 1184.48
v -36.1438 -155.809 1186.18
v -34.8293 -157.204 1185.91
v -36.5959 -155.083 1185.55
v -36.6536 -155.095 1185.96
v -33.3411 -159.333 1184.81
v -33.394 -159.085 1183.98
v -32.9391 -159.102 1185.21
v -31.9299 -160.704 1183.96
v -31.6209 -160.419 1183.3
v -31.5338 -159.486 1184.83
v -31.2248 -161.181 1184.35
v -30.8921 -159.649 1184.37
v -31.1882 -159.265 1183.99
v -31.0207 -160.282 1183.18
v -33.7586 -158.331 1183.92
v -33.2761 -157.518 1184.44
v -32.7606 -157.888 1184.85
v -28.0275 -165.69 1183.15
v -28.8 -164 1182.17
v -28.4373 -163.592 1182.36
v -30.2204 -162.842 1183.58
v -30.064 -162.818 1182.85
v -29.6099 -162.974 1183.97
v -29.0046 -164.866 1182.7
v -28.6913 -163.443 1183.77
v -28.6702 -162.553 1183.15
v -30.3895 -161.655 1182.84
v -30.1006 -161.545 1184.37
v -29.9558 -160.897 1183.21
v -29.4403 -161.651 1183.97
v -29.679 -160.995 1183.63
v -26.0873 -169.413 1180.96
v -25.977 -169.584 1181.46
v -24.8644 -169.684 1180.32
v -24.8475 -169.861 1181.63
v -24.7209 -169.094 1181.24
v -27.2 -167.2 1181.22
v -26.867 -166.863 1181.26
v -26.4448 -166.691 1181.65
v -27.0906 -165.6 1182.8
v -21.6406 -172.8 1180
v -22.605 -171.778 1179.82
v -19.0166 -177.394 1178.08
v -19.5661 -176.802 1178.55
v -18.8565 -175.816 1178.87
v -15.6497 -181.658 1176.76
v -15.1212 -182.285 1176.05
v -17.4997 -179.174 1177.55
v -16.8773 -179.477 1176.82
v -16.7159 -179.696 1177.86
v -16.0848 -178.998 1177.29
v -16.0598 -179.171 1177.66
v -15.9675 -179.638 1176.67
v -14.8184 -180.724 1176.85
v -17.7036 -177.547 1178.56
v -12.0398 -189.405 1173.87
v -11.9723 -188.368 1174.72
v -13.3554 -185.923 1175.23
v -12.9339 -186.752 1174.44
v -12.7793 -186.885 1175.13
v -12.8262 -185.963 1175.58
v -12.7876 -185.346 1174.62
v -12.6962 -184.666 1175.25
v -12.2669 -185.868 1175.25
v -11.9813 -187.317 1175
v -11.8453 -186.913 1174.39
v -14.0584 -184.202 1176.03
v -13.3419 -184.218 1176.16
v -14.2393 -184.019 1175.6
v -14.4591 -182.422 1175.64
v -13.9816 -183.704 1175.25
v -14.0031 -182.459 1175.74
v -14.5479 -181.78 1176.98
v -14.4171 -181.388 1176.4
v -13.726 -182.626 1176.33
v -8.1575 -197.475 1169.28
v -10.1719 -194 1171.2
v -9.79004 -194.765 1171.19
v -9.07813 -196 1170
v -9.15238 -194.4 1171.6
v -8.83642 -195.146 1170.13
v -8.50313 -195.2 1170.8
v -11.26 -190.607 1172.68
v -10.4 -192.68 1171.6
v -9.50772 -193.127 1171.64
v -11.1357 -190.904 1173.62
v -10.4619 -190.866 1173.21
v -11.1536 -190.064 1174.01
v -10.7781 -190.4 1172.8
v -7.69562 -197.953 1169.22
v -8.04555 -197.494 1169.64
v -8.04496 -197.122 1168.99
v -7.6 -198.022 1168.8
v -7.6 -197.128 1168.8
v -7.2 -198 1169.21
v -7.05312 -197.6 1168.8
v -6.99687 -197.6 1169.2
v -7.26934 -197.08 1169.26
v -8 -197.2 1170
v -7.6 -197.6 1169.67
v -37.9914 -155.591 1185.99
v -37.9914 -155.591 1185.99
v -37.9501 -155.969 1185.6
v -37.8617 -156.01 1186
v -37.5804 -155.594 1186.44
v -37.9171 -155.231 1185.6
v -37.5713 -154.896 1185.6
v -37.1937 -154.849 1185.97
v -37.1937 -154.849 1185.97
v -37.1914 -154.812 1185.6
v -37.1914 -154.812 1185.6
v -37.1914 -154.812 1185.6
v -36.5959 -155.083 1185.55
v -33.3411 -159.333 1184.81
v -32.9391 -159.102 1185.21
v -31.2248 -161.181 1184.35
v -33.2761 -157.518 1184.44
v -28.0275 -165.69 1183.15
v -28.8 -164 1182.17
v -30.2204 -162.842 1183.58
v -29.6099 -162.974 1183.97
v -29.0046 -164.866 1182.7
v -28.6913 -163.443 1183.77
v -28.6702 -162.553 1183.15
v -30.1006 -161.545 1184.37
v -26.0873 -169.413 1180.96
v -25.977 -169.584 1181.46
v -24.8644 -169.684 1180.32
v -24.8644 -169.684 1180.32
v -24.8475 -169.861 1181.63
v -24.7209 -169.094 1181.24
v -27.2 -167.2 1181.22
v -27.2 -167.2 1181.22
v -21.6406 -172.8 1180
v -17.4997 -179.174 1177.55
v -16.8773 -179.477 1176.82
v -16.7159 -179.696 1177.86
v -17.7036 -177.547 1178.56
v -12.0398 -189.405 1173.87
v -12.0398 -189.405 1173.87
v -11.9723 -188.368 1174.72
v -13.3554 -185.923 1175.23
v -12.9339 -186.752 1174.44
v -12.9339 -186.752 1174.44
v -12.9339 -186.752 1174.44
v -12.7793 -186.885 1175.13
v -12.7793 -186.885 1175.13
v -12.8262 -185.963 1175.58
v -12.7876 -185.346 1174.62
v -11.9813 -187.317 1175
v -11.9813 -187.317 1175
v -11.8453 -186.913 1174.39
v -14.0584 -184.202 1176.03
v -13.3419 -184.218 1176.16
v -14.5479 -181.78 1176.98
v -14.4171 -181.388 1176.4
v -8.1575 -197.475 1169.28
v -10.1719 -194 1171.2
v -9.07813 -196 1170
v -9.07813 -196 1170
v -9.15238 -194.4 1171.6
v -9.15238 -194.4 1171.6
v -8.83642 -195.146 1170.13
v -8.83642 -195.146 1170.13
v -8.50313 -195.2 1170.8
v -8.50313 -195.2 1170.8
v -11.26 -190.607 1172.68
v -11.26 -190.607 1172.68
v -10.4 -192.68 1171.6
v -9.50772 -193.127 1171.64
v -9.50772 -193.127 1171.64
v -11.1357 -190.904 1173.62
v -10.4619 -190.866 1173.21
v -11.1536 -190.064 1174.01
v -10.7781 -190.4 1172.8
v -7.69562 -197.953 1169.22
v -7.69562 -197.953 1169.22
v -8.04496 -197.122 1168.99
v -7.6 -198.022 1168.8
v -7.6 -198.022 1168.8
v -7.6 -198.022 1168.8
v -7.6 -198.022 1168.8
v -7.6 -197.128 1168.8
v -7.2 -198 1169.21
v -7.2 -198 1169.21
v -7.2 -198 1169.21
v -7.2 -198 1169.21
v -7.05312 -197.6 1168.8
v -7.05312 -197.6 1168.8
v -7.05312 -197.6 1168.8
v -6.99687 -197.6 1169.2
v -6.99687 -197.6 1169.2
v -8 -197.2 1170
v -7.6 -197.6 1169.67
vn -0.598677 -0.447257 -0.66449
vn -0.771726 -0.0126394 -0.63583
vn -0.371224 0.0250813 -0.928205
vn -0.992138 -0.124214 0.0152752
vn -0.721192 -0.620159 -0.308684
vn -0.941803 -0.285624 0.177273
vn -0.629835 -0.772429 -0.0816165
vn -0.467966 -0.329931 0.819849
vn -0.425612 -0.735069 0.527758
vn -0.187774 -0.434008 0.881123
vn 0.115631 0.067467 0.990998
vn -0.413093 0.526303 -0.743209
vn 0.0410252 0.473704 -0.879728
vn 0.109184 0.771897 -0.626301
vn -0.887635 0.299976 -0.349455
vn -0.332721 0.780131 -0.529803
vn -0.549615 0.695786 0.46239
vn -0.239711 0.92096 0.307198
vn 0.0826247 0.574398 0.814396
vn -0.178114 0.804897 -0.566053
vn -0.128288 0.197781 -0.971815
vn 0.469926 0.391555 0.79111
vn 0.257508 -0.0395345 0.965467
vn 0.369258 0.800408 -0.472224
vn 0.504307 0.748475 0.43065
vn -0.63249 -0.774434 0.0144206
vn -0.625589 -0.584196 -0.517062
vn -0.271828 -0.607005 0.746762
vn -0.752973 -0.64399 -0.135306
vn -0.509518 -0.219123 -0.832092
vn 0.474376 0.209704 0.854981
vn -0.611038 -0.666645 0.426868
vn 0.724207 0.543033 0.425016
vn 0.631547 0.722203 -0.282084
vn 0.0693427 0.363577 -0.92898
vn -0.36685 -0.136713 -0.92018
vn 0.310575 0.649256 -0.694269
vn 0.646437 0.690364 0.324834
vn -0.64432 -0.562952 0.517626
vn -0.670207 -0.21945 -0.708988
vn 0.398995 0.466485 -0.789427
vn -0.833076 -0.517514 -0.195357
vn -0.731298 -0.359569 -0.57958
vn -0.52983 -0.557704 0.638941
vn -0.856025 -0.48773 -0.171291
vn 0.623227 0.155667 0.766392
vn 0.691368 0.557081 -0.460078
vn -0.368356 0.000522583 -0.929685
vn -0.0641304 -0.346945 0.935691
vn 0.571521 0.590493 -0.569808
vn 0.720495 0.322048 0.614143
vn 0.801148 0.598174 0.0186832
vn -0.806299 -0.555399 -0.203504
vn -0.749375 -0.631666 0.198583
vn -0.369333 0.0118127 -0.929222
vn -0.0453508 -0.381234 0.923366
vn 0.697396 0.639924 -0.3227
vn -0.799105 -0.282112 -0.530889
vn 0.159933 0.387564 -0.907863
vn 0.698231 0.563776 -0.441168
vn 0.827787 0.358082 0.43191
vn 0.650065 0.329931 0.684515
vn 0.627468 0.691623 -0.357689
vn -0.769219 -0.580545 -0.266966
vn -0.724971 -0.681262 0.101491
vn 0.759541 0.535485 0.36926
vn -0.823205 -0.560183 0.0923431
vn -0.756186 -0.268417 -0.59677
vn -0.61085 -0.654375 0.445709
vn -0.238939 0.160927 -0.957607
vn 0.00721048 -0.350448 0.936554
vn 0.734438 0.651959 -0.188548
vn 0.755475 0.387447 0.528339
vn 0.32372 0.531759 -0.782584
vn 0.85238 0.454261 0.259029
vn 0.14973 -0.244959 0.957902
vn -0.887062 -0.140332 -0.439805
vn -0.598015 -0.484835 0.638211
vn -0.884688 -0.460452 0.0728849
vn -0.903603 -0.226264 -0.36374
vn -0.5793 -0.494236 0.648184
vn -0.32586 -0.438441 0.837606
vn 0.17898 0.395536 -0.900843
vn 0.842552 0.474823 -0.254263
vn 0.829285 0.131924 0.543031
vn 0.0844775 -0.314614 0.945453
vn 0.943554 0.231102 0.237271
vn -0.834772 -0.520694 0.178981
vn -0.0613301 -0.357228 0.932002
vn -0.894131 -0.368305 -0.254719
vn -0.163301 0.240997 -0.956689
vn -0.518307 0.0330647 -0.854555
vn 0.491753 0.518391 -0.699606
vn 0.746589 0.233569 0.622937
vn 0.837699 0.343382 0.424675
vn 0.849172 0.303064 0.432504
vn -0.758795 -0.642758 0.105325
vn -0.893889 -0.446815 0.03632
vn -0.689085 -0.597674 0.409814
vn -0.791837 -0.214229 -0.571926
vn -0.0667202 -0.518522 0.852457
vn -0.434868 0.289509 -0.852686
vn 0.734661 0.600697 -0.315335
vn -0.832054 -0.0584847 -0.551603
vn -0.575204 0.163486 -0.801507
vn 0.782211 0.518482 -0.34543
vn -0.68876 -0.501613 0.523445
vn 0.923226 0.378852 -0.0642212
vn 0.143447 -0.360186 0.921786
vn 0.121354 0.441819 -0.888858
vn -0.713245 -0.697897 0.0649796
vn -0.505365 -0.723417 0.470397
vn -0.775879 -0.231497 -0.586874
vn -0.720909 -0.691214 -0.0501357
vn -0.259965 0.120855 -0.958025
vn 0.534466 -0.692632 -0.484363
vn 0.534466 -0.692632 -0.484363
vn 0.604634 -0.209122 0.768561
vn 0.749203 0.613405 -0.249859
vn -0.310183 -0.655099 0.688935
vn -0.171612 -0.758747 0.628372
vn -0.727017 -0.203729 0.655698
vn -0.748003 0.469117 0.469491
vn -0.995537 -0.0679682 -0.0654635
vn -0.604603 -0.606726 0.51608
vn -0.412734 0.425676 0.805264
vn -0.757106 0.619299 0.20799
vn -0.409961 0.903833 0.122545
vn 0.416559 0.904831 0.0880885
vn 0.343686 0.730191 0.590509
vn 0.344448 0.831194 -0.436432
vn -0.216522 0.971683 0.0946039
vn 0.418628 0.903511 0.0917556
vn 0.508755 0.858175 0.0685842
vn -0.327599 -0.639499 0.6955
vn 0.18592 -0.150977 0.970896
vn -0.221089 -0.47165 0.85362
vn 0.608949 0.791584 -0.0507526
vn 0.00514087 -0.325954 0.945372
vn -0.0117931 0.275641 -0.961188
vn -0.607044 -0.583923 0.539009
vn 0.0232499 -0.260681 0.965145
vn -0.876163 -0.437639 -0.202015
vn 0.117689 -0.232336 0.965489
vn 0.865789 0.439452 0.239356
vn 0.438247 0.0859895 0.894732
vn -0.479788 -0.107726 -0.870746
vn -0.247445 -0.505448 0.826616
vn 0.524533 0.613238 -0.590597
vn -0.118563 0.238887 -0.963782
vn 0.659113 0.254537 0.707659
vn 0.680581 0.241711 0.691654
vn -0.483526 -0.140594 -0.863965
vn -0.114683 0.235222 -0.965152
vn 0.732235 0.674438 -0.0946863
vn -0.797018 -0.524796 -0.298915
vn -0.726491 -0.378476 -0.573556
vn -0.662871 -0.647087 0.376671
vn 0.624163 0.24332 0.742439
vn -0.728465 -0.497394 0.471104
vn -0.928385 -0.343466 0.14189
vn 0.0862741 -0.308208 0.947399
vn -0.510842 -0.459685 0.726451
vn -0.402836 0.15871 -0.901407
vn -0.902105 -0.427316 0.0600655
vn -0.761996 -0.0916709 -0.641061
vn -0.201697 -0.373078 0.905611
vn -0.893793 -0.432998 0.116819
vn 0.51556 -0.0881202 0.85231
vn 0.0703438 0.363361 -0.928989
vn 0.887785 0.115405 0.445554
vn 0.511797 -0.0469958 0.85782
vn 0.737111 0.454068 -0.50049
vn -0.279394 -0.452941 0.846631
vn 0.649004 0.0207818 0.760501
vn 0.149913 -0.246504 0.957477
vn 0.723277 0.579654 -0.375329
vn -0.775879 -0.231497 -0.586874
vn -0.725561 0.0624302 -0.68532
vn -0.864028 -0.503411 0.00573154
vn -0.520945 0.215744 -0.825876
vn 0.873761 0.136327 0.466859
vn 0.741443 -0.0304999 0.670323
vn 0.683176 0.628749 -0.371409
vn 0.345597 0.633061 -0.692673
vn 0.69115 -0.0572558 0.720439
vn 0.881481 0.44147 0.167619
vn -0.512304 0.162564 -0.843278
vn 0.0425015 0.416316 -0.908226
vn 0.215584 0.536688 -0.815775
vn 0.312671 0.561357 -0.766235
vn 0.926245 0.32944 0.183138
vn -0.0237882 -0.472465 0.881028
vn 0.818788 0.059376 0.571018
vn 0.746808 -0.0202818 0.66473
vn 0.822095 0.454502 -0.342909
vn -0.144719 -0.767051 0.625051
vn -0.091341 -0.985638 0.142039
vn -0.428171 0.20849 -0.879319
vn -0.759319 -0.248585 -0.601366
vn -0.200133 0 -0.979769
vn 0.534466 -0.692632 -0.484363
vn -0.091341 -0.985638 0.142039
vn 0.570376 0.668328 -0.477502
vn -0.091341 -0.985638 0.142039
vn -0.0627623 -0.782342 0.619679
vn 0.593146 -0.282351 0.75396
vn 0.883447 -0.451752 -0.124265
vn 0.883447 -0.451752 -0.124265
vn 0 0 -1
vn 0.747329 0.587139 -0.311074
vn 0.883447 -0.451752 -0.124265
vn 0.886756 0.461682 0.0226539
vn 0.608658 -0.157925 0.777557
vn 0.561829 -0.214219 0.799036
g grp1
usemtl mtl1
f 1//1 7//7 5//5 
f 3//3 36//36 1//1 
f 2//2 3//3 1//1 
f 2//2 1//1 5//5 
f 12//12 3//3 2//2 
f 15//15 12//12 2//2 
f 124//124 15//15 2//2 
f 27//27 26//26 7//7 
f 1//1 27//27 7//7 
f 1//1 36//36 27//27 
f 21//21 36//36 3//3 
f 21//21 3//3 13//13 
f 13//13 3//3 12//12 
f 124//124 6//6 4//4 
f 5//5 7//7 125//125 
f 125//125 8//8 122//122 
f 4//4 15//15 124//124 
f 7//7 26//26 9//9 
f 125//125 7//7 9//9 
f 9//9 10//10 125//125 
f 125//125 10//10 8//8 
f 8//8 10//10 11//11 
f 12//12 15//15 16//16 
f 14//14 13//13 12//12 
f 20//20 14//14 16//16 
f 14//14 12//12 16//16 
f 37//37 13//13 14//14 
f 131//131 24//24 14//14 
f 24//24 37//37 14//14 
f 127//127 123//123 17//17 
f 128//128 127//127 17//17 
f 123//123 126//126 17//17 
f 128//128 17//17 18//18 
f 126//126 19//19 17//17 
f 17//17 19//19 18//18 
f 126//126 11//11 19//19 
f 128//128 18//18 132//132 
f 129//129 134//134 133//133 
f 129//129 25//25 134//134 
f 19//19 25//25 130//130 
f 37//37 35//35 13//13 
f 13//13 35//35 21//21 
f 35//35 36//36 21//21 
f 28//28 9//9 135//135 
f 9//9 28//28 10//10 
f 23//23 22//22 11//11 
f 10//10 23//23 11//11 
f 38//38 25//25 22//22 
f 22//22 19//19 11//11 
f 22//22 25//25 19//19 
f 10//10 136//136 23//23 
f 38//38 138//138 134//134 
f 25//25 38//38 134//134 
f 27//27 29//29 26//26 
f 26//26 29//29 32//32 
f 135//135 137//137 28//28 
f 28//28 137//137 49//49 
f 36//36 30//30 27//27 
f 146//146 31//31 136//136 
f 136//136 31//31 23//23 
f 27//27 30//30 29//29 
f 35//35 30//30 36//36 
f 31//31 38//38 22//22 
f 31//31 22//22 23//23 
f 43//43 42//42 29//29 
f 29//29 141//141 32//32 
f 29//29 30//30 43//43 
f 34//34 38//38 33//33 
f 34//34 138//138 38//38 
f 38//38 31//31 33//33 
f 30//30 48//48 43//43 
f 50//50 35//35 34//34 
f 34//34 35//35 37//37 
f 44//44 32//32 141//141 
f 137//137 142//142 49//49 
f 48//48 30//30 35//35 
f 52//52 33//33 51//51 
f 51//51 33//33 31//31 
f 51//51 31//31 146//146 
f 34//34 33//33 52//52 
f 52//52 50//50 34//34 
f 45//45 58//58 53//53 
f 39//39 45//45 54//54 
f 40//40 58//58 45//45 
f 139//139 148//148 56//56 
f 43//43 40//40 45//45 
f 48//48 40//40 43//43 
f 43//43 143//143 42//42 
f 35//35 140//140 48//48 
f 141//141 45//45 39//39 
f 141//141 39//39 44//44 
f 41//41 140//140 35//35 
f 35//35 50//50 41//41 
f 51//51 146//146 46//46 
f 144//144 49//49 142//142 
f 139//139 144//144 142//142 
f 52//52 47//47 50//50 
f 47//47 41//41 50//50 
f 52//52 51//51 145//145 
f 139//139 56//56 144//144 
f 151//151 61//61 46//46 
f 145//145 51//51 61//61 
f 46//46 61//61 51//51 
f 45//45 53//53 54//54 
f 148//148 71//71 56//56 
f 147//147 153//153 55//55 
f 60//60 57//57 149//149 
f 149//149 57//57 63//63 
f 154//154 140//140 59//59 
f 41//41 59//59 140//140 
f 60//60 41//41 47//47 
f 60//60 145//145 61//61 
f 60//60 149//149 59//59 
f 59//59 150//150 154//154 
f 60//60 59//59 41//41 
f 57//57 60//60 61//61 
f 61//61 151//151 152//152 
f 55//55 70//70 147//147 
f 74//74 70//70 55//55 
f 74//74 149//149 63//63 
f 62//62 152//152 151//151 
f 65//65 158//158 54//54 
f 53//53 65//65 54//54 
f 57//57 155//155 63//63 
f 69//69 158//158 65//65 
f 157//157 156//156 64//64 
f 65//65 64//64 156//156 
f 53//53 64//64 65//65 
f 53//53 157//157 64//64 
f 71//71 76//76 56//56 
f 159//159 66//66 151//151 
f 66//66 63//63 155//155 
f 66//66 62//62 151//151 
f 92//92 90//90 68//68 
f 91//91 92//92 68//68 
f 68//68 90//90 67//67 
f 90//90 88//88 67//67 
f 67//67 88//88 158//158 
f 95//95 75//75 94//94 
f 72//72 74//74 63//63 
f 66//66 72//72 63//63 
f 157//157 91//91 68//68 
f 156//156 68//68 67//67 
f 67//67 158//158 69//69 
f 156//156 157//157 68//68 
f 91//91 70//70 74//74 
f 73//73 66//66 159//159 
f 71//71 176//176 76//76 
f 72//72 177//177 74//74 
f 94//94 73//73 159//159 
f 72//72 75//75 177//177 
f 75//75 73//73 94//94 
f 75//75 72//72 73//73 
f 66//66 73//73 72//72 
f 80//80 104//104 77//77 
f 160//160 107//107 78//78 
f 81//81 160//160 78//78 
f 83//83 188//188 164//164 
f 162//162 86//86 167//167 
f 109//109 162//162 193//193 
f 189//189 170//170 110//110 
f 87//87 85//85 171//171 
f 109//109 86//86 162//162 
f 196//196 83//83 173//173 
f 79//79 90//90 165//165 
f 82//82 174//174 163//163 
f 79//79 88//88 90//90 
f 92//92 166//166 90//90 
f 174//174 82//82 89//89 
f 161//161 168//168 165//165 
f 168//168 79//79 165//165 
f 167//167 82//82 163//163 
f 164//164 92//92 83//83 
f 85//85 175//175 169//169 
f 96//96 175//175 85//85 
f 85//85 84//84 96//96 
f 167//167 86//86 82//82 
f 172//172 85//85 169//169 
f 85//85 87//87 84//84 
f 84//84 173//173 83//83 
f 177//177 93//93 74//74 
f 74//74 93//93 91//91 
f 91//91 83//83 92//92 
f 83//83 91//91 93//93 
f 83//83 93//93 84//84 
f 84//84 93//93 177//177 
f 89//89 71//71 174//174 
f 71//71 89//89 176//176 
f 94//94 96//96 95//95 
f 175//175 96//96 94//94 
f 177//177 96//96 84//84 
f 112//112 120//120 99//99 
f 112//112 99//99 97//97 
f 178//178 100//100 113//113 
f 99//99 180//180 97//97 
f 199//199 181//181 102//102 
f 98//98 180//180 99//99 
f 181//181 179//179 105//105 
f 102//102 181//181 105//105 
f 103//103 184//184 106//106 
f 191//191 185//185 190//190 
f 99//99 120//120 101//101 
f 214//214 186//186 182//182 
f 105//105 179//179 104//104 
f 98//98 99//99 160//160 
f 104//104 179//179 77//77 
f 99//99 107//107 160//160 
f 189//189 110//110 190//190 
f 101//101 193//193 99//99 
f 110//110 191//191 190//190 
f 196//196 108//108 192//192 
f 186//186 192//192 182//182 
f 108//108 182//182 192//192 
f 194//194 195//195 183//183 
f 101//101 109//109 193//193 
f 195//195 194//194 171//171 
f 173//173 108//108 196//196 
f 194//194 87//87 171//171 
f 97//97 114//114 111//111 
f 111//111 112//112 97//97 
f 197//197 121//121 112//112 
f 113//113 200//200 178//178 
f 201//201 199//199 115//115 
f 202//202 117//117 116//116 
f 203//203 205//205 198//198 
f 121//121 197//197 206//206 
f 215//215 207//207 118//118 
f 115//115 199//199 102//102 
f 204//204 184//184 119//119 
f 208//208 209//209 212//212 
f 210//210 201//201 115//115 
f 204//204 119//119 211//211 
f 211//211 119//119 213//213 
f 120//120 112//112 121//121 
f 214//214 215//215 186//186 
f 213//213 119//119 187//187 
f 215//215 118//118 186//186 
f 119//119 184//184 103//103 
