#
# The license for this database is specified in the Creative Commons Attribution-Share Alike 2.1 Japan. If you use data from this database, please be sure attribute this database as follows: "BodyParts3D, (c)  The Database Center for Life Science licensed under CC Attribution-Share Alike 2.1 Japan".
# http://dbarchive.biosciencedbc.jp/en/bodyparts3d/lic.html
#
#
# Compatibility version : 4.0
# File ID : FJ2038
# Representation ID : BP6927
# Build-up logic : FMA 3.0 part_of
# Concept ID : FMA14752
# English name : Right renal artery
# Bounds(mm): (-42.373400,-119.620900,1025.019200)-(12.828600,-97.206700,1048.938600)
# Volume(cm3): 2.565900
#
v -40.4553 -101.333 1031.1
v -40.824 -101.625 1027.19
v -42.3399 -100.822 1028.96
v -41.6632 -101.403 1028.76
v -42.2744 -99.6407 1029.8
v -41.9548 -100.674 1027.15
v -41.4355 -99.8405 1027.52
v -41.9888 -99.8776 1031.26
v -42.3441 -99.5118 1030.96
v -42.1217 -99.1671 1031.49
v -42.1772 -99.0304 1030.56
v -41.3051 -98.8914 1031.99
v -41.6481 -98.3559 1031.54
v -40.7083 -99.9018 1032.03
v -39.299 -102.726 1028.83
v -39.9333 -100.38 1025.48
v -40.4272 -99.4411 1025.8
v -37.9327 -102.481 1027
v -37.1519 -99.8466 1025.47
v -37.4929 -98.7643 1025.46
v -40.3678 -97.5603 1028.97
v -38.898 -97.2584 1027.88
v -36.4585 -97.7891 1027.95
v -36.501 -98.2343 1026.43
v -39.7877 -98.4239 1032.18
v -39.8629 -97.4272 1030.71
v -38.7426 -97.4471 1030.12
v -36.4755 -98.2439 1031.55
v -39.0829 -98.6941 1025.18
v -39.2149 -98.2187 1025.51
v -38.6463 -98.119 1025.48
v -39.3578 -97.5914 1026.78
v -38.7346 -97.7862 1025.9
v -38.3261 -97.4224 1026.85
v -31.9827 -105.32 1030.26
v -32.3418 -105.171 1032.44
v -33.6432 -101.814 1034.32
v -33.7387 -100.577 1033.92
v -31.2446 -103.782 1027.78
v -25.2458 -106.33 1036.04
v -23.8558 -107.424 1034.79
v -20.1209 -104.782 1038.58
v -22.3794 -107.12 1031.28
v -19.4436 -106.26 1030.95
v -21.4995 -102.566 1036.59
v -22.0592 -103.776 1030.19
v -21.5891 -102.587 1031.32
v -21.7573 -101.842 1033.28
v -13.3557 -108.726 1038.28
v -13.083 -107.279 1040.86
v -11.5352 -108.95 1034.55
v -11.0124 -106.279 1041.89
v -12.4172 -106.893 1032.81
v -13.6351 -103.265 1034.64
v -11.3521 -104.844 1033.94
v -13.5241 -103.031 1038.3
v -7.15826 -111.364 1040.89
v -8.4515 -110.632 1036.79
v -6.67301 -110.844 1035.45
v -8.49494 -109.046 1042.61
v -8.76932 -109.288 1034.35
v -7.83048 -108.143 1033.94
v -6.95671 -104.504 1038.9
v -0.313422 -115.941 1040.7
v -0.670652 -114.967 1037.85
v -4.49209 -111.104 1035.18
v 3.64285 -117.275 1046.01
v 2.14579 -114.751 1047.27
v 0.816542 -114.982 1037.2
v 6.84557 -119.325 1044.08
v 8.51963 -119.23 1045.48
v 8.60871 -118.051 1047.27
v 7.00644 -118.561 1039.9
v 8.41687 -117.861 1038.82
v 6.01048 -118.907 1041.52
v 8.48443 -119.401 1041.38
v 3.56986 -112.928 1048.1
v 5.19717 -115.92 1048.25
v 7.80378 -114.714 1048.72
v 7.28843 -115.954 1037.65
v 4.39564 -110.421 1047.03
v 10.9401 -119.106 1043.52
v 11.8533 -118.271 1044.28
v 10.8394 -118.537 1045.53
v 10.4897 -116.87 1047.33
v 9.34452 -118.571 1039.69
v 10.871 -118.329 1040.29
v 10.4295 -117.379 1039.07
v 11.4416 -116.763 1039.6
v 9.50143 -119.561 1042.54
v 10.0617 -119.181 1041.25
v 11.8418 -118.405 1042.56
v 12.1384 -117.185 1040.84
v 12.7113 -116.698 1043.89
v 12.0649 -117.21 1045.43
v 12.0638 -115.428 1046.03
v 9.45665 -112.738 1047.72
v 9.20516 -115.515 1038.06
v 8.11332 -112.292 1038.47
v 10.9202 -113.591 1039.55
v 12.4274 -115.342 1040.85
v 11.4039 -112.519 1045.26
v 8.28296 -110.088 1045.22
v 8.72522 -110.821 1040.65
v 12.5416 -114.111 1042.5
v -42.3399 -100.822 1028.96
v -42.3399 -100.822 1028.96
v -41.9548 -100.674 1027.15
v -41.9548 -100.674 1027.15
v -42.3441 -99.5118 1030.96
v -42.1217 -99.1671 1031.49
v -42.1217 -99.1671 1031.49
v -41.6481 -98.3559 1031.54
v -39.9333 -100.38 1025.48
v -20.1209 -104.782 1038.58
v -21.4995 -102.566 1036.59
v -13.083 -107.279 1040.86
v -11.5352 -108.95 1034.55
v -11.0124 -106.279 1041.89
v -12.4172 -106.893 1032.81
v 5.19717 -115.92 1048.25
v 11.4039 -112.519 1045.26
v 8.28296 -110.088 1045.22
v 12.5416 -114.111 1042.5
vn -0.496589 -0.71963 0.485317
vn -0.440001 -0.79383 -0.419801
vn -0.666801 -0.660872 0.34442
vn -0.582441 -0.812857 0.00510178
vn -0.913678 0.349759 -0.207031
vn -0.604384 -0.70235 -0.376066
vn -0.758014 0.567407 -0.32166
vn -0.648706 -0.499419 0.574248
vn -0.795735 -0.416123 0.440055
vn -0.586854 -0.305353 0.749908
vn -0.842559 0.519762 -0.141215
vn -0.386852 0.138824 0.911632
vn -0.686106 0.727185 0.0214574
vn -0.426375 -0.374551 0.823357
vn -0.396292 -0.917379 -0.0369823
vn -0.133448 -0.525788 -0.840082
vn -0.712952 0.438087 -0.547521
vn -0.190552 -0.815855 -0.545958
vn 0.18979 -0.116864 -0.974845
vn 0.296379 0.351287 -0.88812
vn -0.468882 0.873305 -0.132243
vn -0.0330928 0.997974 -0.0543396
vn 0.288341 0.949517 -0.123597
vn 0.353586 0.759462 -0.546071
vn -0.112814 0.608762 0.785291
vn -0.0852419 0.952344 0.292874
vn 0.111884 0.987499 0.111028
vn 0.0924481 0.861021 0.500096
vn -0.134454 0.213143 -0.967725
vn -0.40658 0.649489 -0.642539
vn 0.107224 0.636399 -0.763872
vn -0.416482 0.849507 -0.323853
vn -0.0222954 0.865587 -0.500262
vn 0.113933 0.957119 -0.266349
vn -0.210818 -0.941201 -0.263999
vn -0.372526 -0.887306 0.27187
vn -0.289682 -0.00422363 0.957114
vn -0.0905762 0.527787 0.844533
vn 0.0247166 -0.61537 -0.787851
vn -0.366365 -0.616291 0.69711
vn -0.218871 -0.970766 0.0985286
vn -0.133309 0.563426 0.81534
vn -0.0406007 -0.862395 -0.504605
vn 0.194836 -0.370732 -0.908073
vn 0.112027 0.972526 0.204065
vn 0.348319 0.311881 -0.883971
vn 0.337972 0.785818 -0.517943
vn 0.209111 0.977891 -0.000921691
vn -0.33542 -0.917181 0.215112
vn -0.416756 -0.754303 0.507289
vn -0.24028 -0.961049 -0.136563
vn -0.128086 0.621092 0.7732
vn 0.0441572 -0.569863 -0.820552
vn 0.281205 0.907825 -0.311091
vn 0.369315 0.605797 -0.70471
vn 0.0783608 0.938084 0.337429
vn -0.52301 -0.803696 0.283784
vn -0.41953 -0.889673 -0.18021
vn -0.249396 -0.771628 -0.585143
vn -0.527986 -0.488075 0.694991
vn -0.0616863 -0.582046 -0.810813
vn 0.211832 -0.0316545 -0.976793
vn 0.306264 0.95168 -0.0225277
vn -0.479234 -0.87735 -0.0243151
vn -0.346683 -0.845159 -0.406838
vn -0.0514983 -0.508945 -0.859257
vn -0.444277 -0.767297 0.462465
vn -0.474651 -0.34628 0.809195
vn -0.144841 -0.669034 -0.728982
vn -0.263931 -0.960555 0.0876018
vn 0.0179248 -0.935074 0.353999
vn 0.0513481 -0.663975 0.74599
vn -0.167467 -0.851865 -0.496267
vn 0.0481951 -0.637753 -0.768732
vn -0.307865 -0.92684 -0.214909
vn -0.0593355 -0.962801 -0.263617
vn -0.227267 0.117079 0.966769
vn -0.361434 -0.665927 0.652615
vn 0.111209 0.00924585 0.993754
vn 0.124533 -0.355766 -0.926241
vn 0.062557 0.669286 0.740367
vn 0.428718 -0.899617 0.08301
vn 0.746729 -0.63246 0.20589
vn 0.467767 -0.745463 0.474845
vn 0.531002 -0.286736 0.797382
vn 0.155757 -0.807589 -0.568806
vn 0.55401 -0.672519 -0.490705
vn 0.382955 -0.453869 -0.804579
vn 0.692628 -0.180991 -0.698219
vn 0.109136 -0.993757 -0.0231412
vn 0.328507 -0.902326 -0.27909
vn 0.725277 -0.675444 -0.133229
vn 0.861246 -0.371722 -0.346523
vn 0.97693 -0.202704 0.0672291
vn 0.794671 -0.388684 0.466287
vn 0.86265 0.0890458 0.497902
vn 0.476347 0.407098 0.779336
vn 0.406902 0.0163023 -0.913326
vn 0.41976 0.452612 -0.78673
vn 0.673318 0.386157 -0.630496
vn 0.920892 0.0578826 -0.385496
vn 0.766217 0.450032 0.458675
vn 0.309901 0.781801 0.541063
vn 0.544097 0.777444 -0.315499
vn 0.981117 0.155816 0.114589
vn -0.670216 -0.714195 -0.20183
vn -0.980361 0.1475 -0.130907
vn -0.630014 -0.0677699 -0.773621
vn -0.835821 0.473528 -0.277804
vn -0.964913 0.262184 -0.0142376
vn -0.883528 0.452771 0.119903
vn -0.574102 0.286421 0.767052
vn -0.348937 0.567013 0.74615
vn -0.543775 -2.16869e-05 -0.839231
vn -0.361608 -0.245576 0.899407
vn -0.12362 0.64551 0.753681
vn -0.377695 -0.184459 0.907371
vn -0.00135475 -0.662378 -0.749169
vn -0.418942 -0.157481 0.894253
vn 0.306416 0.207116 -0.929092
vn -0.169451 -0.195728 0.965907
vn 0.649592 0.753666 -0.100094
vn 0.50234 0.860034 -0.089426
vn 0.746278 0.61164 -0.262614
g grp1
usemtl mtl1
f 1//1 36//36 40//40 
f 40//40 14//14 1//1 
f 16//16 2//2 6//6 
f 114//114 108//108 17//17 
f 18//18 15//15 2//2 
f 16//16 18//18 2//2 
f 3//3 8//8 9//9 
f 4//4 106//106 6//6 
f 107//107 5//5 109//109 
f 107//107 110//110 5//5 
f 1//1 3//3 4//4 
f 3//3 1//1 8//8 
f 2//2 15//15 4//4 
f 2//2 4//4 6//6 
f 11//11 5//5 110//110 
f 5//5 7//7 109//109 
f 7//7 5//5 11//11 
f 17//17 109//109 7//7 
f 4//4 15//15 1//1 
f 21//21 11//11 13//13 
f 1//1 14//14 8//8 
f 14//14 10//10 8//8 
f 8//8 10//10 9//9 
f 110//110 111//111 11//11 
f 111//111 13//13 11//11 
f 14//14 12//12 10//10 
f 113//113 112//112 12//12 
f 12//12 14//14 37//37 
f 12//12 37//37 25//25 
f 25//25 113//113 12//12 
f 35//35 15//15 18//18 
f 35//35 36//36 15//15 
f 15//15 36//36 1//1 
f 38//38 25//25 37//37 
f 114//114 17//17 29//29 
f 29//29 17//17 30//30 
f 19//19 16//16 29//29 
f 32//32 30//30 17//17 
f 18//18 16//16 39//39 
f 19//19 39//39 16//16 
f 19//19 29//29 20//20 
f 46//46 19//19 20//20 
f 46//46 24//24 47//47 
f 17//17 7//7 11//11 
f 21//21 17//17 11//11 
f 32//32 17//17 21//21 
f 22//22 32//32 21//21 
f 27//27 22//22 21//21 
f 27//27 48//48 23//23 
f 23//23 34//34 22//22 
f 23//23 22//22 27//27 
f 34//34 23//23 24//24 
f 24//24 23//23 47//47 
f 25//25 26//26 113//113 
f 28//28 26//26 25//25 
f 26//26 21//21 13//13 
f 26//26 28//28 27//27 
f 27//27 21//21 26//26 
f 28//28 48//48 27//27 
f 28//28 25//25 38//38 
f 29//29 30//30 31//31 
f 31//31 30//30 33//33 
f 30//30 32//32 33//33 
f 20//20 29//29 31//31 
f 20//20 31//31 24//24 
f 31//31 33//33 24//24 
f 46//46 20//20 24//24 
f 24//24 33//33 34//34 
f 33//33 32//32 34//34 
f 34//34 32//32 22//22 
f 38//38 37//37 42//42 
f 35//35 18//18 39//39 
f 14//14 40//40 37//37 
f 28//28 38//38 42//42 
f 48//48 47//47 23//23 
f 36//36 35//35 41//41 
f 41//41 40//40 36//36 
f 40//40 115//115 37//37 
f 19//19 44//44 39//39 
f 46//46 44//44 19//19 
f 45//45 48//48 28//28 
f 116//116 28//28 42//42 
f 49//49 50//50 40//40 
f 41//41 35//35 43//43 
f 41//41 43//43 51//51 
f 49//49 41//41 51//51 
f 41//41 49//49 40//40 
f 43//43 35//35 39//39 
f 44//44 43//43 39//39 
f 118//118 43//43 44//44 
f 53//53 118//118 44//44 
f 46//46 120//120 44//44 
f 115//115 40//40 117//117 
f 52//52 116//116 42//42 
f 56//56 48//48 45//45 
f 119//119 115//115 117//117 
f 55//55 120//120 46//46 
f 49//49 51//51 58//58 
f 50//50 49//49 57//57 
f 58//58 57//57 49//49 
f 57//57 60//60 50//50 
f 61//61 118//118 53//53 
f 59//59 118//118 61//61 
f 47//47 55//55 46//46 
f 48//48 54//54 47//47 
f 54//54 48//48 56//56 
f 54//54 55//55 47//47 
f 56//56 63//63 54//54 
f 116//116 52//52 56//56 
f 59//59 58//58 51//51 
f 66//66 59//59 61//61 
f 69//69 59//59 66//66 
f 65//65 59//59 69//69 
f 60//60 119//119 117//117 
f 81//81 56//56 52//52 
f 63//63 56//56 81//81 
f 62//62 61//61 53//53 
f 62//62 120//120 55//55 
f 58//58 64//64 57//57 
f 60//60 57//57 67//67 
f 64//64 67//67 57//57 
f 119//119 60//60 68//68 
f 119//119 68//68 77//77 
f 66//66 80//80 69//69 
f 59//59 65//65 58//58 
f 58//58 65//65 64//64 
f 81//81 52//52 77//77 
f 66//66 61//61 62//62 
f 54//54 63//63 55//55 
f 64//64 70//70 67//67 
f 67//67 70//70 71//71 
f 75//75 64//64 65//65 
f 67//67 68//68 60//60 
f 78//78 68//68 67//67 
f 62//62 80//80 66//66 
f 71//71 70//70 90//90 
f 67//67 71//71 72//72 
f 67//67 72//72 78//78 
f 79//79 121//121 72//72 
f 76//76 75//75 73//73 
f 86//86 76//76 73//73 
f 74//74 86//86 73//73 
f 70//70 64//64 75//75 
f 73//73 75//75 65//65 
f 70//70 75//75 76//76 
f 90//90 70//70 76//76 
f 76//76 91//91 90//90 
f 91//91 76//76 86//86 
f 77//77 68//68 121//121 
f 79//79 81//81 77//77 
f 79//79 77//77 121//121 
f 97//97 81//81 79//79 
f 73//73 65//65 69//69 
f 74//74 73//73 69//69 
f 74//74 69//69 80//80 
f 80//80 62//62 98//98 
f 81//81 103//103 63//63 
f 103//103 81//81 97//97 
f 90//90 82//82 71//71 
f 84//84 71//71 82//82 
f 82//82 90//90 91//91 
f 82//82 83//83 84//84 
f 72//72 85//85 79//79 
f 84//84 72//72 71//71 
f 84//84 85//85 72//72 
f 85//85 84//84 95//95 
f 95//95 84//84 83//83 
f 91//91 86//86 87//87 
f 87//87 86//86 88//88 
f 88//88 86//86 74//74 
f 88//88 89//89 87//87 
f 89//89 93//93 87//87 
f 91//91 92//92 82//82 
f 82//82 92//92 83//83 
f 87//87 92//92 91//91 
f 92//92 87//87 93//93 
f 92//92 94//94 83//83 
f 93//93 94//94 92//92 
f 101//101 94//94 93//93 
f 89//89 101//101 93//93 
f 94//94 101//101 105//105 
f 95//95 96//96 85//85 
f 97//97 96//96 102//102 
f 85//85 96//96 97//97 
f 83//83 94//94 95//95 
f 96//96 95//95 94//94 
f 85//85 97//97 79//79 
f 88//88 74//74 80//80 
f 98//98 88//88 80//80 
f 62//62 99//99 98//98 
f 89//89 98//98 100//100 
f 98//98 89//89 88//88 
f 98//98 99//99 100//100 
f 101//101 89//89 100//100 
f 99//99 104//104 100//100 
f 123//123 122//122 104//104 
f 124//124 104//104 122//122 
f 97//97 102//102 103//103 
f 55//55 99//99 62//62 
f 99//99 55//55 104//104 
f 55//55 63//63 104//104 
f 104//104 63//63 123//123 
f 94//94 105//105 96//96 
f 101//101 100//100 124//124 
f 104//104 124//124 100//100 
f 96//96 105//105 102//102 
