# Blender v2.77 (sub 0) OBJ File: 'BLANKOblend.blend'
# www.blender.org
mtllib right deep cervical artery.mtl
o grp1
v -48.608154 -81.211159 1362.094238
v -48.001953 -79.450417 1362.603516
v -47.824219 -80.797096 1363.093750
v -48.590820 -83.593971 1361.041016
v -48.466309 -81.033424 1361.240234
v -47.967773 -83.359596 1361.453125
v -48.792725 -82.794167 1360.521484
v -48.297852 -83.258034 1359.648438
v -47.978516 -81.343971 1360.695312
v -48.493164 -84.683815 1359.496094
v -47.614899 -84.064919 1359.119995
v -46.760101 -91.023521 1356.890015
v -46.973511 -90.447731 1356.612427
v -47.561523 -78.951393 1363.599609
v -46.886719 -78.648659 1364.345703
v -47.255859 -81.213112 1362.746094
v -47.281250 -78.758034 1362.675781
v -47.523926 -82.929909 1361.585938
v -47.162476 -82.615456 1361.249023
v -47.218750 -80.297096 1361.593750
v -47.253906 -84.297096 1360.710938
v -47.387512 -82.898659 1359.996094
v -47.614899 -84.064919 1359.119995
v -47.122192 -82.778542 1360.561035
v -46.003906 -90.172096 1357.796875
v -46.917301 -89.006325 1356.660034
v -47.022217 -91.741188 1355.523926
v -46.646301 -90.704323 1355.540039
v -47.037102 -92.878922 1355.430054
v -46.760101 -91.023521 1356.890015
v -47.137798 -92.697319 1355.349976
v -47.037102 -92.878922 1355.430054
v -46.306702 -93.233025 1355.619995
v -46.306702 -93.233025 1355.619995
v -47.037102 -92.878922 1355.430054
v -46.200901 -93.299118 1355.540039
v -46.200901 -93.299118 1355.540039
v -47.037102 -92.878922 1355.430054
v -45.578999 -92.428520 1354.359985
v -47.140503 -92.696144 1355.348999
v -47.037899 -92.588318 1355.140015
v -47.123291 -92.263771 1354.854248
v -47.110500 -92.260719 1354.859985
v -46.889301 -92.058418 1354.579956
v -45.882812 -78.562721 1364.664062
v -46.367188 -77.412331 1364.503906
v -45.789062 -76.799049 1364.154297
v -46.368401 -79.890121 1363.359985
v -46.924561 -81.251686 1361.970459
v -46.187500 -79.156471 1362.722656
v -45.718750 -77.758034 1363.324219
v -47.092773 -81.343971 1361.275391
v -46.471680 -80.095924 1362.483398
v -46.987549 -84.213112 1360.314941
v -46.906250 -84.301003 1359.573242
v -45.397949 -90.219948 1357.381836
v -45.295410 -90.730690 1355.650391
v -46.267399 -88.846420 1356.469971
v -46.222301 -90.384422 1355.500000
v -46.396702 -91.895020 1354.310059
v -45.730469 -91.265846 1357.046875
v -46.200901 -93.299118 1355.540039
v -45.508789 -93.014626 1355.038574
v -45.699402 -93.141624 1355.400024
v -46.200901 -93.299118 1355.540039
v -45.874756 -92.143776 1354.270508
v -46.396702 -91.895020 1354.310059
v -45.482422 -93.068581 1355.010742
v -45.989258 -92.053200 1354.237305
v -46.396702 -91.895020 1354.310059
v -44.848900 -76.549019 1365.579956
v -45.628906 -78.842018 1363.557129
v -45.346680 -89.217018 1357.149414
v -45.688232 -93.151588 1355.412354
v -45.148445 -91.477272 1356.154785
v -45.304321 -92.488625 1355.011475
v -45.599609 -92.414284 1354.361328
v -40.136719 -73.207253 1367.902344
v -44.296875 -75.509987 1365.558594
v -42.923828 -74.478737 1365.573242
v -45.445099 -78.696121 1364.050049
v -44.919922 -77.584206 1363.795898
v -45.445099 -78.696121 1364.050049
v -42.132812 -74.281471 1365.437500
v -43.882099 -77.058121 1364.550049
v -43.532902 -76.834419 1365.420044
v -40.074219 -72.648659 1367.693359
v -41.382812 -74.609596 1367.097656
v -43.532902 -76.834419 1365.420044
v -40.386700 -74.491020 1367.109985
v -39.027344 -72.209206 1367.355469
v -39.625000 -72.996315 1366.589844
v -40.593750 -74.023659 1365.906250
v -39.785156 -73.336159 1368.132812
v -39.481899 -73.692818 1367.989990
v -38.714844 -73.209206 1367.158203
v -39.488281 -74.032448 1367.238281
v -38.625702 -71.757523 1369.030029
v -37.476562 -72.626686 1368.635742
v -38.868900 -72.350418 1369.050049
v -38.702202 -72.717125 1369.089966
v -38.256699 -71.890923 1369.949951
v -37.920410 -72.165260 1370.318359
v -38.868900 -72.350418 1369.050049
v -37.882324 -71.180397 1370.263184
v -38.262695 -71.524635 1368.673828
v -38.212299 -72.946320 1369.040039
v -37.637695 -71.381081 1368.890625
v -37.917969 -72.297096 1367.886719
v -37.648804 -71.196266 1371.777832
v -37.546875 -72.386940 1370.203125
v -36.907715 -70.440651 1371.880859
v -38.212299 -72.946320 1369.040039
v -37.066406 -71.734596 1369.076172
v -38.142212 -59.008038 1385.019531
v -37.890137 -57.031475 1386.570312
v -37.932899 -57.557125 1385.329956
v -37.583008 -56.320538 1385.757812
v -37.766602 -62.828350 1382.515625
v -37.919922 -65.808815 1381.214844
v -37.891357 -64.125229 1382.878906
v -37.582031 -67.015846 1380.820312
v -37.541992 -65.468971 1380.671875
v -37.701660 -67.445534 1379.398438
v -37.339600 -68.105690 1378.015625
v -37.354980 -68.242409 1379.691406
v -37.412872 -70.329323 1376.029297
v -36.880379 -70.277565 1376.898438
v -37.442993 -69.654518 1375.865234
v -36.986328 -68.968971 1376.402344
v -37.164429 -69.966042 1374.238281
v -37.425293 -71.718971 1371.949219
v -36.813721 -71.199440 1374.625000
v -37.494125 -70.732460 1372.829590
v -36.725464 -69.756081 1374.527344
v -37.130371 -72.462624 1369.795898
v -36.400879 -71.025612 1371.077148
v -36.425903 -71.542458 1370.696289
v -37.819092 -54.459209 1388.173828
v -37.578098 -54.351227 1388.900024
v -37.400501 -52.924423 1391.160034
v -37.616199 -55.338123 1387.869995
v -37.091400 -54.509026 1388.900024
v -37.578098 -54.351227 1388.900024
v -37.809204 -54.587139 1387.471680
v -37.300171 -53.308819 1388.796875
v -37.186035 -54.283428 1387.423828
v -37.202099 -55.593224 1387.709961
v -37.522800 -56.719425 1386.910034
v -37.186523 -57.359600 1386.382812
v -37.181641 -56.187725 1385.937500
v -37.318604 -64.195541 1383.078125
v -36.906982 -56.808819 1386.347656
v -36.990501 -62.471523 1383.680054
v -37.183167 -63.398663 1382.152344
v -36.836914 -63.922100 1382.242188
v -36.840820 -67.211159 1380.730469
v -36.704899 -65.190826 1381.750000
v -36.716797 -66.609596 1379.808594
v -36.614101 -66.017418 1380.689941
v -37.152527 -66.617409 1379.601562
v -36.870117 -69.101784 1378.726562
v -36.285645 -69.613503 1377.398438
v -36.666016 -68.070534 1377.898438
v -36.370605 -69.269753 1376.128906
v -36.282410 -71.009499 1374.535156
v -36.107758 -71.182472 1372.914795
v -36.701172 -52.282944 1395.832031
v -37.100647 -52.282146 1392.356445
v -37.070801 -52.786125 1393.099976
v -36.319801 -52.720230 1396.849976
v -37.259499 -53.570324 1390.599976
v -36.697998 -53.069195 1393.012695
v -37.259499 -53.570324 1390.599976
v -36.629028 -53.679913 1390.132812
v -37.415894 -52.899639 1389.922852
v -36.779175 -52.253887 1391.451660
v -36.419434 -52.495831 1391.492188
v -36.742599 -54.436726 1388.469971
v -36.779297 -53.437725 1388.796875
v -36.883301 -55.524826 1387.390015
v -36.742599 -54.436726 1388.469971
v -36.902344 -55.750225 1386.562500
v -36.595402 -53.553623 1389.319946
v -36.595402 -53.553623 1389.319946
v -37.202099 -55.593224 1387.709961
v -36.955444 -59.918194 1384.568359
v -36.814098 -63.921024 1382.229980
v -36.294678 -68.388893 1378.412109
v -34.339844 -52.282913 1407.406250
v -36.372437 -51.857864 1395.719238
v -35.790298 -52.817429 1397.479980
v -35.851562 -52.801987 1397.187500
v -36.004395 -51.909714 1395.576172
v -37.070801 -52.786125 1393.099976
v -36.098999 -52.792465 1394.590332
v -35.841797 -52.449448 1395.031250
v -36.522499 -53.223427 1391.750000
v -36.322300 -52.883125 1391.489990
v -36.639301 -53.641525 1390.140015
v -36.322300 -52.883125 1391.489990
v -33.748901 -52.073944 1408.467773
v -33.422363 -52.697250 1411.931641
v -32.990234 -52.094711 1411.568359
v -34.059502 -52.875729 1407.069946
v -33.267212 -52.783981 1409.968750
v -33.577881 -52.140701 1411.570801
v -33.285522 -51.989487 1414.624023
v -33.121216 -51.855942 1413.297363
v -32.792114 -52.460678 1414.172852
v -32.938232 -52.477768 1411.035156
v -33.231445 -49.829334 1425.054688
v -33.167725 -49.891102 1425.230957
v -32.946167 -49.698841 1425.307861
v -33.155273 -49.894276 1425.205566
v -32.889484 -49.529346 1425.124146
v -32.821777 -49.968006 1425.247192
v -33.134766 -51.436756 1418.429688
v -32.760963 -51.656483 1419.199219
v -32.735596 -51.150623 1418.167969
v -32.441498 -51.286366 1418.742188
v -32.504852 -52.106796 1415.220215
v -32.733002 -49.854332 1425.219971
v -32.721298 -49.687534 1425.140015
v -32.566406 -49.898670 1424.515625
v -32.721298 -49.687534 1425.140015
vn -0.3743 -0.4020 0.8356
vn -0.9390 0.0408 0.3415
vn -0.7534 -0.4011 0.5211
vn -0.0034 -0.5268 0.8500
vn -0.9632 0.1422 -0.2283
vn -0.7448 0.4981 -0.4440
vn -0.8372 0.5277 -0.1434
vn -0.4882 0.3794 -0.7860
vn -0.0915 0.5662 -0.8192
vn -0.9547 -0.0881 -0.2841
vn -0.1174 0.4599 -0.8802
vn -0.8067 -0.3710 0.4599
vn -0.9947 -0.0648 -0.0803
vn -0.5703 -0.0675 0.8187
vn -0.8605 0.3009 0.4110
vn 0.4763 -0.6032 0.6398
vn -0.3919 0.7123 -0.5824
vn 0.5569 -0.4545 0.6952
vn 0.9092 -0.2943 0.2945
vn 0.6632 -0.2683 0.6987
vn 0.7697 0.1240 -0.6263
vn 0.6315 0.4290 -0.6459
vn 0.3316 0.5177 -0.7887
vn 0.1385 -0.5003 0.8547
vn -0.6511 0.3023 -0.6962
vn -0.7552 0.4049 -0.5154
vn -0.9840 0.1779 0.0080
vn -0.8394 -0.2536 0.4808
vn -0.4383 -0.5148 0.7368
vn -0.2000 -0.5704 0.7967
vn -0.4590 -0.8792 0.1278
vn -0.2613 -0.7070 -0.6572
vn -0.3816 -0.6619 -0.6451
vn -0.2190 -0.6922 -0.6877
vn -0.8811 -0.3330 -0.3358
vn -0.3367 -0.6796 -0.6518
vn -0.9519 0.2181 -0.2151
vn -0.2806 -0.6598 -0.6971
vn -0.2926 -0.5859 -0.7557
vn -0.7740 0.4934 0.3969
vn -0.5328 0.7874 -0.3101
vn 0.0651 -0.5573 0.8278
vn 0.7903 -0.5963 0.1408
vn 0.9440 -0.3216 0.0745
vn 0.7959 -0.0347 -0.6044
vn 0.3001 0.3578 -0.8842
vn 0.9062 0.1379 -0.3997
vn 0.9200 -0.2320 -0.3158
vn 0.9686 0.1311 -0.2114
vn 0.9523 0.0023 0.3050
vn 0.9432 0.3071 -0.1268
vn 0.8267 -0.2076 0.5230
vn 0.7970 0.3479 -0.4937
vn 0.0032 0.5108 -0.8597
vn -0.3446 0.5296 -0.7751
vn -0.6711 0.4229 -0.6089
vn 0.4051 -0.5528 0.7283
vn 0.2937 -0.6106 0.7354
vn 0.8455 -0.5314 -0.0520
vn 0.7689 -0.6247 -0.1360
vn 0.2402 -0.9486 -0.2062
vn 0.4725 0.5053 -0.7221
vn 0.2258 0.5882 -0.7766
vn -0.1921 -0.6762 -0.7113
vn -0.3028 -0.6003 -0.7403
vn -0.3110 -0.4104 -0.8572
vn -0.5185 0.0794 0.8514
vn 0.8369 -0.4537 -0.3061
vn 0.9638 0.2662 -0.0125
vn 0.8669 -0.4510 0.2123
vn 0.9482 -0.2328 0.2159
vn 0.9634 -0.2059 -0.1717
vn 0.8072 0.1095 -0.5801
vn -0.6560 0.1595 0.7377
vn -0.6691 0.6546 0.3520
vn 0.4865 -0.7150 0.5022
vn 0.7389 -0.6670 -0.0957
vn 0.6176 -0.1532 -0.7715
vn -0.4470 0.8522 -0.2719
vn -0.0347 0.6318 -0.7744
vn 0.6896 -0.6312 -0.3550
vn 0.3352 -0.7628 0.5529
vn -0.6498 0.7099 0.2718
vn -0.0841 -0.5006 0.8616
vn 0.5966 -0.7986 0.0789
vn 0.2409 -0.8130 0.5301
vn 0.0080 0.8010 -0.5986
vn 0.4702 0.0323 -0.8820
vn -0.4118 -0.3368 0.8468
vn -0.0585 -0.7476 0.6616
vn 0.2942 0.4551 -0.8404
vn 0.7124 -0.2714 -0.6472
vn 0.5794 -0.8134 0.0523
vn -0.7468 0.6001 0.2866
vn 0.8141 -0.4820 -0.3238
vn -0.6334 -0.2221 0.7412
vn -0.5180 -0.4721 0.7133
vn -0.8670 -0.0503 0.4957
vn -0.5796 -0.6417 0.5023
vn -0.8259 0.3126 0.4693
vn -0.7576 0.6468 0.0877
vn -0.2451 0.9462 -0.2112
vn -0.2818 -0.7385 0.6125
vn 0.6139 -0.7818 0.1090
vn 0.6754 0.2288 -0.7010
vn -0.9651 -0.1442 0.2185
vn -0.0943 -0.9256 0.3665
vn -0.0035 0.9788 -0.2049
vn 0.2507 0.8414 -0.4788
vn -0.1627 -0.7217 0.6728
vn 0.8365 0.2688 -0.4776
vn -0.2795 0.5456 -0.7901
vn -0.4312 0.3756 -0.8203
vn -0.7855 0.3206 -0.5294
vn -0.9947 -0.0994 -0.0246
vn -0.7427 -0.3724 0.5565
vn -0.4975 -0.4374 0.7492
vn -0.9998 0.0218 -0.0038
vn -0.5935 -0.5755 0.5627
vn -0.6035 0.4745 -0.6409
vn -0.9832 0.0533 -0.1743
vn -0.4010 0.7242 -0.5610
vn -0.8167 -0.5337 0.2194
vn -0.4820 -0.6922 0.5371
vn -0.9073 0.3782 -0.1839
vn -0.1541 0.8593 -0.4876
vn -0.5045 0.8220 -0.2643
vn -0.8350 -0.4987 0.2324
vn -0.0886 -0.9436 0.3190
vn -0.0179 -0.8791 0.4762
vn -0.6343 0.7432 -0.2128
vn 0.0480 0.9409 -0.3352
vn 0.8065 0.5191 -0.2828
vn 0.9454 -0.2170 -0.2433
vn -0.9908 -0.0297 0.1322
vn -0.7950 -0.4800 0.3709
vn -0.9874 -0.0108 0.1577
vn -0.6577 0.7254 -0.2033
vn -0.4423 -0.5401 0.7160
vn 0.2292 -0.8072 0.5440
vn -0.2508 -0.7845 0.5671
vn -0.2865 0.8505 -0.4410
vn -0.7815 0.4577 -0.4241
vn 0.2232 0.7127 -0.6650
vn -0.0363 -0.6373 0.7697
vn -0.0187 -0.5991 0.8005
vn 0.5062 0.4614 -0.7286
vn 0.4909 -0.4579 0.7412
vn 0.1980 -0.5198 0.8310
vn 0.7915 -0.2323 0.5652
vn 0.3761 0.4803 -0.7924
vn 0.9379 0.2338 -0.2563
vn 0.4927 -0.5707 0.6569
vn 0.9674 -0.0791 0.2406
vn 0.1837 0.6962 -0.6939
vn 0.5847 0.5831 -0.5640
vn 0.9180 0.3146 -0.2415
vn 0.1823 -0.7951 0.5784
vn 0.8246 -0.4734 0.3098
vn 0.4243 0.7609 -0.4909
vn 0.6202 0.7271 -0.2945
vn 0.7088 -0.6647 0.2360
vn 0.9487 -0.3149 0.0294
vn -0.9779 0.1081 0.1790
vn -0.7105 0.7033 0.0245
vn -0.9198 -0.3462 0.1849
vn -0.5804 -0.8005 0.1493
vn -0.8572 -0.4317 0.2810
vn -0.1678 -0.9533 0.2510
vn -0.0620 -0.9356 0.3475
vn 0.1605 -0.9079 0.3872
vn 0.0669 0.9756 -0.2092
vn 0.6307 -0.6665 0.3975
vn 0.6513 0.6226 -0.4337
vn 0.8649 -0.3687 0.3406
vn 0.9788 -0.1989 0.0494
vn 0.9157 0.2123 -0.3411
vn 0.9586 -0.2813 0.0439
vn 0.9420 0.2577 -0.2151
vn 0.6539 -0.5243 0.5454
vn 0.9526 -0.2106 0.2195
vn 0.9318 -0.1822 0.3138
vn 0.5283 -0.3013 0.7938
vn 0.9949 0.0994 0.0183
vn -0.3841 0.9214 0.0589
vn -0.2281 -0.9728 0.0416
vn -0.0470 -0.9979 0.0455
vn 0.5399 0.8362 -0.0963
vn -0.5526 -0.8083 0.2030
vn 0.6648 -0.7445 -0.0607
vn 0.6847 -0.7258 0.0663
vn 0.9847 -0.0483 -0.1677
vn 0.8421 0.4817 -0.2424
vn 0.8833 -0.4688 0.0055
vn 0.9336 -0.3569 0.0327
vn 0.9586 0.2293 -0.1687
vn -0.2599 0.9638 0.0600
vn -0.8450 0.4820 0.2317
vn -0.5796 -0.7984 0.1633
vn 0.7388 0.6703 -0.0700
vn -0.0774 -0.9968 0.0201
vn 0.5278 -0.8480 -0.0485
vn -0.9830 0.1635 0.0830
vn -0.9214 0.3798 0.0822
vn 0.0543 -0.9689 0.2415
vn -0.3108 0.9491 -0.0511
vn 0.3844 -0.9195 0.0822
vn 0.9731 -0.2146 -0.0840
vn -0.6466 -0.0931 0.7571
vn -0.1367 0.4312 0.8918
vn -0.9622 0.2378 0.1326
vn 0.0358 0.9679 0.2487
vn -0.3304 -0.9316 0.1518
vn 0.3634 -0.6064 0.7073
vn -0.9937 0.1066 -0.0344
vn 0.9980 0.0612 0.0184
vn 0.0422 0.9777 -0.2056
vn 0.9903 0.1354 -0.0319
vn 0.9661 -0.2578 -0.0114
vn 0.6829 0.6040 0.4109
vn 0.4598 0.0900 0.8834
vn 0.9248 -0.2280 0.3045
usemtl mtl1
s 1
f 3//1 1//2 4//3
f 4//3 6//4 3//1
f 1//2 7//5 4//3
f 1//2 5//6 7//5
f 2//7 5//6 1//2
f 7//5 5//6 8//8
f 5//6 9//9 8//8
f 7//5 10//10 4//3
f 7//5 8//8 10//10
f 9//9 11//11 8//8
f 12//12 4//3 10//10
f 10//10 13//13 12//12
f 15//14 14//15 3//1
f 16//16 3//1 6//4
f 3//1 14//15 1//2
f 2//7 1//2 14//15
f 17//17 5//6 2//7
f 16//16 6//4 18//18
f 5//6 17//17 9//9
f 18//18 19//19 16//16
f 21//20 18//18 6//4
f 18//18 21//20 19//19
f 20//21 22//22 9//9
f 22//22 23//23 9//9
f 21//20 6//4 25//24
f 25//24 4//3 12//12
f 10//10 26//25 13//13
f 10//10 8//8 26//25
f 28//26 27//27 13//13
f 12//12 13//13 27//27
f 26//25 28//26 13//13
f 29//28 30//28 31//28
f 12//12 32//29 33//30
f 25//24 12//12 33//30
f 34//31 35//31 36//31
f 37//32 38//33 39//34
f 38//33 40//35 41//36
f 27//27 42//37 40//35
f 12//12 27//27 40//35
f 28//26 42//37 27//27
f 41//36 40//35 42//37
f 38//33 41//36 39//34
f 41//36 43//38 44//39
f 46//40 14//15 15//14
f 14//15 46//40 2//7
f 46//40 47//41 2//7
f 17//17 2//7 47//41
f 45//42 3//1 16//16
f 48//43 45//42 16//16
f 48//43 16//16 49//44
f 50//45 20//21 51//46
f 52//47 20//21 53//48
f 51//46 9//9 17//17
f 9//9 51//46 20//21
f 16//16 19//19 49//44
f 49//44 19//19 24//49
f 49//44 24//49 52//47
f 24//49 22//22 52//47
f 22//22 20//21 52//47
f 21//20 54//50 19//19
f 19//19 54//50 24//49
f 24//49 54//50 55//51
f 24//49 55//51 22//22
f 25//24 56//52 21//20
f 57//53 22//22 55//51
f 22//22 57//53 23//23
f 4//3 25//24 6//4
f 23//23 57//53 58//54
f 58//54 8//8 11//11
f 26//25 8//8 58//54
f 26//25 59//55 28//26
f 58//54 59//55 26//25
f 60//56 28//26 59//55
f 61//57 25//24 33//30
f 62//58 61//57 33//30
f 63//59 64//60 65//61
f 60//56 42//37 28//26
f 59//55 66//62 67//63
f 37//32 39//34 68//64
f 41//36 44//39 69//65
f 69//65 44//39 70//66
f 15//14 45//42 71//67
f 15//14 71//67 46//40
f 3//1 45//42 15//14
f 48//43 53//48 72//68
f 72//68 53//48 50//45
f 53//48 49//44 52//47
f 50//45 53//48 20//21
f 49//44 53//48 48//43
f 21//20 56//52 54//50
f 55//51 73//69 57//53
f 54//50 73//69 55//51
f 54//50 56//52 73//69
f 56//52 61//57 74//70
f 74//70 75//71 56//52
f 61//57 56//52 25//24
f 74//70 61//57 62//58
f 58//54 66//62 59//55
f 57//53 66//62 58//54
f 75//71 74//70 64//60
f 75//71 76//72 57//53
f 66//62 57//53 77//73
f 75//71 64//60 63//59
f 75//71 63//59 76//72
f 63//59 77//73 76//72
f 57//53 76//72 77//73
f 39//34 41//36 69//65
f 45//42 78//74 71//67
f 79//75 47//41 46//40
f 48//43 81//76 45//42
f 72//68 83//77 48//43
f 72//68 50//45 82//78
f 56//52 75//71 73//69
f 73//69 75//71 57//53
f 71//67 79//75 46//40
f 80//79 47//41 79//75
f 84//80 47//41 80//79
f 83//77 72//68 85//81
f 72//68 82//78 85//81
f 84//80 17//17 47//41
f 51//46 17//17 84//80
f 82//78 50//45 51//46
f 86//82 45//42 81//76
f 71//67 78//74 79//75
f 87//83 79//75 78//74
f 88//84 78//74 45//42
f 88//84 45//42 86//82
f 83//77 85//81 89//85
f 90//86 88//84 86//82
f 87//83 80//79 79//75
f 84//80 80//79 91//87
f 51//46 84//80 93//88
f 93//88 82//78 51//46
f 88//84 94//89 78//74
f 80//79 87//83 91//87
f 90//86 95//90 88//84
f 91//87 92//91 84//80
f 82//78 93//88 85//81
f 96//92 85//81 93//88
f 94//89 88//84 95//90
f 89//85 85//81 97//93
f 90//86 89//85 97//93
f 92//91 93//88 84//80
f 87//83 78//74 98//94
f 90//86 97//93 95//90
f 97//93 85//81 96//92
f 99//95 97//93 96//92
f 93//88 92//91 96//92
f 100//96 101//97 102//98
f 101//97 103//99 102//98
f 98//94 78//74 104//100
f 104//100 105//101 98//94
f 98//94 105//101 106//102
f 78//74 94//89 100//96
f 101//97 100//96 94//89
f 101//97 94//89 95//90
f 107//103 101//97 95//90
f 103//99 101//97 107//103
f 98//94 106//102 87//83
f 136//104 95//90 97//93
f 106//102 91//87 87//83
f 91//87 109//105 92//91
f 109//105 96//92 92//91
f 103//99 110//106 102//98
f 110//106 105//101 102//98
f 102//98 105//101 104//100
f 111//107 103//99 107//103
f 106//102 112//108 108//109
f 136//104 113//110 95//90
f 136//104 97//93 99//95
f 113//110 136//104 111//107
f 114//111 109//105 108//109
f 106//102 108//109 91//87
f 109//105 91//87 108//109
f 118//112 119//113 117//114
f 120//115 117//114 119//113
f 121//116 116//117 115//118
f 121//116 115//118 120//115
f 117//114 120//115 115//118
f 120//115 122//119 121//116
f 120//115 119//113 123//120
f 123//120 124//121 120//115
f 124//121 123//120 125//122
f 120//115 124//121 122//119
f 127//123 122//119 124//121
f 127//123 126//124 122//119
f 124//121 125//122 129//125
f 124//121 129//125 127//123
f 130//126 129//125 125//122
f 130//126 131//127 129//125
f 132//128 133//129 127//123
f 133//129 128//130 127//123
f 129//125 134//131 110//106
f 134//131 129//125 131//127
f 110//106 127//123 129//125
f 132//128 127//123 110//106
f 134//131 131//127 112//108
f 131//127 135//132 112//108
f 132//128 110//106 103//99
f 133//129 132//128 111//107
f 134//131 105//101 110//106
f 112//108 105//101 134//131
f 103//99 111//107 132//128
f 105//101 112//108 106//102
f 112//108 137//133 108//109
f 136//104 99//95 138//134
f 99//95 114//111 138//134
f 108//109 137//133 114//111
f 96//92 109//105 99//95
f 109//105 114//111 99//95
f 139//135 140//136 141//137
f 141//137 176//138 139//135
f 140//136 139//135 142//139
f 143//140 144//141 142//139
f 146//142 145//143 176//138
f 139//135 176//138 145//143
f 146//142 147//144 145//143
f 142//139 139//135 116//117
f 148//145 142//139 149//146
f 149//146 142//139 116//117
f 147//144 118//112 145//143
f 139//135 145//143 115//118
f 116//117 139//135 115//118
f 118//112 117//114 145//143
f 115//118 145//143 117//114
f 147//144 151//147 118//112
f 116//117 150//148 149//146
f 150//148 116//117 152//149
f 152//149 116//117 121//116
f 154//150 150//148 152//149
f 155//151 119//113 118//112
f 151//147 155//151 118//112
f 156//152 155//151 151//147
f 155//151 123//120 119//113
f 121//116 122//119 152//149
f 152//149 122//119 157//153
f 158//154 152//149 157//153
f 152//149 158//154 154//150
f 155//151 161//155 123//120
f 159//156 161//155 155//151
f 156//152 159//156 155//151
f 160//157 159//156 156//152
f 125//122 123//120 161//155
f 157//153 122//119 126//124
f 157//153 126//124 162//158
f 163//159 157//153 162//158
f 128//130 126//124 127//123
f 162//158 126//124 128//130
f 125//122 161//155 164//160
f 159//156 164//160 161//155
f 164//160 130//126 125//122
f 162//158 128//130 163//159
f 165//161 135//132 130//126
f 164//160 165//161 130//126
f 135//132 131//127 130//126
f 128//130 133//129 166//162
f 165//161 137//133 135//132
f 167//163 137//133 165//161
f 166//162 133//129 136//104
f 136//104 167//163 166//162
f 137//133 112//108 135//132
f 133//129 111//107 136//104
f 167//163 138//134 137//133
f 167//163 136//104 138//134
f 138//134 114//111 137//133
f 168//164 169//165 141//137
f 168//164 170//166 171//167
f 168//164 141//137 170//166
f 170//166 141//137 172//168
f 173//169 174//170 175//171
f 141//137 169//165 176//138
f 177//172 176//138 169//165
f 177//172 146//142 176//138
f 141//137 140//136 172//168
f 174//170 143//140 175//171
f 143//140 179//173 175//171
f 177//172 180//174 146//142
f 143//140 174//170 144//141
f 181//175 179//173 143//140
f 180//174 147//144 146//142
f 143//140 142//139 148//145
f 182//176 181//175 183//177
f 184//178 182//176 183//177
f 180//174 185//179 183//177
f 181//175 143//140 186//180
f 183//177 147//144 180//174
f 148//145 149//146 150//148
f 150//148 181//175 186//180
f 181//175 150//148 153//181
f 181//175 153//181 183//177
f 183//177 151//147 147//144
f 187//182 183//177 153//181
f 154//150 187//182 150//148
f 153//181 150//148 187//182
f 151//147 183//177 156//152
f 156//152 183//177 187//182
f 158//154 156//152 187//182
f 154//150 158//154 187//182
f 188//183 156//152 158//154
f 188//183 158//154 160//157
f 158//154 157//153 189//184
f 158//154 189//184 160//157
f 160//157 189//184 159//156
f 163//159 189//184 157//153
f 189//184 164//160 159//156
f 164//160 189//184 165//161
f 166//162 163//159 128//130
f 163//159 167//163 189//184
f 163//159 166//162 167//163
f 189//184 167//163 165//161
f 191//185 169//165 168//164
f 192//186 171//167 193//187
f 177//172 169//165 191//185
f 191//185 194//188 177//172
f 195//189 173//169 171//167
f 193//187 171//167 173//169
f 173//169 196//190 193//187
f 196//190 198//191 197//192
f 178//193 177//172 194//188
f 196//190 173//169 198//191
f 173//169 195//189 174//170
f 198//191 199//194 197//192
f 175//171 198//191 173//169
f 200//195 199//194 198//191
f 200//195 184//178 199//194
f 178//193 201//196 185//179
f 177//172 178//193 180//174
f 185//179 180//174 178//193
f 182//176 184//178 200//195
f 191//185 202//197 194//188
f 191//185 168//164 190//198
f 197//192 178//193 194//188
f 178//193 197//192 201//196
f 203//199 190//198 168//164
f 203//199 168//164 171//167
f 202//197 204//200 194//188
f 205//201 171//167 192//186
f 206//202 205//201 193//187
f 193//187 196//190 206//202
f 205//201 203//199 171//167
f 202//197 191//185 190//198
f 197//192 194//188 204//200
f 197//192 206//202 196//190
f 208//203 207//204 203//199
f 207//204 190//198 203//199
f 190//198 207//204 202//197
f 208//203 203//199 219//205
f 209//206 207//204 208//203
f 203//199 206//202 210//207
f 204//200 202//197 209//206
f 209//206 202//197 207//204
f 206//202 203//199 205//201
f 204//200 211//208 197//192
f 211//208 206//202 197//192
f 213//209 214//210 212//211
f 214//210 216//212 212//211
f 213//209 215//213 217//214
f 213//209 217//214 214//210
f 218//215 212//211 216//212
f 212//211 218//215 215//213
f 217//214 215//213 219//205
f 217//214 219//205 225//216
f 215//213 218//215 219//205
f 216//212 220//217 218//215
f 218//215 220//217 208//203
f 225//216 219//205 221//218
f 219//205 222//219 221//218
f 218//215 208//203 219//205
f 210//207 222//219 219//205
f 209//206 208//203 220//217
f 210//207 211//208 222//219
f 204//200 220//217 221//218
f 221//218 222//219 204//200
f 204//200 209//206 220//217
f 203//199 210//207 219//205
f 206//202 211//208 210//207
f 204//200 222//219 211//208
f 214//210 224//220 216//212
f 217//214 223//221 214//210
f 224//220 214//210 223//221
f 217//214 225//216 226//222
f 216//212 224//220 225//216
f 225//216 221//218 216//212
f 220//217 216//212 221//218
