#
# The license for this database is specified in the Creative Commons Attribution-Share Alike 2.1 Japan. If you use data from this database, please be sure attribute this database as follows: "BodyParts3D, (c)  The Database Center for Life Science licensed under CC Attribution-Share Alike 2.1 Japan".
# http://dbarchive.biosciencedbc.jp/en/bodyparts3d/lic.html
#
#
# Compatibility version : 4.0
# File ID : FJ2041
# Representation ID : BP7722
# Build-up logic : FMA 3.0 part_of
# Concept ID : FMA8620
# English name : Right anterior segmental artery
# Bounds(mm): (-85.225800,-85.954400,1028.503100)-(-57.601800,-73.093200,1050.382200)
# Volume(cm3): 0.406000
#
v -84.3625 -75.8879 1049
v -84.2328 -75.5777 1049.76
v -83.8373 -75.3627 1050.11
v -84.8645 -75.3243 1049.37
v -85.1699 -74.5754 1049.05
v -84.8554 -75.4736 1048.9
v -84.4983 -74.9361 1050.06
v -84.8135 -74.6151 1049.86
v -84.9308 -74.8644 1048.15
v -84.8426 -74.1544 1049.76
v -85.0323 -73.9409 1049.22
v -84.3196 -75.723 1048.31
v -84.449 -73.9163 1050
v -84.9627 -74.3316 1048.17
v -84.9511 -73.783 1048.63
v -84.8462 -73.5878 1049.02
v -84.6981 -73.6253 1049.49
v -84.2902 -74.9991 1047.65
v -84.6134 -74.4045 1047.72
v -84.3535 -73.2821 1049.24
v -84.1766 -73.4546 1049.74
v -84.6208 -73.755 1048.06
v -84.5259 -73.3252 1048.78
v -84.3277 -74.3033 1050.21
v -83.4729 -74.6401 1050.31
v -83.6656 -74.1165 1050.22
v -82.6573 -76.7525 1049.08
v -81.4836 -77.3289 1048.51
v -80.5324 -77.3476 1049.38
v -80.2827 -76.4727 1049.88
v -80.6197 -76.2173 1046.84
v -83.8502 -74.8995 1047.43
v -84.2367 -74.0804 1047.61
v -83.5647 -74.3141 1047.41
v -83.1122 -73.3936 1049.42
v -83.5955 -73.6917 1047.74
v -83.5104 -73.2395 1048.51
v -76.267 -78.372 1045.74
v -78.3508 -78.4414 1048.38
v -77.8689 -78.1069 1049.07
v -78.01 -77.595 1049.43
v -75.8118 -78.3567 1048.7
v -76.3451 -76.9026 1049.17
v -78.271 -77.7901 1046.54
v -79.9837 -75.5299 1046.92
v -79.4425 -74.9754 1047.52
v -78.7672 -74.9867 1048.34
v -77.4466 -75.9655 1049.16
v -77.8574 -76.4099 1046.29
v -77.3526 -75.9649 1046.47
v -72.0675 -80.1438 1046.36
v -74.9051 -79.5625 1046.24
v -73.6507 -78.5346 1044.04
v -73.4937 -77.7957 1044.06
v -74.477 -79.5797 1047.14
v -74.6771 -76.6231 1048.32
v -73.0833 -78.1287 1047.9
v -72.3614 -77.2895 1047.23
v -72.7658 -76.6236 1046.68
v -75.5709 -77.6515 1045.17
v -75.4805 -75.9577 1048.05
v -75.423 -76.774 1045.42
v -75.0527 -75.9852 1046.44
v -69.5203 -81.8826 1041.78
v -70.1398 -81.2774 1044.44
v -68.6503 -81.0416 1044.5
v -70.8475 -79.6921 1046.4
v -70.6774 -80.6235 1041.95
v -72.2342 -80.4474 1044.03
v -72.9235 -77.348 1044.09
v -71.2708 -78.6724 1042.44
v -70.0775 -78.8156 1046.15
v -68.6909 -82.3756 1042.12
v -67.2131 -82.94 1041.57
v -66.2932 -83.9163 1038.83
v -68.3535 -80.2041 1044.81
v -67.8897 -79.7133 1044.49
v -67.1115 -82.4618 1042.38
v -66.5156 -82.1534 1042.47
v -66.646 -81.2257 1043.18
v -65.4402 -81.2551 1042.01
v -69.1754 -81.2838 1040.27
v -67.2212 -79.2572 1039.74
v -69.9397 -77.7462 1042.85
v -68.6083 -78.38 1044.48
v -68.8378 -77.904 1043.46
v -66.6332 -79.4072 1042.83
v -62.9646 -84.9425 1036.36
v -64.9192 -84.031 1034.55
v -63.2234 -85.2369 1034.3
v -64.5258 -83.9731 1039.16
v -64.2192 -82.7632 1040.22
v -63.8987 -81.0589 1039.83
v -65.3994 -81.8777 1034.94
v -64.9417 -79.8245 1039.22
v -64.6501 -80.3728 1036.27
v -60.4415 -85.8819 1031.15
v -61.8022 -84.6159 1036.16
v -61.0364 -84.1969 1035.85
v -61.8967 -84.7971 1029.98
v -62.3385 -83.9264 1030
v -60.5968 -85.7537 1030.21
v -60.8192 -85.4747 1029.76
v -61.4119 -83.9904 1029
v -61.6068 -85.4241 1030.71
v -61.0669 -82.0408 1036.1
v -61.7673 -81.2296 1036.18
v -62.0882 -82.7591 1037.75
v -62.051 -83.0102 1029.59
v -62.6916 -80.6383 1035.94
v -59.7288 -85.707 1031.95
v -59.4579 -85.8327 1030.74
v -58.8115 -85.048 1032.38
v -58.5853 -85.3662 1030.85
v -60.1871 -85.6911 1029.92
v -60.3927 -85.4245 1029.51
v -60.7392 -84.7761 1029.04
v -59.6008 -85.1679 1029.31
v -60.1894 -83.7272 1028.59
v -59.0055 -84.1161 1028.91
v -60.0224 -85.8529 1030.36
v -59.2602 -85.5829 1030.06
v -58.5019 -84.4004 1032.65
v -58.005 -84.4738 1031.75
v -58.6301 -84.8277 1029.61
v -57.9021 -84.448 1030.7
v -58.1833 -83.4162 1032.52
v -58.5818 -81.7976 1031.88
v -59.3183 -82.8229 1028.77
v -57.6642 -83.2952 1031.14
v -58.2164 -83.6928 1029.45
v -58.0406 -82.5942 1031.95
v -57.8661 -82.4546 1030.79
v -58.5699 -82.8906 1029.15
v -58.4488 -82.1097 1029.76
v -58.3895 -81.7442 1030.56
v -57.9339 -82.886 1029.99
v -61.1963 -82.9714 1028.87
v -61.3807 -82.0678 1029.49
v -61.4344 -81.4302 1030.39
v -60.4085 -82.021 1029.05
v -60.3968 -81.5757 1029.45
v -60.4343 -81.11 1030.39
v -60.2419 -80.9407 1031.35
v -59.4224 -81.8318 1029.29
v -59.3233 -81.33 1030.06
v -59.1595 -81.219 1031.12
v -84.3535 -73.2821 1049.24
v -84.1766 -73.4546 1049.74
v -76.267 -78.372 1045.74
v -75.0527 -75.9852 1046.44
v -70.6774 -80.6235 1041.95
v -72.2342 -80.4474 1044.03
v -69.1754 -81.2838 1040.27
v -67.2212 -79.2572 1039.74
v -67.2212 -79.2572 1039.74
v -69.9397 -77.7462 1042.85
v -66.6332 -79.4072 1042.83
vn -0.546015 -0.832704 0.0920394
vn -0.423641 -0.684479 0.59331
vn -0.190021 -0.43182 0.881716
vn -0.763831 -0.506823 0.399616
vn -0.99581 -0.0478518 0.0779222
vn -0.811986 -0.574973 -0.100428
vn -0.461305 -0.311862 0.830626
vn -0.780596 -0.0878287 0.618834
vn -0.817133 -0.309274 -0.486459
vn -0.778742 0.243023 0.57836
vn -0.902052 0.374885 0.213922
vn -0.545672 -0.70655 -0.450587
vn -0.412571 0.480947 0.773612
vn -0.884058 0.163985 -0.437665
vn -0.862196 0.462433 -0.206821
vn -0.722082 0.683635 0.106023
vn -0.639042 0.625756 0.447275
vn -0.493609 -0.393374 -0.775633
vn -0.604187 0.057386 -0.794774
vn -0.540566 0.795597 0.273521
vn -0.228557 0.688451 0.68833
vn -0.512812 0.632899 -0.580053
vn -0.466186 0.863833 -0.190955
vn -0.380644 0.129295 0.915638
vn 0.00302872 -0.00897429 0.999955
vn 0.0727001 0.452883 0.888601
vn -0.379033 -0.864151 0.331023
vn -0.407461 -0.907106 -0.105516
vn -0.202264 -0.730476 0.652299
vn 0.0725265 -0.152235 0.98568
vn -0.174502 0.0379529 -0.983925
vn -0.300736 -0.0897526 -0.949475
vn -0.311347 0.347084 -0.884645
vn -0.109701 0.260342 -0.959264
vn 0.236988 0.8822 0.406891
vn -0.020683 0.685123 -0.728133
vn 0.071796 0.965778 -0.249233
vn -0.487695 -0.745879 -0.453671
vn -0.240717 -0.927884 0.284758
vn -0.0518091 -0.741787 0.668631
vn 0.072938 -0.392541 0.916838
vn 0.168273 -0.527092 0.832982
vn 0.288451 0.0690547 0.955001
vn -0.394196 -0.453838 -0.79915
vn -0.0174825 0.512645 -0.858423
vn 0.188655 0.853192 -0.486285
vn 0.31827 0.943289 0.0943982
vn 0.311109 0.530664 0.78842
vn -0.239869 0.247235 -0.938796
vn -0.0724804 0.639856 -0.765069
vn 0.099043 -0.758356 0.644272
vn -0.395166 -0.89717 -0.197304
vn -0.581353 -0.12556 -0.803905
vn -0.433867 0.31419 -0.844419
vn -0.114413 -0.900592 0.419337
vn 0.431934 0.52358 0.734369
vn 0.427116 -0.0179624 0.904019
vn 0.540935 0.485558 0.686748
vn 0.427122 0.849909 0.30858
vn -0.443723 0.0510023 -0.894712
vn 0.339326 0.865633 0.368154
vn -0.228778 0.590291 -0.774091
vn 0.248594 0.967508 -0.0461344
vn -0.662103 -0.707416 -0.247351
vn -0.14918 -0.924158 0.351678
vn 0.293902 -0.637697 0.712014
vn 0.35701 -0.423992 0.832331
vn -0.697304 -0.559907 -0.447516
vn -0.457688 -0.886381 -0.0696508
vn -0.274076 0.598223 -0.753002
vn -0.495201 0.343063 -0.798175
vn 0.580803 0.10804 0.806843
vn -0.389778 -0.910272 0.139562
vn -0.0982974 -0.922319 0.373718
vn -0.35406 -0.929837 0.100223
vn 0.534831 -0.251945 0.806523
vn 0.692652 0.12946 0.709559
vn 0.158922 -0.800497 0.577883
vn 0.406487 -0.619543 0.671517
vn 0.590638 -0.316678 0.742201
vn 0.75762 0.0191203 0.652415
vn -0.796949 -0.393416 -0.458362
vn -0.311667 0.717679 -0.622737
vn -0.208473 0.732496 -0.648065
vn 0.621848 0.603121 0.49955
vn 0.388336 0.921516 -0.001514
vn 0.749048 0.283868 0.59862
vn 0.0556548 -0.95887 0.278335
vn -0.76022 -0.534877 -0.368745
vn -0.363626 -0.930783 -0.0376839
vn 0.220532 -0.838627 0.498067
vn 0.611242 -0.448472 0.652116
vn 0.767206 0.439559 0.467099
vn -0.742429 0.376453 -0.55415
vn 0.490709 0.866209 0.0942735
vn -0.203337 0.930378 -0.305043
vn -0.102151 -0.994458 0.0248597
vn 0.446718 -0.741943 0.499965
vn 0.658732 -0.46889 0.588401
vn -0.638689 -0.553466 -0.534558
vn -0.802292 -0.178579 -0.569593
vn -0.24072 -0.935131 -0.259969
vn -0.368634 -0.780937 -0.504229
vn -0.555368 -0.207475 -0.805308
vn -0.491892 -0.835454 -0.245069
vn 0.771954 0.383314 0.507107
vn 0.617681 0.720237 0.315799
vn 0.788013 -0.058444 0.612878
vn -0.731149 0.165625 -0.661808
vn 0.321695 0.945108 0.0572904
vn 0.301266 -0.916734 0.262371
vn 0.26795 -0.962913 -0.031659
vn 0.595924 -0.690287 0.410341
vn 0.636245 -0.77145 -0.00753338
vn 0.00259735 -0.883743 -0.467965
vn -0.102553 -0.753297 -0.649635
vn -0.272709 -0.528291 -0.804076
vn 0.192714 -0.633877 -0.749041
vn -0.0417489 -0.104661 -0.993631
vn 0.4286 -0.232493 -0.873069
vn 0.0432812 -0.972336 -0.22954
vn 0.35846 -0.846236 -0.394198
vn 0.761779 -0.346489 0.547392
vn 0.864868 -0.408353 0.291977
vn 0.637382 -0.559689 -0.529615
vn 0.915676 -0.350061 -0.197468
vn 0.867521 0.00683251 0.497354
vn 0.670818 0.690558 0.270429
vn 0.251972 0.240354 -0.937411
vn 0.995342 0.0216731 0.0939339
vn 0.791217 -0.153517 -0.591953
vn 0.864494 0.354147 0.356692
vn 0.890894 0.451661 -0.0480625
vn 0.608102 0.237044 -0.757642
vn 0.67069 0.56112 -0.485097
vn 0.670027 0.732475 -0.120601
vn 0.910171 0.148418 -0.386732
vn -0.427053 0.222016 -0.876547
vn -0.52458 0.558314 -0.64273
vn -0.440494 0.77519 -0.452819
vn -0.119948 0.473481 -0.872599
vn -0.135557 0.79586 -0.590112
vn -0.0893648 0.94379 -0.318238
vn 0.141015 0.986463 -0.0836984
vn 0.292282 0.62433 -0.72442
vn 0.295953 0.886898 -0.354716
vn 0.423996 0.905089 0.0322549
vn 0.0035838 0.990956 0.134139
vn 0.040025 0.948376 0.314611
vn -0.499713 -0.262056 -0.825599
vn -0.0312244 0.765537 -0.642633
vn -0.663115 -0.010824 -0.74844
vn -0.646478 -0.495418 -0.580195
vn -0.672438 0.251386 -0.696155
vn -0.555599 0.513244 -0.654133
vn 0.187342 0.959929 -0.208422
vn 0.243205 0.951125 -0.190294
vn 0.62202 0.75213 0.217696
g grp1
usemtl mtl1
f 1//1 2//2 4//4 
f 27//27 29//29 2//2 
f 1//1 27//27 2//2 
f 2//2 29//29 3//3 
f 12//12 1//1 6//6 
f 4//4 6//6 1//1 
f 2//2 7//7 4//4 
f 2//2 3//3 7//7 
f 3//3 25//25 7//7 
f 28//28 1//1 12//12 
f 8//8 10//10 5//5 
f 4//4 8//8 5//5 
f 9//9 18//18 12//12 
f 9//9 6//6 5//5 
f 9//9 12//12 6//6 
f 6//6 4//4 5//5 
f 8//8 4//4 7//7 
f 25//25 24//24 7//7 
f 7//7 24//24 8//8 
f 24//24 13//13 10//10 
f 24//24 10//10 8//8 
f 14//14 9//9 5//5 
f 15//15 14//14 5//5 
f 11//11 15//15 5//5 
f 10//10 11//11 5//5 
f 10//10 17//17 11//11 
f 13//13 21//21 17//17 
f 10//10 13//13 17//17 
f 22//22 14//14 15//15 
f 15//15 11//11 16//16 
f 16//16 11//11 17//17 
f 24//24 26//26 13//13 
f 9//9 19//19 18//18 
f 9//9 14//14 19//19 
f 26//26 21//21 13//13 
f 19//19 14//14 22//22 
f 16//16 20//20 23//23 
f 16//16 17//17 20//20 
f 20//20 17//17 21//21 
f 15//15 16//16 23//23 
f 22//22 15//15 23//23 
f 32//32 18//18 19//19 
f 33//33 32//32 19//19 
f 33//33 19//19 22//22 
f 36//36 33//33 22//22 
f 36//36 22//22 37//37 
f 22//22 23//23 37//37 
f 23//23 148//148 37//37 
f 24//24 25//25 26//26 
f 39//39 40//40 29//29 
f 44//44 12//12 18//18 
f 28//28 12//12 44//44 
f 28//28 29//29 27//27 
f 28//28 27//27 1//1 
f 44//44 18//18 32//32 
f 31//31 44//44 32//32 
f 34//34 31//31 32//32 
f 30//30 3//3 29//29 
f 52//52 28//28 44//44 
f 48//48 25//25 30//30 
f 29//29 28//28 39//39 
f 39//39 28//28 52//52 
f 45//45 31//31 34//34 
f 30//30 29//29 41//41 
f 43//43 48//48 30//30 
f 49//49 44//44 31//31 
f 31//31 45//45 49//49 
f 61//61 47//47 48//48 
f 3//3 30//30 25//25 
f 48//48 26//26 25//25 
f 35//35 21//21 26//26 
f 34//34 32//32 33//33 
f 33//33 36//36 34//34 
f 35//35 148//148 149//149 
f 148//148 35//35 37//37 
f 48//48 35//35 26//26 
f 45//45 34//34 36//36 
f 36//36 46//46 45//45 
f 46//46 37//37 47//47 
f 35//35 47//47 37//37 
f 48//48 47//47 35//35 
f 37//37 46//46 36//36 
f 44//44 38//38 52//52 
f 150//150 44//44 60//60 
f 41//41 29//29 40//40 
f 30//30 41//41 43//43 
f 55//55 42//42 40//40 
f 40//40 39//39 55//55 
f 42//42 41//41 40//40 
f 42//42 43//43 41//41 
f 49//49 62//62 60//60 
f 49//49 60//60 44//44 
f 46//46 47//47 63//63 
f 49//49 45//45 50//50 
f 50//50 45//45 151//151 
f 45//45 46//46 151//151 
f 49//49 50//50 62//62 
f 65//65 51//51 55//55 
f 42//42 51//51 67//67 
f 53//53 150//150 60//60 
f 39//39 52//52 55//55 
f 55//55 52//52 65//65 
f 52//52 38//38 69//69 
f 54//54 53//53 60//60 
f 52//52 69//69 65//65 
f 53//53 153//153 150//150 
f 153//153 53//53 68//68 
f 57//57 56//56 43//43 
f 43//43 42//42 57//57 
f 59//59 61//61 56//56 
f 63//63 61//61 59//59 
f 57//57 58//58 56//56 
f 59//59 86//86 63//63 
f 42//42 55//55 51//51 
f 58//58 59//59 56//56 
f 42//42 67//67 57//57 
f 54//54 60//60 62//62 
f 70//70 54//54 62//62 
f 56//56 61//61 48//48 
f 56//56 48//48 43//43 
f 63//63 47//47 61//61 
f 151//151 62//62 50//50 
f 151//151 84//84 62//62 
f 157//157 63//63 86//86 
f 84//84 70//70 62//62 
f 68//68 82//82 64//64 
f 66//66 51//51 65//65 
f 69//69 73//73 65//65 
f 73//73 69//69 64//64 
f 153//153 68//68 64//64 
f 78//78 66//66 65//65 
f 76//76 67//67 66//66 
f 66//66 80//80 76//76 
f 67//67 51//51 66//66 
f 72//72 67//67 76//76 
f 71//71 53//53 54//54 
f 71//71 54//54 70//70 
f 53//53 71//71 152//152 
f 84//84 71//71 70//70 
f 83//83 71//71 84//84 
f 57//57 67//67 72//72 
f 57//57 72//72 58//58 
f 85//85 59//59 58//58 
f 85//85 58//58 72//72 
f 85//85 86//86 59//59 
f 76//76 77//77 72//72 
f 77//77 85//85 72//72 
f 90//90 75//75 89//89 
f 64//64 75//75 73//73 
f 74//74 65//65 73//73 
f 73//73 75//75 74//74 
f 74//74 78//78 65//65 
f 82//82 89//89 64//64 
f 91//91 79//79 78//78 
f 75//75 64//64 89//89 
f 74//74 91//91 78//78 
f 91//91 92//92 79//79 
f 75//75 91//91 74//74 
f 66//66 78//78 79//79 
f 80//80 66//66 79//79 
f 77//77 76//76 80//80 
f 80//80 81//81 77//77 
f 92//92 80//80 79//79 
f 81//81 80//80 92//92 
f 81//81 87//87 77//77 
f 81//81 93//93 87//87 
f 108//108 93//93 81//81 
f 154//154 152//152 71//71 
f 154//154 71//71 155//155 
f 94//94 154//154 155//155 
f 157//157 86//86 156//156 
f 158//158 86//86 85//85 
f 86//86 95//95 156//156 
f 87//87 85//85 77//77 
f 158//158 95//95 86//86 
f 89//89 105//105 90//90 
f 88//88 75//75 90//90 
f 88//88 91//91 75//75 
f 94//94 89//89 82//82 
f 92//92 108//108 81//81 
f 98//98 91//91 88//88 
f 98//98 92//92 91//91 
f 158//158 93//93 95//95 
f 99//99 108//108 92//92 
f 99//99 92//92 98//98 
f 95//95 93//93 107//107 
f 96//96 94//94 155//155 
f 156//156 95//95 110//110 
f 156//156 110//110 96//96 
f 88//88 97//97 111//111 
f 111//111 98//98 88//88 
f 112//112 111//111 97//97 
f 111//111 113//113 98//98 
f 113//113 99//99 98//98 
f 102//102 97//97 105//105 
f 102//102 105//105 103//103 
f 103//103 105//105 100//100 
f 104//104 100//100 101//101 
f 109//109 104//104 101//101 
f 102//102 115//115 121//121 
f 97//97 102//102 121//121 
f 103//103 116//116 115//115 
f 115//115 102//102 103//103 
f 116//116 103//103 117//117 
f 117//117 103//103 100//100 
f 117//117 100//100 104//104 
f 109//109 138//138 104//104 
f 105//105 89//89 100//100 
f 89//89 94//94 101//101 
f 94//94 109//109 101//101 
f 100//100 89//89 101//101 
f 88//88 90//90 97//97 
f 97//97 90//90 105//105 
f 112//112 97//97 121//121 
f 123//123 108//108 99//99 
f 93//93 108//108 106//106 
f 107//107 110//110 95//95 
f 139//139 109//109 94//94 
f 140//140 139//139 94//94 
f 138//138 109//109 139//139 
f 96//96 140//140 94//94 
f 144//144 96//96 110//110 
f 112//112 114//114 111//111 
f 114//114 113//113 111//111 
f 114//114 124//124 113//113 
f 126//126 124//124 114//114 
f 115//115 118//118 122//122 
f 121//121 115//115 122//122 
f 115//115 116//116 118//118 
f 119//119 104//104 138//138 
f 118//118 116//116 117//117 
f 119//119 118//118 117//117 
f 104//104 119//119 117//117 
f 138//138 141//141 119//119 
f 122//122 118//118 125//125 
f 120//120 125//125 118//118 
f 119//119 120//120 118//118 
f 141//141 129//129 119//119 
f 120//120 131//131 125//125 
f 119//119 129//129 120//120 
f 122//122 112//112 121//121 
f 112//112 122//122 114//114 
f 124//124 123//123 113//113 
f 113//113 123//123 99//99 
f 123//123 127//127 108//108 
f 129//129 141//141 145//145 
f 128//128 147//147 110//110 
f 114//114 122//122 125//125 
f 126//126 114//114 125//125 
f 126//126 125//125 131//131 
f 126//126 130//130 124//124 
f 123//123 124//124 127//127 
f 127//127 124//124 130//130 
f 106//106 127//127 132//132 
f 108//108 127//127 106//106 
f 106//106 132//132 128//128 
f 128//128 132//132 133//133 
f 136//136 128//128 133//133 
f 129//129 145//145 134//134 
f 146//146 147//147 136//136 
f 136//136 147//147 128//128 
f 126//126 131//131 137//137 
f 137//137 130//130 126//126 
f 127//127 130//130 132//132 
f 137//137 131//131 134//134 
f 133//133 130//130 137//137 
f 130//130 133//133 132//132 
f 134//134 131//131 120//120 
f 129//129 134//134 120//120 
f 134//134 135//135 137//137 
f 137//137 135//135 133//133 
f 133//133 135//135 136//136 
f 136//136 135//135 146//146 
f 106//106 128//128 107//107 
f 106//106 107//107 93//93 
f 128//128 110//110 107//107 
f 141//141 138//138 139//139 
f 141//141 139//139 142//142 
f 139//139 140//140 142//142 
f 143//143 142//142 140//140 
f 96//96 143//143 140//140 
f 143//143 96//96 144//144 
f 142//142 143//143 146//146 
f 143//143 144//144 146//146 
f 142//142 145//145 141//141 
f 144//144 147//147 146//146 
f 110//110 147//147 144//144 
f 146//146 145//145 142//142 
f 135//135 134//134 145//145 
f 146//146 135//135 145//145 
