#
# The license for this database is specified in the Creative Commons Attribution-Share Alike 2.1 Japan. If you use data from this database, please be sure attribute this database as follows: "BodyParts3D, (c)  The Database Center for Life Science licensed under CC Attribution-Share Alike 2.1 Japan".
# http://dbarchive.biosciencedbc.jp/en/bodyparts3d/lic.html
#
#
# Compatibility version : 4.0
# File ID : FJ2968
# Representation ID : BP9540
# Build-up logic : FMA 3.0 part_of
# Concept ID : FMA68670
# English name : Apical part of right posterior segmental artery
# Bounds(mm): (-70.747700,-52.727900,1306.840000)-(-62.682400,-46.971100,1320.970000)
# Volume(cm3): 0.071600
#
v -67.2995 -48.689 1316.05
v -66.2744 -48.4604 1315.87
v -70.2057 -51.046 1320.77
v -70.7477 -51.328 1319.82
v -69.2634 -51.6382 1320.87
v -69.3618 -51.8127 1320.97
v -64.4956 -47.0049 1310.94
v -66.5558 -48.423 1312.94
v -63.8498 -47.2764 1311.57
v -68.0333 -49.7397 1315.51
v -64.7755 -49.252 1314
v -70.5338 -52.5161 1319.73
v -69.7832 -52.7279 1319.73
v -64.4863 -47.0436 1308.77
v -63.6479 -47.0797 1309.73
v -64.0508 -46.9711 1308.91
v -63.1922 -47.4684 1309.29
v -65.4777 -48.11 1309.7
v -65.5003 -47.4247 1311.01
v -65.7238 -48.6491 1311.25
v -63.4335 -48.2886 1311.38
v -64.5262 -49.2976 1312.66
v -65.0031 -49.4501 1312.27
v -64.9298 -49.2595 1311.22
v -64.3487 -49.2644 1311.27
v -65.8463 -49.2699 1312.38
v -66.8468 -50.1744 1314.64
v -65.5616 -49.8661 1313.95
v -63.3545 -47.3409 1307.33
v -63.3624 -47.443 1306.95
v -64.0145 -47.2235 1307.1
v -64.7047 -47.4474 1307.2
v -64.7186 -47.5932 1306.84
v -65.1031 -47.9592 1307
v -62.6824 -48.113 1307.16
v -65.1948 -48.8901 1309.81
v -63.3683 -48.8706 1310.02
v -64.3053 -49.3076 1310.02
v -65.152 -48.7626 1307.34
v -65.0551 -48.7266 1307.02
v -62.7284 -48.8658 1307.49
v -63.2008 -49.3533 1307.35
v -63.0484 -49.3198 1307.6
v -63.5528 -49.5772 1307.82
v -64.3776 -49.6541 1307.25
v -64.5484 -49.5418 1307.62
v -64.2421 -49.7235 1307.38
v -67.2995 -48.689 1316.05
v -66.2744 -48.4604 1315.87
v -66.2744 -48.4604 1315.87
v -70.2057 -51.046 1320.77
v -70.2057 -51.046 1320.77
v -70.2057 -51.046 1320.77
v -70.7477 -51.328 1319.82
v -70.7477 -51.328 1319.82
v -69.2634 -51.6382 1320.87
v -69.3618 -51.8127 1320.97
v -69.3618 -51.8127 1320.97
v -69.3618 -51.8127 1320.97
v -66.5558 -48.423 1312.94
v -66.5558 -48.423 1312.94
v -63.8498 -47.2764 1311.57
v -68.0333 -49.7397 1315.51
v -64.7755 -49.252 1314
v -70.5338 -52.5161 1319.73
v -70.5338 -52.5161 1319.73
v -69.7832 -52.7279 1319.73
v -69.7832 -52.7279 1319.73
v -65.5003 -47.4247 1311.01
v -65.7238 -48.6491 1311.25
v -65.7238 -48.6491 1311.25
v -63.3624 -47.443 1306.95
v -63.3624 -47.443 1306.95
v -63.3624 -47.443 1306.95
v -64.0145 -47.2235 1307.1
v -64.7186 -47.5932 1306.84
v -64.7186 -47.5932 1306.84
v -65.1031 -47.9592 1307
v -62.6824 -48.113 1307.16
v -62.6824 -48.113 1307.16
v -62.6824 -48.113 1307.16
v -65.0551 -48.7266 1307.02
v -65.0551 -48.7266 1307.02
v -62.7284 -48.8658 1307.49
v -63.2008 -49.3533 1307.35
v -64.3776 -49.6541 1307.25
v -64.3776 -49.6541 1307.25
v -64.2421 -49.7235 1307.38
vn -0.233474 0.944142 0.232565
vn -0.0739815 0.9495 0.30492
vn -0.138567 0.91745 0.372939
vn -0.660505 0.746364 -0.0816939
vn 0.267895 0.558777 0.784857
vn 0.850602 -0.201393 0.485714
vn -0.0846238 0.989743 0.1151
vn -0.792605 0.59375 -0.138699
vn 0.184832 0.956868 0.224144
vn -0.759605 0.62415 -0.182859
vn 0.835803 0.119581 0.535849
vn -0.562813 -0.477951 0.674392
vn 0.672192 -0.725573 0.147317
vn -0.320495 0.941886 -0.100668
vn 0.448851 0.891806 0.0566885
vn 0.0954384 0.993622 -0.0600607
vn 0.833058 0.541524 0.112987
vn -0.988044 -0.0703351 -0.137191
vn -0.789791 0.597009 -0.140748
vn -0.952775 0.120095 -0.278922
vn 0.953865 -0.126022 0.272506
vn 0.563977 -0.82102 0.0886306
vn 0.0571842 -0.979765 -0.191807
vn -0.312122 -0.932705 -0.18067
vn 0.228459 -0.973493 -0.0108943
vn -0.57292 -0.686633 -0.447546
vn -0.28905 -0.814296 -0.503361
vn 0.357466 -0.925932 -0.12193
vn 0.511621 0.851553 -0.11446
vn 0.255211 0.932373 -0.256022
vn -0.0641267 0.97328 -0.220486
vn -0.556671 0.801797 -0.217345
vn -0.541536 0.786076 -0.298031
vn -0.930633 0.304937 -0.202327
vn 0.738089 0.666096 -0.107427
vn -0.717518 -0.69151 -0.0835583
vn 0.636822 -0.748353 0.185539
vn -0.0510883 -0.994643 0.089865
vn -0.901529 -0.399179 -0.167036
vn 0.0178955 -0.157554 -0.987348
vn 0.92416 -0.32039 0.208035
vn 0.113034 -0.173224 -0.978375
vn 0.654248 -0.756191 -0.011618
vn 0.363359 -0.929538 0.0626849
vn 0.119217 -0.156047 -0.980529
vn -0.594436 -0.803852 0.0216342
vn 0.238592 -0.940374 -0.242426
vn -0.731263 0.672987 -0.1111
vn 0.357098 0.676881 0.643672
vn 0.804417 0.214306 0.554064
vn -0.555902 0.828183 0.0713135
vn 0.267895 0.558777 0.784857
vn -0.699344 -0.30219 0.647765
vn -0.827737 -0.189031 0.528317
vn -0.82315 -0.105958 -0.55785
vn 0.840745 -0.0239704 0.5409
vn 0.721441 -0.651213 0.235466
vn 0.167484 0.417294 0.893205
vn -0.388071 -0.594657 0.70412
vn -0.890839 0.0761574 -0.44789
vn -0.804831 -0.36834 -0.465374
vn 0.842378 0.393383 0.368306
vn -0.723358 -0.360622 -0.588816
vn 0.680832 -0.716991 0.149641
vn -0.228725 -0.810578 -0.539118
vn -0.740615 -0.268527 -0.61594
vn -0.21179 -0.75056 0.625943
vn -0.135483 -0.851831 -0.505992
vn -0.805765 0.574592 -0.143482
vn -0.679774 -0.669134 -0.300279
vn -0.893274 -0.361128 -0.267671
vn 0.71828 0.667992 -0.194578
vn 0.00359758 0.569448 -0.822019
vn 0.103967 -0.19039 -0.976188
vn 0.00359758 0.569448 -0.822019
vn 0.00359758 0.569448 -0.822019
vn -0.12671 -0.118827 -0.984797
vn -0.346129 -0.0460973 -0.937054
vn 0.979368 0.0951678 0.178275
vn 0.107486 -0.19309 -0.975276
vn 0.588507 -0.354456 -0.72665
vn -0.953116 -0.067318 -0.295023
vn -0.736899 -0.610338 -0.290631
vn 0.674286 -0.48904 -0.553334
vn 0.489796 -0.754123 -0.437491
vn 0.238595 -0.731237 -0.639034
vn -0.675004 -0.724906 -0.137409
vn -0.45685 -0.885406 0.085701
g grp1
usemtl mtl1
f 1//1 2//2 7//7 
f 1//1 3//3 2//2 
f 48//48 4//4 51//51 
f 49//49 52//52 5//5 
f 53//53 54//54 12//12 
f 56//56 6//6 11//11 
f 64//64 57//57 13//13 
f 50//50 56//56 11//11 
f 5//5 52//52 58//58 
f 59//59 53//53 12//12 
f 12//12 67//67 59//59 
f 1//1 7//7 19//19 
f 8//8 48//48 69//69 
f 7//7 2//2 9//9 
f 21//21 62//62 11//11 
f 48//48 8//8 10//10 
f 27//27 63//63 26//26 
f 22//22 21//21 64//64 
f 62//62 50//50 11//11 
f 28//28 64//64 13//13 
f 27//27 68//68 65//65 
f 27//27 28//28 68//68 
f 10//10 4//4 48//48 
f 55//55 63//63 66//66 
f 27//27 66//66 63//63 
f 14//14 32//32 19//19 
f 62//62 17//17 15//15 
f 14//14 7//7 16//16 
f 21//21 17//17 62//62 
f 29//29 16//16 15//15 
f 29//29 15//15 17//17 
f 9//9 15//15 7//7 
f 16//16 7//7 15//15 
f 14//14 19//19 7//7 
f 60//60 19//19 20//20 
f 61//61 70//70 26//26 
f 18//18 20//20 19//19 
f 70//70 24//24 26//26 
f 18//18 36//36 71//71 
f 22//22 37//37 21//21 
f 37//37 22//22 25//25 
f 22//22 23//23 25//25 
f 25//25 23//23 24//24 
f 23//23 27//27 26//26 
f 23//23 26//26 24//24 
f 26//26 63//63 61//61 
f 28//28 22//22 64//64 
f 28//28 23//23 22//22 
f 23//23 28//28 27//27 
f 30//30 31//31 29//29 
f 35//35 72//72 29//29 
f 29//29 31//31 16//16 
f 16//16 31//31 14//14 
f 31//31 33//33 32//32 
f 14//14 31//31 32//32 
f 75//75 73//73 76//76 
f 34//34 32//32 33//33 
f 34//34 19//19 32//32 
f 74//74 40//40 77//77 
f 18//18 19//19 34//34 
f 17//17 21//21 79//79 
f 40//40 74//74 80//80 
f 35//35 29//29 17//17 
f 79//79 21//21 41//41 
f 36//36 38//38 24//24 
f 36//36 46//46 38//38 
f 44//44 38//38 47//47 
f 39//39 46//46 36//36 
f 36//36 24//24 70//70 
f 41//41 21//21 37//37 
f 41//41 37//37 43//43 
f 44//44 43//43 37//37 
f 38//38 25//25 24//24 
f 25//25 38//38 37//37 
f 44//44 37//37 38//38 
f 40//40 78//78 77//77 
f 39//39 18//18 34//34 
f 18//18 39//39 36//36 
f 82//82 39//39 34//34 
f 80//80 42//42 40//40 
f 85//85 81//81 84//84 
f 85//85 84//84 43//43 
f 44//44 85//85 43//43 
f 40//40 42//42 45//45 
f 86//86 85//85 47//47 
f 85//85 44//44 47//47 
f 88//88 38//38 46//46 
f 83//83 87//87 39//39 
f 39//39 87//87 46//46 
f 88//88 46//46 87//87 
