#
# The license for this database is specified in the Creative Commons Attribution-Share Alike 2.1 Japan. If you use data from this database, please be sure attribute this database as follows: "BodyParts3D, (c)  The Database Center for Life Science licensed under CC Attribution-Share Alike 2.1 Japan".
# http://dbarchive.biosciencedbc.jp/en/bodyparts3d/lic.html
#
#
# Compatibility version : 4.0
# File ID : FJ1779
# Representation ID : BP10493
# Build-up logic : FMA 3.0 part_of
# Concept ID : FMA73423
# English name : Left superior colliculus
# Bounds(mm): (-0.605800,-74.307500,1537.272700)-(7.283500,-68.198700,1543.414100)
# Volume(cm3): 0.134200
#
v 0.53636 -71.5125 1537.93
v 1.19192 -72.0073 1537.86
v -0.5254 -71.4272 1539.5
v -0.537045 -71.3866 1540.21
v -0.557623 -71.0363 1539.48
v -0.0904576 -72.0876 1540.22
v -0.128437 -71.733 1538.88
v -0.039559 -72.092 1539.52
v -0.0868223 -71.1114 1538.35
v 0.57843 -72.4192 1538.91
v 0.593929 -72.024 1538.27
v 0.577606 -72.0183 1541.71
v 0.95611 -71.3471 1542.4
v 0.910416 -70.7852 1537.56
v 1.49287 -69.4776 1537.53
v -0.503051 -70.7304 1540.18
v -0.218324 -70.1258 1539.51
v -0.0117504 -70.3981 1538.28
v 0.856181 -68.9717 1538.66
v 1.47665 -68.6426 1540.44
v -0.0743882 -70.7718 1541.38
v 0.0703197 -69.7978 1540.72
v 0.59287 -69.7997 1541.73
v 1.52036 -69.8445 1542.47
v 2.03036 -73.5965 1540.12
v 3.99689 -74.1014 1539.58
v 3.16135 -73.967 1541.1
v 3.26254 -73.5868 1542.1
v 4.09955 -73.3267 1542.69
v 2.88347 -72.0285 1537.66
v 1.96035 -72.99 1538.55
v 2.03439 -73.2644 1541.69
v 2.37121 -72.6728 1542.66
v 2.46598 -72.0147 1543.09
v 3.13607 -72.6885 1543.01
v 3.66833 -72.027 1543.37
v 2.8555 -69.9669 1537.37
v 2.76388 -68.6514 1537.91
v 1.78494 -68.3729 1539.19
v 2.11171 -68.4444 1538.28
v 2.4518 -68.2338 1539.23
v 2.80937 -68.3939 1540.45
v 3.13907 -68.3174 1538.56
v 3.71199 -68.3151 1539.25
v 1.85161 -69.0209 1541.71
v 2.53075 -69.4969 1542.43
v 2.78775 -70.7908 1543.2
v 3.48534 -70.1287 1542.89
v 3.70586 -68.7407 1541.15
v 4.9241 -73.9174 1538.89
v 5.57644 -74.2261 1539.54
v 5.93678 -73.8522 1538.91
v 6.24427 -74.1788 1540.15
v 6.68359 -73.5739 1539.29
v 4.65553 -74.0066 1541.75
v 4.99682 -74.2727 1540.76
v 5.60202 -73.7302 1542.1
v 5.94903 -74.103 1541.15
v 6.5744 -73.5219 1541.77
v 5.14495 -73.29 1538.31
v 5.80913 -72.7987 1538.32
v 6.64439 -72.3089 1538.94
v 6.72916 -71.0666 1539.49
v 4.33872 -72.6607 1543.19
v 4.35261 -71.0525 1543.23
v 5.02139 -73.0037 1542.97
v 4.98918 -72.6448 1543.15
v 5.43833 -72.6791 1543.04
v 5.31825 -72.3351 1543.15
v 5.54195 -71.6838 1543.01
v 5.98037 -73.0006 1542.66
v 5.96281 -72.3672 1542.91
v 6.81536 -72.984 1542.1
v 6.63889 -72.6553 1542.42
v 6.55449 -72.0253 1542.5
v 4.37955 -71.7488 1543.36
v 4.30012 -69.1508 1537.94
v 4.72063 -69.8899 1537.81
v 5.70175 -70.2969 1538.29
v 4.92752 -68.7899 1538.89
v 4.89007 -68.7272 1540.13
v 5.62307 -69.5324 1538.61
v 5.61315 -69.1832 1539.31
v 6.63848 -70.477 1540.22
v 4.30994 -69.3015 1541.82
v 5.24841 -70.4194 1542.55
v 5.31801 -69.2585 1541.11
v 6.25196 -70.8038 1542.11
v 6.89125 -73.6204 1541.07
v 7.05222 -73.0059 1541.73
v 6.96676 -72.3088 1542.02
v 7.20012 -72.6194 1540.73
v 6.68359 -73.5739 1539.29
vn -0.530034 -0.351556 -0.771669
vn -0.284717 -0.499095 -0.818438
vn -0.907429 -0.378488 -0.182533
vn -0.947894 -0.229305 0.221169
vn -0.978132 0.10906 -0.177101
vn -0.720058 -0.680805 0.134244
vn -0.738644 -0.547748 -0.392908
vn -0.68852 -0.709771 -0.148879
vn -0.78745 -0.199067 -0.583347
vn -0.550104 -0.767068 -0.330139
vn -0.555001 -0.605591 -0.570292
vn -0.695382 -0.484496 0.530762
vn -0.581804 -0.0847013 0.808906
vn -0.348295 -0.0832297 -0.933683
vn -0.340874 0.447816 -0.826599
vn -0.951555 0.270207 0.146734
vn -0.864354 0.492409 -0.102102
vn -0.782964 0.302329 -0.543659
vn -0.633511 0.739258 -0.228389
vn -0.412657 0.885455 0.213737
vn -0.85118 0.082471 0.518355
vn -0.774055 0.599351 0.204001
vn -0.627939 0.536563 0.563731
vn -0.381721 0.466329 0.798014
vn -0.464788 -0.882355 -0.0736351
vn -0.190075 -0.955384 -0.226081
vn -0.260266 -0.948144 0.182441
vn -0.269092 -0.802077 0.533162
vn -0.0749295 -0.720222 0.689685
vn -0.00482153 -0.34188 -0.939731
vn -0.27186 -0.765105 -0.583701
vn -0.49311 -0.787367 0.369994
vn -0.450832 -0.570535 0.68647
vn -0.361515 -0.250508 0.898083
vn -0.236166 -0.539153 0.808418
vn -0.106791 -0.169925 0.979654
vn 0.0962191 0.10618 -0.989681
vn 0.053109 0.652192 -0.756191
vn -0.358126 0.932591 -0.0449406
vn -0.235024 0.882867 -0.406584
vn -0.0896071 0.995942 0.00839843
vn 0.012794 0.967105 0.254054
vn 0.150545 0.924617 -0.349887
vn 0.195053 0.980778 -0.00546317
vn -0.217937 0.83647 0.502814
vn -0.023244 0.697093 0.716604
vn -0.163166 0.231344 0.959092
vn 0.120847 0.571706 0.81151
vn 0.153606 0.884866 0.439792
vn -0.0554156 -0.814579 -0.577399
vn 0.0692214 -0.96455 -0.254659
vn 0.320674 -0.720516 -0.614837
vn 0.389779 -0.917616 -0.0778052
vn 0.831425 -0.505383 -0.230912
vn -0.0394098 -0.914118 0.403529
vn -0.0180779 -0.995882 0.0888392
vn 0.188623 -0.788445 0.58547
vn 0.263242 -0.917191 0.299107
vn 0.506391 -0.703744 0.498309
vn 0.0658112 -0.535179 -0.842171
vn 0.401439 -0.179848 -0.898054
vn 0.826263 0.00694294 -0.563241
vn 0.901989 0.256021 -0.347661
vn -0.0120952 -0.404087 0.914641
vn 0.190596 0.341996 0.92017
vn 0.130876 -0.572276 0.80955
vn 0.136162 -0.290435 0.947158
vn 0.2897 -0.338387 0.895303
vn 0.272168 -0.077019 0.959162
vn 0.403333 0.246932 0.881106
vn 0.393489 -0.510792 0.764368
vn 0.451098 -0.100733 0.886771
vn 0.684406 -0.386544 0.6182
vn 0.647597 -0.17978 0.740471
vn 0.651968 0.181889 0.736107
vn 0.118202 0.0118263 0.992919
vn 0.332293 0.584351 -0.740348
vn 0.394921 0.20815 -0.894824
vn 0.655966 0.182807 -0.732318
vn 0.441134 0.845943 -0.299636
vn 0.370964 0.916953 0.146913
vn 0.689133 0.510451 -0.51433
vn 0.686439 0.724051 -0.0674659
vn 0.882731 0.469026 0.0282997
vn 0.237515 0.75849 0.606861
vn 0.378899 0.571408 0.727962
vn 0.527904 0.764359 0.370233
vn 0.686195 0.488771 0.538739
vn 0.756055 -0.641546 0.129618
vn 0.881295 -0.32764 0.340545
vn 0.902143 0.128925 0.411724
vn 0.997476 -0.0062957 -0.0707211
vn 0.592476 -0.277962 -0.756115
g grp1
usemtl mtl1
f 2//2 31//31 11//11 
f 2//2 11//11 1//1 
f 2//2 1//1 14//14 
f 30//30 31//31 2//2 
f 30//30 2//2 14//14 
f 3//3 5//5 9//9 
f 3//3 4//4 5//5 
f 5//5 4//4 16//16 
f 4//4 21//21 16//16 
f 9//9 11//11 7//7 
f 9//9 7//7 3//3 
f 8//8 3//3 7//7 
f 6//6 3//3 8//8 
f 4//4 3//3 6//6 
f 9//9 5//5 18//18 
f 8//8 25//25 6//6 
f 6//6 25//25 32//32 
f 10//10 7//7 11//11 
f 10//10 8//8 7//7 
f 11//11 9//9 1//1 
f 1//1 9//9 14//14 
f 8//8 10//10 25//25 
f 10//10 11//11 31//31 
f 10//10 31//31 25//25 
f 6//6 12//12 4//4 
f 4//4 12//12 21//21 
f 6//6 32//32 12//12 
f 21//21 12//12 13//13 
f 12//12 33//33 13//13 
f 12//12 32//32 33//33 
f 13//13 33//33 34//34 
f 34//34 47//47 13//13 
f 9//9 18//18 14//14 
f 15//15 18//18 19//19 
f 15//15 14//14 18//18 
f 37//37 14//14 15//15 
f 37//37 15//15 38//38 
f 15//15 40//40 38//38 
f 40//40 15//15 19//19 
f 17//17 5//5 16//16 
f 5//5 17//17 18//18 
f 22//22 17//17 16//16 
f 18//18 17//17 19//19 
f 17//17 22//22 19//19 
f 20//20 22//22 23//23 
f 19//19 22//22 20//20 
f 20//20 23//23 45//45 
f 19//19 20//20 39//39 
f 39//39 40//40 19//19 
f 21//21 22//22 16//16 
f 22//22 21//21 23//23 
f 13//13 23//23 21//21 
f 24//24 23//23 13//13 
f 24//24 45//45 23//23 
f 24//24 13//13 47//47 
f 46//46 45//45 24//24 
f 42//42 20//20 45//45 
f 25//25 27//27 32//32 
f 27//27 25//25 26//26 
f 50//50 26//26 31//31 
f 25//25 31//31 26//26 
f 60//60 50//50 31//31 
f 28//28 32//32 27//27 
f 55//55 28//28 27//27 
f 29//29 28//28 55//55 
f 64//64 29//29 66//66 
f 30//30 14//14 37//37 
f 31//31 30//30 60//60 
f 28//28 33//33 32//32 
f 35//35 33//33 28//28 
f 34//34 33//33 35//35 
f 34//34 35//35 36//36 
f 35//35 28//28 29//29 
f 64//64 35//35 29//29 
f 64//64 36//36 35//35 
f 65//65 48//48 47//47 
f 86//86 48//48 65//65 
f 36//36 47//47 34//34 
f 36//36 76//76 47//47 
f 65//65 47//47 76//76 
f 43//43 38//38 40//40 
f 77//77 37//37 38//38 
f 61//61 30//30 37//37 
f 61//61 37//37 78//78 
f 78//78 37//37 77//77 
f 43//43 77//77 38//38 
f 43//43 40//40 41//41 
f 40//40 39//39 41//41 
f 39//39 20//20 41//41 
f 41//41 20//20 42//42 
f 43//43 41//41 44//44 
f 44//44 41//41 42//42 
f 44//44 42//42 81//81 
f 81//81 42//42 49//49 
f 46//46 24//24 47//47 
f 45//45 49//49 42//42 
f 49//49 45//45 46//46 
f 85//85 49//49 46//46 
f 48//48 46//46 47//47 
f 48//48 85//85 46//46 
f 86//86 85//85 48//48 
f 87//87 49//49 85//85 
f 26//26 56//56 27//27 
f 51//51 56//56 26//26 
f 26//26 50//50 51//51 
f 51//51 53//53 56//56 
f 50//50 52//52 51//51 
f 50//50 60//60 52//52 
f 53//53 58//58 56//56 
f 51//51 52//52 53//53 
f 61//61 52//52 60//60 
f 53//53 52//52 54//54 
f 52//52 61//61 93//93 
f 93//93 61//61 62//62 
f 54//54 62//62 92//92 
f 56//56 55//55 27//27 
f 66//66 29//29 57//57 
f 58//58 55//55 56//56 
f 57//57 29//29 55//55 
f 66//66 57//57 71//71 
f 58//58 57//57 55//55 
f 58//58 59//59 57//57 
f 59//59 71//71 57//57 
f 89//89 58//58 53//53 
f 58//58 89//89 59//59 
f 61//61 60//60 30//30 
f 62//62 79//79 63//63 
f 61//61 79//79 62//62 
f 64//64 66//66 67//67 
f 76//76 64//64 67//67 
f 66//66 71//71 68//68 
f 67//67 66//66 68//68 
f 68//68 69//69 67//67 
f 69//69 76//76 67//67 
f 70//70 86//86 65//65 
f 71//71 72//72 68//68 
f 68//68 72//72 69//69 
f 70//70 76//76 69//69 
f 76//76 70//70 65//65 
f 72//72 70//70 69//69 
f 71//71 59//59 73//73 
f 71//71 74//74 72//72 
f 71//71 73//73 74//74 
f 72//72 75//75 70//70 
f 70//70 75//75 88//88 
f 72//72 74//74 75//75 
f 84//84 88//88 91//91 
f 75//75 91//91 88//88 
f 84//84 91//91 92//92 
f 64//64 76//76 36//36 
f 82//82 79//79 78//78 
f 82//82 78//78 77//77 
f 78//78 79//79 61//61 
f 80//80 77//77 43//43 
f 80//80 43//43 44//44 
f 82//82 77//77 80//80 
f 82//82 80//80 83//83 
f 81//81 83//83 80//80 
f 44//44 81//81 80//80 
f 82//82 83//83 84//84 
f 83//83 81//81 87//87 
f 79//79 82//82 63//63 
f 63//63 82//82 84//84 
f 84//84 83//83 87//87 
f 85//85 86//86 87//87 
f 87//87 81//81 49//49 
f 88//88 87//87 86//86 
f 88//88 86//86 70//70 
f 87//87 88//88 84//84 
f 89//89 53//53 54//54 
f 54//54 92//92 89//89 
f 59//59 89//89 90//90 
f 90//90 89//89 92//92 
f 62//62 63//63 92//92 
f 59//59 90//90 73//73 
f 73//73 90//90 91//91 
f 91//91 90//90 92//92 
f 73//73 91//91 74//74 
f 74//74 91//91 75//75 
f 63//63 84//84 92//92 
