# Blender v2.77 (sub 0) OBJ File: 'BLANKOblend.blend'
# www.blender.org
mtllib right hippocampus.mtl
o grp1
v -36.937500 -85.735603 1533.059570
v -36.139221 -89.531990 1533.761108
v -37.529297 -85.756111 1534.030273
v -37.448792 -85.386971 1535.102539
v -37.931717 -83.921638 1534.723877
v -37.799316 -82.661385 1534.351074
v -37.838135 -81.857674 1535.564453
v -36.093750 -84.158943 1532.446289
v -37.049805 -81.578377 1536.410156
v -33.745701 -78.646553 1538.670044
v -37.497375 -79.484138 1536.095337
v -37.405029 -79.317146 1535.346680
v -36.953125 -81.547127 1533.777344
v -37.543457 -77.324471 1536.631836
v -37.727661 -77.372322 1535.843018
v -35.195312 -72.672127 1538.939453
v -37.520996 -75.411873 1536.703125
v -37.585999 -75.584358 1536.059814
v -37.139648 -75.836189 1535.356445
v -37.064697 -74.702888 1535.921875
v -36.970215 -74.007576 1536.966675
v -35.154297 -91.650642 1532.122070
v -35.445801 -92.512215 1533.548096
v -34.089752 -94.853645 1533.340332
v -34.227539 -93.039314 1534.703125
v -35.614258 -87.752205 1532.294434
v -35.550293 -89.191658 1535.240234
v -35.363899 -85.138252 1536.599976
v -35.355957 -82.269783 1532.496094
v -35.724609 -79.406502 1533.625000
v -35.989258 -75.131111 1535.001953
v -35.210938 -72.840096 1536.234375
v -35.664062 -72.371590 1537.085938
v -33.828125 -72.340096 1535.904297
v -36.048828 -72.548714 1537.806396
v -35.579102 -69.375984 1537.936279
v -35.840210 -70.030281 1538.464111
v -35.333984 -69.738533 1539.070312
v -35.079346 -68.185310 1538.568237
v -34.362549 -94.273689 1532.306152
v -32.257935 -96.965950 1532.399902
v -34.169922 -92.124275 1531.341797
v -32.321289 -95.480721 1534.652344
v -30.503906 -94.742439 1535.746094
v -33.316406 -88.844002 1531.339844
v -32.339844 -81.765877 1532.337891
v -31.984375 -76.844002 1533.710938
v -28.113281 -76.234627 1541.167969
v -27.009766 -69.125252 1543.101562
v -32.988281 -68.113533 1540.429688
v -34.227539 -68.294197 1537.626953
v -33.449707 -66.938759 1539.758789
v -33.388916 -66.523689 1539.197510
v -31.977539 -96.745369 1531.532227
v -32.129398 -96.885353 1533.500000
v -30.553955 -99.298103 1533.181641
v -31.487801 -96.059853 1530.739990
v -30.167969 -98.691658 1534.041016
v -30.646799 -95.640953 1530.339966
v -28.567499 -90.311455 1531.479980
v -32.513672 -67.070564 1538.105469
v -32.179688 -64.199959 1540.072266
v -32.242188 -64.525642 1541.122070
v -32.609619 -64.572029 1540.494629
v -31.237305 -64.394783 1539.523438
v -30.149500 -64.151955 1542.640015
v -29.534912 -100.922737 1531.277832
v -30.844849 -99.590340 1531.041260
v -29.833984 -99.784431 1529.888672
v -29.068359 -99.975105 1529.499023
v -28.572201 -98.308151 1534.819946
v -28.829102 -96.086189 1530.115234
v -29.671875 -78.312752 1533.445312
v -28.591797 -70.203377 1536.734375
v -27.148438 -61.414314 1542.257812
v -30.681641 -62.706306 1541.806641
v -28.298828 -61.029549 1542.869141
v -27.716600 -65.507553 1539.439941
v -27.095200 -60.832050 1544.260010
v -27.281250 -62.062752 1544.453125
v -27.970398 -101.816170 1531.581543
v -28.671875 -101.390938 1530.159058
v -27.475000 -102.111252 1530.640015
v -26.850586 -100.728767 1533.716797
v -28.322266 -98.894783 1529.346191
v -27.235596 -100.769783 1529.274902
v -27.587891 -83.844002 1539.613281
v -25.261719 -90.054939 1538.011719
v -28.735001 -82.790253 1532.699951
v -26.929688 -74.344002 1541.683594
v -26.716309 -79.609627 1540.171875
v -25.695312 -65.336189 1545.015625
v -26.142578 -60.182869 1543.785156
v -26.582764 -102.076424 1529.932617
v -27.597656 -101.647713 1529.726318
v -26.237244 -102.430008 1530.986328
v -25.250122 -101.464119 1533.312500
v -26.435547 -99.989021 1529.364258
v -24.254200 -99.073349 1535.459961
v -25.890625 -86.070564 1538.625000
v -26.620117 -83.758064 1533.267578
v -27.060303 -79.484627 1534.199219
v -27.598499 -74.706451 1535.400024
v -25.977600 -74.501152 1540.910034
v -26.097656 -67.531502 1539.000000
v -25.707031 -70.187752 1538.265625
v -25.080811 -68.517830 1543.245117
v -25.950195 -68.359627 1543.593750
v -23.640625 -60.291267 1547.031250
v -25.168701 -102.285164 1531.472900
v -24.864502 -101.962044 1530.456543
v -23.940674 -101.675117 1531.495972
v -24.147461 -101.712166 1532.509766
v -25.449219 -101.158089 1529.580078
v -25.036200 -94.948952 1531.550049
v -24.125000 -99.672127 1530.281250
v -22.124023 -97.054939 1536.776367
v -24.042969 -90.732674 1537.355469
v -23.858398 -89.623299 1536.761719
v -24.924316 -84.617439 1537.061523
v -25.418457 -84.664314 1534.010742
v -25.397675 -80.829353 1537.284790
v -25.467712 -81.051521 1536.018799
v -25.722900 -81.031952 1538.520020
v -25.401100 -74.499352 1539.540039
v -25.280518 -71.517830 1538.819824
v -24.729248 -69.918221 1540.805664
v -25.029600 -70.564651 1541.770020
v -24.009899 -67.213852 1542.790039
v -25.218950 -63.608902 1541.739990
v -25.316200 -66.535454 1544.510010
v -24.239401 -66.343849 1544.430054
v -23.253906 -64.701424 1545.996094
v -22.050781 -62.978767 1548.146484
v -22.613281 -63.853767 1547.089844
v -23.437500 -60.836189 1544.390625
v -24.176758 -59.567635 1545.964844
v -23.570312 -59.608406 1545.486328
v -23.892578 -100.851814 1530.488281
v -21.054688 -97.418221 1532.679688
v -20.115967 -97.735359 1533.601074
v -20.180115 -98.303780 1534.109985
v -21.778320 -98.590096 1535.977539
v -22.182007 -93.187752 1533.736816
v -22.485535 -91.503670 1534.773926
v -22.819799 -91.048950 1535.829956
v -23.898804 -87.785164 1534.997559
v -23.291016 -63.283455 1543.515625
v -23.169678 -64.647713 1543.801758
v -22.909302 -64.630623 1544.815063
v -22.301025 -64.030525 1546.089111
v -22.176901 -63.905251 1546.719971
v -20.542969 -60.233833 1547.208984
v -20.972656 -62.349861 1546.457031
v -20.881348 -59.736580 1547.759521
v -21.703125 -59.632576 1547.927734
v -20.799561 -98.426033 1535.521484
v -21.202148 -97.562752 1536.455078
v -20.319336 -97.478035 1535.690430
v -21.119141 -96.213142 1536.506836
v -20.377197 -95.475349 1535.354736
v -21.054688 -63.340096 1548.359375
v -20.439453 -62.924568 1547.669922
v -20.531250 -63.223885 1548.203125
v -20.969999 -63.338352 1548.459961
v -21.222300 -63.426453 1547.589966
v -20.383301 -63.267754 1548.329956
v -20.255400 -62.174953 1550.229980
v -19.869141 -61.318611 1550.361328
v -18.986328 -63.059517 1551.079102
v -18.551758 -61.479744 1549.221680
v -19.481445 -60.413826 1549.261230
v -20.037964 -96.521736 1533.895752
v -19.826759 -97.194038 1534.541992
v -18.131836 -62.569099 1549.931641
v -18.376953 -62.664192 1551.328125
v -18.671875 -63.402596 1550.726562
v -18.600700 -63.279850 1550.180054
v -18.026764 -63.029465 1550.779785
v -18.267090 -62.091072 1550.994629
v -17.892609 -62.446541 1550.604004
v -18.284790 -61.627449 1550.229492
vn -0.7403 -0.0836 -0.6670
vn -0.9643 -0.2587 -0.0570
vn -0.9519 -0.2065 -0.2265
vn -0.8019 -0.2682 0.5339
vn -0.9929 -0.1089 0.0477
vn -0.8843 0.1400 -0.4453
vn -0.9394 0.0383 0.3407
vn -0.4790 0.1250 -0.8689
vn -0.6015 -0.1249 0.7891
vn -0.8882 0.1384 -0.4382
vn -0.9746 -0.0387 0.2205
vn -0.6647 0.2502 -0.7040
vn -0.8222 -0.0738 0.5644
vn -0.9595 0.0290 -0.2804
vn -0.6104 -0.0733 0.7887
vn -0.9153 0.1586 0.3703
vn -0.9264 0.2476 -0.2836
vn -0.6321 0.2555 -0.7315
vn -0.6892 0.5148 -0.5099
vn -0.8868 0.4508 0.1021
vn -0.8066 -0.1608 -0.5687
vn -0.7851 -0.4233 -0.4521
vn -0.9172 -0.3669 0.1551
vn -0.7718 -0.5930 0.2294
vn -0.6519 -0.2857 0.7025
vn -0.5597 -0.3814 0.7357
vn -0.6084 -0.0733 -0.7902
vn -0.4178 -0.2228 0.8808
vn -0.3150 0.2314 -0.9205
vn -0.4010 -0.1631 0.9014
vn -0.4617 0.2511 -0.8507
vn -0.3230 0.4061 -0.8548
vn -0.4256 0.6238 -0.6555
vn -0.2073 0.4541 -0.8665
vn -0.9412 0.2917 0.1703
vn -0.6621 0.4683 -0.5851
vn -0.7901 0.3880 -0.4746
vn -0.9551 0.1505 0.2551
vn -0.6782 0.0830 0.7302
vn -0.7917 0.6108 -0.0038
vn -0.8097 -0.5785 -0.0986
vn -0.4973 -0.4307 0.7532
vn -0.2915 -0.3255 0.8995
vn -0.4886 -0.0752 -0.8693
vn -0.1387 0.1253 -0.9824
vn 0.0146 0.2143 -0.9767
vn -0.0414 0.3365 -0.9408
vn -0.1614 -0.2300 0.9597
vn -0.3220 -0.2290 0.9186
vn -0.5687 0.0044 0.8226
vn -0.3452 0.5302 -0.7744
vn -0.8078 0.3067 0.5034
vn -0.7383 0.6122 -0.2829
vn -0.6187 -0.6548 0.4341
vn -0.7411 -0.6215 0.2539
vn -0.7511 -0.3548 -0.5567
vn -0.5513 -0.2010 -0.8098
vn -0.4461 -0.5352 0.7174
vn -0.2598 0.0625 -0.9636
vn 0.1846 0.1864 -0.9650
vn -0.1896 0.5366 -0.8222
vn -0.5256 0.7298 -0.4371
vn -0.8658 0.4776 0.1495
vn -0.7278 0.2504 0.6384
vn -0.1011 0.6137 -0.7830
vn -0.5556 0.0065 0.8314
vn -0.8359 -0.4910 -0.2453
vn -0.6249 -0.7784 0.0601
vn -0.5879 -0.2664 -0.7638
vn -0.2312 -0.4371 0.8692
vn 0.1118 0.2332 -0.9660
vn 0.2219 0.2720 -0.9364
vn 0.2143 0.3850 -0.8977
vn -0.6707 0.6984 0.2496
vn -0.4324 0.8941 -0.1165
vn 0.1463 0.6736 -0.7245
vn 0.2491 0.4923 -0.8340
vn -0.6193 0.4652 0.6325
vn -0.6041 0.0624 0.7945
vn -0.3578 -0.2390 -0.9027
vn -0.5278 -0.7398 -0.4172
vn -0.3969 -0.8698 0.2932
vn -0.3260 -0.9360 -0.1330
vn -0.2319 -0.6770 0.6985
vn -0.0248 0.1745 -0.9843
vn -0.0161 -0.2086 -0.9779
vn -0.0218 -0.2074 0.9780
vn 0.1546 -0.1861 0.9703
vn 0.2554 0.1902 -0.9479
vn 0.2531 -0.2769 0.9270
vn 0.5573 -0.2020 0.8054
vn -0.3929 -0.3384 0.8551
vn -0.0484 0.9161 -0.3981
vn -0.2434 -0.6479 -0.7218
vn 0.0002 -0.7957 -0.6057
vn -0.0213 -0.9997 0.0139
vn -0.0112 -0.8037 0.5949
vn 0.2198 0.1552 -0.9631
vn -0.1300 -0.5410 0.8309
vn 0.6437 -0.0230 0.7649
vn 0.4943 0.1780 -0.8509
vn 0.5994 0.2385 -0.7641
vn 0.4163 0.3025 -0.8574
vn 0.7745 -0.2804 0.5670
vn 0.5102 0.3663 -0.7781
vn 0.7176 0.2262 -0.6587
vn 0.5478 -0.4452 0.7083
vn 0.0577 -0.3988 0.9152
vn 0.3285 -0.2624 -0.9073
vn 0.4537 -0.7463 -0.4871
vn 0.2071 -0.9739 0.0926
vn 0.6324 -0.7562 -0.1678
vn 0.3852 -0.8771 0.2871
vn 0.3502 0.2640 -0.8987
vn 0.4769 0.1292 -0.8694
vn 0.0751 -0.2367 0.9687
vn 0.6327 0.1410 0.7615
vn 0.8446 0.2525 0.4722
vn 0.9308 0.1379 0.3385
vn 0.7852 0.2704 -0.5571
vn 0.9281 0.1746 -0.3288
vn 0.9928 0.0560 0.1059
vn 0.9076 -0.0288 0.4189
vn 0.9751 -0.1207 0.1861
vn 0.9521 0.0655 -0.2987
vn 0.9721 -0.2332 0.0257
vn 0.9044 -0.2968 0.3065
vn 0.8848 -0.4076 0.2259
vn 0.4816 0.4365 -0.7599
vn -0.0122 -0.5018 0.8649
vn 0.4117 -0.6666 0.6213
vn 0.3355 -0.8104 0.4803
vn -0.5124 -0.4421 0.7362
vn -0.5863 0.2901 0.7564
vn 0.0399 -0.8493 0.5265
vn 0.5087 0.4923 -0.7063
vn -0.3258 0.9029 0.2803
vn 0.2391 0.8824 -0.4053
vn 0.6646 -0.3151 -0.6775
vn 0.6066 0.1472 -0.7813
vn 0.8636 -0.1600 -0.4781
vn 0.8351 -0.5492 -0.0302
vn 0.2096 -0.6616 0.7200
vn 0.9524 0.3018 -0.0426
vn 0.8729 0.4192 0.2497
vn 0.8868 0.4353 -0.1554
vn 0.6349 0.3353 -0.6960
vn 0.7867 0.1351 -0.6024
vn 0.9581 -0.0785 -0.2753
vn 0.8970 -0.4336 -0.0860
vn 0.6844 -0.7276 -0.0478
vn 0.3722 -0.9108 0.1783
vn 0.6633 0.5110 -0.5467
vn 0.7687 -0.2191 -0.6009
vn -0.2003 0.8789 0.4330
vn 0.3837 0.9170 -0.1086
vn 0.6158 -0.6371 0.4636
vn 0.4147 -0.2942 0.8611
vn 0.8224 -0.2146 0.5269
vn 0.5833 0.0855 0.8078
vn 0.8895 0.3248 0.3213
vn -0.0615 -0.9511 0.3028
vn 0.6224 -0.6265 -0.4691
vn 0.1956 -0.9772 -0.0829
vn 0.1664 -0.9738 -0.1551
vn 0.5309 -0.8149 -0.2325
vn 0.4534 -0.7973 -0.3984
vn -0.6366 -0.0209 0.7709
vn -0.3505 -0.4816 0.8032
vn 0.8612 0.2944 -0.4142
vn -0.2863 0.4877 0.8247
vn 0.4343 0.8694 0.2357
vn 0.9960 -0.0309 0.0834
vn 0.8642 0.2924 -0.4096
vn 0.8397 -0.2890 -0.4597
vn 0.3011 -0.0311 0.9531
vn 0.1087 -0.9474 0.3011
vn 0.4541 -0.8191 -0.3505
vn 0.8167 -0.5319 0.2237
vn 0.9921 0.0783 0.0979
vn 0.4675 0.5584 0.6853
vn 0.7544 0.6416 0.1389
usemtl mtl1
s 1
f 1//1 2//2 3//3
f 2//2 4//4 3//3
f 4//4 5//5 3//3
f 3//3 5//5 6//6
f 1//1 3//3 6//6
f 4//4 7//7 5//5
f 5//5 7//7 6//6
f 6//6 8//8 1//1
f 9//9 7//7 4//4
f 12//10 6//6 7//7
f 9//9 11//11 7//7
f 7//7 11//11 12//10
f 12//10 13//12 6//6
f 14//13 11//11 9//9
f 11//11 15//14 12//10
f 11//11 14//13 15//14
f 14//13 9//9 16//15
f 14//13 17//16 15//14
f 15//14 17//16 18//17
f 19//18 15//14 18//17
f 20//19 19//18 18//17
f 18//17 17//16 21//20
f 14//13 16//15 17//16
f 22//21 40//22 23//23
f 40//22 24//24 23//23
f 23//23 2//2 22//21
f 23//23 27//25 2//2
f 27//25 23//23 25//26
f 26//27 22//21 2//2
f 4//4 2//2 27//25
f 1//1 26//27 2//2
f 26//27 1//1 8//8
f 27//25 28//28 4//4
f 8//8 6//6 13//12
f 13//12 29//29 8//8
f 9//9 4//4 28//28
f 28//28 10//30 9//9
f 29//29 13//12 30//31
f 12//10 30//31 13//12
f 30//31 12//10 15//14
f 30//31 15//14 19//18
f 16//15 9//9 10//30
f 18//17 21//20 20//19
f 19//18 20//19 31//32
f 20//19 32//33 31//32
f 32//33 34//34 31//32
f 17//16 35//35 21//20
f 20//19 21//20 33//36
f 33//36 21//20 35//35
f 20//19 33//36 32//33
f 35//35 17//16 16//15
f 33//36 35//35 36//37
f 16//15 37//38 35//35
f 37//38 16//15 38//39
f 35//35 37//38 36//37
f 39//40 37//38 38//39
f 36//37 37//38 39//40
f 24//24 40//22 41//41
f 24//24 43//42 25//26
f 25//26 43//42 44//43
f 40//22 22//21 42//44
f 25//26 23//23 24//24
f 42//44 22//21 26//27
f 45//45 42//44 26//27
f 28//28 27//25 25//26
f 45//45 26//27 8//8
f 45//45 8//8 29//29
f 46//46 45//45 29//29
f 29//29 30//31 47//47
f 47//47 46//46 29//29
f 30//31 19//18 31//32
f 47//47 30//31 31//32
f 16//15 10//30 48//48
f 16//15 49//49 50//50
f 48//48 49//49 16//15
f 33//36 36//37 34//34
f 32//33 33//36 34//34
f 16//15 50//50 38//39
f 34//34 36//37 51//51
f 38//39 52//52 39//40
f 51//51 36//37 39//40
f 50//50 52//52 38//39
f 39//40 52//52 53//53
f 53//53 51//51 39//40
f 41//41 56//54 55//55
f 41//41 40//22 54//56
f 54//56 40//22 57//57
f 41//41 55//55 24//24
f 24//24 58//58 43//42
f 55//55 58//58 24//24
f 44//43 43//42 58//58
f 59//59 57//57 42//44
f 57//57 40//22 42//44
f 25//26 44//43 28//28
f 59//59 42//44 45//45
f 60//60 45//45 46//46
f 47//47 31//32 34//34
f 61//61 47//47 34//34
f 34//34 51//51 61//61
f 51//51 53//53 61//61
f 61//61 53//53 62//62
f 52//52 64//63 53//53
f 52//52 63//64 64//63
f 62//62 53//53 64//63
f 62//62 65//65 61//61
f 50//50 63//64 52//52
f 66//66 63//64 50//50
f 68//67 67//68 56//54
f 68//67 56//54 41//41
f 54//56 69//69 68//67
f 56//54 58//58 55//55
f 41//41 54//56 68//67
f 69//69 54//56 57//57
f 58//58 71//70 44//43
f 72//71 59//59 45//45
f 47//47 73//72 46//46
f 61//61 65//65 74//73
f 50//50 49//49 66//66
f 62//62 64//63 76//74
f 64//63 63//64 76//74
f 62//62 77//75 65//65
f 77//75 62//62 76//74
f 75//76 78//77 65//65
f 63//64 66//66 79//78
f 79//78 76//74 63//64
f 79//78 66//66 80//79
f 70//80 82//81 69//69
f 67//68 68//67 82//81
f 82//81 68//67 69//69
f 56//54 67//68 81//82
f 81//82 67//68 82//81
f 83//83 81//82 82//81
f 84//84 58//58 56//54
f 84//84 56//54 81//82
f 59//59 70//80 69//69
f 59//59 69//69 57//57
f 59//59 85//85 70//80
f 86//86 70//80 85//85
f 59//59 72//71 85//85
f 60//60 72//71 45//45
f 28//28 44//43 87//87
f 10//30 28//28 87//87
f 44//43 88//88 87//87
f 48//48 10//30 87//87
f 73//72 89//89 46//46
f 90//90 48//48 91//91
f 47//47 74//73 73//72
f 47//47 61//61 74//73
f 78//77 74//73 65//65
f 66//66 49//49 92//92
f 79//78 77//75 76//74
f 75//76 65//65 77//75
f 77//75 93//93 75//76
f 83//83 95//94 94//95
f 83//83 82//81 95//94
f 83//83 96//96 81//82
f 94//95 96//96 83//83
f 96//96 97//97 81//82
f 95//94 82//81 70//80
f 86//86 94//95 95//94
f 97//97 84//84 81//82
f 58//58 84//84 71//70
f 86//86 95//94 70//80
f 98//98 86//86 85//85
f 71//70 84//84 99//99
f 46//46 89//89 60//60
f 100//100 87//87 88//88
f 87//87 100//100 91//91
f 91//91 48//48 87//87
f 101//101 89//89 73//72
f 101//101 73//72 102//102
f 102//102 73//72 103//103
f 104//104 90//90 91//91
f 103//103 73//72 74//73
f 74//73 105//105 103//103
f 103//103 105//105 106//106
f 90//90 107//107 108//108
f 90//90 104//104 107//107
f 49//49 48//48 90//90
f 49//49 90//90 108//108
f 80//79 66//66 92//92
f 114//109 94//95 86//86
f 94//95 111//110 96//96
f 111//110 110//111 96//96
f 94//95 114//109 111//110
f 111//110 112//112 110//111
f 96//96 110//111 97//97
f 110//111 113//113 97//97
f 98//98 114//109 86//86
f 97//97 99//99 84//84
f 85//85 115//114 98//98
f 115//114 116//115 98//98
f 72//71 115//114 85//85
f 71//70 117//116 44//43
f 72//71 60//60 115//114
f 117//116 88//88 44//43
f 88//88 118//117 100//100
f 100//100 118//117 119//118
f 89//89 115//114 60//60
f 120//119 100//100 119//118
f 101//101 102//102 121//120
f 123//121 122//122 120//119
f 100//100 120//119 124//123
f 100//100 124//123 91//91
f 120//119 122//122 124//123
f 121//120 102//102 123//121
f 125//124 124//123 122//122
f 91//91 124//123 125//124
f 104//104 91//91 125//124
f 106//106 102//102 103//103
f 122//122 123//121 125//124
f 102//102 106//106 123//121
f 123//121 126//125 125//124
f 125//124 126//125 127//126
f 123//121 106//106 126//125
f 125//124 128//127 104//104
f 128//127 125//124 127//126
f 107//107 104//104 128//127
f 128//127 129//128 107//107
f 78//77 105//105 74//73
f 78//77 130//129 105//105
f 131//130 108//108 107//107
f 131//130 49//49 108//108
f 92//92 49//49 131//130
f 131//130 107//107 132//131
f 132//131 133//132 131//130
f 133//132 92//92 131//130
f 80//79 92//92 134//133
f 80//79 134//133 109//134
f 92//92 135//135 134//133
f 78//77 75//76 130//129
f 75//76 136//136 130//129
f 136//136 75//76 93//93
f 93//93 77//75 137//137
f 138//138 93//93 137//137
f 79//78 137//137 77//75
f 79//78 109//134 137//137
f 80//79 109//134 79//78
f 110//111 112//112 113//113
f 114//109 139//139 111//110
f 139//139 114//109 116//115
f 116//115 140//140 139//139
f 140//140 141//141 139//139
f 139//139 112//112 111//110
f 112//112 139//139 142//142
f 142//142 139//139 141//141
f 98//98 116//115 114//109
f 99//99 97//97 143//143
f 99//99 117//116 71//70
f 117//116 118//117 88//88
f 115//114 89//89 101//101
f 147//144 120//119 119//118
f 147//144 119//118 146//145
f 145//146 147//144 146//145
f 145//146 144//147 147//144
f 147//144 144//147 121//120
f 101//101 121//120 144//147
f 147//144 123//121 120//119
f 123//121 147//144 121//120
f 148//148 126//125 106//106
f 126//125 149//149 127//126
f 148//148 149//149 126//125
f 127//126 129//128 128//127
f 150//150 107//107 129//128
f 132//131 107//107 150//150
f 129//128 149//149 150//150
f 129//128 127//126 149//149
f 150//150 133//132 132//131
f 106//106 105//105 148//148
f 150//150 151//151 133//132
f 149//149 148//148 150//150
f 92//92 133//132 135//135
f 135//135 133//132 152//152
f 151//151 152//152 133//132
f 130//129 148//148 105//105
f 136//136 148//148 130//129
f 136//136 153//153 148//148
f 153//153 154//154 148//148
f 138//138 136//136 93//93
f 136//136 138//138 153//153
f 138//138 137//137 156//155
f 155//156 138//138 156//155
f 137//137 109//134 156//155
f 112//112 142//142 113//113
f 157//157 143//143 113//113
f 142//142 157//157 113//113
f 99//99 143//143 117//116
f 117//116 143//143 158//158
f 143//143 97//97 113//113
f 143//143 157//157 158//158
f 157//157 159//159 158//158
f 116//115 115//114 140//140
f 160//160 118//117 117//116
f 160//160 117//116 158//158
f 160//160 158//158 159//159
f 140//140 115//114 144//147
f 119//118 118//117 160//160
f 119//118 160//160 161//161
f 161//161 146//145 119//118
f 101//101 144//147 115//114
f 151//151 150//150 154//154
f 150//150 148//148 154//154
f 134//133 135//135 162//162
f 154//154 163//163 151//151
f 151//151 163//163 152//152
f 152//152 162//162 135//135
f 162//162 152//152 164//164
f 162//162 164//164 165//165
f 163//163 166//166 152//152
f 166//166 163//163 167//167
f 134//133 168//168 109//134
f 162//162 170//169 134//133
f 170//169 168//168 134//133
f 153//153 171//170 154//154
f 109//134 169//171 156//155
f 168//168 169//171 109//134
f 172//172 156//155 169//171
f 153//153 138//138 155//156
f 172//172 153//153 155//156
f 172//172 155//156 156//155
f 142//142 159//159 157//157
f 142//142 174//173 159//159
f 142//142 141//141 174//173
f 140//140 173//174 141//141
f 141//141 173//174 174//173
f 160//160 159//159 161//161
f 159//159 174//173 161//161
f 140//140 144//147 173//174
f 161//161 145//146 146//145
f 145//146 173//174 144//147
f 145//146 161//161 173//174
f 161//161 174//173 173//174
f 175//175 163//163 154//154
f 154//154 171//170 175//175
f 168//168 170//169 169//171
f 170//169 176//176 169//171
f 164//164 177//177 165//165
f 162//162 177//177 170//169
f 170//169 177//177 176//176
f 164//164 178//178 177//177
f 178//178 179//179 177//177
f 179//179 176//176 177//177
f 163//163 178//178 167//167
f 175//175 178//178 163//163
f 179//179 178//178 175//175
f 179//179 181//180 176//176
f 176//176 181//180 180//181
f 179//179 175//175 181//180
f 175//175 171//170 181//180
f 181//180 171//170 182//182
f 182//182 180//181 181//180
f 171//170 153//153 172//172
f 180//181 172//172 169//171
f 176//176 180//181 169//171
f 180//181 182//182 172//172
f 171//170 172//172 182//182
